<?xml version="1.0" encoding="UTF-8" standalone="no"?>
<!-- Created with Inkscape (http://www.inkscape.org/) -->

<svg
   xmlns:dc="http://purl.org/dc/elements/1.1/"
   xmlns:cc="http://creativecommons.org/ns#"
   xmlns:rdf="http://www.w3.org/1999/02/22-rdf-syntax-ns#"
   xmlns:svg="http://www.w3.org/2000/svg"
   xmlns="http://www.w3.org/2000/svg"
   xmlns:sodipodi="http://sodipodi.sourceforge.net/DTD/sodipodi-0.dtd"
   xmlns:inkscape="http://www.inkscape.org/namespaces/inkscape"
   id="svg3883"
   height="22"
   width="22"
   version="1.1"
   inkscape:version="0.48.5 r10040"
   sodipodi:docname="nm-signal-100.svg">
  <defs
     id="defs9" />
  <sodipodi:namedview
     pagecolor="#ffffff"
     bordercolor="#666666"
     borderopacity="1"
     objecttolerance="10"
     gridtolerance="10"
     guidetolerance="10"
     inkscape:pageopacity="0"
     inkscape:pageshadow="2"
     inkscape:window-width="1366"
     inkscape:window-height="744"
     id="namedview7"
     showgrid="true"
     inkscape:zoom="15.170655"
     inkscape:cx="6.4637672"
     inkscape:cy="10.551214"
     inkscape:window-x="0"
     inkscape:window-y="24"
     inkscape:window-maximized="1"
     inkscape:current-layer="svg3883">
    <inkscape:grid
       type="xygrid"
       id="grid2986" />
  </sodipodi:namedview>
  <metadata
     id="metadata3888">
    <rdf:RDF>
      <cc:Work
         rdf:about="">
        <dc:format>image/svg+xml</dc:format>
        <dc:type
           rdf:resource="http://purl.org/dc/dcmitype/StillImage" />
        <dc:title></dc:title>
      </cc:Work>
    </rdf:RDF>
  </metadata>
  <path
     style="fill:#000000;stroke:none;stroke-width:1px;stroke-linecap:butt;stroke-linejoin:miter;stroke-opacity:1;fill-opacity:1;opacity:0.2"
     d="m 2,2 0,18 18,0 z"
     id="path3779"
     inkscape:connector-curvature="0" />
  <path
     style="fill:#4d4d4d;fill-opacity:1;stroke:none"
     d="M 2,4 3,5 3,19 18,19 2,3 2,2 20,20 2,20 z"
     id="path3758"
     inkscape:connector-curvature="0"
     sodipodi:nodetypes="ccccccccc" />
  <path
     sodipodi:nodetypes="sscccccccccccccccssssccss"
     inkscape:connector-curvature="0"
     d="m 16,2.9999996 c -1.108,0 -2,0.911 -2,2.0310004 L 14,6 l -1,0 0,4 0,1 6,0 0,-1 0,-2 0,-1 -1,1 0,2 -4,0 0,-3 4,0 1,-1 -1,0 0,-0.969 C 18,3.9109996 17.108,2.9999996 16,2.9999996 z m 0,1 c 0.554,0 1,0.442 1,1.0000004 l 0,1 -2,0 0,-1 c 0,-0.5580004 0.446,-1.0000004 1,-1.0000004 z"
     style="fill:#4d4d4d;fill-opacity:1"
     id="rect2822" />
</svg>
