<?xml version="1.0" encoding="UTF-8" standalone="no"?>
<svg
   xmlns:dc="http://purl.org/dc/elements/1.1/"
   xmlns:cc="http://creativecommons.org/ns#"
   xmlns:rdf="http://www.w3.org/1999/02/22-rdf-syntax-ns#"
   xmlns:svg="http://www.w3.org/2000/svg"
   xmlns="http://www.w3.org/2000/svg"
   xmlns:sodipodi="http://sodipodi.sourceforge.net/DTD/sodipodi-0.dtd"
   xmlns:inkscape="http://www.inkscape.org/namespaces/inkscape"
   height="16"
   width="16"
   version="1.1"
   id="svg9"
   sodipodi:docname="emblem-encrypted-locked.svg"
   inkscape:version="0.92.4 (5da689c313, 2019-01-14)">
  <metadata
     id="metadata15">
    <rdf:RDF>
      <cc:Work
         rdf:about="">
        <dc:format>image/svg+xml</dc:format>
        <dc:type
           rdf:resource="http://purl.org/dc/dcmitype/StillImage" />
      </cc:Work>
    </rdf:RDF>
  </metadata>
  <defs
     id="defs13" />
  <sodipodi:namedview
     pagecolor="#ffffff"
     bordercolor="#666666"
     borderopacity="1"
     objecttolerance="10"
     gridtolerance="10"
     guidetolerance="10"
     inkscape:pageopacity="0"
     inkscape:pageshadow="2"
     inkscape:window-width="1366"
     inkscape:window-height="674"
     id="namedview11"
     showgrid="true"
     inkscape:zoom="20.85965"
     inkscape:cx="2.4203344"
     inkscape:cy="7.0722484"
     inkscape:window-x="0"
     inkscape:window-y="33"
     inkscape:window-maximized="1"
     inkscape:current-layer="svg9">
    <inkscape:grid
       type="xygrid"
       id="grid831" />
  </sodipodi:namedview>
  <style
     type="text/css"
     id="current-color-scheme">
        .ColorScheme-PositiveText {
            color:#27ae60;
        }
        .ColorScheme-Text {
            color:#eff0f1;
        }
    </style>
  <path
     inkscape:connector-curvature="0"
     style="color:#27ae60;fill:currentColor;fill-opacity:1;stroke:none;stroke-width:0.99999994"
     class="ColorScheme-PositiveText"
     d="M 8.0000002,5e-7 A 7.9999997,7.9999997 0 0 0 4.8e-7,8.0000002 7.9999997,7.9999997 0 0 0 8.0000002,16 7.9999997,7.9999997 0 0 0 16,8.0000002 7.9999997,7.9999997 0 0 0 8.0000002,5e-7 Z"
     id="path4" />
  <path
     d="M 8,1 A 3,3 0 0 0 5,4 V 7 H 3 v 6 H 13 V 7 H 11 V 4 A 3,3 0 0 0 8,1 Z m 0,1 a 2,2 0 0 1 2,2 V 7 H 6 V 4 A 2,2 0 0 1 8,2 Z"
     id="path7"
     inkscape:connector-curvature="0"
     style="fill:#ffffff" />
</svg>
