<?xml version="1.0" encoding="UTF-8" standalone="no"?>
<!-- Created with Inkscape (http://www.inkscape.org/) -->

<svg
   xmlns:dc="http://purl.org/dc/elements/1.1/"
   xmlns:cc="http://creativecommons.org/ns#"
   xmlns:rdf="http://www.w3.org/1999/02/22-rdf-syntax-ns#"
   xmlns:svg="http://www.w3.org/2000/svg"
   xmlns="http://www.w3.org/2000/svg"
   xmlns:sodipodi="http://sodipodi.sourceforge.net/DTD/sodipodi-0.dtd"
   xmlns:inkscape="http://www.inkscape.org/namespaces/inkscape"
   width="22"
   height="22"
   id="svg18109"
   version="1.1"
   inkscape:version="0.48+devel r"
   sodipodi:docname="object-rotate-left.svg">
  <defs
     id="defs18111" />
  <sodipodi:namedview
     id="base"
     pagecolor="#ffffff"
     bordercolor="#666666"
     borderopacity="1.0"
     inkscape:pageopacity="0.0"
     inkscape:pageshadow="2"
     inkscape:zoom="33.895792"
     inkscape:cx="10.138268"
     inkscape:cy="13.339508"
     inkscape:document-units="px"
     inkscape:current-layer="layer1"
     showgrid="true"
     inkscape:window-width="1366"
     inkscape:window-height="669"
     inkscape:window-x="-4"
     inkscape:window-y="25"
     inkscape:window-maximized="1"
     inkscape:showpageshadow="false"
     showguides="true">
    <inkscape:grid
       type="xygrid"
       id="grid4122" />
    <sodipodi:guide
       position="3,3.0000174"
       orientation="-16,0"
       id="guide4126" />
    <sodipodi:guide
       position="3,19.000017"
       orientation="0,16"
       id="guide4128" />
    <sodipodi:guide
       position="19,19.000017"
       orientation="16,0"
       id="guide4130" />
    <sodipodi:guide
       position="19,3.0000174"
       orientation="0,-16"
       id="guide4132" />
    <sodipodi:guide
       position="2,2.0000174"
       orientation="-18,0"
       id="guide4134" />
    <sodipodi:guide
       position="2,20.000017"
       orientation="0,18"
       id="guide4136" />
    <sodipodi:guide
       position="20,20.000017"
       orientation="18,0"
       id="guide4138" />
    <sodipodi:guide
       position="20,2.0000174"
       orientation="0,-18"
       id="guide4140" />
  </sodipodi:namedview>
  <metadata
     id="metadata18114">
    <rdf:RDF>
      <cc:Work
         rdf:about="">
        <dc:format>image/svg+xml</dc:format>
        <dc:type
           rdf:resource="http://purl.org/dc/dcmitype/StillImage" />
        <dc:title />
      </cc:Work>
    </rdf:RDF>
  </metadata>
  <g
     inkscape:label="Capa 1"
     inkscape:groupmode="layer"
     id="layer1"
     transform="translate(0,-1030.3622)">
    <path
       style="opacity:1;fill:#f2f2f2;fill-opacity:1;stroke:none"
       d="M 3 3 L 3 12 L 10 12 L 10 10 L 10 7 L 10 6 L 10 5 L 10 3 L 3 3 z M 10 12 L 10 19 L 19 19 L 19 12 L 17 12 L 16 12 L 15 12 L 12 12 L 10 12 z M 4 4 L 9 4 L 9 11 L 4 11 L 4 4 z M 11 6.0859375 L 11 7.1074219 C 12.962971 7.5042304 14.504683 9.0365842 14.900391 11 L 15.910156 11 C 15.490278 8.4819837 13.51666 6.5062817 11 6.0859375 z M 11 13 L 18 13 L 18 18 L 11 18 L 11 13 z "
       transform="translate(0,1030.3622)"
       id="rect4109" />
  </g>
</svg>
