<?xml version="1.0" encoding="UTF-8" standalone="no"?>
<svg
   xmlns:dc="http://purl.org/dc/elements/1.1/"
   xmlns:cc="http://creativecommons.org/ns#"
   xmlns:rdf="http://www.w3.org/1999/02/22-rdf-syntax-ns#"
   xmlns:svg="http://www.w3.org/2000/svg"
   xmlns="http://www.w3.org/2000/svg"
   xmlns:sodipodi="http://sodipodi.sourceforge.net/DTD/sodipodi-0.dtd"
   xmlns:inkscape="http://www.inkscape.org/namespaces/inkscape"
   viewBox="0 0 16 16"
   id="svg2"
   version="1.1"
   inkscape:version="0.91pre2 r13516"
   width="100%"
   height="100%"
   sodipodi:docname="drive-removable-media-usb-symbolic.svg">
  <metadata
     id="metadata10">
    <rdf:RDF>
      <cc:Work
         rdf:about="">
        <dc:format>image/svg+xml</dc:format>
        <dc:type
           rdf:resource="http://purl.org/dc/dcmitype/StillImage" />
      </cc:Work>
    </rdf:RDF>
  </metadata>
  <defs
     id="defs8" />
  <sodipodi:namedview
     pagecolor="#ffffff"
     bordercolor="#666666"
     borderopacity="1"
     objecttolerance="10"
     gridtolerance="10"
     guidetolerance="10"
     inkscape:pageopacity="0"
     inkscape:pageshadow="2"
     inkscape:window-width="1301"
     inkscape:window-height="744"
     id="namedview6"
     showgrid="true"
     inkscape:zoom="5.2149125"
     inkscape:cx="-65.462751"
     inkscape:cy="14.554585"
     inkscape:window-x="65"
     inkscape:window-y="24"
     inkscape:window-maximized="1"
     inkscape:current-layer="svg2"
     inkscape:object-nodes="true"
     inkscape:snap-bbox="true"
     inkscape:bbox-nodes="true">
    <inkscape:grid
       type="xygrid"
       id="grid2987" />
  </sodipodi:namedview>
  <path
     style="fill:#4d4d4d"
     d="m 4,1 0.03125,2.03125 -0.09375,0 c -0.50273,0 -0.9058673,0.403521 -0.90625,0.90625 l 0,8.0625 C 3.03125,12 3,16 8,16 c 5,0 5.03125,-4 5.03125,-4 L 13,3.9375 C 12.999602,3.4347712 12.596481,3.0312505 12.09375,3.03125 L 12,3.03125 12,1 C 12,1 12,0 11,0 L 5,0 C 4,0 4,1 4,1 Z M 5,1 7,1 7,3 5,3 Z m 4,0 2,0 0,2 -1.96875,0.03125 z M 4.9740466,3.9973517 11.09375,4.09375 C 11.596419,4.1016681 12.002297,4.4972762 12,5 l 0,7 c 0,2.661017 -4,3 -4,3 0,0 -4,-0.322034 -4,-3 l 0.067797,-7.0963983 c 0.00105,-0.502728 0.4035824,-0.9141681 0.90625,-0.90625 z"
     id="path4"
     inkscape:connector-curvature="0"
     sodipodi:nodetypes="ccsccsccscccccccccccccccsscccccs" />
</svg>
