<?xml version="1.0" encoding="UTF-8" standalone="no"?>
<svg
   xmlns:dc="http://purl.org/dc/elements/1.1/"
   xmlns:cc="http://creativecommons.org/ns#"
   xmlns:rdf="http://www.w3.org/1999/02/22-rdf-syntax-ns#"
   xmlns:svg="http://www.w3.org/2000/svg"
   xmlns="http://www.w3.org/2000/svg"
   xmlns:sodipodi="http://sodipodi.sourceforge.net/DTD/sodipodi-0.dtd"
   xmlns:inkscape="http://www.inkscape.org/namespaces/inkscape"
   viewBox="0 0 16 16"
   id="svg2"
   version="1.1"
   inkscape:version="0.91pre2 r13516"
   sodipodi:docname="drive-removable-media-usb-symbolic-old.svg">
  <metadata
     id="metadata10">
    <rdf:RDF>
      <cc:Work
         rdf:about="">
        <dc:format>image/svg+xml</dc:format>
        <dc:type
           rdf:resource="http://purl.org/dc/dcmitype/StillImage" />
      </cc:Work>
    </rdf:RDF>
  </metadata>
  <defs
     id="defs8" />
  <sodipodi:namedview
     pagecolor="#ffffff"
     bordercolor="#666666"
     borderopacity="1"
     objecttolerance="10"
     gridtolerance="10"
     guidetolerance="10"
     inkscape:pageopacity="0"
     inkscape:pageshadow="2"
     inkscape:window-width="1301"
     inkscape:window-height="744"
     id="namedview6"
     showgrid="true"
     inkscape:object-nodes="true"
     inkscape:snap-bbox="true"
     inkscape:bbox-nodes="true"
     inkscape:zoom="10.429825"
     inkscape:cx="-22.350629"
     inkscape:cy="8.8918978"
     inkscape:window-x="65"
     inkscape:window-y="24"
     inkscape:window-maximized="1"
     inkscape:current-layer="svg2">
    <inkscape:grid
       type="xygrid"
       id="grid3339" />
  </sodipodi:namedview>
  <path
     style="fill:#4d4d4d"
     d="m 4.9284278,0 c -0.5027295,0 -0.90625,0.4035204 -0.90625,0.90625 l 0,12.1875 c 0,0.502729 0.4035205,0.90625 0.90625,0.90625 l 0.09375,0 0,2 5.9874992,0 0,-2 0.09375,0 c 0.50273,0 0.90625,-0.403521 0.90625,-0.90625 l 0,-12.1875 C 12.009677,0.4035204 11.606157,0 11.103427,0 Z m 0.9874992,1.0532522 4.149153,0.033898 c 0.502714,0.00411 0.906251,0.4035205 0.906251,0.90625 l 0,10.0301485 c 0,0.502729 -0.403525,0.908303 -0.906251,0.90625 l -4.149153,-0.01695 c -0.5027253,-0.0021 -0.90625,-0.403521 -0.90625,-0.90625 l 0,-10.0470968 c 0,-0.5027295 0.4035373,-0.9103571 0.90625,-0.90625 z M 6,13.990323 l 1,0 0,1 -1,0 z m 3,0 1,0 0,1 -1,0 z"
     id="path4"
     inkscape:connector-curvature="0"
     sodipodi:nodetypes="ssssccccsssssssssssssscccccccccc" />
</svg>
