<?xml version="1.0" encoding="UTF-8" standalone="no"?>
<!-- Created with Inkscape (http://www.inkscape.org/) -->

<svg
   xmlns:dc="http://purl.org/dc/elements/1.1/"
   xmlns:cc="http://creativecommons.org/ns#"
   xmlns:rdf="http://www.w3.org/1999/02/22-rdf-syntax-ns#"
   xmlns:svg="http://www.w3.org/2000/svg"
   xmlns="http://www.w3.org/2000/svg"
   xmlns:xlink="http://www.w3.org/1999/xlink"
   xmlns:sodipodi="http://sodipodi.sourceforge.net/DTD/sodipodi-0.dtd"
   xmlns:inkscape="http://www.inkscape.org/namespaces/inkscape"
   width="64"
   height="64"
   id="svg5453"
   version="1.1"
   inkscape:version="0.91 r13725"
   sodipodi:docname="folder-cloud.svg">
  <defs
     id="defs5455">
    <linearGradient
       inkscape:collect="always"
       xlink:href="#linearGradient4232"
       id="linearGradient4182"
       gradientUnits="userSpaceOnUse"
       x1="414.57144"
       y1="523.79797"
       x2="414.57144"
       y2="505.798"
       gradientTransform="matrix(1,0,0,0.99954446,0,-15.75672)" />
    <linearGradient
       id="linearGradient4232"
       inkscape:collect="always">
      <stop
         id="stop4234"
         offset="0"
         style="stop-color:#3d6584;stop-opacity:1" />
      <stop
         id="stop4236"
         offset="1"
         style="stop-color:#4a7ba3;stop-opacity:1" />
    </linearGradient>
    <linearGradient
       inkscape:collect="always"
       xlink:href="#linearGradient4233"
       id="linearGradient4239"
       x1="384.57144"
       y1="477.798"
       x2="404.57144"
       y2="497.798"
       gradientUnits="userSpaceOnUse"
       gradientTransform="translate(0,4e-6)" />
    <linearGradient
       inkscape:collect="always"
       id="linearGradient4233">
      <stop
         style="stop-color:#345671;stop-opacity:1;"
         offset="0"
         id="stop4235" />
      <stop
         style="stop-color:#345671;stop-opacity:0;"
         offset="1"
         id="stop4237" />
    </linearGradient>
    <linearGradient
       inkscape:collect="always"
       xlink:href="#linearGradient4172"
       id="linearGradient4178"
       x1="414.57144"
       y1="541.79797"
       x2="414.57144"
       y2="499.798"
       gradientUnits="userSpaceOnUse"
       gradientTransform="matrix(1,0,0,0.97587283,0,13.072173)" />
    <linearGradient
       inkscape:collect="always"
       id="linearGradient4172">
      <stop
         style="stop-color:#6298d5;stop-opacity:1"
         offset="0"
         id="stop4174" />
      <stop
         style="stop-color:#8ab7e1;stop-opacity:1"
         offset="1"
         id="stop4176" />
    </linearGradient>
  </defs>
  <sodipodi:namedview
     id="base"
     pagecolor="#ffffff"
     bordercolor="#666666"
     borderopacity="1.0"
     inkscape:pageopacity="0"
     inkscape:pageshadow="2"
     inkscape:zoom="6.0390625"
     inkscape:cx="22.556546"
     inkscape:cy="29.149077"
     inkscape:document-units="px"
     inkscape:current-layer="layer1"
     showgrid="true"
     fit-margin-top="0"
     fit-margin-left="0"
     fit-margin-right="0"
     fit-margin-bottom="0"
     inkscape:window-width="1366"
     inkscape:window-height="705"
     inkscape:window-x="0"
     inkscape:window-y="28"
     inkscape:window-maximized="1"
     inkscape:showpageshadow="false"
     borderlayer="true"
     inkscape:snap-bbox="true">
    <sodipodi:guide
       position="6.0000117,57.999996"
       orientation="51.999969,0"
       id="guide4097" />
    <sodipodi:guide
       position="6.0000117,6.0000264"
       orientation="0,52"
       id="guide4099" />
    <sodipodi:guide
       position="58.000012,6.0000264"
       orientation="-51.999969,0"
       id="guide4101" />
    <sodipodi:guide
       position="58.000012,57.999996"
       orientation="0,-52"
       id="guide4103" />
    <sodipodi:guide
       position="3.0000117,60.999996"
       orientation="57.999969,0"
       id="guide4105" />
    <sodipodi:guide
       position="3.0000117,3.0000264"
       orientation="0,58"
       id="guide4107" />
    <sodipodi:guide
       position="61.000012,3.0000264"
       orientation="-57.999969,0"
       id="guide4109" />
    <sodipodi:guide
       position="61.000012,60.999996"
       orientation="0,-58"
       id="guide4111" />
    <inkscape:grid
       type="xygrid"
       id="grid4115" />
    <sodipodi:guide
       position="20.000012,38.999996"
       orientation="23.999969,0"
       id="guide4129" />
    <sodipodi:guide
       position="20.000012,15.000026"
       orientation="0,24"
       id="guide4131" />
    <sodipodi:guide
       position="44.000012,15.000026"
       orientation="-23.999969,0"
       id="guide4133" />
    <sodipodi:guide
       position="44.000012,38.999996"
       orientation="0,-24"
       id="guide4135" />
    <sodipodi:guide
       position="22.000015,36.999992"
       orientation="19.999975,0"
       id="guide4137" />
    <sodipodi:guide
       position="22.000015,17.000017"
       orientation="0,20"
       id="guide4139" />
    <sodipodi:guide
       position="42.000015,17.000017"
       orientation="-19.999975,0"
       id="guide4141" />
    <sodipodi:guide
       position="42.000015,36.999992"
       orientation="0,-20"
       id="guide4143" />
    <sodipodi:guide
       position="22.000012,36.999996"
       orientation="7.9999695,0"
       id="guide4187" />
    <sodipodi:guide
       position="30.000012,36.999996"
       orientation="0,-8"
       id="guide4193" />
    <sodipodi:guide
       position="26.000012,17.000026"
       orientation="0,12"
       id="guide4300" />
  </sodipodi:namedview>
  <metadata
     id="metadata5458">
    <rdf:RDF>
      <cc:Work
         rdf:about="">
        <dc:format>image/svg+xml</dc:format>
        <dc:type
           rdf:resource="http://purl.org/dc/dcmitype/StillImage" />
        <dc:title />
      </cc:Work>
    </rdf:RDF>
  </metadata>
  <g
     inkscape:label="Capa 1"
     inkscape:groupmode="layer"
     id="layer1"
     transform="translate(-384.57143,-483.798)">
    <g
       transform="translate(-5e-6,1.5e-5)"
       id="g3172">
      <path
         inkscape:connector-curvature="0"
         id="rect4180"
         d="m 388.57143,489.79812 0,5 0,22 c 0,0.55373 0.446,1 1,1 l 54,0 c 0.55399,0 1,-0.44627 1,-1 l 0,-21.99023 c 0,-0.003 -0.002,-0.006 -0.002,-0.01 l 0.002,0 0,-1 -28,0 -3,-4 -25,0 z"
         style="fill:url(#linearGradient4182);fill-opacity:1;stroke:none" />
      <path
         inkscape:connector-curvature="0"
         id="path4230"
         d="m 388.57143,489.798 26,26 1,1 29,-16.74316 0,-6.25684 -28,0 -3,-4 z"
         style="fill:url(#linearGradient4239);fill-opacity:1;fill-rule:evenodd;stroke:none" />
      <rect
         ry="1"
         rx="1"
         y="496.798"
         x="390.57144"
         height="15"
         width="51.999989"
         id="rect3012"
         style="opacity:0.15;fill:#000000;fill-opacity:1;stroke:none" />
      <rect
         style="fill:#ffffff;fill-opacity:1;stroke:none"
         id="rect3014"
         width="50"
         height="14.000004"
         x="391.57144"
         y="497.798"
         rx="0.96153867"
         ry="0.93333364" />
      <path
         sodipodi:nodetypes="cccccscccccccccc"
         inkscape:connector-curvature="0"
         id="rect4113"
         d="m 424.57143,500.79812 -2.99999,-1.2e-4 -34,0 -10e-6,4.88107 0.002,0 c -5e-5,0.004 -0.002,0.008 -0.002,0.0114 l 0,35.13142 0,0.97619 1,0 56,0 1,0 0,-0.97619 0,-35.13142 0,-0.0114 0,-4.88095 z"
         style="fill:url(#linearGradient4178);fill-opacity:1;stroke:none" />
      <path
         sodipodi:nodetypes="cccccc"
         inkscape:connector-curvature="0"
         id="path4222"
         d="m 444.57143,493.798 0,1 -28,0 -3,-5 4,4 z"
         style="fill:#8fb1cc;fill-opacity:1;fill-rule:evenodd;stroke:none" />
      <path
         style="opacity:0.35;fill:#000000;fill-opacity:1;stroke:none"
         d="m 445.57144,541.798 0,0 c -28.99999,-1 -28.99999,-1 -57.99999,0 z"
         id="path3792-4"
         inkscape:connector-curvature="0"
         sodipodi:nodetypes="cccc" />
    </g>
    <rect
       style="fill:#4d4d4d;fill-opacity:1;stroke:none"
       id="rect4035"
       width="0"
       height="14.668059"
       x="352.95316"
       y="492.91455" />
    <rect
       style="fill:#4d4d4d;fill-opacity:1;stroke:none"
       id="rect4035-8"
       width="0"
       height="14.668059"
       x="359.91373"
       y="515.48517" />
    <rect
       style="fill:#4d4d4d;fill-opacity:1;stroke:none"
       id="rect4035-0"
       width="0"
       height="14.668059"
       x="361.72702"
       y="514.42444" />
    <rect
       style="fill:#4d4d4d;fill-opacity:1;stroke:none"
       id="rect4035-06"
       width="0"
       height="14.668059"
       x="335.79691"
       y="489.1333" />
    <rect
       style="fill:#4d4d4d;fill-opacity:1;stroke:none"
       id="rect4035-8-7"
       width="0"
       height="14.668059"
       x="342.75748"
       y="511.70392" />
    <rect
       style="fill:#4d4d4d;fill-opacity:1;stroke:none"
       id="rect4035-0-42"
       width="0"
       height="14.668059"
       x="344.57077"
       y="510.64319" />
    <rect
       style="fill:#4d4d4d;fill-opacity:1;stroke:none"
       id="rect4035-3"
       width="0"
       height="14.668059"
       x="335.79691"
       y="489.1333" />
    <rect
       style="fill:#4d4d4d;fill-opacity:1;stroke:none"
       id="rect4035-8-9"
       width="0"
       height="14.668059"
       x="342.75748"
       y="511.70392" />
    <rect
       style="fill:#4d4d4d;fill-opacity:1;stroke:none"
       id="rect4035-0-4"
       width="0"
       height="14.668059"
       x="344.57077"
       y="510.64319" />
    <rect
       style="fill:#4d4d4d;fill-opacity:1;stroke:none"
       id="rect4035-2"
       width="0"
       height="14.668059"
       x="335.79691"
       y="489.1333" />
    <rect
       style="fill:#4d4d4d;fill-opacity:1;stroke:none"
       id="rect4035-8-99"
       width="0"
       height="14.668059"
       x="342.75748"
       y="511.70392" />
    <rect
       style="fill:#4d4d4d;fill-opacity:1;stroke:none"
       id="rect4035-0-43"
       width="0"
       height="14.668059"
       x="344.57077"
       y="510.64319" />
    <rect
       style="fill:#4d4d4d;fill-opacity:1;stroke:none"
       id="rect4035-3-9"
       width="0"
       height="14.668059"
       x="335.79691"
       y="489.1333" />
    <rect
       style="fill:#4d4d4d;fill-opacity:1;stroke:none"
       id="rect4035-8-9-9"
       width="0"
       height="14.668059"
       x="342.75748"
       y="511.70392" />
    <rect
       style="fill:#4d4d4d;fill-opacity:1;stroke:none"
       id="rect4035-0-4-4"
       width="0"
       height="14.668059"
       x="344.57077"
       y="510.64319" />
    <rect
       style="fill:#4d4d4d;fill-opacity:1;stroke:none"
       id="rect4035-5"
       width="0"
       height="10.999983"
       x="406.06702"
       y="510.42273" />
    <rect
       style="fill:#4d4d4d;fill-opacity:1;stroke:none"
       id="rect4035-7"
       width="0"
       height="10.999983"
       x="401.51501"
       y="512.94183" />
    <rect
       style="fill:#4d4d4d;fill-opacity:1;stroke:none"
       id="rect4035-9"
       width="0"
       height="10.999983"
       x="397.00723"
       y="500.52325" />
    <rect
       style="fill:#4d4d4d;fill-opacity:1;stroke:none"
       id="rect4035-96"
       width="0"
       height="10.999983"
       x="397.85126"
       y="512.76068" />
    <rect
       style="fill:#4d4d4d;fill-opacity:1;stroke:none"
       id="rect4035-7-0"
       width="0"
       height="10.999983"
       x="393.29926"
       y="515.27979" />
    <rect
       style="fill:#4d4d4d;fill-opacity:1;stroke:none"
       id="rect4035-9-6"
       width="0"
       height="10.999983"
       x="388.79147"
       y="502.86121" />
    <rect
       style="fill:#4d4d4d;fill-opacity:1;stroke:none"
       id="rect4035-1"
       width="0"
       height="10.999983"
       x="406.06702"
       y="510.42273" />
    <rect
       style="fill:#4d4d4d;fill-opacity:1;stroke:none"
       id="rect4035-7-2"
       width="0"
       height="10.999983"
       x="401.51501"
       y="512.94183" />
    <rect
       style="fill:#4d4d4d;fill-opacity:1;stroke:none"
       id="rect4035-9-0"
       width="0"
       height="10.999983"
       x="397.00723"
       y="500.52325" />
    <rect
       style="fill:#4d4d4d;fill-opacity:1;stroke:none"
       id="rect4035-96-9"
       width="0"
       height="10.999983"
       x="397.85126"
       y="512.76068" />
    <rect
       style="fill:#4d4d4d;fill-opacity:1;stroke:none"
       id="rect4035-7-0-9"
       width="0"
       height="10.999983"
       x="393.29926"
       y="515.27979" />
    <rect
       style="fill:#4d4d4d;fill-opacity:1;stroke:none"
       id="rect4035-9-6-9"
       width="0"
       height="10.999983"
       x="388.79147"
       y="502.86121" />
    <path
       style="fill:#387ecc;fill-opacity:1;stroke:none;stroke-linecap:butt;stroke-linejoin:round"
       d="M 32 28 A 7 7 0 0 0 25 35 A 7 7 0 0 0 25.080078 36.001953 A 5 5 0 0 0 25 36 A 5 5 0 0 0 20 41 A 5 5 0 0 0 25 46 L 38 46 A 6 6 0 0 0 44 40 A 6 6 0 0 0 38.931641 34.078125 A 7 7 0 0 0 32 28 z M 32 29 A 6 6 0 0 1 32.599609 29.029297 A 6 6 0 0 1 35.386719 30.048828 A 6 6 0 0 1 35.388672 30.048828 A 6 6 0 0 1 36.699219 31.269531 A 6 6 0 0 1 36.699219 31.271484 A 6 6 0 0 1 37.914062 34.003906 A 6 6 0 0 1 38 35 A 5 5 0 0 1 38.996094 35.099609 A 5 5 0 0 1 39.478516 35.222656 A 5 5 0 0 1 39.480469 35.222656 A 5 5 0 0 1 39.947266 35.394531 A 5 5 0 0 1 39.949219 35.394531 A 5 5 0 0 1 40.396484 35.611328 A 5 5 0 0 1 40.400391 35.613281 A 5 5 0 0 1 40.822266 35.873047 A 5 5 0 0 1 40.826172 35.875 A 5 5 0 0 1 41.220703 36.175781 A 5 5 0 0 1 41.222656 36.177734 A 5 5 0 0 1 41.585938 36.515625 A 5 5 0 0 1 41.587891 36.517578 A 5 5 0 0 1 42.207031 37.298828 A 5 5 0 0 1 42.208984 37.300781 A 5 5 0 0 1 42.455078 37.732422 A 5 5 0 0 1 42.457031 37.734375 A 5 5 0 0 1 42.660156 38.1875 A 5 5 0 0 1 42.662109 38.189453 A 5 5 0 0 1 42.818359 38.662109 A 5 5 0 0 1 42.818359 38.664062 A 5 5 0 0 1 42.927734 39.150391 A 5 5 0 0 1 42.927734 39.152344 A 5 5 0 0 1 42.988281 39.646484 A 5 5 0 0 1 43 40 A 5 5 0 0 1 38 45 L 25 45 A 4 4 0 0 1 21 41 A 4 4 0 0 1 21.019531 40.601562 A 4 4 0 0 1 25 37 A 4 4 0 0 1 25.298828 37.013672 A 4 4 0 0 1 25.298828 37.015625 A 4 4 0 0 1 26.455078 37.277344 A 6 6 0 0 1 26.113281 36.130859 A 6 6 0 0 1 26.039062 35.623047 A 6 6 0 0 1 26.025391 35.507812 A 6 6 0 0 1 26 35 A 6 6 0 0 1 26.029297 34.400391 A 6 6 0 0 1 32 29 z "
       transform="translate(384.57143,483.798)"
       id="path4225" />
  </g>
</svg>
