<?xml version="1.0" encoding="UTF-8" standalone="no"?>
<!-- Created with Inkscape (http://www.inkscape.org/) -->

<svg
   xmlns:dc="http://purl.org/dc/elements/1.1/"
   xmlns:cc="http://creativecommons.org/ns#"
   xmlns:rdf="http://www.w3.org/1999/02/22-rdf-syntax-ns#"
   xmlns:svg="http://www.w3.org/2000/svg"
   xmlns="http://www.w3.org/2000/svg"
   xmlns:xlink="http://www.w3.org/1999/xlink"
   xmlns:sodipodi="http://sodipodi.sourceforge.net/DTD/sodipodi-0.dtd"
   xmlns:inkscape="http://www.inkscape.org/namespaces/inkscape"
   width="32"
   version="1.1"
   height="32"
   viewBox="0 0 32 32"
   id="svg42"
   sodipodi:docname="applications-accessories.svg"
   inkscape:version="0.92.1 r15371">
  <sodipodi:namedview
     pagecolor="#ffffff"
     bordercolor="#666666"
     borderopacity="1"
     objecttolerance="10"
     gridtolerance="10"
     guidetolerance="10"
     inkscape:pageopacity="0"
     inkscape:pageshadow="2"
     inkscape:window-width="1600"
     inkscape:window-height="808"
     id="namedview44"
     showgrid="false"
     inkscape:zoom="1"
     inkscape:cx="16"
     inkscape:cy="13.914895"
     inkscape:window-x="0"
     inkscape:window-y="0"
     inkscape:window-maximized="1"
     inkscape:current-layer="layer1">
    <inkscape:grid
       type="xygrid"
       id="grid4533" />
  </sodipodi:namedview>
  <defs
     id="defs5455">
    <linearGradient
       inkscape:collect="always"
       id="linearGradient4526">
      <stop
         style="stop-color:#02b588;stop-opacity:1"
         offset="0"
         id="stop4522" />
      <stop
         style="stop-color:#149221;stop-opacity:0.92156863"
         offset="1"
         id="stop4524" />
    </linearGradient>
    <linearGradient
       inkscape:collect="always"
       xlink:href="#linearGradient4400"
       id="linearGradient4244"
       y1="521.79803"
       x1="397.57144"
       y2="537.79797"
       x2="413.57141"
       gradientUnits="userSpaceOnUse"
       gradientTransform="matrix(1 0 0 1 -384.57143 -512.798)" />
    <linearGradient
       inkscape:collect="always"
       xlink:href="#linearGradient4303-6"
       id="linearGradient4191"
       y1="525.79797"
       y2="527.79797"
       x2="0"
       gradientUnits="userSpaceOnUse"
       gradientTransform="translate(-1.2e-5,3)" />
    <linearGradient
       inkscape:collect="always"
       id="linearGradient4159">
      <stop
         style="stop-color:#2a2c2f"
         id="stop4161" />
      <stop
         offset="1"
         style="stop-color:#424649"
         id="stop4163" />
    </linearGradient>
    <linearGradient
       inkscape:collect="always"
       id="linearGradient4400">
      <stop
         style="stop-color:#020303"
         id="stop4402" />
      <stop
         offset="1"
         style="stop-color:#424649;stop-opacity:0"
         id="stop4404" />
    </linearGradient>
    <linearGradient
       inkscape:collect="always"
       xlink:href="#linearGradient4159"
       id="linearGradient4556"
       y1="25"
       y2="6.00003"
       x2="0"
       gradientUnits="userSpaceOnUse"
       gradientTransform="translate(384.57143,518.798)" />
    <linearGradient
       inkscape:collect="always"
       id="linearGradient4303-6">
      <stop
         style="stop-color:#c6cdd1"
         id="stop4305-7" />
      <stop
         offset="1"
         style="stop-color:#e0e5e7"
         id="stop4307-0" />
    </linearGradient>
    <linearGradient
       inkscape:collect="always"
       id="linearGradient4643-8"
       xlink:href="#linearGradient4303-6"
       y1="543.79797"
       y2="502.65509"
       x2="0"
       gradientUnits="userSpaceOnUse"
       gradientTransform="matrix(0.66666726 0 0 0.63518419 128.19014 198.51873)" />
    <linearGradient
       inkscape:collect="always"
       id="linearGradient4183"
       xlink:href="#linearGradient4293"
       y1="536.53796"
       y2="546.60474"
       x1="397.8407"
       gradientUnits="userSpaceOnUse"
       x2="417.67117"
       gradientTransform="matrix(1 0 0 1 -0.000007 0.000029)" />
    <linearGradient
       inkscape:collect="always"
       id="linearGradient4293">
      <stop
         id="stop4295" />
      <stop
         offset="1"
         style="stop-opacity:0"
         id="stop4297" />
    </linearGradient>
    <linearGradient
       inkscape:collect="always"
       xlink:href="#linearGradient4526"
       id="linearGradient4528"
       x1="388.34634"
       y1="527.83704"
       x2="388.5416"
       y2="542.79077"
       gradientUnits="userSpaceOnUse"
       gradientTransform="translate(-384.57143,-515.798)" />
  </defs>
  <metadata
     id="metadata5458">
    <rdf:RDF>
      <cc:Work
         rdf:about="">
        <dc:format>image/svg+xml</dc:format>
        <dc:type
           rdf:resource="http://purl.org/dc/dcmitype/StillImage" />
        <dc:title></dc:title>
      </cc:Work>
    </rdf:RDF>
  </metadata>
  <g
     inkscape:label="Capa 1"
     inkscape:groupmode="layer"
     id="layer1"
     transform="matrix(1 0 0 1 -384.57143 -515.798)">
    <rect
       width="32"
       x="384.57144"
       y="517.79797"
       rx="0"
       height="28"
       style="fill:url(#linearGradient4643-8)"
       id="rect4641-5" />
    <path
       inkscape:connector-curvature="0"
       style="opacity:0.2;fill:url(#linearGradient4183);fill-rule:evenodd"
       id="path4167"
       d="m 385.57142,543.79803 29.99999,-3e-5 1.00001,2 v 0 l -29,3e-5 z"
       sodipodi:nodetypes="cccccc" />
    <rect
       width="32.00001"
       x="384.57141"
       y="517.79797"
       height="4"
       style="fill:#566069"
       id="rect4647-8" />
    <rect
       width="31.999968"
       x="384.57141"
       y="521.79797"
       height="1"
       style="fill:#3daee9"
       id="rect4649-8" />
    <path
       style="fill:url(#linearGradient4528);fill-opacity:1"
       d="M 1 8 L 1 28 L 31 28 L 1 8 z M 5 15 L 19 24 L 5 24 L 5 15 z "
       transform="translate(384.57143,515.798)"
       id="rect4653-5" />
    <rect
       width="2"
       x="413.57141"
       y="518.79797"
       rx="1"
       height="2"
       style="fill:#eff0f1"
       id="rect4661-1" />
    <path
       style="fill:url(#linearGradient4244);opacity:0.2;fill-rule:evenodd"
       id="path4236"
       d="M 17 9 L 12.556641 27.755859 L 14.800781 30 L 30 30 L 30 22 L 17 9 z "
       transform="matrix(1 0 0 1 384.57143 515.798)" />
    <path
       style="opacity:0.2;vector-effect:none;fill:#050505;fill-opacity:0.99583334;stroke:none;stroke-width:1.23647714;stroke-linecap:round;stroke-linejoin:round;stroke-miterlimit:4;stroke-dasharray:none;stroke-dashoffset:0;stroke-opacity:1"
       d="M 1 11 L 1 12 L 3 12 L 3 11 L 1 11 z M 1 14 L 1 15 L 3 15 L 3 14 L 1 14 z M 1 17 L 1 18 L 3 18 L 3 17 L 1 17 z M 1 20 L 1 21 L 3 21 L 3 20 L 1 20 z M 1 23 L 1 24 L 3 24 L 3 23 L 1 23 z M 1 26 L 1 28 L 2 28 L 2 26 L 1 26 z M 4 26 L 4 28 L 5 28 L 5 26 L 4 26 z M 7 26 L 7 28 L 8 28 L 8 26 L 7 26 z M 10 26 L 10 28 L 11 28 L 11 26 L 10 26 z M 13 26 L 13 28 L 14 28 L 14 26 L 13 26 z M 16 26 L 16 28 L 17 28 L 17 26 L 16 26 z M 19 26 L 19 28 L 20 28 L 20 26 L 19 26 z M 22 26 L 22 28 L 23 28 L 23 26 L 22 26 z M 25 26 L 25 28 L 26 28 L 26 26 L 25 26 z "
       transform="translate(384.57143,515.798)"
       id="rect4531" />
    <path
       inkscape:connector-curvature="0"
       style="fill:url(#linearGradient4556);stroke-linecap:square;stroke-width:0.1;fill-opacity:1.0"
       id="rect4530"
       d="m 399.57143,524.798 0,2.17383 a 3,3 0 0 0 -2,2.82617 3,3 0 0 0 1.52539,2.60937 l -1.44336,5.39063 -1.08203,0 0,1 0.81445,0 -0.80859,3.01562 0.57227,1.71875 1.26953,-4.73437 4.30273,0 1.26758,4.73437 0.57226,-1.71875 -0.80859,-3.01562 0.81836,0 0,-1 -1.08594,0 -1.44336,-5.38867 a 3,3 0 0 0 1.5293,-2.61133 3,3 0 0 0 -2,-2.82422 l 0,-2.17578 -2,0 z m 0.46875,7.94922 a 3,3 0 0 0 0.53125,0.0508 3,3 0 0 0 0.5293,-0.0469 l 1.35156,5.04688 -3.76563,0 1.35352,-5.05078 z" />
    <circle
       cx="400.57144"
       cy="529.79773"
       style="shape-rendering:auto;color-interpolation-filters:linearRGB;fill:url(#linearGradient4191);image-rendering:auto;text-rendering:auto;color:#000000;color-rendering:auto;color-interpolation:sRGB;fill-opacity:1.0"
       r="1"
       id="path4234" />
  </g>
</svg>
