<?xml version="1.0" encoding="UTF-8" standalone="no"?>
<svg
   xmlns:dc="http://purl.org/dc/elements/1.1/"
   xmlns:cc="http://creativecommons.org/ns#"
   xmlns:rdf="http://www.w3.org/1999/02/22-rdf-syntax-ns#"
   xmlns:svg="http://www.w3.org/2000/svg"
   xmlns="http://www.w3.org/2000/svg"
   xmlns:xlink="http://www.w3.org/1999/xlink"
   xmlns:sodipodi="http://sodipodi.sourceforge.net/DTD/sodipodi-0.dtd"
   xmlns:inkscape="http://www.inkscape.org/namespaces/inkscape"
   width="32"
   height="32"
   version="1.1"
   id="svg90"
   sodipodi:docname="accessories-calculator.svg"
   inkscape:version="0.92.4 (5da689c313, 2019-01-14)">
  <metadata
     id="metadata94">
    <rdf:RDF>
      <cc:Work
         rdf:about="">
        <dc:format>image/svg+xml</dc:format>
        <dc:type
           rdf:resource="http://purl.org/dc/dcmitype/StillImage" />
        <dc:title></dc:title>
      </cc:Work>
    </rdf:RDF>
  </metadata>
  <sodipodi:namedview
     pagecolor="#ffffff"
     bordercolor="#666666"
     borderopacity="1"
     objecttolerance="10"
     gridtolerance="10"
     guidetolerance="10"
     inkscape:pageopacity="0"
     inkscape:pageshadow="2"
     inkscape:window-width="1366"
     inkscape:window-height="705"
     id="namedview92"
     showgrid="false"
     inkscape:zoom="9.8333333"
     inkscape:cx="3.9610278"
     inkscape:cy="19.982255"
     inkscape:window-x="0"
     inkscape:window-y="0"
     inkscape:window-maximized="1"
     inkscape:current-layer="svg90" />
  <defs
     id="defs32">
    <linearGradient
       id="a"
       y1="543.79999"
       y2="503.79999"
       x2="0"
       gradientUnits="userSpaceOnUse"
       gradientTransform="matrix(1.125,0,0,1,-51.07,0)">
      <stop
         stop-color="#2a2c2f"
         id="stop2" />
      <stop
         offset="1"
         stop-color="#424649"
         id="stop4" />
    </linearGradient>
    <linearGradient
       id="b"
       y1="540.91998"
       y2="522.54999"
       x2="0"
       gradientUnits="userSpaceOnUse"
       gradientTransform="matrix(1,0,0,1.14286,0,-77.4)">
      <stop
         stop-color="#197cf1"
         id="stop7" />
      <stop
         offset="1"
         stop-color="#05a0eb"
         id="stop9" />
    </linearGradient>
    <linearGradient
       id="c"
       y1="542.79999"
       y2="533.79999"
       gradientUnits="userSpaceOnUse"
       x2="0"
       gradientTransform="translate(0,-28)">
      <stop
         stop-color="#bcb4a1"
         id="stop12" />
      <stop
         offset="1"
         stop-color="#c5bfad"
         id="stop14" />
    </linearGradient>
    <linearGradient
       id="d"
       y1="540.79999"
       y2="531.79999"
       gradientUnits="userSpaceOnUse"
       x2="0">
      <stop
         stop-color="#1e1f21"
         id="stop17" />
      <stop
         offset="1"
         stop-color="#242628"
         id="stop19" />
    </linearGradient>
    <linearGradient
       xlink:href="#d"
       id="e"
       y1="528.79999"
       y2="519.79999"
       gradientUnits="userSpaceOnUse"
       x2="0" />
    <linearGradient
       id="f"
       y1="20"
       x1="32"
       y2="30"
       x2="42"
       gradientUnits="userSpaceOnUse">
      <stop
         stop-color="#383e51"
         id="stop23" />
      <stop
         offset="1"
         stop-color="#655c6f"
         stop-opacity="0"
         id="stop25" />
    </linearGradient>
    <linearGradient
       xlink:href="#f"
       id="g"
       y1="531.79999"
       x1="404.57001"
       y2="543.79999"
       x2="416.57001"
       gradientUnits="userSpaceOnUse"
       gradientTransform="translate(-384.57,-499.8)" />
    <linearGradient
       xlink:href="#f"
       id="h"
       y1="531.79999"
       x1="404.57001"
       y2="543.79999"
       gradientUnits="userSpaceOnUse"
       x2="416.57001"
       gradientTransform="translate(0,-12)" />
    <linearGradient
       xlink:href="#f"
       id="i"
       y1="531.79999"
       x1="404.57001"
       y2="543.79999"
       gradientUnits="userSpaceOnUse"
       x2="416.57001"
       gradientTransform="translate(-12,-12)" />
    <linearGradient
       xlink:href="#f"
       id="j"
       y1="531.79999"
       x1="404.57001"
       y2="543.79999"
       gradientUnits="userSpaceOnUse"
       x2="416.57001"
       gradientTransform="translate(-12)" />
    <linearGradient
       inkscape:collect="always"
       xlink:href="#f"
       id="linearGradient96"
       gradientUnits="userSpaceOnUse"
       x1="32"
       y1="20"
       x2="42"
       y2="30" />
    <linearGradient
       inkscape:collect="always"
       xlink:href="#d"
       id="linearGradient98"
       gradientUnits="userSpaceOnUse"
       y1="540.79999"
       x2="0"
       y2="531.79999" />
    <linearGradient
       inkscape:collect="always"
       xlink:href="#d"
       id="linearGradient100"
       gradientUnits="userSpaceOnUse"
       y1="528.79999"
       x2="0"
       y2="519.79999" />
    <linearGradient
       inkscape:collect="always"
       xlink:href="#d"
       id="linearGradient102"
       gradientUnits="userSpaceOnUse"
       y1="528.79999"
       x2="0"
       y2="519.79999" />
    <linearGradient
       inkscape:collect="always"
       xlink:href="#d"
       id="linearGradient104"
       gradientUnits="userSpaceOnUse"
       y1="540.79999"
       x2="0"
       y2="531.79999" />
  </defs>
  <g
     transform="matrix(0.77777778,0,0,0.77777778,-301.77667,-391.4)"
     id="g88"
     style="stroke-width:1.28571427">
    <rect
       width="36"
       x="390.57001"
       y="503.79999"
       rx="0"
       height="40"
       id="rect34"
       style="fill:url(#a);stroke-width:1.28571427" />
    <g
       id="g44"
       style="fill-rule:evenodd;stroke-width:1.28571427">
      <path
         d="m 413.57,519.8 -9,9 3,3 h 18 z"
         id="path36"
         inkscape:connector-curvature="0"
         style="opacity:0.2;fill:url(#h);stroke-width:1.28571427" />
      <path
         d="m 401.57,519.8 -9,9 3,3 h 18 z"
         id="path38"
         inkscape:connector-curvature="0"
         style="opacity:0.2;fill:url(#i);stroke-width:1.28571427" />
      <path
         d="m 401.57,531.8 -9,9 3,3 h 18 z"
         id="path40"
         inkscape:connector-curvature="0"
         style="opacity:0.2;fill:url(#j);stroke-width:1.28571427" />
      <path
         d="m 29,32 -9,9 3,3 h 18 z"
         transform="translate(384.57,499.8)"
         id="path42"
         inkscape:connector-curvature="0"
         style="opacity:0.2;fill:url(#g);stroke-width:1.28571427" />
    </g>
    <rect
       width="36"
       x="390.57001"
       y="542.79999"
       height="1"
       id="rect46"
       style="fill:#1c1e20;stroke-width:1.28571427" />
    <path
       d="m 40,20 -8,21 3,3 h 7 V 22 Z"
       transform="translate(384.57,499.8)"
       id="path48"
       inkscape:connector-curvature="0"
       style="opacity:0.2;fill:url(#linearGradient96);fill-rule:evenodd;stroke-width:1.28571427" />
    <rect
       width="8"
       x="416.57001"
       y="519.79999"
       rx="0"
       height="21"
       id="rect50"
       style="fill:url(#b);stroke-width:1.28571427" />
    <rect
       width="32"
       x="392.57001"
       y="505.79999"
       height="9"
       id="rect52"
       style="fill:url(#c);stroke-width:1.28571427" />
    <path
       d="m 418.57,534.8 v 1 h 4 v -1 z m 0,2 v 1 h 4 v -1 z"
       id="path54"
       inkscape:connector-curvature="0"
       style="fill:#ffffff;stroke-width:1.28571427" />
    <g
       id="g64"
       style="fill:#383432;stroke-width:1.28571427">
      <rect
         width="3"
         x="418.57001"
         y="506.79999"
         height="1"
         id="rect56"
         style="stroke-width:1.28571427" />
      <rect
         width="1"
         x="421.57001"
         y="507.79999"
         height="5"
         id="rect58"
         style="stroke-width:1.28571427" />
      <rect
         width="3"
         x="418.57001"
         y="512.79999"
         height="1"
         id="rect60"
         style="stroke-width:1.28571427" />
      <rect
         width="1"
         x="417.57001"
         y="507.79999"
         height="5"
         id="rect62"
         style="stroke-width:1.28571427" />
    </g>
    <rect
       width="9"
       x="392.57001"
       y="531.79999"
       rx="0"
       height="9"
       id="rect66"
       style="fill:url(#linearGradient98);stroke-width:1.28571427" />
    <g
       id="g72"
       style="fill:url(#e);stroke-width:1.28571427">
      <rect
         width="9"
         x="392.57001"
         y="519.79999"
         rx="0"
         height="9"
         id="rect68"
         style="fill:url(#linearGradient100);stroke-width:1.28571427" />
      <rect
         width="9"
         x="404.57001"
         y="519.79999"
         rx="0"
         height="9"
         id="rect70"
         style="fill:url(#linearGradient102);stroke-width:1.28571427" />
    </g>
    <rect
       width="9"
       x="404.57001"
       y="531.79999"
       rx="0"
       height="9"
       id="rect74"
       style="fill:url(#linearGradient104);stroke-width:1.28571427" />
    <g
       id="g86"
       style="fill:#ffffff;stroke-width:1.28571427">
      <path
         d="m 12,22 v 2 h -2 v 1 h 2 v 2 h 1 v -2 h 2 v -1 h -2 v -2 z"
         transform="translate(384.57,499.8)"
         id="path76"
         inkscape:connector-curvature="0"
         style="stroke-width:1.28571427" />
      <rect
         width="1"
         x="523.79999"
         y="-411.57001"
         rx="0"
         height="5"
         transform="rotate(90)"
         id="rect78"
         style="stroke-width:1.28571427" />
      <g
         transform="translate(384.57,499.8)"
         id="g84"
         style="stroke-width:1.28571427">
        <path
           d="M 12.5,34 A 0.5,0.5 0 0 0 12,34.5 0.5,0.5 0 0 0 12.5,35 0.5,0.5 0 0 0 13,34.5 0.5,0.5 0 0 0 12.5,34 M 10,36 v 1 h 5 v -1 z m 2.5,2 A 0.5,0.5 0 0 0 12,38.5 0.5,0.5 0 0 0 12.5,39 0.5,0.5 0 0 0 13,38.5 0.5,0.5 0 0 0 12.5,38"
           id="path80"
           inkscape:connector-curvature="0"
           style="stroke-width:1.28571427" />
        <path
           d="M 22.707,34 22,34.707 23.793,36.5 22,38.293 22.707,39 24.5,37.207 26.293,39 27,38.293 25.207,36.5 27,34.707 26.293,34 24.5,35.793 Z"
           id="path82"
           inkscape:connector-curvature="0"
           style="stroke-width:1.28571427" />
      </g>
    </g>
  </g>
</svg>
