<?xml version="1.0" encoding="UTF-8" standalone="no"?>
<svg
   xmlns:dc="http://purl.org/dc/elements/1.1/"
   xmlns:cc="http://creativecommons.org/ns#"
   xmlns:rdf="http://www.w3.org/1999/02/22-rdf-syntax-ns#"
   xmlns:svg="http://www.w3.org/2000/svg"
   xmlns="http://www.w3.org/2000/svg"
   xmlns:xlink="http://www.w3.org/1999/xlink"
   xmlns:sodipodi="http://sodipodi.sourceforge.net/DTD/sodipodi-0.dtd"
   xmlns:inkscape="http://www.inkscape.org/namespaces/inkscape"
   viewBox="0 0 64 64"
   id="svg2"
   version="1.1"
   inkscape:version="0.48.5 r10040"
   sodipodi:docname="application-x-subrip.svg"
   width="64"
   height="64">
  <metadata
     id="metadata84">
    <rdf:RDF>
      <cc:Work
         rdf:about="">
        <dc:format>image/svg+xml</dc:format>
        <dc:type
           rdf:resource="http://purl.org/dc/dcmitype/StillImage" />
        <dc:title />
      </cc:Work>
    </rdf:RDF>
  </metadata>
  <sodipodi:namedview
     pagecolor="#ffffff"
     bordercolor="#666666"
     borderopacity="1"
     objecttolerance="10"
     gridtolerance="10"
     guidetolerance="10"
     inkscape:pageopacity="0"
     inkscape:pageshadow="2"
     inkscape:window-width="426"
     inkscape:window-height="385"
     id="namedview82"
     showgrid="true"
     inkscape:showpageshadow="false"
     inkscape:zoom="16"
     inkscape:cx="40.258979"
     inkscape:cy="24.999462"
     inkscape:window-x="676"
     inkscape:window-y="234"
     inkscape:window-maximized="0"
     inkscape:current-layer="svg2"
     showguides="true"
     inkscape:snap-global="false">
    <inkscape:grid
       type="xygrid"
       id="grid3413" />
    <sodipodi:guide
       position="0,64"
       orientation="64,0"
       id="guide3482" />
    <sodipodi:guide
       position="0,0"
       orientation="0,64"
       id="guide3484" />
    <sodipodi:guide
       position="64,0"
       orientation="-64,0"
       id="guide3486" />
    <sodipodi:guide
       position="64,64"
       orientation="0,-64"
       id="guide3488" />
    <sodipodi:guide
       position="10,61"
       orientation="58,0"
       id="guide3492" />
    <sodipodi:guide
       position="10,3"
       orientation="0,44"
       id="guide3494" />
    <sodipodi:guide
       position="54,3"
       orientation="-58,0"
       id="guide3496" />
    <sodipodi:guide
       position="54,61"
       orientation="0,-44"
       id="guide3498" />
    <sodipodi:guide
       position="54,47"
       orientation="-14,0"
       id="guide4310" />
    <sodipodi:guide
       position="54,61"
       orientation="0,-14"
       id="guide4312" />
    <sodipodi:guide
       position="21,43"
       orientation="22,0"
       id="guide4250" />
    <sodipodi:guide
       position="21,21"
       orientation="0,22"
       id="guide4252" />
    <sodipodi:guide
       position="43,21"
       orientation="-22,0"
       id="guide4254" />
    <sodipodi:guide
       position="43,43"
       orientation="0,-22"
       id="guide4256" />
  </sodipodi:namedview>
  <defs
     id="defs4">
    <linearGradient
       inkscape:collect="always"
       id="linearGradient4351">
      <stop
         style="stop-color:#566472;stop-opacity:1"
         offset="0"
         id="stop4353" />
      <stop
         style="stop-color:#6c7a89;stop-opacity:1"
         offset="1"
         id="stop4355" />
    </linearGradient>
    <linearGradient
       id="linearGradient4300">
      <stop
         style="stop-color:#e1e4e7;stop-opacity:1;"
         offset="0"
         id="stop4302" />
      <stop
         style="stop-color:#efefef;stop-opacity:1;"
         offset="1"
         id="stop4304" />
    </linearGradient>
    <linearGradient
       inkscape:collect="always"
       xlink:href="#linearGradient4300"
       id="linearGradient4306"
       x1="32"
       y1="61"
       x2="32"
       y2="3"
       gradientUnits="userSpaceOnUse" />
    <linearGradient
       gradientTransform="matrix(1,0,0,-1,-14,78)"
       inkscape:collect="always"
       xlink:href="#linearGradient4410"
       id="linearGradient4427"
       x1="54"
       y1="31"
       x2="40"
       y2="17"
       gradientUnits="userSpaceOnUse" />
    <linearGradient
       inkscape:collect="always"
       id="linearGradient4410">
      <stop
         style="stop-color:#383e51;stop-opacity:1"
         offset="0"
         id="stop4412" />
      <stop
         style="stop-color:#655c6f;stop-opacity:0"
         offset="1"
         id="stop4414" />
    </linearGradient>
    <linearGradient
       inkscape:collect="always"
       xlink:href="#linearGradient4351"
       id="linearGradient4357"
       x1="47"
       y1="61"
       x2="47"
       y2="47"
       gradientUnits="userSpaceOnUse" />
  </defs>
  <path
     style="fill:url(#linearGradient4306);fill-opacity:1;stroke:none"
     d="M 10 3 L 10 61 L 40 61 L 54 47 L 54 17 L 54 3 L 40 3 L 10 3 z "
     id="rect3500" />
  <rect
     style="opacity:1;fill:#2e3132;fill-opacity:0.29411765;stroke:none"
     id="rect4169"
     width="30"
     height="1"
     x="10"
     y="60" />
  <rect
     style="opacity:1;fill:#ffffff;fill-opacity:0.40983605;stroke:none"
     id="rect4236"
     width="44"
     height="1"
     x="10"
     y="3" />
  <path
     style="fill:url(#linearGradient4357);fill-opacity:1;fill-rule:evenodd;stroke:none;stroke-width:1px;stroke-linecap:butt;stroke-linejoin:miter;stroke-opacity:1"
     d="M 54,47 40,61 40,47 Z"
     id="path4314"
     inkscape:connector-curvature="0" />
  <path
     inkscape:connector-curvature="0"
     id="path4320"
     d="M 26,61 40,47 40,61 Z"
     style="opacity:0.2;fill:url(#linearGradient4427);fill-opacity:1;fill-rule:evenodd;stroke:none;stroke-width:1px;stroke-linecap:butt;stroke-linejoin:miter;stroke-opacity:1" />
  <g
     id="g3016">
    <path
       d="m 24.837779,26.693431 c -0.120921,-9.774 14.536856,-9.58991 14.566656,0 l 0,10.47197 -14.566656,0 z"
       stroke-miterlimit="2.00000000000"
       id="shape0"
       inkscape:connector-curvature="0"
       style="fill:#2c3e50;fill-rule:evenodd;stroke:#003bc3;stroke-width:0;stroke-linecap:square;stroke-linejoin:miter;stroke-miterlimit:2" />
    <rect
       height="4.2330203"
       width="23.320093"
       stroke-miterlimit="2.01260185242"
       id="shape1"
       x="20.336536"
       y="38.927803"
       style="fill:#2c3e50;fill-rule:evenodd;stroke:#003bc3;stroke-width:0;stroke-linecap:square;stroke-linejoin:miter;stroke-miterlimit:2.01260185" />
    <path
       d="m 27.890455,28.291031 c 0,0.80354 0,1.60709 0,2.41063 -0.394142,0 -0.788281,0 -1.18242,0 0,-2.01927 0,-4.03854 0,-6.057804 0.783401,0.01135 1.56883,-0.02496 2.35073,0.02272 0.76897,0.05737 1.4681,0.674892 1.52408,1.461044 0.10576,0.61842 -0.1355,1.31609 -0.71574,1.61482 -0.1347,0.12633 0.52656,0.27347 0.57137,0.57774 0.41103,0.68044 0.0078,1.53913 0.40307,2.21989 0.22762,0.22749 -0.15392,0.15058 -0.28723,0.1616 -0.28981,0 -0.57962,0 -0.86942,0 -0.27961,-0.33484 -0.19807,-0.8145 -0.22066,-1.22234 0.01525,-0.42515 -0.01231,-0.9838 -0.47978,-1.15317 -0.35793,-0.06731 -0.73036,-0.02181 -1.094,-0.03513 z m 0,-0.9451 c 0.39177,-0.02349 0.80411,0.06385 1.17552,-0.08619 0.44307,-0.27857 0.42733,-0.94366 0.20901,-1.36105 -0.23781,-0.413924 -0.75073,-0.28984 -1.1466,-0.309723 -0.19755,-0.04225 -0.28703,0.02358 -0.23793,0.227973 0,0.50967 0,1.01933 0,1.529 z m 4.90036,3.35574 c -0.39275,0 -0.7855,0 -1.17825,0 0,-2.02066 0,-4.04131 0,-6.061967 0.39275,0 0.7855,0 1.17825,0 0,2.020657 0,4.041307 0,6.061967 z m 2.16083,-2.17332 c 0,0.72444 0,1.44888 0,2.17332 -0.39553,0 -0.79105,0 -1.18658,0 0,-2.02066 0,-4.04131 0,-6.061967 0.81104,0.01004 1.62374,-0.02163 2.43359,0.01888 0.85768,0.05991 1.57168,0.807231 1.61708,1.661647 0.1048,0.80764 -0.2575,1.7172 -1.0475,2.0395 -0.57374,0.24956 -1.21007,0.14663 -1.81659,0.16862 z m 0,-0.94926 c 0.39274,-0.01498 0.79253,0.03615 1.1791,-0.03922 0.5694,-0.23332 0.61809,-1.01266 0.40717,-1.5127 -0.13196,-0.37665 -0.54035,-0.471259 -0.89413,-0.438202 -0.23071,0 -0.46143,0 -0.69214,0 0,0.663372 0,1.326752 0,1.990122 z"
       id="shape2"
       inkscape:connector-curvature="0"
       style="fill:#ecf0f1" />
  </g>
</svg>
