<?xml version="1.0" encoding="UTF-8" standalone="no"?>
<!-- Created with Inkscape (http://www.inkscape.org/) -->

<svg
   xmlns:dc="http://purl.org/dc/elements/1.1/"
   xmlns:cc="http://creativecommons.org/ns#"
   xmlns:rdf="http://www.w3.org/1999/02/22-rdf-syntax-ns#"
   xmlns:svg="http://www.w3.org/2000/svg"
   xmlns="http://www.w3.org/2000/svg"
   xmlns:xlink="http://www.w3.org/1999/xlink"
   xmlns:sodipodi="http://sodipodi.sourceforge.net/DTD/sodipodi-0.dtd"
   xmlns:inkscape="http://www.inkscape.org/namespaces/inkscape"
   width="48"
   height="48"
   id="svg5453"
   version="1.1"
   inkscape:version="0.48.4 r9939"
   sodipodi:docname="web-angry-birds.svg"
   inkscape:export-filename="/home/uri/Descargas/ApexIconPackSample/res/drawable-xhdpi/angry_birds.png"
   inkscape:export-xdpi="180"
   inkscape:export-ydpi="180">
  <defs
     id="defs5455">
    <linearGradient
       inkscape:collect="always"
       id="linearGradient4289">
      <stop
         style="stop-color:#ffffff;stop-opacity:1;"
         offset="0"
         id="stop4291" />
      <stop
         style="stop-color:#ffffff;stop-opacity:0;"
         offset="1"
         id="stop4293" />
    </linearGradient>
    <linearGradient
       inkscape:collect="always"
       id="linearGradient1520">
      <stop
         style="stop-color:#95d0d8;stop-opacity:1;"
         offset="0"
         id="stop1522" />
      <stop
         style="stop-color:#076f8c;stop-opacity:1"
         offset="1"
         id="stop1524" />
    </linearGradient>
    <radialGradient
       inkscape:collect="always"
       xlink:href="#linearGradient1520"
       id="radialGradient1526"
       cx="408.57144"
       cy="-523.79797"
       fx="408.57144"
       fy="-523.79797"
       r="24"
       gradientUnits="userSpaceOnUse" />
    <radialGradient
       inkscape:collect="always"
       xlink:href="#linearGradient4289"
       id="radialGradient4295"
       cx="24.062939"
       cy="51.970753"
       fx="24.062939"
       fy="51.970753"
       r="24"
       gradientTransform="matrix(0.74006637,0,0,0.85306865,7.2511564,-2.9181253)"
       gradientUnits="userSpaceOnUse" />
  </defs>
  <sodipodi:namedview
     id="base"
     pagecolor="#ffffff"
     bordercolor="#666666"
     borderopacity="1.0"
     inkscape:pageopacity="0"
     inkscape:pageshadow="2"
     inkscape:zoom="5.6673688"
     inkscape:cx="-7.5418645"
     inkscape:cy="32.910088"
     inkscape:document-units="px"
     inkscape:current-layer="layer1"
     showgrid="true"
     fit-margin-top="0"
     fit-margin-left="0"
     fit-margin-right="0"
     fit-margin-bottom="0"
     inkscape:window-width="1301"
     inkscape:window-height="744"
     inkscape:window-x="65"
     inkscape:window-y="24"
     inkscape:window-maximized="1"
     inkscape:snap-bbox="true">
    <inkscape:grid
       type="xygrid"
       id="grid3047" />
  </sodipodi:namedview>
  <metadata
     id="metadata5458">
    <rdf:RDF>
      <cc:Work
         rdf:about="">
        <dc:format>image/svg+xml</dc:format>
        <dc:type
           rdf:resource="http://purl.org/dc/dcmitype/StillImage" />
        <dc:title />
      </cc:Work>
    </rdf:RDF>
  </metadata>
  <g
     inkscape:label="Capa 1"
     inkscape:groupmode="layer"
     id="layer1"
     transform="translate(-384.57143,-499.798)">
    <path
       style="fill:#220001;fill-opacity:1;stroke:none"
       d="m 408.75798,504.24383 c -1.56931,0.0822 -3.80293,1.66158 -1.86416,3.83568 -4.59605,-1.72566 -11.1519,3.13685 -3.52336,4.09922 -3.75105,2.69278 -6.87933,6.88653 -8.43266,11.35089 l -1.27856,-2.4888 c -0.26189,-0.35798 -0.61406,-0.18163 -0.83936,-0.0293 -0.91061,0.88422 -1.501,1.17334 -0.89792,1.89344 l 2.20576,1.93248 -3.95281,-1.93248 c -0.55852,-0.29531 -0.52655,-0.23159 -0.91744,0.27329 -0.562,1.01638 -1.24723,2.34751 0.0781,2.6352 l 4.31393,0.62464 -2.18625,0.60513 c -1.02003,0.17836 -0.25131,1.52625 0.31233,2.25455 l 2.20576,-1.63967 c -0.71744,6.48201 2.4132,12.76205 12.21955,15.22562 5.47621,0.92775 10.15746,0.42357 14.30819,-1.03456 10.57537,-4.5114 11.85877,-22.3666 -2.87922,-29.98278 l -0.0195,0 c -1.13366,-3.29166 -4.74956,-7.64742 -8.85234,-7.62257 z"
       id="path1370"
       inkscape:connector-curvature="0"
       sodipodi:nodetypes="cccccccccccccccccccc" />
    <path
       style="fill:#d90230;fill-opacity:1;stroke:none"
       d="m 397.24357,536.61063 c -6.77479,-8.98871 2.52824,-24.95098 11.49488,-24.86073 l -4.77856,0.0352 c -6.96169,-1.21533 -0.84856,-4.74791 3.13429,-3.3333 2.16984,1.61388 3.00697,2.36733 5.44768,2.68653 -2.22232,-1.12767 -3.73224,-1.80182 -4.76022,-2.9295 -3.33954,-5.61326 7.48807,-3.53758 9.85966,4.6459 8.8682,3.83153 12.65018,13.79292 9.0546,21.6415 -5.10459,10.74078 -22.55058,9.2408 -29.45233,2.11441 z"
       id="path1378"
       inkscape:connector-curvature="0"
       sodipodi:nodetypes="ccccccccc" />
    <path
       style="fill:#000000;fill-opacity:1;stroke:none"
       d="m 412.33992,524.47636 c -2.53286,1.23548 -1.37279,4.20963 -0.80033,5.2216 0.10857,0.27975 0.0827,0.40788 -0.0639,0.54922 l 0.93251,-0.17834 c 1.41528,-0.39824 2.99741,-0.54611 4.14801,-0.30255 l 2.22529,-0.99553 -0.0195,-2.32289 z"
       id="path1481"
       inkscape:connector-curvature="0"
       sodipodi:nodetypes="cccccccc" />
    <path
       inkscape:connector-curvature="0"
       style="fill:#000000;fill-opacity:0.1201717;stroke:none"
       d="m 402.45302,514.14049 c -6.21938,4.77897 -10.36097,15.63578 -5.21185,22.46756 3.43369,3.54546 9.4782,5.69561 15.31347,5.64129 -4.05268,-2.19433 -7.0655,-5.47687 -9.07682,-9.09634 0.24977,-0.35969 0.40016,-0.85658 0.40016,-1.40543 0,-1.09772 -0.61386,-1.99105 -1.37616,-1.99105 -0.18774,0 -0.36389,0.0584 -0.52704,0.15616 -2.24513,-5.90635 -2.0436,-12.12285 0.47824,-15.77219 z"
       id="path1423" />
    <path
       style="fill:#cdaf97;fill-opacity:1;stroke:none"
       d="m 422.37664,539.39717 c -0.85797,-5.4144 -10.68233,-7.61971 -16.46376,-5.2065 -2.63148,1.14713 -4.62216,2.72525 -6.20357,4.42902 6.85104,4.96349 18.06226,4.39403 22.66733,0.77748 z"
       id="path1399"
       inkscape:connector-curvature="0"
       sodipodi:nodetypes="cccc" />
    <path
       inkscape:connector-curvature="0"
       style="fill:#eccaaf;fill-opacity:0.75965666;stroke:none"
       d="m 410.80759,533.22132 c -1.74746,0.048 -3.45418,0.36294 -4.89953,0.96624 -2.63149,1.14714 -4.6162,2.72729 -6.19762,4.43105 0.0702,0.0508 0.14369,0.0968 0.21473,0.14641 1.54672,-1.61777 3.46705,-3.10986 5.98289,-4.20658 5.66799,-2.36587 15.21566,-0.29439 16.39683,4.88978 0.022,-0.0169 0.0467,-0.0317 0.0683,-0.0488 -0.64348,-4.06079 -6.32327,-6.32211 -11.56562,-6.17808 z"
       id="path1429" />
    <path
       transform="matrix(0.38527778,-0.02315667,0.04694572,0.51044991,390.50492,535.11941)"
       d="m 46.845824,-8.0382118 a 4.4194174,6.3639612 0 1 1 -8.838835,0 4.4194174,6.3639612 0 1 1 8.838835,0 z"
       sodipodi:ry="6.3639612"
       sodipodi:rx="4.4194174"
       sodipodi:cy="-8.0382118"
       sodipodi:cx="42.426407"
       id="path1488"
       style="fill:#000000;fill-opacity:0.1201717;stroke:none"
       sodipodi:type="arc" />
    <path
       style="fill:#000000;fill-opacity:1;stroke:none"
       d="m 417.36365,539.21248 c -1.95305,-1.05777 -3.0821,-1.81328 -4.37978,-2.80552 -2.10262,-2.81718 1.3929,-5.58558 4.36219,-7.45794 0.85784,-0.38143 1.42812,-0.5968 2.82462,0.21923 2.79719,1.66966 7.1508,4.09416 5.37208,8.46997 l -2.50551,-1.66548 -4.47752,3.24854 c -0.41507,0.22516 -0.78405,0.1809 -1.19608,-0.009 z"
       id="path1434"
       inkscape:connector-curvature="0"
       sodipodi:nodetypes="cccccccc" />
    <path
       inkscape:connector-curvature="0"
       style="fill:#000000;fill-opacity:0.10729615;stroke:none"
       d="m 411.17847,526.2917 c -0.94396,0.12025 -1.81431,1.56701 -1.99104,3.37698 -0.13759,1.40909 0.18404,2.64699 0.76128,3.24032 -1.44328,0.11403 -2.83348,0.41356 -4.04065,0.91744 -2.63149,1.14714 -4.6162,2.72729 -6.19762,4.43105 0.0702,0.0508 0.14369,0.0968 0.21473,0.14641 1.54673,-1.61777 3.46705,-3.10986 5.98289,-4.20658 1.35982,-0.5676 2.94013,-0.88139 4.57745,-0.95648 0.0669,0.019 0.13457,0.0345 0.20496,0.0391 0.1338,0.009 0.25967,-0.0149 0.3904,-0.0585 5.02166,-0.0547 10.36052,2.07584 11.22402,5.86577 0.022,-0.0169 0.0467,-0.0317 0.0683,-0.0488 -0.60844,-3.83965 -5.72016,-6.06828 -10.70675,-6.17809 0.60207,-0.57308 1.07504,-1.67256 1.2005,-2.95729 0.18851,-1.93062 -0.47856,-3.54681 -1.49329,-3.61121 -0.0635,-0.004 -0.13227,-0.008 -0.1952,0 z"
       id="path1498" />
    <path
       style="fill:#000000;fill-opacity:1;stroke:none"
       d="m 409.33295,523.52622 c -0.18367,-1.33895 1.64616,-3.6386 2.47705,-2.95181 2.12469,1.84929 4.2794,3.63848 6.82631,4.64333 2.43507,-0.99507 4.21148,-2.35605 6.10583,-3.65152 0.95613,-0.39657 2.00133,2.02458 1.77964,3.25352 l -7.88547,2.43778 c -3.07803,-1.16681 -6.0462,-1.96738 -9.30336,-3.7313 z"
       id="path1401"
       inkscape:connector-curvature="0"
       sodipodi:nodetypes="ccccccc" />
    <path
       style="fill:#faba21;fill-opacity:1;stroke:none"
       d="m 416.34779,534.6206 c -2.1335,-0.32835 -3.5625,-0.56751 -3.08454,-1.74126 1.72049,-2.09448 4.33324,-4.39056 5.63425,-3.89299 3.25349,1.67892 7.66819,4.48256 6.4898,8.0635 -1.98201,-1.08475 -2.38752,-2.18979 -9.03951,-2.42925 z"
       id="path1403"
       inkscape:connector-curvature="0"
       sodipodi:nodetypes="ccccc" />
    <path
       style="fill:#ef9b19;fill-opacity:1;stroke:none"
       d="m 414.05926,536.72257 3.28354,2.02734 c 0.41357,0.3458 0.89653,0.29262 1.44276,-0.12444 l 3.65668,-2.58703 c -2.49742,-0.83693 -5.67737,-1.50911 -8.23995,0.0653 -0.14981,0.23575 -0.17309,0.45333 -0.14303,0.61878 z"
       id="path1405"
       inkscape:connector-curvature="0"
       sodipodi:nodetypes="cccccc" />
    <path
       style="fill:#ffffff;fill-opacity:1;stroke:none"
       d="m 413.78563,534.30966 2.28463,0.67616 c -2.84636,0.83648 -2.32412,1.2837 -2.77397,1.2983 -0.7345,-0.92254 -0.72569,-2.2335 0.48934,-1.97446 z"
       id="path1407"
       inkscape:connector-curvature="0"
       sodipodi:nodetypes="cccc" />
    <path
       style="fill:#ffffff;fill-opacity:1;stroke:none"
       d="m 412.14386,529.62067 c -0.38077,-0.44866 -1.82856,-2.35562 -0.199,-4.57705 l 6.3432,2.18903 c -0.10006,0.82064 -0.0795,1.67567 -1.44277,1.92783 z"
       id="path1409"
       inkscape:connector-curvature="0"
       sodipodi:nodetypes="ccccc" />
    <path
       sodipodi:type="arc"
       style="fill:#000000;fill-opacity:1;stroke:none"
       id="path1411"
       sodipodi:cx="-55.234951"
       sodipodi:cy="-21.013819"
       sodipodi:rx="3.066396"
       sodipodi:ry="3.066396"
       d="m -52.168555,-21.013819 a 3.066396,3.066396 0 1 1 -6.132792,0 3.066396,3.066396 0 1 1 6.132792,0 z"
       transform="matrix(0.31232062,0,0,0.31232062,432.36747,534.25589)" />
    <path
       style="fill:#ffffff;fill-opacity:1;stroke:none"
       d="m 418.8259,527.26881 c 1.27719,-0.81992 3.00035,-0.99431 4.61135,-1.54112 0.90952,0.11123 0.87584,1.53157 0.87063,2.38891 -2.60177,-0.005 -3.08371,0.47794 -3.99249,0.93194 l -1.43032,-0.38556 z"
       id="path1421"
       inkscape:connector-curvature="0"
       sodipodi:nodetypes="cccccc" />
    <path
       sodipodi:type="arc"
       style="fill:#000000;fill-opacity:1;stroke:none"
       id="path1415"
       sodipodi:cx="-39.763588"
       sodipodi:cy="-21.312494"
       sodipodi:rx="2.4093111"
       sodipodi:ry="2.4093111"
       d="m -37.354277,-21.312494 a 2.4093111,2.4093111 0 1 1 -4.818622,0 2.4093111,2.4093111 0 1 1 4.818622,0 z"
       transform="matrix(0.31232062,0,0,0.31232062,432.49186,534.38027)" />
    <path
       inkscape:connector-curvature="0"
       style="fill:#ffffff;fill-opacity:0.31759656;stroke:none"
       d="m 418.35209,528.92691 c -1.3952,0.13479 -3.57955,2.12014 -5.08498,3.95281 -0.0951,0.23365 -0.11478,0.42771 -0.0683,0.59537 0.0152,-0.0638 0.0397,-0.12495 0.0683,-0.1952 1.72049,-2.09448 4.33053,-4.39182 5.63153,-3.89425 2.81502,1.45265 6.49718,3.74474 6.67586,6.65633 0.15401,-3.10111 -3.73353,-5.53815 -6.67586,-7.0565 -0.16263,-0.0622 -0.34724,-0.0778 -0.54655,-0.0585 z"
       id="path1436" />
    <path
       inkscape:connector-curvature="0"
       style="fill:#000000;fill-opacity:0.11587985;stroke:none"
       d="m 425.07673,533.97284 c -0.20304,0.77613 -0.53909,1.57854 -1.09312,2.22529 0.45267,0.27535 0.87692,0.55985 1.40545,0.84912 0.36321,-1.10371 0.18938,-2.12855 -0.31233,-3.07441 z"
       id="path1449" />
    <path
       inkscape:connector-curvature="0"
       style="fill:#ffffff;fill-opacity:0.31759656;stroke:none"
       d="m 417.81529,535.15381 c -1.24862,0.003 -2.49009,0.25792 -3.61121,0.94672 -0.14981,0.23574 -0.17646,0.45919 -0.1464,0.62464 l 0.0102,0 c 0.019,-0.11008 0.0569,-0.23552 0.13664,-0.36112 2.47858,-1.52279 5.52622,-0.93352 7.9837,-0.13663 l 0.25376,-0.18545 c -1.4048,-0.47077 -3.02089,-0.89216 -4.62625,-0.88816 z"
       id="path1454" />
    <path
       inkscape:connector-curvature="0"
       style="fill:#000000;fill-opacity:1;stroke:none"
       d="m 423.60297,525.64754 c -0.0616,0.0209 -0.12354,0.0387 -0.18543,0.0585 0.008,0.004 0.0114,0.0145 0.0196,0.0195 0.0569,0.006 0.10641,0.0223 0.15616,0.039 0.009,0.003 0.0202,0.006 0.0293,0.0102 0.006,0.003 0.0129,0.008 0.0195,0.0102 0.0401,0.0168 0.0816,0.0357 0.11708,0.0585 0.0452,0.029 0.079,0.0595 0.11707,0.0976 0.029,0.0283 0.0528,0.055 0.0781,0.0879 0.004,0.005 0.005,0.0138 0.0102,0.0195 0.0261,0.0357 0.0557,0.0673 0.0781,0.10742 0.004,0.006 0.006,0.013 0.0102,0.0196 0.0221,0.0413 0.0401,0.0914 0.0585,0.13664 0.003,0.006 0.008,0.013 0.0102,0.0195 0.004,0.0102 0.006,0.0194 0.0102,0.0293 0.0333,0.0898 0.0658,0.18276 0.0879,0.28304 0.001,0.006 -0.001,0.0131 0,0.0196 0.0241,0.11352 0.0455,0.23084 0.0585,0.35137 3.4e-4,0.004 -3.4e-4,0.006 0,0.0102 0.0401,0.37822 0.0312,0.77437 0.0293,1.09313 -0.32522,-6.9e-4 -0.61445,0.006 -0.87841,0.0195 -0.094,0.005 -0.16669,0.0131 -0.25376,0.0196 -0.0839,0.006 -0.16602,0.0114 -0.24399,0.0195 -0.0262,0.003 -0.0513,0.008 -0.0781,0.0102 -0.26418,0.0282 -0.50842,0.0644 -0.71249,0.10742 -0.1599,0.0336 -0.30691,0.0665 -0.4392,0.10729 -0.006,0.003 -0.0132,0.008 -0.0195,0.0102 -0.11492,0.0363 -0.22227,0.0764 -0.32209,0.11707 -0.014,0.005 -0.0255,0.0135 -0.039,0.0196 -0.009,0.004 -0.0206,0.006 -0.0293,0.0102 -0.0462,0.0221 -0.0914,0.0474 -0.13664,0.0683 -0.0255,0.0114 -0.0532,0.0173 -0.0781,0.0293 -0.0135,0.005 -0.0262,0.0132 -0.039,0.0196 -0.0132,0.006 -0.0264,0.0132 -0.0391,0.0195 -0.006,0.004 -0.0131,0.006 -0.0196,0.0102 -0.006,0.004 -0.0132,0.006 -0.0195,0.0102 -0.0362,0.0192 -0.0721,0.04 -0.10742,0.0585 -0.1292,0.0679 -0.25713,0.13509 -0.3904,0.20497 -0.003,0.001 -0.008,-0.001 -0.0102,0 -0.047,0.0245 -0.0876,0.0536 -0.13664,0.0781 l -1.42497,-0.38065 0,-0.0102 -0.0585,-1.39568 c 0.0799,-0.0513 0.16083,-0.0999 0.244,-0.1464 l 0.0102,-0.0879 c -0.006,0.004 -0.77439,-0.0734 -0.53679,-0.0102 l 0.11707,1.82513 1.64945,0.57585 c 2.16161,-0.83719 2.47276,-0.92721 4.40176,-0.92721 l -0.0102,-0.38065 c 9e-5,-0.0145 -1e-4,-0.034 0,-0.0488 0.006,-0.86109 0.0987,-2.33065 -1.10288,-2.42049 z"
       id="path1459" />
  </g>
</svg>
