<?xml version="1.0" encoding="UTF-8" standalone="no"?>
<svg
   xmlns:dc="http://purl.org/dc/elements/1.1/"
   xmlns:cc="http://creativecommons.org/ns#"
   xmlns:rdf="http://www.w3.org/1999/02/22-rdf-syntax-ns#"
   xmlns:svg="http://www.w3.org/2000/svg"
   xmlns="http://www.w3.org/2000/svg"
   xmlns:xlink="http://www.w3.org/1999/xlink"
   xmlns:sodipodi="http://sodipodi.sourceforge.net/DTD/sodipodi-0.dtd"
   xmlns:inkscape="http://www.inkscape.org/namespaces/inkscape"
   width="48"
   viewBox="0 0 13.546667 13.546667"
   height="48"
   id="svg2"
   version="1.1"
   inkscape:version="0.91pre2 r13516"
   sodipodi:docname="bless-48x48.svg">
  <metadata
     id="metadata56">
    <rdf:RDF>
      <cc:Work
         rdf:about="">
        <dc:format>image/svg+xml</dc:format>
        <dc:type
           rdf:resource="http://purl.org/dc/dcmitype/StillImage" />
      </cc:Work>
    </rdf:RDF>
  </metadata>
  <sodipodi:namedview
     pagecolor="#ffffff"
     bordercolor="#666666"
     borderopacity="1"
     objecttolerance="10"
     gridtolerance="10"
     guidetolerance="10"
     inkscape:pageopacity="0"
     inkscape:pageshadow="2"
     inkscape:window-width="1301"
     inkscape:window-height="744"
     id="namedview54"
     showgrid="true"
     inkscape:zoom="6.5149435"
     inkscape:cx="12.308533"
     inkscape:cy="24.040463"
     inkscape:window-x="65"
     inkscape:window-y="24"
     inkscape:window-maximized="1"
     inkscape:current-layer="svg2"
     inkscape:object-nodes="true">
    <inkscape:grid
       type="xygrid"
       id="grid4154" />
  </sodipodi:namedview>
  <defs
     id="defs4">
    <linearGradient
       inkscape:collect="always"
       id="linearGradient4001">
      <stop
         style="stop-color:#c0bebe;stop-opacity:1"
         offset="0"
         id="stop4003" />
      <stop
         style="stop-color:#f2f7f7;stop-opacity:1"
         offset="1"
         id="stop4005" />
    </linearGradient>
    <linearGradient
       id="linearGradient3795-1-2">
      <stop
         style="stop-color:#272b30;stop-opacity:1"
         offset="0"
         id="stop3797-1-9" />
      <stop
         style="stop-color:#282c31;stop-opacity:1"
         offset="1"
         id="stop3799-3-6" />
    </linearGradient>
    <linearGradient
       inkscape:collect="always"
       xlink:href="#linearGradient4001"
       id="linearGradient4007"
       x1="2.999999"
       y1="1027.3123"
       x2="45.000134"
       y2="1027.3123"
       gradientUnits="userSpaceOnUse"
       gradientTransform="matrix(0.26878221,0,0,0.26878224,0.32254252,-269.63219)" />
  </defs>
  <path
     style="fill:url(#linearGradient4007);fill-opacity:1;stroke:none"
     d="m 1.5858968,1.1288887 -0.4570079,2e-7 3e-7,10.8318861 -3e-7,0.457003 10.8318821,0 0.457007,0 0,-11.2888891 -0.457007,-2e-7 z"
     id="rect839"
     inkscape:connector-curvature="0"
     sodipodi:nodetypes="ccccccccc" />
  <rect
     style="fill:none;stroke:none"
     id="rect1526"
     width="13.546667"
     height="13.546667"
     x="-3.6977411e-07"
     y="-5.0941103e-06"
     ry="0" />
  <path
     style="fill:#000000;fill-opacity:0.39215686"
     d="m 2.2557038,2.7248326 0,0.2445965 0,0.4891928 0,0.2445965 0.2445965,0 0.4891928,0 0,-0.2445965 0,-0.7337893 -0.4891928,0 -0.2445965,0 z m 1.0376239,0 0,0.2445965 0,0.4891928 0,0.2445965 0.2445966,0 0.4891927,0 0,-0.2445965 0,-0.7337893 -0.4891927,0 -0.2445966,0 z m 1.0376239,0 0,0.2445965 0.2445964,0 0,0.4891928 -0.2445964,0 0,0.2445965 0.2445964,0 0.2445965,0 0.2445964,0 0,-0.2445965 -0.2445964,0 0,-0.7337893 -0.2445965,0 -0.2445964,0 z m 1.0381017,0 0,0.2445965 0,0.4891928 0,0.2445965 0.2445964,0 0.4891929,0 0,-0.2445965 0,-0.7337893 -0.4891929,0 -0.2445964,0 z m 1.0376241,0 0,0.2445965 0,0.4891928 0,0.2445965 0.2445964,0 0.4891929,0 0,-0.2445965 0,-0.7337893 -0.4891929,0 -0.2445964,0 z m 1.0376238,0 0,0.2445965 0.2445964,0 0,0.4891928 -0.2445964,0 0,0.2445965 0.2445964,0 0.2445964,0 0.2445965,0 0,-0.2445965 -0.2445965,0 0,-0.7337893 -0.2445964,0 -0.2445964,0 z m 1.037624,0 0,0.2445965 0.2445965,0 0,0.4891928 -0.2445965,0 0,0.2445965 0.2445965,0 0.2445965,0 0.2445963,0 0,-0.2445965 -0.2445963,0 0,-0.7337893 -0.2445965,0 -0.2445965,0 z m 1.0376239,0 0,0.2445965 0.2445961,0 0,0.4891928 -0.2445961,0 0,0.2445965 0.2445961,0 0.2445968,0 0.244596,0 0,-0.2445965 -0.244596,0 0,-0.7337893 -0.2445968,0 -0.2445961,0 z m 1.0376249,0 0,0.2445965 0.244595,0 0,0.4891928 -0.244595,0 0,0.2445965 0.244595,0 0.244597,0 0.244597,0 0,-0.2445965 -0.244597,0 0,-0.7337893 -0.244597,0 -0.244595,0 z m -8.0568737,0.2445965 0.2445964,0 0,0.4891928 -0.2445964,0 0,-0.4891928 z m 1.037624,0 0.2445964,0 0,0.4891928 -0.2445964,0 0,-0.4891928 z m 2.0757254,0 0.2445965,0 0,0.4891928 -0.2445965,0 0,-0.4891928 z m 1.0376241,0 0.2445965,0 0,0.4891928 -0.2445965,0 0,-0.4891928 z m -4.39557,1.1790312 0,0.2445964 0,0.4891929 0,0.2445964 0.2445965,0 0.4891928,0 0,-0.2445964 0,-0.7337893 -0.4891928,0 -0.2445965,0 z m 1.0376239,0 0,0.2445964 0.2445966,0 0,0.4891929 -0.2445966,0 0,0.2445964 0.2445966,0 0.2445964,0 0.2445963,0 0,-0.2445964 -0.2445963,0 0,-0.7337893 -0.2445964,0 -0.2445966,0 z m 1.0376239,0 0,0.2445964 0,0.4891929 0,0.2445964 0.2445964,0 0.4891929,0 0,-0.2445964 0,-0.7337893 -0.4891929,0 -0.2445964,0 z m 1.037624,0 0,0.2445964 0,0.4891929 0,0.2445964 0.2445964,0 0.4891929,0 0,-0.2445964 0,-0.7337893 -0.4891929,0 -0.2445964,0 z m 1.0381018,0 0,0.2445964 0.2445964,0 0,0.4891929 -0.2445964,0 0,0.2445964 0.2445964,0 0.2445965,0 0.2445964,0 0,-0.2445964 -0.2445964,0 0,-0.7337893 -0.2445965,0 -0.2445964,0 z m 1.0376238,0 0,0.2445964 0,0.4891929 0,0.2445964 0.2445964,0 0.4891929,0 0,-0.2445964 0,-0.7337893 -0.4891929,0 -0.2445964,0 z m 1.037624,0 0,0.2445964 0,0.4891929 0,0.2445964 0.2445965,0 0.4891928,0 0,-0.2445964 0,-0.7337893 -0.4891928,0 -0.2445965,0 z m 1.0376239,0 0,0.2445964 0,0.4891929 0,0.2445964 0.2445961,0 0.4891928,0 0,-0.2445964 0,-0.7337893 -0.4891928,0 -0.2445961,0 z m 1.0376249,0 0,0.2445964 0,0.4891929 0,0.2445964 0.244595,0 0.489194,0 0,-0.2445964 0,-0.7337893 -0.489194,0 -0.244595,0 z m -8.0568737,0.2445964 0.2445964,0 0,0.4891929 -0.2445964,0 0,-0.4891929 z m 2.0752477,0 0.2445965,0 0,0.4891929 -0.2445965,0 0,-0.4891929 z m 1.037624,0 0.2445966,0 0,0.4891929 -0.2445966,0 0,-0.4891929 z m 2.0757256,0 0.2445964,0 0,0.4891929 -0.2445964,0 0,-0.4891929 z m 1.0376241,0 0.2445965,0 0,0.4891929 -0.2445965,0 0,-0.4891929 z m 1.0376235,0 0.2445968,0 0,0.4891929 -0.2445968,0 0,-0.4891929 z m 1.0376238,0 0.244597,0 0,0.4891929 -0.244597,0 0,-0.4891929 z m -8.5460652,1.1790314 0,0.2445965 0.2445965,0 0,0.4891928 -0.2445965,0 0,0.2445965 0.2445965,0 0.2445964,0 0.2445964,0 0,-0.2445965 -0.2445964,0 0,-0.7337893 -0.2445964,0 -0.2445965,0 z m 1.0376239,0 0,0.2445965 0,0.4891928 0,0.2445965 0.2445966,0 0.4891927,0 0,-0.2445965 0,-0.7337893 -0.4891927,0 -0.2445966,0 z m 1.0376239,0 0,0.2445965 0.2445964,0 0,0.4891928 -0.2445964,0 0,0.2445965 0.2445964,0 0.2445965,0 0.2445964,0 0,-0.2445965 -0.2445964,0 0,-0.7337893 -0.2445965,0 -0.2445964,0 z m 1.037624,0 0,0.2445965 0.2445964,0 0,0.4891928 -0.2445964,0 0,0.2445965 0.2445964,0 0.2445966,0 0.2445963,0 0,-0.2445965 -0.2445963,0 0,-0.7337893 -0.2445966,0 -0.2445964,0 z m 1.0381018,0 0,0.2445965 0,0.4891928 0,0.2445965 0.2445964,0 0.4891929,0 0,-0.2445965 0,-0.7337893 -0.4891929,0 -0.2445964,0 z m 1.0376238,0 0,0.2445965 0.2445964,0 0,0.4891928 -0.2445964,0 0,0.2445965 0.2445964,0 0.2445964,0 0.2445965,0 0,-0.2445965 -0.2445965,0 0,-0.7337893 -0.2445964,0 -0.2445964,0 z m 1.037624,0 0,0.2445965 0.2445965,0 0,0.4891928 -0.2445965,0 0,0.2445965 0.2445965,0 0.2445965,0 0.2445963,0 0,-0.2445965 -0.2445963,0 0,-0.7337893 -0.2445965,0 -0.2445965,0 z m 1.0376239,0 0,0.2445965 0.2445961,0 0,0.4891928 -0.2445961,0 0,0.2445965 0.2445961,0 0.2445968,0 0.244596,0 0,-0.2445965 -0.244596,0 0,-0.7337893 -0.2445968,0 -0.2445961,0 z m 1.0376249,0 0,0.2445965 0.244595,0 0,0.4891928 -0.244595,0 0,0.2445965 0.244595,0 0.244597,0 0.244597,0 0,-0.2445965 -0.244597,0 0,-0.7337893 -0.244597,0 -0.244595,0 z m -7.0192497,0.2445965 0.2445964,0 0,0.4891928 -0.2445964,0 0,-0.4891928 z m 3.1133495,0 0.2445965,0 0,0.4891928 -0.2445965,0 0,-0.4891928 z m -4.39557,1.1790311 0,0.2445964 0,0.4891929 0,0.2445964 0.2445965,0 0.4891928,0 0,-0.2445964 0,-0.7337893 -0.4891928,0 -0.2445965,0 z m 1.0376239,0 0,0.2445964 0,0.4891929 0,0.2445964 0.2445966,0 0.4891927,0 0,-0.2445964 0,-0.7337893 -0.4891927,0 -0.2445966,0 z m 1.0376239,0 0,0.2445964 0.2445964,0 0,0.4891929 -0.2445964,0 0,0.2445964 0.2445964,0 0.2445965,0 0.2445964,0 0,-0.2445964 -0.2445964,0 0,-0.7337893 -0.2445965,0 -0.2445964,0 z m 1.0381017,0 0,0.2445964 0,0.4891929 0,0.2445964 0.2445964,0 0.4891929,0 0,-0.2445964 0,-0.7337893 -0.4891929,0 -0.2445964,0 z m 1.0376241,0 0,0.2445964 0,0.4891929 0,0.2445964 0.2445964,0 0.4891929,0 0,-0.2445964 0,-0.7337893 -0.4891929,0 -0.2445964,0 z m 1.0376238,0 0,0.2445964 0.2445964,0 0,0.4891929 -0.2445964,0 0,0.2445964 0.2445964,0 0.2445964,0 0.2445965,0 0,-0.2445964 -0.2445965,0 0,-0.7337893 -0.2445964,0 -0.2445964,0 z m 1.037624,0 0,0.2445964 0.2445965,0 0,0.4891929 -0.2445965,0 0,0.2445964 0.2445965,0 0.2445965,0 0.2445963,0 0,-0.2445964 -0.2445963,0 0,-0.7337893 -0.2445965,0 -0.2445965,0 z m 1.0376239,0 0,0.2445964 0.2445961,0 0,0.4891929 -0.2445961,0 0,0.2445964 0.2445961,0 0.2445968,0 0.244596,0 0,-0.2445964 -0.244596,0 0,-0.7337893 -0.2445968,0 -0.2445961,0 z m 1.0376249,0 0,0.2445964 0.244595,0 0,0.4891929 -0.244595,0 0,0.2445964 0.244595,0 0.244597,0 0.244597,0 0,-0.2445964 -0.244597,0 0,-0.7337893 -0.244597,0 -0.244595,0 z m -8.0568737,0.2445964 0.2445964,0 0,0.4891929 -0.2445964,0 0,-0.4891929 z m 1.037624,0 0.2445964,0 0,0.4891929 -0.2445964,0 0,-0.4891929 z m 2.0757254,0 0.2445965,0 0,0.4891929 -0.2445965,0 0,-0.4891929 z m 1.0376241,0 0.2445965,0 0,0.4891929 -0.2445965,0 0,-0.4891929 z m -4.39557,1.179509 0,0.2445965 0,0.4891928 0,0.2445965 0.2445965,0 0.4891928,0 0,-0.2445965 0,-0.7337893 -0.4891928,0 -0.2445965,0 z m 1.0376239,0 0,0.2445965 0.2445966,0 0,0.4891928 -0.2445966,0 0,0.2445965 0.2445966,0 0.2445964,0 0.2445963,0 0,-0.2445965 -0.2445963,0 0,-0.7337893 -0.2445964,0 -0.2445966,0 z m 1.0376239,0 0,0.2445965 0,0.4891928 0,0.2445965 0.2445964,0 0.4891929,0 0,-0.2445965 0,-0.7337893 -0.4891929,0 -0.2445964,0 z m 1.037624,0 0,0.2445965 0,0.4891928 0,0.2445965 0.2445964,0 0.4891929,0 0,-0.2445965 0,-0.7337893 -0.4891929,0 -0.2445964,0 z m 1.0381018,0 0,0.2445965 0.2445964,0 0,0.4891928 -0.2445964,0 0,0.2445965 0.2445964,0 0.2445965,0 0.2445964,0 0,-0.2445965 -0.2445964,0 0,-0.7337893 -0.2445965,0 -0.2445964,0 z m 1.0376238,0 0,0.2445965 0,0.4891928 0,0.2445965 0.2445964,0 0.4891929,0 0,-0.2445965 0,-0.7337893 -0.4891929,0 -0.2445964,0 z m 1.037624,0 0,0.2445965 0,0.4891928 0,0.2445965 0.2445965,0 0.4891928,0 0,-0.2445965 0,-0.7337893 -0.4891928,0 -0.2445965,0 z m 1.0376239,0 0,0.2445965 0,0.4891928 0,0.2445965 0.2445961,0 0.4891928,0 0,-0.2445965 0,-0.7337893 -0.4891928,0 -0.2445961,0 z m 1.0376249,0 0,0.2445965 0,0.4891928 0,0.2445965 0.244595,0 0.489194,0 0,-0.2445965 0,-0.7337893 -0.489194,0 -0.244595,0 z m -8.0568737,0.2445965 0.2445964,0 0,0.4891928 -0.2445964,0 0,-0.4891928 z m 2.0752477,0 0.2445965,0 0,0.4891928 -0.2445965,0 0,-0.4891928 z m 1.037624,0 0.2445966,0 0,0.4891928 -0.2445966,0 0,-0.4891928 z m 2.0757256,0 0.2445964,0 0,0.4891928 -0.2445964,0 0,-0.4891928 z m 1.0376241,0 0.2445965,0 0,0.4891928 -0.2445965,0 0,-0.4891928 z m 1.0376235,0 0.2445968,0 0,0.4891928 -0.2445968,0 0,-0.4891928 z m 1.0376238,0 0.244597,0 0,0.4891928 -0.244597,0 0,-0.4891928 z m -8.5460652,1.1790309 0,0.2445965 0.2445965,0 0,0.489192 -0.2445965,0 0,0.244597 0.2445965,0 0.2445964,0 0.2445964,0 0,-0.244597 -0.2445964,0 0,-0.7337885 -0.2445964,0 -0.2445965,0 z m 1.0376239,0 0,0.2445965 0,0.489192 0,0.244597 0.2445966,0 0.4891927,0 0,-0.244597 0,-0.7337885 -0.4891927,0 -0.2445966,0 z m 1.0376239,0 0,0.2445965 0.2445964,0 0,0.489192 -0.2445964,0 0,0.244597 0.2445964,0 0.2445965,0 0.2445964,0 0,-0.244597 -0.2445964,0 0,-0.7337885 -0.2445965,0 -0.2445964,0 z m 1.037624,0 0,0.2445965 0.2445964,0 0,0.489192 -0.2445964,0 0,0.244597 0.2445964,0 0.2445966,0 0.2445963,0 0,-0.244597 -0.2445963,0 0,-0.7337885 -0.2445966,0 -0.2445964,0 z m 1.0381018,0 0,0.2445965 0,0.489192 0,0.244597 0.2445964,0 0.4891929,0 0,-0.244597 0,-0.7337885 -0.4891929,0 -0.2445964,0 z m 1.0376238,0 0,0.2445965 0.2445964,0 0,0.489192 -0.2445964,0 0,0.244597 0.2445964,0 0.2445964,0 0.2445965,0 0,-0.244597 -0.2445965,0 0,-0.7337885 -0.2445964,0 -0.2445964,0 z m 1.037624,0 0,0.2445965 0.2445965,0 0,0.489192 -0.2445965,0 0,0.244597 0.2445965,0 0.2445965,0 0.2445963,0 0,-0.244597 -0.2445963,0 0,-0.7337885 -0.2445965,0 -0.2445965,0 z m 1.0376239,0 0,0.2445965 0.2445961,0 0,0.489192 -0.2445961,0 0,0.244597 0.2445961,0 0.2445968,0 0.244596,0 0,-0.244597 -0.244596,0 0,-0.7337885 -0.2445968,0 -0.2445961,0 z m 1.0376249,0 0,0.2445965 0.244595,0 0,0.489192 -0.244595,0 0,0.244597 0.244595,0 0.244597,0 0.244597,0 0,-0.244597 -0.244597,0 0,-0.7337885 -0.244597,0 -0.244595,0 z m -7.0192497,0.2445965 0.2445964,0 0,0.489192 -0.2445964,0 0,-0.489192 z m 3.1133495,0 0.2445965,0 0,0.489192 -0.2445965,0 0,-0.489192 z"
     id="path4751"
     inkscape:connector-curvature="0" />
  <path
     style="opacity:0.35;fill:#000000;fill-opacity:1;stroke:none"
     d="m 1.128889,12.417778 0,0 c 5.6444446,-0.282222 5.6444446,-0.282222 11.288889,0 z"
     id="path3257"
     inkscape:connector-curvature="0"
     sodipodi:nodetypes="cccc" />
  <path
     sodipodi:nodetypes="cccc"
     inkscape:connector-curvature="0"
     id="path4027"
     d="m 1.128889,1.1288892 0,0 c 5.6444446,0.2822223 5.6444446,0.2822223 11.288889,0 z"
     style="opacity:0.75;fill:#ffffff;fill-opacity:1;stroke:none" />
</svg>
