<?xml version="1.0" encoding="UTF-8" standalone="no"?>
<!-- Created with Inkscape (http://www.inkscape.org/) -->

<svg
   xmlns:dc="http://purl.org/dc/elements/1.1/"
   xmlns:cc="http://creativecommons.org/ns#"
   xmlns:rdf="http://www.w3.org/1999/02/22-rdf-syntax-ns#"
   xmlns:svg="http://www.w3.org/2000/svg"
   xmlns="http://www.w3.org/2000/svg"
   xmlns:sodipodi="http://sodipodi.sourceforge.net/DTD/sodipodi-0.dtd"
   xmlns:inkscape="http://www.inkscape.org/namespaces/inkscape"
   width="48"
   height="48"
   id="svg944"
   version="1.1"
   inkscape:version="0.91pre2 r13516"
   sodipodi:docname="celestia.svg">
  <defs
     id="defs946" />
  <sodipodi:namedview
     id="base"
     pagecolor="#ffffff"
     bordercolor="#666666"
     borderopacity="1.0"
     inkscape:pageopacity="0.0"
     inkscape:pageshadow="2"
     inkscape:zoom="5.6568543"
     inkscape:cx="50.970326"
     inkscape:cy="12.728151"
     inkscape:document-units="px"
     inkscape:current-layer="layer1"
     showgrid="true"
     width="0px"
     height="0px"
     fit-margin-top="0"
     fit-margin-left="0"
     fit-margin-right="0"
     fit-margin-bottom="0"
     inkscape:window-width="1301"
     inkscape:window-height="744"
     inkscape:window-x="65"
     inkscape:window-y="24"
     inkscape:window-maximized="1"
     showguides="false"
     inkscape:object-nodes="true">
    <inkscape:grid
       type="xygrid"
       id="grid3352" />
  </sodipodi:namedview>
  <metadata
     id="metadata949">
    <rdf:RDF>
      <cc:Work
         rdf:about="">
        <dc:format>image/svg+xml</dc:format>
        <dc:type
           rdf:resource="http://purl.org/dc/dcmitype/StillImage" />
        <dc:title />
      </cc:Work>
    </rdf:RDF>
  </metadata>
  <g
     inkscape:label="Capa 1"
     inkscape:groupmode="layer"
     id="layer1"
     transform="translate(-1640.5564,-364.34714)">
    <rect
       style="fill:#333333;fill-opacity:1;stroke:none"
       id="rect2991-1"
       width="40.000008"
       height="40.000008"
       x="1644.5564"
       y="-408.34714"
       ry="0"
       transform="scale(1,-1)" />
    <path
       style="color:#000000;display:inline;overflow:visible;visibility:visible;opacity:0.5;fill:#0d1755;fill-opacity:1;fill-rule:nonzero;stroke:none;stroke-width:0.2;marker:none;enable-background:accumulate"
       d="m 1646.171,368.34713 c -0.8977,0 -1.6146,0.71686 -1.6146,1.61459 l 0,18.82812 c 0.6387,0.0686 1.2961,0.10417 1.9531,0.10417 9.9352,0 17.9948,-8.0596 17.9948,-17.99479 0,-0.86731 -0.064,-1.71755 -0.1823,-2.55209 l -18.151,0 z"
       id="path942"
       inkscape:connector-curvature="0" />
    <path
       style="color:#000000;display:inline;overflow:visible;visibility:visible;opacity:0.5;fill:#021b6f;fill-opacity:1;fill-rule:nonzero;stroke:none;stroke-width:0.2;marker:none;enable-background:accumulate"
       d="m 1646.171,368.34713 c -0.8977,0 -1.6146,0.71686 -1.6146,1.61459 l 0,14.60938 c 0.6408,0.091 1.2872,0.15625 1.9531,0.15625 7.634,0 13.8282,-6.19412 13.8282,-13.82813 0,-0.87371 -0.1054,-1.72336 -0.2605,-2.55209 l -13.9062,0 z"
       id="path940"
       inkscape:connector-curvature="0" />
    <path
       style="color:#000000;display:inline;overflow:visible;visibility:visible;opacity:0.5;fill:#0a4c96;fill-opacity:1;fill-rule:nonzero;stroke:none;stroke-width:0.2;marker:none;enable-background:accumulate"
       d="m 1646.171,368.34713 c -0.8977,0 -1.6146,0.71686 -1.6146,1.61459 l 0,10.39062 c 0.6285,0.12863 1.2865,0.20834 1.9531,0.20834 5.3328,0 9.6614,-4.32864 9.6614,-9.66146 0,-0.88583 -0.1411,-1.73717 -0.3645,-2.55209 l -9.6354,0 z"
       id="path938"
       inkscape:connector-curvature="0" />
    <path
       style="color:#000000;display:inline;overflow:visible;visibility:visible;opacity:0.5;fill:#4f50bf;fill-opacity:1;fill-rule:nonzero;stroke:none;stroke-width:0.2;marker:none;enable-background:accumulate"
       d="m 1646.171,368.34713 c -0.8977,0 -1.6146,0.71686 -1.6146,1.61459 l 0,6.06771 c 0.6059,0.23032 1.2664,0.36459 1.9531,0.36459 3.0316,0 5.4948,-2.46317 5.4948,-5.4948 0,-0.91909 -0.2518,-1.79099 -0.651,-2.55209 l -5.1823,0 z"
       id="path936"
       inkscape:connector-curvature="0" />
    <path
       style="color:#000000;display:inline;overflow:visible;visibility:visible;opacity:0.5;fill:#704f96;fill-opacity:1;fill-rule:nonzero;stroke:none;stroke-width:0.2;marker:none;enable-background:accumulate"
       d="m 1646.171,368.34713 c -0.8977,0 -1.6146,0.71686 -1.6146,1.61459 l 0,3.17708 c 0.5254,0.45872 1.2009,0.75521 1.9531,0.75521 1.6509,0 2.9949,-1.34387 2.9949,-2.99479 0,-1.08662 -0.5913,-2.02878 -1.4584,-2.55209 l -1.875,0 z"
       id="path944"
       inkscape:connector-curvature="0" />
    <path
       style="color:#000000;display:inline;overflow:visible;visibility:visible;fill:#ffffff;fill-opacity:0.16279069;fill-rule:nonzero;stroke:none;stroke-width:0.2;marker:none;enable-background:accumulate"
       d="m 1647.2126,368.34713 12.8125,12.83855 -4.2968,1.43229 -11.1719,-6.66667 0,0.39063 10.7552,6.43229 -10.7552,3.59376 0,0.36457 11.1198,-3.74999 4.401,2.63021 -3.2812,12.1875 c -4.7641,-0.12761 -9.0762,-2.08922 -12.2396,-5.20834 l 0,0.44271 c 3.2012,3.02968 7.4872,4.94682 12.2136,5.05208 l 0,2.70834 c -4.6167,-0.23869 -8.8409,-1.97801 -12.2136,-4.71354 l 0,0.49479 c 3.6415,2.83919 8.2072,4.55729 13.1771,4.55729 6.1277,0 11.6425,-2.56964 15.5469,-6.69271 l 2.1614,2.13542 0.026,0.0261 c -4.4379,4.61592 -10.6684,7.5 -17.5782,7.5 -4.9215,0 -9.4974,-1.45153 -13.3333,-3.95833 l 0,0.52083 c 3.8175,2.40084 8.3366,3.80208 13.1771,3.80208 13.687,0 24.7656,-11.10467 24.7656,-24.79167 0,-4.09034 -1.0076,-7.92977 -2.7604,-11.32813 l -0.2344,0 c 0.8431,1.60655 1.5074,3.3118 1.9792,5.10417 l -0.078,0.0261 -2.8384,1.19792 c -0.5415,-2.27329 -1.4292,-4.40073 -2.6303,-6.32813 l -0.2344,0 c 1.2346,1.94069 2.1345,4.10342 2.6823,6.40626 l -2.9948,1.27604 -0.1042,0.0261 -0.052,0.0261 c -0.5698,-2.87213 -1.824,-5.51001 -3.5678,-7.73438 l -0.2343,0 c 1.7868,2.22822 3.0698,4.88035 3.6459,7.78647 l -13.3334,4.47916 3.2812,-12.26563 -0.3385,0 -3.3073,12.3698 -0.9895,0.33855 -12.7084,-12.70835 -0.4688,0 z m 34.3751,5.46876 c 0.4619,1.87381 0.703,3.84179 0.703,5.85937 0,6.4414 -2.4907,12.30111 -6.5624,16.66668 l -0.052,-0.0521 -2.1354,-2.13542 c 3.4875,-3.81742 5.625,-8.90005 5.625,-14.47917 0,-1.58905 -0.1938,-3.14534 -0.5209,-4.63542 l 2.8647,-1.19791 0.078,-0.0261 z m -3.099,1.30208 c 0.3206,1.46635 0.4948,2.99316 0.4948,4.55729 0,5.52465 -2.1309,10.55449 -5.599,14.32293 l -2.3177,-2.29167 c 2.7952,-3.2292 4.5052,-7.42429 4.5052,-12.03126 0,-1.10698 -0.1,-2.17649 -0.2865,-3.22916 l 0.1824,-0.0781 3.0208,-1.25 z m -3.3594,1.35417 c 0.1858,1.04127 0.2865,2.10811 0.2865,3.20312 0,4.56666 -1.6949,8.7378 -4.4792,11.92709 l -9.5833,-9.58334 0.2865,-1.04166 13.4895,-4.50521 z m -13.8541,4.63541 -0.1823,0.65105 -0.4427,-0.44271 0.625,-0.20834 z m -0.9897,0.33855 0.7032,0.70312 -0.8334,3.125 -4.0625,-2.42187 4.1927,-1.40625 z m 0.9636,0.96354 8.8021,8.77604 -9.6094,-5.72916 0.8073,-3.04688 z m -0.8854,3.38541 10.2604,6.1198 c -3.3105,3.61082 -8.048,5.91146 -13.3333,5.91146 -0.052,0 -0.1042,4.4e-4 -0.1563,0 l 3.2292,-12.03126 z m 10.4427,6.25001 0.078,0.0261 0.1822,0.15625 2.0573,2.05729 c -3.844,4.02447 -9.2562,6.53646 -15.2604,6.53646 -0.2453,0 -0.486,-0.0177 -0.7292,-0.0261 l 0,-2.70834 c 0.017,-2e-5 0.035,0 0.052,0 5.3982,0 10.2572,-2.33673 13.6197,-6.04166 z"
       id="path866"
       inkscape:connector-curvature="0" />
    <path
       style="color:#000000;display:inline;overflow:visible;visibility:visible;fill:#fcf6c3;fill-opacity:1;fill-rule:nonzero;stroke:none;stroke-width:0.2;marker:none;enable-background:accumulate"
       d="m 1679.2699,373.63359 -0.9635,0.57292 -1.0416,-0.46875 0.2604,1.09376 -0.7813,0.83333 1.1198,0.10416 0.573,0.98958 0.4426,-1.04166 1.0938,-0.20833 -0.8334,-0.75521 0.1302,-1.1198 z m -28.3854,9.53126 -0.9636,0.57291 -1.0156,-0.46874 0.2344,1.09374 -0.7552,0.80729 1.1199,0.10417 0.5468,0.98959 0.4427,-1.04167 1.0937,-0.20834 -0.8333,-0.75521 0.1302,-1.09374 z m 21.3021,7.13541 -0.9635,0.57292 -1.0156,-0.46875 0.2343,1.1198 -0.7552,0.80729 1.1198,0.10417 0.5469,0.98957 0.4426,-1.04166 1.0938,-0.20833 -0.8333,-0.75521 0.1302,-1.1198 z m 2.0313,2.6823 -0.9636,0.57291 -1.0156,-0.46874 0.2344,1.09374 -0.7552,0.83333 1.1197,0.10417 0.5469,0.96355 0.4428,-1.01563 1.1197,-0.23437 -0.8593,-0.72918 0.1302,-1.11978 z m -17.2396,6.48437 -0.599,0.96354 -1.1197,0.0521 0.7291,0.85937 -0.3125,1.06772 1.0416,-0.41668 0.9376,0.625 -0.078,-1.11978 0.8854,-0.70313 -1.0938,-0.26042 -0.3906,-1.06771 z"
       id="path896"
       inkscape:connector-curvature="0" />
    <path
       style="opacity:0.5;fill:#000000;fill-opacity:1;stroke:none"
       d="m 1644.5564,408.34714 0,0 c 20,-1 20,-1 40,0 z"
       id="path3257"
       inkscape:connector-curvature="0"
       sodipodi:nodetypes="cccc" />
    <path
       sodipodi:nodetypes="cccc"
       inkscape:connector-curvature="0"
       id="path4027"
       d="m 1644.5564,368.34714 0,0 c 20,1 20,1 40,0 z"
       style="opacity:0.75;fill:#ffffff;fill-opacity:1;stroke:none" />
  </g>
</svg>
