<?xml version="1.0" encoding="UTF-8" standalone="no"?>
<!-- Created with Inkscape (http://www.inkscape.org/) -->

<svg
   xmlns:dc="http://purl.org/dc/elements/1.1/"
   xmlns:cc="http://creativecommons.org/ns#"
   xmlns:rdf="http://www.w3.org/1999/02/22-rdf-syntax-ns#"
   xmlns:svg="http://www.w3.org/2000/svg"
   xmlns="http://www.w3.org/2000/svg"
   xmlns:xlink="http://www.w3.org/1999/xlink"
   xmlns:sodipodi="http://sodipodi.sourceforge.net/DTD/sodipodi-0.dtd"
   xmlns:inkscape="http://www.inkscape.org/namespaces/inkscape"
   width="48"
   height="48"
   id="svg2"
   version="1.1"
   inkscape:version="0.48.5 r10040"
   sodipodi:docname="evolution-calendar.svg"
   inkscape:export-xdpi="180"
   inkscape:export-ydpi="180">
  <defs
     id="defs4">
    <linearGradient
       id="linearGradient3807">
      <stop
         style="stop-color:#4d4d4d;stop-opacity:1;"
         offset="0"
         id="stop3809" />
      <stop
         style="stop-color:#656565;stop-opacity:1;"
         offset="1"
         id="stop3811" />
    </linearGradient>
    <linearGradient
       id="linearGradient3792">
      <stop
         style="stop-color:#4d4d4d;stop-opacity:1;"
         offset="0"
         id="stop3794" />
      <stop
         style="stop-color:#4a4a4a;stop-opacity:1;"
         offset="1"
         id="stop3796" />
    </linearGradient>
    <linearGradient
       inkscape:collect="always"
       id="linearGradient4996">
      <stop
         style="stop-color:#d9383c;stop-opacity:1"
         offset="0"
         id="stop4998" />
      <stop
         style="stop-color:#d9373c;stop-opacity:1"
         offset="1"
         id="stop5000" />
    </linearGradient>
    <linearGradient
       id="linearGradient137480"
       inkscape:collect="always">
      <stop
         id="stop137482"
         offset="0"
         style="stop-color:#5a5a5a;stop-opacity:1" />
      <stop
         id="stop137484"
         offset="1"
         style="stop-color:#101010;stop-opacity:1" />
    </linearGradient>
    <linearGradient
       id="linearGradient6194"
       spreadMethod="pad"
       gradientTransform="matrix(13.526835,20.525875,20.525875,-13.526835,19.18986,1021.0543)"
       gradientUnits="userSpaceOnUse"
       y2="0"
       x2="1"
       y1="0"
       x1="0">
      <stop
         id="stop6196"
         offset="0"
         style="stop-opacity:1;stop-color:#ffffff" />
      <stop
         id="stop6198"
         offset="0.168498"
         style="stop-opacity:1;stop-color:#29282b" />
      <stop
         id="stop6200"
         offset="0.263736"
         style="stop-opacity:1;stop-color:#868c95" />
      <stop
         id="stop6202"
         offset="0.395604"
         style="stop-opacity:1;stop-color:#92979f" />
      <stop
         id="stop6204"
         offset="0.542125"
         style="stop-opacity:1;stop-color:#737881" />
      <stop
         id="stop6206"
         offset="0.626374"
         style="stop-opacity:1;stop-color:#70757e" />
      <stop
         id="stop6208"
         offset="0.717949"
         style="stop-opacity:1;stop-color:#e4e6e8" />
      <stop
         id="stop6210"
         offset="0.791209"
         style="stop-opacity:1;stop-color:#ffffff" />
      <stop
         id="stop6212"
         offset="1"
         style="stop-opacity:1;stop-color:#1d191a" />
    </linearGradient>
    <linearGradient
       inkscape:collect="always"
       xlink:href="#linearGradient6194"
       id="linearGradient4768"
       x1="1004.3131"
       y1="-34.624512"
       x2="1012.3622"
       y2="-34.624512"
       gradientUnits="userSpaceOnUse"
       gradientTransform="translate(0.50002588,0)" />
    <linearGradient
       inkscape:collect="always"
       xlink:href="#linearGradient6194"
       id="linearGradient4772"
       gradientUnits="userSpaceOnUse"
       x1="1004.3131"
       y1="-34.624512"
       x2="1012.3622"
       y2="-34.624512"
       gradientTransform="translate(0.50002588,2)" />
    <linearGradient
       inkscape:collect="always"
       xlink:href="#linearGradient6194"
       id="linearGradient4788"
       gradientUnits="userSpaceOnUse"
       gradientTransform="translate(0.50002588,22)"
       x1="1004.3131"
       y1="-34.624512"
       x2="1012.3622"
       y2="-34.624512" />
    <linearGradient
       inkscape:collect="always"
       xlink:href="#linearGradient6194"
       id="linearGradient4792"
       gradientUnits="userSpaceOnUse"
       gradientTransform="translate(0.50002588,20)"
       x1="1004.3131"
       y1="-34.624512"
       x2="1012.3622"
       y2="-34.624512" />
    <linearGradient
       inkscape:collect="always"
       xlink:href="#linearGradient137480"
       id="linearGradient4863"
       x1="1013.4686"
       y1="-13.205674"
       x2="1011.5395"
       y2="-13.205674"
       gradientUnits="userSpaceOnUse"
       gradientTransform="matrix(1.1578948,0,0,2.6595742,-159.62034,23.577133)" />
    <linearGradient
       inkscape:collect="always"
       xlink:href="#linearGradient137480"
       id="linearGradient4871"
       gradientUnits="userSpaceOnUse"
       gradientTransform="matrix(1.1578948,0,0,2.6595742,-159.62034,-4.4228665)"
       x1="1013.4686"
       y1="-13.205674"
       x2="1011.5395"
       y2="-13.205674" />
    <linearGradient
       inkscape:collect="always"
       xlink:href="#linearGradient4996"
       id="linearGradient5002"
       x1="26.439716"
       y1="14.014185"
       x2="26.439716"
       y2="4.0283689"
       gradientUnits="userSpaceOnUse" />
    <linearGradient
       inkscape:collect="always"
       xlink:href="#linearGradient3792"
       id="linearGradient3798"
       x1="13.28125"
       y1="1032.8622"
       x2="34.71875"
       y2="1032.8622"
       gradientUnits="userSpaceOnUse"
       gradientTransform="translate(-0.015625,-0.99996523)" />
    <linearGradient
       inkscape:collect="always"
       xlink:href="#linearGradient3807"
       id="linearGradient3813"
       x1="12.703125"
       y1="1032.5966"
       x2="35.296875"
       y2="1032.5966"
       gradientUnits="userSpaceOnUse" />
  </defs>
  <sodipodi:namedview
     id="base"
     pagecolor="#ffffff"
     bordercolor="#666666"
     borderopacity="1.0"
     inkscape:pageopacity="0.0"
     inkscape:pageshadow="2"
     inkscape:zoom="9.3461972"
     inkscape:cx="20.45626"
     inkscape:cy="22.727068"
     inkscape:document-units="px"
     inkscape:current-layer="layer1"
     showgrid="true"
     inkscape:window-width="1301"
     inkscape:window-height="744"
     inkscape:window-x="65"
     inkscape:window-y="24"
     inkscape:window-maximized="1">
    <inkscape:grid
       type="xygrid"
       id="grid3850"
       empspacing="5"
       visible="true"
       enabled="true"
       snapvisiblegridlinesonly="true" />
  </sodipodi:namedview>
  <metadata
     id="metadata7">
    <rdf:RDF>
      <cc:Work
         rdf:about="">
        <dc:format>image/svg+xml</dc:format>
        <dc:type
           rdf:resource="http://purl.org/dc/dcmitype/StillImage" />
        <dc:title />
      </cc:Work>
    </rdf:RDF>
  </metadata>
  <g
     inkscape:label="Capa 1"
     inkscape:groupmode="layer"
     id="layer1"
     transform="translate(0,-1004.3622)">
    <path
       style="fill:#f9f9f9;fill-opacity:1;stroke:none"
       d="m 5.6193165,1008.3622 c -0.897728,0 -1.619318,0.7215 -1.619318,1.6192 l 0,36.7615 c 0,0.8977 0.72159,1.6193 1.619318,1.6193 l 36.7613625,0 c 0.897728,0 1.61932,-0.7216 1.61932,-1.6193 l 0,-36.7614 C 43.999998,1009.0837 43.278407,1008.3622 42.380679,1008.3622 Z"
       id="rect839"
       inkscape:connector-curvature="0"
       sodipodi:nodetypes="sssssssss" />
    <path
       style="fill:url(#linearGradient5002);fill-opacity:1;stroke:none"
       d="M 5.625,4 C 4.727272,4 4,4.7273 4,5.625 L 4,14 44,14 44,5.625 C 44,4.7272 43.272728,4 42.375,4 Z"
       transform="translate(0,1004.3622)"
       id="path4949"
       inkscape:connector-curvature="0"
       sodipodi:nodetypes="ssccsss" />
    <rect
       style="font-size:24px;font-style:normal;font-variant:normal;font-weight:normal;font-stretch:normal;line-height:125%;letter-spacing:-0.03px;word-spacing:0px;fill:url(#linearGradient4871);fill-opacity:1;stroke:none;font-family:Derivia;-inkscape-font-specification:Derivia"
       id="rect4869"
       width="2.2"
       height="5"
       x="1011.6622"
       y="-40.5"
       ry="0.2596879"
       transform="matrix(0,1,-1,0,0,0)" />
    <rect
       transform="matrix(0,1,-1,0,0,0)"
       ry="0.2596879"
       y="-12.5"
       x="1011.6622"
       height="5"
       width="2.2"
       id="rect4855"
       style="font-size:24px;font-style:normal;font-variant:normal;font-weight:normal;font-stretch:normal;line-height:125%;letter-spacing:-0.03px;word-spacing:0px;fill:url(#linearGradient4863);fill-opacity:1;stroke:none;font-family:Derivia;-inkscape-font-specification:Derivia" />
    <path
       sodipodi:nodetypes="cccc"
       inkscape:connector-curvature="0"
       id="path4027"
       d="m 6,1008.3622 0,0 c 18,1 18,1 36,0 z"
       style="opacity:0.75;fill:#ffffff;fill-opacity:1;stroke:none" />
    <g
       id="g4873"
       transform="translate(4.3754875,1.2382812e-5)">
      <rect
         transform="matrix(0,1,-1,0,0,0)"
         ry="0.19756836"
         y="-34.97451"
         x="1007.8621"
         height="0.69999999"
         width="5"
         id="rect4202-7"
         style="font-size:24px;font-style:normal;font-variant:normal;font-weight:normal;font-stretch:normal;line-height:125%;letter-spacing:-0.03px;word-spacing:0px;fill:url(#linearGradient4768);fill-opacity:1;stroke:none;font-family:Derivia;-inkscape-font-specification:Derivia" />
      <rect
         style="font-size:24px;font-style:normal;font-variant:normal;font-weight:normal;font-stretch:normal;line-height:125%;letter-spacing:-0.03px;word-spacing:0px;fill:url(#linearGradient4772);fill-opacity:1;stroke:none;font-family:Derivia;-inkscape-font-specification:Derivia"
         id="rect4770"
         width="5"
         height="0.69999999"
         x="1007.8621"
         y="-32.97451"
         ry="0.19756836"
         transform="matrix(0,1,-1,0,0,0)" />
    </g>
    <g
       id="g4865"
       transform="translate(-3.6245125,1.2382812e-5)">
      <rect
         style="font-size:24px;font-style:normal;font-variant:normal;font-weight:normal;font-stretch:normal;line-height:125%;letter-spacing:-0.03px;word-spacing:0px;fill:url(#linearGradient4788);fill-opacity:1;stroke:none;font-family:Derivia;-inkscape-font-specification:Derivia"
         id="rect4786"
         width="5"
         height="0.69999999"
         x="1007.8621"
         y="-12.97451"
         ry="0.19756836"
         transform="matrix(0,1,-1,0,0,0)" />
      <rect
         transform="matrix(0,1,-1,0,0,0)"
         ry="0.19756836"
         y="-14.97451"
         x="1007.8621"
         height="0.69999999"
         width="5"
         id="rect4790"
         style="font-size:24px;font-style:normal;font-variant:normal;font-weight:normal;font-stretch:normal;line-height:125%;letter-spacing:-0.03px;word-spacing:0px;fill:url(#linearGradient4792);fill-opacity:1;stroke:none;font-family:Derivia;-inkscape-font-specification:Derivia" />
    </g>
    <path
       style="opacity:0.35;fill:#000000;fill-opacity:1;stroke:none"
       d="m 6,1048.3622 0,0 c 18,-1 18,-1 36,0 z"
       id="path3257"
       inkscape:connector-curvature="0"
       sodipodi:nodetypes="cccc" />
    <g
       style="font-size:24px;font-style:normal;font-variant:normal;font-weight:normal;font-stretch:normal;line-height:125%;letter-spacing:0px;word-spacing:0px;fill:url(#linearGradient3813);fill-opacity:1;stroke:none;font-family:'方正细倩简体';-inkscape-font-specification:'方正细倩简体'"
       id="text3803">
      <path
         d="m 35.296875,1031.7059 -7.6875,0 c 0.499984,0.6875 1.468733,1.7188 2.90625,3.0938 1.56248,1.625 2.874979,2.6562 3.9375,3.0937 0.187477,0.125 0.343727,0.2188 0.46875,0.2813 0.249977,0.062 0.374977,0.125 0.375,0.1875 -0.06252,0.125 -0.406273,0.094 -1.03125,-0.094 -1.125021,0.062 -2.31252,-0.5625 -3.5625,-1.875 -0.06252,0.062 -0.06252,0.125 0,0.1875 0.06248,0.125 0.09373,0.1875 0.09375,0.1875 l 0,4.5938 c -1.9e-5,1.4375 -0.812518,2.1562 -2.4375,2.1562 l -8.71875,0 c -1.000007,0 -1.593756,-0.5625 -1.78125,-1.6875 l 0,1.6875 -1.03125,0 0,-7.4062 c -0.06251,0.062 -0.125005,0.094 -0.1875,0.094 -5e-6,0.062 -5e-6,0.094 0,0.094 -1.062504,1 -1.968753,1.5312 -2.71875,1.5937 -0.687501,0.125 -1.093751,0.125 -1.21875,0 0.624999,-0.25 1.124998,-0.5312 1.5,-0.8437 1.249997,-0.9375 2.468745,-2.0938 3.65625,-3.4688 0.499994,-0.6875 0.999993,-1.3125 1.5,-1.875 l -6.5625,0 0,-0.75 7.03125,0 c 0.687492,-0.9375 1.218741,-1.7812 1.59375,-2.5312 l -6.9375,0 0,-0.6563 7.21875,0 c 0.06249,-0.1875 0.15624,-0.5 0.28125,-0.9375 0.06249,-0.375 0.15624,-0.6875 0.28125,-0.9375 0.06249,-0.1875 0.12499,-0.4375 0.1875,-0.75 l -8.625,0 0,-0.6562 8.8125,0 c 0.187489,-0.8125 0.406239,-1.75 0.65625,-2.8125 l 1.125,0 c -0.250012,1.0625 -0.468762,2 -0.65625,2.8125 l 10.3125,0 0,0.6562 -10.5,0 c -0.06251,0.125 -0.09376,0.2188 -0.09375,0.2813 -0.06251,0.1875 -0.09376,0.375 -0.09375,0.5625 -0.187511,0.6875 -0.375011,1.2812 -0.5625,1.7812 l 10.3125,0 0,0.6563 -10.59375,0 c -0.31251,0.6875 -0.59376,1.25 -0.84375,1.6875 -0.06251,0.062 -0.250009,0.3437 -0.5625,0.8437 l 14.15625,0 0,0.75 m -5.53125,9.6563 0,-1.9688 -11.90625,0 0,2.3438 c 0.187494,0.6875 0.749993,1.0625 1.6875,1.125 l 8.71875,0 c 0.937483,-0.062 1.437482,-0.5625 1.5,-1.5 m -11.90625,-5.1563 0,2.5313 11.90625,0 0,-2.0625 c -1.8e-5,-1.0625 -0.500017,-1.5938 -1.5,-1.5938 l -8.71875,0 c -0.812507,0 -1.375006,0.375 -1.6875,1.125 m 8.625,-4.5 -5.90625,0 c -0.187508,0.25 -0.437508,0.5625 -0.75,0.9375 -0.875007,1.0625 -1.531256,1.8438 -1.96875,2.3438 l 0,1.0312 c 0.187494,-1 0.781243,-1.5312 1.78125,-1.5937 l 8.71875,0 c 0.187483,0 0.374983,0.031 0.5625,0.094 -0.375017,-0.375 -0.906266,-0.9687 -1.59375,-1.7812 -0.437515,-0.4375 -0.718765,-0.7813 -0.84375,-1.0313"
         style=""
         id="path3816" />
    </g>
  </g>
</svg>
