<?xml version="1.0" encoding="UTF-8" standalone="no"?>
<!-- Created with Inkscape (http://www.inkscape.org/) -->

<svg
   xmlns:dc="http://purl.org/dc/elements/1.1/"
   xmlns:cc="http://creativecommons.org/ns#"
   xmlns:rdf="http://www.w3.org/1999/02/22-rdf-syntax-ns#"
   xmlns:svg="http://www.w3.org/2000/svg"
   xmlns="http://www.w3.org/2000/svg"
   xmlns:xlink="http://www.w3.org/1999/xlink"
   xmlns:sodipodi="http://sodipodi.sourceforge.net/DTD/sodipodi-0.dtd"
   xmlns:inkscape="http://www.inkscape.org/namespaces/inkscape"
   version="1.0"
   width="48"
   height="48"
   id="svg2408"
   inkscape:version="0.48.5 r10040"
   sodipodi:docname="chrome-ijfecbiladpinddbjfodaaiahggomhaf-Default.svg">
  <sodipodi:namedview
     pagecolor="#ffffff"
     bordercolor="#666666"
     borderopacity="1"
     objecttolerance="10"
     gridtolerance="10"
     guidetolerance="10"
     inkscape:pageopacity="0"
     inkscape:pageshadow="2"
     inkscape:window-width="1301"
     inkscape:window-height="744"
     id="namedview77"
     showgrid="true"
     width="0px"
     height="0px"
     fit-margin-top="0"
     fit-margin-left="0"
     fit-margin-right="0"
     fit-margin-bottom="0"
     inkscape:zoom="6.1982329"
     inkscape:cx="15.114035"
     inkscape:cy="32.267947"
     inkscape:window-x="65"
     inkscape:window-y="24"
     inkscape:window-maximized="1"
     inkscape:current-layer="svg2408">
    <inkscape:grid
       type="xygrid"
       id="grid3016" />
  </sodipodi:namedview>
  <defs
     id="defs2410">
    <linearGradient
       x1="45.447727"
       y1="92.539597"
       x2="45.447727"
       y2="7.0165396"
       id="ButtonShadow"
       gradientUnits="userSpaceOnUse"
       gradientTransform="scale(1.0058652,0.994169)">
      <stop
         id="stop3750"
         style="stop-color:#000000;stop-opacity:1"
         offset="0" />
      <stop
         id="stop3752"
         style="stop-color:#000000;stop-opacity:0.58823532"
         offset="1" />
    </linearGradient>
    <linearGradient
       id="linearGradient3737">
      <stop
         id="stop3739"
         style="stop-color:#ffffff;stop-opacity:1"
         offset="0" />
      <stop
         id="stop3741"
         style="stop-color:#ffffff;stop-opacity:0"
         offset="1" />
    </linearGradient>
    <filter
       id="filter3174"
       style="color-interpolation-filters:sRGB">
      <feGaussianBlur
         id="feGaussianBlur3176"
         stdDeviation="1.71" />
    </filter>
    <filter
       x="-0.192"
       y="-0.192"
       width="1.3839999"
       height="1.3839999"
       id="filter3794"
       style="color-interpolation-filters:sRGB">
      <feGaussianBlur
         id="feGaussianBlur3796"
         stdDeviation="5.28" />
    </filter>
    <linearGradient
       x1="48"
       y1="20.220806"
       x2="48"
       y2="138.66119"
       id="linearGradient3613"
       xlink:href="#linearGradient3737"
       gradientUnits="userSpaceOnUse" />
    <clipPath
       id="clipPath3613">
      <rect
         width="84"
         height="84"
         rx="6"
         ry="6"
         x="6"
         y="6"
         id="rect3615"
         style="fill:#ffffff;fill-opacity:1;fill-rule:nonzero;stroke:none" />
    </clipPath>
    <linearGradient
       inkscape:collect="always"
       xlink:href="#linearGradient929"
       id="linearGradient885"
       gradientUnits="userSpaceOnUse"
       gradientTransform="matrix(0.83333333,0,0,0.83333333,4.0000005,-880.9685)"
       x1="-6.5393067e-07"
       y1="1029.3622"
       x2="47.91946"
       y2="1029.3622" />
    <linearGradient
       inkscape:collect="always"
       xlink:href="#linearGradient4117"
       id="linearGradient4125"
       gradientUnits="userSpaceOnUse"
       x1="35.285038"
       y1="1022.5204"
       x2="13.28251"
       y2="1022.5204"
       gradientTransform="matrix(-0.85532892,0,0,0.85532892,44.527582,-855.59125)" />
    <linearGradient
       id="linearGradient4117"
       inkscape:collect="always">
      <stop
         id="stop4119"
         offset="0"
         style="stop-color:#cc7c19;stop-opacity:1" />
      <stop
         id="stop4121"
         offset="1"
         style="stop-color:#f8bd03;stop-opacity:1" />
    </linearGradient>
    <linearGradient
       inkscape:collect="always"
       id="linearGradient929">
      <stop
         style="stop-color:#000000;stop-opacity:1"
         offset="0"
         id="stop931" />
      <stop
         style="stop-color:#333333;stop-opacity:1"
         offset="1"
         id="stop933" />
    </linearGradient>
  </defs>
  <metadata
     id="metadata2413">
    <rdf:RDF>
      <cc:Work
         rdf:about="">
        <dc:format>image/svg+xml</dc:format>
        <dc:type
           rdf:resource="http://purl.org/dc/dcmitype/StillImage" />
        <dc:title />
      </cc:Work>
    </rdf:RDF>
  </metadata>
  <g
     id="layer2"
     style="display:none"
     transform="translate(-69.966102,-41.898303)">
    <rect
       width="86"
       height="85"
       rx="6"
       ry="6"
       x="5"
       y="7"
       id="rect3745"
       style="opacity:0.9;fill:url(#ButtonShadow);fill-opacity:1;fill-rule:nonzero;stroke:none;filter:url(#filter3174)" />
  </g>
  <g
     id="layer5"
     style="display:none"
     transform="translate(-69.966102,-41.898303)">
    <rect
       width="66"
       height="66"
       rx="12"
       ry="12"
       x="15"
       y="15"
       clip-path="url(#clipPath3613)"
       id="rect3171"
       style="opacity:0.1;fill:url(#linearGradient3613);fill-opacity:1;fill-rule:nonzero;stroke:#ffffff;stroke-width:0.5;stroke-linecap:round;stroke-linejoin:miter;stroke-miterlimit:4;stroke-opacity:1;stroke-dasharray:none;stroke-dashoffset:0;filter:url(#filter3794)" />
  </g>
  <rect
     style="fill:url(#linearGradient885);fill-opacity:1;stroke:none"
     id="rect2991"
     width="40"
     height="40"
     x="4"
     y="-43.999981"
     ry="0"
     transform="scale(1,-1)" />
  <path
     inkscape:connector-curvature="0"
     id="path4136"
     d="m 22.556321,12.166661 c 0.196982,-1.71e-4 0.3918,0.01304 0.588039,0.02673 2.616383,0.185008 5.085004,1.620254 6.495154,4.062817 2.256246,3.907741 0.94098,8.916632 -2.966922,11.172734 -3.907942,2.256443 -8.88976,0.914175 -11.146005,-2.993652 -2.256262,-3.907997 -0.940997,-8.916376 2.966922,-11.172734 1.282312,-0.74029 2.683856,-1.094525 4.062812,-1.095894 z m -0.133645,2.165056 c -0.969314,0.0248 -1.961254,0.283028 -2.860006,0.801871 -2.87602,1.660706 -3.852276,5.356411 -2.19178,8.23254 1.660458,2.876044 5.356501,3.85206 8.232541,2.19178 2.87602,-1.66062 3.85226,-5.329939 2.19178,-8.205811 -1.141571,-1.977179 -3.24011,-3.075806 -5.372535,-3.02038 z m 6.655528,14.754423 c 0.585797,0.04095 1.126413,0.359805 1.443368,0.908788 l 2.806548,4.864683 c 0.507128,0.878372 0.210147,1.978671 -0.668226,2.485799 l -0.374206,0.240562 c -0.878373,0.507128 -2.005401,0.210146 -2.512529,-0.668226 l -2.806548,-4.864683 c -0.507129,-0.878373 -0.210147,-1.978671 0.668226,-2.4858 l 0.400935,-0.240561 c 0.32939,-0.190174 0.690955,-0.265132 1.042432,-0.240562 z"
     style="fill:#000000;fill-opacity:0.05882353;stroke:none" />
  <path
     style="fill:url(#linearGradient4125);fill-opacity:1;stroke:none"
     d="m 22.556321,11.166665 c 0.196982,-1.71e-4 0.3918,0.01304 0.588039,0.02673 2.616383,0.185008 5.085004,1.62025 6.495154,4.062813 2.256246,3.907741 0.94098,8.916632 -2.966922,11.172734 -3.907942,2.256443 -8.88976,0.914175 -11.146005,-2.993652 -2.256262,-3.907997 -0.940997,-8.916376 2.966922,-11.172734 1.282312,-0.740287 2.683856,-1.094521 4.062812,-1.09589 z m -0.133645,2.165052 c -0.969314,0.0248 -1.961254,0.283028 -2.860006,0.801871 -2.87602,1.660706 -3.852276,5.356411 -2.19178,8.23254 1.660458,2.876044 5.356501,3.85206 8.232541,2.19178 2.87602,-1.66062 3.85226,-5.329939 2.19178,-8.205811 -1.141571,-1.977179 -3.24011,-3.075806 -5.372535,-3.02038 z m 6.655528,14.754423 c 0.585797,0.04095 1.126413,0.359805 1.443368,0.908788 l 2.806548,4.864683 c 0.507128,0.878372 0.210147,1.978671 -0.668226,2.485799 l -0.374206,0.240562 c -0.878373,0.507128 -2.005401,0.210146 -2.512529,-0.668226 l -2.806548,-4.864683 c -0.507129,-0.878373 -0.210147,-1.978671 0.668226,-2.4858 l 0.400935,-0.240561 c 0.32939,-0.190174 0.690955,-0.265132 1.042432,-0.240562 z"
     id="path2983"
     inkscape:connector-curvature="0" />
  <path
     style="opacity:0.5;fill:#000000;fill-opacity:1;stroke:none"
     d="m 4,44 0,0 c 20,-1 20,-1 40,0 z"
     id="path3257"
     inkscape:connector-curvature="0"
     sodipodi:nodetypes="cccc" />
  <path
     sodipodi:nodetypes="cccc"
     inkscape:connector-curvature="0"
     id="path4027"
     d="M 4,4 4,4 C 24,5 24,5 44,4 z"
     style="opacity:0.75;fill:#ffffff;fill-opacity:1;stroke:none" />
</svg>
