<?xml version="1.0" encoding="UTF-8" standalone="no"?>
<!-- Created with Inkscape (http://www.inkscape.org/) -->

<svg
   xmlns:dc="http://purl.org/dc/elements/1.1/"
   xmlns:cc="http://creativecommons.org/ns#"
   xmlns:rdf="http://www.w3.org/1999/02/22-rdf-syntax-ns#"
   xmlns:svg="http://www.w3.org/2000/svg"
   xmlns="http://www.w3.org/2000/svg"
   xmlns:xlink="http://www.w3.org/1999/xlink"
   xmlns:sodipodi="http://sodipodi.sourceforge.net/DTD/sodipodi-0.dtd"
   xmlns:inkscape="http://www.inkscape.org/namespaces/inkscape"
   width="48"
   height="48"
   id="svg2"
   version="1.1"
   inkscape:version="0.48.5 r10040"
   sodipodi:docname="CMakeSetup32.svg">
  <defs
     id="defs4">
    <linearGradient
       inkscape:collect="always"
       id="linearGradient4385">
      <stop
         style="stop-color:#000000;stop-opacity:1;"
         offset="0"
         id="stop4387" />
      <stop
         style="stop-color:#000000;stop-opacity:0;"
         offset="1"
         id="stop4389" />
    </linearGradient>
    <linearGradient
       inkscape:collect="always"
       id="linearGradient4267">
      <stop
         style="stop-color:#68ba1f;stop-opacity:1"
         offset="0"
         id="stop4269" />
      <stop
         style="stop-color:#cddd53;stop-opacity:1"
         offset="1"
         id="stop4271" />
    </linearGradient>
    <linearGradient
       id="linearGradient4261"
       inkscape:collect="always">
      <stop
         id="stop4263"
         offset="0"
         style="stop-color:#0f7abf;stop-opacity:1" />
      <stop
         id="stop4265"
         offset="1"
         style="stop-color:#26a7df;stop-opacity:1" />
    </linearGradient>
    <linearGradient
       inkscape:collect="always"
       id="linearGradient4245">
      <stop
         style="stop-color:#db3717;stop-opacity:1"
         offset="0"
         id="stop4247" />
      <stop
         style="stop-color:#fb881d;stop-opacity:1"
         offset="1"
         id="stop4249" />
    </linearGradient>
    <linearGradient
       id="linearGradient4917">
      <stop
         id="stop4919"
         offset="0"
         style="stop-color:#f2f2f2;stop-opacity:1" />
      <stop
         id="stop4921"
         offset="1"
         style="stop-color:#ffffff;stop-opacity:1;" />
    </linearGradient>
    <linearGradient
       inkscape:collect="always"
       xlink:href="#linearGradient4917"
       id="linearGradient4915"
       x1="24.925514"
       y1="-1051.8735"
       x2="24.925514"
       y2="-1004.6741"
       gradientUnits="userSpaceOnUse" />
    <linearGradient
       inkscape:collect="always"
       xlink:href="#linearGradient4261"
       id="linearGradient4251"
       x1="11.490484"
       y1="16.003418"
       x2="24.57196"
       y2="29.084894"
       gradientUnits="userSpaceOnUse"
       gradientTransform="matrix(1.07739,0,0,1.0933519,-1.849813,1002.1238)" />
    <linearGradient
       inkscape:collect="always"
       xlink:href="#linearGradient4245"
       id="linearGradient4259"
       x1="42.975861"
       y1="17.334036"
       x2="24.306797"
       y2="28.112623"
       gradientUnits="userSpaceOnUse"
       gradientTransform="matrix(1.07739,0,0,1.0933519,-1.849813,1002.1238)" />
    <linearGradient
       inkscape:collect="always"
       xlink:href="#linearGradient4267"
       id="linearGradient4273"
       x1="22.273863"
       y1="41.812817"
       x2="22.273863"
       y2="27.493904"
       gradientUnits="userSpaceOnUse"
       gradientTransform="matrix(1.07739,0,0,1.0933519,-1.849813,1002.1238)" />
    <linearGradient
       inkscape:collect="always"
       xlink:href="#linearGradient4267"
       id="linearGradient4367"
       gradientUnits="userSpaceOnUse"
       x1="15.379572"
       y1="19.892506"
       x2="24.306795"
       y2="28.819729"
       gradientTransform="matrix(1.07739,0,0,1.0933519,-1.849813,1002.1238)" />
    <linearGradient
       inkscape:collect="always"
       xlink:href="#linearGradient4385"
       id="linearGradient4391"
       x1="14.539883"
       y1="37.835339"
       x2="12.900421"
       y2="34.995708"
       gradientUnits="userSpaceOnUse"
       gradientTransform="matrix(1.07739,0,0,1.0933519,-1.849813,1002.1238)" />
    <linearGradient
       inkscape:collect="always"
       xlink:href="#linearGradient4385"
       id="linearGradient4395"
       gradientUnits="userSpaceOnUse"
       x1="14.539883"
       y1="37.835339"
       x2="12.900421"
       y2="34.995708"
       gradientTransform="matrix(0.538695,0.94687054,-0.9330471,0.54667595,40.286242,1001.72)" />
    <linearGradient
       inkscape:collect="always"
       xlink:href="#linearGradient4385"
       id="linearGradient4402"
       gradientUnits="userSpaceOnUse"
       gradientTransform="matrix(-0.538695,4.5303371,-0.9330471,-2.6155914,64.76179,1060.8702)"
       x1="14.539883"
       y1="37.835339"
       x2="12.900421"
       y2="34.995708" />
    <linearGradient
       inkscape:collect="always"
       xlink:href="#linearGradient4385"
       id="linearGradient4415"
       gradientUnits="userSpaceOnUse"
       gradientTransform="matrix(1.07739,0,0,1.0933519,14.216986,988.03254)"
       x1="14.539883"
       y1="37.835339"
       x2="12.900421"
       y2="34.995708" />
    <linearGradient
       inkscape:collect="always"
       xlink:href="#linearGradient4261"
       id="linearGradient4434"
       gradientUnits="userSpaceOnUse"
       x1="42.975861"
       y1="17.334036"
       x2="24.306797"
       y2="28.112623"
       gradientTransform="matrix(1.07739,0,0,1.0933519,-1.849813,1002.1238)" />
  </defs>
  <sodipodi:namedview
     id="base"
     pagecolor="#ffffff"
     bordercolor="#666666"
     borderopacity="1.0"
     inkscape:pageopacity="0.0"
     inkscape:pageshadow="2"
     inkscape:zoom="5.6568543"
     inkscape:cx="19.979107"
     inkscape:cy="39.307097"
     inkscape:document-units="px"
     inkscape:current-layer="layer1"
     showgrid="true"
     inkscape:window-width="1301"
     inkscape:window-height="744"
     inkscape:window-x="65"
     inkscape:window-y="24"
     inkscape:window-maximized="1">
    <inkscape:grid
       type="xygrid"
       id="grid3025" />
  </sodipodi:namedview>
  <metadata
     id="metadata7">
    <rdf:RDF>
      <cc:Work
         rdf:about="">
        <dc:format>image/svg+xml</dc:format>
        <dc:type
           rdf:resource="http://purl.org/dc/dcmitype/StillImage" />
        <dc:title />
      </cc:Work>
    </rdf:RDF>
  </metadata>
  <g
     inkscape:label="Capa 1"
     inkscape:groupmode="layer"
     id="layer1"
     transform="translate(0,-1004.3622)">
    <path
       style="fill:url(#linearGradient4259);fill-opacity:1;stroke:none"
       d="m 24.680917,1011.003 0,34.8549 17.877938,0 c 0.03863,0 0.07348,-0.015 0.111522,-0.015 0.06546,0 0.130418,-0.015 0.195697,-0.019 0.07117,-0.012 0.14005,-0.026 0.208325,-0.044 0.04693,-0.015 0.09254,-0.025 0.138882,-0.043 0.08536,-0.028 0.164946,-0.068 0.244096,-0.1068 0.01871,-0.013 0.04038,-0.014 0.05892,-0.024 0.0089,0 0.0164,-0.016 0.02526,-0.019 0.08757,-0.052 0.168474,-0.1068 0.246201,-0.1708 0.02134,-0.017 0.04485,-0.036 0.06524,-0.053 0.06786,-0.061 0.12686,-0.1272 0.185176,-0.1964 0.02296,-0.026 0.04819,-0.053 0.06943,-0.081 0.04875,-0.065 0.09058,-0.1337 0.130466,-0.205 0.01921,-0.035 0.03989,-0.068 0.05681,-0.1033 0.03066,-0.065 0.05259,-0.1308 0.07576,-0.1986 0.01839,-0.055 0.03925,-0.1057 0.05261,-0.1601 0.04098,-0.1553 0.02313,-0.7437 0.02313,-0.7437 -0.01011,-0.059 -0.02442,-0.1148 -0.03999,-0.1709 -0.01541,-0.057 -0.03161,-0.1136 -0.05261,-0.1664 -0.02922,-0.077 -0.0642,-0.1484 -0.103103,-0.2201 -0.0118,-0.02 -0.01881,-0.042 -0.03157,-0.067 l -18.47764,-31.1231 c -0.01045,-0.021 -0.02656,-0.04 -0.03788,-0.06 l -0.03577,-0.062 c -0.0058,-0.015 -0.01503,-0.017 -0.02104,-0.025 -0.05418,-0.086 -0.115956,-0.1693 -0.185178,-0.2478 -0.02361,-0.026 -0.0466,-0.051 -0.07155,-0.076 -0.05492,-0.057 -0.111863,-0.1068 -0.174655,-0.158 -0.04843,-0.04 -0.09989,-0.074 -0.151508,-0.1045 -0.0328,-0.02 -0.06015,-0.047 -0.0947,-0.068 -0.0202,-0.015 -0.0427,-0.015 -0.06312,-0.023 -0.05856,-0.029 -0.117628,-0.056 -0.178864,-0.078 -0.01543,-0.011 -0.03092,-0.011 -0.0463,-0.017 z"
       id="path4237"
       inkscape:connector-curvature="0"
       sodipodi:nodetypes="ccsscccccccccccccccccccccccccccccccc" />
    <path
       style="fill:url(#linearGradient4367);fill-opacity:1;stroke:none"
       d="m 19.569626,1036.5474 -8.837965,-5.1765 -6.9356977,11.6811 c -0.012742,0.021 -0.019786,0.044 -0.031564,0.067 -0.038899,0.073 -0.073905,0.1432 -0.1031101,0.22 -0.021005,0.056 -0.037182,0.1102 -0.052606,0.1665 -0.015575,0.058 -0.029902,0.1125 -0.039981,0.171 -0.011669,0.067 -0.014934,0.1356 -0.018938,0.2028 0,0.1428 0.0101,0.2574 0.014731,0.3757 0.00803,0.056 0.014552,0.1114 0.027356,0.1646 0.013346,0.056 0.034221,0.1068 0.052606,0.16 0.023169,0.067 0.045098,0.1346 0.075753,0.1986 0.016916,0.036 0.037603,0.068 0.056815,0.1034 0.039884,0.073 0.081702,0.1398 0.1304653,0.205 0.021227,0.027 0.046476,0.054 0.069442,0.081 0.058322,0.07 0.1172984,0.136 0.1851764,0.1964 0.020412,0.017 0.043887,0.036 0.065233,0.053 0.029965,0.024 0.063581,0.043 0.094694,0.066 z"
       id="path4365"
       inkscape:connector-curvature="0"
       sodipodi:nodetypes="ccccccccccccccccccc" />
    <path
       style="fill:url(#linearGradient4251);fill-opacity:1;stroke:none"
       d="m 22.951206,1011.191 c -0.0516,0.035 -0.10308,0.067 -0.151508,0.1045 -0.06282,0.05 -0.119729,0.1011 -0.174654,0.1581 -0.02495,0.024 -0.04794,0.048 -0.07155,0.076 -0.06921,0.078 -0.131011,0.1604 -0.185177,0.2478 -0.006,0.014 -0.0152,0.017 -0.02104,0.025 l -0.03577,0.062 c -0.01144,0.02 -0.0274,0.04 -0.03789,0.06 l -11.541964,19.4453 8.837966,5.1764 5.11129,-2.9938 0,-22.5505 c -0.0434,-0.016 -0.08627,-0.033 -0.130467,-0.047 -0.05349,-0.016 -0.109431,-0.024 -0.164132,-0.036 -0.06571,-0.015 -0.129632,-0.027 -0.195698,-0.036 l -0.157822,-0.017 c -0.447989,0 -0.78966,0.1535 -1.081592,0.3246 z"
       id="path4220"
       inkscape:connector-curvature="0"
       sodipodi:nodetypes="ccccccccccccccccc" />
    <path
       style="fill:url(#linearGradient4273);fill-opacity:1;stroke:none"
       d="m 24.680917,1033.5536 -20.3588846,11.9285 c 0.04993,0.036 0.0977,0.075 0.151508,0.1045 0.00887,0 0.016259,0.016 0.02525,0.019 0.01853,0.015 0.03809,0.015 0.056814,0.023 0.079148,0.042 0.160849,0.078 0.2462005,0.1068 0.046329,0.016 0.091941,0.028 0.1388822,0.042 0.068273,0.018 0.1371579,0.036 0.2083236,0.045 0.065282,0.015 0.1302461,0.016 0.1956978,0.019 0.038036,0 0.072913,0.016 0.1115265,0.016 l 19.2246785,0 0,-12.3043 z"
       id="path4230"
       inkscape:connector-curvature="0" />
    <path
       style="fill:url(#linearGradient4434);fill-opacity:1;stroke:none"
       d="m 24.680917,1011.003 0,17.8333 8.23614,-4.8262 -7.175586,-12.0846 c -0.219419,-0.428 -0.676691,-0.8115 -1.014261,-0.9032 -0.01543,-0.011 -0.03092,-0.014 -0.0463,-0.019 z"
       id="path4432"
       inkscape:connector-curvature="0"
       sodipodi:nodetypes="cccccc" />
    <path
       style="fill:url(#linearGradient4391);fill-opacity:1;stroke:none"
       d="m 18.624805,1035.9943 -14.92143,8.7404 c 0.00591,0.015 0.010214,0.028 0.016834,0.042 0.016916,0.036 0.037604,0.068 0.056814,0.1033 0.039884,0.074 0.081702,0.1398 0.1304652,0.205 0.02123,0.027 0.046477,0.054 0.069442,0.081 0.058322,0.07 0.1172986,0.136 0.1851764,0.1963 0.020412,0.017 0.043887,0.036 0.065233,0.053 0.029965,0.024 0.063581,0.044 0.094694,0.066 l 15.2475935,-8.9347 -0.944819,-0.5532 z"
       id="path4380"
       inkscape:connector-curvature="0" />
    <path
       style="fill:url(#linearGradient4395);fill-opacity:1;stroke:none"
       d="m 11.217749,1030.5532 -0.486088,0.8177 8.837965,5.1765 0.938508,-0.5488 -9.290385,-5.4454 z"
       id="path4393"
       inkscape:connector-curvature="0" />
    <path
       style="fill:url(#linearGradient4402);fill-opacity:1;stroke:none"
       d="m 24.680917,1011.003 0.0022,34.7225 0.936404,0 0.0022,-33.9814 c -0.04854,-0.073 -0.100218,-0.1458 -0.159927,-0.2136 -0.02361,-0.026 -0.04659,-0.051 -0.07155,-0.076 -0.05492,-0.057 -0.111863,-0.1068 -0.174654,-0.158 -0.04843,-0.04 -0.09989,-0.074 -0.151509,-0.1045 -0.0328,-0.02 -0.06015,-0.047 -0.0947,-0.068 -0.0202,-0.015 -0.04269,-0.015 -0.06312,-0.023 -0.05856,-0.029 -0.117627,-0.053 -0.178862,-0.076 -0.01543,-0.011 -0.03093,-0.013 -0.0463,-0.019 z"
       id="path4400"
       inkscape:connector-curvature="0" />
    <path
       style="fill:url(#linearGradient4415);fill-opacity:1;stroke:none"
       d="m 32.445699,1023.2177 -7.764782,4.5487 0,0.9502 0.06312,0.1152 8.18564,-4.7983 -0.483985,-0.8158 z"
       id="path4413"
       inkscape:connector-curvature="0" />
    <path
       style="fill:#000000;fill-opacity:0.31372549;stroke:none"
       d="m 3.600801,1043.5378 c -0.012022,0.046 -0.022957,0.091 -0.031066,0.1376 -0.011668,0.067 -0.01596,0.1348 -0.019971,0.2019 0,0.1429 0.010932,0.2567 0.015533,0.3751 0.00807,0.056 0.013824,0.1131 0.026628,0.1664 0.01335,0.056 0.034873,0.1063 0.053256,0.1597 0.023177,0.067 0.044793,0.1335 0.075446,0.1975 0.016917,0.036 0.036263,0.069 0.055475,0.1043 0.039889,0.073 0.082157,0.139 0.1309204,0.2042 0.021223,0.027 0.045828,0.056 0.068789,0.082 0.058329,0.07 0.1185177,0.1348 0.1863954,0.1952 0.020405,0.017 0.043003,0.036 0.064351,0.053 0.029971,0.024 0.06431,0.043 0.095417,0.064 0.049933,0.036 0.097079,0.076 0.1508915,0.1065 0.00886,0 0.015411,0.016 0.024409,0.02 0.01853,0.015 0.03897,0.014 0.057694,0.022 0.079154,0.042 0.1631747,0.08 0.2485272,0.1088 0.046331,0.016 0.09063,0.028 0.1375776,0.042 0.06827,0.018 0.1374184,0.035 0.2085852,0.044 0.065282,0.015 0.1298192,0.017 0.1952714,0.02 0.038037,0 0.072333,0.015 0.1109496,0.015 l 19.2253512,0 17.878425,0 c 0.03863,0 0.0729,-0.015 0.110949,-0.015 0.06546,0 0.129991,-0.015 0.195271,-0.02 0.07117,-0.014 0.142531,-0.027 0.210805,-0.047 0.04693,-0.015 0.09122,-0.023 0.137577,-0.04 0.08536,-0.028 0.164939,-0.07 0.244089,-0.1088 0.01871,-0.014 0.04138,-0.013 0.05991,-0.022 0.0089,0 0.01555,-0.019 0.02441,-0.022 0.08757,-0.052 0.16858,-0.1069 0.246308,-0.1708 0.02134,-0.017 0.04397,-0.036 0.06435,-0.053 0.06785,-0.061 0.125861,-0.1261 0.184178,-0.1952 0.02296,-0.026 0.04977,-0.053 0.07101,-0.08 0.04876,-0.065 0.08882,-0.1349 0.128702,-0.2064 0.01921,-0.035 0.04077,-0.068 0.05769,-0.1021 0.03066,-0.065 0.05228,-0.1296 0.07545,-0.1975 0.01839,-0.055 0.03989,-0.1074 0.05325,-0.1619 0.04099,-0.1555 0.02219,-0.7434 0.02219,-0.7434 -0.008,-0.047 -0.01927,-0.091 -0.03107,-0.1354 -0.0129,0.044 -0.02928,0.086 -0.04438,0.131 -0.02317,0.068 -0.04478,0.1327 -0.07545,0.1974 -0.01693,0.034 -0.03848,0.067 -0.05769,0.1021 -0.03988,0.072 -0.07994,0.1416 -0.128702,0.2064 -0.02123,0.027 -0.04805,0.054 -0.07101,0.08 -0.05832,0.069 -0.116328,0.1361 -0.184178,0.1975 -0.02038,0.017 -0.04301,0.036 -0.06435,0.053 -0.07773,0.064 -0.158736,0.1186 -0.246308,0.1709 -0.0089,0 -0.01555,0.022 -0.02441,0.022 -0.01853,0.01 -0.0412,0.01 -0.05991,0.022 -0.07915,0.039 -0.158732,0.078 -0.244089,0.1065 -0.04636,0.017 -0.09064,0.027 -0.137577,0.042 -0.06827,0.019 -0.139638,0.031 -0.210805,0.044 -0.06528,0 -0.129807,0.02 -0.195271,0.02 -0.03805,0 -0.07232,0.015 -0.110949,0.015 l -17.878425,0 -19.2253512,0 c -0.038617,0 -0.072912,-0.015 -0.1109496,-0.015 -0.065452,-0 -0.1299897,-0 -0.1952714,-0.018 -0.071167,-0.01 -0.1403155,-0.028 -0.2085852,-0.047 -0.046948,-0.014 -0.091247,-0.026 -0.1375776,-0.042 -0.085352,-0.028 -0.1693734,-0.067 -0.2485272,-0.1088 -0.018723,-0.01 -0.039164,-0.01 -0.057694,-0.02 -0.009,-0 -0.015547,-0.02 -0.024409,-0.02 -0.053813,-0.031 -0.1009589,-0.07 -0.1508915,-0.1065 -0.031107,-0.022 -0.065446,-0.04 -0.095417,-0.064 -0.021348,-0.017 -0.043946,-0.038 -0.064351,-0.055 -0.067878,-0.061 -0.1280667,-0.1249 -0.1863954,-0.1953 -0.022961,-0.026 -0.047566,-0.053 -0.068789,-0.08 -0.048764,-0.065 -0.091031,-0.1336 -0.1309204,-0.2064 -0.019212,-0.035 -0.038558,-0.066 -0.055475,-0.102 -0.030653,-0.064 -0.052269,-0.1327 -0.075446,-0.1997 -0.015089,-0.044 -0.031485,-0.086 -0.04438,-0.131 z"
       id="path4469"
       inkscape:connector-curvature="0" />
  </g>
</svg>
