<?xml version="1.0" encoding="UTF-8" standalone="no"?>
<svg
   xmlns:dc="http://purl.org/dc/elements/1.1/"
   xmlns:cc="http://creativecommons.org/ns#"
   xmlns:rdf="http://www.w3.org/1999/02/22-rdf-syntax-ns#"
   xmlns:svg="http://www.w3.org/2000/svg"
   xmlns="http://www.w3.org/2000/svg"
   xmlns:xlink="http://www.w3.org/1999/xlink"
   xmlns:sodipodi="http://sodipodi.sourceforge.net/DTD/sodipodi-0.dtd"
   xmlns:inkscape="http://www.inkscape.org/namespaces/inkscape"
   height="48"
   width="48"
   viewBox="0 0 13.546667 13.546667"
   id="svg2"
   version="1.1"
   inkscape:version="0.48.5 r10040"
   sodipodi:docname="colorhug-ccmx.svg">
  <metadata
     id="metadata32">
    <rdf:RDF>
      <cc:Work
         rdf:about="">
        <dc:format>image/svg+xml</dc:format>
        <dc:type
           rdf:resource="http://purl.org/dc/dcmitype/StillImage" />
      </cc:Work>
    </rdf:RDF>
  </metadata>
  <sodipodi:namedview
     pagecolor="#ffffff"
     bordercolor="#666666"
     borderopacity="1"
     objecttolerance="10"
     gridtolerance="10"
     guidetolerance="10"
     inkscape:pageopacity="0"
     inkscape:pageshadow="2"
     inkscape:window-width="1301"
     inkscape:window-height="744"
     id="namedview30"
     showgrid="true"
     inkscape:zoom="9.5781546"
     inkscape:cx="11.545491"
     inkscape:cy="26.27284"
     inkscape:window-x="65"
     inkscape:window-y="24"
     inkscape:window-maximized="1"
     inkscape:current-layer="svg2">
    <inkscape:grid
       type="xygrid"
       id="grid3004" />
  </sodipodi:namedview>
  <defs
     id="defs4">
    <linearGradient
       inkscape:collect="always"
       id="linearGradient4281">
      <stop
         style="stop-color:#8f8f8f;stop-opacity:1"
         offset="0"
         id="stop4283" />
      <stop
         style="stop-color:#a3a3a3;stop-opacity:1"
         offset="1"
         id="stop4285" />
    </linearGradient>
    <linearGradient
       id="linearGradient4917">
      <stop
         style="stop-color:#f2f2f2;stop-opacity:1"
         offset="0"
         id="stop4919" />
      <stop
         style="stop-color:#ffffff;stop-opacity:1;"
         offset="1"
         id="stop4921" />
    </linearGradient>
    <linearGradient
       gradientUnits="userSpaceOnUse"
       y2="-1004.6741"
       x2="24.925514"
       y1="-1051.8735"
       x1="24.925514"
       id="linearGradient4915"
       xlink:href="#linearGradient4917"
       inkscape:collect="always"
       gradientTransform="matrix(0.28222223,0,0,0.28222223,-1.7617798e-7,283.45334)" />
    <linearGradient
       inkscape:collect="always"
       xlink:href="#linearGradient4281"
       id="linearGradient4260"
       x1="4.7570009"
       y1="9.8638277"
       x2="4.7570009"
       y2="5.5978718"
       gradientUnits="userSpaceOnUse"
       gradientTransform="scale(3.543307,3.543307)" />
    <linearGradient
       inkscape:collect="always"
       xlink:href="#linearGradient4281"
       id="linearGradient4268"
       x1="9.1150284"
       y1="9.8638277"
       x2="9.1150284"
       y2="5.5364909"
       gradientUnits="userSpaceOnUse"
       gradientTransform="scale(3.543307,3.543307)" />
    <linearGradient
       inkscape:collect="always"
       xlink:href="#linearGradient4281"
       id="linearGradient4287"
       x1="24.032703"
       y1="21.683647"
       x2="24.032703"
       y2="11.026611"
       gradientUnits="userSpaceOnUse" />
  </defs>
  <path
     style="fill:#000000;fill-opacity:0.23529412"
     d="m 6.7733335,1.5497807 c -1.9763343,0 -3.5779806,1.5969278 -3.5779806,3.5664478 0,0.1101231 0.00444,0.2187415 0.014246,0.3263194 0.4555321,-0.2094249 0.9626771,-0.3263194 1.4972703,-0.3263194 0.2503344,0 0.4955482,0.025895 0.7313355,0.074625 -0.00138,-0.024714 -0.00271,-0.04957 -0.00271,-0.074625 0,-0.736343 0.5989509,-1.3337715 1.3378417,-1.3337715 0.7388908,0 1.337842,0.5974285 1.3378416,1.3337715 0,0.025056 -0.00133,0.049913 -0.00271,0.074625 0.2358239,-0.048729 0.4796444,-0.074625 0.7299784,-0.074625 0.5345932,0 1.0430968,0.1168948 1.4986279,0.3263194 0.0098,-0.1075779 0.01425,-0.2161961 0.01425,-0.3263194 0,-1.96952 -1.6016465,-3.5664478 -3.5779808,-3.5664478 z M 10.337068,5.4425479 C 10.265683,6.226613 9.9392255,6.9374063 9.4415547,7.4920508 9.8776799,7.7117412 10.17696,8.1617289 10.17696,8.6819973 c 0,0.736343 -0.5982721,1.3330927 -1.3371628,1.3330927 -0.2703415,0 -0.5229698,-0.080365 -0.7333706,-0.2177719 -0.2417491,0.7322449 -0.7138635,1.3604909 -1.3324147,1.7971309 0.5835,0.411712 1.2964353,0.653995 2.0657853,0.653995 1.9763338,0 3.5779808,-1.596927 3.5779808,-3.5664467 0,-1.4365684 -0.852471,-2.6745437 -2.08071,-3.2394494 z m -7.1274685,0 c -1.2282398,0.5649057 -2.0807103,1.802881 -2.0807103,3.2394494 0,1.9695197 1.601646,3.5664467 3.5779806,3.5664467 0.7693499,0 1.4822852,-0.242283 2.0657853,-0.653995 C 6.154104,11.157809 5.6819894,10.529563 5.4402405,9.7973181 5.2298395,9.9347247 4.9772112,10.01509 4.7068698,10.01509 c -0.7388908,0 -1.3371633,-0.5967497 -1.3371633,-1.3330927 0,-0.5202684 0.2992806,-0.9702561 0.7354058,-1.1899465 C 3.6074415,6.9374063 3.2809839,6.226613 3.2095995,5.4425479 z m 3.563734,-1.5006627 c -0.6510948,0 -1.1756999,0.5238626 -1.1756999,1.1743433 0,0.6504804 0.5246051,1.1736644 1.1756999,1.1736644 0.6510948,0 1.1756998,-0.523184 1.1756998,-1.1736644 0,-0.6504807 -0.524605,-1.1743433 -1.1756998,-1.1743433 z M 4.7068698,7.5076545 c -0.6510948,0 -1.1743428,0.5238625 -1.1743428,1.1743428 0,0.6504807 0.523248,1.1736649 1.1743428,1.1736649 0.6510944,0 1.1756999,-0.5231842 1.1756999,-1.1736649 0,-0.6504803 -0.5246055,-1.1743428 -1.1756999,-1.1743428 z m 4.1329274,0 c -0.6510944,0 -1.1756998,0.5238625 -1.1756998,1.1743428 0,0.6504807 0.5246054,1.1736649 1.1756998,1.1736649 0.6510948,0 1.1743428,-0.5231842 1.1743428,-1.1736649 0,-0.6504803 -0.523248,-1.1743428 -1.1743428,-1.1743428 z"
     id="path4314"
     inkscape:connector-curvature="0" />
  <g
     id="g4307"
     transform="matrix(1.5809787,0,0,1.5794871,-3.9351628,-3.4923183)">
    <path
       id="path18"
       transform="scale(0.28222223,0.28222223)"
       d="m 31.986328,19.732422 c -0.159987,1.758915 -0.890473,3.353406 -2.005859,4.597656 0.977449,0.492837 1.648437,1.502789 1.648437,2.669922 0,1.651858 -1.342037,2.990234 -2.998047,2.990234 -0.605892,0 -1.171025,-0.180033 -1.642578,-0.488281 -0.54181,1.642666 -1.600024,3.051724 -2.986328,4.03125 C 25.3097,34.456809 26.906584,35 28.630859,35 c 4.429383,0 8.019532,-3.581722 8.019532,-8 0,-3.222694 -1.911318,-6.000309 -4.664063,-7.267578 z m -3.355469,4.632812 c -1.45924,0 -2.634765,1.175525 -2.634765,2.634766 0,1.459241 1.175525,2.632812 2.634765,2.632812 1.459241,0 2.632813,-1.173571 2.632813,-2.632812 0,-1.459241 -1.173572,-2.634766 -2.632813,-2.634766 z"
       style="fill:url(#linearGradient4268);fill-opacity:1"
       inkscape:connector-curvature="0" />
    <path
       id="path20"
       transform="scale(0.28222223,0.28222223)"
       d="m 24,11 c -4.429382,0 -8.019531,3.581722 -8.019531,8 0,0.247043 0.01123,0.49109 0.0332,0.732422 C 17.034612,19.262614 18.171005,19 19.369141,19 c 0.561052,0 1.110222,0.05865 1.638671,0.167969 -0.0031,-0.05544 -0.0059,-0.111762 -0.0059,-0.167969 0,-1.651858 1.342037,-2.992188 2.998047,-2.992188 1.65601,0 2.998047,1.34033 2.998047,2.992188 0,0.05621 -0.0028,0.112527 -0.0059,0.167969 C 27.520637,19.058654 28.067854,19 28.628906,19 c 1.198136,0 2.336482,0.262615 3.357422,0.732422 0.02197,-0.241331 0.0332,-0.485379 0.0332,-0.732422 0,-4.418278 -3.590149,-8 -8.019531,-8 z m 0,5.365234 c -1.459241,0 -2.634766,1.175525 -2.634766,2.634766 0,1.459241 1.175525,2.632812 2.634766,2.632812 1.459241,0 2.634766,-1.173571 2.634766,-2.632812 0,-1.459241 -1.175525,-2.634766 -2.634766,-2.634766 z"
       style="fill:url(#linearGradient4287);fill-opacity:1;stroke:none"
       inkscape:connector-curvature="0" />
    <path
       id="path22"
       transform="scale(0.28222223,0.28222223)"
       d="M 16.013672,19.732422 C 13.260927,20.999691 11.349609,23.777306 11.349609,27 c 0,4.418278 3.590149,8 8.019532,8 1.724275,0 3.321159,-0.543191 4.628906,-1.466797 -1.386304,-0.979526 -2.444518,-2.388584 -2.986328,-4.03125 -0.471553,0.308248 -1.036686,0.488281 -1.642578,0.488281 -1.65601,0 -2.998047,-1.338376 -2.998047,-2.990234 0,-1.167133 0.670988,-2.177085 1.648437,-2.669922 -1.115386,-1.24425 -1.845872,-2.838741 -2.005859,-4.597656 z m 3.355469,4.632812 c -1.459241,0 -2.632813,1.175525 -2.632813,2.634766 0,1.459241 1.173572,2.632812 2.632813,2.632812 1.45924,0 2.634765,-1.173571 2.634765,-2.632812 0,-1.459241 -1.175525,-2.634766 -2.634765,-2.634766 z"
       style="fill:url(#linearGradient4260);fill-opacity:1;stroke:none"
       inkscape:connector-curvature="0" />
  </g>
  <path
     style="fill:#494949;fill-opacity:0.31372549"
     d="m 6.7733335,3.3655002 c -0.7388908,3e-7 -1.3378417,0.5974288 -1.3378417,1.3337714 0,0.025056 0.00133,0.049912 0.00271,0.074626 -0.2357873,-0.048731 -0.4810011,-0.074626 -0.7313355,-0.074626 -0.5345931,0 -1.0417383,0.1168945 -1.4972703,0.3263194 0.00811,0.089084 0.020705,0.1768351 0.035278,0.263905 0.4465704,-0.199583 0.9408754,-0.3120724 1.4619924,-0.3120724 0.2503344,0 0.4955482,0.025895 0.7313355,0.074626 -0.00138,-0.024714 -0.00271,-0.04957 -0.00271,-0.074626 0,-0.3263146 0.1221955,-0.6216031 0.3174998,-0.8534511 0.2014209,-0.3565455 0.5798467,-0.5990437 1.0203419,-0.5990437 0.4404952,0 0.818921,0.2424982 1.0203419,0.5990437 0.1953043,0.231848 0.3175001,0.5271365 0.3174998,0.8534511 0,0.025056 -0.00133,0.049912 -0.00271,0.074626 0.2358238,-0.048728 0.4796443,-0.074626 0.7299784,-0.074626 0.5211396,0 1.0167002,0.1124734 1.4633499,0.3120724 0.01457,-0.08707 0.02717,-0.1748214 0.03528,-0.263905 C 9.8815365,4.8161665 9.3730336,4.6992716 8.8384401,4.6992716 c -0.2503337,0 -0.4941546,0.025897 -0.7299784,0.074626 0.00138,-0.024714 0.00271,-0.04957 0.00271,-0.074626 7e-7,-0.7363426 -0.5989509,-1.3337714 -1.3378417,-1.3337714 z M 10.337068,5.025591 c 0.0041,0.00191 0.0081,0.00419 0.01221,0.00611 2.5e-4,-0.01823 0.002,-0.035963 0.002,-0.054273 0,-0.043787 -0.0052,-0.086173 -0.0068,-0.1295781 -0.0023,0.059285 -0.0021,0.1191523 -0.0075,0.1777455 z m -7.1274685,0 c -0.00534,-0.058593 -0.00515,-0.11846 -0.00746,-0.1777455 -0.00157,0.043405 -0.00678,0.085791 -0.00678,0.1295781 0,0.018311 0.00179,0.036043 0.00204,0.054273 0.00413,-0.00192 0.00807,-0.0042 0.012211,-0.00611 z m 2.402281,-0.1872434 c -0.00547,0.046122 -0.014247,0.09144 -0.014247,0.139076 0,0.6504803 0.5246051,1.1736644 1.1756999,1.1736644 0.6510948,0 1.1756999,-0.5231841 1.1756999,-1.1736644 0,-0.047636 -0.00878,-0.092954 -0.014247,-0.139076 -0.06923,0.5835977 -0.558039,1.0345884 -1.161453,1.0345884 -0.6034137,4e-7 -1.0922229,-0.4509907 -1.161453,-1.0345884 z M 3.950433,7.1666809 C 3.5998484,7.4069418 3.3697065,7.8089342 3.3697065,8.2650407 c 0,0.039279 0.0082,0.076238 0.011533,0.1146528 C 3.4144852,8.1101235 3.5280813,7.865643 3.698061,7.6707461 3.7873454,7.5189904 3.906373,7.3872998 4.0521959,7.2894748 4.0176057,7.2490887 3.983218,7.2085949 3.950433,7.1666809 z m 5.645801,0 c -0.032785,0.041914 -0.067173,0.082408 -0.1017629,0.1227939 0.1458229,0.097825 0.2648505,0.2295156 0.3541349,0.3812713 0.16998,0.1948969 0.283576,0.4393774 0.316821,0.7089474 0.0033,-0.038415 0.01153,-0.075373 0.01153,-0.1146528 0,-0.4561065 -0.2301414,-0.8580989 -0.580726,-1.0983598 z M 1.134995,8.3851208 c -0.00232,0.052663 -0.00611,0.1048391 -0.00611,0.1580716 0,1.9695206 1.601646,3.5664476 3.5779806,3.5664476 0.7693499,0 1.4822853,-0.242284 2.0657853,-0.653996 -0.067293,-0.0475 -0.1323443,-0.098 -0.196063,-0.14993 -0.5441841,0.33301 -1.1843926,0.525774 -1.8697223,0.525774 -1.9356953,0 -3.5078683,-1.532861 -3.5718748,-3.4463672 z m 11.276677,0 c -0.06401,1.9135062 -1.63618,3.4463672 -3.5718748,3.4463672 -0.6853297,0 -1.3255382,-0.192764 -1.8697223,-0.525774 -0.063719,0.05193 -0.1287698,0.102428 -0.196063,0.14993 0.5835,0.411712 1.2964354,0.653996 2.0657853,0.653996 1.9763348,0 3.5779808,-1.596927 3.5779808,-3.5664476 0,-0.053233 -0.0038,-0.1054084 -0.0061,-0.1580716 z m -8.8648981,0.018996 c -0.00546,0.046122 -0.014247,0.09144 -0.014247,0.1390757 0,0.212362 0.060292,0.4085966 0.1580715,0.5800481 0.2452128,0.2883883 0.6070772,0.4748933 1.0162713,0.4748933 0.2703414,0 0.5229697,-0.080366 0.7333707,-0.2177724 0.00637,0.019284 0.014347,0.037849 0.021031,0.056987 0.2555544,-0.2149179 0.4212982,-0.5327873 0.4212982,-0.894156 0,-0.047636 -0.00878,-0.092954 -0.014247,-0.1390757 -0.06923,0.583598 -0.5580393,1.0345888 -1.161453,1.0345888 -0.6034137,0 -1.0910367,-0.4509908 -1.1600959,-1.0345888 z m 4.1315703,0 c -0.00547,0.046122 -0.014247,0.09144 -0.014247,0.1390757 0,0.3613687 0.1657438,0.6792381 0.4212982,0.894156 0.00668,-0.019138 0.014664,-0.037703 0.021031,-0.056987 0.2104006,0.137407 0.4630293,0.2177724 0.7333707,0.2177724 0.4091937,0 0.7710585,-0.186505 1.0162713,-0.4748933 C 9.9538476,8.951789 10.01414,8.7555544 10.01414,8.5431924 c 0,-0.047636 -0.0088,-0.092954 -0.014247,-0.1390757 -0.069059,0.583598 -0.5566822,1.0345888 -1.1600959,1.0345888 -0.6034137,0 -1.0922229,-0.4509908 -1.161453,-1.0345888 z"
     id="path4336"
     inkscape:connector-curvature="0" />
</svg>
