<?xml version="1.0" encoding="UTF-8" standalone="no"?>
<svg
   xmlns:dc="http://purl.org/dc/elements/1.1/"
   xmlns:cc="http://creativecommons.org/ns#"
   xmlns:rdf="http://www.w3.org/1999/02/22-rdf-syntax-ns#"
   xmlns:svg="http://www.w3.org/2000/svg"
   xmlns="http://www.w3.org/2000/svg"
   xmlns:xlink="http://www.w3.org/1999/xlink"
   xmlns:sodipodi="http://sodipodi.sourceforge.net/DTD/sodipodi-0.dtd"
   xmlns:inkscape="http://www.inkscape.org/namespaces/inkscape"
   width="48"
   height="48"
   id="svg2"
   version="1.1"
   inkscape:version="0.48.5 r10040"
   sodipodi:docname="copyq.svg">
  <metadata
     id="metadata40">
    <rdf:RDF>
      <cc:Work
         rdf:about="">
        <dc:format>image/svg+xml</dc:format>
        <dc:type
           rdf:resource="http://purl.org/dc/dcmitype/StillImage" />
      </cc:Work>
    </rdf:RDF>
  </metadata>
  <sodipodi:namedview
     pagecolor="#ffffff"
     bordercolor="#666666"
     borderopacity="1"
     objecttolerance="10"
     gridtolerance="10"
     guidetolerance="10"
     inkscape:pageopacity="0"
     inkscape:pageshadow="2"
     inkscape:window-width="1301"
     inkscape:window-height="744"
     id="namedview38"
     showgrid="true"
     inkscape:zoom="6.5024147"
     inkscape:cx="36.632412"
     inkscape:cy="17.493293"
     inkscape:window-x="65"
     inkscape:window-y="24"
     inkscape:window-maximized="1"
     inkscape:current-layer="svg2">
    <inkscape:grid
       type="xygrid"
       id="grid2999" />
  </sodipodi:namedview>
  <defs
     id="defs4">
    <linearGradient
       id="linearGradient4231">
      <stop
         style="stop-color:#c6e0f2;stop-opacity:1"
         offset="0"
         id="stop4233" />
      <stop
         style="stop-color:#f6fbfe;stop-opacity:1"
         offset="1"
         id="stop4235" />
    </linearGradient>
    <linearGradient
       id="linearGradient861-5">
      <stop
         id="stop863-8"
         offset="0"
         style="stop-color:#2a80bb;stop-opacity:1" />
      <stop
         id="stop865-3"
         offset="1"
         style="stop-color:#63c2f4;stop-opacity:1" />
    </linearGradient>
    <linearGradient
       gradientUnits="userSpaceOnUse"
       y2="-1027.3622"
       x2="48"
       y1="-1027.3622"
       x1="-1.3305664e-06"
       id="linearGradient1427"
       xlink:href="#linearGradient861-5"
       inkscape:collect="always"
       gradientTransform="matrix(0.83333334,0,0,0.83333334,4.0000007,832.96851)" />
    <linearGradient
       inkscape:collect="always"
       xlink:href="#linearGradient4231"
       id="linearGradient4229"
       x1="8"
       y1="18"
       x2="40"
       y2="18"
       gradientUnits="userSpaceOnUse"
       gradientTransform="matrix(0.83333334,0,0,0.83333334,3.9999996,3.9999985)" />
  </defs>
  <rect
     style="fill:url(#linearGradient1427);fill-opacity:1;stroke:none"
     id="rect2991-1"
     width="40"
     height="40"
     x="3.9999983"
     y="-43.999992"
     ry="0"
     transform="scale(1,-1)" />
  <path
     d="m 29.982205,11.166665 c -2.252368,0 -4.263619,1.077947 -5.514324,2.740452 0.886191,1.220112 1.403646,2.726107 1.403646,4.344617 0,0.86238 -0.161932,1.669631 -0.434461,2.439671 1.60603,1.238634 3.020691,2.83074 4.444878,4.378038 3.652003,-0.153058 6.951389,-3.425666 6.951389,-7.085069 0,-3.757312 -3.062436,-6.817709 -6.851128,-6.817709 z m -11.956055,0.09608 c -3.788693,0 -6.859484,3.045777 -6.859484,6.803087 0,3.757312 3.070791,6.803087 6.859484,6.803087 1.400598,0 2.703406,-0.417528 3.789008,-1.132107 l 7.924751,13.096517 c 1.06115,-0.463763 2.698502,-6.951453 0.718533,-9.528917 -2.004976,-3.173595 -4.020884,-4.817635 -6.034425,-6.79682 0.294567,-0.758567 0.463705,-1.58025 0.463705,-2.44176 0,-3.75731 -3.072881,-6.803087 -6.861572,-6.803087 z m 12.156576,4.048015 c 1.467835,0 2.640191,1.172356 2.640191,2.640191 0,1.467835 -1.172356,2.673611 -2.640191,2.673611 -1.467835,0 -2.673611,-1.205776 -2.673611,-2.673611 0,-1.467835 1.205776,-2.640191 2.673611,-2.640191 z m -12.018718,0.146213 c 1.476995,0 2.669433,1.183785 2.669433,2.648545 0,1.464761 -1.192438,2.646459 -2.669433,2.646459 -1.476993,0 -2.690321,-1.181698 -2.690321,-2.646459 0,-1.46476 1.213328,-2.648545 2.690321,-2.648545 z m 2.844889,9.625 c -5.25548,2.937585 -3.169451,9.668605 -1.871527,11.751356 l 4.365505,-7.421359 -2.493978,-4.329997 z"
     id="path30"
     inkscape:connector-curvature="0"
     style="fill:url(#linearGradient4229);fill-opacity:1" />
  <path
     style="fill:#ffffff;fill-opacity:0.23529412"
     d="m 29.981445,11.16634 c -2.252368,0 -4.263618,1.07838 -5.514323,2.740885 0.04378,0.06028 0.08336,0.123895 0.125326,0.185547 1.257151,-1.575203 3.206603,-2.592773 5.388997,-2.592773 3.728928,0 6.747928,2.966429 6.842448,6.642252 0.0014,-0.05292 0.0098,-0.104789 0.0098,-0.157877 0,-3.757312 -3.063522,-6.818034 -6.852214,-6.818034 z m -11.954753,0.09603 c -3.788692,0 -6.860351,3.046076 -6.860351,6.803386 0,0.05609 0.0068,0.110252 0.0081,0.166015 0.09045,-3.679205 3.120498,-6.635742 6.852213,-6.635742 3.73226,0 6.762553,2.957415 6.852214,6.63737 0.0014,-0.05624 0.0081,-0.111052 0.0081,-0.167643 0,-3.75731 -3.07166,-6.803386 -6.860352,-6.803386 z m 9.500326,6.855469 c -0.0036,0.05614 -0.0179,0.108933 -0.0179,0.166016 -1e-6,1.467835 1.206318,2.674153 2.674153,2.674153 1.467835,0 2.639974,-1.206318 2.639974,-2.674153 0,-0.05704 -0.01279,-0.109917 -0.01628,-0.166016 -0.0866,1.389559 -1.213114,2.506511 -2.623698,2.506511 -1.410545,0 -2.567182,-1.117005 -2.65625,-2.506511 z m -12.036133,0.154622 c -0.0036,0.05606 -0.0179,0.109054 -0.0179,0.166016 0,1.464761 1.213437,2.646485 2.69043,2.646485 1.476995,0 2.669271,-1.181724 2.669271,-2.646485 0,-0.05692 -0.01273,-0.109994 -0.01628,-0.166016 -0.08832,1.384856 -1.233781,2.478842 -2.652995,2.478841 -1.419172,0 -2.582645,-1.09404 -2.672526,-2.478841 z m 10.374349,0.135091 c -0.01847,0.80317 -0.172255,1.560746 -0.42806,2.28353 0.02842,0.02192 0.05471,0.04785 0.08301,0.06999 0.219025,-0.690756 0.351563,-1.411094 0.351563,-2.176106 0,-0.05975 -0.0051,-0.117972 -0.0065,-0.17741 z m -1.355794,2.18099 c -0.02896,0.08378 -0.05267,0.169958 -0.08464,0.252279 2.013541,1.979185 4.028552,3.623279 6.033528,6.796875 0.617131,0.803361 0.883205,1.986395 0.924479,3.248698 -0.0033,-1.385061 -0.253455,-2.708837 -0.924479,-3.582357 -1.976884,-3.12913 -3.963501,-4.772939 -5.948893,-6.715495 z m -3.500977,4.493815 c -2.678114,1.49695 -3.446,3.97811 -3.387044,6.328125 0.02088,-2.248522 0.835427,-4.568222 3.387044,-5.994465 l 2.397461,4.160155 0.09766,-0.164387 -2.495118,-4.329428 z"
     id="path4250"
     inkscape:connector-curvature="0" />
  <path
     style="opacity:0.35;fill:#000000;fill-opacity:1;stroke:none"
     d="M 4.0000014,43.999699 43.999998,44 C 24.000002,43.000001 24.000002,43.000001 4,44 z"
     id="path3800"
     inkscape:connector-curvature="0"
     sodipodi:nodetypes="cccc" />
  <path
     sodipodi:nodetypes="cccc"
     inkscape:connector-curvature="0"
     id="path3804"
     d="m 4.000005,3.999903 39.999993,-2e-4 c -19.999992,1 -19.999992,1 -39.9999945,0 z"
     style="opacity:0.65;fill:#ffffff;fill-opacity:1;stroke:none" />
</svg>
