<?xml version="1.0" encoding="UTF-8" standalone="no"?>
<!-- Created with Inkscape (http://www.inkscape.org/) -->

<svg
   xmlns:dc="http://purl.org/dc/elements/1.1/"
   xmlns:cc="http://creativecommons.org/ns#"
   xmlns:rdf="http://www.w3.org/1999/02/22-rdf-syntax-ns#"
   xmlns:svg="http://www.w3.org/2000/svg"
   xmlns="http://www.w3.org/2000/svg"
   xmlns:xlink="http://www.w3.org/1999/xlink"
   xmlns:sodipodi="http://sodipodi.sourceforge.net/DTD/sodipodi-0.dtd"
   xmlns:inkscape="http://www.inkscape.org/namespaces/inkscape"
   width="48"
   height="48"
   id="svg5453"
   version="1.1"
   inkscape:version="0.48.5 r10040"
   sodipodi:docname="dassault-systems.draftsight.svg">
  <defs
     id="defs5455">
    <linearGradient
       gradientTransform="matrix(0.83333285,0,0,0.83333285,82.381154,38.885526)"
       y2="-669.2204"
       x2="415.42856"
       y1="-669.2204"
       x1="367.42856"
       gradientUnits="userSpaceOnUse"
       id="linearGradient2344"
       xlink:href="#linearGradient1163"
       inkscape:collect="always" />
    <linearGradient
       id="linearGradient1163"
       inkscape:collect="always">
      <stop
         id="stop1165"
         offset="0"
         style="stop-color:#132f45;stop-opacity:1" />
      <stop
         id="stop1167"
         offset="1"
         style="stop-color:#366182;stop-opacity:1" />
    </linearGradient>
  </defs>
  <sodipodi:namedview
     id="base"
     pagecolor="#ffffff"
     bordercolor="#666666"
     borderopacity="1.0"
     inkscape:pageopacity="0"
     inkscape:pageshadow="2"
     inkscape:zoom="2.2195121"
     inkscape:cx="48.143967"
     inkscape:cy="39.23118"
     inkscape:document-units="px"
     inkscape:current-layer="layer1"
     showgrid="true"
     fit-margin-top="0"
     fit-margin-left="0"
     fit-margin-right="0"
     fit-margin-bottom="0"
     inkscape:window-width="1301"
     inkscape:window-height="744"
     inkscape:window-x="65"
     inkscape:window-y="24"
     inkscape:window-maximized="1">
    <inkscape:grid
       type="xygrid"
       id="grid2992" />
  </sodipodi:namedview>
  <metadata
     id="metadata5458">
    <rdf:RDF>
      <cc:Work
         rdf:about="">
        <dc:format>image/svg+xml</dc:format>
        <dc:type
           rdf:resource="http://purl.org/dc/dcmitype/StillImage" />
        <dc:title />
      </cc:Work>
    </rdf:RDF>
  </metadata>
  <g
     inkscape:label="Capa 1"
     inkscape:groupmode="layer"
     id="layer1"
     transform="translate(-384.57143,-499.798)">
    <rect
       style="fill:url(#linearGradient2344);fill-opacity:1;stroke:none"
       id="rect2991-1"
       width="39.999977"
       height="39.999977"
       x="388.57144"
       y="-543.79688"
       ry="0"
       transform="scale(1,-1)" />
    <path
       style="fill:#ffffff;fill-opacity:1"
       d="m 409.26538,510.46449 c -0.65954,-9e-5 -1.35926,0.0489 -2.38946,0.1471 l -1.6553,0.15772 -2.39708,1.58629 c -1.31837,0.87245 -2.58889,1.7145 -2.82337,1.87121 -0.3555,0.23757 -0.68011,0.64689 -1.95357,2.4634 l -1.52724,2.17847 -0.57945,2.52245 -0.57945,2.52244 0.4266,2.43701 0.42659,2.437 1.31266,2.0073 1.31265,2.0073 1.37865,0.95493 c 0.75824,0.5252 2.06535,1.39269 2.90464,1.92774 l 1.52598,0.97284 1.60729,0.2327 -5e-5,1.3e-4 c 0.884,0.12798 1.79529,0.23636 2.02511,0.24045 0.22977,0.005 1.1107,-0.10187 1.95763,-0.23632 l 1.53987,-0.24445 1.86489,-0.81735 1.86486,-0.81735 1.41169,-1.73009 c 0.77643,-0.95156 1.85531,-2.34908 2.3975,-3.10563 l 0.98583,-1.37551 0.74082,-2.35742 c 0.46794,-1.48915 0.73997,-2.49175 0.73874,-2.72215 -8.4e-4,-0.2006 -0.10025,-1.39055 -0.22043,-2.64436 l -0.21838,-2.27963 -1.24556,-2.19079 -1.24556,-2.1908 -2.04443,-1.46095 c -1.92783,-1.37763 -2.10063,-1.48174 -3.02999,-1.82536 -0.85781,-0.31717 -1.16426,-0.38465 -2.3642,-0.5206 -0.86955,-0.0984 -1.48894,-0.14763 -2.14848,-0.14772 z m -0.14332,0.50458 c 0.19952,-0.0757 0.30023,0.0822 0.44442,0.55904 0.0959,0.317 0.18369,0.66228 0.19613,0.76727 l 0,2.3e-4 c 0.0125,0.10499 -0.0157,0.1981 -0.0617,0.20663 -0.15359,0.0293 -1.28113,-0.0808 -1.3296,-0.12979 -0.0995,-0.10061 0.30492,-1.08832 0.513,-1.25276 0.0937,-0.0741 0.17122,-0.12534 0.23772,-0.15062 z m 0.71796,0.0248 c 0.0357,-0.0358 2.73287,1.09442 2.81959,1.18155 0.0845,0.0849 -0.10224,0.12459 -0.9604,0.20461 l 0,2.9e-4 c -0.50164,0.0468 -1.01217,0.10174 -1.13454,0.12197 -0.12234,0.0206 -0.25986,-0.009 -0.30559,-0.064 -0.10619,-0.12966 -0.47224,-1.39103 -0.41906,-1.44447 z m -2.02417,0.14867 c 0.15528,0.0145 -0.005,0.13392 -0.67568,0.50175 l 0,2.8e-4 c -0.48371,0.26549 -0.97021,0.48059 -1.08109,0.47772 -0.25811,-0.006 -0.95517,-0.28796 -0.94895,-0.38396 0.006,-0.0899 2.42318,-0.62217 2.70572,-0.59584 z m 4.06848,0.12109 c 0.24997,0.0161 0.77286,0.14203 0.95668,0.25113 0.11873,0.0704 0.26008,0.1992 0.31412,0.28621 l 0,2.9e-4 c 0.0541,0.087 0.0697,0.15688 0.0349,0.15519 -0.13835,-0.006 -1.44202,-0.60939 -1.44202,-0.66769 -1e-5,-0.0237 0.053,-0.0306 0.1363,-0.0252 z m -3.77575,0.36878 c 0.026,0.0261 -0.003,0.19533 -0.0654,0.37598 l 0,3e-4 c -0.0946,0.27596 -0.15145,0.3301 -0.35543,0.33842 -0.34883,0.0148 -0.70234,-0.0521 -0.70234,-0.13259 5e-5,-0.0923 1.06267,-0.64307 1.12318,-0.58215 z m 5.59098,0.0168 c 0.0687,-0.0691 0.30442,0.0387 0.30442,0.13924 l 0,3.5e-4 c 0,0.0476 -0.0542,0.0866 -0.12047,0.0863 -0.133,-7e-5 -0.25713,-0.15237 -0.18395,-0.2259 z m 0.87157,0.26788 c 0.0477,-0.01 0.0921,-0.008 0.12557,0.0125 0.26724,0.15768 2.32137,1.65113 2.36211,1.7173 l 0,1.6e-4 c 0.0812,0.13197 -0.14638,0.0719 -1.17159,-0.30919 -0.75394,-0.28017 -1.07715,-0.44766 -1.31599,-0.68199 -0.17413,-0.17082 -0.31658,-0.36935 -0.31658,-0.44126 0,-0.12454 0.17332,-0.26728 0.31648,-0.29756 z m -10.188,0.0321 c 0.12371,0.0236 0.29664,0.0827 0.565,0.18634 1.09812,0.42374 1.06817,0.4904 -0.2847,0.63373 l 0,1.6e-4 c -0.96109,0.10187 -1.8557,0.14219 -1.8557,0.0836 0,-0.0351 1.04882,-0.73992 1.30484,-0.87697 0.0721,-0.0387 0.14677,-0.0506 0.27056,-0.027 z m 8.59048,0.65593 c 0.46112,-0.0478 0.77971,0.0324 0.77971,0.19647 l 0,2.4e-4 c 0,0.0446 -0.14101,0.0747 -0.31333,0.0667 -1.01908,-0.046 -1.25869,-0.18131 -0.46638,-0.26345 z m -4.49933,0.22601 c 0.4524,-0.0113 1.31153,0.073 1.40585,0.16656 0.0807,0.0802 0.36392,2.39235 0.36392,2.9721 l 0,1.5e-4 c 0,0.16858 -0.0388,0.18574 -0.39689,0.17517 -0.74009,-0.0216 -2.06768,-0.16617 -2.1344,-0.23233 -0.0647,-0.0642 0.38656,-2.87131 0.48808,-3.03631 0.017,-0.0278 0.12264,-0.0419 0.27344,-0.0454 z m -1.00019,0.0223 c 0.16011,-8.3e-4 0.25199,0.0113 0.26821,0.0372 0.0419,0.0682 -0.36307,2.69139 -0.46011,2.98015 -0.0172,0.0512 -0.45227,0.13483 -0.98336,0.18888 l 0,10e-5 c -0.52387,0.0533 -1.13828,0.0903 -1.36536,0.0813 -0.8084,-0.0296 -1.24949,-0.0799 -1.32056,-0.15054 -0.0402,-0.0399 0.45008,-0.71959 1.10803,-1.53588 l 1.18017,-1.4642 0.89546,-0.091 c 0.28909,-0.0292 0.51742,-0.0445 0.67752,-0.046 z m 2.8717,0.15088 c 0.0236,-0.0236 0.90198,0.0226 1.95208,0.10262 l 1.90929,0.14556 0.35397,0.38177 c 0.28569,0.30812 0.42051,0.57337 0.69906,1.37524 0.18974,0.54641 0.32144,1.01719 0.29274,1.04603 -0.0287,0.0288 -0.64284,0.11797 -1.3646,0.19787 l 0,1.1e-4 c -1.27953,0.14168 -1.68283,0.16421 -1.93898,0.10811 -0.0689,-0.015 -0.45283,-0.0517 -0.85309,-0.0814 -0.57639,-0.0428 -0.73634,-0.0832 -0.76877,-0.19376 -0.0711,-0.24226 -0.32655,-3.03717 -0.2817,-3.08223 z m -5.21935,0.0722 c 0.0739,0.009 0.10187,0.0334 0.10062,0.0749 -0.002,0.0601 -0.48146,0.69197 -1.0653,1.40437 l 0,1.7e-4 c -0.58386,0.71241 -1.09915,1.30419 -1.14511,1.31488 -0.10498,0.0248 -1.71901,-0.69929 -1.85586,-0.83271 -0.0788,-0.0767 0.002,-0.26631 0.36564,-0.85421 0.25677,-0.41555 0.47922,-0.76967 0.49439,-0.78677 0.0151,-0.0172 0.52738,-0.0815 1.13834,-0.14309 0.61094,-0.0615 1.327,-0.13435 1.59124,-0.16182 0.18239,-0.0191 0.30218,-0.0251 0.37604,-0.0159 z m 10.12014,0.47088 c 0.0825,-0.0311 0.33923,0.0623 1.38935,0.44209 0.64337,0.2327 1.27315,0.4603 1.39954,0.50587 0.1264,0.0454 0.22976,0.12159 0.22976,0.16906 0,0.0474 -0.235,0.30652 -0.5222,0.5757 l 0,1.7e-4 c -0.28723,0.26918 -0.56635,0.4911 -0.6203,0.49298 -0.14586,0.005 -1.96692,-2.00072 -1.92355,-2.11918 0.0117,-0.0322 0.0199,-0.0565 0.0474,-0.0668 z m -14.12668,0.46581 c 0.0203,0.0205 -0.0632,0.20893 -0.18551,0.41878 l 0,1.7e-4 c -0.12246,0.20986 -0.27018,0.38155 -0.3284,0.3814 -0.13157,0 -0.44508,-0.22391 -0.38829,-0.27734 0.13514,-0.12742 0.87127,-0.55425 0.9022,-0.52317 z m -1.33571,0.93199 c 0.14249,-0.0602 0.60156,0.17793 0.59907,0.31131 -7.7e-4,0.0566 -0.20166,0.42388 -0.44643,0.81634 -0.40696,0.65249 -0.51945,0.76538 -1.31458,1.31902 l 0,8e-5 c -0.47825,0.33301 -0.90144,0.6069 -0.9404,0.60854 -0.0888,0.003 0.0289,-0.18041 1.1153,-1.74512 0.48252,-0.69521 0.92677,-1.28486 0.98704,-1.31033 z m 18.93279,0.0371 c 0.0266,0.018 0.0491,0.0538 0.079,0.10149 0.3639,0.58088 1.80883,3.179 1.80883,3.25252 l -5e-5,4.4e-4 c 0,0.12697 -0.0113,0.12359 -1.42038,-0.44296 l -1.2951,-0.52014 -0.2249,-0.46171 c -0.34869,-0.71581 -0.32552,-0.80236 0.3886,-1.45219 0.46705,-0.42507 0.58416,-0.5315 0.664,-0.47758 z m -3.04192,0.0125 c 0,-0.0829 0.17405,0.0392 0.45954,0.32249 0.25276,0.25078 0.45957,0.5002 0.45957,0.55426 l 0,1.5e-4 c 0,0.13433 -0.485,0.1963 -0.58536,0.0747 -0.10497,-0.12731 -0.33375,-0.77957 -0.33375,-0.95177 z m -14.79132,0.4065 c 0.11635,0 1.78222,0.74785 1.87665,0.84247 0.141,0.14133 -0.0166,0.18435 -1.0979,0.29933 l 0,8e-5 c -1.1351,0.12072 -1.61204,0.14331 -1.61204,0.0762 0,-0.10622 0.76073,-1.21832 0.83329,-1.21832 z m 15.73439,0.93972 c 0.38563,-0.0248 0.40242,-0.0163 0.52146,0.27013 0.0675,0.16271 0.12296,0.33479 0.12296,0.38247 l 0,9e-5 c 0,0.12981 -0.16133,0.0986 -0.65401,-0.12627 -0.32781,-0.14962 -0.43777,-0.24234 -0.41703,-0.35194 0.0214,-0.11325 0.12391,-0.1552 0.42662,-0.17467 z m -1.0127,0.1181 c 0.0537,-0.005 0.1131,0.0387 0.13229,0.0965 l 0,10e-5 c 0.0417,0.12568 -0.29644,0.14045 -0.48038,0.021 -0.10237,-0.0664 -0.0908,-0.084 0.0627,-0.0952 0.10335,-0.008 0.23176,-0.0176 0.28543,-0.0226 z m -10.58093,0.1101 c 0.94093,-0.0198 1.94973,0.0548 2.08229,0.18265 0.11036,0.10637 -0.18389,3.44646 -0.3145,3.57066 -0.0546,0.0519 -1.17083,0.21458 -2.48053,0.36143 l -5e-5,3.3e-4 c -1.30971,0.14686 -2.52229,0.28864 -2.69457,0.31481 -0.22175,0.0339 -0.31332,0.017 -0.31332,-0.0579 0,-0.11585 1.65938,-4.02902 1.75493,-4.1385 0.0323,-0.0371 0.51948,-0.11847 1.08243,-0.18062 0.26359,-0.0294 0.56969,-0.0465 0.88332,-0.0531 z m 7.87033,0.21297 c 0.3603,0.005 0.77698,0.0353 1.4016,0.0919 0.82717,0.0747 1.53142,0.16223 1.56485,0.19444 0.0336,0.0321 0.0864,0.96757 0.11735,2.07876 l -5e-5,3.4e-4 c 0.0331,1.18362 0.0252,2.03699 -0.019,2.0602 -0.0416,0.0221 -1.22238,-0.0759 -2.62399,-0.21787 l -2.5484,-0.25809 -0.0704,-1.7941 c -0.0574,-1.46257 -0.0497,-1.81344 0.0417,-1.89858 0.0617,-0.0574 0.54457,-0.14874 1.07304,-0.2028 0.39915,-0.0411 0.70306,-0.0599 1.06335,-0.0544 z m -4.90187,0.009 c 0.71744,0.0113 2.11982,0.12334 2.25344,0.20635 0.0586,0.0363 0.0951,0.68046 0.10636,1.85303 l -5e-5,4.3e-4 0.0168,1.79716 -0.25067,0.0113 c -0.36261,0.0166 -2.77694,-0.25332 -2.83993,-0.31761 -0.0634,-0.0647 0.21756,-3.39324 0.29734,-3.52298 0.0146,-0.0238 0.17762,-0.0314 0.41676,-0.0277 z m -5.92021,0.0586 c 0.2551,-0.0161 0.43318,-0.0168 0.45651,0.006 0.0321,0.0322 -0.31876,0.93635 -0.77968,2.00911 l -5e-5,3.3e-4 c -0.47764,1.11168 -0.88844,1.95813 -0.95518,1.96794 -0.17586,0.0267 -1.57937,-0.71725 -1.57945,-0.83721 -10e-5,-0.19649 0.5216,-2.72943 0.58261,-2.82856 0.0518,-0.0836 1.51,-0.26949 2.27524,-0.31764 z m 14.24433,0.37367 c 0.0663,-0.0404 1.13266,0.35264 1.23467,0.45513 0.13886,0.13951 1.37191,3.22308 1.31263,3.28263 -0.0377,0.0379 -0.51553,0.12471 -1.06177,0.19271 l -5e-5,3.4e-4 c -1.20974,0.15077 -1.37168,0.15293 -1.41342,0.0185 -0.0696,-0.22287 -0.13667,-3.91019 -0.0721,-3.94951 z m -17.10302,0.29275 c 0.0423,-0.01 0.0644,-0.003 0.0692,0.0196 0.0221,0.10573 -0.20944,1.41287 -0.37645,2.12582 l -5e-5,4.4e-4 c -0.0243,0.10387 -0.0684,0.18759 -0.0978,0.18554 -0.14593,-0.007 -1.68693,-0.86604 -1.66569,-0.92759 0.0135,-0.0391 0.49456,-0.39529 1.06899,-0.79145 0.56647,-0.39095 0.87481,-0.58091 1.0017,-0.61255 z m 18.98576,0.43668 c 0.0597,-0.0366 0.31431,0.0664 1.39731,0.4972 0.61762,0.24571 1.1364,0.48736 1.15293,0.53704 0.0165,0.0497 -0.27483,0.44368 -0.6474,0.87559 l -5e-5,4.5e-4 c -0.71196,0.82539 -0.78659,0.88947 -0.87275,0.74888 -0.1294,-0.21035 -1.04813,-2.47453 -1.04813,-2.58314 0,-0.0364 -0.002,-0.0641 0.0181,-0.0762 z m -21.34606,1.41657 c 0.10662,-0.0411 1.54229,0.66063 1.78623,0.87305 0.11934,0.10399 0.12284,0.17709 0.0296,0.6265 -0.0581,0.2798 -0.13774,0.53757 -0.17701,0.57264 -0.0392,0.0352 -0.60581,0.46596 -1.25905,0.95735 l -5e-5,3.9e-4 c -0.65322,0.49137 -1.23101,0.89341 -1.2839,0.89303 -0.0592,0 -0.0769,-0.0735 -0.0467,-0.18888 0.0272,-0.10387 0.22892,-0.97752 0.44817,-1.94141 0.22505,-0.98988 0.44394,-1.77015 0.5027,-1.79287 z m 24.17002,0.1191 c 0.0339,0.0376 0.12484,0.76709 0.20175,1.62125 0.0769,0.85418 0.16166,1.73249 0.18813,1.95181 l -5e-5,3.7e-4 c 0.0613,0.50687 0.005,0.50818 -1.05951,0.0245 -0.77122,-0.35023 -0.79533,-0.36963 -0.85162,-0.6858 -0.0318,-0.17897 -0.0602,-0.52125 -0.0627,-0.76064 -0.005,-0.42982 0.005,-0.4464 0.75864,-1.32745 0.41996,-0.49103 0.79141,-0.86187 0.82533,-0.82429 z m -21.89163,1.09019 c 0.0342,-0.0382 0.29707,0.0497 0.58413,0.19532 0.28707,0.1456 0.4891,0.29497 0.44897,0.33205 l -5e-5,3.3e-4 c -0.0954,0.088 -1.0689,0.19238 -1.13879,0.12172 -0.0635,-0.0639 0.0155,-0.54905 0.10574,-0.64967 z m 7.51972,0.19527 c 0.15765,0 0.17306,0.0413 0.1502,0.39876 l -5e-5,3.9e-4 c -0.0241,0.37817 -0.0384,0.39938 -0.27599,0.41077 -0.13786,0.006 -0.87104,-0.0568 -1.6293,-0.14142 -0.75825,-0.0846 -1.4332,-0.1568 -1.4998,-0.1593 -0.0747,-0.003 -0.0908,-0.0341 -0.0418,-0.08 0.0708,-0.0667 2.85703,-0.42945 3.29677,-0.42945 z m 0.63027,0.0288 c 0.13698,-0.0528 2.93523,0.19664 3.0575,0.27254 0.0393,0.0245 0.0715,0.23109 0.0715,0.45922 l -5e-5,3.9e-4 7e-5,0.41396 -0.43867,-0.01 c -0.50731,-0.0125 -2.5607,-0.2252 -2.71552,-0.28188 -0.15876,-0.0584 -0.1372,-0.79195 0.0252,-0.8545 z m 3.57964,0.34088 c 0.10936,-0.0422 2.53791,0.1613 3.26757,0.27377 0.52666,0.0812 0.18605,0.16465 -1.46577,0.35923 l -5e-5,3.8e-4 c -1.60269,0.18881 -1.77967,0.19989 -1.86239,0.11635 -0.10698,-0.10777 -0.0588,-0.70406 0.0606,-0.75 z m 8.162,0.27851 c 0.034,0.0359 0.0744,0.27228 0.0903,0.52508 l -5e-5,3.8e-4 c 0.0223,0.35931 0.002,0.4638 -0.0966,0.47832 -0.17963,0.0273 -1.858,-0.74309 -1.77886,-0.81662 0.0999,-0.093 1.7147,-0.26232 1.78528,-0.18742 z m -17.88225,0.069 c 0.0569,-0.0572 0.97549,0.006 2.81539,0.19309 1.50204,0.15285 2.75935,0.29561 2.79402,0.31709 0.0883,0.0548 -0.0201,2.99319 -0.11422,3.09605 l -5e-5,3.4e-4 c -0.0422,0.0462 -1.45118,0.25656 -3.13099,0.46721 -2.61247,0.32808 -3.0611,0.36578 -3.10123,0.26067 -0.0622,-0.16328 0.62848,-4.22558 0.73708,-4.33469 z m -0.49453,0.0183 c 0.0933,0.0965 -0.65838,4.40373 -0.78213,4.48263 l -5e-5,2.5e-4 c -0.13911,0.0888 -0.37782,0.0895 -0.43195,8.4e-4 -0.0967,-0.15732 -0.49551,-4.21847 -0.42121,-4.29012 0.10414,-0.10028 1.55893,-0.2728 1.63534,-0.19378 z m 15.25289,0.29772 c 0.0588,0.0956 -0.72799,4.01021 -0.83423,4.15057 l -5e-5,3.4e-4 c -0.0437,0.0577 -0.12184,0.1005 -0.17357,0.0947 -0.0518,-0.005 -0.99661,-0.1166 -2.09953,-0.24711 -1.1029,-0.13049 -2.03939,-0.23948 -2.08115,-0.24198 -0.10585,-0.006 0.0112,-3.03735 0.12147,-3.14871 0.11663,-0.11786 5.00768,-0.70453 5.06706,-0.60803 z m 0.49602,5.1e-4 c 0.0875,-0.0337 2.57856,1.01618 2.73253,1.15176 0.0382,0.0336 0.12059,0.7928 0.18304,1.68712 0.0879,1.25739 0.0911,1.64783 0.0141,1.72212 -0.0547,0.0528 -0.55279,0.15669 -1.10684,0.23085 l -6e-5,2.7e-4 c -0.55404,0.0742 -1.13682,0.13293 -1.29501,0.1304 -0.3278,-0.005 -1.41415,-0.53251 -1.41913,-0.68959 -0.01,-0.30201 0.8115,-4.20226 0.89139,-4.23311 z m -17.85716,0.14152 c 0.0502,0 0.0914,0.0559 0.0914,0.12421 0,0.0683 0.0774,0.80724 0.17202,1.64203 l -5e-5,3.8e-4 c 0.0946,0.83479 0.16041,1.6287 0.1462,1.76388 l -0.0258,0.24646 -1.48841,-0.88599 c -0.81864,-0.48729 -1.47663,-0.91864 -1.46221,-0.95847 0.0394,-0.10922 2.46146,-1.93268 2.56681,-1.93268 z m 8.63658,0.11697 c 0.0618,-0.062 3.02861,0.22601 3.15848,0.30665 0.0712,0.0443 0.0777,0.44958 0.0242,1.56002 l -8e-5,3.7e-4 -0.0718,1.49987 -0.376,0.0112 c -0.20679,0.006 -0.92117,-0.0506 -1.58752,-0.12593 l -1.21153,-0.13718 0.007,-1.533 c 0.004,-0.84336 0.0298,-1.55528 0.0566,-1.58225 z m 12.43635,1.19237 c 0.0778,-0.089 1.57319,0.53128 1.63371,0.67766 0.0223,0.0539 -0.2865,0.53564 -0.68623,1.07034 l -5e-5,3.9e-4 c -0.66524,0.88983 -0.76943,1.01367 -0.8002,0.95079 -0.059,-0.11974 -0.19657,-2.64282 -0.14723,-2.69938 z m -23.73691,1.16605 c 0.071,-0.0441 2.70998,1.4941 2.94579,1.71711 0.14096,0.13331 0.0883,0.19169 -1.01391,1.12218 l -5e-5,2.5e-4 c -0.63946,0.53985 -1.20066,0.98155 -1.24708,0.98132 -0.0464,0 -0.14421,-0.33055 -0.21714,-0.73455 -0.39119,-2.16638 -0.52527,-3.05069 -0.46761,-3.08651 z m 25.11007,0.7339 c 0.026,-0.01 0.0377,0.003 0.0377,0.0386 0,0.0372 -0.21321,0.75719 -0.47378,1.59995 l -5e-5,2.5e-4 c -0.49724,1.60825 -0.51165,1.63053 -0.92564,1.42963 -0.23101,-0.11186 -0.2344,-0.26877 -0.0213,-0.98743 0.12172,-0.41046 0.31269,-0.75686 0.70737,-1.28255 0.39342,-0.52418 0.59804,-0.76836 0.67576,-0.79864 z m -13.86992,0.42937 c 0.13388,-0.0516 2.66503,0.18287 2.9859,0.27663 0.13154,0.0386 0.14646,0.13631 0.12534,0.85548 l -5e-5,2.6e-4 -0.0238,0.81121 -0.41777,0.0125 c -0.43233,0.0125 -2.59533,-0.23838 -2.65858,-0.30829 -0.0196,-0.0217 -0.0622,-0.38909 -0.0944,-0.81629 -0.0519,-0.68701 -0.0423,-0.78326 0.0833,-0.8317 z m -0.5088,2.7e-4 c 0.10175,0.0392 0.1287,0.19727 0.1287,0.75555 l -7e-5,2.6e-4 c 0,0.46619 -0.0354,0.73303 -0.10336,0.78552 -0.10075,0.077 -6.21607,-0.58918 -6.31423,-0.68779 -0.0245,-0.0237 -0.0235,-0.0635 0.002,-0.0884 0.0774,-0.0784 6.15185,-0.81753 6.28729,-0.76535 z m 4.04003,0.37676 c 0.0644,-0.0625 4.17229,0.38447 4.24994,0.46249 0.0571,0.0573 -0.12773,0.54123 -0.23123,0.60552 -0.0382,0.0238 -0.88867,0.155 -1.88997,0.29176 l -5e-5,2.7e-4 c -1.93374,0.26412 -2.19323,0.28605 -2.20224,0.18595 -0.0281,-0.30979 0.0287,-1.50261 0.0735,-1.54618 z m 4.80506,0.60947 c 0.078,-0.002 0.17593,0.0433 0.30734,0.13581 l 0.2042,0.14369 -0.2065,0.0578 -3e-5,2.8e-4 c -0.46398,0.12989 -0.62898,0.0669 -0.49299,-0.18866 0.0519,-0.0976 0.10997,-0.14708 0.18798,-0.14915 z m -16.30876,0.11809 c 0.0492,0 0.2725,0.43725 0.49626,0.97164 0.40167,0.95932 0.50513,1.45506 0.59298,2.84171 l -5e-5,2e-4 c 0.013,0.20432 -0.0156,0.38458 -0.0634,0.40038 -0.11684,0.0392 -3.3718,-2.0902 -3.37428,-2.20755 -0.002,-0.10944 2.21817,-2.00659 2.34851,-2.00659 z m 0.64501,0.0355 c 0.0177,-0.004 0.0387,0.005 0.0615,0.0278 l -6e-5,2.8e-4 c 0.0271,0.0273 0.0328,0.11847 0.013,0.20182 -0.0347,0.14744 -0.0391,0.14756 -0.10125,0.003 -0.0491,-0.11354 -0.0262,-0.22407 0.0268,-0.23352 z m 19.46276,0.12858 c 0.0246,0.0247 -0.005,0.25282 -0.0658,0.50703 l -5e-5,2.7e-4 c -0.0774,0.324 -0.15008,0.4609 -0.24317,0.45771 -0.22317,-0.008 -1.45379,-0.67537 -1.37576,-0.74716 0.0895,-0.0825 1.62249,-0.28065 1.68473,-0.2181 z m -18.96822,0.0313 c 0.0676,-0.0677 6.20991,0.62941 6.35832,0.72153 0.13907,0.0861 0.1294,2.05628 -0.01,2.10522 -0.0574,0.0203 -1.21361,0.189 -2.56928,0.37516 l -6e-5,2.4e-4 c -1.35567,0.18617 -2.54812,0.33849 -2.65025,0.33824 -0.21419,-5e-5 -0.23,-0.026 -0.67884,-1.11044 -0.25256,-0.61025 -0.35974,-1.01275 -0.42423,-1.59295 -0.0473,-0.4273 -0.059,-0.80398 -0.0257,-0.83731 z m 16.35398,0.26515 1.1071,0.54346 c 0.84326,0.41394 1.10707,0.58154 1.10707,0.70326 0,0.17119 -0.42267,1.67633 -0.63159,2.24908 -0.19926,0.54623 -0.34509,0.62729 -1.43604,0.79824 l -5e-5,2.1e-4 c -0.54013,0.0846 -1.07608,0.15386 -1.1909,0.15368 -0.20508,-2e-5 -1.82879,-0.86188 -1.93317,-1.02608 -0.0603,-0.0949 1.21604,-3.08656 1.35306,-3.17169 0.0489,-0.0303 0.43441,-0.099 0.8567,-0.15266 l 0.76782,-0.0978 z m -2.4504,0.35092 c 0.24237,-0.0157 0.23622,0.0161 0.23622,0.079 0,0.0511 -0.26831,0.71218 -0.59625,1.46909 l -5e-5,2.4e-4 -0.59621,1.37584 -0.34372,-0.01 c -0.55375,-0.0163 -2.45555,-0.27882 -2.52501,-0.3486 -0.0971,-0.0975 0.11622,-1.92714 0.23743,-2.03762 0.0581,-0.0529 0.89523,-0.19746 1.86028,-0.3213 0.99406,-0.12783 1.48495,-0.1912 1.72731,-0.20696 z m -7.12164,0.15383 0.27413,0.003 c 0.40259,0.005 2.72879,0.29413 2.77962,0.34506 0.0238,0.024 -0.004,0.47478 -0.0616,1.00176 l -5e-5,2.5e-4 -0.10486,0.95776 -0.41763,0.0127 c -0.22967,0.008 -0.86878,-0.0497 -1.42024,-0.12591 l -1.00265,-0.13866 -0.0233,-1.02837 -0.0234,-1.02828 z m 12.30978,0.8826 c 0.15303,0.0228 0.39552,0.14582 0.39552,0.22944 0,0.0427 -0.17473,0.30103 -0.38831,0.57416 l -5e-5,2.5e-4 c -0.21356,0.27311 -0.40156,0.49659 -0.41771,0.49635 -0.10624,0 0.15859,-1.13488 0.29966,-1.28424 0.0188,-0.0202 0.0599,-0.0238 0.11089,-0.0163 z m -22.13701,1.04563 c 0.0163,-0.003 0.0548,0.0163 0.10137,0.0343 0.29635,0.11423 2.62718,1.68973 2.62781,1.77649 5.7e-4,0.0479 -0.17884,0.26512 -0.39871,0.4827 l -5e-5,2.1e-4 c -0.21986,0.21758 -0.44086,0.3956 -0.49105,0.39539 -0.12134,0 -0.14478,-0.0313 -1.00598,-1.34316 -0.73162,-1.11483 -0.88234,-1.33574 -0.83339,-1.34626 z m 10.00777,0.50521 c 0.41803,-0.003 2.47366,0.29386 2.55033,0.36988 0.10099,0.10024 -0.0361,1.67167 -0.16375,1.87692 l -3e-5,2.5e-4 c -0.0359,0.0577 -0.0913,0.10013 -0.12297,0.0939 -0.0317,-0.006 -0.51682,-0.072 -1.07792,-0.14691 -0.5611,-0.0749 -1.05809,-0.17469 -1.10444,-0.22163 -0.0463,-0.0469 -0.10973,-0.50978 -0.14123,-1.02837 -0.0471,-0.77956 -0.0366,-0.94371 0.06,-0.94432 z m -6.66962,0.0278 c 0.0166,-0.0183 0.0473,0.018 0.10499,0.0945 0.0675,0.0896 0.12259,0.25017 0.12259,0.35678 l -5e-5,2.3e-4 c 0,0.1898 -0.0841,0.24926 -0.19486,0.13763 -0.0306,-0.0308 -0.0543,-0.19133 -0.0531,-0.35678 0.001,-0.14172 0.004,-0.21446 0.0204,-0.23273 z m 5.95487,0.0371 c 0.31863,0.0265 0.28604,0.17944 0.28729,0.49086 7.4e-4,0.18946 0.0255,0.57666 0.0551,0.86046 l -5e-5,2.1e-4 0.0537,0.51577 -0.36701,-0.009 c -0.20185,-0.005 -1.29958,-0.13298 -2.43937,-0.2848 -1.63275,-0.21748 -2.10853,-0.30893 -2.24281,-0.43102 -0.18112,-0.16468 -0.35508,-0.4455 -0.30637,-0.49445 0.0161,-0.0161 1.17042,-0.18726 2.56518,-0.38022 1.40596,-0.19494 2.07578,-0.29494 2.39439,-0.26848 z m 3.99815,0.3562 c 0.45073,0 2.24811,0.24364 2.31844,0.3143 0.0366,0.0367 -0.14996,0.3492 -0.41442,0.69442 l -0.48083,0.62767 -0.6655,0.099 -5e-5,2e-4 c -0.36601,0.0544 -0.79285,0.10174 -0.94846,0.10499 l -0.28305,0.006 0.0582,-0.73455 c 0.0844,-1.06597 0.10168,-1.11228 0.41571,-1.11228 z m 2.87012,0.41981 c 0.10387,0 1.27446,0.69057 1.27446,0.75175 0,0.0376 -0.2914,0.1106 -0.64755,0.16215 l -5e-5,2e-4 c -1.4652,0.21208 -1.4726,0.21253 -1.39693,0.0855 0.14104,-0.23699 0.72895,-1.00004 0.77007,-1.00004 z m -12.30535,0.0861 c 0.0669,-0.0113 0.12763,-0.003 0.12763,0.0328 0,0.0193 0.0228,0.0949 0.0507,0.1679 l -5e-5,2.1e-4 c 0.0361,0.0944 8.4e-4,0.13278 -0.12035,0.13255 -0.1913,0 -0.30128,-0.12421 -0.22274,-0.25185 0.0248,-0.0406 0.0979,-0.0709 0.16485,-0.082 z m -0.0138,0.66937 c 0.60505,0 0.71105,0.0774 1.69203,1.23554 0.5258,0.62075 0.95599,1.15468 0.95599,1.18664 0,0.032 -0.1156,0.19883 -0.25675,0.37096 l -5e-5,2.1e-4 c -0.19889,0.24242 -0.31655,0.31265 -0.52215,0.3115 -0.52373,-0.002 -0.64989,-0.14272 -1.32033,-1.46786 -0.79617,-1.57409 -0.81737,-1.63738 -0.5487,-1.63738 z m -0.69784,0.0396 c 0.0866,0.0538 1.0899,2.11476 1.0899,2.23897 l -5e-5,2.5e-4 c 0,0.12605 -0.10699,0.07 -1.00173,-0.52518 -1.26065,-0.83812 -1.21777,-0.75224 -0.64975,-1.30178 0.26353,-0.25528 0.51631,-0.44081 0.56166,-0.4126 z m 16.9363,0.0712 c 0.026,0.026 -0.0348,0.16283 -0.1348,0.30401 l -5e-5,2e-4 c -0.10012,0.14117 -0.24516,0.25604 -0.32241,0.25506 -0.16544,-8.4e-4 -0.68363,-0.31989 -0.68363,-0.41989 5e-5,-0.08 1.07022,-0.21073 1.14093,-0.1397 z m -14.83045,0.0994 c 0.0526,-0.0528 4.27516,0.50045 4.39705,0.5761 0.12824,0.0795 0.13957,1.06043 0.0125,1.06043 -0.0491,0 -0.58481,0.0752 -1.19064,0.16686 l -5e-5,2.5e-4 c -0.60585,0.0918 -1.20445,0.18517 -1.33036,0.2073 -0.20206,0.0359 -0.30315,-0.0447 -0.86706,-0.69152 -0.77445,-0.88866 -1.07024,-1.27081 -1.0214,-1.31975 z m 12.84116,0.10948 0.52368,0.28086 c 0.28802,0.15447 0.53755,0.3253 0.55446,0.37961 0.017,0.0547 -0.81614,0.60762 -1.86555,1.23822 l -4e-5,2.2e-4 c -1.04298,0.62672 -1.91938,1.13873 -1.94752,1.13743 -0.10312,-0.003 -1.39028,-0.83861 -1.4626,-0.94859 -0.0522,-0.0795 0.085,-0.33008 0.45954,-0.83875 0.62086,-0.84321 0.5194,-0.79868 2.4285,-1.06578 l 1.30958,-0.18357 z m -7.57346,0.52897 c 0.15029,0.0132 0.35247,0.0403 0.62441,0.0757 1.31184,0.17058 1.2178,0.12743 1.1517,0.52867 -0.0318,0.19346 -0.0925,0.41788 -0.13477,0.49865 l -5e-5,2.5e-4 c -0.0422,0.0808 -0.10361,0.14245 -0.13651,0.13681 -0.0328,-0.005 -0.43025,-0.0607 -0.8831,-0.12297 -0.45288,-0.0622 -0.87589,-0.15669 -0.93999,-0.21025 -0.0705,-0.0589 -0.1166,-0.25876 -0.1166,-0.50669 9e-5,-0.35636 -0.0159,-0.44045 0.43495,-0.40057 z m 3.66466,0.0896 c 0.16629,0.0255 0.15819,0.0522 -0.13598,0.44684 -0.17204,0.23087 -0.40808,0.52363 -0.5245,0.65061 l -5e-5,1.7e-4 c -0.11648,0.12698 -0.23286,0.22519 -0.25868,0.21813 -0.0258,-0.008 -0.15983,-0.0292 -0.29769,-0.0494 -0.41372,-0.0607 -0.45701,-0.14197 -0.33108,-0.62154 0.0614,-0.23383 0.12504,-0.43863 0.1413,-0.45498 0.0578,-0.0584 1.23246,-0.2169 1.40671,-0.19019 z m 4.65618,0.86297 c 0.0742,0.0745 -0.75407,1.14848 -0.9406,1.21976 l -5e-5,2.1e-4 c -0.29841,0.11398 -1.43828,0.20396 -1.33962,0.10549 0.1487,-0.14842 2.2414,-1.3649 2.2803,-1.32582 z m -8.40059,0.40881 c 0.10337,0.0251 0.45611,0.0714 0.78381,0.10287 0.80173,0.0772 0.83081,0.10075 0.73538,0.59764 -0.0687,0.35712 -0.12622,0.43778 -0.4842,0.67816 l -5e-5,2.2e-4 c -0.43105,0.28941 -0.4923,0.30434 -0.77629,0.18907 -0.13831,-0.0561 -0.21093,-0.20939 -0.31332,-0.66186 -0.1871,-0.82695 -0.17888,-0.96314 0.0547,-0.90647 z m -0.89345,0.0263 c 0.14784,-0.003 0.21907,0.015 0.25542,0.0547 0.0913,0.0996 0.28292,0.94556 0.28292,1.24886 l -5e-5,2.1e-4 c 0,0.16603 -0.17015,0.18618 -0.63307,0.0747 -0.33209,-0.0797 -1.8735,-0.91612 -1.8735,-1.01648 0,-0.0938 0.13813,-0.12498 1.25331,-0.28387 0.34276,-0.0493 0.56717,-0.075 0.71501,-0.0786 z m 3.09648,0.28215 c 0.24031,0 0.25981,0.12929 0.0376,0.24889 l -5e-5,2.4e-4 c -0.24273,0.13051 -0.32894,0.10562 -0.28032,-0.0812 0.0283,-0.10905 0.11395,-0.16835 0.24282,-0.16835 z m 0.86388,0.15062 0.58672,0.36376 c 0.3227,0.20007 0.58673,0.38975 0.58673,0.42172 0,0.0682 -0.18128,0.10786 -1.27329,0.27935 l -5e-5,1.9e-4 c -1.01872,0.15995 -1.23333,0.16131 -1.23328,0.008 0,-0.16447 0.13859,-0.29068 0.78089,-0.71112 l 0.55232,-0.36187 z m -6.60501,0.10211 c 0.13625,8e-4 1.01057,0.47366 1.01057,0.54657 l -3e-5,2.1e-4 c 0,0.10012 -1.25954,-0.0208 -1.37245,-0.13183 -0.0986,-0.0974 0.17976,-0.41672 0.36194,-0.41548 z m 9.49132,0.9164 -0.376,0.20219 -5e-5,2.1e-4 c -0.68154,0.3665 -0.89825,0.37292 -0.64063,0.0188 0.077,-0.10574 0.25087,-0.16346 0.56398,-0.18706 l 0.45273,-0.0346 z m -1.67695,0.27132 c 0.1106,0.0233 0.0877,0.087 -0.12322,0.34353 l -5e-5,2.1e-4 c -0.27629,0.33579 -0.25027,0.33042 -1.24942,0.25817 -0.75881,-0.0547 -1.12466,-0.12521 -0.9993,-0.19263 0.1725,-0.0933 2.20804,-0.44451 2.37202,-0.40981 z m -7.73401,0.086 c 0.18224,-0.007 0.63842,0.078 1.4605,0.25215 0.22276,0.0472 0.3731,0.1151 0.33422,0.15102 l -5e-5,2.2e-4 c -0.0389,0.0359 -0.33393,0.0878 -0.65555,0.11497 -0.55948,0.0478 -0.601,0.0384 -0.95589,-0.21555 -0.27368,-0.19643 -0.3654,-0.29615 -0.18319,-0.30339 z m 2.96573,0.66876 c 0.35125,-0.0248 0.63822,0.0745 0.63822,0.2562 l -5e-5,2.1e-4 c 0,0.10274 -0.39481,0.0737 -1.0026,-0.0743 l -0.20889,-0.0508 0.20889,-0.0636 c 0.12317,-0.0379 0.24739,-0.06 0.36447,-0.0683 z m 1.19854,0.0191 c 0.0151,0.007 0.0246,0.0231 0.0246,0.0474 l -5e-5,2.2e-4 c 0,0.0489 -0.0376,0.0889 -0.0835,0.0888 -0.0461,0 -0.0836,-0.0168 -0.0836,-0.0371 0,-0.0203 0.0376,-0.0604 0.0836,-0.0889 0.023,-0.0148 0.0439,-0.0177 0.059,-0.011 z m 0.80364,0.0712 c 0.12856,-0.0202 0.27704,-0.0142 0.37683,0.0286 0.11535,0.0496 0.10337,0.0707 -0.0697,0.12384 l -5e-5,2.1e-4 c -0.33843,0.10374 -0.60261,0.0924 -0.56449,-0.0245 0.0202,-0.0623 0.12884,-0.10862 0.25741,-0.12882 z"
       id="path2919-5"
       inkscape:connector-curvature="0" />
    <path
       style="opacity:0.5;fill:#000000;fill-opacity:1;stroke:none"
       d="m 388.57143,543.798 0,0 c 20,-1 20,-1 40,0 z"
       id="path3257"
       inkscape:connector-curvature="0"
       sodipodi:nodetypes="cccc" />
    <path
       sodipodi:nodetypes="cccc"
       inkscape:connector-curvature="0"
       id="path4027"
       d="m 388.57143,503.798 0,0 c 20,1 20,1 40,0 z"
       style="opacity:0.75;fill:#ffffff;fill-opacity:1;stroke:none" />
  </g>
</svg>
