<?xml version="1.0" encoding="UTF-8" standalone="no"?>
<!-- Created with Inkscape (http://www.inkscape.org/) -->

<svg
   xmlns:dc="http://purl.org/dc/elements/1.1/"
   xmlns:cc="http://creativecommons.org/ns#"
   xmlns:rdf="http://www.w3.org/1999/02/22-rdf-syntax-ns#"
   xmlns:svg="http://www.w3.org/2000/svg"
   xmlns="http://www.w3.org/2000/svg"
   xmlns:xlink="http://www.w3.org/1999/xlink"
   xmlns:sodipodi="http://sodipodi.sourceforge.net/DTD/sodipodi-0.dtd"
   xmlns:inkscape="http://www.inkscape.org/namespaces/inkscape"
   width="48"
   height="48"
   id="svg2"
   version="1.1"
   inkscape:version="0.48.5 r10040"
   sodipodi:docname="dota.svg">
  <defs
     id="defs4">
    <linearGradient
       id="linearGradient4175"
       inkscape:collect="always">
      <stop
         id="stop4177"
         offset="0"
         style="stop-color:#c83b20;stop-opacity:1" />
      <stop
         id="stop4179"
         offset="1"
         style="stop-color:#e16048;stop-opacity:1" />
    </linearGradient>
    <linearGradient
       inkscape:collect="always"
       id="linearGradient829">
      <stop
         style="stop-color:#1f272a;stop-opacity:1"
         offset="0"
         id="stop831" />
      <stop
         style="stop-color:#344344;stop-opacity:1"
         offset="1"
         id="stop833" />
    </linearGradient>
    <linearGradient
       inkscape:collect="always"
       xlink:href="#linearGradient829"
       id="linearGradient835"
       x1="-31.112698"
       y1="-1050.9148"
       x2="-31.112698"
       y2="-1002.9058"
       gradientUnits="userSpaceOnUse"
       gradientTransform="translate(55.996581,-1.455814)" />
    <linearGradient
       gradientTransform="matrix(1.0058652,0,0,0.994169,119.23086,972.70405)"
       gradientUnits="userSpaceOnUse"
       id="ButtonShadow"
       y2="7.0165396"
       x2="45.447727"
       y1="92.539597"
       x1="45.447727">
      <stop
         offset="0"
         style="stop-color:#000000;stop-opacity:1"
         id="stop3750" />
      <stop
         offset="1"
         style="stop-color:#000000;stop-opacity:0.58823532"
         id="stop3752" />
    </linearGradient>
    <filter
       id="filter3174"
       color-interpolation-filters="sRGB">
      <feGaussianBlur
         stdDeviation="1.71"
         id="feGaussianBlur3176" />
    </filter>
    <linearGradient
       inkscape:collect="always"
       xlink:href="#linearGradient4175"
       id="linearGradient4131"
       x1="9"
       y1="1027.3622"
       x2="39"
       y2="1027.3622"
       gradientUnits="userSpaceOnUse"
       gradientTransform="matrix(1.2987015,0,0,1.2987015,-7.168835,-307.23302)" />
  </defs>
  <sodipodi:namedview
     id="base"
     pagecolor="#ffffff"
     bordercolor="#666666"
     borderopacity="1.0"
     inkscape:pageopacity="0.0"
     inkscape:pageshadow="2"
     inkscape:zoom="11.00435"
     inkscape:cx="35.503563"
     inkscape:cy="19.166156"
     inkscape:document-units="px"
     inkscape:current-layer="layer1"
     showgrid="true"
     inkscape:window-width="1301"
     inkscape:window-height="744"
     inkscape:window-x="65"
     inkscape:window-y="24"
     inkscape:window-maximized="1">
    <inkscape:grid
       type="xygrid"
       id="grid3850" />
  </sodipodi:namedview>
  <metadata
     id="metadata7">
    <rdf:RDF>
      <cc:Work
         rdf:about="">
        <dc:format>image/svg+xml</dc:format>
        <dc:type
           rdf:resource="http://purl.org/dc/dcmitype/StillImage" />
        <dc:title />
      </cc:Work>
    </rdf:RDF>
  </metadata>
  <g
     inkscape:label="Capa 1"
     inkscape:groupmode="layer"
     id="layer1"
     transform="translate(0,-1004.3622)">
    <path
       inkscape:connector-curvature="0"
       style="fill:#000000;fill-opacity:0.23529412"
       d="m 27.152165,1008.8218 -6.864205,0.1142 -1.396113,1.0497 0.11635,0.1143 -4.537362,0.1143 0.34903,-0.4671 -10.3544757,-0.2333 -0.1163442,0.7004 -0.1163572,1.0496 0.6980534,1.2828 -0.3490259,2.6833 -0.5817131,2.3334 0.3490275,2.2162 0.1163442,1.75 0.6980551,2.3328 -0.2326858,1.1664 0.1163572,1.2831 0.8143959,0.9338 0.2326832,1.5165 -1.5124501,0.5831 0.2326855,4.6662 0.9307417,0.6995 -0.5817152,4.0833 -0.4653698,0.2327 -0.3490259,7.8165 0.410835,-0.055 0.988911,0.2041 c 0,0 1.1929347,0.4137 1.4397347,0.496 0.2468001,0.081 0.6144338,-0.3718 0.6144338,-0.3718 l 0.9889105,0 0.8216703,-0.1653 0.4544629,0.2084 0.410831,-0.042 1.028904,-0.078 0.490819,-0.2084 0.207238,0.4964 0.163599,-0.1196 0.454461,-0.2075 0.945283,-0.078 0.203604,0.2877 c 0,0 1.152017,0.1196 1.563347,0.1196 0.411332,0 0.330848,-0.3321 0.330848,-0.3321 0,0 0.121533,-0.037 0.327214,0.1679 0.205664,0.2063 0.494454,-0.081 0.494454,-0.081 l 0.410838,-0.2083 0.290852,0.292 0.287218,0.2042 0.78168,-0.163 1.272495,0 0.290859,-0.081 1.192509,1.6912 0.07999,-0.8642 1.934192,0 c 0.164531,0 0.08362,0.5765 0.08362,0.5765 l 1.272493,-0.4115 0.658062,0.6593 1.359754,-0.868 0.738047,-0.1196 1.439743,-0.078 2.057805,0 2.345026,0.1631 0.618068,-0.2477 0.450828,-0.4118 1.236138,0.6996 0.901653,-0.3715 c 0,0 0.987984,0.3743 1.152519,0.416 0.164536,0.04 1.686963,-0.1684 1.686963,-0.1684 l 0.945283,-0.2476 -0.61443,-0.4519 0.410833,-0.1629 1.726953,0.078 2.301401,0.579 -0.03999,-15.0553 0,-0.9479 -0.574437,0.081 -0.741689,0.1196 0,-0.4555 0.410839,-0.3725 0.33085,-0.4917 0.07999,-1.7749 -0.123623,-1.2798 -0.534451,-1.5672 -0.490818,-0.66 -0.08362,-0.6158 0.123623,-0.4126 0.03999,-0.1196 0.534447,-0.2076 0.08362,-0.2075 -0.410836,-0.7005 0.370844,-0.2114 0.58171,-0.3502 0.232685,-2.0992 0.116351,-1.3999 0,-4.8999 -0.349027,-1.3997 0.232686,-1.5158 0.116352,-0.5833 -1.047087,-0.4671 -3.955642,-0.6994 -0.58171,0.8163 -0.232686,-0.9332 -7.562261,-0.1143 -0.232684,1.2833 -1.86148,0.2336 -0.232685,-0.8171 -1.628791,-0.2328 0.581712,-0.7003 z m -14.782765,6.5876 27.067799,18.395 -2.141429,7.6695 -5.10089,0.1683 -23.6102469,-25.2418 3.7847669,-0.991 z m 21.472456,0.3316 2.963093,1.5637 -0.825303,5.774 -0.574442,0.1685 -7.896744,-6.0227 6.333396,-1.4835 z m -22.210502,16.579 8.060348,8.0825 -4.85366,1.7316 -2.548628,-0.1636 -3.1267041,-2.6392 2.4686441,-7.0104 z"
       id="path4181" />
    <rect
       style="opacity:0.9;fill:url(#ButtonShadow);fill-opacity:1;fill-rule:nonzero;stroke:none;display:none;filter:url(#filter3174)"
       id="rect3745"
       y="979.70404"
       x="124.23086"
       ry="6"
       rx="6"
       height="85"
       width="86" />
    <path
       id="path3012"
       d="m 27.152165,1008.3024 -6.864205,0.1142 -1.396113,1.0496 0.11635,0.1143 -4.537362,0.1143 0.34903,-0.4672 -10.3544757,-0.2331 -0.1163442,0.7003 -0.1163572,1.0496 0.6980534,1.2828 -0.3490259,2.6833 -0.5817131,2.3334 0.3490275,2.2163 0.1163442,1.7499 0.6980551,2.3329 -0.2326858,1.1663 0.1163572,1.2832 0.8143959,0.9337 0.2326832,1.5166 -1.5124501,0.5831 0.2326855,4.666 0.9307417,0.6996 -0.5817152,4.0833 -0.4653698,0.2328 -0.3490259,7.8164 0.410835,-0.055 0.988911,0.2042 c 0,0 1.1929347,0.4137 1.4397347,0.496 0.2468001,0.081 0.6144338,-0.3718 0.6144338,-0.3718 l 0.9889105,0 0.8216703,-0.1652 0.4544629,0.2083 0.410831,-0.041 1.028904,-0.078 0.490819,-0.2085 0.207238,0.4963 0.163599,-0.1194 0.454461,-0.2076 0.945283,-0.078 0.203604,0.2878 c 0,0 1.152017,0.1194 1.563347,0.1194 0.411332,0 0.330848,-0.332 0.330848,-0.332 0,0 0.121533,-0.037 0.327214,0.1679 0.205664,0.2063 0.494454,-0.08 0.494454,-0.08 l 0.410838,-0.2083 0.290852,0.2919 0.287218,0.2042 0.78168,-0.163 1.272495,0 0.290859,-0.081 1.192509,1.6913 0.07999,-0.8643 1.934192,0 c 0.164531,0 0.08362,0.5765 0.08362,0.5765 l 1.272493,-0.4116 0.658062,0.6593 1.359754,-0.868 0.738047,-0.1194 1.439743,-0.078 2.057805,0 2.345026,0.163 0.618068,-0.2477 0.450828,-0.4117 1.236138,0.6996 0.901653,-0.3715 c 0,0 0.987984,0.3742 1.152519,0.4159 0.164536,0.041 1.686963,-0.1683 1.686963,-0.1683 l 0.945283,-0.2476 -0.61443,-0.4521 0.410833,-0.1628 1.726953,0.078 2.301401,0.579 -0.03999,-15.0552 0,-0.9481 -0.574437,0.081 -0.741689,0.1195 0,-0.4555 0.410839,-0.3725 0.33085,-0.4917 0.07999,-1.7749 -0.123623,-1.2797 -0.534451,-1.5673 -0.490818,-0.66 -0.08362,-0.6157 0.123623,-0.4127 0.03999,-0.1195 0.534447,-0.2077 0.08362,-0.2076 -0.410836,-0.7005 0.370844,-0.2112 0.58171,-0.3503 0.232685,-2.0992 0.116351,-1.3999 0,-4.8998 -0.349027,-1.3998 0.232686,-1.5157 0.116352,-0.5834 -1.047087,-0.4672 -3.955642,-0.6993 -0.58171,0.8162 -0.232686,-0.9331 -7.562261,-0.1142 -0.232684,1.2832 -1.86148,0.2337 -0.232685,-0.8172 -1.628791,-0.2327 0.581712,-0.7004 z m -14.782765,6.5874 27.067799,18.3951 -2.141429,7.6695 -5.10089,0.1683 -23.6102469,-25.2418 3.7847669,-0.9911 z m 21.472456,0.3316 2.963093,1.5638 -0.825303,5.774 -0.574442,0.1684 -7.896744,-6.0226 6.333396,-1.4836 z m -22.210502,16.5791 8.060348,8.0825 -4.85366,1.7315 -2.548628,-0.1634 -3.1267041,-2.6393 2.4686441,-7.0104 z"
       style="fill:url(#linearGradient4131);fill-opacity:1"
       inkscape:connector-curvature="0" />
    <path
       style="fill:#222b2e;fill-opacity:0.31372549"
       d="m 43.731638,1009.8645 -0.17502,1.1388 0.09893,0.3958 0.134435,-0.8726 0.116681,-0.5834 -0.17502,-0.079 z m -39.4023994,0.017 -0.096388,0.8624 0.5884741,1.0831 0.1090705,-0.8395 -0.6011567,-1.106 z m 8.0407894,3.9697 -3.7844987,0.9893 0.7812507,0.8345 3.003248,-0.7864 26.823764,18.23 0.243508,-0.8725 -27.067272,-18.3949 z m 21.471694,0.3297 -6.333706,1.4838 1.042511,0.7966 5.291195,-1.2404 2.82569,1.489 0.136973,-0.964 -2.962663,-1.565 z m -29.7407707,2.4605 -0.1014611,0.4008 0.3500406,2.2168 0.1166803,1.7502 0.5732548,1.9176 0.1242899,-0.624 -0.6975447,-2.3335 -0.1166803,-1.7502 -0.2485795,-1.5777 z m 39.8057067,0.6595 -0.116681,1.4002 -0.233359,2.1001 -0.580865,0.3501 -0.372869,0.2106 0.410917,0.7026 -0.0558,0.1369 0.01775,-0.01 0.580865,-0.3501 0.233359,-2.1002 0.116681,-1.4002 0,-1.0399 z m -1.280945,5.0882 -0.228288,0.089 -0.04059,0.1193 -0.124291,0.4134 0.0837,0.6164 0.03043,0.041 0.01014,-0.03 0.04059,-0.1191 0.532671,-0.208 0.0837,-0.208 -0.410916,-0.7001 0.02282,-0.013 z m -37.629368,1.7959 -0.06595,0.3246 0.1166803,1.281 0.8142248,0.936 0.083705,0.5352 0.1496558,-0.059 -0.233361,-1.5168 -0.8142248,-0.9335 -0.05073,-0.5681 z m 38.43852,3.6627 -0.0482,1.0603 -0.332285,0.4921 -0.410916,0.3728 0,0.4541 0.621448,-0.099 0.121753,-0.1802 0.07863,-1.7755 -0.03043,-0.3247 z m -38.8012432,0.9563 -0.05073,0.02 0.230824,4.6673 0.7964692,0.5986 0.134436,-0.9385 -0.9309052,-0.7001 -0.1800934,-3.6475 z m 6.9982752,1.9582 -2.4680391,7.011 0.2815546,0.2384 2.1864845,-6.212 7.29505,7.3179 0.763495,-0.2739 -8.058545,-8.0814 z m -6.8714488,14.4683 -0.3652599,0.049 -0.045657,1.045 0.4109174,-0.056 0.9892451,0.2055 c 0,0 1.1914111,0.4123 1.4382111,0.4946 0.2467988,0.081 0.613839,-0.3703 0.613839,-0.3703 l 0.9892443,0 0.8218352,-0.1649 0.4540371,0.208 0.410919,-0.043 1.029828,-0.076 0.492088,-0.2106 0.205458,0.4971 0.164875,-0.1191 0.454037,-0.208 0.946124,-0.076 0.202923,0.2866 c 0,0 1.15117,0.1191 1.5625,0.1191 0.411333,0 0.332285,-0.3322 0.332285,-0.3322 0,0 0.121529,-0.039 0.327211,0.1675 0.205664,0.2061 0.494624,-0.079 0.494624,-0.079 l 0.410917,-0.2105 0.289163,0.2942 0.286627,0.203 0.783788,-0.1624 1.2708,0 0.2917,-0.081 1.192167,1.6918 0.08117,-0.8648 1.932832,0 c 0.164531,0 0.0837,0.5757 0.0837,0.5757 l 1.273337,-0.4109 0.65696,0.6594 1.359578,-0.8674 0.738129,-0.1192 1.440748,-0.079 2.057121,0 2.346288,0.1623 0.616375,-0.246 0.451502,-0.4135 1.235288,0.7001 0.903004,-0.3703 c 0,0 0.987047,0.3742 1.151582,0.4159 0.164537,0.041 1.68679,-0.1699 1.68679,-0.1699 l 0.946125,-0.246 -0.613839,-0.4516 0.410917,-0.1648 1.724838,0.079 2.303166,0.5783 -0.0025,-1.0374 -2.30063,-0.5809 -1.724838,-0.076 -0.410917,0.1624 0.613839,0.4515 -0.946125,0.2486 c 0,0 -1.522253,0.2076 -1.686789,0.1674 -0.164536,-0.042 -1.151583,-0.416 -1.151583,-0.416 l -0.903004,0.3729 -1.235288,-0.7001 -0.451502,0.4109 -0.616375,0.2486 -2.346288,-0.1649 -2.057121,0 -1.440748,0.079 -0.738129,0.1192 -1.359578,0.8675 -0.65696,-0.6595 -1.273337,0.4134 c 0,0 0.08083,-0.5782 -0.0837,-0.5782 l -1.932832,0 -0.08117,0.8649 -1.192167,-1.6918 -0.2917,0.081 -1.2708,0 -0.783787,0.1623 -0.286628,-0.2028 -0.289163,-0.2917 -0.410917,0.208 c 0,0 -0.28896,0.2873 -0.494623,0.081 -0.205683,-0.2056 -0.327212,-0.1674 -0.327212,-0.1674 0,0 0.07905,0.3297 -0.332285,0.3297 -0.41133,0 -1.5625,-0.1192 -1.5625,-0.1192 l -0.202923,-0.2866 -0.946124,0.079 -0.454037,0.2054 -0.164875,0.1217 -0.205458,-0.4972 -0.492087,0.208 -1.029829,0.079 -0.410919,0.04 -0.4540371,-0.208 -0.8218351,0.1649 -0.9892443,0 c 0,0 -0.3670402,0.4535 -0.613839,0.3729 -0.2468,-0.082 -1.4382111,-0.4972 -1.4382111,-0.4972 l -0.9892451,-0.2029 z"
       id="path4189"
       inkscape:connector-curvature="0" />
  </g>
</svg>
