<?xml version="1.0" encoding="UTF-8" standalone="no"?>
<!-- Created with Inkscape (http://www.inkscape.org/) -->

<svg
   xmlns:dc="http://purl.org/dc/elements/1.1/"
   xmlns:cc="http://creativecommons.org/ns#"
   xmlns:rdf="http://www.w3.org/1999/02/22-rdf-syntax-ns#"
   xmlns:svg="http://www.w3.org/2000/svg"
   xmlns="http://www.w3.org/2000/svg"
   xmlns:xlink="http://www.w3.org/1999/xlink"
   xmlns:sodipodi="http://sodipodi.sourceforge.net/DTD/sodipodi-0.dtd"
   xmlns:inkscape="http://www.inkscape.org/namespaces/inkscape"
   width="48"
   height="48"
   id="svg5453"
   version="1.1"
   inkscape:version="0.48.5 r10040"
   sodipodi:docname="fadein.svg">
  <defs
     id="defs5455">
    <linearGradient
       inkscape:collect="always"
       id="linearGradient4171">
      <stop
         style="stop-color:#dcdcdc;stop-opacity:1"
         offset="0"
         id="stop4173" />
      <stop
         style="stop-color:#fafafa;stop-opacity:1"
         offset="1"
         id="stop4175" />
    </linearGradient>
    <linearGradient
       gradientTransform="matrix(0.83333443,0,0,0.83333443,388.57138,333.17159)"
       gradientUnits="userSpaceOnUse"
       y2="-1004.6837"
       x2="26.25"
       y1="-1052.5408"
       x1="26.25"
       id="linearGradient867-9"
       xlink:href="#linearGradient1373-3"
       inkscape:collect="always" />
    <linearGradient
       id="linearGradient1373-3"
       inkscape:collect="always">
      <stop
         id="stop1375-8"
         offset="0"
         style="stop-color:#282827;stop-opacity:1" />
      <stop
         id="stop1377-0"
         offset="1"
         style="stop-color:#292929;stop-opacity:1" />
    </linearGradient>
    <linearGradient
       inkscape:collect="always"
       xlink:href="#linearGradient4171"
       id="linearGradient4218"
       gradientUnits="userSpaceOnUse"
       x1="407.66125"
       y1="539.80457"
       x2="407.66125"
       y2="510.59058"
       gradientTransform="matrix(0.88019783,0,0,0.88019783,53.154547,61.502344)" />
    <linearGradient
       id="linearGradient4116"
       inkscape:collect="always">
      <stop
         id="stop4118"
         offset="0"
         style="stop-color:#ca0000;stop-opacity:1" />
      <stop
         id="stop4120"
         offset="1"
         style="stop-color:#fd3232;stop-opacity:1" />
    </linearGradient>
    <linearGradient
       inkscape:collect="always"
       xlink:href="#linearGradient4116"
       id="linearGradient4327"
       x1="410.7431"
       y1="524.81091"
       x2="410.7431"
       y2="522.7771"
       gradientUnits="userSpaceOnUse" />
  </defs>
  <sodipodi:namedview
     id="base"
     pagecolor="#ffffff"
     bordercolor="#666666"
     borderopacity="1.0"
     inkscape:pageopacity="0"
     inkscape:pageshadow="2"
     inkscape:zoom="6.1060716"
     inkscape:cx="43.419961"
     inkscape:cy="19.011859"
     inkscape:document-units="px"
     inkscape:current-layer="layer1"
     showgrid="true"
     fit-margin-top="0"
     fit-margin-left="0"
     fit-margin-right="0"
     fit-margin-bottom="0"
     inkscape:window-width="1301"
     inkscape:window-height="744"
     inkscape:window-x="65"
     inkscape:window-y="24"
     inkscape:window-maximized="1"
     inkscape:showpageshadow="false"
     borderlayer="true">
    <inkscape:grid
       type="xygrid"
       id="grid3007" />
  </sodipodi:namedview>
  <metadata
     id="metadata5458">
    <rdf:RDF>
      <cc:Work
         rdf:about="">
        <dc:format>image/svg+xml</dc:format>
        <dc:type
           rdf:resource="http://purl.org/dc/dcmitype/StillImage" />
        <dc:title />
      </cc:Work>
    </rdf:RDF>
  </metadata>
  <g
     inkscape:label="Capa 1"
     inkscape:groupmode="layer"
     id="layer1"
     transform="translate(-384.57143,-499.798)">
    <rect
       transform="scale(1,-1)"
       ry="0"
       y="-543.79797"
       x="388.57141"
       height="40.000053"
       width="40.000053"
       id="rect2991-1-1"
       style="fill:url(#linearGradient867-9);fill-opacity:1;stroke:none" />
    <path
       style="font-size:40px;font-style:normal;font-variant:normal;font-weight:normal;font-stretch:normal;line-height:125%;letter-spacing:0px;word-spacing:0px;fill:#000000;fill-opacity:0.05882353;stroke:none;font-family:DejaVu Serif;-inkscape-font-specification:DejaVu Serif"
       d="m 398.06686,511.9653 0,1.83919 3.26661,0 0,8.32684 3.48958,0 0,-8.05177 12.13706,0 0,3.59213 2.11589,0 0,-5.70639 -21.00914,0 z m 15.52411,7.49512 0,2.67091 2.11426,0 0,-2.67091 -2.11426,0 z m -12.2575,6.00424 0,10.34507 -3.26661,0 0,1.82129 10.8659,0 0,-1.82129 -4.10971,0 0,-10.34507 -3.48958,0 z m 12.2575,0 0,2.52279 2.11426,0 0,-2.52279 -2.11426,0 z"
       id="path4190"
       inkscape:connector-curvature="0" />
    <path
       style="font-size:40px;font-style:normal;font-variant:normal;font-weight:normal;font-stretch:normal;line-height:125%;letter-spacing:0px;word-spacing:0px;fill:url(#linearGradient4218);fill-opacity:1;stroke:none;font-family:DejaVu Serif;-inkscape-font-specification:DejaVu Serif"
       d="m 398.06686,510.96432 0,1.8392 3.26661,0 0,9.32781 14.37176,0 0,-3.67188 -2.11426,0 0,3.21615 -8.76792,0 0,-8.59702 12.13706,0 0,3.59376 2.11589,0 0,-5.70802 -21.00914,0 z m 3.26661,14.50034 0,9.34409 -3.26661,0 0,1.82292 10.8659,0 0,-1.82292 -4.10971,0 0,-9.34409 -3.48958,0 z m 12.2575,0 0,1.52182 2.11426,0 0,-1.52182 -2.11426,0 z"
       id="path4161"
       inkscape:connector-curvature="0" />
    <path
       style="font-size:40px;font-style:normal;font-variant:normal;font-weight:normal;font-stretch:normal;line-height:125%;letter-spacing:0px;word-spacing:0px;fill:#ffffff;fill-opacity:0.23529412;stroke:none;font-family:DejaVu Serif;-inkscape-font-specification:DejaVu Serif"
       d="m 398.06686,510.96432 0,0.33366 21.00914,0 0,-0.33366 -21.00914,0 z m 15.52411,7.49513 0,0.33366 2.11426,0 0,-0.33366 -2.11426,0 z m -8.76792,3.21615 0,0.33203 8.76792,0 0,-0.33203 -8.76792,0 z m -6.75619,13.13315 0,0.33366 3.26661,0 0,-0.33366 -3.26661,0 z m 6.75619,0 0,0.33366 4.10971,0 0,-0.33366 -4.10971,0 z"
       id="path4205"
       inkscape:connector-curvature="0" />
    <rect
       style="fill:#f1f1f1;fill-opacity:1;stroke:none"
       id="rect4214"
       width="35.000046"
       height="1.6666689"
       x="391.07141"
       y="522.96466"
       ry="0" />
    <path
       style="opacity:0.5;fill:#000000;fill-opacity:1;stroke:none"
       d="m 388.57143,543.798 0,0 c 20,-1 20,-1 40,0 z"
       id="path3257"
       inkscape:connector-curvature="0"
       sodipodi:nodetypes="cccc" />
    <path
       sodipodi:nodetypes="cccc"
       inkscape:connector-curvature="0"
       id="path4027"
       d="m 388.57143,503.798 0,0 c 20,1 20,1 40,0 z"
       style="opacity:0.75;fill:#ffffff;fill-opacity:1;stroke:none" />
  </g>
</svg>
