<?xml version="1.0" encoding="UTF-8" standalone="no"?>
<!-- Created with Inkscape (http://www.inkscape.org/) -->

<svg
   xmlns:dc="http://purl.org/dc/elements/1.1/"
   xmlns:cc="http://creativecommons.org/ns#"
   xmlns:rdf="http://www.w3.org/1999/02/22-rdf-syntax-ns#"
   xmlns:svg="http://www.w3.org/2000/svg"
   xmlns="http://www.w3.org/2000/svg"
   xmlns:xlink="http://www.w3.org/1999/xlink"
   xmlns:sodipodi="http://sodipodi.sourceforge.net/DTD/sodipodi-0.dtd"
   xmlns:inkscape="http://www.inkscape.org/namespaces/inkscape"
   width="48"
   height="48"
   id="svg2"
   version="1.1"
   inkscape:version="0.48.5 r10040"
   sodipodi:docname="firefox.svg"
   inkscape:export-filename="/home/uri/Iconos/NITRUX/apps/512/firefox.png"
   inkscape:export-xdpi="960"
   inkscape:export-ydpi="960">
  <defs
     id="defs4">
    <linearGradient
       inkscape:collect="always"
       id="linearGradient14189">
      <stop
         style="stop-color:#c85813;stop-opacity:1"
         offset="0"
         id="stop14191" />
      <stop
         style="stop-color:#f4b81c;stop-opacity:1"
         offset="1"
         id="stop14193" />
    </linearGradient>
    <linearGradient
       id="linearGradient11867"
       inkscape:collect="always">
      <stop
         id="stop11869"
         offset="0"
         style="stop-color:#ad250f;stop-opacity:1" />
      <stop
         id="stop11871"
         offset="1"
         style="stop-color:#f4b81c;stop-opacity:1" />
    </linearGradient>
    <linearGradient
       inkscape:collect="always"
       id="linearGradient9785">
      <stop
         style="stop-color:#000000;stop-opacity:1;"
         offset="0"
         id="stop9787" />
      <stop
         style="stop-color:#000000;stop-opacity:0;"
         offset="1"
         id="stop9789" />
    </linearGradient>
    <linearGradient
       inkscape:collect="always"
       id="linearGradient9740">
      <stop
         style="stop-color:#ad250f;stop-opacity:1;"
         offset="0"
         id="stop9742" />
      <stop
         style="stop-color:#ad250f;stop-opacity:0;"
         offset="1"
         id="stop9744" />
    </linearGradient>
    <linearGradient
       inkscape:collect="always"
       id="linearGradient9692">
      <stop
         style="stop-color:#af280e;stop-opacity:1"
         offset="0"
         id="stop9694" />
      <stop
         style="stop-color:#f4b81c;stop-opacity:1"
         offset="1"
         id="stop9696" />
    </linearGradient>
    <linearGradient
       inkscape:collect="always"
       id="linearGradient9655">
      <stop
         style="stop-color:#df8e18;stop-opacity:1"
         offset="0"
         id="stop9657" />
      <stop
         style="stop-color:#f5b91d;stop-opacity:1"
         offset="1"
         id="stop9659" />
    </linearGradient>
    <linearGradient
       inkscape:collect="always"
       id="linearGradient9642">
      <stop
         style="stop-color:#ffffff;stop-opacity:1;"
         offset="0"
         id="stop9644" />
      <stop
         style="stop-color:#ffffff;stop-opacity:0;"
         offset="1"
         id="stop9646" />
    </linearGradient>
    <linearGradient
       inkscape:collect="always"
       id="linearGradient9601">
      <stop
         style="stop-color:#bc4d10;stop-opacity:1"
         offset="0"
         id="stop9603" />
      <stop
         style="stop-color:#d7910d;stop-opacity:1"
         offset="1"
         id="stop9605" />
    </linearGradient>
    <linearGradient
       id="linearGradient9589"
       inkscape:collect="always">
      <stop
         id="stop9591"
         offset="0"
         style="stop-color:#c95210;stop-opacity:1" />
      <stop
         id="stop9593"
         offset="1"
         style="stop-color:#fac11f;stop-opacity:1" />
    </linearGradient>
    <linearGradient
       inkscape:collect="always"
       id="linearGradient9573">
      <stop
         style="stop-color:#000000;stop-opacity:1;"
         offset="0"
         id="stop9575" />
      <stop
         style="stop-color:#333333;stop-opacity:1"
         offset="1"
         id="stop9577" />
    </linearGradient>
    <linearGradient
       inkscape:collect="always"
       id="linearGradient9536">
      <stop
         style="stop-color:#ffffff;stop-opacity:1;"
         offset="0"
         id="stop9538" />
      <stop
         style="stop-color:#ffffff;stop-opacity:0;"
         offset="1"
         id="stop9540" />
    </linearGradient>
    <linearGradient
       inkscape:collect="always"
       id="linearGradient9524">
      <stop
         style="stop-color:#b83112;stop-opacity:1"
         offset="0"
         id="stop9526" />
      <stop
         style="stop-color:#e59b1e;stop-opacity:1"
         offset="1"
         id="stop9528" />
    </linearGradient>
    <linearGradient
       id="linearGradient9506"
       inkscape:collect="always">
      <stop
         id="stop9508"
         offset="0"
         style="stop-color:#b22c0e;stop-opacity:1" />
      <stop
         id="stop9512"
         offset="1"
         style="stop-color:#ebad34;stop-opacity:1" />
    </linearGradient>
    <linearGradient
       inkscape:collect="always"
       id="linearGradient859">
      <stop
         style="stop-color:#020919;stop-opacity:1"
         offset="0"
         id="stop861" />
      <stop
         style="stop-color:#1f6abb;stop-opacity:1"
         offset="1"
         id="stop863" />
    </linearGradient>
    <style
       id="style874"
       type="text/css">
    .fil0 {fill:#1F1A17}
   </style>
    <linearGradient
       inkscape:collect="always"
       xlink:href="#linearGradient859"
       id="linearGradient865"
       x1="-19.312702"
       y1="-1064.4777"
       x2="-19.312702"
       y2="-1016.2559"
       gradientUnits="userSpaceOnUse"
       gradientTransform="matrix(0.81241019,0,0,0.81257064,41.871601,-183.66892)" />
    <linearGradient
       inkscape:collect="always"
       xlink:href="#linearGradient9506"
       id="linearGradient9502"
       x1="21.125"
       y1="16.75"
       x2="-0.125"
       y2="47.875"
       gradientUnits="userSpaceOnUse"
       gradientTransform="matrix(0.81241019,0,0,0.81257064,5.0086254,1009.3609)" />
    <linearGradient
       inkscape:collect="always"
       xlink:href="#linearGradient9524"
       id="linearGradient9530"
       x1="0.96787088"
       y1="19.3125"
       x2="7.125"
       y2="19.3125"
       gradientUnits="userSpaceOnUse"
       gradientTransform="matrix(0.81241019,0,0,0.81257064,5.0086254,1009.3609)" />
    <linearGradient
       inkscape:collect="always"
       xlink:href="#linearGradient9536"
       id="linearGradient9542"
       x1="18.90625"
       y1="16.0625"
       x2="15.71218"
       y2="21.594791"
       gradientUnits="userSpaceOnUse"
       gradientTransform="matrix(0.81241019,0,0,0.81257064,5.0086254,1009.3609)" />
    <linearGradient
       inkscape:collect="always"
       xlink:href="#linearGradient9573"
       id="linearGradient9579"
       x1="22.625"
       y1="24.015625"
       x2="22.625"
       y2="26.328125"
       gradientUnits="userSpaceOnUse"
       gradientTransform="matrix(0.81241019,0,0,0.81257064,4.9895846,1009.3641)" />
    <linearGradient
       inkscape:collect="always"
       xlink:href="#linearGradient9589"
       id="linearGradient9587"
       x1="16.017658"
       y1="25.828125"
       x2="22.84375"
       y2="25.828125"
       gradientUnits="userSpaceOnUse"
       gradientTransform="matrix(0.81241019,0,0,0.81257064,4.9906735,1009.3609)" />
    <linearGradient
       inkscape:collect="always"
       xlink:href="#linearGradient9601"
       id="linearGradient9607"
       x1="16.46875"
       y1="27.953125"
       x2="22.84375"
       y2="27.953125"
       gradientUnits="userSpaceOnUse"
       gradientTransform="matrix(0.81241019,0,0,0.81257064,4.9816975,1009.3609)" />
    <linearGradient
       inkscape:collect="always"
       xlink:href="#linearGradient9642"
       id="linearGradient9648"
       x1="20.85965"
       y1="27.14035"
       x2="16.652224"
       y2="28.267727"
       gradientUnits="userSpaceOnUse"
       gradientTransform="matrix(0.81241019,0,0,0.81257064,5.0086254,1009.3609)" />
    <linearGradient
       inkscape:collect="always"
       xlink:href="#linearGradient9655"
       id="linearGradient9661"
       x1="14.1875"
       y1="38.192175"
       x2="28.21875"
       y2="38.192175"
       gradientUnits="userSpaceOnUse"
       gradientTransform="matrix(0.81241019,0,0,0.81257064,5.0086254,1009.3609)" />
    <linearGradient
       inkscape:collect="always"
       xlink:href="#linearGradient9692"
       id="linearGradient9698"
       x1="14.183602"
       y1="40.125"
       x2="28.75"
       y2="40.125"
       gradientUnits="userSpaceOnUse"
       gradientTransform="matrix(0.81241019,0,0,0.81257064,5.0086254,1009.3609)" />
    <linearGradient
       inkscape:collect="always"
       xlink:href="#linearGradient9740"
       id="linearGradient9738"
       x1="14.009553"
       y1="39.956661"
       x2="27.267805"
       y2="39.956661"
       gradientUnits="userSpaceOnUse"
       gradientTransform="matrix(0.81241019,0,0,0.81257064,5.0086254,1009.3609)" />
    <linearGradient
       inkscape:collect="always"
       xlink:href="#linearGradient9740"
       id="linearGradient9768"
       x1="16.435604"
       y1="26.511896"
       x2="20.964252"
       y2="26.511896"
       gradientUnits="userSpaceOnUse"
       gradientTransform="matrix(0.81241019,0,0,0.81257064,5.0086254,1009.3609)" />
    <linearGradient
       inkscape:collect="always"
       xlink:href="#linearGradient9785"
       id="linearGradient9791"
       x1="4.7066793"
       y1="23.405943"
       x2="4.7066793"
       y2="15.627768"
       gradientUnits="userSpaceOnUse"
       gradientTransform="matrix(0.81241019,0,0,0.81257064,5.0086254,1009.3609)" />
    <linearGradient
       inkscape:collect="always"
       xlink:href="#linearGradient14189"
       id="linearGradient9851"
       x1="47.75"
       y1="13"
       x2="32"
       y2="46.375"
       gradientUnits="userSpaceOnUse" />
    <linearGradient
       id="XMLID_116_"
       gradientUnits="userSpaceOnUse"
       x1="-172.72121"
       y1="332.082"
       x2="-161.4561"
       y2="309.89331"
       gradientTransform="matrix(0.24342297,-0.05696976,0.05696976,0.24342297,66.49598,-52.271782)">
      <stop
         offset="0"
         style="stop-color:#F79A09"
         id="stop546" />
      <stop
         offset="0.736"
         style="stop-color:#FEFD00"
         id="stop548" />
      <stop
         offset="0.7783"
         style="stop-color:#FEFE26"
         id="stop550" />
      <stop
         offset="0.8369"
         style="stop-color:#FFFE54"
         id="stop552" />
      <stop
         offset="0.889"
         style="stop-color:#FFFF76"
         id="stop554" />
      <stop
         offset="0.932"
         style="stop-color:#FFFF8B"
         id="stop556" />
      <stop
         offset="0.9607"
         style="stop-color:#FFFF92"
         id="stop558" />
    </linearGradient>
    <linearGradient
       inkscape:collect="always"
       xlink:href="#linearGradient9785"
       id="linearGradient13805"
       gradientUnits="userSpaceOnUse"
       x1="3.6491497"
       y1="15.429803"
       x2="2.9503095"
       y2="21.485493"
       gradientTransform="matrix(-0.5275292,0.54191717,-0.54181016,-0.52763339,30.085598,1042.6557)" />
    <linearGradient
       inkscape:collect="always"
       xlink:href="#linearGradient11867"
       id="linearGradient13973"
       x1="13.625"
       y1="-6"
       x2="9.6084728"
       y2="8.9898825"
       gradientUnits="userSpaceOnUse"
       gradientTransform="matrix(0.70692213,0.4004182,-0.40033913,0.70706175,6.7684615,1005.3217)" />
    <linearGradient
       inkscape:collect="always"
       xlink:href="#linearGradient9740"
       id="linearGradient14021"
       gradientUnits="userSpaceOnUse"
       gradientTransform="matrix(0.02328006,0.0071085,0.00710709,-0.02328466,16.416624,1017.6232)"
       x1="-162.09065"
       y1="335.24799"
       x2="-158.69731"
       y2="236.93127" />
    <linearGradient
       inkscape:collect="always"
       xlink:href="#linearGradient11867"
       id="linearGradient14089"
       x1="48.08326"
       y1="-0.083261035"
       x2="38.006989"
       y2="7.120389"
       gradientUnits="userSpaceOnUse"
       gradientTransform="matrix(0.81241019,0,0,0.81257064,5.0086254,1009.3609)" />
    <linearGradient
       inkscape:collect="always"
       xlink:href="#linearGradient9692"
       id="linearGradient14097"
       x1="48.125"
       y1="1.2812501"
       x2="42.127586"
       y2="4.7438598"
       gradientUnits="userSpaceOnUse"
       gradientTransform="matrix(0.81241019,0,0,0.81257064,5.0086254,1009.3609)" />
    <linearGradient
       inkscape:collect="always"
       xlink:href="#linearGradient11867"
       id="linearGradient14207"
       gradientUnits="userSpaceOnUse"
       gradientTransform="matrix(0.70692213,0.4004182,-0.40033913,0.70706175,5.9875539,1005.3217)"
       x1="13.625"
       y1="-6"
       x2="9.6084728"
       y2="8.9898825" />
    <linearGradient
       inkscape:collect="always"
       xlink:href="#linearGradient14189"
       id="linearGradient3251"
       gradientUnits="userSpaceOnUse"
       x1="47.75"
       y1="13"
       x2="32"
       y2="46.375" />
  </defs>
  <sodipodi:namedview
     id="base"
     pagecolor="#ffffff"
     bordercolor="#666666"
     borderopacity="1.0"
     inkscape:pageopacity="0.0"
     inkscape:pageshadow="2"
     inkscape:zoom="5.6568543"
     inkscape:cx="60.7903"
     inkscape:cy="25.407105"
     inkscape:document-units="px"
     inkscape:current-layer="layer1"
     showgrid="true"
     inkscape:window-width="1301"
     inkscape:window-height="744"
     inkscape:window-x="65"
     inkscape:window-y="24"
     inkscape:window-maximized="1"
     showguides="false"
     inkscape:snap-nodes="true">
    <inkscape:grid
       type="xygrid"
       id="grid3249" />
  </sodipodi:namedview>
  <metadata
     id="metadata7">
    <rdf:RDF>
      <cc:Work
         rdf:about="">
        <dc:format>image/svg+xml</dc:format>
        <dc:type
           rdf:resource="http://purl.org/dc/dcmitype/StillImage" />
        <dc:title></dc:title>
      </cc:Work>
    </rdf:RDF>
  </metadata>
  <g
     inkscape:label="Capa 1"
     inkscape:groupmode="layer"
     id="layer1"
     transform="translate(0,-1004.3622)">
    <rect
       style="fill:url(#linearGradient865);fill-opacity:1;stroke:none"
       id="rect2991-1"
       width="38.995689"
       height="39.003391"
       x="5.008625"
       y="-1048.3643"
       ry="0"
       transform="scale(1,-1)" />
    <g
       id="g14179"
       transform="matrix(0.81241019,0,0,0.81257064,5.0086254,1009.3609)">
      <path
         inkscape:connector-curvature="0"
         id="path14172"
         d="m 40.625,0.8046875 c -1.364979,0.7168755 -3.017293,1.7994021 -4,2.6875 -0.174728,0.2518995 -0.345705,0.4652519 -0.53125,0.75 0.701166,-0.8283778 2.421674,-1.9891429 3.9375,-2.84375 0.199987,-0.2318699 0.39129,-0.44109684 0.59375,-0.59375 z m 7.375,2.4375 c -0.923684,0.5494821 -2.378327,1.1302323 -4.59375,1.625 -0.670048,0.6222438 -1.277711,1.3051913 -1.75,2.0625 -0.08637,0.239036 -0.112697,0.3227284 -0.21875,0.625 0.496623,-0.9111933 1.189104,-1.7134777 1.96875,-2.4375 2.215423,-0.4947677 3.670066,-1.0755179 4.59375,-1.625 l 0,-0.25 z m -5.46875,1.21875 c -1.479866,1.6928842 -2.661049,3.4512098 -2.8125,5.46875 0.208818,-1.7735985 1.256039,-3.3308213 2.53125,-4.84375 0.0095,-0.022959 0.02142,-0.039138 0.03125,-0.0625 0.08669,-0.2059651 0.182775,-0.4293408 0.25,-0.5625 z M 40,5.9296875 c -1.839152,1.9924065 -3.124969,3.6366809 -6.53125,3.8125 -0.305908,0.1176218 -0.607083,0.2228495 -0.9375,0.2812495 4.080884,0.104704 5.42448,-1.6273503 7.375,-3.7499995 C 39.93609,6.1638192 39.96923,6.0285335 40,5.9296875 z m -0.4375,3.25 c 0.0022,0.4949586 0.04325,1.0214905 0.125,1.5937495 -0.0023,-0.08391 -0.0013,-0.166987 0,-0.25 -0.06798,-0.475881 -0.113509,-0.9211208 -0.125,-1.3437495 z"
         style="fill:#000000;fill-opacity:0.11571948;stroke:none" />
      <path
         style="fill:#000000;fill-opacity:0.05882353;stroke:none"
         d="m 40.625,1.0507812 c -1.364979,0.7168755 -3.017293,1.7994022 -4,2.6875001 -0.174728,0.2518995 -0.345705,0.4652518 -0.53125,0.7499999 0.701166,-0.8283778 2.421674,-1.9891428 3.9375,-2.84375 0.199987,-0.2318698 0.39129,-0.4410968 0.59375,-0.59375 z M 48,3.4882813 c -0.923684,0.549482 -2.378327,1.1302322 -4.59375,1.6249999 -0.670048,0.6222438 -1.277711,1.3051913 -1.75,2.0625 -0.08637,0.239036 -0.112697,0.3227284 -0.21875,0.625 0.496623,-0.9111933 1.189104,-1.7134777 1.96875,-2.4375 C 45.621673,4.8685135 47.076316,4.2877633 48,3.7382813 l 0,-0.25 z m -5.46875,1.2187499 c -1.479866,1.6928842 -2.661049,3.4512099 -2.8125,5.4687498 0.208818,-1.7735982 1.256039,-3.3308211 2.53125,-4.8437498 0.0095,-0.022959 0.02142,-0.039138 0.03125,-0.0625 0.08669,-0.2059651 0.182775,-0.4293408 0.25,-0.5625 z M 40,6.1757812 c -1.839152,1.9924066 -3.124969,3.636681 -6.53125,3.8125001 -0.305908,0.1176217 -0.607083,0.2228487 -0.9375,0.2812487 4.080884,0.104704 5.42448,-1.6273495 7.375,-3.7499987 C 39.936086,6.4099129 39.969234,6.2746272 40,6.1757812 z m -0.4375,3.2500001 c 0.0022,0.4949586 0.04325,1.0214897 0.125,1.5937487 -0.0023,-0.08391 -0.0013,-0.166987 0,-0.25 -0.06798,-0.475881 -0.113509,-0.92112 -0.125,-1.3437487 z"
         id="path14177"
         inkscape:connector-curvature="0" />
    </g>
    <path
       style="fill:#000000;fill-opacity:0.23529412;stroke:none"
       d="m 14.605221,1009.3609 c -1.841991,1.6768 -3.670687,4.0175 -3.858949,6.8053 0.03277,0.106 0.05077,0.2032 0.05077,0.2032 0.196725,-2.9131 2.212496,-5.3209 4.138215,-7.0085 l -0.330042,0 z"
       id="path14205"
       inkscape:connector-curvature="0" />
    <path
       style="fill:#000000;fill-opacity:0.23529412;stroke:none"
       d="m 15.042928,1009.3609 c -0.05157,0.6273 -0.202344,1.3033 -0.507756,2.0061 -0.0889,0.3756 -0.222112,0.7565 -0.406205,1.1173 0.692182,-1.1071 0.955997,-2.1747 0.990125,-3.1234 l -0.07617,0 z"
       id="path13992"
       inkscape:connector-curvature="0" />
    <path
       style="fill:#000000;fill-opacity:0.23555998;stroke:none"
       d="m 20.952175,1023.0985 c -0.149081,0.01 -0.266257,0.016 -0.406205,0.025 -1.335203,1.0628 -2.121551,2.379 -2.411842,3.9104 -0.0085,0.085 -0.0029,0.1508 0,0.2286 0.327342,-1.6611 1.245396,-3.0623 2.818047,-4.1644 z m 2.995763,6.6275 c -0.02661,0.4531 -0.16709,0.7833 -0.406205,1.0665 -0.09306,0.1103 -0.21144,0.2075 -0.330041,0.3047 -0.826826,0.669 -2.219243,1.1364 -3.554295,2.5393 0.02701,0.067 0.05169,0.1352 0.07617,0.2031 1.311332,-1.341 2.667196,-1.807 3.478132,-2.4631 0.118601,-0.097 0.236965,-0.1944 0.330041,-0.3047 0.284549,-0.337 0.429147,-0.7495 0.406205,-1.3458 z m -7.235528,6.1705 c -2.742613,0.035 -4.89299,1.7625 -4.976014,4.0374 0.346728,-3.0217 4.428175,-4.9278 8.428758,-2.9202 2.29e-4,-0.093 0.0017,-0.1867 0,-0.2793 -1.176642,-0.5905 -2.357681,-0.8522 -3.452744,-0.8379 z m -1.091676,4.5198 c 0.05237,1.1003 0.617163,1.8411 1.472493,2.2854 0.776362,1.319 1.801979,2.3806 2.79266,3.1742 2.081885,-0.121 3.839692,-0.4073 5.432993,-1.4982 0.54946,-0.3583 1.043973,-0.6516 1.599433,-1.0158 0.653762,-0.3758 1.091676,-0.3301 1.091676,-0.3301 0.396442,-0.2235 0.478495,-0.4942 0.431594,-0.7872 -0.04321,0.1862 -0.1673,0.3589 -0.431594,0.5079 0,0 -0.437914,-0.045 -1.091676,0.3301 -0.55546,0.3642 -1.049973,0.6575 -1.599433,1.0157 -1.593301,1.091 -3.351108,1.3773 -5.432993,1.4982 -0.990681,-0.7935 -2.016298,-1.8551 -2.79266,-3.1741 -0.783621,-0.4071 -1.343787,-1.0533 -1.472493,-2.0061 z"
       id="path13811"
       inkscape:connector-curvature="0" />
    <path
       style="fill:#000000;fill-opacity:0.11724824;stroke:none"
       d="m 20.952175,1023.3778 c -0.149081,0.01 -0.266257,0.016 -0.406205,0.025 -1.335203,1.0628 -2.121551,2.379 -2.411842,3.9104 -0.0085,0.085 -0.0029,0.1508 0,0.2286 0.327342,-1.6611 1.245396,-3.0623 2.818047,-4.1644 z m 2.995763,6.6275 c -0.02661,0.4531 -0.16709,0.7833 -0.406205,1.0665 -0.09306,0.1103 -0.21144,0.2075 -0.330041,0.3047 -0.826826,0.6691 -2.219243,1.1364 -3.554295,2.5394 0.02701,0.067 0.05169,0.1351 0.07617,0.203 1.311332,-1.3409 2.667196,-1.8068 3.478132,-2.4631 0.118601,-0.097 0.236965,-0.1944 0.330041,-0.3047 0.284549,-0.337 0.429147,-0.7495 0.406205,-1.3458 z m -7.235528,6.1705 c -2.742613,0.035 -4.89299,1.7625 -4.976014,4.0375 0.346728,-3.0218 4.428175,-4.9279 8.428758,-2.9202 2.29e-4,-0.093 0.0017,-0.1868 0,-0.2794 -1.176642,-0.5904 -2.357681,-0.8522 -3.452744,-0.8379 z m -1.091676,4.5198 c 0.05237,1.1003 0.617163,1.8411 1.472493,2.2855 0.776362,1.3189 1.801979,2.3806 2.79266,3.1741 2.081885,-0.121 3.839692,-0.4073 5.432993,-1.4982 0.54946,-0.3583 1.043973,-0.6516 1.599433,-1.0158 0.653762,-0.3757 1.091676,-0.33 1.091676,-0.33 0.396442,-0.2236 0.478495,-0.4942 0.431594,-0.7872 -0.04321,0.1862 -0.1673,0.3588 -0.431594,0.5078 0,0 -0.437914,-0.045 -1.091676,0.3301 -0.55546,0.3642 -1.049973,0.6575 -1.599433,1.0158 -1.593301,1.0909 -3.351108,1.3772 -5.432993,1.4982 -0.990681,-0.7936 -2.016298,-1.8552 -2.79266,-3.1742 -0.783621,-0.4071 -1.343787,-1.0533 -1.472493,-2.0061 z"
       id="path13831"
       inkscape:connector-curvature="0" />
    <path
       style="fill:#000000;fill-opacity:0.05882353;stroke:none"
       d="m 20.952175,1023.6571 c -0.149081,0.01 -0.266257,0.016 -0.406205,0.025 -1.335203,1.0628 -2.121551,2.379 -2.411842,3.9105 -0.0085,0.085 -0.0029,0.1508 0,0.2285 0.327342,-1.6611 1.245396,-3.0623 2.818047,-4.1644 z m 2.995763,6.6275 c -0.02661,0.4531 -0.16709,0.7833 -0.406205,1.0665 -0.09306,0.1103 -0.21144,0.2076 -0.330041,0.3047 -0.826826,0.6691 -2.219243,1.1365 -3.554295,2.5394 0.02701,0.067 0.05169,0.1352 0.07617,0.203 1.311332,-1.3409 2.667196,-1.8068 3.478132,-2.4631 0.118601,-0.097 0.236965,-0.1944 0.330041,-0.3047 0.284549,-0.337 0.429147,-0.7494 0.406205,-1.3458 z m -7.235528,6.1705 c -2.742613,0.036 -4.89299,1.7625 -4.976014,4.0375 0.346728,-3.0218 4.428175,-4.9278 8.428758,-2.9202 2.29e-4,-0.093 0.0017,-0.1868 0,-0.2793 -1.176642,-0.5905 -2.357681,-0.8523 -3.452744,-0.838 z m -1.091676,4.52 c 0.05237,1.1001 0.617163,1.8409 1.472493,2.2853 0.776362,1.3189 1.801979,2.3806 2.79266,3.1741 2.081885,-0.121 3.839692,-0.4073 5.432993,-1.4982 0.54946,-0.3583 1.043973,-0.6516 1.599433,-1.0157 0.653762,-0.3758 1.091676,-0.3301 1.091676,-0.3301 0.396442,-0.2236 0.478495,-0.4942 0.431594,-0.7872 -0.04321,0.1862 -0.1673,0.3589 -0.431594,0.5079 0,0 -0.437914,-0.045 -1.091676,0.33 -0.55546,0.3642 -1.049973,0.6575 -1.599433,1.0158 -1.593301,1.0909 -3.351108,1.3772 -5.432993,1.4982 -0.990681,-0.7935 -2.016298,-1.8552 -2.79266,-3.1741 -0.783621,-0.4072 -1.343787,-1.0533 -1.472493,-2.006 z"
       id="path13833"
       inkscape:connector-curvature="0" />
    <path
       style="fill:url(#linearGradient9587);fill-opacity:1;stroke:none"
       d="m 18.141564,1027.0343 c -0.2747,1.4443 -0.134925,3.0795 0.380816,4.8755 0.523861,0.5335 0.86839,1.1272 1.117065,1.7521 1.544119,-1.6377 3.165119,-1.9874 3.909725,-2.8694 -0.45632,-0.2616 -0.761635,-0.7566 -0.761635,-1.3205 0,-0.2171 0.01936,-0.4226 0.101551,-0.6094 -0.830918,-0.043 -1.875865,0.061 -2.56417,0.025 -0.754838,-0.039 -2.32847,-0.4128 -2.183352,-1.8537 z"
       id="path8679"
       inkscape:connector-curvature="0"
       sodipodi:nodetypes="ccccscsc" />
    <path
       style="fill:url(#linearGradient9530);fill-opacity:1;stroke:none"
       d="m 7.9790002,1021.194 c -2.2431351,2.5147 -2.3454962,5.1102 -2.0818011,7.7194 1.2731372,-1.486 2.9856271,-2.5325 4.8998489,-3.3772 -1.9224238,-1.4084 -2.4172616,-2.805 -2.8180478,-4.3422 z"
       id="path8669"
       inkscape:connector-curvature="0"
       sodipodi:nodetypes="cccc" />
    <path
       style="fill:url(#linearGradient9502);fill-opacity:1;stroke:none"
       d="m 20.952175,1022.8192 c -3.436139,0.1273 -4.386223,1.3679 -5.610707,2.4631 -1.611937,-0.1787 -3.180804,-0.168 -4.722135,0.2031 -2.2636989,1.1563 -4.3799775,2.4098 -5.6107076,4.3167 l 0,16.9879 c 0,0.8754 0.6988539,1.5744 1.5740448,1.5744 l 15.6135088,0 c -17.4223683,-5.3563 -9.561533,-15.4091 -2.031025,-11.63 0.0044,-1.7786 -0.298515,-3.4739 -1.624821,-4.8246 -1.11595,-3.886 -0.538584,-7.0229 2.411842,-9.0906 z"
       id="path8671"
       inkscape:connector-curvature="0"
       sodipodi:nodetypes="ccccsscccc" />
    <path
       style="fill:#c24f15;fill-opacity:1;stroke:none"
       d="m 28.365418,1041.6606 c -0.219717,-0.063 -0.503305,-0.1234 -0.81241,-0.1015 -0.328144,0.023 -0.676593,0.1157 -1.015513,0.3301 -0.338917,0.2144 -0.656921,0.5635 -0.91396,1.0665 -0.143057,0.2799 -0.209296,0.7499 -0.304655,1.1426 0.54946,-0.3582 1.043973,-0.6515 1.599433,-1.0157 0.653762,-0.3758 1.091676,-0.3301 1.091676,-0.3301 0.528588,-0.2981 0.518833,-0.6957 0.355429,-1.0919 z"
       id="path9690"
       inkscape:connector-curvature="0"
       sodipodi:nodetypes="cssscccc" />
    <path
       style="fill:url(#linearGradient9698);fill-opacity:1;stroke:none"
       d="m 15.9,1038.3342 c 0.06195,3.3733 2.13828,5.7723 3.998581,7.2623 2.081885,-0.1209 3.826998,-0.4072 5.420299,-1.4982 0.09536,-0.3927 0.161598,-0.8627 0.304655,-1.1426 0.257039,-0.503 0.575043,-0.8521 0.91396,-1.0665 0.33892,-0.2144 0.687369,-0.3068 1.015513,-0.3301 0.309105,-0.022 0.592693,0.038 0.81241,0.1015 -0.325687,-0.7848 -1.215221,-1.2588 -1.904087,-1.4727 -1.042272,-0.1469 -2.279128,0.1632 -3.02115,0.584 -2.683198,1.4405 -6.400323,-0.052 -7.540181,-2.4377 z"
       id="path9666"
       inkscape:connector-curvature="0"
       sodipodi:nodetypes="cccssscccc" />
    <g
       id="g9842"
       style="fill:url(#linearGradient9851);fill-opacity:1"
       transform="matrix(0.81241019,0,0,0.81257064,5.0086254,1009.3609)">
      <path
         id="path8704"
         d="m 43.1875,12.84375 c 1.428894,1.407937 2.164814,3.158206 2.53125,4.90625 -3.518113,-2.742299 -8.133672,-4.586723 -12.125,-4.59375 -0.988481,-0.0017 -1.928397,0.106855 -2.8125,0.34375 -0.484721,0.129881 -0.949574,0.290179 -1.40625,0.46875 3.177357,-0.190731 6.233594,0.78904 8.6875,2.625 -1.790151,-0.288502 -3.665179,-0.250012 -5.53125,0.25 -0.484721,0.129881 -0.918324,0.290179 -1.375,0.46875 5.577399,0.634194 12.712558,2.947807 12.21875,9.28125 -0.804213,-0.747417 -1.718857,-1.412694 -2.71875,-1.9375 0,0 2.990568,5.702952 1.15625,12.90625 -1.147746,-2.121372 -2.25,-3.625 -2.25,-3.625 0,0 0.634763,7.032001 -2.15625,11.03125 0.240658,-1.850345 0.15625,-3.65625 0.15625,-3.65625 0,0 -1.017469,4.238932 -8.40625,6.21875 0,0 0.422657,0.208373 1.03125,0.46875 l 15.875,0 1.921875,0 L 48,46.0625 l 0,-22.40625 0,-3.84375 0,-4.5 c -2.326909,-1.502829 -4.8125,-2.46875 -4.8125,-2.46875 z"
         style="fill:url(#linearGradient3251);fill-opacity:1;stroke:none"
         inkscape:connector-curvature="0"
         sodipodi:nodetypes="cccsccscccccccccccccccc" />
    </g>
    <path
       style="fill:#ffffff;fill-opacity:0.11758058;stroke:none"
       d="m 15.911526,1035.9219 c -5.555938,0.5357 -8.1984422,8.0643 6.042303,12.4425 l 0.253877,0 c -14.2407442,-4.3782 -11.598241,-11.9068 -6.042302,-12.4425 -0.0825,0 -0.17258,-0.01 -0.253878,0 z"
       id="path9514"
       inkscape:connector-curvature="0" />
    <path
       style="opacity:0.15;fill:url(#linearGradient9542);fill-opacity:1;stroke:none"
       d="m 20.952175,1022.8192 c -3.436139,0.1273 -4.386223,1.3679 -5.610707,2.4631 -1.611937,-0.1787 -3.180804,-0.168 -4.722135,0.2031 -2.2884341,1.1556 -4.3869755,2.411 -5.6107076,4.3167 l 0,0.3302 c 0.4732231,-0.657 0.7044571,-1.0438 1.2440032,-1.5236 2.8686633,-2.5507 5.7592224,-3.5709 9.4188814,-2.8948 1.589067,-1.5113 2.544122,-2.4059 5.052175,-2.717 0.05746,-0.043 0.1183,-0.084 0.177714,-0.127 7.9e-5,-0.01 0.02232,-0.031 0.05077,-0.05 z"
       id="path9534"
       inkscape:connector-curvature="0" />
    <path
       style="fill:url(#linearGradient9648);fill-opacity:1;stroke:none"
       d="m 18.159516,1027.0343 c -0.413295,1.558 -0.294274,3.3353 0.279266,5.3326 1.196342,1.2183 1.542866,2.7294 1.599432,4.3168 0.04161,0.02 0.08535,0.03 0.12694,0.051 0.0044,-1.7786 -0.298515,-3.4739 -1.624821,-4.8246 -0.515743,-1.796 -0.655517,-3.4312 -0.380817,-4.8755 z"
       id="path9519"
       inkscape:connector-curvature="0" />
    <path
       style="fill:#ffffff;fill-opacity:0.11864409;stroke:none"
       d="m 7.9790002,1021.194 c -0.054937,0.061 -0.099933,0.1161 -0.1523268,0.1777 -2.033475,2.3925 -2.1863538,4.8605 -1.9548621,7.3385 0.062345,-0.066 0.1130784,-0.1385 0.1777148,-0.203 -0.1822004,-2.3126 0.030764,-4.6192 1.8533107,-6.8562 0.3807275,1.3731 0.925821,2.6377 2.5895582,3.9106 0.04454,-0.023 0.08229,-0.053 0.126938,-0.076 0.03394,-0.01 0.06759,-0.017 0.101551,-0.025 -1.7310985,-1.2983 -2.2806666,-2.5848 -2.6657204,-3.9866 -0.025939,-0.094 -0.051268,-0.1838 -0.076164,-0.2793 z"
       id="path9544"
       inkscape:connector-curvature="0" />
    <path
       style="fill:url(#linearGradient9607);fill-opacity:1;stroke:none"
       d="m 23.184763,1030.4878 c -0.860634,0.3721 -2.581577,0.8337 -4.823685,0.711 0.05619,0.236 0.08286,0.4691 0.152327,0.711 0.130964,0.1334 0.245576,0.2659 0.355429,0.4063 0.03286,0.041 0.07027,0.085 0.101551,0.1269 0.07197,0.098 0.139812,0.2032 0.203103,0.3047 0.09694,0.1504 0.174491,0.301 0.253878,0.4571 0.07538,0.1482 0.142218,0.3041 0.203102,0.4571 1.544119,-1.6377 3.165119,-1.9874 3.909725,-2.8694 -0.09277,-0.053 -0.174877,-0.1067 -0.253879,-0.1778 -0.0089,-0.01 -0.0167,-0.017 -0.02539,-0.025 -0.0083,-0.01 -0.01832,-0.016 -0.02539,-0.025 -0.02036,-0.02 -0.03159,-0.055 -0.05077,-0.076 z"
       id="path9570"
       inkscape:connector-curvature="0" />
    <path
       style="fill:url(#linearGradient9768);fill-opacity:1;stroke:none"
       d="m 23.184763,1030.4878 c -0.860634,0.3721 -2.581577,0.8337 -4.823685,0.711 0.0082,0.034 0.01832,0.067 0.02538,0.1016 2.247122,0.1188 3.971672,-0.3337 4.874461,-0.7111 -0.0083,-0.01 -0.01833,-0.016 -0.02539,-0.025 -0.02036,-0.02 -0.03159,-0.055 -0.05077,-0.076 z"
       id="path9609"
       inkscape:connector-curvature="0" />
    <path
       style="fill:url(#linearGradient9579);fill-opacity:1;stroke:none"
       d="m 22.887996,1028.8658 c -0.08219,0.1868 -0.10155,0.3923 -0.10155,0.6094 0,0.5638 0.305315,1.0589 0.761634,1.3204 0.338456,-0.4009 0.488382,-0.9021 0.380817,-1.7012 -0.220602,-0.1523 -0.608649,-0.2062 -1.040901,-0.2286 z"
       id="path9483"
       inkscape:connector-curvature="0" />
    <path
       style="fill:url(#linearGradient9661);fill-opacity:1;stroke:none"
       d="m 15.9,1038.3596 c -1.7819,5.1084 4.608603,5.3692 7.540181,3.6311 0.631085,-0.3578 1.577372,-1.4208 4.40751,-1.0498 -1.256818,-1.3148 -3.018999,-0.9506 -4.40751,-0.169 -2.675493,1.4364 -6.393071,-0.038 -7.540181,-2.4123 z m -0.101551,0.9648 c 0.0013,0.1491 0.01,0.3048 0.02539,0.4571 -0.02016,-0.1619 -0.01493,-0.3026 -0.02539,-0.4571 z"
       id="path9650"
       inkscape:connector-curvature="0"
       sodipodi:nodetypes="cccccccc" />
    <path
       style="fill:#ad250f;fill-opacity:1;stroke:none"
       d="m 26.385169,1041.9781 c -1.722794,1.397 -1.968007,1.8118 -2.564169,2.9074 0.516102,-0.2007 1.01484,-0.4564 1.49788,-0.7872 0.562109,-1.9548 0.923232,-1.8403 1.066289,-2.1202 z"
       id="path9716"
       inkscape:connector-curvature="0"
       sodipodi:nodetypes="cccc" />
    <path
       style="fill:url(#linearGradient9738);fill-opacity:1;stroke:none"
       d="m 15.9,1038.4494 c -0.586721,3.0835 4.444565,5.0267 7.540181,3.6311 0.631085,-0.3578 1.612732,-1.4375 4.442868,-1.0665 -0.03177,-0.029 -0.06879,-0.048 -0.10155,-0.076 -2.745914,-0.329 -3.718485,0.98 -4.341318,1.3331 -3.475747,2.8101 -8.299942,1.177 -7.489405,-3.7454 -0.01387,-0.027 -0.0374,-0.048 -0.05077,-0.076 z"
       id="path9727"
       inkscape:connector-curvature="0"
       sodipodi:nodetypes="ccccccc" />
    <path
       style="fill:#ad250f;fill-opacity:1;stroke:none"
       d="m 16.71241,1035.8965 c -5.91334,0.076 -9.2163543,7.9485 5.483769,12.4679 l 3.046539,0 c -6.428978,-1.3721 -12.680137,-9.994 -6.930876,-12.2902 -0.548607,-0.1207 -1.080672,-0.1844 -1.599432,-0.1777 z"
       id="rect8693"
       inkscape:connector-curvature="0"
       sodipodi:nodetypes="scccs" />
    <path
       style="opacity:0.1;fill:url(#linearGradient9791);fill-opacity:1;stroke:none"
       d="m 7.8012855,1022.0574 c -1.4404311,1.9468 -1.8126906,4.1434 -1.5994326,6.3228 0.143895,-0.1381 0.3032786,-0.2755 0.4569807,-0.4063 0.027713,-0.023 0.04813,-0.054 0.076165,-0.076 1.0352184,-0.8641 2.2802613,-1.5602 3.5796827,-2.2346 -1.3811288,-0.8192 -2.1361204,-2.3793 -2.5133944,-3.6057 z"
       id="path9775"
       inkscape:connector-curvature="0" />
    <path
       style="fill:#ad250f;fill-opacity:1;stroke:none"
       d="m 8.56292,1041.2544 c -2.0507183,1.7272 -2.1570714,4.4112 -1.8279228,6.5513 -0.7751648,-1.3307 -1.1746229,-2.7981 -0.431593,-4.1137 0,0 -0.8521563,0.8445 -1.2947788,2.4123 l -0.017952,0.8473 0.00307,1.4206 1.5619947,-0.01 4.2159164,0 c -3.3421858,-3.0162 -2.7199683,-5.9596 -2.2087388,-7.1101 z m 1.904087,4.012 c 0,0 -0.321258,1.3303 0.406205,3.098 l 1.269389,0 c -1.058094,-0.7537 -1.754059,-1.7638 -1.675594,-3.098 z m 2.843435,0.8888 c 0,0 -0.47427,0.8229 -0.533144,2.2092 l 0.533144,0 c -0.257422,-0.6962 -0.289888,-1.4387 0,-2.2092 z"
       id="path9819"
       inkscape:connector-curvature="0"
       sodipodi:nodetypes="ccccccccccccccccc" />
    <path
       id="path13803"
       d="m 19.806432,1036.2742 c -0.362776,-2.225 -1.585786,-3.8997 -3.177387,-5.1726 -0.0014,0.1856 -0.01328,0.3812 -0.0258,0.5687 -0.0028,0.033 0.0046,0.067 0.0013,0.1004 -0.09603,1.2516 -0.440328,2.5341 -0.834447,3.8387 1.44313,-0.3892 2.973577,0.1202 4.036346,0.6649 z"
       style="opacity:0.1;fill:url(#linearGradient13805);fill-opacity:1;stroke:none"
       inkscape:connector-curvature="0" />
    <path
       style="fill:#000000;fill-opacity:0.23555998;stroke:none"
       d="m 20.952175,1023.0985 c -0.149081,0.01 -0.266257,0.016 -0.406205,0.025 -1.335203,1.0628 -2.121551,2.379 -2.411842,3.9104 -0.0085,0.085 -0.0029,0.1508 0,0.2286 0.327342,-1.6611 1.245396,-3.0623 2.818047,-4.1644 z m 2.995763,6.6275 c -0.02661,0.4531 -0.16709,0.7833 -0.406205,1.0665 -0.09306,0.1103 -0.21144,0.2075 -0.330041,0.3047 -0.826826,0.669 -2.219243,1.1364 -3.554295,2.5393 0.02701,0.067 0.05169,0.1352 0.07617,0.2031 1.311332,-1.341 2.667196,-1.807 3.478132,-2.4631 0.118601,-0.097 0.236965,-0.1944 0.330041,-0.3047 0.284549,-0.337 0.429147,-0.7495 0.406205,-1.3458 z m -7.235528,6.1705 c -2.742613,0.035 -4.89299,1.7625 -4.976014,4.0374 0.346728,-3.0217 4.428175,-4.9278 8.428758,-2.9202 2.29e-4,-0.093 0.0017,-0.1867 0,-0.2793 -1.176642,-0.5905 -2.357681,-0.8522 -3.452744,-0.8379 z"
       id="path13842"
       inkscape:connector-curvature="0" />
    <path
       style="fill:#000000;fill-opacity:0.11724824;stroke:none"
       d="m 20.952175,1023.3778 c -0.149081,0.01 -0.266257,0.016 -0.406205,0.025 -1.335203,1.0628 -2.121551,2.379 -2.411842,3.9104 -0.0085,0.085 -0.0029,0.1508 0,0.2286 0.327342,-1.6611 1.245396,-3.0623 2.818047,-4.1644 z m 2.995763,6.6275 c -0.02661,0.4531 -0.16709,0.7833 -0.406205,1.0665 -0.09306,0.1103 -0.21144,0.2075 -0.330041,0.3047 -0.826826,0.6691 -2.219243,1.1364 -3.554295,2.5394 0.02701,0.067 0.05169,0.1351 0.07617,0.203 1.311332,-1.3409 2.667196,-1.8068 3.478132,-2.4631 0.118601,-0.097 0.236965,-0.1944 0.330041,-0.3047 0.284549,-0.337 0.429147,-0.7495 0.406205,-1.3458 z m -7.235528,6.1705 c -2.742613,0.035 -4.89299,1.7625 -4.976014,4.0375 0.346728,-3.0218 4.428175,-4.9279 8.428758,-2.9202 2.29e-4,-0.093 0.0017,-0.1868 0,-0.2794 -1.176642,-0.5904 -2.357681,-0.8522 -3.452744,-0.8379 z"
       id="path13844"
       inkscape:connector-curvature="0" />
    <path
       style="fill:#000000;fill-opacity:0.05882353;stroke:none"
       d="m 20.952175,1023.6571 c -0.149081,0.01 -0.266257,0.016 -0.406205,0.025 -1.335203,1.0628 -2.121551,2.379 -2.411842,3.9105 -0.0085,0.085 -0.0029,0.1508 0,0.2285 0.327342,-1.6611 1.245396,-3.0623 2.818047,-4.1644 z m 2.995763,6.6275 c -0.02661,0.4531 -0.16709,0.7833 -0.406205,1.0665 -0.09306,0.1103 -0.21144,0.2076 -0.330041,0.3047 -0.826826,0.6691 -2.219243,1.1365 -3.554295,2.5394 0.02701,0.067 0.05169,0.1352 0.07617,0.203 1.311332,-1.3409 2.667196,-1.8068 3.478132,-2.4631 0.118601,-0.097 0.236965,-0.1944 0.330041,-0.3047 0.284549,-0.337 0.429147,-0.7494 0.406205,-1.3458 z m -7.235528,6.1705 c -2.742613,0.036 -4.89299,1.7625 -4.976014,4.0375 0.346728,-3.0218 4.428175,-4.9278 8.428758,-2.9202 2.29e-4,-0.093 0.0017,-0.1868 0,-0.2793 -1.176642,-0.5905 -2.357681,-0.8523 -3.452744,-0.838 z"
       id="path13846"
       inkscape:connector-curvature="0" />
    <path
       style="fill:#000000;fill-opacity:0.11764706;stroke:none"
       d="m 40.09459,1020.3053 c 0.989031,0.9747 1.569841,2.1464 1.904087,3.3518 0.05175,0.039 0.101151,0.087 0.152327,0.1269 -0.232425,-1.1089 -0.647495,-2.2215 -1.370942,-3.1994 -0.257975,-0.1102 -0.685472,-0.2793 -0.685472,-0.2793 z m -9.621982,0.4316 c -0.150491,0.031 -0.310226,0.062 -0.456981,0.1017 -0.393792,0.1054 -0.771444,0.2357 -1.142452,0.3808 2.199768,-0.1321 4.328949,0.4323 6.143852,1.5235 0.309551,0.025 0.609745,0.052 0.913962,0.1016 -1.57602,-1.1793 -3.463872,-1.924 -5.458381,-2.1076 z m 0.888573,2.8441 c -0.361791,0.1014 -0.695299,0.2203 -1.040901,0.3554 4.24794,0.4832 9.60376,2.1533 9.926637,6.6021 0.04608,-4.4493 -4.689618,-6.304 -8.885736,-6.9575 z m 6.676996,6.3228 c 0,0 1.332523,2.5329 1.421718,6.2212 0.02126,-2.8772 -0.699487,-5.0287 -1.117063,-6.0436 -0.104339,-0.06 -0.197878,-0.1216 -0.304655,-0.1776 z m -0.888574,7.5417 c 0,0 0.03786,0.353 0.05077,0.9395 -2.78e-4,-0.4487 -0.01233,-0.6424 -0.02539,-0.8888 -0.0014,0 -0.02539,-0.051 -0.02539,-0.051 z m -1.62482,6.3989 c -0.0074,0.5548 -0.02918,1.305 -0.126938,2.0569 0.02168,-0.031 0.0296,-0.07 0.05077,-0.1017 0.08193,-0.9356 0.08513,-1.584 0.07617,-1.9552 z m -6.169239,4.4437 c -0.08324,0.026 -0.170836,0.049 -0.253879,0.076 l 0.431593,0 c -0.103852,-0.044 -0.08898,-0.037 -0.177714,-0.076 z m 13.404768,0.025 c -0.102868,0.021 -0.220643,0.051 -0.330043,0.051 0.12034,0 0.217544,-0.025 0.330043,-0.051 z"
       id="path13879"
       inkscape:connector-curvature="0" />
    <path
       style="fill:#000000;fill-opacity:0.05882353;stroke:none"
       d="m 40.09459,1020.7877 c 0.989031,0.9747 1.569841,2.1465 1.904087,3.3519 0.05175,0.039 0.101151,0.087 0.152327,0.1269 -0.232425,-1.109 -0.647495,-2.2216 -1.370942,-3.1995 -0.257975,-0.1101 -0.685472,-0.2793 -0.685472,-0.2793 z m -9.621982,0.4317 c -0.150491,0.031 -0.310226,0.062 -0.456981,0.1015 -0.393792,0.1056 -0.771444,0.2358 -1.142452,0.381 2.199768,-0.1321 4.328949,0.4322 6.143852,1.5235 0.309551,0.025 0.609745,0.052 0.913962,0.1016 -1.57602,-1.1794 -3.463872,-1.924 -5.458381,-2.1076 z m 0.888573,2.844 c -0.361791,0.1014 -0.695299,0.2203 -1.040901,0.3555 4.24794,0.4831 9.60376,2.1532 9.926637,6.6021 0.04608,-4.4494 -4.689618,-6.3041 -8.885736,-6.9576 z m 6.676996,6.3228 c 0,0 1.332523,2.533 1.421718,6.2212 0.02126,-2.8771 -0.699487,-5.0286 -1.117063,-6.0435 -0.104339,-0.06 -0.197878,-0.1216 -0.304655,-0.1777 z m -0.888574,7.5416 c 0,0 0.03786,0.3532 0.05077,0.9396 -2.78e-4,-0.4487 -0.01233,-0.6423 -0.02539,-0.8888 -0.0014,0 -0.02539,-0.051 -0.02539,-0.051 z m -1.62482,6.3991 c -0.0036,0.2774 -0.0069,0.614 -0.02538,0.9649 0.01645,-0.4093 0.03064,-0.7476 0.02538,-0.9649 z m -0.02538,0.9649 c -0.01861,0.3508 -0.05268,0.716 -0.101551,1.0919 0.02168,-0.031 0.0296,-0.07 0.05077,-0.1016 0.03397,-0.3879 0.03913,-0.7004 0.05077,-0.9903 z"
       id="path13890"
       inkscape:connector-curvature="0" />
    <path
       style="fill:url(#linearGradient13973);fill-opacity:1;stroke:none"
       d="m 10.306406,1009.3609 c 0.965703,0.4523 0.48962,1.7082 0.312771,2.5043 -0.176851,0.7961 -0.216037,1.5366 -0.189686,2.1701 0.05271,1.2668 0.367557,2.1055 0.367557,2.1055 0.187343,-2.7741 2.021186,-5.1049 3.858949,-6.7799 z"
       id="path14201"
       inkscape:connector-curvature="0" />
    <path
       style="opacity:0.25600011;fill:url(#linearGradient14021);fill-opacity:1"
       d="m 14.814439,1009.3609 c 4.12e-4,0.7527 -0.174374,1.7305 -0.203103,1.7268 0.312018,-0.5669 0.405615,-1.2437 0.431592,-1.7268 l -0.228489,0 z"
       id="path14019"
       inkscape:connector-curvature="0" />
    <path
       style="fill:url(#linearGradient14089);fill-opacity:1;stroke:none"
       d="m 37.022665,1009.3609 c -0.649484,0.522 -1.542279,1.4869 -2.691109,3.2503 0.644924,-0.7621 2.358255,-1.8951 3.681233,-2.59 -0.84557,0.6376 -1.691723,2.2787 -2.259515,3.3518 -1.113047,2.1036 -2.47029,3.6096 -4.315929,3.9359 3.368485,0.086 4.440889,-1.3606 6.067688,-3.1233 -0.253133,0.8134 -0.49009,2.079 -0.253879,3.7328 -0.05148,-1.8435 0.992006,-3.4179 2.310293,-4.9262 -0.19369,0.3837 -0.43731,1.0242 -0.888575,2.3106 1.105375,-2.0284 3.327924,-3.386 5.318749,-4.6214 l 0.02539,-1.3077 -1.282084,0.013 c -0.105133,0 -0.195255,-0.025 -0.304655,-0.025 z"
       id="path14047"
       inkscape:connector-curvature="0"
       sodipodi:nodetypes="cccscccccccssc" />
    <path
       style="fill:url(#linearGradient14097);fill-opacity:1;stroke:none"
       d="m 43.293455,1009.6148 c -0.683325,2.0528 -2.149734,2.939 -3.922418,3.9486 2.419413,-0.432 3.74611,-1.0337 4.633277,-1.5616 l 0,-1.0665 c 0,-0.2188 -0.04721,-0.4203 -0.126939,-0.6094 -0.0043,-0.01 -0.02086,-0.015 -0.02539,-0.025 -0.01723,-0.022 -0.0079,-0.028 -0.02539,-0.051 -0.157175,-0.2017 -0.276459,-0.3612 -0.380817,-0.5078 -0.0517,-0.043 -0.09522,-0.09 -0.152327,-0.1271 z"
       id="path14055"
       inkscape:connector-curvature="0"
       sodipodi:nodetypes="cccsccscc" />
    <path
       style="fill:url(#linearGradient14207);fill-opacity:1;stroke:none"
       d="m 14.712887,1009.3609 c 0.01736,0.8251 -0.08995,1.9268 -0.58392,2.8948 0.637325,-1.0193 0.89872,-2.0038 0.964737,-2.8948 z"
       id="path13989"
       inkscape:connector-curvature="0" />
    <path
       style="opacity:0.7;fill:#000000;fill-opacity:1;stroke:none"
       d="m 5,1048.3622 c 19.5,-1 19.5,-1 39,0 l 0,0 z"
       id="path3253"
       inkscape:connector-curvature="0"
       sodipodi:nodetypes="cccc" />
    <path
       style="opacity:0.7;fill:#ffffff;fill-opacity:1;stroke:none"
       d="m 5,1009.3622 c 19.5,1 19.5,1 39,0 l 0,0 z"
       id="path3253-2"
       inkscape:connector-curvature="0"
       sodipodi:nodetypes="cccc" />
  </g>
  <g
     inkscape:groupmode="layer"
     id="layer2"
     inkscape:label="Capa 2" />
</svg>
