<?xml version="1.0" encoding="UTF-8" standalone="no"?>
<!-- Created with Inkscape (http://www.inkscape.org/) -->

<svg
   xmlns:dc="http://purl.org/dc/elements/1.1/"
   xmlns:cc="http://creativecommons.org/ns#"
   xmlns:rdf="http://www.w3.org/1999/02/22-rdf-syntax-ns#"
   xmlns:svg="http://www.w3.org/2000/svg"
   xmlns="http://www.w3.org/2000/svg"
   xmlns:xlink="http://www.w3.org/1999/xlink"
   xmlns:sodipodi="http://sodipodi.sourceforge.net/DTD/sodipodi-0.dtd"
   xmlns:inkscape="http://www.inkscape.org/namespaces/inkscape"
   width="48"
   height="48"
   id="svg5453"
   version="1.1"
   inkscape:version="0.48.5 r10040"
   sodipodi:docname="firestorm_icon.svg">
  <defs
     id="defs5455">
    <linearGradient
       gradientTransform="translate(384.57142,504.56412)"
       gradientUnits="userSpaceOnUse"
       y2="-1004.6325"
       x2="24.04163"
       y1="-1053.0693"
       x1="24.04163"
       id="linearGradient848-6"
       xlink:href="#linearGradient1373"
       inkscape:collect="always" />
    <linearGradient
       inkscape:collect="always"
       xlink:href="#linearGradient4341"
       id="linearGradient4277"
       x1="414.69644"
       y1="539.20612"
       x2="414.69644"
       y2="508.34912"
       gradientUnits="userSpaceOnUse"
       gradientTransform="matrix(1.3017775,0,0,1.3017775,-123.09672,-158.13078)" />
    <linearGradient
       id="linearGradient4341"
       inkscape:collect="always">
      <stop
         id="stop4343"
         offset="0"
         style="stop-color:#e8161b;stop-opacity:1" />
      <stop
         id="stop4345"
         offset="1"
         style="stop-color:#f24c19;stop-opacity:1" />
    </linearGradient>
    <linearGradient
       inkscape:collect="always"
       id="linearGradient1373">
      <stop
         style="stop-color:#282827;stop-opacity:1"
         offset="0"
         id="stop1375" />
      <stop
         style="stop-color:#292929;stop-opacity:1"
         offset="1"
         id="stop1377" />
    </linearGradient>
    <linearGradient
       id="linearGradient4200"
       inkscape:collect="always">
      <stop
         id="stop4202"
         offset="0"
         style="stop-color:#fa741b;stop-opacity:1" />
      <stop
         id="stop4204"
         offset="1"
         style="stop-color:#f7aa1d;stop-opacity:1" />
    </linearGradient>
    <linearGradient
       gradientTransform="matrix(0.51402488,0,0,0.51402488,379.38448,10.192278)"
       gradientUnits="userSpaceOnUse"
       y2="1012.9622"
       x2="26.516502"
       y1="1032.5632"
       x1="26.516502"
       id="linearGradient4232"
       xlink:href="#linearGradient4200"
       inkscape:collect="always" />
  </defs>
  <sodipodi:namedview
     id="base"
     pagecolor="#ffffff"
     bordercolor="#666666"
     borderopacity="1.0"
     inkscape:pageopacity="0"
     inkscape:pageshadow="2"
     inkscape:zoom="2"
     inkscape:cx="238.37315"
     inkscape:cy="13.324939"
     inkscape:document-units="px"
     inkscape:current-layer="layer1"
     showgrid="true"
     fit-margin-top="0"
     fit-margin-left="0"
     fit-margin-right="0"
     fit-margin-bottom="0"
     inkscape:window-width="1301"
     inkscape:window-height="744"
     inkscape:window-x="65"
     inkscape:window-y="24"
     inkscape:window-maximized="1"
     inkscape:showpageshadow="false"
     borderlayer="true"
     showguides="false">
    <inkscape:grid
       type="xygrid"
       id="grid3011" />
  </sodipodi:namedview>
  <metadata
     id="metadata5458">
    <rdf:RDF>
      <cc:Work
         rdf:about="">
        <dc:format>image/svg+xml</dc:format>
        <dc:type
           rdf:resource="http://purl.org/dc/dcmitype/StillImage" />
        <dc:title />
      </cc:Work>
    </rdf:RDF>
  </metadata>
  <g
     inkscape:label="Capa 1"
     inkscape:groupmode="layer"
     id="layer1"
     transform="translate(-384.57143,-499.798)">
    <path
       sodipodi:nodetypes="ccccccccc"
       inkscape:connector-curvature="0"
       id="path4255"
       d="m 391.35219,531.40141 c 0.35252,3.00684 -2.49506,3.25613 -3.79665,6.07702 -1.30162,2.8203 3.13575,3.94647 3.13575,3.94647 1.13382,-0.1635 1.13382,-0.1635 1.13382,-0.1635 l 0.877,0.1635 c 3.02567,0 4.63439,-1.84895 4.65959,-3.13195 0.0306,-1.57899 -1.78362,-3.32604 -1.78362,-3.32604 0.33782,2.07263 -0.91918,2.38599 -0.91918,2.38599 0.4402,-3.4455 -3.30671,-5.95149 -3.30671,-5.95149 z"
       style="fill:#000000;fill-opacity:0.23529412" />
    <path
       inkscape:connector-curvature="0"
       id="path4279"
       d="m 428.49394,504.21577 c 0,-0.0562 -0.63102,0.38192 -1.4027,0.97348 -7.25914,5.56472 -16.33263,10.4313 -21.41309,11.48537 l -0.95785,0.19902 -0.36317,0.96942 c -1.26521,3.38113 -4.86189,5.77889 -10.50066,6.99984 -0.89088,0.19291 -1.84661,0.46804 -2.12363,0.61121 -0.85582,0.44229 -1.85024,1.45427 -2.2998,2.34092 -0.3632,0.71603 -0.4194,1.02488 -0.36452,1.99552 0.0462,0.81693 0.15706,1.24963 0.38409,1.50035 0.30537,0.33723 1.06651,0.51411 0.87416,0.20305 -0.15128,-0.24463 0.56533,-1.02444 1.27377,-1.38565 1.14716,-0.58487 2.92934,-0.86129 4.79402,-0.83586 l 0.0344,-0.0485 c 0.33246,0.0219 0.65622,0.0539 0.97541,0.0911 1.39639,0.1005 2.78452,0.36795 3.93674,0.8055 0.61958,0.23529 1.14425,0.5175 1.5701,0.83518 1.58983,0.82778 2.92729,1.90483 4.05082,3.14844 0.001,-0.0415 0.004,-0.0808 0.005,-0.12275 0.008,-0.81759 0.035,-1.48652 0.0607,-1.48686 0.0256,-3.5e-4 0.12692,0.20908 0.22479,0.46616 0.23716,0.62251 0.36075,1.2778 0.38409,1.93682 2.13247,2.69196 3.3935,6.00841 4.13383,9.20989 0.98679,-1.70884 1.92167,-3.9688 1.92585,-4.89165 0.007,-1.36617 0.95324,1.31548 1.25217,3.5458 l 0.20655,1.54419 0.37464,-0.93501 c 0.62623,-1.56346 0.92036,-3.19829 0.92209,-5.12373 0.001,-0.9953 -0.0489,-1.97031 -0.11143,-2.16688 -0.0624,-0.19655 -0.0454,-0.35754 0.0378,-0.35754 0.20508,0 1.83608,1.66103 2.25389,2.29504 0.39426,0.59824 0.4242,0.337 0.10063,-0.87767 -0.85581,-3.21235 -3.31048,-6.2388 -6.81301,-8.40035 l -1.35343,-0.83517 0.67368,-0.0202 c 0.37023,-0.0104 0.90271,-0.072 1.18332,-0.13559 l 0.51032,-0.11534 -0.68042,-0.23139 -0.68043,-0.23207 1.09016,-0.22263 c 0.59976,-0.12237 1.63345,-0.47938 2.29644,-0.79334 l 1.20491,-0.57074 -1.53028,0.0607 -1.53095,0.0607 1.19074,-0.40141 c 1.65664,-0.55878 4.8349,-2.22652 4.63134,-2.42997 -0.0288,-0.0289 -0.62374,0.0961 -1.32171,0.27728 -2.05195,0.53251 -2.26858,0.41589 -0.66489,-0.35823 1.56116,-0.75358 3.75831,-2.17147 4.83789,-3.12214 l 0.68043,-0.59905 -1.27511,0.57477 c -1.08321,0.48821 -3.5557,1.29054 -3.97726,1.29054 -0.0709,0 0.36467,-0.25712 0.96799,-0.5714 1.72746,-0.89987 3.28855,-2.09159 5.21928,-3.98294 l 1.78612,-1.74996 -1.44522,0.76299 c -1.36689,0.7212 -4.25198,2.01653 -4.25198,1.90917 0,-0.0273 0.3637,-0.30679 0.80801,-0.62065 1.72402,-1.21789 4.77621,-4.43575 6.58281,-6.9398 l 0.65614,-0.90872 -1.60859,1.25614 c -1.71739,1.34168 -5.22505,3.6156 -5.36373,3.477 -0.0458,-0.0458 0.12497,-0.21994 0.37936,-0.38657 0.75102,-0.4918 4.05677,-4.22367 5.87405,-6.63082 0.92701,-1.22789 1.68554,-2.27854 1.68554,-2.33486 z"
       style="fill:#000000;fill-opacity:0.23529412" />
    <path
       style="fill:url(#linearGradient4277);fill-opacity:1"
       d="m 428.49394,503.69509 c 0,-0.0562 -0.63102,0.38193 -1.4027,0.97349 -7.25914,5.56472 -16.33263,10.43129 -21.41309,11.48537 l -0.95785,0.19902 -0.36317,0.96942 c -1.26521,3.38113 -4.86189,5.77889 -10.50066,6.99984 -0.89088,0.19291 -1.84661,0.46804 -2.12363,0.61121 -0.85582,0.44229 -1.85024,1.45426 -2.2998,2.34092 -0.3632,0.71603 -0.4194,1.02487 -0.36452,1.99552 0.0462,0.81693 0.15706,1.24963 0.38409,1.50035 0.30537,0.33722 1.06651,0.51411 0.87416,0.20305 -0.15128,-0.24463 0.56533,-1.02445 1.27377,-1.38565 1.14716,-0.58488 2.92934,-0.8613 4.79402,-0.83586 l 0.0344,-0.0486 c 0.33246,0.0219 0.65622,0.0539 0.97541,0.0911 1.39639,0.1005 2.78452,0.36795 3.93674,0.8055 0.61958,0.23528 1.14425,0.5175 1.5701,0.83518 1.58983,0.82778 2.92729,1.90483 4.05082,3.14844 0.001,-0.0415 0.004,-0.0808 0.005,-0.12276 0.008,-0.81758 0.035,-1.48651 0.0607,-1.48685 0.0256,-3.5e-4 0.12692,0.20908 0.22479,0.46616 0.23716,0.62251 0.36075,1.27779 0.38409,1.93682 2.13247,2.69196 3.3935,6.00841 4.13383,9.20989 0.98679,-1.70884 1.92167,-3.9688 1.92585,-4.89165 0.007,-1.36617 0.95324,1.31547 1.25217,3.5458 l 0.20655,1.54419 0.37464,-0.93501 c 0.62623,-1.56346 0.92036,-3.19829 0.92209,-5.12373 0.001,-0.9953 -0.0489,-1.97031 -0.11143,-2.16688 -0.0624,-0.19655 -0.0454,-0.35754 0.0378,-0.35754 0.20508,0 1.83608,1.66103 2.25389,2.29504 0.39426,0.59823 0.4242,0.33699 0.10063,-0.87767 -0.85581,-3.21236 -3.31048,-6.23881 -6.81301,-8.40036 l -1.35343,-0.83516 0.67368,-0.0202 c 0.37023,-0.0104 0.90271,-0.072 1.18332,-0.13559 l 0.51032,-0.11534 -0.68042,-0.23139 -0.68043,-0.23207 1.09016,-0.22263 c 0.59976,-0.12237 1.63345,-0.47938 2.29644,-0.79334 l 1.20491,-0.57074 -1.53028,0.0607 -1.53095,0.0607 1.19074,-0.4014 c 1.65664,-0.55879 4.8349,-2.22652 4.63134,-2.42997 -0.0288,-0.0289 -0.62374,0.0961 -1.32171,0.27727 -2.05195,0.53252 -2.26858,0.4159 -0.66489,-0.35822 1.56116,-0.75359 3.75831,-2.17147 4.83789,-3.12214 l 0.68043,-0.59906 -1.27511,0.57478 c -1.08321,0.4882 -3.5557,1.29054 -3.97726,1.29054 -0.0709,0 0.36467,-0.25713 0.96799,-0.5714 1.72746,-0.89987 3.28855,-2.09159 5.21928,-3.98294 l 1.78612,-1.74996 -1.44522,0.76299 c -1.36689,0.72119 -4.25198,2.01653 -4.25198,1.90917 0,-0.0273 0.3637,-0.30679 0.80801,-0.62065 1.72402,-1.21789 4.77621,-4.43575 6.58281,-6.9398 l 0.65614,-0.90872 -1.60859,1.25614 c -1.71739,1.34168 -5.22505,3.61559 -5.36373,3.47699 -0.0458,-0.0458 0.12497,-0.21993 0.37936,-0.38656 0.75102,-0.4918 4.05677,-4.22367 5.87405,-6.63082 0.92701,-1.22789 1.68554,-2.27854 1.68554,-2.33486 z"
       id="path4264"
       inkscape:connector-curvature="0" />
    <path
       style="fill:#d03e3e;fill-opacity:0.31372549"
       d="m 428.49479,503.69485 c 0,-0.0366 -0.31195,0.17662 -0.71191,0.46529 -0.30931,0.43351 -0.4382,0.64066 -0.97379,1.35008 -1.81728,2.40716 -5.12223,6.13913 -5.87325,6.63093 -0.2544,0.16663 -0.42721,0.34064 -0.38138,0.38647 0.0486,0.0485 0.57723,-0.25387 1.23058,-0.65343 1.30707,-1.3177 3.601,-3.96033 5.02405,-5.84529 0.92701,-1.22789 1.6857,-2.27773 1.6857,-2.33405 z m -0.96616,4.61979 -0.91023,0.71191 c -1.82639,2.45286 -4.67791,5.44796 -6.33091,6.61567 -0.44431,0.31386 -0.80598,0.59304 -0.80598,0.62038 0,0.0464 0.58003,-0.19076 1.30177,-0.50851 1.76677,-1.40297 4.43154,-4.23392 6.08937,-6.53177 l 0.65598,-0.90768 z m -2.35185,5.79698 -1.15431,0.6102 -0.63054,0.61784 c -1.93074,1.89135 -3.49237,3.08428 -5.21983,3.98415 -0.60332,0.31428 -1.03965,0.57207 -0.9687,0.57207 0.19852,0 0.86559,-0.18533 1.61451,-0.4246 1.47921,-0.85614 2.88799,-1.95876 4.57402,-3.6104 l 1.78485,-1.74926 z m -2.72051,4.43926 -1.27381,0.57461 c -0.0161,0.007 -0.0494,0.0181 -0.0661,0.0254 -1.16949,0.89575 -2.87658,1.9731 -4.17739,2.60101 -1.38952,0.67074 -1.32801,0.81702 0.0254,0.50596 1.55964,-0.75638 3.73881,-2.16357 4.81302,-3.10951 l 0.67885,-0.5975 z m -3.53158,3.80109 c -0.0218,-0.0219 -0.53119,0.0987 -1.00176,0.21103 -1.02652,0.58791 -2.58994,1.34821 -3.62819,1.69841 l -1.19245,0.40172 1.53061,-0.061 0.11949,-0.005 c 1.719,-0.66119 4.35979,-2.05767 4.1723,-2.24506 z m -2.76119,2.71034 -1.19753,0.0483 -0.008,0.003 c -0.663,0.31396 -1.69615,0.6709 -2.29591,0.79327 l -1.09075,0.2212 0.6814,0.23391 0.2746,0.0941 0.13475,-0.028 c 0.59976,-0.12237 1.63291,-0.47931 2.29591,-0.79327 l 1.20516,-0.57207 z m -4.24857,1.7035 c -0.23972,0.0301 -0.4628,0.0703 -0.67378,0.0763 l -0.67377,0.0203 0.78819,0.48817 c 0.35926,-0.0179 0.8144,-0.0646 1.06786,-0.12204 l 0.51105,-0.11696 -0.6814,-0.23137 -0.33815,-0.11441 z m -15.48658,1.41619 -0.0331,0.0483 c -1.86468,-0.0254 -3.64807,0.25162 -4.79522,0.83649 -0.70844,0.36121 -1.42509,1.14105 -1.27381,1.38568 0.19235,0.31106 -0.56926,0.13382 -0.87463,-0.2034 -0.22703,-0.25072 -0.33771,-0.68317 -0.38392,-1.5001 -0.005,-0.0845 -0.002,-0.14091 -0.005,-0.21611 -0.0104,0.20639 -0.012,0.43466 0.005,0.73733 0.0462,0.81693 0.15689,1.24938 0.38392,1.5001 0.30537,0.33722 1.06698,0.51446 0.87463,0.2034 -0.15128,-0.24463 0.56537,-1.02447 1.27381,-1.38568 1.14715,-0.58487 2.93054,-0.86193 4.79522,-0.83649 l 0.0331,-0.0483 c 0.33246,0.0219 0.65715,0.0543 0.97633,0.0915 1.39639,0.1005 2.78363,0.36843 3.93585,0.80598 0.61958,0.23529 1.14543,0.51627 1.57128,0.83395 1.58984,0.82778 2.92674,1.90405 4.05026,3.14766 0.001,-0.0415 0.004,-0.0801 0.005,-0.12204 0.008,-0.81758 0.0354,-1.48704 0.061,-1.48738 0.0256,-3.5e-4 0.12587,0.21075 0.22374,0.46782 0.23716,0.62251 0.36058,1.27585 0.38392,1.93487 2.13247,2.69196 3.39383,6.01012 4.13416,9.2116 0.98679,-1.70884 1.92306,-3.96899 1.92724,-4.89183 0.007,-1.36618 0.952,1.31397 1.25093,3.54429 l 0.20595,1.54586 0.37629,-0.93565 c 0.62623,-1.56346 0.91867,-3.19776 0.9204,-5.12321 1.6e-4,-0.12075 -0.006,-0.21681 -0.008,-0.33561 -0.0205,1.84284 -0.30739,3.42621 -0.91277,4.9376 l -0.37629,0.93565 -0.20595,-1.54332 c -0.29893,-2.23032 -1.24442,-4.91301 -1.25093,-3.54683 -0.004,0.92284 -0.94045,3.18299 -1.92724,4.89183 -0.74033,-3.20148 -2.00169,-6.5171 -4.13416,-9.20905 -0.0233,-0.65903 -0.14676,-1.31491 -0.38392,-1.93742 -0.0979,-0.25707 -0.1981,-0.46563 -0.22374,-0.46528 -0.0257,3.4e-4 -0.0532,0.66726 -0.061,1.48484 -0.001,0.0419 -0.004,0.0831 -0.005,0.12458 -1.12352,-1.24361 -2.46042,-2.32242 -4.05026,-3.15019 -0.42585,-0.31769 -0.9517,-0.59867 -1.57128,-0.83396 -1.15222,-0.43755 -2.53946,-0.70548 -3.93585,-0.80598 -0.31918,-0.0372 -0.64387,-0.0697 -0.97633,-0.0915 z m 19.94872,6.49872 c -0.0832,0 -0.098,0.16194 -0.0356,0.35849 0.007,0.0236 0.0107,0.14342 0.0178,0.18815 0.008,-0.005 0.008,-0.0254 0.0178,-0.0254 0.20509,0 1.83741,1.66189 2.25523,2.2959 0.28091,0.42625 0.31137,0.24393 0.22629,-0.23645 -0.0532,-0.0407 -0.12772,-0.13521 -0.22629,-0.28477 -0.41782,-0.63401 -2.05014,-2.2959 -2.25523,-2.2959 z"
       id="path4287"
       inkscape:connector-curvature="0" />
    <path
       style="fill:#000000;fill-opacity:0.05882353"
       d="m 391.95588,531.15756 c 0.22319,1.90372 -1.57989,2.06153 -2.40397,3.84751 -0.57703,1.25029 0.61801,1.96564 1.39204,2.28764 l -0.3693,0.66043 -1.4448,0 3.0593,3.22837 3.05931,-3.22837 -1.44479,0 -0.2835,-0.50789 c 1.45595,-0.24497 2.22612,-1.21889 2.23998,-1.92407 0.0194,-0.9997 -1.12889,-2.10584 -1.12889,-2.10584 0.21387,1.31225 -0.58224,1.51025 -0.58224,1.51025 0.27869,-2.18145 -2.09314,-3.76803 -2.09314,-3.76803 z"
       id="path4453"
       inkscape:connector-curvature="0" />
    <path
       style="fill:url(#linearGradient4232);fill-opacity:1"
       d="m 391.35219,530.88007 c 0.35252,3.00685 -2.49506,3.25614 -3.79665,6.07703 -1.30162,2.8203 3.13575,3.94646 3.13575,3.94646 1.13382,-0.1635 1.13382,-0.1635 1.13382,-0.1635 l 0.877,0.1635 c 3.02567,0 4.63439,-1.84895 4.65959,-3.13194 0.0306,-1.57899 -1.78362,-3.32604 -1.78362,-3.32604 0.33782,2.07262 -0.91918,2.38599 -0.91918,2.38599 0.4402,-3.44551 -3.30671,-5.9515 -3.30671,-5.9515 z"
       id="path4149"
       inkscape:connector-curvature="0"
       sodipodi:nodetypes="ccccccccc" />
    <path
       style="fill:#c35604;fill-opacity:0.31372549"
       d="m 391.35322,530.88007 c 0.0117,0.10154 0.0117,0.19264 0.0161,0.28815 0.005,-0.0881 0.009,-0.17739 0.007,-0.27109 -0.003,-0.004 -0.0232,-0.0169 -0.0232,-0.0169 z m 4.22563,3.56607 c 0.026,0.15962 0.0398,0.30529 0.0482,0.44475 0.008,-0.12172 0.008,-0.25229 0,-0.39357 -0.007,-0.007 -0.0482,-0.0512 -0.0482,-0.0512 z m -0.89752,1.58422 c -0.005,0.12953 -0.005,0.25821 -0.0221,0.39053 0,0 0.0217,-0.009 0.0241,-0.0104 0.004,-0.12836 0.005,-0.25521 -0.001,-0.38051 z m 2.6675,1.47482 c -0.13566,1.27284 -1.7313,2.98778 -4.64631,2.98778 l -0.87644,-0.16367 -1.13448,0.16367 c 0,0 -3.14301,-0.79849 -3.36224,-2.7328 -0.22051,2.23255 3.36224,3.1434 3.36224,3.1434 l 1.13448,-0.16366 0.87644,0.16366 c 3.02566,0 4.63416,-1.84832 4.65936,-3.13132 0.001,-0.0884 -0.004,-0.17795 -0.013,-0.26706 z"
       id="path4420"
       inkscape:connector-curvature="0" />
  </g>
</svg>
