<?xml version="1.0" encoding="UTF-8" standalone="no"?>
<!-- Created with Inkscape (http://www.inkscape.org/) -->

<svg
   xmlns:dc="http://purl.org/dc/elements/1.1/"
   xmlns:cc="http://creativecommons.org/ns#"
   xmlns:rdf="http://www.w3.org/1999/02/22-rdf-syntax-ns#"
   xmlns:svg="http://www.w3.org/2000/svg"
   xmlns="http://www.w3.org/2000/svg"
   xmlns:xlink="http://www.w3.org/1999/xlink"
   xmlns:sodipodi="http://sodipodi.sourceforge.net/DTD/sodipodi-0.dtd"
   xmlns:inkscape="http://www.inkscape.org/namespaces/inkscape"
   width="48"
   height="48"
   id="svg4490"
   version="1.1"
   inkscape:version="0.48.5 r10040"
   viewBox="0 0 48 48"
   sodipodi:docname="frogatto.svg">
  <defs
     id="defs4492">
    <linearGradient
       gradientTransform="translate(213.14285,507.42848)"
       inkscape:collect="always"
       xlink:href="#linearGradient1373"
       id="linearGradient1711"
       gradientUnits="userSpaceOnUse"
       x1="22.490341"
       y1="-1052.3704"
       x2="22.490341"
       y2="-1004.3641" />
    <linearGradient
       id="linearGradient1373"
       inkscape:collect="always">
      <stop
         id="stop1375"
         offset="0"
         style="stop-color:#282827;stop-opacity:1" />
      <stop
         id="stop1377"
         offset="1"
         style="stop-color:#292929;stop-opacity:1" />
    </linearGradient>
  </defs>
  <sodipodi:namedview
     id="base"
     pagecolor="#ffffff"
     bordercolor="#666666"
     borderopacity="1.0"
     inkscape:pageopacity="0.0"
     inkscape:pageshadow="2"
     inkscape:zoom="5.2897728"
     inkscape:cx="12.723806"
     inkscape:cy="47.125637"
     inkscape:document-units="px"
     inkscape:current-layer="layer2"
     showgrid="true"
     inkscape:showpageshadow="false"
     borderlayer="true"
     fit-margin-top="0"
     fit-margin-left="0"
     fit-margin-right="0"
     fit-margin-bottom="0"
     inkscape:window-width="1301"
     inkscape:window-height="744"
     inkscape:window-x="65"
     inkscape:window-y="24"
     inkscape:window-maximized="1">
    <inkscape:grid
       type="xygrid"
       id="grid4152" />
  </sodipodi:namedview>
  <metadata
     id="metadata4495">
    <rdf:RDF>
      <cc:Work
         rdf:about="">
        <dc:format>image/svg+xml</dc:format>
        <dc:type
           rdf:resource="http://purl.org/dc/dcmitype/StillImage" />
        <dc:title />
      </cc:Work>
    </rdf:RDF>
  </metadata>
  <g
     inkscape:label="Capa 1"
     inkscape:groupmode="layer"
     id="layer1"
     transform="translate(-213.14285,-496.93362)">
    <g
       id="g4199"
       transform="translate(212.64385,496.43362)" />
  </g>
  <g
     inkscape:groupmode="layer"
     id="layer2"
     inkscape:label="Capa 2">
    <path
       style="text-decoration:none;color:#000000;fill:#000000;fill-opacity:0.23529412;fill-rule:nonzero;stroke:none;visibility:visible;display:inline;overflow:visible;enable-background:accumulate"
       d="m 27.628787,3.0606061 0,1.6515151 -1.651515,0 0,1.6515152 -1.651515,0 -1.651515,0 0,-1.6515152 -1.651516,0 -1.651515,0 -1.651515,0 0,1.6515152 -1.651515,0 0,1.6515151 -1.651515,0 0,1.6515152 0,1.6515153 0,1.651515 0,1.651515 0,1.651515 0,1.651515 0,1.651516 -1.651515,0 0,1.651515 -1.651516,0 0,1.651515 0,1.651515 0,1.651515 0,1.651515 1.651516,0 0,1.651515 1.651515,0 0,1.651516 1.651515,0 0,1.651515 1.651515,0 1.651515,0 0,1.651515 0,1.651515 -1.651515,0 0,1.651515 -1.651515,0 0,1.651515 -1.651515,0 0,-1.651515 -1.651515,0 -1.651516,0 -1.6515147,0 -1.6515151,0 0,1.651515 -1.6515152,0 0,1.651516 -1.6515151,0 0,1.651515 0,1.651515 0,1.651515 1.6515151,0 1.6515152,0 1.6515151,0 1.6515147,0 1.651516,0 1.651515,0 1.651515,0 1.651515,0 1.651515,0 1.651515,0 1.651516,0 1.651515,0 1.651515,0 1.651515,0 1.651515,0 1.651515,0 1.651515,0 1.651516,0 1.651515,0 1.651515,0 1.651515,0 1.651515,0 1.651515,0 0,-1.651515 0,-1.651515 0,-1.651515 -1.651515,0 0,-1.651516 -1.651515,0 0,-1.651515 -1.651515,0 -1.651515,0 0,-1.651515 -1.651515,0 -1.651516,0 -1.651515,0 -1.651515,0 0,-1.651515 1.651515,0 1.651515,0 1.651516,0 0,-1.651515 1.651515,0 1.651515,0 0,-1.651515 1.651515,0 0,-1.651516 1.651515,0 0,-1.651515 1.651515,0 0,-1.651515 0,-1.651515 0,-1.651515 0,-1.651515 -1.651515,0 0,-1.651515 -1.651515,0 0,-1.651516 -1.651515,0 -1.651515,0 0,-1.651515 -1.651515,0 0,-1.651515 0,-1.651515 0,-1.651515 0,-1.6515153 0,-1.6515152 0,-1.6515151 -1.651516,0 0,-1.6515152 -1.651515,0 0,-1.6515151 -1.651515,0 -1.651515,0 z"
       id="path7197"
       inkscape:connector-curvature="0" />
    <path
       style="text-decoration:none;color:#000000;fill:#69437c;fill-opacity:1;fill-rule:nonzero;stroke:none;visibility:visible;display:inline;overflow:visible;enable-background:accumulate"
       d="m 27.628787,2.4 0,1.6515152 1.651515,0 1.651515,0 0,-1.6515152 -1.651515,0 -1.651515,0 z m 3.30303,1.6515152 0,1.6515151 1.651515,0 0,-1.6515151 -1.651515,0 z m 1.651515,1.6515151 0,1.6515152 0,1.6515151 0,1.6515154 0,1.651515 0,1.651515 0,1.651515 0,1.651515 1.651516,0 1.651515,0 0,-1.651515 -1.651515,0 0,-1.651515 0,-1.651515 0,-1.651515 0,-1.6515154 0,-1.6515151 0,-1.6515152 -1.651516,0 z m 3.303031,11.5606057 0,1.651516 1.651515,0 1.651515,0 0,-1.651516 -1.651515,0 -1.651515,0 z m 3.30303,1.651516 0,1.651515 1.651515,0 0,-1.651515 -1.651515,0 z m 1.651515,1.651515 0,1.651515 1.651515,0 0,-1.651515 -1.651515,0 z M 27.628787,4.0515152 l -1.651515,0 0,1.6515151 1.651515,0 0,-1.6515151 z m -1.651515,1.6515151 -1.651515,0 -1.651515,0 0,1.6515152 1.651515,0 1.651515,0 0,-1.6515152 z m -3.30303,0 0,-1.6515151 -1.651516,0 -1.651515,0 -1.651515,0 0,1.6515151 1.651515,0 1.651515,0 1.651516,0 z m -4.954546,0 -1.651515,0 0,1.6515152 1.651515,0 0,-1.6515152 z m -1.651515,1.6515152 -1.651515,0 0,1.6515151 0,1.6515154 0,1.651515 0,1.651515 0,1.651515 0,1.651515 0,1.651516 1.651515,0 0,-1.651516 0,-1.651515 0,-1.651515 0,-1.651515 0,-1.651515 0,-1.6515154 0,-1.6515151 z m -1.651515,11.5606065 -1.651515,0 0,1.651515 1.651515,0 0,-1.651515 z m -3.303031,6.60606 0,1.651515 1.651516,0 0,-1.651515 -1.651516,0 z m 9.909091,6.606061 0,1.651515 1.651516,0 1.651515,0 0,-1.651515 -1.651515,0 -1.651516,0 z m 0,1.651515 -1.651515,0 0,1.651515 1.651515,0 0,-1.651515 z m -1.651515,1.651515 -1.651515,0 0,1.651515 1.651515,0 0,-1.651515 z m -1.651515,1.651515 -1.651515,0 0,1.651515 1.651515,0 0,-1.651515 z m -1.651515,1.651515 -1.651515,0 0,1.651515 1.651515,0 0,-1.651515 z m -1.651515,0 0,-1.651515 -1.651515,0 -1.651516,0 -1.6515147,0 -1.6515151,0 0,1.651515 1.6515151,0 1.6515147,0 1.651516,0 1.651515,0 z m -6.6060608,0 -1.6515152,0 0,1.651515 1.6515152,0 0,-1.651515 z m 19.8181818,-4.954545 0,1.651515 1.651515,0 0,-1.651515 -1.651515,0 z m 1.651515,1.651515 0,1.651515 1.651515,0 1.651515,0 1.651516,0 1.651515,0 0,-1.651515 -1.651515,0 -1.651516,0 -1.651515,0 -1.651515,0 z m 6.606061,1.651515 0,1.651515 1.651515,0 1.651515,0 0,-1.651515 -1.651515,0 -1.651515,0 z m 3.30303,1.651515 0,1.651515 1.651515,0 0,-1.651515 -1.651515,0 z m 1.651515,1.651515 0,1.651516 1.651515,0 0,-1.651516 -1.651515,0 z"
       id="rect4373"
       inkscape:connector-curvature="0" />
    <path
       style="text-decoration:none;color:#000000;fill:#cfe7e9;fill-opacity:1;fill-rule:nonzero;stroke:none;visibility:visible;display:inline;overflow:visible;enable-background:accumulate"
       d="m 27.628787,4.0515152 0,1.6515151 1.651515,0 0,-1.6515151 -1.651515,0 z m 0,1.6515151 -1.651515,0 0,1.6515152 1.651515,0 0,-1.6515152 z m -9.909091,0 0,1.6515152 1.651515,0 0,-1.6515152 -1.651515,0 z m 0,1.6515152 -1.651515,0 0,1.6515151 1.651515,0 0,-1.6515151 z m 3.30303,-1.6515152 0,1.6515152 1.651516,0 0,-1.6515152 -1.651516,0 z m 1.651516,1.6515152 0,1.6515151 1.651515,0 0,-1.6515151 -1.651515,0 z m 8.257575,-1.6515152 0,1.6515152 1.651515,0 0,-1.6515152 -1.651515,0 z m -4.954545,6.6060607 0,1.651515 1.651515,0 0,-1.651515 -1.651515,0 z m 1.651515,1.651515 0,1.651515 1.651515,0 1.651515,0 0,-1.651515 -1.651515,0 -1.651515,0 z m 3.30303,0 1.651515,0 0,-1.651515 -1.651515,0 0,1.651515 z m -14.863636,0 0,1.651515 1.651515,0 0,-1.651515 -1.651515,0 z m 1.651515,1.651515 0,1.651515 1.651515,0 0,-1.651515 -1.651515,0 z m 1.651515,1.651515 0,1.651516 1.651515,0 0,-1.651516 -1.651515,0 z m 1.651515,0 1.651516,0 1.651515,0 0,-1.651515 -1.651515,0 -1.651516,0 0,1.651515 z"
       id="rect4373-79"
       inkscape:connector-curvature="0" />
    <path
       style="text-decoration:none;color:#000000;fill:#edfafa;fill-opacity:1;fill-rule:nonzero;stroke:none;visibility:visible;display:inline;overflow:visible;enable-background:accumulate"
       d="m 29.280302,4.0515152 0,1.6515151 1.651515,0 0,-1.6515151 -1.651515,0 z m -9.909091,1.6515151 0,1.6515152 1.651515,0 0,-1.6515152 -1.651515,0 z m 0,1.6515152 -1.651515,0 0,1.6515151 -1.651515,0 0,1.6515154 0,1.651515 0,1.651515 1.651515,0 0,1.651515 1.651515,0 1.651515,0 0,-1.651515 0,-1.651515 1.651516,0 1.651515,0 0,-1.651515 0,-1.6515154 -1.651515,0 0,1.6515154 -1.651516,0 -1.651515,0 0,-1.6515154 0,-1.6515151 z m 6.606061,0 0,1.6515151 0,1.6515154 0,1.651515 1.651515,0 0,-1.651515 1.651515,0 1.651515,0 0,1.651515 1.651515,0 0,-1.651515 0,-1.6515154 0,-1.6515151 -1.651515,0 0,1.6515151 -1.651515,0 0,-1.6515151 -1.651515,0 -1.651515,0 z"
       id="rect4373-65"
       inkscape:connector-curvature="0" />
    <path
       style="text-decoration:none;color:#000000;fill:#fafae2;fill-opacity:1;fill-rule:nonzero;stroke:none;visibility:visible;display:inline;overflow:visible;enable-background:accumulate"
       d="m 27.628787,5.7030303 0,1.6515152 1.651515,0 0,1.6515151 1.651515,0 0,-1.6515151 0,-1.6515152 -1.651515,0 -1.651515,0 z m -8.257576,1.6515152 0,1.6515151 0,1.6515154 1.651515,0 1.651516,0 0,-1.6515154 0,-1.6515151 -1.651516,0 -1.651515,0 z"
       id="rect4373-84"
       inkscape:connector-curvature="0" />
    <path
       style="text-decoration:none;color:#000000;fill:#a46293;fill-opacity:1;fill-rule:nonzero;stroke:none;visibility:visible;display:inline;overflow:visible;enable-background:accumulate"
       d="m 24.325757,7.3545455 0,1.6515151 1.651515,0 0,-1.6515151 -1.651515,0 z m 3.30303,3.3030305 0,1.651515 0,1.651515 1.651515,0 1.651515,0 0,-1.651515 0,-1.651515 -1.651515,0 -1.651515,0 z m -6.606061,1.651515 0,1.651515 0,1.651515 1.651516,0 1.651515,0 0,-1.651515 0,-1.651515 -1.651515,0 -1.651516,0 z"
       id="rect4373-848"
       inkscape:connector-curvature="0" />
    <path
       style="text-decoration:none;color:#000000;fill:#3ba988;fill-opacity:1;fill-rule:nonzero;stroke:none;visibility:visible;display:inline;overflow:visible;enable-background:accumulate"
       d="m 24.325757,9.0060606 0,1.6515154 0,1.651515 1.651515,0 0,-1.651515 0,-1.6515154 -1.651515,0 z"
       id="rect4373-0"
       inkscape:connector-curvature="0" />
    <path
       style="text-decoration:none;color:#000000;fill:#007a7c;fill-opacity:1;fill-rule:nonzero;stroke:none;visibility:visible;display:inline;overflow:visible;enable-background:accumulate"
       d="m 24.325757,12.309091 0,1.651515 0,1.651515 1.651515,0 0,-1.651515 0,-1.651515 -1.651515,0 z"
       id="rect4373-808"
       inkscape:connector-curvature="0" />
    <path
       style="text-decoration:none;color:#000000;fill:#b6e0f7;fill-opacity:1;fill-rule:nonzero;stroke:none;visibility:visible;display:inline;overflow:visible;enable-background:accumulate"
       d="m 25.977272,13.960606 0,1.651515 1.651515,0 0,-1.651515 -1.651515,0 z m 1.651515,1.651515 0,1.651515 1.651515,0 1.651515,0 0,-1.651515 -1.651515,0 -1.651515,0 z m 3.30303,0 1.651515,0 0,-1.651515 -1.651515,0 0,1.651515 z"
       id="rect4373-27"
       inkscape:connector-curvature="0" />
    <rect
       style="text-decoration:none;color:#000000;fill:#007a7c;fill-opacity:1;fill-rule:nonzero;stroke:none;visibility:visible;display:inline;overflow:visible;enable-background:accumulate"
       id="rect4373-44-9"
       width="1.6515151"
       height="1.6515151"
       x="30.931822"
       y="15.612078" />
    <path
       style="text-decoration:none;color:#000000;fill:#007a7c;fill-opacity:1;fill-rule:nonzero;stroke:none;visibility:visible;display:inline;overflow:visible;enable-background:accumulate"
       d="m 25.977272,15.612121 0,1.651515 1.651515,0 0,-1.651515 -1.651515,0 z m 1.651515,1.651515 0,1.651516 1.651515,0 0,-1.651516 -1.651515,0 z m -11.560606,0 0,1.651516 1.651515,0 0,-1.651516 -1.651515,0 z m 1.651515,1.651516 0,1.651515 1.651515,0 1.651515,0 0,-1.651515 -1.651515,0 -1.651515,0 z m 19.818182,4.954545 0,1.651515 1.651515,0 0,-1.651515 -1.651515,0 z m 1.651515,1.651515 0,1.651515 1.651515,0 0,-1.651515 -1.651515,0 z m -1.651515,0 -1.651515,0 0,1.651515 1.651515,0 0,-1.651515 z m -1.651515,1.651515 -1.651515,0 0,1.651515 1.651515,0 0,-1.651515 z m -1.651515,0 0,-1.651515 -1.651516,0 0,1.651515 1.651516,0 z m -16.515152,-1.651515 0,1.651515 1.651515,0 0,-1.651515 -1.651515,0 z m 1.651515,1.651515 0,1.651515 1.651515,0 0,-1.651515 -1.651515,0 z m 1.651515,1.651515 0,1.651516 1.651516,0 0,-1.651516 -1.651516,0 z m 1.651516,0 1.651515,0 0,-1.651515 -1.651515,0 0,1.651515 z m 1.651515,-1.651515 1.651515,0 0,-1.651515 -1.651515,0 0,1.651515 z m 1.651515,0 0,1.651515 1.651515,0 0,-1.651515 -1.651515,0 z m 1.651515,1.651515 0,1.651516 1.651515,0 0,-1.651516 -1.651515,0 z m 1.651515,0 1.651515,0 0,-1.651515 -1.651515,0 0,1.651515 z m -11.560606,-1.651515 -1.651515,0 0,1.651515 1.651515,0 0,-1.651515 z"
       id="rect4373-44-94"
       inkscape:connector-curvature="0" />
    <path
       style="text-decoration:none;color:#000000;fill:#3ba988;fill-opacity:1;fill-rule:nonzero;stroke:none;visibility:visible;display:inline;overflow:visible;enable-background:accumulate"
       d="m 24.325757,15.612121 0,1.651515 1.651515,0 0,-1.651515 -1.651515,0 z m 0,1.651515 -1.651515,0 0,1.651516 1.651515,0 0,-1.651516 z m -1.651515,1.651516 -1.651516,0 0,1.651515 1.651516,0 0,-1.651515 z"
       id="rect4373-44-3"
       inkscape:connector-curvature="0" />
    <path
       style="text-decoration:none;color:#000000;fill:#b6e0f7;fill-opacity:1;fill-rule:nonzero;stroke:none;visibility:visible;display:inline;overflow:visible;enable-background:accumulate"
       d="m 16.068181,15.612121 0,1.651515 1.651515,0 0,-1.651515 -1.651515,0 z m 1.651515,1.651515 0,1.651516 1.651515,0 0,-1.651516 -1.651515,0 z m 1.651515,0 1.651515,0 0,-1.651515 -1.651515,0 0,1.651515 z m 1.651515,0 0,1.651516 1.651516,0 0,-1.651516 -1.651516,0 z"
       id="rect4373-44-95"
       inkscape:connector-curvature="0" />
    <path
       style="text-decoration:none;color:#000000;fill:#47c08c;fill-opacity:1;fill-rule:nonzero;stroke:none;visibility:visible;display:inline;overflow:visible;enable-background:accumulate"
       d="m 24.325757,17.263636 0,1.651516 1.651515,0 1.651515,0 0,-1.651516 -1.651515,0 -1.651515,0 z m 0,1.651516 -1.651515,0 0,1.651515 1.651515,0 0,-1.651515 z"
       id="rect4373-44-2"
       inkscape:connector-curvature="0" />
    <rect
       style="text-decoration:none;color:#000000;fill:#15b784;fill-opacity:1;fill-rule:nonzero;stroke:none;visibility:visible;display:inline;overflow:visible;enable-background:accumulate"
       id="rect4373-44-561"
       width="1.6515151"
       height="1.6515151"
       x="29.280306"
       y="17.263594" />
    <path
       style="text-decoration:none;color:#000000;fill:#97f044;fill-opacity:1;fill-rule:nonzero;stroke:none;visibility:visible;display:inline;overflow:visible;enable-background:accumulate"
       d="m 30.931817,17.263636 0,1.651516 1.651515,0 0,-1.651516 -1.651515,0 z m 0,1.651516 -1.651515,0 -1.651515,0 -1.651515,0 0,1.651515 -1.651515,0 0,1.651515 0,1.651515 0,1.651515 1.651515,0 0,-1.651515 1.651515,0 0,1.651515 0,1.651515 1.651515,0 0,-1.651515 1.651515,0 1.651515,0 0,-1.651515 -1.651515,0 0,-1.651515 -1.651515,0 0,-1.651515 1.651515,0 0,-1.651515 z m 3.303031,0 0,1.651515 1.651515,0 0,1.651515 -1.651515,0 0,1.651515 0,1.651515 1.651515,0 0,-1.651515 1.651515,0 1.651515,0 0,-1.651515 -1.651515,0 0,-1.651515 0,-1.651515 -1.651515,0 -1.651515,0 z"
       id="rect4373-44-06"
       inkscape:connector-curvature="0" />
    <rect
       style="text-decoration:none;color:#000000;fill:#42d551;fill-opacity:1;fill-rule:nonzero;stroke:none;visibility:visible;display:inline;overflow:visible;enable-background:accumulate"
       id="rect4373-44-088"
       width="1.6515151"
       height="1.6515151"
       x="32.583336"
       y="17.263594" />
    <rect
       style="text-decoration:none;color:#000000;fill:#47c08c;fill-opacity:1;fill-rule:nonzero;stroke:none;visibility:visible;display:inline;overflow:visible;enable-background:accumulate"
       id="rect4373-44-82"
       width="1.6515151"
       height="1.6515151"
       x="34.234852"
       y="17.263594" />
    <path
       style="text-decoration:none;color:#000000;fill:#484748;fill-opacity:1;fill-rule:nonzero;stroke:none;visibility:visible;display:inline;overflow:visible;enable-background:accumulate"
       d="m 40.840908,22.218182 0,1.651515 0,1.651515 0,1.651515 1.651515,0 0,-1.651515 0,-1.651515 0,-1.651515 -1.651515,0 z m 0,4.954545 -1.651515,0 0,1.651515 1.651515,0 0,-1.651515 z m -1.651515,1.651515 -1.651515,0 0,1.651516 1.651515,0 0,-1.651516 z m -1.651515,1.651516 -1.651515,0 -1.651515,0 0,1.651515 1.651515,0 1.651515,0 0,-1.651515 z m -3.30303,1.651515 -1.651516,0 -1.651515,0 0,1.651515 1.651515,0 1.651516,0 0,-1.651515 z"
       id="rect4373-44-12"
       inkscape:connector-curvature="0" />
    <path
       style="text-decoration:none;color:#000000;fill:#42d551;fill-opacity:1;fill-rule:nonzero;stroke:none;visibility:visible;display:inline;overflow:visible;enable-background:accumulate"
       d="m 37.537878,20.566667 0,1.651515 1.651515,0 0,-1.651515 -1.651515,0 z m 1.651515,1.651515 0,1.651515 0,1.651515 1.651515,0 0,-1.651515 0,-1.651515 -1.651515,0 z"
       id="rect4373-44-54"
       inkscape:connector-curvature="0" />
    <path
       style="text-decoration:none;color:#000000;fill:#15b784;fill-opacity:1;fill-rule:nonzero;stroke:none;visibility:visible;display:inline;overflow:visible;enable-background:accumulate"
       d="m 37.537878,18.915152 0,1.651515 1.651515,0 0,-1.651515 -1.651515,0 z m 1.651515,1.651515 0,1.651515 1.651515,0 0,-1.651515 -1.651515,0 z m -1.651515,4.954545 0,1.651515 0,1.651515 1.651515,0 0,-1.651515 0,-1.651515 -1.651515,0 z"
       id="rect4373-44-79"
       inkscape:connector-curvature="0" />
    <path
       style="text-decoration:none;color:#000000;fill:#42d551;fill-opacity:1;fill-rule:nonzero;stroke:none;visibility:visible;display:inline;overflow:visible;enable-background:accumulate"
       d="m 32.583332,27.172727 0,1.651515 1.651516,0 0,-1.651515 -1.651516,0 z m 1.651516,1.651515 0,1.651516 1.651515,0 0,-1.651516 -1.651515,0 z m 1.651515,0 1.651515,0 0,-1.651515 -1.651515,0 0,1.651515 z m -3.303031,0 -1.651515,0 -1.651515,0 0,1.651516 -1.651515,0 -1.651515,0 0,1.651515 1.651515,0 1.651515,0 1.651515,0 1.651515,0 0,-1.651515 0,-1.651516 z"
       id="rect4373-44-48"
       inkscape:connector-curvature="0" />
    <path
       style="text-decoration:none;color:#000000;fill:#cff2b7;fill-opacity:1;fill-rule:nonzero;stroke:none;visibility:visible;display:inline;overflow:visible;enable-background:accumulate"
       d="m 32.583332,23.869697 0,1.651515 1.651516,0 0,-1.651515 -1.651516,0 z m 1.651516,1.651515 0,1.651515 1.651515,0 0,-1.651515 -1.651515,0 z m 1.651515,0 1.651515,0 0,-1.651515 -1.651515,0 0,1.651515 z m -9.909091,0 0,1.651515 1.651515,0 0,-1.651515 -1.651515,0 z m 1.651515,1.651515 0,1.651515 1.651515,0 0,-1.651515 -1.651515,0 z m 1.651515,0 1.651515,0 0,-1.651515 -1.651515,0 0,1.651515 z"
       id="rect4373-44-557"
       inkscape:connector-curvature="0" />
    <path
       style="text-decoration:none;color:#000000;fill:#d9f770;fill-opacity:1;fill-rule:nonzero;stroke:none;visibility:visible;display:inline;overflow:visible;enable-background:accumulate"
       d="m 30.931817,18.915152 0,1.651515 -1.651515,0 0,1.651515 1.651515,0 0,1.651515 1.651515,0 1.651516,0 0,-1.651515 1.651515,0 0,-1.651515 -1.651515,0 0,-1.651515 -1.651516,0 -1.651515,0 z"
       id="rect4373-44-80"
       inkscape:connector-curvature="0" />
    <rect
       style="text-decoration:none;color:#000000;fill:#3ba988;fill-opacity:1;fill-rule:nonzero;stroke:none;visibility:visible;display:inline;overflow:visible;enable-background:accumulate"
       id="rect4373-44-40"
       width="1.6515151"
       height="1.6515151"
       x="30.931822"
       y="25.52117" />
    <rect
       style="text-decoration:none;color:#000000;fill:#47c08c;fill-opacity:1;fill-rule:nonzero;stroke:none;visibility:visible;display:inline;overflow:visible;enable-background:accumulate"
       id="rect4373-44-05"
       width="1.6515151"
       height="1.6515151"
       x="30.931822"
       y="27.172684" />
    <path
       style="text-decoration:none;color:#000000;fill:#47c08c;fill-opacity:1;fill-rule:nonzero;stroke:none;visibility:visible;display:inline;overflow:visible;enable-background:accumulate"
       d="m 24.325757,27.172727 0,1.651515 -1.651515,0 0,1.651516 1.651515,0 0,1.651515 1.651515,0 0,-1.651515 1.651515,0 0,-1.651516 -1.651515,0 0,-1.651515 -1.651515,0 z m 11.560606,1.651515 0,1.651516 1.651515,0 0,-1.651516 -1.651515,0 z m -3.303031,1.651516 0,1.651515 1.651516,0 0,-1.651515 -1.651516,0 z"
       id="rect4373-44-616"
       inkscape:connector-curvature="0" />
    <rect
       style="text-decoration:none;color:#000000;fill:#97f044;fill-opacity:1;fill-rule:nonzero;stroke:none;visibility:visible;display:inline;overflow:visible;enable-background:accumulate"
       id="rect4373-44-552"
       width="1.6515151"
       height="1.6515151"
       x="32.583336"
       y="28.8242" />
    <path
       style="text-decoration:none;color:#000000;fill:#007a7c;fill-opacity:1;fill-rule:nonzero;stroke:none;visibility:visible;display:inline;overflow:visible;enable-background:accumulate"
       d="m 24.325757,32.127273 0,1.651515 1.651515,0 1.651515,0 1.651515,0 1.651515,0 0,-1.651515 -1.651515,0 -1.651515,0 -1.651515,0 -1.651515,0 z"
       id="rect4373-44-21"
       inkscape:connector-curvature="0" />
    <path
       style="text-decoration:none;color:#000000;fill:#42d551;fill-opacity:1;fill-rule:nonzero;stroke:none;visibility:visible;display:inline;overflow:visible;enable-background:accumulate"
       d="m 22.674242,35.430303 0,1.651515 -1.651516,0 -1.651515,0 0,1.651515 0,1.651515 1.651515,0 1.651516,0 0,-1.651515 1.651515,0 0,-1.651515 1.651515,0 0,-1.651515 -1.651515,0 -1.651515,0 z m 4.954545,0 0,1.651515 1.651515,0 0,-1.651515 -1.651515,0 z m -14.863636,8.257576 0,1.651515 1.651515,0 0,-1.651515 -1.651515,0 z m 19.818181,0 0,1.651515 1.651516,0 0,-1.651515 -1.651516,0 z m 3.303031,0 0,1.651515 1.651515,0 0,-1.651515 -1.651515,0 z"
       id="rect4373-44-470"
       inkscape:connector-curvature="0" />
    <rect
       style="text-decoration:none;color:#000000;fill:#484748;fill-opacity:1;fill-rule:nonzero;stroke:none;visibility:visible;display:inline;overflow:visible;enable-background:accumulate"
       id="rect4373-44-558"
       width="1.6515151"
       height="1.6515151"
       x="40.840912"
       y="42.03632" />
    <rect
       style="text-decoration:none;color:#000000;fill:#484748;fill-opacity:1;fill-rule:nonzero;stroke:none;visibility:visible;display:inline;overflow:visible;enable-background:accumulate"
       id="rect4373-44-04"
       width="1.6515151"
       height="1.6515151"
       x="40.840912"
       y="43.687836" />
    <rect
       style="text-decoration:none;color:#000000;fill:#484748;fill-opacity:1;fill-rule:nonzero;stroke:none;visibility:visible;display:inline;overflow:visible;enable-background:accumulate"
       id="rect4373-44-855"
       width="1.6515151"
       height="1.6515151"
       x="39.189396"
       y="43.687836" />
    <rect
       style="text-decoration:none;color:#000000;fill:#007a7c;fill-opacity:1;fill-rule:nonzero;stroke:none;visibility:visible;display:inline;overflow:visible;enable-background:accumulate"
       id="rect4373-44-25"
       width="1.6515151"
       height="1.6515151"
       x="37.537884"
       y="43.687836" />
    <path
       style="text-decoration:none;color:#000000;fill:#47c08c;fill-opacity:1;fill-rule:nonzero;stroke:none;visibility:visible;display:inline;overflow:visible;enable-background:accumulate"
       d="m 35.886363,38.733333 0,1.651515 -1.651515,0 0,1.651516 1.651515,0 1.651515,0 0,-1.651516 1.651515,0 0,-1.651515 -1.651515,0 -1.651515,0 z m 3.30303,1.651515 0,1.651516 -1.651515,0 0,1.651515 1.651515,0 1.651515,0 0,-1.651515 0,-1.651516 -1.651515,0 z"
       id="rect4373-44-46"
       inkscape:connector-curvature="0" />
    <path
       style="text-decoration:none;color:#000000;fill:#007a7c;fill-opacity:1;fill-rule:nonzero;stroke:none;visibility:visible;display:inline;overflow:visible;enable-background:accumulate"
       d="m 30.931817,37.081818 0,1.651515 0,1.651515 0,1.651516 0,1.651515 1.651515,0 1.651516,0 1.651515,0 1.651515,0 0,-1.651515 -1.651515,0 -1.651515,0 -1.651516,0 0,-1.651516 1.651516,0 0,-1.651515 1.651515,0 0,-1.651515 -1.651515,0 -1.651516,0 -1.651515,0 z m 6.606061,4.954546 1.651515,0 0,-1.651516 -1.651515,0 0,1.651516 z m -6.606061,1.651515 -1.651515,0 0,1.651515 1.651515,0 0,-1.651515 z"
       id="rect4373-44-305"
       inkscape:connector-curvature="0" />
    <path
       style="text-decoration:none;color:#000000;fill:#3ba988;fill-opacity:1;fill-rule:nonzero;stroke:none;visibility:visible;display:inline;overflow:visible;enable-background:accumulate"
       d="m 34.234848,38.733333 0,1.651515 1.651515,0 0,-1.651515 -1.651515,0 z m 0,1.651515 -1.651516,0 0,1.651516 1.651516,0 0,-1.651516 z"
       id="rect4373-44-17"
       inkscape:connector-curvature="0" />
    <path
       style="text-decoration:none;color:#000000;fill:#97f044;fill-opacity:1;fill-rule:nonzero;stroke:none;visibility:visible;display:inline;overflow:visible;enable-background:accumulate"
       d="m 25.977272,35.430303 0,1.651515 -1.651515,0 0,1.651515 1.651515,0 1.651515,0 0,1.651515 1.651515,0 0,-1.651515 0,-1.651515 -1.651515,0 0,-1.651515 -1.651515,0 z m -13.212121,3.30303 0,1.651515 1.651515,0 0,-1.651515 -1.651515,0 z m 1.651515,3.303031 0,1.651515 1.651515,0 0,-1.651515 -1.651515,0 z m -3.303031,1.651515 0,1.651515 1.651516,0 0,-1.651515 -1.651516,0 z m 23.121213,0 0,1.651515 1.651515,0 0,-1.651515 -1.651515,0 z"
       id="rect4373-44-53"
       inkscape:connector-curvature="0" />
    <rect
       style="text-decoration:none;color:#000000;fill:#3ba988;fill-opacity:1;fill-rule:nonzero;stroke:none;visibility:visible;display:inline;overflow:visible;enable-background:accumulate"
       id="rect4373-44-264"
       width="1.6515151"
       height="1.6515151"
       x="30.931822"
       y="43.687836" />
    <rect
       style="text-decoration:none;color:#000000;fill:#15b784;fill-opacity:1;fill-rule:nonzero;stroke:none;visibility:visible;display:inline;overflow:visible;enable-background:accumulate"
       id="rect4373-44-32"
       width="1.6515151"
       height="1.6515151"
       x="29.280306"
       y="37.081776" />
    <path
       style="text-decoration:none;color:#000000;fill:#42d551;fill-opacity:1;fill-rule:nonzero;stroke:none;visibility:visible;display:inline;overflow:visible;enable-background:accumulate"
       d="m 29.280302,38.733333 0,1.651515 0,1.651516 1.651515,0 0,-1.651516 0,-1.651515 -1.651515,0 z"
       id="rect4373-44-799"
       inkscape:connector-curvature="0" />
    <path
       style="text-decoration:none;color:#000000;fill:#47c08c;fill-opacity:1;fill-rule:nonzero;stroke:none;visibility:visible;display:inline;overflow:visible;enable-background:accumulate"
       d="m 25.977272,38.733333 0,1.651515 1.651515,0 0,-1.651515 -1.651515,0 z m 1.651515,1.651515 0,1.651516 1.651515,0 0,-1.651516 -1.651515,0 z m 1.651515,1.651516 0,1.651515 1.651515,0 0,-1.651515 -1.651515,0 z"
       id="rect4373-44-910"
       inkscape:connector-curvature="0" />
    <path
       style="text-decoration:none;color:#000000;fill:#adcdee;fill-opacity:1;fill-rule:nonzero;stroke:none;visibility:visible;display:inline;overflow:visible;enable-background:accumulate"
       d="m 22.674242,40.384848 0,1.651516 1.651515,0 0,-1.651516 -1.651515,0 z m 0,1.651516 -1.651516,0 0,1.651515 1.651516,0 0,-1.651515 z m 0,1.651515 0,1.651515 1.651515,0 1.651515,0 0,-1.651515 -1.651515,0 -1.651515,0 z m 4.954545,-1.651515 0,1.651515 0,1.651515 1.651515,0 0,-1.651515 0,-1.651515 -1.651515,0 z"
       id="rect4373-44-424"
       inkscape:connector-curvature="0" />
    <path
       style="text-decoration:none;color:#000000;fill:#b6e0f7;fill-opacity:1;fill-rule:nonzero;stroke:none;visibility:visible;display:inline;overflow:visible;enable-background:accumulate"
       d="m 24.325757,40.384848 0,1.651516 -1.651515,0 0,1.651515 1.651515,0 1.651515,0 0,1.651515 1.651515,0 0,-1.651515 0,-1.651515 0,-1.651516 -1.651515,0 -1.651515,0 z"
       id="rect4373-44-309"
       inkscape:connector-curvature="0" />
    <path
       style="text-decoration:none;color:#000000;fill:#3ba988;fill-opacity:1;fill-rule:nonzero;stroke:none;visibility:visible;display:inline;overflow:visible;enable-background:accumulate"
       d="m 24.325757,33.778788 0,1.651515 1.651515,0 1.651515,0 0,-1.651515 -1.651515,0 -1.651515,0 z"
       id="rect4373-44-979"
       inkscape:connector-curvature="0" />
    <rect
       style="text-decoration:none;color:#000000;fill:#97f044;fill-opacity:1;fill-rule:nonzero;stroke:none;visibility:visible;display:inline;overflow:visible;enable-background:accumulate"
       id="rect4373-44-28"
       width="1.6515151"
       height="1.6515151"
       x="25.977276"
       y="23.869654" />
    <path
       style="text-decoration:none;color:#000000;fill:#42d551;fill-opacity:1;fill-rule:nonzero;stroke:none;visibility:visible;display:inline;overflow:visible;enable-background:accumulate"
       d="m 24.325757,18.915152 0,1.651515 1.651515,0 0,-1.651515 -1.651515,0 z m 0,1.651515 -1.651515,0 -1.651516,0 0,1.651515 0,1.651515 0,1.651515 -1.651515,0 0,1.651515 1.651515,0 0,1.651515 1.651516,0 0,-1.651515 1.651515,0 0,-1.651515 0,-1.651515 0,-1.651515 0,-1.651515 z"
       id="rect4373-44-480"
       inkscape:connector-curvature="0" />
    <path
       style="text-decoration:none;color:#000000;fill:#007a7c;fill-opacity:1;fill-rule:nonzero;stroke:none;visibility:visible;display:inline;overflow:visible;enable-background:accumulate"
       d="m 21.022726,33.778788 0,1.651515 1.651516,0 1.651515,0 0,-1.651515 -1.651515,0 -1.651516,0 z"
       id="rect4373-44-774"
       inkscape:connector-curvature="0" />
    <path
       style="text-decoration:none;color:#000000;fill:#3ba988;fill-opacity:1;fill-rule:nonzero;stroke:none;visibility:visible;display:inline;overflow:visible;enable-background:accumulate"
       d="m 17.719696,27.172727 0,1.651515 -1.651515,0 0,1.651516 1.651515,0 1.651515,0 0,1.651515 1.651515,0 1.651516,0 1.651515,0 0,-1.651515 -1.651515,0 -1.651516,0 0,-1.651516 -1.651515,0 0,-1.651515 -1.651515,0 z"
       id="rect4373-44-60"
       inkscape:connector-curvature="0" />
    <path
       style="text-decoration:none;color:#000000;fill:#15b784;fill-opacity:1;fill-rule:nonzero;stroke:none;visibility:visible;display:inline;overflow:visible;enable-background:accumulate"
       d="m 16.068181,18.915152 0,1.651515 -1.651515,0 0,1.651515 0,1.651515 0,1.651515 1.651515,0 1.651515,0 0,-1.651515 1.651515,0 0,1.651515 1.651515,0 0,-1.651515 0,-1.651515 0,-1.651515 -1.651515,0 -1.651515,0 0,-1.651515 -1.651515,0 z m -1.651515,6.60606 -1.651515,0 0,1.651515 1.651515,0 0,-1.651515 z"
       id="rect4373-44-994"
       inkscape:connector-curvature="0" />
    <path
       style="text-decoration:none;color:#000000;fill:#484748;fill-opacity:1;fill-rule:nonzero;stroke:none;visibility:visible;display:inline;overflow:visible;enable-background:accumulate"
       d="m 11.113635,22.218182 0,1.651515 0,1.651515 1.651516,0 0,-1.651515 0,-1.651515 -1.651516,0 z m 1.651516,4.954545 0,1.651515 1.651515,0 0,-1.651515 -1.651515,0 z m 1.651515,1.651515 0,1.651516 1.651515,0 0,-1.651516 -1.651515,0 z m 1.651515,1.651516 0,1.651515 1.651515,0 1.651515,0 0,-1.651515 -1.651515,0 -1.651515,0 z m 3.30303,1.651515 0,1.651515 1.651515,0 0,-1.651515 -1.651515,0 z"
       id="rect4373-44-180"
       inkscape:connector-curvature="0" />
    <path
       style="text-decoration:none;color:#000000;fill:#42d551;fill-opacity:1;fill-rule:nonzero;stroke:none;visibility:visible;display:inline;overflow:visible;enable-background:accumulate"
       d="m 14.416666,18.915152 0,1.651515 1.651515,0 0,-1.651515 -1.651515,0 z m 0,1.651515 -1.651515,0 0,1.651515 0,1.651515 0,1.651515 1.651515,0 0,-1.651515 0,-1.651515 0,-1.651515 z m 0,4.954545 0,1.651515 0,1.651515 1.651515,0 0,-1.651515 1.651515,0 0,-1.651515 -1.651515,0 -1.651515,0 z m 3.30303,0 1.651515,0 0,-1.651515 -1.651515,0 0,1.651515 z"
       id="rect4373-44-27"
       inkscape:connector-curvature="0" />
    <rect
       style="text-decoration:none;color:#000000;fill:#007a7c;fill-opacity:1;fill-rule:nonzero;stroke:none;visibility:visible;display:inline;overflow:visible;enable-background:accumulate"
       id="rect4373-44-9368"
       width="1.6515151"
       height="1.6515151"
       x="11.11364"
       y="20.566624" />
    <path
       style="text-decoration:none;color:#000000;fill:#3ba988;fill-opacity:1;fill-rule:nonzero;stroke:none;visibility:visible;display:inline;overflow:visible;enable-background:accumulate"
       d="m 22.674242,38.733333 0,1.651515 1.651515,0 1.651515,0 0,-1.651515 -1.651515,0 -1.651515,0 z m 0,1.651515 -1.651516,0 0,1.651516 1.651516,0 0,-1.651516 z m -1.651516,1.651516 -1.651515,0 0,1.651515 1.651515,0 0,-1.651515 z m 0,1.651515 0,1.651515 1.651516,0 0,-1.651515 -1.651516,0 z"
       id="rect4373-44-638"
       inkscape:connector-curvature="0" />
    <path
       style="text-decoration:none;color:#000000;fill:#15b784;fill-opacity:1;fill-rule:nonzero;stroke:none;visibility:visible;display:inline;overflow:visible;enable-background:accumulate"
       d="m 7.8106052,38.733333 0,1.651515 1.6515151,0 1.6515147,0 0,-1.651515 -1.6515147,0 -1.6515151,0 z m 3.3030298,1.651515 0,1.651516 1.651516,0 1.651515,0 1.651515,0 0,-1.651516 -1.651515,0 -1.651515,0 -1.651516,0 z m -3.3030298,0 -1.6515152,0 0,1.651516 1.6515152,0 0,-1.651516 z"
       id="rect4373-44-683"
       inkscape:connector-curvature="0" />
    <path
       style="text-decoration:none;color:#000000;fill:#484748;fill-opacity:1;fill-rule:nonzero;stroke:none;visibility:visible;display:inline;overflow:visible;enable-background:accumulate"
       d="m 4.5075749,40.384848 0,1.651516 0,1.651515 0,1.651515 1.6515151,0 0,-1.651515 0,-1.651515 0,-1.651516 -1.6515151,0 z"
       id="rect4373-44-1241"
       inkscape:connector-curvature="0" />
    <path
       style="text-decoration:none;color:#000000;fill:#42d551;fill-opacity:1;fill-rule:nonzero;stroke:none;visibility:visible;display:inline;overflow:visible;enable-background:accumulate"
       d="m 11.113635,38.733333 0,1.651515 1.651516,0 0,-1.651515 -1.651516,0 z m 0,1.651515 -1.6515147,0 -1.6515151,0 0,1.651516 -1.6515152,0 0,1.651515 0,1.651515 1.6515152,0 1.6515151,0 0,-1.651515 1.6515147,0 0,-1.651515 0,-1.651516 z"
       id="rect4373-44-818"
       inkscape:connector-curvature="0" />
    <path
       style="text-decoration:none;color:#000000;fill:#d9f770;fill-opacity:1;fill-rule:nonzero;stroke:none;visibility:visible;display:inline;overflow:visible;enable-background:accumulate"
       d="m 11.113635,42.036364 0,1.651515 1.651516,0 1.651515,0 0,-1.651515 -1.651515,0 -1.651516,0 z m 0,1.651515 -1.6515147,0 0,1.651515 1.6515147,0 0,-1.651515 z"
       id="rect4373-44-378"
       inkscape:connector-curvature="0" />
    <path
       style="text-decoration:none;color:#000000;fill:#007a7c;fill-opacity:1;fill-rule:nonzero;stroke:none;visibility:visible;display:inline;overflow:visible;enable-background:accumulate"
       d="m 16.068181,38.733333 0,1.651515 0,1.651516 0,1.651515 -1.651515,0 0,1.651515 1.651515,0 1.651515,0 1.651515,0 1.651515,0 0,-1.651515 -1.651515,0 -1.651515,0 0,-1.651515 0,-1.651516 0,-1.651515 -1.651515,0 z"
       id="rect4373-44-7990"
       inkscape:connector-curvature="0" />
    <path
       style="text-decoration:none;color:#000000;fill:#47c08c;fill-opacity:1;fill-rule:nonzero;stroke:none;visibility:visible;display:inline;overflow:visible;enable-background:accumulate"
       d="m 19.371211,35.430303 0,1.651515 1.651515,0 1.651516,0 0,-1.651515 -1.651516,0 -1.651515,0 z m 0,1.651515 -1.651515,0 0,1.651515 0,1.651515 0,1.651516 0,1.651515 1.651515,0 0,-1.651515 1.651515,0 0,-1.651516 -1.651515,0 0,-1.651515 0,-1.651515 z"
       id="rect4373-44-765"
       inkscape:connector-curvature="0" />
  </g>
</svg>
