<?xml version="1.0" encoding="UTF-8" standalone="no"?>
<!-- Created with Inkscape (http://www.inkscape.org/) -->

<svg
   width="48"
   height="48"
   id="svg2"
   version="1.1"
   inkscape:version="0.48.5 r10040"
   sodipodi:docname="gmail-plasmoid.svg">
  <defs
     id="defs4">
    <linearGradient
       id="linearGradient5188">
      <stop
         style="stop-color:#2c77cc;stop-opacity:1;"
         offset="0"
         id="stop5190" />
      <stop
         style="stop-color:#558ad8;stop-opacity:0.99803919;"
         offset="1"
         id="stop5192" />
    </linearGradient>
    <linearGradient
       inkscape:collect="always"
       id="linearGradient4709">
      <stop
         style="stop-color:#e2e7ef;stop-opacity:1"
         offset="0"
         id="stop4711" />
      <stop
         style="stop-color:#eceef1;stop-opacity:1"
         offset="1"
         id="stop4713" />
    </linearGradient>
    <linearGradient
       inkscape:collect="always"
       id="linearGradient4691">
      <stop
         style="stop-color:#edf0f5;stop-opacity:1"
         offset="0"
         id="stop4693" />
      <stop
         style="stop-color:#eceff4;stop-opacity:1"
         offset="1"
         id="stop4695" />
    </linearGradient>
    <linearGradient
       inkscape:collect="always"
       xlink:href="#linearGradient4691"
       id="linearGradient4697"
       x1="36.25"
       y1="-1052.3622"
       x2="36.25"
       y2="-1004.376"
       gradientUnits="userSpaceOnUse"
       gradientTransform="matrix(0.833334,0,0,0.833334,3.9999845,-171.39302)" />
    <linearGradient
       inkscape:collect="always"
       xlink:href="#linearGradient4709"
       id="linearGradient4715"
       x1="25.367456"
       y1="48.088387"
       x2="25.367456"
       y2="24.046759"
       gradientUnits="userSpaceOnUse" />
    <linearGradient
       inkscape:collect="always"
       xlink:href="#linearGradient4709"
       id="linearGradient5169"
       gradientUnits="userSpaceOnUse"
       x1="0"
       y1="40"
       x2="48"
       y2="40"
       gradientTransform="matrix(0.833334,0,0,-0.833334,3.9999845,1048.3622)" />
    <linearGradient
       inkscape:collect="always"
       xlink:href="#linearGradient5188"
       id="linearGradient5194"
       x1="3.125"
       y1="48"
       x2="3.125"
       y2="0.015625127"
       gradientUnits="userSpaceOnUse"
       gradientTransform="matrix(0.833334,0,0,0.6666672,3.9999845,1012.3622)" />
    <linearGradient
       inkscape:collect="always"
       xlink:href="#linearGradient5188"
       id="linearGradient5198"
       gradientUnits="userSpaceOnUse"
       x1="3.125"
       y1="48"
       x2="3.125"
       y2="0.015625127"
       gradientTransform="matrix(-0.833334,0,0,0.6666672,44.000016,1012.3622)" />
    <linearGradient
       inkscape:collect="always"
       xlink:href="#linearGradient5188"
       id="linearGradient5221"
       x1="24.748737"
       y1="28.20101"
       x2="24.748737"
       y2="5.043263"
       gradientUnits="userSpaceOnUse" />
    <linearGradient
       inkscape:collect="always"
       xlink:href="#linearGradient4709"
       id="linearGradient3017"
       gradientUnits="userSpaceOnUse"
       x1="25.367456"
       y1="48.088387"
       x2="25.367456"
       y2="24.046759" />
    <linearGradient
       inkscape:collect="always"
       xlink:href="#linearGradient4709"
       id="linearGradient3021"
       gradientUnits="userSpaceOnUse"
       x1="0"
       y1="46"
       x2="48"
       y2="46"
       gradientTransform="matrix(0.833334,0,0,0.833334,3.9999845,1008.3622)" />
    <linearGradient
       inkscape:collect="always"
       xlink:href="#linearGradient5188"
       id="linearGradient3026"
       gradientUnits="userSpaceOnUse"
       x1="0"
       y1="28"
       x2="45"
       y2="28"
       gradientTransform="matrix(0.833334,0,0,0.833334,3.9999845,1008.3622)" />
    <linearGradient
       inkscape:collect="always"
       xlink:href="#linearGradient5188"
       id="linearGradient3779"
       gradientUnits="userSpaceOnUse"
       gradientTransform="matrix(0.833334,0,0,0.6666672,3.9999845,1012.3622)"
       x1="3.125"
       y1="48"
       x2="3.125"
       y2="0.015625127" />
    <linearGradient
       inkscape:collect="always"
       xlink:href="#linearGradient5188"
       id="linearGradient3781"
       gradientUnits="userSpaceOnUse"
       gradientTransform="matrix(0.833334,0,0,0.833334,3.9999845,1008.3622)"
       x1="0"
       y1="28"
       x2="45"
       y2="28" />
  </defs>
  <sodipodi:namedview
     id="base"
     pagecolor="#ffffff"
     bordercolor="#666666"
     borderopacity="1.0"
     inkscape:pageopacity="0.0"
     inkscape:pageshadow="2"
     inkscape:zoom="5.6989127"
     inkscape:cx="16.533851"
     inkscape:cy="33.437091"
     inkscape:document-units="px"
     inkscape:current-layer="layer1"
     showgrid="true"
     inkscape:window-width="1301"
     inkscape:window-height="744"
     inkscape:window-x="65"
     inkscape:window-y="24"
     inkscape:window-maximized="1">
    <inkscape:grid
       type="xygrid"
       id="grid3850" />
  </sodipodi:namedview>
  <metadata
     id="metadata7">
    <rdf:RDF>
      <cc:Work
         rdf:about="">
        <dc:format>image/svg+xml</dc:format>
        <dc:type
           rdf:resource="http://purl.org/dc/dcmitype/StillImage" />
        <dc:title></dc:title>
      </cc:Work>
    </rdf:RDF>
  </metadata>
  <g
     inkscape:label="Capa 1"
     inkscape:groupmode="layer"
     id="layer1"
     transform="translate(0,-1004.3622)">
    <rect
       style="fill:url(#linearGradient4697);fill-opacity:1;stroke:none"
       id="rect2991-1-7"
       width="40.000031"
       height="40.000031"
       x="3.9999895"
       y="-1048.3622"
       ry="1.6204543"
       transform="scale(1,-1)" />
    <path
       id="path5196"
       d="m 42.378922,1012.3622 c 0.897731,0 1.621094,0.5786 1.621094,1.2969 l 0,29.4062 c 0,0.7183 -0.723363,1.2969 -1.621094,1.2969 l -2.545576,0 0,-32 2.545576,0 z"
       style="fill:url(#linearGradient5198);fill-opacity:1.0;stroke:none"
       inkscape:connector-curvature="0" />
    <path
       style="fill:url(#linearGradient3779);fill-opacity:1;stroke:none"
       d="m 5.6210796,1012.3622 c -0.8977317,0 -1.6210951,0.5786 -1.6210951,1.2969 l 0,29.4062 c 0,0.7183 0.7233634,1.2969 1.6210951,1.2969 l 2.5455749,0 0,-32 -2.5455749,0 z"
       id="rect5183"
       inkscape:connector-curvature="0" />
    <path
       id="path4722"
       d="m 24,1028.0289 -20.0000155,15 0,3.3789 c 0,0.8977 0.7233634,1.6211 1.6210951,1.6211 l 36.7578424,0 c 0.897731,0 1.621094,-0.7234 1.621094,-1.6211 l 0,-3.3789 -20.000016,-15 z"
       style="fill:#000000;fill-opacity:0.23529412;stroke:none"
       inkscape:connector-curvature="0" />
    <path
       inkscape:connector-curvature="0"
       style="fill:url(#linearGradient3021);fill-opacity:1;stroke:none"
       d="m 24,1028.3622 -20.0000155,15 0,3.3789 c 0,0.8978 0.7233634,1.6211 1.6210951,1.6211 l 36.7578424,0 c 0.897731,0 1.621094,-0.7233 1.621094,-1.6211 l 0,-3.3789 -20.000016,-15 z"
       id="rect4704" />
    <path
       inkscape:connector-curvature="0"
       style="fill:#000000;fill-opacity:0.23529412;stroke:none"
       d="m 24,1032.0289 -20.0000155,-15 0,-6.7123 c 0,-0.8977 0.7233634,-1.6211 1.6210951,-1.6211 l 36.7578424,0 c 0.897731,0 1.621094,0.7234 1.621094,1.6211 l 0,6.7123 z"
       id="path5163"
       sodipodi:nodetypes="ccsssscc" />
    <path
       id="path5165"
       d="m 24,1030.0289 -20.0000155,-15 0,-5.0456 c 0,-0.8978 0.7233634,-1.6211 1.6210951,-1.6211 l 36.7578424,0 c 0.897731,0 1.621094,0.7233 1.621094,1.6211 l 0,5.0456 z"
       style="fill:url(#linearGradient5169);fill-opacity:1;stroke:none"
       inkscape:connector-curvature="0"
       sodipodi:nodetypes="ccsssscc" />
    <path
       style="fill:url(#linearGradient3781);fill-opacity:1;stroke:none"
       d="m 3.9999845,1012.5289 0,4.1666 20.0000155,15 20.000016,-15 0,-4.1666 -20.000016,15 -20.0000155,-15 z"
       id="path5210"
       inkscape:connector-curvature="0" />
    <path
       style="opacity:0.5;fill:#000000;fill-opacity:1;stroke:none"
       d="m 6,1048.3622 0,0 c 18,-1 18,-1 36,0 z"
       id="path3257"
       inkscape:connector-curvature="0"
       sodipodi:nodetypes="cccc" />
    <path
       sodipodi:nodetypes="cccc"
       inkscape:connector-curvature="0"
       id="path4027"
       d="m 6,1008.3622 0,0 c 18,1 18,1 36,0 z"
       style="opacity:0.9;fill:#ffffff;fill-opacity:1;stroke:none" />
  </g>
</svg>
