<?xml version="1.0" encoding="UTF-8" standalone="no"?>
<!-- Created with Inkscape (http://www.inkscape.org/) -->

<svg
   xmlns:dc="http://purl.org/dc/elements/1.1/"
   xmlns:cc="http://creativecommons.org/ns#"
   xmlns:rdf="http://www.w3.org/1999/02/22-rdf-syntax-ns#"
   xmlns:svg="http://www.w3.org/2000/svg"
   xmlns="http://www.w3.org/2000/svg"
   xmlns:xlink="http://www.w3.org/1999/xlink"
   xmlns:sodipodi="http://sodipodi.sourceforge.net/DTD/sodipodi-0.dtd"
   xmlns:inkscape="http://www.inkscape.org/namespaces/inkscape"
   version="1.0"
   width="48"
   height="48"
   id="svg2408"
   style="display:inline"
   inkscape:version="0.48.4 r9939"
   sodipodi:docname="gnome-lightsoff.svg">
  <sodipodi:namedview
     pagecolor="#ffffff"
     bordercolor="#666666"
     borderopacity="1"
     objecttolerance="10"
     gridtolerance="10"
     guidetolerance="10"
     inkscape:pageopacity="0"
     inkscape:pageshadow="2"
     inkscape:window-width="1301"
     inkscape:window-height="744"
     id="namedview69"
     showgrid="true"
     inkscape:snap-bbox="true"
     inkscape:zoom="13.906433"
     inkscape:cx="-0.6225824"
     inkscape:cy="12.847875"
     inkscape:window-x="65"
     inkscape:window-y="24"
     inkscape:window-maximized="1"
     inkscape:current-layer="svg2408">
    <inkscape:grid
       type="xygrid"
       id="grid3081"
       empspacing="5"
       visible="true"
       enabled="true"
       snapvisiblegridlinesonly="true" />
  </sodipodi:namedview>
  <defs
     id="defs2410">
    <linearGradient
       id="linearGradient3997">
      <stop
         id="stop3999"
         style="stop-color:#ffffff;stop-opacity:1"
         offset="0" />
      <stop
         id="stop4001"
         style="stop-color:#ffffff;stop-opacity:0"
         offset="1" />
    </linearGradient>
    <linearGradient
       id="linearGradient3977">
      <stop
         id="stop3979"
         style="stop-color:#366598;stop-opacity:1"
         offset="0" />
      <stop
         id="stop3981"
         style="stop-color:#6593c3;stop-opacity:1"
         offset="1" />
    </linearGradient>
    <linearGradient
       id="linearGradient4941">
      <stop
         id="stop4943"
         style="stop-color:#2a2a2a;stop-opacity:1"
         offset="0" />
      <stop
         id="stop4945"
         style="stop-color:#4b4b4b;stop-opacity:1"
         offset="1" />
    </linearGradient>
    <linearGradient
       x1="45.447727"
       y1="92.539597"
       x2="45.447727"
       y2="7.0165396"
       id="ButtonShadow"
       gradientUnits="userSpaceOnUse"
       gradientTransform="scale(1.0058652,0.994169)">
      <stop
         id="stop3750"
         style="stop-color:#000000;stop-opacity:1"
         offset="0" />
      <stop
         id="stop3752"
         style="stop-color:#000000;stop-opacity:0.58823532"
         offset="1" />
    </linearGradient>
    <linearGradient
       id="linearGradient3737">
      <stop
         id="stop3739"
         style="stop-color:#ffffff;stop-opacity:1"
         offset="0" />
      <stop
         id="stop3741"
         style="stop-color:#ffffff;stop-opacity:0"
         offset="1" />
    </linearGradient>
    <linearGradient
       id="linearGradient3700">
      <stop
         id="stop3702"
         style="stop-color:#2276c5;stop-opacity:1"
         offset="0" />
      <stop
         id="stop3704"
         style="stop-color:#69a9e6;stop-opacity:1"
         offset="1" />
    </linearGradient>
    <linearGradient
       x1="48"
       y1="90"
       x2="48"
       y2="5.9877172"
       id="linearGradient3706"
       xlink:href="#linearGradient3700"
       gradientUnits="userSpaceOnUse" />
    <linearGradient
       x1="36.357143"
       y1="6"
       x2="36.357143"
       y2="63.893143"
       id="linearGradient3188"
       xlink:href="#linearGradient3737"
       gradientUnits="userSpaceOnUse" />
    <filter
       color-interpolation-filters="sRGB"
       id="filter7725">
      <feGaussianBlur
         id="feGaussianBlur7727"
         stdDeviation="1.71" />
    </filter>
    <linearGradient
       x1="-34.399559"
       y1="92.08268"
       x2="-34.399559"
       y2="7"
       id="linearGradient7959"
       xlink:href="#ButtonShadow"
       gradientUnits="userSpaceOnUse"
       gradientTransform="translate(100,0)" />
    <linearGradient
       x1="48"
       y1="90"
       x2="48"
       y2="5.9877172"
       id="linearGradient8096"
       xlink:href="#linearGradient3977"
       gradientUnits="userSpaceOnUse"
       gradientTransform="matrix(0.5,0,0,0.5,45.000008,-50.999998)" />
    <linearGradient
       x1="48"
       y1="90"
       x2="48"
       y2="5.9877172"
       id="linearGradient3975"
       xlink:href="#linearGradient4941"
       gradientUnits="userSpaceOnUse"
       gradientTransform="matrix(0.5,0,0,0.5,45.000008,-93)" />
    <linearGradient
       x1="48"
       y1="90"
       x2="48"
       y2="5.9877172"
       id="linearGradient3987"
       xlink:href="#linearGradient3977"
       gradientUnits="userSpaceOnUse"
       gradientTransform="matrix(0.5,0,0,0.5,3.000008,-92.999998)" />
    <linearGradient
       x1="48"
       y1="90"
       x2="48"
       y2="5.9877172"
       id="linearGradient3993"
       xlink:href="#linearGradient4941"
       gradientUnits="userSpaceOnUse"
       gradientTransform="matrix(0.5,0,0,0.5,3.000008,-51)" />
    <linearGradient
       x1="24"
       y1="48"
       x2="24"
       y2="88"
       id="linearGradient4003"
       xlink:href="#linearGradient3997"
       gradientUnits="userSpaceOnUse" />
    <linearGradient
       x1="24"
       y1="48"
       x2="24"
       y2="88"
       id="linearGradient4007"
       xlink:href="#linearGradient3997"
       gradientUnits="userSpaceOnUse"
       gradientTransform="translate(42,-42)" />
    <linearGradient
       x1="24"
       y1="48"
       x2="24"
       y2="88"
       id="linearGradient4011"
       xlink:href="#linearGradient3997"
       gradientUnits="userSpaceOnUse"
       gradientTransform="translate(0,-42)" />
    <linearGradient
       x1="24"
       y1="48"
       x2="24"
       y2="88"
       id="linearGradient4015"
       xlink:href="#linearGradient3997"
       gradientUnits="userSpaceOnUse"
       gradientTransform="translate(42,0)" />
    <linearGradient
       x1="45.447727"
       y1="92.539597"
       x2="45.447727"
       y2="7.0165396"
       id="ButtonShadow-5"
       gradientUnits="userSpaceOnUse"
       gradientTransform="scale(1.0058652,0.994169)">
      <stop
         id="stop3750-9"
         style="stop-color:#000000;stop-opacity:1"
         offset="0" />
      <stop
         id="stop3752-7"
         style="stop-color:#000000;stop-opacity:0.58823532"
         offset="1" />
    </linearGradient>
    <linearGradient
       x1="22"
       y1="94"
       x2="22"
       y2="5"
       id="linearGradient3990"
       xlink:href="#ButtonShadow-5"
       gradientUnits="userSpaceOnUse" />
    <linearGradient
       x1="29"
       y1="93"
       x2="29"
       y2="6"
       id="linearGradient3982"
       xlink:href="#ButtonShadow-5"
       gradientUnits="userSpaceOnUse" />
    <linearGradient
       x1="32"
       y1="91"
       x2="32"
       y2="7"
       id="linearGradient3973"
       xlink:href="#ButtonShadow-5"
       gradientUnits="userSpaceOnUse" />
    <linearGradient
       x1="32"
       y1="91"
       x2="32"
       y2="7.9458008"
       id="linearGradient3197-6"
       xlink:href="#ButtonShadow-5"
       gradientUnits="userSpaceOnUse" />
    <linearGradient
       x1="21"
       y1="95"
       x2="21"
       y2="4"
       id="linearGradient4047"
       xlink:href="#ButtonShadow-5"
       gradientUnits="userSpaceOnUse" />
    <linearGradient
       inkscape:collect="always"
       xlink:href="#linearGradient4941"
       id="linearGradient3060"
       gradientUnits="userSpaceOnUse"
       gradientTransform="matrix(0.23809524,0,0,0.23809524,2.5714304,-25.428574)"
       x1="48"
       y1="90"
       x2="48"
       y2="5.9877172" />
    <linearGradient
       inkscape:collect="always"
       xlink:href="#linearGradient3977"
       id="linearGradient3073"
       gradientUnits="userSpaceOnUse"
       gradientTransform="matrix(0.23809524,0,0,0.23809524,22.57143,-25.428573)"
       x1="48"
       y1="90"
       x2="48"
       y2="5.9877172" />
    <linearGradient
       inkscape:collect="always"
       xlink:href="#linearGradient4941"
       id="linearGradient3077"
       gradientUnits="userSpaceOnUse"
       gradientTransform="matrix(0.23809524,0,0,0.23809524,22.57143,-45.428574)"
       x1="48"
       y1="90"
       x2="48"
       y2="5.9877172" />
    <linearGradient
       inkscape:collect="always"
       xlink:href="#linearGradient3977"
       id="linearGradient3079"
       gradientUnits="userSpaceOnUse"
       gradientTransform="matrix(0.23809524,0,0,0.23809524,2.5714304,-45.428573)"
       x1="48"
       y1="90"
       x2="48"
       y2="5.9877172" />
  </defs>
  <metadata
     id="metadata2413">
    <rdf:RDF>
      <cc:Work
         rdf:about="">
        <dc:format>image/svg+xml</dc:format>
        <dc:type
           rdf:resource="http://purl.org/dc/dcmitype/StillImage" />
        <dc:title />
      </cc:Work>
    </rdf:RDF>
  </metadata>
  <g
     id="layer5"
     style="display:none"
     transform="translate(0,-48)">
    <path
       d="M 11.28125,7 C 7.7989644,7 5,9.7531077 5,13.15625 l 0,30.6875 C 5,46.372474 6.5571633,48.555702 8.78125,49.5 6.5571633,50.444298 5,52.627526 5,55.15625 l 0,30.6875 C 5,89.246893 7.7989644,92 11.28125,92 l 31.4375,0 C 44.936751,92 46.881799,90.87394 48,89.1875 49.118201,90.873939 51.06325,92 53.28125,92 l 31.4375,0 C 88.201036,92 91,89.246896 91,85.84375 l 0,-30.6875 C 91,51.753107 88.201035,49 84.71875,49 l -31.4375,0 C 51.063249,49 49.118201,50.126061 48,51.8125 47.332888,50.80638 46.356133,49.982908 45.21875,49.5 47.442837,48.555702 49,46.372474 49,43.84375 l 0,-30.6875 C 49,9.7531072 46.201035,7 42.71875,7 l -31.4375,0 z"
       inkscape:connector-curvature="0"
       id="rect7705"
       style="opacity:0.9;fill:url(#linearGradient7959);fill-opacity:1;fill-rule:nonzero;stroke:none;filter:url(#filter7725)" />
  </g>
  <g
     id="layer1"
     style="display:none"
     transform="translate(0,-48)">
    <rect
       width="84"
       height="84"
       rx="6"
       ry="6"
       x="6"
       y="6"
       id="rect2419"
       style="fill:url(#linearGradient3706);fill-opacity:1;fill-rule:nonzero;stroke:none" />
    <path
       d="M 12,6 C 8.676,6 6,8.676 6,12 l 0,2 0,68 0,2 c 0,0.334721 0.04135,0.6507 0.09375,0.96875 0.0487,0.295596 0.09704,0.596915 0.1875,0.875 0.00988,0.03038 0.020892,0.0636 0.03125,0.09375 0.098865,0.287771 0.2348802,0.547452 0.375,0.8125 0.1445918,0.273507 0.3156161,0.535615 0.5,0.78125 0.1843839,0.245635 0.3737765,0.473472 0.59375,0.6875 0.439947,0.428056 0.94291,0.814526 1.5,1.09375 0.278545,0.139612 0.5734731,0.246947 0.875,0.34375 -0.2562018,-0.100222 -0.4867109,-0.236272 -0.71875,-0.375 -0.00741,-0.0044 -0.023866,0.0045 -0.03125,0 -0.031933,-0.0193 -0.062293,-0.04251 -0.09375,-0.0625 -0.120395,-0.0767 -0.2310226,-0.163513 -0.34375,-0.25 -0.1061728,-0.0808 -0.2132809,-0.161112 -0.3125,-0.25 C 8.4783201,88.557317 8.3087904,88.373362 8.15625,88.1875 8.0486711,88.057245 7.9378561,87.922215 7.84375,87.78125 7.818661,87.74287 7.805304,87.69538 7.78125,87.65625 7.716487,87.553218 7.6510225,87.451733 7.59375,87.34375 7.4927417,87.149044 7.3880752,86.928049 7.3125,86.71875 7.30454,86.69694 7.288911,86.6782 7.28125,86.65625 7.2494249,86.5643 7.2454455,86.469419 7.21875,86.375 7.1884177,86.268382 7.1483606,86.171969 7.125,86.0625 7.0521214,85.720988 7,85.364295 7,85 L 7,83 7,15 7,13 C 7,10.218152 9.2181517,8 12,8 l 2,0 68,0 2,0 c 2.781848,0 5,2.218152 5,5 l 0,2 0,68 0,2 c 0,0.364295 -0.05212,0.720988 -0.125,1.0625 -0.04415,0.206893 -0.08838,0.397658 -0.15625,0.59375 -0.0077,0.02195 -0.0233,0.04069 -0.03125,0.0625 -0.06274,0.173739 -0.138383,0.367449 -0.21875,0.53125 -0.04158,0.0828 -0.07904,0.169954 -0.125,0.25 -0.0546,0.09721 -0.126774,0.18835 -0.1875,0.28125 -0.09411,0.140965 -0.204921,0.275995 -0.3125,0.40625 -0.143174,0.17445 -0.303141,0.346998 -0.46875,0.5 -0.01117,0.0102 -0.01998,0.02115 -0.03125,0.03125 -0.138386,0.125556 -0.285091,0.234436 -0.4375,0.34375 -0.102571,0.07315 -0.204318,0.153364 -0.3125,0.21875 -0.0074,0.0045 -0.02384,-0.0044 -0.03125,0 -0.232039,0.138728 -0.462548,0.274778 -0.71875,0.375 0.301527,-0.0968 0.596455,-0.204138 0.875,-0.34375 0.55709,-0.279224 1.060053,-0.665694 1.5,-1.09375 0.219973,-0.214028 0.409366,-0.441865 0.59375,-0.6875 0.184384,-0.245635 0.355408,-0.507743 0.5,-0.78125 0.14012,-0.265048 0.276135,-0.524729 0.375,-0.8125 0.01041,-0.03078 0.02133,-0.06274 0.03125,-0.09375 0.09046,-0.278085 0.1388,-0.579404 0.1875,-0.875 C 89.95865,84.6507 90,84.334721 90,84 l 0,-2 0,-68 0,-2 C 90,8.676 87.324,6 84,6 L 12,6 z"
       inkscape:connector-curvature="0"
       id="rect3728"
       style="opacity:0.5;fill:url(#linearGradient3188);fill-opacity:1;fill-rule:nonzero;stroke:none" />
  </g>
  <rect
     style="fill:url(#linearGradient3073);fill-opacity:1;fill-rule:nonzero;stroke:none"
     id="rect8039"
     transform="matrix(0,1,-1,0,0,0)"
     y="-24"
     x="24"
     ry="2.8571429"
     rx="2.8571429"
     height="20"
     width="20" />
  <rect
     style="fill:url(#linearGradient3077);fill-opacity:1;fill-rule:nonzero;stroke:none"
     id="rect3971"
     transform="matrix(0,1,-1,0,0,0)"
     y="-44"
     x="24"
     ry="2.8571429"
     rx="2.8571429"
     height="20"
     width="20" />
  <rect
     style="fill:url(#linearGradient3079);fill-opacity:1;fill-rule:nonzero;stroke:none"
     id="rect3983"
     transform="matrix(0,1,-1,0,0,0)"
     y="-44"
     x="4"
     ry="2.8571429"
     rx="2.8571429"
     height="20"
     width="20" />
  <rect
     style="fill:url(#linearGradient3060);fill-opacity:1;fill-rule:nonzero;stroke:none"
     id="rect3989"
     transform="matrix(0,1,-1,0,0,0)"
     y="-24.000002"
     x="4"
     ry="2.8571429"
     rx="2.8571429"
     height="20"
     width="20" />
  <path
     style="fill:#ffffff;fill-opacity:1;stroke:none;opacity:0.5"
     d="M 7,4 7,4 21,4 C 14,5 14,5 7,4 z"
     id="path3083"
     inkscape:connector-curvature="0"
     sodipodi:nodetypes="cccc" />
  <path
     sodipodi:nodetypes="cccc"
     inkscape:connector-curvature="0"
     id="path3853"
     d="m 7,24 0,0 14,0 C 14,23 14,23 7,24 z"
     style="opacity:0.50000000000000000;fill:#000000;fill-opacity:1;stroke:none" />
  <path
     sodipodi:nodetypes="cccc"
     inkscape:connector-curvature="0"
     id="path3855"
     d="m 27,4 0,0 14,0 C 34,5 34,5 27,4 z"
     style="opacity:0.5;fill:#ffffff;fill-opacity:1;stroke:none" />
  <path
     style="opacity:0.5;fill:#000000;fill-opacity:1;stroke:none"
     d="m 27,24 0,0 14,0 c -7,-1 -7,-1 -14,0 z"
     id="path3857"
     inkscape:connector-curvature="0"
     sodipodi:nodetypes="cccc" />
  <path
     style="opacity:0.5;fill:#ffffff;fill-opacity:1;stroke:none"
     d="m 7,24 0,0 14,0 c -7,1 -7,1 -14,0 z"
     id="path3859"
     inkscape:connector-curvature="0"
     sodipodi:nodetypes="cccc" />
  <path
     sodipodi:nodetypes="cccc"
     inkscape:connector-curvature="0"
     id="path3861"
     d="m 7,44 0,0 14,0 C 14,43 14,43 7,44 z"
     style="opacity:0.5;fill:#000000;fill-opacity:1;stroke:none" />
  <path
     sodipodi:nodetypes="cccc"
     inkscape:connector-curvature="0"
     id="path3863"
     d="m 27,24 0,0 14,0 c -7,1 -7,1 -14,0 z"
     style="opacity:0.5;fill:#ffffff;fill-opacity:1;stroke:none" />
  <path
     style="opacity:0.5;fill:#000000;fill-opacity:1;stroke:none"
     d="m 27,44 0,0 14,0 c -7,-1 -7,-1 -14,0 z"
     id="path3865"
     inkscape:connector-curvature="0"
     sodipodi:nodetypes="cccc" />
</svg>
