<?xml version="1.0" encoding="UTF-8" standalone="no"?>
<svg
   xmlns:dc="http://purl.org/dc/elements/1.1/"
   xmlns:cc="http://creativecommons.org/ns#"
   xmlns:rdf="http://www.w3.org/1999/02/22-rdf-syntax-ns#"
   xmlns:svg="http://www.w3.org/2000/svg"
   xmlns="http://www.w3.org/2000/svg"
   xmlns:xlink="http://www.w3.org/1999/xlink"
   xmlns:sodipodi="http://sodipodi.sourceforge.net/DTD/sodipodi-0.dtd"
   xmlns:inkscape="http://www.inkscape.org/namespaces/inkscape"
   width="48"
   viewBox="0 0 13.546667 13.546667"
   height="48"
   id="svg2"
   version="1.1"
   inkscape:version="0.48.5 r10040"
   sodipodi:docname="google-chrome-developer-tool.svg">
  <metadata
     id="metadata38">
    <rdf:RDF>
      <cc:Work
         rdf:about="">
        <dc:format>image/svg+xml</dc:format>
        <dc:type
           rdf:resource="http://purl.org/dc/dcmitype/StillImage" />
        <dc:title />
      </cc:Work>
    </rdf:RDF>
  </metadata>
  <sodipodi:namedview
     pagecolor="#ffffff"
     bordercolor="#666666"
     borderopacity="1"
     objecttolerance="10"
     gridtolerance="10"
     guidetolerance="10"
     inkscape:pageopacity="0"
     inkscape:pageshadow="2"
     inkscape:window-width="1301"
     inkscape:window-height="744"
     id="namedview36"
     showgrid="true"
     inkscape:zoom="6.591315"
     inkscape:cx="-3.5633757"
     inkscape:cy="24.356009"
     inkscape:window-x="65"
     inkscape:window-y="24"
     inkscape:window-maximized="1"
     inkscape:current-layer="svg2">
    <sodipodi:guide
       position="8.5999999,8.6000013"
       orientation="-30.800001,0"
       id="guide5195" />
    <sodipodi:guide
       position="8.5999999,39.400002"
       orientation="0,30.800002"
       id="guide5197" />
    <sodipodi:guide
       position="39.400002,39.400002"
       orientation="30.800001,0"
       id="guide5199" />
    <sodipodi:guide
       position="39.400002,8.6000013"
       orientation="0,-30.800002"
       id="guide5201" />
    <inkscape:grid
       type="xygrid"
       id="grid5211" />
  </sodipodi:namedview>
  <defs
     id="defs4">
    <linearGradient
       id="linearGradient1801"
       inkscape:collect="always">
      <stop
         id="stop1803"
         offset="0"
         style="stop-color:#1a1a1a;stop-opacity:1" />
      <stop
         id="stop1805"
         offset="1"
         style="stop-color:#333333;stop-opacity:1" />
    </linearGradient>
    <linearGradient
       gradientUnits="userSpaceOnUse"
       y2="-1004.4557"
       x2="25.632622"
       y1="-1052.5389"
       x1="25.632622"
       id="linearGradient1807"
       xlink:href="#linearGradient1801"
       inkscape:collect="always"
       gradientTransform="matrix(0.28222223,0,0,0.28222223,-2e-8,283.45334)" />
  </defs>
  <path
     style="fill:#e34d40;fill-opacity:1;stroke:none"
     d="m 1.1288808,3.1082611 0,2.9321088 11.2886192,0 0,-2.9321088 z m 0,3.4452993 0,5.8642176 11.2886192,0 0,-5.8642176 z"
     id="rect5203"
     inkscape:connector-curvature="0"
     sodipodi:nodetypes="cccccccccc" />
  <path
     style="fill:#b9bbbb;fill-opacity:1;stroke:none"
     d="m 3.6601153,1.1289442 c -0.00132,0 -0.00216,7.917e-4 -0.00216,0.00215 l 0,0.2627159 0,0.099503 0,1.6063603 c 0,0.0047 0.00389,0.00859 0.00859,0.00859 l 0.7158465,0 c 0.0047,0 0.00859,-0.00389 0.00859,-0.00859 l 0,-1.6042129 4.7646769,0 0,1.6042129 c 0,0.0047 0.00389,0.00859 0.00859,0.00859 l 0.7158465,0 c 0.0047,0 0.00859,-0.00389 0.00859,-0.00859 l 0,-1.6063603 0,-0.3622188 c -1.51e-5,-0.00134 -8.064e-4,-0.00215 -0.00216,-0.00215 z"
     id="rect5207"
     inkscape:connector-curvature="0"
     sodipodi:nodetypes="ssccssssccssssccss" />
  <path
     style="fill:#7f1b13;fill-opacity:0.31372549;stroke:none"
     d="m 4.3909951,1.2019607 0,0.2934971 4.7646768,0 0,-0.2934971 z m -0.7330272,1.6042129 0,0.00859 0.00859,0 c -0.0047,0 -0.00859,-0.00389 -0.00859,-0.00859 z m 0.7330272,0 c 0,0.0047 -0.00389,0.00859 -0.00859,0.00859 l 0.00859,0 z m 4.7646768,0 0,0.00859 0.00859,0 c -0.0047,0 -0.00859,-0.00389 -0.00859,-0.00859 z m 0.7330272,0 c 0,0.0047 -0.00389,0.00859 -0.00859,0.00859 l 0.00859,0 z m -8.7598183,2.9406988 0,0.2934975 11.2889052,0 0,-0.2934975 z m 0,6.3774086 0,0.293497 11.2889052,0 0,-0.293497 z"
     id="path5221"
     inkscape:connector-curvature="0"
     sodipodi:nodetypes="ccccccccccccccccccccccccccccccc" />
</svg>
