<?xml version="1.0" encoding="UTF-8" standalone="no"?>
<!-- Created with Inkscape (http://www.inkscape.org/) -->

<svg
   xmlns:dc="http://purl.org/dc/elements/1.1/"
   xmlns:cc="http://creativecommons.org/ns#"
   xmlns:rdf="http://www.w3.org/1999/02/22-rdf-syntax-ns#"
   xmlns:svg="http://www.w3.org/2000/svg"
   xmlns="http://www.w3.org/2000/svg"
   xmlns:xlink="http://www.w3.org/1999/xlink"
   xmlns:sodipodi="http://sodipodi.sourceforge.net/DTD/sodipodi-0.dtd"
   xmlns:inkscape="http://www.inkscape.org/namespaces/inkscape"
   width="48"
   height="48"
   id="svg2"
   version="1.1"
   inkscape:version="0.48.5 r10040"
   sodipodi:docname="google-music.svg"
   inkscape:export-filename="/home/uri/workspace/nitruxforAndroid/res/drawable-xhdpi/google_music.png"
   inkscape:export-xdpi="180"
   inkscape:export-ydpi="180">
  <defs
     id="defs4">
    <linearGradient
       inkscape:collect="always"
       id="linearGradient4252">
      <stop
         style="stop-color:#e0e4eb;stop-opacity:1"
         offset="0"
         id="stop4254" />
      <stop
         style="stop-color:#f0f0ef;stop-opacity:1"
         offset="1"
         id="stop4256" />
    </linearGradient>
    <linearGradient
       inkscape:collect="always"
       xlink:href="#linearGradient4252"
       id="linearGradient3801"
       x1="35"
       y1="1004.3934"
       x2="35"
       y2="1052.3309"
       gradientUnits="userSpaceOnUse"
       gradientTransform="translate(0,-2056.7244)" />
    <filter
       x="-0.071800567"
       y="-0.15538733"
       width="1.1436011"
       height="1.3107746"
       color-interpolation-filters="sRGB"
       id="filter3985">
      <feGaussianBlur
         stdDeviation="6.7803529"
         id="feGaussianBlur3987" />
    </filter>
    <filter
       color-interpolation-filters="sRGB"
       id="filter3989">
      <feGaussianBlur
         stdDeviation="6.7803529"
         id="feGaussianBlur3991" />
    </filter>
    <filter
       x="-0.1490933"
       y="-0.072374105"
       width="1.2981865"
       height="1.1447482"
       color-interpolation-filters="sRGB"
       id="filter3993">
      <feGaussianBlur
         stdDeviation="6.7803529"
         id="feGaussianBlur3995" />
    </filter>
    <filter
       x="-0.081570871"
       y="-0.11038305"
       width="1.1631417"
       height="1.2207661"
       color-interpolation-filters="sRGB"
       id="filter3997">
      <feGaussianBlur
         stdDeviation="6.7803529"
         id="feGaussianBlur3999" />
    </filter>
    <filter
       x="-0.07492853"
       y="-0.12866202"
       width="1.149857"
       height="1.257324"
       color-interpolation-filters="sRGB"
       id="filter4001">
      <feGaussianBlur
         stdDeviation="6.7803529"
         id="feGaussianBlur4003" />
    </filter>
    <filter
       x="-0.12232576"
       y="-0.076450996"
       width="1.2446516"
       height="1.152902"
       color-interpolation-filters="sRGB"
       id="filter4005">
      <feGaussianBlur
         stdDeviation="6.7803529"
         id="feGaussianBlur4007" />
    </filter>
    <filter
       x="-0.11224329"
       y="-0.079873785"
       width="1.2244866"
       height="1.1597476"
       color-interpolation-filters="sRGB"
       id="filter4009">
      <feGaussianBlur
         stdDeviation="6.7803529"
         id="feGaussianBlur4011" />
    </filter>
    <filter
       x="-0.071800567"
       y="-0.15538733"
       width="1.1436011"
       height="1.3107746"
       color-interpolation-filters="sRGB"
       id="filter3985-9">
      <feGaussianBlur
         stdDeviation="6.7803529"
         id="feGaussianBlur3987-0" />
    </filter>
    <filter
       color-interpolation-filters="sRGB"
       id="filter3989-9">
      <feGaussianBlur
         stdDeviation="6.7803529"
         id="feGaussianBlur3991-1" />
    </filter>
    <filter
       x="-0.1490933"
       y="-0.072374105"
       width="1.2981865"
       height="1.1447482"
       color-interpolation-filters="sRGB"
       id="filter3993-8">
      <feGaussianBlur
         stdDeviation="6.7803529"
         id="feGaussianBlur3995-4" />
    </filter>
    <filter
       x="-0.081570871"
       y="-0.11038305"
       width="1.1631417"
       height="1.2207661"
       color-interpolation-filters="sRGB"
       id="filter3997-0">
      <feGaussianBlur
         stdDeviation="6.7803529"
         id="feGaussianBlur3999-7" />
    </filter>
    <filter
       x="-0.07492853"
       y="-0.12866202"
       width="1.149857"
       height="1.257324"
       color-interpolation-filters="sRGB"
       id="filter4001-9">
      <feGaussianBlur
         stdDeviation="6.7803529"
         id="feGaussianBlur4003-7" />
    </filter>
    <filter
       x="-0.12232576"
       y="-0.076450996"
       width="1.2446516"
       height="1.152902"
       color-interpolation-filters="sRGB"
       id="filter4005-7">
      <feGaussianBlur
         stdDeviation="6.7803529"
         id="feGaussianBlur4007-7" />
    </filter>
    <filter
       x="-0.11224329"
       y="-0.079873785"
       width="1.2244866"
       height="1.1597476"
       color-interpolation-filters="sRGB"
       id="filter4009-8">
      <feGaussianBlur
         stdDeviation="6.7803529"
         id="feGaussianBlur4011-6" />
    </filter>
    <linearGradient
       inkscape:collect="always"
       id="linearGradient4200">
      <stop
         style="stop-color:#fa741b;stop-opacity:1"
         offset="0"
         id="stop4202" />
      <stop
         style="stop-color:#f7aa1d;stop-opacity:1"
         offset="1"
         id="stop4204" />
    </linearGradient>
    <linearGradient
       inkscape:collect="always"
       xlink:href="#linearGradient4200"
       id="linearGradient4459"
       x1="-2.3147864"
       y1="1089.6177"
       x2="-2.3147864"
       y2="959.3363"
       gradientUnits="userSpaceOnUse"
       gradientTransform="matrix(0.3272672,0,0,0.3272672,32.601063,693.43535)" />
  </defs>
  <sodipodi:namedview
     id="base"
     pagecolor="#ffffff"
     bordercolor="#666666"
     borderopacity="1.0"
     inkscape:pageopacity="0.0"
     inkscape:pageshadow="2"
     inkscape:zoom="8.0571429"
     inkscape:cx="19.328907"
     inkscape:cy="28.582024"
     inkscape:document-units="px"
     inkscape:current-layer="layer1"
     showgrid="true"
     inkscape:window-width="1301"
     inkscape:window-height="744"
     inkscape:window-x="65"
     inkscape:window-y="24"
     inkscape:window-maximized="1"
     showguides="true">
    <inkscape:grid
       type="xygrid"
       id="grid3850" />
  </sodipodi:namedview>
  <metadata
     id="metadata7">
    <rdf:RDF>
      <cc:Work
         rdf:about="">
        <dc:format>image/svg+xml</dc:format>
        <dc:type
           rdf:resource="http://purl.org/dc/dcmitype/StillImage" />
        <dc:title />
      </cc:Work>
    </rdf:RDF>
  </metadata>
  <g
     inkscape:label="Capa 1"
     inkscape:groupmode="layer"
     id="layer1"
     transform="translate(0,-1004.3622)">
    <path
       style="fill:#dbdbdb;fill-opacity:1;fill-rule:nonzero;stroke:none;stroke-width:25;marker-mid:none;display:none;filter:url(#filter3985);enable-background:new"
       id="path3095"
       transform="matrix(0.08878086,0,0,0.08881664,-181.39955,1008.8293)"
       inkscape:connector-curvature="0"
       d="m 324.38759,135.62452 c -45.38059,3.2742 -125.14974,80.45343 -113.93317,80.06244 92.77726,-3.23392 150.72813,2.10512 223.11793,24.5811 C 444.29098,243.59605 422.00588,143.15814 324.38759,135.62452 Z" />
    <path
       style="fill:#dbdbdb;fill-opacity:1;fill-rule:nonzero;stroke:#000000;stroke-width:0;stroke-linecap:butt;stroke-linejoin:round;stroke-miterlimit:4;stroke-opacity:1;stroke-dasharray:none;stroke-dashoffset:1;marker-mid:none;display:none;filter:url(#filter3989);enable-background:new"
       id="path3097"
       transform="matrix(0.08878086,0,0,0.08881664,-181.39955,1008.8293)"
       inkscape:connector-curvature="0"
       d="M 186.37822,72.150309 C 160.57833,109.62675 157.33905,256.29261 163.99898,247.2588 218.88951,172.80293 350.45207,80.852043 428.9148,43.825512 525.90264,-1.943011 243.81268,3.6410539 186.37822,72.150309 Z" />
    <path
       style="fill:#dbdbdb;fill-opacity:1;fill-rule:nonzero;stroke:none;stroke-width:25;marker-mid:none;display:none;filter:url(#filter3993);enable-background:new"
       id="path3099"
       transform="matrix(0.08878086,0,0,0.08881664,-181.39955,1008.8293)"
       inkscape:connector-curvature="0"
       d="M 69.5521,231.67976 C 84.41923,274.68075 179.56014,331.84683 176.28962,321.11052 149.23774,232.30583 139.45061,174.93843 142.49683,99.2009 142.94789,87.986573 51.65499,135.42084 69.5521,231.67976 Z" />
    <path
       style="fill:#dbdbdb;fill-opacity:1;fill-rule:nonzero;stroke:none;stroke-width:25;marker-mid:none;display:none;filter:url(#filter3997);enable-background:new"
       id="path3101"
       transform="matrix(0.08878086,0,0,0.08881664,-181.39955,1008.8293)"
       inkscape:connector-curvature="0"
       d="m 81.97729,372.8505 c 42.13653,17.1648 147.83895,-16.69886 137.60948,-21.31646 -84.61255,-38.1942 -134.204,-68.649 -189.1504,-120.86343 C 22.30057,222.93932 -2.20627,322.85836 81.97729,372.8505 Z" />
    <path
       style="fill:#dbdbdb;fill-opacity:1;fill-rule:nonzero;stroke:none;stroke-width:25;marker-mid:none;display:none;filter:url(#filter4001);enable-background:new"
       id="path3103"
       transform="matrix(0.08878086,0,0,0.08881664,-181.39955,1008.8293)"
       inkscape:connector-curvature="0"
       d="M 203.88504,453.62703 C 244.17168,432.48219 286.43063,329.84726 276.30588,334.69014 192.55947,374.74786 137.30727,393.02355 61.96881,401.3645 50.8136,402.59953 111.39638,485.75077 203.88504,453.62703 Z" />
    <path
       style="fill:#dbdbdb;fill-opacity:1;fill-rule:nonzero;stroke:none;stroke-width:25;marker-mid:none;display:none;filter:url(#filter4005);enable-background:new"
       id="path3105"
       transform="matrix(0.08878086,0,0,0.08881664,-181.39955,1008.8293)"
       inkscape:connector-curvature="0"
       d="M 345.96158,410.03296 C 355.80284,365.6115 304.66105,267.10125 301.82779,277.96113 278.39266,367.78804 256.70286,421.79138 214.46246,484.72945 208.208,494.04859 310.82416,501.41921 345.96158,410.03296 Z" />
    <path
       style="fill:#dbdbdb;fill-opacity:1;fill-rule:nonzero;stroke:none;stroke-width:25;marker-mid:none;display:none;filter:url(#filter4009);enable-background:new"
       id="path3107"
       transform="matrix(0.08878086,0,0,0.08881664,-181.39955,1008.8293)"
       inkscape:connector-curvature="0"
       d="M 401.89383,270.24178 C 374.5208,233.89852 266.4087,208.76833 272.82303,217.97814 325.87887,294.15661 352.83718,345.73234 373.23475,418.73503 376.25499,429.54441 448.53158,356.32899 401.89383,270.24178 Z" />
    <path
       style="fill:#dbdbdb;fill-opacity:1;fill-rule:nonzero;stroke:none;stroke-width:25;marker-mid:none;display:none;filter:url(#filter3985-9);enable-background:new"
       id="path3095-7"
       transform="matrix(0.08878086,0,0,0.08881664,-420.52455,986.07932)"
       inkscape:connector-curvature="0"
       d="m 324.38759,135.62452 c -45.38059,3.2742 -125.14974,80.45343 -113.93317,80.06244 92.77726,-3.23392 150.72813,2.10512 223.11793,24.5811 C 444.29098,243.59605 422.00588,143.15814 324.38759,135.62452 Z" />
    <path
       style="fill:#dbdbdb;fill-opacity:1;fill-rule:nonzero;stroke:#000000;stroke-width:0;stroke-linecap:butt;stroke-linejoin:round;stroke-miterlimit:4;stroke-opacity:1;stroke-dasharray:none;stroke-dashoffset:1;marker-mid:none;display:none;filter:url(#filter3989-9);enable-background:new"
       id="path3097-4"
       transform="matrix(0.08878086,0,0,0.08881664,-420.52455,986.07932)"
       inkscape:connector-curvature="0"
       d="M 186.37822,72.150309 C 160.57833,109.62675 157.33905,256.29261 163.99898,247.2588 218.88951,172.80293 350.45207,80.852043 428.9148,43.825512 525.90264,-1.943011 243.81268,3.6410539 186.37822,72.150309 Z" />
    <path
       style="fill:#dbdbdb;fill-opacity:1;fill-rule:nonzero;stroke:none;stroke-width:25;marker-mid:none;display:none;filter:url(#filter3993-8);enable-background:new"
       id="path3099-9"
       transform="matrix(0.08878086,0,0,0.08881664,-420.52455,986.07932)"
       inkscape:connector-curvature="0"
       d="M 69.5521,231.67976 C 84.41923,274.68075 179.56014,331.84683 176.28962,321.11052 149.23774,232.30583 139.45061,174.93843 142.49683,99.2009 142.94789,87.986573 51.65499,135.42084 69.5521,231.67976 Z" />
    <path
       style="fill:#dbdbdb;fill-opacity:1;fill-rule:nonzero;stroke:none;stroke-width:25;marker-mid:none;display:none;filter:url(#filter3997-0);enable-background:new"
       id="path3101-4"
       transform="matrix(0.08878086,0,0,0.08881664,-420.52455,986.07932)"
       inkscape:connector-curvature="0"
       d="m 81.97729,372.8505 c 42.13653,17.1648 147.83895,-16.69886 137.60948,-21.31646 -84.61255,-38.1942 -134.204,-68.649 -189.1504,-120.86343 C 22.30057,222.93932 -2.20627,322.85836 81.97729,372.8505 Z" />
    <path
       style="fill:#dbdbdb;fill-opacity:1;fill-rule:nonzero;stroke:none;stroke-width:25;marker-mid:none;display:none;filter:url(#filter4001-9);enable-background:new"
       id="path3103-3"
       transform="matrix(0.08878086,0,0,0.08881664,-420.52455,986.07932)"
       inkscape:connector-curvature="0"
       d="M 203.88504,453.62703 C 244.17168,432.48219 286.43063,329.84726 276.30588,334.69014 192.55947,374.74786 137.30727,393.02355 61.96881,401.3645 50.8136,402.59953 111.39638,485.75077 203.88504,453.62703 Z" />
    <path
       style="fill:#dbdbdb;fill-opacity:1;fill-rule:nonzero;stroke:none;stroke-width:25;marker-mid:none;display:none;filter:url(#filter4005-7);enable-background:new"
       id="path3105-1"
       transform="matrix(0.08878086,0,0,0.08881664,-420.52455,986.07932)"
       inkscape:connector-curvature="0"
       d="M 345.96158,410.03296 C 355.80284,365.6115 304.66105,267.10125 301.82779,277.96113 278.39266,367.78804 256.70286,421.79138 214.46246,484.72945 208.208,494.04859 310.82416,501.41921 345.96158,410.03296 Z" />
    <path
       style="fill:#dbdbdb;fill-opacity:1;fill-rule:nonzero;stroke:none;stroke-width:25;marker-mid:none;display:none;filter:url(#filter4009-8);enable-background:new"
       id="path3107-0"
       transform="matrix(0.08878086,0,0,0.08881664,-420.52455,986.07932)"
       inkscape:connector-curvature="0"
       d="M 401.89383,270.24178 C 374.5208,233.89852 266.4087,208.76833 272.82303,217.97814 325.87887,294.15661 352.83718,345.73234 373.23475,418.73503 376.25499,429.54441 448.53158,356.32899 401.89383,270.24178 Z" />
    <path
       style="fill:url(#linearGradient4459);fill-opacity:1"
       d="m 6.6777131,1007.3314 20.3821309,20.3821 6.124826,-6.1249 c -0.515454,-0.2811 -24.1575052,-13.1788 -25.6036458,-13.9678 -0.2939396,-0.1603 -0.5989395,-0.2426 -0.9033111,-0.2894 z m -1.9031186,0.7049 c -0.3004365,0.4028 -0.4905222,0.9743 -0.4905222,1.7504 l 0,37.226 c 0,1.1714 0.3845627,2.048 1.0963026,2.3803 L 25.754465,1029.0162 4.7745945,1008.0363 z m 30.0960775,14.4744 -6.505449,6.5055 5.634303,5.6369 c 4.577673,-2.5055 8.314304,-4.5515 8.641768,-4.7309 1.036781,-0.5675 2.122981,-2.0161 0,-3.1736 -0.57768,-0.3156 -4.040895,-2.2034 -7.770622,-4.2379 z m -7.810828,7.8109 -17.9563251,17.9562 c 2.5590221,-1.4006 13.9639831,-7.6417 23.2100051,-12.7026 l -5.25368,-5.2536 z"
       id="path16"
       inkscape:connector-curvature="0" />
    <path
       style="fill:#c35305;fill-opacity:0.31372549"
       d="m 6.6766028,1007.3309 20.3831912,20.3832 6.124025,-6.1267 c -0.01422,-0.01 -0.658366,-0.3577 -0.706824,-0.3841 l -5.417201,5.4172 -18.4280902,-18.4254 c -0.1310314,-0.072 -0.9915366,-0.5411 -1.0508995,-0.5735 -0.2939396,-0.1603 -0.5998298,-0.2439 -0.9042015,-0.2907 z m 37.0375522,20.4098 c -0.213058,0.4585 -0.639581,0.8515 -1.072237,1.0883 -0.327464,0.1794 -4.064245,2.2262 -8.641918,4.7317 l -5.091797,-5.0918 -0.54412,0.5468 L 34,1034.6543 c 4.577673,-2.5056 8.314454,-4.5523 8.641918,-4.7318 0.752696,-0.4119 1.514339,-1.2895 1.072237,-2.1818 z M 25.211383,1028.4689 5.3803162,1048.3 c -0.7117405,-0.3323 -1.0962439,-1.2078 -1.0962439,-2.3792 l 0,1.0909 c 0,1.1714 0.3845034,2.0496 1.0962439,2.3818 l 20.3751878,-20.3778 -0.544121,-0.5468 z m 6.398753,6.4014 c -8.107238,4.4375 -16.383788,8.9636 -20.089792,10.9918 l -2.4165356,2.4165 c 2.5590226,-1.4006 13.9644626,-7.6432 23.2104846,-12.7041 l -0.704157,-0.7042 z"
       id="path4511"
       inkscape:connector-curvature="0" />
  </g>
</svg>
