<?xml version="1.0" encoding="UTF-8" standalone="no"?>
<!-- Created with Inkscape (http://www.inkscape.org/) -->

<svg
   xmlns:dc="http://purl.org/dc/elements/1.1/"
   xmlns:cc="http://creativecommons.org/ns#"
   xmlns:rdf="http://www.w3.org/1999/02/22-rdf-syntax-ns#"
   xmlns:svg="http://www.w3.org/2000/svg"
   xmlns="http://www.w3.org/2000/svg"
   xmlns:xlink="http://www.w3.org/1999/xlink"
   xmlns:sodipodi="http://sodipodi.sourceforge.net/DTD/sodipodi-0.dtd"
   xmlns:inkscape="http://www.inkscape.org/namespaces/inkscape"
   width="48"
   height="48"
   id="svg5453"
   version="1.1"
   inkscape:version="0.48.5 r10040"
   sodipodi:docname="unity-webapps-grooveshark.svg">
  <defs
     id="defs5455">
    <linearGradient
       inkscape:collect="always"
       id="linearGradient5495">
      <stop
         style="stop-color:#000000;stop-opacity:0"
         offset="0"
         id="stop5497" />
      <stop
         id="stop5505"
         offset="0.95161593"
         style="stop-color:#000000;stop-opacity:0.49803922;" />
      <stop
         style="stop-color:#000000;stop-opacity:0;"
         offset="1"
         id="stop5499" />
    </linearGradient>
    <linearGradient
       id="linearGradient5464"
       inkscape:collect="always">
      <stop
         id="stop5466"
         offset="0"
         style="stop-color:#b0bccd;stop-opacity:1" />
      <stop
         id="stop5468"
         offset="1"
         style="stop-color:#fafafc;stop-opacity:1" />
    </linearGradient>
    <linearGradient
       inkscape:collect="always"
       id="linearGradient5292">
      <stop
         style="stop-color:#b1bdce;stop-opacity:1"
         offset="0"
         id="stop5294" />
      <stop
         style="stop-color:#e9edf1;stop-opacity:1"
         offset="1"
         id="stop5296" />
    </linearGradient>
    <linearGradient
       inkscape:collect="always"
       xlink:href="#linearGradient5292"
       id="linearGradient5298"
       x1="411.3327"
       y1="-547.85773"
       x2="411.3327"
       y2="-499.77591"
       gradientUnits="userSpaceOnUse" />
    <linearGradient
       inkscape:collect="always"
       xlink:href="#linearGradient5464"
       id="linearGradient5446"
       x1="391.94806"
       y1="523.79803"
       x2="425.19479"
       y2="523.79803"
       gradientUnits="userSpaceOnUse"
       gradientTransform="matrix(1.274477,0,0,1.274477,-112.14346,-143.77054)" />
    <radialGradient
       inkscape:collect="always"
       xlink:href="#linearGradient5495"
       id="radialGradient5503"
       cx="27.709747"
       cy="17.191031"
       fx="27.709747"
       fy="17.191031"
       r="10.562407"
       gradientUnits="userSpaceOnUse" />
  </defs>
  <sodipodi:namedview
     id="base"
     pagecolor="#ffffff"
     bordercolor="#666666"
     borderopacity="1.0"
     inkscape:pageopacity="0"
     inkscape:pageshadow="2"
     inkscape:zoom="6.2313786"
     inkscape:cx="12.233294"
     inkscape:cy="35.275906"
     inkscape:document-units="px"
     inkscape:current-layer="layer1"
     showgrid="true"
     fit-margin-top="0"
     fit-margin-left="0"
     fit-margin-right="0"
     fit-margin-bottom="0"
     inkscape:window-width="1301"
     inkscape:window-height="744"
     inkscape:window-x="65"
     inkscape:window-y="24"
     inkscape:window-maximized="1"
     showguides="false">
    <inkscape:grid
       type="xygrid"
       id="grid3007" />
  </sodipodi:namedview>
  <metadata
     id="metadata5458">
    <rdf:RDF>
      <cc:Work
         rdf:about="">
        <dc:format>image/svg+xml</dc:format>
        <dc:type
           rdf:resource="http://purl.org/dc/dcmitype/StillImage" />
        <dc:title />
      </cc:Work>
    </rdf:RDF>
  </metadata>
  <g
     inkscape:label="Capa 1"
     inkscape:groupmode="layer"
     id="layer1"
     transform="translate(-384.57143,-499.798)">
    <path
       sodipodi:type="arc"
       style="fill:#000000;fill-opacity:0.19607843;stroke:none"
       id="path5483"
       sodipodi:cx="27.709747"
       sodipodi:cy="18.964428"
       sodipodi:rx="10.562407"
       sodipodi:ry="10.562407"
       d="m 38.272154,18.964428 a 10.562407,10.562407 0 1 1 -21.124813,0 10.562407,10.562407 0 1 1 21.124813,0 z"
       transform="matrix(1.6364621,0,0,1.6364621,363.22542,492.7634)" />
    <path
       transform="matrix(1.6364621,0,0,1.6364621,363.22548,492.7634)"
       d="m 38.272154,18.964428 a 10.562407,10.562407 0 1 1 -21.124813,0 10.562407,10.562407 0 1 1 21.124813,0 z"
       sodipodi:ry="10.562407"
       sodipodi:rx="10.562407"
       sodipodi:cy="18.964428"
       sodipodi:cx="27.709747"
       id="path5485"
       style="fill:url(#radialGradient5503);fill-opacity:1;stroke:none"
       sodipodi:type="arc" />
    <path
       style="fill:url(#linearGradient5446);fill-opacity:1;fill-rule:nonzero;stroke:none"
       d="m 408.57143,503.40639 c -11.25692,0 -20.39161,9.13488 -20.39161,20.39161 0,11.25629 9.13469,20.39161 20.39161,20.39161 11.25609,0 20.39161,-9.13532 20.39161,-20.39161 0,-11.25673 -9.13552,-20.39161 -20.39161,-20.39161 z m 0,4.16152 c 5.38765,0 10.50671,2.76407 13.46835,7.26386 0.74202,1.12837 1.34081,2.35731 1.77817,3.63184 0.13881,0.40432 0.27183,0.79743 0.37818,1.21068 0.33997,1.34184 0.50072,2.73866 0.49178,4.12371 -0.0213,2.6069 -0.85181,5.46605 -4.12371,4.08592 -1.54584,-0.65212 -2.86041,-1.94963 -3.82092,-3.29153 -1.10254,-1.54096 -2.20738,-3.06563 -3.44273,-4.50192 -1.16166,-1.34895 -2.40299,-2.65306 -3.74554,-3.82113 -1.33763,-1.167 -2.78371,-2.25566 -4.38852,-3.02653 -1.07642,-0.51894 -2.18125,-0.91994 -3.32912,-1.2486 -0.12884,-0.0359 -0.50192,-0.19732 -0.6054,-0.0375 -0.0645,0.0994 -0.0148,0.26886 0,0.37839 0.0272,0.23747 0.047,0.48174 0.0752,0.71879 0.3435,2.8463 0.5048,5.86153 -0.37818,8.62572 -0.47424,1.48977 -1.3432,2.84168 -2.49695,3.8968 -0.9553,0.87365 -2.31437,1.76561 -3.66974,1.70241 -0.25014,-0.0119 -0.50892,-0.0671 -0.75679,-0.1514 -1.45183,-0.48882 -1.5427,-2.04042 -1.55097,-3.32913 -0.0119,-1.38507 0.14894,-2.78187 0.49179,-4.12372 0.10448,-0.41323 0.24002,-0.80634 0.37819,-1.21079 1.58485,-4.59715 5.26656,-8.35484 9.87443,-9.9876 1.72625,-0.61212 3.54181,-0.9083 5.37247,-0.9083 z"
       id="path14"
       inkscape:connector-curvature="0" />
    <path
       style="fill:#7287a0;fill-opacity:0.31372549;fill-rule:nonzero;stroke:none"
       d="m 408.57143,506.49327 c -1.83066,0 -3.65302,0.29822 -5.37928,0.91034 -4.60787,1.63276 -8.26337,5.37521 -9.84822,9.97236 -0.13818,0.40445 -0.30932,0.82813 -0.41379,1.24137 -0.34286,1.34185 -0.46709,2.71146 -0.45517,4.09653 0.001,0.17477 0.034,0.3568 0.0413,0.53793 0.0289,-1.20642 0.1156,-2.43283 0.41379,-3.59998 0.10447,-0.41324 0.27562,-0.79554 0.41379,-1.2 1.58485,-4.59714 5.24035,-8.3396 9.84822,-9.97236 1.72626,-0.61212 3.54862,-0.91034 5.37928,-0.91034 5.38765,0 10.48656,2.74155 13.44821,7.24134 0.74201,1.12837 1.34194,2.36683 1.7793,3.64136 0.1388,0.40433 0.30743,0.78675 0.41379,1.2 0.2957,1.16715 0.38299,2.39356 0.41379,3.59998 0.009,-0.17769 0.04,-0.36116 0.0413,-0.53793 0.009,-1.38506 -0.1152,-2.75468 -0.45517,-4.09653 -0.10633,-0.41325 -0.27498,-0.83705 -0.41379,-1.24137 -0.43736,-1.27453 -1.03728,-2.47161 -1.7793,-3.59998 -2.96151,-4.4998 -8.06042,-7.28272 -13.44807,-7.28272 z m -7.28272,5.42066 c -0.0144,0.009 -0.0314,0.026 -0.0413,0.0413 -0.0645,0.0994 -0.0148,0.26288 0,0.37241 0.0271,0.23747 0.0132,0.46639 0.0413,0.70345 0.0858,0.71157 0.19865,1.46696 0.24828,2.19309 -0.0328,-1.08571 -0.12024,-2.16705 -0.24828,-3.22757 -0.003,-0.0262 0.003,-0.0563 0,-0.0827 z m -13.07579,11.33787 c -0.005,0.18194 -0.0413,0.35481 -0.0413,0.53792 0,11.25629 9.14296,20.39989 20.39989,20.39989 11.25609,0 20.39988,-9.1436 20.39988,-20.39989 0,-0.18311 -0.0365,-0.35598 -0.0413,-0.53792 -0.28499,11.00843 -9.28193,19.86196 -20.35851,19.86196 -11.07753,0 -20.07367,-8.85353 -20.35864,-19.86196 z"
       id="path4091"
       inkscape:connector-curvature="0" />
    <path
       style="fill:#ffffff;fill-opacity:0.23529412;fill-rule:nonzero;stroke:none"
       d="m 408.57143,503.40639 c -11.25692,0 -20.39989,9.14316 -20.39989,20.39989 0,0.0841 -0.001,0.16439 0,0.24827 0.15434,-11.12402 9.2392,-20.11023 20.39989,-20.11023 11.15987,0 20.24553,8.98621 20.39989,20.11023 0.001,-0.0839 0,-0.16415 0,-0.24827 0,-11.25673 -9.1438,-20.39989 -20.39989,-20.39989 z m -7.19996,8.48271 c -0.0515,0.007 -0.0983,0.0428 -0.12407,0.0828 -0.0645,0.0994 -0.0148,0.26288 0,0.37241 0.007,0.0557 -0.005,0.10924 0,0.16552 0.10341,-0.15985 0.45047,0.005 0.57931,0.0413 1.14787,0.32866 2.27528,0.72243 3.3517,1.24137 1.60481,0.77087 3.04856,1.85368 4.38618,3.02067 1.34255,1.16807 2.56246,2.45792 3.72412,3.80688 1.23535,1.43628 2.33193,2.96936 3.43447,4.51032 0.96051,1.3419 2.30241,2.65821 3.84825,3.31033 3.07589,1.29745 3.93847,-1.17738 4.05515,-3.64136 -0.21798,2.2748 -1.19223,4.31104 -4.05515,3.10343 -1.54584,-0.65212 -2.88774,-1.96843 -3.84825,-3.31033 -1.10254,-1.54095 -2.19912,-3.07403 -3.43447,-4.51032 -1.16166,-1.34896 -2.38157,-2.6388 -3.72412,-3.80687 -1.33762,-1.167 -2.78137,-2.24981 -4.38618,-3.02068 -1.07642,-0.51894 -2.20383,-0.91271 -3.3517,-1.24137 -0.0967,-0.0268 -0.30062,-0.14442 -0.45524,-0.12407 z m 23.25504,12.91027 c 0.008,-0.15701 0.0401,-0.299 0.0413,-0.45517 6.2e-4,-0.0968 0.001,-0.19276 0,-0.28965 -0.007,0.2456 -0.0179,0.50096 -0.0413,0.74482 z m -23.08952,-6.28962 c -0.0829,1.08504 -0.28956,2.14962 -0.62069,3.18619 -0.47424,1.48977 -1.32899,2.83452 -2.48275,3.88964 -0.95529,0.87364 -2.32737,1.75974 -3.68273,1.69654 -0.25014,-0.0119 -0.49695,-0.0813 -0.74483,-0.16552 -1.36124,-0.45832 -1.50894,-1.82783 -1.53102,-3.06205 -8.6e-4,0.0969 -8.4e-4,0.19286 0,0.28965 0.008,1.28871 0.0792,2.82151 1.53102,3.31033 0.24788,0.0842 0.49469,0.1536 0.74483,0.16552 1.35536,0.0632 2.72744,-0.8229 3.68273,-1.69655 1.15376,-1.05512 2.00851,-2.39986 2.48275,-3.88963 0.38199,-1.19581 0.55978,-2.46835 0.62069,-3.72412 z"
       id="path4096"
       inkscape:connector-curvature="0" />
  </g>
</svg>
