<?xml version="1.0" encoding="UTF-8" standalone="no"?>
<!-- Created with Inkscape (http://www.inkscape.org/) -->

<svg
   xmlns:dc="http://purl.org/dc/elements/1.1/"
   xmlns:cc="http://creativecommons.org/ns#"
   xmlns:rdf="http://www.w3.org/1999/02/22-rdf-syntax-ns#"
   xmlns:svg="http://www.w3.org/2000/svg"
   xmlns="http://www.w3.org/2000/svg"
   xmlns:xlink="http://www.w3.org/1999/xlink"
   xmlns:sodipodi="http://sodipodi.sourceforge.net/DTD/sodipodi-0.dtd"
   xmlns:inkscape="http://www.inkscape.org/namespaces/inkscape"
   width="48"
   height="48"
   id="svg2"
   version="1.1"
   inkscape:version="0.48.5 r10040"
   sodipodi:docname="gtk-info.svg">
  <defs
     id="defs4">
    <linearGradient
       id="linearGradient4091">
      <stop
         id="stop4093"
         offset="0"
         style="stop-color:#b9ddff;stop-opacity:1" />
      <stop
         id="stop4095"
         offset="1"
         style="stop-color:#f5fcff;stop-opacity:1" />
    </linearGradient>
    <linearGradient
       id="linearGradient908">
      <stop
         style="stop-color:#0062bf;stop-opacity:1"
         offset="0"
         id="stop910" />
      <stop
         style="stop-color:#0095d4;stop-opacity:1"
         offset="1"
         id="stop912" />
    </linearGradient>
    <linearGradient
       inkscape:collect="always"
       xlink:href="#linearGradient908"
       id="linearGradient848"
       x1="-50.007065"
       y1="-1011.7863"
       x2="-2.0070651"
       y2="-1011.7863"
       gradientUnits="userSpaceOnUse"
       gradientTransform="matrix(0.83333406,0,0,0.83333406,45.672573,-184.37294)" />
    <linearGradient
       inkscape:collect="always"
       xlink:href="#linearGradient4091"
       id="linearGradient4089"
       gradientUnits="userSpaceOnUse"
       x1="31.224005"
       y1="1044.3646"
       x2="31.224005"
       y2="1012.3594"
       gradientTransform="matrix(0.80209251,0,0,0.80209251,4.7497799,203.52056)" />
  </defs>
  <sodipodi:namedview
     id="base"
     pagecolor="#ffffff"
     bordercolor="#666666"
     borderopacity="1.0"
     inkscape:pageopacity="0.0"
     inkscape:pageshadow="2"
     inkscape:zoom="5.7231455"
     inkscape:cx="52.33745"
     inkscape:cy="36.12501"
     inkscape:document-units="px"
     inkscape:current-layer="layer1"
     showgrid="true"
     inkscape:window-width="1301"
     inkscape:window-height="744"
     inkscape:window-x="65"
     inkscape:window-y="24"
     inkscape:window-maximized="1">
    <inkscape:grid
       type="xygrid"
       id="grid3850"
       empspacing="5"
       visible="true"
       enabled="true"
       snapvisiblegridlinesonly="true" />
  </sodipodi:namedview>
  <metadata
     id="metadata7">
    <rdf:RDF>
      <cc:Work
         rdf:about="">
        <dc:format>image/svg+xml</dc:format>
        <dc:type
           rdf:resource="http://purl.org/dc/dcmitype/StillImage" />
        <dc:title />
      </cc:Work>
    </rdf:RDF>
  </metadata>
  <g
     inkscape:label="Capa 1"
     inkscape:groupmode="layer"
     id="layer1"
     transform="translate(0,-1004.3622)">
    <rect
       style="fill:url(#linearGradient848);fill-opacity:1;stroke:none"
       id="rect2991-1-8"
       width="40.000034"
       height="40.000034"
       x="3.9999833"
       y="-1048.3622"
       ry="0"
       transform="scale(1,-1)" />
    <path
       inkscape:connector-curvature="0"
       id="path4110"
       d="m 26.390245,1015.8619 c -1.879049,0 -3.404077,1.4365 -3.404077,3.208 0,1.771 1.525028,3.2079 3.404077,3.2079 1.878126,0 3.404075,-1.4369 3.404075,-3.2079 0,-1.7715 -1.525949,-3.208 -3.404075,-3.208 z m -2.815574,7.6967 c -0.854596,0.01 -1.931439,0.1535 -3.242527,0.5654 0,0 -1.638571,0.4676 -2.065524,1.2232 0,0 -0.305097,0.5423 0.450031,0.4847 0,0 3.218986,-0.2585 3.219447,1.1539 -0.0051,0.082 -0.01154,0.1703 -0.01154,0.2538 0,0.1094 0.0032,0.2156 0.01154,0.3231 0,0 -0.01108,0.9157 -0.438491,2.7117 0,0 -1.553181,5.502 -1.696268,6.5543 -0.09277,0.3319 -0.13847,0.6947 -0.13847,1.0617 0,1.2171 0.548344,2.2787 1.373169,2.8732 0,0 0.03138,0.024 0.103853,0.069 0.156472,0.102 0.32356,0.1869 0.496187,0.2538 0.860366,0.3665 2.646178,0.804 5.388825,-0.058 0,0 1.639494,-0.4676 2.065523,-1.2231 0,0 0.304636,-0.5424 -0.450029,-0.4847 0,0 -3.218987,0.2589 -3.219448,-1.1539 0.006,-0.093 0.01154,-0.1939 0.01154,-0.2885 0,-0.037 0.001,-0.067 0,-0.1039 -0.0037,-0.4186 0.03278,-2.0092 0.726973,-4.1656 0,0 1.135921,-3.3344 1.488561,-5.4695 0.05677,-0.2568 0.08539,-0.5199 0.09231,-0.7963 0.0092,-0.1487 0.0078,-0.2848 0,-0.4039 -0.0013,-0.026 -0.0032,-0.047 -0.01154,-0.069 -0.103854,-1.1973 -0.710356,-2.2164 -1.557798,-2.7463 0,0 -0.04015,-0.034 -0.126932,-0.081 -0.174934,-0.096 -0.362794,-0.1662 -0.553883,-0.2193 -0.427644,-0.1371 -1.060918,-0.2722 -1.915513,-0.2654 z"
       style="fill:#000000;fill-opacity:0.23529412;fill-rule:nonzero;stroke:none" />
    <path
       style="fill:url(#linearGradient4089);fill-opacity:1;fill-rule:nonzero;stroke:none"
       d="m 26.390245,1015.5289 c -1.879049,0 -3.404077,1.4364 -3.404077,3.2079 0,1.771 1.525028,3.2079 3.404077,3.2079 1.878126,0 3.404075,-1.4369 3.404075,-3.2079 0,-1.7715 -1.525949,-3.2079 -3.404075,-3.2079 z m -2.815574,7.6966 c -0.854596,0.01 -1.931439,0.1535 -3.242527,0.5654 0,0 -1.638571,0.4676 -2.065524,1.2232 0,0 -0.305097,0.5423 0.450031,0.4847 0,0 3.218986,-0.2585 3.219447,1.1539 -0.0051,0.082 -0.01154,0.1703 -0.01154,0.2538 0,0.1094 0.0032,0.2156 0.01154,0.3231 0,0 -0.01108,0.9158 -0.438491,2.7118 0,0 -1.553181,5.5019 -1.696268,6.5542 -0.09277,0.3319 -0.13847,0.6947 -0.13847,1.0617 0,1.2171 0.548344,2.2787 1.373169,2.8732 0,0 0.03138,0.024 0.103853,0.069 0.156472,0.102 0.32356,0.1869 0.496187,0.2538 0.860366,0.3665 2.646178,0.804 5.388825,-0.058 0,0 1.639494,-0.4675 2.065523,-1.2231 0,0 0.304636,-0.5424 -0.450029,-0.4847 0,0 -3.218987,0.2589 -3.219448,-1.1539 0.006,-0.093 0.01154,-0.1939 0.01154,-0.2885 0,-0.037 0.001,-0.067 0,-0.1038 -0.0037,-0.4187 0.03278,-2.0093 0.726973,-4.1657 0,0 1.135921,-3.3344 1.488561,-5.4695 0.05677,-0.2568 0.08539,-0.5199 0.09231,-0.7963 0.0092,-0.1486 0.0078,-0.2848 0,-0.4039 -0.0013,-0.026 -0.0032,-0.048 -0.01154,-0.069 -0.103854,-1.1973 -0.710356,-2.2164 -1.557798,-2.7463 0,0 -0.04015,-0.034 -0.126932,-0.081 -0.174934,-0.096 -0.362794,-0.1662 -0.553883,-0.2193 -0.427644,-0.1371 -1.060918,-0.2721 -1.915513,-0.2654 z"
       id="path1640"
       inkscape:connector-curvature="0" />
    <path
       style="fill:#0068c1;fill-opacity:0.31372549;fill-rule:nonzero;stroke:none"
       d="m 23.021809,1018.4029 c -0.01239,0.1112 -0.03581,0.2193 -0.03581,0.3336 0,1.771 1.525902,3.208 3.404951,3.208 1.878127,0 3.403323,-1.437 3.403323,-3.208 0,-0.1143 -0.02341,-0.2224 -0.03581,-0.3336 -0.179278,1.6124 -1.610302,2.8743 -3.367515,2.8743 -1.758077,0 -3.189965,-1.2619 -3.369144,-2.8743 z m -4.596358,6.4079 c -0.05931,0.066 -0.119301,0.1323 -0.159505,0.2034 0,0 -0.304281,0.5427 0.450846,0.485 0,0 3.161624,-0.2519 3.214521,1.1215 6.9e-5,-0 0.0049,-0.057 0.0049,-0.057 -0.0084,-0.1075 -0.01139,-0.2145 -0.01139,-0.3239 0,-0.083 0.0063,-0.1722 0.01139,-0.2539 -4.63e-4,-1.4124 -3.219405,-1.154 -3.219405,-1.154 -0.128497,0.01 -0.217518,-0 -0.291341,-0.021 z m 9.296883,1.6829 c -0.01243,0.2206 -0.02878,0.4378 -0.07487,0.6462 -0.352639,2.1351 -1.487631,5.4703 -1.487631,5.4703 -0.694198,2.1565 -0.731207,3.7463 -0.72754,4.1651 10e-4,0.037 0,0.067 0,0.1042 0,0.094 -0.0054,0.1954 -0.01139,0.288 1.2e-5,0.039 0.01145,0.072 0.01628,0.1091 0.006,-0.5526 0.08327,-2.0145 0.722657,-4.0007 0,0 1.134992,-3.3335 1.487631,-5.4687 0.05678,-0.2568 0.08585,-0.5195 0.09277,-0.7959 0.0092,-0.1487 0.0078,-0.2862 0,-0.4053 -0.0013,-0.026 -0.003,-0.047 -0.01139,-0.068 -0.0013,-0.015 -0.0051,-0.029 -0.0065,-0.044 z m -8.040372,10.7422 c -0.008,0.1068 -0.01953,0.2124 -0.01953,0.3206 0,1.2171 0.548873,2.2799 1.373699,2.8744 0,0 0.0317,0.023 0.104167,0.068 0.156472,0.102 0.323793,0.1869 0.496419,0.2539 0.860366,0.3665 2.644729,0.8045 5.387375,-0.057 0,0 1.641031,-0.4684 2.067059,-1.224 0,0 0.200596,-0.3698 -0.159505,-0.4638 -0.569885,0.634 -1.907554,1.0205 -1.907554,1.0205 -2.742646,0.8615 -4.527009,0.425 -5.387375,0.059 -0.172626,-0.067 -0.339947,-0.1519 -0.496419,-0.2539 -0.07247,-0.045 -0.104167,-0.07 -0.104167,-0.07 -0.74535,-0.5373 -1.260959,-1.4576 -1.354168,-2.5277 z"
       id="path4097"
       inkscape:connector-curvature="0" />
    <path
       style="fill:#ffffff;fill-opacity:0.23529412;fill-rule:nonzero;stroke:none"
       d="m 26.390953,1015.5285 c -1.879049,0 -3.404951,1.4365 -3.404951,3.208 0,0.057 0.0148,0.1099 0.0179,0.1661 0.0945,-1.692 1.568926,-3.0404 3.387047,-3.0404 1.817227,0 3.290863,1.3484 3.38542,3.0404 0.0031,-0.056 0.0179,-0.1092 0.0179,-0.1661 0,-1.7715 -1.525196,-3.208 -3.403323,-3.208 z m -2.815758,7.697 c -0.854596,0.01 -1.93273,0.1528 -3.243818,0.5648 0,0 -1.638478,0.4683 -2.065431,1.2239 0,0 -0.120028,0.2198 -0.01302,0.3646 0.0042,-0.01 0.01302,-0.031 0.01302,-0.031 0.426953,-0.7556 2.065431,-1.224 2.065431,-1.224 1.311088,-0.4119 2.389222,-0.5564 3.243818,-0.5648 0.854595,-0.01 1.488048,0.1282 1.915691,0.2653 0.19109,0.053 0.378452,0.1233 0.553387,0.2198 0.08678,0.047 0.126953,0.08 0.126953,0.08 0.847443,0.5299 1.453765,1.5501 1.557618,2.7474 0.0084,0.022 0.01006,0.043 0.01139,0.068 0.0046,-0.1187 0.0064,-0.2356 0,-0.3337 -0.0013,-0.026 -0.003,-0.047 -0.01139,-0.068 -0.103853,-1.1974 -0.710175,-2.2159 -1.557618,-2.7458 0,0 -0.04017,-0.035 -0.126953,-0.081 -0.174935,-0.096 -0.362297,-0.1666 -0.553387,-0.2197 -0.427643,-0.1371 -1.061096,-0.2721 -1.915691,-0.2653 z m -1.650392,3.6816 c 0,0.063 0.004,0.1238 0.0065,0.1856 0.0021,-0.036 0.0027,-0.073 0.0049,-0.1075 -10e-6,-0.028 -0.0089,-0.051 -0.01139,-0.078 z m 0.0033,0.4199 c -0.0034,0.1216 -0.03287,0.9465 -0.429688,2.614 0,0 -1.554506,5.502 -1.697592,6.5543 -0.09277,0.332 -0.138347,0.6942 -0.138347,1.0612 0,0.059 0.0072,0.116 0.0098,0.1742 0.01147,-0.3116 0.04941,-0.6185 0.128581,-0.9017 0.143086,-1.0523 1.697592,-6.5544 1.697592,-6.5544 0.427417,-1.796 0.437827,-2.7116 0.437827,-2.7116 -0.0061,-0.078 -0.0068,-0.1573 -0.0081,-0.236 z m 3.502608,10.5795 c -9.21e-4,0.086 -0.0043,0.1766 -0.0098,0.2604 4.61e-4,1.4128 3.219403,1.154 3.219403,1.154 0.272497,-0.021 0.403385,0.039 0.463868,0.1204 0.04063,-0.082 0.220775,-0.5048 -0.463868,-0.4525 0,0 -3.09633,0.2457 -3.209637,-1.0823 z"
       id="path4105"
       inkscape:connector-curvature="0" />
    <path
       style="opacity:0.5;fill:#000000;fill-opacity:1;stroke:none"
       d="m 4,1048.3622 0,0 c 20,-1 20,-1 40,0 z"
       id="path3257"
       inkscape:connector-curvature="0"
       sodipodi:nodetypes="cccc" />
    <path
       sodipodi:nodetypes="cccc"
       inkscape:connector-curvature="0"
       id="path4027"
       d="m 4,1008.3622 0,0 c 20,1 20,1 40,0 z"
       style="opacity:0.75;fill:#ffffff;fill-opacity:1;stroke:none" />
  </g>
</svg>
