<?xml version="1.0" encoding="UTF-8" standalone="no"?>
<!-- Created with Inkscape (http://www.inkscape.org/) -->

<svg
   xmlns:dc="http://purl.org/dc/elements/1.1/"
   xmlns:cc="http://creativecommons.org/ns#"
   xmlns:rdf="http://www.w3.org/1999/02/22-rdf-syntax-ns#"
   xmlns:svg="http://www.w3.org/2000/svg"
   xmlns="http://www.w3.org/2000/svg"
   xmlns:xlink="http://www.w3.org/1999/xlink"
   xmlns:sodipodi="http://sodipodi.sourceforge.net/DTD/sodipodi-0.dtd"
   xmlns:inkscape="http://www.inkscape.org/namespaces/inkscape"
   width="48"
   height="48"
   id="svg2"
   version="1.1"
   inkscape:version="0.48.5 r10040"
   sodipodi:docname="half-life2.svg">
  <defs
     id="defs4">
    <linearGradient
       inkscape:collect="always"
       id="linearGradient5569">
      <stop
         style="stop-color:#f19b3a;stop-opacity:1;"
         offset="0"
         id="stop5571" />
      <stop
         style="stop-color:#f2a44c;stop-opacity:1"
         offset="1"
         id="stop5573" />
    </linearGradient>
    <linearGradient
       inkscape:collect="always"
       id="linearGradient829">
      <stop
         style="stop-color:#1f272a;stop-opacity:1"
         offset="0"
         id="stop831" />
      <stop
         style="stop-color:#344344;stop-opacity:1"
         offset="1"
         id="stop833" />
    </linearGradient>
    <linearGradient
       inkscape:collect="always"
       xlink:href="#linearGradient829"
       id="linearGradient835"
       x1="-31.112698"
       y1="-1050.9148"
       x2="-31.112698"
       y2="-1002.9058"
       gradientUnits="userSpaceOnUse"
       gradientTransform="translate(55.996581,-1.455814)" />
    <linearGradient
       gradientTransform="matrix(1.0058652,0,0,0.994169,119.23086,972.70405)"
       gradientUnits="userSpaceOnUse"
       id="ButtonShadow"
       y2="7.0165396"
       x2="45.447727"
       y1="92.539597"
       x1="45.447727">
      <stop
         offset="0"
         style="stop-color:#000000;stop-opacity:1"
         id="stop3750" />
      <stop
         offset="1"
         style="stop-color:#000000;stop-opacity:0.58823532"
         id="stop3752" />
    </linearGradient>
    <filter
       id="filter3174"
       color-interpolation-filters="sRGB">
      <feGaussianBlur
         stdDeviation="1.71"
         id="feGaussianBlur3176" />
    </filter>
    <linearGradient
       inkscape:collect="always"
       xlink:href="#linearGradient5569"
       id="linearGradient5645"
       x1="-2.2718289"
       y1="1043.8201"
       x2="-2.2718289"
       y2="1013.0141"
       gradientUnits="userSpaceOnUse"
       gradientTransform="matrix(1.1459796,0,0,1.1459796,35.027841,-150.14884)" />
    <linearGradient
       inkscape:collect="always"
       xlink:href="#linearGradient3777"
       id="linearGradient3783"
       x1="9"
       y1="24"
       x2="39"
       y2="24"
       gradientUnits="userSpaceOnUse" />
    <linearGradient
       id="linearGradient3777">
      <stop
         style="stop-color:#4d4d4d;stop-opacity:1;"
         offset="0"
         id="stop3779" />
      <stop
         style="stop-color:#737373;stop-opacity:1;"
         offset="1"
         id="stop3781" />
    </linearGradient>
    <linearGradient
       y2="24"
       x2="39"
       y1="24"
       x1="9"
       gradientUnits="userSpaceOnUse"
       id="linearGradient3800"
       xlink:href="#linearGradient3777"
       inkscape:collect="always" />
  </defs>
  <sodipodi:namedview
     id="base"
     pagecolor="#ffffff"
     bordercolor="#666666"
     borderopacity="1.0"
     inkscape:pageopacity="0.0"
     inkscape:pageshadow="2"
     inkscape:zoom="5.5021748"
     inkscape:cx="-7.1498255"
     inkscape:cy="37.858867"
     inkscape:document-units="px"
     inkscape:current-layer="layer1"
     showgrid="true"
     inkscape:window-width="1301"
     inkscape:window-height="744"
     inkscape:window-x="65"
     inkscape:window-y="24"
     inkscape:window-maximized="1">
    <inkscape:grid
       type="xygrid"
       id="grid3850" />
  </sodipodi:namedview>
  <metadata
     id="metadata7">
    <rdf:RDF>
      <cc:Work
         rdf:about="">
        <dc:format>image/svg+xml</dc:format>
        <dc:type
           rdf:resource="http://purl.org/dc/dcmitype/StillImage" />
        <dc:title />
      </cc:Work>
    </rdf:RDF>
  </metadata>
  <g
     inkscape:label="Capa 1"
     inkscape:groupmode="layer"
     id="layer1"
     transform="translate(0,-1004.3622)">
    <path
       sodipodi:type="arc"
       style="fill:url(#linearGradient3800);fill-opacity:1;stroke:none"
       id="path3007"
       sodipodi:cx="24"
       sodipodi:cy="24"
       sodipodi:rx="15"
       sodipodi:ry="15"
       d="M 39,24 A 15,15 0 1 1 9,24 15,15 0 1 1 39,24 z"
       transform="matrix(1.0666672,0,0,1.0666672,-4.6000047,1003.7622)" />
    <path
       id="path5657"
       d="m 36.454761,1011.1439 c -1.887308,0 -3.905559,0.1283 -5.646458,0.1283 -3.885214,0 -7.695512,-0.1332 -11.067305,0.1123 -5.209406,0.3804 -9.070807,2.6241 -11.740998,5.4619 -2.7276333,2.8996 -4.856829,7.0042 -4.856829,12.0399 0,5.2497 2.0675798,9.1756 4.856829,12.0426 2.653507,2.7271 6.577949,5.1349 11.515389,5.4618 9.106417,0.6026 15.169823,-4.4312 17.841802,-10.814 1.734997,-4.145 3.829786,-9.1296 5.643324,-13.4902 0.547981,-1.3176 1.627081,-2.993 1.807994,-4.5719 0.360394,-3.1469 -1.343519,-4.9592 -3.500052,-5.7972 -1.210554,-0.4706 -2.966389,-0.5797 -4.853696,-0.5737 z m 1.839328,2.0024 c 1.203225,0.049 2.376992,0.9052 2.224742,2.4725 -0.183892,1.8931 -2.10107,3.2195 -2.936032,4.4623 l 2.936032,0 c 0.176383,0.2556 0.176383,1.0793 0,1.3349 -1.473402,-0.1428 -3.120581,-0.1135 -4.744028,-0.1089 -0.691114,-2.5026 3.594378,-4.1828 3.161642,-6.2422 -0.204154,-0.9712 -1.608092,-1.0027 -1.353646,0.4451 l -1.69519,0 c -0.03129,-1.6561 1.203255,-2.4128 2.40648,-2.3627 z m -17.177511,1.4822 c 4.348366,0.016 7.485139,1.7115 9.691725,3.6664 2.769109,2.4533 5.331595,7.4509 4.402482,12.9324 -0.758571,4.4748 -3.303554,8.0325 -7.451318,10.2562 -4.513522,2.4204 -10.180424,2.0611 -14.225813,-0.3321 -3.9039255,-2.3095 -7.5801789,-6.7851 -7.0032354,-13.8254 0.3067649,-3.7435 1.9554825,-6.3433 4.0672034,-8.4734 1.967634,-1.9848 4.730968,-3.7175 8.579356,-4.1238 0.671495,-0.071 1.318402,-0.1031 1.9396,-0.1 z m -4.988436,3.7793 0,3.0082 2.59762,0 c 0.249202,0.8687 0.707216,1.5313 0.90243,2.4536 -2.22768,3.7541 -4.782192,7.8503 -7.000102,11.4847 -0.286981,0.4702 -0.712218,1.0311 -0.676822,1.5605 l 3.838462,0 c 1.954882,-2.7522 3.636634,-5.7753 5.646456,-8.4733 1.116346,3.1343 2.446159,6.0576 3.500053,9.2536 2.137463,-0.5279 4.297245,-1.0352 6.097672,-1.896 -0.50782,-0.8364 -0.590936,-2.0941 -1.131172,-2.8985 -0.851887,0.3481 -1.730863,0.6681 -2.707291,0.8931 -1.824978,-5.2588 -4.046967,-10.1274 -5.872064,-15.3859 l -5.195242,0 z"
       style="fill:#000000;fill-opacity:0.23529412"
       inkscape:connector-curvature="0" />
    <rect
       style="opacity:0.9;fill:url(#ButtonShadow);fill-opacity:1;fill-rule:nonzero;stroke:none;display:none;filter:url(#filter3174)"
       id="rect3745"
       y="979.70404"
       x="124.23086"
       ry="6"
       rx="6"
       height="85"
       width="86" />
    <path
       inkscape:connector-curvature="0"
       style="fill:url(#linearGradient5645);fill-opacity:1"
       d="m 36.454761,1010.6855 c -1.887308,0 -3.905559,0.1283 -5.646458,0.1283 -3.885214,0 -7.695512,-0.1332 -11.067305,0.1123 -5.209406,0.3804 -9.070807,2.6241 -11.740998,5.4619 -2.7276333,2.8996 -4.856829,7.0042 -4.856829,12.0399 0,5.2497 2.0675798,9.1756 4.856829,12.0426 2.653507,2.7271 6.577949,5.1349 11.515389,5.4619 9.106417,0.6025 15.169823,-4.4313 17.841802,-10.8141 1.734997,-4.145 3.829786,-9.1295 5.643324,-13.4902 0.547981,-1.3176 1.627081,-2.993 1.807994,-4.5719 0.360394,-3.1469 -1.343519,-4.9592 -3.500052,-5.7972 -1.210554,-0.4706 -2.966389,-0.5797 -4.853696,-0.5737 z m 1.839328,2.0024 c 1.203225,0.049 2.376992,0.9053 2.224742,2.4725 -0.183892,1.8932 -2.10107,3.2195 -2.936032,4.4623 l 2.936032,0 c 0.176383,0.2556 0.176383,1.0793 0,1.3349 -1.473402,-0.1428 -3.120581,-0.1135 -4.744028,-0.1089 -0.691114,-2.5026 3.594378,-4.1828 3.161642,-6.2422 -0.204154,-0.9712 -1.608092,-1.0027 -1.353646,0.4451 l -1.69519,0 c -0.03129,-1.6561 1.203255,-2.4128 2.40648,-2.3627 z m -17.177511,1.4823 c 4.348366,0.016 7.485139,1.7114 9.691725,3.6663 2.769109,2.4533 5.331595,7.4509 4.402482,12.9324 -0.758571,4.4748 -3.303554,8.0325 -7.451318,10.2563 -4.513522,2.4203 -10.180424,2.061 -14.225813,-0.3322 -3.9039255,-2.3094 -7.5801789,-6.7851 -7.0032354,-13.8254 0.3067649,-3.7434 1.9554825,-6.3433 4.0672034,-8.4734 1.967634,-1.9848 4.730968,-3.7175 8.579356,-4.1238 0.671495,-0.071 1.318402,-0.1031 1.9396,-0.1 z m -4.988436,3.7792 0,3.0082 2.59762,0 c 0.249202,0.8687 0.707216,1.5313 0.90243,2.4536 -2.22768,3.7541 -4.782192,7.8503 -7.000102,11.4847 -0.286981,0.4702 -0.712218,1.0311 -0.676822,1.5605 l 3.838462,0 c 1.954882,-2.7522 3.636634,-5.7753 5.646456,-8.4733 1.116346,3.1343 2.446159,6.0577 3.500053,9.2536 2.137463,-0.5279 4.297245,-1.0352 6.097672,-1.8959 -0.50782,-0.8365 -0.590936,-2.0942 -1.131172,-2.8986 -0.851887,0.3481 -1.730863,0.6681 -2.707291,0.8931 -1.824978,-5.2588 -4.046967,-10.1274 -5.872064,-15.3859 l -5.195242,0 z"
       id="path3780-9" />
    <path
       style="fill:#9c580b;fill-opacity:0.31372549"
       d="m 38.293435,1011.7702 0,0 c -1.203225,-0.048 -2.437395,0.7075 -2.406109,2.3636 l 0.147723,0 c 0.350592,-1.012 1.30837,-1.4854 2.258386,-1.4459 1.000881,0.041 1.970686,0.6479 2.184523,1.7503 0.01077,-0.065 0.03376,-0.1274 0.04029,-0.1947 0.15225,-1.5672 -1.021587,-2.424 -2.224812,-2.4733 z m -17.176265,1.484 c -0.621197,0 -1.269059,0.028 -1.940555,0.099 -3.848387,0.4063 -6.611544,2.1403 -8.579179,4.1251 -2.1117206,2.13 -3.7601207,4.7305 -4.0668857,8.4739 -0.052646,0.6425 -0.059889,1.2555 -0.044762,1.8555 0.00905,-0.3096 0.018519,-0.6197 0.044762,-0.9401 0.306765,-3.7434 1.9551651,-6.3439 4.0668857,-8.4739 1.967635,-1.9848 4.730792,-3.7166 8.579179,-4.1229 0.671496,-0.071 1.319358,-0.1043 1.940555,-0.1008 4.348366,0.016 7.484999,1.7114 9.691585,3.6663 2.298064,2.0359 4.445808,5.8278 4.581681,10.1906 0.165051,-4.7458 -2.123713,-8.9284 -4.581681,-11.1061 -2.206586,-1.955 -5.343219,-3.6502 -9.691585,-3.6662 z m 17.76716,1.222 c -0.539566,1.6985 -3.609079,3.2331 -3.124584,5.3607 0.446322,-1.9711 3.547782,-3.4619 3.176064,-5.2308 -0.01043,-0.049 -0.03522,-0.085 -0.05148,-0.1299 z m 5.938055,1.2646 c -0.008,0.1348 0.0026,0.2585 -0.01343,0.3985 -0.180912,1.5789 -1.260517,3.2551 -1.808499,4.5727 -1.813538,4.3607 -3.907609,9.3449 -5.642606,13.4899 -2.671979,6.3827 -8.736843,11.4155 -17.84326,10.813 -4.93744,-0.327 -8.860007,-2.7343 -11.5135141,-5.4614 -2.7033204,-2.7787 -4.7123716,-6.5625 -4.8346018,-11.5717 -0.00378,0.1503 -0.022381,0.2934 -0.022381,0.4454 0,5.2497 2.0677357,9.177 4.8569851,12.044 2.6535068,2.7271 6.5760748,5.1343 11.5135138,5.4613 9.106417,0.6025 15.171282,-4.4325 17.84326,-10.8152 1.734997,-4.145 3.829069,-9.1291 5.642607,-13.4898 0.547981,-1.3175 1.627586,-2.9916 1.808499,-4.5705 0.05394,-0.471 0.04657,-0.9037 0.01343,-1.3162 z m -6.486423,2.9657 c -0.28616,0.3147 -0.551647,0.6172 -0.752049,0.9155 l 2.934333,0 c 0.03295,0.048 0.05547,0.1304 0.07611,0.2103 0.09003,-0.348 0.06742,-0.9178 -0.07611,-1.1258 l -2.182284,0 z m -22.207832,1.334 0,0.9177 2.598599,0 c 0.189699,0.6614 0.499284,1.203 0.722952,1.8309 0.05728,-0.096 0.122192,-0.1997 0.179059,-0.2955 -0.195214,-0.9223 -0.652809,-1.5843 -0.902011,-2.4531 l -2.598599,0 z m 5.309109,7.0258 c -2.009821,2.698 -3.692201,5.7219 -5.647083,8.4741 l -3.55209,0 c -0.170526,0.3022 -0.306859,0.6109 -0.286495,0.9154 l 3.838585,0 c 1.954882,-2.7522 3.637262,-5.7738 5.647083,-8.4718 1.116346,3.1343 2.444476,6.057 3.498371,9.2529 2.137463,-0.5278 4.298781,-1.0349 6.099208,-1.8957 -0.140592,-0.2316 -0.246013,-0.4991 -0.340213,-0.7767 -1.731395,0.7702 -3.75022,1.2587 -5.758995,1.7548 -1.053895,-3.1959 -2.382025,-6.1187 -3.498371,-9.253 z"
       id="path5647"
       inkscape:connector-curvature="0" />
  </g>
</svg>
