<?xml version="1.0" encoding="UTF-8" standalone="no"?>
<!-- Created with Inkscape (http://www.inkscape.org/) -->

<svg
   width="48"
   height="48"
   id="svg2"
   version="1.1"
   inkscape:version="0.48.5 r10040"
   sodipodi:docname="calligrakarbon.svg">
  <defs
     id="defs4">
    <linearGradient
       inkscape:collect="always"
       xlink:href="#linearGradient4001"
       id="linearGradient4007"
       x1="2.9999995"
       y1="1025.2123"
       x2="45.000134"
       y2="1025.2123"
       gradientUnits="userSpaceOnUse"
       gradientTransform="matrix(0.95237789,0,0,0.95237799,1.1428668,48.972598)" />
    <linearGradient
       inkscape:collect="always"
       id="linearGradient4001">
      <stop
         style="stop-color:#c0bebe;stop-opacity:1"
         offset="0"
         id="stop4003" />
      <stop
         style="stop-color:#f2f7f7;stop-opacity:1"
         offset="1"
         id="stop4005" />
    </linearGradient>
    <linearGradient
       id="linearGradient6194"
       spreadMethod="pad"
       gradientTransform="matrix(13.526835,20.525875,20.525875,-13.526835,19.18986,1021.0543)"
       gradientUnits="userSpaceOnUse"
       y2="0"
       x2="1"
       y1="0"
       x1="0">
      <stop
         id="stop6196"
         offset="0"
         style="stop-opacity:1;stop-color:#ffffff" />
      <stop
         id="stop6198"
         offset="0.168498"
         style="stop-opacity:1;stop-color:#29282b" />
      <stop
         id="stop6200"
         offset="0.263736"
         style="stop-opacity:1;stop-color:#868c95" />
      <stop
         id="stop6202"
         offset="0.395604"
         style="stop-opacity:1;stop-color:#92979f" />
      <stop
         id="stop6204"
         offset="0.542125"
         style="stop-opacity:1;stop-color:#737881" />
      <stop
         id="stop6206"
         offset="0.626374"
         style="stop-opacity:1;stop-color:#70757e" />
      <stop
         id="stop6208"
         offset="0.717949"
         style="stop-opacity:1;stop-color:#e4e6e8" />
      <stop
         id="stop6210"
         offset="0.791209"
         style="stop-opacity:1;stop-color:#ffffff" />
      <stop
         id="stop6212"
         offset="1"
         style="stop-opacity:1;stop-color:#1d191a" />
    </linearGradient>
    <style
       type="text/css"
       id="style2464" />
    <style
       id="style2464-7"
       type="text/css" />
    <linearGradient
       id="linearGradient3795-1-2">
      <stop
         style="stop-color:#272b30;stop-opacity:1"
         offset="0"
         id="stop3797-1-9" />
      <stop
         style="stop-color:#282c31;stop-opacity:1"
         offset="1"
         id="stop3799-3-6" />
    </linearGradient>
  </defs>
  <sodipodi:namedview
     id="base"
     pagecolor="#ffffff"
     bordercolor="#666666"
     borderopacity="1.0"
     inkscape:pageopacity="0.0"
     inkscape:pageshadow="2"
     inkscape:zoom="8.8824769"
     inkscape:cx="3.3728341"
     inkscape:cy="27.182251"
     inkscape:document-units="px"
     inkscape:current-layer="layer1"
     showgrid="true"
     inkscape:window-width="1301"
     inkscape:window-height="744"
     inkscape:window-x="65"
     inkscape:window-y="24"
     inkscape:window-maximized="1"
     borderlayer="true"
     inkscape:showpageshadow="false">
    <inkscape:grid
       type="xygrid"
       id="grid3293" />
  </sodipodi:namedview>
  <metadata
     id="metadata7">
    <rdf:RDF>
      <cc:Work
         rdf:about="">
        <dc:format>image/svg+xml</dc:format>
        <dc:type
           rdf:resource="http://purl.org/dc/dcmitype/StillImage" />
        <dc:title />
      </cc:Work>
    </rdf:RDF>
  </metadata>
  <g
     inkscape:label="Capa 1"
     inkscape:groupmode="layer"
     id="layer1"
     transform="translate(0,-1004.3622)">
    <path
       style="fill:url(#linearGradient4007);fill-opacity:1;stroke:none"
       d="m 5.6193188,1008.3622 c -0.897728,0 -1.619318,0.7215 -1.619318,1.6192 l 0,36.7615 c 0,0.8977 0.72159,1.6193 1.619318,1.6193 l 36.7613632,0 c 0.897728,0 1.619319,-0.7216 1.619319,-1.6193 l 0,-36.7614 c 0,-0.8978 -0.721591,-1.6193 -1.619319,-1.6193 z"
       id="rect839"
       inkscape:connector-curvature="0"
       sodipodi:nodetypes="sssssssss" />
    <path
       style="fill:#50b579;fill-opacity:0.23529412;stroke:none"
       d="m 5.6188808,1008.3622 c -0.19209,0 -0.372352,0.041 -0.542969,0.104 l 2.673828,0 0,3.9521 -3.75,0 0,0.2071 3.75,0 0,3.9521 -3.75,0 0,0.2071 3.75,0 0,3.9521 -3.75,0 0,0.2071 3.75,0 0,3.9521 -3.75,0 0,0.2071 3.75,0 0,3.9521 -3.75,0 0,0.2072 3.75,0 0,3.952 -3.75,0 0,0.2072 3.75,0 0,3.9521 -3.75,0 0,0.2071 3.75,0 0,3.9521 -3.75,0 0,0.2071 3.75,0 0,3.9521 -3.75,0 0,0.2071 3.75,0 0,2.171 0.199219,0 0,-2.171 3.8007812,0 0,2.171 0.199219,0 0,-2.171 3.800781,0 0,2.171 0.199219,0 0,-2.171 3.800781,0 0,2.171 0.199219,0 0,-2.171 3.800781,0 0,2.171 0.199219,0 0,-2.171 3.800781,0 0,2.171 0.199219,0 0,-2.171 3.800781,0 0,2.171 0.199219,0 0,-2.171 3.800781,0 0,2.171 0.199219,0 0,-2.171 3.800781,0 0,2.171 0.199219,0 0,-2.171 3.800781,0 0,1.3972 c 0.09044,-0.1471 0.157665,-0.3101 0.199219,-0.4854 l 0,-0.9118 0.05078,0 0,-0.2071 -0.05078,0 0,-3.9521 0.05078,0 0,-0.2071 -0.05078,0 0,-3.9521 0.05078,0 0,-0.2071 -0.05078,0 0,-3.9521 0.05078,0 0,-0.2072 -0.05078,0 0,-3.952 0.05078,0 0,-0.2072 -0.05078,0 0,-3.9521 0.05078,0 0,-0.2071 -0.05078,0 0,-3.9521 0.05078,0 0,-0.2071 -0.05078,0 0,-3.9521 0.05078,0 0,-0.2071 -0.05078,0 0,-3.9521 0.05078,0 0,-0.2071 -0.05078,0 0,-2.7723 c -0.04149,-0.178 -0.108368,-0.3449 -0.199219,-0.4954 l 0,3.2677 -3.800781,0 0,-3.9521 2.976562,0 c -0.170968,-0.063 -0.352363,-0.104 -0.544922,-0.104 l -36.7617182,0 z m 2.330078,0.104 3.8007812,0 0,3.9521 -3.8007812,0 0,-3.9521 z m 4.0000002,0 3.800781,0 0,3.9521 -3.800781,0 0,-3.9521 z m 4,0 3.800781,0 0,3.9521 -3.800781,0 0,-3.9521 z m 4,0 3.800781,0 0,3.9521 -3.800781,0 0,-3.9521 z m 4,0 3.800781,0 0,3.9521 -3.800781,0 0,-3.9521 z m 4,0 3.800781,0 0,3.9521 -3.800781,0 0,-3.9521 z m 4,0 3.800781,0 0,3.9521 -3.800781,0 0,-3.9521 z m 4,0 3.800781,0 0,3.9521 -3.800781,0 0,-3.9521 z m -28.0000002,4.1592 3.8007812,0 0,3.9521 -3.8007812,0 0,-3.9521 z m 4.0000002,0 3.800781,0 0,3.9521 -3.800781,0 0,-3.9521 z m 4,0 3.800781,0 0,3.9521 -3.800781,0 0,-3.9521 z m 4,0 3.800781,0 0,3.9521 -3.800781,0 0,-3.9521 z m 4,0 3.800781,0 0,3.9521 -3.800781,0 0,-3.9521 z m 4,0 3.800781,0 0,3.9521 -3.800781,0 0,-3.9521 z m 4,0 3.800781,0 0,3.9521 -3.800781,0 0,-3.9521 z m 4,0 3.800781,0 0,3.9521 -3.800781,0 0,-3.9521 z m 4,0 3.800781,0 0,3.9521 -3.800781,0 0,-3.9521 z m -32.0000002,4.1592 3.8007812,0 0,3.9521 -3.8007812,0 0,-3.9521 z m 4.0000002,0 3.800781,0 0,3.9521 -3.800781,0 0,-3.9521 z m 4,0 3.800781,0 0,3.9521 -3.800781,0 0,-3.9521 z m 4,0 3.800781,0 0,3.9521 -3.800781,0 0,-3.9521 z m 4,0 3.800781,0 0,3.9521 -3.800781,0 0,-3.9521 z m 4,0 3.800781,0 0,3.9521 -3.800781,0 0,-3.9521 z m 4,0 3.800781,0 0,3.9521 -3.800781,0 0,-3.9521 z m 4,0 3.800781,0 0,3.9521 -3.800781,0 0,-3.9521 z m 4,0 3.800781,0 0,3.9521 -3.800781,0 0,-3.9521 z m -32.0000002,4.1592 3.8007812,0 0,3.9521 -3.8007812,0 0,-3.9521 z m 4.0000002,0 3.800781,0 0,3.9521 -3.800781,0 0,-3.9521 z m 4,0 3.800781,0 0,3.9521 -3.800781,0 0,-3.9521 z m 4,0 3.800781,0 0,3.9521 -3.800781,0 0,-3.9521 z m 4,0 3.800781,0 0,3.9521 -3.800781,0 0,-3.9521 z m 4,0 3.800781,0 0,3.9521 -3.800781,0 0,-3.9521 z m 4,0 3.800781,0 0,3.9521 -3.800781,0 0,-3.9521 z m 4,0 3.800781,0 0,3.9521 -3.800781,0 0,-3.9521 z m 4,0 3.800781,0 0,3.9521 -3.800781,0 0,-3.9521 z m -32.0000002,4.1592 3.8007812,0 0,3.9521 -3.8007812,0 0,-3.9521 z m 4.0000002,0 3.800781,0 0,3.9521 -3.800781,0 0,-3.9521 z m 4,0 3.800781,0 0,3.9521 -3.800781,0 0,-3.9521 z m 4,0 3.800781,0 0,3.9521 -3.800781,0 0,-3.9521 z m 4,0 3.800781,0 0,3.9521 -3.800781,0 0,-3.9521 z m 4,0 3.800781,0 0,3.9521 -3.800781,0 0,-3.9521 z m 4,0 3.800781,0 0,3.9521 -3.800781,0 0,-3.9521 z m 4,0 3.800781,0 0,3.9521 -3.800781,0 0,-3.9521 z m 4,0 3.800781,0 0,3.9521 -3.800781,0 0,-3.9521 z m -32.0000002,4.1593 3.8007812,0 0,3.952 -3.8007812,0 0,-3.952 z m 4.0000002,0 3.800781,0 0,3.952 -3.800781,0 0,-3.952 z m 4,0 3.800781,0 0,3.952 -3.800781,0 0,-3.952 z m 4,0 3.800781,0 0,3.952 -3.800781,0 0,-3.952 z m 4,0 3.800781,0 0,3.952 -3.800781,0 0,-3.952 z m 4,0 3.800781,0 0,3.952 -3.800781,0 0,-3.952 z m 4,0 3.800781,0 0,3.952 -3.800781,0 0,-3.952 z m 4,0 3.800781,0 0,3.952 -3.800781,0 0,-3.952 z m 4,0 3.800781,0 0,3.952 -3.800781,0 0,-3.952 z m -32.0000002,4.1592 3.8007812,0 0,3.9521 -3.8007812,0 0,-3.9521 z m 4.0000002,0 3.800781,0 0,3.9521 -3.800781,0 0,-3.9521 z m 4,0 3.800781,0 0,3.9521 -3.800781,0 0,-3.9521 z m 4,0 3.800781,0 0,3.9521 -3.800781,0 0,-3.9521 z m 4,0 3.800781,0 0,3.9521 -3.800781,0 0,-3.9521 z m 4,0 3.800781,0 0,3.9521 -3.800781,0 0,-3.9521 z m 4,0 3.800781,0 0,3.9521 -3.800781,0 0,-3.9521 z m 4,0 3.800781,0 0,3.9521 -3.800781,0 0,-3.9521 z m 4,0 3.800781,0 0,3.9521 -3.800781,0 0,-3.9521 z m -32.0000002,4.1592 3.8007812,0 0,3.9521 -3.8007812,0 0,-3.9521 z m 4.0000002,0 3.800781,0 0,3.9521 -3.800781,0 0,-3.9521 z m 4,0 3.800781,0 0,3.9521 -3.800781,0 0,-3.9521 z m 4,0 3.800781,0 0,3.9521 -3.800781,0 0,-3.9521 z m 4,0 3.800781,0 0,3.9521 -3.800781,0 0,-3.9521 z m 4,0 3.800781,0 0,3.9521 -3.800781,0 0,-3.9521 z m 4,0 3.800781,0 0,3.9521 -3.800781,0 0,-3.9521 z m 4,0 3.800781,0 0,3.9521 -3.800781,0 0,-3.9521 z m 4,0 3.800781,0 0,3.9521 -3.800781,0 0,-3.9521 z m -32.0000002,4.1592 3.8007812,0 0,3.9521 -3.8007812,0 0,-3.9521 z m 4.0000002,0 3.800781,0 0,3.9521 -3.800781,0 0,-3.9521 z m 4,0 3.800781,0 0,3.9521 -3.800781,0 0,-3.9521 z m 4,0 3.800781,0 0,3.9521 -3.800781,0 0,-3.9521 z m 4,0 3.800781,0 0,3.9521 -3.800781,0 0,-3.9521 z m 4,0 3.800781,0 0,3.9521 -3.800781,0 0,-3.9521 z m 4,0 3.800781,0 0,3.9521 -3.800781,0 0,-3.9521 z m 4,0 3.800781,0 0,3.9521 -3.800781,0 0,-3.9521 z m 4,0 3.800781,0 0,3.9521 -3.800781,0 0,-3.9521 z m 4,6.9232 c -0.0016,0.01 -0.0042,0.014 -0.0059,0.021 0.0012,0 0.0047,-0.01 0.0059,-0.014 l 0,-0.01 z m -0.1875,0.4691 c -0.0045,0.01 -0.0071,0.017 -0.01172,0.025 l 0,0.01 c 0.0059,-0.01 0.0061,-0.023 0.01172,-0.032 z m -38.6835942,0.719 c 0.01975,0.01 0.04054,0.011 0.06055,0.018 -0.01769,-0.01 -0.03532,-0.011 -0.05273,-0.018 l -0.0078,0 z m 37.8359382,0 c -0.02052,0.01 -0.04161,0.014 -0.0625,0.02 0.02372,-0.01 0.04893,-0.012 0.07226,-0.02 l -0.0098,0 z m -37.5820322,0.073 c 0.09258,0.019 0.188585,0.03 0.28711,0.03 -0.09811,-4e-4 -0.193834,-0.012 -0.28711,-0.03 z m 37.3359382,0 c -0.09328,0.018 -0.188998,0.03 -0.28711,0.03 0.09874,0 0.19415,-0.011 0.28711,-0.03 z"
       id="rect4064"
       inkscape:connector-curvature="0" />
    <path
       style="fill:#cae5d5;fill-opacity:1;stroke:none"
       inkscape:transform-center-x="2.6754985"
       d="m 28.505592,1037.3337 -13.828521,-8.9715 13.828521,-11.7713 z"
       id="path4114"
       inkscape:connector-curvature="0"
       sodipodi:nodetypes="cccc"
       inkscape:transform-center-y="0.00011217126" />
    <path
       sodipodi:type="arc"
       style="fill:#50b579;fill-opacity:0.77900552;stroke:none"
       id="path4117"
       sodipodi:cx="11.879646"
       sodipodi:cy="23.957109"
       sodipodi:rx="0.40964296"
       sodipodi:ry="0.40964296"
       d="m 12.289289,23.957109 c 0,0.22624 -0.183403,0.409643 -0.409643,0.409643 -0.226239,0 -0.409643,-0.183403 -0.409643,-0.409643 0,-0.226239 0.183404,-0.409643 0.409643,-0.409643 0.22624,0 0.409643,0.183404 0.409643,0.409643 z"
       transform="matrix(0.57142648,0,0,0.57142648,7.9122434,1014.6724)" />
    <path
       transform="matrix(0.57142648,0,0,0.57142648,7.9122434,1021.5349)"
       d="m 12.289289,23.957109 c 0,0.22624 -0.183403,0.409643 -0.409643,0.409643 -0.226239,0 -0.409643,-0.183403 -0.409643,-0.409643 0,-0.226239 0.183404,-0.409643 0.409643,-0.409643 0.22624,0 0.409643,0.183404 0.409643,0.409643 z"
       sodipodi:ry="0.40964296"
       sodipodi:rx="0.40964296"
       sodipodi:cy="23.957109"
       sodipodi:cx="11.879646"
       id="path4123"
       style="fill:#50b579;fill-opacity:0.77900552;stroke:none"
       sodipodi:type="arc" />
    <path
       sodipodi:nodetypes="cccc"
       inkscape:connector-curvature="0"
       id="path4133"
       d="m 28.505592,1037.1971 4.514269,2.8793 -4.514269,-23.4855 z"
       inkscape:transform-center-x="-2.6754981"
       style="fill:#dfefe6;fill-opacity:1;stroke:none"
       inkscape:transform-center-y="3.4168983e-05" />
    <path
       sodipodi:nodetypes="cccc"
       inkscape:connector-curvature="0"
       id="path4125"
       d="m 33.077004,1040.1335 -18.399933,-4.914 0.114286,-6.8573 z"
       inkscape:transform-center-x="2.6754989"
       style="fill:#82c99f;fill-opacity:1;stroke:none"
       inkscape:transform-center-y="-6.968187e-05" />
    <path
       transform="matrix(0.57142648,0,0,0.57142648,21.632498,1023.4668)"
       d="m 12.289289,23.957109 c 0,0.22624 -0.183403,0.409643 -0.409643,0.409643 -0.226239,0 -0.409643,-0.183403 -0.409643,-0.409643 0,-0.226239 0.183404,-0.409643 0.409643,-0.409643 0.22624,0 0.409643,0.183404 0.409643,0.409643 z"
       sodipodi:ry="0.40964296"
       sodipodi:rx="0.40964296"
       sodipodi:cy="23.957109"
       sodipodi:cx="11.879646"
       id="path4135"
       style="fill:#50b579;fill-opacity:0.77900552;stroke:none"
       sodipodi:type="arc" />
    <g
       id="g4505"
       transform="matrix(0.5,-0.8660254,0.8660254,0.5,-887.64792,524.92573)">
      <g
         id="g4501">
        <rect
           style="fill:#0000ff;fill-opacity:0.5372549;stroke:none"
           id="rect4495"
           width="0.1"
           height="4.0000019"
           x="9.15172"
           y="1034.8018" />
        <path
           sodipodi:type="arc"
           style="fill:#ff00ff;fill-opacity:0.5372549;stroke:none"
           id="path4497"
           sodipodi:cx="9.1910944"
           sodipodi:cy="30.415585"
           sodipodi:rx="0.16697589"
           sodipodi:ry="0.16697589"
           d="m 9.3580703,30.415585 c 0,0.09222 -0.074758,0.166975 -0.1669759,0.166975 -0.092218,0 -0.1669759,-0.07476 -0.1669759,-0.166975 0,-0.09222 0.074758,-0.166976 0.1669759,-0.166976 0.092218,0 0.1669759,0.07476 0.1669759,0.166976 z"
           transform="translate(0.01062565,1004.2192)" />
      </g>
      <path
         sodipodi:type="arc"
         style="fill:#ff00ff;fill-opacity:0.5372549;stroke:none"
         id="path4499"
         sodipodi:cx="9.1910944"
         sodipodi:cy="30.415585"
         sodipodi:rx="0.16697589"
         sodipodi:ry="0.16697589"
         d="m 9.3580703,30.415585 c 0,0.09222 -0.074758,0.166975 -0.1669759,0.166975 -0.092218,0 -0.1669759,-0.07476 -0.1669759,-0.166975 0,-0.09222 0.074758,-0.166976 0.1669759,-0.166976 0.092218,0 0.1669759,0.07476 0.1669759,0.166976 z"
         transform="translate(0.01062565,1008.5532)" />
    </g>
    <path
       sodipodi:type="arc"
       style="fill:#50b579;fill-opacity:0.77900552;stroke:none"
       id="path4121"
       sodipodi:cx="11.879646"
       sodipodi:cy="23.957109"
       sodipodi:rx="0.40964296"
       sodipodi:ry="0.40964296"
       d="m 12.289289,23.957109 c 0,0.22624 -0.183403,0.409643 -0.409643,0.409643 -0.226239,0 -0.409643,-0.183403 -0.409643,-0.409643 0,-0.226239 0.183404,-0.409643 0.409643,-0.409643 0.22624,0 0.409643,0.183404 0.409643,0.409643 z"
       transform="matrix(0.57142648,0,0,-0.57142648,21.632498,1030.2861)" />
    <g
       transform="translate(19.255656,-20.05317)"
       id="g4511">
      <g
         id="g4513">
        <rect
           y="1034.8018"
           x="9.15172"
           height="4.0000019"
           width="0.1"
           id="rect4515"
           style="fill:#0000ff;fill-opacity:0.5372549;stroke:none" />
        <path
           transform="translate(0.01062565,1004.2192)"
           d="m 9.3580703,30.415585 c 0,0.09222 -0.074758,0.166975 -0.1669759,0.166975 -0.092218,0 -0.1669759,-0.07476 -0.1669759,-0.166975 0,-0.09222 0.074758,-0.166976 0.1669759,-0.166976 0.092218,0 0.1669759,0.07476 0.1669759,0.166976 z"
           sodipodi:ry="0.16697589"
           sodipodi:rx="0.16697589"
           sodipodi:cy="30.415585"
           sodipodi:cx="9.1910944"
           id="path4517"
           style="fill:#ff00ff;fill-opacity:0.5372549;stroke:none"
           sodipodi:type="arc" />
      </g>
      <path
         transform="translate(0.01062565,1008.5532)"
         d="m 9.3580703,30.415585 c 0,0.09222 -0.074758,0.166975 -0.1669759,0.166975 -0.092218,0 -0.1669759,-0.07476 -0.1669759,-0.166975 0,-0.09222 0.074758,-0.166976 0.1669759,-0.166976 0.092218,0 0.1669759,0.07476 0.1669759,0.166976 z"
         sodipodi:ry="0.16697589"
         sodipodi:rx="0.16697589"
         sodipodi:cy="30.415585"
         sodipodi:cx="9.1910944"
         id="path4519"
         style="fill:#ff00ff;fill-opacity:0.5372549;stroke:none"
         sodipodi:type="arc" />
    </g>
    <path
       sodipodi:type="arc"
       style="fill:#50b579;fill-opacity:0.77900552;stroke:none"
       id="path4127"
       sodipodi:cx="11.879646"
       sodipodi:cy="23.957109"
       sodipodi:rx="0.40964296"
       sodipodi:ry="0.40964296"
       d="m 12.289289,23.957109 c 0,0.22624 -0.183403,0.409643 -0.409643,0.409643 -0.226239,0 -0.409643,-0.183403 -0.409643,-0.409643 0,-0.226239 0.183404,-0.409643 0.409643,-0.409643 0.22624,0 0.409643,0.183404 0.409643,0.409643 z"
       transform="matrix(0.57142648,0,0,0.57142648,26.20391,1026.4382)" />
    <g
       id="g4521"
       transform="matrix(0.70710678,0.70710678,-0.70710678,0.70710678,759.3546,300.97142)">
      <g
         id="g4523">
        <rect
           style="fill:#0000ff;fill-opacity:0.5372549;stroke:none"
           id="rect4525"
           width="0.1"
           height="4.0000019"
           x="9.15172"
           y="1034.8018" />
        <path
           sodipodi:type="arc"
           style="fill:#ff00ff;fill-opacity:0.5372549;stroke:none"
           id="path4527"
           sodipodi:cx="9.1910944"
           sodipodi:cy="30.415585"
           sodipodi:rx="0.16697589"
           sodipodi:ry="0.16697589"
           d="m 9.3580703,30.415585 c 0,0.09222 -0.074758,0.166975 -0.1669759,0.166975 -0.092218,0 -0.1669759,-0.07476 -0.1669759,-0.166975 0,-0.09222 0.074758,-0.166976 0.1669759,-0.166976 0.092218,0 0.1669759,0.07476 0.1669759,0.166976 z"
           transform="translate(0.01062565,1004.2192)" />
      </g>
      <path
         sodipodi:type="arc"
         style="fill:#ff00ff;fill-opacity:0.5372549;stroke:none"
         id="path4529"
         sodipodi:cx="9.1910944"
         sodipodi:cy="30.415585"
         sodipodi:rx="0.16697589"
         sodipodi:ry="0.16697589"
         d="m 9.3580703,30.415585 c 0,0.09222 -0.074758,0.166975 -0.1669759,0.166975 -0.092218,0 -0.1669759,-0.07476 -0.1669759,-0.166975 0,-0.09222 0.074758,-0.166976 0.1669759,-0.166976 0.092218,0 0.1669759,0.07476 0.1669759,0.166976 z"
         transform="translate(0.01062565,1008.5532)" />
    </g>
    <path
       style="fill:#000000;fill-opacity:0.3137255;stroke:none"
       d="M 14.519531 11.900391 L 14.519531 12.400391 L 14.619141 12.400391 L 14.619141 13.849609 L 14.919922 13.849609 L 14.919922 12.400391 L 15.019531 12.400391 L 15.019531 12.300781 L 15.849609 12.300781 L 15.849609 12 L 15.019531 12 L 15.019531 11.900391 L 14.519531 11.900391 z M 32.980469 11.900391 L 32.980469 12 L 32.150391 12 L 32.150391 12.300781 L 32.980469 12.300781 L 32.980469 12.400391 L 33.080078 12.400391 L 33.080078 13.849609 L 33.380859 13.849609 L 33.380859 12.400391 L 33.480469 12.400391 L 33.480469 11.900391 L 32.980469 11.900391 z M 16.150391 12 L 16.150391 12.300781 L 17.849609 12.300781 L 17.849609 12 L 16.150391 12 z M 18.150391 12 L 18.150391 12.300781 L 19.849609 12.300781 L 19.849609 12 L 18.150391 12 z M 20.150391 12 L 20.150391 12.300781 L 21.849609 12.300781 L 21.849609 12 L 20.150391 12 z M 22.150391 12 L 22.150391 12.300781 L 23.849609 12.300781 L 23.849609 12 L 22.150391 12 z M 24.150391 12 L 24.150391 12.300781 L 25.849609 12.300781 L 25.849609 12 L 24.150391 12 z M 26.150391 12 L 26.150391 12.300781 L 27.849609 12.300781 L 27.849609 12 L 26.150391 12 z M 28.150391 12 L 28.150391 12.300781 L 29.849609 12.300781 L 29.849609 12 L 28.150391 12 z M 30.150391 12 L 30.150391 12.300781 L 31.849609 12.300781 L 31.849609 12 L 30.150391 12 z M 14.619141 14.150391 L 14.619141 15.849609 L 14.919922 15.849609 L 14.919922 14.150391 L 14.619141 14.150391 z M 33.080078 14.150391 L 33.080078 15.849609 L 33.380859 15.849609 L 33.380859 14.150391 L 33.080078 14.150391 z M 14.619141 16.150391 L 14.619141 17.849609 L 14.919922 17.849609 L 14.919922 16.150391 L 14.619141 16.150391 z M 33.080078 16.150391 L 33.080078 17.849609 L 33.380859 17.849609 L 33.380859 16.150391 L 33.080078 16.150391 z M 14.619141 18.150391 L 14.619141 19.849609 L 14.919922 19.849609 L 14.919922 18.150391 L 14.619141 18.150391 z M 33.080078 18.150391 L 33.080078 19.849609 L 33.380859 19.849609 L 33.380859 18.150391 L 33.080078 18.150391 z M 14.619141 20.150391 L 14.619141 21.849609 L 14.919922 21.849609 L 14.919922 20.150391 L 14.619141 20.150391 z M 33.080078 20.150391 L 33.080078 21.849609 L 33.380859 21.849609 L 33.380859 20.150391 L 33.080078 20.150391 z M 14.619141 22.150391 L 14.619141 23.849609 L 14.919922 23.849609 L 14.919922 22.150391 L 14.619141 22.150391 z M 33.080078 22.150391 L 33.080078 23.849609 L 33.380859 23.849609 L 33.380859 22.150391 L 33.080078 22.150391 z M 14.619141 24.150391 L 14.619141 25.849609 L 14.919922 25.849609 L 14.919922 24.150391 L 14.619141 24.150391 z M 33.080078 24.150391 L 33.080078 25.849609 L 33.380859 25.849609 L 33.380859 24.150391 L 33.080078 24.150391 z M 14.619141 26.150391 L 14.619141 27.849609 L 14.919922 27.849609 L 14.919922 26.150391 L 14.619141 26.150391 z M 33.080078 26.150391 L 33.080078 27.849609 L 33.380859 27.849609 L 33.380859 26.150391 L 33.080078 26.150391 z M 14.619141 28.150391 L 14.619141 29.849609 L 14.919922 29.849609 L 14.919922 28.150391 L 14.619141 28.150391 z M 33.080078 28.150391 L 33.080078 29.849609 L 33.380859 29.849609 L 33.380859 28.150391 L 33.080078 28.150391 z M 14.619141 30.150391 L 14.619141 31.849609 L 14.919922 31.849609 L 14.919922 30.150391 L 14.619141 30.150391 z M 33.080078 30.150391 L 33.080078 31.849609 L 33.380859 31.849609 L 33.380859 30.150391 L 33.080078 30.150391 z M 14.619141 32.150391 L 14.619141 33.849609 L 14.919922 33.849609 L 14.919922 32.150391 L 14.619141 32.150391 z M 33.080078 32.150391 L 33.080078 33.849609 L 33.380859 33.849609 L 33.380859 32.150391 L 33.080078 32.150391 z M 14.619141 34.150391 L 14.619141 35.599609 L 14.519531 35.599609 L 14.519531 36.099609 L 15.019531 36.099609 L 15.019531 36 L 15.849609 36 L 15.849609 35.699219 L 15.019531 35.699219 L 15.019531 35.599609 L 14.919922 35.599609 L 14.919922 34.150391 L 14.619141 34.150391 z M 33.080078 34.150391 L 33.080078 35.599609 L 32.980469 35.599609 L 32.980469 35.699219 L 32.150391 35.699219 L 32.150391 36 L 32.980469 36 L 32.980469 36.099609 L 33.480469 36.099609 L 33.480469 35.599609 L 33.380859 35.599609 L 33.380859 34.150391 L 33.080078 34.150391 z M 16.150391 35.699219 L 16.150391 36 L 17.849609 36 L 17.849609 35.699219 L 16.150391 35.699219 z M 18.150391 35.699219 L 18.150391 36 L 19.849609 36 L 19.849609 35.699219 L 18.150391 35.699219 z M 20.150391 35.699219 L 20.150391 36 L 21.849609 36 L 21.849609 35.699219 L 20.150391 35.699219 z M 22.150391 35.699219 L 22.150391 36 L 23.849609 36 L 23.849609 35.699219 L 22.150391 35.699219 z M 24.150391 35.699219 L 24.150391 36 L 25.849609 36 L 25.849609 35.699219 L 24.150391 35.699219 z M 26.150391 35.699219 L 26.150391 36 L 27.849609 36 L 27.849609 35.699219 L 26.150391 35.699219 z M 28.150391 35.699219 L 28.150391 36 L 29.849609 36 L 29.849609 35.699219 L 28.150391 35.699219 z M 30.150391 35.699219 L 30.150391 36 L 31.849609 36 L 31.849609 35.699219 L 30.150391 35.699219 z "
       id="rect4423"
       transform="translate(0,1004.3622)" />
    <text
       xml:space="preserve"
       style="font-size:40px;font-style:italic;font-variant:normal;font-weight:bold;font-stretch:normal;line-height:125%;letter-spacing:0px;word-spacing:0px;fill:#000000;fill-opacity:1;stroke:none;font-family:URW Chancery L;-inkscape-font-specification:URW Chancery L Bold Italic"
       x="-57.752277"
       y="1026.7611"
       id="text3025"
       sodipodi:linespacing="125%"><tspan
         sodipodi:role="line"
         id="tspan3027"
         x="-57.752277"
         y="1026.7611" /></text>
    <text
       sodipodi:linespacing="125%"
       id="text3025-9"
       y="1026.7611"
       x="-57.752277"
       style="font-size:40px;font-style:italic;font-variant:normal;font-weight:bold;font-stretch:normal;line-height:125%;letter-spacing:0px;word-spacing:0px;fill:#000000;fill-opacity:1;stroke:none;font-family:URW Chancery L;-inkscape-font-specification:URW Chancery L Bold Italic"
       xml:space="preserve"><tspan
         y="1026.7611"
         x="-57.752277"
         id="tspan3027-3"
         sodipodi:role="line" /></text>
    <path
       style="opacity:0.5;fill:#000000;fill-opacity:1;stroke:none"
       d="m 6,1048.3622 0,0 c 18,-1 18,-1 36,0 z"
       id="path3257"
       inkscape:connector-curvature="0"
       sodipodi:nodetypes="cccc" />
    <path
       sodipodi:nodetypes="cccc"
       inkscape:connector-curvature="0"
       id="path4027"
       d="m 6,1008.3622 0,0 c 18,1 18,1 36,0 z"
       style="opacity:0.9;fill:#ffffff;fill-opacity:1;stroke:none" />
  </g>
</svg>
