<?xml version="1.0" encoding="UTF-8" standalone="no"?>
<!-- Created with Inkscape (http://www.inkscape.org/) -->

<svg
   xmlns:dc="http://purl.org/dc/elements/1.1/"
   xmlns:cc="http://creativecommons.org/ns#"
   xmlns:rdf="http://www.w3.org/1999/02/22-rdf-syntax-ns#"
   xmlns:svg="http://www.w3.org/2000/svg"
   xmlns="http://www.w3.org/2000/svg"
   xmlns:xlink="http://www.w3.org/1999/xlink"
   xmlns:sodipodi="http://sodipodi.sourceforge.net/DTD/sodipodi-0.dtd"
   xmlns:inkscape="http://www.inkscape.org/namespaces/inkscape"
   width="48"
   height="48"
   id="svg5453"
   version="1.1"
   inkscape:version="0.48.5 r10040"
   sodipodi:docname="klipper.svg">
  <defs
     id="defs5455">
    <linearGradient
       inkscape:collect="always"
       id="linearGradient4303">
      <stop
         style="stop-color:#977a5c;stop-opacity:1"
         offset="0"
         id="stop4305" />
      <stop
         style="stop-color:#9d8062;stop-opacity:1"
         offset="1"
         id="stop4307" />
    </linearGradient>
    <linearGradient
       inkscape:collect="always"
       id="linearGradient4273">
      <stop
         style="stop-color:#f2f2f2;stop-opacity:1"
         offset="0"
         id="stop4275" />
      <stop
         style="stop-color:#ffffff;stop-opacity:1"
         offset="1"
         id="stop4277" />
    </linearGradient>
    <linearGradient
       inkscape:collect="always"
       id="linearGradient4152">
      <stop
         style="stop-color:#bd8d48;stop-opacity:1"
         offset="0"
         id="stop4154" />
      <stop
         style="stop-color:#e8b971;stop-opacity:1"
         offset="1"
         id="stop4156" />
    </linearGradient>
    <linearGradient
       inkscape:collect="always"
       xlink:href="#linearGradient4152"
       id="linearGradient4158"
       x1="409.57144"
       y1="543.79797"
       x2="409.57144"
       y2="503.798"
       gradientUnits="userSpaceOnUse"
       gradientTransform="matrix(1.1250015,0,0,0.9250002,-51.071966,40.784727)" />
    <linearGradient
       inkscape:collect="always"
       xlink:href="#linearGradient4273"
       id="linearGradient4279"
       x1="408.57144"
       y1="541.79797"
       x2="408.57144"
       y2="505.798"
       gradientUnits="userSpaceOnUse"
       gradientTransform="matrix(1,0,0,0.91666686,0,45.149736)" />
    <linearGradient
       inkscape:collect="always"
       xlink:href="#linearGradient4303"
       id="linearGradient4309"
       x1="409.57144"
       y1="542.79797"
       x2="409.57144"
       y2="504.798"
       gradientUnits="userSpaceOnUse"
       gradientTransform="matrix(1,0,0,0.92105349,0,42.851946)" />
    <linearGradient
       id="linearGradient4410"
       inkscape:collect="always">
      <stop
         id="stop4412"
         offset="0"
         style="stop-color:#383e51;stop-opacity:1" />
      <stop
         id="stop4414"
         offset="1"
         style="stop-color:#655c6f;stop-opacity:0" />
    </linearGradient>
    <linearGradient
       inkscape:collect="always"
       xlink:href="#linearGradient4410"
       id="linearGradient4187"
       x1="391.57144"
       y1="504.798"
       x2="418.57144"
       y2="531.79797"
       gradientUnits="userSpaceOnUse" />
  </defs>
  <sodipodi:namedview
     id="base"
     pagecolor="#ffffff"
     bordercolor="#666666"
     borderopacity="1.0"
     inkscape:pageopacity="0"
     inkscape:pageshadow="2"
     inkscape:zoom="11.313708"
     inkscape:cx="7.7471422"
     inkscape:cy="18.489377"
     inkscape:document-units="px"
     inkscape:current-layer="layer1"
     showgrid="true"
     fit-margin-top="0"
     fit-margin-left="0"
     fit-margin-right="0"
     fit-margin-bottom="0"
     inkscape:window-width="1301"
     inkscape:window-height="744"
     inkscape:window-x="65"
     inkscape:window-y="24"
     inkscape:window-maximized="1"
     inkscape:showpageshadow="false"
     borderlayer="true"
     showguides="true">
    <inkscape:grid
       type="xygrid"
       id="grid4063" />
    <sodipodi:guide
       position="1.1650391e-05,47.999996"
       orientation="4,0"
       id="guide4146" />
    <sodipodi:guide
       position="1.1650391e-05,43.999996"
       orientation="0,48"
       id="guide4148" />
    <sodipodi:guide
       position="48.000012,43.999996"
       orientation="-4,0"
       id="guide4150" />
    <sodipodi:guide
       position="48.000012,47.999996"
       orientation="0,-48"
       id="guide4152" />
    <sodipodi:guide
       position="1.1650391e-05,4.0000264"
       orientation="4,0"
       id="guide4154" />
    <sodipodi:guide
       position="1.1650391e-05,2.6367188e-05"
       orientation="0,48"
       id="guide4156" />
    <sodipodi:guide
       position="48.000012,2.6367188e-05"
       orientation="-4,0"
       id="guide4158" />
    <sodipodi:guide
       position="48.000012,4.0000264"
       orientation="0,-48"
       id="guide4160" />
    <sodipodi:guide
       position="48.000012,48.000026"
       orientation="0,-4"
       id="guide4162" />
    <sodipodi:guide
       position="44.000012,48.000026"
       orientation="48,0"
       id="guide4164" />
    <sodipodi:guide
       position="44.000012,2.6367188e-05"
       orientation="0,4"
       id="guide4166" />
    <sodipodi:guide
       position="48.000012,2.6367188e-05"
       orientation="-48,0"
       id="guide4168" />
    <sodipodi:guide
       position="4.0000422,48.000026"
       orientation="0,-4"
       id="guide4170" />
    <sodipodi:guide
       position="4.2167969e-05,48.000026"
       orientation="48,0"
       id="guide4172" />
    <sodipodi:guide
       position="4.2167969e-05,2.6367188e-05"
       orientation="0,4"
       id="guide4174" />
    <sodipodi:guide
       position="4.0000422,2.6367188e-05"
       orientation="-48,0"
       id="guide4176" />
  </sodipodi:namedview>
  <metadata
     id="metadata5458">
    <rdf:RDF>
      <cc:Work
         rdf:about="">
        <dc:format>image/svg+xml</dc:format>
        <dc:type
           rdf:resource="http://purl.org/dc/dcmitype/StillImage" />
        <dc:title></dc:title>
      </cc:Work>
    </rdf:RDF>
  </metadata>
  <g
     inkscape:label="Capa 1"
     inkscape:groupmode="layer"
     id="layer1"
     transform="translate(-384.57143,-499.798)">
    <rect
       style="opacity:1;fill:url(#linearGradient4158);fill-opacity:1;stroke:none"
       id="rect4139"
       width="35.999992"
       height="37.000015"
       x="390.57144"
       y="506.79816"
       ry="0" />
    <rect
       style="opacity:0.5;fill:url(#linearGradient4309);fill-opacity:1;stroke:none"
       id="rect4250"
       width="34"
       height="35"
       x="391.57144"
       y="507.798" />
    <rect
       style="opacity:1;fill:url(#linearGradient4279);fill-opacity:1;stroke:none"
       id="rect4242"
       width="32"
       height="32.999985"
       x="392.57144"
       y="508.798" />
    <path
       style="opacity:1;fill:#afc0c6;fill-opacity:1;stroke:none;stroke-width:0.1;stroke-miterlimit:4;stroke-dasharray:none;stroke-opacity:1"
       d="M 20 4 L 18 6 L 11 6 L 11 10 L 37 10 L 37 6 L 30 6 L 28 4 L 20 4 z M 24 5 C 24.554 5 25 5.446 25 6 C 25 6.554 24.554 7 24 7 C 23.446 7 23 6.554 23 6 C 23 5.446 23.446 5 24 5 z "
       transform="translate(384.57143,499.798)"
       id="rect4231" />
    <rect
       style="opacity:1;fill:#96aab5;fill-opacity:1;stroke:none;stroke-width:0.1;stroke-miterlimit:4;stroke-dasharray:none;stroke-opacity:1"
       id="rect4249"
       width="26"
       height="1"
       x="395.57144"
       y="508.798" />
    <rect
       style="opacity:1;fill:#d1dbdf;fill-opacity:1;stroke:none;stroke-width:0.1;stroke-miterlimit:4;stroke-dasharray:none;stroke-opacity:1"
       id="rect4254"
       width="18"
       height="2"
       x="395.57144"
       y="512.79797" />
    <rect
       y="516.79797"
       x="395.57144"
       height="2"
       width="7.9999886"
       id="rect4256"
       style="opacity:1;fill:#d1dbdf;fill-opacity:1;stroke:none;stroke-width:0.1;stroke-miterlimit:4;stroke-dasharray:none;stroke-opacity:1" />
    <rect
       style="opacity:1;fill:#d1dbdf;fill-opacity:1;stroke:none;stroke-width:0.1;stroke-miterlimit:4;stroke-dasharray:none;stroke-opacity:1"
       id="rect4258"
       width="18"
       height="2"
       x="395.57144"
       y="520.79797" />
    <rect
       y="524.79797"
       x="395.57144"
       height="2"
       width="12.999989"
       id="rect4260"
       style="opacity:1;fill:#d1dbdf;fill-opacity:1;stroke:none;stroke-width:0.1;stroke-miterlimit:4;stroke-dasharray:none;stroke-opacity:1" />
    <rect
       style="opacity:1;fill:#d1dbdf;fill-opacity:1;stroke:none;stroke-width:0.1;stroke-miterlimit:4;stroke-dasharray:none;stroke-opacity:1"
       id="rect4262"
       width="9.9999886"
       height="2"
       x="395.57144"
       y="536.79797" />
    <rect
       style="opacity:1;fill:#aa7f41;fill-opacity:1;stroke:none"
       id="rect4171"
       width="35.999992"
       height="0.9999736"
       x="390.57144"
       y="542.79797" />
    <path
       style="fill:url(#linearGradient4187);fill-rule:evenodd;stroke:none;stroke-width:1px;stroke-linecap:butt;stroke-linejoin:miter;stroke-opacity:1;fill-opacity:1;opacity:0.2"
       d="m 421.57143,509.798 5,5 0,28.99997 -7,0 7,3e-5 0,-4 0,1 -31,-31 z"
       id="path4179"
       inkscape:connector-curvature="0" />
    <path
       style="fill:#000000;fill-opacity:0.39215686;stroke:none"
       d="m 418.42707,529.1852 -1.58897,0.1572 0,6.4955 1.57151,-0.227 0,-2.7763 2.09535,3.0732 1.64136,-0.5239 -2.14774,-2.9509 2.1652,-2.7938 -1.67628,-0.3842 -2.07789,2.7938 0.0175,-2.8636 z m -3.57955,1.5889 c -0.0178,0 -0.039,0.01 -0.0524,0.018 l -0.61114,0.6286 c -0.026,0.027 -0.0366,0.073 -0.0175,0.1048 l 0.71591,1.1874 c -0.12852,0.2161 -0.22323,0.4527 -0.29685,0.6983 l -1.32705,0.2795 c -0.037,0.01 -0.0698,0.032 -0.0698,0.07 l 0,0.8731 c 0,0.037 0.0342,0.078 0.0698,0.087 l 1.29213,0.3143 c 0.0688,0.2847 0.17329,0.5553 0.3143,0.8031 l -0.75083,1.1352 c -0.0208,0.032 -0.01,0.078 0.0175,0.1048 l 0.61115,0.611 c 0.026,0.025 0.073,0.038 0.10476,0.018 l 1.16991,-0.7158 c 0.23003,0.1327 0.47117,0.2434 0.73337,0.3142 l 0.27938,1.3096 c 0.008,0.038 0.0321,0.07 0.0698,0.07 l 0.87306,0 c 0.0368,0 0.0785,-0.034 0.0873,-0.07 l 0.3143,-1.3096 c 0.27028,-0.073 0.53266,-0.1929 0.7683,-0.3317 l 1.15244,0.7683 c 0.0317,0.02 0.0778,0.01 0.10477,-0.018 l 0.61114,-0.6112 c 0.0262,-0.027 0.0367,-0.073 0.0175,-0.1047 l -0.41907,-0.6983 -0.13969,0.052 c -0.0199,0.01 -0.0407,0 -0.0524,-0.018 0,0 -0.2641,-0.4001 -0.61114,-0.9081 -0.41487,0.812 -1.26033,1.3621 -2.23504,1.3621 -1.38481,0 -2.51442,-1.1121 -2.51442,-2.497 0,-1.0187 0.61188,-1.8949 1.48421,-2.2874 l 0,-0.6461 c -0.15877,0.056 -0.30822,0.1126 -0.454,0.1922 -1.1e-4,0 -0.0171,0 -0.0175,0 l -1.1699,-0.7684 c -0.0159,-0.01 -0.0346,-0.019 -0.0524,-0.017 z"
       id="path5692_2_"
       inkscape:connector-curvature="0" />
  </g>
</svg>
