<?xml version="1.0" encoding="UTF-8" standalone="no"?>
<!-- Created with Inkscape (http://www.inkscape.org/) -->

<svg
   xmlns:dc="http://purl.org/dc/elements/1.1/"
   xmlns:cc="http://creativecommons.org/ns#"
   xmlns:rdf="http://www.w3.org/1999/02/22-rdf-syntax-ns#"
   xmlns:svg="http://www.w3.org/2000/svg"
   xmlns="http://www.w3.org/2000/svg"
   xmlns:xlink="http://www.w3.org/1999/xlink"
   xmlns:sodipodi="http://sodipodi.sourceforge.net/DTD/sodipodi-0.dtd"
   xmlns:inkscape="http://www.inkscape.org/namespaces/inkscape"
   width="48"
   height="48"
   id="svg5453"
   version="1.1"
   inkscape:version="0.48.5 r10040"
   sodipodi:docname="Amazon Cloud Reader-read.amazon.com.svg">
  <defs
     id="defs5455">
    <linearGradient
       id="linearGradient3257">
      <stop
         style="stop-color:#d8d8d8;stop-opacity:1;"
         offset="0"
         id="stop3259" />
      <stop
         style="stop-color:#ffffff;stop-opacity:1;"
         offset="1"
         id="stop3261" />
    </linearGradient>
    <linearGradient
       inkscape:collect="always"
       xlink:href="#linearGradient3257"
       id="linearGradient3263"
       x1="384.57147"
       y1="-527.79797"
       x2="432.57147"
       y2="-527.79797"
       gradientUnits="userSpaceOnUse"
       gradientTransform="matrix(0.83333443,0,0,0.83333443,68.094753,-87.299131)" />
    <linearGradient
       id="linearGradient4200"
       inkscape:collect="always">
      <stop
         id="stop4202"
         offset="0"
         style="stop-color:#fa741b;stop-opacity:1" />
      <stop
         id="stop4204"
         offset="1"
         style="stop-color:#f7aa1d;stop-opacity:1" />
    </linearGradient>
    <linearGradient
       gradientTransform="matrix(1.2750803,0,0,1.2750803,-97.089001,-145.9439)"
       gradientUnits="userSpaceOnUse"
       y2="514.92297"
       x2="401.44644"
       y1="535.55371"
       x1="401.44644"
       id="linearGradient4184"
       xlink:href="#linearGradient4200"
       inkscape:collect="always" />
  </defs>
  <sodipodi:namedview
     id="base"
     pagecolor="#ffffff"
     bordercolor="#666666"
     borderopacity="1.0"
     inkscape:pageopacity="0"
     inkscape:pageshadow="2"
     inkscape:zoom="5.6568543"
     inkscape:cx="-13.111453"
     inkscape:cy="31.38386"
     inkscape:document-units="px"
     inkscape:current-layer="layer1"
     showgrid="true"
     fit-margin-top="0"
     fit-margin-left="0"
     fit-margin-right="0"
     fit-margin-bottom="0"
     inkscape:window-width="1301"
     inkscape:window-height="744"
     inkscape:window-x="65"
     inkscape:window-y="24"
     inkscape:window-maximized="1">
    <inkscape:grid
       type="xygrid"
       id="grid3765" />
  </sodipodi:namedview>
  <metadata
     id="metadata5458">
    <rdf:RDF>
      <cc:Work
         rdf:about="">
        <dc:format>image/svg+xml</dc:format>
        <dc:type
           rdf:resource="http://purl.org/dc/dcmitype/StillImage" />
        <dc:title />
      </cc:Work>
    </rdf:RDF>
  </metadata>
  <g
     inkscape:label="Capa 1"
     inkscape:groupmode="layer"
     id="layer1"
     transform="translate(-384.57143,-499.798)">
    <rect
       style="fill:url(#linearGradient3263);fill-opacity:1;stroke:none"
       id="rect2991-1-7"
       width="40.000053"
       height="40.000053"
       x="388.57141"
       y="-543.79797"
       ry="0"
       transform="scale(1,-1)" />
    <path
       style="fill:url(#linearGradient4184);fill-opacity:1"
       d="m 406.31611,510.46464 c 0.80545,6.88514 -5.70081,7.45579 -8.67471,13.91506 -2.97399,6.45785 7.16467,9.03657 7.16467,9.03657 -5.02761,-5.11304 2.59059,-12.6299 2.59059,-12.6299 8.23691,7.05458 2.0038,12.6299 2.0038,12.6299 6.91312,0 10.5888,-4.23386 10.64639,-7.17143 0.07,-3.61566 -4.07526,-7.61616 -4.07526,-7.61616 0.77183,4.74612 -2.10019,5.46355 -2.10019,5.46355 1.00576,-7.88952 -7.55529,-13.62759 -7.55529,-13.62759 z m 9.29531,22.95163 c -0.57755,0.007 -1.26016,0.13736 -1.77722,0.50053 -0.15894,0.11249 -0.13284,0.26628 0.044,0.24519 0.58175,-0.0702 1.87962,-0.22616 2.11033,0.0693 0.2316,0.29575 -0.25731,1.51444 -0.47516,2.0596 -0.0659,0.16493 0.0758,0.23171 0.2249,0.10654 0.96926,-0.81 1.21973,-2.50862 1.02135,-2.75459 -0.0986,-0.12144 -0.57065,-0.23451 -1.14817,-0.22661 z m -15.16976,0.32636 c -0.12012,0.0158 -0.17408,0.16254 -0.0473,0.27733 2.154,1.94472 5.00033,3.11139 8.16064,3.11139 2.25571,0 4.8748,-0.70827 6.68106,-2.04101 0.29906,-0.2205 0.0451,-0.55193 -0.26041,-0.42275 -2.02534,0.85926 -4.22699,1.275 -6.22956,1.275 -2.9682,0 -5.84303,-0.81351 -8.16741,-2.16614 -0.0507,-0.0297 -0.0969,-0.0392 -0.13697,-0.0338 z"
       id="path4149"
       inkscape:connector-curvature="0" />
    <path
       style="fill:#000000;fill-opacity:0.31372549"
       d="m 407.39591,520.09307 c 0,0 -4.60821,4.54961 -4.28831,8.97741 0.15994,-4.19672 4.28831,-8.28411 4.28831,-8.28411 3.04621,2.60896 4.1074,5.01366 4.24267,7.0108 0.0816,-2.1231 -0.83184,-4.78287 -4.24267,-7.7041 z m 12.62823,5.70029 c -0.23633,2.82854 -3.67358,6.66115 -9.99367,6.90595 -0.34479,0.43211 -0.63075,0.71697 -0.63075,0.71697 6.91314,0 10.58883,-4.23385 10.6464,-7.17143 0.003,-0.1497 -0.011,-0.30078 -0.022,-0.45149 z m -22.91105,0.54449 c -0.36489,5.02439 7.69225,7.07843 7.69225,7.07843 -0.29729,-0.30232 -0.5479,-0.61294 -0.76094,-0.93004 -1.84177,-0.59919 -6.62734,-2.49097 -6.93131,-6.14839 z m 19.66775,7.36928 c -0.10855,0.62976 -0.43455,1.4883 -1.04333,1.99705 -0.006,0.005 -0.0112,0.004 -0.0169,0.009 -0.0751,0.20235 -0.15192,0.43801 -0.20798,0.57832 -0.0659,0.16494 0.0758,0.2317 0.22491,0.10652 0.91912,-0.7681 1.18673,-2.32055 1.04332,-2.69033 z m -16.33991,0.0355 c -0.12013,0.0158 -0.17408,0.16253 -0.0472,0.27732 2.15399,1.94472 5.00034,3.1114 8.16066,3.1114 2.2557,0 4.87479,-0.70827 6.68105,-2.04101 0.29905,-0.2205 0.0451,-0.55193 -0.26042,-0.42275 -0.1205,0.0511 -0.24356,0.0957 -0.36526,0.14374 -1.7543,1.06378 -4.047,1.62672 -6.05537,1.62672 -2.51704,0 -4.82791,-0.74877 -6.75546,-2.03256 -0.41942,-0.19551 -0.83038,-0.40179 -1.22088,-0.62904 -0.0507,-0.0297 -0.0969,-0.0392 -0.13699,-0.0338 z"
       id="path5117"
       inkscape:connector-curvature="0"
       sodipodi:nodetypes="cccccccccccccccccccscccscccscccc" />
    <path
       style="fill:#ffffff;fill-opacity:0.23529412"
       d="m 406.31561,510.46464 c 0.0149,0.12714 0.0103,0.23729 0.0203,0.3602 0.10674,0.0718 7.43546,5.03609 7.61128,12.06541 0.063,-7.26276 -7.63157,-12.42561 -7.63157,-12.42561 z m 0.0558,1.36128 c -0.1612,5.62638 -5.96685,6.55099 -8.73073,12.55413 -0.40939,0.88892 -0.56294,1.70157 -0.53606,2.4469 0.0271,-0.64952 0.18933,-1.34734 0.53606,-2.10024 2.81928,-6.12349 8.80109,-6.96498 8.73073,-12.90079 z m 9.59993,6.80297 c 0.0227,0.13972 0.0325,0.26457 0.049,0.39738 0.14675,0.14287 3.91693,3.85281 4.01448,7.33903 0.002,-0.0395 0.0111,-0.0811 0.0118,-0.12006 0.0701,-3.61575 -4.07536,-7.61635 -4.07536,-7.61635 z m 0.12343,1.73498 c -0.0902,3.06753 -2.04105,3.67655 -2.19156,3.71856 -0.0109,0.11885 -0.0169,0.23695 -0.0321,0.3568 0,0 2.27937,-0.5806 2.22369,-4.07536 z m -0.48363,13.05299 c -0.57755,0.007 -1.26018,0.13737 -1.77726,0.50053 -0.15893,0.11249 -0.13284,0.26628 0.044,0.2452 0.0402,-0.005 0.11761,-0.008 0.16404,-0.0135 0.48482,-0.26792 1.06412,-0.37872 1.56926,-0.38555 0.57753,-0.008 1.04961,0.10516 1.1482,0.22659 0.0246,0.0305 0.0422,0.0834 0.0524,0.15389 0.0203,-0.24363 0.002,-0.43197 -0.0524,-0.50054 -0.0986,-0.12144 -0.57067,-0.2345 -1.1482,-0.2266 z m -15.17013,0.32636 c -0.12014,0.0158 -0.1741,0.16254 -0.0473,0.27732 0.0321,0.029 0.0674,0.0542 0.0998,0.0828 0.0274,0.004 0.0532,0.002 0.0846,0.0203 2.32444,1.35266 5.19934,2.16619 8.16762,2.16619 2.00261,0 4.20432,-0.41574 6.22972,-1.27502 0.11803,-0.0498 0.21713,-0.0208 0.29085,0.0338 0.22115,-0.2179 -0.003,-0.502 -0.29085,-0.38048 -2.0254,0.85928 -4.22711,1.27502 -6.22972,1.27502 -2.96828,0 -5.84318,-0.81352 -8.16762,-2.16618 -0.0507,-0.0297 -0.0969,-0.0393 -0.13698,-0.0338 z m 15.58443,0.93682 c -0.0701,0.49492 -0.35646,1.22138 -0.51237,1.61155 -0.0394,0.0986 -3.4e-4,0.15567 0.066,0.16402 0.21312,-0.53757 0.54435,-1.40853 0.44644,-1.77557 z"
       id="path5122"
       inkscape:connector-curvature="0"
       sodipodi:nodetypes="cccccccccccccccccccccccccccccccccccscccscccccccc" />
    <path
       style="opacity:0.5;fill:#000000;fill-opacity:1;stroke:none"
       d="m 388.57143,543.798 0,0 c 20,-1 20,-1 40,0 z"
       id="path3257"
       inkscape:connector-curvature="0"
       sodipodi:nodetypes="cccc" />
    <path
       sodipodi:nodetypes="cccc"
       inkscape:connector-curvature="0"
       id="path4027"
       d="m 388.57143,503.798 0,0 c 20,1 20,1 40,0 z"
       style="opacity:0.9;fill:#ffffff;fill-opacity:1;stroke:none" />
  </g>
</svg>
