<?xml version="1.0" encoding="UTF-8" standalone="no"?>
<!-- Created with Inkscape (http://www.inkscape.org/) -->

<svg
   xmlns:dc="http://purl.org/dc/elements/1.1/"
   xmlns:cc="http://creativecommons.org/ns#"
   xmlns:rdf="http://www.w3.org/1999/02/22-rdf-syntax-ns#"
   xmlns:svg="http://www.w3.org/2000/svg"
   xmlns="http://www.w3.org/2000/svg"
   xmlns:xlink="http://www.w3.org/1999/xlink"
   xmlns:sodipodi="http://sodipodi.sourceforge.net/DTD/sodipodi-0.dtd"
   xmlns:inkscape="http://www.inkscape.org/namespaces/inkscape"
   version="1.0"
   width="48"
   height="48"
   id="svg2408"
   inkscape:version="0.48.5 r10040"
   sodipodi:docname="kompozer.svg">
  <sodipodi:namedview
     pagecolor="#ffffff"
     bordercolor="#666666"
     borderopacity="1"
     objecttolerance="10"
     gridtolerance="10"
     guidetolerance="10"
     inkscape:pageopacity="0"
     inkscape:pageshadow="2"
     inkscape:window-width="1366"
     inkscape:window-height="744"
     id="namedview54"
     showgrid="true"
     inkscape:zoom="6.6940502"
     inkscape:cx="62.674285"
     inkscape:cy="24.85895"
     inkscape:window-x="0"
     inkscape:window-y="24"
     inkscape:window-maximized="1"
     inkscape:current-layer="svg2408">
    <inkscape:grid
       type="xygrid"
       id="grid3797"
       empspacing="5"
       visible="true"
       enabled="true"
       snapvisiblegridlinesonly="true" />
  </sodipodi:namedview>
  <defs
     id="defs2410">
    <linearGradient
       id="linearGradient3785">
      <stop
         style="stop-color:#2787cb;stop-opacity:1;"
         offset="0"
         id="stop3787" />
      <stop
         style="stop-color:#3ca0e6;stop-opacity:1;"
         offset="1"
         id="stop3789" />
    </linearGradient>
    <linearGradient
       x1="45.447727"
       y1="92.539597"
       x2="45.447727"
       y2="7.0165396"
       id="ButtonShadow"
       gradientUnits="userSpaceOnUse"
       gradientTransform="scale(1.0058652,0.994169)">
      <stop
         id="stop3750"
         style="stop-color:#000000;stop-opacity:1"
         offset="0" />
      <stop
         id="stop3752"
         style="stop-color:#000000;stop-opacity:0.58823532"
         offset="1" />
    </linearGradient>
    <filter
       color-interpolation-filters="sRGB"
       id="filter3174">
      <feGaussianBlur
         id="feGaussianBlur3176"
         stdDeviation="1.71" />
    </filter>
    <linearGradient
       inkscape:collect="always"
       xlink:href="#linearGradient3785"
       id="linearGradient3791"
       x1="6"
       y1="48"
       x2="90"
       y2="48"
       gradientUnits="userSpaceOnUse" />
    <linearGradient
       inkscape:collect="always"
       xlink:href="#linearGradient3785"
       id="linearGradient3793"
       gradientUnits="userSpaceOnUse"
       x1="6"
       y1="48"
       x2="90"
       y2="48" />
    <linearGradient
       inkscape:collect="always"
       xlink:href="#linearGradient3785"
       id="linearGradient3795"
       gradientUnits="userSpaceOnUse"
       x1="6"
       y1="48"
       x2="90"
       y2="48" />
  </defs>
  <metadata
     id="metadata2413">
    <rdf:RDF>
      <cc:Work
         rdf:about="">
        <dc:format>image/svg+xml</dc:format>
        <dc:type
           rdf:resource="http://purl.org/dc/dcmitype/StillImage" />
        <dc:title />
      </cc:Work>
    </rdf:RDF>
  </metadata>
  <g
     id="layer2"
     style="display:none"
     transform="translate(0,-48)">
    <rect
       width="86"
       height="85"
       rx="6"
       ry="6"
       x="5"
       y="7"
       id="rect3745"
       style="opacity:0.9;fill:url(#ButtonShadow);fill-opacity:1;fill-rule:nonzero;stroke:none;filter:url(#filter3174)" />
  </g>
  <g
     id="layer1"
     style="fill:url(#linearGradient3791);fill-opacity:1"
     transform="matrix(0.47581845,0,0,0.47581845,1.1763393,1.2075891)">
    <rect
       width="84"
       height="84"
       rx="6"
       ry="0"
       x="6"
       y="6"
       id="rect2419"
       style="fill:url(#linearGradient3793);fill-opacity:1;fill-rule:nonzero;stroke:none" />
    <path
       d="M 12,6 C 8.676,6 6,8.676 6,12 l 0,2 0,68 0,2 c 0,0.334721 0.04135,0.6507 0.09375,0.96875 0.0487,0.295596 0.09704,0.596915 0.1875,0.875 0.00988,0.03038 0.020892,0.0636 0.03125,0.09375 0.098865,0.287771 0.2348802,0.547452 0.375,0.8125 0.1445918,0.273507 0.3156161,0.535615 0.5,0.78125 0.1843839,0.245635 0.3737765,0.473472 0.59375,0.6875 0.439947,0.428056 0.94291,0.814526 1.5,1.09375 0.278545,0.139612 0.5734731,0.246947 0.875,0.34375 -0.2562018,-0.100222 -0.4867109,-0.236272 -0.71875,-0.375 -0.00741,-0.0044 -0.023866,0.0045 -0.03125,0 -0.031933,-0.0193 -0.062293,-0.04251 -0.09375,-0.0625 -0.120395,-0.0767 -0.2310226,-0.163513 -0.34375,-0.25 -0.1061728,-0.0808 -0.2132809,-0.161112 -0.3125,-0.25 C 8.4783201,88.557317 8.3087904,88.373362 8.15625,88.1875 8.0486711,88.057245 7.9378561,87.922215 7.84375,87.78125 7.818661,87.74287 7.805304,87.69538 7.78125,87.65625 7.716487,87.553218 7.6510225,87.451733 7.59375,87.34375 7.4927417,87.149044 7.3880752,86.928049 7.3125,86.71875 7.30454,86.69694 7.288911,86.6782 7.28125,86.65625 7.2494249,86.5643 7.2454455,86.469419 7.21875,86.375 7.1884177,86.268382 7.1483606,86.171969 7.125,86.0625 7.0521214,85.720988 7,85.364295 7,85 L 7,83 7,15 7,13 C 7,10.218152 9.2181517,8 12,8 l 2,0 68,0 2,0 c 2.781848,0 5,2.218152 5,5 l 0,2 0,68 0,2 c 0,0.364295 -0.05212,0.720988 -0.125,1.0625 -0.04415,0.206893 -0.08838,0.397658 -0.15625,0.59375 -0.0077,0.02195 -0.0233,0.04069 -0.03125,0.0625 -0.06274,0.173739 -0.138383,0.367449 -0.21875,0.53125 -0.04158,0.0828 -0.07904,0.169954 -0.125,0.25 -0.0546,0.09721 -0.126774,0.18835 -0.1875,0.28125 -0.09411,0.140965 -0.204921,0.275995 -0.3125,0.40625 -0.143174,0.17445 -0.303141,0.346998 -0.46875,0.5 -0.01117,0.0102 -0.01998,0.02115 -0.03125,0.03125 -0.138386,0.125556 -0.285091,0.234436 -0.4375,0.34375 -0.102571,0.07315 -0.204318,0.153364 -0.3125,0.21875 -0.0074,0.0045 -0.02384,-0.0044 -0.03125,0 -0.232039,0.138728 -0.462548,0.274778 -0.71875,0.375 0.301527,-0.0968 0.596455,-0.204138 0.875,-0.34375 0.55709,-0.279224 1.060053,-0.665694 1.5,-1.09375 0.219973,-0.214028 0.409366,-0.441865 0.59375,-0.6875 0.184384,-0.245635 0.355408,-0.507743 0.5,-0.78125 0.14012,-0.265048 0.276135,-0.524729 0.375,-0.8125 0.01041,-0.03078 0.02133,-0.06274 0.03125,-0.09375 0.09046,-0.278085 0.1388,-0.579404 0.1875,-0.875 C 89.95865,84.6507 90,84.334721 90,84 l 0,-2 0,-68 0,-2 C 90,8.676 87.324,6 84,6 L 12,6 z"
       inkscape:connector-curvature="0"
       id="rect3728"
       style="opacity:0.3;fill:url(#linearGradient3795);fill-opacity:1;fill-rule:nonzero;stroke:none" />
  </g>
  <path
     style="opacity:0.60444444;fill:#ffffff;fill-opacity:1;stroke:none;display:inline"
     d="m 23.111065,9.8166776 -0.734544,0.010316 c -0.04134,5.236e-4 -0.138311,0.045336 -0.292347,0.029385 -0.11044,0.00765 -0.220791,0.014898 -0.330546,0.024981 0.0067,0.020289 0.0064,0.044393 -0.0059,0.076396 -0.01983,0.051659 -0.103329,0.069252 -0.318789,0.069041 -0.315161,-3.29e-4 -0.690471,0.08697 -0.690471,0.160133 -10e-6,0.02485 0.06346,0.04555 0.141032,0.04555 0.133186,0 0.141033,0.01043 0.141033,0.188043 -10e-6,0.158878 0.01467,0.188043 0.09696,0.188043 0.05358,0 0.185787,-0.05167 0.293819,-0.114589 0.108033,-0.06292 0.318493,-0.16065 0.46717,-0.215958 0.148662,-0.05529 0.270311,-0.117617 0.270311,-0.139562 -10e-6,-0.06436 0.259443,-0.103518 0.451008,-0.06758 l 0.17629,0.03379 -0.149841,0.133684 c -0.08263,0.07382 -0.181974,0.135156 -0.220369,0.135156 -0.03838,0 -0.06904,0.03174 -0.06904,0.07052 -9e-6,0.03878 0.04028,0.07052 0.09108,0.07052 0.116084,0 0.221157,0.175477 0.148375,0.248278 -0.02778,0.02777 -0.172581,0.06533 -0.321728,0.08374 -0.303215,0.03743 -0.434869,0.08756 -0.66109,0.252683 -0.08516,0.06216 -0.307286,0.148619 -0.493613,0.190981 -0.35505,0.08072 -0.867524,0.231156 -1.066557,0.312918 -0.115061,0.04724 -0.11546,0.04837 -0.02351,0.116055 0.0674,0.04962 0.159719,0.06174 0.329076,0.04113 0.429697,-0.05229 0.749173,-0.12786 0.925524,-0.217425 0.228591,-0.116089 0.41301,-0.118937 0.383431,-0.0059 -0.01534,0.05865 0.01948,0.0976 0.118998,0.135157 0.109863,0.04148 0.147703,0.09099 0.173352,0.227707 0.02585,0.13776 0.06395,0.188588 0.182166,0.237997 0.154525,0.06456 0.40253,0.371202 0.40253,0.498018 -8e-6,0.05281 -0.037,0.06521 -0.141031,0.04995 -0.152532,-0.02239 -0.17679,0.02642 -0.09108,0.186576 0.04514,0.08433 0.03969,0.09214 -0.04701,0.06464 -0.05392,-0.01713 -0.137253,-0.01858 -0.186577,-0.003 -0.204323,0.06485 -0.140901,0.160768 0.352581,0.527405 0.340241,0.252796 0.468509,0.371922 0.409878,0.381963 -0.153119,0.02622 -0.454059,0.154435 -0.592045,0.252683 -0.121133,0.08625 -0.131616,0.114556 -0.104305,0.276188 0.02916,0.172691 0.02315,0.183639 -0.14397,0.264437 -0.147407,0.07127 -0.193939,0.133609 -0.299695,0.40253 -0.06889,0.175185 -0.17889,0.372805 -0.243868,0.437788 -0.111435,0.111426 -0.12558,0.114438 -0.252683,0.04847 -0.07414,-0.03846 -0.152104,-0.06013 -0.173353,-0.04701 -0.06194,0.03829 -0.0453,0.246548 0.03232,0.396658 0.06665,0.1289 0.06422,0.151639 -0.03525,0.337886 -0.07023,0.131446 -0.10577,0.281871 -0.10577,0.436321 -10e-6,0.230828 -0.0028,0.235281 -0.152786,0.249746 -0.162333,0.01565 -0.199279,0.09925 -0.0852,0.193919 0.10536,0.08744 0.03322,0.190323 -0.132217,0.18951 -0.166324,-8.09e-4 -0.807063,-0.437797 -0.75805,-0.517119 0.01555,-0.02518 0.184344,-0.04554 0.374615,-0.04554 0.342098,0 0.346902,-0.0021 0.443669,-0.158661 0.05381,-0.08708 0.09843,-0.233282 0.09843,-0.324671 -9e-6,-0.144083 -0.01998,-0.172662 -0.148379,-0.217426 -0.08143,-0.02837 -0.234792,-0.05298 -0.340829,-0.05435 -0.18132,-0.0023 -0.517072,-0.05543 -1.18408,-0.185106 -0.389654,-0.07575 -0.586761,-0.01463 -0.949036,0.292347 -0.326302,0.276494 -0.49908,0.505409 -0.5465,0.721324 -0.02738,0.124669 -0.04998,0.141051 -0.160129,0.12487 -0.09189,-0.01349 -0.158915,0.01553 -0.24093,0.102841 -0.0626,0.06662 -0.09186,0.121932 -0.06464,0.121932 0.02722,0 0.07582,0.0622 0.107246,0.138095 0.04734,0.11433 0.04425,0.160697 -0.01763,0.270312 -0.04108,0.07277 -0.115496,0.227415 -0.164537,0.343766 -0.04905,0.116353 -0.313615,0.518295 -0.587636,0.893206 -0.619471,0.847558 -0.698905,1.005904 -0.724258,1.442644 -0.0167,0.287951 -0.0037,0.363896 0.08374,0.505367 0.05658,0.09157 0.13392,0.167475 0.171885,0.167475 0.122614,0 0.319885,-0.128443 0.431913,-0.280592 0.08332,-0.113189 0.139105,-0.14478 0.235054,-0.13369 0.100667,0.01164 0.128264,0.04182 0.141033,0.154252 0.0088,0.07729 0.07753,0.225281 0.152784,0.327608 0.168407,0.228995 0.172385,0.329824 0.01616,0.559721 -0.07011,0.103152 -0.11196,0.217119 -0.09843,0.268845 0.01295,0.0495 0.0049,0.09108 -0.01763,0.09108 -0.08441,0 -0.138096,-0.191855 -0.138096,-0.492141 -9e-6,-0.396513 -0.083,-0.449193 -0.312918,-0.198329 -0.139584,0.152305 -0.157189,0.200707 -0.157189,0.436316 -10e-6,0.146049 0.02488,0.350649 0.05583,0.453951 0.05457,0.182092 0.05094,0.192368 -0.09549,0.323199 -0.08309,0.07422 -0.190948,0.135157 -0.24093,0.135157 -0.106558,0 -0.281191,0.218679 -0.412816,0.517118 -0.109841,0.248997 -0.265879,0.402841 -0.453951,0.449542 l -0.135156,0.03379 0.03379,-0.309979 c 0.03243,-0.302862 0.03017,-0.309421 -0.0999,-0.392249 -0.175638,-0.111854 -0.189214,-0.132999 -0.292351,-0.471575 -0.04867,-0.159781 -0.154516,-0.389738 -0.236522,-0.511243 l -0.149847,-0.221834 0.09402,-0.09843 c 0.191174,-0.204127 0.2373,-0.49949 0.07786,-0.49949 -0.08831,0 -0.08893,-0.0045 -0.0044,-0.167477 0.106691,-0.205644 0.03531,-0.227848 -0.1616,-0.04995 -0.255631,0.230941 -0.377215,0.290348 -0.428974,0.210078 -0.03397,-0.05265 -0.04985,-0.051 -0.08814,0.0073 -0.06067,0.09239 -0.05938,0.172139 0.0059,0.35258 0.06292,0.174011 0.02136,0.459042 -0.08226,0.562659 -0.03962,0.03961 -0.122563,0.07199 -0.183638,0.07199 -0.145415,0 -0.445132,0.360409 -0.445132,0.534748 -9e-6,0.06927 -0.03174,0.202452 -0.07052,0.295289 -0.03879,0.09281 -0.07052,0.240268 -0.07052,0.327605 -9e-6,0.191343 0.05165,0.198762 0.380492,0.05729 0.265592,-0.11426 0.418692,-0.341858 0.418692,-0.62436 -9e-6,-0.178664 0.08306,-0.40253 0.149847,-0.40253 0.02299,0 0.104405,0.03107 0.1807,0.07052 0.192711,0.09967 0.196299,0.31009 0.0059,0.381964 -0.11442,0.04319 -0.145791,0.09519 -0.213021,0.362862 -0.04664,0.185645 -0.0669,0.384652 -0.04995,0.49068 0.02112,0.132025 0.01,0.19486 -0.04555,0.240931 -0.09988,0.08287 -0.09548,0.158322 0.0073,0.126336 0.179727,-0.0559 1.116799,-0.167588 1.195839,-0.142498 0.07575,0.02404 0.07671,0.03926 0.01763,0.152784 -0.03612,0.06943 -0.117508,0.174664 -0.182167,0.235054 -0.09427,0.08805 -0.136077,0.1013 -0.210082,0.0617 -0.109686,-0.0587 -0.151314,-0.02801 -0.151314,0.113123 -9e-6,0.12274 -0.186143,0.214204 -0.399591,0.196853 -0.12481,-0.01009 -0.143092,0.0051 -0.157191,0.129279 -0.01276,0.112249 0.0161,0.168821 0.146909,0.282065 0.138207,0.11969 0.186492,0.220068 0.309975,0.641995 0.174311,0.595659 0.176592,0.636897 0.03967,0.807998 l -0.10577,0.132219 -0.304099,-0.06905 c -0.166972,-0.03858 -0.309736,-0.08865 -0.317323,-0.110185 -0.05299,-0.150158 -0.09874,-0.171417 -0.239459,-0.113119 -0.156212,0.06469 -0.269545,0.02726 -0.467175,-0.152785 l -0.107245,-0.09696 -0.104305,0.104305 c -0.131537,0.131526 -0.130888,0.385496 0.0014,0.644931 0.08446,0.165566 0.08906,0.201603 0.03231,0.3041 -0.03542,0.06399 -0.0652,0.164573 -0.0661,0.221833 -9.51e-4,0.05726 -0.04378,0.126579 -0.0955,0.154254 -0.06646,0.03556 -0.09402,0.09854 -0.09402,0.214486 -10e-6,0.143586 0.01676,0.167011 0.136627,0.190983 0.125797,0.02516 0.141362,0.05128 0.196853,0.330544 0.06357,0.319898 0.133365,0.403014 0.442199,0.525933 0.09797,0.039 0.166136,0.1171 0.2233,0.255622 0.101599,0.246247 0.100157,0.343111 -0.0044,0.539155 -0.07597,0.142423 -0.08916,0.148491 -0.174824,0.08374 -0.202611,-0.153192 -0.349304,-0.07007 -0.602325,0.33789 -0.139096,0.224255 -0.156038,0.350204 -0.05583,0.43338 0.08212,0.06815 0.16687,0.02762 0.168947,-0.08226 0.0027,-0.143698 0.139561,0.08681 0.139561,0.235054 -10e-6,0.100457 -0.04661,0.164028 -0.195391,0.271782 -0.107311,0.07773 -0.223227,0.142501 -0.257088,0.142501 -0.03388,-5e-6 -0.08731,0.08991 -0.118999,0.199796 -0.03167,0.109885 -0.08498,0.241356 -0.118993,0.292349 -0.034,0.051 -0.0617,0.159862 -0.0617,0.242399 -1e-5,0.08253 -0.06488,0.320296 -0.143972,0.527403 l -0.14397,0.376086 0.104306,0.202734 c 0.27224,0.531616 0.498296,1.120334 0.475984,1.236973 -0.01712,0.08952 0.01752,0.172003 0.124876,0.30557 0.09575,0.119163 0.146815,0.238012 0.14838,0.339357 0.0021,0.138222 0.04007,0.182778 0.340828,0.398126 0.18613,0.133275 0.595026,0.461223 0.907892,0.730134 0.731512,0.628732 0.97957,0.80937 1.317775,0.957845 0.151454,0.06649 0.41369,0.181453 0.581758,0.255622 0.168055,0.07417 0.59652,0.210748 0.953441,0.302631 0.5686,0.146388 0.719872,0.166833 1.22228,0.167476 0.579828,7.62e-4 0.691262,0.02007 1.514628,0.25856 0.232695,0.0674 0.599844,0.152819 0.816813,0.189515 0.216955,0.03667 0.398366,0.07222 0.40253,0.07934 0.0042,0.0071 0.04278,0.07084 0.08668,0.141031 0.04387,0.0702 0.0808,0.199345 0.0808,0.287942 -1e-5,0.142428 0.02041,0.169103 0.17629,0.230645 0.09695,0.03828 0.334947,0.107012 0.528872,0.152784 0.19391,0.04577 0.458355,0.121838 0.587635,0.168948 0.12927,0.04711 0.298514,0.100201 0.376086,0.117527 0.114909,0.02566 0.218432,0.08809 0.270313,0.154252 0.02368,0.009 0.0887,0.0319 0.117526,0.04261 0.05845,6.66e-4 0.116201,0.0044 0.17482,0.0044 0.253698,-6e-6 0.50602,-0.0064 0.756583,-0.0191 0.250572,-0.01271 0.499183,-0.03217 0.746297,-0.0573 0.247121,-0.02513 0.492659,-0.05534 0.73601,-0.09256 0.243346,-0.03722 0.484973,-0.08174 0.724263,-0.130746 0.239276,-0.04901 0.476125,-0.102587 0.711038,-0.163071 0.234899,-0.06049 0.467603,-0.126667 0.697814,-0.198325 0.230217,-0.07166 0.457895,-0.149599 0.683129,-0.232116 0.225219,-0.08252 0.448516,-0.169902 0.668432,-0.262969 0.219917,-0.09307 0.436497,-0.191969 0.650809,-0.295285 0.214318,-0.103318 0.426251,-0.211416 0.634646,-0.324671 0.208399,-0.113248 0.41338,-0.23117 0.61555,-0.354047 0.124889,-0.07592 0.246309,-0.15703 0.368739,-0.236526 -0.07538,-0.0035 -0.150101,-4.7e-4 -0.226239,-0.01176 -0.1078,-0.02795 -0.174044,-0.199199 -0.173353,-0.451008 4.7e-4,-0.173338 0.06054,-0.283526 0.506837,-0.925525 0.278583,-0.400772 0.628197,-0.887334 0.777146,-1.081249 0.40323,-0.52498 0.764137,-1.276824 0.80506,-1.677699 0.01801,-0.176442 0.06299,-0.42487 0.0999,-0.552377 0.09765,-0.337284 0.07947,-0.825627 -0.03085,-0.825627 -0.02211,-6e-6 -0.39129,0.356487 -0.819756,0.793307 -0.428461,0.436815 -0.815243,0.804151 -0.859415,0.815344 -0.131912,0.03343 -0.379696,-0.05374 -0.431911,-0.151315 -0.04065,-0.07595 -0.02422,-0.108566 0.09843,-0.198327 0.147182,-0.107756 1.173884,-1.360365 1.636569,-1.996491 0.135161,-0.18585 0.25643,-0.403113 0.268841,-0.481861 0.02294,-0.145641 0.161713,-0.464134 0.603793,-1.389758 L 33.606155,28.214052 33.6326,27.5559 c 0.01487,-0.361984 0.01686,-0.714453 0.0029,-0.783023 -0.03642,-0.179499 -0.214661,-0.198196 -0.549434,-0.05729 -0.305109,0.128414 -0.409934,0.116755 -0.603798,-0.06464 -0.280452,-0.26242 -0.283757,-0.576362 -0.0044,-0.411344 l 0.136628,0.07933 0.326137,-0.24093 c 0.354382,-0.262946 0.59842,-0.531924 0.994571,-1.095941 0.384854,-0.547939 0.480032,-0.58857 0.953441,-0.405468 0.478062,0.184913 0.543111,0.187385 0.734543,0.03525 0.09414,-0.07482 0.189674,-0.135156 0.21302,-0.135156 0.09276,0 0.344886,0.226255 0.550907,0.495085 0.209028,0.272758 0.946547,1.009262 1.010731,1.009262 0.04187,0 0.123023,-0.218257 0.1616,-0.433379 0.09672,-0.0865 0.172601,-0.180987 0.239464,-0.277659 0.01236,-0.247203 0.01909,-0.494574 0.01909,-0.744827 3e-6,-0.253712 -0.0064,-0.506014 -0.01909,-0.756582 -0.01272,-0.250567 -0.0307,-0.50066 -0.05583,-0.747763 -0.02512,-0.247121 -0.0568,-0.491197 -0.09402,-0.734544 -0.03723,-0.243361 -0.08027,-0.484978 -0.12928,-0.724263 -0.04901,-0.239285 -0.104039,-0.477592 -0.164537,-0.712509 -0.0605,-0.234909 -0.126671,-0.46759 -0.198325,-0.697815 -0.07167,-0.230226 -0.148117,-0.457886 -0.230649,-0.683128 -0.08245,-0.225196 -0.171275,-0.447017 -0.264356,-0.666928 -0.09308,-0.219932 -0.190497,-0.437972 -0.293817,-0.652276 -0.103325,-0.214322 -0.212884,-0.424784 -0.326133,-0.633179 -0.113264,-0.208394 -0.231181,-0.41338 -0.354054,-0.61555 C 35.564967,16.698467 35.43808,16.498333 35.305891,16.302712 35.173688,16.10709 35.03722,15.915605 34.896018,15.726829 34.754802,15.538053 34.608142,15.353136 34.458225,15.171513 34.308322,14.989892 34.15524,14.810922 33.996946,14.636765 33.838637,14.462609 33.675575,14.291903 33.509208,14.125523 33.342819,13.959142 33.172117,13.797566 32.997966,13.639253 32.8238,13.480957 32.646311,13.3264 32.464685,13.176492 32.283068,13.026584 32.098145,12.881381 31.909369,12.74017 31.720583,12.598968 31.527646,12.462492 31.332015,12.330296 31.136384,12.198102 30.937731,12.069758 30.73557,11.946863 30.533396,11.823985 30.328414,11.706068 30.12002,11.592815 29.911631,11.479561 29.699686,11.37145 29.485373,11.268148 c -0.214307,-0.103329 -0.430872,-0.202217 -0.650808,-0.295289 -0.21993,-0.09307 -0.443208,-0.180455 -0.668432,-0.262965 -0.225238,-0.08253 -0.452898,-0.160451 -0.683129,-0.23212 -0.23023,-0.07166 -0.462906,-0.13784 -0.697814,-0.198324 -0.234917,-0.06049 -0.471758,-0.114067 -0.711038,-0.163066 -0.239295,-0.04902 -0.480908,-0.09207 -0.724263,-0.12928 -0.243361,-0.037227 -0.488894,-0.068908 -0.73601,-0.094023 -0.247108,-0.025125 -0.49573,-0.044582 -0.746297,-0.057294 -0.250563,-0.012712 -0.50287,-0.019102 -0.756584,-0.019091 z m -7.893408,2.3035304 c -0.109364,0.06976 -0.220227,0.13752 -0.327609,0.210077 -0.195616,0.132194 -0.388572,0.268671 -0.577348,0.409873 -0.188782,0.141207 -0.373695,0.286415 -0.555316,0.436322 -0.181627,0.149908 -0.359135,0.304475 -0.533277,0.46276 -0.174161,0.1583 -0.344871,0.31989 -0.511242,0.486271 -0.166386,0.166381 -0.329452,0.337087 -0.487738,0.511243 -0.158304,0.174156 -0.31139,0.353126 -0.461298,0.534748 -0.149899,0.181622 -0.296587,0.366539 -0.437783,0.555315 -0.141211,0.188776 -0.277684,0.380261 -0.409879,0.575883 -0.06599,0.09764 -0.1273,0.198945 -0.190981,0.298222 0.05503,-0.03036 0.164246,-0.130117 0.282065,-0.268841 0.137235,-0.1616 0.573828,-0.615555 0.971069,-1.007794 0.502818,-0.496514 0.750589,-0.7762 0.815342,-0.922587 0.05115,-0.115643 0.123714,-0.222554 0.160133,-0.236521 0.0364,-0.01398 0.234001,-0.153114 0.439255,-0.309981 0.341351,-0.260881 0.528871,-0.347725 0.528871,-0.245339 -4e-6,0.02185 -0.04451,0.07902 -0.09843,0.127813 -0.05392,0.04879 -0.175059,0.194925 -0.268845,0.324666 -0.09379,0.129744 -0.42589,0.532694 -0.737483,0.894677 -0.311597,0.361983 -0.65055,0.764029 -0.753644,0.893205 -0.103063,0.129177 -0.245444,0.298415 -0.317323,0.376087 -0.351669,0.380021 -1.095061,1.641162 -1.206119,2.047908 -0.06635,0.24299 -0.05409,0.474565 0.02645,0.500957 0.02961,0.0098 0.155921,-0.11307 0.280594,-0.271778 0.124697,-0.158709 0.386682,-0.40751 0.581759,-0.553845 0.363431,-0.272639 0.418776,-0.301762 1.388291,-0.715448 0.62756,-0.267778 0.734849,-0.34717 0.894676,-0.66109 0.06063,-0.11912 0.294198,-0.415289 0.518585,-0.658151 0.224383,-0.242863 0.548499,-0.619133 0.719853,-0.83738 0.171345,-0.218248 0.50713,-0.606924 0.746297,-0.862357 0.239163,-0.255424 0.43485,-0.494493 0.43485,-0.531805 -4e-6,-0.03734 -0.02554,-0.107212 -0.05583,-0.155728 -0.04508,-0.07218 -0.03188,-0.137239 0.07492,-0.355515 0.07176,-0.146693 0.12378,-0.274361 0.114584,-0.283537 -0.02012,-0.02012 -0.406027,0.05074 -0.521523,0.0955 -0.06746,0.02612 -0.08226,0.0057 -0.08226,-0.113122 -5e-6,-0.113404 0.03063,-0.160331 0.141032,-0.217426 0.07756,-0.04011 0.141033,-0.09417 0.141033,-0.118998 -6e-6,-0.02481 -0.132217,-0.111443 -0.293817,-0.192447 -0.161606,-0.081 -0.30377,-0.154832 -0.314386,-0.164539 -0.0032,-0.003 -0.0048,-0.0064 -0.0059,-0.01032 -0.05502,-0.027 -0.0654,-0.02632 -0.111651,-0.04701 z m 4.263294,0.276188 c -0.02186,-6.65e-4 -0.04295,5.71e-4 -0.06317,0.0014 -0.242783,0.01065 -0.371681,0.131024 -0.371681,0.352581 -6e-6,0.103218 -0.03297,0.171721 -0.105781,0.220362 -0.104617,0.06987 -0.105326,0.07125 -0.01616,0.170416 0.09541,0.106125 0.162108,0.101854 0.427504,-0.02938 0.23842,-0.117904 0.493613,-0.393674 0.493613,-0.533278 -5e-6,-0.103085 -0.02636,-0.130144 -0.146909,-0.154256 -0.0791,-0.01582 -0.151845,-0.02592 -0.217424,-0.02791 z m 1.257539,0.284999 c -0.08256,2.81e-4 -0.111895,0.03468 -0.182167,0.14838 -0.05561,0.08996 -0.0999,0.235576 -0.0999,0.3232 -6e-6,0.238871 0.394138,1.174099 0.525933,1.247258 0.166117,0.0922 0.452799,0.07565 0.634646,-0.03673 0.18109,-0.111923 0.167819,-0.142575 -0.10283,-0.221831 -0.10343,-0.03031 -0.240931,-0.09675 -0.305571,-0.146908 -0.113747,-0.08828 -0.117527,-0.108987 -0.117527,-0.653747 -4e-6,-0.309589 -0.01506,-0.576254 -0.03232,-0.593511 -0.01726,-0.01726 -0.114278,-0.04367 -0.215957,-0.05729 -0.04283,-0.0058 -0.07678,-0.0089 -0.104306,-0.0088 z m -2.764824,0.337895 c -0.04027,0.0061 -0.08923,0.034 -0.141032,0.08226 -0.132712,0.12363 -0.09092,0.19494 0.101366,0.176291 0.122848,-0.01194 0.14838,-0.03398 0.14838,-0.130751 -5e-6,-0.08506 -0.03695,-0.128123 -0.09255,-0.127808 -0.0054,2.3e-5 -0.01043,-8.57e-4 -0.01616,0 z m -0.265903,0.578816 c -0.0094,-3.29e-4 -0.01917,2.35e-4 -0.02938,0.0014 -0.06821,0.0083 -0.160834,0.05393 -0.345238,0.155723 -0.286879,0.158356 -0.348247,0.215103 -0.39225,0.358458 -0.04856,0.158267 -0.03916,0.186092 0.120471,0.423098 0.09424,0.13995 0.195499,0.25562 0.226234,0.25562 0.03075,0 0.09869,-0.07198 0.149853,-0.15866 0.0557,-0.09441 0.179835,-0.1985 0.309975,-0.261499 0.231236,-0.111942 0.237098,-0.128368 0.188043,-0.486271 -0.02273,-0.165759 -0.05518,-0.224772 -0.145438,-0.265902 -0.02834,-0.01291 -0.05398,-0.02099 -0.08226,-0.02204 z m -4.940545,4.136952 c -0.03686,-0.0027 -0.06672,0.06327 -0.133689,0.195392 -0.09769,0.192795 -0.121932,0.310227 -0.121932,0.570005 -5e-6,0.297513 0.01076,0.335968 0.123403,0.424568 0.06812,0.05358 0.150674,0.09843 0.183639,0.09843 0.03295,0 0.193351,-0.08991 0.356985,-0.199796 0.163631,-0.109885 0.324746,-0.252683 0.356986,-0.317323 0.0632,-0.126665 0.08307,-0.612062 0.02498,-0.61114 -0.01939,3.28e-4 -0.151609,0.03209 -0.293818,0.07052 -0.239439,0.06469 -0.26335,0.06434 -0.315851,-0.01175 -0.09947,-0.144088 -0.143843,-0.216246 -0.1807,-0.218897 z m 13.733035,3.741769 c 0.06174,-0.0013 0.724295,0.39121 0.944625,0.561191 0.208076,0.160538 0.268475,0.185205 0.389306,0.158663 0.132257,-0.02905 0.174416,-0.0016 0.53181,0.354052 0.213105,0.211996 0.475646,0.457819 0.583231,0.5465 0.25313,0.208606 0.552001,0.642271 0.520053,0.75364 -0.01337,0.0466 -0.03867,0.122228 -0.05729,0.167476 -0.02656,0.06449 -0.01087,0.08227 0.07492,0.08227 l 0.110185,0 -0.10577,0.07346 c -0.06469,0.04531 -0.253552,0.08283 -0.492146,0.09843 -0.213021,0.01391 -0.433412,0.05498 -0.490672,0.09108 -0.136231,0.08588 -0.125663,0.0903 -0.267378,-0.09549 -0.111604,-0.146312 -0.121932,-0.200595 -0.121932,-0.581759 -9e-6,-0.462431 -0.0095,-0.478912 -0.30557,-0.574416 -0.451445,-0.145615 -0.914878,-0.427689 -1.17527,-0.715443 -0.231608,-0.255927 -0.25856,-0.309058 -0.25856,-0.493613 -9e-6,-0.167274 0.04607,-0.337002 0.116056,-0.424569 7.13e-4,-9.04e-4 0.0024,-0.0014 0.0044,-0.0014 z m -2.572375,2.152212 c 0.09909,-0.0044 0.209828,0.01215 0.336423,0.04701 0.09048,0.02493 0.385931,0.07854 0.65668,0.118999 0.541381,0.0809 0.676617,0.157223 0.733078,0.414282 0.02742,0.124814 0.01076,0.1624 -0.126342,0.279127 -0.08721,0.07424 -0.224608,0.198287 -0.304099,0.274718 -0.124344,0.119553 -0.198485,0.144332 -0.530344,0.182166 -0.212183,0.0242 -0.407174,0.05723 -0.433378,0.07346 -0.02622,0.01617 -0.100778,-0.0058 -0.166009,-0.04849 -0.09307,-0.06098 -0.133718,-0.06593 -0.186572,-0.02204 -0.03707,0.03073 -0.06611,0.08777 -0.06611,0.126337 -10e-6,0.05991 -0.01891,0.05866 -0.121932,-0.0088 -0.137794,-0.09031 -0.226959,-0.04638 -0.271784,0.132214 -0.01478,0.05885 -0.08154,0.135443 -0.146908,0.170414 -0.06538,0.035 -0.158752,0.132942 -0.208612,0.217425 -0.122006,0.206815 -0.339841,0.30997 -0.709572,0.336423 l -0.308503,0.02204 -0.133689,-0.20273 c -0.133488,-0.201747 -0.134865,-0.205837 -0.107245,-0.755116 0.01982,-0.394543 0.05451,-0.60886 0.118994,-0.75364 0.04964,-0.111439 0.103607,-0.26091 0.120465,-0.332013 0.02769,-0.116887 0.05029,-0.12928 0.237993,-0.12928 0.255226,0 0.449541,0.06914 0.449541,0.160132 -10e-6,0.09386 0.22472,0.262965 0.349642,0.262965 0.06699,0 0.158831,-0.07462 0.264437,-0.215954 0.171433,-0.229421 0.335826,-0.339845 0.553843,-0.349647 z m -6.28182,1.843708 c 0.03938,-0.002 0.0875,0.02334 0.143974,0.0764 0.10709,0.100623 0.113231,0.10283 0.26737,0.10283 0.05993,0 0.1262,0.06274 0.18511,0.17629 0.193313,0.372669 0.326711,0.474947 0.686061,0.528872 0.180982,0.02716 0.395986,0.07178 0.478923,0.09843 0.184602,0.0593 0.343767,0.298792 0.343767,0.520058 -9e-6,0.141961 0.03757,0.194063 0.30557,0.415751 0.243681,0.201586 0.30557,0.279493 0.30557,0.384901 -9e-6,0.100756 0.02244,0.132218 0.09402,0.132218 0.05163,-6e-6 0.177033,0.07524 0.279126,0.167476 0.14784,0.133561 0.217124,0.164666 0.340829,0.152785 0.164062,-0.01576 0.163132,-0.01167 0.0999,-0.332014 -0.02406,-0.121896 -0.0162,-0.129279 0.14397,-0.129279 0.09342,-7e-6 0.170278,0.01587 0.170414,0.03525 0,0.01938 0.04849,0.09551 0.107245,0.168946 0.105548,0.131906 0.108244,0.131576 0.214482,0.04554 0.09054,-0.07332 0.09952,-0.106746 0.06023,-0.21008 -0.03605,-0.0948 -0.13558,-0.159216 -0.437789,-0.285003 -0.316701,-0.131834 -0.421568,-0.20188 -0.549438,-0.368742 l -0.15719,-0.207141 0.142499,-0.03673 c 0.160213,-0.04151 0.220363,-0.108011 0.220363,-0.246807 -10e-6,-0.07139 0.06264,-0.114314 0.267375,-0.183636 0.251912,-0.08528 0.274204,-0.08621 0.387838,-0.01176 0.105038,0.06882 0.120466,0.112885 0.120466,0.336422 -10e-6,0.235725 0.009,0.258877 0.118998,0.286473 0.115256,0.02892 0.116244,0.03259 0.03673,0.120465 -0.07106,0.07851 -0.07229,0.09777 -0.01322,0.135155 0.03775,0.02388 0.0849,0.04368 0.104305,0.04407 0.01938,3.77e-4 0.03525,0.04378 0.03525,0.09549 -10e-6,0.07547 0.03119,0.09402 0.158662,0.09402 0.111867,-10e-7 0.178918,0.03083 0.227706,0.104306 0.06899,0.103917 0.0698,0.103407 0.260031,0.01763 0.105015,-0.04735 0.215413,-0.07138 0.245335,-0.05289 0.02993,0.0185 0.149387,0.02039 0.265908,0.003 0.181663,-0.02726 0.220114,-0.05336 0.262964,-0.176292 l 0.04995,-0.142501 0.348172,0.02203 c 0.322165,0.02067 0.360812,0.01286 0.521528,-0.104305 0.09559,-0.0697 0.264079,-0.224796 0.373144,-0.343766 l 0.19833,-0.215956 0.04701,0.173352 c 0.02652,0.0955 0.04834,0.22411 0.04848,0.285002 0,0.06091 0.05454,0.174345 0.12047,0.252683 0.08515,0.101211 0.112638,0.178588 0.09549,0.265906 -0.06186,0.315042 -0.04485,0.507376 0.05729,0.650806 0.05685,0.07986 0.104305,0.198951 0.104305,0.265904 -9e-6,0.179069 -0.302077,0.380231 -0.677252,0.451011 -0.270095,0.05096 -0.314295,0.04737 -0.43485,-0.02938 -0.07388,-0.04703 -0.1512,-0.112498 -0.171881,-0.145438 -0.02068,-0.03295 -0.121161,-0.05876 -0.223301,-0.05876 -0.155572,-5e-6 -0.185104,0.01514 -0.185104,0.09549 -10e-6,0.05274 -0.04372,0.180638 -0.09696,0.285003 -0.07085,0.138878 -0.08397,0.20668 -0.04701,0.251213 0.03907,0.04707 -0.0021,0.08415 -0.182167,0.1616 -0.127991,0.05505 -0.309086,0.0999 -0.40253,0.0999 -0.09346,-6e-6 -0.234278,0.03279 -0.312918,0.07346 -0.125999,0.06515 -0.162747,0.06652 -0.31438,0.0073 -0.118101,-0.04607 -0.216123,-0.05431 -0.312918,-0.02644 -0.102386,0.02946 -0.191715,0.01856 -0.3232,-0.03967 l -0.180695,-0.0808 -0.30557,0.1616 c -0.381404,0.202276 -0.456438,0.306423 -0.424569,0.589105 0.01973,0.175118 0.0063,0.231198 -0.07346,0.30557 -0.05361,0.04994 -0.108887,0.08719 -0.123403,0.08374 -0.01451,-0.0034 -0.132218,-0.04397 -0.261498,-0.09108 -0.129289,-0.04713 -0.347767,-0.08701 -0.484799,-0.08814 -0.2569,-0.0021 -0.440454,-0.07112 -0.700752,-0.265905 -0.131071,-0.09807 -0.197169,-0.112025 -0.524468,-0.107245 -0.308225,0.0045 -0.421723,-0.01632 -0.633173,-0.113119 -0.322331,-0.147568 -0.381719,-0.280719 -0.19392,-0.430443 l 0.12928,-0.102841 -0.118999,-0.09255 c -0.186605,-0.146779 -0.291289,-0.38375 -0.229178,-0.520057 0.06843,-0.15021 0.06737,-0.155724 -0.04261,-0.155724 -0.05207,-6e-6 -0.134132,-0.02436 -0.182167,-0.05436 -0.0708,-0.0442 -0.112728,-0.03676 -0.226236,0.04407 -0.120531,0.08581 -0.165915,0.09322 -0.317323,0.05141 -0.193025,-0.0533 -0.677763,-0.03429 -1.153235,0.04554 -0.168074,0.02822 -0.411205,0.06493 -0.539153,0.0808 -0.181189,0.02246 -0.264375,0.06266 -0.376087,0.182167 -0.07958,0.08509 -0.245439,0.188026 -0.373153,0.230646 -0.22624,0.0755 -0.235868,0.07367 -0.552378,-0.04995 -0.283855,-0.110873 -0.321727,-0.140052 -0.321727,-0.248276 -9e-6,-0.165206 0.240375,-0.260649 0.461294,-0.183636 0.123186,0.04294 0.174164,0.03658 0.30116,-0.03673 0.224609,-0.129667 0.3187,-0.351691 0.318794,-0.756581 l 0,-0.340829 0.329076,-0.327606 c 0.317812,-0.317197 0.329076,-0.336141 0.329076,-0.558253 -9e-6,-0.187776 0.01937,-0.243584 0.107245,-0.301164 0.0968,-0.06343 0.12297,-0.06221 0.268841,0.01322 0.155741,0.08055 0.169036,0.07999 0.327603,-0.0014 0.09079,-0.04663 0.202791,-0.148296 0.248279,-0.22624 0.04547,-0.07796 0.175337,-0.193339 0.289413,-0.25709 l 0.208605,-0.116059 0.02939,0.123405 c 0.105437,0.428798 0.475797,0.73792 1.50288,1.253131 0.537578,0.269658 0.565338,0.290273 0.633179,0.481861 0.08119,0.229346 0.147567,0.234102 0.210078,0.01616 0.03307,-0.115319 0.02471,-0.191452 -0.03673,-0.320262 -0.09397,-0.197038 -0.04152,-0.265665 0.167482,-0.221831 0.305853,0.06414 0.121504,-0.215825 -0.312918,-0.474516 -0.238896,-0.142251 -0.309397,-0.163598 -0.461294,-0.138094 -0.176258,0.02956 -0.186586,0.02421 -0.599388,-0.393716 -0.390722,-0.395599 -0.42016,-0.439887 -0.42016,-0.618487 -8e-6,-0.145394 0.03866,-0.22285 0.104306,-0.226239 z m 14.483741,0.960783 c 0.0545,-0.003 0.07705,0.06824 0.07786,0.217426 7.62e-4,0.140838 -0.277843,0.732881 -0.387839,0.824158 -0.107056,0.08883 -0.321008,0.100845 -0.571472,0.03085 -0.173819,-0.04857 -0.280961,-0.05231 -0.424565,-0.01616 -0.171942,0.0433 -0.224175,0.03307 -0.508309,-0.0999 -0.312955,-0.146448 -0.315852,-0.150496 -0.315852,-0.334953 -8e-6,-0.240112 0.07024,-0.369605 0.201268,-0.368741 0.05725,3.77e-4 0.251405,0.07347 0.431907,0.1616 0.311668,0.152159 0.340745,0.157021 0.586168,0.111651 0.337722,-0.06243 0.503425,-0.150716 0.721325,-0.384901 0.08502,-0.09138 0.147135,-0.138748 0.189511,-0.141033 z m -15.282926,0.0764 c -0.08304,-0.0018 -0.198325,0.376697 -0.198325,0.66109 -4e-6,0.174695 -0.03244,0.333102 -0.09108,0.448072 -0.08895,0.174343 -0.08911,0.181548 -0.0029,0.312915 0.08782,0.133882 0.254993,0.253941 0.35993,0.25709 0.03046,9.04e-4 0.08994,-0.03267 0.130746,-0.07346 0.163688,-0.163698 0.167773,-0.229556 0.0426,-0.683126 -0.06691,-0.24253 -0.135094,-0.545678 -0.151313,-0.672843 -0.01623,-0.127164 -0.05379,-0.238825 -0.08226,-0.248275 -0.0027,-8.57e-4 -0.0047,-0.0014 -0.0073,-0.0014 z m 1.47056,1.686513 c -0.04027,0.0019 -0.07089,0.0223 -0.116055,0.06317 -0.05266,0.04764 -0.09614,0.06745 -0.09696,0.04407 -0.0034,-0.09781 -0.13956,0.148635 -0.13956,0.252684 -5e-6,0.102808 0.01472,0.112198 0.152785,0.08668 0.08403,-0.01554 0.21625,-0.0102 0.293818,0.01322 0.218948,0.06595 0.332545,0.0585 0.437788,-0.03085 0.07104,-0.06033 0.09005,-0.116751 0.07052,-0.211549 -0.02208,-0.10709 -0.05116,-0.129278 -0.170414,-0.129278 -0.07919,-6e-6 -0.213288,-0.02511 -0.298227,-0.05583 -0.04997,-0.01808 -0.08616,-0.02995 -0.116056,-0.03231 -0.0062,-4.76e-4 -0.01188,-2.82e-4 -0.01763,0 z m 3.76968,0.14544 c -0.04986,0.0054 -0.09532,0.03251 -0.149847,0.08374 -0.08231,0.07732 -0.145569,0.09703 -0.233583,0.07492 -0.09838,-0.02469 -0.118999,-0.01412 -0.118999,0.0617 -4e-6,0.209945 0.426342,0.265245 0.639052,0.08226 0.150495,-0.129456 0.129119,-0.248152 -0.05289,-0.293818 -0.02258,-0.0057 -0.04344,-0.0087 -0.06317,-0.0088 -0.0074,-4.8e-5 -0.01344,-7.61e-4 -0.02057,0 z m 4.069374,1.548419 c 0.154364,0.0017 0.453395,0.159148 0.813874,0.430442 0.257714,0.193943 0.400631,0.265134 0.625832,0.312916 0.203909,0.04327 0.322211,0.09794 0.395186,0.182167 0.25203,0.29094 0.567581,0.571475 0.643456,0.571475 0.04538,-6e-6 0.238147,0.0532 0.428974,0.118997 0.190831,0.06578 0.438079,0.142134 0.547972,0.168944 0.160899,0.03926 0.199796,0.06817 0.199796,0.152786 -10e-6,0.07249 0.05434,0.135666 0.176291,0.204203 0.168806,0.09488 0.387839,0.336116 0.387839,0.427504 -10e-6,0.08894 -0.128076,0.137027 -0.437788,0.164538 -0.303328,0.02693 -0.320233,0.02267 -0.368744,-0.08374 -0.06658,-0.146111 -0.208746,-0.179184 -0.381963,-0.08962 -0.134643,0.06962 -0.144709,0.06679 -0.289408,-0.07346 -0.110317,-0.106946 -0.193731,-0.14397 -0.317322,-0.14397 -0.176869,-7e-6 -0.323266,-0.128829 -0.76246,-0.669905 -0.153076,-0.188585 -0.206161,-0.223301 -0.343761,-0.223301 -0.134113,-6e-6 -0.214021,-0.0494 -0.45248,-0.27472 -0.159376,-0.1506 -0.38578,-0.328532 -0.502433,-0.395184 -0.116647,-0.06666 -0.305175,-0.203367 -0.418687,-0.304102 -0.201906,-0.179187 -0.204431,-0.185967 -0.139566,-0.32173 0.03716,-0.07777 0.109797,-0.144737 0.166009,-0.152785 0.009,-0.0013 0.01908,-0.0016 0.02939,-0.0014 z m -14.065049,0.650805 c -0.02413,-5e-6 -0.05726,0.04152 -0.07346,0.09256 -0.01621,0.05104 -0.07729,0.13037 -0.135157,0.17629 -0.05787,0.04592 -0.12133,0.110185 -0.141032,0.142501 -0.05846,0.09589 0.253999,0.07347 0.327604,-0.02351 0.07134,-0.09397 0.08813,-0.38784 0.02204,-0.38784 z"
     id="path2653"
     inkscape:connector-curvature="0" />
  <path
     style="fill:#ffcc00;fill-opacity:1;stroke:none"
     d="m 34.729504,5.8238698 c 0,0 6.774031,6.7257472 1.955516,13.3996202 -2.277545,3.154508 3.225319,-0.178887 3.225319,-0.178887 0,0 -3.732343,5.461909 -5.22249,6.803947 -3.09838,2.790424 1.325546,1.209363 1.325546,1.209363 l -2.734626,1.887144 c 0,0 -3.231892,2.267744 -2.196086,1.91627 1.035804,-0.351474 4.87428,-0.828741 4.87428,-0.828741 0,0 -1.920495,2.316515 -5.025149,4.879168 -4.756447,4.009949 -3.960519,3.670896 -12.660764,6.777188 0,0 6.914349,-4.75555 6.15645,-15.206944 -1.508183,-3.6323 2.019859,-0.04676 1.870124,3.428436 2.040901,-3.142616 -0.421272,-11.9229 0.603417,-9.344376 2.195853,6.361075 1.946327,-0.0459 1.946327,-0.0459 l -0.643772,-4.493154 c 0,0 2.496609,3.451869 2.355817,2.353607 -0.494981,-2.437922 -1.012367,-5.296316 -1.012367,-5.296316 l 2.770454,2.646846 z"
     id="path4201"
     inkscape:connector-curvature="0"
     sodipodi:nodetypes="cscsccscccccccccccc" />
  <path
     style="fill:#c87137;stroke:none"
     d="m 19.62796,42.75167 c 0,0 3.524153,-3.956345 7.470426,-9.370101 3.946272,-5.413756 7.888179,-13.280052 7.870723,-23.090217 -0.567305,8.824418 -3.158679,17.472603 -14.422245,29.530068 -2.32695,2.490963 -4.123527,2.343782 -4.123527,2.343782 z"
     id="path3032"
     inkscape:connector-curvature="0"
     sodipodi:nodetypes="cscscc" />
  <path
     style="opacity:0.5;fill:#000000;fill-opacity:1;stroke:none"
     d="m 4.0000002,44 0,0 C 24,43 24,43 44,44 z"
     id="path3257"
     inkscape:connector-curvature="0"
     sodipodi:nodetypes="cccc" />
  <path
     sodipodi:nodetypes="cccc"
     inkscape:connector-curvature="0"
     id="path4027"
     d="m 4.0000002,4 0,0 C 24,5 24,5 44,4 z"
     style="opacity:0.75;fill:#ffffff;fill-opacity:1;stroke:none" />
</svg>
