<?xml version="1.0" encoding="UTF-8" standalone="no"?>
<!-- Created with Inkscape (http://www.inkscape.org/) -->

<svg
   xmlns:dc="http://purl.org/dc/elements/1.1/"
   xmlns:cc="http://creativecommons.org/ns#"
   xmlns:rdf="http://www.w3.org/1999/02/22-rdf-syntax-ns#"
   xmlns:svg="http://www.w3.org/2000/svg"
   xmlns="http://www.w3.org/2000/svg"
   xmlns:xlink="http://www.w3.org/1999/xlink"
   xmlns:sodipodi="http://sodipodi.sourceforge.net/DTD/sodipodi-0.dtd"
   xmlns:inkscape="http://www.inkscape.org/namespaces/inkscape"
   version="1.0"
   width="48"
   height="48"
   id="svg2408"
   inkscape:version="0.48.5 r10040"
   sodipodi:docname="kteatime.svg">
  <sodipodi:namedview
     pagecolor="#ffffff"
     bordercolor="#666666"
     borderopacity="1"
     objecttolerance="10"
     gridtolerance="10"
     guidetolerance="10"
     inkscape:pageopacity="0"
     inkscape:pageshadow="2"
     inkscape:window-width="1366"
     inkscape:window-height="744"
     id="namedview62"
     showgrid="true"
     inkscape:zoom="6.7059841"
     inkscape:cx="66.4771"
     inkscape:cy="24.06398"
     inkscape:window-x="0"
     inkscape:window-y="24"
     inkscape:window-maximized="1"
     inkscape:current-layer="svg2408">
    <inkscape:grid
       type="xygrid"
       id="grid3800"
       empspacing="5"
       visible="true"
       enabled="true"
       snapvisiblegridlinesonly="true" />
  </sodipodi:namedview>
  <defs
     id="defs2410">
    <linearGradient
       inkscape:collect="always"
       id="linearGradient3792">
      <stop
         style="stop-color:#ff9955;stop-opacity:1;"
         offset="0"
         id="stop3794" />
      <stop
         style="stop-color:#f59e63;stop-opacity:1;"
         offset="1"
         id="stop3796" />
    </linearGradient>
    <linearGradient
       id="linearGradient3775">
      <stop
         id="stop3777"
         style="stop-color:#dc916c;stop-opacity:1"
         offset="0" />
      <stop
         id="stop3779"
         style="stop-color:#dc916c;stop-opacity:0"
         offset="1" />
    </linearGradient>
    <linearGradient
       id="linearGradient3712">
      <stop
         id="stop3714"
         style="stop-color:#e7cf93;stop-opacity:1"
         offset="0" />
      <stop
         id="stop3716"
         style="stop-color:#fefef4;stop-opacity:1"
         offset="1" />
    </linearGradient>
    <linearGradient
       x1="45.447727"
       y1="92.539597"
       x2="45.447727"
       y2="7.0165396"
       id="ButtonShadow"
       gradientUnits="userSpaceOnUse"
       gradientTransform="scale(1.0058652,0.994169)">
      <stop
         id="stop3750"
         style="stop-color:#000000;stop-opacity:1"
         offset="0" />
      <stop
         id="stop3752"
         style="stop-color:#000000;stop-opacity:0.58823532"
         offset="1" />
    </linearGradient>
    <linearGradient
       id="linearGradient3737">
      <stop
         id="stop3739"
         style="stop-color:#ffffff;stop-opacity:1"
         offset="0" />
      <stop
         id="stop3741"
         style="stop-color:#ffffff;stop-opacity:0"
         offset="1" />
    </linearGradient>
    <linearGradient
       id="linearGradient3700">
      <stop
         id="stop3702"
         style="stop-color:#553025;stop-opacity:1"
         offset="0" />
      <stop
         id="stop3704"
         style="stop-color:#a55033;stop-opacity:1"
         offset="1" />
    </linearGradient>
    <filter
       color-interpolation-filters="sRGB"
       id="filter3174">
      <feGaussianBlur
         id="feGaussianBlur3176"
         stdDeviation="1.71" />
    </filter>
    <linearGradient
       x1="36.357143"
       y1="6"
       x2="36.357143"
       y2="63.893143"
       id="linearGradient3188"
       xlink:href="#linearGradient3737"
       gradientUnits="userSpaceOnUse" />
    <filter
       x="-0.192"
       y="-0.192"
       width="1.3839999"
       height="1.3839999"
       color-interpolation-filters="sRGB"
       id="filter3794">
      <feGaussianBlur
         id="feGaussianBlur3796"
         stdDeviation="5.28" />
    </filter>
    <linearGradient
       x1="48"
       y1="20.220806"
       x2="48"
       y2="138.66119"
       id="linearGradient3613"
       xlink:href="#linearGradient3737"
       gradientUnits="userSpaceOnUse" />
    <radialGradient
       cx="48"
       cy="90.171875"
       r="42"
       fx="48"
       fy="90.171875"
       id="radialGradient3619"
       xlink:href="#linearGradient3737"
       gradientUnits="userSpaceOnUse"
       gradientTransform="matrix(1.1573129,0,0,0.99590774,-7.5510206,0.19713193)" />
    <clipPath
       id="clipPath3613">
      <rect
         width="84"
         height="84"
         rx="6"
         ry="6"
         x="6"
         y="6"
         id="rect3615"
         style="fill:#ffffff;fill-opacity:1;fill-rule:nonzero;stroke:none" />
    </clipPath>
    <linearGradient
       x1="48"
       y1="90"
       x2="48"
       y2="5.9877172"
       id="linearGradient3617"
       xlink:href="#linearGradient3700"
       gradientUnits="userSpaceOnUse" />
    <linearGradient
       x1="45.447727"
       y1="92.539597"
       x2="45.447727"
       y2="7.0165396"
       id="ButtonShadow-0"
       gradientUnits="userSpaceOnUse"
       gradientTransform="matrix(1.0058652,0,0,0.994169,100,0)">
      <stop
         id="stop3750-8"
         style="stop-color:#000000;stop-opacity:1"
         offset="0" />
      <stop
         id="stop3752-5"
         style="stop-color:#000000;stop-opacity:0.58823532"
         offset="1" />
    </linearGradient>
    <linearGradient
       x1="32.251034"
       y1="6.1317081"
       x2="32.251034"
       y2="90.238609"
       id="linearGradient3780"
       xlink:href="#ButtonShadow-0"
       gradientUnits="userSpaceOnUse"
       gradientTransform="matrix(1.0238095,0,0,1.0119048,-1.1428571,-98.071429)" />
    <linearGradient
       x1="32.251034"
       y1="6.1317081"
       x2="32.251034"
       y2="90.238609"
       id="linearGradient3772"
       xlink:href="#ButtonShadow-0"
       gradientUnits="userSpaceOnUse"
       gradientTransform="matrix(1.0238095,0,0,1.0119048,-1.1428571,-98.071429)" />
    <linearGradient
       x1="32.251034"
       y1="6.1317081"
       x2="32.251034"
       y2="90.238609"
       id="linearGradient3725"
       xlink:href="#ButtonShadow-0"
       gradientUnits="userSpaceOnUse"
       gradientTransform="matrix(1.0238095,0,0,1.0119048,-1.1428571,-98.071429)" />
    <linearGradient
       x1="32.251034"
       y1="6.1317081"
       x2="32.251034"
       y2="90.238609"
       id="linearGradient3721"
       xlink:href="#ButtonShadow-0"
       gradientUnits="userSpaceOnUse"
       gradientTransform="translate(0,-97)" />
    <linearGradient
       x1="32.251034"
       y1="6.1317081"
       x2="32.251034"
       y2="90.238609"
       id="linearGradient3026"
       xlink:href="#ButtonShadow-0"
       gradientUnits="userSpaceOnUse"
       gradientTransform="matrix(1.0238095,0,0,1.0119048,-1.1428571,-98.071429)" />
    <linearGradient
       x1="47.2644"
       y1="77.865364"
       x2="47.2644"
       y2="12.540652"
       id="linearGradient3718"
       xlink:href="#linearGradient3712"
       gradientUnits="userSpaceOnUse" />
    <radialGradient
       cx="108.53934"
       cy="7.457119"
       r="56.542881"
       fx="108.53934"
       fy="7.457119"
       id="radialGradient2935"
       xlink:href="#linearGradient3775"
       gradientUnits="userSpaceOnUse"
       gradientTransform="matrix(-1.3703659,1.180354e-8,-1.2492802e-8,-1.4503877,228.44457,16.815712)" />
    <linearGradient
       inkscape:collect="always"
       xlink:href="#linearGradient3792"
       id="linearGradient3798"
       x1="16"
       y1="45.984375"
       x2="80"
       y2="45.984375"
       gradientUnits="userSpaceOnUse" />
    <linearGradient
       inkscape:collect="always"
       xlink:href="#linearGradient3792"
       id="linearGradient3802"
       gradientUnits="userSpaceOnUse"
       x1="16"
       y1="45.984375"
       x2="80"
       y2="45.984375" />
    <linearGradient
       inkscape:collect="always"
       xlink:href="#linearGradient3792"
       id="linearGradient3804"
       gradientUnits="userSpaceOnUse"
       x1="16"
       y1="45.984375"
       x2="80"
       y2="45.984375" />
  </defs>
  <metadata
     id="metadata2413">
    <rdf:RDF>
      <cc:Work
         rdf:about="">
        <dc:format>image/svg+xml</dc:format>
        <dc:type
           rdf:resource="http://purl.org/dc/dcmitype/StillImage" />
        <dc:title />
      </cc:Work>
    </rdf:RDF>
  </metadata>
  <g
     id="layer2"
     style="display:none"
     transform="translate(0,-48)">
    <rect
       width="86"
       height="85"
       rx="6"
       ry="6"
       x="5"
       y="7"
       id="rect3745"
       style="opacity:0.9;fill:url(#ButtonShadow);fill-opacity:1;fill-rule:nonzero;stroke:none;filter:url(#filter3174)" />
  </g>
  <g
     id="layer1"
     transform="matrix(0.59921489,0,0,0.59921489,-4.9478697,-4.1360616)" />
  <g
     id="layer5"
     transform="matrix(0.59921489,0,0,0.59921489,-4.9478697,-4.1360616)" />
  <g
     id="layer4"
     transform="matrix(0.61303632,0,0,0.64705867,-5.2953802,-6.0202101)"
     style="fill:url(#linearGradient3798);fill-opacity:1">
    <path
       d="m 50.21875,13.96875 c -4.166912,6.981084 -5.471938,10.368983 -3.96875,14.8125 1.362615,4.027969 4.958328,6.184849 3.1875,15.5 C 52.345649,39.742656 54.533755,33.837222 52.25,29.1875 49.927251,24.458383 48.758167,21.674993 50.21875,13.96875 z M 58.375,17 c -2.882729,4.263705 -3.56807,6.702743 -2.28125,9.6875 1.310285,3.039185 2.783751,3.446912 1.0625,7.875 3.175759,-3.581339 3.339455,-5.911577 2.03125,-8.6875 C 57.852961,23.043202 56.473203,22.002972 58.375,17 z m -16.40625,5.25 c -2.615365,4.491496 -3.429174,6.669894 -2.4375,9.5 0.898933,2.565443 3.192512,3.908042 2.125,9.875 3.276218,-4.133245 3.169375,-7.071815 1.71875,-9.6875 C 41.960761,29.387418 41.088423,27.186318 41.96875,22.25 z M 28,47 l 0,8 c 0,8.864 3.568,16 8,16 l 24,0 c 3.7395,0 6.864919,-5.088026 7.75,-12 L 74,59 c 1.662,0 3,-1.338 3,-3 l 0,-6 c 0,-1.662 -1.338,-3 -3,-3 l -6,0 -40,0 z m 3.96875,1.96875 2.03125,0 L 34,55 c 0.05175,4.461807 -0.542701,11.504655 4,14.03125 l -1.5,0 C 31.892216,66.858893 32.343769,59.241918 31.96875,55 l 0,-6.03125 z M 68,50 72.125,50 C 73.16375,50 74,50.83625 74,51.875 l 0,2.5 c 0,1.03875 -0.83625,1.875 -1.875,1.875 l -4.15625,0 C 67.984947,55.83239 68,55.426201 68,55 l 0,-5 z M 16,73 c 0,3.324 7.136,6 16,6 l 32,0 c 8.864,0 16,-2.676 16,-6 l -64,0 z"
       inkscape:connector-curvature="0"
       id="path3720"
       style="opacity:0.3;color:#000000;fill:url(#linearGradient3802);fill-opacity:1;fill-rule:nonzero;stroke:none;stroke-width:1;marker:none;visibility:visible;display:inline;overflow:visible;enable-background:accumulate" />
    <path
       d="m 50.21875,12.96875 c -4.166912,6.981084 -5.471938,10.368983 -3.96875,14.8125 1.362615,4.027969 4.958328,6.184849 3.1875,15.5 C 52.345649,38.742656 54.533755,32.837222 52.25,28.1875 49.927251,23.458383 48.758167,20.674993 50.21875,12.96875 z M 58.375,16 c -2.882729,4.263705 -3.56807,6.702743 -2.28125,9.6875 1.310285,3.039185 2.783751,3.446912 1.0625,7.875 3.175759,-3.581339 3.339455,-5.911577 2.03125,-8.6875 C 57.852961,22.043202 56.473203,21.002972 58.375,16 z m -16.40625,5.25 c -2.615365,4.491496 -3.429174,6.669894 -2.4375,9.5 0.898933,2.565443 3.192512,3.908042 2.125,9.875 3.276218,-4.133245 3.169375,-7.071815 1.71875,-9.6875 C 41.960761,28.387418 41.088423,26.186318 41.96875,21.25 z M 28,46 l 0,8 c 0,8.864 3.568,16 8,16 l 24,0 c 3.7395,0 6.864919,-5.088026 7.75,-12 L 74,58 c 1.662,0 3,-1.338 3,-3 l 0,-6 c 0,-1.662 -1.338,-3 -3,-3 l -6,0 -40,0 z m 3.96875,1.96875 2.03125,0 L 34,54 c 0.05175,4.461807 -0.542701,11.504655 4,14.03125 l -1.5,0 C 31.892216,65.858893 32.343769,58.241918 31.96875,54 l 0,-6.03125 z M 68,49 72.125,49 C 73.16375,49 74,49.83625 74,50.875 l 0,2.5 c 0,1.03875 -0.83625,1.875 -1.875,1.875 l -4.15625,0 C 67.984947,54.83239 68,54.426201 68,54 l 0,-5 z M 16,72 c 0,3.324 7.136,6 16,6 l 32,0 c 8.864,0 16,-2.676 16,-6 l -64,0 z"
       inkscape:connector-curvature="0"
       id="rect3675"
       style="color:#000000;fill:url(#linearGradient3804);fill-opacity:1;fill-rule:nonzero;stroke:none;stroke-width:1;marker:none;visibility:visible;display:inline;overflow:visible;enable-background:accumulate" />
  </g>
</svg>
