<?xml version="1.0" encoding="UTF-8" standalone="no"?>
<!-- Created using Karbon, part of Calligra: http://www.calligra.org/karbon -->

<svg
   xmlns:dc="http://purl.org/dc/elements/1.1/"
   xmlns:cc="http://creativecommons.org/ns#"
   xmlns:rdf="http://www.w3.org/1999/02/22-rdf-syntax-ns#"
   xmlns:svg="http://www.w3.org/2000/svg"
   xmlns="http://www.w3.org/2000/svg"
   xmlns:xlink="http://www.w3.org/1999/xlink"
   xmlns:sodipodi="http://sodipodi.sourceforge.net/DTD/sodipodi-0.dtd"
   xmlns:inkscape="http://www.inkscape.org/namespaces/inkscape"
   width="38.4pt"
   height="38.4pt"
   id="svg2"
   version="1.1"
   inkscape:version="0.48.5 r10040"
   sodipodi:docname="lancelot-start.svg">
  <metadata
     id="metadata12">
    <rdf:RDF>
      <cc:Work
         rdf:about="">
        <dc:format>image/svg+xml</dc:format>
        <dc:type
           rdf:resource="http://purl.org/dc/dcmitype/StillImage" />
        <dc:title />
      </cc:Work>
    </rdf:RDF>
  </metadata>
  <sodipodi:namedview
     pagecolor="#ffffff"
     bordercolor="#666666"
     borderopacity="1"
     objecttolerance="10"
     gridtolerance="10"
     guidetolerance="10"
     inkscape:pageopacity="0"
     inkscape:pageshadow="2"
     inkscape:window-width="1366"
     inkscape:window-height="744"
     id="namedview10"
     showgrid="true"
     inkscape:zoom="6.9532167"
     inkscape:cx="19.782626"
     inkscape:cy="23.93235"
     inkscape:window-x="0"
     inkscape:window-y="24"
     inkscape:window-maximized="1"
     inkscape:current-layer="svg2">
    <inkscape:grid
       type="xygrid"
       id="grid2986" />
  </sodipodi:namedview>
  <defs
     id="defs4">
    <linearGradient
       id="linearGradient3773">
      <stop
         style="stop-color:#2980b9;stop-opacity:1;"
         offset="0"
         id="stop3775" />
      <stop
         style="stop-color:#66baf2;stop-opacity:1;"
         offset="1"
         id="stop3777" />
    </linearGradient>
    <linearGradient
       inkscape:collect="always"
       xlink:href="#linearGradient3773"
       id="linearGradient3779"
       x1="0"
       y1="20.002003"
       x2="40.004005"
       y2="20.002003"
       gradientUnits="userSpaceOnUse" />
  </defs>
  <g
     id="layer1">
    <rect
       id="shape0"
       transform="translate(4.00394, 4.00394)"
       stroke-miterlimit="2.00000000000"
       width="32.00320504820pt"
       height="32.00320504820pt"
       stroke-linejoin="miter"
       stroke-linecap="square"
       stroke-width="0.00000000000"
       stroke="#003bc3"
       fill-rule="evenodd"
       fill="#2980b9"
       style="fill-opacity:1;fill:url(#linearGradient3779);stroke:none" />
    <path
       id="gear_path"
       transform="translate(8.71716, 13.754)"
       stroke-miterlimit="2.00000000000"
       d="M5.71701 0.00227542C5.65551 0.00856471 5.58901 0.0253675 5.54277 0.0713325C5.54277 0.0713325 3.40464 2.1893 3.40464 2.1893C3.31483 2.2785 3.30387 2.41509 3.3698 2.52306C3.3698 2.52306 5.86811 6.60936 5.86811 6.60936C5.4245 7.34806 5.06425 8.14049 4.81064 8.98056C4.81064 8.98056 0.220779 9.92442 0.220779 9.92442C0.0930528 9.95059 0 10.071 0 10.2007C0 10.2007 0 13.1934 0 13.1934C0 13.32 0.0971424 13.4283 0.220779 13.4582C0.220779 13.4582 4.67122 14.5287 4.67122 14.5287C4.90922 15.5013 5.27685 16.432 5.76351 17.2797C5.76351 17.2797 3.18387 21.1703 3.18387 21.1703C3.11192 21.279 3.12595 21.4239 3.21871 21.5157C3.21871 21.5157 5.35681 23.6336 5.35681 23.6336C5.44689 23.7225 5.58502 23.7337 5.69378 23.6681C5.69378 23.6681 9.73751 21.2394 9.73751 21.2394C10.5307 21.6929 11.3893 22.0564 12.2939 22.2984C12.2939 22.2984 13.2352 26.7876 13.2352 26.7876C13.2615 26.9143 13.3716 27.0063 13.5024 27.0063C13.5024 27.0063 16.5235 27.0063 16.5235 27.0063C16.6504 27.0063 16.7607 26.9218 16.7908 26.7988C16.7908 26.7988 17.9063 22.2868 17.9063 22.2868C18.8393 22.0376 19.7189 21.6677 20.5325 21.1933C20.5325 21.1933 24.5181 23.7832 24.5181 23.7832C24.628 23.8541 24.7735 23.8404 24.8667 23.7487C24.8667 23.7487 26.9932 21.6307 26.9932 21.6307C27.0835 21.5414 27.1058 21.4047 27.0396 21.2969C27.0396 21.2969 25.5871 18.9257 25.5871 18.9257C25.5871 18.9257 24.9657 19.0656 24.9248 19.0063C24.9248 19.0063 24.0073 17.6693 22.8099 15.933C21.378 18.7086 18.4577 20.6063 15.0943 20.6063C10.3149 20.6063 6.43746 16.7653 6.43746 12.0309C6.43746 8.54836 8.53974 5.55724 11.5502 4.21518C11.5502 4.21518 11.5502 2.00512 11.5502 2.00512C11.0024 2.19508 10.473 2.42428 9.96993 2.69576C9.96896 2.69519 9.97086 2.68478 9.96993 2.68427C9.96993 2.68427 5.89134 0.0367885 5.89134 0.0367885C5.83647 0.00127414 5.77851 -0.00401388 5.71701 0.00227542C5.71701 0.00227542 5.71701 0.00227542 5.71701 0.00227542Z"
       stroke-linejoin="miter"
       stroke-linecap="butt"
       stroke-width="0.00000000000"
       stroke="#003bc3"
       fill="#f2f2f2" />
  </g>
  <g
     id="layer1-7"
     transform="matrix(-0.04568981,0,0,0.04568981,39.866855,3.4591121)"
     style="fill:#ffffff">
    <path
       inkscape:connector-curvature="0"
       id="rect3523"
       d="m 133.63,89.217 c -13.66,19.923 -21.66,44.033 -21.66,70.003 0,62.44 46.22,114.11 106.28,122.72 l 0,161.59 c 0,44.01 -41.02,77.97 -85.03,77.97 l 0,3.53 205.5,0 0,-3.53 c -44,0 -85.03,-33.96 -85.03,-77.97 l 0,-161.59 C 313.76,273.33 360,221.66 360,159.22 c 0,-25.96 -8,-50.08 -21.65,-70.003 -102.75574,0.907177 -102.75574,0.460725 -204.72,0 z"
       style="fill:#ffffff"
       sodipodi:nodetypes="cscsccccscscc" />
  </g>
  <path
     style="opacity:0.5;fill:#000000;fill-opacity:1;stroke:none"
     d="m 4,44 0,0 c 20,-1 20,-1 40,0 z"
     id="path3257"
     inkscape:connector-curvature="0"
     sodipodi:nodetypes="cccc" />
  <path
     sodipodi:nodetypes="cccc"
     inkscape:connector-curvature="0"
     id="path4027"
     d="M 4,4 4,4 C 24,5 24,5 44,4 z"
     style="opacity:0.75;fill:#ffffff;fill-opacity:1;stroke:none" />
</svg>
