<?xml version="1.0" encoding="UTF-8" standalone="no"?>
<!-- Created with Inkscape (http://www.inkscape.org/) -->

<svg
   xmlns:dc="http://purl.org/dc/elements/1.1/"
   xmlns:cc="http://creativecommons.org/ns#"
   xmlns:rdf="http://www.w3.org/1999/02/22-rdf-syntax-ns#"
   xmlns:svg="http://www.w3.org/2000/svg"
   xmlns="http://www.w3.org/2000/svg"
   xmlns:xlink="http://www.w3.org/1999/xlink"
   xmlns:sodipodi="http://sodipodi.sourceforge.net/DTD/sodipodi-0.dtd"
   xmlns:inkscape="http://www.inkscape.org/namespaces/inkscape"
   width="48"
   height="48"
   id="svg5453"
   version="1.1"
   inkscape:version="0.48.5 r10040"
   sodipodi:docname="mahjongg.svg"
   viewBox="0 0 48 48">
  <defs
     id="defs5455">
    <linearGradient
       inkscape:collect="always"
       id="linearGradient4238">
      <stop
         style="stop-color:#ffffff;stop-opacity:0.67724866"
         offset="0"
         id="stop4240" />
      <stop
         style="stop-color:#ffffff;stop-opacity:0;"
         offset="1"
         id="stop4242" />
    </linearGradient>
    <linearGradient
       id="linearGradient4209">
      <stop
         style="stop-color:#d7d4c8;stop-opacity:1"
         offset="0"
         id="stop4211" />
      <stop
         style="stop-color:#ffffff;stop-opacity:1;"
         offset="1"
         id="stop4213" />
    </linearGradient>
    <linearGradient
       id="linearGradient4197">
      <stop
         style="stop-color:#1867c9;stop-opacity:1;"
         offset="0"
         id="stop4199" />
      <stop
         style="stop-color:#5185ff;stop-opacity:1;"
         offset="1"
         id="stop4201" />
    </linearGradient>
    <linearGradient
       inkscape:collect="always"
       xlink:href="#linearGradient4197"
       id="linearGradient4203"
       x1="0"
       y1="42.85041"
       x2="48"
       y2="42.85041"
       gradientUnits="userSpaceOnUse"
       gradientTransform="matrix(0.83333342,0,0,0.80912559,388.57143,504.95997)" />
    <linearGradient
       inkscape:collect="always"
       xlink:href="#linearGradient4209"
       id="linearGradient4215"
       x1="384.57144"
       y1="-522.79797"
       x2="432.57144"
       y2="-522.79797"
       gradientUnits="userSpaceOnUse"
       gradientTransform="matrix(0.83333342,0,0,0.83333342,68.095202,-87.299617)" />
    <linearGradient
       inkscape:collect="always"
       xlink:href="#linearGradient4238"
       id="linearGradient4244"
       x1="-0.17677669"
       y1="24.046759"
       x2="5.2149124"
       y2="24.046759"
       gradientUnits="userSpaceOnUse" />
    <linearGradient
       inkscape:collect="always"
       xlink:href="#linearGradient4238"
       id="linearGradient4248"
       gradientUnits="userSpaceOnUse"
       x1="-0.17677669"
       y1="24.046759"
       x2="5.2149124"
       y2="24.046759"
       gradientTransform="matrix(-1,0,0,1,432.57144,499.798)" />
  </defs>
  <sodipodi:namedview
     id="base"
     pagecolor="#ffffff"
     bordercolor="#666666"
     borderopacity="1.0"
     inkscape:pageopacity="0"
     inkscape:pageshadow="2"
     inkscape:zoom="4"
     inkscape:cx="1.8579766"
     inkscape:cy="44.333991"
     inkscape:document-units="px"
     inkscape:current-layer="layer1"
     showgrid="true"
     fit-margin-top="0"
     fit-margin-left="0"
     fit-margin-right="0"
     fit-margin-bottom="0"
     inkscape:window-width="1301"
     inkscape:window-height="744"
     inkscape:window-x="65"
     inkscape:window-y="24"
     inkscape:window-maximized="1"
     inkscape:showpageshadow="false"
     borderlayer="true">
    <inkscape:grid
       type="xygrid"
       id="grid3010" />
  </sodipodi:namedview>
  <metadata
     id="metadata5458">
    <rdf:RDF>
      <cc:Work
         rdf:about="">
        <dc:format>image/svg+xml</dc:format>
        <dc:type
           rdf:resource="http://purl.org/dc/dcmitype/StillImage" />
        <dc:title />
      </cc:Work>
    </rdf:RDF>
  </metadata>
  <g
     inkscape:label="Capa 1"
     inkscape:groupmode="layer"
     id="layer1"
     transform="translate(-384.57143,-499.798)">
    <rect
       style="fill:url(#linearGradient4215);fill-opacity:1;stroke:none"
       id="rect2991-1-7"
       width="40.000004"
       height="40.000004"
       x="388.57144"
       y="-543.79797"
       ry="0"
       transform="scale(1,-1)" />
    <path
       style="fill:url(#linearGradient4203);fill-opacity:1;fill-rule:evenodd;stroke:none"
       d="m 388.57143,534.89762 0,3.66319 0,3.66319 0,1.574 1.62109,0 18.37891,0 18.37891,0 1.62109,0 0,-1.574 0,-7.32638 z"
       id="rect3368"
       inkscape:connector-curvature="0"
       sodipodi:nodetypes="ccccccccccc" />
    <path
       style="opacity:0.5;fill:#000000;fill-opacity:1;stroke:none"
       d="m 388.57143,543.798 0,0 c 20,-1 20,-1 40,0 z"
       id="path3257"
       inkscape:connector-curvature="0"
       sodipodi:nodetypes="cccc" />
    <path
       sodipodi:nodetypes="cccc"
       inkscape:connector-curvature="0"
       id="path4027"
       d="m 388.57143,503.798 0,0 c 20,1 20,1 40,0 z"
       style="opacity:0.9;fill:#ffffff;fill-opacity:1;stroke:none" />
    <g
       style="font-size:24px;font-style:normal;font-weight:normal;line-height:125%;letter-spacing:0px;word-spacing:0px;opacity:0.5;fill:#000000;fill-opacity:1;stroke:none;font-family:Sans"
       id="text3770">
      <path
         d="m 413.54019,513.39172 1.125,1.40625 c -2.62501,1.81252 -6.15626,3.40627 -10.59375,4.78125 l 6.84375,0 c -0.25001,-0.56249 -0.56251,-1.06249 -0.9375,-1.5 l 1.6875,-0.5625 c 0.49999,0.62502 0.87499,1.31251 1.125,2.0625 l 5.8125,0 0,1.59375 -7.125,0 0,1.6875 6.375,0 0,1.59375 -6.375,0 0,1.6875 6.375,0 0,1.59375 -6.375,0 0,1.6875 7.5,0 0,1.6875 -15.9375,0 0,0.75 -1.78125,0 0,-11.4375 -2.53125,0.65625 -0.84375,-1.6875 c 3.875,-0.87499 7.09374,-1.84373 9.65625,-2.90625 l 0,-6.1875 1.875,0 0,5.34375 c 1.43749,-0.68748 2.81249,-1.43748 4.125,-2.25 m -10.5,7.78125 0,1.6875 6.5625,0 0,-1.6875 -6.5625,0 m 0,3.28125 0,1.6875 6.5625,0 0,-1.6875 -6.5625,0 m 0,3.28125 0,1.6875 6.5625,0 0,-1.6875 -6.5625,0 m 11.8125,-16.5 c 1.62498,0.93752 3.09373,2.03127 4.40625,3.28125 l -1.3125,1.59375 c -1.31252,-1.37498 -2.71877,-2.59373 -4.21875,-3.65625 l 1.125,-1.21875 m -11.4375,0.46875 1.40625,1.21875 c -1.25001,1.62502 -2.84375,2.90627 -4.78125,3.84375 l -1.03125,-1.59375 c 1.6875,-0.81248 3.15625,-1.96873 4.40625,-3.46875"
         style=""
         id="path3003" />
    </g>
  </g>
</svg>
