<?xml version="1.0" encoding="UTF-8" standalone="no"?>
<!-- Created with Inkscape (http://www.inkscape.org/) -->

<svg
   xmlns:dc="http://purl.org/dc/elements/1.1/"
   xmlns:cc="http://creativecommons.org/ns#"
   xmlns:rdf="http://www.w3.org/1999/02/22-rdf-syntax-ns#"
   xmlns:svg="http://www.w3.org/2000/svg"
   xmlns="http://www.w3.org/2000/svg"
   xmlns:xlink="http://www.w3.org/1999/xlink"
   xmlns:sodipodi="http://sodipodi.sourceforge.net/DTD/sodipodi-0.dtd"
   xmlns:inkscape="http://www.inkscape.org/namespaces/inkscape"
   width="48px"
   height="48px"
   id="svg2985"
   version="1.1"
   inkscape:version="0.48.5 r10040"
   sodipodi:docname="绘图.svg">
  <defs
     id="defs2987">
    <linearGradient
       id="linearGradient3818">
      <stop
         style="stop-color:#f2f2f2;stop-opacity:1;"
         offset="0"
         id="stop3820" />
      <stop
         style="stop-color:#ffffff;stop-opacity:0.96323532;"
         offset="1"
         id="stop3822" />
    </linearGradient>
    <linearGradient
       id="linearGradient3758">
      <stop
         style="stop-color:#007ff5;stop-opacity:1;"
         offset="0"
         id="stop3760" />
      <stop
         style="stop-color:#57a7f2;stop-opacity:1;"
         offset="1"
         id="stop3762" />
    </linearGradient>
    <linearGradient
       inkscape:collect="always"
       xlink:href="#linearGradient3758"
       id="linearGradient3764"
       x1="4"
       y1="24"
       x2="44"
       y2="24"
       gradientUnits="userSpaceOnUse" />
    <linearGradient
       inkscape:collect="always"
       xlink:href="#linearGradient3818"
       id="linearGradient3824"
       x1="4"
       y1="38.10061"
       x2="44"
       y2="38.10061"
       gradientUnits="userSpaceOnUse" />
  </defs>
  <sodipodi:namedview
     id="base"
     pagecolor="#ffffff"
     bordercolor="#666666"
     borderopacity="1.0"
     inkscape:pageopacity="0.0"
     inkscape:pageshadow="2"
     inkscape:zoom="4.9497475"
     inkscape:cx="34.476039"
     inkscape:cy="38.592514"
     inkscape:current-layer="layer1"
     showgrid="true"
     inkscape:grid-bbox="true"
     inkscape:document-units="px"
     showguides="true"
     inkscape:guide-bbox="true"
     inkscape:window-width="1366"
     inkscape:window-height="673"
     inkscape:window-x="0"
     inkscape:window-y="27"
     inkscape:window-maximized="1"
     inkscape:snap-global="true"
     inkscape:snap-bbox="true">
    <inkscape:grid
       type="xygrid"
       id="grid2993" />
    <sodipodi:guide
       orientation="0,1"
       position="23,44"
       id="guide2995" />
    <sodipodi:guide
       orientation="1,0"
       position="4,35"
       id="guide2997" />
    <sodipodi:guide
       orientation="0,1"
       position="27,4"
       id="guide2999" />
    <sodipodi:guide
       orientation="1,0"
       position="44,19"
       id="guide3001" />
  </sodipodi:namedview>
  <metadata
     id="metadata2990">
    <rdf:RDF>
      <cc:Work
         rdf:about="">
        <dc:format>image/svg+xml</dc:format>
        <dc:type
           rdf:resource="http://purl.org/dc/dcmitype/StillImage" />
        <dc:title></dc:title>
      </cc:Work>
    </rdf:RDF>
  </metadata>
  <g
     id="layer1"
     inkscape:label="Layer 1"
     inkscape:groupmode="layer">
    <rect
       style="fill:url(#linearGradient3764);fill-opacity:1;stroke:none"
       id="rect3003"
       width="40"
       height="40"
       x="4"
       y="4"
       ry="0" />
    <path
       style="fill:url(#linearGradient3824);fill-opacity:1;stroke:none"
       d="m 23.390244,32.20122 c -3.782064,0 -7.039534,1.634122 -8.658537,3.993902 -0.788811,-0.672828 -1.869213,-1.067073 -3.048781,-1.067073 -2.0571757,0 -3.7616518,1.259765 -4.237804,2.957317 C 6.1005434,38.140006 4.8976527,38.526972 4,39.091464 l 0,4.756097 C 4.075502,43.896121 4.1337015,43.9543 4.2134146,44 L 44,44 44,39.640244 c -0.197649,-0.07237 -0.395901,-0.121951 -0.609756,-0.121951 -0.759956,0 -1.442932,0.487219 -1.890244,1.25 -0.953603,-2.434994 -3.450529,-4.176829 -6.402439,-4.176829 -0.897249,0 -1.745616,0.165266 -2.530488,0.457317 -1.356556,-2.817755 -4.952035,-4.847561 -9.176829,-4.847561 z"
       id="path3777"
       inkscape:connector-curvature="0" />
    <path
       style="opacity:0.35;fill:#000000;fill-opacity:1;stroke:none"
       d="m 4,44 0,0 c 20,-1 20,-1 40,0 z"
       id="path3257"
       inkscape:connector-curvature="0"
       sodipodi:nodetypes="cccc" />
    <path
       sodipodi:nodetypes="cccc"
       inkscape:connector-curvature="0"
       id="path4027"
       d="M 4,4 4,4 C 24,5 24,5 44,4 z"
       style="opacity:0.75;fill:#ffffff;fill-opacity:1;stroke:none" />
    <g
       style="font-size:40px;font-style:normal;font-variant:normal;font-weight:bold;font-stretch:normal;line-height:125%;letter-spacing:0px;word-spacing:0px;fill:#ffffff;fill-opacity:1;stroke:none;font-family:Bauhaus ITC;-inkscape-font-specification:Bauhaus ITC Bold;opacity:0.9"
       id="text3804"
       transform="matrix(0.8,0,0,0.8,4.9296872,3.0125)">
      <path
         d="m 9.337891,30.980468 0,-14.746093 0,-5 5.292969,0 15.707031,0 c 2,0 8,0 8,8 l 0,12 -5,0 0,-12 c 0,-3 -3,-3 -3,-3 l -15,0 -1,0 0,1 0,14 -5,0"
         id="path3809"
         inkscape:connector-curvature="0"
         sodipodi:nodetypes="ccccccccccccccc" />
    </g>
    <path
       style="fill:#ffffff;fill-opacity:1;stroke:none;opacity:0.9"
       d="m 21.5,21 5,0 0,7 -5,0 z"
       id="rect3815"
       inkscape:connector-curvature="0" />
  </g>
</svg>
