<?xml version="1.0" encoding="UTF-8" standalone="no"?>
<!-- Created with Inkscape (http://www.inkscape.org/) -->

<svg
   xmlns:dc="http://purl.org/dc/elements/1.1/"
   xmlns:cc="http://creativecommons.org/ns#"
   xmlns:rdf="http://www.w3.org/1999/02/22-rdf-syntax-ns#"
   xmlns:svg="http://www.w3.org/2000/svg"
   xmlns="http://www.w3.org/2000/svg"
   xmlns:xlink="http://www.w3.org/1999/xlink"
   xmlns:sodipodi="http://sodipodi.sourceforge.net/DTD/sodipodi-0.dtd"
   xmlns:inkscape="http://www.inkscape.org/namespaces/inkscape"
   width="48px"
   height="48px"
   id="svg2985"
   version="1.1"
   inkscape:version="0.48.4 r9939"
   sodipodi:docname="Wunderlist.svg">
  <defs
     id="defs2987">
    <linearGradient
       id="linearGradient3837">
      <stop
         style="stop-color:#f2f2f2;stop-opacity:1;"
         offset="0"
         id="stop3839" />
      <stop
         style="stop-color:#fff4f4;stop-opacity:1;"
         offset="1"
         id="stop3841" />
    </linearGradient>
    <linearGradient
       id="linearGradient3826">
      <stop
         style="stop-color:#bf0a0a;stop-opacity:1;"
         offset="0"
         id="stop3828" />
      <stop
         style="stop-color:#de1212;stop-opacity:1;"
         offset="1"
         id="stop3830" />
    </linearGradient>
    <linearGradient
       id="linearGradient3795">
      <stop
         style="stop-color:#f2f2f2;stop-opacity:1;"
         offset="0"
         id="stop3797" />
      <stop
         style="stop-color:#fbf5f5;stop-opacity:1;"
         offset="1"
         id="stop3799" />
    </linearGradient>
    <clipPath
       id="clipPath4079">
      <path
         d="m 31,8 c -1.662,0 -3,0.892 -3,2 l 0,2 0,3 0,71 L 48,72 68,86 68.0313,12 68,12 68,10 C 68,8.892 66.662,8 65,8 z M 48.0625,25.25 51.65625,36.03125 63,36.1875 53.84375,42.90625 57.21875,53.75 48,47.125 38.71875,53.6875 42.1875,42.875 33.0625,36.0625 44.4375,36 z"
         inkscape:connector-curvature="0"
         id="path4081"
         style="fill:#ffffff;fill-opacity:1;stroke:none;display:inline" />
    </clipPath>
    <linearGradient
       inkscape:collect="always"
       xlink:href="#linearGradient3826"
       id="linearGradient3832"
       x1="4"
       y1="24"
       x2="44"
       y2="24"
       gradientUnits="userSpaceOnUse" />
    <linearGradient
       inkscape:collect="always"
       xlink:href="#linearGradient3837"
       id="linearGradient3843"
       x1="10.3"
       y1="23.999998"
       x2="37.700001"
       y2="23.999998"
       gradientUnits="userSpaceOnUse" />
  </defs>
  <sodipodi:namedview
     id="base"
     pagecolor="#ffffff"
     bordercolor="#666666"
     borderopacity="1.0"
     inkscape:pageopacity="0.0"
     inkscape:pageshadow="2"
     inkscape:zoom="7"
     inkscape:cx="47.893226"
     inkscape:cy="23.817144"
     inkscape:current-layer="layer1"
     showgrid="true"
     inkscape:grid-bbox="true"
     inkscape:document-units="px"
     showguides="true"
     inkscape:guide-bbox="true"
     inkscape:window-width="450"
     inkscape:window-height="392"
     inkscape:window-x="615"
     inkscape:window-y="227"
     inkscape:window-maximized="0"
     inkscape:snap-bbox="true">
    <inkscape:grid
       type="xygrid"
       id="grid2993" />
    <sodipodi:guide
       orientation="0,1"
       position="23,44"
       id="guide2995" />
    <sodipodi:guide
       orientation="1,0"
       position="4,35"
       id="guide2997" />
    <sodipodi:guide
       orientation="0,1"
       position="27,4"
       id="guide2999" />
    <sodipodi:guide
       orientation="1,0"
       position="44,19"
       id="guide3001" />
  </sodipodi:namedview>
  <metadata
     id="metadata2990">
    <rdf:RDF>
      <cc:Work
         rdf:about="">
        <dc:format>image/svg+xml</dc:format>
        <dc:type
           rdf:resource="http://purl.org/dc/dcmitype/StillImage" />
        <dc:title></dc:title>
      </cc:Work>
    </rdf:RDF>
  </metadata>
  <g
     id="layer1"
     inkscape:label="Layer 1"
     inkscape:groupmode="layer">
    <rect
       style="fill:url(#linearGradient3832);fill-opacity:1.0;stroke:none"
       id="rect3003"
       width="40"
       height="40"
       x="4"
       y="4"
       ry="0" />
    <path
       style="opacity:0.5;fill:#000000;fill-opacity:1;stroke:none"
       d="m 4,44 0,0 c 20,-1 20,-1 40,0 z"
       id="path3257"
       inkscape:connector-curvature="0"
       sodipodi:nodetypes="cccc" />
    <path
       sodipodi:nodetypes="cccc"
       inkscape:connector-curvature="0"
       id="path4027"
       d="M 4,4 4,4 C 24,5 24,5 44,4 z"
       style="opacity:0.75;fill:#ffffff;fill-opacity:1;stroke:none" />
    <g
       style="font-size:40px;font-style:normal;font-variant:normal;font-weight:bold;font-stretch:normal;line-height:125%;letter-spacing:0px;word-spacing:0px;fill:#ffffff;fill-opacity:1;stroke:none;font-family:Bahamas;-inkscape-font-specification:Bahamas Bold"
       id="text3822">
      <path
         d="m 16.7,33.959999 -6.4,0 0,-12.88 c -2e-6,-2.079985 0.826664,-3.78665 2.48,-5.12 1.519994,-1.226647 3.319992,-1.83998 5.4,-1.84 1.226656,2e-5 2.319988,0.213353 3.28,0.64 0.986653,0.426686 1.799985,1.093352 2.44,2 0.853317,-0.933315 1.786649,-1.613314 2.8,-2.04 1.013314,-0.453314 2.053313,-0.67998 3.12,-0.68 2.079977,2e-5 3.906641,0.720019 5.48,2.16 1.599972,1.440016 2.399971,3.066681 2.4,4.88 l 0,12.88 -6.4,0 0,-11.96 c -2.3e-5,-0.533321 -0.213356,-0.959987 -0.64,-1.28 -0.400022,-0.346653 -0.906688,-0.519986 -1.52,-0.52 -0.56002,1.4e-5 -1.026686,0.200014 -1.4,0.6 -0.373352,0.373346 -0.560019,0.960012 -0.56,1.76 l 0,11.4 -6.4,0 0,-11.64 c -1.2e-5,-0.693321 -0.200012,-1.226654 -0.6,-1.6 -0.373345,-0.399986 -0.853344,-0.599986 -1.44,-0.6 -0.56001,1.4e-5 -1.040009,0.200014 -1.44,0.6 -0.400008,0.400013 -0.600008,0.960012 -0.6,1.68 l 0,11.56"
         style="fill:url(#linearGradient3843);fill-opacity:1.0"
         id="path3835" />
    </g>
  </g>
</svg>
