<?xml version="1.0" encoding="UTF-8" standalone="no"?>
<svg
   xmlns:dc="http://purl.org/dc/elements/1.1/"
   xmlns:cc="http://creativecommons.org/ns#"
   xmlns:rdf="http://www.w3.org/1999/02/22-rdf-syntax-ns#"
   xmlns:svg="http://www.w3.org/2000/svg"
   xmlns="http://www.w3.org/2000/svg"
   xmlns:xlink="http://www.w3.org/1999/xlink"
   xmlns:sodipodi="http://sodipodi.sourceforge.net/DTD/sodipodi-0.dtd"
   xmlns:inkscape="http://www.inkscape.org/namespaces/inkscape"
   width="48"
   viewBox="0 0 13.546667 13.546667"
   height="48"
   id="svg2"
   version="1.1"
   inkscape:version="0.48.5 r10040"
   sodipodi:docname="web-onenote.svg">
  <metadata
     id="metadata94">
    <rdf:RDF>
      <cc:Work
         rdf:about="">
        <dc:format>image/svg+xml</dc:format>
        <dc:type
           rdf:resource="http://purl.org/dc/dcmitype/StillImage" />
        <dc:title />
      </cc:Work>
    </rdf:RDF>
  </metadata>
  <sodipodi:namedview
     pagecolor="#ffffff"
     bordercolor="#666666"
     borderopacity="1"
     objecttolerance="10"
     gridtolerance="10"
     guidetolerance="10"
     inkscape:pageopacity="0"
     inkscape:pageshadow="2"
     inkscape:window-width="1301"
     inkscape:window-height="744"
     id="namedview92"
     showgrid="true"
     inkscape:showpageshadow="false"
     borderlayer="true"
     inkscape:zoom="26.059774"
     inkscape:cx="22.981073"
     inkscape:cy="43.977352"
     inkscape:window-x="65"
     inkscape:window-y="24"
     inkscape:window-maximized="1"
     inkscape:current-layer="svg2"
     inkscape:snap-bbox="true">
    <inkscape:grid
       type="xygrid"
       id="grid2999" />
  </sodipodi:namedview>
  <defs
     id="defs4">
    <linearGradient
       inkscape:collect="always"
       id="linearGradient4402">
      <stop
         style="stop-color:#e8ccec;stop-opacity:1"
         offset="0"
         id="stop4404" />
      <stop
         style="stop-color:#fbf8fc;stop-opacity:1"
         offset="1"
         id="stop4406" />
    </linearGradient>
    <linearGradient
       id="linearGradient4638"
       inkscape:collect="always">
      <stop
         id="stop4640"
         offset="0"
         style="stop-color:#4a1e51;stop-opacity:1" />
      <stop
         id="stop4642"
         offset="1"
         style="stop-color:#673870;stop-opacity:1" />
    </linearGradient>
    <linearGradient
       gradientUnits="userSpaceOnUse"
       y2="-522.79797"
       x2="432.57144"
       y1="-522.79797"
       x1="384.57144"
       id="linearGradient4644"
       xlink:href="#linearGradient4638"
       inkscape:collect="always"
       gradientTransform="matrix(0.23518523,0,0,0.23518523,-89.316634,116.41621)" />
    <linearGradient
       inkscape:collect="always"
       xlink:href="#linearGradient4402"
       id="linearGradient4400"
       x1="7.3208833"
       y1="11.096162"
       x2="7.3208833"
       y2="2.3968701"
       gradientUnits="userSpaceOnUse"
       gradientTransform="matrix(0.83333346,0,0,0.83333346,1.128888,1.1288879)" />
  </defs>
  <rect
     style="fill:url(#linearGradient4644);fill-opacity:1;stroke:none"
     id="rect2991-1-7"
     width="11.288891"
     height="11.288891"
     x="1.1288879"
     y="-12.417778"
     ry="0"
     transform="scale(1,-1)" />
  <path
     style="fill:url(#linearGradient4400);fill-opacity:1;fill-rule:evenodd;stroke:none"
     d="m 7.3596407,3.1514807 -4.3055174,0.7597935 0,5.7335658 4.3055174,0.750346 0,-7.2437053 z m 0.1629733,0.8330135 0,0.7243651 1.892427,0 0,0.2852175 -1.892427,0 0,0.4790118 1.892427,0 0,0.2852183 -1.892427,0 0,0.4790118 1.892427,0 0,0.2852175 -1.892427,0 0,0.4789543 1.892427,0 0,0.2852175 -1.892427,0 0,0.4790118 1.892427,0 0,0.2852183 -1.892427,0 0,0.4790118 1.892427,0 0,0.2852175 -1.892427,0 0,0.728916 2.4710437,0 0,-3.7781723 0.4988863,0 0,-1.4514369 -0.488575,0 0,-0.32998 -2.481355,0 z m -3.1803146,1.7821661 0.3060717,0 1.0080851,1.5794994 c 0.042117,0.065517 0.069233,0.1104675 0.0814,0.1348033 l 0.00567,0 C 5.7341646,7.4229297 5.7294646,7.3241455 5.7294646,7.1846847 l 0,-1.4180244 0.2358475,0 0,2.0133461 -0.2891925,0 L 4.6399794,6.175217 C 4.6137711,6.134967 4.5922461,6.0928753 4.5754044,6.048882 l -0.00841,0 c 0.0075,0.043058 0.011233,0.1352433 0.011233,0.2765767 l 0,1.4545477 -0.235905,0 0,-2.0133461 z m 5.8604756,0.2641909 0,1.466876 0.289769,0 0,-1.466876 -0.289769,0 z m 0,1.6388935 0,1.4668761 0.289769,0 0,-1.4668761 -0.289769,0 z"
     id="path4350"
     inkscape:connector-curvature="0" />
  <path
     style="fill:#ffffff;fill-opacity:0.07843137;fill-rule:evenodd;stroke:none"
     d="m 7.3594593,3.151389 -4.3054516,0.7597585 0,0.094166 4.3054516,-0.7597585 0,-0.094166 z m 0.1630678,0.8332539 0,0.093707 2.4813879,0 0,-0.093707 -2.4813879,0 z m 2.4813879,0.3298106 0,0.094166 0.488744,0 0,-0.094166 -0.488744,0 z m -2.4813879,0.6798323 0,0.093706 1.8925061,0 0,-0.093706 -1.8925061,0 z m 0,0.7638926 0,0.094166 1.8925061,0 0,-0.094166 -1.8925061,0 z m 2.6802849,0.2728516 0,0.093707 0.289847,0 0,-0.093707 -0.289847,0 z m -5.635718,0.017914 c 0.00255,0.014662 0.00199,0.06811 0.00367,0.094166 l 0.00459,0 c 0.016842,0.043994 0.038559,0.08607 0.064768,0.1263204 l 1.0358254,1.6044962 0.2893881,0 0,-0.093707 -0.2893881,0 -1.0358254,-1.6049555 c -0.026209,-0.04025 -0.047926,-0.082327 -0.064768,-0.1263201 l -0.00827,0 z m 2.9554331,0.4735859 0,0.094166 1.8925061,0 0,-0.094166 -1.8925061,0 z m -1.7932874,0.6623771 0,0.093707 c 0,0.09535 0.00527,0.145274 0.00965,0.2025717 l 0.00459,0 c -0.00936,-0.058033 -0.01424,-0.1568175 -0.01424,-0.2962784 z m 1.7932874,0.1019749 0,0.093707 1.8925061,0 0,-0.093707 -1.8925061,0 z m 2.6802849,0.3826353 0,0.094166 0.289847,0 0,-0.094166 -0.289847,0 z m -5.8603384,0.1107024 0,0.093707 0.2356447,0 0,-0.093707 -0.2356447,0 z m 3.1800535,0.270555 0,0.094166 1.8925061,0 0,-0.094166 -1.8925061,0 z m 0,0.764352 0,0.094166 1.8925061,0 0,-0.094166 -1.8925061,0 z"
     id="path4421"
     inkscape:connector-curvature="0" />
  <path
     style="fill:#000000;fill-opacity:1;stroke:none;opacity:0.35"
     d="m 1.1288889,12.417778 11.2888881,8.5e-5 c -5.6444436,-0.282222 -5.6444436,-0.282222 -11.2888885,0 z"
     id="path3800"
     inkscape:connector-curvature="0"
     sodipodi:nodetypes="cccc" />
  <path
     sodipodi:nodetypes="cccc"
     inkscape:connector-curvature="0"
     id="path3804"
     d="m 1.1288899,1.1289464 11.2888871,-5.65e-5 c -5.6444425,0.2822223 -5.6444425,0.2822223 -11.2888875,0 z"
     style="fill:#ffffff;fill-opacity:1;stroke:none;opacity:0.5" />
</svg>
