<?xml version="1.0" encoding="UTF-8" standalone="no"?>
<!-- Created with Inkscape (http://www.inkscape.org/) -->

<svg
   xmlns:dc="http://purl.org/dc/elements/1.1/"
   xmlns:cc="http://creativecommons.org/ns#"
   xmlns:rdf="http://www.w3.org/1999/02/22-rdf-syntax-ns#"
   xmlns:svg="http://www.w3.org/2000/svg"
   xmlns="http://www.w3.org/2000/svg"
   xmlns:xlink="http://www.w3.org/1999/xlink"
   xmlns:sodipodi="http://sodipodi.sourceforge.net/DTD/sodipodi-0.dtd"
   xmlns:inkscape="http://www.inkscape.org/namespaces/inkscape"
   width="48"
   height="48"
   id="svg2"
   version="1.1"
   inkscape:version="0.48.5 r10040"
   sodipodi:docname="octopi_yellow.svg">
  <defs
     id="defs4">
    <linearGradient
       inkscape:collect="always"
       id="linearGradient4298">
      <stop
         style="stop-color:#ffffff;stop-opacity:1;"
         offset="0"
         id="stop4300" />
      <stop
         style="stop-color:#ffffff;stop-opacity:0;"
         offset="1"
         id="stop4302" />
    </linearGradient>
    <linearGradient
       inkscape:collect="always"
       id="linearGradient4269">
      <stop
         style="stop-color:#ffffff;stop-opacity:1;"
         offset="0"
         id="stop4271" />
      <stop
         style="stop-color:#ffffff;stop-opacity:0;"
         offset="1"
         id="stop4273" />
    </linearGradient>
    <linearGradient
       inkscape:collect="always"
       id="linearGradient4236">
      <stop
         style="stop-color:#000000;stop-opacity:1"
         offset="0"
         id="stop4238" />
      <stop
         style="stop-color:#666666;stop-opacity:1"
         offset="1"
         id="stop4240" />
    </linearGradient>
    <linearGradient
       id="linearGradient4137"
       inkscape:collect="always">
      <stop
         id="stop4139"
         offset="0"
         style="stop-color:#121312;stop-opacity:1" />
      <stop
         id="stop4141"
         offset="1"
         style="stop-color:#383838;stop-opacity:1" />
    </linearGradient>
    <linearGradient
       y2="-1003.5718"
       x2="-29.303299"
       y1="-1051.3015"
       x1="-29.303299"
       gradientTransform="translate(53.344928,-1.1022814)"
       gradientUnits="userSpaceOnUse"
       id="linearGradient1098"
       xlink:href="#linearGradient4137"
       inkscape:collect="always" />
    <linearGradient
       inkscape:collect="always"
       xlink:href="#linearGradient4127"
       id="linearGradient4202"
       x1="-23.217138"
       y1="1044.7678"
       x2="-23.217138"
       y2="1018.7747"
       gradientUnits="userSpaceOnUse"
       gradientTransform="matrix(1.6594083,0,0,1.6619611,72.178923,-686.47574)" />
    <linearGradient
       inkscape:collect="always"
       xlink:href="#linearGradient4236"
       id="linearGradient4242"
       x1="-21.765625"
       y1="1026.5966"
       x2="-21.765625"
       y2="1023.5809"
       gradientUnits="userSpaceOnUse"
       gradientTransform="translate(0.29523337,0)" />
    <linearGradient
       inkscape:collect="always"
       xlink:href="#linearGradient4236"
       id="linearGradient4246"
       gradientUnits="userSpaceOnUse"
       x1="-21.765625"
       y1="1026.5966"
       x2="-21.765625"
       y2="1023.5809"
       gradientTransform="translate(-10.173093,0)" />
    <radialGradient
       inkscape:collect="always"
       xlink:href="#linearGradient4269"
       id="radialGradient4275"
       cx="26.33602"
       cy="1016.6412"
       fx="26.33602"
       fy="1016.6412"
       r="6.0104074"
       gradientTransform="matrix(1.1226445,0.36174502,-0.32828644,0.77233466,548.01501,192.87457)"
       gradientUnits="userSpaceOnUse" />
    <linearGradient
       inkscape:collect="always"
       xlink:href="#linearGradient4298"
       id="linearGradient4304"
       x1="10.518213"
       y1="1032.3865"
       x2="17.766058"
       y2="1032.3865"
       gradientUnits="userSpaceOnUse"
       gradientTransform="translate(0,-1004.3622)" />
    <linearGradient
       inkscape:collect="always"
       xlink:href="#linearGradient4491"
       id="linearGradient4321"
       x1="20.108349"
       y1="1028.4089"
       x2="20.108349"
       y2="1021.603"
       gradientUnits="userSpaceOnUse"
       gradientTransform="matrix(1.4029537,0,0,1.4029537,-9.670888,-414.46291)" />
    <linearGradient
       inkscape:collect="always"
       xlink:href="#linearGradient4491"
       id="linearGradient4331"
       gradientUnits="userSpaceOnUse"
       x1="20.108349"
       y1="1028.4089"
       x2="20.108349"
       y2="1021.603"
       gradientTransform="matrix(1.4029537,0,0,1.4029537,5.0186921,-414.46291)" />
    <linearGradient
       inkscape:collect="always"
       id="linearGradient4491">
      <stop
         style="stop-color:#ffd7b9;stop-opacity:1"
         offset="0"
         id="stop4493" />
      <stop
         style="stop-color:#fffcf5;stop-opacity:1"
         offset="1"
         id="stop4495" />
    </linearGradient>
    <linearGradient
       id="linearGradient4127"
       inkscape:collect="always">
      <stop
         id="stop4129"
         offset="0"
         style="stop-color:#f96a01;stop-opacity:1" />
      <stop
         id="stop4131"
         offset="1"
         style="stop-color:#ffb900;stop-opacity:1" />
    </linearGradient>
  </defs>
  <sodipodi:namedview
     id="base"
     pagecolor="#ffffff"
     bordercolor="#666666"
     borderopacity="1.0"
     inkscape:pageopacity="0.0"
     inkscape:pageshadow="2"
     inkscape:zoom="8"
     inkscape:cx="10.775905"
     inkscape:cy="17.74684"
     inkscape:document-units="px"
     inkscape:current-layer="layer1"
     showgrid="true"
     inkscape:window-width="1301"
     inkscape:window-height="744"
     inkscape:window-x="65"
     inkscape:window-y="24"
     inkscape:window-maximized="1"
     showguides="true"
     inkscape:guide-bbox="true">
    <inkscape:grid
       type="xygrid"
       id="grid3850" />
  </sodipodi:namedview>
  <metadata
     id="metadata7">
    <rdf:RDF>
      <cc:Work
         rdf:about="">
        <dc:format>image/svg+xml</dc:format>
        <dc:type
           rdf:resource="http://purl.org/dc/dcmitype/StillImage" />
        <dc:title />
      </cc:Work>
    </rdf:RDF>
  </metadata>
  <g
     inkscape:label="Capa 1"
     inkscape:groupmode="layer"
     id="layer1"
     transform="translate(0,-1004.3622)">
    <path
       inkscape:connector-curvature="0"
       id="path4214"
       d="m 24,1007.2373 c 8.002233,0 14.65977,6.0843 15.43249,13.8828 l 0,1.5496 0,24.6925 c 0,1.7039 -1.382104,3.0861 -3.086489,3.0861 -1.704394,0 -3.0865,-1.3822 -3.0865,-3.0861 0,-1.7047 -1.382117,-3.0871 -3.086501,-3.0871 -1.704382,0 -3.086499,1.3824 -3.086499,3.0871 0,1.7039 -1.38211,3.0861 -3.086501,3.0861 -1.704385,0 -3.086501,-1.3822 -3.086501,-3.0861 0,-1.7047 -1.382106,-3.0871 -3.086488,-3.0871 -1.704394,0 -3.086501,1.3824 -3.086501,3.0871 0,1.7039 -1.38212,3.0861 -3.086499,3.0861 -1.7043955,0 -3.0865013,-1.3822 -3.0865013,-3.0861 l 0,-24.6925 C 9.3402369,1014.8712 15.997775,1007.2373 24,1007.2373 z"
       style="fill:#000000;fill-opacity:0.23529412;fill-rule:evenodd;stroke:none" />
    <path
       style="fill:#000000"
       d=""
       id="path906"
       inkscape:connector-curvature="0" />
    <path
       style="fill:url(#linearGradient4202);fill-opacity:1;fill-rule:evenodd;stroke:none"
       d="m 24,1006.6761 c 8.002233,0 14.65977,6.0844 15.43249,13.8828 l 0,1.5496 0,24.6925 c 0,1.7039 -1.382104,3.0861 -3.086489,3.0861 -1.704394,0 -3.0865,-1.3822 -3.0865,-3.0861 0,-1.7047 -1.382117,-3.087 -3.086501,-3.087 -1.704382,0 -3.086499,1.3823 -3.086499,3.087 0,1.7039 -1.38211,3.0861 -3.086501,3.0861 -1.704385,0 -3.086501,-1.3822 -3.086501,-3.0861 0,-1.7047 -1.382106,-3.087 -3.086488,-3.087 -1.704394,0 -3.086501,1.3823 -3.086501,3.087 0,1.7039 -1.38212,3.0861 -3.086499,3.0861 -1.7043955,0 -3.0865013,-1.3822 -3.0865013,-3.0861 l 0,-24.6925 C 9.3402369,1014.31 15.997775,1006.6761 24,1006.6761 z"
       id="path4194"
       inkscape:connector-curvature="0" />
    <path
       style="fill:#161716;fill-opacity:0.31372549;fill-rule:evenodd;stroke:none"
       d="m 17.826455,1042.5906 c -1.704393,0 -3.085401,1.3835 -3.085401,3.0882 0,1.7039 -1.383762,3.0854 -3.088142,3.0854 -1.7043951,0 -3.0854023,-1.3815 -3.0854023,-3.0854 l 0,1.1234 c 0,1.7039 1.3810072,3.0854 3.0854023,3.0854 1.70438,0 3.088142,-1.3815 3.088142,-3.0854 0,-1.7047 1.381008,-3.0881 3.085401,-3.0881 1.704383,0 3.088143,1.3834 3.088143,3.0881 0,1.7039 1.381017,3.0854 3.085402,3.0854 1.704391,0 3.085402,-1.3815 3.085402,-3.0854 0,-1.7047 1.38376,-3.0881 3.088143,-3.0881 1.704384,0 3.085401,1.3834 3.085401,3.0881 0,1.7039 1.383748,3.0854 3.088142,3.0854 1.704385,0 3.085402,-1.3815 3.085402,-3.0854 l 0,-1.1234 c 0,1.7039 -1.381017,3.0854 -3.085402,3.0854 -1.704394,0 -3.088142,-1.3815 -3.088142,-3.0854 0,-1.7047 -1.381017,-3.0882 -3.085401,-3.0882 -1.704383,0 -3.088143,1.3835 -3.088143,3.0882 0,1.7039 -1.381011,3.0854 -3.085402,3.0854 -1.704385,0 -3.085402,-1.3815 -3.085402,-3.0854 0,-1.7047 -1.38376,-3.0882 -3.088143,-3.0882 z"
       id="path4204"
       inkscape:connector-curvature="0" />
    <path
       style="fill:url(#linearGradient4321);fill-opacity:1;fill-rule:evenodd;stroke:none"
       d="m 16.655205,1019.0224 c -2.560052,0 -4.629741,2.0671 -4.629741,4.6234 0,2.5566 2.069689,4.6358 4.629741,4.6358 2.560064,0 4.629753,-2.0792 4.629753,-4.6358 0,-2.5563 -2.069689,-4.6234 -4.629753,-4.6234 z"
       id="path3084"
       inkscape:connector-curvature="0" />
    <ellipse
       ry="1.5196894"
       rx="1.1015372"
       cy="1025.0806"
       cx="-20.96537"
       style="fill:url(#linearGradient4242);fill-opacity:1;fill-rule:evenodd;stroke:none"
       id="path4035"
       transform="matrix(-1.4029537,0,0,1.4029537,-9.670888,-414.46291)"
       d="m -19.863833,1025.0806 c 0,0.8393 -0.493175,1.5197 -1.101537,1.5197 -0.608362,0 -1.101537,-0.6804 -1.101537,-1.5197 0,-0.8393 0.493175,-1.5197 1.101537,-1.5197 0.608362,0 1.101537,0.6804 1.101537,1.5197 z"
       sodipodi:cx="-20.96537"
       sodipodi:cy="1025.0806"
       sodipodi:rx="1.1015372"
       sodipodi:ry="1.5196894" />
    <path
       inkscape:connector-curvature="0"
       id="path4232"
       d="m 19.35479,1021.5456 c -0.640128,0 -1.157641,0.5167 -1.157641,1.1558 0,0.6391 0.517513,1.1589 1.157641,1.1589 0.640128,0 1.157641,-0.5198 1.157641,-1.1589 0,-0.6391 -0.517513,-1.1558 -1.157641,-1.1558 z"
       style="fill:#ffffff;fill-opacity:1;fill-rule:evenodd;stroke:none" />
    <path
       inkscape:connector-curvature="0"
       id="path4329"
       d="m 31.344785,1019.0224 c -2.560052,0 -4.629741,2.0671 -4.629741,4.6234 0,2.5566 2.069689,4.6358 4.629741,4.6358 2.560064,0 4.629753,-2.0792 4.629753,-4.6358 0,-2.5563 -2.069689,-4.6234 -4.629753,-4.6234 z"
       style="fill:url(#linearGradient4331);fill-opacity:1;fill-rule:evenodd;stroke:none" />
    <ellipse
       transform="matrix(-1.4029537,0,0,1.4029537,-9.670888,-414.46291)"
       id="ellipse4244"
       style="fill:url(#linearGradient4246);fill-opacity:1;fill-rule:evenodd;stroke:none"
       cx="-31.433697"
       cy="1025.0806"
       rx="1.1015372"
       ry="1.5196894"
       d="m -30.33216,1025.0806 c 0,0.8393 -0.493175,1.5197 -1.101537,1.5197 -0.608362,0 -1.101537,-0.6804 -1.101537,-1.5197 0,-0.8393 0.493175,-1.5197 1.101537,-1.5197 0.608362,0 1.101537,0.6804 1.101537,1.5197 z"
       sodipodi:cx="-31.433697"
       sodipodi:cy="1025.0806"
       sodipodi:rx="1.1015372"
       sodipodi:ry="1.5196894" />
    <path
       style="fill:#ffffff;fill-opacity:1;fill-rule:evenodd;stroke:none"
       d="m 34.041366,1021.5456 c -0.640127,0 -1.15764,0.5167 -1.15764,1.1558 0,0.6391 0.517513,1.1589 1.15764,1.1589 0.640128,0 1.157641,-0.5198 1.157641,-1.1589 0,-0.6391 -0.517513,-1.1558 -1.157641,-1.1558 z"
       id="path4234"
       inkscape:connector-curvature="0" />
    <path
       style="fill:#ffffff;fill-opacity:0.23529412;fill-rule:evenodd;stroke:none"
       d="m 16.656414,1019.0227 c -1.697907,0 -3.164711,0.9188 -3.970468,2.277 0.844211,-1.121 2.17307,-1.8551 3.688233,-1.8551 2.560064,0 4.630843,2.0663 4.630843,4.6227 0,0.864 -0.251286,1.6633 -0.663114,2.3565 0.584365,-0.7763 0.942609,-1.7329 0.942609,-2.7785 0,-2.5563 -2.068039,-4.6226 -4.628103,-4.6226 z"
       id="path4343"
       inkscape:connector-curvature="0" />
    <path
       id="path4349"
       d="m 31.346435,1019.0227 c -1.697908,0 -3.164711,0.9188 -3.970468,2.277 0.84421,-1.121 2.17307,-1.855 3.688233,-1.855 2.560064,0 4.630843,2.0663 4.630843,4.6226 0,0.8641 -0.251286,1.6633 -0.663115,2.3565 0.584366,-0.7764 0.94261,-1.7329 0.94261,-2.7785 0,-2.5564 -2.068039,-4.6226 -4.628103,-4.6226 z"
       style="fill:#ffffff;fill-opacity:0.23529412;fill-rule:evenodd;stroke:none"
       inkscape:connector-curvature="0" />
  </g>
</svg>
