<?xml version="1.0" encoding="UTF-8" standalone="no"?>
<!-- Created using Karbon, part of Calligra: http://www.calligra.org/karbon -->

<svg
   xmlns:dc="http://purl.org/dc/elements/1.1/"
   xmlns:cc="http://creativecommons.org/ns#"
   xmlns:rdf="http://www.w3.org/1999/02/22-rdf-syntax-ns#"
   xmlns:svg="http://www.w3.org/2000/svg"
   xmlns="http://www.w3.org/2000/svg"
   xmlns:xlink="http://www.w3.org/1999/xlink"
   xmlns:sodipodi="http://sodipodi.sourceforge.net/DTD/sodipodi-0.dtd"
   xmlns:inkscape="http://www.inkscape.org/namespaces/inkscape"
   width="38.4pt"
   height="38.4pt"
   id="svg2"
   version="1.1"
   inkscape:version="0.48.5 r10040"
   sodipodi:docname="okular.svg">
  <metadata
     id="metadata13">
    <rdf:RDF>
      <cc:Work
         rdf:about="">
        <dc:format>image/svg+xml</dc:format>
        <dc:type
           rdf:resource="http://purl.org/dc/dcmitype/StillImage" />
      </cc:Work>
    </rdf:RDF>
  </metadata>
  <sodipodi:namedview
     pagecolor="#ffffff"
     bordercolor="#666666"
     borderopacity="1"
     objecttolerance="10"
     gridtolerance="10"
     guidetolerance="10"
     inkscape:pageopacity="0"
     inkscape:pageshadow="2"
     inkscape:window-width="1356"
     inkscape:window-height="716"
     id="namedview11"
     showgrid="true"
     inkscape:zoom="9.8333333"
     inkscape:cx="13.96478"
     inkscape:cy="15.606831"
     inkscape:window-x="10"
     inkscape:window-y="24"
     inkscape:window-maximized="0"
     inkscape:current-layer="layer1">
    <inkscape:grid
       type="xygrid"
       id="grid3767" />
  </sodipodi:namedview>
  <defs
     id="defs4">
    <linearGradient
       id="linearGradient3759">
      <stop
         style="stop-color:#e6e6e6;stop-opacity:1;"
         offset="0"
         id="stop3761" />
      <stop
         style="stop-color:#ffffff;stop-opacity:1;"
         offset="1"
         id="stop3763" />
    </linearGradient>
    <linearGradient
       id="linearGradient3760">
      <stop
         style="stop-color:#fbfbfb;stop-opacity:1;"
         offset="0"
         id="stop3762" />
      <stop
         style="stop-color:#dedede;stop-opacity:1;"
         offset="1"
         id="stop3764" />
    </linearGradient>
    <linearGradient
       inkscape:collect="always"
       xlink:href="#linearGradient3760"
       id="linearGradient3766"
       x1="11.810274"
       y1="28.375576"
       x2="27.834139"
       y2="36.663376"
       gradientUnits="userSpaceOnUse"
       gradientTransform="matrix(1.1878788,0,0,1.9868421,-7.7707242,-43.354149)" />
    <linearGradient
       inkscape:collect="always"
       xlink:href="#linearGradient3759"
       id="linearGradient3765"
       x1="0"
       y1="20"
       x2="40"
       y2="20"
       gradientUnits="userSpaceOnUse" />
  </defs>
  <g
     id="layer1">
    <rect
       id="rect4077"
       transform="translate(4, 4)"
       fill="#f2f2f2"
       width="32.00000000000pt"
       height="32.00000000000pt"
       style="fill:url(#linearGradient3765);fill-opacity:1" />
    <path
       style="fill:url(#linearGradient3766);fill-opacity:1;stroke:none"
       d="M 4.9454534,11.997323 2.8474574,40.271186 43.690601,43.528101 43.525424,27.760037 29.500153,12.40678 z"
       id="path3758"
       inkscape:connector-curvature="0"
       sodipodi:nodetypes="cccccc" />
    <g
       id="layer1-7"
       transform="translate(6.37499, 8.37499)"
       fill="none">
      <path
         id="path3304"
         transform="matrix(9.4369e-16 1 -1 9.4369e-16 37.6221 -4.37626)"
         fill="#2980b9"
         fill-rule="evenodd"
         d="M0.00553604 13.2937C2.13427 14.3963 4.52349 14.9999 6.92239 15C10.8497 15.0002 14.7533 13.3843 17.5318 10.6074C20.3102 7.83058 21.9282 3.92711 21.9282 0L17.9282 0C17.9282 2.87988 16.7412 5.74294 14.7036 7.7793C12.6661 9.81565 9.80238 11.0002 6.92239 11C4.44418 10.9999 1.94852 10.1168 0 8.57427Z" />
    </g>
    <path
       id="shape2"
       d="m 40.818699,25.957678 c -0.1823,-1.9338 -1.0282,-3.77972 -2.3964,-5.13339 -1.418,-1.397604 -3.2587,-2.17113 -5.1991,-2.17113 -3.441,0 -6.4095,2.40847 -7.3382,5.88934 -0.5803,-0.61531 -1.534,-1.02844 -2.4294,-1.02844 -0.8956,0 -1.8492,0.41313 -2.4296,1.02844 -0.9287,-3.48087 -3.8971,-5.88934 -7.33824,-5.88934 -1.93202,0 -3.7810797,0.764735 -5.1989897,2.16235 -1.36816,1.36245 -2.21394,3.20837 -2.39636,5.14217 l -1.21061,0 0,1.58222 1.21061,0 c 0.18242,1.93376 1.0282,3.77976 2.39636,5.13336 1.41791,1.3976 3.2586797,2.1712 5.1989897,2.1712 4.21224,0 7.63674,-3.6215 7.63674,-8.08686 0,-0.0088 0,-0.0088 0,-0.0088 l 0,0 c 0,-0.87021 0.9537,-1.89865 2.1311,-1.89865 1.1774,0 2.1309,1.02844 2.1309,1.89865 l 0,0 c 0,0 0,0 0,0.0088 0,4.46536 3.4245,8.08686 7.6367,8.08686 1.9321,0 3.7811,-0.7648 5.1991,-2.1712 1.3682,-1.3536 2.2141,-3.2083 2.3964,-5.14216 l 1.2106,0 0,-1.5822 -1.2106,0 z m -7.5955,7.55948 c -3.5239,0 -6.3846,-3.0414 -6.3846,-6.76836 0,-3.73579 2.8691,-6.76834 6.3846,-6.76834 3.5242,0 6.3848,3.04137 6.3848,6.76834 0,3.73576 -2.8606,6.76836 -6.3848,6.76836 z m -19.53544,0 c -3.52406,0 -6.3847397,-3.0414 -6.3847397,-6.76836 0,-3.73579 2.8689697,-6.76834 6.3847397,-6.76834 3.52404,0 6.38474,3.04137 6.38474,6.76834 0,3.73576 -2.8607,6.76836 -6.38474,6.76836 z"
       inkscape:connector-curvature="0"
       style="fill:#4d4d4d" />
    <path
       style="opacity:0.5;fill:#000000;fill-opacity:1;stroke:none"
       d="m 4,44 0,0 c 20,-1 20,-1 40,0 z"
       id="path3257"
       inkscape:connector-curvature="0"
       sodipodi:nodetypes="cccc" />
    <path
       sodipodi:nodetypes="cccc"
       inkscape:connector-curvature="0"
       id="path4027"
       d="M 4,4 4,4 C 24,5 24,5 44,4 z"
       style="opacity:0.75;fill:#ffffff;fill-opacity:1;stroke:none" />
  </g>
</svg>
