<?xml version="1.0" encoding="UTF-8" standalone="no"?>
<!-- Created with Inkscape (http://www.inkscape.org/) -->

<svg
   xmlns:dc="http://purl.org/dc/elements/1.1/"
   xmlns:cc="http://creativecommons.org/ns#"
   xmlns:rdf="http://www.w3.org/1999/02/22-rdf-syntax-ns#"
   xmlns:svg="http://www.w3.org/2000/svg"
   xmlns="http://www.w3.org/2000/svg"
   xmlns:xlink="http://www.w3.org/1999/xlink"
   xmlns:sodipodi="http://sodipodi.sourceforge.net/DTD/sodipodi-0.dtd"
   xmlns:inkscape="http://www.inkscape.org/namespaces/inkscape"
   width="48"
   height="48"
   id="svg2"
   version="1.1"
   inkscape:version="0.48.5 r10040"
   sodipodi:docname="gpk-service-pack.svg">
  <defs
     id="defs4">
    <linearGradient
       y2="-1027.3622"
       x2="48"
       y1="-1027.3622"
       x1="3.8085936e-08"
       gradientUnits="userSpaceOnUse"
       id="linearGradient1711"
       xlink:href="#linearGradient6589"
       inkscape:collect="always"
       gradientTransform="matrix(0.83333333,0,0,0.83333333,4,-171.3937)" />
    <linearGradient
       id="linearGradient4169"
       inkscape:collect="always">
      <stop
         id="stop4171"
         offset="0"
         style="stop-color:#e2f4c4;stop-opacity:1" />
      <stop
         id="stop4173"
         offset="1"
         style="stop-color:#fdfff5;stop-opacity:1" />
    </linearGradient>
    <linearGradient
       inkscape:collect="always"
       id="linearGradient6589">
      <stop
         style="stop-color:#88c425;stop-opacity:1"
         offset="0"
         id="stop6591" />
      <stop
         style="stop-color:#bef202;stop-opacity:1"
         offset="1"
         id="stop6593" />
    </linearGradient>
    <linearGradient
       gradientTransform="matrix(2.5666667,0,0,2.5666667,-55.35834,990.61949)"
       y2="2.0118454"
       x2="10.409504"
       y1="13.990603"
       x1="10.409504"
       gradientUnits="userSpaceOnUse"
       id="linearGradient4181"
       xlink:href="#linearGradient4169"
       inkscape:collect="always" />
    <linearGradient
       gradientTransform="matrix(2.5666667,0,0,2.5666667,-55.35834,990.61949)"
       y2="2.0118454"
       x2="10.409504"
       y1="13.990603"
       x1="10.409504"
       gradientUnits="userSpaceOnUse"
       id="linearGradient4185"
       xlink:href="#linearGradient4169"
       inkscape:collect="always" />
    <linearGradient
       inkscape:collect="always"
       xlink:href="#linearGradient4169"
       id="linearGradient4156"
       x1="24.085938"
       y1="1052.37"
       x2="24.085938"
       y2="1004.3557"
       gradientUnits="userSpaceOnUse"
       gradientTransform="matrix(1.0095774,0,0,1.0389475,-0.2298576,-38.751931)" />
    <linearGradient
       inkscape:collect="always"
       xlink:href="#linearGradient4169"
       id="linearGradient3006"
       gradientUnits="userSpaceOnUse"
       gradientTransform="matrix(1.0095774,0,0,1.0389475,-0.2298576,-38.751931)"
       x1="24.085938"
       y1="1052.37"
       x2="24.085938"
       y2="1004.3557" />
    <linearGradient
       inkscape:collect="always"
       xlink:href="#linearGradient4169"
       id="linearGradient3011"
       gradientUnits="userSpaceOnUse"
       gradientTransform="matrix(0.8413145,0,0,0.86578958,3.808452,138.53684)"
       x1="24.085938"
       y1="1052.37"
       x2="24.085938"
       y2="1004.3557" />
  </defs>
  <sodipodi:namedview
     id="base"
     pagecolor="#ffffff"
     bordercolor="#666666"
     borderopacity="1.0"
     inkscape:pageopacity="0.0"
     inkscape:pageshadow="2"
     inkscape:zoom="5.6568542"
     inkscape:cx="37.945206"
     inkscape:cy="26.375925"
     inkscape:document-units="px"
     inkscape:current-layer="layer1"
     showgrid="true"
     inkscape:window-width="1301"
     inkscape:window-height="744"
     inkscape:window-x="65"
     inkscape:window-y="24"
     inkscape:window-maximized="1">
    <inkscape:grid
       type="xygrid"
       id="grid3850" />
  </sodipodi:namedview>
  <metadata
     id="metadata7">
    <rdf:RDF>
      <cc:Work
         rdf:about="">
        <dc:format>image/svg+xml</dc:format>
        <dc:type
           rdf:resource="http://purl.org/dc/dcmitype/StillImage" />
        <dc:title />
      </cc:Work>
    </rdf:RDF>
  </metadata>
  <g
     inkscape:label="Capa 1"
     inkscape:groupmode="layer"
     id="layer1"
     transform="translate(0,-1004.3622)">
    <rect
       style="fill:url(#linearGradient1711);fill-opacity:1;stroke:none"
       id="rect2991-1"
       width="40"
       height="40"
       x="4"
       y="-1048.3622"
       ry="0"
       transform="scale(1,-1)" />
    <rect
       style="fill:url(#linearGradient4181);fill-opacity:1;fill-rule:nonzero;stroke:none;display:none"
       id="rect4898"
       width="56.466667"
       height="56.466667"
       x="-55.358353"
       y="990.61951" />
    <rect
       y="990.61951"
       x="-55.358353"
       height="56.466667"
       width="56.466667"
       id="rect4126"
       style="fill:url(#linearGradient4185);fill-opacity:1;fill-rule:nonzero;stroke:none;display:none" />
    <path
       style="fill:url(#linearGradient3011);fill-opacity:1;stroke:none"
       d="m 20.634868,1015.5487 c -0.582588,0 -1.051603,0.4827 -1.051603,1.0822 l 0,4.0703 c 0,0.5996 0.469015,1.0822 1.051603,1.0822 0.582589,0 1.051604,-0.4826 1.051604,-1.0822 l 0,-4.0703 c 0,-0.5995 -0.469015,-1.0822 -1.051604,-1.0822 z m 6.730264,0 c -0.582589,0 -1.051604,0.4827 -1.051604,1.0822 l 0,4.0703 c 0,0.5996 0.469015,1.0822 1.051604,1.0822 0.582588,0 1.051603,-0.4826 1.051603,-1.0822 l 0,-4.0703 c 0,-0.5995 -0.469015,-1.0822 -1.051603,-1.0822 z m -12.114803,9.0046 c 0,4.6213 3.351189,8.4029 7.698068,8.9351 l 0,7.6342 c 0.347918,0.028 0.696295,0.053 1.051603,0.053 0.355308,0 0.703685,-0.026 1.051603,-0.053 l 0,-7.6342 c 4.34688,-0.5322 7.698068,-4.3138 7.698068,-8.9351 z"
       id="rect4111"
       inkscape:connector-curvature="0"
       sodipodi:nodetypes="sssssssssssssscccscccc" />
    <path
       style="fill:#ffffff;fill-opacity:0.23529412;stroke:none"
       d="m 20.634742,1015.5486 c -0.582589,0 -1.051643,0.4827 -1.051643,1.0823 l 0,0.2604 c 0,-0.5996 0.469054,-1.0823 1.051643,-1.0823 0.582589,0 1.051643,0.4827 1.051643,1.0823 l 0,-0.2604 c 0,-0.5996 -0.469054,-1.0823 -1.051643,-1.0823 z m 6.730516,0 c -0.582589,0 -1.051643,0.4827 -1.051643,1.0823 l 0,0.2604 c 0,-0.5996 0.469054,-1.0823 1.051643,-1.0823 0.582589,0 1.051643,0.4827 1.051643,1.0823 l 0,-0.2604 c 0,-0.5996 -0.469054,-1.0823 -1.051643,-1.0823 z M 15.25,1024.5532 c 0,0.088 0.0091,0.1732 0.0115,0.2604 l 17.476995,0 c 0.0024,-0.087 0.0115,-0.1726 0.0115,-0.2604 z"
       id="path4171"
       inkscape:connector-curvature="0"
       sodipodi:nodetypes="sscscsssscscssccccc" />
    <path
       style="opacity:0.5;fill:#000000;fill-opacity:1;stroke:none"
       d="m 4,1048.3622 0,0 c 20,-1 20,-1 40,0 z"
       id="path3257"
       inkscape:connector-curvature="0"
       sodipodi:nodetypes="cccc" />
    <path
       sodipodi:nodetypes="cccc"
       inkscape:connector-curvature="0"
       id="path4027"
       d="m 4,1008.3622 0,0 c 20,1 20,1 40,0 z"
       style="opacity:0.75;fill:#ffffff;fill-opacity:1;stroke:none" />
  </g>
</svg>
