<?xml version="1.0" encoding="UTF-8" standalone="no"?>
<!-- Created with Inkscape (http://www.inkscape.org/) -->

<svg
   xmlns:dc="http://purl.org/dc/elements/1.1/"
   xmlns:cc="http://creativecommons.org/ns#"
   xmlns:rdf="http://www.w3.org/1999/02/22-rdf-syntax-ns#"
   xmlns:svg="http://www.w3.org/2000/svg"
   xmlns="http://www.w3.org/2000/svg"
   xmlns:xlink="http://www.w3.org/1999/xlink"
   xmlns:sodipodi="http://sodipodi.sourceforge.net/DTD/sodipodi-0.dtd"
   xmlns:inkscape="http://www.inkscape.org/namespaces/inkscape"
   width="48px"
   height="48px"
   id="svg3057"
   version="1.1"
   inkscape:version="0.48.5 r10040"
   sodipodi:docname="softwarecenter.svg">
  <defs
     id="defs3059">
    <linearGradient
       id="linearGradient4030">
      <stop
         style="stop-color:#000000;stop-opacity:0;"
         offset="0"
         id="stop4032" />
      <stop
         style="stop-color:#c2c2c2;stop-opacity:0.39215687;"
         offset="1"
         id="stop4034" />
    </linearGradient>
    <linearGradient
       inkscape:collect="always"
       id="linearGradient4000">
      <stop
         style="stop-color:#000000;stop-opacity:1;"
         offset="0"
         id="stop4002" />
      <stop
         style="stop-color:#000000;stop-opacity:0;"
         offset="1"
         id="stop4004" />
    </linearGradient>
    <linearGradient
       id="linearGradient3988">
      <stop
         style="stop-color:#c8d1e9;stop-opacity:1;"
         offset="0"
         id="stop3990" />
      <stop
         style="stop-color:#ffffff;stop-opacity:1;"
         offset="1"
         id="stop3992" />
    </linearGradient>
    <linearGradient
       id="linearGradient3982">
      <stop
         style="stop-color:#2a2a2a;stop-opacity:1;"
         offset="0"
         id="stop3984" />
      <stop
         style="stop-color:#a9a9a9;stop-opacity:1;"
         offset="1"
         id="stop3986" />
    </linearGradient>
    <linearGradient
       inkscape:collect="always"
       xlink:href="#linearGradient5109"
       id="linearGradient3784"
       gradientUnits="userSpaceOnUse"
       gradientTransform="matrix(-1,0,0,0.76825749,356.08886,-433.0247)"
       x1="303.67419"
       y1="578.02942"
       x2="304.45044"
       y2="578.02942" />
    <linearGradient
       inkscape:collect="always"
       id="linearGradient5109">
      <stop
         style="stop-color:#000000;stop-opacity:1;"
         offset="0"
         id="stop5111" />
      <stop
         style="stop-color:#000000;stop-opacity:0;"
         offset="1"
         id="stop5113" />
    </linearGradient>
    <linearGradient
       inkscape:collect="always"
       xlink:href="#linearGradient4372"
       id="linearGradient4370"
       x1="32.466564"
       y1="33.972328"
       x2="32.466564"
       y2="14.033621"
       gradientUnits="userSpaceOnUse"
       gradientTransform="matrix(0.94339624,0,0,0.94339624,0.6896756,10.687172)" />
    <linearGradient
       id="linearGradient4372">
      <stop
         style="stop-color:#f9cebf;stop-opacity:1"
         offset="0"
         id="stop4374" />
      <stop
         style="stop-color:#fef8f6;stop-opacity:1"
         offset="1"
         id="stop4376" />
    </linearGradient>
    <linearGradient
       inkscape:collect="always"
       xlink:href="#linearGradient5336"
       id="linearGradient3770"
       gradientUnits="userSpaceOnUse"
       gradientTransform="matrix(2,0,0,1.585687,-765.3463,36.093896)"
       x1="402.19681"
       y1="617.76288"
       x2="408.92279"
       y2="611.01929" />
    <linearGradient
       inkscape:collect="always"
       id="linearGradient5336">
      <stop
         style="stop-color:#292929;stop-opacity:1"
         offset="0"
         id="stop5338" />
      <stop
         style="stop-color:#878787;stop-opacity:1"
         offset="1"
         id="stop5340" />
    </linearGradient>
    <linearGradient
       inkscape:collect="always"
       xlink:href="#linearGradient5142"
       id="linearGradient3774"
       gradientUnits="userSpaceOnUse"
       gradientTransform="matrix(1.166732,0,0,-1.2359678,-453.08338,769.61853)"
       x1="408.9805"
       y1="617.83386"
       x2="408.9805"
       y2="621.19397" />
    <linearGradient
       id="linearGradient5142"
       inkscape:collect="always">
      <stop
         id="stop5144"
         offset="0"
         style="stop-color:#292929;stop-opacity:1" />
      <stop
         id="stop5146"
         offset="1"
         style="stop-color:#696969;stop-opacity:1" />
    </linearGradient>
    <linearGradient
       inkscape:collect="always"
       xlink:href="#linearGradient5336"
       id="linearGradient3772"
       gradientUnits="userSpaceOnUse"
       gradientTransform="matrix(1.5344046,0,0,1.2165427,-602.41249,-739.10175)"
       x1="402.19681"
       y1="617.76288"
       x2="408.92279"
       y2="611.01929" />
    <linearGradient
       y2="611.01929"
       x2="408.92279"
       y1="617.76288"
       x1="402.19681"
       gradientTransform="matrix(1.5344041,0,0,1.2165427,-588.60298,-739.10172)"
       gradientUnits="userSpaceOnUse"
       id="linearGradient3141"
       xlink:href="#linearGradient5336"
       inkscape:collect="always" />
    <linearGradient
       inkscape:collect="always"
       xlink:href="#linearGradient3982"
       id="linearGradient3962"
       x1="16"
       y1="4"
       x2="32"
       y2="4"
       gradientUnits="userSpaceOnUse"
       spreadMethod="repeat"
       gradientTransform="matrix(1.1508035,0,0,1.1508035,-3.7612135,-1.2955591)" />
    <linearGradient
       inkscape:collect="always"
       xlink:href="#linearGradient3988"
       id="linearGradient3994"
       x1="5"
       y1="28.00198"
       x2="43"
       y2="28"
       gradientUnits="userSpaceOnUse"
       gradientTransform="matrix(1.1508035,0,0,1.1508035,-3.7612135,-2.4509192)" />
    <linearGradient
       inkscape:collect="always"
       xlink:href="#linearGradient4000"
       id="linearGradient4006"
       x1="16"
       y1="27.982143"
       x2="31.291148"
       y2="27.982143"
       gradientUnits="userSpaceOnUse" />
  </defs>
  <sodipodi:namedview
     id="base"
     pagecolor="#ffffff"
     bordercolor="#666666"
     borderopacity="1.0"
     inkscape:pageopacity="0.0"
     inkscape:pageshadow="2"
     inkscape:zoom="7"
     inkscape:cx="1.0037451"
     inkscape:cy="34.699021"
     inkscape:current-layer="layer1"
     showgrid="true"
     inkscape:grid-bbox="true"
     inkscape:document-units="px"
     inkscape:window-width="1301"
     inkscape:window-height="744"
     inkscape:window-x="65"
     inkscape:window-y="24"
     inkscape:window-maximized="1"
     inkscape:snap-nodes="false">
    <inkscape:grid
       type="xygrid"
       id="grid3182" />
  </sodipodi:namedview>
  <metadata
     id="metadata3062">
    <rdf:RDF>
      <cc:Work
         rdf:about="">
        <dc:format>image/svg+xml</dc:format>
        <dc:type
           rdf:resource="http://purl.org/dc/dcmitype/StillImage" />
        <dc:title></dc:title>
      </cc:Work>
    </rdf:RDF>
  </metadata>
  <g
     id="layer1"
     inkscape:label="Layer 1"
     inkscape:groupmode="layer">
    <path
       id="path3744"
       d="m 28.461281,5.6092613 0,6.9048207 4.603213,0 0,-6.9048207 -4.603213,0 z"
       style="fill:url(#linearGradient3141);fill-opacity:1;fill-rule:evenodd;stroke:none"
       inkscape:connector-curvature="0" />
    <path
       id="path3752"
       d="m 14.651641,5.6092613 0,6.9048207 4.603212,0 0,-6.9048207 -4.603212,0 z"
       style="fill:url(#linearGradient3772);fill-opacity:1;fill-rule:evenodd;stroke:none"
       inkscape:connector-curvature="0" />
    <rect
       style="fill:url(#linearGradient3994);fill-opacity:1;stroke:none"
       id="rect3180"
       width="43.73053"
       height="34.519539"
       x="1.9928035"
       y="12.514082"
       ry="1.1462466" />
    <path
       style="fill:url(#linearGradient3962);fill-opacity:1;stroke:none"
       d="m 14.651641,5.6092613 4.603212,-4.6032134 9.206428,0 4.603213,4.6032134 z"
       id="path3186"
       inkscape:connector-curvature="0" />
    <path
       style="fill:#000000;fill-opacity:0.39215686;stroke:none"
       d="m 3.1436069,47.033627 c 20.7144601,-1.150804 20.7144601,-1.150804 42.5797241,0 l -42.5797241,0 z"
       id="path4028"
       inkscape:connector-curvature="0"
       sodipodi:nodetypes="cccc" />
    <path
       style="fill:#ffffff;fill-opacity:0.70588235;stroke:none"
       d="m 2.8148058,12.550624 c 20.7144612,1.150804 20.7144612,1.150804 42.5797252,0 l -42.5797252,0 z"
       id="path4028-4"
       inkscape:connector-curvature="0"
       sodipodi:nodetypes="cccc" />
    <path
       id="path3802"
       d="m 24.162497,20.328491 c -2.35635,2e-4 -4.69831,0.970619 -6.36328,2.63672 -1.664962,1.6661 -2.63281,4.00728 -2.63281,6.36328 0,2.356 0.967848,4.697199 2.63281,6.363299 1.66497,1.6661 4.00693,2.6365 6.36328,2.6367 2.35641,2e-4 4.69811,-0.9706 6.36521,-2.6367 1.6671,-1.6661 2.6387,-4.006999 2.6387,-6.363299 0,-2.3563 -0.9716,-4.69718 -2.6387,-6.36328 -1.6671,-1.666101 -4.0088,-2.63692 -6.36521,-2.63672 z m 0,2 c 3.66541,-2e-4 7.00391,3.3347 7.00391,7 0,3.665299 -3.3385,7.000199 -7.00391,6.999999 -3.66544,-2e-4 -6.99609,-3.335 -6.99609,-6.999999 0,-3.665 3.33065,-6.9998 6.99609,-7 z"
       inkscape:connector-curvature="0"
       style="fill:#ffffff" />
    <path
       style="opacity:1;fill:#5d5d5d;fill-opacity:1"
       inkscape:connector-curvature="0"
       d="m 23.829683,19.957225 c -2.35635,2e-4 -4.69831,0.970619 -6.36328,2.63672 -1.664962,1.6661 -2.63281,4.00728 -2.63281,6.36328 0,2.356 0.967848,4.697199 2.63281,6.363299 1.66497,1.6661 4.00693,2.6365 6.36328,2.6367 2.35641,2e-4 4.69811,-0.9706 6.36521,-2.6367 1.6671,-1.6661 2.6387,-4.006999 2.6387,-6.363299 0,-2.3563 -0.9716,-4.69718 -2.6387,-6.36328 -1.6671,-1.666101 -4.0088,-2.63692 -6.36521,-2.63672 z m 0,2 c 3.66541,-2e-4 7.00391,3.3347 7.00391,7 0,3.665299 -3.3385,7.000199 -7.00391,6.999999 -3.66544,-2e-4 -6.99609,-3.335 -6.99609,-6.999999 0,-3.665 3.33065,-6.9998 6.99609,-7 z"
       id="path3331" />
    <path
       id="path3804"
       stroke-miterlimit="2.01260191180"
       d="m 27.750637,34.36239 -3.49798,-1.873449 -3.49798,1.873449 0.66806,-3.968019 -2.82993,-2.81019 3.91086,-0.57893 1.74899,-3.61026 1.74896,3.61026 3.91089,0.57893 -2.82997,2.81019 z"
       inkscape:connector-curvature="0"
       style="fill:#ffffff;fill-opacity:0.88627451000000002;fill-rule:evenodd;stroke:#000000;stroke-width:0;stroke-linecap:square;stroke-linejoin:miter;stroke-miterlimit:2.01260184999999980;stroke-opacity:0.80784314000000002" />
    <path
       style="opacity:1;fill:#5d5d5d;fill-opacity:1;fill-rule:evenodd;stroke:#000000;stroke-width:0;stroke-linecap:square;stroke-linejoin:miter;stroke-miterlimit:2.01260184999999980;stroke-opacity:0.80784314000000002"
       inkscape:connector-curvature="0"
       d="m 27.417823,33.991124 -3.49798,-1.873449 -3.49798,1.873449 0.66806,-3.968019 -2.82993,-2.81019 3.91086,-0.57893 1.74899,-3.61026 1.74896,3.61026 3.91089,0.57893 -2.82997,2.81019 z"
       stroke-miterlimit="2.01260191180"
       id="shape0" />
  </g>
</svg>
