<?xml version="1.0" encoding="UTF-8" standalone="no"?>
<!-- Created with Inkscape (http://www.inkscape.org/) -->

<svg
   xmlns:dc="http://purl.org/dc/elements/1.1/"
   xmlns:cc="http://creativecommons.org/ns#"
   xmlns:rdf="http://www.w3.org/1999/02/22-rdf-syntax-ns#"
   xmlns:svg="http://www.w3.org/2000/svg"
   xmlns="http://www.w3.org/2000/svg"
   xmlns:xlink="http://www.w3.org/1999/xlink"
   xmlns:sodipodi="http://sodipodi.sourceforge.net/DTD/sodipodi-0.dtd"
   xmlns:inkscape="http://www.inkscape.org/namespaces/inkscape"
   width="48"
   height="48"
   id="svg5453"
   version="1.1"
   inkscape:version="0.48.5 r10040"
   sodipodi:docname="preferences-desktop-notification-bell.svg"
   viewBox="0 0 48 48">
  <defs
     id="defs5455">
    <linearGradient
       inkscape:collect="always"
       id="linearGradient4123">
      <stop
         style="stop-color:#fdb984;stop-opacity:1;"
         offset="0"
         id="stop4125" />
      <stop
         style="stop-color:#fdb984;stop-opacity:0;"
         offset="1"
         id="stop4127" />
    </linearGradient>
    <linearGradient
       id="linearGradient4491"
       inkscape:collect="always">
      <stop
         id="stop4493"
         offset="0"
         style="stop-color:#ffd7b9;stop-opacity:1" />
      <stop
         id="stop4495"
         offset="1"
         style="stop-color:#fffcf5;stop-opacity:1" />
    </linearGradient>
    <filter
       id="filter3985"
       color-interpolation-filters="sRGB"
       height="1.3107746"
       width="1.1436011"
       y="-0.15538733"
       x="-0.071800567">
      <feGaussianBlur
         id="feGaussianBlur3987"
         stdDeviation="6.7803529" />
    </filter>
    <filter
       id="filter3989"
       color-interpolation-filters="sRGB">
      <feGaussianBlur
         id="feGaussianBlur3991"
         stdDeviation="6.7803529" />
    </filter>
    <filter
       id="filter3993"
       color-interpolation-filters="sRGB"
       height="1.1447482"
       width="1.2981865"
       y="-0.072374105"
       x="-0.1490933">
      <feGaussianBlur
         id="feGaussianBlur3995"
         stdDeviation="6.7803529" />
    </filter>
    <filter
       id="filter3997"
       color-interpolation-filters="sRGB"
       height="1.2207661"
       width="1.1631417"
       y="-0.11038305"
       x="-0.081570871">
      <feGaussianBlur
         id="feGaussianBlur3999"
         stdDeviation="6.7803529" />
    </filter>
    <filter
       id="filter4001"
       color-interpolation-filters="sRGB"
       height="1.257324"
       width="1.149857"
       y="-0.12866202"
       x="-0.07492853">
      <feGaussianBlur
         id="feGaussianBlur4003"
         stdDeviation="6.7803529" />
    </filter>
    <filter
       id="filter4005"
       color-interpolation-filters="sRGB"
       height="1.152902"
       width="1.2446516"
       y="-0.076450996"
       x="-0.12232576">
      <feGaussianBlur
         id="feGaussianBlur4007"
         stdDeviation="6.7803529" />
    </filter>
    <filter
       id="filter4009"
       color-interpolation-filters="sRGB"
       height="1.1597476"
       width="1.2244866"
       y="-0.079873785"
       x="-0.11224329">
      <feGaussianBlur
         id="feGaussianBlur4011"
         stdDeviation="6.7803529" />
    </filter>
    <filter
       id="filter3985-9"
       color-interpolation-filters="sRGB"
       height="1.3107746"
       width="1.1436011"
       y="-0.15538733"
       x="-0.071800567">
      <feGaussianBlur
         id="feGaussianBlur3987-0"
         stdDeviation="6.7803529" />
    </filter>
    <filter
       id="filter3989-9"
       color-interpolation-filters="sRGB">
      <feGaussianBlur
         id="feGaussianBlur3991-1"
         stdDeviation="6.7803529" />
    </filter>
    <filter
       id="filter3993-8"
       color-interpolation-filters="sRGB"
       height="1.1447482"
       width="1.2981865"
       y="-0.072374105"
       x="-0.1490933">
      <feGaussianBlur
         id="feGaussianBlur3995-4"
         stdDeviation="6.7803529" />
    </filter>
    <filter
       id="filter3997-0"
       color-interpolation-filters="sRGB"
       height="1.2207661"
       width="1.1631417"
       y="-0.11038305"
       x="-0.081570871">
      <feGaussianBlur
         id="feGaussianBlur3999-7"
         stdDeviation="6.7803529" />
    </filter>
    <filter
       id="filter4001-9"
       color-interpolation-filters="sRGB"
       height="1.257324"
       width="1.149857"
       y="-0.12866202"
       x="-0.07492853">
      <feGaussianBlur
         id="feGaussianBlur4003-7"
         stdDeviation="6.7803529" />
    </filter>
    <filter
       id="filter4005-7"
       color-interpolation-filters="sRGB"
       height="1.152902"
       width="1.2446516"
       y="-0.076450996"
       x="-0.12232576">
      <feGaussianBlur
         id="feGaussianBlur4007-7"
         stdDeviation="6.7803529" />
    </filter>
    <filter
       id="filter4009-8"
       color-interpolation-filters="sRGB"
       height="1.1597476"
       width="1.2244866"
       y="-0.079873785"
       x="-0.11224329">
      <feGaussianBlur
         id="feGaussianBlur4011-6"
         stdDeviation="6.7803529" />
    </filter>
    <linearGradient
       inkscape:collect="always"
       id="linearGradient4127">
      <stop
         style="stop-color:#f96a01;stop-opacity:1"
         offset="0"
         id="stop4129" />
      <stop
         style="stop-color:#ffb900;stop-opacity:1"
         offset="1"
         id="stop4131" />
    </linearGradient>
    <linearGradient
       gradientTransform="translate(441.80544,508.58838)"
       gradientUnits="userSpaceOnUse"
       y2="-1008.5216"
       x2="-33.23402"
       y1="-1056.3977"
       x1="-33.23402"
       id="linearGradient49"
       xlink:href="#linearGradient4127"
       inkscape:collect="always" />
    <linearGradient
       inkscape:collect="always"
       xlink:href="#linearGradient4491"
       id="linearGradient4489"
       x1="394.57144"
       y1="522.79797"
       x2="422.57144"
       y2="522.79797"
       gradientUnits="userSpaceOnUse"
       gradientTransform="matrix(1.3289769,0,0,1.3289769,-134.41059,-172.38327)" />
    <linearGradient
       inkscape:collect="always"
       xlink:href="#linearGradient4123"
       id="linearGradient4129"
       x1="17.12674"
       y1="-0.061776381"
       x2="17.12674"
       y2="29.414988"
       gradientUnits="userSpaceOnUse" />
  </defs>
  <sodipodi:namedview
     id="base"
     pagecolor="#ffffff"
     bordercolor="#666666"
     borderopacity="1.0"
     inkscape:pageopacity="0"
     inkscape:pageshadow="2"
     inkscape:zoom="4.0942994"
     inkscape:cx="-7.7675249"
     inkscape:cy="32.272324"
     inkscape:document-units="px"
     inkscape:current-layer="layer1"
     showgrid="true"
     fit-margin-top="0"
     fit-margin-left="0"
     fit-margin-right="0"
     fit-margin-bottom="0"
     inkscape:window-width="1301"
     inkscape:window-height="744"
     inkscape:window-x="65"
     inkscape:window-y="24"
     inkscape:window-maximized="1"
     showguides="false">
    <inkscape:grid
       type="xygrid"
       id="grid3047" />
  </sodipodi:namedview>
  <metadata
     id="metadata5458">
    <rdf:RDF>
      <cc:Work
         rdf:about="">
        <dc:format>image/svg+xml</dc:format>
        <dc:type
           rdf:resource="http://purl.org/dc/dcmitype/StillImage" />
        <dc:title />
      </cc:Work>
    </rdf:RDF>
  </metadata>
  <g
     inkscape:label="Capa 1"
     inkscape:groupmode="layer"
     id="layer1"
     transform="translate(-384.57143,-499.798)">
    <path
       sodipodi:nodetypes="sssssssscssssscsssssscssssssssssscss"
       inkscape:connector-curvature="0"
       id="path4497"
       d="m 411.04471,543.97672 c 0.98024,-0.66608 1.97931,-2.22799 1.97931,-3.09435 0,-0.30081 0.9158,-0.48596 3.73145,-0.7544 4.20457,-0.40083 8.11444,-1.40909 9.0353,-2.32997 0.68686,-0.68684 0.77197,-0.44391 -1.16864,-3.33615 -1.53056,-2.28109 -3.2491,-8.28701 -3.2491,-11.35476 0,-3.21596 -1.15055,-6.53514 -3.08266,-8.893 -1.3505,-1.64814 -4.09112,-3.41689 -6.20666,-4.00567 l -1.66003,-0.46202 0.59183,-0.62997 c 0.82466,-0.87781 1.0257,-2.43001 0.45715,-3.52947 -0.64952,-1.25604 -1.5449,-1.78941 -3.00389,-1.78941 -1.04938,0 -1.42406,0.16379 -2.23912,0.97884 -1.25585,1.25585 -1.35624,2.84693 -0.26171,4.14769 l 0.71712,0.85226 -1.3282,0.33444 c -5.53378,1.39343 -9.60664,6.72898 -9.60664,12.58493 0,1.80741 -1.02241,6.65619 -1.88896,8.95841 -0.39569,1.05125 -1.24218,2.60371 -1.88107,3.44995 -0.63891,0.84622 -1.11994,1.75514 -1.06896,2.01984 0.26797,1.3915 3.61067,2.44361 9.58022,3.01535 l 3.55975,0.34095 0.17215,0.86072 c 0.5899,2.94955 4.26806,4.3708 6.82136,2.63579 z m -3.63467,-1.58307 c -1.04361,-0.25316 -2.63079,-1.05586 -2.87771,-1.45538 -0.11721,-0.1896 1.27154,-0.28994 4.01229,-0.28994 2.30533,0 4.1915,0.0593 4.1915,0.13183 0,0.0725 -0.55061,0.44668 -1.22356,0.83152 -1.40771,0.80501 -2.86364,1.08253 -4.10252,0.78199 z m 0.10073,-34.04953 c -0.80642,-0.63236 -0.88659,-1.50598 -0.21637,-2.35801 0.77685,-0.98761 1.84529,-0.91273 2.66242,0.18659 l 0.58852,0.79171 -0.58852,0.79172 c -0.66089,0.8891 -1.73331,1.14689 -2.44605,0.58799 z"
       style="fill:#000000;fill-opacity:0.23529412" />
    <path
       style="fill:#dbdbdb;fill-opacity:1;fill-rule:nonzero;stroke:none;stroke-width:25;marker-mid:none;display:none;filter:url(#filter3985);enable-background:new"
       id="path3095"
       transform="matrix(0.08878086,0,0,0.08881664,108.23352,508.97316)"
       inkscape:connector-curvature="0"
       d="m 324.38759,135.62452 c -45.38059,3.2742 -125.14974,80.45343 -113.93317,80.06244 92.77726,-3.23392 150.72813,2.10512 223.11793,24.5811 10.71863,3.32799 -11.56647,-97.10992 -109.18476,-104.64354 z" />
    <path
       style="fill:#dbdbdb;fill-opacity:1;fill-rule:nonzero;stroke:#000000;stroke-width:0;stroke-linecap:butt;stroke-linejoin:round;stroke-miterlimit:4;stroke-opacity:1;stroke-dasharray:none;stroke-dashoffset:1;marker-mid:none;display:none;filter:url(#filter3989);enable-background:new"
       id="path3097"
       transform="matrix(0.08878086,0,0,0.08881664,108.23352,508.97316)"
       inkscape:connector-curvature="0"
       d="M 186.37822,72.150309 C 160.57833,109.62675 157.33905,256.29261 163.99898,247.2588 218.88951,172.80293 350.45207,80.852043 428.9148,43.825512 525.90264,-1.943011 243.81268,3.6410539 186.37822,72.150309 Z" />
    <path
       style="fill:#dbdbdb;fill-opacity:1;fill-rule:nonzero;stroke:none;stroke-width:25;marker-mid:none;display:none;filter:url(#filter3993);enable-background:new"
       id="path3099"
       transform="matrix(0.08878086,0,0,0.08881664,108.23352,508.97316)"
       inkscape:connector-curvature="0"
       d="M 69.5521,231.67976 C 84.41923,274.68075 179.56014,331.84683 176.28962,321.11052 149.23774,232.30583 139.45061,174.93843 142.49683,99.2009 142.94789,87.986573 51.65499,135.42084 69.5521,231.67976 Z" />
    <path
       style="fill:#dbdbdb;fill-opacity:1;fill-rule:nonzero;stroke:none;stroke-width:25;marker-mid:none;display:none;filter:url(#filter3997);enable-background:new"
       id="path3101"
       transform="matrix(0.08878086,0,0,0.08881664,108.23352,508.97316)"
       inkscape:connector-curvature="0"
       d="m 81.97729,372.8505 c 42.13653,17.1648 147.83895,-16.69886 137.60948,-21.31646 -84.61255,-38.1942 -134.204,-68.649 -189.1504,-120.86343 -8.1358,-7.73129 -32.64264,92.18775 51.54092,142.17989 z" />
    <path
       style="fill:#dbdbdb;fill-opacity:1;fill-rule:nonzero;stroke:none;stroke-width:25;marker-mid:none;display:none;filter:url(#filter4001);enable-background:new"
       id="path3103"
       transform="matrix(0.08878086,0,0,0.08881664,108.23352,508.97316)"
       inkscape:connector-curvature="0"
       d="m 203.88504,453.62703 c 40.28664,-21.14484 82.54559,-123.77977 72.42084,-118.93689 -83.74641,40.05772 -138.99861,58.33341 -214.33707,66.67436 -11.15521,1.23503 49.42757,84.38627 141.91623,52.26253 z" />
    <path
       style="fill:#dbdbdb;fill-opacity:1;fill-rule:nonzero;stroke:none;stroke-width:25;marker-mid:none;display:none;filter:url(#filter4005);enable-background:new"
       id="path3105"
       transform="matrix(0.08878086,0,0,0.08881664,108.23352,508.97316)"
       inkscape:connector-curvature="0"
       d="m 345.96158,410.03296 c 9.84126,-44.42146 -41.30053,-142.93171 -44.13379,-132.07183 -23.43513,89.82691 -45.12493,143.83025 -87.36533,206.76832 -6.25446,9.31914 96.3617,16.68976 131.49912,-74.69649 z" />
    <path
       style="fill:#dbdbdb;fill-opacity:1;fill-rule:nonzero;stroke:none;stroke-width:25;marker-mid:none;display:none;filter:url(#filter4009);enable-background:new"
       id="path3107"
       transform="matrix(0.08878086,0,0,0.08881664,108.23352,508.97316)"
       inkscape:connector-curvature="0"
       d="M 401.89383,270.24178 C 374.5208,233.89852 266.4087,208.76833 272.82303,217.97814 c 53.05584,76.17847 80.01415,127.7542 100.41172,200.75689 3.02024,10.80938 75.29683,-62.40604 28.65908,-148.49325 z" />
    <path
       style="fill:#dbdbdb;fill-opacity:1;fill-rule:nonzero;stroke:none;stroke-width:25;marker-mid:none;display:none;filter:url(#filter3985-9);enable-background:new"
       id="path3095-7"
       transform="matrix(0.08878086,0,0,0.08881664,-130.89148,486.22318)"
       inkscape:connector-curvature="0"
       d="m 324.38759,135.62452 c -45.38059,3.2742 -125.14974,80.45343 -113.93317,80.06244 92.77726,-3.23392 150.72813,2.10512 223.11793,24.5811 10.71863,3.32799 -11.56647,-97.10992 -109.18476,-104.64354 z" />
    <path
       style="fill:#dbdbdb;fill-opacity:1;fill-rule:nonzero;stroke:#000000;stroke-width:0;stroke-linecap:butt;stroke-linejoin:round;stroke-miterlimit:4;stroke-opacity:1;stroke-dasharray:none;stroke-dashoffset:1;marker-mid:none;display:none;filter:url(#filter3989-9);enable-background:new"
       id="path3097-4"
       transform="matrix(0.08878086,0,0,0.08881664,-130.89148,486.22318)"
       inkscape:connector-curvature="0"
       d="M 186.37822,72.150309 C 160.57833,109.62675 157.33905,256.29261 163.99898,247.2588 218.88951,172.80293 350.45207,80.852043 428.9148,43.825512 525.90264,-1.943011 243.81268,3.6410539 186.37822,72.150309 Z" />
    <path
       style="fill:#dbdbdb;fill-opacity:1;fill-rule:nonzero;stroke:none;stroke-width:25;marker-mid:none;display:none;filter:url(#filter3993-8);enable-background:new"
       id="path3099-9"
       transform="matrix(0.08878086,0,0,0.08881664,-130.89148,486.22318)"
       inkscape:connector-curvature="0"
       d="M 69.5521,231.67976 C 84.41923,274.68075 179.56014,331.84683 176.28962,321.11052 149.23774,232.30583 139.45061,174.93843 142.49683,99.2009 142.94789,87.986573 51.65499,135.42084 69.5521,231.67976 Z" />
    <path
       style="fill:#dbdbdb;fill-opacity:1;fill-rule:nonzero;stroke:none;stroke-width:25;marker-mid:none;display:none;filter:url(#filter3997-0);enable-background:new"
       id="path3101-4"
       transform="matrix(0.08878086,0,0,0.08881664,-130.89148,486.22318)"
       inkscape:connector-curvature="0"
       d="m 81.97729,372.8505 c 42.13653,17.1648 147.83895,-16.69886 137.60948,-21.31646 -84.61255,-38.1942 -134.204,-68.649 -189.1504,-120.86343 -8.1358,-7.73129 -32.64264,92.18775 51.54092,142.17989 z" />
    <path
       style="fill:#dbdbdb;fill-opacity:1;fill-rule:nonzero;stroke:none;stroke-width:25;marker-mid:none;display:none;filter:url(#filter4001-9);enable-background:new"
       id="path3103-3"
       transform="matrix(0.08878086,0,0,0.08881664,-130.89148,486.22318)"
       inkscape:connector-curvature="0"
       d="m 203.88504,453.62703 c 40.28664,-21.14484 82.54559,-123.77977 72.42084,-118.93689 -83.74641,40.05772 -138.99861,58.33341 -214.33707,66.67436 -11.15521,1.23503 49.42757,84.38627 141.91623,52.26253 z" />
    <path
       style="fill:#dbdbdb;fill-opacity:1;fill-rule:nonzero;stroke:none;stroke-width:25;marker-mid:none;display:none;filter:url(#filter4005-7);enable-background:new"
       id="path3105-1"
       transform="matrix(0.08878086,0,0,0.08881664,-130.89148,486.22318)"
       inkscape:connector-curvature="0"
       d="m 345.96158,410.03296 c 9.84126,-44.42146 -41.30053,-142.93171 -44.13379,-132.07183 -23.43513,89.82691 -45.12493,143.83025 -87.36533,206.76832 -6.25446,9.31914 96.3617,16.68976 131.49912,-74.69649 z" />
    <path
       style="fill:#dbdbdb;fill-opacity:1;fill-rule:nonzero;stroke:none;stroke-width:25;marker-mid:none;display:none;filter:url(#filter4009-8);enable-background:new"
       id="path3107-0"
       transform="matrix(0.08878086,0,0,0.08881664,-130.89148,486.22318)"
       inkscape:connector-curvature="0"
       d="M 401.89383,270.24178 C 374.5208,233.89852 266.4087,208.76833 272.82303,217.97814 c 53.05584,76.17847 80.01415,127.7542 100.41172,200.75689 3.02024,10.80938 75.29683,-62.40604 28.65908,-148.49325 z" />
    <path
       style="fill:url(#linearGradient4489);fill-opacity:1"
       d="m 411.04471,543.44514 c 0.98024,-0.66609 1.97931,-2.22799 1.97931,-3.09436 0,-0.30081 0.9158,-0.48596 3.73145,-0.7544 4.20457,-0.40084 8.11444,-1.40909 9.0353,-2.32996 0.68686,-0.68685 0.77197,-0.44393 -1.16864,-3.33616 -1.53056,-2.28108 -3.2491,-8.28702 -3.2491,-11.35476 0,-3.21596 -1.15055,-6.53514 -3.08266,-8.893 -1.3505,-1.64813 -4.09112,-3.41688 -6.20666,-4.00567 l -1.66003,-0.46202 0.59183,-0.62996 c 0.82466,-0.87782 1.0257,-2.43003 0.45715,-3.52948 -0.64952,-1.25603 -1.5449,-1.78941 -3.00389,-1.78941 -1.04938,0 -1.42406,0.16378 -2.23912,0.97884 -1.25585,1.25585 -1.35624,2.84693 -0.26171,4.14769 l 0.71712,0.85226 -1.3282,0.33445 c -5.53378,1.39341 -9.60664,6.72897 -9.60664,12.58492 0,1.80741 -1.02241,6.65619 -1.88896,8.9584 -0.39569,1.05126 -1.24218,2.60373 -1.88107,3.44995 -0.63891,0.84623 -1.11994,1.75515 -1.06896,2.01984 0.26797,1.39151 3.61067,2.44362 9.58022,3.01537 l 3.55975,0.34094 0.17215,0.86073 c 0.5899,2.94954 4.26806,4.37079 6.82136,2.63579 z m -3.63467,-1.58308 c -1.04361,-0.25316 -2.63079,-1.05586 -2.87771,-1.45538 -0.11721,-0.18959 1.27154,-0.28995 4.01229,-0.28995 2.30533,0 4.1915,0.0593 4.1915,0.13184 0,0.0725 -0.55061,0.44668 -1.22356,0.83151 -1.40771,0.80502 -2.86364,1.08254 -4.10252,0.78201 z m 0.10073,-34.04952 c -0.80642,-0.63237 -0.88659,-1.50599 -0.21637,-2.35802 0.77685,-0.9876 1.84529,-0.91273 2.66242,0.18659 l 0.58852,0.79171 -0.58852,0.79171 c -0.66089,0.8891 -1.73331,1.1469 -2.44605,0.58801 z"
       id="path4435"
       inkscape:connector-curvature="0"
       sodipodi:nodetypes="sssssssscssssscsssssscssssssssssscss" />
  </g>
</svg>
