<?xml version="1.0" encoding="UTF-8" standalone="no"?>
<!-- Created with Inkscape (http://www.inkscape.org/) -->

<svg
   xmlns:dc="http://purl.org/dc/elements/1.1/"
   xmlns:cc="http://creativecommons.org/ns#"
   xmlns:rdf="http://www.w3.org/1999/02/22-rdf-syntax-ns#"
   xmlns:svg="http://www.w3.org/2000/svg"
   xmlns="http://www.w3.org/2000/svg"
   xmlns:xlink="http://www.w3.org/1999/xlink"
   xmlns:sodipodi="http://sodipodi.sourceforge.net/DTD/sodipodi-0.dtd"
   xmlns:inkscape="http://www.inkscape.org/namespaces/inkscape"
   width="48"
   height="48"
   id="svg5453"
   version="1.1"
   inkscape:version="0.48.5 r10040"
   sodipodi:docname="pycharm.svg">
  <defs
     id="defs5455">
    <linearGradient
       id="linearGradient4865">
      <stop
         offset="0"
         style="stop-color:#ccc"
         id="stop4867" />
      <stop
         offset="1"
         style="stop-color:#ffffff;stop-opacity:1"
         id="stop4869" />
    </linearGradient>
    <linearGradient
       inkscape:collect="always"
       id="linearGradient4842">
      <stop
         style="stop-color:#f58a1f;stop-opacity:1"
         offset="0"
         id="stop4844" />
      <stop
         style="stop-color:#f6a350;stop-opacity:1"
         offset="1"
         id="stop4846" />
    </linearGradient>
    <linearGradient
       inkscape:collect="always"
       xlink:href="#linearGradient868"
       id="linearGradient2988"
       x1="412.44775"
       y1="-547.78802"
       x2="412.44775"
       y2="-499.77106"
       gradientUnits="userSpaceOnUse" />
    <linearGradient
       id="linearGradient868"
       inkscape:collect="always">
      <stop
         id="stop870"
         offset="0"
         style="stop-color:#557b57;stop-opacity:1" />
      <stop
         id="stop872"
         offset="1"
         style="stop-color:#669268;stop-opacity:1" />
    </linearGradient>
    <linearGradient
       inkscape:collect="always"
       xlink:href="#linearGradient4842"
       id="linearGradient4840"
       x1="23.808767"
       y1="36.913475"
       x2="23.808767"
       y2="11.832482"
       gradientUnits="userSpaceOnUse"
       gradientTransform="matrix(1.509286,0,0,1.5089776,372.35087,487.52842)" />
    <linearGradient
       inkscape:collect="always"
       xlink:href="#linearGradient4865"
       id="linearGradient4863"
       x1="34.168308"
       y1="36.913475"
       x2="34.168308"
       y2="11.19637"
       gradientUnits="userSpaceOnUse"
       gradientTransform="matrix(1.509286,0,0,1.5089776,372.35087,487.52842)" />
    <linearGradient
       inkscape:collect="always"
       xlink:href="#linearGradient4842"
       id="linearGradient4882"
       gradientUnits="userSpaceOnUse"
       gradientTransform="matrix(1.5092476,0,0,1.5089392,372.35188,487.5289)"
       x1="23.808767"
       y1="36.913475"
       x2="23.808767"
       y2="11.832482" />
  </defs>
  <sodipodi:namedview
     id="base"
     pagecolor="#ffffff"
     bordercolor="#666666"
     borderopacity="1.0"
     inkscape:pageopacity="0"
     inkscape:pageshadow="2"
     inkscape:zoom="5.5021746"
     inkscape:cx="-23.513607"
     inkscape:cy="6.304218"
     inkscape:document-units="px"
     inkscape:current-layer="layer1"
     showgrid="true"
     fit-margin-top="0"
     fit-margin-left="0"
     fit-margin-right="0"
     fit-margin-bottom="0"
     inkscape:window-width="1301"
     inkscape:window-height="744"
     inkscape:window-x="65"
     inkscape:window-y="24"
     inkscape:window-maximized="1">
    <inkscape:grid
       type="xygrid"
       id="grid3008" />
  </sodipodi:namedview>
  <metadata
     id="metadata5458">
    <rdf:RDF>
      <cc:Work
         rdf:about="">
        <dc:format>image/svg+xml</dc:format>
        <dc:type
           rdf:resource="http://purl.org/dc/dcmitype/StillImage" />
        <dc:title />
      </cc:Work>
    </rdf:RDF>
  </metadata>
  <g
     inkscape:label="Capa 1"
     inkscape:groupmode="layer"
     id="layer1"
     transform="translate(-384.57143,-499.798)">
    <path
       style="fill:url(#linearGradient4882);fill-opacity:1;stroke:none"
       d="m 404.79982,504.12795 c -8.63255,0.003 -15.67435,6.91286 -15.83817,15.54211 l -0.008,0 0,0.30104 0,23.38903 10.56624,0 0,-8.46644 c 1.69571,0.60525 3.48144,0.91532 5.28188,0.92054 8.75213,0 15.84563,-7.09285 15.84563,-15.84313 -0.004,-1.42698 -0.20177,-2.84454 -0.58468,-4.21456 -2.43269,0.54366 -6.60094,1.76535 -8.47886,4.09015 0,4.20047 -3.83184,6.82439 -6.78209,6.91397 -3.75089,0 -6.50496,-3.05044 -6.79206,-6.78956 -0.53484,-6.96507 7.00731,-12.58559 12.97706,-14.57181 -1.95518,-0.83485 -4.059,-1.26596 -6.185,-1.27134 l -0.003,0 z m 17.90314,0.003 c -14.79852,-0.0316 -26.47813,10.05312 -21.83657,18.74903 1.48289,2.30738 3.95933,2.79025 6.85176,1.43056 0.8563,-0.64104 1.00631,-0.88377 1.1967,-1.54748 0.78777,-3.0653 1.89976,-5.26667 7.47126,-7.96884 1.95424,-0.45692 4.01751,-0.64471 6.31685,-0.27368 1.97231,0.31831 3.70579,-0.60437 4.67233,-2.12966 -2.27071,-0.29234 -5.51123,-0.60507 -6.16757,-1.26139 -1.01227,-1.01207 0.0685,-0.57128 2.61481,-0.29606 2.34905,0.25386 3.88209,-0.37082 4.25188,-2.32124 -1.33617,-2.8562 -2.79619,-4.47892 -5.37145,-4.38124 z m -0.14181,1.54002 c 0.92483,4.6e-4 1.6752,0.74949 1.67437,1.67438 -6.1e-4,0.92352 -0.7505,1.67373 -1.67437,1.67438 -0.92394,-6.5e-4 -1.67122,-0.75085 -1.67188,-1.67438 -8.1e-4,-0.92489 0.74697,-1.67392 1.67188,-1.67438 z m -6.55321,26.86467 c -2.72464,2.37396 -6.13229,3.82187 -9.73278,4.13494 1.28613,5.1962 11.16408,6.6179 16.43029,6.6179 2.9645,0 5.4834,-2.44209 5.4834,-5.47842 0,-3.03645 -1.9365,-4.84399 -5.4834,-4.90869 -2.47884,-0.045 -4.63271,0.1581 -6.69751,-0.36573 z"
       id="path4878"
       inkscape:connector-curvature="0" />
    <path
       inkscape:connector-curvature="0"
       id="path4885"
       d="m 404.79982,504.63793 c -8.63255,0.003 -15.67435,6.91285 -15.83817,15.5421 l -0.008,0 0,0.30104 0,23.38903 10.56624,0 0,-8.46643 c 1.69571,0.60524 3.48144,0.91531 5.28188,0.92054 8.75213,0 15.84563,-7.09285 15.84563,-15.84314 -0.004,-1.42698 -0.20177,-2.84454 -0.58468,-4.21455 -2.43269,0.54365 -6.60094,1.76534 -8.47886,4.09015 0,4.20046 -3.83184,6.82438 -6.78209,6.91396 -3.75089,0 -6.50496,-3.05043 -6.79206,-6.78956 -0.53484,-6.96507 7.00731,-12.58559 12.97706,-14.5718 -1.95518,-0.83486 -4.059,-1.26597 -6.185,-1.27134 l -0.003,0 z m 17.90314,0.003 c -14.79852,-0.0316 -26.47813,10.05312 -21.83657,18.74904 1.48289,2.30738 3.95933,2.79024 6.85176,1.43056 0.8563,-0.64104 1.00631,-0.88378 1.1967,-1.54749 0.78777,-3.0653 1.89976,-5.26667 7.47126,-7.96884 1.95424,-0.45692 4.01751,-0.64471 6.31685,-0.27367 1.97231,0.31831 3.70579,-0.60437 4.67233,-2.12967 -2.27071,-0.29234 -5.51123,-0.60507 -6.16757,-1.26138 -1.01227,-1.01208 0.0685,-0.57129 2.61481,-0.29607 2.34905,0.25387 3.88209,-0.37082 4.25188,-2.32124 -1.33617,-2.85619 -2.79619,-4.47892 -5.37145,-4.38124 z m -0.14181,1.54003 c 0.92483,4.6e-4 1.6752,0.74948 1.67437,1.67437 -6.1e-4,0.92352 -0.7505,1.67373 -1.67437,1.67438 -0.92394,-6.5e-4 -1.67122,-0.75085 -1.67188,-1.67438 -8.1e-4,-0.92489 0.74697,-1.67391 1.67188,-1.67437 z m -6.55321,26.86467 c -2.72464,2.37395 -6.13229,3.82186 -9.73278,4.13494 1.28613,5.19619 11.16408,6.61789 16.43029,6.61789 2.9645,0 5.4834,-2.44209 5.4834,-5.47842 0,-3.03644 -1.9365,-4.84399 -5.4834,-4.90869 -2.47884,-0.045 -4.63271,0.1581 -6.69751,-0.36572 z"
       style="fill:#000000;fill-opacity:0.23529412;stroke:none" />
    <path
       style="fill:url(#linearGradient4840);fill-opacity:1;stroke:none"
       d="m 404.80052,504.1271 c -8.63277,0.003 -15.67484,6.91421 -15.83866,15.54369 l -0.008,0 0,0.30064 0,23.38913 10.56501,0 0,-8.46736 c 1.69575,0.60526 3.48204,0.91726 5.28253,0.92248 8.75234,0 15.8475,-7.09374 15.8475,-15.84425 -0.004,-1.42702 -0.20369,-2.84455 -0.5866,-4.21461 -2.43275,0.54367 -6.59999,1.76592 -8.47796,4.09079 0,4.20057 -3.83262,6.82458 -6.78296,6.91415 -3.75098,0 -6.50467,-3.0511 -6.79177,-6.79033 -0.53485,-6.96525 7.0064,-12.58482 12.97629,-14.57109 -1.95521,-0.83487 -4.05846,-1.26787 -6.18452,-1.27324 z"
       id="rect4785"
       inkscape:connector-curvature="0"
       sodipodi:nodetypes="ccccccccccccscc" />
    <path
       style="fill:url(#linearGradient4863);fill-opacity:1;stroke:none"
       d="m 422.70267,504.13007 c -14.79889,-0.0316 -26.47918,10.05408 -21.83749,18.75023 1.48292,2.30743 3.9612,2.78911 6.85371,1.42939 0.85631,-0.64107 1.0064,-0.88356 1.1968,-1.54729 0.78779,-3.06537 1.89819,-5.267 7.46983,-7.96925 1.9543,-0.45693 4.01776,-0.64516 6.31715,-0.27412 1.97236,0.31833 3.70577,-0.60253 4.67233,-2.12786 -2.27077,-0.29234 -5.51054,-0.60512 -6.16689,-1.26145 -1.01229,-1.0121 0.0684,-0.5729 2.61471,-0.29767 2.34911,0.25386 3.88103,-0.36899 4.25083,-2.31946 -1.33619,-2.85627 -2.79566,-4.4802 -5.37098,-4.38252 z m -0.1414,1.54142 c 0.92486,4.6e-4 1.67515,0.74912 1.67432,1.67403 -6.1e-4,0.92355 -0.75042,1.67332 -1.67432,1.67397 -0.92396,-6.5e-4 -1.67074,-0.75041 -1.67141,-1.67397 -8e-4,-0.92491 0.74648,-1.67357 1.67141,-1.67403 z m -6.55308,26.86391 c -2.72472,2.37401 -6.13305,3.82187 -9.73363,4.13496 1.28616,5.19633 11.16479,6.61946 16.43114,6.61946 2.96458,0 5.48294,-2.44242 5.48294,-5.47883 0,-3.03652 -1.93595,-4.84545 -5.48294,-4.91015 -2.4789,-0.045 -4.63265,0.15839 -6.69751,-0.36544 z"
       id="path4828"
       inkscape:connector-curvature="0" />
    <path
       style="fill:#985007;fill-opacity:0.31372549;stroke:none"
       d="m 409.61639,504.89419 c -5.59668,2.29196 -11.87595,7.44656 -11.60898,13.74617 0.43807,-6.34374 7.39563,-11.38315 12.97986,-13.2411 -0.4489,-0.19168 -0.9079,-0.35607 -1.37088,-0.50507 z m 11.01186,14.48261 c -0.22733,8.55224 -7.21723,15.42058 -15.82613,15.42058 -1.80049,-0.005 -3.58626,-0.31778 -5.28201,-0.92304 l 0,1.02008 c 1.69575,0.60525 3.48152,0.91533 5.28201,0.92055 8.75235,0 15.84603,-7.09303 15.84603,-15.84354 -5.3e-4,-0.19874 -0.0118,-0.39636 -0.0199,-0.59463 z m -31.67465,22.96418 0,1.02008 10.56651,0 0,-1.02008 -10.56651,0 z"
       id="path4900"
       inkscape:connector-curvature="0" />
    <path
       style="fill:#577d59;fill-opacity:0.31372549;stroke:none"
       d="m 422.56142,504.65286 c -0.92494,4.6e-4 -1.67274,0.74701 -1.67194,1.67193 1.3e-4,0.17857 0.0353,0.34862 0.0871,0.51004 0.21582,-0.67333 0.83914,-1.16401 1.58486,-1.16438 0.74565,3.7e-4 1.37078,0.49105 1.58734,1.16438 0.052,-0.16142 0.087,-0.33147 0.0871,-0.51004 8.2e-4,-0.92492 -0.74957,-1.67147 -1.67442,-1.67193 z m 5.32679,3.48816 c -0.56751,1.43876 -1.99997,1.89514 -4.06538,1.67194 -2.54631,-0.27523 -3.62717,-0.71603 -2.61488,0.29607 0.25425,0.25423 0.95337,0.4471 1.77642,0.61702 0.32773,0.0455 0.43443,0.0633 0.83846,0.10698 2.34911,0.25387 3.88218,-0.37082 4.25198,-2.32129 -0.0611,-0.1307 -0.12485,-0.24523 -0.1866,-0.37072 z m -1.27385,4.14749 c -0.99638,0.9513 -2.37851,1.459 -3.91113,1.21165 -2.29939,-0.37105 -4.36272,-0.18325 -6.31701,0.27368 -5.57164,2.70225 -6.68366,4.90367 -7.47145,7.96904 -0.1904,0.66373 -0.34041,0.90647 -1.19672,1.54753 -2.89251,1.35973 -5.36902,0.87684 -6.85194,-1.43059 -0.60982,-1.1425 -0.93132,-2.30887 -1.00763,-3.47324 -0.0887,1.50092 0.2192,3.01619 1.00763,4.49332 1.48292,2.30743 3.95943,2.79031 6.85194,1.43059 0.85631,-0.64106 1.00632,-0.8838 1.19672,-1.54753 0.78779,-3.06537 1.89981,-5.26679 7.47145,-7.96904 1.95429,-0.45693 4.01762,-0.64473 6.31701,-0.27368 1.97236,0.31832 3.70589,-0.60439 4.67245,-2.12972 -0.23428,-0.0302 -0.51031,-0.0711 -0.76132,-0.10201 z m -19.97361,24.33506 c -0.1223,0.0133 -0.24297,0.0366 -0.36574,0.0473 1.28616,5.19633 11.16436,6.61806 16.43071,6.61806 2.96457,0 5.48354,-2.44215 5.48354,-5.47856 0,-0.19854 -0.0308,-0.37687 -0.0473,-0.56477 -0.24041,2.81775 -2.62409,5.02575 -5.43626,5.02575 -4.92051,0 -13.86206,-1.24623 -16.06497,-5.64775 z"
       id="path4905"
       inkscape:connector-curvature="0" />
  </g>
</svg>
