<?xml version="1.0" encoding="UTF-8" standalone="no"?>
<!-- Created with Inkscape (http://www.inkscape.org/) -->

<svg
   xmlns:dc="http://purl.org/dc/elements/1.1/"
   xmlns:cc="http://creativecommons.org/ns#"
   xmlns:rdf="http://www.w3.org/1999/02/22-rdf-syntax-ns#"
   xmlns:svg="http://www.w3.org/2000/svg"
   xmlns="http://www.w3.org/2000/svg"
   xmlns:xlink="http://www.w3.org/1999/xlink"
   xmlns:sodipodi="http://sodipodi.sourceforge.net/DTD/sodipodi-0.dtd"
   xmlns:inkscape="http://www.inkscape.org/namespaces/inkscape"
   width="48"
   height="48"
   id="svg5453"
   version="1.1"
   inkscape:version="0.48.5 r10040"
   sodipodi:docname="到 kmix.svg 的链接">
  <defs
     id="defs5455">
    <linearGradient
       id="linearGradient3787">
      <stop
         style="stop-color:#7a5c00;stop-opacity:1;"
         offset="0"
         id="stop3789" />
      <stop
         style="stop-color:#f4bd21;stop-opacity:1;"
         offset="1"
         id="stop3791" />
    </linearGradient>
    <linearGradient
       inkscape:collect="always"
       id="linearGradient4306">
      <stop
         style="stop-color:#000000;stop-opacity:1;"
         offset="0"
         id="stop4308" />
      <stop
         style="stop-color:#000000;stop-opacity:0;"
         offset="1"
         id="stop4310" />
    </linearGradient>
    <linearGradient
       id="linearGradient4159">
      <stop
         id="stop4161"
         offset="0"
         style="stop-color:#1d1e1e;stop-opacity:1" />
      <stop
         id="stop4163"
         offset="1"
         style="stop-color:#545a61;stop-opacity:1;" />
    </linearGradient>
    <linearGradient
       inkscape:collect="always"
       xlink:href="#linearGradient4159"
       id="linearGradient4489"
       x1="6.0000119"
       y1="23"
       x2="42.000011"
       y2="23"
       gradientUnits="userSpaceOnUse"
       gradientTransform="matrix(1.1666661,0,0,1.1666661,380.57144,495.79801)" />
    <linearGradient
       inkscape:collect="always"
       xlink:href="#linearGradient4306"
       id="linearGradient4312"
       x1="393.57144"
       y1="513.79797"
       x2="421.57144"
       y2="529.96375"
       gradientUnits="userSpaceOnUse"
       gradientTransform="matrix(1.1666661,0,0,1.1666661,-68.094993,-87.299354)" />
    <radialGradient
       inkscape:collect="always"
       xlink:href="#linearGradient3787"
       id="radialGradient3793"
       cx="408.57141"
       cy="523.79803"
       fx="408.57141"
       fy="523.79803"
       r="13.000008"
       gradientUnits="userSpaceOnUse"
       gradientTransform="matrix(1.1666661,0,0,1.1666661,-68.094993,-87.299354)" />
  </defs>
  <sodipodi:namedview
     id="base"
     pagecolor="#ffffff"
     bordercolor="#666666"
     borderopacity="1.0"
     inkscape:pageopacity="0"
     inkscape:pageshadow="2"
     inkscape:zoom="8.0000004"
     inkscape:cx="29.901813"
     inkscape:cy="22.901592"
     inkscape:document-units="px"
     inkscape:current-layer="layer1"
     showgrid="true"
     fit-margin-top="0"
     fit-margin-left="0"
     fit-margin-right="0"
     fit-margin-bottom="0"
     inkscape:window-width="1301"
     inkscape:window-height="744"
     inkscape:window-x="65"
     inkscape:window-y="24"
     inkscape:window-maximized="1"
     inkscape:showpageshadow="false"
     borderlayer="true"
     showguides="true"
     inkscape:snap-nodes="true">
    <inkscape:grid
       type="xygrid"
       id="grid4063" />
    <sodipodi:guide
       position="1.1650391e-05,47.999996"
       orientation="4,0"
       id="guide4146" />
    <sodipodi:guide
       position="1.1650391e-05,43.999996"
       orientation="0,48"
       id="guide4148" />
    <sodipodi:guide
       position="48.000012,43.999996"
       orientation="-4,0"
       id="guide4150" />
    <sodipodi:guide
       position="48.000012,47.999996"
       orientation="0,-48"
       id="guide4152" />
    <sodipodi:guide
       position="1.1650391e-05,4.0000264"
       orientation="4,0"
       id="guide4154" />
    <sodipodi:guide
       position="1.1650391e-05,2.6367188e-05"
       orientation="0,48"
       id="guide4156" />
    <sodipodi:guide
       position="48.000012,2.6367188e-05"
       orientation="-4,0"
       id="guide4158" />
    <sodipodi:guide
       position="48.000012,4.0000264"
       orientation="0,-48"
       id="guide4160" />
    <sodipodi:guide
       position="48.000012,48.000026"
       orientation="0,-4"
       id="guide4162" />
    <sodipodi:guide
       position="44.000012,48.000026"
       orientation="48,0"
       id="guide4164" />
    <sodipodi:guide
       position="44.000012,2.6367188e-05"
       orientation="0,4"
       id="guide4166" />
    <sodipodi:guide
       position="48.000012,2.6367188e-05"
       orientation="-48,0"
       id="guide4168" />
    <sodipodi:guide
       position="4.0000422,48.000026"
       orientation="0,-4"
       id="guide4170" />
    <sodipodi:guide
       position="4.2167969e-05,48.000026"
       orientation="48,0"
       id="guide4172" />
    <sodipodi:guide
       position="4.2167969e-05,2.6367188e-05"
       orientation="0,4"
       id="guide4174" />
    <sodipodi:guide
       position="4.0000422,2.6367188e-05"
       orientation="-48,0"
       id="guide4176" />
    <sodipodi:guide
       position="6.0000117,43.999996"
       orientation="39.999969,0"
       id="guide4388" />
    <sodipodi:guide
       position="6.0000117,4.0000264"
       orientation="0,36"
       id="guide4390" />
    <sodipodi:guide
       position="42.000012,4.0000264"
       orientation="-39.999969,0"
       id="guide4392" />
    <sodipodi:guide
       position="42.000012,43.999996"
       orientation="0,-36"
       id="guide4394" />
  </sodipodi:namedview>
  <metadata
     id="metadata5458">
    <rdf:RDF>
      <cc:Work
         rdf:about="">
        <dc:format>image/svg+xml</dc:format>
        <dc:type
           rdf:resource="http://purl.org/dc/dcmitype/StillImage" />
        <dc:title></dc:title>
      </cc:Work>
    </rdf:RDF>
  </metadata>
  <g
     inkscape:label="Capa 1"
     inkscape:groupmode="layer"
     id="layer1"
     transform="translate(-384.57143,-499.798)">
    <path
       style="fill:url(#linearGradient4489);fill-opacity:1;stroke:none"
       d="m 387.57144,500.46468 0,9.33332 0,1.16667 0,8.16666 0,9.33333 0,1.16667 0,6.99999 0,1.16667 0,9.33333 41.99998,0 0,-9.33333 0,-1.16667 0,-8.16666 0,-9.33333 0,-1.16666 0,-7 0,-1.16667 0,-9.33332 z"
       id="rect4396"
       inkscape:connector-curvature="0"
       sodipodi:nodetypes="ccccccccccccccccccc" />
    <rect
       style="fill:#202222;fill-opacity:1;stroke:none"
       id="rect4160"
       width="37.333332"
       height="37.333332"
       x="389.90475"
       y="505.13135"
       ry="18.666666" />
    <rect
       ry="17.5"
       y="506.298"
       x="391.07141"
       height="35"
       width="35"
       id="rect4338"
       style="fill:#3b3f3f;fill-opacity:0.22340429;stroke:none" />
    <path
       style="fill:url(#linearGradient4312);fill-opacity:1;fill-rule:evenodd;stroke:none"
       d="m 398.07143,534.29799 22.22798,12.83333 9.27202,0 0,-24.49999 0,2.33333 0,-1.16666 0,-2.33334 0,-2.33333 -17.5,-10.10363 z"
       id="path4304"
       inkscape:connector-curvature="0" />
    <rect
       ry="15.166668"
       y="508.63135"
       x="393.40475"
       height="30.333336"
       width="30.333336"
       id="rect4162"
       style="fill:url(#radialGradient3793);fill-opacity:1;stroke:none" />
    <path
       style="fill:#000000;fill-opacity:0.17826089;stroke:none"
       d="m 408.25925,508.64729 c -0.51452,0.0105 -1.02169,0.0449 -1.52213,0.10488 0.39283,0.18733 0.66764,0.58014 0.66764,1.04589 0,0.64634 -0.52033,1.16667 -1.16666,1.16667 -0.64634,0 -1.16667,-0.52033 -1.16667,-1.16667 0,-0.33392 0.14347,-0.62854 0.36686,-0.84081 -0.50595,0.10546 -1.00217,0.23538 -1.48796,0.38964 -0.0283,0.146 -0.0456,0.29662 -0.0456,0.45117 0,1.29267 1.04066,2.33333 2.33333,2.33333 1.29267,0 2.33333,-1.04066 2.33333,-2.33333 0,-0.4215 -0.11823,-0.81014 -0.31217,-1.15072 z m 0.31218,1.15071 c 0,1.29267 1.04067,2.33334 2.33333,2.33334 1.29267,0 2.33333,-1.04067 2.33333,-2.33334 0,-0.15454 -0.0172,-0.30517 -0.0456,-0.45117 -0.48579,-0.15426 -0.98201,-0.28415 -1.48796,-0.38964 0.2234,0.21227 0.36686,0.50689 0.36686,0.84081 0,0.64634 -0.52033,1.16667 -1.16667,1.16667 -0.64633,0 -1.16666,-0.52033 -1.16666,-1.16667 0,-0.46575 0.27481,-0.85856 0.66765,-1.04589 -0.50044,-0.06 -1.00762,-0.0944 -1.52214,-0.10488 -0.19395,0.34057 -0.31218,0.72921 -0.31218,1.15072 z m 4.66666,0 c 0,1.29267 1.04067,2.33334 2.33334,2.33334 0.67954,0 1.28557,-0.29134 1.71126,-0.75195 -0.33363,-0.23398 -0.67946,-0.44926 -1.03223,-0.65625 -0.19319,0.1418 -0.41995,0.24153 -0.67903,0.24153 -0.64634,0 -1.16667,-0.52033 -1.16667,-1.16667 0,-0.003 0.002,-0.006 0.002,-0.009 -0.36745,-0.15248 -0.74407,-0.28635 -1.12564,-0.41016 -0.0246,0.13634 -0.0433,0.27562 -0.0433,0.41927 z m 2.33334,2.33334 c -1.29267,0 -2.33334,1.04066 -2.33334,2.33333 0,1.29266 1.04067,2.33333 2.33334,2.33333 1.29266,0 2.33333,-1.04067 2.33333,-2.33333 0,-1.29267 -1.04067,-2.33333 -2.33333,-2.33333 z m 2.33333,2.33333 c 0,1.29266 1.04066,2.33333 2.33333,2.33333 0.5699,0 1.0836,-0.20991 1.48795,-0.54687 -0.19846,-0.34632 -0.4023,-0.68799 -0.62662,-1.01628 -0.21334,0.23889 -0.51436,0.39648 -0.86133,0.39648 -0.64633,0 -1.16667,-0.52033 -1.16667,-1.16666 0,-0.43601 0.24678,-0.80004 0.59929,-1.00032 -0.27272,-0.29294 -0.55718,-0.57263 -0.85222,-0.84311 -0.55265,0.42595 -0.91373,1.08861 -0.91373,1.84343 z m 2.33333,2.33333 c -1.29267,0 -2.33333,1.04067 -2.33333,2.33333 0,1.29267 1.04066,2.33333 2.33333,2.33333 1.29267,0 2.33333,-1.04066 2.33333,-2.33333 0,-1.29266 -1.04066,-2.33333 -2.33333,-2.33333 z m 2.33333,2.33333 c 0,0.74494 0.35295,1.39858 0.89324,1.82519 -0.17029,-0.90457 -0.42505,-1.77655 -0.7474,-2.61587 -0.0892,0.24788 -0.14584,0.51129 -0.14584,0.79068 z m -2.33333,2.33333 c -1.29267,0 -2.33333,1.04067 -2.33333,2.33334 0,1.29266 1.04066,2.33333 2.33333,2.33333 1.29267,0 2.33333,-1.04067 2.33333,-2.33333 0,-1.29267 -1.04066,-2.33334 -2.33333,-2.33334 z m 0,4.66667 c -1.29267,0 -2.33333,1.04067 -2.33333,2.33333 0,1.29267 1.04066,2.33333 2.33333,2.33333 1.29267,0 2.33333,-1.04066 2.33333,-2.33333 0,-1.29266 -1.04066,-2.33333 -2.33333,-2.33333 z m 2.33333,2.33333 c 0,0.27939 0.0566,0.5428 0.14584,0.79069 0.32235,-0.83933 0.57711,-1.7113 0.7474,-2.61588 -0.54029,0.42662 -0.89324,1.08025 -0.89324,1.82519 z m -2.33333,2.33333 c -1.29267,0 -2.33333,1.04067 -2.33333,2.33334 0,0.75482 0.36108,1.41747 0.91373,1.84342 0.29504,-0.27048 0.5795,-0.55016 0.85222,-0.8431 -0.35251,-0.20028 -0.59929,-0.56432 -0.59929,-1.00032 0,-0.64634 0.52034,-1.16667 1.16667,-1.16667 0.34697,0 0.64799,0.15759 0.86133,0.39648 0.22432,-0.3283 0.42816,-0.66996 0.62662,-1.01627 -0.40435,-0.33697 -0.91805,-0.54688 -1.48795,-0.54688 z m -2.33333,2.33334 c 0,-1.29267 -1.04067,-2.33334 -2.33333,-2.33334 -1.29267,0 -2.33334,1.04067 -2.33334,2.33334 0,1.29266 1.04067,2.33333 2.33334,2.33333 1.29266,0 2.33333,-1.04067 2.33333,-2.33333 z m -2.33333,2.33333 c -1.29267,0 -2.33334,1.04066 -2.33334,2.33333 0,0.14365 0.0187,0.28293 0.0433,0.41926 0.38157,-0.12381 0.75819,-0.25767 1.12564,-0.41015 -2e-5,-0.004 -0.002,-0.006 -0.002,-0.009 0,-0.64633 0.52033,-1.16667 1.16667,-1.16667 0.25908,0 0.48584,0.0998 0.67903,0.24154 0.35277,-0.20699 0.6986,-0.42228 1.03223,-0.65625 -0.42569,-0.46061 -1.03172,-0.75195 -1.71126,-0.75195 z m -2.33334,2.33333 c 0,-1.29267 -1.04066,-2.33333 -2.33333,-2.33333 -1.29266,0 -2.33333,1.04066 -2.33333,2.33333 0,0.4215 0.11823,0.81014 0.31218,1.15072 0.51452,-0.0105 1.02169,-0.0448 1.52213,-0.10477 -0.39284,-0.18733 -0.66764,-0.58014 -0.66764,-1.04589 0,-0.64633 0.52033,-1.16667 1.16666,-1.16667 0.64633,0 1.16667,0.52034 1.16667,1.16667 0,0.33392 -0.14347,0.62854 -0.36686,0.84081 0.50595,-0.10546 1.00217,-0.23538 1.48795,-0.38964 0.0283,-0.146 0.0456,-0.29662 0.0456,-0.45117 z m -4.66666,0 c 0,-1.29267 -1.04067,-2.33333 -2.33333,-2.33333 -1.29267,0 -2.33334,1.04066 -2.33334,2.33333 0,0.15455 0.0172,0.30518 0.0456,0.45117 0.48579,0.15426 0.98201,0.28416 1.48796,0.38965 -0.2234,-0.21228 -0.36686,-0.5069 -0.36686,-0.84082 0,-0.64633 0.52033,-1.16667 1.16666,-1.16667 0.64634,0 1.16667,0.52034 1.16667,1.16667 0,0.46576 -0.27481,0.85856 -0.66765,1.04589 0.50044,0.06 1.00762,0.0944 1.52214,0.10477 0.19395,-0.34057 0.31218,-0.72921 0.31218,-1.15072 z m -4.66667,0 c 0,-1.29267 -1.04066,-2.33333 -2.33333,-2.33333 -0.67955,0 -1.28557,0.29134 -1.71126,0.75195 0.33363,0.23397 0.67946,0.44926 1.03223,0.65625 0.19319,-0.14181 0.41995,-0.24154 0.67903,-0.24154 0.64634,0 1.16667,0.52034 1.16667,1.16667 0,0.003 -0.002,0.006 -0.002,0.009 0.36745,0.15249 0.74407,0.28634 1.12564,0.41016 0.0246,-0.13634 0.0433,-0.27562 0.0433,-0.41927 z m -2.33333,-2.33333 c 1.29267,0 2.33333,-1.04067 2.33333,-2.33333 0,-1.29267 -1.04066,-2.33334 -2.33333,-2.33334 -1.29266,0 -2.33333,1.04067 -2.33333,2.33334 0,1.29266 1.04067,2.33333 2.33333,2.33333 z m -2.33333,-2.33333 c 0,-1.29267 -1.04067,-2.33334 -2.33333,-2.33334 -0.56991,0 -1.0836,0.20991 -1.48796,0.54688 0.19847,0.34631 0.40231,0.68797 0.62663,1.01627 0.21334,-0.23889 0.51436,-0.39648 0.86133,-0.39648 0.64633,0 1.16666,0.52033 1.16666,1.16667 0,0.436 -0.24677,0.80004 -0.59928,1.00032 0.27272,0.29294 0.55718,0.57262 0.85222,0.8431 0.55265,-0.42595 0.91373,-1.0886 0.91373,-1.84342 z m -2.33333,-2.33334 c 1.29266,0 2.33333,-1.04066 2.33333,-2.33333 0,-1.29266 -1.04067,-2.33333 -2.33333,-2.33333 -1.29267,0 -2.33333,1.04067 -2.33333,2.33333 0,1.29267 1.04066,2.33333 2.33333,2.33333 z m 0,-4.66666 c 1.29266,0 2.33333,-1.04067 2.33333,-2.33333 0,-1.29267 -1.04067,-2.33334 -2.33333,-2.33334 -1.29267,0 -2.33333,1.04067 -2.33333,2.33334 0,1.29266 1.04066,2.33333 2.33333,2.33333 z m -2.33333,-2.33333 c 0,-0.80903 -0.40803,-1.52086 -1.02995,-1.93913 -0.0807,0.6364 -0.13672,1.28009 -0.13672,1.93913 0,0.65904 0.056,1.30272 0.13672,1.93912 0.62192,-0.41827 1.02995,-1.1301 1.02995,-1.93912 z m 2.33333,-2.33334 c 1.29266,0 2.33333,-1.04066 2.33333,-2.33333 0,-1.29266 -1.04067,-2.33333 -2.33333,-2.33333 -1.29267,0 -2.33333,1.04067 -2.33333,2.33333 0,1.29267 1.04066,2.33333 2.33333,2.33333 z m 0,-4.66666 c 1.29266,0 2.33333,-1.04067 2.33333,-2.33333 0,-0.75482 -0.36108,-1.41748 -0.91373,-1.84343 -0.29504,0.27048 -0.5795,0.55017 -0.85222,0.84311 0.35251,0.20028 0.59928,0.56431 0.59928,1.00032 0,0.64633 -0.52033,1.16666 -1.16666,1.16666 -0.34697,0 -0.64799,-0.15759 -0.86133,-0.39648 -0.22432,0.32829 -0.42816,0.66996 -0.62663,1.01628 0.40436,0.33696 0.91805,0.54687 1.48796,0.54687 z m 2.33333,-2.33333 c 0,1.29266 1.04067,2.33333 2.33333,2.33333 1.29267,0 2.33333,-1.04067 2.33333,-2.33333 0,-1.29267 -1.04066,-2.33333 -2.33333,-2.33333 -1.29266,0 -2.33333,1.04066 -2.33333,2.33333 z m 2.33333,-2.33333 c 1.29267,0 2.33333,-1.04067 2.33333,-2.33334 0,-0.14365 -0.0187,-0.28292 -0.0433,-0.41927 -0.38157,0.12382 -0.75819,0.25768 -1.12564,0.41016 2e-5,0.004 0.002,0.006 0.002,0.009 0,0.64633 -0.52033,1.16666 -1.16667,1.16666 -0.25908,0 -0.48584,-0.0998 -0.67903,-0.24153 -0.35277,0.20699 -0.6986,0.42227 -1.03223,0.65625 0.42569,0.46061 1.03171,0.75195 1.71126,0.75195 z m 2.33333,2.33333 c 0,1.29266 1.04067,2.33333 2.33334,2.33333 1.29266,0 2.33333,-1.04067 2.33333,-2.33333 0,-1.29267 -1.04067,-2.33333 -2.33333,-2.33333 -1.29267,0 -2.33334,1.04066 -2.33334,2.33333 z m 4.66667,0 c 0,1.29266 1.04067,2.33333 2.33333,2.33333 1.29267,0 2.33333,-1.04067 2.33333,-2.33333 0,-1.29267 -1.04066,-2.33333 -2.33333,-2.33333 -1.29266,0 -2.33333,1.04066 -2.33333,2.33333 z m 2.33333,2.33333 c -1.29266,0 -2.33333,1.04067 -2.33333,2.33333 0,1.29267 1.04067,2.33333 2.33333,2.33333 1.29267,0 2.33333,-1.04066 2.33333,-2.33333 0,-1.29266 -1.04066,-2.33333 -2.33333,-2.33333 z m 2.33333,2.33333 c 0,1.29267 1.04067,2.33333 2.33334,2.33333 1.29266,0 2.33333,-1.04066 2.33333,-2.33333 0,-1.29266 -1.04067,-2.33333 -2.33333,-2.33333 -1.29267,0 -2.33334,1.04067 -2.33334,2.33333 z m 2.33334,2.33333 c -1.29267,0 -2.33334,1.04067 -2.33334,2.33334 0,1.29266 1.04067,2.33333 2.33334,2.33333 1.29266,0 2.33333,-1.04067 2.33333,-2.33333 0,-1.29267 -1.04067,-2.33334 -2.33333,-2.33334 z m 0,4.66667 c -1.29267,0 -2.33334,1.04067 -2.33334,2.33333 0,1.29267 1.04067,2.33333 2.33334,2.33333 1.29266,0 2.33333,-1.04066 2.33333,-2.33333 0,-1.29266 -1.04067,-2.33333 -2.33333,-2.33333 z m -2.33334,2.33333 c 0,-1.29266 -1.04066,-2.33333 -2.33333,-2.33333 -1.29266,0 -2.33333,1.04067 -2.33333,2.33333 0,1.29267 1.04067,2.33333 2.33333,2.33333 1.29267,0 2.33333,-1.04066 2.33333,-2.33333 z m -2.33333,2.33333 c -1.29266,0 -2.33333,1.04067 -2.33333,2.33334 0,1.29266 1.04067,2.33333 2.33333,2.33333 1.29267,0 2.33333,-1.04067 2.33333,-2.33333 0,-1.29267 -1.04066,-2.33334 -2.33333,-2.33334 z m -2.33333,2.33334 c 0,-1.29267 -1.04067,-2.33334 -2.33333,-2.33334 -1.29267,0 -2.33334,1.04067 -2.33334,2.33334 0,1.29266 1.04067,2.33333 2.33334,2.33333 1.29266,0 2.33333,-1.04067 2.33333,-2.33333 z m -2.33333,-2.33334 c 1.29266,0 2.33333,-1.04066 2.33333,-2.33333 0,-1.29266 -1.04067,-2.33333 -2.33333,-2.33333 -1.29267,0 -2.33334,1.04067 -2.33334,2.33333 0,1.29267 1.04067,2.33333 2.33334,2.33333 z m -2.33334,-2.33333 c 0,-1.29266 -1.04066,-2.33333 -2.33333,-2.33333 -1.29266,0 -2.33333,1.04067 -2.33333,2.33333 0,1.29267 1.04067,2.33333 2.33333,2.33333 1.29267,0 2.33333,-1.04066 2.33333,-2.33333 z m -2.33333,-2.33333 c 1.29267,0 2.33333,-1.04067 2.33333,-2.33333 0,-1.29267 -1.04066,-2.33334 -2.33333,-2.33334 -1.29266,0 -2.33333,1.04067 -2.33333,2.33334 0,1.29266 1.04067,2.33333 2.33333,2.33333 z m 0,-4.66667 c 1.29267,0 2.33333,-1.04066 2.33333,-2.33333 0,-1.29266 -1.04066,-2.33333 -2.33333,-2.33333 -1.29266,0 -2.33333,1.04067 -2.33333,2.33333 0,1.29267 1.04067,2.33333 2.33333,2.33333 z m 2.33333,-2.33333 c 0,1.29267 1.04067,2.33333 2.33334,2.33333 1.29266,0 2.33333,-1.04066 2.33333,-2.33333 0,-1.29266 -1.04067,-2.33333 -2.33333,-2.33333 -1.29267,0 -2.33334,1.04067 -2.33334,2.33333 z m 2.33334,2.33333 c -1.29267,0 -2.33334,1.04067 -2.33334,2.33334 0,1.29266 1.04067,2.33333 2.33334,2.33333 1.29266,0 2.33333,-1.04067 2.33333,-2.33333 0,-1.29267 -1.04067,-2.33334 -2.33333,-2.33334 z m 2.33333,2.33334 c 0,1.29266 1.04067,2.33333 2.33333,2.33333 1.29267,0 2.33333,-1.04067 2.33333,-2.33333 0,-1.29267 -1.04066,-2.33334 -2.33333,-2.33334 -1.29266,0 -2.33333,1.04067 -2.33333,2.33334 z m -7,-10.5 c 0.64634,0 1.16667,0.52034 1.16667,1.16667 0,0.64633 -0.52033,1.16666 -1.16667,1.16666 -0.64633,0 -1.16666,-0.52033 -1.16666,-1.16666 0,-0.64633 0.52033,-1.16667 1.16666,-1.16667 z m 4.66667,0 c 0.64633,0 1.16666,0.52034 1.16666,1.16667 0,0.64633 -0.52033,1.16666 -1.16666,1.16666 -0.64634,0 -1.16667,-0.52033 -1.16667,-1.16666 0,-0.64633 0.52033,-1.16667 1.16667,-1.16667 z m 4.66666,0 c 0.64633,0 1.16667,0.52034 1.16667,1.16667 0,0.64633 -0.52034,1.16666 -1.16667,1.16666 -0.64633,0 -1.16666,-0.52033 -1.16666,-1.16666 0,-0.64633 0.52033,-1.16667 1.16666,-1.16667 z m 4.66667,0 c 0.64633,0 1.16666,0.52034 1.16666,1.16667 0,0.64633 -0.52033,1.16666 -1.16666,1.16666 -0.64634,0 -1.16667,-0.52033 -1.16667,-1.16666 0,-0.64633 0.52033,-1.16667 1.16667,-1.16667 z m -18.66666,4.66667 c 0.64633,0 1.16666,0.52033 1.16666,1.16666 0,0.64634 -0.52033,1.16667 -1.16666,1.16667 -0.64633,0 -1.16667,-0.52033 -1.16667,-1.16667 0,-0.64633 0.52034,-1.16666 1.16667,-1.16666 z m 4.66666,0 c 0.64634,0 1.16667,0.52033 1.16667,1.16666 0,0.64634 -0.52033,1.16667 -1.16667,1.16667 -0.64633,0 -1.16666,-0.52033 -1.16666,-1.16667 0,-0.64633 0.52033,-1.16666 1.16666,-1.16666 z m 4.66667,0 c 0.64633,0 1.16666,0.52033 1.16666,1.16666 0,0.64634 -0.52033,1.16667 -1.16666,1.16667 -0.64634,0 -1.16667,-0.52033 -1.16667,-1.16667 0,-0.64633 0.52033,-1.16666 1.16667,-1.16666 z m 4.66666,0 c 0.64633,0 1.16667,0.52033 1.16667,1.16666 0,0.64634 -0.52034,1.16667 -1.16667,1.16667 -0.64633,0 -1.16666,-0.52033 -1.16666,-1.16667 0,-0.64633 0.52033,-1.16666 1.16666,-1.16666 z m 4.66667,0 c 0.64633,0 1.16666,0.52033 1.16666,1.16666 0,0.64634 -0.52033,1.16667 -1.16666,1.16667 -0.64634,0 -1.16667,-0.52033 -1.16667,-1.16667 0,-0.64633 0.52033,-1.16666 1.16667,-1.16666 z m 4.66666,0 c 0.64633,0 1.16667,0.52033 1.16667,1.16666 0,0.64634 -0.52034,1.16667 -1.16667,1.16667 -0.64633,0 -1.16667,-0.52033 -1.16667,-1.16667 0,-0.64633 0.52034,-1.16666 1.16667,-1.16666 z m -23.33332,4.66666 c 0.64633,0 1.16666,0.52033 1.16666,1.16667 0,0.64633 -0.52033,1.16666 -1.16666,1.16666 -0.64633,0 -1.16667,-0.52033 -1.16667,-1.16666 0,-0.64634 0.52034,-1.16667 1.16667,-1.16667 z m 4.66666,0 c 0.64634,0 1.16667,0.52033 1.16667,1.16667 0,0.64633 -0.52033,1.16666 -1.16667,1.16666 -0.64633,0 -1.16666,-0.52033 -1.16666,-1.16666 0,-0.64634 0.52033,-1.16667 1.16666,-1.16667 z m 4.66667,0 c 0.64633,0 1.16666,0.52033 1.16666,1.16667 0,0.64633 -0.52033,1.16666 -1.16666,1.16666 -0.64634,0 -1.16667,-0.52033 -1.16667,-1.16666 0,-0.64634 0.52033,-1.16667 1.16667,-1.16667 z m 4.66666,0 c 0.64633,0 1.16667,0.52033 1.16667,1.16667 0,0.64633 -0.52034,1.16666 -1.16667,1.16666 -0.64633,0 -1.16666,-0.52033 -1.16666,-1.16666 0,-0.64634 0.52033,-1.16667 1.16666,-1.16667 z m 4.66667,0 c 0.64633,0 1.16666,0.52033 1.16666,1.16667 0,0.64633 -0.52033,1.16666 -1.16666,1.16666 -0.64634,0 -1.16667,-0.52033 -1.16667,-1.16666 0,-0.64634 0.52033,-1.16667 1.16667,-1.16667 z m 4.66666,0 c 0.64633,0 1.16667,0.52033 1.16667,1.16667 0,0.64633 -0.52034,1.16666 -1.16667,1.16666 -0.64633,0 -1.16667,-0.52033 -1.16667,-1.16666 0,-0.64634 0.52034,-1.16667 1.16667,-1.16667 z m -23.33332,4.66667 c 0.64633,0 1.16666,0.52033 1.16666,1.16666 0,0.64633 -0.52033,1.16667 -1.16666,1.16667 -0.64633,0 -1.16667,-0.52034 -1.16667,-1.16667 0,-0.64633 0.52034,-1.16666 1.16667,-1.16666 z m 4.66666,0 c 0.64634,0 1.16667,0.52033 1.16667,1.16666 0,0.64633 -0.52033,1.16667 -1.16667,1.16667 -0.64633,0 -1.16666,-0.52034 -1.16666,-1.16667 0,-0.64633 0.52033,-1.16666 1.16666,-1.16666 z m 4.66667,0 c 0.64633,0 1.16666,0.52033 1.16666,1.16666 0,0.64633 -0.52033,1.16667 -1.16666,1.16667 -0.64634,0 -1.16667,-0.52034 -1.16667,-1.16667 0,-0.64633 0.52033,-1.16666 1.16667,-1.16666 z m 4.66666,0 c 0.64633,0 1.16667,0.52033 1.16667,1.16666 0,0.64633 -0.52034,1.16667 -1.16667,1.16667 -0.64633,0 -1.16666,-0.52034 -1.16666,-1.16667 0,-0.64633 0.52033,-1.16666 1.16666,-1.16666 z m 4.66667,0 c 0.64633,0 1.16666,0.52033 1.16666,1.16666 0,0.64633 -0.52033,1.16667 -1.16666,1.16667 -0.64634,0 -1.16667,-0.52034 -1.16667,-1.16667 0,-0.64633 0.52033,-1.16666 1.16667,-1.16666 z m 4.66666,0 c 0.64633,0 1.16667,0.52033 1.16667,1.16666 0,0.64633 -0.52034,1.16667 -1.16667,1.16667 -0.64633,0 -1.16667,-0.52034 -1.16667,-1.16667 0,-0.64633 0.52034,-1.16666 1.16667,-1.16666 z m -18.66666,4.66666 c 0.64634,0 1.16667,0.52033 1.16667,1.16667 0,0.64633 -0.52033,1.16666 -1.16667,1.16666 -0.64633,0 -1.16666,-0.52033 -1.16666,-1.16666 0,-0.64634 0.52033,-1.16667 1.16666,-1.16667 z m 4.66667,0 c 0.64633,0 1.16666,0.52033 1.16666,1.16667 0,0.64633 -0.52033,1.16666 -1.16666,1.16666 -0.64634,0 -1.16667,-0.52033 -1.16667,-1.16666 0,-0.64634 0.52033,-1.16667 1.16667,-1.16667 z m 4.66666,0 c 0.64633,0 1.16667,0.52033 1.16667,1.16667 0,0.64633 -0.52034,1.16666 -1.16667,1.16666 -0.64633,0 -1.16666,-0.52033 -1.16666,-1.16666 0,-0.64634 0.52033,-1.16667 1.16666,-1.16667 z m 4.66667,0 c 0.64633,0 1.16666,0.52033 1.16666,1.16667 0,0.64633 -0.52033,1.16666 -1.16666,1.16666 -0.64634,0 -1.16667,-0.52033 -1.16667,-1.16666 0,-0.64634 0.52033,-1.16667 1.16667,-1.16667 z"
       id="rect4170"
       inkscape:connector-curvature="0" />
    <rect
       style="fill:#050606;fill-opacity:1;stroke:none"
       id="rect4164"
       width="11.666678"
       height="11.666678"
       x="402.73807"
       y="517.96466"
       ry="5.8333392" />
    <rect
       y="545.96472"
       x="387.57144"
       height="1.166666"
       width="41.999966"
       id="rect4167-9"
       style="fill:#080809;fill-opacity:1;stroke:none" />
  </g>
</svg>
