<?xml version="1.0" encoding="UTF-8" standalone="no"?>
<!-- Created with Inkscape (http://www.inkscape.org/) -->

<svg
   xmlns:dc="http://purl.org/dc/elements/1.1/"
   xmlns:cc="http://creativecommons.org/ns#"
   xmlns:rdf="http://www.w3.org/1999/02/22-rdf-syntax-ns#"
   xmlns:svg="http://www.w3.org/2000/svg"
   xmlns="http://www.w3.org/2000/svg"
   xmlns:xlink="http://www.w3.org/1999/xlink"
   xmlns:sodipodi="http://sodipodi.sourceforge.net/DTD/sodipodi-0.dtd"
   xmlns:inkscape="http://www.inkscape.org/namespaces/inkscape"
   version="1.0"
   width="48"
   height="48"
   id="svg2408"
   inkscape:version="0.48.4 r9939"
   sodipodi:docname="screenruler-icon.svg">
  <sodipodi:namedview
     pagecolor="#ffffff"
     bordercolor="#666666"
     borderopacity="1"
     objecttolerance="10"
     gridtolerance="10"
     guidetolerance="10"
     inkscape:pageopacity="0"
     inkscape:pageshadow="2"
     inkscape:window-width="1301"
     inkscape:window-height="744"
     id="namedview61"
     showgrid="true"
     inkscape:snap-bbox="true"
     inkscape:zoom="6.9532167"
     inkscape:cx="20.97134"
     inkscape:cy="33.045808"
     inkscape:window-x="65"
     inkscape:window-y="24"
     inkscape:window-maximized="1"
     inkscape:current-layer="svg2408">
    <inkscape:grid
       type="xygrid"
       id="grid3059"
       empspacing="5"
       visible="true"
       enabled="true"
       snapvisiblegridlinesonly="true" />
  </sodipodi:namedview>
  <defs
     id="defs2410">
    <linearGradient
       id="linearGradient3856">
      <stop
         id="stop3858"
         style="stop-color:#665400;stop-opacity:1"
         offset="0" />
      <stop
         id="stop3860"
         style="stop-color:#665400;stop-opacity:0"
         offset="1" />
    </linearGradient>
    <linearGradient
       id="linearGradient3822">
      <stop
         id="stop3824"
         style="stop-color:#d7c000;stop-opacity:1"
         offset="0" />
      <stop
         id="stop3826"
         style="stop-color:#ebd93c;stop-opacity:1"
         offset="1" />
    </linearGradient>
    <linearGradient
       x1="45.447727"
       y1="92.539597"
       x2="45.447727"
       y2="7.0165396"
       id="ButtonShadow"
       gradientUnits="userSpaceOnUse"
       gradientTransform="scale(1.0058652,0.994169)">
      <stop
         id="stop3750"
         style="stop-color:#000000;stop-opacity:1"
         offset="0" />
      <stop
         id="stop3752"
         style="stop-color:#000000;stop-opacity:0.58823532"
         offset="1" />
    </linearGradient>
    <linearGradient
       id="linearGradient3737">
      <stop
         id="stop3739"
         style="stop-color:#ffffff;stop-opacity:1"
         offset="0" />
      <stop
         id="stop3741"
         style="stop-color:#ffffff;stop-opacity:0"
         offset="1" />
    </linearGradient>
    <filter
       color-interpolation-filters="sRGB"
       id="filter3174">
      <feGaussianBlur
         id="feGaussianBlur3176"
         stdDeviation="1.71" />
    </filter>
    <linearGradient
       x1="36.357143"
       y1="6"
       x2="36.357143"
       y2="63.893143"
       id="linearGradient3188"
       xlink:href="#linearGradient3737"
       gradientUnits="userSpaceOnUse" />
    <filter
       x="-0.192"
       y="-0.192"
       width="1.3839999"
       height="1.3839999"
       color-interpolation-filters="sRGB"
       id="filter3794">
      <feGaussianBlur
         id="feGaussianBlur3796"
         stdDeviation="5.28" />
    </filter>
    <linearGradient
       x1="48"
       y1="20.220806"
       x2="48"
       y2="138.66119"
       id="linearGradient3613"
       xlink:href="#linearGradient3737"
       gradientUnits="userSpaceOnUse" />
    <radialGradient
       cx="48"
       cy="90.171875"
       r="42"
       fx="48"
       fy="90.171875"
       id="radialGradient3619"
       xlink:href="#linearGradient3737"
       gradientUnits="userSpaceOnUse"
       gradientTransform="matrix(1.1573129,0,0,0.99590774,-7.5510206,0.19713193)" />
    <clipPath
       id="clipPath3613">
      <rect
         width="84"
         height="84"
         rx="6"
         ry="6"
         x="6"
         y="6"
         id="rect3615"
         style="fill:#ffffff;fill-opacity:1;fill-rule:nonzero;stroke:none" />
    </clipPath>
    <linearGradient
       x1="45.447727"
       y1="92.539597"
       x2="45.447727"
       y2="7.0165396"
       id="ButtonShadow-0"
       gradientUnits="userSpaceOnUse"
       gradientTransform="matrix(1.0058652,0,0,0.994169,100,0)">
      <stop
         id="stop3750-8"
         style="stop-color:#000000;stop-opacity:1"
         offset="0" />
      <stop
         id="stop3752-5"
         style="stop-color:#000000;stop-opacity:0.58823532"
         offset="1" />
    </linearGradient>
    <linearGradient
       x1="32.251034"
       y1="6.1317081"
       x2="32.251034"
       y2="90.238609"
       id="linearGradient3780"
       xlink:href="#ButtonShadow-0"
       gradientUnits="userSpaceOnUse"
       gradientTransform="matrix(1.0238095,0,0,1.0119048,-1.1428571,-98.071429)" />
    <linearGradient
       x1="32.251034"
       y1="6.1317081"
       x2="32.251034"
       y2="90.238609"
       id="linearGradient3772"
       xlink:href="#ButtonShadow-0"
       gradientUnits="userSpaceOnUse"
       gradientTransform="matrix(1.0238095,0,0,1.0119048,-1.1428571,-98.071429)" />
    <linearGradient
       x1="32.251034"
       y1="6.1317081"
       x2="32.251034"
       y2="90.238609"
       id="linearGradient3725"
       xlink:href="#ButtonShadow-0"
       gradientUnits="userSpaceOnUse"
       gradientTransform="matrix(1.0238095,0,0,1.0119048,-1.1428571,-98.071429)" />
    <linearGradient
       x1="32.251034"
       y1="6.1317081"
       x2="32.251034"
       y2="90.238609"
       id="linearGradient3721"
       xlink:href="#ButtonShadow-0"
       gradientUnits="userSpaceOnUse"
       gradientTransform="translate(0,-97)" />
    <linearGradient
       x1="32.251034"
       y1="6.1317081"
       x2="32.251034"
       y2="90.238609"
       id="linearGradient3026"
       xlink:href="#ButtonShadow-0"
       gradientUnits="userSpaceOnUse"
       gradientTransform="matrix(1.0238095,0,0,1.0119048,-1.1428571,-98.071429)" />
    <linearGradient
       x1="6"
       y1="48"
       x2="90"
       y2="48"
       id="linearGradient3828"
       xlink:href="#linearGradient3822"
       gradientUnits="userSpaceOnUse"
       gradientTransform="translate(-96,0)" />
    <linearGradient
       x1="16"
       y1="24"
       x2="16"
       y2="-16"
       id="linearGradient3862"
       xlink:href="#linearGradient3856"
       gradientUnits="userSpaceOnUse" />
    <linearGradient
       id="linearGradient3697">
      <stop
         id="stop3699"
         style="stop-color:#ffffff;stop-opacity:1"
         offset="0" />
      <stop
         id="stop3701"
         style="stop-color:#ffffff;stop-opacity:0"
         offset="1" />
    </linearGradient>
    <linearGradient
       x1="96"
       y1="16"
       x2="16"
       y2="64"
       id="linearGradient3063"
       xlink:href="#linearGradient3697"
       gradientUnits="userSpaceOnUse" />
    <linearGradient
       inkscape:collect="always"
       xlink:href="#linearGradient3697"
       id="linearGradient3039"
       gradientUnits="userSpaceOnUse"
       x1="96"
       y1="16"
       x2="16"
       y2="64" />
    <radialGradient
       inkscape:collect="always"
       xlink:href="#linearGradient3737"
       id="radialGradient3042"
       gradientUnits="userSpaceOnUse"
       gradientTransform="matrix(1.1573129,0,0,0.99590774,-7.5510206,0.19713193)"
       cx="48"
       cy="90.171875"
       fx="48"
       fy="90.171875"
       r="42" />
    <linearGradient
       inkscape:collect="always"
       xlink:href="#linearGradient3737"
       id="linearGradient3045"
       gradientUnits="userSpaceOnUse"
       x1="36.357143"
       y1="6"
       x2="36.357143"
       y2="63.893143" />
    <linearGradient
       inkscape:collect="always"
       xlink:href="#linearGradient3822"
       id="linearGradient3048"
       gradientUnits="userSpaceOnUse"
       gradientTransform="matrix(0.47619048,0,0,0.47619048,-46.857142,1.1428572)"
       x1="55"
       y1="5"
       x2="55"
       y2="90" />
    <linearGradient
       inkscape:collect="always"
       xlink:href="#linearGradient3856"
       id="linearGradient3050"
       gradientUnits="userSpaceOnUse"
       x1="16"
       y1="24"
       x2="16"
       y2="-16" />
    <linearGradient
       inkscape:collect="always"
       xlink:href="#linearGradient3856"
       id="linearGradient3055"
       gradientUnits="userSpaceOnUse"
       x1="16"
       y1="24"
       x2="16"
       y2="-16"
       gradientTransform="matrix(0.47619048,0,0,0.47619048,1.1428572,1.1428571)" />
  </defs>
  <metadata
     id="metadata2413">
    <rdf:RDF>
      <cc:Work
         rdf:about="">
        <dc:format>image/svg+xml</dc:format>
        <dc:type
           rdf:resource="http://purl.org/dc/dcmitype/StillImage" />
        <dc:title />
      </cc:Work>
    </rdf:RDF>
  </metadata>
  <g
     id="layer2"
     style="display:none"
     transform="translate(0,-48)">
    <rect
       width="86"
       height="85"
       rx="6"
       ry="6"
       x="5"
       y="7"
       id="rect3745"
       style="opacity:0.9;fill:url(#ButtonShadow);fill-opacity:1;fill-rule:nonzero;stroke:none;filter:url(#filter3174)" />
  </g>
  <rect
     style="fill:url(#linearGradient3048);fill-opacity:1;fill-rule:nonzero;stroke:none"
     id="rect2419"
     transform="matrix(0,-1,1,0,0,0)"
     y="4"
     x="-44"
     ry="0"
     rx="0"
     height="40"
     width="40" />
  <g
     id="layer5"
     transform="matrix(0.47619048,0,0,0.47619048,1.1428572,1.1428571)" />
  <path
     style="color:#000000;fill:url(#linearGradient3055);fill-opacity:1;fill-rule:nonzero;stroke:none;stroke-width:1.5;marker:none;visibility:visible;display:inline;overflow:visible;enable-background:accumulate"
     id="rect3831"
     inkscape:connector-curvature="0"
     d="m 8.7619048,6.8571428 0,11.4285712 0.952381,0 0,-11.4285712 -0.952381,0 z m 2.8571432,0 0,5.7142852 0.95238,0 0,-5.7142852 -0.95238,0 z m 2.857142,0 0,5.7142852 0.952382,0 0,-5.7142852 -0.952382,0 z m 2.857144,0 0,5.7142852 0.95238,0 0,-5.7142852 -0.95238,0 z m 2.857142,0 0,5.7142852 0.952382,0 0,-5.7142852 -0.952382,0 z m 2.857144,0 0,8.5714292 0.95238,0 0,-8.5714292 -0.95238,0 z m 2.857142,0 0,5.7142852 0.95238,0 0,-5.7142852 -0.95238,0 z m 2.857142,0 0,5.7142852 0.952382,0 0,-5.7142852 -0.952382,0 z m 2.857144,0 0,5.7142852 0.95238,0 0,-5.7142852 -0.95238,0 z m 2.857142,0 0,5.7142852 0.952382,0 0,-5.7142852 -0.952382,0 z m 2.857144,0 0,11.4285712 0.95238,0 0,-11.4285712 -0.95238,0 z m 2.857142,0 0,5.7142852 0.952382,0 0,-5.7142852 -0.952382,0 z" />
  <path
     style="font-size:21.15429306px;font-style:normal;font-variant:normal;font-weight:normal;font-stretch:normal;text-align:start;line-height:125%;letter-spacing:0px;word-spacing:0px;writing-mode:lr-tb;text-anchor:start;fill:#665400;fill-opacity:1;stroke:none;font-family:DejaVu Sans;-inkscape-font-specification:DejaVu Sans"
     id="path3869"
     inkscape:connector-curvature="0"
     d="m 9.1094719,20.977466 c -0.5115461,7e-6 -0.8968433,0.2525 -1.1558919,0.757478 -0.2557734,0.501712 -0.383659,1.25755 -0.3836577,2.267516 -1.3e-6,1.006694 0.1278843,1.762531 0.3836577,2.267515 0.2590486,0.501707 0.6443458,0.75256 1.1558919,0.752559 0.514819,1e-6 0.9001151,-0.250852 1.1558911,-0.752559 0.259047,-0.504984 0.388573,-1.260821 0.388577,-2.267515 -4e-6,-1.009966 -0.12953,-1.765804 -0.388577,-2.267516 -0.255776,-0.504978 -0.6410721,-0.757471 -1.1558911,-0.757478 m 0,-0.78699 c 0.8230559,8e-6 1.4510081,0.326281 1.8838571,0.97882 0.436119,0.649272 0.65418,1.593659 0.654186,2.833164 -6e-6,1.236232 -0.218067,2.180619 -0.654186,2.833163 -0.432849,0.649268 -1.0608012,0.973901 -1.8838571,0.973901 -0.8230628,0 -1.4526542,-0.324633 -1.8887762,-0.973901 C 6.78785,26.183079 6.5714281,25.238692 6.5714286,24.00246 c -5e-7,-1.239505 0.2164214,-2.183892 0.6492671,-2.833164 0.436122,-0.652539 1.0657134,-0.978812 1.8887762,-0.97882" />
  <path
     style="font-size:21.15429306px;font-style:normal;font-variant:normal;font-weight:normal;font-stretch:normal;text-align:start;line-height:125%;letter-spacing:0px;word-spacing:0px;writing-mode:lr-tb;text-anchor:start;fill:#665400;fill-opacity:1;stroke:none;font-family:DejaVu Sans;-inkscape-font-specification:DejaVu Sans"
     id="path3871"
     inkscape:connector-curvature="0"
     d="m 35.666452,26.973347 1.623167,0 0,-5.602386 -1.765809,0.354146 0,-0.905039 1.75597,-0.354145 0.993576,0 0,6.507424 1.623167,0 0,0.836177 -4.230071,0 0,-0.836177" />
  <path
     style="opacity:0.5;fill:#000000;fill-opacity:1;stroke:none"
     d="m 4,44 0,0 c 20,-1 20,-1 40,0 z"
     id="path3257"
     inkscape:connector-curvature="0"
     sodipodi:nodetypes="cccc" />
  <path
     sodipodi:nodetypes="cccc"
     inkscape:connector-curvature="0"
     id="path4027"
     d="M 4,4 4,4 C 24,5 24,5 44,4 z"
     style="opacity:0.75;fill:#ffffff;fill-opacity:1;stroke:none" />
</svg>
