<?xml version="1.0" encoding="UTF-8" standalone="no"?>
<!-- Created with Inkscape (http://www.inkscape.org/) -->

<svg
   xmlns:dc="http://purl.org/dc/elements/1.1/"
   xmlns:cc="http://creativecommons.org/ns#"
   xmlns:rdf="http://www.w3.org/1999/02/22-rdf-syntax-ns#"
   xmlns:svg="http://www.w3.org/2000/svg"
   xmlns="http://www.w3.org/2000/svg"
   xmlns:xlink="http://www.w3.org/1999/xlink"
   xmlns:sodipodi="http://sodipodi.sourceforge.net/DTD/sodipodi-0.dtd"
   xmlns:inkscape="http://www.inkscape.org/namespaces/inkscape"
   width="48"
   height="48"
   id="svg3066"
   version="1.1"
   inkscape:version="0.48.5 r10040"
   sodipodi:docname="scummvm.svg">
  <defs
     id="defs3068">
    <linearGradient
       inkscape:collect="always"
       id="linearGradient4233">
      <stop
         style="stop-color:#60822a;stop-opacity:1"
         offset="0"
         id="stop4235" />
      <stop
         style="stop-color:#99c14e;stop-opacity:1"
         offset="1"
         id="stop4237" />
    </linearGradient>
    <linearGradient
       inkscape:collect="always"
       xlink:href="#linearGradient1373"
       id="linearGradient867"
       x1="26.25"
       y1="-1052.5408"
       x2="26.25"
       y2="-1004.6837"
       gradientUnits="userSpaceOnUse" />
    <linearGradient
       inkscape:collect="always"
       id="linearGradient1373">
      <stop
         style="stop-color:#282827;stop-opacity:1"
         offset="0"
         id="stop1375" />
      <stop
         style="stop-color:#292929;stop-opacity:1"
         offset="1"
         id="stop1377" />
    </linearGradient>
    <linearGradient
       inkscape:collect="always"
       xlink:href="#linearGradient4233"
       id="linearGradient4239"
       x1="32.779247"
       y1="1041.1317"
       x2="32.779247"
       y2="1015.2584"
       gradientUnits="userSpaceOnUse"
       gradientTransform="matrix(1.4204484,0,0,1.4204484,-10.090745,-432.54142)" />
  </defs>
  <sodipodi:namedview
     id="base"
     pagecolor="#ffffff"
     bordercolor="#666666"
     borderopacity="1.0"
     inkscape:pageopacity="0.0"
     inkscape:pageshadow="2"
     inkscape:zoom="5.6568543"
     inkscape:cx="8.8034045"
     inkscape:cy="43.499933"
     inkscape:document-units="px"
     inkscape:current-layer="layer1"
     showgrid="true"
     inkscape:window-width="1301"
     inkscape:window-height="744"
     inkscape:window-x="65"
     inkscape:window-y="24"
     inkscape:window-maximized="1">
    <inkscape:grid
       type="xygrid"
       id="grid3001" />
  </sodipodi:namedview>
  <metadata
     id="metadata3071">
    <rdf:RDF>
      <cc:Work
         rdf:about="">
        <dc:format>image/svg+xml</dc:format>
        <dc:type
           rdf:resource="http://purl.org/dc/dcmitype/StillImage" />
        <dc:title />
      </cc:Work>
    </rdf:RDF>
  </metadata>
  <g
     inkscape:label="Capa 1"
     inkscape:groupmode="layer"
     id="layer1"
     transform="translate(0,-1004.3622)">
    <path
       inkscape:connector-curvature="0"
       style="fill:#000000;fill-opacity:0.11764706"
       d="m 21.744972,1051.1801 c -3.389957,-0.494 -5.910869,-1.241 -7.797097,-2.3106 -3.01644,-1.7108 -5.9743631,-4.6082 -6.7876152,-6.649 -0.1717337,-0.4309 -0.2037605,-0.678 -0.2055006,-1.5839 -0.0017,-1.0063 0.015341,-1.1136 0.2743284,-1.7111 0.4454995,-1.0277 1.8070533,-2.6959 4.1724774,-5.1118 1.119541,-1.1433 1.346672,-1.4968 1.335746,-2.0782 -0.01023,-0.547 -0.327869,-1.1294 -1.141275,-2.0932 -1.582989,-1.8754 -2.4722492,-3.6772 -3.0174969,-6.1139 -0.2848283,-1.2731 -0.2803624,-3.9484 0.00852,-5.2904 0.6452032,-2.9935 1.7003322,-4.906 3.7356032,-6.7707 2.375943,-2.177 4.474573,-3.1333 8.352572,-3.8054 1.480478,-0.2567 4.098636,-0.2767 5.613905,-0.043 3.362425,0.5184 6.117202,1.4426 8.418314,2.8238 2.235728,1.342 4.47331,3.1758 5.153106,4.2233 0.797172,1.2284 0.970105,2.5004 0.522097,3.8402 -0.313395,0.9372 -0.577796,1.3616 -2.195092,3.5228 -1.628963,2.1769 -1.785235,2.449 -1.782525,3.1051 0.0034,0.6506 0.194164,1.0122 1.197072,2.2625 1.89099,2.357 2.508837,3.6146 3.122275,6.3558 0.792668,3.542 0.07899,7.8771 -1.724389,10.4743 -1.82292,2.6254 -4.263447,4.5563 -7.12508,5.6377 -0.850941,0.3216 -2.649845,0.7943 -4.070903,1.0699 -1.125252,0.2182 -1.470268,0.2439 -3.519843,0.2632 -1.249751,0.017 -2.392577,0 -2.539611,-0.017 z m 4.21393,-3.7947 c 4.343185,-0.475 7.910874,-2.3639 9.775403,-5.1755 0.664446,-1.002 1.04582,-1.8563 1.359371,-3.045 0.307737,-1.1665 0.383964,-3.4878 0.159545,-4.8561 -0.368692,-2.2476 -1.372257,-4.2629 -2.98327,-5.9908 -1.614576,-1.7315 -3.24836,-2.8673 -7.1784,-4.9901 -2.745077,-1.4829 -3.789022,-2.2803 -4.058799,-3.1009 -0.145739,-0.4435 -0.06614,-1.2358 0.15409,-1.5339 0.433858,-0.5874 1.294582,-0.8215 2.366634,-0.6432 2.012348,0.3341 4.606487,1.5784 6.884724,3.3023 0.441102,0.3338 0.872521,0.6316 0.958702,0.6617 0.371436,0.1293 0.576236,-0.1093 2.05699,-2.4065 1.824863,-2.8309 1.791573,-2.6778 0.793752,-3.6478 -2.99019,-2.9068 -6.460924,-4.6067 -10.445559,-5.1158 -1.583827,-0.2024 -4.169818,-0.1406 -5.477916,0.1293 -2.943554,0.6093 -5.27782,1.9896 -6.802377,4.0224 -0.832771,1.1104 -1.354668,2.3085 -1.680251,3.8577 -0.192801,0.9173 -0.217056,3.0789 -0.04347,3.8913 0.614673,2.8802 2.087141,5.0974 4.856524,7.3129 1.164578,0.9316 2.073369,1.539 4.689652,3.1343 3.131462,1.9097 4.079818,2.6703 4.522179,3.6276 0.180308,0.3902 0.213938,0.5797 0.184706,1.0404 -0.0467,0.7341 -0.307671,1.1333 -0.94914,1.451 -0.423426,0.2098 -0.573272,0.2344 -1.38119,0.2273 -1.47245,-0.017 -2.79553,-0.3689 -4.603231,-1.2375 -1.270938,-0.6111 -2.497781,-1.4246 -3.538369,-2.3464 -1.043707,-0.9247 -1.141071,-0.9759 -1.441684,-0.7567 -0.233351,0.1702 -1.91829,2.2379 -3.178303,3.9003 -0.821844,1.0842 -0.849286,1.2754 -0.290232,2.0224 0.564068,0.7537 2.15771,2.3649 3.011838,3.0452 0.929297,0.74 1.545881,1.1359 2.586026,1.6605 1.765495,0.89 3.224292,1.2775 6.013056,1.5966 0.633475,0.072 2.884184,0.051 3.679267,-0.037 z"
       id="path4406" />
    <path
       id="path4404"
       d="m 21.744972,1050.612 c -3.389957,-0.4941 -5.910869,-1.2411 -7.797097,-2.3107 -3.01644,-1.7108 -5.9743631,-4.6082 -6.7876152,-6.649 -0.1717337,-0.4309 -0.2037605,-0.6779 -0.2055006,-1.5839 -0.0017,-1.0062 0.015341,-1.1136 0.2743284,-1.7111 0.4454995,-1.0277 1.8070533,-2.6958 4.1724774,-5.1117 1.119541,-1.1434 1.346672,-1.4969 1.335746,-2.0783 -0.01023,-0.547 -0.327869,-1.1294 -1.141275,-2.0932 -1.582989,-1.8754 -2.4722492,-3.6772 -3.0174969,-6.1139 -0.2848283,-1.2731 -0.2803624,-3.9484 0.00852,-5.2904 0.6452032,-2.9935 1.7003322,-4.906 3.7356032,-6.7707 2.375943,-2.177 4.474573,-3.1333 8.352572,-3.8054 1.480478,-0.2567 4.098636,-0.2767 5.613905,-0.043 3.362425,0.5184 6.117202,1.4426 8.418314,2.8238 2.235728,1.3421 4.47331,3.1759 5.153106,4.2233 0.797172,1.2284 0.970105,2.5004 0.522097,3.8402 -0.313395,0.9372 -0.577796,1.3616 -2.195092,3.5228 -1.628963,2.1769 -1.785235,2.449 -1.782525,3.1051 0.0034,0.6506 0.194164,1.0123 1.197072,2.2625 1.89099,2.357 2.508837,3.6146 3.122275,6.3558 0.792668,3.5421 0.07899,7.8771 -1.724389,10.4743 -1.82292,2.6254 -4.263447,4.5563 -7.12508,5.6377 -0.850941,0.3216 -2.649845,0.7943 -4.070903,1.0699 -1.125252,0.2182 -1.470268,0.2439 -3.519843,0.2632 -1.249751,0.017 -2.392577,0 -2.539611,-0.017 z m 4.21393,-3.7948 c 4.343185,-0.475 7.910874,-2.3639 9.775403,-5.1755 0.664446,-1.002 1.04582,-1.8562 1.359371,-3.045 0.307737,-1.1665 0.383964,-3.4878 0.159545,-4.8561 -0.368692,-2.2476 -1.372257,-4.2629 -2.98327,-5.9907 -1.614576,-1.7316 -3.24836,-2.8674 -7.1784,-4.9902 -2.745077,-1.4828 -3.789022,-2.2803 -4.058799,-3.1009 -0.145739,-0.4434 -0.06614,-1.2358 0.15409,-1.5339 0.433858,-0.5874 1.294582,-0.8215 2.366634,-0.6432 2.012348,0.3341 4.606487,1.5784 6.884724,3.3023 0.441102,0.3338 0.872521,0.6316 0.958702,0.6618 0.371436,0.1292 0.576236,-0.1094 2.05699,-2.4066 1.824863,-2.8309 1.791573,-2.6778 0.793752,-3.6478 -2.99019,-2.9068 -6.460924,-4.6067 -10.445559,-5.1158 -1.583827,-0.2024 -4.169818,-0.1406 -5.477916,0.1293 -2.943554,0.6094 -5.27782,1.9896 -6.802377,4.0224 -0.832771,1.1104 -1.354668,2.3085 -1.680251,3.8577 -0.192801,0.9173 -0.217056,3.0789 -0.04347,3.8913 0.614673,2.8802 2.087141,5.0974 4.856524,7.3129 1.164578,0.9317 2.073369,1.539 4.689652,3.1344 3.131462,1.9096 4.079818,2.6703 4.522179,3.6275 0.180308,0.3902 0.213938,0.5797 0.184706,1.0405 -0.0467,0.7341 -0.307671,1.1332 -0.94914,1.451 -0.423426,0.2098 -0.573272,0.2343 -1.38119,0.2272 -1.47245,-0.017 -2.79553,-0.3689 -4.603231,-1.2375 -1.270938,-0.611 -2.497781,-1.4245 -3.538369,-2.3464 -1.043707,-0.9247 -1.141071,-0.9759 -1.441684,-0.7567 -0.233351,0.1702 -1.91829,2.2379 -3.178303,3.9003 -0.821844,1.0842 -0.849286,1.2754 -0.290232,2.0224 0.564068,0.7537 2.15771,2.3649 3.011838,3.0452 0.929297,0.74 1.545881,1.1359 2.586026,1.6605 1.765495,0.89 3.224292,1.2775 6.013056,1.5966 0.633475,0.072 2.884184,0.051 3.679267,-0.037 z"
       style="fill:#000000;fill-opacity:0.23529412"
       inkscape:connector-curvature="0" />
    <path
       style="fill:url(#linearGradient4239);fill-opacity:1"
       d="m 22.959649,1009.5951 c -1.007989,0.024 -1.981548,0.1065 -2.635598,0.2413 -2.943554,0.6094 -5.278058,1.9899 -6.802616,4.0227 -0.83277,1.1104 -1.35565,2.3071 -1.681234,3.8563 -0.1928,0.9173 -0.215205,3.0801 -0.04162,3.8924 0.614674,2.8803 2.085666,5.0976 4.855049,7.3131 1.164577,0.9316 2.07508,1.5397 4.691363,3.135 3.131462,1.9097 4.079769,2.6688 4.522131,3.626 0.180307,0.3902 0.212337,0.5796 0.183104,1.0404 -0.0467,0.734 -0.307345,1.1332 -0.948814,1.4509 -0.423426,0.2098 -0.573691,0.2346 -1.381609,0.2275 -1.47245,-0.017 -2.794884,-0.3686 -4.602585,-1.2373 -1.270938,-0.611 -2.496661,-1.4224 -3.537249,-2.3443 -1.043707,-0.9247 -1.142031,-0.9765 -1.442643,-0.7573 -0.233351,0.1701 -1.919351,2.2383 -3.179364,3.9006 -0.821845,1.0843 -0.847583,1.2755 -0.288529,2.0225 0.564068,0.7537 2.156002,2.3632 3.010131,3.0434 0.929297,0.7401 1.54829,1.1372 2.588435,1.6618 1.765495,0.8901 3.223172,1.2761 6.011935,1.5952 0.633476,0.072 2.883657,0.053 3.67874,-0.035 4.343186,-0.475 7.912152,-2.3652 9.776681,-5.1769 0.664446,-1.0019 1.045862,-1.8546 1.359413,-3.0434 0.307737,-1.1665 0.382555,-3.4895 0.158136,-4.8578 -0.368692,-2.2476 -1.371374,-4.2619 -2.982387,-5.9897 -1.614575,-1.7316 -3.249883,-2.8682 -7.179923,-4.9911 -2.745078,-1.4828 -3.789043,-2.2782 -4.058821,-3.0988 -0.145739,-0.4435 -0.06486,-1.2361 0.155362,-1.5343 0.433857,-0.5873 1.294438,-0.8218 2.36649,-0.6436 2.012348,0.3341 4.607608,1.5776 6.885845,3.3015 0.441102,0.3338 0.870956,0.6329 0.957138,0.663 0.371436,0.1293 0.577787,-0.1108 2.058541,-2.4081 1.824863,-2.8309 1.791275,-2.6782 0.793454,-3.6483 -2.990191,-2.9068 -6.460656,-4.6039 -10.44529,-5.113 -0.791913,-0.1008 -1.835683,-0.1378 -2.843671,-0.1136 z"
       id="path4219"
       inkscape:connector-curvature="0" />
    <path
       inkscape:connector-curvature="0"
       style="fill:#e6e6e6"
       d="m 21.744972,1050.0438 c -3.389957,-0.494 -5.910869,-1.2411 -7.797097,-2.3107 -3.01644,-1.7107 -5.9743631,-4.6082 -6.7876152,-6.6489 -0.1717337,-0.431 -0.2037605,-0.678 -0.2055006,-1.584 -0.0017,-1.0062 0.015341,-1.1136 0.2743284,-1.711 0.4454995,-1.0277 1.8070533,-2.6959 4.1724774,-5.1118 1.119541,-1.1433 1.346672,-1.4969 1.335746,-2.0783 -0.01023,-0.547 -0.327869,-1.1294 -1.141275,-2.0931 -1.582989,-1.8755 -2.4722492,-3.6773 -3.0174969,-6.1139 -0.2848283,-1.2732 -0.2803624,-3.9485 0.00852,-5.2905 0.6452032,-2.9935 1.7003322,-4.9059 3.7356032,-6.7707 2.375943,-2.177 4.474573,-3.1332 8.352572,-3.8054 1.480478,-0.2567 4.098636,-0.2767 5.613905,-0.043 3.362425,0.5185 6.117202,1.4426 8.418314,2.8238 2.235728,1.3421 4.47331,3.1759 5.153106,4.2233 0.797172,1.2284 0.970105,2.5004 0.522097,3.8402 -0.313395,0.9372 -0.577796,1.3616 -2.195092,3.5229 -1.628963,2.1768 -1.785235,2.449 -1.782525,3.1051 0.0034,0.6505 0.194164,1.0122 1.197072,2.2625 1.89099,2.3569 2.508837,3.6146 3.122275,6.3557 0.792668,3.5421 0.07899,7.8771 -1.724389,10.4743 -1.82292,2.6254 -4.263447,4.5564 -7.12508,5.6378 -0.850941,0.3215 -2.649845,0.7943 -4.070903,1.0698 -1.125252,0.2182 -1.470268,0.2439 -3.519843,0.2632 -1.249751,0.017 -2.392577,0 -2.539611,-0.017 z m 4.21393,-3.7947 c 4.343185,-0.475 7.910874,-2.3639 9.775403,-5.1756 0.664446,-1.002 1.04582,-1.8562 1.359371,-3.045 0.307737,-1.1665 0.383964,-3.4878 0.159545,-4.8561 -0.368692,-2.2476 -1.372257,-4.2629 -2.98327,-5.9907 -1.614576,-1.7316 -3.24836,-2.8673 -7.1784,-4.9902 -2.745077,-1.4828 -3.789022,-2.2803 -4.058799,-3.1008 -0.145739,-0.4435 -0.06614,-1.2358 0.15409,-1.534 0.433858,-0.5873 1.294582,-0.8214 2.366634,-0.6432 2.012348,0.3341 4.606487,1.5784 6.884724,3.3023 0.441102,0.3338 0.872521,0.6317 0.958702,0.6618 0.371436,0.1292 0.576236,-0.1094 2.05699,-2.4065 1.824863,-2.831 1.791573,-2.6779 0.793752,-3.6479 -2.99019,-2.9068 -6.460924,-4.6067 -10.445559,-5.1157 -1.583827,-0.2025 -4.169818,-0.1407 -5.477916,0.1292 -2.943554,0.6094 -5.27782,1.9896 -6.802377,4.0224 -0.832771,1.1104 -1.354668,2.3086 -1.680251,3.8577 -0.192801,0.9173 -0.217056,3.079 -0.04347,3.8913 0.614673,2.8803 2.087141,5.0974 4.856524,7.3129 1.164578,0.9317 2.073369,1.5391 4.689652,3.1344 3.131462,1.9096 4.079818,2.6703 4.522179,3.6275 0.180308,0.3902 0.213938,0.5797 0.184706,1.0405 -0.0467,0.7341 -0.307671,1.1332 -0.94914,1.451 -0.423426,0.2098 -0.573272,0.2344 -1.38119,0.2273 -1.47245,-0.017 -2.79553,-0.3689 -4.603231,-1.2375 -1.270938,-0.6111 -2.497781,-1.4246 -3.538369,-2.3465 -1.043707,-0.9247 -1.141071,-0.9758 -1.441684,-0.7567 -0.233351,0.1702 -1.91829,2.238 -3.178303,3.9003 -0.821844,1.0842 -0.849286,1.2754 -0.290232,2.0224 0.564068,0.7537 2.15771,2.365 3.011838,3.0452 0.929297,0.7401 1.545881,1.1359 2.586026,1.6605 1.765495,0.8901 3.224292,1.2776 6.013056,1.5966 0.633475,0.072 2.884184,0.051 3.679267,-0.037 z"
       id="path4133" />
    <path
       style="fill:#263211;fill-opacity:0.31372549"
       d="m 36.709146,1015.3046 c -0.222816,0.4355 -0.619812,1.0442 -1.25399,2.028 -1.480754,2.2973 -1.687105,2.5374 -2.058541,2.4081 -0.08618,-0.03 -0.516036,-0.3293 -0.957138,-0.6631 -2.278237,-1.7238 -4.873497,-2.9673 -6.885845,-3.3014 -1.072052,-0.1783 -1.932632,0.056 -2.36649,0.6436 -0.219833,0.2977 -0.300051,1.0876 -0.155361,1.5315 0.03879,-0.1595 0.08803,-0.3028 0.155361,-0.394 0.433858,-0.5873 1.294438,-0.8219 2.36649,-0.6436 2.012348,0.3341 4.607608,1.5775 6.885845,3.3014 0.441102,0.3338 0.870957,0.6329 0.957138,0.6631 0.371436,0.1292 0.577787,-0.1109 2.058541,-2.4081 1.446546,-2.2441 1.697572,-2.6257 1.25399,-3.1655 z m -25.010434,4.0283 c -0.0271,0.8779 -0.0014,1.8009 0.09987,2.2749 0.614674,2.8802 2.085666,5.0976 4.855049,7.3131 1.164577,0.9317 2.07508,1.5397 4.691363,3.135 3.131462,1.9096 4.079769,2.6688 4.522131,3.626 0.06121,0.1325 0.08331,0.231 0.113747,0.3357 0.03287,-0.132 0.05906,-0.271 0.06936,-0.4328 0.02923,-0.4608 -0.0028,-0.6502 -0.183105,-1.0404 -0.442362,-0.9572 -1.390669,-1.7163 -4.522131,-3.626 -2.616283,-1.5953 -3.526786,-2.2033 -4.691363,-3.135 -2.769383,-2.2154 -4.240375,-4.4328 -4.855049,-7.3131 -0.05605,-0.2623 -0.08383,-0.6809 -0.09987,-1.1374 z m 25.667946,15.2698 c -0.0316,0.8741 -0.121808,1.7199 -0.271883,2.2888 -0.313551,1.1888 -0.694967,2.0414 -1.359413,3.0434 -1.864529,2.8117 -5.433495,4.7019 -9.776681,5.1769 -0.795083,0.088 -3.045262,0.1085 -3.678739,0.036 -2.788763,-0.3191 -4.246441,-0.7052 -6.011936,-1.5953 -1.040145,-0.5245 -1.659138,-0.9217 -2.588435,-1.6618 -0.854128,-0.6802 -2.446063,-2.2897 -3.01013,-3.0434 -0.0733,-0.098 -0.108195,-0.1676 -0.16091,-0.2497 -0.346962,0.5652 -0.265214,0.8178 0.16091,1.3872 0.564067,0.7536 2.156002,2.3631 3.01013,3.0434 0.929297,0.74 1.54829,1.1372 2.588435,1.6618 1.765495,0.89 3.223173,1.2762 6.011936,1.5952 0.633477,0.072 2.883656,0.052 3.678739,-0.036 4.343186,-0.475 7.912152,-2.3653 9.776681,-5.1769 0.664446,-1.002 1.045862,-1.8547 1.359413,-3.0434 0.215897,-0.8184 0.308168,-2.1985 0.271883,-3.4263 z"
       id="path4410"
       inkscape:connector-curvature="0" />
  </g>
</svg>
