<?xml version="1.0" encoding="UTF-8" standalone="no"?>
<!-- Created with Inkscape (http://www.inkscape.org/) -->

<svg
   xmlns:dc="http://purl.org/dc/elements/1.1/"
   xmlns:cc="http://creativecommons.org/ns#"
   xmlns:rdf="http://www.w3.org/1999/02/22-rdf-syntax-ns#"
   xmlns:svg="http://www.w3.org/2000/svg"
   xmlns="http://www.w3.org/2000/svg"
   xmlns:xlink="http://www.w3.org/1999/xlink"
   xmlns:sodipodi="http://sodipodi.sourceforge.net/DTD/sodipodi-0.dtd"
   xmlns:inkscape="http://www.inkscape.org/namespaces/inkscape"
   width="48"
   height="48"
   id="svg2"
   version="1.1"
   inkscape:version="0.48.5 r10040"
   viewBox="0 0 13.546666 13.546668"
   sodipodi:docname="preferences-desktop-cryptography.svg">
  <defs
     id="defs4">
    <linearGradient
       id="linearGradient3780">
      <stop
         style="stop-color:#f39c12;stop-opacity:1;"
         offset="0"
         id="stop3782" />
      <stop
         style="stop-color:#ffbf2a;stop-opacity:1;"
         offset="1"
         id="stop3784" />
    </linearGradient>
    <linearGradient
       id="linearGradient3772">
      <stop
         style="stop-color:#f1c40f;stop-opacity:1;"
         offset="0"
         id="stop3774" />
      <stop
         style="stop-color:#fff842;stop-opacity:1;"
         offset="1"
         id="stop3776" />
    </linearGradient>
    <linearGradient
       inkscape:collect="always"
       xlink:href="#linearGradient3772"
       id="linearGradient3778"
       x1="14.90625"
       y1="24.015625"
       x2="34.09375"
       y2="24.015625"
       gradientUnits="userSpaceOnUse" />
    <linearGradient
       inkscape:collect="always"
       xlink:href="#linearGradient3780"
       id="linearGradient3786"
       x1="-31.232166"
       y1="407.16913"
       x2="-29.982873"
       y2="407.16913"
       gradientUnits="userSpaceOnUse" />
  </defs>
  <sodipodi:namedview
     id="base"
     pagecolor="#ffffff"
     bordercolor="#666666"
     borderopacity="1.0"
     inkscape:pageopacity="0"
     inkscape:pageshadow="2"
     inkscape:zoom="8.9002327"
     inkscape:cx="31.978275"
     inkscape:cy="29.027487"
     inkscape:document-units="px"
     inkscape:current-layer="layer1"
     showgrid="true"
     inkscape:showpageshadow="false"
     borderlayer="true"
     units="px"
     fit-margin-top="0"
     fit-margin-left="0"
     fit-margin-right="0"
     fit-margin-bottom="0"
     showguides="true"
     inkscape:window-width="1301"
     inkscape:window-height="744"
     inkscape:window-x="65"
     inkscape:window-y="24"
     inkscape:window-maximized="1">
    <sodipodi:guide
       position="-6.6748425e-06,47.999999"
       orientation="47.999977,0"
       id="guide4120" />
    <sodipodi:guide
       position="-6.6748425e-06,2.2810037e-05"
       orientation="0,48.000004"
       id="guide4122" />
    <sodipodi:guide
       position="47.999997,2.2810037e-05"
       orientation="-47.999977,0"
       id="guide4124" />
    <sodipodi:guide
       position="47.999997,47.999999"
       orientation="0,-48.000004"
       id="guide4126" />
    <sodipodi:guide
       position="3.9999733,44.000154"
       orientation="39.999962,0"
       id="guide4138" />
    <sodipodi:guide
       position="3.9999733,4.0001921"
       orientation="0,40.000003"
       id="guide4140" />
    <sodipodi:guide
       position="43.999976,4.0001921"
       orientation="-39.999962,0"
       id="guide4142" />
    <sodipodi:guide
       position="43.999976,44.000154"
       orientation="0,-40.000003"
       id="guide4144" />
    <sodipodi:guide
       position="6.9999922,47.999999"
       orientation="39.999962,0"
       id="guide4148" />
    <sodipodi:guide
       position="6.9999922,8.0000369"
       orientation="0,34.000006"
       id="guide4150" />
    <sodipodi:guide
       position="40.999998,8.0000369"
       orientation="-39.999962,0"
       id="guide4152" />
    <sodipodi:guide
       position="40.999998,47.999999"
       orientation="0,-34.000006"
       id="guide4154" />
    <sodipodi:guide
       position="14.999993,32.999986"
       orientation="17.999951,0"
       id="guide4158" />
    <sodipodi:guide
       position="14.999993,15.000036"
       orientation="0,17.999998"
       id="guide4160" />
    <sodipodi:guide
       position="32.999991,15.000036"
       orientation="-17.999951,0"
       id="guide4162" />
    <sodipodi:guide
       position="32.999991,32.999986"
       orientation="0,-17.999998"
       id="guide4164" />
    <sodipodi:guide
       position="1.9999969,44.000046"
       orientation="39.999962,0"
       id="guide3279" />
    <sodipodi:guide
       position="1.9999969,4.0000839"
       orientation="0,44.000003"
       id="guide3281" />
    <sodipodi:guide
       position="46,4.0000839"
       orientation="-39.999962,0"
       id="guide3283" />
    <sodipodi:guide
       position="46,44.000046"
       orientation="0,-44.000003"
       id="guide3285" />
    <inkscape:grid
       type="xygrid"
       id="grid3816" />
  </sodipodi:namedview>
  <metadata
     id="metadata7">
    <rdf:RDF>
      <cc:Work
         rdf:about="">
        <dc:format>image/svg+xml</dc:format>
        <dc:type
           rdf:resource="http://purl.org/dc/dcmitype/StillImage" />
        <dc:title />
      </cc:Work>
    </rdf:RDF>
  </metadata>
  <g
     inkscape:label="Capa 1"
     inkscape:groupmode="layer"
     id="layer1"
     transform="translate(38.119153,-397.84494)">
    <path
       id="path3810"
       d="m -31.156545,399.13231 c -1.496684,0 -2.707569,1.21051 -2.707569,2.70757 0,1.05016 0.591639,1.96453 1.464028,2.41653 l 0,5.4416 1.217083,0.73201 c 0.01014,-3.91624 0.01898,-5.85624 0.01764,-5.87375 0.0029,1e-5 0.0059,0 0.0088,0 1.496701,0 2.70757,-1.21935 2.70757,-2.71639 0,-1.49706 -1.210869,-2.70757 -2.70757,-2.70757 z m -0.0088,0.80257 c 0.444472,0 0.802569,0.358 0.802569,0.80257 0,0.44458 -0.358097,0.80257 -0.802569,0.80257 -0.444471,0 -0.80257,-0.35799 -0.80257,-0.80257 0,-0.44457 0.358099,-0.80257 0.80257,-0.80257 z"
       style="fill:#ffffff;fill-opacity:1;fill-rule:evenodd"
       inkscape:connector-curvature="0" />
    <path
       style="fill:url(#linearGradient3778);fill-rule:evenodd;fill-opacity:1"
       d="M 24.5 4 C 19.196789 4 14.90625 8.2892072 14.90625 13.59375 C 14.90625 17.314781 17.00261 20.554673 20.09375 22.15625 L 20.09375 41.4375 L 24.40625 44.03125 C 24.442194 30.154812 24.473508 23.2808 24.46875 23.21875 C 24.47909 23.218783 24.489652 23.21875 24.5 23.21875 C 29.803271 23.21875 34.09375 18.898222 34.09375 13.59375 C 34.09375 8.2892072 29.803271 4 24.5 4 z M 24.46875 6.84375 C 26.043651 6.84375 27.3125 8.1122521 27.3125 9.6875 C 27.3125 11.262783 26.043651 12.53125 24.46875 12.53125 C 22.893853 12.53125 21.625 11.262783 21.625 9.6875 C 21.625 8.1122521 22.893853 6.84375 24.46875 6.84375 z "
       transform="matrix(0.28222225,0,0,0.28222225,-38.119154,397.84494)"
       id="rect3325" />
    <path
       id="path3812"
       d="m -31.184002,410.42769 1.249293,-0.72942 c 0,-0.15195 0,-0.36943 0,-0.65243 l -0.557721,-0.59557 0.557721,-0.49294 0,-0.186 -0.562257,-0.58047 0.562257,-0.60292 -0.566789,-0.60933 0.566789,-0.5437 c 0,-0.65296 0,-1.05544 0,-1.20739 -0.292969,0.13182 -0.77308,0.30538 -1.237493,0.2985 -0.0015,-6e-5 -0.0089,1.96428 -0.0118,5.90167 z"
       inkscape:connector-curvature="0"
       style="fill:#ffffff;fill-opacity:1;fill-rule:evenodd" />
    <path
       style="fill:url(#linearGradient3786);fill-rule:evenodd;fill-opacity:1"
       inkscape:connector-curvature="0"
       d="m -31.232166,410.26921 1.249293,-0.72942 c 0,-0.15195 0,-0.36943 0,-0.65243 l -0.557721,-0.59557 0.557721,-0.49294 0,-0.186 -0.562257,-0.58047 0.562257,-0.60292 -0.566789,-0.60933 0.566789,-0.5437 c 0,-0.65296 0,-1.05544 0,-1.20739 -0.292969,0.13182 -0.77308,0.30538 -1.237493,0.2985 -0.0015,-6e-5 -0.0089,1.96428 -0.0118,5.90167 z"
       id="rect33311" />
  </g>
</svg>
