<?xml version="1.0" encoding="UTF-8" standalone="no"?>
<!-- Created with Inkscape (http://www.inkscape.org/) -->

<svg
   xmlns:dc="http://purl.org/dc/elements/1.1/"
   xmlns:cc="http://creativecommons.org/ns#"
   xmlns:rdf="http://www.w3.org/1999/02/22-rdf-syntax-ns#"
   xmlns:svg="http://www.w3.org/2000/svg"
   xmlns="http://www.w3.org/2000/svg"
   xmlns:xlink="http://www.w3.org/1999/xlink"
   xmlns:sodipodi="http://sodipodi.sourceforge.net/DTD/sodipodi-0.dtd"
   xmlns:inkscape="http://www.inkscape.org/namespaces/inkscape"
   width="48"
   height="48"
   id="svg5453"
   version="1.1"
   inkscape:version="0.48.5 r10040"
   sodipodi:docname="chrome-knpkfcpnjfbniadmfchjpcigfhookhaa-Default.svg"
   viewBox="0 0 48 48">
  <defs
     id="defs5455">
    <linearGradient
       inkscape:collect="always"
       id="linearGradient4716">
      <stop
         style="stop-color:#4accc7;stop-opacity:1;"
         offset="0"
         id="stop4718" />
      <stop
         style="stop-color:#7cdad7;stop-opacity:1"
         offset="1"
         id="stop4720" />
    </linearGradient>
    <linearGradient
       inkscape:collect="always"
       id="linearGradient4708">
      <stop
         style="stop-color:#00959e;stop-opacity:1;"
         offset="0"
         id="stop4710" />
      <stop
         style="stop-color:#00c6d2;stop-opacity:1"
         offset="1"
         id="stop4712" />
    </linearGradient>
    <linearGradient
       inkscape:collect="always"
       id="linearGradient4645">
      <stop
         style="stop-color:#0e2732;stop-opacity:1"
         offset="0"
         id="stop4647" />
      <stop
         style="stop-color:#113547;stop-opacity:1"
         offset="1"
         id="stop4649" />
    </linearGradient>
    <linearGradient
       inkscape:collect="always"
       xlink:href="#linearGradient4645"
       id="linearGradient4651"
       x1="384.57141"
       y1="-516.59802"
       x2="432.57144"
       y2="-516.59802"
       gradientUnits="userSpaceOnUse"
       gradientTransform="matrix(0.83333285,0,0,0.83333285,68.095439,-87.299917)" />
    <linearGradient
       inkscape:collect="always"
       xlink:href="#linearGradient4708"
       id="linearGradient4714"
       x1="394.17142"
       y1="528.59802"
       x2="422.97144"
       y2="528.59802"
       gradientUnits="userSpaceOnUse"
       gradientTransform="matrix(0.83333285,0,0,0.83333285,68.095439,87.299917)" />
    <linearGradient
       inkscape:collect="always"
       xlink:href="#linearGradient4716"
       id="linearGradient4722"
       x1="391.77142"
       y1="516.59802"
       x2="424.17145"
       y2="516.59802"
       gradientUnits="userSpaceOnUse"
       gradientTransform="matrix(0.83333285,0,0,0.83333285,68.095439,87.299917)" />
  </defs>
  <sodipodi:namedview
     id="base"
     pagecolor="#ffffff"
     bordercolor="#666666"
     borderopacity="1.0"
     inkscape:pageopacity="0"
     inkscape:pageshadow="2"
     inkscape:zoom="8.0000001"
     inkscape:cx="29.878039"
     inkscape:cy="13.656201"
     inkscape:document-units="px"
     inkscape:current-layer="layer1"
     showgrid="true"
     fit-margin-top="0"
     fit-margin-left="0"
     fit-margin-right="0"
     fit-margin-bottom="0"
     inkscape:window-width="1301"
     inkscape:window-height="744"
     inkscape:window-x="65"
     inkscape:window-y="24"
     inkscape:window-maximized="1"
     inkscape:showpageshadow="false"
     borderlayer="true">
    <inkscape:grid
       type="xygrid"
       id="grid3006" />
  </sodipodi:namedview>
  <metadata
     id="metadata5458">
    <rdf:RDF>
      <cc:Work
         rdf:about="">
        <dc:format>image/svg+xml</dc:format>
        <dc:type
           rdf:resource="http://purl.org/dc/dcmitype/StillImage" />
        <dc:title />
      </cc:Work>
    </rdf:RDF>
  </metadata>
  <g
     inkscape:label="Capa 1"
     inkscape:groupmode="layer"
     id="layer1"
     transform="translate(-384.57143,-499.798)">
    <rect
       style="fill:url(#linearGradient4651);fill-opacity:1;stroke:none"
       id="rect2991-1-7"
       width="39.999977"
       height="39.999977"
       x="388.57144"
       y="-543.79797"
       ry="0"
       transform="scale(1,-1)" />
    <path
       id="path4104-1"
       d="m 408.57143,510.96467 a 12.619907,12.619907 0 0 0 -12.61994,12.61994 12.619907,12.619907 0 0 0 0.27838,2.56658 9.3169171,9.3169171 0 0 1 9.29265,-8.83462 9.3169171,9.3169171 0 0 1 9.31695,9.31696 9.3169171,9.3169171 0 0 1 -1.42596,4.92743 c 1.48204,0.14045 3.38273,0.1061 5.1907,-0.33744 a 12.619907,12.619907 0 0 0 2.58716,-7.63891 12.619907,12.619907 0 0 0 -12.61994,-12.61994 z"
       style="fill:url(#linearGradient4722);fill-opacity:1;stroke:none"
       inkscape:connector-curvature="0" />
    <path
       sodipodi:nodetypes="ccscscscscc"
       inkscape:connector-curvature="0"
       id="path4123-9"
       d="m 399.20521,522.52926 c -1.12432,1.46338 -1.73487,3.19823 -1.73745,4.93673 4e-5,2.39949 1.18338,4.78423 3.21599,6.48091 2.03259,1.6967 4.88938,2.68446 7.76387,2.68442 1.75349,-8.3e-4 3.50522,-0.35912 5.06076,-1.03474 1.55553,-0.67564 2.91221,-1.66757 3.9195,-2.86571 -1.75654,0.20814 -3.58403,-0.0437 -5.17509,-0.71339 -1.59106,-0.66962 -2.93915,-1.75414 -3.81758,-3.07121 -1.13207,-1.38583 -1.70388,-3.09961 -1.59735,-4.78741 0.10651,-1.68781 0.89071,-3.33895 2.19061,-4.61241 -4.33029,-0.89315 -7.50133,0.18618 -9.82326,2.98281 z"
       style="fill:url(#linearGradient4714);fill-opacity:1;stroke:none" />
    <path
       style="opacity:0.5;fill:#000000;fill-opacity:1;stroke:none"
       d="m 388.57143,543.798 0,0 c 20,-1 20,-1 40,0 z"
       id="path3257"
       inkscape:connector-curvature="0"
       sodipodi:nodetypes="cccc" />
    <path
       sodipodi:nodetypes="cccc"
       inkscape:connector-curvature="0"
       id="path4027"
       d="m 388.57143,503.798 0,0 c 20,1 20,1 40,0 z"
       style="opacity:0.75;fill:#ffffff;fill-opacity:1;stroke:none" />
  </g>
</svg>
