<?xml version="1.0" encoding="UTF-8" standalone="no"?>
<!-- Created with Inkscape (http://www.inkscape.org/) -->

<svg
   xmlns:dc="http://purl.org/dc/elements/1.1/"
   xmlns:cc="http://creativecommons.org/ns#"
   xmlns:rdf="http://www.w3.org/1999/02/22-rdf-syntax-ns#"
   xmlns:svg="http://www.w3.org/2000/svg"
   xmlns="http://www.w3.org/2000/svg"
   xmlns:xlink="http://www.w3.org/1999/xlink"
   xmlns:sodipodi="http://sodipodi.sourceforge.net/DTD/sodipodi-0.dtd"
   xmlns:inkscape="http://www.inkscape.org/namespaces/inkscape"
   width="48"
   height="48"
   id="svg5453"
   version="1.1"
   inkscape:version="0.48.5 r10040"
   sodipodi:docname="chrome-cnocophcbjfiimmnhlhleaooedeheifb-Default.svg">
  <defs
     id="defs5455">
    <linearGradient
       inkscape:collect="always"
       id="linearGradient1479">
      <stop
         style="stop-color:#1b9bf9;stop-opacity:1"
         offset="0"
         id="stop1481" />
      <stop
         style="stop-color:#6bc0f7;stop-opacity:1"
         offset="1"
         id="stop1483" />
    </linearGradient>
    <linearGradient
       inkscape:collect="always"
       xlink:href="#linearGradient1479"
       id="linearGradient4148"
       x1="384.57144"
       y1="-522.79797"
       x2="432.57144"
       y2="-522.79797"
       gradientUnits="userSpaceOnUse"
       gradientTransform="matrix(0.83333285,0,0,0.83333285,68.095439,-87.299917)" />
    <linearGradient
       inkscape:collect="always"
       xlink:href="#linearGradient6589"
       id="linearGradient4080"
       x1="387.57144"
       y1="522.79797"
       x2="428.57144"
       y2="522.79797"
       gradientUnits="userSpaceOnUse"
       gradientTransform="matrix(0.83333285,0,0,0.83333285,68.095439,87.299917)" />
    <linearGradient
       inkscape:collect="always"
       id="linearGradient6589">
      <stop
         style="stop-color:#f27c05;stop-opacity:1"
         offset="0"
         id="stop6591" />
      <stop
         style="stop-color:#f9ad3e;stop-opacity:1"
         offset="1"
         id="stop6593" />
    </linearGradient>
  </defs>
  <sodipodi:namedview
     id="base"
     pagecolor="#ffffff"
     bordercolor="#666666"
     borderopacity="1.0"
     inkscape:pageopacity="0"
     inkscape:pageshadow="2"
     inkscape:zoom="4.199584"
     inkscape:cx="3.0925448"
     inkscape:cy="31.149316"
     inkscape:document-units="px"
     inkscape:current-layer="layer1"
     showgrid="true"
     fit-margin-top="0"
     fit-margin-left="0"
     fit-margin-right="0"
     fit-margin-bottom="0"
     inkscape:window-width="1301"
     inkscape:window-height="744"
     inkscape:window-x="65"
     inkscape:window-y="24"
     inkscape:window-maximized="1"
     inkscape:showpageshadow="false"
     borderlayer="true">
    <inkscape:grid
       type="xygrid"
       id="grid3001" />
  </sodipodi:namedview>
  <metadata
     id="metadata5458">
    <rdf:RDF>
      <cc:Work
         rdf:about="">
        <dc:format>image/svg+xml</dc:format>
        <dc:type
           rdf:resource="http://purl.org/dc/dcmitype/StillImage" />
        <dc:title />
      </cc:Work>
    </rdf:RDF>
  </metadata>
  <g
     inkscape:label="Capa 1"
     inkscape:groupmode="layer"
     id="layer1"
     transform="translate(-384.57143,-499.798)">
    <rect
       style="fill:url(#linearGradient4148);fill-opacity:1;stroke:none"
       id="rect2991-1-7"
       width="39.999977"
       height="39.999977"
       x="388.57144"
       y="-543.79797"
       ry="0"
       transform="scale(1,-1)" />
    <path
       style="fill:none;stroke:#f9f9f9;stroke-width:2.56530523;stroke-miterlimit:4;stroke-opacity:1;stroke-dasharray:none"
       d="m 399.83006,534.01765 c -0.71694,-0.75536 -2.6322,-5.39324 -4.2562,-10.30642 -2.51249,-7.60133 -2.80426,-9.11783 -1.95714,-10.17263 1.24054,-1.5447 3.32299,-1.59712 4.51436,-0.11371 0.49733,0.61926 1.46014,3.06106 2.13957,5.42623 0.67944,2.36517 1.56161,4.30902 1.9604,4.31965 0.39878,0.0116 1.42503,-2.14713 2.28058,-4.79503 2.67694,-8.28518 5.5108,-8.16951 8.44155,0.34458 0.97022,2.81858 2.00983,5.12467 2.31024,5.12467 0.30039,0 1.1324,-2.23794 1.84889,-4.97321 1.37734,-5.25824 2.51639,-6.86244 4.57546,-6.44392 3.04118,0.61815 3.02933,2.60042 -0.0709,11.8608 -3.24639,9.69713 -4.50672,11.5492 -7.3562,10.81015 -1.67575,-0.43464 -3.01753,-2.97646 -4.62002,-8.75217 -0.57912,-2.08727 -1.75411,-0.76173 -2.88349,3.25292 -1.54767,5.50165 -4.25803,7.23029 -6.92717,4.41806 z"
       id="path3816"
       inkscape:connector-curvature="0" />
    <path
       inkscape:connector-curvature="0"
       id="path3030"
       d="m 399.83015,534.02063 c -0.71693,-0.75556 -2.63218,-5.39466 -4.25614,-10.30914 -2.51248,-7.60334 -2.80424,-9.12024 -1.95714,-10.17531 1.24054,-1.54511 3.32297,-1.59755 4.51432,-0.11375 0.49733,0.61943 1.46012,3.06187 2.13955,5.42767 0.67944,2.36579 1.5616,4.31015 1.96038,4.32079 0.39877,0.0116 1.42501,-2.1477 2.28056,-4.7963 2.6769,-8.28737 5.51073,-8.17167 8.44145,0.34467 0.97022,2.81932 2.00981,5.12603 2.31022,5.12603 0.30039,0 1.13239,-2.23853 1.84887,-4.97452 1.37732,-5.25964 2.51636,-6.86427 4.57541,-6.44563 3.04114,0.61831 3.0293,2.60111 -0.0709,11.86394 -3.24635,9.69968 -4.50668,11.55225 -7.35612,10.81301 -1.67573,-0.43476 -3.01749,-2.97726 -4.61997,-8.7545 -0.57912,-2.08781 -1.75409,-0.76192 -2.88346,3.25379 -1.54766,5.50311 -4.25798,7.2322 -6.9271,4.41923 z"
       style="fill:url(#linearGradient4080);fill-opacity:1;stroke:none" />
    <path
       style="opacity:0.5;fill:#000000;fill-opacity:1;stroke:none"
       d="m 388.57143,543.798 0,0 c 20,-1 20,-1 40,0 z"
       id="path3257"
       inkscape:connector-curvature="0"
       sodipodi:nodetypes="cccc" />
    <path
       sodipodi:nodetypes="cccc"
       inkscape:connector-curvature="0"
       id="path4027"
       d="m 388.57143,503.798 0,0 c 20,1 20,1 40,0 z"
       style="opacity:0.75;fill:#ffffff;fill-opacity:1;stroke:none" />
  </g>
</svg>
