<?xml version="1.0" encoding="UTF-8" standalone="no"?>
<!-- Created with Inkscape (http://www.inkscape.org/) -->

<svg
   xmlns:dc="http://purl.org/dc/elements/1.1/"
   xmlns:cc="http://creativecommons.org/ns#"
   xmlns:rdf="http://www.w3.org/1999/02/22-rdf-syntax-ns#"
   xmlns:svg="http://www.w3.org/2000/svg"
   xmlns="http://www.w3.org/2000/svg"
   xmlns:xlink="http://www.w3.org/1999/xlink"
   xmlns:sodipodi="http://sodipodi.sourceforge.net/DTD/sodipodi-0.dtd"
   xmlns:inkscape="http://www.inkscape.org/namespaces/inkscape"
   width="48"
   height="48"
   id="svg2"
   version="1.1"
   inkscape:version="0.48.5 r10040"
   sodipodi:docname="wine-uninstaller.svg">
  <defs
     id="defs4">
    <linearGradient
       id="linearGradient3766">
      <stop
         style="stop-color:#1e97d4;stop-opacity:1;"
         offset="0"
         id="stop3768" />
      <stop
         style="stop-color:#47aadb;stop-opacity:1;"
         offset="1"
         id="stop3770" />
    </linearGradient>
    <linearGradient
       inkscape:collect="always"
       xlink:href="#linearGradient3766"
       id="linearGradient3772"
       x1="5.8522032e-06"
       y1="-1028.3622"
       x2="48.000006"
       y2="-1028.3622"
       gradientUnits="userSpaceOnUse"
       gradientTransform="matrix(0.83333406,0,0,0.83333406,3.9999836,-171.39295)" />
  </defs>
  <sodipodi:namedview
     id="base"
     pagecolor="#ffffff"
     bordercolor="#666666"
     borderopacity="1.0"
     inkscape:pageopacity="0.0"
     inkscape:pageshadow="2"
     inkscape:zoom="7.9999999"
     inkscape:cx="34.106739"
     inkscape:cy="22.316791"
     inkscape:document-units="px"
     inkscape:current-layer="layer1"
     showgrid="true"
     inkscape:window-width="448"
     inkscape:window-height="381"
     inkscape:window-x="548"
     inkscape:window-y="234"
     inkscape:window-maximized="0">
    <inkscape:grid
       type="xygrid"
       id="grid2996" />
  </sodipodi:namedview>
  <metadata
     id="metadata7">
    <rdf:RDF>
      <cc:Work
         rdf:about="">
        <dc:format>image/svg+xml</dc:format>
        <dc:type
           rdf:resource="http://purl.org/dc/dcmitype/StillImage" />
        <dc:title />
      </cc:Work>
    </rdf:RDF>
  </metadata>
  <g
     inkscape:label="Capa 1"
     inkscape:groupmode="layer"
     id="layer1"
     transform="translate(0,-1004.3622)">
    <rect
       style="fill:url(#linearGradient3772);fill-opacity:1;stroke:none"
       id="rect2991-1-7"
       width="40.000034"
       height="40.000034"
       x="3.9999886"
       y="-1048.3622"
       ry="0"
       transform="scale(1,-1)" />
    <g
       transform="matrix(0.40750765,0,0,-0.40750765,-2908.527,4059.821)"
       id="g1868">
      <path
         d="m 7204.375,7459.5542 -16.25,0 3.625,12.188 9,0 3.625,-12.188 z"
         style="fill:#ffffff;fill-opacity:1;fill-rule:nonzero;stroke:none"
         id="path88"
         inkscape:connector-curvature="0" />
      <path
         d="m 7188.125,7418.4917 16.25,0 -3.625,-12.188 -9,0 -3.625,12.188 z"
         style="fill:#ffffff;fill-opacity:1;fill-rule:nonzero;stroke:none"
         id="path92"
         inkscape:connector-curvature="0" />
      <path
         d="m 7216.7813,7431.1807 0,16.25 12.188,-3.625 0,-9 -12.188,-3.625 z"
         style="fill:#ffffff;fill-opacity:1;fill-rule:nonzero;stroke:none"
         id="path96"
         inkscape:connector-curvature="0" />
      <path
         d="m 7175.7188,7447.4307 0,-16.25 -12.188,3.625 0,9 12.188,3.625 z"
         style="fill:#ffffff;fill-opacity:1;fill-rule:nonzero;stroke:none"
         id="path100"
         inkscape:connector-curvature="0" />
      <path
         d="m 7187.6025,7459.4111 -11.491,-11.491 -6.054,11.181 6.364,6.365 11.181,-6.055 z"
         style="fill:#ffffff;fill-opacity:1;fill-rule:nonzero;stroke:none"
         id="path104"
         inkscape:connector-curvature="0" />
      <path
         d="m 7205.1475,7418.8848 11.49,11.491 6.055,-11.181 -6.363,-6.365 -11.182,6.055 z"
         style="fill:#ffffff;fill-opacity:1;fill-rule:nonzero;stroke:none"
         id="path108"
         inkscape:connector-curvature="0" />
      <path
         d="m 7216.3877,7447.9204 -11.49,11.491 11.181,6.054 6.364,-6.364 -6.055,-11.181 z"
         style="fill:#ffffff;fill-opacity:1;fill-rule:nonzero;stroke:none"
         id="path112"
         inkscape:connector-curvature="0" />
      <path
         d="m 7175.8618,7430.3755 11.491,-11.491 -11.181,-6.054 -6.364,6.364 6.054,11.181 z"
         style="fill:#ffffff;fill-opacity:1;fill-rule:nonzero;stroke:none"
         id="path116"
         inkscape:connector-curvature="0" />
      <path
         d="m 7196.5156,7427.0972 c -6.75,0 -12.225,5.474 -12.225,12.224 0,6.751 5.475,12.225 12.225,12.225 6.751,0 12.223,-5.474 12.223,-12.225 0,-6.75 -5.472,-12.224 -12.223,-12.224 m -0.266,37.47 c -14.088,0 -25.512,-11.423 -25.512,-25.512 0,-14.088 11.424,-25.512 25.512,-25.512 14.087,0 25.512,11.424 25.512,25.512 0,14.089 -11.425,25.512 -25.512,25.512"
         style="fill:#ffffff;fill-opacity:1;fill-rule:nonzero;stroke:none"
         id="path120"
         inkscape:connector-curvature="0" />
    </g>
    <path
       style="opacity:0.35;fill:#000000;fill-opacity:1;stroke:none"
       d="m 4.0000014,1048.3619 39.9999956,3e-4 C 24,1047.3622 24,1047.3622 4,1048.3622 z"
       id="path3800"
       inkscape:connector-curvature="0"
       sodipodi:nodetypes="cccc" />
    <path
       sodipodi:nodetypes="cccc"
       inkscape:connector-curvature="0"
       id="path3804"
       d="m 4.000005,1008.3621 39.999992,-2e-4 c -19.999993,1 -19.999993,1 -39.9999935,0 z"
       style="opacity:0.5;fill:#ffffff;fill-opacity:1;stroke:none" />
  </g>
</svg>
