<?xml version="1.0" encoding="UTF-8" standalone="no"?>
<!-- Created with Inkscape (http://www.inkscape.org/) -->

<svg
   xmlns:dc="http://purl.org/dc/elements/1.1/"
   xmlns:cc="http://creativecommons.org/ns#"
   xmlns:rdf="http://www.w3.org/1999/02/22-rdf-syntax-ns#"
   xmlns:svg="http://www.w3.org/2000/svg"
   xmlns="http://www.w3.org/2000/svg"
   xmlns:sodipodi="http://sodipodi.sourceforge.net/DTD/sodipodi-0.dtd"
   xmlns:inkscape="http://www.inkscape.org/namespaces/inkscape"
   width="22"
   height="22"
   id="svg3381"
   version="1.1"
   inkscape:version="0.91pre2 r13516"
   sodipodi:docname="checkmark.svg">
  <defs
     id="defs3383" />
  <sodipodi:namedview
     id="base"
     pagecolor="#ffffff"
     bordercolor="#666666"
     borderopacity="1.0"
     inkscape:pageopacity="0.0"
     inkscape:pageshadow="2"
     inkscape:zoom="11.313708"
     inkscape:cx="31.717287"
     inkscape:cy="16.17409"
     inkscape:document-units="px"
     inkscape:current-layer="layer1"
     showgrid="true"
     fit-margin-top="0"
     fit-margin-left="0"
     fit-margin-right="0"
     fit-margin-bottom="0"
     inkscape:window-width="1301"
     inkscape:window-height="744"
     inkscape:window-x="65"
     inkscape:window-y="24"
     inkscape:window-maximized="1">
    <sodipodi:guide
       position="9.0000117,39.000009"
       orientation="30.000031,0"
       id="guide3264" />
    <sodipodi:guide
       position="9.0000117,8.9999785"
       orientation="0,30"
       id="guide3266" />
    <sodipodi:guide
       position="39.000012,34.58801"
       orientation="-30.000031,0"
       id="guide3268" />
    <sodipodi:guide
       position="39.000012,39.000009"
       orientation="0,-30"
       id="guide3270" />
    <sodipodi:guide
       position="9.0000117,19.999979"
       orientation="11,0"
       id="guide3276" />
    <sodipodi:guide
       position="24.000012,39.000009"
       orientation="15.000031,0"
       id="guide3311" />
    <sodipodi:guide
       position="24.000012,23.999979"
       orientation="0,15"
       id="guide3313" />
    <sodipodi:guide
       position="39.000012,39.000009"
       orientation="0,-15"
       id="guide3317" />
    <inkscape:grid
       type="xygrid"
       id="grid3346" />
  </sodipodi:namedview>
  <metadata
     id="metadata3386">
    <rdf:RDF>
      <cc:Work
         rdf:about="">
        <dc:format>image/svg+xml</dc:format>
        <dc:type
           rdf:resource="http://purl.org/dc/dcmitype/StillImage" />
        <dc:title></dc:title>
      </cc:Work>
    </rdf:RDF>
  </metadata>
  <g
     inkscape:label="Capa 1"
     inkscape:groupmode="layer"
     id="layer1"
     transform="translate(-364.57143,-525.79075)">
    <g
       id="g3343"
       transform="matrix(0.53398108,0,0,0.53398108,168.10776,257.01223)">
      <path
         id="path3304"
         transform="translate(364.57143,499.79075)"
         d="M 23.994141,9 C 20.066877,9.0002328 16.165567,10.617701 13.390625,13.394531 10.615683,16.171361 9,20.073326 9,24 c 0,3.926674 1.615683,7.828639 4.390625,10.605469 2.774942,2.77683 6.676252,4.394298 10.603516,4.394531 3.927263,2.33e-4 7.830892,-1.615734 10.609375,-4.392578 C 37.381999,31.830578 39,27.927112 39,24 l -4,0 c 0,2.879882 -1.187055,5.742944 -3.224609,7.779297 C 29.737836,33.81565 26.874134,35.000171 23.994141,35 21.114147,34.999829 18.253707,33.813686 16.21875,31.777344 14.183793,29.741001 13,26.879561 13,24 13,21.120439 14.183793,18.258999 16.21875,16.222656 18.253707,14.186314 21.114147,13.000171 23.994141,13 L 24,13 24,9 23.994141,9 Z M 40.171875,9 26,23.171875 22.328125,19.5 19.5,22.328125 23.171875,26 l 2.5,2.5 L 26,28.828125 l 17,-17 L 40.171875,9 Z"
         style="fill:#e74c3c;fill-opacity:1;fill-rule:evenodd;stroke:none"
         inkscape:connector-curvature="0" />
    </g>
  </g>
</svg>
