<?xml version="1.0" encoding="UTF-8" standalone="no"?>
<!-- Created with Inkscape (http://www.inkscape.org/) -->

<svg
   xmlns:dc="http://purl.org/dc/elements/1.1/"
   xmlns:cc="http://creativecommons.org/ns#"
   xmlns:rdf="http://www.w3.org/1999/02/22-rdf-syntax-ns#"
   xmlns:svg="http://www.w3.org/2000/svg"
   xmlns="http://www.w3.org/2000/svg"
   xmlns:sodipodi="http://sodipodi.sourceforge.net/DTD/sodipodi-0.dtd"
   xmlns:inkscape="http://www.inkscape.org/namespaces/inkscape"
   width="22"
   height="22"
   id="svg2"
   version="1.1"
   inkscape:version="0.48.5 r10040"
   viewBox="0 0 22 22"
   sodipodi:docname="folder-sync.svg">
  <defs
     id="defs4" />
  <sodipodi:namedview
     id="base"
     pagecolor="#ffffff"
     bordercolor="#666666"
     borderopacity="1.0"
     inkscape:pageopacity="0.0"
     inkscape:pageshadow="2"
     inkscape:zoom="22.8375"
     inkscape:cx="16.666482"
     inkscape:cy="9.5084366"
     inkscape:document-units="px"
     inkscape:current-layer="layer1"
     showgrid="true"
     inkscape:showpageshadow="false"
     borderlayer="true"
     inkscape:window-width="1366"
     inkscape:window-height="744"
     inkscape:window-x="0"
     inkscape:window-y="24"
     inkscape:window-maximized="1"
     units="px"
     showguides="true">
    <sodipodi:guide
       position="2,20.000017"
       orientation="18,0"
       id="guide4085" />
    <sodipodi:guide
       position="2,2.0000174"
       orientation="0,18"
       id="guide4087" />
    <sodipodi:guide
       position="20,2.0000174"
       orientation="-18,0"
       id="guide4089" />
    <sodipodi:guide
       position="20,20.000017"
       orientation="0,-18"
       id="guide4091" />
    <sodipodi:guide
       position="3,19.000017"
       orientation="16,0"
       id="guide4093" />
    <sodipodi:guide
       position="3,3.0000174"
       orientation="0,16"
       id="guide4095" />
    <sodipodi:guide
       position="19,3.0000174"
       orientation="-16,0"
       id="guide4097" />
    <sodipodi:guide
       position="19,19.000017"
       orientation="0,-16"
       id="guide4099" />
    <inkscape:grid
       type="xygrid"
       id="grid4101" />
    <sodipodi:guide
       position="3,19.000017"
       orientation="16,0"
       id="guide4123" />
    <sodipodi:guide
       position="3,3.0000174"
       orientation="0,2.000001"
       id="guide4125" />
    <sodipodi:guide
       position="4,19.000017"
       orientation="-16,0"
       id="guide4127" />
    <sodipodi:guide
       position="5.000001,19.000017"
       orientation="0,-2.000001"
       id="guide4129" />
    <sodipodi:guide
       position="18,19.000017"
       orientation="16,0"
       id="guide4131" />
    <sodipodi:guide
       position="17,3.0000174"
       orientation="0,2"
       id="guide4133" />
    <sodipodi:guide
       position="19,3.0000174"
       orientation="-16,0"
       id="guide4135" />
    <sodipodi:guide
       position="19,19.000017"
       orientation="0,-2"
       id="guide4137" />
  </sodipodi:namedview>
  <metadata
     id="metadata7">
    <rdf:RDF>
      <cc:Work
         rdf:about="">
        <dc:format>image/svg+xml</dc:format>
        <dc:type
           rdf:resource="http://purl.org/dc/dcmitype/StillImage" />
        <dc:title />
      </cc:Work>
    </rdf:RDF>
  </metadata>
  <g
     inkscape:label="Capa 1"
     inkscape:groupmode="layer"
     id="layer1"
     transform="translate(0,-1030.3622)">
    <path
       style="fill:#4d4d4d;fill-opacity:1;stroke:none"
       d="m 3,3 0,1 0,15 1,0 9,0 0,-1 -9,0 0,-8 0,-6 3,0 2,0 2,2 7,0 0,7 1,0 0,-8 -6.992188,0 -2,-2 L 10,3.0097656 10,3 4,3 z m 13.5,11 c -1.385,0 -2.5,1.115 -2.5,2.5 0,0.433427 0.118052,0.834808 0.310547,1.189453 l 0.759765,-0.759765 C 15.029287,16.792594 15,16.650791 15,16.5 15,15.669 15.669,15 16.5,15 c 0.150791,0 0.292594,0.02929 0.429688,0.07031 l 0.759765,-0.759765 C 17.334808,14.118052 16.933427,14 16.5,14 z m 2.189453,1.310547 -0.759765,0.759765 C 17.970714,16.207406 18,16.349209 18,16.5 c 0,0.831 -0.669,1.5 -1.5,1.5 -0.150791,0 -0.292594,-0.02929 -0.429688,-0.07031 l -0.759765,0.759765 C 15.665192,18.881948 16.066573,19 16.5,19 17.885,19 19,17.885 19,16.5 19,16.066573 18.881948,15.665192 18.689453,15.310547 z"
       transform="translate(0,1030.3622)"
       id="rect4069"
       inkscape:connector-curvature="0"
       sodipodi:nodetypes="ccccccccccccccccccccccssccssccsccssccssc" />
  </g>
</svg>
