<?xml version="1.0" encoding="UTF-8" standalone="no"?>
<!-- Created with Inkscape (http://www.inkscape.org/) -->

<svg
   xmlns:dc="http://purl.org/dc/elements/1.1/"
   xmlns:cc="http://creativecommons.org/ns#"
   xmlns:rdf="http://www.w3.org/1999/02/22-rdf-syntax-ns#"
   xmlns:svg="http://www.w3.org/2000/svg"
   xmlns="http://www.w3.org/2000/svg"
   xmlns:sodipodi="http://sodipodi.sourceforge.net/DTD/sodipodi-0.dtd"
   xmlns:inkscape="http://www.inkscape.org/namespaces/inkscape"
   width="22"
   height="22"
   id="svg2"
   version="1.1"
   inkscape:version="0.91pre2 r13516"
   sodipodi:docname="kdenlive-hide-audio.svg">
  <defs
     id="defs4" />
  <sodipodi:namedview
     id="base"
     pagecolor="#ffffff"
     bordercolor="#666666"
     borderopacity="1.0"
     inkscape:pageopacity="0.0"
     inkscape:pageshadow="2"
     inkscape:zoom="12.015691"
     inkscape:cx="14.591229"
     inkscape:cy="19.962876"
     inkscape:document-units="px"
     inkscape:current-layer="layer1"
     showgrid="true"
     showguides="true"
     inkscape:window-width="1301"
     inkscape:window-height="744"
     inkscape:window-x="65"
     inkscape:window-y="24"
     inkscape:window-maximized="1"
     inkscape:object-nodes="false"
     inkscape:snap-bbox="true">
    <sodipodi:guide
       position="9,39.000017"
       orientation="30,0"
       id="guide3267" />
    <sodipodi:guide
       position="9,9.0000174"
       orientation="0,30"
       id="guide3269" />
    <sodipodi:guide
       position="39,9.0000174"
       orientation="-30,0"
       id="guide3271" />
    <sodipodi:guide
       position="39,39.000017"
       orientation="0,-30"
       id="guide3273" />
    <sodipodi:guide
       position="28,21.999529"
       orientation="13,0"
       id="guide4255" />
    <sodipodi:guide
       position="28,8.9995291"
       orientation="0,11"
       id="guide4257" />
    <sodipodi:guide
       position="39,8.9995291"
       orientation="-13,0"
       id="guide4259" />
    <sodipodi:guide
       position="39,21.999529"
       orientation="0,-11"
       id="guide4261" />
    <sodipodi:guide
       position="9,39.000017"
       orientation="13,0"
       id="guide4291" />
    <sodipodi:guide
       position="9,26.000017"
       orientation="0,19.000002"
       id="guide4293" />
    <sodipodi:guide
       position="28.000002,26.000017"
       orientation="-13,0"
       id="guide4295" />
    <sodipodi:guide
       position="28.000002,39.000017"
       orientation="0,-19.000002"
       id="guide4297" />
    <inkscape:grid
       type="xygrid"
       id="grid3366" />
  </sodipodi:namedview>
  <metadata
     id="metadata7">
    <rdf:RDF>
      <cc:Work
         rdf:about="">
        <dc:format>image/svg+xml</dc:format>
        <dc:type
           rdf:resource="http://purl.org/dc/dcmitype/StillImage" />
        <dc:title></dc:title>
      </cc:Work>
    </rdf:RDF>
  </metadata>
  <g
     inkscape:label="Capa 1"
     inkscape:groupmode="layer"
     id="layer1"
     transform="translate(0,-1030.3622)">
    <g
       id="g3355"
       transform="matrix(0.53394274,0,0,0.53394274,-1.8054847,492.18267)">
      <rect
         y="1013.3622"
         x="9"
         height="30"
         width="30"
         id="rect3263"
         style="fill:none;fill-opacity:1;fill-rule:evenodd;stroke:none" />
      <path
         transform="translate(0,1004.3622)"
         id="path4325"
         d="m 34.804688,26 c -0.410344,2.168924 -1.46663,4.217551 -3.029297,5.779297 C 30.706226,32.847831 29.407102,33.675208 28,34.226562 l 0,4.203126 c 2.476418,-0.69467 4.78321,-2.003035 6.603516,-3.822266 C 36.907859,32.304438 38.396819,29.22363 38.84375,26 l -4.039062,0 z"
         style="fill:#e74c3c;fill-opacity:1;fill-rule:evenodd;stroke:none"
         inkscape:connector-curvature="0" />
      <path
         id="path4308"
         transform="translate(0,1004.3622)"
         d="M 9.1542969,22 C 9.0624831,22.663107 9,23.329987 9,24 c 0,3.926674 1.615683,7.828639 4.390625,10.605469 2.774942,2.776829 6.676252,4.394298 10.603516,4.394531 1.354343,8e-5 2.702314,-0.20465 4.005859,-0.570312 l 0,-4.203126 C 26.725526,34.725949 25.362916,35.000081 23.994141,35 21.114147,34.999829 18.253707,33.813686 16.21875,31.777344 14.183793,29.741002 13,26.879561 13,24 c 0,-0.671131 0.07092,-1.341054 0.195312,-2 l -4.0410151,0 z"
         style="fill:#e74c3c;fill-opacity:1;fill-rule:evenodd;stroke:none"
         inkscape:connector-curvature="0" />
      <path
         id="path4313"
         transform="translate(0,1004.3622)"
         d="M 23.994141,9 C 20.066877,9.0002328 16.165567,10.617702 13.390625,13.394531 11.089175,15.697547 9.6005662,18.776905 9.1542969,22 l 4.0410151,0 C 13.604654,19.831666 14.658074,17.784394 16.21875,16.222656 18.253707,14.186314 21.114147,13.000171 23.994141,13 25.362916,12.999919 26.725526,13.274051 28,13.773438 L 28,9.5703125 C 26.696455,9.2046501 25.348484,8.9999197 23.994141,9 Z"
         style="fill:#e74c3c;fill-opacity:1;fill-rule:evenodd;stroke:none"
         inkscape:connector-curvature="0" />
      <path
         transform="translate(0,1004.3622)"
         id="path4320"
         d="m 28,9.5703125 0,4.2031255 c 1.407102,0.551354 2.706226,1.378731 3.775391,2.447265 1.562667,1.561746 2.618953,3.610373 3.029297,5.779297 l 4.039062,0 C 38.396819,18.77637 36.907859,15.695562 34.603516,13.392578 32.78321,11.573347 30.476418,10.264982 28,9.5703125 Z"
         style="fill:#e74c3c;fill-opacity:1;fill-rule:evenodd;stroke:none"
         inkscape:connector-curvature="0" />
      <path
         id="path4225"
         transform="translate(0,1004.3622)"
         d="m 28,15.238281 c -1.63918,0.379775 -3.175383,1.207776 -4.365234,2.398438 C 21.969801,19.302817 21,21.643996 21,24 c 0,2.356004 0.969801,4.697183 2.634766,6.363281 1.189851,1.190662 2.726054,2.018663 4.365234,2.398438 l 0,-17.523438 z"
         style="fill:#e74c3c;fill-opacity:1;fill-rule:evenodd;stroke:none"
         inkscape:connector-curvature="0" />
      <rect
         y="1024.8622"
         x="19"
         height="7"
         width="4"
         id="rect4237"
         style="fill:#e74c3c;fill-opacity:1;fill-rule:evenodd;stroke:none" />
      <ellipse
         id="path4242"
         style="fill:none;fill-opacity:0.64088398;fill-rule:evenodd;stroke:none"
         cx="21.999308"
         cy="1028.3622"
         rx="1.0006928"
         ry="1.0000308"
         d="m 23,1028.3622 a 1.0006928,1.0000308 0 0 1 -1.000692,1 1.0006928,1.0000308 0 0 1 -1.000693,-1 1.0006928,1.0000308 0 0 1 1.000693,-1 1.0006928,1.0000308 0 0 1 1.000692,1 z" />
      <rect
         transform="matrix(0,1,-1,0,0,0)"
         style="fill:#e74c3c;fill-opacity:1;fill-rule:evenodd;stroke:none"
         id="rect4244"
         width="4"
         height="11"
         x="1026.3622"
         y="-38.999977" />
    </g>
  </g>
</svg>
