<?xml version="1.0" encoding="UTF-8" standalone="no"?>
<!-- Created with Inkscape (http://www.inkscape.org/) -->

<svg
   xmlns:dc="http://purl.org/dc/elements/1.1/"
   xmlns:cc="http://creativecommons.org/ns#"
   xmlns:rdf="http://www.w3.org/1999/02/22-rdf-syntax-ns#"
   xmlns:svg="http://www.w3.org/2000/svg"
   xmlns="http://www.w3.org/2000/svg"
   xmlns:sodipodi="http://sodipodi.sourceforge.net/DTD/sodipodi-0.dtd"
   xmlns:inkscape="http://www.inkscape.org/namespaces/inkscape"
   width="22"
   height="22"
   id="svg3529"
   version="1.1"
   inkscape:version="0.91pre2 r13516"
   sodipodi:docname="audio-cd-new.svg">
  <defs
     id="defs3531" />
  <sodipodi:namedview
     id="base"
     pagecolor="#ffffff"
     bordercolor="#666666"
     borderopacity="1.0"
     inkscape:pageopacity="0.0"
     inkscape:pageshadow="2"
     inkscape:zoom="2.869419"
     inkscape:cx="-23.870814"
     inkscape:cy="48.632724"
     inkscape:document-units="px"
     inkscape:current-layer="layer1"
     showgrid="true"
     fit-margin-top="0"
     fit-margin-left="0"
     fit-margin-right="0"
     fit-margin-bottom="0"
     inkscape:window-width="1301"
     inkscape:window-height="744"
     inkscape:window-x="65"
     inkscape:window-y="24"
     inkscape:window-maximized="1"
     inkscape:snap-bbox="true"
     inkscape:object-nodes="true">
    <sodipodi:guide
       position="8.9999928,38.999997"
       orientation="30,0"
       id="guide3264" />
    <sodipodi:guide
       position="8.9999928,8.9999974"
       orientation="0,30"
       id="guide3266" />
    <sodipodi:guide
       position="38.999993,8.9999974"
       orientation="-30,0"
       id="guide3268" />
    <sodipodi:guide
       position="38.999993,38.999997"
       orientation="0,-30"
       id="guide3270" />
    <inkscape:grid
       type="xygrid"
       id="grid3350" />
  </sodipodi:namedview>
  <metadata
     id="metadata3534">
    <rdf:RDF>
      <cc:Work
         rdf:about="">
        <dc:format>image/svg+xml</dc:format>
        <dc:type
           rdf:resource="http://purl.org/dc/dcmitype/StillImage" />
        <dc:title></dc:title>
      </cc:Work>
    </rdf:RDF>
  </metadata>
  <g
     inkscape:label="Capa 1"
     inkscape:groupmode="layer"
     id="layer1"
     transform="translate(-453.14286,-654.36218)">
    <g
       id="g3343"
       transform="matrix(0.5333069,0,0,0.5333069,209.67968,317.4534)">
      <path
         inkscape:connector-curvature="0"
         id="rect3301"
         transform="translate(453.14286,628.36218)"
         d="M 24,9 C 15.69,9 9,15.69 9,24 l 0,0.002 0,15 30,0 0,-15 L 39,24 C 39,15.69 32.31,9 24,9 Z m 0,1.998733 c 7.499623,0.125244 13.121611,5.50001 13.123793,12.960425 l 0.0011,3.790148 L 35,39 24,39 13,39 10.8736,27.749306 10.876207,24 C 10.881422,16.498743 16.498879,10.873465 24,10.998733 Z"
         style="fill:#4d4d4d;fill-opacity:1;fill-rule:evenodd;stroke:none"
         sodipodi:nodetypes="ssccccsssscccccss" />
      <ellipse
         ry="2.0000615"
         rx="2.0013857"
         cy="639.36218"
         cx="477.14148"
         id="path3296"
         style="fill:none;fill-opacity:1;fill-rule:evenodd;stroke:none"
         d="m 479.14287,639.36218 a 2.0013857,2.0000615 0 0 1 -2.00139,2.00006 2.0013857,2.0000615 0 0 1 -2.00139,-2.00006 2.0013857,2.0000615 0 0 1 2.00139,-2.00006 2.0013857,2.0000615 0 0 1 2.00139,2.00006 z" />
      <ellipse
         ry="2.0000615"
         rx="2.0013857"
         cy="652.36218"
         cx="490.14148"
         style="fill:none;fill-opacity:1;fill-rule:evenodd;stroke:none"
         id="path3298"
         d="m 492.14287,652.36218 a 2.0013857,2.0000615 0 0 1 -2.00139,2.00006 2.0013857,2.0000615 0 0 1 -2.00139,-2.00006 2.0013857,2.0000615 0 0 1 2.00139,-2.00006 2.0013857,2.0000615 0 0 1 2.00139,2.00006 z" />
      <rect
         style="fill:#4d4d4d;fill-opacity:1;fill-rule:evenodd;stroke:none"
         id="rect3272"
         width="5.6252789"
         height="11.250573"
         x="462.14136"
         y="656.11151" />
      <rect
         y="656.11151"
         x="486.51758"
         height="11.250803"
         width="5.6253057"
         id="rect3274"
         style="fill:#4d4d4d;fill-opacity:1;fill-rule:evenodd;stroke:none" />
    </g>
  </g>
</svg>
