<?xml version="1.0" encoding="UTF-8" standalone="no"?>
<!-- Created with Inkscape (http://www.inkscape.org/) -->

<svg
   xmlns:dc="http://purl.org/dc/elements/1.1/"
   xmlns:cc="http://creativecommons.org/ns#"
   xmlns:rdf="http://www.w3.org/1999/02/22-rdf-syntax-ns#"
   xmlns:svg="http://www.w3.org/2000/svg"
   xmlns="http://www.w3.org/2000/svg"
   xmlns:xlink="http://www.w3.org/1999/xlink"
   xmlns:sodipodi="http://sodipodi.sourceforge.net/DTD/sodipodi-0.dtd"
   xmlns:inkscape="http://www.inkscape.org/namespaces/inkscape"
   width="32px"
   height="32px"
   viewBox="0 0 32 32"
   version="1.1"
   id="SVGRoot"
   inkscape:version="0.92.1 r15371"
   sodipodi:docname="绘图.svg">
  <sodipodi:namedview
     id="base"
     pagecolor="#ffffff"
     bordercolor="#666666"
     borderopacity="1.0"
     inkscape:pageopacity="0.0"
     inkscape:pageshadow="2"
     inkscape:zoom="8"
     inkscape:cx="16"
     inkscape:cy="16"
     inkscape:document-units="px"
     inkscape:current-layer="layer1"
     showgrid="false"
     inkscape:window-width="742"
     inkscape:window-height="483"
     inkscape:window-x="547"
     inkscape:window-y="211"
     inkscape:window-maximized="0"
     inkscape:grid-bbox="true" />
  <defs
     id="defs90">
    <linearGradient
       inkscape:collect="always"
       xlink:href="#linearGradient4227-9"
       id="linearGradient4363"
       x1="393.57144"
       y1="521.79803"
       x2="407.57144"
       y2="535.79797"
       gradientUnits="userSpaceOnUse"
       gradientTransform="translate(-384.57143,-515.798)" />
    <linearGradient
       inkscape:collect="always"
       id="linearGradient4227-9">
      <stop
         style="stop-color:#292c2f;stop-opacity:1"
         offset="0"
         id="stop4229-5" />
      <stop
         style="stop-color:#000000;stop-opacity:0;"
         offset="1"
         id="stop4231-6" />
    </linearGradient>
    <linearGradient
       inkscape:collect="always"
       xlink:href="#linearGradient4903"
       id="linearGradient4035"
       gradientUnits="userSpaceOnUse"
       gradientTransform="matrix(0.7499999,0,0,0.78768837,-2.00001,-2.9384396)"
       x1="24.000042"
       y1="38"
       x2="24.000042"
       y2="5" />
    <linearGradient
       id="linearGradient4903"
       inkscape:collect="always">
      <stop
         id="stop4905"
         offset="0"
         style="stop-color:#eef1f2;stop-opacity:1" />
      <stop
         id="stop4907"
         offset="1"
         style="stop-color:#f9fafb;stop-opacity:1" />
    </linearGradient>
    <linearGradient
       inkscape:collect="always"
       xlink:href="#linearGradient4303-2"
       id="linearGradient4042"
       gradientUnits="userSpaceOnUse"
       gradientTransform="matrix(0.87499999,0,0,0.79999648,-341.49994,-403.03663)"
       x1="409.57144"
       y1="543.79797"
       x2="409.57144"
       y2="503.798" />
    <linearGradient
       inkscape:collect="always"
       id="linearGradient4303-2">
      <stop
         style="stop-color:#c6cdd1;stop-opacity:1"
         offset="0"
         id="stop4305-6" />
      <stop
         style="stop-color:#e0e5e7;stop-opacity:1"
         offset="1"
         id="stop4307-5" />
    </linearGradient>
  </defs>
  <metadata
     id="metadata93">
    <rdf:RDF>
      <cc:Work
         rdf:about="">
        <dc:format>image/svg+xml</dc:format>
        <dc:type
           rdf:resource="http://purl.org/dc/dcmitype/StillImage" />
        <dc:title></dc:title>
      </cc:Work>
    </rdf:RDF>
  </metadata>
  <g
     id="layer1"
     inkscape:groupmode="layer"
     inkscape:label="Layer 1">
    <rect
       style="fill:url(#linearGradient4042);fill-opacity:1;stroke:none"
       id="rect4139"
       width="27.999956"
       height="31.999834"
       x="2.0000422"
       y="-2.6e-05"
       ry="0" />
    <rect
       style="fill:#99a1a7;fill-opacity:1;stroke:none"
       id="rect4188"
       width="27.999956"
       height="2.9998333"
       x="2.0000422"
       y="28.999973" />
    <rect
       style="fill:#737b81;fill-opacity:1;stroke:none"
       id="rect4492"
       width="27.999956"
       height="0.99983472"
       x="2.0000422"
       y="30.999973" />
    <rect
       style="fill:#292c2e;fill-opacity:1;stroke:none"
       id="rect4671"
       width="9.9999924"
       height="2.9999883"
       x="10.000011"
       y="28.999973" />
    <path
       style="fill:#292c2e;fill-opacity:1;stroke:none"
       d="m 23,29 h 5 v 3 h -5 z"
       id="rect4673"
       inkscape:connector-curvature="0"
       sodipodi:nodetypes="ccccc" />
    <path
       style="fill:url(#linearGradient4035);fill-opacity:1;stroke:none"
       d="M 4,1.0000004 V 5.7261304 13 c 1.53125,0 2,1.10767 2,2.5 0,1.39233 -0.57004,2.52725 -2,2.5 v 3 c 0,6.30151 12,5.99372 12,5.99372 l 7,0.006 5,-6 v -3 h -1 v -5 h 1 V 5.7258504 4.9381604 4.7950904 0.99972037 H 26.50001 6.25 Z"
       id="rect4768"
       inkscape:connector-curvature="0"
       sodipodi:nodetypes="cccscccccccccccccccc" />
    <path
       style="fill:#4c5154;fill-opacity:1;stroke:none"
       d="m 11.59999,30 v 1 h 6.48421 v -1 z m 12.1579,0 v 1 h 2.43158 v 1 H 27 v -1 -1 z"
       id="rect4191"
       inkscape:connector-curvature="0" />
    <rect
       style="fill:#202324;fill-opacity:1;stroke:none"
       id="rect4194"
       width="9.9999924"
       height="0.99981362"
       x="10.000011"
       y="30.999973" />
    <rect
       style="fill:#202324;fill-opacity:1;stroke:none"
       id="rect4196"
       width="5.0000105"
       height="0.99996012"
       x="23.000011"
       y="30.999973" />
    <path
       style="opacity:0.2;fill:url(#linearGradient4363);fill-opacity:1;fill-rule:evenodd;stroke:none;stroke-width:1px;stroke-linecap:butt;stroke-linejoin:miter;stroke-opacity:1"
       d="M 16.800781,6.0996098 15,7.0000004 l -2,2 V 10 13 h -2 v 7 L 31,32 V 15 Z"
       id="path4355"
       inkscape:connector-curvature="0" />
    <path
       sodipodi:nodetypes="sssssccccccccccccssssssssss"
       inkscape:connector-curvature="0"
       id="rect4119"
       d="m 6,1.9999704 c -0.1385,0 -0.25,0.1115 -0.25,0.25 0,0.1385 0.1115,0.25 0.25,0.25 0.1385,0 0.25,-0.1115 0.25,-0.25 0,-0.1385 -0.1115,-0.25 -0.25,-0.25 z m 1.75,0 -0.5,0.5 0.75,0.75 -0.25,0.25 -0.25,0.25 -0.25,0.25 0.5,0.5 0.25,-0.25 0.25,-0.25 0.25,-0.25 0.5,-0.5 z m -2.375,1.5 c -0.20775,0 -0.375,0.16725 -0.375,0.375 0,0.20775 0.16725,0.375 0.375,0.375 0.20775,0 0.375,-0.16725 0.375,-0.375 0,-0.20775 -0.16725,-0.375 -0.375,-0.375 z m 1.125,1.5 c -0.277,0 -0.5,0.223 -0.5,0.5 0,0.277 0.223,0.5 0.5,0.5 0.277,0 0.5,-0.223 0.5,-0.5 0,-0.277 -0.223,-0.5 -0.5,-0.5 z"
       style="fill:#4d4d4d;fill-opacity:1;stroke:none" />
    <rect
       y="1.999974"
       x="21.000011"
       height="1"
       width="6.0000114"
       id="rect4979"
       style="fill:#4d4d4d;fill-opacity:1;stroke:none" />
    <rect
       y="3.999974"
       x="23.000011"
       height="1"
       width="4.0000229"
       id="rect4981"
       style="fill:#4d4d4d;fill-opacity:1;stroke:none" />
    <path
       style="fill:#da4453;fill-opacity:1;stroke:none"
       d="m 16,6.0000004 c -1.662,0 -3,1.338 -3,3 V 10 13 H 12 11 V 13.75 20 H 21 V 13 H 19 V 9.0000004 c 0,-1.662 -1.338,-3 -3,-3 z m 0,1 c 1.2465,0 2,0.5458 2,2 V 13 H 15 14 V 10 9.0000004 c 0,-1.4542 0.75351,-2 2,-2 z M 12,14 h 8 v 5 h -8 z"
       id="rect4136-1"
       inkscape:connector-curvature="0" />
  </g>
</svg>
