<?xml version="1.0" encoding="UTF-8" standalone="no"?>
<svg
   xmlns:dc="http://purl.org/dc/elements/1.1/"
   xmlns:cc="http://creativecommons.org/ns#"
   xmlns:rdf="http://www.w3.org/1999/02/22-rdf-syntax-ns#"
   xmlns:svg="http://www.w3.org/2000/svg"
   xmlns="http://www.w3.org/2000/svg"
   xmlns:sodipodi="http://sodipodi.sourceforge.net/DTD/sodipodi-0.dtd"
   xmlns:inkscape="http://www.inkscape.org/namespaces/inkscape"
   height="8"
   width="8"
   version="1.1"
   id="svg8"
   sodipodi:docname="emblem-symbolic-link.svg"
   inkscape:version="0.92.4 (5da689c313, 2019-01-14)">
  <metadata
     id="metadata14">
    <rdf:RDF>
      <cc:Work
         rdf:about="">
        <dc:format>image/svg+xml</dc:format>
        <dc:type
           rdf:resource="http://purl.org/dc/dcmitype/StillImage" />
      </cc:Work>
    </rdf:RDF>
  </metadata>
  <defs
     id="defs12" />
  <sodipodi:namedview
     pagecolor="#ffffff"
     bordercolor="#666666"
     borderopacity="1"
     objecttolerance="10"
     gridtolerance="10"
     guidetolerance="10"
     inkscape:pageopacity="0"
     inkscape:pageshadow="2"
     inkscape:window-width="1366"
     inkscape:window-height="676"
     id="namedview10"
     showgrid="false"
     inkscape:zoom="14.75"
     inkscape:cx="-6.6341235"
     inkscape:cy="4.1678919"
     inkscape:window-x="0"
     inkscape:window-y="31"
     inkscape:window-maximized="1"
     inkscape:current-layer="svg8" />
  <g
     id="layer1-6-0"
     inkscape:label="Capa 1"
     transform="translate(-7,-1037.3622)"
     style="fill:#7f8c8d;fill-opacity:1">
    <rect
       ry="4"
       y="1037.3622"
       x="7"
       height="8"
       width="8"
       id="rect4153-8-8"
       style="opacity:1;fill:#7f8c8d;fill-opacity:1;stroke:none" />
  </g>
  <g
     fill="#fff"
     id="g6">
    <path
       d="M2 2c-.554 0-1 .446-1 1v2c0 .554.446 1 1 1h1c.554 0 1-.446 1-1V3c0-.554-.446-1-1-1zm0 1h1v2H2zM5 2c-.554 0-1 .446-1 1v2c0 .554.446 1 1 1h1c.554 0 1-.446 1-1V3c0-.554-.446-1-1-1zm0 1h1v2H5z"
       id="path4" />
  </g>
</svg>
