<?xml version="1.0" encoding="UTF-8" standalone="no"?>
<svg
   xmlns:dc="http://purl.org/dc/elements/1.1/"
   xmlns:cc="http://creativecommons.org/ns#"
   xmlns:rdf="http://www.w3.org/1999/02/22-rdf-syntax-ns#"
   xmlns:svg="http://www.w3.org/2000/svg"
   xmlns="http://www.w3.org/2000/svg"
   xmlns:sodipodi="http://sodipodi.sourceforge.net/DTD/sodipodi-0.dtd"
   xmlns:inkscape="http://www.inkscape.org/namespaces/inkscape"
   viewBox="0 0 8 8"
   version="1.1"
   id="svg6"
   sodipodi:docname="emblem-question.svg"
   inkscape:version="0.92.4 (5da689c313, 2019-01-14)">
  <metadata
     id="metadata12">
    <rdf:RDF>
      <cc:Work
         rdf:about="">
        <dc:format>image/svg+xml</dc:format>
        <dc:type
           rdf:resource="http://purl.org/dc/dcmitype/StillImage" />
      </cc:Work>
    </rdf:RDF>
  </metadata>
  <defs
     id="defs10" />
  <sodipodi:namedview
     pagecolor="#ffffff"
     bordercolor="#666666"
     borderopacity="1"
     objecttolerance="10"
     gridtolerance="10"
     guidetolerance="10"
     inkscape:pageopacity="0"
     inkscape:pageshadow="2"
     inkscape:window-width="1366"
     inkscape:window-height="676"
     id="namedview8"
     showgrid="true"
     inkscape:zoom="59"
     inkscape:cx="3.7056031"
     inkscape:cy="3.2099928"
     inkscape:window-x="0"
     inkscape:window-y="31"
     inkscape:window-maximized="1"
     inkscape:current-layer="svg6">
    <inkscape:grid
       type="xygrid"
       id="grid20" />
  </sodipodi:namedview>
  <rect
     style="opacity:1;fill:#9b59b6;fill-opacity:1;stroke:none"
     id="rect4153"
     width="8"
     height="8"
     x="0"
     y="-1.74e-05"
     ry="4" />
  <path
     d="M 4 1 A 2 2 0 0 0 2 3 L 3 3 A 1 1 0 0 1 4 2 A 1 1 0 0 1 5 3 A 1 1 0 0 1 4 4 L 3 4 L 3 6 L 4 6 L 4 5 A 2 2 0 0 0 6 3 A 2 2 0 0 0 4 1 z M 3 7 L 3 7.8613281 C 3.3209985 7.9438311 3.65255 8 4 8 L 4 7 L 3 7 z "
     id="path4"
     style="fill:#ffffff" />
</svg>
