<?xml version="1.0" encoding="UTF-8" standalone="no"?>
<!-- Created with Inkscape (http://www.inkscape.org/) -->

<svg
   xmlns:dc="http://purl.org/dc/elements/1.1/"
   xmlns:cc="http://creativecommons.org/ns#"
   xmlns:rdf="http://www.w3.org/1999/02/22-rdf-syntax-ns#"
   xmlns:svg="http://www.w3.org/2000/svg"
   xmlns="http://www.w3.org/2000/svg"
   xmlns:xlink="http://www.w3.org/1999/xlink"
   xmlns:sodipodi="http://sodipodi.sourceforge.net/DTD/sodipodi-0.dtd"
   xmlns:inkscape="http://www.inkscape.org/namespaces/inkscape"
   width="48"
   height="48"
   id="svg4490"
   version="1.1"
   inkscape:version="0.48.4 r9939"
   viewBox="0 0 48 48"
   sodipodi:docname="4kvideodownloader.svg">
  <defs
     id="defs4492">
    <linearGradient
       gradientUnits="userSpaceOnUse"
       y2="1033.3622"
       x2="45"
       y1="1033.3622"
       x1="3"
       id="linearGradient4135"
       xlink:href="#linearGradient6589"
       inkscape:collect="always"
       gradientTransform="translate(213.14285,-507.42858)" />
    <linearGradient
       inkscape:collect="always"
       id="linearGradient6589">
      <stop
         style="stop-color:#88c425;stop-opacity:1"
         offset="0"
         id="stop6591" />
      <stop
         style="stop-color:#bef202;stop-opacity:1"
         offset="1"
         id="stop6593" />
    </linearGradient>
  </defs>
  <sodipodi:namedview
     id="base"
     pagecolor="#ffffff"
     bordercolor="#666666"
     borderopacity="1.0"
     inkscape:pageopacity="0.0"
     inkscape:pageshadow="2"
     inkscape:zoom="11.2"
     inkscape:cx="26.354226"
     inkscape:cy="24.394017"
     inkscape:document-units="px"
     inkscape:current-layer="layer1"
     showgrid="true"
     inkscape:showpageshadow="false"
     borderlayer="true"
     fit-margin-top="0"
     fit-margin-left="0"
     fit-margin-right="0"
     fit-margin-bottom="0"
     inkscape:window-width="1301"
     inkscape:window-height="744"
     inkscape:window-x="65"
     inkscape:window-y="24"
     inkscape:window-maximized="1"
     inkscape:snap-nodes="false">
    <inkscape:grid
       type="xygrid"
       id="grid3001" />
  </sodipodi:namedview>
  <metadata
     id="metadata4495">
    <rdf:RDF>
      <cc:Work
         rdf:about="">
        <dc:format>image/svg+xml</dc:format>
        <dc:type
           rdf:resource="http://purl.org/dc/dcmitype/StillImage" />
        <dc:title />
      </cc:Work>
    </rdf:RDF>
  </metadata>
  <g
     inkscape:label="Capa 1"
     inkscape:groupmode="layer"
     id="layer1"
     transform="translate(-213.14285,-496.93362)">
    <path
       inkscape:connector-curvature="0"
       style="fill:url(#linearGradient4135);fill-opacity:1;stroke:none"
       d="m 240.37527,506.93365 c -4.25582,0 -8.0519,2.5068 -9.75586,6.4082 -2.92241,0.374 -5.40104,2.23946 -6.55469,4.97266 -4.39144,0.182 -7.92187,3.87284 -7.92187,8.31054 0,4.5813 3.68166,8.3086 8.24219,8.3086 l 25.51562,0 c 4.56087,0 8.24219,-3.7273 8.24219,-8.3086 0,-4.1833 -3.02104,-7.65935 -7.10742,-8.22265 0.0185,-0.2521 0.0293,-0.50897 0.0293,-0.75977 -1e-5,-5.9133 -4.80478,-10.70898 -10.68946,-10.70898 z m -3.23242,12.99997 4,0 0,8 3,0 -5,4 -5,-4 3,0 z"
       id="path510"
       sodipodi:nodetypes="sccsssscsscccccccc" />
    <path
       inkscape:connector-curvature="0"
       style="fill:#2e420b;fill-opacity:0.31372549;stroke:none"
       d="m 251.04715,517.29499 c -0.005,0.10317 -0.004,0.20646 -0.0117,0.30859 0.009,0.001 0.018,0.005 0.0273,0.006 -3.3e-4,-0.10599 -0.0122,-0.20921 -0.0156,-0.31445 z m 7.07617,8.9082 c -0.19786,4.40477 -3.78921,7.92969 -8.22266,7.92969 l -25.51562,0 c -4.42721,0 -8.016,-3.51554 -8.22266,-7.91211 -0.007,0.13455 -0.0195,0.26826 -0.0195,0.4043 0,4.5813 3.68167,8.30859 8.24219,8.30859 l 25.51562,0 c 4.56087,0 8.24219,-3.72729 8.24219,-8.30859 0,-0.14226 -0.0126,-0.28134 -0.0195,-0.42188 z"
       id="path4165" />
    <path
       style="fill:#86ab18;fill-opacity:1;stroke:none"
       d="m 28,24 0,-1 -4,0 0,1 0,7 -3,0 1.242386,1 2.252538,0 0.014,-8 z"
       id="path3003"
       inkscape:connector-curvature="0"
       transform="translate(213.14285,496.93362)"
       sodipodi:nodetypes="cccccccccc" />
    <path
       style="fill:none;stroke:none;stroke-width:1px;stroke-linecap:butt;stroke-linejoin:miter;stroke-opacity:1"
       d="m 28,31 3,0 -1,1 -2,0 z"
       id="path3773"
       inkscape:connector-curvature="0"
       transform="translate(213.14285,496.93362)" />
    <path
       style="fill:#86ab18;fill-opacity:1;stroke:none"
       d="m 28,31 3,0 -1.252538,1 -1.313412,-0.06313 z"
       id="path3775"
       inkscape:connector-curvature="0"
       transform="translate(213.14285,496.93362)"
       sodipodi:nodetypes="ccccc" />
  </g>
</svg>
