<?xml version="1.0" encoding="UTF-8" standalone="no"?>
<svg
   xmlns:dc="http://purl.org/dc/elements/1.1/"
   xmlns:cc="http://creativecommons.org/ns#"
   xmlns:rdf="http://www.w3.org/1999/02/22-rdf-syntax-ns#"
   xmlns:svg="http://www.w3.org/2000/svg"
   xmlns="http://www.w3.org/2000/svg"
   xmlns:xlink="http://www.w3.org/1999/xlink"
   xmlns:sodipodi="http://sodipodi.sourceforge.net/DTD/sodipodi-0.dtd"
   xmlns:inkscape="http://www.inkscape.org/namespaces/inkscape"
   viewBox="0 0 48 48"
   id="svg2"
   version="1.1"
   inkscape:version="0.91 r13725"
   sodipodi:docname="4Pane.svg">
  <metadata
     id="metadata43">
    <rdf:RDF>
      <cc:Work
         rdf:about="">
        <dc:format>image/svg+xml</dc:format>
        <dc:type
           rdf:resource="http://purl.org/dc/dcmitype/StillImage" />
      </cc:Work>
    </rdf:RDF>
  </metadata>
  <sodipodi:namedview
     pagecolor="#ffffff"
     bordercolor="#666666"
     borderopacity="1"
     objecttolerance="10"
     gridtolerance="10"
     guidetolerance="10"
     inkscape:pageopacity="0"
     inkscape:pageshadow="2"
     inkscape:window-width="1366"
     inkscape:window-height="705"
     id="namedview41"
     showgrid="false"
     inkscape:zoom="4.9166667"
     inkscape:cx="-15.492678"
     inkscape:cy="31.698826"
     inkscape:window-x="0"
     inkscape:window-y="28"
     inkscape:window-maximized="1"
     inkscape:current-layer="svg2" />
  <defs
     id="defs4">
    <linearGradient
       id="linearGradient3764"
       x1="1"
       x2="47"
       gradientUnits="userSpaceOnUse"
       gradientTransform="matrix(0,-1,1,0,-1.5e-6,47.999998)">
      <stop
         style="stop-color:#39569d;stop-opacity:1"
         id="stop7" />
      <stop
         offset="1"
         style="stop-color:#3f5eab;stop-opacity:1"
         id="stop9" />
    </linearGradient>
    <linearGradient
       inkscape:collect="always"
       xlink:href="#linearGradient3412"
       id="linearGradient3237"
       gradientUnits="userSpaceOnUse"
       gradientTransform="matrix(0.83333307,0,0,0.83333307,-317.03371,412.80361)"
       x1="379.57144"
       y1="-527.79797"
       x2="431.57144"
       y2="-527.79797" />
    <linearGradient
       id="linearGradient3412">
      <stop
         style="stop-color:#1976d2;stop-opacity:1"
         offset="0"
         id="stop3414" />
      <stop
         style="stop-color:#42a5f5;stop-opacity:1"
         offset="1"
         id="stop3416" />
    </linearGradient>
  </defs>
  <g
     id="g3229"
     transform="translate(0.55761199,0.30529681)">
    <rect
       transform="scale(1,-1)"
       ry="0"
       y="-43.694542"
       x="3.4424012"
       height="39.999989"
       width="39.999989"
       id="rect3231"
       style="fill:url(#linearGradient3237);fill-opacity:1;stroke:none" />
    <path
       sodipodi:nodetypes="cccc"
       inkscape:connector-curvature="0"
       id="path3233"
       d="m 3.4423873,43.694552 40.0000007,3.01e-4 c -20,-0.999999 -20,-0.999999 -40.0000017,0 z"
       style="opacity:0.35;fill:#000000;fill-opacity:1;stroke:none" />
    <path
       style="opacity:0.5;fill:#ffffff;fill-opacity:1;stroke:none"
       d="M 3.4423913,3.6947551 43.442388,3.6945549 c -19.999996,1.0000006 -19.999996,1.0000006 -39.9999977,0 z"
       id="path3235"
       inkscape:connector-curvature="0"
       sodipodi:nodetypes="cccc" />
  </g>
  <g
     id="g23">
    <g
       id="g25">
      <g
         transform="translate(1,1)"
         id="g27">
        <g
           style="opacity:0.1"
           id="g29">
          <!-- color: #3a569c -->
        </g>
      </g>
    </g>
  </g>
  <g
     transform="translate(0,2)"
     style="fill:#000;fill-opacity:1;stroke:none"
     id="g35">
    <path
       d="m 24.006728,9.7842725 -11,17.5000005 0,4.5 11,0 0,4 5,0 0,-9 2,0 c 5,0 8,-4 8,-8.5 0,-4.5 -3,-8.5000005 -8,-8.5000005 -2.333,0 -4.667,0 -7,0 z m 5,5.0000005 1.5,0 c 2.5,0 3.5,2 3.5,3.5 0,1.5 -1,3.5 -3.5,3.5 l -1.5,0 m -5,-3.096 0,8.096 -5,0"
       style="opacity:0.1"
       id="path37"
       inkscape:connector-curvature="0" />
    <path
       d="m 22 11 -11 17.5 0 4.5 11 0 0 4 5 0 0 -9 2 0 c 5 0 8 -4 8 -8.5 c 0 -4.5 -3 -8.5 -8 -8.5 c -2.333 0 -4.667 0 -7 0 z m 5 5 1.5 0 c 2.5 0 3.5 2 3.5 3.5 0 1.5 -1 3.5 -3.5 3.5 l -1.5 0 m -5 -3.096 0 8.096 -5 0"
       transform="translate(0,-2)"
       style="fill:#f3f5f5"
       id="path39" />
  </g>
</svg>
