<?xml version="1.0" encoding="UTF-8" standalone="no"?>
<!-- Created with Inkscape (http://www.inkscape.org/) -->

<svg
   xmlns:dc="http://purl.org/dc/elements/1.1/"
   xmlns:cc="http://creativecommons.org/ns#"
   xmlns:rdf="http://www.w3.org/1999/02/22-rdf-syntax-ns#"
   xmlns:svg="http://www.w3.org/2000/svg"
   xmlns="http://www.w3.org/2000/svg"
   xmlns:xlink="http://www.w3.org/1999/xlink"
   xmlns:sodipodi="http://sodipodi.sourceforge.net/DTD/sodipodi-0.dtd"
   xmlns:inkscape="http://www.inkscape.org/namespaces/inkscape"
   width="48"
   height="48"
   id="svg5453"
   version="1.1"
   inkscape:version="0.91pre2 r13516"
   sodipodi:docname="8-ball-pool.svg">
  <defs
     id="defs5455">
    <linearGradient
       inkscape:collect="always"
       id="linearGradient6742">
      <stop
         style="stop-color:#292a2a;stop-opacity:1"
         offset="0"
         id="stop6744" />
      <stop
         style="stop-color:#0d0d0d;stop-opacity:1"
         offset="1"
         id="stop6746" />
    </linearGradient>
    <linearGradient
       inkscape:collect="always"
       xlink:href="#linearGradient6742"
       id="linearGradient6810"
       x1="408.60489"
       y1="527.3266"
       x2="408.60489"
       y2="520.16156"
       gradientUnits="userSpaceOnUse" />
    <linearGradient
       inkscape:collect="always"
       xlink:href="#linearGradient6742"
       id="linearGradient4179"
       x1="423.57144"
       y1="525.79797"
       x2="393.57144"
       y2="525.79797"
       gradientUnits="userSpaceOnUse"
       gradientTransform="matrix(1.1688329,0,0,1.1688329,-68.980305,-88.434336)" />
    <linearGradient
       inkscape:collect="always"
       xlink:href="#linearGradient6742"
       id="linearGradient4181"
       gradientUnits="userSpaceOnUse"
       x1="408.60489"
       y1="527.3266"
       x2="408.60489"
       y2="520.16156" />
  </defs>
  <sodipodi:namedview
     id="base"
     pagecolor="#ffffff"
     bordercolor="#666666"
     borderopacity="1.0"
     inkscape:pageopacity="0"
     inkscape:pageshadow="2"
     inkscape:zoom="12.212143"
     inkscape:cx="28.054138"
     inkscape:cy="23.534242"
     inkscape:document-units="px"
     inkscape:current-layer="layer1"
     showgrid="true"
     fit-margin-top="0"
     fit-margin-left="0"
     fit-margin-right="0"
     fit-margin-bottom="0"
     inkscape:window-width="1301"
     inkscape:window-height="744"
     inkscape:window-x="65"
     inkscape:window-y="24"
     inkscape:window-maximized="1"
     inkscape:showpageshadow="false"
     borderlayer="true"
     inkscape:snap-global="true"
     inkscape:snap-bbox="true"
     inkscape:snap-bbox-edge-midpoints="true"
     inkscape:bbox-nodes="true">
    <inkscape:grid
       type="xygrid"
       id="grid3367" />
  </sodipodi:namedview>
  <metadata
     id="metadata5458">
    <rdf:RDF>
      <cc:Work
         rdf:about="">
        <dc:format>image/svg+xml</dc:format>
        <dc:type
           rdf:resource="http://purl.org/dc/dcmitype/StillImage" />
        <dc:title />
      </cc:Work>
    </rdf:RDF>
  </metadata>
  <g
     inkscape:label="Capa 1"
     inkscape:groupmode="layer"
     id="layer1"
     transform="translate(-384.57143,-499.798)">
    <circle
       style="fill:#ffffff;fill-opacity:1;stroke:none"
       id="circle4150"
       cx="408.57144"
       cy="524.70795"
       r="20.090057" />
    <circle
       r="20.090057"
       cy="523.79797"
       cx="408.57144"
       id="circle3365"
       style="fill:#666666;fill-opacity:1;stroke:none"
       d="m 428.6615,523.79797 a 20.090057,20.090057 0 0 1 -20.09006,20.09006 20.090057,20.090057 0 0 1 -20.09006,-20.09006 20.090057,20.090057 0 0 1 20.09006,-20.09005 20.090057,20.090057 0 0 1 20.09006,20.09005 z" />
    <circle
       style="fill:url(#linearGradient4179);fill-opacity:1;stroke:none"
       id="path5295"
       cx="408.57144"
       cy="523.79797"
       r="18.000027"
       d="m 426.57147,523.79797 a 18.000027,18.000027 0 0 1 -18.00003,18.00003 18.000027,18.000027 0 0 1 -18.00003,-18.00003 18.000027,18.000027 0 0 1 18.00003,-18.00002 18.000027,18.000027 0 0 1 18.00003,18.00002 z" />
    <rect
       style="fill:#ffffff;fill-opacity:1;stroke:none"
       id="rect6820"
       width="13.208078"
       height="12.857428"
       x="401.96741"
       y="517.36932"
       ry="6.4287138" />
    <g
       style="font-style:normal;font-weight:normal;font-size:10px;line-height:125%;font-family:Sans;letter-spacing:0px;word-spacing:0px;fill:url(#linearGradient6810);fill-opacity:1;stroke:none"
       id="text6797"
       transform="matrix(1.1688329,0,0,1.1688329,-68.980305,-88.434336)">
      <path
         d="m 410.91763,525.32141 q 0,0.43945 -0.1416,0.81055 -0.13672,0.36621 -0.4248,0.63476 -0.28321,0.26856 -0.72754,0.41993 -0.44434,0.15136 -1.04981,0.15136 -0.60547,0 -1.0498,-0.15136 -0.43945,-0.15137 -0.73242,-0.41504 -0.28809,-0.26856 -0.42969,-0.63477 -0.13672,-0.37109 -0.13672,-0.80566 0,-0.37598 0.1123,-0.66895 0.11719,-0.29297 0.30762,-0.50293 0.19531,-0.21484 0.43946,-0.3418 0.24902,-0.13183 0.51269,-0.17578 l 0,-0.0195 q -0.28809,-0.0684 -0.51758,-0.21972 -0.22461,-0.15137 -0.38086,-0.36133 -0.15136,-0.21485 -0.23437,-0.47364 -0.0781,-0.25878 -0.0781,-0.54687 0,-0.36133 0.13672,-0.67871 0.1416,-0.32227 0.41504,-0.56152 0.27344,-0.24415 0.67871,-0.38086 0.40528,-0.14161 0.9375,-0.14161 0.56153,0 0.97168,0.14161 0.41504,0.1416 0.6836,0.38574 0.27343,0.23926 0.40527,0.56152 0.13183,0.32227 0.13183,0.6836 0,0.2832 -0.083,0.54199 -0.0781,0.25879 -0.23438,0.47363 -0.15137,0.20996 -0.38086,0.36133 -0.22461,0.14648 -0.52246,0.20508 l 0,0.0195 q 0.29785,0.0488 0.55176,0.18066 0.25391,0.12696 0.43945,0.3418 0.18555,0.20996 0.29297,0.50293 0.10742,0.29297 0.10742,0.66406 z m -1.08398,-3.24219 q 0,-0.25879 -0.0684,-0.47363 -0.0635,-0.21484 -0.21484,-0.36621 -0.15137,-0.15625 -0.39551,-0.23926 -0.24414,-0.0879 -0.60059,-0.0879 -0.34668,0 -0.58594,0.0879 -0.23925,0.083 -0.3955,0.23926 -0.15137,0.15137 -0.21973,0.36621 -0.0684,0.21484 -0.0684,0.47363 0,0.20508 0.0537,0.41993 0.0537,0.21484 0.19531,0.39062 0.14161,0.17578 0.39063,0.28809 0.24902,0.1123 0.63965,0.1123 0.41504,0 0.66406,-0.1123 0.25391,-0.11231 0.38574,-0.28809 0.13672,-0.17578 0.17578,-0.39062 0.0439,-0.21485 0.0439,-0.41993 z m 0.1709,3.15918 q 0,-0.24902 -0.0684,-0.47851 -0.0684,-0.23438 -0.23438,-0.41016 -0.16601,-0.18066 -0.44922,-0.28808 -0.27832,-0.11231 -0.69824,-0.11231 -0.38574,0 -0.65918,0.11231 -0.26855,0.10742 -0.43945,0.28808 -0.16602,0.18067 -0.24414,0.41992 -0.0781,0.23438 -0.0781,0.48828 0,0.31739 0.0781,0.58106 0.0781,0.25879 0.24902,0.44922 0.1709,0.18554 0.44922,0.28808 0.27832,0.10254 0.67383,0.10254 0.40039,0 0.67383,-0.10254 0.27343,-0.10254 0.43945,-0.28808 0.16602,-0.19043 0.23437,-0.4541 0.0732,-0.26856 0.0732,-0.59571 z"
         style="fill:url(#linearGradient4181);fill-opacity:1"
         id="path6802"
         inkscape:connector-curvature="0" />
    </g>
  </g>
</svg>
