<?xml version="1.0" encoding="UTF-8" standalone="no"?>
<svg
   xmlns:dc="http://purl.org/dc/elements/1.1/"
   xmlns:cc="http://creativecommons.org/ns#"
   xmlns:rdf="http://www.w3.org/1999/02/22-rdf-syntax-ns#"
   xmlns:svg="http://www.w3.org/2000/svg"
   xmlns="http://www.w3.org/2000/svg"
   xmlns:xlink="http://www.w3.org/1999/xlink"
   xmlns:sodipodi="http://sodipodi.sourceforge.net/DTD/sodipodi-0.dtd"
   xmlns:inkscape="http://www.inkscape.org/namespaces/inkscape"
   viewBox="0 0 48 48"
   id="svg2"
   version="1.1"
   inkscape:version="0.91 r13725"
   sodipodi:docname="abgx360gui.svg">
  <metadata
     id="metadata43">
    <rdf:RDF>
      <cc:Work
         rdf:about="">
        <dc:format>image/svg+xml</dc:format>
        <dc:type
           rdf:resource="http://purl.org/dc/dcmitype/StillImage" />
      </cc:Work>
    </rdf:RDF>
  </metadata>
  <sodipodi:namedview
     pagecolor="#ffffff"
     bordercolor="#666666"
     borderopacity="1"
     objecttolerance="10"
     gridtolerance="10"
     guidetolerance="10"
     inkscape:pageopacity="0"
     inkscape:pageshadow="2"
     inkscape:window-width="1366"
     inkscape:window-height="705"
     id="namedview41"
     showgrid="false"
     inkscape:zoom="4.9166667"
     inkscape:cx="24"
     inkscape:cy="24"
     inkscape:window-x="0"
     inkscape:window-y="28"
     inkscape:window-maximized="1"
     inkscape:current-layer="svg2" />
  <defs
     id="defs4">
    <linearGradient
       inkscape:collect="always"
       xlink:href="#linearGradient3757"
       id="linearGradient3737"
       gradientUnits="userSpaceOnUse"
       gradientTransform="matrix(0.83333307,0,0,0.83333307,-317.03371,412.80361)"
       x1="379.57144"
       y1="-527.79797"
       x2="431.57144"
       y2="-527.79797" />
    <linearGradient
       id="linearGradient3757">
      <stop
         id="stop3759"
         offset="0"
         style="stop-color:#65d965;stop-opacity:1" />
      <stop
         id="stop3761"
         offset="1"
         style="stop-color:#89ea89;stop-opacity:1" />
    </linearGradient>
  </defs>
  <g
     transform="translate(0.55761199,0.30529681)"
     id="g3657">
    <rect
       style="fill:url(#linearGradient3737);fill-opacity:1;stroke:none"
       id="rect3659"
       width="39.999989"
       height="39.999989"
       x="3.4424012"
       y="-43.694542"
       ry="0"
       transform="scale(1,-1)" />
    <path
       style="opacity:0.35;fill:#000000;fill-opacity:1;stroke:none"
       d="m 3.4423873,43.694552 40.0000007,3.01e-4 c -20,-0.999999 -20,-0.999999 -40.0000017,0 z"
       id="path3661"
       inkscape:connector-curvature="0"
       sodipodi:nodetypes="cccc" />
    <path
       sodipodi:nodetypes="cccc"
       inkscape:connector-curvature="0"
       id="path3663"
       d="M 3.4423913,3.6947551 43.442388,3.6945549 c -19.999996,1.0000006 -19.999996,1.0000006 -39.9999977,0 z"
       style="opacity:0.5;fill:#ffffff;fill-opacity:1;stroke:none" />
  </g>
  <g
     id="g21">
    <g
       id="g23">
      <g
         transform="translate(1,1)"
         id="g25">
        <g
           style="opacity:0.1"
           id="g27">
          <!-- color: #e08659 -->
          <g
             id="g29">
            <path
               d="m 24 12 c -6.633 0 -12 5.363 -12 11.984 c 0 6.621 5.367 12.02 12 12.02 c 6.633 0 12 -5.395 12 -12.02 c 0 -6.621 -5.367 -11.984 -12 -11.984 m 6.543 4.973 c 2.879 0.871 3.633 4.992 1.402 6.598 l 1.809 6.84 l -2.508 0.617 l -1.789 -6.789 c -3.184 -0.785 -3.914 -3.563 -2.01 -6.406 l 2.043 3.793 l 1.188 -0.352 m -6.68 0.512 c 1.23 0 2.203 0.98 2.203 2.199 c 0 1.219 -0.977 2.23 -2.203 2.23 c -1.223 0 -2.195 -1.012 -2.195 -2.23 c 0 -1.219 0.977 -2.199 2.195 -2.199 m 0 0"
               style="fill:#000;fill-opacity:1;stroke:none;fill-rule:nonzero"
               id="path31" />
          </g>
        </g>
      </g>
    </g>
  </g>
  <g
     id="g33">
    <path
       d="m 24,12 c -6.633,0 -12,5.363 -12,11.984 0,6.621 5.367,12.02 12,12.02 6.633,0 12,-5.395 12,-12.02 C 36,17.363 30.633,12 24,12 m 6.543,4.973 c 2.879,0.871 3.633,4.992 1.402,6.598 l 1.809,6.84 -2.508,0.617 -1.789,-6.789 c -3.184,-0.785 -3.914,-3.563 -2.01,-6.406 l 2.043,3.793 1.188,-0.352 m -6.68,0.512 c 1.23,0 2.203,0.98 2.203,2.199 0,1.219 -0.977,2.23 -2.203,2.23 -1.223,0 -2.195,-1.012 -2.195,-2.23 0,-1.219 0.977,-2.199 2.195,-2.199 m 0,0"
       style="fill:#fff;fill-opacity:1;stroke:none;fill-rule:nonzero"
       id="path35" />
  </g>
</svg>
