<?xml version="1.0" encoding="UTF-8" standalone="no"?>
<svg
   xmlns:dc="http://purl.org/dc/elements/1.1/"
   xmlns:cc="http://creativecommons.org/ns#"
   xmlns:rdf="http://www.w3.org/1999/02/22-rdf-syntax-ns#"
   xmlns:svg="http://www.w3.org/2000/svg"
   xmlns="http://www.w3.org/2000/svg"
   xmlns:xlink="http://www.w3.org/1999/xlink"
   xmlns:sodipodi="http://sodipodi.sourceforge.net/DTD/sodipodi-0.dtd"
   xmlns:inkscape="http://www.inkscape.org/namespaces/inkscape"
   viewBox="0 0 48 48"
   id="svg2"
   version="1.1"
   inkscape:version="0.91 r13725"
   sodipodi:docname="accessories-screenshot.svg">
  <metadata
     id="metadata78">
    <rdf:RDF>
      <cc:Work
         rdf:about="">
        <dc:format>image/svg+xml</dc:format>
        <dc:type
           rdf:resource="http://purl.org/dc/dcmitype/StillImage" />
      </cc:Work>
    </rdf:RDF>
  </metadata>
  <sodipodi:namedview
     pagecolor="#ffffff"
     bordercolor="#666666"
     borderopacity="1"
     objecttolerance="10"
     gridtolerance="10"
     guidetolerance="10"
     inkscape:pageopacity="0"
     inkscape:pageshadow="2"
     inkscape:window-width="1366"
     inkscape:window-height="705"
     id="namedview76"
     showgrid="false"
     inkscape:zoom="9.8333333"
     inkscape:cx="24.995128"
     inkscape:cy="17.126267"
     inkscape:window-x="0"
     inkscape:window-y="28"
     inkscape:window-maximized="1"
     inkscape:current-layer="svg2" />
  <defs
     id="defs4">
    <radialGradient
       id="radial0"
       gradientUnits="userSpaceOnUse"
       cx="6.773"
       cy="5.927"
       r="0.564"
       gradientTransform="matrix(3.543307,0,0,3.543307,0.000000147638,0.000377575)">
      <stop
         style="stop-color:#8eb0c7;stop-opacity:1"
         id="stop17" />
      <stop
         offset="1"
         style="stop-color:#8eb0c7;stop-opacity:0"
         id="stop19" />
    </radialGradient>
    <radialGradient
       id="radial1"
       gradientUnits="userSpaceOnUse"
       cx="6"
       cy="17.292"
       r="1"
       gradientTransform="matrix(0.6394453,0,0,0.6394453,20.163328,14.221584)"
       xlink:href="#radial0" />
    <radialGradient
       xlink:href="#radial0"
       id="radialGradient3427"
       gradientUnits="userSpaceOnUse"
       gradientTransform="matrix(2.265751,0,0,2.265751,8.6533129,8.6535542)"
       cx="6.773"
       cy="5.927"
       r="0.564" />
    <linearGradient
       gradientUnits="userSpaceOnUse"
       y2="-527.79797"
       x2="431.57144"
       y1="-527.79797"
       x1="379.57144"
       id="linearGradient4172"
       xlink:href="#linearGradient5277"
       inkscape:collect="always"
       gradientTransform="matrix(0.83333307,0,0,0.83333307,-317.03371,412.80361)" />
    <linearGradient
       id="linearGradient5277">
      <stop
         id="stop5279"
         offset="0"
         style="stop-color:#333333;stop-opacity:1" />
      <stop
         id="stop5281"
         offset="1"
         style="stop-color:#666666;stop-opacity:1" />
    </linearGradient>
  </defs>
  <g
     id="g3208"
     transform="translate(0.55761199,0.30529681)">
    <rect
       transform="scale(1,-1)"
       ry="0"
       y="-43.694542"
       x="3.4424012"
       height="39.999989"
       width="39.999989"
       id="rect2991-1-7"
       style="fill:url(#linearGradient4172);fill-opacity:1;stroke:none" />
    <path
       sodipodi:nodetypes="cccc"
       inkscape:connector-curvature="0"
       id="path3800"
       d="m 3.4423873,43.694552 40.0000007,3.01e-4 c -20,-0.999999 -20,-0.999999 -40.0000017,0 z"
       style="opacity:0.35;fill:#000000;fill-opacity:1;stroke:none" />
    <path
       style="opacity:0.5;fill:#ffffff;fill-opacity:1;stroke:none"
       d="M 3.4423913,3.6947551 43.442388,3.6945549 c -19.999996,1.0000006 -19.999996,1.0000006 -39.9999977,0 z"
       id="path3804"
       inkscape:connector-curvature="0"
       sodipodi:nodetypes="cccc" />
  </g>
  <path
     d="m 34 25 c 0 4.969 -4.03 9 -9 9 -4.969 0 -9 -4.03 -9 -9 0 -4.969 4.03 -9 9 -9 4.969 0 9 4.03 9 9 m 0 0"
     style="fill:#000;opacity:0.1;fill-opacity:1;stroke:none;fill-rule:nonzero"
     id="path58" />
  <path
     d="m 33 24 c 0 4.969 -4.03 9 -9 9 -4.969 0 -9 -4.03 -9 -9 0 -4.969 4.03 -9 9 -9 4.969 0 9 4.03 9 9 m 0 0"
     style="fill:#f9f9f9;fill-opacity:1;stroke:none;fill-rule:nonzero"
     id="path60" />
  <path
     d="m 32 24 c 0 4.417 -3.583 8 -8 8 -4.417 0 -8 -3.583 -8 -8 0 -4.417 3.583 -8 8 -8 4.417 0 8 3.583 8 8 m 0 0"
     style="fill:#355362;fill-opacity:1;stroke:none;fill-rule:nonzero"
     id="path62" />
  <path
     d="m 30 24 c 0 3.314 -2.686 6 -6 6 -3.314 0 -6 -2.686 -6 -6 0 -3.314 2.686 -6 6 -6 3.314 0 6 2.686 6 6 m 0 0"
     style="fill:#53697f;fill-opacity:1;stroke:none;fill-rule:nonzero"
     id="path64" />
  <path
     d="m 28 24 c 0 2.209 -1.792 4 -4 4 -2.209 0 -4 -1.792 -4 -4 0 -2.209 1.792 -4 4 -4 2.209 0 4 1.792 4 4 m 0 0"
     style="fill:#355362;fill-opacity:1;stroke:none;fill-rule:nonzero"
     id="path66" />
  <path
     d="m 25.279 22.08 c 0 0.707 -0.572 1.279 -1.279 1.279 -0.707 0 -1.279 -0.572 -1.279 -1.279 0 -0.707 0.572 -1.279 1.279 -1.279 0.707 0 1.279 0.572 1.279 1.279 m 0 0"
     style="fill:url(#radialGradient3427);stroke:none;fill-rule:nonzero"
     id="path68" />
  <path
     d="m 24.639 25.279 c 0 0.352 -0.287 0.639 -0.639 0.639 -0.352 0 -0.639 -0.287 -0.639 -0.639 0 -0.352 0.287 -0.639 0.639 -0.639 0.352 0 0.639 0.287 0.639 0.639 m 0 0"
     style="fill:url(#radial1);stroke:none;fill-rule:nonzero"
     id="path70" />
</svg>
