<?xml version="1.0" encoding="UTF-8" standalone="no"?>
<!-- Created with Inkscape (http://www.inkscape.org/) -->

<svg
   xmlns:dc="http://purl.org/dc/elements/1.1/"
   xmlns:cc="http://creativecommons.org/ns#"
   xmlns:rdf="http://www.w3.org/1999/02/22-rdf-syntax-ns#"
   xmlns:svg="http://www.w3.org/2000/svg"
   xmlns="http://www.w3.org/2000/svg"
   xmlns:xlink="http://www.w3.org/1999/xlink"
   xmlns:sodipodi="http://sodipodi.sourceforge.net/DTD/sodipodi-0.dtd"
   xmlns:inkscape="http://www.inkscape.org/namespaces/inkscape"
   width="48"
   height="48"
   id="svg2"
   version="1.1"
   inkscape:version="0.91 r13725"
   sodipodi:docname="audiobook.svg"
   inkscape:export-filename="/home/uri/Iconos/NITRUX/apps/16/wine-notepad.png"
   inkscape:export-xdpi="30"
   inkscape:export-ydpi="30">
  <defs
     id="defs4">
    <linearGradient
       id="linearGradient3838">
      <stop
         style="stop-color:#ffffff;stop-opacity:1;"
         offset="0"
         id="stop3840" />
      <stop
         style="stop-color:#ffffff;stop-opacity:1;"
         offset="1"
         id="stop3842" />
    </linearGradient>
    <linearGradient
       id="linearGradient3830">
      <stop
         style="stop-color:#aa0000;stop-opacity:1;"
         offset="0"
         id="stop3832" />
      <stop
         style="stop-color:#9b3d3d;stop-opacity:1;"
         offset="1"
         id="stop3834" />
    </linearGradient>
    <linearGradient
       id="linearGradient3820">
      <stop
         style="stop-color:#aa0000;stop-opacity:1;"
         offset="0"
         id="stop3822" />
      <stop
         style="stop-color:#d82c2c;stop-opacity:1;"
         offset="1"
         id="stop3824" />
    </linearGradient>
    <linearGradient
       id="linearGradient3766">
      <stop
         style="stop-color:#336ab5;stop-opacity:1;"
         offset="0"
         id="stop3768" />
      <stop
         style="stop-color:#6cb6f7;stop-opacity:1;"
         offset="1"
         id="stop3770" />
    </linearGradient>
    <linearGradient
       inkscape:collect="always"
       xlink:href="#linearGradient3820"
       id="linearGradient3826"
       x1="4"
       y1="1028.3622"
       x2="44"
       y2="1028.3622"
       gradientUnits="userSpaceOnUse" />
    <linearGradient
       inkscape:collect="always"
       xlink:href="#linearGradient3838"
       id="linearGradient3844"
       x1="4"
       y1="24"
       x2="11"
       y2="24"
       gradientUnits="userSpaceOnUse" />
  </defs>
  <sodipodi:namedview
     id="base"
     pagecolor="#ffffff"
     bordercolor="#666666"
     borderopacity="1.0"
     inkscape:pageopacity="0.0"
     inkscape:pageshadow="2"
     inkscape:zoom="7.9999999"
     inkscape:cx="5.1800818"
     inkscape:cy="32.181195"
     inkscape:document-units="px"
     inkscape:current-layer="layer1"
     showgrid="true"
     inkscape:window-width="1366"
     inkscape:window-height="705"
     inkscape:window-x="0"
     inkscape:window-y="28"
     inkscape:window-maximized="1"
     inkscape:object-nodes="true"
     inkscape:snap-bbox="true">
    <inkscape:grid
       type="xygrid"
       id="grid3797" />
  </sodipodi:namedview>
  <metadata
     id="metadata7">
    <rdf:RDF>
      <cc:Work
         rdf:about="">
        <dc:format>image/svg+xml</dc:format>
        <dc:type
           rdf:resource="http://purl.org/dc/dcmitype/StillImage" />
        <dc:title />
      </cc:Work>
    </rdf:RDF>
  </metadata>
  <g
     inkscape:label="Capa 1"
     inkscape:groupmode="layer"
     id="layer1"
     transform="translate(0,-1004.3622)">
    <rect
       style="opacity:0.75000000000000000;fill:url(#linearGradient3826);fill-opacity:1;stroke:none"
       id="rect3758"
       width="40"
       height="40"
       x="4"
       y="1008.3622"
       ry="0" />
    <path
       style="fill:#000000;fill-opacity:1;stroke:none;opacity:0.35"
       d="m 3.9999965,1048.362 39.9999975,3e-4 c -19.999997,-1 -19.999997,-1 -39.9999989,0 z"
       id="path3800"
       inkscape:connector-curvature="0"
       sodipodi:nodetypes="cccc" />
    <path
       sodipodi:nodetypes="cccc"
       inkscape:connector-curvature="0"
       id="path3804"
       d="m 4,1008.3622 39.999997,-2e-4 c -19.999996,1 -19.999996,1 -39.9999984,0 z"
       style="fill:#ffffff;fill-opacity:1;stroke:none;opacity:0.75" />
    <g
       style="font-style:normal;font-variant:normal;font-weight:normal;font-stretch:normal;font-size:22px;line-height:125%;font-family:'Nexa Light';-inkscape-font-specification:'Nexa Light';letter-spacing:0px;word-spacing:0px;opacity:0.9;fill:#ffffff;fill-opacity:1;stroke:none"
       id="text3846">
      <path
         d="m 15.327,1028.8062 0.792,-2.464 c 0.572,-1.826 1.1,-3.564 1.606,-5.456 l 0.088,0 c 0.528,1.87 1.034,3.63 1.628,5.456 l 0.77,2.464 -4.884,0 z m 6.93,6.556 2.156,0 -5.478,-16.126 -2.266,0 -5.478,16.126 2.068,0 1.562,-4.928 5.896,0 1.54,4.928 z"
         style=""
         id="path3158" />
      <path
         d="m 29.820875,1035.6482 c 1.474,0 2.816,-0.77 3.96,-1.716 l 0.066,0 0.176,1.43 1.65,0 0,-7.348 c 0,-2.948 -1.232,-4.906 -4.136,-4.906 -1.914,0 -3.608,0.858 -4.708,1.562 l 0.792,1.386 c 0.946,-0.638 2.2,-1.276 3.586,-1.276 1.958,0 2.464,1.474 2.464,3.014 -5.082,0.572 -7.348,1.87 -7.348,4.466 0,2.156 1.496,3.388 3.498,3.388 z m 0.572,-1.606 c -1.188,0 -2.112,-0.55 -2.112,-1.914 0,-1.54 1.364,-2.53 5.39,-3.014 l 0,3.344 c -1.166,1.034 -2.112,1.584 -3.278,1.584 z"
         style=""
         id="path3160" />
    </g>
  </g>
</svg>
