<?xml version="1.0" encoding="UTF-8" standalone="no"?>
<svg
   xmlns:dc="http://purl.org/dc/elements/1.1/"
   xmlns:cc="http://creativecommons.org/ns#"
   xmlns:rdf="http://www.w3.org/1999/02/22-rdf-syntax-ns#"
   xmlns:svg="http://www.w3.org/2000/svg"
   xmlns="http://www.w3.org/2000/svg"
   xmlns:xlink="http://www.w3.org/1999/xlink"
   xmlns:sodipodi="http://sodipodi.sourceforge.net/DTD/sodipodi-0.dtd"
   xmlns:inkscape="http://www.inkscape.org/namespaces/inkscape"
   viewBox="0 0 48 48"
   id="svg2"
   version="1.1"
   inkscape:version="0.91 r13725"
   sodipodi:docname="aceofspades.svg">
  <metadata
     id="metadata55">
    <rdf:RDF>
      <cc:Work
         rdf:about="">
        <dc:format>image/svg+xml</dc:format>
        <dc:type
           rdf:resource="http://purl.org/dc/dcmitype/StillImage" />
      </cc:Work>
    </rdf:RDF>
  </metadata>
  <sodipodi:namedview
     pagecolor="#ffffff"
     bordercolor="#666666"
     borderopacity="1"
     objecttolerance="10"
     gridtolerance="10"
     guidetolerance="10"
     inkscape:pageopacity="0"
     inkscape:pageshadow="2"
     inkscape:window-width="686"
     inkscape:window-height="485"
     id="namedview53"
     showgrid="false"
     inkscape:zoom="3.4766083"
     inkscape:cx="24.380205"
     inkscape:cy="24.603331"
     inkscape:window-x="666"
     inkscape:window-y="81"
     inkscape:window-maximized="0"
     inkscape:current-layer="svg2" />
  <defs
     id="defs4">
    <linearGradient
       inkscape:collect="always"
       xlink:href="#linearGradient3859"
       id="linearGradient3739"
       gradientUnits="userSpaceOnUse"
       gradientTransform="matrix(0.83333307,0,0,0.83333307,-317.03371,412.80361)"
       x1="379.57144"
       y1="-527.79797"
       x2="431.57144"
       y2="-527.79797" />
    <linearGradient
       id="linearGradient3859">
      <stop
         id="stop3861"
         offset="0"
         style="stop-color:#cccccc;stop-opacity:1" />
      <stop
         id="stop3863"
         offset="1"
         style="stop-color:#ececec;stop-opacity:1" />
    </linearGradient>
  </defs>
  <g
     id="g3665"
     transform="translate(0.55761199,0.30529681)">
    <rect
       transform="scale(1,-1)"
       ry="0"
       y="-43.694542"
       x="3.4424012"
       height="39.999989"
       width="39.999989"
       id="rect3667"
       style="fill:url(#linearGradient3739);fill-opacity:1;stroke:none" />
    <path
       sodipodi:nodetypes="cccc"
       inkscape:connector-curvature="0"
       id="path3669"
       d="m 3.4423873,43.694552 40.0000007,3.01e-4 c -20,-0.999999 -20,-0.999999 -40.0000017,0 z"
       style="opacity:0.35;fill:#000000;fill-opacity:1;stroke:none" />
    <path
       style="opacity:0.5;fill:#ffffff;fill-opacity:1;stroke:none"
       d="M 3.4423913,3.6947551 43.442388,3.6945549 c -19.999996,1.0000006 -19.999996,1.0000006 -39.9999977,0 z"
       id="path3671"
       inkscape:connector-curvature="0"
       sodipodi:nodetypes="cccc" />
  </g>
  <path
     d="m 13 13 0 2 -2 0 0 10 2 0 0 9 2 0 0 1 1 0 0 2 9 0 9 0 0 -2 1 0 0 -1 2 0 0 -9 2 0 0 -10 -2 0 0 -2 -12 0 -12 0 z"
     style="fill:#000;opacity:0.1;fill-opacity:1;stroke:none;fill-rule:nonzero"
     id="path23" />
  <path
     d="m 12 12 l 0 2 l -2 0 l 0 10 l 14 0 l 14 0 l 0 -10 l -2 0 l 0 -2 l -12 0 l -12 0 z"
     style="fill:#789911;opacity:1;fill-opacity:1;stroke:none;fill-rule:nonzero"
     id="path29" />
  <path
     d="m 12 14 l 0 10 l 12 0 l 12 0 l 0 -10 l -12 0 l -12 0 z"
     style="fill:#9ac011;opacity:1;fill-opacity:1;stroke:none;fill-rule:nonzero"
     id="path31" />
  <path
     d="m 14 24 l 0 10 l 10 0 l 10 0 l 0 -10 l -10 0 l -10 0 z"
     style="fill:#ecc593;opacity:1;fill-opacity:1;stroke:none;fill-rule:nonzero"
     id="path33" />
  <path
     d="m 15 34 l 0 2 l 9 0 l 9 0 l 0 -2 l -9 0 l -9 0 z"
     style="fill:#cbaf75;opacity:1;fill-opacity:1;stroke:none;fill-rule:nonzero"
     id="path35" />
  <rect
     width="2"
     height="9"
     x="12"
     y="24"
     style="fill:#cbaf75;opacity:1;fill-opacity:1;stroke:none;fill-rule:nonzero"
     id="rect37" />
  <rect
     width="4"
     height="4"
     x="16"
     y="24"
     style="fill:#353535;opacity:1;fill-opacity:1;stroke:none;fill-rule:nonzero"
     id="rect39" />
  <path
     d="m 22 24 l 0 3 l 2 0 l 2 0 l 0 -3 l -2 0 l -2 0 z"
     style="fill:#e3a258;opacity:1;fill-opacity:1;stroke:none;fill-rule:nonzero"
     id="path41" />
  <path
     d="m 21 30 0 2 4 0 0 -2 z"
     style="fill:#717169;opacity:1;fill-opacity:1;stroke:none;fill-rule:nonzero"
     id="path43" />
  <rect
     y="24"
     x="-36"
     height="9"
     width="2"
     transform="scale(-1,1)"
     style="fill:#cbaf75;opacity:1;fill-opacity:1;stroke:none;fill-rule:nonzero"
     id="rect45" />
  <rect
     y="24"
     x="-32"
     height="4"
     width="4"
     transform="scale(-1,1)"
     style="fill:#353535;opacity:1;fill-opacity:1;stroke:none;fill-rule:nonzero"
     id="rect47" />
  <path
     d="m 26 29 l -1 1 l 0 2 l 2 0 l 1 -1 l -2 0 l 0 -2 z"
     style="fill:#554025;opacity:1;fill-opacity:1;stroke:none;fill-rule:nonzero"
     id="path49" />
  <rect
     width="2"
     height="2"
     x="26"
     y="29"
     style="fill:#e6dc35;opacity:1;fill-opacity:1;stroke:none;fill-rule:nonzero"
     id="rect51" />
</svg>
