<?xml version="1.0" encoding="UTF-8" standalone="no"?>
<svg
   xmlns:dc="http://purl.org/dc/elements/1.1/"
   xmlns:cc="http://creativecommons.org/ns#"
   xmlns:rdf="http://www.w3.org/1999/02/22-rdf-syntax-ns#"
   xmlns:svg="http://www.w3.org/2000/svg"
   xmlns="http://www.w3.org/2000/svg"
   xmlns:xlink="http://www.w3.org/1999/xlink"
   xmlns:sodipodi="http://sodipodi.sourceforge.net/DTD/sodipodi-0.dtd"
   xmlns:inkscape="http://www.inkscape.org/namespaces/inkscape"
   viewBox="0 0 48 48"
   id="svg2"
   version="1.1"
   inkscape:version="0.91 r13725"
   sodipodi:docname="actiona.svg">
  <metadata
     id="metadata39">
    <rdf:RDF>
      <cc:Work
         rdf:about="">
        <dc:format>image/svg+xml</dc:format>
        <dc:type
           rdf:resource="http://purl.org/dc/dcmitype/StillImage" />
      </cc:Work>
    </rdf:RDF>
  </metadata>
  <sodipodi:namedview
     pagecolor="#ffffff"
     bordercolor="#666666"
     borderopacity="1"
     objecttolerance="10"
     gridtolerance="10"
     guidetolerance="10"
     inkscape:pageopacity="0"
     inkscape:pageshadow="2"
     inkscape:window-width="776"
     inkscape:window-height="485"
     id="namedview37"
     showgrid="false"
     inkscape:zoom="4.9166667"
     inkscape:cx="33.152542"
     inkscape:cy="24"
     inkscape:window-x="449"
     inkscape:window-y="136"
     inkscape:window-maximized="0"
     inkscape:current-layer="svg2" />
  <defs
     id="defs4">
    <linearGradient
       inkscape:collect="always"
       xlink:href="#linearGradient3859"
       id="linearGradient3739"
       gradientUnits="userSpaceOnUse"
       gradientTransform="matrix(0.83333307,0,0,0.83333307,-317.03371,412.80361)"
       x1="379.57144"
       y1="-527.79797"
       x2="431.57144"
       y2="-527.79797" />
    <linearGradient
       id="linearGradient3859">
      <stop
         id="stop3861"
         offset="0"
         style="stop-color:#cccccc;stop-opacity:1" />
      <stop
         id="stop3863"
         offset="1"
         style="stop-color:#ececec;stop-opacity:1" />
    </linearGradient>
  </defs>
  <g
     id="g3665"
     transform="translate(0.55761199,0.30529681)">
    <rect
       transform="scale(1,-1)"
       ry="0"
       y="-43.694542"
       x="3.4424012"
       height="39.999989"
       width="39.999989"
       id="rect3667"
       style="fill:url(#linearGradient3739);fill-opacity:1;stroke:none" />
    <path
       sodipodi:nodetypes="cccc"
       inkscape:connector-curvature="0"
       id="path3669"
       d="m 3.4423873,43.694552 40.0000007,3.01e-4 c -20,-0.999999 -20,-0.999999 -40.0000017,0 z"
       style="opacity:0.35;fill:#000000;fill-opacity:1;stroke:none" />
    <path
       style="opacity:0.5;fill:#ffffff;fill-opacity:1;stroke:none"
       d="M 3.4423913,3.6947551 43.442388,3.6945549 c -19.999996,1.0000006 -19.999996,1.0000006 -39.9999977,0 z"
       id="path3671"
       inkscape:connector-curvature="0"
       sodipodi:nodetypes="cccc" />
  </g>
  <g
     id="g23" />
  <g
     transform="matrix(1.0699497,0,0,-0.93462336,-6.0527832e-8,-0.99999975)"
     style="fill:#000;fill-opacity:0.483;stroke:none"
     id="g27">
    <g
       id="g29">
      <path
         d="m 15.889 -13.909 c -2.071 0 -3.738 -1.909 -3.738 -4.28 l 0 -12.839 c 0 -2.266 1.528 -4.089 3.47 -4.248 l -2.536 -6.451 4.206 0 2.382 6.42 7.386 0 2.382 -6.42 4.206 0 -2.536 6.451 c 1.943 0.159 3.47 1.983 3.47 4.248 l 0 12.839 c 0 2.371 -1.667 4.28 -3.738 4.28 l -2.804 0 0 -4.28 1.869 0 c 0.518 0 0.935 -0.477 0.935 -1.07 l 0 -10.699 c 0 -0.593 -0.417 -1.07 -0.935 -1.07 l -0.467 0 -4.206 10.699 -3.738 0 -4.206 -10.699 -0.467 0 c -0.518 0 -0.935 0.477 -0.935 1.07 l 0 10.699 c 0 0.593 0.417 1.07 0.935 1.07 l 1.869 0 0 4.28 -2.804 0 z m 7.477 -11.448 2.105 -5.672 -4.209 0 2.105 5.672 z"
         style="stroke-opacity:1;opacity:0.1;fill-opacity:1;fill-rule:evenodd;stroke-linecap:butt;stroke-linejoin:miter;stroke-width:1"
         id="path31" />
      <path
         transform="scale(0.93462338,-1.0699497)"
         d="m 16 12 c -2.216 0 -4 1.784 -4 4 l 0 12 c 0 2.216 1.784 4 4 4 l 16 0 c 2.216 0 4 -1.784 4 -4 l 0 -12 c 0 -2.216 -1.784 -4 -4 -4 l -3 0 0 4 c 0.667 0 1.333 0 2 0 0.554 0 1 0.446 1 1 0 3.333 0 6.667 0 10 0 0.554 -0.446 1 -1 1 -4.667 0 -9.333 0 -14 0 -0.554 0 -1 -0.446 -1 -1 0 -3.333 0 -6.667 0 -10 0 -0.554 0.446 -1 1 -1 0.667 0 1.333 0 2 0 l 0 -4 z"
         style="stroke-opacity:1;fill:#209dbe;fill-opacity:1;fill-rule:evenodd;stroke-linecap:butt;stroke-linejoin:miter;stroke-width:1"
         id="path33" />
      <path
         d="m 12.15 -40.658 4.206 0 6.075 16.37 6.075 -16.37 4.206 0 -8.412 21.399 -3.738 0 z"
         style="fill:#209dbe;fill-opacity:1"
         id="path35" />
    </g>
  </g>
</svg>
