<?xml version="1.0" encoding="UTF-8" standalone="no"?>
<!-- Created with Inkscape (http://www.inkscape.org/) -->

<svg
   xmlns:dc="http://purl.org/dc/elements/1.1/"
   xmlns:cc="http://creativecommons.org/ns#"
   xmlns:rdf="http://www.w3.org/1999/02/22-rdf-syntax-ns#"
   xmlns:svg="http://www.w3.org/2000/svg"
   xmlns="http://www.w3.org/2000/svg"
   xmlns:xlink="http://www.w3.org/1999/xlink"
   xmlns:sodipodi="http://sodipodi.sourceforge.net/DTD/sodipodi-0.dtd"
   xmlns:inkscape="http://www.inkscape.org/namespaces/inkscape"
   width="48"
   height="48"
   id="svg2"
   version="1.1"
   inkscape:version="0.91pre2 r13516"
   sodipodi:docname="AdobeSpeedgrade.svg">
  <defs
     id="defs4">
    <linearGradient
       inkscape:collect="always"
       id="linearGradient4906">
      <stop
         style="stop-color:#b9fdff;stop-opacity:1"
         offset="0"
         id="stop4908" />
      <stop
         style="stop-color:#f5ffff;stop-opacity:1"
         offset="1"
         id="stop4910" />
    </linearGradient>
    <linearGradient
       y2="-1004.3644"
       x2="24.176777"
       y1="-1052.3602"
       x1="24.176777"
       gradientUnits="userSpaceOnUse"
       id="linearGradient837"
       xlink:href="#linearGradient4206"
       inkscape:collect="always"
       gradientTransform="matrix(0.83333337,0,0,0.83333337,3.9999991,-171.39366)" />
    <defs
       id="defs4922">
      <filter
         color-interpolation-filters="sRGB"
         id="Adobe_OpacityMaskFilter"
         filterUnits="userSpaceOnUse"
         x="3.7850001"
         y="4.6750002"
         width="5.8829999"
         height="73.013">
        <feColorMatrix
           type="matrix"
           values="1 0 0 0 0  0 1 0 0 0  0 0 1 0 0  0 0 0 1 0"
           id="feColorMatrix4925" />
      </filter>
    </defs>
    <mask
       maskUnits="userSpaceOnUse"
       x="3.785"
       y="4.675"
       width="5.883"
       height="73.013"
       id="SVGID_2_">
      <g
         style="filter:url(#Adobe_OpacityMaskFilter)"
         id="g4928">
        <linearGradient
           id="SVGID_3_"
           gradientUnits="userSpaceOnUse"
           x1="3.7852001"
           y1="41.181198"
           x2="9.6680002"
           y2="41.181198">
          <stop
             offset="0"
             style="stop-color:#FFFFFF"
             id="stop4931" />
          <stop
             offset="0.0029"
             style="stop-color:#FAFBFB"
             id="stop4933" />
          <stop
             offset="0.0756"
             style="stop-color:#BBBDBF"
             id="stop4935" />
          <stop
             offset="0.1438"
             style="stop-color:#898B8E"
             id="stop4937" />
          <stop
             offset="0.2053"
             style="stop-color:#646567"
             id="stop4939" />
          <stop
             offset="0.259"
             style="stop-color:#444446"
             id="stop4941" />
          <stop
             offset="0.3028"
             style="stop-color:#1D1C1D"
             id="stop4943" />
          <stop
             offset="0.3313"
             style="stop-color:#000000"
             id="stop4945" />
        </linearGradient>
        <rect
           style="fill:url(#SVGID_3_)"
           x="3.7850001"
           y="4.6750002"
           width="5.8829999"
           height="73.013"
           id="rect4947" />
      </g>
    </mask>
    <linearGradient
       id="linearGradient4206"
       inkscape:collect="always">
      <stop
         id="stop4208"
         offset="0"
         style="stop-color:#00979c;stop-opacity:1" />
      <stop
         id="stop4210"
         offset="1"
         style="stop-color:#00979c;stop-opacity:1" />
    </linearGradient>
    <linearGradient
       inkscape:collect="always"
       xlink:href="#linearGradient4906"
       id="linearGradient4904"
       x1="24.668505"
       y1="1037.9432"
       x2="24.668505"
       y2="1018.5733"
       gradientUnits="userSpaceOnUse"
       gradientTransform="matrix(0.83317839,0,0,0.83393028,4.0037213,170.77982)" />
  </defs>
  <sodipodi:namedview
     id="base"
     pagecolor="#ffffff"
     bordercolor="#666666"
     borderopacity="1.0"
     inkscape:pageopacity="0.0"
     inkscape:pageshadow="2"
     inkscape:zoom="5.7563278"
     inkscape:cx="43.342122"
     inkscape:cy="7.1849129"
     inkscape:document-units="px"
     inkscape:current-layer="layer1"
     showgrid="true"
     inkscape:window-width="1301"
     inkscape:window-height="744"
     inkscape:window-x="65"
     inkscape:window-y="24"
     inkscape:window-maximized="1"
     inkscape:object-nodes="true">
    <inkscape:grid
       type="xygrid"
       id="grid3367" />
  </sodipodi:namedview>
  <metadata
     id="metadata7">
    <rdf:RDF>
      <cc:Work
         rdf:about="">
        <dc:format>image/svg+xml</dc:format>
        <dc:type
           rdf:resource="http://purl.org/dc/dcmitype/StillImage" />
        <dc:title />
      </cc:Work>
    </rdf:RDF>
  </metadata>
  <g
     inkscape:label="Capa 1"
     inkscape:groupmode="layer"
     id="layer1"
     transform="translate(0,-1004.3622)">
    <rect
       style="fill:url(#linearGradient837);fill-opacity:1;stroke:none"
       id="rect2991-1"
       width="40"
       height="40"
       x="3.9999986"
       y="-1048.3622"
       ry="1.9999826"
       transform="scale(1,-1)" />
    <path
       style="fill:url(#linearGradient4904);fill-opacity:1;stroke:none"
       d="m 19.656735,1020.4455 c -2.583485,0 -4.211457,1.4869 -4.211457,3.4351 0,1.7181 1.256427,2.7643 3.220431,3.4725 1.521773,0.5492 2.123628,1.0793 2.123628,1.9823 0,0.9742 -0.778952,1.6304 -2.177329,1.6304 -1.114315,0 -2.175653,-0.3552 -2.883578,-0.7623 l -0.478427,1.8079 c 0.654965,0.3895 1.963994,0.7607 3.220429,0.7607 3.078854,0 4.530409,-1.682 4.530409,-3.5947 0,-1.7179 -1.008574,-2.7635 -3.078855,-3.5425 -1.592209,-0.62 -2.283104,-1.0449 -2.283104,-1.966 0,-0.6906 0.601864,-1.4349 1.982053,-1.4349 1.11485,0 1.946401,0.3365 2.370978,0.5668 l 0.530501,-1.7525 c -0.618945,-0.3188 -1.574114,-0.6028 -2.865678,-0.6028 z m 8.582388,3.3114 c -2.070282,0 -3.910405,1.7187 -3.910405,4.5523 0,2.4439 1.521802,4.2153 3.663056,4.2153 1.132146,0 2.016827,-0.5136 2.512553,-1.2754 l 0.03418,0 0,0.7428 c 0,1.8597 -1.061258,2.6045 -2.476753,2.6045 -1.044059,0 -1.963867,-0.3364 -2.512554,-0.655 l -0.478426,1.6468 c 0.743233,0.4607 1.912041,0.6907 3.00888,0.6907 1.185643,0 2.423909,-0.2488 3.326204,-1.0457 0.902294,-0.8145 1.274178,-2.1074 1.274178,-3.914 l 0,-4.8878 c 0,-1.1865 0.03467,-1.8948 0.06997,-2.4791 l -1.892553,0 -0.08787,1.1499 -0.0358,0 c -0.407273,-0.7078 -1.185257,-1.3453 -2.494653,-1.3453 z m 0.424726,1.6662 c 0.919769,0 1.539024,0.6019 1.768876,1.3991 0.05314,0.1769 0.0716,0.3877 0.0716,0.5831 l 0,1.3991 c 0,0.248 -0.03654,0.55 -0.0895,0.7801 -0.247862,0.7794 -0.954851,1.3096 -1.768876,1.3096 -1.362715,0 -2.105728,-1.1861 -2.105728,-2.6565 0,-1.7532 0.902501,-2.8145 2.123629,-2.8145 z"
       id="path2836-0"
       inkscape:connector-curvature="0" />
    <path
       style="opacity:0.35;fill:#000000;fill-opacity:1;stroke:none"
       d="m 6,1048.3622 0,0 c 18,-1 18,-1 36,0 z"
       id="path3257"
       inkscape:connector-curvature="0"
       sodipodi:nodetypes="cccc" />
    <path
       sodipodi:nodetypes="cccc"
       inkscape:connector-curvature="0"
       id="path4027"
       d="m 6,1008.3622 0,0 c 18,1 18,1 36,0 z"
       style="opacity:0.75;fill:#ffffff;fill-opacity:1;stroke:none" />
  </g>
</svg>
