<?xml version="1.0" encoding="UTF-8" standalone="no"?>
<!-- Created with Inkscape (http://www.inkscape.org/) -->

<svg
   xmlns:dc="http://purl.org/dc/elements/1.1/"
   xmlns:cc="http://creativecommons.org/ns#"
   xmlns:rdf="http://www.w3.org/1999/02/22-rdf-syntax-ns#"
   xmlns:svg="http://www.w3.org/2000/svg"
   xmlns="http://www.w3.org/2000/svg"
   xmlns:xlink="http://www.w3.org/1999/xlink"
   xmlns:sodipodi="http://sodipodi.sourceforge.net/DTD/sodipodi-0.dtd"
   xmlns:inkscape="http://www.inkscape.org/namespaces/inkscape"
   width="48"
   height="48"
   id="svg2"
   version="1.1"
   inkscape:version="0.48.4 r9939"
   sodipodi:docname="AirPortUtility.svg">
  <defs
     id="defs4">
    <linearGradient
       inkscape:collect="always"
       id="linearGradient943">
      <stop
         style="stop-color:#ffffff;stop-opacity:1;"
         offset="0"
         id="stop945" />
      <stop
         style="stop-color:#ffffff;stop-opacity:0;"
         offset="1"
         id="stop947" />
    </linearGradient>
    <linearGradient
       inkscape:collect="always"
       id="linearGradient929">
      <stop
         style="stop-color:#87e6f7;stop-opacity:1"
         offset="0"
         id="stop931" />
      <stop
         style="stop-color:#2866b5;stop-opacity:1"
         offset="1"
         id="stop933" />
    </linearGradient>
    <linearGradient
       inkscape:collect="always"
       xlink:href="#linearGradient893"
       id="linearGradient886"
       x1="23.688076"
       y1="-1052.5176"
       x2="23.688076"
       y2="-1004.2789"
       gradientUnits="userSpaceOnUse" />
    <linearGradient
       gradientTransform="translate(0,-1.564e-5)"
       gradientUnits="userSpaceOnUse"
       y2="1032.3622"
       x2="4"
       y1="1032.3622"
       x1="44"
       id="linearGradient4068-9"
       xlink:href="#linearGradient929"
       inkscape:collect="always" />
    <linearGradient
       inkscape:collect="always"
       xlink:href="#linearGradient929"
       id="linearGradient4265"
       x1="31.817781"
       y1="13.970944"
       x2="31.817781"
       y2="38.909206"
       gradientUnits="userSpaceOnUse" />
    <linearGradient
       inkscape:collect="always"
       xlink:href="#linearGradient943"
       id="linearGradient4278"
       x1="28.009476"
       y1="-1.3851285"
       x2="28.009476"
       y2="35.223747"
       gradientUnits="userSpaceOnUse" />
    <linearGradient
       id="linearGradient893"
       inkscape:collect="always">
      <stop
         id="stop895"
         offset="0"
         style="stop-color:#dadada;stop-opacity:1" />
      <stop
         id="stop897"
         offset="1"
         style="stop-color:#e7e7e7;stop-opacity:1" />
    </linearGradient>
  </defs>
  <sodipodi:namedview
     id="base"
     pagecolor="#ffffff"
     bordercolor="#666666"
     borderopacity="1.0"
     inkscape:pageopacity="0.0"
     inkscape:pageshadow="2"
     inkscape:zoom="32.56041"
     inkscape:cx="30.724708"
     inkscape:cy="12.466051"
     inkscape:document-units="px"
     inkscape:current-layer="layer1"
     showgrid="true"
     inkscape:window-width="1301"
     inkscape:window-height="744"
     inkscape:window-x="65"
     inkscape:window-y="24"
     inkscape:window-maximized="1"
     showguides="true"
     inkscape:guide-bbox="true">
    <inkscape:grid
       type="xygrid"
       id="grid3850" />
    <sodipodi:guide
       orientation="1,0"
       position="-667.875,729.25"
       id="guide1018" />
    <sodipodi:guide
       orientation="0,1"
       position="-667.875,543.05801"
       id="guide1025" />
  </sodipodi:namedview>
  <metadata
     id="metadata7">
    <rdf:RDF>
      <cc:Work
         rdf:about="">
        <dc:format>image/svg+xml</dc:format>
        <dc:type
           rdf:resource="http://purl.org/dc/dcmitype/StillImage" />
        <dc:title />
      </cc:Work>
    </rdf:RDF>
  </metadata>
  <g
     inkscape:label="Capa 1"
     inkscape:groupmode="layer"
     id="layer1"
     transform="translate(0,-1004.3622)">
    <path
       style="fill:#ffffff;fill-opacity:1"
       d="m 24,1013.2228 c -6.939758,0 -13.879671,2.3132 -19.55533,6.9382 l 3.856902,4.703 c 4.278067,-3.4858 9.74338,-5.583 15.697406,-5.583 5.94984,0 11.415105,2.097 15.69945,5.5881 l 3.856902,-4.7081 C 37.879409,1015.536 30.939758,1013.2228 24,1013.2228 z m 0,7.5002 c -5.607637,0 -10.75619,1.9756 -14.7899,5.2601 l 3.857924,4.7031 c 2.981984,-2.4295 6.786814,-3.8917 10.931976,-3.8917 4.140976,0 7.949469,1.4622 10.931976,3.8917 l 3.852814,-4.7031 C 34.75108,1022.6986 29.603451,1020.723 24,1020.723 z m 0,7.5278 c -3.79354,0 -7.279934,1.3398 -10.007097,3.5636 l 4.066405,4.9627 c 1.603229,-1.4227 3.67294,-2.2882 5.940692,-2.2882 2.263566,0 4.336939,0.8655 5.940691,2.2882 l 4.068449,-4.9627 C 31.275175,1029.5906 27.794586,1028.2508 24,1028.2508 z m -0.001,7.6954 c -1.920839,0 -3.675957,0.7337 -5.030119,1.9367 l 5.030119,6.1399 5.031142,-6.1358 c -1.354163,-1.2083 -3.113965,-1.9408 -5.031142,-1.9408 z"
       id="path3008"
       inkscape:connector-curvature="0" />
    <path
       inkscape:connector-curvature="0"
       id="path440-1"
       d="m 24,1012.9622 c -6.939758,0 -13.879671,2.3132 -19.55533,6.9382 l 3.856902,4.703 c 4.278067,-3.4858 9.74338,-5.583 15.697406,-5.583 5.94984,0 11.415105,2.097 15.69945,5.5881 l 3.856902,-4.7081 C 37.879409,1015.2754 30.939758,1012.9622 24,1012.9622 Z m 0,7.5002 c -5.607637,0 -10.75619,1.9756 -14.7899,5.2601 l 3.857924,4.7031 c 2.981984,-2.4295 6.786814,-3.8917 10.931976,-3.8917 4.140976,0 7.949469,1.4622 10.931976,3.8917 l 3.852814,-4.7031 C 34.75108,1022.438 29.603451,1020.4624 24,1020.4624 Z m 0,7.5278 c -3.79354,0 -7.279934,1.3398 -10.007097,3.5636 l 4.066405,4.9627 c 1.603229,-1.4227 3.67294,-2.2882 5.940692,-2.2882 2.263566,0 4.336939,0.8655 5.940691,2.2882 l 4.068449,-4.9627 C 31.275175,1029.33 27.794586,1027.9902 24,1027.9902 Z m -0.001,7.6954 c -1.920839,0 -3.675957,0.7337 -5.030119,1.9367 l 5.030119,6.1399 5.031142,-6.1358 c -1.354163,-1.2083 -3.113965,-1.9408 -5.031142,-1.9408 z"
       style="fill:url(#linearGradient4068-9);fill-opacity:1" />
  </g>
</svg>
