<?xml version="1.0" encoding="UTF-8" standalone="no"?>
<svg
   xmlns:dc="http://purl.org/dc/elements/1.1/"
   xmlns:cc="http://creativecommons.org/ns#"
   xmlns:rdf="http://www.w3.org/1999/02/22-rdf-syntax-ns#"
   xmlns:svg="http://www.w3.org/2000/svg"
   xmlns="http://www.w3.org/2000/svg"
   xmlns:xlink="http://www.w3.org/1999/xlink"
   xmlns:sodipodi="http://sodipodi.sourceforge.net/DTD/sodipodi-0.dtd"
   xmlns:inkscape="http://www.inkscape.org/namespaces/inkscape"
   viewBox="0 0 48 48"
   id="svg2"
   version="1.1"
   inkscape:version="0.91 r13725"
   sodipodi:docname="alexandra.svg">
  <metadata
     id="metadata41">
    <rdf:RDF>
      <cc:Work
         rdf:about="">
        <dc:format>image/svg+xml</dc:format>
        <dc:type
           rdf:resource="http://purl.org/dc/dcmitype/StillImage" />
      </cc:Work>
    </rdf:RDF>
  </metadata>
  <sodipodi:namedview
     pagecolor="#ffffff"
     bordercolor="#666666"
     borderopacity="1"
     objecttolerance="10"
     gridtolerance="10"
     guidetolerance="10"
     inkscape:pageopacity="0"
     inkscape:pageshadow="2"
     inkscape:window-width="1366"
     inkscape:window-height="705"
     id="namedview39"
     showgrid="false"
     inkscape:zoom="4.9166667"
     inkscape:cx="24"
     inkscape:cy="24"
     inkscape:window-x="0"
     inkscape:window-y="28"
     inkscape:window-maximized="1"
     inkscape:current-layer="svg2" />
  <defs
     id="defs4">
    <linearGradient
       gradientUnits="userSpaceOnUse"
       y2="-527.79797"
       x2="431.57144"
       y1="-527.79797"
       x1="379.57144"
       id="linearGradient4172"
       xlink:href="#linearGradient5277"
       inkscape:collect="always"
       gradientTransform="matrix(0.83333307,0,0,0.83333307,-317.03371,412.80361)" />
    <linearGradient
       id="linearGradient5277">
      <stop
         id="stop5279"
         offset="0"
         style="stop-color:#333333;stop-opacity:1" />
      <stop
         id="stop5281"
         offset="1"
         style="stop-color:#666666;stop-opacity:1" />
    </linearGradient>
  </defs>
  <g
     id="g3208"
     transform="translate(0.55761199,0.30529681)">
    <rect
       transform="scale(1,-1)"
       ry="0"
       y="-43.694542"
       x="3.4424012"
       height="39.999989"
       width="39.999989"
       id="rect2991-1-7"
       style="fill:url(#linearGradient4172);fill-opacity:1;stroke:none" />
    <path
       sodipodi:nodetypes="cccc"
       inkscape:connector-curvature="0"
       id="path3800"
       d="m 3.4423873,43.694552 40.0000007,3.01e-4 c -20,-0.999999 -20,-0.999999 -40.0000017,0 z"
       style="opacity:0.35;fill:#000000;fill-opacity:1;stroke:none" />
    <path
       style="opacity:0.5;fill:#ffffff;fill-opacity:1;stroke:none"
       d="M 3.4423913,3.6947551 43.442388,3.6945549 c -19.999996,1.0000006 -19.999996,1.0000006 -39.9999977,0 z"
       id="path3804"
       inkscape:connector-curvature="0"
       sodipodi:nodetypes="cccc" />
  </g>
  <g
     id="g23">
    <g
       id="g25">
      <g
         transform="translate(1,1)"
         id="g27">
        <g
           style="opacity:0.1"
           id="g29">
          <!-- color: #474747 -->
        </g>
      </g>
    </g>
  </g>
  <path
     d="m 27.75,12 c 2.623,0 4.75,2.127 4.75,4.75 -0.003,1.803 -1.026,3.45 -2.643,4.25 L 31,21 c 0.554,0 1,0.446 1,1 l 0,1.5 7,-2.5 0,13 -7,-2.5 0,1.5 c 0,0.554 -0.446,1 -1,1 l -16,0 c -0.554,0 -1,-0.446 -1,-1 l 0,-11 c 0,-0.554 0.446,-1 1,-1 l 1.135,0 C 14.522,20.198 13.501,18.552 13.5,16.75 13.5,14.127 15.627,12 18.25,12 20.873,12 23,14.127 23,16.75 22.997,18.553 21.974,20.2 20.357,21 l 5.277,0 C 24.021,20.198 23,18.552 22.999,16.75 c 0,-2.623 2.127,-4.75 4.75,-4.75"
     style="fill:#000;fill-opacity:0.098;stroke:none;fill-rule:evenodd"
     id="path35" />
  <path
     d="M 26.75 11 A 4.75 4.75 0 0 1 31.5 15.75 4.75 4.75 0 0 1 28.857 20 L 30 20 c 0.554 0 1 0.446 1 1 l 0 1.5 7 -2.5 0 13 -7 -2.5 0 1.5 c 0 0.554 -0.446 1 -1 1 l -16 0 c -0.554 0 -1 -0.446 -1 -1 l 0 -11 c 0 -0.554 0.446 -1 1 -1 l 1.135 0 A 4.75 4.75 0 0 1 12.5 15.75 4.75 4.75 0 0 1 17.25 11 4.75 4.75 0 0 1 22 15.75 4.75 4.75 0 0 1 19.357 20 l 5.277 0 A 4.75 4.75 0 0 1 22 15.75 4.75 4.75 0 0 1 26.75 11"
     style="fill:#14ca78;fill-opacity:1;stroke:none;fill-rule:evenodd"
     id="path37" />
</svg>
