<?xml version="1.0" encoding="UTF-8" standalone="no"?>
<svg
   xmlns:dc="http://purl.org/dc/elements/1.1/"
   xmlns:cc="http://creativecommons.org/ns#"
   xmlns:rdf="http://www.w3.org/1999/02/22-rdf-syntax-ns#"
   xmlns:svg="http://www.w3.org/2000/svg"
   xmlns="http://www.w3.org/2000/svg"
   xmlns:xlink="http://www.w3.org/1999/xlink"
   xmlns:sodipodi="http://sodipodi.sourceforge.net/DTD/sodipodi-0.dtd"
   xmlns:inkscape="http://www.inkscape.org/namespaces/inkscape"
   viewBox="0 0 48 48"
   id="svg2"
   version="1.1"
   inkscape:version="0.91 r13725"
   sodipodi:docname="altyo.svg">
  <metadata
     id="metadata59">
    <rdf:RDF>
      <cc:Work
         rdf:about="">
        <dc:format>image/svg+xml</dc:format>
        <dc:type
           rdf:resource="http://purl.org/dc/dcmitype/StillImage" />
      </cc:Work>
    </rdf:RDF>
  </metadata>
  <sodipodi:namedview
     pagecolor="#ffffff"
     bordercolor="#666666"
     borderopacity="1"
     objecttolerance="10"
     gridtolerance="10"
     guidetolerance="10"
     inkscape:pageopacity="0"
     inkscape:pageshadow="2"
     inkscape:window-width="1366"
     inkscape:window-height="705"
     id="namedview57"
     showgrid="false"
     inkscape:zoom="6.9532167"
     inkscape:cx="-15.466556"
     inkscape:cy="18.883653"
     inkscape:window-x="0"
     inkscape:window-y="28"
     inkscape:window-maximized="1"
     inkscape:current-layer="svg2" />
  <defs
     id="defs4">
    <linearGradient
       id="linearGradient3764"
       x1="1"
       x2="47"
       gradientUnits="userSpaceOnUse"
       gradientTransform="matrix(0,-1,1,0,-1.5e-6,47.999998)">
      <stop
         style="stop-color:#93b6c1;stop-opacity:1"
         id="stop7" />
      <stop
         offset="1"
         style="stop-color:#a0bfc8;stop-opacity:1"
         id="stop9" />
    </linearGradient>
    <linearGradient
       inkscape:collect="always"
       xlink:href="#linearGradient3546"
       id="linearGradient3524"
       gradientUnits="userSpaceOnUse"
       gradientTransform="matrix(0.83333307,0,0,0.83333307,-317.03371,412.80361)"
       x1="379.57144"
       y1="-527.79797"
       x2="431.57144"
       y2="-527.79797" />
    <linearGradient
       id="linearGradient3546">
      <stop
         id="stop3548"
         offset="0"
         style="stop-color:#637d97;stop-opacity:1" />
      <stop
         id="stop3550"
         offset="1"
         style="stop-color:#b3c8e6;stop-opacity:1" />
    </linearGradient>
  </defs>
  <g
     id="g3502"
     transform="translate(0.55761199,0.30529681)">
    <rect
       transform="scale(1,-1)"
       ry="0"
       y="-43.694542"
       x="3.4424012"
       height="39.999989"
       width="39.999989"
       id="rect3504"
       style="fill:url(#linearGradient3524);fill-opacity:1;stroke:none" />
    <path
       sodipodi:nodetypes="cccc"
       inkscape:connector-curvature="0"
       id="path3506"
       d="m 3.4423873,43.694552 40.0000007,3.01e-4 c -20,-0.999999 -20,-0.999999 -40.0000017,0 z"
       style="opacity:0.35;fill:#000000;fill-opacity:1;stroke:none" />
    <path
       style="opacity:0.5;fill:#ffffff;fill-opacity:1;stroke:none"
       d="M 3.4423913,3.6947551 43.442388,3.6945549 c -19.999996,1.0000006 -19.999996,1.0000006 -39.9999977,0 z"
       id="path3508"
       inkscape:connector-curvature="0"
       sodipodi:nodetypes="cccc" />
  </g>
  <path
     d="m 13 12 c -0.554 0 -1 0.446 -1 1 l 0 12 0 12 c 0 0.554 0.446 1 1 1 l 24 0 c 0.554 0 1 -0.446 1 -1 l 0 -12 0 -12 c 0 -0.554 -0.446 -1 -1 -1 l -24 0 z"
     style="fill:#000;opacity:0.1;fill-opacity:1;stroke:none"
     id="path23" />
  <rect
     width="26"
     height="14"
     x="11"
     y="23"
     rx="1"
     style="fill:#dedede;opacity:1;fill-opacity:0.765;stroke:none"
     id="rect25" />
  <path
     d="m 12 11 24 0 c 0.554 0 1 0.446 1 1 l 0 12 -26 0 0 -12 c 0 -0.554 0.446 -1 1 -1 z"
     style="fill:#5c5c5c;opacity:1;fill-opacity:1;stroke:none"
     id="path27" />
  <g
     id="g29">
    <g
       id="g31">
      <g
         transform="translate(1,1)"
         id="g33">
        <g
           style="opacity:0.1"
           id="g35">
          <!-- color: #cf1717 -->
          <g
             id="g37">
            <path
               d="m 28 22 l 0 -1.996 l -6 0 l 0 1.996 m 6 0"
               style="fill:#000;fill-opacity:1;stroke:none;fill-rule:nonzero"
               id="path39" />
            <path
               d="m 15.668 21.332 l -1.668 -1.699 l 3.754 -2.969 l -3.754 -2.969 l 1.668 -1.699 l 5.633 4.664 l -5.633 4.664 m 0 0.008"
               style="fill:#000;fill-opacity:1;stroke:none;fill-rule:nonzero"
               id="path41" />
          </g>
        </g>
      </g>
    </g>
  </g>
  <g
     id="g43">
    <g
       id="g45">
      <!-- color: #cf1717 -->
      <g
         id="g47">
        <path
           d="m 28 22 l 0 -1.996 l -6 0 l 0 1.996 m 6 0"
           style="fill:#fff;fill-opacity:1;stroke:none;fill-rule:nonzero"
           id="path49" />
        <path
           d="m 15.668 21.332 l -1.668 -1.699 l 3.754 -2.969 l -3.754 -2.969 l 1.668 -1.699 l 5.633 4.664 l -5.633 4.664 m 0 0.008"
           style="fill:#fff;fill-opacity:1;stroke:none;fill-rule:nonzero"
           id="path51" />
      </g>
    </g>
  </g>
</svg>
