<?xml version="1.0" encoding="UTF-8" standalone="no"?>
<svg
   xmlns:dc="http://purl.org/dc/elements/1.1/"
   xmlns:cc="http://creativecommons.org/ns#"
   xmlns:rdf="http://www.w3.org/1999/02/22-rdf-syntax-ns#"
   xmlns:svg="http://www.w3.org/2000/svg"
   xmlns="http://www.w3.org/2000/svg"
   xmlns:xlink="http://www.w3.org/1999/xlink"
   xmlns:sodipodi="http://sodipodi.sourceforge.net/DTD/sodipodi-0.dtd"
   xmlns:inkscape="http://www.inkscape.org/namespaces/inkscape"
   width="48"
   viewBox="0 0 13.546667 13.546667"
   height="48"
   id="svg2"
   version="1.1"
   inkscape:version="0.91pre2 r13516"
   sodipodi:docname="amnesia-dark-descent.svg">
  <metadata
     id="metadata26">
    <rdf:RDF>
      <cc:Work
         rdf:about="">
        <dc:format>image/svg+xml</dc:format>
        <dc:type
           rdf:resource="http://purl.org/dc/dcmitype/StillImage" />
        <dc:title />
      </cc:Work>
    </rdf:RDF>
  </metadata>
  <sodipodi:namedview
     pagecolor="#ffffff"
     bordercolor="#666666"
     borderopacity="1"
     objecttolerance="10"
     gridtolerance="10"
     guidetolerance="10"
     inkscape:pageopacity="0"
     inkscape:pageshadow="2"
     inkscape:window-width="1301"
     inkscape:window-height="744"
     id="namedview24"
     showgrid="true"
     inkscape:zoom="11.490485"
     inkscape:cx="31.20497"
     inkscape:cy="26.283282"
     inkscape:window-x="65"
     inkscape:window-y="24"
     inkscape:window-maximized="1"
     inkscape:current-layer="svg2"
     inkscape:showpageshadow="false"
     borderlayer="true"
     inkscape:object-nodes="true">
    <inkscape:grid
       type="xygrid"
       id="grid4473" />
  </sodipodi:namedview>
  <defs
     id="defs4">
    <linearGradient
       inkscape:collect="always"
       id="linearGradient4149">
      <stop
         style="stop-color:#333333;stop-opacity:1;"
         offset="0"
         id="stop4151" />
      <stop
         style="stop-color:#525252;stop-opacity:1"
         offset="1"
         id="stop4153" />
    </linearGradient>
    <linearGradient
       id="linearGradient4077">
      <stop
         id="stop4079"
         offset="0"
         style="stop-color:#000000;stop-opacity:1" />
      <stop
         id="stop4081"
         offset="1"
         style="stop-color:#1a1a1a;stop-opacity:1" />
    </linearGradient>
    <linearGradient
       inkscape:collect="always"
       xlink:href="#linearGradient886"
       id="linearGradient4449"
       x1="3.7253346"
       y1="6.4346647"
       x2="9.482667"
       y2="6.4346647"
       gradientUnits="userSpaceOnUse"
       gradientTransform="matrix(0.83333346,0,0,0.83333346,1.1288874,1.12889)" />
    <linearGradient
       id="linearGradient886"
       inkscape:collect="always">
      <stop
         id="stop888"
         offset="0"
         style="stop-color:#b9b9b9;stop-opacity:1" />
      <stop
         id="stop890"
         offset="1"
         style="stop-color:#f0f0f0;stop-opacity:1" />
    </linearGradient>
    <linearGradient
       inkscape:collect="always"
       xlink:href="#linearGradient4149"
       id="linearGradient4155"
       x1="1.1288879"
       y1="-6.7733326"
       x2="12.417779"
       y2="-6.7733326"
       gradientUnits="userSpaceOnUse" />
  </defs>
  <rect
     style="fill:url(#linearGradient4155);fill-opacity:1;stroke:none"
     id="rect2991-1-7"
     width="11.288891"
     height="11.288891"
     x="1.1288879"
     y="-12.417778"
     ry="0"
     transform="scale(1,-1)" />
  <path
     style="fill:url(#linearGradient4449);fill-opacity:1"
     d="M 8.3806665,3.1514826 8.2412586,3.2014086 C 8.1200292,3.2450026 8.102235,3.2628636 8.102235,3.3396643 c 0,0.094626 -0.00321,0.095024 -0.253469,0.033412 -0.071308,-0.017558 -0.08449,-0.010909 -0.08449,0.04186 0,0.038187 -0.041391,0.088106 -0.1063801,0.1282706 -0.088877,0.054929 -0.1037869,0.079178 -0.090634,0.1482407 0.01298,0.068139 -0.00248,0.095112 -0.087562,0.1520813 -0.056797,0.03802 -0.1171154,0.069128 -0.1340311,0.069128 -0.058741,0 -0.1928142,0.1700568 -0.2738232,0.3471756 C 7.0198493,4.3735229 6.9138461,4.5154102 6.7788207,4.652325 6.6624724,4.7703003 6.552951,4.893186 6.5357211,4.9253801 c -0.042681,0.07975 -0.039182,0.1334473 0.0073,0.1159812 0.1510731,-0.056776 0.1819825,-0.058337 0.1716675,-0.00998 -0.03068,0.1437945 -0.4373403,0.5146974 -0.7246935,0.6609392 -0.099848,0.050812 -0.087271,0.1032658 0.019202,0.079881 0.1136437,-0.024957 0.1303258,0.033447 0.1086843,0.379051 C 6.0970844,6.4833611 6.0723533,6.5423629 5.8813108,6.7150232 5.6956011,6.882866 5.6318957,6.9120037 5.3908871,6.9389206 5.293714,6.9497756 5.1951184,6.9776131 5.1719823,7.0007519 5.1488442,7.0238831 5.0486007,7.0858203 4.9492371,7.1386234 l -0.1805005,0.096011 0.1997026,-0.02189 c 0.1098368,-0.012039 0.2273531,-0.018103 0.2611497,-0.013826 0.033791,0.00425 0.1927905,0.00861 0.3533201,0.00998 0.2183672,0.00188 0.3166249,-0.010357 0.3901883,-0.049157 0.1056598,-0.055738 0.5007928,-0.074553 0.5007928,-0.023811 0,0.056365 -0.2272944,0.1671696 -0.3537041,0.1724355 -0.087172,0.00363 -0.1729446,0.035633 -0.264606,0.098699 -0.074628,0.051348 -0.1839534,0.1136935 -0.2427155,0.1382557 -0.058762,0.024559 -0.1258173,0.06728 -0.1490091,0.095243 -0.037727,0.045496 -0.031962,0.051078 0.055686,0.051078 0.053877,0 0.124152,0.013717 0.1559217,0.030723 0.050018,0.026776 0.053129,0.04427 0.024195,0.130575 -0.018379,0.054811 -0.05499,0.1246369 -0.081418,0.1551537 -0.03825,0.044165 -0.040597,0.067353 -0.011905,0.1132926 0.031819,0.050951 0.018019,0.068537 -0.1171334,0.1516975 -0.084194,0.051802 -0.1668941,0.094475 -0.1839567,0.094475 -0.093975,0 -0.1289106,0.5352243 -0.045318,0.6955027 0.025243,0.0484 0.045981,0.1130367 0.046085,0.1440167 3.483e-4,0.1002333 0.07185,0.036258 0.167827,-0.1505451 0.1444088,-0.28106 0.2330478,-0.4124629 0.2780477,-0.4124629 0.022588,0 0.094656,-0.093322 0.1601461,-0.2073835 0.1110911,-0.1934822 0.135253,-0.2159767 0.363306,-0.3337344 0.2504805,-0.1293394 0.3142733,-0.2055227 0.1970144,-0.2361868 -0.063889,-0.016708 -0.064431,-0.019718 -0.011905,-0.088714 0.029813,-0.03917 0.093531,-0.1032443 0.141328,-0.1424803 0.082348,-0.067596 0.096297,-0.069217 0.2638378,-0.03418 0.097247,0.020337 0.294177,0.054909 0.4378097,0.077192 0.4380875,0.067965 0.5834274,0.1087418 0.6179262,0.1732038 0.017523,0.032746 0.024545,0.079378 0.015362,0.1033076 -0.026043,0.067868 -0.2087323,0.1662419 -0.3106913,0.1674432 l -0.09217,0.00115 0.08449,0.074504 c 0.046471,0.040897 0.08449,0.093813 0.08449,0.1179016 0,0.024093 0.021802,0.062045 0.048389,0.084105 0.072537,0.060197 0.1734334,0.2740287 0.1536174,0.3256689 -0.00957,0.024922 0.015507,0.089543 0.055686,0.1432482 0.040187,0.0537 0.095986,0.1390241 0.124046,0.1897175 0.028064,0.050692 0.084824,0.1392133 0.1263503,0.1966308 0.05757,0.0796 0.075657,0.1430792 0.075657,0.2672946 0,0.1079642 0.014727,0.1711308 0.043397,0.1874133 0.023793,0.013508 0.079188,0.1006201 0.123278,0.1935584 0.086925,0.1832343 0.2077126,0.3919553 0.2623019,0.4531703 0.077473,0.08688 0.082698,0.02608 0.01613,-0.184341 C 8.6612495,9.9499339 8.5852893,9.3130726 8.6153167,9.1982467 c 0.00874,-0.033442 6.58e-5,-0.1269333 -0.019202,-0.2077683 -0.019298,-0.080834 -0.038209,-0.4128618 -0.04186,-0.7381311 -0.00363,-0.32527 -0.012606,-0.5914115 -0.01997,-0.5914272 -0.00736,-1.52e-5 -0.044331,0.028952 -0.082185,0.064519 -0.03786,0.035567 -0.081477,0.056935 -0.097163,0.047237 C 8.3154524,7.7482731 8.2821934,7.4417097 8.2685258,6.9746366 8.2587717,6.6415165 8.2421278,6.5326502 8.1617616,6.2722208 8.1094519,6.1027168 8.0604284,5.8793567 8.0526933,5.7756526 8.0449597,5.6719489 8.0183054,5.5187373 7.9935505,5.4353898 7.9198528,5.1872218 7.9335824,5.0777908 8.0561497,4.9345971 8.1160747,4.8645862 8.1636819,4.7756256 8.1636819,4.7333583 c 0,-0.041713 0.020732,-0.093024 0.046085,-0.1140611 0.07164,-0.059458 0.05465,-0.09217 -0.047622,-0.09217 -0.058838,0 -0.1218296,0.02851 -0.1701312,0.076809 -0.042243,0.042242 -0.085136,0.076809 -0.095243,0.076808 -0.010109,0 -0.00986,-0.093825 7.664e-4,-0.2085355 0.01622,-0.1745156 0.00936,-0.2274717 -0.042245,-0.323749 -0.047747,-0.089084 -0.055753,-0.137401 -0.035332,-0.2139122 0.024023,-0.090006 0.036209,-0.098149 0.1371036,-0.09217 0.084834,0.00502 0.1154275,-0.00695 0.1294227,-0.051078 0.017133,-0.053982 0.107916,-0.1291026 0.2430995,-0.2008545 0.032223,-0.017104 0.077127,-0.084498 0.099467,-0.1493929 0.034369,-0.099837 0.033768,-0.1312055 -0.00384,-0.2039272 L 8.3806665,3.1514826 Z M 8.2650694,4.1891684 c -0.04135,0 -0.055663,0.096801 -0.019587,0.1328792 0.036077,0.036077 0.1332624,0.022153 0.1332633,-0.019202 0,-0.051376 -0.062294,-0.1136769 -0.113677,-0.1136771 z M 7.1663206,5.516423 c 0.00529,0.00529 -0.00875,0.088163 -0.031107,0.184341 -0.035791,0.1539619 -0.034598,0.1878911 0.00998,0.2830402 0.062294,0.132945 0.092214,0.1369772 0.1371037,0.01805 0.040118,-0.1062813 0.1537569,-0.1270219 0.202007,-0.036868 0.086418,0.1614748 0.2343724,0.9513604 0.1651386,0.8817643 -0.039845,-0.040055 -0.1309587,-0.3158 -0.1309587,-0.3963331 0,-0.099426 -0.096564,-0.325669 -0.1390238,-0.325669 -0.057187,0 -0.076115,0.07604 -0.043398,0.1743558 0.015872,0.047697 0.048088,0.1694005 0.071816,0.2703667 0.042396,0.1803721 0.041819,0.1847003 -0.030723,0.2519326 -0.040612,0.037637 -0.073737,0.08087 -0.073737,0.096011 0,0.015141 -0.058755,0.052793 -0.1305749,0.083722 -0.071817,0.030927 -0.1398045,0.061272 -0.1509291,0.067592 -0.01112,0.00634 -0.026397,5.217e-4 -0.03418,-0.013058 -0.00777,-0.013566 -0.024487,-0.079881 -0.036867,-0.1474723 l -0.02227,-0.1228949 -0.1209738,0.1382554 -0.1205897,0.138256 0.020354,-0.138256 c 0.011147,-0.07604 0.049437,-0.1706804 0.085258,-0.2100718 0.053508,-0.058831 0.063744,-0.1042981 0.057222,-0.2542369 -0.00557,-0.1277884 0.00725,-0.2054206 0.042245,-0.2588453 0.04096,-0.06251 0.043507,-0.091726 0.01421,-0.1624504 -0.026441,-0.063827 -0.02703,-0.1096008 -0.00192,-0.1755079 0.033338,-0.087684 0.2431189,-0.3648208 0.2619177,-0.3460234 z"
     id="path4436"
     inkscape:connector-curvature="0" />
  <path
     style="opacity:0.5;fill:#000000;fill-opacity:1;stroke:none"
     d="m 1.1288893,12.417778 0,0 c 5.6444446,-0.282222 5.6444446,-0.282222 11.2888887,0 z"
     id="path3257"
     inkscape:connector-curvature="0"
     sodipodi:nodetypes="cccc" />
  <path
     sodipodi:nodetypes="cccc"
     inkscape:connector-curvature="0"
     id="path4027"
     d="m 1.1288893,1.1288887 0,0 c 5.6444446,0.2822222 5.6444446,0.2822222 11.2888887,0 z"
     style="opacity:0.5;fill:#ffffff;fill-opacity:1;stroke:none" />
</svg>
