<?xml version="1.0" encoding="UTF-8" standalone="no"?>
<svg
   xmlns:dc="http://purl.org/dc/elements/1.1/"
   xmlns:cc="http://creativecommons.org/ns#"
   xmlns:rdf="http://www.w3.org/1999/02/22-rdf-syntax-ns#"
   xmlns:svg="http://www.w3.org/2000/svg"
   xmlns="http://www.w3.org/2000/svg"
   xmlns:xlink="http://www.w3.org/1999/xlink"
   xmlns:sodipodi="http://sodipodi.sourceforge.net/DTD/sodipodi-0.dtd"
   xmlns:inkscape="http://www.inkscape.org/namespaces/inkscape"
   viewBox="0 0 48 48"
   id="svg2"
   version="1.1"
   inkscape:version="0.91 r13725"
   sodipodi:docname="anatine.svg">
  <metadata
     id="metadata27">
    <rdf:RDF>
      <cc:Work
         rdf:about="">
        <dc:format>image/svg+xml</dc:format>
        <dc:type
           rdf:resource="http://purl.org/dc/dcmitype/StillImage" />
      </cc:Work>
    </rdf:RDF>
  </metadata>
  <sodipodi:namedview
     pagecolor="#ffffff"
     bordercolor="#666666"
     borderopacity="1"
     objecttolerance="10"
     gridtolerance="10"
     guidetolerance="10"
     inkscape:pageopacity="0"
     inkscape:pageshadow="2"
     inkscape:window-width="1366"
     inkscape:window-height="705"
     id="namedview25"
     showgrid="false"
     inkscape:zoom="4.9166667"
     inkscape:cx="24"
     inkscape:cy="24"
     inkscape:window-x="0"
     inkscape:window-y="28"
     inkscape:window-maximized="1"
     inkscape:current-layer="svg2" />
  <defs
     id="defs4">
    <linearGradient
       inkscape:collect="always"
       xlink:href="#linearGradient3400"
       id="linearGradient3217"
       gradientUnits="userSpaceOnUse"
       gradientTransform="matrix(0.83333307,0,0,0.83333307,-317.03371,412.80361)"
       x1="379.57144"
       y1="-527.79797"
       x2="431.57144"
       y2="-527.79797" />
    <linearGradient
       id="linearGradient3400">
      <stop
         style="stop-color:#0097a7;stop-opacity:1"
         offset="0"
         id="stop3402" />
      <stop
         style="stop-color:#26c6da;stop-opacity:1"
         offset="1"
         id="stop3404" />
    </linearGradient>
  </defs>
  <g
     id="g3209"
     transform="translate(0.55761199,0.30529681)">
    <rect
       transform="scale(1,-1)"
       ry="0"
       y="-43.694542"
       x="3.4424012"
       height="39.999989"
       width="39.999989"
       id="rect3211"
       style="fill:url(#linearGradient3217);fill-opacity:1;stroke:none" />
    <path
       sodipodi:nodetypes="cccc"
       inkscape:connector-curvature="0"
       id="path3213"
       d="m 3.4423873,43.694552 40.0000007,3.01e-4 c -20,-0.999999 -20,-0.999999 -40.0000017,0 z"
       style="opacity:0.35;fill:#000000;fill-opacity:1;stroke:none" />
    <path
       style="opacity:0.5;fill:#ffffff;fill-opacity:1;stroke:none"
       d="M 3.4423913,3.6947551 43.442388,3.6945549 c -19.999996,1.0000006 -19.999996,1.0000006 -39.9999977,0 z"
       id="path3215"
       inkscape:connector-curvature="0"
       sodipodi:nodetypes="cccc" />
  </g>
  <path
     d="m 25 11 c -7.72 0 -14 6.28 -14 14 0.001 2.313 0.634 4.569 1.73 6.6 l -1.73 7.4 6.904 -2.02 c 2.152 1.277 4.587 2.01 7.096 2.02 7.72 0.009 14 -6.276 14 -13.996 0 -7.72 -6.28 -14 -14 -14 z m -1.34 5 c 1.011 0.024 1.945 0.337 2.699 1.139 0.212 0.225 0.622 0.543 1.383 0.217 0.151 -0.065 0.095 0.567 -0.406 0.646 0.233 0.069 0.395 0.164 0.34 0.359 -0.333 0.025 -0.596 0.014 -0.572 0.121 0.469 2.141 -0.279 3.988 -1.734 4.801 -0.508 0.284 -0.85 0.344 -0.85 0.344 1.65 0.076 2.845 0.359 3.783 0.914 1.109 0.656 2.151 -0.19 2.74 -1.053 0.679 -0.994 1.468 -0.43 1.727 0.676 0.836 3.581 -0.64 7.347 -3.822 8.895 -1.754 0.853 -3.724 1.015 -5.633 0.912 -2.22 -0.12 -4.985 -1.221 -5.922 -3.381 -0.542 -1.25 -0.569 -2.618 0.24 -3.9 0.793 -1.257 2.777 -2.377 2.701 -3.838 -0.069 -1.34 -1.01 -0.934 -1.816 -0.994 -1.625 -0.121 -1.509 -0.605 -0.602 -0.912 0.399 -0.135 0.59 -0.232 0.59 -0.232 0 0 -0.938 -0.687 -1.254 -1.227 -0.435 -0.743 -0.349 -1.64 0.605 -1.174 0.652 0.319 1.861 0.295 1.975 0.021 0.649 -1.568 1.782 -2.128 2.795 -2.27 0.351 -0.049 0.696 -0.072 1.033 -0.064 z"
     style="fill:#000;opacity:0.1;fill-opacity:1;stroke:none"
     id="path21" />
  <path
     d="m 24 10 c -7.72 0 -14 6.28 -14 14 0.001 2.313 0.634 4.569 1.73 6.6 l -1.73 7.4 6.904 -2.02 c 2.152 1.277 4.587 2.01 7.096 2.02 7.72 0.009 14 -6.276 14 -13.996 0 -7.72 -6.28 -14 -14 -14 m -1.34 5 c 1.011 0.024 1.945 0.337 2.699 1.139 0.212 0.225 0.622 0.543 1.383 0.217 0.151 -0.065 0.095 0.567 -0.406 0.646 0.233 0.069 0.395 0.164 0.34 0.359 -0.333 0.025 -0.596 0.014 -0.572 0.121 0.469 2.141 -0.279 3.988 -1.734 4.801 -0.508 0.284 -0.85 0.344 -0.85 0.344 1.65 0.076 2.845 0.359 3.783 0.914 1.109 0.656 2.151 -0.19 2.74 -1.053 0.679 -0.994 1.468 -0.43 1.727 0.676 0.836 3.581 -0.64 7.347 -3.822 8.895 -1.754 0.853 -3.724 1.015 -5.633 0.912 -2.22 -0.12 -4.985 -1.221 -5.922 -3.381 -0.542 -1.25 -0.569 -2.618 0.24 -3.9 0.793 -1.257 2.777 -2.377 2.701 -3.838 -0.069 -1.34 -1.01 -0.934 -1.816 -0.994 -1.625 -0.121 -1.509 -0.605 -0.602 -0.912 0.399 -0.135 0.59 -0.232 0.59 -0.232 0 0 -0.938 -0.687 -1.254 -1.227 -0.435 -0.743 -0.349 -1.64 0.605 -1.174 0.652 0.319 1.861 0.295 1.975 0.021 0.649 -1.568 1.782 -2.128 2.795 -2.27 0.351 -0.049 0.696 -0.072 1.033 -0.064 z"
     style="fill:#f9f9f9;opacity:1;fill-opacity:1;stroke:none"
     id="path23" />
</svg>
