<?xml version="1.0" encoding="UTF-8" standalone="no"?>
<!-- Created with Inkscape (http://www.inkscape.org/) -->

<svg
   xmlns:dc="http://purl.org/dc/elements/1.1/"
   xmlns:cc="http://creativecommons.org/ns#"
   xmlns:rdf="http://www.w3.org/1999/02/22-rdf-syntax-ns#"
   xmlns:svg="http://www.w3.org/2000/svg"
   xmlns="http://www.w3.org/2000/svg"
   xmlns:xlink="http://www.w3.org/1999/xlink"
   xmlns:sodipodi="http://sodipodi.sourceforge.net/DTD/sodipodi-0.dtd"
   xmlns:inkscape="http://www.inkscape.org/namespaces/inkscape"
   width="48"
   height="48"
   id="svg5453"
   version="1.1"
   inkscape:version="0.92.2 2405546, 2018-03-11"
   sodipodi:docname="android-studio.svg">
  <defs
     id="defs5455">
    <linearGradient
       id="linearGradient3772">
      <stop
         style="stop-color:#d2e4f5;stop-opacity:1;"
         offset="0"
         id="stop3774" />
      <stop
         style="stop-color:#ffffff;stop-opacity:1;"
         offset="1"
         id="stop3776" />
    </linearGradient>
    <linearGradient
       inkscape:collect="always"
       id="linearGradient4769">
      <stop
         style="stop-color:#ffffff;stop-opacity:1;"
         offset="0"
         id="stop4771" />
      <stop
         style="stop-color:#ffffff;stop-opacity:0;"
         offset="1"
         id="stop4773" />
    </linearGradient>
    <linearGradient
       id="linearGradient4592">
      <stop
         style="stop-color:#3788fb;stop-opacity:1;"
         offset="0"
         id="stop4594" />
      <stop
         style="stop-color:#77b9ff;stop-opacity:1;"
         offset="1"
         id="stop4596" />
    </linearGradient>
    <linearGradient
       inkscape:collect="always"
       xlink:href="#linearGradient4592"
       id="linearGradient4598"
       x1="384.57144"
       y1="-522.79797"
       x2="432.57144"
       y2="-522.79797"
       gradientUnits="userSpaceOnUse"
       gradientTransform="matrix(0.83333285,0,0,0.83333285,68.095439,-87.299917)" />
    <radialGradient
       inkscape:collect="always"
       xlink:href="#linearGradient4769"
       id="radialGradient4775"
       cx="408.57144"
       cy="-523.79797"
       fx="408.57144"
       fy="-523.79797"
       r="24"
       gradientUnits="userSpaceOnUse" />
    <linearGradient
       inkscape:collect="always"
       xlink:href="#linearGradient3772"
       id="linearGradient3778"
       x1="394.97442"
       y1="523.79832"
       x2="422.16791"
       y2="523.79832"
       gradientUnits="userSpaceOnUse"
       gradientTransform="matrix(0.83333285,0,0,0.83333285,68.095439,87.299917)" />
  </defs>
  <sodipodi:namedview
     id="base"
     pagecolor="#ffffff"
     bordercolor="#666666"
     borderopacity="1.0"
     inkscape:pageopacity="0"
     inkscape:pageshadow="2"
     inkscape:zoom="64"
     inkscape:cx="25.129721"
     inkscape:cy="12.660405"
     inkscape:document-units="px"
     inkscape:current-layer="layer1"
     showgrid="true"
     fit-margin-top="0"
     fit-margin-left="0"
     fit-margin-right="0"
     fit-margin-bottom="0"
     inkscape:window-width="1920"
     inkscape:window-height="1006"
     inkscape:window-x="0"
     inkscape:window-y="0"
     inkscape:window-maximized="1"
     inkscape:snap-bbox="true">
    <inkscape:grid
       type="xygrid"
       id="grid3002" />
  </sodipodi:namedview>
  <metadata
     id="metadata5458">
    <rdf:RDF>
      <cc:Work
         rdf:about="">
        <dc:format>image/svg+xml</dc:format>
        <dc:type
           rdf:resource="http://purl.org/dc/dcmitype/StillImage" />
        <dc:title />
      </cc:Work>
    </rdf:RDF>
  </metadata>
  <g
     inkscape:label="Capa 1"
     inkscape:groupmode="layer"
     id="layer1"
     transform="translate(-384.57143,-499.798)">
    <rect
       style="fill:url(#linearGradient4598);fill-opacity:1;stroke:none"
       id="rect2991-1-7"
       width="39.999977"
       height="39.999977"
       x="388.57144"
       y="-543.79797"
       ry="0"
       transform="scale(1,-1)" />
    <path
       style="opacity:0.75;fill:url(#linearGradient3778);fill-opacity:1;fill-rule:evenodd;stroke:none"
       d="m 404.3672,510.97354 c -0.1394,0.0174 -0.27744,0.0619 -0.40713,0.1368 -0.51881,0.29953 -0.69528,0.9583 -0.39574,1.47709 l 0.56673,0.98365 c -1.75693,1.15461 -2.91737,3.13398 -2.93953,5.39701 l -0.003,0 0,0.22962 c -0.41863,-0.36509 -0.96174,-0.59278 -1.56339,-0.59278 -1.32085,0 -2.3842,1.06335 -2.3842,2.38419 l 0,5.44099 c 0,1.32085 1.06335,2.38419 2.3842,2.38419 0.60165,0 1.14476,-0.22768 1.56339,-0.59279 l 0,1.54712 c 0,1.07919 0.86856,1.94938 1.94775,1.94938 l 0.4511,0 c -0.005,0.0617 -0.0179,0.12101 -0.0179,0.18402 l 0,2.34512 c 0,1.32085 1.06335,2.38419 2.3842,2.38419 1.32084,0 2.38419,-1.06334 2.38419,-2.38419 l 0,-2.34512 c 0,-0.063 -0.0132,-0.12228 -0.0179,-0.18402 l 0.5309,0 c -0.005,0.0617 -0.0179,0.12101 -0.0179,0.18402 l 0,2.34512 c 0,1.32085 1.06335,2.38419 2.3842,2.38419 1.32084,0 2.38419,-1.06334 2.38419,-2.38419 l 0,-2.34512 c 0,-0.063 -0.0132,-0.12228 -0.0179,-0.18402 l 0.4511,0 c 1.07919,0 1.94775,-0.87019 1.94775,-1.94938 l 0,-1.52595 c 0.41529,0.35204 0.94617,0.57162 1.53572,0.57162 1.32084,0 2.3842,-1.06334 2.3842,-2.38419 l 0,-5.44099 c 0,-1.32084 -1.06336,-2.38419 -2.3842,-2.38419 -0.58955,0 -1.12043,0.21958 -1.53572,0.57161 l 0,-0.20845 -0.003,0 c -0.0222,-2.26303 -1.1826,-4.2424 -2.93953,-5.39701 l 0.56673,-0.98365 c 0.29953,-0.5188 0.12307,-1.17756 -0.39574,-1.47709 -0.12969,-0.0749 -0.26774,-0.11934 -0.40714,-0.1368 -0.4182,-0.0523 -0.8453,0.14343 -1.06995,0.53254 l -0.69051,1.19536 c -0.51064,-0.12733 -1.04318,-0.20195 -1.59435,-0.20195 l -1.72626,0 c -0.55117,0 -1.08371,0.0747 -1.59435,0.20195 l -0.6905,-1.19536 c -0.22465,-0.3891 -0.65175,-0.58494 -1.06996,-0.53254 z m 0.0408,0.55208 c 0.17843,-0.0222 0.36024,0.0622 0.45599,0.22799 l 0.65305,1.13185 c -0.29426,0.10497 -0.57891,0.22716 -0.85173,0.37131 l -0.60094,-1.04228 c -0.12768,-0.22114 -0.0518,-0.50256 0.16937,-0.63024 0.0553,-0.0319 0.11479,-0.0512 0.17426,-0.0587 z m 8.35445,0 c 0.0595,0.007 0.11897,0.0267 0.17426,0.0587 0.22114,0.12767 0.29705,0.4091 0.16938,0.63024 l -0.60094,1.04227 c -0.27283,-0.14415 -0.55748,-0.26634 -0.85174,-0.37131 l 0.65305,-1.13185 c 0.0958,-0.16584 0.27757,-0.25014 0.45599,-0.22799 z m -4.94263,1.71161 1.53083,0 c 3.02146,0 5.48817,2.28747 5.76994,5.23253 l -13.07073,0 c 0.28178,-2.94506 2.74848,-5.23253 5.76996,-5.23253 z m -2.05524,2.01451 c -0.3645,0 -0.65793,0.29344 -0.65793,0.65794 0,0.36449 0.29343,0.65793 0.65793,0.65793 0.3645,0 0.65794,-0.29344 0.65794,-0.65793 0,-0.3645 -0.29344,-0.65794 -0.65794,-0.65794 z m 5.62827,0 c -0.3645,0 -0.65794,0.29344 -0.65794,0.65794 0,0.36449 0.29344,0.65793 0.65794,0.65793 0.3645,0 0.65793,-0.29344 0.65793,-0.65793 0,-0.3645 -0.29343,-0.65794 -0.65793,-0.65794 z m -9.34787,3.31899 0,0.39736 -0.0196,0 c 0.002,-0.13353 0.009,-0.26592 0.0196,-0.39736 z m 13.08051,0 c 0.0103,0.13144 0.0171,0.26383 0.0195,0.39736 l -0.0195,0 0,-0.39736 z m -13.08051,0.73284 13.08051,0 0,1.56178 0,1.38426 c 0.003,-0.005 0.005,-0.011 0.008,-0.0163 l 0,4.19678 c 0,0.0497 0.0117,0.0961 0.0147,0.14494 l 0,2.67734 c 0,0.95753 -0.77199,1.72789 -1.72953,1.72789 l -9.66707,0 c -0.95753,0 -1.72952,-0.77036 -1.72952,-1.72789 l 0,-7.05 c 0.009,0.0153 0.0143,0.0321 0.0228,0.0473 l 0,-0.30941 0,-0.16775 0,-0.9071 0,-1.56178 z m -2.42003,0.13518 c 0.85969,0 1.552,0.69231 1.552,1.552 l 0,5.43773 c 0,0.85968 -0.69231,1.552 -1.552,1.552 -0.85968,0 -1.55201,-0.69232 -1.55201,-1.552 l 0,-5.43773 c 0,-0.85969 0.69233,-1.552 1.55201,-1.552 z m 17.89287,0 c 0.85968,0 1.55201,0.69231 1.55201,1.552 l 0,5.43773 c 0,0.85968 -0.69233,1.552 -1.55201,1.552 -0.80568,0 -1.45614,-0.61 -1.53572,-1.39404 l 0,-4.64624 0,-1.10579 c 0.0788,-0.78481 0.72949,-1.39566 1.53572,-1.39566 z m -13.03817,12.27926 2.94768,0 c 0.003,0.0403 0.013,0.0793 0.013,0.12051 l 0,2.47214 c 0,0.82354 -0.66333,1.48686 -1.48686,1.48686 -0.82354,0 -1.48687,-0.66332 -1.48687,-1.48686 l 0,-2.47214 c 0,-0.0412 0.01,-0.0802 0.013,-0.12051 z m 5.26347,0 2.94768,0 c 0.003,0.0403 0.013,0.0793 0.013,0.12051 l 0,2.47214 c 0,0.82354 -0.66334,1.48686 -1.48687,1.48686 -0.82353,0 -1.48687,-0.66332 -1.48687,-1.48686 l 0,-2.47214 c 0,-0.0412 0.01,-0.0802 0.013,-0.12051 z"
       id="rect4159"
       inkscape:connector-curvature="0" />
    <path
       style="fill:#666666;fill-opacity:1;stroke:none"
       d="m 388.57143,543.7977 40,3e-4 c -20,-1 -20,-1 -40,0 z"
       id="path3800"
       inkscape:connector-curvature="0"
       sodipodi:nodetypes="cccc" />
    <path
       sodipodi:nodetypes="cccc"
       inkscape:connector-curvature="0"
       id="path3804"
       d="m 388.57143,503.7979 40,-2e-4 c -20,1 -20,1 -40,0 z"
       style="fill:#ececec;fill-opacity:1;stroke:none" />
  </g>
</svg>
