<?xml version="1.0" encoding="UTF-8" standalone="no"?>
<svg
   xmlns:dc="http://purl.org/dc/elements/1.1/"
   xmlns:cc="http://creativecommons.org/ns#"
   xmlns:rdf="http://www.w3.org/1999/02/22-rdf-syntax-ns#"
   xmlns:svg="http://www.w3.org/2000/svg"
   xmlns="http://www.w3.org/2000/svg"
   xmlns:xlink="http://www.w3.org/1999/xlink"
   xmlns:sodipodi="http://sodipodi.sourceforge.net/DTD/sodipodi-0.dtd"
   xmlns:inkscape="http://www.inkscape.org/namespaces/inkscape"
   viewBox="0 0 48 48"
   id="svg2"
   version="1.1"
   inkscape:version="0.91 r13725"
   sodipodi:docname="android-sdk.svg">
  <metadata
     id="metadata33">
    <rdf:RDF>
      <cc:Work
         rdf:about="">
        <dc:format>image/svg+xml</dc:format>
        <dc:type
           rdf:resource="http://purl.org/dc/dcmitype/StillImage" />
      </cc:Work>
    </rdf:RDF>
  </metadata>
  <sodipodi:namedview
     pagecolor="#ffffff"
     bordercolor="#666666"
     borderopacity="1"
     objecttolerance="10"
     gridtolerance="10"
     guidetolerance="10"
     inkscape:pageopacity="0"
     inkscape:pageshadow="2"
     inkscape:window-width="1366"
     inkscape:window-height="705"
     id="namedview31"
     showgrid="false"
     inkscape:zoom="4.9166667"
     inkscape:cx="24"
     inkscape:cy="24"
     inkscape:window-x="0"
     inkscape:window-y="28"
     inkscape:window-maximized="1"
     inkscape:current-layer="svg2" />
  <defs
     id="defs4">
    <linearGradient
       inkscape:collect="always"
       xlink:href="#linearGradient3552"
       id="linearGradient3526"
       gradientUnits="userSpaceOnUse"
       gradientTransform="matrix(0.83333307,0,0,0.83333307,-317.03371,412.80361)"
       x1="379.57144"
       y1="-527.79797"
       x2="431.57144"
       y2="-527.79797" />
    <linearGradient
       id="linearGradient3552">
      <stop
         id="stop3554"
         offset="0"
         style="stop-color:#455a64;stop-opacity:1" />
      <stop
         id="stop3556"
         offset="1"
         style="stop-color:#90a4ae;stop-opacity:1" />
    </linearGradient>
  </defs>
  <g
     transform="translate(0.55761199,0.30529681)"
     id="g3510">
    <rect
       style="fill:url(#linearGradient3526);fill-opacity:1;stroke:none"
       id="rect3512"
       width="39.999989"
       height="39.999989"
       x="3.4424012"
       y="-43.694542"
       ry="0"
       transform="scale(1,-1)" />
    <path
       style="opacity:0.35;fill:#000000;fill-opacity:1;stroke:none"
       d="m 3.4423873,43.694552 40.0000007,3.01e-4 c -20,-0.999999 -20,-0.999999 -40.0000017,0 z"
       id="path3514"
       inkscape:connector-curvature="0"
       sodipodi:nodetypes="cccc" />
    <path
       sodipodi:nodetypes="cccc"
       inkscape:connector-curvature="0"
       id="path3516"
       d="M 3.4423913,3.6947551 43.442388,3.6945549 c -19.999996,1.0000006 -19.999996,1.0000006 -39.9999977,0 z"
       style="opacity:0.5;fill:#ffffff;fill-opacity:1;stroke:none" />
  </g>
  <path
     d="m 20.291 12 0.002 0.002 c -0.229 0.01 -0.364 0.261 -0.246 0.457 l 0.947 1.629 c -1.873 1.122 -2.989 2.956 -2.99 4.914 l 14 0 c -0.004 -1.957 -1.121 -3.79 -2.994 -4.91 l 0.951 -1.633 c 0.119 -0.2 -0.023 -0.454 -0.256 -0.457 -0.111 -0.002 -0.213 0.058 -0.268 0.154 l -0.959 1.646 c -1.057 -0.522 -2.257 -0.802 -3.477 -0.803 c -1.22 -0.001 -2.419 0.278 -3.477 0.799 l -0.957 -1.645 c -0.056 -0.1 -0.163 -0.159 -0.277 -0.154 m 1.211 4 c 0.276 0 0.5 0.224 0.5 0.5 0 0.276 -0.224 0.5 -0.5 0.5 -0.276 0 -0.5 -0.224 -0.5 -0.5 0 -0.276 0.224 -0.5 0.5 -0.5 z m 7 0 c 0.276 0 0.5 0.224 0.5 0.5 0 0.276 -0.224 0.5 -0.5 0.5 -0.276 0 -0.5 -0.224 -0.5 -0.5 0 -0.276 0.224 -0.5 0.5 -0.5 z m -13 4 c -0.831 0 -1.5 0.669 -1.5 1.5 l 0 7 c 0 0.831 0.669 1.5 1.5 1.5 0.831 0 1.5 -0.669 1.5 -1.5 l 0 -7 c 0 -0.831 -0.669 -1.5 -1.5 -1.5 z m 2.5 0 0 11 c 0 1.108 0.892 2 2 2 l 1 0 0 3.5 c 0 0.831 0.669 1.5 1.5 1.5 0.831 0 1.5 -0.669 1.5 -1.5 l 0 -3.5 2 0 0 3.5 c 0 0.831 0.669 1.5 1.5 1.5 0.831 0 1.5 -0.669 1.5 -1.5 l 0 -3.5 1 0 c 1.108 0 2 -0.892 2 -2 l 0 -11 -14 0 z m 16.5 0 c -0.831 0 -1.5 0.669 -1.5 1.5 l 0 7 c 0 0.831 0.669 1.5 1.5 1.5 0.831 0 1.5 -0.669 1.5 -1.5 l 0 -7 c 0 -0.831 -0.669 -1.5 -1.5 -1.5 z m -11.498 2 4 0 0 5 2 0 -4 4 -4 -4 2 0 0 -5 z"
     style="fill:#000;opacity:0.1;fill-opacity:1;stroke:none"
     id="path27" />
  <path
     d="m 19.289 10.998 0.002 0.002 c -0.229 0.01 -0.364 0.261 -0.246 0.457 l 0.947 1.629 c -1.873 1.122 -2.989 2.956 -2.99 4.914 l 14 0 c -0.004 -1.957 -1.121 -3.79 -2.994 -4.91 l 0.951 -1.633 c 0.119 -0.2 -0.023 -0.454 -0.256 -0.457 -0.111 -0.002 -0.213 0.058 -0.268 0.154 l -0.959 1.646 c -1.057 -0.522 -2.257 -0.802 -3.477 -0.803 c -1.22 -0.001 -2.419 0.278 -3.477 0.799 l -0.957 -1.645 c -0.056 -0.1 -0.163 -0.159 -0.277 -0.154 z m 1.211 4 c 0.276 0 0.5 0.224 0.5 0.5 0 0.276 -0.224 0.5 -0.5 0.5 -0.276 0 -0.5 -0.224 -0.5 -0.5 0 -0.276 0.224 -0.5 0.5 -0.5 z m 7 0 c 0.276 0 0.5 0.224 0.5 0.5 0 0.276 -0.224 0.5 -0.5 0.5 -0.276 0 -0.5 -0.224 -0.5 -0.5 0 -0.276 0.224 -0.5 0.5 -0.5 z m -13 4 c -0.831 0 -1.5 0.669 -1.5 1.5 l 0 7 c 0 0.831 0.669 1.5 1.5 1.5 0.831 0 1.5 -0.669 1.5 -1.5 l 0 -7 c 0 -0.831 -0.669 -1.5 -1.5 -1.5 z m 2.5 0 0 11 c 0 1.108 0.892 2 2 2 l 1 0 0 3.5 c 0 0.831 0.669 1.5 1.5 1.5 0.831 0 1.5 -0.669 1.5 -1.5 l 0 -3.5 2 0 0 3.5 c 0 0.831 0.669 1.5 1.5 1.5 0.831 0 1.5 -0.669 1.5 -1.5 l 0 -3.5 1 0 c 1.108 0 2 -0.892 2 -2 l 0 -11 -14 0 z m 16.5 0 c -0.831 0 -1.5 0.669 -1.5 1.5 l 0 7 c 0 0.831 0.669 1.5 1.5 1.5 0.831 0 1.5 -0.669 1.5 -1.5 l 0 -7 c 0 -0.831 -0.669 -1.5 -1.5 -1.5 z m -11.498 2 l 4 0 0 5 2 0 -4 4 -4 -4 2 0 0 -5 z"
     style="fill:#f9f9f9;opacity:1;fill-opacity:1;stroke:none"
     id="path29" />
</svg>
