<?xml version="1.0" encoding="UTF-8" standalone="no"?>
<svg
   xmlns:dc="http://purl.org/dc/elements/1.1/"
   xmlns:cc="http://creativecommons.org/ns#"
   xmlns:rdf="http://www.w3.org/1999/02/22-rdf-syntax-ns#"
   xmlns:svg="http://www.w3.org/2000/svg"
   xmlns="http://www.w3.org/2000/svg"
   xmlns:xlink="http://www.w3.org/1999/xlink"
   xmlns:sodipodi="http://sodipodi.sourceforge.net/DTD/sodipodi-0.dtd"
   xmlns:inkscape="http://www.inkscape.org/namespaces/inkscape"
   viewBox="0 0 48 48"
   id="svg2"
   version="1.1"
   inkscape:version="0.91 r13725"
   sodipodi:docname="anoise.svg">
  <metadata
     id="metadata34">
    <rdf:RDF>
      <cc:Work
         rdf:about="">
        <dc:format>image/svg+xml</dc:format>
        <dc:type
           rdf:resource="http://purl.org/dc/dcmitype/StillImage" />
      </cc:Work>
    </rdf:RDF>
  </metadata>
  <defs
     id="defs32">
    <linearGradient
       inkscape:collect="always"
       xlink:href="#linearGradient3528"
       id="linearGradient3518"
       gradientUnits="userSpaceOnUse"
       gradientTransform="matrix(0.83333307,0,0,0.83333307,-317.03371,412.80361)"
       x1="379.57144"
       y1="-527.79797"
       x2="431.57144"
       y2="-527.79797" />
    <linearGradient
       id="linearGradient3528">
      <stop
         id="stop3530"
         offset="0"
         style="stop-color:#ef6c00;stop-opacity:1" />
      <stop
         id="stop3532"
         offset="1"
         style="stop-color:#ffb74d;stop-opacity:1" />
    </linearGradient>
  </defs>
  <sodipodi:namedview
     pagecolor="#ffffff"
     bordercolor="#666666"
     borderopacity="1"
     objecttolerance="10"
     gridtolerance="10"
     guidetolerance="10"
     inkscape:pageopacity="0"
     inkscape:pageshadow="2"
     inkscape:window-width="1366"
     inkscape:window-height="705"
     id="namedview30"
     showgrid="false"
     inkscape:zoom="4.9166667"
     inkscape:cx="24"
     inkscape:cy="24"
     inkscape:window-x="0"
     inkscape:window-y="28"
     inkscape:window-maximized="1"
     inkscape:current-layer="svg2" />
  <g
     transform="translate(0.55761199,0.30529681)"
     id="g3478">
    <rect
       style="fill:url(#linearGradient3518);fill-opacity:1;stroke:none"
       id="rect3480"
       width="39.999989"
       height="39.999989"
       x="3.4424012"
       y="-43.694542"
       ry="0"
       transform="scale(1,-1)" />
    <path
       style="opacity:0.35;fill:#000000;fill-opacity:1;stroke:none"
       d="m 3.4423873,43.694552 40.0000007,3.01e-4 c -20,-0.999999 -20,-0.999999 -40.0000017,0 z"
       id="path3482"
       inkscape:connector-curvature="0"
       sodipodi:nodetypes="cccc" />
    <path
       sodipodi:nodetypes="cccc"
       inkscape:connector-curvature="0"
       id="path3484"
       d="M 3.4423913,3.6947551 43.442388,3.6945549 c -19.999996,1.0000006 -19.999996,1.0000006 -39.9999977,0 z"
       style="opacity:0.5;fill:#ffffff;fill-opacity:1;stroke:none" />
  </g>
  <path
     d="M 41 25 A 16 16 0 0 1 25 41 16 16 0 0 1 9 25 16 16 0 0 1 25 9 16 16 0 0 1 41 25"
     style="fill:#000;opacity:0.1;fill-opacity:1;stroke:none"
     id="path16" />
  <g
     id="g22">
    <path
       d="M 40 24 A 16 16 0 0 1 24 40 16 16 0 0 1 8 24 16 16 0 0 1 24 8 16 16 0 0 1 40 24"
       style="fill:#fff;opacity:1;fill-opacity:1;stroke:none"
       id="path24" />
    <path
       d="m 20.721 14.25 a 1.25 1.25 0 0 0 -0.822 2.166 L 28.881 25 19.898 33.584 a 1.25 1.25 0 1 0 1.729 1.807 L 32.5 25 21.627 14.607 A 1.25 1.25 0 0 0 20.721 14.25"
       mix-blend-mode="normal"
       isolation="auto"
       white-space="normal"
       solid-opacity="1"
       solid-color="#000000"
       style="visibility:visible;shape-rendering:auto;color-interpolation-filters:linearRGB;fill:#000;opacity:0.1;image-rendering:auto;fill-opacity:1;stroke:none;display:inline;color:#000;fill-rule:evenodd;color-rendering:auto;color-interpolation:sRGB"
       id="path26" />
    <path
       d="m 19.721 13.25 a 1.25 1.25 0 0 0 -0.822 2.166 L 27.881 24 18.898 32.584 a 1.25 1.25 0 1 0 1.729 1.807 L 31.5 24 20.627 13.609 A 1.25 1.25 0 0 0 19.721 13.25"
       mix-blend-mode="normal"
       isolation="auto"
       white-space="normal"
       solid-opacity="1"
       solid-color="#000000"
       style="visibility:visible;shape-rendering:auto;color-interpolation-filters:linearRGB;fill:#353535;opacity:1;image-rendering:auto;fill-opacity:1;stroke:none;display:inline;color:#000;fill-rule:evenodd;color-rendering:auto;color-interpolation:sRGB"
       id="path28" />
  </g>
</svg>
