<?xml version="1.0" encoding="UTF-8" standalone="no"?>
<svg
   xmlns:dc="http://purl.org/dc/elements/1.1/"
   xmlns:cc="http://creativecommons.org/ns#"
   xmlns:rdf="http://www.w3.org/1999/02/22-rdf-syntax-ns#"
   xmlns:svg="http://www.w3.org/2000/svg"
   xmlns="http://www.w3.org/2000/svg"
   xmlns:xlink="http://www.w3.org/1999/xlink"
   xmlns:sodipodi="http://sodipodi.sourceforge.net/DTD/sodipodi-0.dtd"
   xmlns:inkscape="http://www.inkscape.org/namespaces/inkscape"
   id="svg2"
   version="1.1"
   viewBox="0 0 48 48"
   inkscape:version="0.91 r13725"
   sodipodi:docname="asc-de.svg">
  <sodipodi:namedview
     pagecolor="#ffffff"
     bordercolor="#666666"
     borderopacity="1"
     objecttolerance="10"
     gridtolerance="10"
     guidetolerance="10"
     inkscape:pageopacity="0"
     inkscape:pageshadow="2"
     inkscape:window-width="1366"
     inkscape:window-height="705"
     id="namedview26"
     showgrid="false"
     inkscape:zoom="4.9166667"
     inkscape:cx="-6.7118644"
     inkscape:cy="24"
     inkscape:window-x="0"
     inkscape:window-y="28"
     inkscape:window-maximized="1"
     inkscape:current-layer="svg2" />
  <metadata
     id="metadata45">
    <rdf:RDF>
      <cc:Work
         rdf:about="">
        <dc:format>image/svg+xml</dc:format>
        <dc:type
           rdf:resource="http://purl.org/dc/dcmitype/StillImage" />
        <dc:title />
      </cc:Work>
    </rdf:RDF>
  </metadata>
  <defs
     id="defs4">
    <linearGradient
       gradientUnits="userSpaceOnUse"
       y2="-527.79797"
       x2="431.57144"
       y1="-527.79797"
       x1="379.57144"
       id="linearGradient4172"
       xlink:href="#linearGradient5277"
       inkscape:collect="always"
       gradientTransform="matrix(0.83333307,0,0,0.83333307,-317.03371,412.80361)" />
    <linearGradient
       id="linearGradient5277">
      <stop
         id="stop5279"
         offset="0"
         style="stop-color:#333333;stop-opacity:1" />
      <stop
         id="stop5281"
         offset="1"
         style="stop-color:#666666;stop-opacity:1" />
    </linearGradient>
  </defs>
  <g
     id="g3208"
     transform="translate(0.55761199,0.30529681)">
    <rect
       transform="scale(1,-1)"
       ry="0"
       y="-43.694542"
       x="3.4424012"
       height="39.999989"
       width="39.999989"
       id="rect2991-1-7"
       style="fill:url(#linearGradient4172);fill-opacity:1;stroke:none" />
    <path
       sodipodi:nodetypes="cccc"
       inkscape:connector-curvature="0"
       id="path3800"
       d="m 3.4423873,43.694552 40.0000007,3.01e-4 c -20,-0.999999 -20,-0.999999 -40.0000017,0 z"
       style="opacity:0.35;fill:#000000;fill-opacity:1;stroke:none" />
    <path
       style="opacity:0.5;fill:#ffffff;fill-opacity:1;stroke:none"
       d="M 3.4423913,3.6947551 43.442388,3.6945549 c -19.999996,1.0000006 -19.999996,1.0000006 -39.9999977,0 z"
       id="path3804"
       inkscape:connector-curvature="0"
       sodipodi:nodetypes="cccc" />
  </g>
  <g
     id="g23">
    <g
       id="g25">
      <g
         id="g27"
         transform="translate(1,1)">
        <g
           id="g29"
           style="opacity:.1">
          <!-- color: #abd240 -->
        </g>
      </g>
    </g>
  </g>
  <g
     id="g31">
    <g
       id="g33">
      <!-- color: #abd240 -->
    </g>
  </g>
  <path
     id="path4235"
     d="m25.001 13c-0.64816 0-1.2963 0.11452-1.793 0.34375l-10.463 4.8281c-0.99331 0.45845-0.99331 1.1978 0 1.6562l10.463 4.8281c0.99331 0.45845 2.5926 0.45845 3.5859 0l10.463-4.828c0.99331-0.45845 0.99331-1.1978 0-1.6562l-10.463-4.828c-0.49665-0.22922-1.1448-0.34375-1.793-0.34375zm-8.6328 9.5-3.623 1.6719c-0.99331 0.45845-0.99331 1.1978 0 1.6562l10.463 4.8281c0.99331 0.45845 2.5926 0.45845 3.5859 0l10.463-4.828c0.99331-0.45845 0.99331-1.1978 0-1.6562l-3.623-1.6719-6.8398 3.1562c-0.99331 0.45845-2.5926 0.45845-3.5859 0l-6.8398-3.1562zm0 6-3.623 1.6719c-0.99331 0.45845-0.99331 1.1978 0 1.6562l10.463 4.8281c0.99331 0.45845 2.5926 0.45845 3.5859 0l10.463-4.828c0.99331-0.45845 0.99331-1.1978 0-1.6562l-3.623-1.6719-6.8398 3.1562c-0.99331 0.45845-2.5926 0.45845-3.5859 0l-6.8398-3.1562z"
     style="opacity:.1" />
  <path
     id="rect4144"
     d="m15.367 27.5-3.623 1.6719c-0.99331 0.45845-0.99331 1.1978 0 1.6562l10.463 4.8281c0.99331 0.45845 2.5926 0.45845 3.5859 0l10.463-4.8281c0.99331-0.45845 0.99331-1.1978 0-1.6562l-3.623-1.672-6.84 3.156c-0.99331 0.45845-2.5926 0.45845-3.5859 0z"
     style="fill:#f5602b" />
  <path
     id="rect4142"
     d="m15.367 21.5l-3.623 1.672c-0.993 0.458-0.993 1.198 0 1.656l10.463 4.828c0.993 0.459 2.593 0.459 3.586 0l10.463-4.828c0.993-0.458 0.993-1.198 0-1.656l-3.623-1.672-6.84 3.156c-0.993 0.459-2.593 0.459-3.586 0l-6.84-3.156z"
     style="fill:#a4cf3b" />
  <rect
     id="rect4140"
     x="-15.996"
     style="fill-opacity:.99608;fill:#4aaad6"
     height="15.472"
     ry="1.9747"
     y="26.957"
     width="15.472"
     transform="matrix(.90796 -.41906 .90796 .41906 0 0)" />
</svg>
