<?xml version="1.0" encoding="UTF-8" standalone="no"?>
<svg
   xmlns:dc="http://purl.org/dc/elements/1.1/"
   xmlns:cc="http://creativecommons.org/ns#"
   xmlns:rdf="http://www.w3.org/1999/02/22-rdf-syntax-ns#"
   xmlns:svg="http://www.w3.org/2000/svg"
   xmlns="http://www.w3.org/2000/svg"
   xmlns:xlink="http://www.w3.org/1999/xlink"
   xmlns:sodipodi="http://sodipodi.sourceforge.net/DTD/sodipodi-0.dtd"
   xmlns:inkscape="http://www.inkscape.org/namespaces/inkscape"
   viewBox="0 0 48 48"
   id="svg2"
   version="1.1"
   inkscape:version="0.91 r13725"
   sodipodi:docname="aseprite.svg">
  <metadata
     id="metadata45">
    <rdf:RDF>
      <cc:Work
         rdf:about="">
        <dc:format>image/svg+xml</dc:format>
        <dc:type
           rdf:resource="http://purl.org/dc/dcmitype/StillImage" />
      </cc:Work>
    </rdf:RDF>
  </metadata>
  <sodipodi:namedview
     pagecolor="#ffffff"
     bordercolor="#666666"
     borderopacity="1"
     objecttolerance="10"
     gridtolerance="10"
     guidetolerance="10"
     inkscape:pageopacity="0"
     inkscape:pageshadow="2"
     inkscape:window-width="686"
     inkscape:window-height="485"
     id="namedview43"
     showgrid="false"
     inkscape:zoom="4.9166667"
     inkscape:cx="24"
     inkscape:cy="24"
     inkscape:window-x="461"
     inkscape:window-y="129"
     inkscape:window-maximized="0"
     inkscape:current-layer="svg2" />
  <defs
     id="defs4">
    <linearGradient
       inkscape:collect="always"
       xlink:href="#linearGradient3859"
       id="linearGradient3739"
       gradientUnits="userSpaceOnUse"
       gradientTransform="matrix(0.83333307,0,0,0.83333307,-317.03371,412.80361)"
       x1="379.57144"
       y1="-527.79797"
       x2="431.57144"
       y2="-527.79797" />
    <linearGradient
       id="linearGradient3859">
      <stop
         id="stop3861"
         offset="0"
         style="stop-color:#cccccc;stop-opacity:1" />
      <stop
         id="stop3863"
         offset="1"
         style="stop-color:#ececec;stop-opacity:1" />
    </linearGradient>
  </defs>
  <g
     id="g3665"
     transform="translate(0.55761199,0.30529681)">
    <rect
       transform="scale(1,-1)"
       ry="0"
       y="-43.694542"
       x="3.4424012"
       height="39.999989"
       width="39.999989"
       id="rect3667"
       style="fill:url(#linearGradient3739);fill-opacity:1;stroke:none" />
    <path
       sodipodi:nodetypes="cccc"
       inkscape:connector-curvature="0"
       id="path3669"
       d="m 3.4423873,43.694552 40.0000007,3.01e-4 c -20,-0.999999 -20,-0.999999 -40.0000017,0 z"
       style="opacity:0.35;fill:#000000;fill-opacity:1;stroke:none" />
    <path
       style="opacity:0.5;fill:#ffffff;fill-opacity:1;stroke:none"
       d="M 3.4423913,3.6947551 43.442388,3.6945549 c -19.999996,1.0000006 -19.999996,1.0000006 -39.9999977,0 z"
       id="path3671"
       inkscape:connector-curvature="0"
       sodipodi:nodetypes="cccc" />
  </g>
  <g
     transform="matrix(3.543307,0,0,3.543307,-9.8288105e-5,5.00406e-4)"
     style="display:inline"
     id="g27">
    <g
       id="g29">
      <path
         d="m 33.474 26.25 0 12.501 -11.669 0 0 125.01 11.669 0 0 12.501 116.69 0 0 -12.501 11.669 0 0 -125.01 -11.669 0 0 -12.501 z"
         transform="matrix(0.04837074,0,0,0.04515119,2.6141654,2.4836422)"
         style="fill:#000;fill-opacity:0.098"
         id="path31" />
      <g
         id="g33">
        <rect
           width="5.644"
           height="4.798"
           x="3.951"
           y="3.951"
           rx="0.003"
           style="fill:#f9f9f9;fill-opacity:1;stroke:none;fill-rule:nonzero"
           id="rect35" />
        <g
           transform="matrix(0.04837074,0,0,0.04515119,2.6141654,2.4836422)"
           id="g37">
          <path
             d="m 27.64 20 0 12.501 -11.669 0 0 125.01 11.669 0 0 12.501 116.69 0 0 -12.501 11.669 0 0 -125.01 -11.669 0 0 -12.501 z m 11.669 12.501 93.35 0 11.669 12.501 0 81.26 -11.669 0 0 12.501 -93.35 0 0 -12.501 -11.669 0 0 -81.26 z"
             style="fill:#859fad;fill-opacity:1"
             id="path39" />
          <path
             d="m 39.31 157.51 -11.669 0 0 -12.501 -11.669 0 0 -100.01 11.669 0 0 -12.501 11.669 0 0 -12.501 93.35 0 0 12.501 11.669 0 0 12.501 11.669 0 0 100.01 -11.669 0 0 12.501 -11.669 0 0 12.501 -93.35 0 z m 93.35 -12.501 11.669 0 0 -100.01 -11.669 0 0 -12.501 -93.35 0 0 12.501 -11.669 0 0 100.01 11.669 0 0 12.501 93.35 0 z m -75.849 -87.51 11.669 0 0 43.754 -11.669 0 z m 46.677 0 11.669 0 0 43.754 -11.669 0 z"
             style="fill:#645460"
             id="path41" />
        </g>
      </g>
    </g>
  </g>
</svg>
