<?xml version="1.0" encoding="UTF-8" standalone="no"?>
<svg
   xmlns:dc="http://purl.org/dc/elements/1.1/"
   xmlns:cc="http://creativecommons.org/ns#"
   xmlns:rdf="http://www.w3.org/1999/02/22-rdf-syntax-ns#"
   xmlns:svg="http://www.w3.org/2000/svg"
   xmlns="http://www.w3.org/2000/svg"
   xmlns:xlink="http://www.w3.org/1999/xlink"
   xmlns:sodipodi="http://sodipodi.sourceforge.net/DTD/sodipodi-0.dtd"
   xmlns:inkscape="http://www.inkscape.org/namespaces/inkscape"
   viewBox="0 0 48 48"
   id="svg2"
   version="1.1"
   inkscape:version="0.91 r13725"
   sodipodi:docname="astah-pro.svg">
  <metadata
     id="metadata65">
    <rdf:RDF>
      <cc:Work
         rdf:about="">
        <dc:format>image/svg+xml</dc:format>
        <dc:type
           rdf:resource="http://purl.org/dc/dcmitype/StillImage" />
      </cc:Work>
    </rdf:RDF>
  </metadata>
  <sodipodi:namedview
     pagecolor="#ffffff"
     bordercolor="#666666"
     borderopacity="1"
     objecttolerance="10"
     gridtolerance="10"
     guidetolerance="10"
     inkscape:pageopacity="0"
     inkscape:pageshadow="2"
     inkscape:window-width="928"
     inkscape:window-height="577"
     id="namedview63"
     showgrid="false"
     inkscape:zoom="4.9166667"
     inkscape:cx="24"
     inkscape:cy="24"
     inkscape:window-x="385"
     inkscape:window-y="106"
     inkscape:window-maximized="0"
     inkscape:current-layer="svg2" />
  <defs
     id="defs4">
    <linearGradient
       inkscape:collect="always"
       xlink:href="#linearGradient3436"
       id="linearGradient3285"
       gradientUnits="userSpaceOnUse"
       gradientTransform="matrix(0.83333307,0,0,0.83333307,-317.03371,412.80361)"
       x1="379.57144"
       y1="-527.79797"
       x2="431.57144"
       y2="-527.79797" />
    <linearGradient
       id="linearGradient3436">
      <stop
         style="stop-color:#d81b60;stop-opacity:1"
         offset="0"
         id="stop3438" />
      <stop
         style="stop-color:#f06292;stop-opacity:1"
         offset="1"
         id="stop3440" />
    </linearGradient>
  </defs>
  <g
     id="g3263"
     transform="translate(0.55761199,0.30529681)">
    <rect
       transform="scale(1,-1)"
       ry="0"
       y="-43.694542"
       x="3.4424012"
       height="39.999989"
       width="39.999989"
       id="rect3265"
       style="fill:url(#linearGradient3285);fill-opacity:1;stroke:none" />
    <path
       sodipodi:nodetypes="cccc"
       inkscape:connector-curvature="0"
       id="path3267"
       d="m 3.4423873,43.694552 40.0000007,3.01e-4 c -20,-0.999999 -20,-0.999999 -40.0000017,0 z"
       style="opacity:0.35;fill:#000000;fill-opacity:1;stroke:none" />
    <path
       style="opacity:0.5;fill:#ffffff;fill-opacity:1;stroke:none"
       d="M 3.4423913,3.6947551 43.442388,3.6945549 c -19.999996,1.0000006 -19.999996,1.0000006 -39.9999977,0 z"
       id="path3269"
       inkscape:connector-curvature="0"
       sodipodi:nodetypes="cccc" />
  </g>
  <g
     id="g23">
    <g
       id="g25">
      <g
         transform="translate(1,1)"
         id="g27">
        <g
           style="opacity:0.1"
           id="g29">
          <!-- color: #f9b140 -->
          <g
             id="g31">
            <path
               d="m 20.703 8.988 c -1.598 3.73 -0.383 5.996 0.047 7.574 l 2.527 -0.34 c -0.535 -1.957 -1.457 -4.211 -0.16 -7.234 m -2.414 0"
               style="fill:#000;fill-opacity:1;stroke:none;fill-rule:nonzero"
               id="path33" />
            <path
               d="m 40 15.262 c -4.18 0 -8.199 0.805 -13.348 2.734 l 1.77 1.605 c 2.574 -1.285 6.754 -2.734 11.578 -2.734 m 0 -1.605"
               style="fill:#000;fill-opacity:1;stroke:none;fill-rule:nonzero"
               id="path35" />
            <path
               d="m 8 16.711 l 0 2.09 c 1.609 0.484 5.145 0.965 8.363 0.965 l 0.32 -1.77 c -3.203 -0.125 -5.629 -0.48 -8.684 -1.285 m 0 0"
               style="fill:#000;fill-opacity:1;stroke:none;fill-rule:nonzero"
               id="path37" />
            <path
               d="m 26.824 22.313 l -2.105 1.957 c 5.629 2.73 10.129 6.59 12.703 11.734 l 1.93 -2.57 c -2.547 -3.82 -6.43 -7.719 -12.527 -11.11 m 0 -0.008"
               style="fill:#000;fill-opacity:1;stroke:none;fill-rule:nonzero"
               id="path39" />
            <path
               d="m 18 23.34 c -0.324 0.008 -0.652 0.055 -1 0.094 c -0.988 0.109 -1.734 0.316 -2.563 0.625 c -0.563 0.207 -0.988 0.418 -1.625 0.813 c -0.637 0.395 -1.281 0.969 -1.281 0.969 l 1.938 1.941 c 0 0 0.914 -0.684 1.438 -0.973 c 0.523 -0.285 1.234 -0.406 1.75 -0.469 c 1.336 -0.156 2.633 0.109 3.25 0.625 c 0.66 0.555 0.938 0.938 0.969 2.41 c -0.594 -0.027 -1.203 0.012 -1.875 0.027 c -0.598 0.02 -1.813 0.047 -2.313 0.125 c -1.332 0.219 -2.77 0.441 -4.156 1.348 c -0.738 0.48 -1.336 1.207 -1.656 2.031 c -0.355 0.926 -0.441 2.02 -0.156 2.969 c 0.297 0.992 0.965 1.957 1.844 2.5 c 1.691 0.672 3.898 0.84 5.5 0.281 c 0.898 -0.324 1.598 -0.594 2.406 -1.531 c 0.133 -0.152 0.246 -0.418 0.406 -0.688 l 0 2.281 l 3.375 0 l 0 -9.191 c -0.035 -2 -0.832 -3.785 -2.25 -4.969 c -1.383 -0.934 -2.598 -1.254 -4 -1.219 m 2.531 8.531 c 0.063 0 0.125 0 0.188 0 c 0 0.023 0 0.043 0 0.066 c 0 0 0.16 2.625 -1.281 3.531 c -1.441 0.898 -2.07 0.93 -3.125 0.75 c -0.734 -0.125 -1.578 -0.535 -1.875 -1.227 c -0.238 -0.551 -0.059 -1.273 0.316 -1.75 c 0.582 -0.727 1.645 -0.922 2.563 -1.129 c 0.84 -0.188 2.148 -0.254 3.219 -0.25 m 0 0"
               style="fill:#000;fill-opacity:1;stroke:none;fill-rule:nonzero"
               id="path41" />
          </g>
        </g>
      </g>
    </g>
  </g>
  <g
     id="g43">
    <g
       id="g45">
      <!-- color: #f9b140 -->
      <g
         id="g47">
        <path
           d="m 20.703 8.988 c -1.598 3.73 -0.383 5.996 0.047 7.574 l 2.527 -0.34 c -0.535 -1.957 -1.457 -4.211 -0.16 -7.234 m -2.414 0"
           style="fill:#fff;fill-opacity:1;stroke:none;fill-rule:nonzero"
           id="path49" />
        <path
           d="m 40 15.262 c -4.18 0 -8.199 0.805 -13.348 2.734 l 1.77 1.605 c 2.574 -1.285 6.754 -2.734 11.578 -2.734 m 0 -1.605"
           style="fill:#fff;fill-opacity:1;stroke:none;fill-rule:nonzero"
           id="path51" />
        <path
           d="m 8 16.711 l 0 2.09 c 1.609 0.484 5.145 0.965 8.363 0.965 l 0.32 -1.77 c -3.203 -0.125 -5.629 -0.48 -8.684 -1.285 m 0 0"
           style="fill:#fff;fill-opacity:1;stroke:none;fill-rule:nonzero"
           id="path53" />
        <path
           d="m 26.824 22.313 l -2.105 1.957 c 5.629 2.73 10.129 6.59 12.703 11.734 l 1.93 -2.57 c -2.547 -3.82 -6.43 -7.719 -12.527 -11.11 m 0 -0.008"
           style="fill:#fff;fill-opacity:1;stroke:none;fill-rule:nonzero"
           id="path55" />
        <path
           d="m 18 23.34 c -0.324 0.008 -0.652 0.055 -1 0.094 c -0.988 0.109 -1.734 0.316 -2.563 0.625 c -0.563 0.207 -0.988 0.418 -1.625 0.813 c -0.637 0.395 -1.281 0.969 -1.281 0.969 l 1.938 1.941 c 0 0 0.914 -0.684 1.438 -0.973 c 0.523 -0.285 1.234 -0.406 1.75 -0.469 c 1.336 -0.156 2.633 0.109 3.25 0.625 c 0.66 0.555 0.938 0.938 0.969 2.41 c -0.594 -0.027 -1.203 0.012 -1.875 0.027 c -0.598 0.02 -1.813 0.047 -2.313 0.125 c -1.332 0.219 -2.77 0.441 -4.156 1.348 c -0.738 0.48 -1.336 1.207 -1.656 2.031 c -0.355 0.926 -0.441 2.02 -0.156 2.969 c 0.297 0.992 0.965 1.957 1.844 2.5 c 1.691 0.672 3.898 0.84 5.5 0.281 c 0.898 -0.324 1.598 -0.594 2.406 -1.531 c 0.133 -0.152 0.246 -0.418 0.406 -0.688 l 0 2.281 l 3.375 0 l 0 -9.191 c -0.035 -2 -0.832 -3.785 -2.25 -4.969 c -1.383 -0.934 -2.598 -1.254 -4 -1.219 m 2.531 8.531 c 0.063 0 0.125 0 0.188 0 c 0 0.023 0 0.043 0 0.066 c 0 0 0.16 2.625 -1.281 3.531 c -1.441 0.898 -2.07 0.93 -3.125 0.75 c -0.734 -0.125 -1.578 -0.535 -1.875 -1.227 c -0.238 -0.551 -0.059 -1.273 0.316 -1.75 c 0.582 -0.727 1.645 -0.922 2.563 -1.129 c 0.84 -0.188 2.148 -0.254 3.219 -0.25 m 0 0"
           style="fill:#fff;fill-opacity:1;stroke:none;fill-rule:nonzero"
           id="path57" />
      </g>
    </g>
  </g>
</svg>
