<?xml version="1.0" encoding="UTF-8" standalone="no"?>
<svg
   xmlns:dc="http://purl.org/dc/elements/1.1/"
   xmlns:cc="http://creativecommons.org/ns#"
   xmlns:rdf="http://www.w3.org/1999/02/22-rdf-syntax-ns#"
   xmlns:svg="http://www.w3.org/2000/svg"
   xmlns="http://www.w3.org/2000/svg"
   xmlns:xlink="http://www.w3.org/1999/xlink"
   xmlns:sodipodi="http://sodipodi.sourceforge.net/DTD/sodipodi-0.dtd"
   xmlns:inkscape="http://www.inkscape.org/namespaces/inkscape"
   viewBox="0 0 48 48"
   id="svg2"
   version="1.1"
   inkscape:version="0.91 r13725"
   sodipodi:docname="atlauncher.svg">
  <metadata
     id="metadata49">
    <rdf:RDF>
      <cc:Work
         rdf:about="">
        <dc:format>image/svg+xml</dc:format>
        <dc:type
           rdf:resource="http://purl.org/dc/dcmitype/StillImage" />
      </cc:Work>
    </rdf:RDF>
  </metadata>
  <sodipodi:namedview
     pagecolor="#ffffff"
     bordercolor="#666666"
     borderopacity="1"
     objecttolerance="10"
     gridtolerance="10"
     guidetolerance="10"
     inkscape:pageopacity="0"
     inkscape:pageshadow="2"
     inkscape:window-width="1366"
     inkscape:window-height="705"
     id="namedview47"
     showgrid="false"
     inkscape:zoom="4.9166667"
     inkscape:cx="24"
     inkscape:cy="24"
     inkscape:window-x="0"
     inkscape:window-y="28"
     inkscape:window-maximized="1"
     inkscape:current-layer="svg2" />
  <defs
     id="defs4">
    <linearGradient
       gradientUnits="userSpaceOnUse"
       y2="-527.79797"
       x2="431.57144"
       y1="-527.79797"
       x1="379.57144"
       id="linearGradient4172"
       xlink:href="#linearGradient5277"
       inkscape:collect="always"
       gradientTransform="matrix(0.83333307,0,0,0.83333307,-317.03371,412.80361)" />
    <linearGradient
       id="linearGradient5277">
      <stop
         id="stop5279"
         offset="0"
         style="stop-color:#333333;stop-opacity:1" />
      <stop
         id="stop5281"
         offset="1"
         style="stop-color:#666666;stop-opacity:1" />
    </linearGradient>
  </defs>
  <g
     id="g3208"
     transform="translate(0.55761199,0.30529681)">
    <rect
       transform="scale(1,-1)"
       ry="0"
       y="-43.694542"
       x="3.4424012"
       height="39.999989"
       width="39.999989"
       id="rect2991-1-7"
       style="fill:url(#linearGradient4172);fill-opacity:1;stroke:none" />
    <path
       sodipodi:nodetypes="cccc"
       inkscape:connector-curvature="0"
       id="path3800"
       d="m 3.4423873,43.694552 40.0000007,3.01e-4 c -20,-0.999999 -20,-0.999999 -40.0000017,0 z"
       style="opacity:0.35;fill:#000000;fill-opacity:1;stroke:none" />
    <path
       style="opacity:0.5;fill:#ffffff;fill-opacity:1;stroke:none"
       d="M 3.4423913,3.6947551 43.442388,3.6945549 c -19.999996,1.0000006 -19.999996,1.0000006 -39.9999977,0 z"
       id="path3804"
       inkscape:connector-curvature="0"
       sodipodi:nodetypes="cccc" />
  </g>
  <g
     id="g23">
    <g
       id="g25">
      <g
         transform="translate(1,1)"
         id="g27">
        <g
           style="opacity:0.1"
           id="g29">
          <!-- color: #79be69 -->
          <g
             id="g31">
            <path
               d="m 12 12 l 0 8 l 8 0 l 0 -8 m 0 8 l 0 4 l -4 0 l 0 12 l 4 0 l 0 -4 l 8 0 l 0 4 l 4 0 l 0 -12 l -4 0 l 0 -4 m 0 0 l 8 0 l 0 -8 l -8 0 m 0 8"
               style="fill:#000;fill-opacity:1;stroke:none;fill-rule:nonzero"
               id="path33" />
          </g>
        </g>
      </g>
    </g>
  </g>
  <g
     style="fill:#78ab2f;fill-opacity:1"
     id="g35">
    <g
       id="g37">
      <!-- color: #79be69 -->
      <g
         id="g39">
        <path
           d="m 12 12 l 0 8 l 8 0 l 0 -8 m 0 8 l 0 4 l -4 0 l 0 12 l 4 0 l 0 -4 l 8 0 l 0 4 l 4 0 l 0 -12 l -4 0 l 0 -4 m 0 0 l 8 0 l 0 -8 l -8 0 m 0 8"
           style="stroke:none;fill-rule:nonzero"
           id="path41" />
      </g>
    </g>
  </g>
</svg>
