<?xml version="1.0" encoding="UTF-8" standalone="no"?>
<svg
   xmlns:dc="http://purl.org/dc/elements/1.1/"
   xmlns:cc="http://creativecommons.org/ns#"
   xmlns:rdf="http://www.w3.org/1999/02/22-rdf-syntax-ns#"
   xmlns:svg="http://www.w3.org/2000/svg"
   xmlns="http://www.w3.org/2000/svg"
   xmlns:xlink="http://www.w3.org/1999/xlink"
   xmlns:sodipodi="http://sodipodi.sourceforge.net/DTD/sodipodi-0.dtd"
   xmlns:inkscape="http://www.inkscape.org/namespaces/inkscape"
   viewBox="0 0 48 48"
   id="svg2"
   version="1.1"
   inkscape:version="0.91 r13725"
   sodipodi:docname="AtomicGameEngine.svg">
  <metadata
     id="metadata53">
    <rdf:RDF>
      <cc:Work
         rdf:about="">
        <dc:format>image/svg+xml</dc:format>
        <dc:type
           rdf:resource="http://purl.org/dc/dcmitype/StillImage" />
      </cc:Work>
    </rdf:RDF>
  </metadata>
  <sodipodi:namedview
     pagecolor="#ffffff"
     bordercolor="#666666"
     borderopacity="1"
     objecttolerance="10"
     gridtolerance="10"
     guidetolerance="10"
     inkscape:pageopacity="0"
     inkscape:pageshadow="2"
     inkscape:window-width="1366"
     inkscape:window-height="705"
     id="namedview51"
     showgrid="false"
     inkscape:zoom="4.9166667"
     inkscape:cx="24"
     inkscape:cy="24"
     inkscape:window-x="0"
     inkscape:window-y="28"
     inkscape:window-maximized="1"
     inkscape:current-layer="svg2" />
  <defs
     id="defs4">
    <linearGradient
       id="linearGradient5360">
      <stop
         style="stop-color:#e0f59b;stop-opacity:1"
         id="stop7" />
      <stop
         offset="1"
         style="stop-color:#ccf24e;stop-opacity:1"
         id="stop9" />
    </linearGradient>
    <linearGradient
       id="linearGradient3844"
       gradientUnits="userSpaceOnUse"
       gradientTransform="matrix(0,1,-1,0,48,0)"
       x1="1"
       x2="47">
      <stop
         style="stop-color:#3a3a3a;stop-opacity:1"
         id="stop12" />
      <stop
         offset="1"
         style="stop-color:#303030;stop-opacity:1"
         id="stop14" />
    </linearGradient>
    <radialGradient
       xlink:href="#linearGradient5360"
       id="radialGradient3030"
       gradientUnits="userSpaceOnUse"
       gradientTransform="matrix(-0.67550232,0,-5.0833709e-8,-1.1258375,39.536553,52.708853)"
       cx="23"
       cy="25.5"
       r="13.323" />
    <radialGradient
       xlink:href="#linearGradient5360"
       id="radialGradient5376"
       gradientUnits="userSpaceOnUse"
       gradientTransform="matrix(-0.33775116,-0.58492753,0.97512826,-0.56291879,6.902508,51.807759)"
       cx="23"
       cy="25.5"
       r="13.323" />
    <radialGradient
       xlink:href="#linearGradient5360"
       id="radialGradient5380"
       gradientUnits="userSpaceOnUse"
       gradientTransform="matrix(0.33775116,-0.58492753,0.97512831,0.56291871,-8.6340446,23.098906)"
       cx="23"
       cy="25.5"
       r="13.323" />
    <linearGradient
       gradientUnits="userSpaceOnUse"
       y2="-527.79797"
       x2="431.57144"
       y1="-527.79797"
       x1="379.57144"
       id="linearGradient4172"
       xlink:href="#linearGradient5277"
       inkscape:collect="always"
       gradientTransform="matrix(0.83333307,0,0,0.83333307,-317.03371,412.80361)" />
    <linearGradient
       id="linearGradient5277">
      <stop
         id="stop5279"
         offset="0"
         style="stop-color:#333333;stop-opacity:1" />
      <stop
         id="stop5281"
         offset="1"
         style="stop-color:#666666;stop-opacity:1" />
    </linearGradient>
  </defs>
  <g
     id="g3208"
     transform="translate(0.55761199,0.30529681)">
    <rect
       transform="scale(1,-1)"
       ry="0"
       y="-43.694542"
       x="3.4424012"
       height="39.999989"
       width="39.999989"
       id="rect2991-1-7"
       style="fill:url(#linearGradient4172);fill-opacity:1;stroke:none" />
    <path
       sodipodi:nodetypes="cccc"
       inkscape:connector-curvature="0"
       id="path3800"
       d="m 3.4423873,43.694552 40.0000007,3.01e-4 c -20,-0.999999 -20,-0.999999 -40.0000017,0 z"
       style="opacity:0.35;fill:#000000;fill-opacity:1;stroke:none" />
    <path
       style="opacity:0.5;fill:#ffffff;fill-opacity:1;stroke:none"
       d="M 3.4423913,3.6947551 43.442388,3.6945549 c -19.999996,1.0000006 -19.999996,1.0000006 -39.9999977,0 z"
       id="path3804"
       inkscape:connector-curvature="0"
       sodipodi:nodetypes="cccc" />
  </g>
  <g
     transform="matrix(0.99922892,0,0,1.0001276,1.0195056,0.99693722)"
     style="fill:#000;fill-opacity:0.118"
     id="g33">
    <g
       id="g35">
      <g
         id="g37">
        <path
           d="m 37.601 29.396 c 0.013 -0.238 0.011 -0.475 -0.002 -0.711 -0.017 -0.314 -0.044 -0.631 -0.094 -0.938 -0.2 -1.222 -0.752 -2.485 -1.563 -3.75 -0.012 -0.019 -0.019 -0.043 -0.031 -0.063 0.783 -1.245 1.274 -2.486 1.469 -3.689 0.198 -1.222 0.218 -2.552 -0.469 -3.75 -0.687 -1.198 -1.819 -1.841 -2.969 -2.279 -1.142 -0.435 -2.492 -0.629 -3.969 -0.564 -0.69 -1.334 -1.541 -2.435 -2.5 -3.219 -0.959 -0.784 -2.087 -1.438 -3.471 -1.438 -1.384 0 -2.51 0.654 -3.469 1.438 -0.959 0.784 -1.81 1.885 -2.5 3.219 l -0.031 0 c -1.501 -0.069 -2.842 0.125 -4 0.564 -1.158 0.438 -2.308 1.081 -3 2.279 -0.692 1.198 -0.7 2.528 -0.5 3.75 0.2 1.222 0.753 2.485 1.564 3.75 0.012 0.019 0.019 0.044 0.031 0.064 -0.783 1.245 -1.276 2.485 -1.471 3.688 -0.198 1.222 -0.216 2.552 0.471 3.75 0.687 1.198 1.819 1.843 2.969 2.281 1.142 0.435 2.492 0.627 3.969 0.563 0.69 1.334 1.541 2.435 2.5 3.219 0.959 0.784 2.085 1.439 3.469 1.439 1.384 0 2.51 -0.655 3.469 -1.439 0.959 -0.784 1.81 -1.885 2.5 -3.219 l 0.031 0 c 1.501 0.069 2.842 -0.123 4 -0.563 1.158 -0.438 2.308 -1.083 3 -2.281 0.389 -0.674 0.557 -1.388 0.596 -2.102 z m -1.156 -0.211 -0.002 0 c -0.017 0.701 -0.242 1.272 -0.5 1.719 -0.344 0.596 -0.896 1.214 -1.906 1.596 -0.995 0.376 -2.081 0.618 -3.5 0.563 0.546 -1.387 0.95 -2.97 1.189 -4.687 1.333 -1.059 2.473 -2.157 3.375 -3.314 0.784 1.223 1.107 2.309 1.281 3.375 0.044 0.266 0.067 0.516 0.063 0.75 z m -0.096 -10.374 0 0.002 c 0.006 0.233 0.012 0.483 -0.031 0.748 -0.167 1.03 -0.526 2.077 -1.25 3.25 -0.907 -1.129 -2.023 -2.216 -3.344 -3.25 -0.239 -1.694 -0.648 -3.254 -1.188 -4.624 1.391 -0.051 2.457 0.19 3.438 0.564 1 0.382 1.565 0.998 1.906 1.594 0.256 0.447 0.45 1.017 0.469 1.717 z m -2.063 5.124 c -0.667 0.868 -1.45 1.733 -2.375 2.564 0.06 -0.815 0.094 -1.646 0.094 -2.5 0 -0.876 -0.031 -1.729 -0.094 -2.564 0.915 0.81 1.706 1.652 2.375 2.5 z m -3.594 0.064 c 0 1.277 -0.07 2.511 -0.219 3.688 -0.963 0.743 -2.02 1.465 -3.156 2.125 -1.112 0.647 -2.215 1.193 -3.314 1.656 -1.11 -0.464 -2.22 -1.01 -3.344 -1.656 -1.125 -0.65 -2.168 -1.364 -3.125 -2.094 -0.151 -1.185 -0.219 -2.43 -0.219 -3.719 0 -1.277 0.07 -2.513 0.219 -3.689 0.963 -0.743 2.02 -1.465 3.156 -2.125 1.112 -0.647 2.214 -1.193 3.313 -1.656 1.11 0.464 2.222 1.01 3.346 1.656 1.125 0.65 2.168 1.364 3.125 2.094 0.151 1.185 0.219 2.432 0.219 3.721 z m -0.531 -5.595 c -0.681 -0.463 -1.41 -0.913 -2.156 -1.344 -0.751 -0.433 -1.504 -0.828 -2.25 -1.188 1.182 -0.395 2.321 -0.663 3.406 -0.813 0.41 1.012 0.75 2.129 1 3.344 z m 0 11.124 c -0.251 1.237 -0.583 2.378 -1 3.406 -1.085 -0.153 -2.226 -0.419 -3.406 -0.813 0.741 -0.36 1.473 -0.754 2.219 -1.188 0.765 -0.445 1.491 -0.927 2.188 -1.406 z m -1.531 4.655 c -0.664 1.275 -1.451 2.071 -2.281 2.75 -0.836 0.684 -1.656 0.875 -2.344 0.875 -0.688 0 -1.508 -0.191 -2.344 -0.875 -0.827 -0.676 -1.588 -1.483 -2.25 -2.75 1.457 -0.216 3.01 -0.666 4.594 -1.313 1.601 0.645 3.157 1.096 4.625 1.313 z m -0.031 -20.372 c -1.457 0.216 -3.01 0.668 -4.594 1.314 -1.601 -0.645 -3.157 -1.098 -4.625 -1.314 0.664 -1.275 1.451 -2.071 2.281 -2.75 0.836 -0.684 1.656 -0.875 2.344 -0.875 0.688 0 1.508 0.191 2.344 0.875 0.827 0.676 1.588 1.483 2.25 2.75 z m -0.594 10.187 a 4 3.999 0 0 0 -4 -3.999 4 3.999 0 0 0 -4 3.999 4 3.999 0 0 0 4 3.999 4 3.999 0 0 0 4 -3.999 z m -5.75 8.126 c -1.182 0.395 -2.321 0.663 -3.406 0.813 -0.41 -1.012 -0.75 -2.129 -1 -3.344 0.681 0.463 1.41 0.913 2.156 1.344 0.751 0.433 1.504 0.828 2.25 1.188 z m -0.002 -16.248 c -0.74 0.36 -1.471 0.754 -2.217 1.188 -0.765 0.445 -1.491 0.927 -2.188 1.406 0.251 -1.237 0.583 -2.378 1 -3.406 1.085 0.153 2.224 0.418 3.404 0.813 z m -4.779 -0.939 c -0.546 1.387 -0.949 2.971 -1.188 4.688 -1.333 1.059 -2.473 2.156 -3.375 3.313 -0.784 -1.223 -1.107 -2.309 -1.281 -3.375 -0.174 -1.066 0.093 -1.873 0.438 -2.469 0.344 -0.596 0.896 -1.212 1.906 -1.594 0.995 -0.376 2.081 -0.62 3.5 -0.564 z m 0 18.13 0 0.002 c -1.391 0.051 -2.458 -0.188 -3.438 -0.563 -1 -0.382 -1.565 -1 -1.906 -1.596 -0.341 -0.596 -0.609 -1.403 -0.438 -2.469 0.167 -1.03 0.526 -2.077 1.25 -3.25 0.907 1.129 2.023 2.216 3.344 3.25 0.239 1.694 0.648 3.254 1.188 4.624 z m -1.375 -11.56 c -0.06 0.815 -0.094 1.646 -0.094 2.5 0 0.876 0.031 1.727 0.094 2.563 -0.915 -0.81 -1.706 -1.652 -2.375 -2.5 0.667 -0.868 1.45 -1.732 2.375 -2.563 z"
           style="visibility:visible;stroke:none;display:inline;color:#000"
           id="path39" />
      </g>
    </g>
  </g>
  <g
     transform="matrix(0,1,-0.99994235,0,47.998276,-3.4114169e-4)"
     id="g41">
    <path
       d="m 24,16 c -4.03,0 -7.684,0.66 -10.352,2.04 -1.334,0.69 -2.423,1.519 -3.207,2.478 C 9.657,21.477 9,22.617 9,24 c 0,1.383 0.657,2.523 1.441,3.482 0.784,0.959 1.873,1.788 3.207,2.478 C 16.316,31.34 19.97,32 24,32 c 4.03,0 7.684,-0.66 10.352,-2.04 1.334,-0.69 2.423,-1.519 3.207,-2.478 C 38.343,26.523 39,25.383 39,24 39,22.617 38.343,21.477 37.559,20.518 36.775,19.559 35.686,18.73 34.352,18.04 31.684,16.66 28.03,16 24,16 Z m 0,1.3 c 3.978,0 7.564,0.745 10.143,2.079 1.29,0.667 2.123,1.441 2.807,2.277 0.684,0.836 0.85,1.656 0.85,2.344 0,0.688 -0.166,1.508 -0.85,2.344 -0.684,0.836 -1.517,1.61 -2.807,2.277 C 31.563,29.955 27.978,30.7 24,30.7 20.022,30.7 16.437,29.955 13.857,28.621 12.567,27.954 11.733,27.18 11.05,26.344 10.366,25.508 10.2,24.688 10.2,24 c 0,-0.688 0.166,-1.508 0.85,-2.344 0.684,-0.836 1.517,-1.61 2.807,-2.277 C 16.437,18.045 20.022,17.3 24,17.3 Z"
       style="visibility:visible;fill:url(#radialGradient3030);fill-opacity:1;stroke:none;display:inline;color:#000"
       id="path43" />
    <path
       d="m 30.929 20 c -2.02 -3.49 -4.414 -6.324 -6.943 -7.944 -1.265 -0.81 -2.527 -1.339 -3.75 -1.538 -1.223 -0.199 -2.539 -0.198 -3.736 0.493 -1.198 0.691 -1.857 1.83 -2.295 2.989 -0.439 1.158 -0.612 2.516 -0.543 4.02 0.139 3 1.394 6.494 3.409 9.984 2.02 3.49 4.414 6.324 6.943 7.944 1.265 0.81 2.527 1.339 3.75 1.538 1.223 0.199 2.539 0.198 3.736 -0.493 1.198 -0.691 1.857 -1.83 2.295 -2.989 0.439 -1.158 0.612 -2.516 0.543 -4.02 -0.139 -3 -1.394 -6.494 -3.409 -9.984 m -1.126 0.65 c 1.989 3.445 3.137 6.922 3.271 9.822 0.067 1.451 -0.187 2.559 -0.569 3.569 -0.382 1.01 -1.01 1.564 -1.605 1.908 -0.596 0.344 -1.389 0.61 -2.455 0.436 -1.066 -0.174 -2.153 -0.509 -3.376 -1.292 -2.445 -1.567 -4.883 -4.299 -6.872 -7.743 -1.989 -3.445 -3.136 -6.921 -3.271 -9.822 -0.067 -1.451 0.186 -2.56 0.569 -3.569 0.382 -1.01 1.01 -1.564 1.605 -1.908 0.596 -0.344 1.389 -0.61 2.455 -0.436 1.066 0.174 2.153 0.509 3.376 1.292 2.445 1.567 4.883 4.299 6.872 7.743 z"
       style="visibility:visible;fill:url(#radialGradient5376);fill-opacity:1;stroke:none;display:inline;color:#000"
       id="path45" />
    <path
       d="m 30.929 28 c 2.01 -3.49 3.27 -6.984 3.409 -9.984 0.069 -1.5 -0.104 -2.858 -0.543 -4.02 -0.439 -1.158 -1.098 -2.297 -2.295 -2.989 -1.198 -0.692 -2.514 -0.693 -3.736 -0.493 -1.223 0.199 -2.485 0.728 -3.75 1.538 -2.529 1.62 -4.928 4.454 -6.943 7.944 -2.02 3.49 -3.27 6.984 -3.409 9.984 -0.069 1.5 0.104 2.858 0.543 4.02 0.439 1.158 1.098 2.297 2.295 2.989 1.198 0.691 2.514 0.693 3.736 0.493 1.223 -0.199 2.485 -0.728 3.75 -1.538 2.529 -1.62 4.928 -4.454 6.943 -7.944 m -1.126 -0.65 c -1.989 3.445 -4.427 6.177 -6.872 7.743 -1.223 0.784 -2.31 1.118 -3.376 1.292 -1.066 0.174 -1.859 -0.092 -2.455 -0.436 -0.596 -0.344 -1.223 -0.898 -1.605 -1.908 -0.382 -1.01 -0.636 -2.119 -0.569 -3.569 0.135 -2.901 1.282 -6.378 3.271 -9.822 1.989 -3.445 4.427 -6.176 6.872 -7.743 1.223 -0.784 2.31 -1.119 3.376 -1.292 1.066 -0.174 1.859 0.092 2.455 0.436 0.596 0.344 1.223 0.898 1.605 1.908 0.382 1.01 0.636 2.119 0.569 3.569 -0.135 2.901 -1.282 6.378 -3.271 9.822 z"
       style="visibility:visible;fill:url(#radialGradient5380);fill-opacity:1;stroke:none;display:inline;color:#000"
       id="path47" />
  </g>
  <circle
     cx="24"
     cy="24"
     r="4"
     style="fill:#e0f69e;opacity:1;fill-opacity:1;stroke:none"
     id="circle49" />
</svg>
