<?xml version="1.0" encoding="UTF-8" standalone="no"?>
<!-- Created with Inkscape (http://www.inkscape.org/) -->

<svg
   xmlns:dc="http://purl.org/dc/elements/1.1/"
   xmlns:cc="http://creativecommons.org/ns#"
   xmlns:rdf="http://www.w3.org/1999/02/22-rdf-syntax-ns#"
   xmlns:svg="http://www.w3.org/2000/svg"
   xmlns="http://www.w3.org/2000/svg"
   xmlns:xlink="http://www.w3.org/1999/xlink"
   xmlns:sodipodi="http://sodipodi.sourceforge.net/DTD/sodipodi-0.dtd"
   xmlns:inkscape="http://www.inkscape.org/namespaces/inkscape"
   width="48"
   height="48"
   id="svg2"
   version="1.1"
   inkscape:version="0.48.5 r10040"
   sodipodi:docname="basket.svg">
  <defs
     id="defs4">
    <linearGradient
       inkscape:collect="always"
       id="linearGradient2186">
      <stop
         style="stop-color:#aa0000;stop-opacity:1"
         offset="0"
         id="stop2189" />
      <stop
         style="stop-color:#d40000;stop-opacity:1"
         offset="1"
         id="stop2191" />
    </linearGradient>
    <linearGradient
       id="linearGradient1374">
      <stop
         style="stop-color:#fef3c8;stop-opacity:1"
         offset="0"
         id="stop1376" />
      <stop
         style="stop-color:#ffffff;stop-opacity:1;"
         offset="1"
         id="stop1378" />
    </linearGradient>
    <linearGradient
       id="linearGradient2180"
       inkscape:collect="always">
      <stop
         id="stop2182"
         offset="0"
         style="stop-color:#532c0f;stop-opacity:1" />
      <stop
         style="stop-color:#8b430f;stop-opacity:1"
         offset="0.20973869"
         id="stop2184" />
      <stop
         id="stop2186"
         offset="0.54495704"
         style="stop-color:#d57026;stop-opacity:1" />
      <stop
         id="stop2188"
         offset="1"
         style="stop-color:#ef9828;stop-opacity:1" />
    </linearGradient>
    <linearGradient
       y2="-537.47601"
       x2="428.86081"
       y1="-537.87738"
       x1="374.84741"
       gradientTransform="matrix(0.83333333,0,0,0.83309926,-313.29165,-584.76487)"
       gradientUnits="userSpaceOnUse"
       id="linearGradient1089"
       xlink:href="#linearGradient2180"
       inkscape:collect="always" />
    <linearGradient
       inkscape:collect="always"
       xlink:href="#linearGradient2186"
       id="linearGradient3228"
       gradientUnits="userSpaceOnUse"
       x1="26.937496"
       y1="8.690402"
       x2="26.937496"
       y2="1.9404022" />
    <linearGradient
       inkscape:collect="always"
       xlink:href="#linearGradient1374"
       id="linearGradient3230"
       gradientUnits="userSpaceOnUse"
       gradientTransform="matrix(0.79804648,0,0,0.79541597,4.8288707,210.31964)"
       x1="2.9999988"
       y1="1029.4122"
       x2="45.000134"
       y2="1029.4122" />
  </defs>
  <sodipodi:namedview
     id="base"
     pagecolor="#ffffff"
     bordercolor="#666666"
     borderopacity="1.0"
     inkscape:pageopacity="0.0"
     inkscape:pageshadow="2"
     inkscape:zoom="8"
     inkscape:cx="-1.0643432"
     inkscape:cy="28.197281"
     inkscape:document-units="px"
     inkscape:current-layer="layer1"
     showgrid="true"
     inkscape:window-width="1301"
     inkscape:window-height="744"
     inkscape:window-x="65"
     inkscape:window-y="24"
     inkscape:window-maximized="1">
    <inkscape:grid
       type="xygrid"
       id="grid3232" />
  </sodipodi:namedview>
  <metadata
     id="metadata7">
    <rdf:RDF>
      <cc:Work
         rdf:about="">
        <dc:format>image/svg+xml</dc:format>
        <dc:type
           rdf:resource="http://purl.org/dc/dcmitype/StillImage" />
        <dc:title></dc:title>
      </cc:Work>
    </rdf:RDF>
  </metadata>
  <g
     inkscape:label="Capa 1"
     inkscape:groupmode="layer"
     id="layer1"
     transform="translate(0,-1004.3622)">
    <rect
       style="fill:url(#linearGradient1089);fill-opacity:1;stroke:none"
       id="rect2991-1"
       width="40"
       height="39.988766"
       x="4"
       y="-1048.3622"
       ry="0"
       transform="scale(1,-1)" />
    <path
       style="fill:url(#linearGradient3230);fill-opacity:1;stroke:none"
       d="m 8.5799203,1011.5916 c -0.7522525,0 -1.3569099,0.6027 -1.3569099,1.3524 l 0,30.7028 c 0,0.7498 0.6046574,1.3525 1.3569099,1.3525 l 30.8042367,0 c 0.752253,0 1.356911,-0.6027 1.356911,-1.3525 l 0,-30.7027 c 0,-0.7498 -0.604658,-1.3525 -1.356911,-1.3525 z"
       id="rect839"
       inkscape:connector-curvature="0"
       sodipodi:nodetypes="sssssssss" />
    <path
       style="fill:#dadbe4;fill-opacity:1"
       d="m 7.2230091,1018.0662 0,0.2088 33.5180599,0 0,-0.2088 -33.5180599,0 z m 0,5.0109 0,0.2088 33.5180599,0 0,-0.2088 -33.5180599,0 z m 0,5.0108 0,0.2088 33.5180599,0 0,-0.2088 -33.5180599,0 z m 0,5.0108 0,0.2087 33.5180599,0 0,-0.2087 -33.5180599,0 z m 0,5.0107 0,0.2088 33.5180599,0 0,-0.2088 -33.5180599,0 z"
       id="rect2274"
       inkscape:connector-curvature="0" />
    <path
       style="fill:#ffffff;fill-opacity:0.33187776"
       d="m 7.2230091,1018.275 0,0.2088 33.5180599,0 0,-0.2088 -33.5180599,0 z m 0,5.0109 0,0.2088 33.5180599,0 0,-0.2088 -33.5180599,0 z m 0,5.0108 0,0.2087 33.5180599,0 0,-0.2087 -33.5180599,0 z m 0,5.0107 0,0.2088 33.5180599,0 0,-0.2088 -33.5180599,0 z m 0,5.0108 0,0.2088 33.5180599,0 0,-0.2088 -33.5180599,0 z"
       id="rect2276"
       inkscape:connector-curvature="0" />
    <path
       style="opacity:0.5;fill:#000000;fill-opacity:1;stroke:none"
       d="m 4,1048.3622 0,0 c 20,-1 20,-1 40,0 z"
       id="path3257"
       inkscape:connector-curvature="0"
       sodipodi:nodetypes="cccc" />
    <path
       sodipodi:nodetypes="cccc"
       inkscape:connector-curvature="0"
       id="path4027"
       d="m 4.0390625,1008.37 0,0 c 19.9999995,1 19.9999995,1 39.9999995,0 z"
       style="opacity:0.75;fill:#ffffff;fill-opacity:1;stroke:none" />
    <path
       d="m 27.061759,1036.5393 c -1.365886,-0.2269 -3.139756,-1.7905 -4.759285,-4.1952 -0.67945,-1.0088 -1.374656,-2.2547 -1.828463,-3.2768 -0.09102,-0.205 -0.124295,-0.2543 -0.151795,-0.2249 -0.05507,0.059 -0.450445,0.9185 -0.658744,1.4323 -0.350383,0.8642 -0.597338,1.6882 -0.738858,2.4653 -0.09067,0.4978 -0.09846,1.4624 -0.01422,1.7612 0.195704,0.6944 0.620085,0.983 1.282219,0.872 0.477292,-0.08 1.055063,-0.3414 1.66809,-0.7547 0.27225,-0.1836 0.34385,-0.2185 0.44915,-0.2191 0.161015,-10e-4 0.281187,0.087 0.337504,0.246 0.03734,0.1056 0.03719,0.1362 -0.0011,0.2372 -0.03675,0.097 -0.100432,0.1542 -0.387799,0.3491 -0.39689,0.2691 -1.075895,0.616 -1.423267,0.7271 -0.910137,0.2911 -1.618191,0.1844 -2.117379,-0.3192 -0.4579,-0.4619 -0.655182,-1.2091 -0.594384,-2.2514 0.07912,-1.3564 0.67543,-3.2082 1.617627,-5.0234 l 0.236266,-0.4552 -0.178458,-0.4828 c -0.170796,-0.4621 -0.508582,-1.5334 -0.508582,-1.613 0,-0.059 -0.10334,-0.047 -0.556437,0.065 -1.038132,0.2554 -1.80948,0.5804 -2.362664,0.9955 -1.087341,0.8161 -0.799334,1.7366 0.830128,2.6532 0.259476,0.1459 0.319411,0.2245 0.319411,0.4189 0,0.1015 -0.01871,0.1432 -0.101966,0.2264 -0.178193,0.1782 -0.344104,0.141 -0.894223,-0.2001 -0.795634,-0.4935 -1.298672,-1.055 -1.475856,-1.6474 -0.06471,-0.2164 -0.06494,-0.6522 -4.56e-4,-0.8698 0.09401,-0.3173 0.252243,-0.5693 0.537839,-0.8565 0.640028,-0.6438 1.701416,-1.1381 3.157098,-1.4703 0.296486,-0.068 0.364962,-0.093 0.353789,-0.1308 -0.0076,-0.026 -0.0415,-0.1953 -0.0753,-0.3767 -0.197783,-1.0618 -0.203795,-2.2792 -0.01461,-2.9543 0.218165,-0.7784 0.613157,-1.2418 1.242998,-1.458 0.257159,-0.088 0.77191,-0.074 1.124723,0.031 0.354831,0.1055 0.795402,0.3224 1.184709,0.5833 0.463964,0.311 0.600771,0.4415 0.620409,0.5918 0.04512,0.3453 -0.311598,0.5315 -0.602813,0.3146 -0.913101,-0.6799 -1.564872,-0.9386 -2.087089,-0.8284 -0.3795,0.08 -0.669606,0.4703 -0.816016,1.0975 -0.05823,0.2495 -0.06619,0.3679 -0.06647,0.9883 -2.97e-4,0.7041 0.0097,0.8174 0.138338,1.5557 l 0.06461,0.3709 0.152316,-0.019 c 0.699047,-0.084 1.301477,-0.1433 1.67296,-0.1632 l 0.440913,-0.024 0.06876,-0.088 c 0.744737,-0.9575 1.827872,-2.0757 2.648531,-2.7342 1.571615,-1.2612 2.919533,-1.6991 3.846805,-1.25 0.523801,0.2538 0.854856,0.7723 0.983235,1.5401 0.08382,0.5012 0.01772,1.6877 -0.112844,2.0219 -0.04506,0.1154 -0.189567,0.1986 -0.345313,0.1988 -0.09802,10e-5 -0.149343,-0.02 -0.224943,-0.087 -0.08963,-0.08 -0.0979,-0.1024 -0.09726,-0.2625 4.29e-4,-0.096 0.02565,-0.3706 0.0561,-0.6098 0.0886,-0.6954 0.02767,-1.3383 -0.162051,-1.7101 -0.09209,-0.1806 -0.28053,-0.3733 -0.443472,-0.4536 -0.122236,-0.06 -0.185206,-0.07 -0.471017,-0.068 -0.300345,9e-4 -0.359108,0.011 -0.655527,0.1121 -0.917081,0.3127 -1.967881,1.0646 -3.09584,2.2149 -0.215701,0.22 -0.5392,0.5687 -0.718877,0.7749 l -0.326686,0.3749 0.283985,0.01 c 3.975141,0.094 7.325519,1.0071 8.904814,2.4263 0.355378,0.3193 0.661603,0.7951 0.750579,1.1661 0.04515,0.1881 0.046,0.5533 0.0017,0.7489 -0.163091,0.7215 -0.956383,1.4309 -2.112901,1.8893 -0.182806,0.072 -0.221414,0.078 -0.320212,0.049 -0.161801,-0.048 -0.266712,-0.1852 -0.266712,-0.3475 0,-0.1907 0.09189,-0.2823 0.422128,-0.4208 0.718357,-0.3013 1.275437,-0.7236 1.486957,-1.1273 0.07349,-0.1403 0.08456,-0.1949 0.08453,-0.4164 -3.5e-5,-0.2304 -0.0098,-0.2737 -0.1006,-0.4499 -0.128168,-0.2485 -0.55181,-0.6733 -0.903245,-0.9058 -1.726537,-1.1418 -4.980106,-1.8833 -8.264931,-1.8834 l -0.54187,0 -0.204198,0.2774 c -0.305478,0.415 -0.968343,1.4238 -1.232118,1.8751 l -0.232608,0.398 0.159828,0.3668 c 1.603392,3.6799 4.092643,6.7869 5.928643,7.3999 0.399155,0.1333 0.701198,0.1398 0.945345,0.02 0.456877,-0.2235 0.696185,-0.8037 0.732934,-1.7771 0.06133,-1.6245 -0.523782,-3.8698 -1.614846,-6.1966 -0.113131,-0.2413 -0.181042,-0.4254 -0.181042,-0.4909 0,-0.1967 0.1616,-0.3515 0.364184,-0.3487 0.179876,0 0.258796,0.074 0.395999,0.3615 0.884813,1.8507 1.474644,3.7047 1.694891,5.3275 0.07406,0.5457 0.0745,1.6564 8.32e-4,2.0534 -0.117846,0.6348 -0.32752,1.0922 -0.64837,1.4142 -0.390864,0.3924 -0.898145,0.5423 -1.498208,0.4426 z m -6.347401,-9.8787 c 0.112013,-0.1815 0.33005,-0.5149 0.484521,-0.7409 0.154481,-0.226 0.280857,-0.42 0.280857,-0.4312 0,-0.039 -1.41717,0.1048 -1.460059,0.1477 -0.02569,0.026 0.05918,0.3415 0.247872,0.9218 0.137232,0.422 0.17437,0.5077 0.205342,0.4738 0.02084,-0.023 0.129444,-0.1898 0.241462,-0.3712 z m 3.023817,2.6902 c -0.450592,-0.1609 -0.713908,-0.5368 -0.70791,-1.0107 0.0031,-0.2481 0.0597,-0.4182 0.204782,-0.6158 0.367573,-0.5007 1.118231,-0.5577 1.570139,-0.1191 0.519074,0.5037 0.365419,1.4025 -0.291159,1.7031 -0.225943,0.1035 -0.554732,0.1215 -0.775845,0.043 z"
       id="path18"
       style="fill:#485861;fill-opacity:1"
       inkscape:connector-curvature="0" />
  </g>
</svg>
