<?xml version="1.0" encoding="UTF-8" standalone="no"?>
<svg
   xmlns:dc="http://purl.org/dc/elements/1.1/"
   xmlns:cc="http://creativecommons.org/ns#"
   xmlns:rdf="http://www.w3.org/1999/02/22-rdf-syntax-ns#"
   xmlns:svg="http://www.w3.org/2000/svg"
   xmlns="http://www.w3.org/2000/svg"
   xmlns:xlink="http://www.w3.org/1999/xlink"
   xmlns:sodipodi="http://sodipodi.sourceforge.net/DTD/sodipodi-0.dtd"
   xmlns:inkscape="http://www.inkscape.org/namespaces/inkscape"
   viewBox="0 0 48 48"
   id="svg2"
   version="1.1"
   inkscape:version="0.91 r13725"
   sodipodi:docname="auralquiz.svg">
  <metadata
     id="metadata37">
    <rdf:RDF>
      <cc:Work
         rdf:about="">
        <dc:format>image/svg+xml</dc:format>
        <dc:type
           rdf:resource="http://purl.org/dc/dcmitype/StillImage" />
      </cc:Work>
    </rdf:RDF>
  </metadata>
  <sodipodi:namedview
     pagecolor="#ffffff"
     bordercolor="#666666"
     borderopacity="1"
     objecttolerance="10"
     gridtolerance="10"
     guidetolerance="10"
     inkscape:pageopacity="0"
     inkscape:pageshadow="2"
     inkscape:window-width="1366"
     inkscape:window-height="705"
     id="namedview35"
     showgrid="false"
     inkscape:zoom="4.9166667"
     inkscape:cx="24"
     inkscape:cy="24"
     inkscape:window-x="0"
     inkscape:window-y="28"
     inkscape:window-maximized="1"
     inkscape:current-layer="svg2" />
  <defs
     id="defs4">
    <linearGradient
       id="linearGradient4259"
       y2="1.014"
       gradientUnits="userSpaceOnUse"
       y1="46.986"
       x2="0">
      <stop
         style="stop-color:#6ed660;stop-opacity:1"
         id="stop7" />
      <stop
         offset="1"
         style="stop-color:#7dda70;stop-opacity:1"
         id="stop9" />
    </linearGradient>
    <linearGradient
       inkscape:collect="always"
       xlink:href="#linearGradient4105"
       id="linearGradient3741"
       gradientUnits="userSpaceOnUse"
       gradientTransform="matrix(0.83333307,0,0,0.83333307,-317.03371,412.80361)"
       x1="382.82715"
       y1="-527.79797"
       x2="431.57144"
       y2="-527.79797" />
    <linearGradient
       id="linearGradient4105">
      <stop
         id="stop4107"
         offset="0"
         style="stop-color:#81d034;stop-opacity:1" />
      <stop
         id="stop4109"
         offset="1"
         style="stop-color:#97d957;stop-opacity:1" />
    </linearGradient>
  </defs>
  <g
     transform="translate(0.55761199,0.30529681)"
     id="g3673">
    <rect
       style="fill:url(#linearGradient3741);fill-opacity:1;stroke:none"
       id="rect3675"
       width="39.999989"
       height="39.999989"
       x="3.4424012"
       y="-43.694542"
       ry="0"
       transform="scale(1,-1)" />
    <path
       style="opacity:0.35;fill:#000000;fill-opacity:1;stroke:none"
       d="m 3.4423873,43.694552 40.0000007,3.01e-4 c -20,-0.999999 -20,-0.999999 -40.0000017,0 z"
       id="path3677"
       inkscape:connector-curvature="0"
       sodipodi:nodetypes="cccc" />
    <path
       sodipodi:nodetypes="cccc"
       inkscape:connector-curvature="0"
       id="path3679"
       d="M 3.4423913,3.6947551 43.442388,3.6945549 c -19.999996,1.0000006 -19.999996,1.0000006 -39.9999977,0 z"
       style="opacity:0.5;fill:#ffffff;fill-opacity:1;stroke:none" />
  </g>
  <path
     d="m 20.12 12 c -0.597 0.04 -1.235 0.571 -1.775 1.777 c -0.58 1.295 -0.795 2.596 -0.24 5.088 l 0.244 1.092 c -1.812 1.558 -4.089 3.551 -4.332 6.393 c -0.306 3.595 3.525 6.266 6.965 5.43 l 0.488 2.193 c 0.241 1.082 0.08 2.57 -0.98 3.254 c -0.52 0.336 -2.345 0.565 -2.822 -0.217 c 0.067 0.01 0.135 0.016 0.203 0.018 c 0.876 0.016 1.6 -0.658 1.617 -1.506 c 0.017 -0.849 -0.68 -1.549 -1.557 -1.564 c -0.876 -0.015 -1.599 0.66 -1.615 1.508 c -0.001 0.069 0.003 0.138 0.012 0.207 c 0.001 0.012 0.003 0.025 0.004 0.037 c 0.01 0.069 0.025 0.136 0.045 0.203 c 0.202 0.889 1.086 2.038 2.592 2.084 c 2.256 0.069 3.697 -1.573 3.03 -4.254 l -0.482 -2.121 c 2.178 -0.857 3.258 -4.054 1.863 -5.732 c -1.092 -1.314 -2.368 -1.654 -3.5 -1.455 l -0.613 -2.693 c 1.247 -1.414 2.303 -2.937 2.709 -4.84 c 0.575 -2.698 -0.537 -4.988 -1.85 -4.9 z m 0.531 1.846 c 0.192 -0.014 0.347 0.039 0.434 0.16 c 0.198 0.278 0.678 1.574 -0.688 3.898 c -0.297 0.506 -0.907 1.064 -1.625 1.686 l -0.146 -0.641 c -0.401 -1.761 -0.101 -2.716 0.113 -3.285 c 0.428 -1.139 1.337 -1.776 1.912 -1.818 z m 10.848 4.152 c -3 0 -4.5 1.525 -4.5 5 l 3 0 c 0 -2 1.5 -2 1.5 -2 c 0 0 1.5 0 1.5 1.5 c 0 2.956 -3 0.5 -3 6.5 l 3 0 c 0.012 -4.5 3 -2.149 3 -7 c 0 -3 -1.5 -4 -4.5 -4 z m -12.65 4.209 l 0.523 2.348 c -2.524 0.84 -3.963 4.401 0.002 5.689 c -0.643 -0.482 -1.082 -0.855 -1.164 -1.311 c -0.298 -1.667 0.503 -2.543 1.521 -2.764 l 1.123 5.04 c -1.265 0.381 -2.905 0.149 -4.02 -0.814 c -1.497 -1.294 -2.163 -3.788 -0.496 -5.578 c 0.821 -0.882 1.695 -1.73 2.51 -2.613 z m 1.408 3.906 c 1.595 -0.009 3.343 1.397 2.281 3.764 c -0.222 0.495 -0.648 0.862 -1.17 1.117 l -1.111 -4.881 z m 9.742 3.885 l 0 3 l 3 0 l 0 -3 l -3 0 z"
     style="fill:#000;opacity:0.1;fill-opacity:1;stroke:none"
     id="path21" />
  <g
     transform="matrix(.42501 0 0 .40452 4.4641 8.5278)"
     style="fill:#333"
     id="g27">
    <path
       d="m 34.485 5.996 c -1.404 0.098 -2.902 1.406 -4.173 4.389 -1.364 3.202 -1.876 6.417 -0.57 12.578 l 0.574 2.704 c -4.262 3.851 -9.621 8.778 -10.193 15.803 -0.719 8.886 8.295 15.488 16.387 13.423 l 1.149 5.422 c 0.567 2.674 0.189 6.353 -2.307 8.04 -1.236 0.838 -5.612 1.411 -6.682 -0.589 l -3.079 -4.09 c -0.392 2.092 1.79 6.439 6.181 6.581 5.308 0.172 8.698 -3.889 7.118 -10.516 l -1.135 -5.248 c 5.124 -2.12 7.665 -10.02 4.384 -14.166 -2.569 -3.249 -5.571 -4.093 -8.235 -3.602 l -1.443 -6.653 c 2.934 -3.495 5.419 -7.26 6.374 -11.964 c 1.354 -6.671 -1.264 -12.329 -4.352 -12.11 m 1.255 4.558 c 0.451 -0.035 0.811 0.095 1.016 0.396 0.467 0.686 1.594 3.895 -1.618 9.642 -0.699 1.25 -2.134 2.629 -3.823 4.167 l -0.345 -1.584 c -0.943 -4.353 -0.237 -6.719 0.267 -8.126 1.01 -2.816 3.152 -4.391 4.504 -4.495 z m -4.246 20.67 1.232 5.804 c -5.938 2.076 -9.324 10.88 0.005 14.06 -1.514 -1.192 -2.546 -2.113 -2.739 -3.24 -0.702 -4.121 1.183 -6.281 3.58 -6.827 l 2.642 12.462 c -2.977 0.942 -6.835 0.373 -9.457 -2.01 -3.523 -3.199 -5.088 -9.364 -1.167 -13.789 1.931 -2.18 3.988 -4.282 5.905 -6.465 z m 3.313 9.657 c 3.754 -0.022 7.866 3.459 5.368 9.309 -0.523 1.225 -1.525 2.13 -2.753 2.762 l -2.615 -12.07 z"
       style="fill:#25578f;fill-opacity:1"
       id="path29" />
    <ellipse
       rx="3.733"
       transform="matrix(-0.99982388,-0.01876731,0.01876731,-0.99982388,0,0)"
       ry="3.797"
       cy="-63.51"
       cx="-30.461"
       style="fill:#25578f;fill-opacity:1"
       id="ellipse31" />
  </g>
  <path
     d="m 30.5 17 c -3 0 -4.5 1.525 -4.5 5 l 3 0 c 0 -2 1.5 -2 1.5 -2 c 0 0 1.5 0 1.5 1.5 0 2.956 -3 0.5 -3 6.5 l 3 0 c 0.012 -4.5 3 -2.149 3 -7 0 -3 -1.5 -4 -4.5 -4 z m -1.5 12 0 3 3 0 0 -3 z"
     style="fill:#25578f;fill-opacity:1;stroke:none"
     id="path33" />
</svg>
