<?xml version="1.0" encoding="UTF-8" standalone="no"?>
<!-- Created with Inkscape (http://www.inkscape.org/) -->

<svg
   xmlns:dc="http://purl.org/dc/elements/1.1/"
   xmlns:cc="http://creativecommons.org/ns#"
   xmlns:rdf="http://www.w3.org/1999/02/22-rdf-syntax-ns#"
   xmlns:svg="http://www.w3.org/2000/svg"
   xmlns="http://www.w3.org/2000/svg"
   xmlns:xlink="http://www.w3.org/1999/xlink"
   xmlns:sodipodi="http://sodipodi.sourceforge.net/DTD/sodipodi-0.dtd"
   xmlns:inkscape="http://www.inkscape.org/namespaces/inkscape"
   width="48"
   height="48"
   id="svg2"
   version="1.1"
   inkscape:version="0.91pre2 r13516"
   sodipodi:docname="avastgui.svg">
  <defs
     id="defs4">
    <linearGradient
       inkscape:collect="always"
       id="linearGradient4134">
      <stop
         style="stop-color:#ffa259;stop-opacity:1"
         offset="0"
         id="stop4136" />
      <stop
         style="stop-color:#ffcc9a;stop-opacity:1"
         offset="1"
         id="stop4138" />
    </linearGradient>
    <linearGradient
       inkscape:collect="always"
       xlink:href="#linearGradient4134"
       id="linearGradient4106"
       x1="38.888264"
       y1="19.830748"
       x2="71.095718"
       y2="19.830748"
       gradientUnits="userSpaceOnUse"
       gradientTransform="matrix(1.2394486,0,0,1.238897,-43.515234,998.58547)" />
  </defs>
  <sodipodi:namedview
     id="base"
     pagecolor="#ffffff"
     bordercolor="#666666"
     borderopacity="1.0"
     inkscape:pageopacity="0.0"
     inkscape:pageshadow="2"
     inkscape:zoom="7.2407734"
     inkscape:cx="-7.3161826"
     inkscape:cy="17.638565"
     inkscape:document-units="px"
     inkscape:current-layer="layer1"
     showgrid="true"
     inkscape:window-width="1301"
     inkscape:window-height="744"
     inkscape:window-x="65"
     inkscape:window-y="24"
     inkscape:window-maximized="1">
    <inkscape:grid
       type="xygrid"
       id="grid4152" />
  </sodipodi:namedview>
  <metadata
     id="metadata7">
    <rdf:RDF>
      <cc:Work
         rdf:about="">
        <dc:format>image/svg+xml</dc:format>
        <dc:type
           rdf:resource="http://purl.org/dc/dcmitype/StillImage" />
        <dc:title />
      </cc:Work>
    </rdf:RDF>
  </metadata>
  <g
     inkscape:label="Capa 1"
     inkscape:groupmode="layer"
     id="layer1"
     transform="translate(0,-1004.3622)">
    <path
       inkscape:connector-curvature="0"
       id="path4154"
       d="m 36.046533,1009.0033 c -0.686377,-0.051 -1.395077,0.04 -2.091571,0.2709 -0.834581,0.2777 -1.410635,0.636 -2.052833,1.2781 -0.831843,0.8315 -1.268819,1.7167 -1.471847,2.9041 -0.112226,0.6565 -0.193045,0.9049 -0.387329,1.3165 -0.744354,1.5785 -2.367917,2.6722 -3.989473,2.6722 -0.134767,0 -0.564727,-0.024 -0.968321,-0.076 -1.628107,-0.2135 -2.370702,-0.2396 -4.06694,-0.076 -0.458127,0.044 -1.014408,0.076 -1.200715,0.076 -0.805454,5e-4 -1.295601,-0.303 -1.626777,-0.9682 -0.20594,-0.4136 -0.279683,-0.6208 -0.271128,-1.3555 0.007,-0.615 0.02077,-0.6883 -0.07746,-0.9678 -0.158564,-0.4519 -0.308236,-0.6583 -0.658458,-1.007 -0.509015,-0.507 -1.043889,-0.7358 -1.742972,-0.7358 -0.456372,9e-4 -0.779004,0.071 -1.161985,0.2713 -0.807036,0.4195 -1.310715,1.196 -1.355645,2.0909 -0.0312,0.6213 0.08821,0.9931 0.426058,1.5105 0.245372,0.3755 0.5412,0.6474 1.084519,0.9293 0.58631,0.3038 0.898725,0.5919 1.161983,1.123 0.166767,0.3359 0.15493,0.367 0.15493,0.7357 0,0.3481 -2.22e-4,0.3847 -0.116191,0.6195 -0.06974,0.1417 -0.268948,0.4065 -0.426059,0.5808 -1.451956,1.6125 -2.335585,3.354 -2.711293,5.2279 -0.177956,0.8858 -0.230342,1.3654 -0.193665,2.3235 0.01762,0.4587 0.04121,0.9687 0.03873,1.1229 -0.01331,0.8772 -0.638451,1.4817 -1.975371,1.9362 -0.322611,0.1094 -0.4687912,0.1388 -0.8908561,0.155 -0.3276192,0.014 -0.5882587,-4e-4 -0.7746517,-0.039 -0.1670901,-0.032 -0.5094989,-0.039 -0.8521227,-0.039 -0.6508073,0 -0.9587707,0.072 -1.4718442,0.3095 -1.9011341,0.8783 -2.7361026,3.0858 -1.8591723,4.957 1.1204189,2.3904 4.2965594,2.9059 6.119778,1.0067 0.269622,-0.2808 0.40484,-0.4946 0.697188,-1.0067 0.09344,-0.1635 0.282574,-0.3929 0.426061,-0.5424 0.646264,-0.6727 1.528024,-1.0067 2.556363,-1.0067 0.735006,0 1.170028,0.1555 1.742973,0.6196 0.952485,0.7714 2.281719,1.4428 3.447216,1.7812 1.290306,0.3758 2.020301,0.4344 4.18314,0.3874 0.635044,-0.014 0.831335,0.021 1.123251,0.076 0.810319,0.1623 1.601549,0.4758 2.285233,0.9295 0.503372,0.334 1.332384,1.1632 1.665507,1.6652 0.449905,0.6778 0.782898,1.53 0.890856,2.2071 0.181407,1.1381 0.39703,1.8155 0.774655,2.5559 1.022995,2.0063 2.850361,3.3501 5.112724,3.7563 0.62293,0.1107 1.966589,0.088 2.595095,-0.039 2.150346,-0.439 3.94083,-1.7944 4.919065,-3.7174 0.531638,-1.0453 0.773414,-2.0008 0.774651,-3.2139 0.0031,-2.8333 -1.643973,-5.3454 -4.260601,-6.4671 -0.600126,-0.2573 -1.040441,-0.3637 -1.859174,-0.5034 -0.813615,-0.1389 -1.355598,-0.3169 -1.936637,-0.6197 -1.35985,-0.7082 -2.462359,-2.0109 -2.943693,-3.4463 -0.266614,-0.7954 -0.375415,-1.5777 -0.309861,-2.5171 0.04137,-0.5933 0.01751,-2.577 -0.03875,-3.9499 -0.03606,-0.88 0.09239,-1.4219 0.464796,-2.1686 0.427013,-0.856 1.134399,-1.5686 2.014104,-2.0135 0.457774,-0.2318 0.786911,-0.3147 1.43311,-0.4261 0.683689,-0.1172 1.171521,-0.2684 1.704243,-0.5423 1.227984,-0.6303 2.155175,-1.7045 2.595095,-3.0203 0.187262,-0.5603 0.232397,-1.0229 0.232397,-1.6651 0,-0.6446 -0.08131,-1.0976 -0.27113,-1.6654 -0.69563,-2.0817 -2.550069,-3.4448 -4.609205,-3.6016 z m -14.253657,11.3849 c 2.392047,-0.1601 4.794614,0.9798 6.15851,3.0204 0.491827,0.736 0.883405,1.7222 1.045784,2.5946 0.11368,0.6103 0.08393,1.9858 -0.03873,2.5557 -0.357012,1.6585 -1.223878,3.0587 -2.517631,4.0662 -1.074442,0.8366 -2.273704,1.2813 -3.679612,1.3939 -0.281324,0.023 -0.574126,0.043 -0.619724,0.039 -0.507221,-0.032 -0.900573,-0.088 -1.239448,-0.1548 -2.83207,-0.5774 -4.921788,-2.8031 -5.383854,-5.6923 -0.06615,-0.4118 -0.06643,-1.6304 0,-2.0139 0.269455,-1.5541 0.839718,-2.6999 1.897905,-3.7563 0.613681,-0.6128 1.117483,-0.9686 1.820439,-1.3165 0.586298,-0.2904 0.949351,-0.4448 1.54931,-0.5808 0.339508,-0.077 0.665333,-0.1321 1.007056,-0.1549 z m 0.735921,2.5945 c -2.009899,-0.1185 -3.841537,1.1621 -4.376802,3.1753 -0.09445,0.3551 -0.116192,0.4417 -0.116192,1.0456 0,0.6051 0.02123,0.7284 0.116192,1.0843 0.219459,0.8226 0.739686,1.6501 1.355646,2.1686 0.472982,0.3976 1.044305,0.7012 1.471846,0.7743 1.162532,0.2022 2.305698,-0.5911 2.478897,-1.7426 l 0,-0.1548 -0.735923,0 c -0.529897,0 -0.806547,-4e-4 -0.968319,-0.039 -0.943286,-0.2459 -1.588043,-1.0987 -1.588043,-2.0526 0,-0.5843 0.197299,-1.0883 0.619723,-1.5103 0.399178,-0.3986 0.936328,-0.6194 1.471847,-0.6194 0.953299,0 1.892362,0.725 2.091569,1.6649 0.04467,0.211 0.0381,0.6735 0.03875,2.1685 l 0,1.8977 0.232396,0 c 0.481617,-0.054 1.00488,-0.294 1.316913,-0.6196 0.185088,-0.1932 0.375813,-0.6028 0.464794,-0.8907 0.06994,-0.2267 0.07746,-0.3708 0.07746,-1.4328 0,-1.5226 -0.05197,-1.8761 -0.464793,-2.672 -0.517361,-0.9975 -1.55152,-1.8095 -2.633829,-2.0911 -0.290809,-0.076 -0.564998,-0.1378 -0.852127,-0.1547 z"
       style="fill:#000000;fill-opacity:0.23529412" />
    <path
       style="fill:url(#linearGradient4106);fill-opacity:1"
       d="m 36.046533,1008.4879 c -0.686377,-0.051 -1.395077,0.04 -2.091571,0.271 -0.834581,0.2776 -1.410635,0.636 -2.052833,1.278 -0.831843,0.8315 -1.268819,1.7167 -1.471847,2.9041 -0.112226,0.6565 -0.193045,0.9049 -0.387329,1.3166 -0.744354,1.5785 -2.367917,2.6722 -3.989473,2.6722 -0.134767,0 -0.564727,-0.024 -0.968321,-0.076 -1.628107,-0.2135 -2.370702,-0.2397 -4.06694,-0.076 -0.458127,0.044 -1.014408,0.076 -1.200715,0.076 -0.805454,5e-4 -1.295601,-0.303 -1.626777,-0.9683 -0.20594,-0.4136 -0.279683,-0.6208 -0.271128,-1.3554 0.007,-0.615 0.02077,-0.6883 -0.07746,-0.9679 -0.158564,-0.4518 -0.308236,-0.6583 -0.658458,-1.007 -0.509015,-0.507 -1.043889,-0.7358 -1.742972,-0.7358 -0.456372,9e-4 -0.779004,0.071 -1.161985,0.2713 -0.807036,0.4196 -1.310715,1.1961 -1.355645,2.0909 -0.0312,0.6213 0.08821,0.9931 0.426058,1.5105 0.245372,0.3755 0.5412,0.6475 1.084519,0.9294 0.58631,0.3037 0.898725,0.5918 1.161983,1.123 0.166767,0.3358 0.15493,0.367 0.15493,0.7357 0,0.348 -2.22e-4,0.3846 -0.116191,0.6195 -0.06974,0.1417 -0.268948,0.4064 -0.426059,0.5808 -1.451956,1.6125 -2.335585,3.354 -2.711293,5.2279 -0.177956,0.8858 -0.230342,1.3653 -0.193665,2.3234 0.01762,0.4587 0.04121,0.9688 0.03873,1.1229 -0.01331,0.8772 -0.638451,1.4818 -1.975371,1.9362 -0.322611,0.1095 -0.4687912,0.1389 -0.8908561,0.1551 -0.3276192,0.014 -0.5882587,-4e-4 -0.7746517,-0.039 -0.1670901,-0.032 -0.5094989,-0.039 -0.8521227,-0.039 -0.6508073,0 -0.9587707,0.072 -1.4718442,0.3096 -1.9011341,0.8782 -2.7361026,3.0858 -1.8591723,4.957 1.1204189,2.3904 4.2965594,2.9058 6.119778,1.0067 0.269622,-0.2809 0.40484,-0.4946 0.697188,-1.0067 0.09344,-0.1636 0.282574,-0.3929 0.426061,-0.5424 0.646264,-0.6727 1.528024,-1.0068 2.556363,-1.0068 0.735006,0 1.170028,0.1556 1.742973,0.6197 0.952485,0.7713 2.281719,1.4427 3.447216,1.7812 1.290306,0.3757 2.020301,0.4343 4.18314,0.3873 0.635044,-0.014 0.831335,0.021 1.123251,0.076 0.810319,0.1622 1.601549,0.4758 2.285233,0.9295 0.503372,0.334 1.332384,1.1632 1.665507,1.6651 0.449905,0.6779 0.782898,1.5301 0.890856,2.2072 0.181407,1.1381 0.39703,1.8154 0.774655,2.5559 1.022995,2.0062 2.850361,3.3501 5.112724,3.7563 0.62293,0.1107 1.966589,0.088 2.595095,-0.039 2.150346,-0.439 3.94083,-1.7943 4.919065,-3.7174 0.531638,-1.0452 0.773414,-2.0007 0.774651,-3.2139 0.0031,-2.8332 -1.643973,-5.3453 -4.260601,-6.4671 -0.600126,-0.2573 -1.040441,-0.3636 -1.859174,-0.5033 -0.813615,-0.139 -1.355598,-0.317 -1.936637,-0.6197 -1.35985,-0.7083 -2.462359,-2.0109 -2.943693,-3.4463 -0.266614,-0.7955 -0.375415,-1.5778 -0.309861,-2.5172 0.04137,-0.5932 0.01751,-2.577 -0.03875,-3.9498 -0.03606,-0.88 0.09239,-1.4219 0.464796,-2.1687 0.427013,-0.8559 1.134399,-1.5685 2.014104,-2.0134 0.457774,-0.2318 0.786911,-0.3148 1.43311,-0.4262 0.683689,-0.1171 1.171521,-0.2683 1.704243,-0.5422 1.227984,-0.6304 2.155175,-1.7046 2.595095,-3.0204 0.187262,-0.5603 0.232397,-1.0228 0.232397,-1.665 0,-0.6446 -0.08131,-1.0977 -0.27113,-1.6654 -0.69563,-2.0818 -2.550069,-3.4448 -4.609205,-3.6017 z m -14.253657,11.385 c 2.392047,-0.1601 4.794614,0.9798 6.15851,3.0203 0.491827,0.7361 0.883405,1.7222 1.045784,2.5946 0.11368,0.6103 0.08393,1.9859 -0.03873,2.5558 -0.357012,1.6585 -1.223878,3.0586 -2.517631,4.0661 -1.074442,0.8367 -2.273704,1.2813 -3.679612,1.394 -0.281324,0.023 -0.574126,0.043 -0.619724,0.039 -0.507221,-0.032 -0.900573,-0.088 -1.239448,-0.1548 -2.83207,-0.5774 -4.921788,-2.8031 -5.383854,-5.6922 -0.06615,-0.4118 -0.06643,-1.6304 0,-2.0139 0.269455,-1.5542 0.839718,-2.7 1.897905,-3.7563 0.613681,-0.6128 1.117483,-0.9686 1.820439,-1.3166 0.586298,-0.2904 0.949351,-0.4448 1.54931,-0.5807 0.339508,-0.077 0.665333,-0.1322 1.007056,-0.1549 z m 0.735921,2.5945 c -2.009899,-0.1185 -3.841537,1.162 -4.376802,3.1752 -0.09445,0.3552 -0.116192,0.4417 -0.116192,1.0457 0,0.6051 0.02123,0.7283 0.116192,1.0842 0.219459,0.8226 0.739686,1.6501 1.355646,2.1687 0.472982,0.3975 1.044305,0.7012 1.471846,0.7743 1.162532,0.2022 2.305698,-0.5912 2.478897,-1.7427 l 0,-0.1548 -0.735923,0 c -0.529897,0 -0.806547,-4e-4 -0.968319,-0.039 -0.943286,-0.2458 -1.588043,-1.0987 -1.588043,-2.0525 0,-0.5844 0.197299,-1.0884 0.619723,-1.5104 0.399178,-0.3985 0.936328,-0.6194 1.471847,-0.6194 0.953299,0 1.892362,0.725 2.091569,1.6649 0.04467,0.2111 0.0381,0.6735 0.03875,2.1686 l 0,1.8977 0.232396,0 c 0.481617,-0.054 1.00488,-0.294 1.316913,-0.6197 0.185088,-0.1931 0.375813,-0.6028 0.464794,-0.8907 0.06994,-0.2266 0.07746,-0.3707 0.07746,-1.4327 0,-1.5226 -0.05197,-1.8761 -0.464793,-2.672 -0.517361,-0.9975 -1.55152,-1.8096 -2.633829,-2.0912 -0.290809,-0.076 -0.564998,-0.1378 -0.852127,-0.1546 z"
       id="path4088"
       inkscape:connector-curvature="0" />
    <path
       style="fill:#f96a01;fill-opacity:0.31372549"
       d="m 40.902041,1013.2561 c -0.02568,0.3853 -0.0718,0.7396 -0.201207,1.1268 -0.439921,1.3158 -1.387708,2.3877 -2.615692,3.018 -0.532722,0.2739 -1.006452,0.4462 -1.69014,0.5634 -0.6462,0.112 -0.990916,0.1706 -1.448691,0.4024 -0.879704,0.4449 -1.585057,1.1561 -2.012071,2.0121 -0.372401,0.7468 -0.478712,1.293 -0.442655,2.173 0.0049,0.1198 -0.0044,0.2741 0,0.4025 0.0425,-0.5393 0.17035,-0.9832 0.442655,-1.5292 0.427014,-0.856 1.132367,-1.5672 2.012071,-2.0121 0.457775,-0.2318 0.802491,-0.3312 1.448691,-0.4426 0.683688,-0.1172 1.157418,-0.2493 1.69014,-0.5232 1.227984,-0.6303 2.175771,-1.7022 2.615692,-3.018 0.187262,-0.5603 0.241448,-1.048 0.241448,-1.6902 0,-0.184 -0.02636,-0.3231 -0.04024,-0.4829 z m -27.887302,0.6036 c -0.02002,0.1082 -0.0748,0.2089 -0.08048,0.3219 -0.0312,0.6213 0.06457,1.0118 0.402414,1.5292 0.245372,0.3755 0.543198,0.6437 1.086518,0.9256 0.586309,0.3038 0.903742,0.5956 1.167001,1.1268 0.05003,0.1004 0.05746,0.1379 0.08048,0.2011 0.05791,-0.1385 0.08048,-0.2471 0.08048,-0.5231 0,-0.3686 0.0058,-0.3885 -0.160966,-0.7243 -0.263259,-0.5312 -0.580692,-0.823 -1.167001,-1.1268 -0.54332,-0.2818 -0.841146,-0.5501 -1.086518,-0.9256 -0.186811,-0.2861 -0.257227,-0.541 -0.321932,-0.8048 z m 8.772629,4.9899 c -0.341722,0.023 -0.666528,0.084 -1.006035,0.161 -0.599959,0.136 -0.942877,0.273 -1.529174,0.5634 -0.702956,0.3479 -1.237424,0.7152 -1.851105,1.328 -1.058187,1.0563 -1.621892,2.1882 -1.891347,3.7424 -0.05052,0.2915 -0.02626,0.9937 0,1.5292 0.0082,-0.1653 -0.01592,-0.391 0,-0.4829 0.269455,-1.5542 0.83316,-2.7264 1.891347,-3.7827 0.613681,-0.6129 1.148149,-0.9398 1.851105,-1.2878 0.586297,-0.2903 0.929215,-0.4675 1.529174,-0.6035 0.339507,-0.077 0.664313,-0.1382 1.006035,-0.161 2.392048,-0.16 4.793041,1.0178 6.156937,3.0584 0.491827,0.736 0.883898,1.703 1.046277,2.5754 0.03018,0.162 0.02933,0.4435 0.04024,0.6841 0.03567,-0.6187 0.03494,-1.3268 -0.04024,-1.7304 -0.162379,-0.8724 -0.55445,-1.8393 -1.046277,-2.5754 -1.363896,-2.0405 -3.764889,-3.1782 -6.156937,-3.0182 z m 0.482897,4.7083 c -0.535519,0 -1.089754,0.2453 -1.488932,0.6439 -0.422424,0.422 -0.603622,0.9045 -0.603622,1.4889 0,0.1544 0.04815,0.2956 0.08048,0.4427 0.09344,-0.3359 0.253533,-0.6562 0.523139,-0.9256 0.399178,-0.3986 0.953413,-0.6036 1.488932,-0.6036 0.953299,0 1.893346,0.7099 2.092554,1.6498 -0.0045,-0.2827 0.02068,-0.9083 0,-1.0059 -0.199208,-0.9399 -1.139255,-1.6902 -2.092554,-1.6902 z m -4.225349,2.7365 c -0.0067,0.1158 0,0.201 0,0.4024 0,0.6051 0.02577,0.7305 0.120725,1.0864 0.219459,0.8226 0.712006,1.6545 1.327966,2.1731 0.472982,0.3975 1.061393,0.6915 1.488933,0.7646 1.162532,0.2022 2.321769,-0.579 2.494968,-1.7304 l 0,-0.161 -0.362173,0 c -0.461193,0.6529 -1.292865,0.9912 -2.132795,0.8451 -0.42754,-0.073 -1.015951,-0.3671 -1.488933,-0.7646 -0.61596,-0.5186 -1.108507,-1.3505 -1.327966,-2.1731 -0.04748,-0.1779 -0.103546,-0.2916 -0.120725,-0.4425 z m 14.48691,0.2011 c -0.02458,0.3523 -0.02358,0.6889 0,1.0061 0.01185,-0.1863 -0.0012,-0.6305 0,-1.0061 z m -20.241432,0.2013 c -0.0011,0.1764 -0.0082,0.3085 0,0.523 0.0044,0.1146 -0.0046,0.1672 0,0.2818 0.0064,-0.057 0.03934,-0.1017 0.04024,-0.161 0.0014,-0.088 -0.0306,-0.399 -0.04024,-0.6438 z m 14.164978,0.2011 c -0.0057,0.4821 0.01146,0.7177 -0.04024,0.8853 -0.08898,0.288 -0.297808,0.6922 -0.482897,0.8853 -0.312033,0.3257 -0.84635,0.5898 -1.327967,0.6439 l -0.201207,0 0,1.0061 0.201207,0 c 0.481617,-0.054 1.015934,-0.278 1.327967,-0.6037 0.185089,-0.1932 0.393916,-0.5974 0.482897,-0.8853 0.06994,-0.2266 0.08048,-0.3867 0.08048,-1.4487 0,-0.1989 -0.03778,-0.3203 -0.04024,-0.4829 z m -12.152907,6.157 c -1.028339,0 -1.888945,0.3333 -2.53521,1.006 -0.143487,0.1495 -0.349218,0.3998 -0.442655,0.5634 -0.292348,0.5121 -0.414482,0.7252 -0.684104,1.0061 -1.8232183,1.8991 -4.9962765,1.3843 -6.1166954,-1.0061 -0.1708434,-0.3646 -0.2762625,-0.749 -0.3219313,-1.1268 -0.1185699,0.7085 -0.00692,1.4311 0.3219313,2.1329 1.1204189,2.3904 4.2934771,2.9051 6.1166954,1.0059 0.269622,-0.2808 0.391756,-0.4938 0.684104,-1.0059 0.09344,-0.1636 0.299168,-0.3737 0.442655,-0.5232 0.646265,-0.6727 1.506871,-1.006 2.53521,-1.006 0.735006,0 1.197677,0.1394 1.770622,0.6035 0.952485,0.7714 2.255023,1.4323 3.42052,1.7707 1.290306,0.3757 2.022269,0.4494 4.185108,0.4024 0.635044,-0.014 0.834844,0.024 1.126759,0.08 0.810319,0.1623 1.610077,0.472 2.293761,0.9256 0.503372,0.3341 1.316775,1.1479 1.649898,1.6499 0.449906,0.6778 0.817595,1.5362 0.925553,2.2133 0.181407,1.1381 0.386961,1.835 0.764587,2.5755 1.022994,2.0062 2.848296,3.3362 5.110659,3.7424 0.62293,0.1107 1.946945,0.086 2.575451,-0.04 2.150346,-0.439 3.97146,-1.7791 4.949694,-3.7022 0.531639,-1.0452 0.76335,-2.0061 0.764587,-3.2193 1.5e-4,-0.1365 -0.03281,-0.2676 -0.04024,-0.4024 -0.07395,0.9251 -0.289444,1.7203 -0.724346,2.5754 -0.978234,1.9231 -2.799348,3.2633 -4.949694,3.7023 -0.628506,0.1262 -1.952521,0.1509 -2.575451,0.04 -2.262363,-0.4062 -4.087665,-1.7361 -5.110659,-3.7424 -0.377626,-0.7405 -0.58318,-1.3972 -0.764587,-2.5353 -0.107963,-0.6771 -0.475647,-1.5353 -0.925553,-2.2132 -0.333123,-0.502 -1.146526,-1.3561 -1.649898,-1.6901 -0.683684,-0.4537 -1.483442,-0.7634 -2.293761,-0.9257 -0.291915,-0.055 -0.491715,-0.094 -1.126759,-0.08 -2.162839,0.046 -2.894802,0.014 -4.185108,-0.3621 -1.165497,-0.3384 -2.468035,-1.0396 -3.42052,-1.8109 -0.572945,-0.4641 -1.035616,-0.6036 -1.770622,-0.6036 z"
       id="path4144"
       inkscape:connector-curvature="0" />
  </g>
</svg>
