<?xml version="1.0" encoding="UTF-8" standalone="no"?>
<svg
   xmlns:dc="http://purl.org/dc/elements/1.1/"
   xmlns:cc="http://creativecommons.org/ns#"
   xmlns:rdf="http://www.w3.org/1999/02/22-rdf-syntax-ns#"
   xmlns:svg="http://www.w3.org/2000/svg"
   xmlns="http://www.w3.org/2000/svg"
   xmlns:xlink="http://www.w3.org/1999/xlink"
   xmlns:sodipodi="http://sodipodi.sourceforge.net/DTD/sodipodi-0.dtd"
   xmlns:inkscape="http://www.inkscape.org/namespaces/inkscape"
   id="svg2"
   version="1.1"
   viewBox="0 0 48 48"
   inkscape:version="0.91 r13725"
   sodipodi:docname="avocode.svg">
  <sodipodi:namedview
     pagecolor="#ffffff"
     bordercolor="#666666"
     borderopacity="1"
     objecttolerance="10"
     gridtolerance="10"
     guidetolerance="10"
     inkscape:pageopacity="0"
     inkscape:pageshadow="2"
     inkscape:window-width="686"
     inkscape:window-height="485"
     id="namedview26"
     showgrid="false"
     inkscape:zoom="4.9166667"
     inkscape:cx="24"
     inkscape:cy="24"
     inkscape:window-x="433"
     inkscape:window-y="50"
     inkscape:window-maximized="0"
     inkscape:current-layer="svg2" />
  <metadata
     id="metadata57">
    <rdf:RDF>
      <cc:Work
         rdf:about="">
        <dc:format>image/svg+xml</dc:format>
        <dc:type
           rdf:resource="http://purl.org/dc/dcmitype/StillImage" />
        <dc:title />
      </cc:Work>
    </rdf:RDF>
  </metadata>
  <defs
     id="defs4">
    <linearGradient
       inkscape:collect="always"
       xlink:href="#linearGradient3454"
       id="linearGradient3331"
       gradientUnits="userSpaceOnUse"
       gradientTransform="matrix(0.83333307,0,0,0.83333307,-317.03371,412.80361)"
       x1="379.57144"
       y1="-527.79797"
       x2="431.57144"
       y2="-527.79797" />
    <linearGradient
       id="linearGradient3454">
      <stop
         style="stop-color:#43a047;stop-opacity:1"
         offset="0"
         id="stop3456" />
      <stop
         style="stop-color:#81c784;stop-opacity:1"
         offset="1"
         id="stop3458" />
    </linearGradient>
  </defs>
  <g
     transform="translate(0.55761199,0.30529681)"
     id="g3297">
    <rect
       style="fill:url(#linearGradient3331);fill-opacity:1;stroke:none"
       id="rect3299"
       width="39.999989"
       height="39.999989"
       x="3.4424012"
       y="-43.694542"
       ry="0"
       transform="scale(1,-1)" />
    <path
       style="opacity:0.35;fill:#000000;fill-opacity:1;stroke:none"
       d="m 3.4423873,43.694552 40.0000007,3.01e-4 c -20,-0.999999 -20,-0.999999 -40.0000017,0 z"
       id="path3301"
       inkscape:connector-curvature="0"
       sodipodi:nodetypes="cccc" />
    <path
       sodipodi:nodetypes="cccc"
       inkscape:connector-curvature="0"
       id="path3303"
       d="M 3.4423913,3.6947551 43.442388,3.6945549 c -19.999996,1.0000006 -19.999996,1.0000006 -39.9999977,0 z"
       style="opacity:0.5;fill:#ffffff;fill-opacity:1;stroke:none" />
  </g>
  <g
     id="g4159"
     opacity=".1"
     fill-rule="evenodd"
     transform="matrix(1.0035 0 0 1 1.1569 2.145)">
    <path
       id="path4161"
       opacity="1"
       d="m23.761 9.855c-8.4528 0-17.39 26 0 26s8.4528-26 0-26z" />
    <path
       id="path4163"
       opacity="1"
       d="m23.761 10.855c-7.6075 0-15.651 24 0 24s7.6075-24 0-24z" />
    <path
       id="path4165"
       opacity=".1"
       d="m24.758 19.855c-4.2264 0-8.6951 13 0 13s4.2264-13 0-13z" />
    <path
       id="path4167"
       opacity="1"
       d="m23.761 18.855c-4.2264 0-8.6951 13 0 13s4.2264-13 0-13z" />
  </g>
  <g
     id="g4202"
     fill-rule="evenodd"
     transform="matrix(1.0035 0 0 1 .15690 1.145)">
    <path
       id="path4150"
       d="m23.761 9.855c-8.4528 0-17.39 26 0 26s8.4528-26 0-26z"
       fill="#a2c22e" />
    <path
       id="path4198"
       d="m23.761 10.855c-7.6075 0-15.651 24 0 24s7.6075-24 0-24z"
       fill="#ffe680" />
    <path
       id="path4157"
       opacity=".1"
       d="m24.758 19.855c-4.2264 0-8.6951 13 0 13s4.2264-13 0-13z" />
    <path
       id="path4156"
       d="m23.761 18.855c-4.2264 0-8.6951 13 0 13s4.2264-13 0-13z"
       fill="#7e502f" />
  </g>
</svg>
