<?xml version="1.0" encoding="UTF-8" standalone="no"?>
<svg
   xmlns:dc="http://purl.org/dc/elements/1.1/"
   xmlns:cc="http://creativecommons.org/ns#"
   xmlns:rdf="http://www.w3.org/1999/02/22-rdf-syntax-ns#"
   xmlns:svg="http://www.w3.org/2000/svg"
   xmlns="http://www.w3.org/2000/svg"
   xmlns:xlink="http://www.w3.org/1999/xlink"
   xmlns:sodipodi="http://sodipodi.sourceforge.net/DTD/sodipodi-0.dtd"
   xmlns:inkscape="http://www.inkscape.org/namespaces/inkscape"
   viewBox="0 0 48 48"
   id="svg2"
   version="1.1"
   inkscape:version="0.91 r13725"
   sodipodi:docname="avogadro.svg">
  <metadata
     id="metadata58">
    <rdf:RDF>
      <cc:Work
         rdf:about="">
        <dc:format>image/svg+xml</dc:format>
        <dc:type
           rdf:resource="http://purl.org/dc/dcmitype/StillImage" />
      </cc:Work>
    </rdf:RDF>
  </metadata>
  <sodipodi:namedview
     pagecolor="#ffffff"
     bordercolor="#666666"
     borderopacity="1"
     objecttolerance="10"
     gridtolerance="10"
     guidetolerance="10"
     inkscape:pageopacity="0"
     inkscape:pageshadow="2"
     inkscape:window-width="686"
     inkscape:window-height="485"
     id="namedview56"
     showgrid="false"
     inkscape:zoom="4.9166667"
     inkscape:cx="24"
     inkscape:cy="24"
     inkscape:window-x="494"
     inkscape:window-y="83"
     inkscape:window-maximized="0"
     inkscape:current-layer="svg2" />
  <defs
     id="defs4">
    <linearGradient
       id="linearGradient4228">
      <stop
         style="stop-color:#e7a431;stop-opacity:1"
         id="stop7" />
      <stop
         offset="1"
         style="stop-color:#d6911a;stop-opacity:1"
         id="stop9" />
    </linearGradient>
    <linearGradient
       id="linearGradient3764"
       x1="1"
       x2="47"
       gradientUnits="userSpaceOnUse"
       gradientTransform="matrix(0,-1,1,0,-1.5e-6,47.999998)">
      <stop
         style="stop-color:#eec37a;stop-opacity:1"
         id="stop12" />
      <stop
         offset="1"
         style="stop-color:#f0cb8c;stop-opacity:1"
         id="stop14" />
    </linearGradient>
    <radialGradient
       xlink:href="#linearGradient4228"
       id="radialGradient4211"
       cx="15"
       cy="63.5"
       r="15"
       gradientTransform="matrix(1,0,0,0.63321134,0,23.290335)"
       gradientUnits="userSpaceOnUse" />
    <radialGradient
       xlink:href="#linearGradient4228"
       id="radialGradient4203"
       cx="14.999"
       cy="63.5"
       r="15"
       gradientTransform="matrix(1,0,0,0.63321134,9.0007883,-16.709661)"
       gradientUnits="userSpaceOnUse" />
    <radialGradient
       xlink:href="#linearGradient4228"
       id="radialGradient4227"
       cx="25.5"
       cy="60.5"
       r="2.5"
       gradientUnits="userSpaceOnUse" />
    <radialGradient
       xlink:href="#linearGradient4228"
       id="radialGradient4219"
       cx="7.5"
       cy="55.5"
       r="3.5"
       gradientUnits="userSpaceOnUse" />
    <linearGradient
       inkscape:collect="always"
       xlink:href="#linearGradient3466"
       id="linearGradient3743"
       gradientUnits="userSpaceOnUse"
       gradientTransform="matrix(0.83333307,0,0,0.83333307,-317.03371,412.80361)"
       x1="379.57144"
       y1="-527.79797"
       x2="431.57144"
       y2="-527.79797" />
    <linearGradient
       id="linearGradient3466">
      <stop
         style="stop-color:#fbc02d;stop-opacity:1"
         offset="0"
         id="stop3468" />
      <stop
         style="stop-color:#fff176;stop-opacity:1"
         offset="1"
         id="stop3470" />
    </linearGradient>
  </defs>
  <g
     id="g3681"
     transform="translate(0.55761199,0.30529681)">
    <rect
       transform="scale(1,-1)"
       ry="0"
       y="-43.694542"
       x="3.4424012"
       height="39.999989"
       width="39.999989"
       id="rect3683"
       style="fill:url(#linearGradient3743);fill-opacity:1;stroke:none" />
    <path
       sodipodi:nodetypes="cccc"
       inkscape:connector-curvature="0"
       id="path3685"
       d="m 3.4423873,43.694552 40.0000007,3.01e-4 c -20,-0.999999 -20,-0.999999 -40.0000017,0 z"
       style="opacity:0.35;fill:#000000;fill-opacity:1;stroke:none" />
    <path
       style="opacity:0.5;fill:#ffffff;fill-opacity:1;stroke:none"
       d="M 3.4423913,3.6947551 43.442388,3.6945549 c -19.999996,1.0000006 -19.999996,1.0000006 -39.9999977,0 z"
       id="path3687"
       inkscape:connector-curvature="0"
       sodipodi:nodetypes="cccc" />
  </g>
  <path
     d="m 21.999 11 -1.365 3.947 a 3.5 3.5 0 0 0 -3.135 -1.947 3.5 3.5 0 0 0 -3.205 2.098 17.04 4.99 29.747 0 0 -1.336 -0.098 17.04 4.99 29.747 0 0 -2.748 1.035 17.04 4.99 29.747 0 0 5.846 8.465 a 4.99 17.04 60.25 0 0 -5.846 8.465 4.99 17.04 60.25 0 0 3.85 0.969 l -1.061 3.066 l 5.6 0 1.471 -4.643 a 4.99 17.04 60.25 0 0 3.213 -1.357 l 3.434 0 a 17.04 4.99 29.747 0 0 3.213 1.357 l 1.471 4.643 l 5.6 0 -1.061 -3.066 a 17.04 4.99 29.747 0 0 3.85 -0.969 17.04 4.99 29.747 0 0 -5.844 -8.471 4.99 17.04 60.25 0 0 0.766 -0.625 a 2.5 2.5 0 0 0 0.789 0.131 a 2.5 2.5 0 0 0 2.5 -2.5 2.5 2.5 0 0 0 -0.096 -0.682 4.99 17.04 60.25 0 0 1.885 -4.783 a 4.99 17.04 60.25 0 0 -2.748 -1.035 4.99 17.04 60.25 0 0 -7.09 1.633 l -1.951 -5.633 l -6 0 z m 3 5.416 0.654 2.09 a 4.99 17.04 60.25 0 0 -0.654 0.33 17.04 4.99 29.747 0 0 -0.654 -0.328 l 0.654 -2.092 z m 10.805 0.65 a 2.994 14.03 60.23 0 1 1.373 0.463 2.994 14.03 60.23 0 1 -0.523 1.756 2.5 2.5 0 0 0 -1.154 -0.285 2.5 2.5 0 0 0 -2.5 2.5 2.5 2.5 0 0 0 0.25 1.086 2.994 14.03 60.23 0 1 -0.912 0.707 17.04 4.99 29.747 0 0 -0.109 -0.078 l -1.65 -4.766 a 2.994 14.03 60.23 0 1 5.227 -1.383 z m -21.756 0.008 a 3.5 3.5 0 0 0 3.451 2.926 3.5 3.5 0 0 0 1.504 -0.344 l -1.23 3.555 a 4.99 17.04 60.25 0 0 -0.109 0.08 14.03 2.994 29.767 0 1 -4.842 -5.762 14.03 2.994 29.767 0 1 1.227 -0.455 z m 10.949 4.01 a 14.03 2.994 29.767 0 1 1.508 0.832 14.03 2.994 29.767 0 1 0.264 0.154 l 1.23 3.934 -6 0 1.232 -3.936 a 2.994 14.03 60.23 0 1 0.262 -0.152 2.994 14.03 60.23 0 1 1.504 -0.832 z m 8.367 5.42 a 14.03 2.994 29.767 0 1 3.813 4.971 14.03 2.994 29.767 0 1 -1.947 0.414 l -1.865 -5.385 z m -16.73 0.002 -1.865 5.383 a 2.994 14.03 60.23 0 1 -1.947 -0.414 2.994 14.03 60.23 0 1 3.813 -4.969 z"
     style="fill:#000;opacity:0.1;fill-opacity:1;stroke:none"
     id="path36" />
  <g
     transform="translate(9.0007883,-39.999996)"
     id="g38">
    <g
       id="g40">
      <path
         d="m 12 50 -9 26 5.6 0 1.9 -6 l 9 0 1.9 6 l 5.6 0 -9 -26 -6 0 m 3 5.416 3 9.584 l -6 0 3 -9.584 z"
         style="fill:#2a2a2a;fill-opacity:1;stroke:none"
         id="path42" />
      <path
         d="m 10.693 53.777 -2.156 6.225 c 1.013 -0.01 1.972 -0.459 2.629 -1.23 0.775 0.324 1.595 0.704 2.436 1.109 l 0.598 -1.906 c -0.758 -0.351 -1.507 -0.68 -2.238 -0.975 0.025 -0.164 0.038 -0.33 0.039 -0.496 0 -1.06 -0.481 -2.062 -1.307 -2.727 m 9.686 3.096 c -1.39 0.547 -2.839 1.191 -4.316 1.939 l 0.875 2.795 c 0.189 0.103 0.376 0.199 0.568 0.309 2.27 1.299 4.287 2.641 5.973 3.912 l -1.104 -3.189 c -1.207 -0.831 -2.48 -1.656 -3.863 -2.447 -0.121 -0.069 -0.241 -0.129 -0.361 -0.197 1 -0.489 1.952 -0.91 2.863 -1.287 z m -6.871 3.307 c -0.007 0.004 -0.013 0.008 -0.02 0.012 -2.462 1.41 -4.676 2.913 -6.537 4.393 l -1.258 3.635 c 1.571 -1.533 3.981 -3.354 6.918 -5.17 z"
         style="fill:#000;opacity:0.1;fill-opacity:1;stroke:none"
         id="path44" />
      <path
         d="m 2.959 54 a 17.04 4.99 29.747 0 0 -2.748 1.035 17.04 4.99 29.747 0 0 6.85 9.234 L 7.5 63 7.729 62.34 a 14.03 2.994 29.767 0 1 -4.906 -5.813 14.03 2.994 29.767 0 1 13.684 4.383 14.03 2.994 29.767 0 1 10.672 9.559 14.03 2.994 29.767 0 1 -1.947 0.414 L 25.938 72.934 A 17.04 4.99 29.747 0 0 29.789 71.965 17.04 4.99 29.747 0 0 17.512 59.19 17.04 4.99 29.747 0 0 2.959 54 M 16.717 70 a 17.04 4.99 29.747 0 0 3.213 1.357 L 19.5 70 16.717 70"
         style="fill:url(#radialGradient4211);opacity:1;fill-opacity:1;stroke:none"
         id="path46" />
      <path
         d="m 16.459 58.6 c -0.71 0.356 -1.42 0.73 -2.125 1.121 0.695 0.363 1.392 0.743 2.084 1.137 0.715 -0.377 1.426 -0.736 2.125 -1.07 -0.341 -0.204 -0.685 -0.406 -1.031 -0.604 -0.349 -0.199 -0.7 -0.393 -1.053 -0.584 z"
         style="fill:#000;opacity:0.1;fill-opacity:1;stroke:none"
         id="path48" />
      <path
         d="M 36.04 14 A 4.99 17.04 60.25 0 0 21.488 19.19 A 4.99 17.04 60.25 0 0 9.211 31.965 A 4.99 17.04 60.25 0 0 13.06 32.934 L 13.771 30.885 A 2.994 14.03 60.23 0 1 11.824 30.471 A 2.994 14.03 60.23 0 1 22.496 20.912 A 2.994 14.03 60.23 0 1 36.18 16.529 A 2.994 14.03 60.23 0 1 31.34 22.295 A 17.04 4.99 29.747 0 1 32.932 23.504 A 4.99 17.04 60.25 0 0 38.789 15.04 A 4.99 17.04 60.25 0 0 36.04 14 z M 19.5 30 L 19.07 31.359 A 4.99 17.04 60.25 0 0 22.283 30 L 19.5 30 z"
         transform="translate(-9.0007883,39.999996)"
         style="fill:url(#radialGradient4203);opacity:1;fill-opacity:1;stroke:none"
         id="path50" />
      <circle
         cx="25.5"
         cy="60.5"
         r="2.5"
         style="fill:url(#radialGradient4227);opacity:1;fill-opacity:1;stroke:none"
         id="circle52" />
    </g>
    <circle
       r="3.5"
       cy="55.5"
       cx="7.5"
       style="fill:url(#radialGradient4219);opacity:1;fill-opacity:1;stroke:none"
       id="circle54" />
  </g>
</svg>
