<?xml version="1.0" encoding="UTF-8" standalone="no"?>
<svg xmlns="http://www.w3.org/2000/svg" xmlns:xlink="http://www.w3.org/1999/xlink" version="1.1" height="48" width="48">
 <defs>
  <linearGradient id="linearGradient4610">
   <stop style="stop-color:#000000;stop-opacity:1" offset="0"/>
   <stop style="stop-color:#000000;stop-opacity:0" offset="1"/>
  </linearGradient>
  <linearGradient id="linearGradient4235">
   <stop offset="0" style="stop-color:#fa8399;stop-opacity:1"/>
   <stop offset="1" style="stop-color:#f85272;stop-opacity:1"/>
  </linearGradient>
  <linearGradient gradientUnits="userSpaceOnUse" y2="44" x2="30.994" y1="4" x1="18" id="linearGradient4233" xlink:href="#linearGradient4235"/>
  <linearGradient xlink:href="#linearGradient4610" id="linearGradient4612" x1="10.054" y1="16.055" x2="12.904" y2="18.905" gradientUnits="userSpaceOnUse"/>
  <linearGradient xlink:href="#linearGradient4610" id="linearGradient4620" x1="9.784" y1="21.324" x2="13.416" y2="24.957" gradientUnits="userSpaceOnUse"/>
  <linearGradient xlink:href="#linearGradient4610" id="linearGradient4656" gradientUnits="userSpaceOnUse" x1="10.054" y1="16.055" x2="12.904" y2="18.905" gradientTransform="translate(6.9998281,-2)"/>
  <linearGradient xlink:href="#linearGradient4610" id="linearGradient4658" gradientUnits="userSpaceOnUse" x1="9.784" y1="21.324" x2="13.416" y2="24.957" gradientTransform="translate(6.9998281,-2)"/>
  <linearGradient xlink:href="#linearGradient4610" id="linearGradient4660" gradientUnits="userSpaceOnUse" x1="9.671" y1="26.315" x2="14.681" y2="31.324" gradientTransform="translate(6.9998281,-2)"/>
  <linearGradient xlink:href="#linearGradient4610" id="linearGradient4674" gradientUnits="userSpaceOnUse" gradientTransform="translate(13.999828,2)" x1="10.054" y1="16.055" x2="12.904" y2="18.905"/>
  <linearGradient xlink:href="#linearGradient4610" id="linearGradient4676" gradientUnits="userSpaceOnUse" gradientTransform="translate(13.999828,2)" x1="9.784" y1="21.324" x2="13.416" y2="24.957"/>
  <linearGradient xlink:href="#linearGradient4610" id="linearGradient4678" gradientUnits="userSpaceOnUse" gradientTransform="translate(13.999828,2)" x1="9.671" y1="26.315" x2="14.681" y2="31.324"/>
  <linearGradient xlink:href="#linearGradient4610" id="linearGradient4698" gradientUnits="userSpaceOnUse" gradientTransform="translate(20.999828,-2)" x1="10.054" y1="16.055" x2="12.904" y2="18.905"/>
  <linearGradient xlink:href="#linearGradient4610" id="linearGradient4700" gradientUnits="userSpaceOnUse" gradientTransform="translate(21,-2)" x1="9.784" y1="21.324" x2="13.416" y2="24.957"/>
  <linearGradient xlink:href="#linearGradient4610" id="linearGradient4703" gradientUnits="userSpaceOnUse" gradientTransform="translate(20.999828,-2)" x1="9.671" y1="26.315" x2="14.681" y2="31.324"/>
  <linearGradient xlink:href="#linearGradient4610" id="linearGradient4713" gradientUnits="userSpaceOnUse" x1="10.054" y1="16.055" x2="12.904" y2="18.905" gradientTransform="translate(27.999828)"/>
  <linearGradient xlink:href="#linearGradient4610" id="linearGradient4715" gradientUnits="userSpaceOnUse" x1="9.784" y1="21.324" x2="13.416" y2="24.957" gradientTransform="translate(27.999828)"/>
  <linearGradient xlink:href="#linearGradient4610" id="linearGradient4736" x1="25.456" y1="11.669" x2="34.031" y2="11.669" gradientUnits="userSpaceOnUse" gradientTransform="rotate(45)"/>
  <linearGradient xlink:href="#linearGradient4610" id="linearGradient4744" x1="17.347" y1="29.041" x2="23.456" y2="35.15" gradientUnits="userSpaceOnUse"/>
  <linearGradient xlink:href="#linearGradient4610" id="linearGradient4752" x1="22.538" y1="31.15" x2="31.069" y2="39.681" gradientUnits="userSpaceOnUse"/>
  <linearGradient xlink:href="#linearGradient4610" id="linearGradient4760" x1="30.857" y1="29.368" x2="35.787" y2="34.298" gradientUnits="userSpaceOnUse"/>
  <linearGradient xlink:href="#linearGradient4610" id="linearGradient4768" x1="38.511" y1="27.348" x2="42.143" y2="30.981" gradientUnits="userSpaceOnUse"/>
 </defs>
 <rect width="40" height="40" rx="2" ry="2" x="4" y="4" style="fill:url(#linearGradient4233)"/>
 <path style="opacity:0.25;fill:url(#linearGradient4612)" d="M 12 15 L 10.876953 15.072266 L 7.9511719 17.931641 L 15 24.980469 L 15 18 L 12 15 z"/>
 <path d="m 18.999828,13 -1.123047,0.07227 -2.925781,2.859375 7.048828,7.048828 V 16 Z" style="opacity:0.25;fill:url(#linearGradient4656)"/>
 <path style="opacity:0.25;fill:url(#linearGradient4620)" d="M 12 20 L 10.876953 20.072266 L 7.9511719 22.931641 L 15 29.980469 L 15 23 L 12 20 z"/>
 <path d="m 18.999828,18 -1.123047,0.07227 -2.925781,2.859375 7.048828,7.048828 V 21 Z" style="opacity:0.25;fill:url(#linearGradient4658)"/>
 <path d="M 19.048656,23.068359 17.925609,23.140625 14.999828,26 l 7,7 v -6.980469 z" style="opacity:0.25;fill:url(#linearGradient4660)"/>
 <path style="opacity:0.25;fill:url(#linearGradient4674)" d="m 25.999828,17 -1.123047,0.07227 -2.925781,2.859375 7.048828,7.048828 V 20 Z"/>
 <path style="opacity:0.25;fill:url(#linearGradient4676)" d="m 25.999828,22 -1.123047,0.07227 -2.925781,2.859375 7.048828,7.048828 V 25 Z"/>
 <path style="opacity:0.2;fill:url(#linearGradient4736)" d="M 12.021484 25.027344 L 11.046875 25.21875 L 8 28 L 24 44 L 30.994141 44 L 12.021484 25.027344 z"/>
 <path style="opacity:0.25;fill:url(#linearGradient4678)" d="M 26.048656,27.068359 24.925609,27.140625 21.999828,30 l 7,7 v -6.980469 z"/>
 <path style="opacity:0.25;fill:url(#linearGradient4698)" d="m 32.999828,13 -1.123047,0.07227 -2.925781,2.859375 7.048828,7.048828 V 16 Z"/>
 <path style="opacity:0.2;fill:url(#linearGradient4744)" d="M 19 28 L 18.025391 28.189453 L 14.978516 30.972656 L 28.005859 44 L 35 44 L 19 28 z"/>
 <path style="opacity:0.25;fill:url(#linearGradient4700)" d="M 33,18 31.876953,18.07227 28.951172,20.931645 36,27.980473 V 21 Z"/>
 <path d="m 39.999828,15 -1.123047,0.07227 -2.925781,2.859375 7.048828,7.048828 V 18 Z" style="opacity:0.25;fill:url(#linearGradient4713)"/>
 <path style="opacity:0.2;fill:url(#linearGradient4752)" d="M 26 32 L 25.025391 32.189453 L 21.978516 34.972656 L 31.005859 44 L 38 44 L 26 32 z"/>
 <path style="opacity:0.25;fill:url(#linearGradient4703)" d="M 33.048656,23.068359 31.925609,23.140625 28.999828,26 l 7,7 v -6.980469 z"/>
 <path style="opacity:0.2;fill:url(#linearGradient4760)" d="M 33 28 L 32.025391 28.189453 L 28.978516 30.972656 L 42.005859 44 C 43.111097 43.996809 44 43.106013 44 42 L 44 39 L 33 28 z"/>
 <path d="m 39.999828,20 -1.123047,0.07227 -2.925781,2.859375 7.048828,7.048828 V 23 Z" style="opacity:0.25;fill:url(#linearGradient4715)"/>
 <path style="opacity:0.2;fill:url(#linearGradient4768)" d="M 40 25 L 39.025391 25.189453 L 35.978516 27.972656 L 44 35.994141 L 44 29 L 40 25 z"/>
 <g>
  <path d="m 15,13 v 3 h 4 v -3 z" style="fill:#fffbfb"/>
  <path d="m 29,13 v 3 h 4 v -3 z" style="fill:#fffbfb"/>
  <path d="m 8,15 v 3 h 4 v -3 z" style="fill:#fffbfb"/>
  <path d="m 36,15 v 3 h 4 v -3 z" style="fill:#fffbfb"/>
  <path d="m 22,17 v 3 h 4 v -3 z" style="fill:#fffbfb"/>
  <path d="m 15,18 v 3 h 4 v -3 z" style="fill:#fffbfb"/>
  <path d="m 29,18 v 3 h 4 v -3 z" style="fill:#fffbfb"/>
  <path d="m 8,20 v 3 h 4 v -3 z" style="fill:#fffbfb"/>
  <path d="m 36,20 v 3 h 4 v -3 z" style="fill:#fffbfb"/>
  <path d="m 22,22 v 3 h 4 v -3 z" style="fill:#fffbfb"/>
  <path d="m 15,23 v 3 h 4 v -3 z" style="fill:#fffbfb"/>
  <path d="m 29,23 v 3 h 4 v -3 z" style="fill:#fffbfb"/>
  <path d="m 8,25 v 3 h 4 v -3 z" style="fill:#fffbfb"/>
  <path d="m 36,25 v 3 h 4 v -3 z" style="fill:#fffbfb"/>
  <path d="m 22,27 v 3 h 4 v -3 z" style="fill:#fffbfb"/>
  <path d="m 15,28 v 3 h 4 v -3 z" style="fill:#fffbfb"/>
  <path d="m 29,28 v 3 h 4 v -3 z" style="fill:#fffbfb"/>
  <path d="m 22,32 v 3 h 4 v -3 z" style="fill:#fffbfb"/>
 </g>
 <path style="fill:#170105;opacity:0.2" d="M 4 41 L 4 42 C 4 43.108 4.892 44 6 44 L 42 44 C 43.108 44 44 43.108 44 42 L 44 41 C 44 42.108 43.108 43 42 43 L 6 43 C 4.892 43 4 42.108 4 41 z"/>
</svg>
