<?xml version="1.0" encoding="UTF-8" standalone="no"?>
<svg
   xmlns:dc="http://purl.org/dc/elements/1.1/"
   xmlns:cc="http://creativecommons.org/ns#"
   xmlns:rdf="http://www.w3.org/1999/02/22-rdf-syntax-ns#"
   xmlns:svg="http://www.w3.org/2000/svg"
   xmlns="http://www.w3.org/2000/svg"
   xmlns:xlink="http://www.w3.org/1999/xlink"
   xmlns:sodipodi="http://sodipodi.sourceforge.net/DTD/sodipodi-0.dtd"
   xmlns:inkscape="http://www.inkscape.org/namespaces/inkscape"
   viewBox="0 0 48 48"
   id="svg2"
   version="1.1"
   inkscape:version="0.91 r13725"
   sodipodi:docname="balsamiq.svg">
  <metadata
     id="metadata63">
    <rdf:RDF>
      <cc:Work
         rdf:about="">
        <dc:format>image/svg+xml</dc:format>
        <dc:type
           rdf:resource="http://purl.org/dc/dcmitype/StillImage" />
      </cc:Work>
    </rdf:RDF>
  </metadata>
  <sodipodi:namedview
     pagecolor="#ffffff"
     bordercolor="#666666"
     borderopacity="1"
     objecttolerance="10"
     gridtolerance="10"
     guidetolerance="10"
     inkscape:pageopacity="0"
     inkscape:pageshadow="2"
     inkscape:window-width="1134"
     inkscape:window-height="639"
     id="namedview61"
     showgrid="false"
     inkscape:zoom="4.9166667"
     inkscape:cx="21.797131"
     inkscape:cy="23.687086"
     inkscape:window-x="116"
     inkscape:window-y="89"
     inkscape:window-maximized="0"
     inkscape:current-layer="svg2" />
  <defs
     id="defs4">
    <linearGradient
       inkscape:collect="always"
       xlink:href="#linearGradient3442"
       id="linearGradient3287"
       gradientUnits="userSpaceOnUse"
       gradientTransform="matrix(0.83333307,0,0,0.83333307,-317.03371,412.80361)"
       x1="379.57144"
       y1="-527.79797"
       x2="431.57144"
       y2="-527.79797" />
    <linearGradient
       id="linearGradient3442">
      <stop
         style="stop-color:#e53935;stop-opacity:1"
         offset="0"
         id="stop3444" />
      <stop
         style="stop-color:#e57373;stop-opacity:1"
         offset="1"
         id="stop3446" />
    </linearGradient>
  </defs>
  <g
     transform="translate(0.55761199,0.30529681)"
     id="g3271">
    <rect
       style="fill:url(#linearGradient3287);fill-opacity:1;stroke:none"
       id="rect3273"
       width="39.999989"
       height="39.999989"
       x="3.4424012"
       y="-43.694542"
       ry="0"
       transform="scale(1,-1)" />
    <path
       style="opacity:0.35;fill:#000000;fill-opacity:1;stroke:none"
       d="m 3.4423873,43.694552 40.0000007,3.01e-4 c -20,-0.999999 -20,-0.999999 -40.0000017,0 z"
       id="path3275"
       inkscape:connector-curvature="0"
       sodipodi:nodetypes="cccc" />
    <path
       sodipodi:nodetypes="cccc"
       inkscape:connector-curvature="0"
       id="path3277"
       d="M 3.4423913,3.6947551 43.442388,3.6945549 c -19.999996,1.0000006 -19.999996,1.0000006 -39.9999977,0 z"
       style="opacity:0.5;fill:#ffffff;fill-opacity:1;stroke:none" />
  </g>
  <g
     id="g23">
    <g
       id="g25">
      <g
         transform="translate(1,1)"
         id="g27">
        <g
           style="opacity:0.1"
           id="g29">
          <!-- color: #c8c8c8 -->
          <g
             id="g31">
            <path
               d="m 16 13 c 0 0 -1 0 -1 1 l 0 22 c 0 0 0 1 1 1 l 18 0 c 0 0 0.996 0 0.996 -1 l 0 -3 l 1.441 0 c 0 0 0.564 -0.328 0.564 -2 c 0 -1.609 -0.625 -1.996 -0.625 -1.996 l -1.381 0 l 0 -8 l -8 -8 c -3.711 -0.004 -8.742 -0.004 -10.996 -0.004 z"
               transform="translate(-1,-1)"
               id="path33" />
            <path
               d="m 34 20 l -8 -8 c -0.004 4 0 6 0 7 c 0 1 0 1 1 1 c 1 0 4.098 0.008 7 0 m 0 0"
               style="fill:#000;fill-opacity:1;stroke:none;fill-rule:nonzero"
               id="path35" />
            <path
               d="m 18 28.984 l -2 1.016 l 2 1.02 m 0 -2.035"
               style="fill:#000;fill-opacity:1;stroke:none;fill-rule:nonzero"
               id="path37" />
          </g>
        </g>
      </g>
    </g>
  </g>
  <g
     id="g39">
    <path
       d="m 15,12 c 0,0 -1,0 -1,1 l 0,22 c 0,0 0,1 1,1 l 18,0 c 0,0 0.996,0 0.996,-1 l 0,-14.996 -8,-8 C 22.285,12 17.254,12 15,12 m 0,0.004"
       style="fill:#f9f9f9;fill-opacity:1;stroke:none;fill-rule:nonzero"
       id="path41" />
    <path
       d="m 19 21 0 1 10 0 0 -1 m -10 0"
       style="fill:#aaa;fill-opacity:1;stroke:none;fill-rule:nonzero"
       id="path43" />
    <path
       d="m 19 23 0 1 10 0 0 -1 m -10 0"
       style="fill:#aaa;fill-opacity:1;stroke:none;fill-rule:nonzero"
       id="path45" />
    <path
       d="m 19 25 0 1 10 0 0 -1 m -10 0"
       style="fill:#aaa;fill-opacity:1;stroke:none;fill-rule:nonzero"
       id="path47" />
    <path
       d="m 34 20 -8 -8 c -0.004 4 0 6 0 7 0 1 0 1 1 1 1 0 4.098 0.008 7 0 m 0 0"
       style="fill:#dedede;fill-opacity:1;stroke:none;fill-rule:nonzero"
       id="path49" />
    <path
       d="m 19.965 28 13.773 0 0 4 -13.773 0 m 0 -4"
       style="fill:#aaa;fill-opacity:1;stroke:none;fill-rule:nonzero"
       id="path51" />
    <path
       d="m 33,28 0,4 2.438,0 c 0,0 0.563,-0.328 0.563,-2 0,-1.609 -0.625,-1.996 -0.625,-1.996 l -2.371,0 M 33.001,28"
       style="fill:#333;fill-opacity:1;stroke:none;fill-rule:nonzero"
       id="path53" />
    <path
       d="m 20 28 -2 0.998 0 -0.014 l -1.555 0.789 -0.445 0.223 l 0.004 0.002 l -0.004 0.002 l 2 1.02 0 -0.023 2 1 0 0.004 3 0 0 -4 -3 0 z"
       style="fill:#333;fill-opacity:1;stroke:none;fill-rule:nonzero"
       id="path55" />
  </g>
</svg>
