<?xml version="1.0" encoding="UTF-8" standalone="no"?>
<svg
   xmlns:dc="http://purl.org/dc/elements/1.1/"
   xmlns:cc="http://creativecommons.org/ns#"
   xmlns:rdf="http://www.w3.org/1999/02/22-rdf-syntax-ns#"
   xmlns:svg="http://www.w3.org/2000/svg"
   xmlns="http://www.w3.org/2000/svg"
   xmlns:xlink="http://www.w3.org/1999/xlink"
   xmlns:sodipodi="http://sodipodi.sourceforge.net/DTD/sodipodi-0.dtd"
   xmlns:inkscape="http://www.inkscape.org/namespaces/inkscape"
   viewBox="0 0 48 48"
   id="svg2"
   version="1.1"
   inkscape:version="0.91 r13725"
   sodipodi:docname="bareftp.svg">
  <metadata
     id="metadata58">
    <rdf:RDF>
      <cc:Work
         rdf:about="">
        <dc:format>image/svg+xml</dc:format>
        <dc:type
           rdf:resource="http://purl.org/dc/dcmitype/StillImage" />
      </cc:Work>
    </rdf:RDF>
  </metadata>
  <sodipodi:namedview
     pagecolor="#ffffff"
     bordercolor="#666666"
     borderopacity="1"
     objecttolerance="10"
     gridtolerance="10"
     guidetolerance="10"
     inkscape:pageopacity="0"
     inkscape:pageshadow="2"
     inkscape:window-width="686"
     inkscape:window-height="485"
     id="namedview56"
     showgrid="false"
     inkscape:zoom="4.9166667"
     inkscape:cx="24"
     inkscape:cy="24"
     inkscape:window-x="483"
     inkscape:window-y="167"
     inkscape:window-maximized="0"
     inkscape:current-layer="svg2" />
  <defs
     id="defs4">
    <linearGradient
       xlink:href="#linearGradient4205"
       id="linearGradient4215"
       gradientUnits="userSpaceOnUse"
       y1="18"
       x2="0"
       y2="20"
       gradientTransform="translate(-1,9.9999986)" />
    <linearGradient
       id="linearGradient4205">
      <stop
         style="stop-color:#9b9b9b;stop-opacity:1"
         id="stop13" />
      <stop
         offset="1"
         style="stop-color:#b4b4b4;stop-opacity:1"
         id="stop15" />
    </linearGradient>
    <linearGradient
       gradientTransform="translate(-1,0)"
       xlink:href="#linearGradient4205"
       id="linearGradient4211"
       y1="18"
       x2="0"
       y2="20"
       gradientUnits="userSpaceOnUse" />
    <linearGradient
       inkscape:collect="always"
       xlink:href="#linearGradient3466"
       id="linearGradient3335"
       gradientUnits="userSpaceOnUse"
       gradientTransform="matrix(0.83333307,0,0,0.83333307,-317.03371,412.80361)"
       x1="379.57144"
       y1="-527.79797"
       x2="431.57144"
       y2="-527.79797" />
    <linearGradient
       id="linearGradient3466">
      <stop
         style="stop-color:#fbc02d;stop-opacity:1"
         offset="0"
         id="stop3468" />
      <stop
         style="stop-color:#fff176;stop-opacity:1"
         offset="1"
         id="stop3470" />
    </linearGradient>
  </defs>
  <g
     transform="translate(0.55761199,0.30529681)"
     id="g3313">
    <rect
       style="fill:url(#linearGradient3335);fill-opacity:1;stroke:none"
       id="rect3315"
       width="39.999989"
       height="39.999989"
       x="3.4424012"
       y="-43.694542"
       ry="0"
       transform="scale(1,-1)" />
    <path
       style="opacity:0.35;fill:#000000;fill-opacity:1;stroke:none"
       d="m 3.4423873,43.694552 40.0000007,3.01e-4 c -20,-0.999999 -20,-0.999999 -40.0000017,0 z"
       id="path3317"
       inkscape:connector-curvature="0"
       sodipodi:nodetypes="cccc" />
    <path
       sodipodi:nodetypes="cccc"
       inkscape:connector-curvature="0"
       id="path3319"
       d="M 3.4423913,3.6947551 43.442388,3.6945549 c -19.999996,1.0000006 -19.999996,1.0000006 -39.9999977,0 z"
       style="opacity:0.5;fill:#ffffff;fill-opacity:1;stroke:none" />
  </g>
  <g
     id="g30">
    <g
       id="g32">
      <!-- color: #7dc06d -->
    </g>
  </g>
  <g
     id="g38">
    <path
       d="m 13.5 14 c -0.831 0 -1.5 0.669 -1.5 1.5 l 0 19 c 0 0.831 0.669 1.5 1.5 1.5 l 15 0 c 0.831 0 1.5 -0.669 1.5 -1.5 l 0 -3.1 l 3 3.6 l 5 -6 l -3 0 l 0 -6 l -4 0 l 0 6 l -1 0 l 0 -8 l 2 0 l -2 -2.4 l 0 -3.1 c 0 -0.831 -0.669 -1.5 -1.5 -1.5 l -15 0 z"
       style="fill:#000;fill-opacity:0.098;stroke:none;fill-rule:evenodd"
       id="path40" />
    <rect
       rx="1.5"
       y="13"
       x="11"
       height="22"
       width="18"
       style="fill:#ececec;fill-opacity:1;stroke:none;fill-rule:evenodd"
       id="rect42" />
    <rect
       ry="1.143"
       rx="1"
       y="15"
       x="13"
       height="8"
       width="14"
       style="fill:#d2d2d2;fill-opacity:1;stroke:none"
       id="rect44" />
    <rect
       width="14"
       height="8"
       x="13"
       y="25"
       rx="1"
       ry="1.143"
       style="fill:#d2d2d2;fill-opacity:1;stroke:none"
       id="rect46" />
    <rect
       rx="0"
       y="18"
       x="15"
       height="2"
       width="10"
       style="fill:url(#linearGradient4211);fill-opacity:1;stroke:none"
       id="rect48" />
    <rect
       width="10"
       height="2"
       x="15"
       y="28"
       rx="0"
       style="fill:url(#linearGradient4215);fill-opacity:1;stroke:none"
       id="rect50" />
    <path
       d="m 27 15 -5 6 3 0 0 6 4 0 0 -6 0 -3.6 z"
       style="fill:#000;fill-opacity:0.098;stroke:none"
       id="path52" />
    <path
       d="m 26 14 -5 6 3 0 0 6 4 0 0 -6 3 0 z m 4 8 0 6 -3 0 5 6 5 -6 -3 0 0 -6 z"
       style="fill:#606060;fill-opacity:1;stroke:none"
       id="path54" />
  </g>
</svg>
