<?xml version="1.0" encoding="UTF-8" standalone="no"?>
<!-- Created with Inkscape (http://www.inkscape.org/) -->

<svg
   xmlns:dc="http://purl.org/dc/elements/1.1/"
   xmlns:cc="http://creativecommons.org/ns#"
   xmlns:rdf="http://www.w3.org/1999/02/22-rdf-syntax-ns#"
   xmlns:svg="http://www.w3.org/2000/svg"
   xmlns="http://www.w3.org/2000/svg"
   xmlns:xlink="http://www.w3.org/1999/xlink"
   xmlns:sodipodi="http://sodipodi.sourceforge.net/DTD/sodipodi-0.dtd"
   xmlns:inkscape="http://www.inkscape.org/namespaces/inkscape"
   width="48"
   height="48"
   id="svg2"
   version="1.1"
   inkscape:version="0.48.5 r10040"
   sodipodi:docname="beatbox.svg">
  <defs
     id="defs4">
    <linearGradient
       id="linearGradient3761">
      <stop
         style="stop-color:#ff8000;stop-opacity:1;"
         offset="0"
         id="stop3763" />
      <stop
         style="stop-color:#ffb265;stop-opacity:1;"
         offset="1"
         id="stop3765" />
    </linearGradient>
    <linearGradient
       inkscape:collect="always"
       xlink:href="#linearGradient3761"
       id="linearGradient3767"
       x1="182.2366"
       y1="713.81226"
       x2="221.2366"
       y2="713.81226"
       gradientUnits="userSpaceOnUse" />
  </defs>
  <sodipodi:namedview
     id="base"
     pagecolor="#ffffff"
     bordercolor="#666666"
     borderopacity="1.0"
     inkscape:pageopacity="0.0"
     inkscape:pageshadow="2"
     inkscape:zoom="5.8292482"
     inkscape:cx="-0.060523128"
     inkscape:cy="41.729556"
     inkscape:document-units="px"
     inkscape:current-layer="layer1"
     showgrid="false"
     fit-margin-top="0"
     fit-margin-left="0"
     fit-margin-right="0"
     fit-margin-bottom="0"
     inkscape:window-width="1301"
     inkscape:window-height="744"
     inkscape:window-x="65"
     inkscape:window-y="24"
     inkscape:window-maximized="1"
     showguides="true"
     inkscape:showpageshadow="false"
     borderlayer="true"
     inkscape:snap-nodes="false">
    <sodipodi:guide
       position="8.9999928,39"
       orientation="30,0"
       id="guide3336" />
    <sodipodi:guide
       position="8.9999928,9"
       orientation="0,30"
       id="guide3338" />
    <sodipodi:guide
       position="38.999993,9"
       orientation="-30,0"
       id="guide3340" />
    <sodipodi:guide
       position="38.999993,39"
       orientation="0,-30"
       id="guide3342" />
    <sodipodi:guide
       position="1.9999928,44.000244"
       orientation="40,0"
       id="guide3346" />
    <sodipodi:guide
       position="1.9999928,4.0002441"
       orientation="0,39.000015"
       id="guide3348" />
    <sodipodi:guide
       position="41.000008,4.0002441"
       orientation="-40,0"
       id="guide3350" />
    <sodipodi:guide
       position="41.000008,44.000244"
       orientation="0,-39.000015"
       id="guide3352" />
  </sodipodi:namedview>
  <metadata
     id="metadata7">
    <rdf:RDF>
      <cc:Work
         rdf:about="">
        <dc:format>image/svg+xml</dc:format>
        <dc:type
           rdf:resource="http://purl.org/dc/dcmitype/StillImage" />
        <dc:title />
      </cc:Work>
    </rdf:RDF>
  </metadata>
  <g
     inkscape:label="Capa 1"
     inkscape:groupmode="layer"
     id="layer1"
     transform="translate(-180.23661,-689.8125)">
    <circle
       style="fill:#4d4d4d;fill-opacity:1;stroke:none"
       id="path826"
       cx="206.23662"
       cy="713.8125"
       r="20"
       d="m 226.23662,713.8125 c 0,11.04569 -8.95431,20 -20,20 -11.0457,0 -20,-8.95431 -20,-20 0,-11.04569 8.9543,-20 20,-20 11.04569,0 20,8.95431 20,20 z" />
    <circle
       d="m 226.23662,713.8125 c 0,11.04569 -8.95431,20 -20,20 -11.0457,0 -20,-8.95431 -20,-20 0,-11.04569 8.9543,-20 20,-20 11.04569,0 20,8.95431 20,20 z"
       r="20"
       cy="713.8125"
       cx="206.23662"
       id="circle3769"
       style="fill:#333333;fill-opacity:1;stroke:none"
       sodipodi:cx="206.23662"
       sodipodi:cy="713.8125"
       sodipodi:rx="20"
       sodipodi:ry="20"
       transform="matrix(0.91982456,0,0,0.91982456,16.535112,57.230227)" />
    <rect
       style="fill:url(#linearGradient3767);fill-opacity:1.0;stroke:none"
       id="rect824"
       width="39.000011"
       height="40.000015"
       x="182.2366"
       y="693.81226" />
    <path
       style="fill:#ffffff;fill-opacity:1;fill-rule:evenodd;stroke:none"
       d="m 201.74052,704.81251 0,12.83593 c -0.54474,-0.50772 -1.2551,-0.83598 -2.00196,-0.83593 -1.5709,9e-5 -2.99804,1.42933 -2.99804,3 0,1.57067 1.42714,2.9999 2.99804,3 1.57091,9e-5 3.00196,-1.42916 3.00196,-3 l 0,-10.61524 c 2.09244,1.25511 3.39648,3.55901 3.39648,6.01563 0,0.63161 -0.10429,1.25103 -0.28711,1.84765 0.56004,-0.98918 0.88672,-2.10262 0.88672,-3.24804 0,-1.83447 -0.62808,-3.58424 -1.92383,-4.875 -0.59781,-0.59552 -2.05044,-1.6979 -2.07226,-4.07422 l 0,-0.0508 -0.004,0 -0.99609,0 z"
       id="path4112"
       inkscape:connector-curvature="0" />
  </g>
</svg>
