<?xml version="1.0" encoding="UTF-8" standalone="no"?>
<svg
   xmlns:dc="http://purl.org/dc/elements/1.1/"
   xmlns:cc="http://creativecommons.org/ns#"
   xmlns:rdf="http://www.w3.org/1999/02/22-rdf-syntax-ns#"
   xmlns:svg="http://www.w3.org/2000/svg"
   xmlns="http://www.w3.org/2000/svg"
   xmlns:xlink="http://www.w3.org/1999/xlink"
   xmlns:sodipodi="http://sodipodi.sourceforge.net/DTD/sodipodi-0.dtd"
   xmlns:inkscape="http://www.inkscape.org/namespaces/inkscape"
   viewBox="0 0 48 48"
   id="svg2"
   version="1.1"
   inkscape:version="0.91 r13725"
   sodipodi:docname="bino.svg">
  <metadata
     id="metadata35">
    <rdf:RDF>
      <cc:Work
         rdf:about="">
        <dc:format>image/svg+xml</dc:format>
        <dc:type
           rdf:resource="http://purl.org/dc/dcmitype/StillImage" />
      </cc:Work>
    </rdf:RDF>
  </metadata>
  <sodipodi:namedview
     pagecolor="#ffffff"
     bordercolor="#666666"
     borderopacity="1"
     objecttolerance="10"
     gridtolerance="10"
     guidetolerance="10"
     inkscape:pageopacity="0"
     inkscape:pageshadow="2"
     inkscape:window-width="1366"
     inkscape:window-height="705"
     id="namedview33"
     showgrid="false"
     inkscape:zoom="4.9166667"
     inkscape:cx="24"
     inkscape:cy="24"
     inkscape:window-x="0"
     inkscape:window-y="28"
     inkscape:window-maximized="1"
     inkscape:current-layer="svg2" />
  <defs
     id="defs4">
    <linearGradient
       id="linearGradient3764"
       x1="1"
       x2="47"
       gradientUnits="userSpaceOnUse"
       gradientTransform="matrix(0,-1,1,0,-1.5e-6,47.999998)">
      <stop
         style="stop-color:#e4e4e4;stop-opacity:1"
         id="stop7" />
      <stop
         offset="1"
         style="stop-color:#eee;stop-opacity:1"
         id="stop9" />
    </linearGradient>
    <linearGradient
       inkscape:collect="always"
       xlink:href="#linearGradient3859"
       id="linearGradient3739"
       gradientUnits="userSpaceOnUse"
       gradientTransform="matrix(0.83333307,0,0,0.83333307,-317.03371,412.80361)"
       x1="379.57144"
       y1="-527.79797"
       x2="431.57144"
       y2="-527.79797" />
    <linearGradient
       id="linearGradient3859">
      <stop
         id="stop3861"
         offset="0"
         style="stop-color:#cccccc;stop-opacity:1" />
      <stop
         id="stop3863"
         offset="1"
         style="stop-color:#ececec;stop-opacity:1" />
    </linearGradient>
  </defs>
  <g
     id="g3665"
     transform="translate(0.55761199,0.30529681)">
    <rect
       transform="scale(1,-1)"
       ry="0"
       y="-43.694542"
       x="3.4424012"
       height="39.999989"
       width="39.999989"
       id="rect3667"
       style="fill:url(#linearGradient3739);fill-opacity:1;stroke:none" />
    <path
       sodipodi:nodetypes="cccc"
       inkscape:connector-curvature="0"
       id="path3669"
       d="m 3.4423873,43.694552 40.0000007,3.01e-4 c -20,-0.999999 -20,-0.999999 -40.0000017,0 z"
       style="opacity:0.35;fill:#000000;fill-opacity:1;stroke:none" />
    <path
       style="opacity:0.5;fill:#ffffff;fill-opacity:1;stroke:none"
       d="M 3.4423913,3.6947551 43.442388,3.6945549 c -19.999996,1.0000006 -19.999996,1.0000006 -39.9999977,0 z"
       id="path3671"
       inkscape:connector-curvature="0"
       sodipodi:nodetypes="cccc" />
  </g>
  <path
     d="m 21 12 0 9.764 c -0.895 -2.369 -3.464 -5.178 -5.03 -5.178 -8.562 0 -1.591 24.12 5.03 17.352 l 0 2.063 3.998 2 0.002 0 3.998 -2 0 -2.063 c 6.62 6.769 13.592 -17.351 5.03 -17.352 -1.566 0 -4.134 2.809 -5.03 5.178 l 0 -9.764 -3.998 2.066 -0.002 0 l -3.998 -2.066 m -3.76 9.65 c 1.805 -0.039 3.092 3.02 3.191 5.373 0.057 1.344 0.134 2.935 -0.779 3.953 -0.826 0.721 -1.552 -0.138 -2.135 -0.838 -1.258 -1.655 -1.892 -4.12 -1.785 -6.258 0.072 -0.99 0.478 -2.208 1.508 -2.23 z m 15.52 0 c 1.03 0.022 1.434 1.241 1.506 2.23 0.107 2.138 -0.528 4.603 -1.785 6.258 -0.583 0.7 -1.306 1.559 -2.133 0.838 -0.913 -1.018 -0.836 -2.609 -0.779 -3.953 0.1 -2.353 1.387 -5.412 3.191 -5.373 z"
     style="fill:#000;fill-opacity:0.098;stroke:none"
     id="path27" />
  <path
     d="m 28 11 -4 2.066 0 23.934 4 -2 0 -2.063 c 6.62 6.769 13.592 -17.351 5.03 -17.352 -1.566 0 -4.135 2.809 -5.03 5.178 m 3.761 -0.113 c 1.03 0.022 1.434 1.241 1.506 2.23 0.107 2.138 -0.527 4.603 -1.785 6.258 -0.583 0.7 -1.307 1.559 -2.134 0.838 -0.913 -1.018 -0.836 -2.609 -0.779 -3.953 0.1 -2.353 1.387 -5.412 3.192 -5.373 z"
     style="fill:#2a7dda;fill-opacity:1;stroke:none"
     id="path29" />
  <path
     d="m 20 11 4 2.066 0 23.934 -4 -2 0 -2.063 c -6.62 6.769 -13.592 -17.351 -5.03 -17.352 c 1.566 0 4.135 2.809 5.03 5.178 z m -3.761 9.65 c -1.03 0.022 -1.434 1.241 -1.506 2.23 -0.107 2.138 0.527 4.603 1.785 6.258 0.583 0.7 1.307 1.559 2.134 0.838 0.913 -1.018 0.836 -2.609 0.779 -3.953 -0.1 -2.353 -1.387 -5.412 -3.192 -5.373 z"
     style="fill:#e63232;fill-opacity:1;stroke:none"
     id="path31" />
</svg>
