<?xml version="1.0" encoding="UTF-8" standalone="no"?>
<svg
   xmlns:dc="http://purl.org/dc/elements/1.1/"
   xmlns:cc="http://creativecommons.org/ns#"
   xmlns:rdf="http://www.w3.org/1999/02/22-rdf-syntax-ns#"
   xmlns:svg="http://www.w3.org/2000/svg"
   xmlns="http://www.w3.org/2000/svg"
   xmlns:xlink="http://www.w3.org/1999/xlink"
   xmlns:sodipodi="http://sodipodi.sourceforge.net/DTD/sodipodi-0.dtd"
   xmlns:inkscape="http://www.inkscape.org/namespaces/inkscape"
   viewBox="0 0 48 48"
   id="svg2"
   version="1.1"
   inkscape:version="0.91 r13725"
   sodipodi:docname="BlankUp.svg">
  <metadata
     id="metadata29">
    <rdf:RDF>
      <cc:Work
         rdf:about="">
        <dc:format>image/svg+xml</dc:format>
        <dc:type
           rdf:resource="http://purl.org/dc/dcmitype/StillImage" />
      </cc:Work>
    </rdf:RDF>
  </metadata>
  <sodipodi:namedview
     pagecolor="#ffffff"
     bordercolor="#666666"
     borderopacity="1"
     objecttolerance="10"
     gridtolerance="10"
     guidetolerance="10"
     inkscape:pageopacity="0"
     inkscape:pageshadow="2"
     inkscape:window-width="686"
     inkscape:window-height="485"
     id="namedview27"
     showgrid="false"
     inkscape:zoom="4.9166667"
     inkscape:cx="24"
     inkscape:cy="24"
     inkscape:window-x="0"
     inkscape:window-y="28"
     inkscape:window-maximized="0"
     inkscape:current-layer="svg2" />
  <defs
     id="defs4">
    <linearGradient
       id="linearGradient4309"
       x1="1"
       x2="47"
       gradientUnits="userSpaceOnUse"
       gradientTransform="matrix(0,-1,1,0,0,48)">
      <stop
         style="stop-color:#afd9ed;stop-opacity:1"
         id="stop7" />
      <stop
         offset="1"
         style="stop-color:#bfe1f1;stop-opacity:1"
         id="stop9" />
    </linearGradient>
    <linearGradient
       inkscape:collect="always"
       xlink:href="#linearGradient3400"
       id="linearGradient3217"
       gradientUnits="userSpaceOnUse"
       gradientTransform="matrix(0.83333307,0,0,0.83333307,-317.03371,412.80361)"
       x1="379.57144"
       y1="-527.79797"
       x2="431.57144"
       y2="-527.79797" />
    <linearGradient
       id="linearGradient3400">
      <stop
         style="stop-color:#0097a7;stop-opacity:1"
         offset="0"
         id="stop3402" />
      <stop
         style="stop-color:#26c6da;stop-opacity:1"
         offset="1"
         id="stop3404" />
    </linearGradient>
  </defs>
  <g
     id="g3209"
     transform="translate(0.55761199,0.30529681)">
    <rect
       transform="scale(1,-1)"
       ry="0"
       y="-43.694542"
       x="3.4424012"
       height="39.999989"
       width="39.999989"
       id="rect3211"
       style="fill:url(#linearGradient3217);fill-opacity:1;stroke:none" />
    <path
       sodipodi:nodetypes="cccc"
       inkscape:connector-curvature="0"
       id="path3213"
       d="m 3.4423873,43.694552 40.0000007,3.01e-4 c -20,-0.999999 -20,-0.999999 -40.0000017,0 z"
       style="opacity:0.35;fill:#000000;fill-opacity:1;stroke:none" />
    <path
       style="opacity:0.5;fill:#ffffff;fill-opacity:1;stroke:none"
       d="M 3.4423913,3.6947551 43.442388,3.6945549 c -19.999996,1.0000006 -19.999996,1.0000006 -39.9999977,0 z"
       id="path3215"
       inkscape:connector-curvature="0"
       sodipodi:nodetypes="cccc" />
  </g>
  <path
     d="m 17,13 0,9 0,6 0,9 10.5,0 C 31.655,37 35,33.655 35,29.5 35,27.806 34.438,26.253 33.498,25 34.438,23.747 35,22.194 35,20.5 35,16.345 31.655,13 27.5,13 L 17,13 m 3,3 7.5,0 c 2.493,0 4.5,2.01 4.5,4.5 0,0.928 -0.278,1.787 -0.756,2.502 -1.102,-0.634 -2.377,-1 -3.744,-1 l -7.5,0 0,-6 M 31.244,27 c 0.477,0.715 0.756,1.574 0.756,2.502 0,2.493 -2.01,4.5 -4.5,4.5 l -7.5,0 0,-6 7.5,0 c 1.367,0 2.643,-0.368 3.744,-1 z"
     style="fill:#000;opacity:0.1;fill-opacity:1;stroke:none"
     id="path21" />
  <path
     d="m 16,12 0,15 10.5,0 C 30.655,27 34,23.655 34,19.5 34,15.345 30.655,12 26.5,12 L 16,12 Z m 3,3 7.5,0 c 2.493,0 4.5,2.007 4.5,4.5 0,2.493 -2.007,4.5 -4.5,4.5 l -7.5,0 0,-9 z"
     style="fill:#1887c0;opacity:1;fill-opacity:1;stroke:none"
     id="path23" />
  <path
     d="m 16,21 0,15 10.5,0 C 30.655,36 34,32.655 34,28.5 34,26.806 33.438,25.253 32.498,24 31.892,24.81 31.123,25.488 30.242,25.996 30.72,26.711 31,27.571 31,28.5 31,30.993 28.99,33 26.5,33 l -7.5,0 0,-9 6,0 1.5,0 c 1.567,0 2.916,-0.806 3.715,-2.02 -1.095,-0.624 -2.36,-0.984 -3.715,-0.984 l -10.5,0"
     style="fill:#181878;opacity:1;fill-opacity:1;stroke:none"
     id="path25" />
</svg>
