<?xml version="1.0" encoding="UTF-8" standalone="no"?>
<svg
   xmlns:dc="http://purl.org/dc/elements/1.1/"
   xmlns:cc="http://creativecommons.org/ns#"
   xmlns:rdf="http://www.w3.org/1999/02/22-rdf-syntax-ns#"
   xmlns:svg="http://www.w3.org/2000/svg"
   xmlns="http://www.w3.org/2000/svg"
   xmlns:xlink="http://www.w3.org/1999/xlink"
   xmlns:sodipodi="http://sodipodi.sourceforge.net/DTD/sodipodi-0.dtd"
   xmlns:inkscape="http://www.inkscape.org/namespaces/inkscape"
   viewBox="0 0 48 48"
   id="svg2"
   version="1.1"
   inkscape:version="0.48.5 r10040"
   sodipodi:docname="bluej.svg"
   width="100%"
   height="100%">
  <metadata
     id="metadata73">
    <rdf:RDF>
      <cc:Work
         rdf:about="">
        <dc:format>image/svg+xml</dc:format>
        <dc:type
           rdf:resource="http://purl.org/dc/dcmitype/StillImage" />
        <dc:title />
      </cc:Work>
    </rdf:RDF>
  </metadata>
  <sodipodi:namedview
     pagecolor="#ffffff"
     bordercolor="#666666"
     borderopacity="1"
     objecttolerance="10"
     gridtolerance="10"
     guidetolerance="10"
     inkscape:pageopacity="0"
     inkscape:pageshadow="2"
     inkscape:window-width="1301"
     inkscape:window-height="744"
     id="namedview71"
     showgrid="true"
     inkscape:showpageshadow="false"
     borderlayer="true"
     inkscape:zoom="8"
     inkscape:cx="48.981584"
     inkscape:cy="26.569244"
     inkscape:window-x="65"
     inkscape:window-y="24"
     inkscape:window-maximized="1"
     inkscape:current-layer="svg2">
    <inkscape:grid
       type="xygrid"
       id="grid3000" />
  </sodipodi:namedview>
  <defs
     id="defs4">
    <linearGradient
       id="linearGradient3770">
      <stop
         style="stop-color:#f3f3f3;stop-opacity:1;"
         offset="0"
         id="stop3772" />
      <stop
         style="stop-color:#fcf9f9;stop-opacity:1;"
         offset="1"
         id="stop3774" />
    </linearGradient>
    <linearGradient
       inkscape:collect="always"
       xlink:href="#linearGradient3770"
       id="linearGradient3776"
       x1="-3.5156249e-06"
       y1="-23.999996"
       x2="47.999996"
       y2="-23.999996"
       gradientUnits="userSpaceOnUse"
       gradientTransform="matrix(0.83333349,0,0,0.83333349,3.9999956,-3.9999956)" />
  </defs>
  <rect
     style="fill:url(#linearGradient3776);fill-opacity:1;stroke:none"
     id="rect2991-1"
     width="40.000008"
     height="40.000008"
     x="3.9999926"
     y="-44"
     ry="0"
     transform="scale(1,-1)" />
  <path
     inkscape:connector-curvature="0"
     style="color:#000000;fill:#000000;fill-opacity:0.17050691;fill-rule:nonzero;stroke:none;stroke-width:0.1;marker:none;visibility:visible;display:inline;overflow:visible;enable-background:accumulate"
     d="m 35.378918,8.7812465 c -0.699167,0 -1.264667,0.5654501 -1.264667,1.2646335 0,0.699184 0.5655,1.264634 1.264667,1.264634 0.699167,0 1.264667,-0.56545 1.264667,-1.264634 0,-0.6991834 -0.5655,-1.2646335 -1.264667,-1.2646335 z m 0,0.075083 c 0.65275,0 1.1895,0.5367751 1.1895,1.1895082 0,0.652734 -0.53675,1.176992 -1.1895,1.176992 -0.65275,0 -1.177,-0.524258 -1.177,-1.176992 0,-0.6526914 0.52425,-1.1894665 1.177,-1.1894665 z"
     id="path863" />
  <path
     style="color:#000000;fill:#fbfbfb;fill-opacity:1;fill-rule:nonzero;stroke:none;stroke-width:0.1;marker:none;visibility:visible;display:inline;overflow:visible;enable-background:accumulate"
     d="m 3.9999956,15.071139 0,27.372481 c 0,0.363741 0.098417,0.695641 0.2544168,0.957425 l 8.8862516,0 0,-28.329906 -9.1406684,0 z"
     id="rect934"
     inkscape:connector-curvature="0" />
  <path
     style="color:#000000;fill:#e4e4e4;fill-opacity:1;fill-rule:nonzero;stroke:none;stroke-width:0.1;marker:none;visibility:visible;display:inline;overflow:visible;enable-background:accumulate"
     d="m 4.5469124,14.703123 0,0.364583 38.9062576,0 0,-0.364583 -38.9062576,0 z"
     id="rect904"
     inkscape:connector-curvature="0" />
  <path
     style="color:#000000;fill:#e4e4e4;fill-opacity:1;fill-rule:nonzero;stroke:none;stroke-width:0.1;marker:none;visibility:visible;display:inline;overflow:visible;enable-background:accumulate"
     d="m 13.140664,15.067706 0,28.04688 0.364583,0 0,-28.04688 -0.364583,0 z"
     id="path943"
     inkscape:connector-curvature="0" />
  <path
     inkscape:connector-curvature="0"
     id="path4354"
     style="font-size:medium;font-style:normal;font-variant:normal;font-weight:normal;font-stretch:condensed;line-height:125%;letter-spacing:0px;word-spacing:0px;fill:#000000;fill-opacity:1;stroke:none;font-family:Impact;-inkscape-font-specification:Impact Condensed"
     d="m 12.166065,8.3261927 0,2.2603453 q 0,0.507638 -0.01044,0.653871 -0.01045,0.144144 -0.0961,0.261131 -0.08356,0.116986 -0.229795,0.162945 -0.144144,0.04387 -0.43661,0.04387 l -0.440788,0 0,-0.591199 q 0.07938,0.0063 0.114897,0.0063 0.09401,0 0.148322,-0.04596 0.05431,-0.04596 0.06267,-0.112808 0.0084,-0.06685 0.0084,-0.259042 l 0,-2.3794208 0.879487,0 z" />
  <path
     inkscape:connector-curvature="0"
     id="path4356"
     style="font-size:medium;font-style:normal;font-variant:normal;font-weight:normal;font-stretch:condensed;line-height:125%;letter-spacing:0px;word-spacing:0px;fill:#000000;fill-opacity:1;stroke:none;font-family:Impact;-inkscape-font-specification:Impact Condensed"
     d="m 14.406781,8.3261927 0.503459,3.3821623 -0.900377,0 -0.04387,-0.607912 -0.315446,0 -0.05222,0.607912 -0.910824,0 0.447056,-3.3821623 1.272228,0 z M 13.940924,10.500888 Q 13.874075,9.9264005 13.807225,9.0824266 13.673527,10.051743 13.640102,10.500888 l 0.300822,0 z" />
  <path
     inkscape:connector-curvature="0"
     id="path4358"
     style="font-size:medium;font-style:normal;font-variant:normal;font-weight:normal;font-stretch:condensed;line-height:125%;letter-spacing:0px;word-spacing:0px;fill:#000000;fill-opacity:1;stroke:none;font-family:Impact;-inkscape-font-specification:Impact Condensed"
     d="m 17.721269,8.3261927 -0.447055,3.3821623 -1.334899,0 -0.507638,-3.3821623 0.927535,0 q 0.160857,1.3975705 0.229795,2.3627093 0.06894,-0.9755841 0.144144,-1.7339071 l 0.06058,-0.6288022 0.927535,0 z" />
  <path
     inkscape:connector-curvature="0"
     id="path4360"
     style="font-size:medium;font-style:normal;font-variant:normal;font-weight:normal;font-stretch:condensed;line-height:125%;letter-spacing:0px;word-spacing:0px;fill:#000000;fill-opacity:1;stroke:none;font-family:Impact;-inkscape-font-specification:Impact Condensed"
     d="m 19.961988,8.3261927 0.503459,3.3821623 -0.900378,0 -0.04387,-0.607912 -0.315446,0 -0.05222,0.607912 -0.910824,0 0.447055,-3.3821623 1.272229,0 z M 19.496131,10.500888 Q 19.429281,9.9264005 19.362432,9.0824266 19.228733,10.051743 19.195309,10.500888 l 0.300822,0 z" />
  <path
     style="font-size:medium;font-style:normal;font-weight:normal;line-height:125%;letter-spacing:0px;word-spacing:0px;fill:#000000;fill-opacity:1;stroke:none;font-family:sans-serif"
     d="m 21.817382,17.34798 0,1.376953 0.16276,0 0,-1.376953 -0.16276,0 z m 0.50293,0 0,1.376953 0.16276,0 0,-1.376953 -0.16276,0 z m 5.151368,0 0,1.376953 0.16276,0 0,-1.376953 -0.16276,0 z m 1.153971,0 0,0.537109 c -0.03422,-0.059 -0.0777,-0.103513 -0.130208,-0.131836 -0.05192,-0.02891 -0.114012,-0.04232 -0.187174,-0.04232 -0.119774,0 -0.217447,0.04765 -0.29297,0.143229 -0.07493,0.09558 -0.112304,0.220212 -0.112304,0.375977 0,0.155764 0.03737,0.282021 0.112304,0.377604 0.07552,0.09558 0.173196,0.143229 0.29297,0.143229 0.07316,0 0.135252,-0.014 0.187174,-0.04232 0.05251,-0.02891 0.09599,-0.07284 0.130208,-0.131836 l 0,0.148111 0.162761,0 0,-1.376953 -0.162761,0 z m 1.075847,0 0,0.206706 0.16276,0 0,-0.206706 -0.16276,0 z m -11.612958,0.03255 0,0.333659 -0.297852,-0.180665 -0.05208,0.08789 0.319011,0.172526 -0.319011,0.172527 0.05208,0.08626 0.297852,-0.179035 0,0.333658 0.100912,0 0,-0.333658 0.296223,0.179035 0.05208,-0.08626 -0.317382,-0.172527 0.317382,-0.172526 -0.05208,-0.08789 -0.296223,0.180665 0,-0.333659 -0.100912,0 z m -0.555013,0.02441 -0.460612,1.489258 0.14974,0 0.460612,-1.489258 -0.14974,0 z m 1.813152,0 0,1.319987 0.179035,0 0,-0.628255 0.649415,0 0,0.628255 0.179036,0 0,-1.319987 -0.179036,0 0,0.540365 -0.649415,0 0,-0.540365 -0.179035,0 z m 4.474284,0 0.330404,1.319987 0.224609,0 0.281575,-1.145833 0.278321,1.145833 0.224609,0 0.332032,-1.319987 -0.180664,0 -0.276693,1.116536 -0.278321,-1.116536 -0.201822,0 -0.276694,1.116536 -0.276692,-1.116536 -0.180664,0 z m -2.703451,0.30599 c -0.148685,0 -0.266905,0.04765 -0.354818,0.143229 -0.08732,0.09499 -0.131836,0.223487 -0.131836,0.385742 0,0.156945 0.0463,0.28068 0.138347,0.372721 0.09263,0.09204 0.217851,0.138347 0.375976,0.138347 0.06313,0 0.125812,-0.0066 0.187175,-0.01953 0.06136,-0.01298 0.122252,-0.03218 0.180664,-0.05696 l 0,-0.152996 c -0.05782,0.03068 -0.11678,0.05302 -0.175781,0.06836 -0.05841,0.01534 -0.11975,0.02279 -0.182292,0.02279 -0.107973,0 -0.191506,-0.02948 -0.252279,-0.08789 -0.06018,-0.059 -0.09383,-0.143431 -0.100912,-0.255534 l 0.748699,0 0,-0.07975 c 0,-0.147505 -0.0393,-0.264383 -0.117188,-0.349935 -0.07729,-0.08614 -0.182411,-0.128581 -0.315755,-0.128581 z m 2.089844,0 c -0.142194,0 -0.254454,0.0463 -0.335287,0.138346 -0.08024,0.09204 -0.120442,0.218015 -0.120442,0.38086 0,0.162255 0.0402,0.289855 0.120442,0.382486 0.08083,0.09204 0.193093,0.138347 0.335287,0.138347 0.141604,0 0.252827,-0.0463 0.333659,-0.138347 0.08083,-0.09263 0.120443,-0.220231 0.120443,-0.382486 0,-0.162845 -0.03961,-0.288817 -0.120443,-0.38086 -0.08083,-0.09204 -0.192055,-0.138346 -0.333659,-0.138346 z m 2.79297,0 c -0.142195,0 -0.254455,0.0463 -0.335287,0.138346 -0.08024,0.09204 -0.120443,0.218015 -0.120443,0.38086 0,0.162255 0.0402,0.289855 0.120443,0.382486 0.08083,0.09204 0.193092,0.138347 0.335287,0.138347 0.141604,0 0.252826,-0.0463 0.333658,-0.138347 0.08083,-0.09263 0.120443,-0.220231 0.120443,-0.382486 0,-0.162845 -0.03961,-0.288817 -0.120443,-0.38086 -0.08083,-0.09204 -0.192054,-0.138346 -0.333658,-0.138346 z m 1.214192,0 c -0.07847,0 -0.143696,0.01444 -0.198567,0.04395 -0.05487,0.02891 -0.100869,0.07328 -0.135092,0.133464 l 0,-0.154623 -0.16276,0 0,0.991211 0.16276,0 0,-0.520833 c 0,-0.112103 0.0259,-0.199198 0.07487,-0.258789 0.04956,-0.06018 0.119546,-0.08952 0.211589,-0.08952 0.02596,0 0.05037,0.0028 0.07161,0.0081 0.02183,0.0047 0.04193,0.01216 0.06022,0.02279 l -0.0016,-0.167643 c -0.01652,-0.0029 -0.032,-0.0053 -0.04557,-0.0065 -0.01357,-0.0018 -0.02622,-0.0016 -0.03743,-0.0016 z m 3.336589,0 c -0.0531,0 -0.106708,0.0061 -0.16276,0.0179 -0.05605,0.01121 -0.114562,0.02745 -0.174154,0.05046 l 0,0.151367 c 0.04956,-0.02714 0.100928,-0.04828 0.154623,-0.06185 0.05369,-0.01357 0.109374,-0.01953 0.166015,-0.01953 0.08909,0 0.157734,0.02055 0.206706,0.06185 0.04956,0.04071 0.07487,0.09759 0.07487,0.172526 l 0,0.01628 -0.227865,0 c -0.148094,0 -0.260354,0.02799 -0.335286,0.08463 -0.07434,0.05664 -0.110677,0.140766 -0.110677,0.252279 0,0.09558 0.02993,0.172261 0.08952,0.229492 0.06018,0.05664 0.14103,0.08464 0.242513,0.08464 0.08024,0 0.14799,-0.014 0.203451,-0.04232 0.05546,-0.02891 0.101174,-0.07328 0.138346,-0.133465 l 0,0.14974 0.16276,0 0,-0.564778 c 0,-0.151045 -0.03499,-0.264201 -0.105794,-0.338542 -0.0708,-0.07434 -0.178891,-0.110677 -0.322266,-0.110677 z m 2.184246,0 c -0.0531,0 -0.106709,0.0061 -0.162761,0.0179 -0.05605,0.01121 -0.114561,0.02745 -0.174154,0.05046 l 0,0.151367 c 0.04957,-0.02714 0.100934,-0.04828 0.154623,-0.06185 0.05369,-0.01357 0.109374,-0.01953 0.166016,-0.01953 0.08909,0 0.157733,0.02055 0.206706,0.06185 0.04956,0.04071 0.07487,0.09759 0.07487,0.172526 l 0,0.01628 -0.227864,0 c -0.148095,0 -0.260354,0.02799 -0.335287,0.08463 -0.07434,0.05664 -0.110677,0.140766 -0.110677,0.252279 0,0.09558 0.02993,0.172261 0.08952,0.229492 0.06018,0.05664 0.14103,0.08464 0.242513,0.08464 0.08024,0 0.147989,-0.014 0.203451,-0.04232 0.05546,-0.02891 0.101174,-0.07328 0.138346,-0.133465 l 0,0.14974 0.162761,0 0,-0.564778 c 0,-0.151045 -0.03499,-0.264201 -0.105794,-0.338542 -0.0708,-0.07434 -0.178892,-0.110677 -0.322266,-0.110677 z m -3.033855,0.02279 0,1.009115 c 0,0.09027 -0.01176,0.150714 -0.03418,0.179036 -0.02242,0.02891 -0.065,0.04232 -0.126953,0.04232 l -0.04232,0 0,0.138347 0.06185,0 c 0.106796,0 0.183331,-0.028 0.23112,-0.08464 0.04838,-0.05664 0.07324,-0.148801 0.07324,-0.275065 l 0,-1.009115 -0.16276,0 z m 1.497396,0 0.371094,0.991211 0.221354,0 0.372721,-0.991211 -0.172525,0 -0.310873,0.833334 -0.309245,-0.833334 -0.172526,0 z m -2.849935,0.112305 c 0.08614,0 0.153889,0.03572 0.20345,0.104166 0.04956,0.06785 0.07324,0.160175 0.07324,0.279949 0,0.119773 -0.02368,0.21476 -0.07324,0.283203 -0.04956,0.06785 -0.117308,0.100911 -0.20345,0.100911 -0.08614,0 -0.155517,-0.03306 -0.205079,-0.100911 -0.04897,-0.06844 -0.07324,-0.16343 -0.07324,-0.283203 0,-0.119774 0.02427,-0.212096 0.07324,-0.279949 0.04956,-0.06844 0.118936,-0.104166 0.205079,-0.104166 z m -7.229819,0.0033 c 0.08024,0 0.145301,0.02503 0.193685,0.07813 0.04866,0.05275 0.0734,0.124945 0.07487,0.213216 l -0.581054,0.0016 c 0.0083,-0.09322 0.04012,-0.165138 0.0944,-0.216471 0.05487,-0.05133 0.127236,-0.0765 0.2181,-0.0765 z m 2.088216,0 c 0.08674,0 0.154339,0.03351 0.205078,0.10254 0.05074,0.06844 0.0765,0.160906 0.0765,0.27832 0,0.118003 -0.02575,0.211505 -0.0765,0.279947 -0.05074,0.06844 -0.118346,0.102539 -0.205078,0.102539 -0.08791,0 -0.157589,-0.03306 -0.208333,-0.100911 -0.05015,-0.06844 -0.07487,-0.162982 -0.07487,-0.281575 0,-0.118594 0.02576,-0.210469 0.0765,-0.27832 0.05074,-0.06844 0.119383,-0.10254 0.206706,-0.10254 z m 2.79297,0 c 0.08673,0 0.15596,0.03351 0.206705,0.10254 0.05074,0.06844 0.07487,0.160906 0.07487,0.27832 0,0.118003 -0.02413,0.211505 -0.07487,0.279947 -0.05074,0.06844 -0.119973,0.102539 -0.206705,0.102539 -0.08792,0 -0.157595,-0.03306 -0.208334,-0.100911 -0.05015,-0.06844 -0.07487,-0.162982 -0.07487,-0.281575 0,-0.118594 0.02575,-0.210469 0.0765,-0.27832 0.05074,-0.06844 0.119383,-0.10254 0.206706,-0.10254 z m 4.654948,0.377605 0.161133,0 0,0.03743 c 0,0.106202 -0.02814,0.191221 -0.08301,0.255533 -0.05428,0.06372 -0.126198,0.0944 -0.216472,0.0944 -0.06549,0 -0.116271,-0.01682 -0.154621,-0.05046 -0.03776,-0.03422 -0.05697,-0.0789 -0.05697,-0.136718 0,-0.07257 0.02575,-0.124534 0.0765,-0.154623 0.05074,-0.03009 0.141864,-0.04557 0.273438,-0.04557 z m 2.184245,0 0.161133,0 0,0.03743 c 0,0.106202 -0.02813,0.191221 -0.08301,0.255533 -0.05428,0.06372 -0.126198,0.0944 -0.216471,0.0944 -0.06549,0 -0.116273,-0.01682 -0.154623,-0.05046 -0.03776,-0.03422 -0.05697,-0.0789 -0.05697,-0.136718 0,-0.07257 0.02576,-0.124534 0.0765,-0.154623 0.05074,-0.03009 0.141863,-0.04557 0.273437,-0.04557 z m -3.691407,0.273437 0,0.224609 0.185548,0 0,-0.224609 -0.185548,0 z m -11.09538,1.145834 0,0.333658 -0.297851,-0.179036 -0.05046,0.08626 0.317383,0.172526 -0.317383,0.172526 0.05046,0.08626 0.297851,-0.179036 0,0.333658 0.100912,0 0,-0.333658 0.297852,0.179036 0.05046,-0.08626 -0.317384,-0.172526 0.317384,-0.172526 -0.05046,-0.08626 -0.297852,0.179036 0,-0.333658 -0.100912,0 z m 0.963542,0.02441 -0.460611,1.489258 0.151367,0 0.460612,-1.489258 -0.151368,0 z m 0.522461,4.474284 0,1.376954 0.164389,0 0,-0.148112 c 0.03422,0.059 0.07666,0.102924 0.12858,0.131836 0.05251,0.02832 0.114603,0.04232 0.187175,0.04232 0.120363,0 0.218036,-0.04765 0.292969,-0.143229 0.07552,-0.09558 0.113932,-0.22184 0.113932,-0.377604 0,-0.155764 -0.03841,-0.280394 -0.113932,-0.375977 -0.07493,-0.09558 -0.172606,-0.143229 -0.292969,-0.143229 -0.07257,0 -0.134664,0.01341 -0.187175,0.04232 -0.05192,0.02832 -0.09436,0.07284 -0.12858,0.131836 l 0,-0.537109 -0.164389,0 z m 1.157227,0 0,1.376954 0.162761,0 0,-1.376954 -0.162761,0 z m 0.501303,0 0,0.206706 0.164387,0 0,-0.206706 -0.164387,0 z m 3.077799,0 0,1.376954 0.162761,0 0,-1.376954 -0.162761,0 z m 6.559247,0 0,1.376954 0.16276,0 0,-1.376954 -0.16276,0 z m 0.50293,0 0,1.376954 0.16276,0 0,-1.376954 -0.16276,0 z m 5.14974,0 0,1.376954 0.164388,0 0,-1.376954 -0.164388,0 z m 1.155599,0 0,0.537109 c -0.03422,-0.059 -0.0777,-0.103513 -0.130208,-0.131836 -0.05192,-0.02891 -0.114013,-0.04232 -0.187175,-0.04232 -0.119773,0 -0.217446,0.04765 -0.292968,0.143229 -0.07493,0.09558 -0.112305,0.22184 -0.112305,0.377604 0,0.155765 0.03737,0.280395 0.112305,0.375977 0.07552,0.09558 0.173195,0.143229 0.292968,0.143229 0.07316,0 0.135252,-0.014 0.187175,-0.04232 0.05251,-0.02891 0.09599,-0.07283 0.130208,-0.131836 l 0,0.148112 0.16276,0 0,-1.376954 -0.16276,0 z m -9.278973,0.05697 0,1.319987 0.179037,0 0,-0.628255 0.649414,0 0,0.628255 0.179036,0 0,-1.319987 -0.179036,0 0,0.540364 -0.649414,0 0,-0.540364 -0.179037,0 z m 4.472657,0 0.332031,1.319987 0.22461,0 0.281575,-1.145834 0.27832,1.145834 0.22461,0 0.332031,-1.319987 -0.180664,0 -0.27832,1.116536 -0.276692,-1.116536 -0.201824,0 -0.276692,1.116536 -0.278321,-1.116536 -0.180664,0 z m -15.118817,0.305989 c -0.07257,0 -0.134665,0.01341 -0.187175,0.04232 -0.05192,0.02832 -0.09436,0.07284 -0.128581,0.131836 l 0,-0.151366 -0.164388,0 0,1.368815 0.164388,0 0,-0.525716 c 0.03422,0.059 0.07666,0.102924 0.128581,0.131836 0.05251,0.02832 0.114602,0.04232 0.187175,0.04232 0.120363,0 0.218035,-0.04765 0.292968,-0.143229 0.07552,-0.09558 0.113932,-0.22184 0.113932,-0.377604 0,-0.155764 -0.03841,-0.280394 -0.113932,-0.375977 -0.07493,-0.09558 -0.172605,-0.143229 -0.292968,-0.143229 z m 4.410807,0 c -0.154584,0 -0.277118,0.04571 -0.366211,0.138347 -0.0885,0.09263 -0.131836,0.220821 -0.131836,0.382486 0,0.159305 0.04392,0.28542 0.131836,0.379232 0.08791,0.09381 0.205544,0.139974 0.354818,0.139974 0.05487,0 0.107866,-0.0057 0.15625,-0.01628 0.04897,-0.01062 0.09617,-0.02596 0.141601,-0.0472 l 0,-0.14974 c -0.04602,0.02537 -0.09336,0.04399 -0.139973,0.05697 -0.04602,0.01239 -0.09277,0.0179 -0.139974,0.0179 -0.105613,0 -0.187357,-0.03261 -0.245768,-0.09928 -0.05841,-0.06726 -0.08789,-0.160622 -0.08789,-0.281576 0,-0.120953 0.02948,-0.214903 0.08789,-0.281575 0.05841,-0.06726 0.140155,-0.100911 0.245768,-0.100911 0.0472,0 0.09395,0.0066 0.139974,0.01953 0.04661,0.01239 0.09395,0.02997 0.139973,0.05534 l 0,-0.151367 c -0.04484,-0.02065 -0.09219,-0.03554 -0.139973,-0.04557 -0.04779,-0.01062 -0.09633,-0.01628 -0.146485,-0.01628 z m 1.575521,0 c -0.154584,0 -0.277118,0.04571 -0.366211,0.138347 -0.0885,0.09263 -0.131836,0.220821 -0.131836,0.382486 0,0.159305 0.04392,0.28542 0.131836,0.379232 0.08791,0.09381 0.205544,0.139974 0.354818,0.139974 0.05487,0 0.106239,-0.0057 0.154622,-0.01628 0.04897,-0.01062 0.09617,-0.02596 0.141602,-0.0472 l 0,-0.14974 c -0.04602,0.02537 -0.09173,0.04399 -0.138347,0.05697 -0.04602,0.01239 -0.09277,0.0179 -0.139973,0.0179 -0.105613,0 -0.187357,-0.03261 -0.245768,-0.09928 -0.05841,-0.06726 -0.08789,-0.160622 -0.08789,-0.281576 0,-0.120953 0.02948,-0.214903 0.08789,-0.281575 0.05841,-0.06726 0.140155,-0.100911 0.245768,-0.100911 0.0472,0 0.09395,0.0066 0.139973,0.01953 0.04661,0.01239 0.09232,0.02997 0.138347,0.05534 l 0,-0.151367 c -0.04484,-0.02065 -0.09056,-0.03554 -0.138347,-0.04557 -0.04779,-0.01062 -0.09633,-0.01628 -0.146484,-0.01628 z m 1.420899,0 c -0.0531,0 -0.106709,0.0061 -0.16276,0.0179 -0.05605,0.01121 -0.114563,0.02744 -0.174154,0.05046 l 0,0.151368 c 0.04956,-0.02714 0.100934,-0.04828 0.154622,-0.06185 0.05369,-0.01357 0.109374,-0.01953 0.166016,-0.01953 0.08909,0 0.157733,0.02055 0.206706,0.06185 0.04956,0.04071 0.07487,0.09759 0.07487,0.172527 l 0,0.01628 -0.229493,0 c -0.148094,0 -0.258726,0.02799 -0.333658,0.08464 -0.07434,0.05664 -0.112305,0.140765 -0.112305,0.252279 0,0.09558 0.02993,0.17226 0.08952,0.229491 0.06018,0.05664 0.14103,0.08464 0.242513,0.08464 0.08024,0 0.14799,-0.014 0.203451,-0.04232 0.05546,-0.02891 0.102801,-0.07328 0.139974,-0.133464 l 0,0.14974 0.16276,0 0,-0.564779 c 0,-0.151045 -0.03499,-0.2642 -0.105794,-0.338542 -0.0708,-0.07434 -0.178892,-0.110677 -0.322266,-0.110677 z m 1.079102,0 c -0.121544,0 -0.215494,0.02576 -0.281575,0.0765 -0.06608,0.05074 -0.09929,0.121621 -0.09929,0.214844 0,0.0767 0.02189,0.138042 0.06673,0.182292 0.04484,0.04366 0.118834,0.07479 0.219727,0.09603 l 0.05697,0.01465 c 0.100894,0.02183 0.165812,0.04476 0.195312,0.06836 0.03009,0.0236 0.04395,0.05666 0.04395,0.100912 0,0.04779 -0.02055,0.08575 -0.06185,0.112305 -0.0413,0.02596 -0.09908,0.03743 -0.175782,0.03743 -0.05723,0 -0.115742,-0.0074 -0.174153,-0.02279 -0.05841,-0.01593 -0.117228,-0.03871 -0.177409,-0.06999 l 0,0.167643 c 0.06372,0.02065 0.123432,0.03554 0.180664,0.04557 0.05782,0.01062 0.114543,0.01628 0.167643,0.01628 0.127444,0 0.226908,-0.02606 0.299479,-0.07975 0.07316,-0.05369 0.10905,-0.127684 0.10905,-0.219727 0,-0.08083 -0.02427,-0.14233 -0.07324,-0.187174 -0.04838,-0.04543 -0.130125,-0.08101 -0.245768,-0.105795 l -0.05534,-0.01302 c -0.08732,-0.01947 -0.145242,-0.03898 -0.174153,-0.06022 -0.02891,-0.02183 -0.04395,-0.05176 -0.04395,-0.08952 0,-0.04956 0.0201,-0.08752 0.06022,-0.112305 0.04071,-0.02478 0.101459,-0.03581 0.182291,-0.03581 0.0531,-1e-6 0.105061,0.0045 0.154623,0.01628 0.04956,0.0118 0.09721,0.03011 0.143229,0.05371 l 0,-0.154623 c -0.04484,-0.0177 -0.09501,-0.03021 -0.148112,-0.03906 -0.0531,-0.0088 -0.10909,-0.01302 -0.169271,-0.01302 z m 0.945638,0 c -0.121543,0 -0.215493,0.02576 -0.281576,0.0765 -0.06608,0.05074 -0.09928,0.121621 -0.09928,0.214844 0,0.0767 0.02189,0.138042 0.06673,0.182292 0.04484,0.04366 0.118833,0.07479 0.219726,0.09603 l 0.05534,0.01465 c 0.100894,0.02183 0.165812,0.04476 0.195312,0.06836 0.03009,0.0236 0.04557,0.05666 0.04557,0.100912 0,0.04779 -0.02055,0.08575 -0.06185,0.112305 -0.0413,0.02596 -0.100706,0.03743 -0.177409,0.03743 -0.05723,0 -0.114114,-0.0074 -0.172526,-0.02279 -0.05841,-0.01593 -0.117227,-0.03871 -0.177409,-0.06999 l 0,0.167643 c 0.06372,0.02065 0.123433,0.03554 0.180664,0.04557 0.05782,0.01062 0.112916,0.01628 0.166016,0.01628 0.127444,0 0.228535,-0.02606 0.301107,-0.07975 0.07316,-0.05369 0.109049,-0.127684 0.109049,-0.219727 0,-0.08083 -0.02427,-0.14233 -0.07324,-0.187174 -0.04838,-0.04543 -0.130125,-0.08101 -0.245768,-0.105795 l -0.05697,-0.01302 c -0.08732,-0.01947 -0.145242,-0.03898 -0.174153,-0.06022 -0.02891,-0.02183 -0.04232,-0.05176 -0.04232,-0.08952 0,-0.04956 0.0201,-0.08752 0.06022,-0.112305 0.04071,-0.02478 0.10146,-0.03581 0.182292,-0.03581 0.0531,-1e-6 0.103434,0.0045 0.152995,0.01628 0.04956,0.0118 0.09721,0.03011 0.143229,0.05371 l 0,-0.154623 c -0.04484,-0.0177 -0.09338,-0.03021 -0.146484,-0.03906 -0.0531,-0.0088 -0.109089,-0.01302 -0.169271,-0.01302 z m 2.985027,0 c -0.148685,0 -0.266905,0.04765 -0.354818,0.143229 -0.08732,0.09499 -0.131836,0.223488 -0.131836,0.385743 0,0.156945 0.0463,0.280678 0.138346,0.372721 0.09263,0.09204 0.217853,0.138346 0.375977,0.138346 0.06313,0 0.125812,-0.0066 0.187175,-0.01953 0.06136,-0.01298 0.120624,-0.03218 0.179036,-0.05697 l 0,-0.152995 c -0.05782,0.03068 -0.115152,0.05302 -0.174154,0.06836 -0.05841,0.01534 -0.119749,0.02279 -0.182291,0.02279 -0.107973,0 -0.191507,-0.02785 -0.252279,-0.08626 -0.06018,-0.059 -0.09383,-0.145058 -0.100911,-0.257162 l 0.748697,0 0,-0.07975 c 0,-0.147505 -0.0393,-0.264383 -0.117187,-0.349935 -0.07729,-0.08614 -0.182411,-0.128581 -0.315755,-0.128581 z m 2.089844,0 c -0.142194,0 -0.254454,0.0463 -0.335287,0.138347 -0.08024,0.09204 -0.120442,0.218014 -0.120442,0.380859 0,0.162255 0.0402,0.289854 0.120442,0.382487 0.08083,0.09204 0.193093,0.138346 0.335287,0.138346 0.141604,0 0.252827,-0.0463 0.333659,-0.138346 0.08083,-0.09263 0.120442,-0.220232 0.120442,-0.382487 0,-0.162845 -0.03961,-0.288818 -0.120442,-0.380859 -0.08083,-0.09204 -0.192055,-0.138347 -0.333659,-0.138347 z m 2.792969,0 c -0.142194,0 -0.254454,0.0463 -0.335287,0.138347 -0.08024,0.09204 -0.120442,0.218014 -0.120442,0.380859 0,0.162255 0.0402,0.289854 0.120442,0.382487 0.08083,0.09204 0.193093,0.138346 0.335287,0.138346 0.141604,0 0.252827,-0.0463 0.333659,-0.138346 0.08083,-0.09263 0.120443,-0.220232 0.120443,-0.382487 0,-0.162845 -0.03961,-0.288818 -0.120443,-0.380859 -0.08083,-0.09204 -0.192055,-0.138347 -0.333659,-0.138347 z m 1.214193,0 c -0.07847,0 -0.145323,0.01444 -0.200195,0.04394 -0.05487,0.02891 -0.09924,0.07328 -0.133464,0.133464 l 0,-0.154622 -0.162761,0 0,0.991211 0.162761,0 0,-0.520834 c 0,-0.112103 0.02427,-0.199197 0.07324,-0.258789 0.04956,-0.06018 0.121173,-0.08952 0.213217,-0.08952 0.02596,0 0.04875,0.0028 0.06999,0.0081 0.02183,0.0047 0.04193,0.01216 0.06022,0.02279 l 0,-0.167643 c -0.01652,-0.0029 -0.032,-0.0053 -0.04557,-0.0065 -0.01357,-0.0018 -0.02622,-0.0016 -0.03743,-0.0016 z m -17.853194,0.02279 0,0.600586 c 0,0.136294 0.02889,0.24007 0.08789,0.310872 0.059,0.0708 0.144916,0.105794 0.258789,0.105794 0.06903,0 0.13037,-0.01341 0.182292,-0.04232 0.05251,-0.0295 0.09881,-0.07491 0.138347,-0.135092 l 0,0.151368 0.16276,0 0,-0.991211 -0.16276,0 0,0.563151 c -1e-6,0.09676 -0.02679,0.17344 -0.07813,0.229492 -0.05074,0.05605 -0.120422,0.08301 -0.208334,0.08301 -0.07316,0 -0.127805,-0.02338 -0.164388,-0.06999 -0.03658,-0.0472 -0.05371,-0.117776 -0.05371,-0.211589 l 0,-0.594075 -0.162761,0 z m 2.819012,0 0,0.991211 0.164387,0 0,-0.991211 -0.164387,0 z m -3.518882,0.113932 c 0.08614,0 0.152851,0.0341 0.201824,0.102539 0.04956,0.06785 0.07487,0.160175 0.07487,0.279948 0,0.119773 -0.02531,0.214761 -0.07487,0.283203 -0.04897,0.06785 -0.11568,0.100911 -0.201824,0.100911 -0.08614,0 -0.153889,-0.03306 -0.20345,-0.100911 -0.04897,-0.06844 -0.07324,-0.16343 -0.07324,-0.283203 0,-0.119773 0.02427,-0.212096 0.07324,-0.279948 0.04956,-0.06844 0.117309,-0.102539 0.20345,-0.102539 z m 2.301433,0 c 0.08614,0 0.152851,0.0341 0.201824,0.102539 0.04956,0.06785 0.07487,0.160175 0.07487,0.279948 10e-7,0.119773 -0.02531,0.214761 -0.07487,0.283203 -0.04897,0.06785 -0.115681,0.100911 -0.201824,0.100911 -0.08614,0 -0.153889,-0.03306 -0.20345,-0.100911 -0.04897,-0.06844 -0.07324,-0.16343 -0.07324,-0.283203 0,-0.119773 0.02427,-0.212096 0.07324,-0.279948 0.04956,-0.06844 0.117308,-0.102539 0.20345,-0.102539 z m 17.384443,0 c 0.08614,0 0.15389,0.0341 0.203451,0.102539 0.04956,0.06785 0.07487,0.160175 0.07487,0.279948 0,0.119773 -0.02531,0.214761 -0.07487,0.283203 -0.04956,0.06785 -0.117307,0.100911 -0.203451,0.100911 -0.08614,0 -0.153889,-0.03306 -0.20345,-0.100911 -0.04897,-0.06844 -0.07324,-0.16343 -0.07324,-0.283203 0,-0.119773 0.02427,-0.212096 0.07324,-0.279948 0.04956,-0.06844 0.117309,-0.102539 0.20345,-0.102539 z m -7.228191,0.0016 c 0.08024,0 0.143674,0.02665 0.192058,0.07975 0.04898,0.0531 0.07533,0.124124 0.0765,0.213216 l -0.581055,0 c 0.0083,-0.09322 0.04012,-0.165137 0.0944,-0.216471 0.05487,-0.05133 0.127237,-0.0765 0.218099,-0.0765 z m 2.088217,0 c 0.08673,0 0.154339,0.03351 0.205078,0.102539 0.05074,0.06844 0.0765,0.160907 0.0765,0.27832 0,0.118003 -0.02575,0.211506 -0.0765,0.279947 -0.05074,0.06844 -0.118345,0.10254 -0.205078,0.10254 -0.08792,0 -0.157595,-0.03306 -0.208333,-0.100912 -0.05015,-0.06844 -0.07487,-0.162982 -0.07487,-0.281575 0,-0.118593 0.02412,-0.210468 0.07487,-0.27832 0.05074,-0.06844 0.12101,-0.102539 0.208333,-0.102539 z m 2.792969,0 c 0.08673,0 0.154334,0.03351 0.205078,0.102539 0.05074,0.06844 0.0765,0.160907 0.0765,0.27832 0,0.118003 -0.02576,0.211506 -0.0765,0.279947 -0.05074,0.06844 -0.118345,0.10254 -0.205078,0.10254 -0.08791,0 -0.157589,-0.03306 -0.208333,-0.100912 -0.05015,-0.06844 -0.07487,-0.162982 -0.07487,-0.281575 0,-0.118593 0.02412,-0.210468 0.07487,-0.27832 0.05074,-0.06844 0.12101,-0.102539 0.208333,-0.102539 z m -9.790041,0.377604 0.162761,0 0,0.03744 c 0,0.106202 -0.02814,0.191222 -0.08301,0.255533 -0.05428,0.06372 -0.126199,0.0944 -0.21647,0.0944 -0.06549,0 -0.1179,-0.01682 -0.15625,-0.05046 -0.03776,-0.03422 -0.05697,-0.0789 -0.05697,-0.136718 0,-0.07257 0.02575,-0.124533 0.0765,-0.154623 0.05074,-0.03009 0.141865,-0.04557 0.273438,-0.04557 z m -7.281902,1.386718 c -0.146916,0 -0.246074,0.02307 -0.296224,0.06673 -0.04956,0.04307 -0.07487,0.128395 -0.07487,0.258789 l 0,0.213216 c 0,0.08791 -0.01534,0.149698 -0.0472,0.18392 -0.03127,0.03363 -0.08978,0.05045 -0.174154,0.05045 l -0.05371,0 0,0.125326 0.05371,0 c 0.08378,0 0.142293,0.01786 0.174154,0.05208 0.03186,0.03422 0.0472,0.09483 0.0472,0.18392 l 0,0.211588 c 0,0.130395 0.02531,0.218383 0.07487,0.262045 0.05015,0.04366 0.14931,0.0651 0.296224,0.0651 l 0.05371,0 0,-0.126953 -0.06022,0 c -0.08319,0 -0.137388,-0.0131 -0.16276,-0.03906 -0.02537,-0.02596 -0.03743,-0.0812 -0.03743,-0.164388 l 0,-0.219727 c 0,-0.09204 -0.01414,-0.158306 -0.04069,-0.200195 -0.02655,-0.04189 -0.07123,-0.07034 -0.136718,-0.08626 0.0649,-0.01475 0.110168,-0.04275 0.136718,-0.08464 0.02714,-0.04189 0.04069,-0.10919 0.04069,-0.201823 l 0,-0.219727 c 0,-0.08319 0.01206,-0.138427 0.03743,-0.164388 0.02537,-0.02596 0.07957,-0.03906 0.16276,-0.03906 l 0.06022,0 0,-0.126954 -0.05371,0 z m 2.53418,2.265626 0,1.378581 0.164388,0 0,-0.149739 c 0.03422,0.059 0.07666,0.102924 0.128581,0.131836 0.05251,0.02832 0.11623,0.04232 0.188802,0.04232 0.120364,0 0.218036,-0.04765 0.292969,-0.143229 0.07552,-0.09558 0.112305,-0.220213 0.112305,-0.375977 0,-0.155764 -0.03678,-0.282021 -0.112305,-0.377604 -0.07493,-0.09558 -0.172605,-0.143229 -0.292969,-0.143229 -0.07257,0 -0.136292,0.01341 -0.188802,0.04232 -0.05192,0.02832 -0.09436,0.07284 -0.128581,0.131836 l 0,-0.537109 -0.164388,0 z m 1.157226,0 0,1.378581 0.162761,0 0,-1.378581 -0.162761,0 z m 0.50293,0 0,0.206706 0.162761,0 0,-0.206706 -0.162761,0 z m 5.55827,0 0,0.206706 0.16276,0 0,-0.206706 -0.16276,0 z m 4.257813,0 0,0.206706 0.162761,0 0,-0.206706 -0.162761,0 z m 1.155599,0 0,0.537109 c -0.03422,-0.059 -0.0777,-0.103513 -0.130208,-0.131836 -0.05192,-0.02891 -0.114012,-0.04232 -0.187175,-0.04232 -0.119773,0 -0.217446,0.04765 -0.292968,0.143229 -0.07493,0.09558 -0.112305,0.22184 -0.112305,0.377604 0,0.155764 0.03737,0.280394 0.112305,0.375977 0.07552,0.09558 0.173195,0.143229 0.292968,0.143229 0.07316,0 0.135253,-0.014 0.187175,-0.04232 0.05251,-0.02891 0.09599,-0.07283 0.130208,-0.131836 l 0,0.149739 0.16276,0 0,-1.378581 -0.16276,0 z m 3.953451,0 0,0.206706 0.162761,0 0,-0.206706 -0.162761,0 z m -11.904299,0.105794 0,0.281576 -0.120442,0 0,0.125325 0.120442,0 0,0.538738 c 0,0.123905 0.02383,0.209961 0.07161,0.257161 0.04779,0.04661 0.134744,0.06999 0.260417,0.06999 l 0.167643,0 0,-0.136719 -0.167643,0 c -0.06785,1e-6 -0.112669,-0.01117 -0.135092,-0.03418 -0.02183,-0.02301 -0.03418,-0.07542 -0.03418,-0.15625 l 0,-0.538738 0.336914,0 0,-0.125325 -0.336914,0 0,-0.281576 -0.162761,0 z m 1.822917,0 0,0.281576 -0.118815,0 0,0.125325 0.118815,0 0,0.538738 c 0,0.123905 0.02383,0.209961 0.07161,0.257161 0.04779,0.04661 0.134744,0.06999 0.260417,0.06999 l 0.167643,0 0,-0.136719 -0.167643,0 c -0.06785,1e-6 -0.112669,-0.01117 -0.135092,-0.03418 -0.02183,-0.02301 -0.03255,-0.07542 -0.03255,-0.15625 l 0,-0.538738 0.335286,0 0,-0.125325 -0.335286,0 0,-0.281576 -0.164389,0 z m -8.323569,0.257162 c -0.07257,0 -0.134663,0.01341 -0.187174,0.04232 -0.05192,0.02832 -0.09599,0.07284 -0.130208,0.131836 l 0,-0.149739 -0.162761,0 0,1.367188 0.162761,0 0,-0.525716 c 0.03422,0.059 0.07829,0.102924 0.130208,0.131836 0.05251,0.02832 0.114602,0.04232 0.187174,0.04232 0.120364,0 0.218037,-0.04765 0.292969,-0.143229 0.07552,-0.09558 0.113932,-0.220213 0.113932,-0.375977 0,-0.155764 -0.03841,-0.282021 -0.113932,-0.377604 -0.07493,-0.09558 -0.172605,-0.143229 -0.292969,-0.143229 z m 4.410809,0 c -0.154585,0 -0.277119,0.04571 -0.366212,0.138347 -0.0885,0.09263 -0.133464,0.220821 -0.133464,0.382486 0,0.159304 0.04392,0.285419 0.131836,0.379232 0.08791,0.09381 0.207172,0.139974 0.356446,0.139974 0.05487,0 0.106239,-0.0057 0.154623,-0.01628 0.04897,-0.01062 0.09617,-0.02596 0.141601,-0.0472 l 0,-0.14974 c -0.04602,0.02537 -0.09173,0.04399 -0.138346,0.05697 -0.04602,0.01239 -0.09277,0.0179 -0.139974,0.0179 -0.105614,0 -0.187357,-0.03261 -0.245769,-0.09928 -0.05841,-0.06726 -0.08789,-0.160622 -0.08789,-0.281576 0,-0.120953 0.02948,-0.214903 0.08789,-0.281576 0.05841,-0.06726 0.140155,-0.10091 0.245769,-0.10091 0.0472,0 0.09395,0.0066 0.139974,0.01953 0.04661,0.01239 0.09232,0.02997 0.138346,0.05534 l 0,-0.151367 c -0.04484,-0.02065 -0.09055,-0.03554 -0.138346,-0.04557 -0.04779,-0.01062 -0.09633,-0.01628 -0.146484,-0.01628 z m 1.461588,0 c -0.121543,0 -0.215493,0.02576 -0.281576,0.0765 -0.06608,0.05074 -0.09766,0.121621 -0.09766,0.214844 0,0.0767 0.02189,0.138041 0.06673,0.182291 0.04484,0.04366 0.117206,0.07642 0.218099,0.09766 l 0.05697,0.01302 c 0.100894,0.02183 0.165813,0.04476 0.195313,0.06836 0.03009,0.0236 0.04557,0.05666 0.04557,0.100912 0,0.04779 -0.02055,0.08576 -0.06185,0.112305 -0.0413,0.02596 -0.100707,0.03906 -0.177409,0.03906 -0.05723,1e-6 -0.115742,-0.0091 -0.174154,-0.02441 -0.05841,-0.01593 -0.117226,-0.03871 -0.177409,-0.06999 l 0,0.167643 c 0.06372,0.02065 0.12506,0.03554 0.182292,0.04557 0.05782,0.01062 0.112916,0.01628 0.166016,0.01628 0.127443,0 0.226906,-0.02606 0.299479,-0.07975 0.07316,-0.05369 0.110677,-0.127685 0.110677,-0.219727 0,-0.08084 -0.02427,-0.142336 -0.07324,-0.187174 -0.04838,-0.04543 -0.131753,-0.08101 -0.247396,-0.105795 l -0.05534,-0.01302 c -0.08732,-0.01947 -0.145243,-0.03898 -0.174154,-0.06022 -0.02891,-0.02183 -0.04395,-0.05176 -0.04395,-0.08952 0,-0.04956 0.0201,-0.08752 0.06022,-0.112305 0.04071,-0.02478 0.10146,-0.03581 0.182292,-0.03581 0.0531,-1e-6 0.105062,0.0045 0.154623,0.01628 0.04956,0.0118 0.09721,0.03011 0.143229,0.05371 l 0,-0.154623 c -0.04484,-0.0177 -0.09338,-0.03021 -0.146484,-0.03906 -0.0531,-0.0088 -0.110717,-0.01302 -0.170899,-0.01302 z m 1.689454,0 c -0.0531,0 -0.106709,0.0061 -0.162761,0.0179 -0.05605,0.01121 -0.114562,0.02745 -0.174153,0.05046 l 0,0.151368 c 0.04956,-0.02714 0.100927,-0.04828 0.154622,-0.06185 0.05369,-0.01357 0.109373,-0.01953 0.166015,-0.01953 0.08909,0 0.157734,0.02055 0.206706,0.06185 0.04956,0.04071 0.07487,0.09759 0.07487,0.172527 l 0,0.01628 -0.227864,0 c -0.148094,0 -0.260355,0.02799 -0.335287,0.08464 -0.07434,0.05664 -0.110677,0.140766 -0.110677,0.25228 0,0.09558 0.02993,0.17226 0.08952,0.229491 0.06018,0.05664 0.14103,0.08464 0.242513,0.08464 0.08024,0 0.14799,-0.014 0.20345,-0.04232 0.05546,-0.02891 0.101175,-0.07328 0.138347,-0.133465 l 0,0.151368 0.162761,0 0,-0.566406 c 0,-0.151045 -0.03499,-0.2642 -0.105795,-0.338542 -0.0708,-0.07434 -0.178891,-0.110677 -0.322265,-0.110677 z m 2.405599,0 c -0.154585,0 -0.275491,0.04571 -0.364584,0.138347 -0.0885,0.09263 -0.133463,0.220821 -0.133463,0.382486 0,0.159304 0.04392,0.285419 0.131836,0.379232 0.08791,0.09381 0.207171,0.139974 0.356446,0.139974 0.05487,0 0.106238,-0.0057 0.154621,-0.01628 0.04897,-0.01062 0.09617,-0.02596 0.141602,-0.0472 l 0,-0.14974 c -0.04602,0.02537 -0.09173,0.04399 -0.138346,0.05697 -0.04602,0.01239 -0.09277,0.0179 -0.139974,0.0179 -0.105613,0 -0.187357,-0.03261 -0.245768,-0.09928 -0.05841,-0.06726 -0.08789,-0.160622 -0.08789,-0.281576 0,-0.120953 0.02948,-0.214903 0.08789,-0.281576 0.05841,-0.06726 0.140155,-0.10091 0.245768,-0.10091 0.0472,0 0.09395,0.0066 0.139974,0.01953 0.04661,0.01239 0.09232,0.02997 0.138346,0.05534 l 0,-0.151367 c -0.04484,-0.02065 -0.09056,-0.03554 -0.138346,-0.04557 -0.04779,-0.01062 -0.09796,-0.01628 -0.148112,-0.01628 z m 2.605795,0 c -0.142195,0 -0.254455,0.0463 -0.335287,0.138347 -0.08024,0.09204 -0.120443,0.219641 -0.120443,0.382486 0,0.162255 0.0402,0.288227 0.120443,0.380859 0.08083,0.09204 0.193092,0.138347 0.335287,0.138347 0.141603,0 0.252826,-0.0463 0.333659,-0.138347 0.08083,-0.09263 0.120442,-0.218604 0.120442,-0.380859 0,-0.162845 -0.03961,-0.290445 -0.120442,-0.382486 -0.08083,-0.09204 -0.192056,-0.138347 -0.333659,-0.138347 z m 3.429362,0 c -0.07139,0 -0.131997,0.01341 -0.183919,0.04232 -0.05192,0.02891 -0.09792,0.07432 -0.135091,0.135092 l 0,-0.154623 -0.162761,0 0,0.992839 0.162761,0 0,-0.561523 c 0,-0.09617 0.0259,-0.171814 0.07487,-0.227865 0.04897,-0.05664 0.113748,-0.08463 0.19694,-0.08463 0.07021,0 0.122616,0.02234 0.15625,0.06836 0.03363,0.04543 0.05045,0.116006 0.05045,0.211588 l 0,0.594076 0.164389,0 0,-0.561523 c 0,-0.09676 0.02427,-0.173441 0.07324,-0.229493 0.04897,-0.05605 0.115823,-0.08301 0.200196,-0.08301 0.06903,0 0.119362,0.02234 0.152995,0.06836 0.03363,0.04602 0.05045,0.116596 0.05045,0.211588 l 0,0.594076 0.164389,0 0,-0.598958 c 0,-0.133345 -0.02858,-0.235636 -0.08464,-0.307618 -0.05605,-0.07257 -0.136004,-0.109049 -0.239258,-0.109049 -0.0767,0 -0.141925,0.01727 -0.198567,0.05208 -0.05664,0.03481 -0.105774,0.08797 -0.146484,0.161133 -0.02419,-0.06962 -0.06156,-0.121295 -0.112305,-0.157878 -0.05015,-0.03658 -0.111938,-0.05534 -0.18392,-0.05534 z m 1.638998,0 c -0.0531,0 -0.108336,0.0061 -0.164388,0.0179 -0.05605,0.01121 -0.112934,0.02745 -0.172526,0.05046 l 0,0.151368 c 0.04956,-0.02714 0.100928,-0.04828 0.154623,-0.06185 0.05369,-0.01357 0.107745,-0.01953 0.164387,-0.01953 0.08909,0 0.159362,0.02055 0.208333,0.06185 0.04956,0.04071 0.07324,0.09759 0.07324,0.172527 l 0,0.01628 -0.227864,0 c -0.148095,0 -0.260355,0.02799 -0.335287,0.08464 -0.07434,0.05664 -0.110678,0.140766 -0.110678,0.25228 0,0.09558 0.02993,0.17226 0.08952,0.229491 0.06018,0.05664 0.14103,0.08464 0.242513,0.08464 0.08024,0 0.147989,-0.014 0.20345,-0.04232 0.05546,-0.02891 0.101174,-0.07328 0.138347,-0.133465 l 0,0.151368 0.162761,0 0,-0.566406 c 0,-0.151045 -0.03499,-0.2642 -0.105795,-0.338542 -0.0708,-0.07434 -0.177264,-0.110677 -0.320638,-0.110677 z m 1.743165,0 c -0.06903,0 -0.129192,0.01445 -0.182292,0.04395 -0.05251,0.0295 -0.09778,0.07387 -0.136719,0.133464 l 0,-0.152995 -0.164388,0 0,0.991211 0.164388,0 0,-0.561523 c 0,-0.09676 0.02413,-0.173441 0.07487,-0.229493 0.05074,-0.05605 0.120421,-0.08301 0.208333,-0.08301 0.07316,0 0.127804,0.02337 0.164388,0.06999 0.03658,0.04661 0.05534,0.116149 0.05534,0.209961 l 0,0.594076 0.16276,0 0,-0.598958 c 0,-0.136885 -0.02948,-0.24066 -0.08789,-0.310873 -0.05841,-0.0708 -0.144915,-0.105794 -0.258788,-0.105794 z m -18.72559,0.02441 0,0.598958 c 0,0.136295 0.02889,0.24007 0.08789,0.310873 0.059,0.0708 0.146544,0.105794 0.260417,0.105794 0.06903,0 0.128742,-0.01341 0.180664,-0.04232 0.05251,-0.0295 0.09881,-0.07491 0.138347,-0.135092 l 0,0.152995 0.16276,0 0,-0.991211 -0.16276,0 0,0.561523 c 0,0.09676 -0.02516,0.173441 -0.0765,0.229493 -0.05074,0.05605 -0.12042,0.08301 -0.208333,0.08301 -0.07316,0 -0.127805,-0.02338 -0.164388,-0.06999 -0.03658,-0.0472 -0.05534,-0.117776 -0.05534,-0.211589 l 0,-0.592448 -0.16276,0 z m 2.820638,0 0,0.991211 0.162761,0 0,-0.991211 -0.162761,0 z m 5.55827,0 0,0.991211 0.16276,0 0,-0.991211 -0.16276,0 z m 1.961263,0 0.371094,0.991211 0.221354,0 0.372722,-0.991211 -0.174154,0 -0.309245,0.831706 -0.309245,-0.831706 -0.172526,0 z m 2.29655,0 0,0.991211 0.162761,0 0,-0.991211 -0.162761,0 z m 5.10905,0 0,0.991211 0.162761,0 0,-0.991211 -0.162761,0 z m -18.445641,0.112305 c 0.08614,-1e-6 0.154479,0.0341 0.20345,0.102538 0.04956,0.06785 0.07487,0.161803 0.07487,0.281576 0,0.119774 -0.02531,0.213134 -0.07487,0.281576 -0.04897,0.06785 -0.117308,0.102538 -0.20345,0.102538 -0.08614,1e-6 -0.15389,-0.03469 -0.203451,-0.102538 -0.04897,-0.06844 -0.07324,-0.161802 -0.07324,-0.281576 0,-0.119773 0.02427,-0.213723 0.07324,-0.281576 0.04956,-0.06844 0.117308,-0.102538 0.203451,-0.102538 z m 2.301433,0 c 0.08614,-1e-6 0.154478,0.0341 0.20345,0.102538 0.04956,0.06785 0.07324,0.161803 0.07324,0.281576 0,0.119774 -0.02368,0.213134 -0.07324,0.281576 -0.04897,0.06785 -0.117308,0.102538 -0.20345,0.102538 -0.08614,1e-6 -0.15389,-0.03469 -0.203451,-0.102538 -0.04897,-0.06844 -0.07324,-0.161802 -0.07324,-0.281576 0,-0.119773 0.02427,-0.213723 0.07324,-0.281576 0.04956,-0.06844 0.117308,-0.102538 0.203451,-0.102538 z m 11.912437,0 c 0.08614,0 0.15389,0.0341 0.20345,0.102538 0.04956,0.06785 0.07487,0.161803 0.07487,0.281576 0,0.119774 -0.02531,0.213134 -0.07487,0.281576 -0.04956,0.06785 -0.117307,0.102538 -0.20345,0.102538 -0.08614,0 -0.15389,-0.03469 -0.20345,-0.102538 -0.04897,-0.06844 -0.07324,-0.161802 -0.07324,-0.281576 0,-0.119773 0.02427,-0.213723 0.07324,-0.281576 0.04956,-0.06844 0.117308,-0.102538 0.20345,-0.102538 z m -1.599935,0.0016 c 0.08673,0 0.154339,0.03351 0.205078,0.102539 0.05075,0.06844 0.0765,0.162534 0.0765,0.279947 0,0.118004 -0.02575,0.209879 -0.0765,0.27832 -0.05074,0.06844 -0.118345,0.102539 -0.205078,0.102539 -0.08791,0 -0.157595,-0.03306 -0.208333,-0.100911 -0.05015,-0.06844 -0.07487,-0.161354 -0.07487,-0.279948 0,-0.118593 0.02412,-0.212096 0.07487,-0.279947 0.05074,-0.06844 0.12101,-0.102539 0.208333,-0.102539 z m -4.908856,0.377604 0.162761,0 0,0.03743 c 0,0.106203 -0.02814,0.191221 -0.08301,0.255533 -0.05428,0.06372 -0.1262,0.09603 -0.216472,0.09603 -0.06549,1e-6 -0.1179,-0.01682 -0.15625,-0.05045 -0.03776,-0.03422 -0.05534,-0.08052 -0.05534,-0.138346 0,-0.07257 0.02413,-0.124534 0.07487,-0.154623 0.05074,-0.03009 0.141864,-0.04557 0.273437,-0.04557 z m 10.079755,0 0.161133,0 0,0.03743 c 0,0.106202 -0.02651,0.191221 -0.08138,0.255533 -0.05428,0.06372 -0.126199,0.09603 -0.216472,0.09603 -0.06549,1e-6 -0.1179,-0.01682 -0.15625,-0.05045 -0.03776,-0.03422 -0.05697,-0.08052 -0.05697,-0.138346 0,-0.07257 0.02575,-0.124534 0.0765,-0.154623 0.05074,-0.03009 0.141863,-0.04557 0.273437,-0.04557 z m -15.843102,1.386718 0,0.206706 0.16276,0 0,-0.206706 -0.16276,0 z m 2.788087,0 0,1.616211 0.375976,0 0,-0.125325 -0.213216,0 0,-1.363932 0.213216,0 0,-0.126954 -0.375976,0 z m 0.729166,0 0,0.126954 0.211589,0 0,1.363932 -0.211589,0 0,0.125325 0.37435,0 0,-1.616211 -0.37435,0 z m 7.187502,0 c -0.146916,0 -0.244447,0.02307 -0.294597,0.06673 -0.04956,0.04307 -0.07487,0.130023 -0.07487,0.260417 l 0,0.211588 c 0,0.08791 -0.01534,0.149698 -0.0472,0.18392 -0.03127,0.03363 -0.08978,0.05045 -0.174153,0.05045 l -0.05371,0 0,0.125326 0.05371,0 c 0.08378,0 0.142292,0.01786 0.174153,0.05208 0.03186,0.03422 0.0472,0.09645 0.0472,0.185547 l 0,0.211589 c 0,0.130394 0.02531,0.216755 0.07487,0.260417 0.05015,0.04366 0.147683,0.0651 0.294597,0.0651 l 0.05534,0 0,-0.126953 -0.06022,0 c -0.08319,0 -0.137388,-0.0131 -0.162761,-0.03906 -0.02537,-0.02596 -0.03743,-0.0812 -0.03743,-0.164388 l 0,-0.219727 c 0,-0.09205 -0.01414,-0.158306 -0.04069,-0.200195 -0.02655,-0.04189 -0.07285,-0.07034 -0.138346,-0.08626 0.0649,-0.01475 0.111796,-0.04274 0.138346,-0.08463 0.02714,-0.04189 0.04069,-0.10919 0.04069,-0.201824 l 0,-0.219726 c 0,-0.08319 0.01206,-0.138427 0.03743,-0.164388 0.02537,-0.02596 0.07957,-0.03906 0.162761,-0.03906 l 0.06022,0 0,-0.126954 -0.05534,0 z m -13.772789,0.0033 c -0.08909,0.139245 -0.154907,0.275185 -0.198568,0.40853 -0.04366,0.133343 -0.0651,0.265561 -0.0651,0.397135 0,0.132164 0.02144,0.264829 0.0651,0.398763 0.04425,0.133934 0.110065,0.269875 0.198568,0.408528 l 0.141601,0 c -0.07847,-0.135113 -0.136842,-0.268674 -0.175781,-0.402018 -0.03835,-0.133933 -0.05697,-0.268978 -0.05697,-0.405273 0,-0.136294 0.01862,-0.270892 0.05697,-0.403646 0.03835,-0.132754 0.09672,-0.266314 0.175781,-0.402019 l -0.141601,0 z m 11.76107,0 c 0.07847,0.135705 0.137431,0.269265 0.175781,0.402019 0.03894,0.132754 0.05859,0.267352 0.05859,0.403646 0,0.136295 -0.01966,0.27134 -0.05859,0.405273 -0.03835,0.133344 -0.09731,0.266905 -0.175781,0.402018 l 0.141601,0 c 0.0885,-0.138653 0.154907,-0.274594 0.198568,-0.408528 0.04425,-0.133934 0.06673,-0.266599 0.06673,-0.398763 0,-0.131574 -0.02248,-0.263792 -0.06673,-0.397135 -0.04366,-0.133345 -0.110066,-0.269285 -0.198568,-0.40853 l -0.141601,0 z m -10.890302,0.0293 c -0.144554,0 -0.257567,0.03365 -0.340169,0.100911 -0.08201,0.06726 -0.123698,0.15987 -0.123698,0.276693 -1e-6,0.100893 0.02993,0.179361 0.08952,0.236003 0.05959,0.05664 0.15637,0.09877 0.289714,0.125325 l 0.109049,0.02116 c 0.09086,0.01829 0.155779,0.0448 0.195313,0.08138 0.04012,0.03658 0.06022,0.08809 0.06022,0.152995 0,0.07434 -0.02755,0.130776 -0.08301,0.170898 -0.05546,0.04012 -0.133929,0.06022 -0.236002,0.06022 -0.06726,0 -0.135456,-0.01028 -0.205079,-0.03093 -0.06962,-0.02065 -0.140643,-0.05043 -0.213216,-0.09115 l 0,0.183919 c 0.07552,0.02773 0.147887,0.04769 0.218099,0.06185 0.0708,0.01416 0.137654,0.02116 0.200196,0.02116 0.165795,0 0.292051,-0.0332 0.377604,-0.09929 0.08614,-0.06608 0.128581,-0.16168 0.128581,-0.289713 0,-0.107383 -0.03231,-0.19344 -0.09603,-0.257162 -0.06313,-0.06431 -0.161252,-0.109718 -0.294596,-0.135091 l -0.107422,-0.02116 c -0.09794,-0.01829 -0.164796,-0.04211 -0.200196,-0.07161 -0.03481,-0.03009 -0.05208,-0.07505 -0.05208,-0.133463 0,-0.06962 0.02561,-0.123373 0.07813,-0.161134 0.0531,-0.03776 0.128884,-0.05696 0.226237,-0.05696 0.05605,0 0.113972,0.0085 0.174154,0.02441 0.06018,0.01593 0.124205,0.03916 0.192057,0.07161 l 0,-0.174153 c -0.06726,-0.02242 -0.132628,-0.03925 -0.19694,-0.05046 -0.06431,-0.01121 -0.128478,-0.01628 -0.19043,-0.01628 z m 0.735678,0.07324 0,0.281575 -0.118816,0 0,0.125325 0.118816,0 0,0.538738 c 0,0.123905 0.02382,0.209962 0.07161,0.257162 0.04779,0.04661 0.134743,0.06999 0.260417,0.06999 l 0.167643,0 0,-0.136719 -0.167643,0 c -0.06785,0 -0.11267,-0.01117 -0.135091,-0.03418 -0.02183,-0.02301 -0.03255,-0.07542 -0.03255,-0.15625 l 0,-0.538738 0.335287,0 0,-0.125325 -0.335287,0 0,-0.281575 -0.164387,0 z m 1.206054,0.257161 c -0.07847,0 -0.145322,0.01445 -0.200195,0.04395 -0.05487,0.02891 -0.09924,0.07328 -0.133463,0.133464 l 0,-0.152995 -0.164389,0 0,0.991211 0.164389,0 0,-0.522461 c 0,-0.112103 0.02427,-0.199197 0.07324,-0.258789 0.04956,-0.06018 0.119546,-0.08952 0.211589,-0.08952 0.02596,0 0.05038,0.0028 0.07161,0.0081 0.02183,0.0047 0.04193,0.01216 0.06022,0.02279 l -0.0016,-0.167642 c -0.01652,-0.0029 -0.03037,-0.0053 -0.04395,-0.0065 -0.01357,-0.0018 -0.02622,-0.0016 -0.03743,-0.0016 z m 1.235352,0 c -0.06903,0 -0.129192,0.01445 -0.182292,0.04395 -0.05251,0.0295 -0.09778,0.07387 -0.136718,0.133464 l 0,-0.152995 -0.164388,0 0,0.991211 0.164388,0 0,-0.561523 c 0,-0.09676 0.02412,-0.171813 0.07487,-0.227865 0.05074,-0.05605 0.120421,-0.08463 0.208333,-0.08463 0.07316,0 0.127805,0.02338 0.164389,0.06999 0.03658,0.04661 0.05534,0.116148 0.05534,0.20996 l 0,0.594076 0.162761,0 0,-0.598958 c 0,-0.136884 -0.02948,-0.24066 -0.08789,-0.310873 -0.05841,-0.0708 -0.144916,-0.105794 -0.258789,-0.105794 z m 1.007487,0 c -0.121543,0 -0.218626,0.04571 -0.292969,0.138347 -0.07434,0.09263 -0.112305,0.216061 -0.112305,0.369466 0,0.152814 0.03796,0.275206 0.112305,0.367838 0.07434,0.09263 0.171425,0.139974 0.292969,0.139974 0.07316,0 0.136291,-0.01503 0.188802,-0.04395 0.05251,-0.02891 0.09495,-0.07343 0.128581,-0.131835 l 0,0.08138 c 0,0.112693 -0.02502,0.196817 -0.07813,0.252278 -0.0531,0.05605 -0.134092,0.08464 -0.240886,0.08464 -0.04838,0 -0.09499,-0.0071 -0.141601,-0.01953 -0.04661,-0.01239 -0.09381,-0.03101 -0.141601,-0.05697 l 0,0.157878 c 0.04779,0.0177 0.09575,0.0308 0.146484,0.03906 0.05074,0.0088 0.105528,0.01302 0.16276,0.01302 0.154585,0 0.268493,-0.04109 0.343425,-0.123698 0.07493,-0.08201 0.113933,-0.207231 0.113933,-0.375976 l 0,-0.867514 -0.164389,0 0,0.14974 c -0.03363,-0.05841 -0.07607,-0.102925 -0.128581,-0.131836 -0.05251,-0.02891 -0.11564,-0.04232 -0.188802,-0.04232 z m 3.157553,0 c -0.0531,0 -0.108337,0.0061 -0.164388,0.0179 -0.05605,0.01121 -0.112935,0.02745 -0.172526,0.05045 l 0,0.151368 c 0.04956,-0.02714 0.100933,-0.04828 0.154622,-0.06185 0.05369,-0.01357 0.109374,-0.01953 0.166016,-0.01953 0.08909,0 0.157733,0.02055 0.206706,0.06185 0.04956,0.04071 0.07324,0.09759 0.07324,0.172527 l 0,0.01628 -0.227865,0 c -0.148095,0 -0.258726,0.02799 -0.333659,0.08463 -0.07434,0.05664 -0.112304,0.140766 -0.112304,0.252279 0,0.09558 0.02993,0.17226 0.08952,0.229492 0.06018,0.05664 0.14103,0.08464 0.242513,0.08464 0.08024,0 0.147989,-0.014 0.203451,-0.04232 0.05546,-0.02891 0.101174,-0.07328 0.138346,-0.133464 l 0,0.151367 0.16276,0 0,-0.566406 c 0,-0.151045 -0.03499,-0.2642 -0.105794,-0.338541 -0.0708,-0.07434 -0.177264,-0.110678 -0.320638,-0.110678 z m 1.254883,0 c -0.07847,0 -0.145323,0.01445 -0.200195,0.04395 -0.05487,0.02891 -0.09924,0.07328 -0.133464,0.133464 l 0,-0.152995 -0.164388,0 0,0.991211 0.164388,0 0,-0.522461 c 0,-0.112103 0.02427,-0.199197 0.07324,-0.258789 0.04956,-0.06018 0.121173,-0.08952 0.213217,-0.08952 0.02596,0 0.04875,0.0028 0.06999,0.0081 0.02183,0.0047 0.04193,0.01216 0.06022,0.02279 l -0.0016,-0.167642 c -0.01652,-0.0029 -0.03037,-0.0053 -0.04395,-0.0065 -0.01357,-0.0018 -0.02622,-0.0016 -0.03743,-0.0016 z m 0.558268,0 c -0.121543,0 -0.220254,0.04571 -0.294596,0.138347 -0.07434,0.09263 -0.110677,0.216061 -0.110677,0.369466 0,0.152814 0.03634,0.275206 0.110677,0.367838 0.07434,0.09263 0.173053,0.139974 0.294596,0.139974 0.07316,0 0.136291,-0.01503 0.188803,-0.04395 0.05251,-0.02891 0.09495,-0.07343 0.12858,-0.131835 l 0,0.08138 c 0,0.112693 -0.02665,0.196817 -0.07975,0.252278 -0.0531,0.05605 -0.132465,0.08464 -0.239257,0.08464 -0.04838,0 -0.09662,-0.0071 -0.14323,-0.01953 -0.04661,-0.01239 -0.09381,-0.03101 -0.141601,-0.05697 l 0,0.157878 c 0.04779,0.0177 0.09737,0.0308 0.148112,0.03906 0.05074,0.0088 0.105529,0.01302 0.16276,0.01302 0.154585,0 0.268493,-0.04109 0.343424,-0.123698 0.07493,-0.08201 0.112306,-0.207231 0.112306,-0.375976 l 0,-0.867514 -0.162761,0 0,0.14974 c -0.03363,-0.05841 -0.07607,-0.102925 -0.12858,-0.131836 -0.05251,-0.02891 -0.11564,-0.04232 -0.188803,-0.04232 z m 1.131185,0 c -0.121544,0 -0.215494,0.02576 -0.281575,0.0765 -0.06608,0.05074 -0.09928,0.121621 -0.09928,0.214843 0,0.0767 0.02189,0.138042 0.06673,0.182292 0.04484,0.04366 0.118833,0.07642 0.219726,0.09766 l 0.05697,0.01302 c 0.100894,0.02183 0.165813,0.04476 0.195313,0.06836 0.03009,0.0236 0.04395,0.05666 0.04395,0.100911 0,0.04779 -0.02055,0.08575 -0.06185,0.112305 -0.0413,0.02596 -0.09908,0.03906 -0.175781,0.03906 -0.05723,0 -0.115742,-0.0091 -0.174154,-0.02441 -0.05841,-0.01593 -0.117227,-0.03872 -0.177409,-0.06999 l 0,0.167643 c 0.06372,0.02066 0.123433,0.03717 0.180664,0.0472 0.05782,0.01062 0.112916,0.01465 0.166016,0.01465 0.127444,0 0.228534,-0.02607 0.301107,-0.07975 0.07316,-0.05369 0.10905,-0.126057 0.10905,-0.218099 0,-0.08083 -0.02427,-0.143963 -0.07324,-0.188802 -0.04838,-0.04543 -0.130126,-0.08101 -0.245769,-0.105795 l -0.05534,-0.01302 c -0.08732,-0.01947 -0.145243,-0.03898 -0.174154,-0.06022 -0.02891,-0.02183 -0.04395,-0.05176 -0.04395,-0.08952 0,-0.04956 0.0201,-0.08753 0.06022,-0.112305 0.04071,-0.02478 0.101459,-0.03581 0.182292,-0.03581 0.0531,0 0.105061,0.0045 0.154622,0.01628 0.04956,0.0118 0.09721,0.03011 0.14323,0.05371 l 0,-0.154622 c -0.04484,-0.0177 -0.09501,-0.03021 -0.148113,-0.03906 -0.0531,-0.0088 -0.109089,-0.01302 -0.169271,-0.01302 z m -8.089194,0.02441 0,0.991211 0.16276,0 0,-0.991211 -0.16276,0 z m 2.027996,0.112305 c 0.08791,0 0.155066,0.03113 0.20345,0.09603 0.04897,0.0649 0.07324,0.157061 0.07324,0.275065 0,0.117413 -0.02427,0.208536 -0.07324,0.273437 -0.04838,0.0649 -0.115539,0.09766 -0.20345,0.09766 -0.08732,10e-7 -0.156106,-0.03275 -0.205079,-0.09766 -0.04838,-0.0649 -0.07161,-0.156024 -0.07161,-0.273437 0,-0.118004 0.02323,-0.210164 0.07161,-0.275065 0.04897,-0.0649 0.117755,-0.09603 0.205079,-0.09603 z m 4.969076,0 c 0.08791,0 0.156695,0.03113 0.205078,0.09603 0.04897,0.0649 0.07324,0.157061 0.07324,0.275065 0,0.117413 -0.02427,0.208536 -0.07324,0.273437 -0.04838,0.0649 -0.117165,0.09766 -0.205078,0.09766 -0.08732,10e-7 -0.154479,-0.03275 -0.20345,-0.09766 -0.04838,-0.0649 -0.07324,-0.156024 -0.07324,-0.273437 0,-0.118004 0.02486,-0.210164 0.07324,-0.275065 0.04897,-0.0649 0.116127,-0.09603 0.20345,-0.09603 z m -1.749675,0.379232 0.161133,0 0,0.03743 c 0,0.106204 -0.02651,0.191222 -0.08138,0.255534 -0.05428,0.06372 -0.126199,0.09603 -0.216472,0.09603 -0.06549,0 -0.1179,-0.01682 -0.15625,-0.05046 -0.03776,-0.03422 -0.05697,-0.08052 -0.05697,-0.138347 0,-0.07257 0.02576,-0.124533 0.0765,-0.154622 0.05074,-0.03009 0.141863,-0.04557 0.273437,-0.04557 z m 6.10189,1.386719 0,0.206706 0.16276,0 0,-0.206706 -0.16276,0 z m 2.364908,0 0,1.378581 0.162761,0 0,-1.378581 -0.162761,0 z m -14.736331,0.03255 c -0.144553,0 -0.257566,0.03365 -0.340169,0.100911 -0.08201,0.06726 -0.12207,0.15987 -0.12207,0.276694 0,0.100893 0.0283,0.17936 0.08789,0.236002 0.05959,0.05664 0.156369,0.09878 0.289713,0.125325 l 0.109049,0.02116 c 0.09086,0.01829 0.15578,0.0448 0.195313,0.08138 0.04012,0.03658 0.06022,0.08809 0.06022,0.152995 0,0.07434 -0.02755,0.130776 -0.08301,0.170899 -0.05546,0.04012 -0.133929,0.06022 -0.236002,0.06022 -0.06726,0 -0.135456,-0.01028 -0.205078,-0.03093 -0.06962,-0.02065 -0.140644,-0.05043 -0.213217,-0.09115 l 0,0.18392 c 0.07552,0.02773 0.147887,0.04769 0.2181,0.06185 0.0708,0.01416 0.137653,0.02116 0.200195,0.02116 0.165795,0 0.292052,-0.0332 0.377604,-0.09928 0.08614,-0.06608 0.128581,-0.16168 0.128581,-0.289714 0,-0.107383 -0.03231,-0.19344 -0.09603,-0.257161 -0.06313,-0.06431 -0.161252,-0.109719 -0.294596,-0.135091 l -0.107422,-0.02116 c -0.09794,-0.01829 -0.164795,-0.04211 -0.200195,-0.07161 -0.03481,-0.03009 -0.05208,-0.07505 -0.05208,-0.133464 0,-0.06962 0.02561,-0.123372 0.07813,-0.161133 0.0531,-0.03776 0.128884,-0.05697 0.226236,-0.05697 0.05605,0 0.113972,0.0085 0.174154,0.02441 0.06018,0.01593 0.124205,0.03916 0.192057,0.07161 l 0,-0.174153 c -0.06726,-0.02242 -0.132628,-0.03924 -0.19694,-0.05046 -0.06431,-0.01121 -0.128478,-0.01628 -0.19043,-0.01628 z m 2.753907,0.07324 0,0.281576 -0.118815,0 0,0.125325 0.118815,0 0,0.538737 c 0,0.123905 0.02383,0.209962 0.07161,0.257162 0.04779,0.04661 0.134743,0.06999 0.260416,0.06999 l 0.167644,0 0,-0.136719 -0.167644,0 c -0.06785,0 -0.112668,-0.01117 -0.135091,-0.03418 -0.02183,-0.02301 -0.03255,-0.07542 -0.03255,-0.15625 l 0,-0.538737 0.335286,0 0,-0.125325 -0.335286,0 0,-0.281576 -0.164389,0 z m 6.429038,0 0,0.281576 -0.118815,0 0,0.125325 0.118815,0 0,0.538737 c 0,0.123905 0.02383,0.209962 0.07161,0.257162 0.04779,0.04661 0.134744,0.06999 0.260417,0.06999 l 0.167644,0 0,-0.136719 -0.167644,0 c -0.06785,0 -0.112669,-0.01117 -0.135091,-0.03418 -0.02183,-0.02301 -0.03255,-0.07542 -0.03255,-0.15625 l 0,-0.538737 0.335287,0 0,-0.125325 -0.335287,0 0,-0.281576 -0.164388,0 z m 4.838868,0 0,0.281576 -0.118815,0 0,0.125325 0.118815,0 0,0.538737 c 0,0.123905 0.02383,0.209962 0.07162,0.257162 0.04779,0.04661 0.134743,0.06999 0.260417,0.06999 l 0.167643,0 0,-0.136719 -0.167643,0 c -0.06785,0 -0.11267,-0.01117 -0.135092,-0.03418 -0.02183,-0.02301 -0.03255,-0.07542 -0.03255,-0.15625 l 0,-0.538737 0.335287,0 0,-0.125325 -0.335287,0 0,-0.281576 -0.164388,0 z m -11.894533,0.257162 c -0.121544,0 -0.215494,0.02576 -0.281576,0.0765 -0.06608,0.05074 -0.09928,0.121621 -0.09928,0.214844 0,0.0767 0.02189,0.138041 0.06673,0.182291 0.04484,0.04366 0.117205,0.07642 0.218099,0.09766 l 0.05697,0.01302 c 0.100894,0.02183 0.165813,0.04476 0.195313,0.06836 0.03009,0.0236 0.04557,0.05666 0.04557,0.100912 0,0.04779 -0.02055,0.08575 -0.06185,0.112305 -0.0413,0.02596 -0.100707,0.03906 -0.177409,0.03906 -0.05723,0 -0.114114,-0.0091 -0.172526,-0.02441 -0.05841,-0.01593 -0.118854,-0.03872 -0.179037,-0.06999 l 0,0.167644 c 0.06372,0.02065 0.12506,0.03717 0.182292,0.0472 0.05782,0.01062 0.112916,0.01465 0.166016,0.01465 0.127443,0 0.226907,-0.02606 0.299479,-0.07975 0.07316,-0.05369 0.110677,-0.126057 0.110677,-0.2181 0,-0.08084 -0.02427,-0.143963 -0.07324,-0.188801 -0.04838,-0.04543 -0.130125,-0.08101 -0.245768,-0.105795 l -0.05697,-0.01302 c -0.08732,-0.01947 -0.145243,-0.03898 -0.174153,-0.06022 -0.02891,-0.02183 -0.04232,-0.05176 -0.04232,-0.08952 0,-0.04956 0.0201,-0.08752 0.06022,-0.112305 0.04071,-0.02478 0.10146,-0.03581 0.182292,-0.03581 0.0531,-1e-6 0.103434,0.0045 0.152995,0.01628 0.04956,0.0118 0.09721,0.03011 0.143229,0.05371 l 0,-0.154623 c -0.04484,-0.0177 -0.09338,-0.03021 -0.146484,-0.03906 -0.0531,-0.0089 -0.10909,-0.01302 -0.169271,-0.01302 z m 1.756185,0 c -0.148685,0 -0.266906,0.04765 -0.354818,0.143229 -0.08732,0.09499 -0.131836,0.223487 -0.131836,0.385742 0,0.156945 0.0463,0.282306 0.138347,0.374349 0.09263,0.09204 0.217851,0.136719 0.375976,0.136719 0.06313,0 0.125812,-0.0066 0.187175,-0.01953 0.06136,-0.01298 0.120625,-0.03056 0.179036,-0.05534 l 0,-0.154623 c -0.05782,0.03068 -0.115151,0.05302 -0.174154,0.06836 -0.05841,0.01534 -0.119749,0.02441 -0.182292,0.02441 -0.107972,0 -0.191506,-0.02948 -0.252278,-0.08789 -0.06018,-0.059 -0.09383,-0.145059 -0.100912,-0.257162 l 0.748699,0 0,-0.07975 c 0,-0.147505 -0.03931,-0.264383 -0.117188,-0.349935 -0.07729,-0.08614 -0.182412,-0.128581 -0.315755,-0.128581 z m 1.176758,0 c -0.07139,0 -0.133625,0.01503 -0.185547,0.04394 -0.05192,0.02891 -0.09629,0.07269 -0.133463,0.133464 l 0,-0.152995 -0.164389,0 0,0.991211 0.164389,0 0,-0.561524 c 0,-0.09617 0.02427,-0.171813 0.07324,-0.227865 0.04897,-0.05664 0.115376,-0.08464 0.198568,-0.08464 0.07021,0 0.120989,0.02234 0.154623,0.06836 0.03363,0.04543 0.05045,0.116005 0.05045,0.211588 l 0,0.594076 0.164389,0 0,-0.561524 c 0,-0.09676 0.02427,-0.171813 0.07324,-0.227865 0.04897,-0.05605 0.115824,-0.08464 0.200196,-0.08464 0.06903,0 0.120989,0.02234 0.154623,0.06836 0.03363,0.04602 0.05046,0.116595 0.05046,0.211588 l 0,0.594076 0.16276,0 0,-0.598959 c 0,-0.133344 -0.02696,-0.235635 -0.08301,-0.307617 -0.05605,-0.07257 -0.136005,-0.109049 -0.239258,-0.109049 -0.0767,0 -0.143554,0.01727 -0.200195,0.05208 -0.05664,0.03481 -0.105774,0.08797 -0.146484,0.161133 -0.02419,-0.06962 -0.06157,-0.121295 -0.112305,-0.157878 -0.05015,-0.03658 -0.11031,-0.05534 -0.182292,-0.05534 z m 2.250977,0 c -0.142194,0 -0.254454,0.0463 -0.335287,0.138346 -0.08024,0.09204 -0.120442,0.219642 -0.120442,0.382487 0,0.162255 0.0402,0.289854 0.120442,0.382487 0.08083,0.09204 0.193093,0.136719 0.335287,0.136719 0.141604,0 0.252826,-0.04468 0.333658,-0.136719 0.08083,-0.09263 0.120444,-0.220232 0.120444,-0.382487 0,-0.162845 -0.03961,-0.290445 -0.120444,-0.382487 -0.08083,-0.09204 -0.192054,-0.138346 -0.333658,-0.138346 z m 3.637696,0 c -0.07257,0 -0.136291,0.01503 -0.188802,0.04394 -0.05192,0.02832 -0.09436,0.07121 -0.128581,0.130208 l 0,-0.149739 -0.162761,0 0,1.367188 0.162761,0 0,-0.525716 c 0.03422,0.059 0.07666,0.102924 0.128581,0.131836 0.05251,0.02832 0.11623,0.04232 0.188802,0.04232 0.120364,0 0.218036,-0.04765 0.292969,-0.143229 0.07552,-0.09558 0.112304,-0.220213 0.112304,-0.375977 0,-0.155764 -0.03678,-0.282022 -0.112304,-0.377604 -0.07493,-0.09558 -0.172605,-0.143229 -0.292969,-0.143229 z m 1.166992,0 c -0.07847,0 -0.145323,0.01444 -0.200196,0.04394 -0.05487,0.02891 -0.09924,0.07328 -0.133463,0.133464 l 0,-0.152995 -0.164387,0 0,0.991211 0.164387,0 0,-0.522461 c 0,-0.112103 0.02427,-0.199198 0.07324,-0.258789 0.04956,-0.06018 0.121173,-0.08952 0.213216,-0.08952 0.02596,0 0.04875,0.0028 0.06999,0.0081 0.02183,0.0047 0.04193,0.01216 0.06022,0.02279 l 0,-0.167643 c -0.01652,-0.0029 -0.032,-0.0053 -0.04557,-0.0065 -0.01357,-0.0018 -0.02622,-0.0016 -0.03743,-0.0016 z m 1.23698,0 c -0.06903,0 -0.130819,0.01444 -0.183919,0.04394 -0.05251,0.0295 -0.09778,0.07387 -0.13672,0.133464 l 0,-0.152995 -0.164387,0 0,0.991211 0.164387,0 0,-0.561524 c 0,-0.09676 0.02576,-0.171813 0.0765,-0.227865 0.05074,-0.05605 0.118793,-0.08464 0.206706,-0.08464 0.07316,0 0.127805,0.02338 0.164388,0.06999 0.03658,0.04661 0.05534,0.116148 0.05534,0.209961 l 0,0.594076 0.16276,0 0,-0.598959 c 0,-0.136884 -0.02948,-0.24066 -0.08789,-0.310872 -0.05841,-0.0708 -0.143288,-0.105794 -0.257161,-0.105794 z m 2.364909,0 c -0.06903,0 -0.13082,0.01444 -0.18392,0.04394 -0.05251,0.0295 -0.09778,0.07387 -0.136718,0.133464 l 0,-0.152995 -0.164388,0 0,0.991211 0.164388,0 0,-0.561524 c 0,-0.09676 0.02413,-0.171813 0.07487,-0.227865 0.05074,-0.05605 0.12042,-0.08464 0.208333,-0.08464 0.07316,0 0.127805,0.02338 0.164388,0.06999 0.03658,0.04661 0.05534,0.116148 0.05534,0.209961 l 0,0.594076 0.162761,0 0,-0.598959 c 0,-0.136884 -0.02948,-0.24066 -0.08789,-0.310872 -0.05841,-0.0708 -0.143287,-0.105794 -0.257161,-0.105794 z m -15.096032,0.02441 0.402019,0.974935 -0.0293,0.07324 c -0.03009,0.07906 -0.05823,0.130128 -0.08301,0.151367 -0.02478,0.02124 -0.05933,0.03092 -0.104167,0.03092 l -0.09603,0 0,0.13672 0.130208,0 c 0.07316,0 0.13212,-0.01772 0.175782,-0.05371 0.04366,-0.03599 0.08744,-0.113117 0.133463,-0.23112 l 0.436198,-1.082357 -0.172526,0 -0.309245,0.774739 -0.310873,-0.774739 -0.172526,0 z m 7.395835,0 0,0.598958 c 0,0.136294 0.03052,0.24007 0.08952,0.310873 0.059,0.0708 0.144916,0.105794 0.25879,0.105794 0.06903,0 0.130369,-0.01341 0.182291,-0.04232 0.05251,-0.0295 0.09718,-0.07491 0.136719,-0.135092 l 0,0.152995 0.162761,0 0,-0.991211 -0.162761,0 0,0.561523 c 0,0.09676 -0.02516,0.173441 -0.0765,0.229493 -0.05074,0.05605 -0.12042,0.08301 -0.208333,0.08301 -0.07316,0 -0.127804,-0.02338 -0.164388,-0.06999 -0.03658,-0.0472 -0.05534,-0.117776 -0.05534,-0.21159 l 0,-0.592447 -0.162761,0 z m 4.353843,0 0,0.991211 0.16276,0 0,-0.991211 -0.16276,0 z m -1.463217,0.112305 c 0.08614,-1e-6 0.154478,0.0341 0.20345,0.102538 0.04956,0.06785 0.07324,0.161803 0.07324,0.281576 0,0.119773 -0.02368,0.213133 -0.07324,0.281576 -0.04897,0.06785 -0.117308,0.102538 -0.20345,0.102538 -0.08614,10e-7 -0.15389,-0.03469 -0.20345,-0.102538 -0.04897,-0.06844 -0.07324,-0.161803 -0.07324,-0.281576 0,-0.119773 0.02427,-0.213723 0.07324,-0.281576 0.04956,-0.06844 0.117307,-0.102538 0.20345,-0.102538 z m -7.023113,0.0016 c 0.08024,0 0.145301,0.02665 0.193685,0.07975 0.04898,0.0531 0.0737,0.124123 0.07487,0.213216 l -0.581054,0 c 0.0083,-0.09322 0.04012,-0.165138 0.0944,-0.216471 0.05487,-0.05133 0.127236,-0.0765 0.2181,-0.0765 z m 3.426107,0 c 0.08673,0 0.155961,0.03351 0.206706,0.10254 0.05074,0.06844 0.07487,0.162534 0.07487,0.279947 1e-6,0.118003 -0.02412,0.209878 -0.07487,0.27832 -0.05074,0.06844 -0.119974,0.104167 -0.206706,0.104167 -0.08791,0 -0.157589,-0.03469 -0.208333,-0.102539 -0.05015,-0.06844 -0.07487,-0.161355 -0.07487,-0.279948 0,-0.118593 0.02575,-0.212096 0.0765,-0.279947 0.05074,-0.06844 0.119383,-0.10254 0.206706,-0.10254 z m -0.9375,0.651042 0,0.226237 0.185546,0 0,-0.226237 -0.185546,0 z m 3.54655,0 0,0.226237 0.187175,0 0,-0.226237 -0.187175,0 z m -8.193361,1.113281 0,1.378581 0.16276,0 0,-1.378581 -0.16276,0 z m 0.50293,0 0,1.378581 0.16276,0 0,-1.378581 -0.16276,0 z m 5.727539,0 0,1.378581 0.162761,0 0,-1.378581 -0.162761,0 z m 1.153972,0 0,0.537109 c -0.03422,-0.059 -0.07607,-0.101885 -0.128581,-0.130208 -0.05192,-0.02891 -0.11564,-0.04394 -0.188801,-0.04394 -0.119774,0 -0.217447,0.04765 -0.292969,0.143229 -0.07493,0.09558 -0.112305,0.22184 -0.112305,0.377605 0,0.155764 0.03737,0.280394 0.112305,0.375976 0.07552,0.09558 0.173195,0.143229 0.292969,0.143229 0.07316,0 0.13688,-0.014 0.188801,-0.04232 0.05251,-0.02891 0.09436,-0.07283 0.128581,-0.131836 l 0,0.149739 0.164389,0 0,-1.378581 -0.164389,0 z m -11.157228,0.0033 c -0.08909,0.139244 -0.154907,0.275185 -0.198568,0.408529 -0.04366,0.133344 -0.0651,0.265562 -0.0651,0.397136 0,0.132164 0.02144,0.264829 0.0651,0.398763 0.04425,0.133934 0.110065,0.269875 0.198568,0.408528 l 0.141601,0 c -0.07847,-0.135113 -0.136842,-0.268674 -0.175781,-0.402018 -0.03835,-0.133933 -0.05697,-0.268978 -0.05697,-0.405273 0,-0.136294 0.01862,-0.270892 0.05697,-0.403646 0.03835,-0.132754 0.09672,-0.266315 0.175781,-0.402019 l -0.141601,0 z m 13.191734,0 c 0.07847,0.135704 0.137431,0.269265 0.175781,0.402019 0.03894,0.132754 0.05859,0.267352 0.05859,0.403646 0,0.136295 -0.01965,0.27134 -0.05859,0.405273 -0.03835,0.133344 -0.09731,0.266905 -0.175781,0.402018 l 0.141601,0 c 0.0885,-0.138653 0.154907,-0.274594 0.198569,-0.408528 0.04425,-0.133934 0.06673,-0.266599 0.06673,-0.398763 0,-0.131574 -0.02248,-0.263792 -0.06673,-0.397136 -0.04366,-0.133344 -0.110065,-0.269285 -0.198569,-0.408529 l -0.141601,0 z m -12.729494,0.05371 0,0.491536 0.151366,0 0,-0.491536 -0.151366,0 z m 0.335286,0 0,0.491536 0.14974,0 0,-0.491536 -0.14974,0 z m 0.504557,0 0,1.321614 0.177409,0 0,-0.629882 0.651042,0 0,0.629882 0.177409,0 0,-1.321614 -0.177409,0 0,0.541992 -0.651042,0 0,-0.541992 -0.177409,0 z m 5.050457,0 0.330404,1.321614 0.224609,0 0.281575,-1.147461 0.279949,1.147461 0.224609,0 0.332032,-1.321614 -0.182292,0 -0.276693,1.116536 -0.27832,-1.116536 -0.200195,0 -0.276694,1.116536 -0.27832,-1.116536 -0.180664,0 z m 5.406902,0 0,0.579427 0.0179,0.315755 0.143229,0 0.0179,-0.315755 0,-0.579427 -0.179036,0 z m 0.626628,0 0,0.491536 0.149739,0 0,-0.491536 -0.149739,0 z m 0.333659,0 0,0.491536 0.151367,0 0,-0.491536 -0.151367,0 z m -9.646812,0.305989 c -0.148684,0 -0.266905,0.04765 -0.354818,0.143229 -0.08732,0.09499 -0.131836,0.223488 -0.131836,0.385743 0,0.156945 0.0463,0.282306 0.138347,0.374348 0.09263,0.09204 0.217852,0.136719 0.375976,0.136719 0.06313,0 0.125813,-0.0066 0.187175,-0.01953 0.06136,-0.01298 0.120625,-0.03056 0.179036,-0.05534 l 0,-0.154622 c -0.05782,0.03068 -0.115152,0.05302 -0.174154,0.06836 -0.05841,0.01534 -0.11975,0.02441 -0.182291,0.02441 -0.107974,0 -0.191507,-0.02948 -0.252279,-0.08789 -0.06019,-0.059 -0.09383,-0.145058 -0.100911,-0.257161 l 0.748698,0 0,-0.07975 c 0,-0.147505 -0.03931,-0.264383 -0.117188,-0.349935 -0.07729,-0.08614 -0.182411,-0.128581 -0.315755,-0.128581 z m 2.088217,0 c -0.142195,0 -0.252827,0.0463 -0.333659,0.138347 -0.08024,0.09204 -0.120443,0.219641 -0.120443,0.382487 0,0.162255 0.0402,0.289854 0.120443,0.382486 0.08083,0.09204 0.191464,0.136719 0.333659,0.136719 0.141603,0 0.252826,-0.04468 0.333658,-0.136719 0.08083,-0.09263 0.122071,-0.220231 0.122071,-0.382486 0,-0.162846 -0.04124,-0.290446 -0.122071,-0.382487 -0.08083,-0.09204 -0.192055,-0.138347 -0.333658,-0.138347 z m 3.370769,0 c -0.142195,0 -0.252827,0.0463 -0.333659,0.138347 -0.08024,0.09204 -0.120443,0.219641 -0.120443,0.382487 0,0.162255 0.0402,0.289854 0.120443,0.382486 0.08083,0.09204 0.191464,0.136719 0.333659,0.136719 0.141603,0 0.252826,-0.04468 0.333658,-0.136719 0.08083,-0.09263 0.12207,-0.220231 0.12207,-0.382486 1e-6,-0.162846 -0.04124,-0.290446 -0.12207,-0.382487 -0.08083,-0.09204 -0.192055,-0.138347 -0.333658,-0.138347 z m 1.21582,0 c -0.07847,0 -0.145323,0.01444 -0.200195,0.04394 -0.05487,0.02891 -0.09924,0.07328 -0.133464,0.133464 l 0,-0.152995 -0.164388,0 0,0.991211 0.164388,0 0,-0.522461 c 0,-0.112103 0.02427,-0.19757 0.07324,-0.257161 0.04956,-0.06018 0.119546,-0.09115 0.211589,-0.09115 0.02596,0 0.05038,0.0028 0.07162,0.0081 0.02183,0.0047 0.04193,0.01216 0.06022,0.02279 l -0.0016,-0.167643 c -0.01652,-0.0029 -0.03037,-0.0037 -0.04395,-0.0049 -0.01357,-0.0018 -0.02622,-0.0033 -0.03744,-0.0033 z m 4.218751,0.07813 0,0.224609 0.187174,0 0,-0.224609 -0.187174,0 z m -3.085938,0.05859 c 0.08614,0 0.153889,0.0341 0.203451,0.102539 0.04956,0.06785 0.07324,0.161802 0.07324,0.281576 0,0.119773 -0.02368,0.213133 -0.07324,0.281575 -0.04956,0.06785 -0.117309,0.102539 -0.203451,0.102539 -0.08614,0 -0.153889,-0.03469 -0.203451,-0.102539 -0.04897,-0.06844 -0.07324,-0.161802 -0.07324,-0.281575 0,-0.119774 0.02427,-0.213724 0.07324,-0.281576 0.04956,-0.06844 0.117308,-0.102539 0.203451,-0.102539 z m -7.805992,0.0016 c 0.08024,0 0.143674,0.02665 0.192058,0.07975 0.04898,0.0531 0.07533,0.124124 0.0765,0.213216 l -0.581055,0 c 0.0083,-0.09322 0.03849,-0.165137 0.09277,-0.216471 0.05487,-0.05133 0.128864,-0.0765 0.219726,-0.0765 z m 2.08659,0 c 0.08673,0 0.155961,0.03351 0.206705,0.102539 0.05074,0.06844 0.0765,0.162534 0.0765,0.279948 0,0.118003 -0.02575,0.209878 -0.0765,0.27832 -0.05074,0.06844 -0.119973,0.104166 -0.206705,0.104166 -0.08791,0 -0.155962,-0.03469 -0.206706,-0.102539 -0.05015,-0.06844 -0.0765,-0.161354 -0.0765,-0.279947 0,-0.118594 0.02576,-0.212096 0.0765,-0.279948 0.05074,-0.06844 0.119382,-0.102539 0.206706,-0.102539 z m 3.370769,0 c 0.08673,0 0.155966,0.03351 0.206705,0.102539 0.05074,0.06844 0.0765,0.162534 0.0765,0.279948 0,0.118003 -0.02576,0.209878 -0.0765,0.27832 -0.05074,0.06844 -0.119973,0.104166 -0.206705,0.104166 -0.08792,0 -0.157595,-0.03469 -0.208334,-0.102539 -0.05015,-0.06844 -0.07487,-0.161354 -0.07487,-0.279947 0,-0.118594 0.02575,-0.212096 0.0765,-0.279948 0.05074,-0.06844 0.119382,-0.102539 0.206706,-0.102539 z m 3.227539,0.651042 0,0.226236 0.179036,0 0,-0.226236 -0.179036,0 z m 2.207032,0 0,0.152994 -0.07162,0.283203 0.113932,0 0.144857,-0.283203 0,-0.152994 -0.187174,0 z m -13.217776,1.114908 0,0.125326 0.06185,0 c 0.08261,0 0.136356,0.0131 0.161134,0.03906 0.02537,0.02537 0.03743,0.0806 0.03743,0.164388 l 0,0.219727 c 0,0.09264 0.01414,0.159934 0.04069,0.201823 0.02655,0.04189 0.07123,0.06989 0.136718,0.08464 -0.06549,0.01593 -0.110168,0.04437 -0.136718,0.08626 -0.02655,0.04189 -0.04069,0.10978 -0.04069,0.201824 l 0,0.218098 c 0,0.08437 -0.01206,0.140644 -0.03743,0.166016 -0.02478,0.02537 -0.07853,0.03744 -0.161134,0.03744 l -0.06185,0 0,0.126953 0.05534,0 c 0.146915,0 0.245625,-0.02144 0.294597,-0.0651 0.04956,-0.04366 0.07324,-0.130023 0.07324,-0.260416 l 0,-0.21159 c 0,-0.08909 0.01697,-0.151324 0.04883,-0.185546 0.03186,-0.03422 0.08874,-0.05208 0.172526,-0.05208 l 0.05534,0 0,-0.125326 -0.05534,0 c -0.08378,0 -0.140665,-0.01682 -0.172526,-0.05045 -0.03186,-0.03422 -0.04883,-0.09601 -0.04883,-0.18392 l 0,-0.211588 c 0,-0.130393 -0.02368,-0.217344 -0.07324,-0.260417 -0.04897,-0.04366 -0.147682,-0.0651 -0.294597,-0.0651 l -0.05534,0 z m -0.942384,2.265626 0,0.125325 0.06185,0 c 0.08261,0 0.136355,0.0131 0.161132,0.03906 0.02537,0.02537 0.03906,0.0806 0.03906,0.164387 l 0,0.219727 c 0,0.09264 0.01251,0.159934 0.03906,0.201824 0.02655,0.04189 0.07285,0.06988 0.138347,0.08463 -0.06549,0.01593 -0.111797,0.04437 -0.138347,0.08626 -0.02655,0.04189 -0.03906,0.10978 -0.03906,0.201823 l 0,0.218099 c 0,0.08437 -0.01369,0.140643 -0.03906,0.166015 -0.02478,0.02537 -0.07853,0.03744 -0.161132,0.03744 l -0.06185,0 0,0.126953 0.05534,0 c 0.146913,0 0.245624,-0.02144 0.294596,-0.0651 0.04956,-0.04366 0.07487,-0.130024 0.07487,-0.260417 l 0,-0.211589 c 0,-0.08909 0.01534,-0.151324 0.0472,-0.185547 0.03186,-0.03422 0.09037,-0.05208 0.174154,-0.05208 l 0.05371,0 0,-0.125326 -0.05371,0 c -0.08378,10e-7 -0.142293,-0.01682 -0.174154,-0.05045 -0.03186,-0.03422 -0.0472,-0.09601 -0.0472,-0.18392 l 0,-0.211589 c 0,-0.130392 -0.02531,-0.217344 -0.07487,-0.260416 -0.04897,-0.04366 -0.147682,-0.0651 -0.294596,-0.0651 l -0.05534,0 z"
     id="path4391"
     inkscape:connector-curvature="0" />
  <path
     style="font-size:medium;font-style:normal;font-variant:normal;font-weight:normal;font-stretch:normal;line-height:125%;letter-spacing:0px;word-spacing:0px;fill:#b3b3b3;fill-opacity:1;stroke:none;font-family:Andale Mono;-inkscape-font-specification:Andale Mono"
     d="m 8.8177049,17.34798 -0.2685547,0.138346 0,0.144857 0.2490234,-0.123698 0,0.961914 -0.2636719,0 0,0.126954 0.6526694,0 0,-0.126954 -0.2457683,0 0,-1.121419 -0.1236979,0 z m -0.050456,2.234701 c -0.096699,0 -0.188199,0.01783 -0.2766927,0.05534 l 0.019531,0.123698 c 0.097871,-0.03575 0.1763559,-0.05371 0.234375,-0.05371 0.075601,0 0.1341718,0.02037 0.1757813,0.06022 0.042196,0.03985 0.063477,0.09523 0.063477,0.164388 0,0.0715 -0.016595,0.142759 -0.048828,0.214843 -0.032233,0.07208 -0.073753,0.141069 -0.1253255,0.206706 -0.051573,0.06564 -0.164029,0.194559 -0.3369142,0.38737 l 0,0.104167 0.6819663,0 0,-0.125326 -0.522461,0 c 0.1576478,-0.174057 0.2645077,-0.293932 0.3190104,-0.361328 0.054503,-0.0674 0.098886,-0.138332 0.1334636,-0.211589 0.035163,-0.07325 0.052083,-0.146925 0.052083,-0.221354 0,-0.104317 -0.034557,-0.188529 -0.1025391,-0.250651 -0.067396,-0.06271 -0.1561634,-0.09277 -0.2669272,-0.09277 z m -0.016276,2.24935 c -0.080875,0 -0.1611824,0.019 -0.2408854,0.05534 l 0.019531,0.123697 c 0.079117,-0.03458 0.1509641,-0.05208 0.2148438,-0.05208 0.073843,0 0.1319581,0.01705 0.1741537,0.05046 0.042196,0.03282 0.063477,0.07811 0.063477,0.136719 0,0.07208 -0.029285,0.129743 -0.087891,0.172526 -0.058605,0.04219 -0.1343574,0.06348 -0.2246094,0.06348 l -0.00977,0 0,0.118815 0.037435,0 c 0.093768,0 0.1693899,0.0216 0.226237,0.06673 0.056847,0.04513 0.084635,0.103697 0.084635,0.175782 0,0.07326 -0.026422,0.13378 -0.079753,0.180663 -0.052745,0.0463 -0.1170428,0.06999 -0.1920573,0.06999 -0.079703,0 -0.1594243,-0.01887 -0.2408855,-0.05697 l -0.027669,0.118816 c 0.077945,0.04337 0.1652153,0.0651 0.263672,0.0651 0.1154521,0 0.2161293,-0.03683 0.3011068,-0.110677 0.084977,-0.07443 0.1269531,-0.166059 0.1269531,-0.275065 0,-0.06974 -0.022647,-0.133128 -0.068359,-0.188803 -0.045712,-0.05626 -0.1066911,-0.09446 -0.1822917,-0.115559 l 0,-0.0065 c 0.061535,-0.01406 0.1145099,-0.04803 0.1578777,-0.102539 0.043954,-0.05509 0.065104,-0.114115 0.065104,-0.177408 0,-0.09143 -0.035337,-0.166591 -0.1074218,-0.22461 -0.071498,-0.05861 -0.1626739,-0.08789 -0.2734376,-0.08789 z m 0.1367188,2.27539 -0.4899089,0.843099 0,0.110678 0.5403646,0 0,0.286458 0.1448568,0 0,-0.286458 0.1529948,0 0,-0.126953 -0.1529948,0 0,-0.826824 -0.1953125,0 z m 0.050456,0.141602 0,0.685222 -0.3938803,0 0.3938803,-0.685222 z m -0.3906251,2.107748 0,0.592447 0.086263,0.04069 c 0.049228,-0.01934 0.099339,-0.0293 0.1497396,-0.0293 0.069154,0 0.125317,0.02219 0.1692709,0.06673 0.043954,0.04454 0.066732,0.107797 0.066732,0.19043 0,0.08732 -0.023103,0.154806 -0.069987,0.203451 -0.046298,0.04864 -0.1083187,0.07324 -0.1839193,0.07324 -0.084977,0 -0.1676928,-0.01705 -0.2473958,-0.05046 l -0.027669,0.122071 c 0.073256,0.03633 0.1633904,0.05534 0.27181,0.05534 0.113694,0 0.2105966,-0.03924 0.2897135,-0.117187 0.079117,-0.07853 0.1188151,-0.173936 0.1188151,-0.286459 0,-0.107247 -0.034557,-0.197056 -0.1025391,-0.268555 -0.067982,-0.07208 -0.16111,-0.107421 -0.2783203,-0.107421 -0.038093,0 -0.077336,0.0057 -0.1171875,0.01628 l 0,-0.374349 0.4427084,0 0,-0.126953 -0.568034,0 z m 0.3613282,2.226563 c -0.1400662,0 -0.2495285,0.0628 -0.3304037,0.188801 -0.080289,0.126002 -0.1204427,0.282842 -0.1204427,0.470379 0,0.175815 0.038201,0.325691 0.1155599,0.447591 0.077359,0.121312 0.18168,0.182291 0.3141277,0.182291 0.103731,0 0.186902,-0.03937 0.2490235,-0.11556 0.062121,-0.07619 0.092773,-0.171461 0.092773,-0.288086 0,-0.106075 -0.033841,-0.193607 -0.1041667,-0.260416 -0.06974,-0.0674 -0.1571411,-0.100912 -0.2620443,-0.100912 -0.090838,0 -0.1749199,0.03169 -0.2522787,0.0944 0,-0.144755 0.026422,-0.263395 0.079753,-0.354819 0.053331,-0.09142 0.1274555,-0.136718 0.2229819,-0.136718 0.067396,0 0.1415207,0.01568 0.2229818,0.04557 l 0.022786,-0.12858 c -0.070326,-0.02872 -0.1539526,-0.04395 -0.2506511,-0.04395 z m -0.050456,0.651041 c 0.069154,0 0.1230395,0.02278 0.1611328,0.06673 0.038093,0.04395 0.056966,0.10285 0.056966,0.179037 0,0.08263 -0.015878,0.148429 -0.050456,0.195312 -0.034577,0.04688 -0.084233,0.06999 -0.1481121,0.06999 -0.0756,0 -0.1389876,-0.04347 -0.1888021,-0.130208 -0.049814,-0.08673 -0.07487,-0.183638 -0.07487,-0.289714 0.073256,-0.06095 0.1544747,-0.09115 0.2441406,-0.09115 z m -0.3906251,1.62435 0,0.125325 0.5810549,0 -0.4850262,1.114909 0.148112,0 0.4915365,-1.137695 0,-0.102539 -0.7356772,0 z m 0.3613282,2.226563 c -0.1037311,0 -0.1873575,0.0326 -0.2506511,0.09766 -0.063294,0.06447 -0.096029,0.136769 -0.096029,0.216471 10e-8,0.06212 0.020826,0.117244 0.061849,0.167644 0.04161,0.04981 0.097448,0.08333 0.1660157,0.100911 -0.08615,0.0252 -0.1537668,0.0688 -0.201823,0.12858 -0.048056,0.05978 -0.071614,0.128175 -0.071614,0.206706 0,0.11135 0.036835,0.201159 0.110677,0.268555 0.074428,0.0674 0.1693787,0.100912 0.2848308,0.100912 0.1101777,0 0.2016781,-0.0341 0.2766928,-0.100912 0.075601,-0.06681 0.1139323,-0.156488 0.1139323,-0.270182 0,-0.07912 -0.023103,-0.147514 -0.069987,-0.206706 -0.046298,-0.05919 -0.1125488,-0.102336 -0.1969403,-0.126953 0.06681,-0.01817 0.1221926,-0.05214 0.1643881,-0.102539 0.042196,-0.05099 0.063477,-0.105652 0.063477,-0.166016 0,-0.08029 -0.033516,-0.153633 -0.1009115,-0.218099 -0.06681,-0.06447 -0.1513472,-0.09603 -0.2539063,-0.09603 z m 0,0.123697 c 0.057433,0 0.1060466,0.01946 0.1464844,0.05697 0.040438,0.03692 0.060221,0.08371 0.060221,0.139973 -10e-8,0.02637 -0.00527,0.04993 -0.014648,0.07161 -0.00938,0.0211 -0.02057,0.03952 -0.035807,0.05534 -0.015237,0.01582 -0.032288,0.02851 -0.050456,0.03906 -0.017582,0.01 -0.039904,0.01901 -0.065104,0.02604 -0.025203,0.007 -0.037762,0.01139 -0.04069,0.01139 -0.0082,0 -0.027208,-0.0042 -0.055339,-0.01302 -0.027544,-0.0088 -0.051558,-0.02161 -0.073242,-0.03744 -0.021098,-0.01583 -0.03906,-0.03769 -0.053711,-0.06348 -0.014065,-0.02578 -0.021159,-0.05494 -0.021159,-0.08952 1e-7,-0.0545 0.02037,-0.100251 0.060221,-0.138346 0.039852,-0.03809 0.087554,-0.05859 0.1432292,-0.05859 z m 0,0.522461 c 0.099043,0.02637 0.1647074,0.06275 0.1969402,0.10905 0.032233,0.04571 0.047201,0.09823 0.047201,0.15625 0,0.07677 -0.023103,0.137164 -0.069987,0.182292 -0.046298,0.04454 -0.1029165,0.06673 -0.1708985,0.06673 -0.065638,0 -0.1238838,-0.02161 -0.172526,-0.06673 -0.048642,-0.04571 -0.071615,-0.106692 -0.071615,-0.182292 0,-0.129518 0.080307,-0.218416 0.2408854,-0.2653 z m -0.019531,1.601563 c -0.1060754,0 -0.1930209,0.03924 -0.2604167,0.117188 -0.06681,0.07736 -0.1009115,0.172765 -0.1009115,0.286458 0,0.106075 0.034427,0.193021 0.1041666,0.260417 0.070326,0.06681 0.1587687,0.100911 0.263672,0.100911 0.096698,0 0.1807804,-0.03169 0.2522786,-0.0944 10e-8,0.138895 -0.029286,0.255581 -0.087891,0.349936 -0.058019,0.09435 -0.1354629,0.141601 -0.2327474,0.141601 -0.067982,0 -0.1421067,-0.01568 -0.2229818,-0.04557 l -0.022786,0.128581 c 0.070326,0.02931 0.152911,0.04395 0.2490234,0.04395 0.1429966,0 0.2568195,-0.06534 0.3417969,-0.193685 0.085564,-0.128931 0.1285808,-0.28486 0.1285808,-0.467122 0,-0.182262 -0.036379,-0.332464 -0.1090495,-0.450847 -0.07267,-0.118382 -0.1732171,-0.177409 -0.3027344,-0.177409 z m 0.00977,0.126953 c 0.073256,0 0.1322827,0.04256 0.1774089,0.126954 0.045126,0.08381 0.068359,0.181619 0.068359,0.292968 l -0.011393,0.0081 c -0.066224,0.05509 -0.1447092,0.08301 -0.234375,0.08301 -0.065051,0 -0.1174399,-0.02265 -0.1578776,-0.06836 -0.039852,-0.0463 -0.060221,-0.105324 -0.060221,-0.177409 0,-0.07853 0.019328,-0.143413 0.058594,-0.192057 0.039851,-0.04923 0.093281,-0.07324 0.1595052,-0.07324 z m 1.090495,2.125652 c -0.1347918,0 -0.2368356,0.05812 -0.3059896,0.174154 -0.068568,0.115451 -0.1025391,0.272292 -0.1025391,0.470377 0,0.203946 0.034882,0.362739 0.1057942,0.47526 0.070912,0.112522 0.172045,0.167644 0.3027345,0.167644 0.1353775,0 0.2374215,-0.05707 0.3059895,-0.172526 0.06857,-0.116038 0.102539,-0.272878 0.102539,-0.470378 0,-0.203945 -0.03488,-0.362739 -0.105794,-0.475261 -0.07033,-0.113107 -0.171459,-0.16927 -0.3027345,-0.16927 z m -1.0921226,0.01628 -0.2685547,0.138346 0,0.144857 0.2490234,-0.123698 0,0.961915 -0.2636719,0 0,0.126952 0.6526694,0 0,-0.126952 -0.2457683,0 0,-1.12142 -0.1236979,0 z m 1.0921226,0.112304 c 0.086736,0 0.1504475,0.04165 0.1920575,0.123699 0.0422,0.08146 0.06348,0.211748 0.06348,0.392252 0,0.179918 -0.02128,0.311247 -0.06348,0.39388 -0.04161,0.08205 -0.105322,0.123699 -0.1920575,0.123699 -0.08615,0 -0.1498618,-0.04269 -0.1920574,-0.125326 -0.041609,-0.08322 -0.063477,-0.213507 -0.063477,-0.392253 1e-7,-0.176401 0.021281,-0.30682 0.063477,-0.390625 0.042196,-0.08381 0.1064939,-0.125326 0.1920574,-0.125326 z m -0.00326,0.384116 c -0.036922,0 -0.069201,0.01224 -0.094401,0.03744 -0.024615,0.0252 -0.035807,0.05689 -0.035807,0.0944 0,0.03809 0.012235,0.07011 0.037435,0.09766 0.025786,0.02696 0.057025,0.04069 0.092773,0.04069 0.036335,0 0.066987,-0.01374 0.092773,-0.04069 0.025786,-0.02754 0.039062,-0.05956 0.039062,-0.09766 0,-0.03692 -0.01328,-0.06757 -0.039062,-0.09277 -0.0252,-0.02578 -0.055852,-0.03906 -0.092773,-0.03906 z m -1.0888674,1.754557 -0.2685547,0.138346 0,0.143229 0.2490234,-0.123697 0,0.963542 -0.2636719,0 0,0.125325 0.6526694,0 0,-0.125325 -0.2457683,0 0,-1.12142 -0.1236979,0 z m 1.0791018,0 -0.2669272,0.138346 0,0.143229 0.2473959,-0.123697 0,0.963542 -0.2636719,0 0,0.125325 0.6526695,0 0,-0.125325 -0.245768,0 0,-1.12142 -0.1236983,0 z"
     id="path4753"
     inkscape:connector-curvature="0" />
  <path
     style="opacity:0.35;fill:#000000;fill-opacity:1;stroke:none"
     d="m 4,44 0,0 c 20,-1 20,-1 40,0 z"
     id="path3257"
     inkscape:connector-curvature="0"
     sodipodi:nodetypes="cccc" />
  <path
     sodipodi:nodetypes="cccc"
     inkscape:connector-curvature="0"
     id="path4027"
     d="M 4,4 4,4 C 24,5 24,5 44,4 z"
     style="opacity:0.95;fill:#ffffff;fill-opacity:1;stroke:none" />
</svg>
