<?xml version="1.0" encoding="UTF-8" standalone="no"?>
<svg
   xmlns:dc="http://purl.org/dc/elements/1.1/"
   xmlns:cc="http://creativecommons.org/ns#"
   xmlns:rdf="http://www.w3.org/1999/02/22-rdf-syntax-ns#"
   xmlns:svg="http://www.w3.org/2000/svg"
   xmlns="http://www.w3.org/2000/svg"
   xmlns:xlink="http://www.w3.org/1999/xlink"
   xmlns:sodipodi="http://sodipodi.sourceforge.net/DTD/sodipodi-0.dtd"
   xmlns:inkscape="http://www.inkscape.org/namespaces/inkscape"
   viewBox="0 0 48 48"
   id="svg2"
   version="1.1"
   inkscape:version="0.91 r13725"
   sodipodi:docname="bookletimposer.svg">
  <metadata
     id="metadata59">
    <rdf:RDF>
      <cc:Work
         rdf:about="">
        <dc:format>image/svg+xml</dc:format>
        <dc:type
           rdf:resource="http://purl.org/dc/dcmitype/StillImage" />
      </cc:Work>
    </rdf:RDF>
  </metadata>
  <sodipodi:namedview
     pagecolor="#ffffff"
     bordercolor="#666666"
     borderopacity="1"
     objecttolerance="10"
     gridtolerance="10"
     guidetolerance="10"
     inkscape:pageopacity="0"
     inkscape:pageshadow="2"
     inkscape:window-width="686"
     inkscape:window-height="485"
     id="namedview57"
     showgrid="false"
     inkscape:zoom="4.9166667"
     inkscape:cx="24"
     inkscape:cy="24"
     inkscape:window-x="574"
     inkscape:window-y="126"
     inkscape:window-maximized="0"
     inkscape:current-layer="svg2" />
  <defs
     id="defs4">
    <linearGradient
       id="linearGradient3764"
       x1="1"
       x2="47"
       gradientUnits="userSpaceOnUse"
       gradientTransform="matrix(0,-1,1,0,-1.5e-6,47.999998)">
      <stop
         style="stop-color:#e94d4d;stop-opacity:1"
         id="stop7" />
      <stop
         offset="1"
         style="stop-color:#eb5f5f;stop-opacity:1"
         id="stop9" />
    </linearGradient>
    <linearGradient
       inkscape:collect="always"
       xlink:href="#linearGradient3442"
       id="linearGradient3287"
       gradientUnits="userSpaceOnUse"
       gradientTransform="matrix(0.83333307,0,0,0.83333307,-317.03371,412.80361)"
       x1="379.57144"
       y1="-527.79797"
       x2="431.57144"
       y2="-527.79797" />
    <linearGradient
       id="linearGradient3442">
      <stop
         style="stop-color:#e53935;stop-opacity:1"
         offset="0"
         id="stop3444" />
      <stop
         style="stop-color:#e57373;stop-opacity:1"
         offset="1"
         id="stop3446" />
    </linearGradient>
  </defs>
  <g
     transform="translate(0.55761199,0.30529681)"
     id="g3271">
    <rect
       style="fill:url(#linearGradient3287);fill-opacity:1;stroke:none"
       id="rect3273"
       width="39.999989"
       height="39.999989"
       x="3.4424012"
       y="-43.694542"
       ry="0"
       transform="scale(1,-1)" />
    <path
       style="opacity:0.35;fill:#000000;fill-opacity:1;stroke:none"
       d="m 3.4423873,43.694552 40.0000007,3.01e-4 c -20,-0.999999 -20,-0.999999 -40.0000017,0 z"
       id="path3275"
       inkscape:connector-curvature="0"
       sodipodi:nodetypes="cccc" />
    <path
       sodipodi:nodetypes="cccc"
       inkscape:connector-curvature="0"
       id="path3277"
       d="M 3.4423913,3.6947551 43.442388,3.6945549 c -19.999996,1.0000006 -19.999996,1.0000006 -39.9999977,0 z"
       style="opacity:0.5;fill:#ffffff;fill-opacity:1;stroke:none" />
  </g>
  <g
     id="g21">
    <g
       id="g23">
      <g
         transform="translate(1,1)"
         id="g25">
        <g
           style="opacity:0.1"
           id="g27">
          <!-- color: #41afd2 -->
          <g
             id="g29">
            <path
               d="m 14 12 20 0 c 1.105 0 2 0.895 2 2 l 0 20 c 0 1.105 -0.895 2 -2 2 l -20 0 c -1.105 0 -2 -0.895 -2 -2 l 0 -20 c 0 -1.105 0.895 -2 2 -2 m 0 0"
               style="fill:#000;fill-opacity:1;stroke:none;fill-rule:nonzero"
               id="path31" />
          </g>
        </g>
      </g>
    </g>
  </g>
  <g
     id="g33">
    <g
       id="g35">
      <!-- color: #41afd2 -->
      <g
         id="g37">
        <path
           d="m 14 12 20 0 c 1.105 0 2 0.895 2 2 l 0 20 c 0 1.105 -0.895 2 -2 2 l -20 0 c -1.105 0 -2 -0.895 -2 -2 l 0 -20 c 0 -1.105 0.895 -2 2 -2 m 0 0"
           style="fill:#f9f9f9;fill-opacity:1;stroke:none;fill-rule:nonzero"
           id="path39" />
        <path
           d="m 14 12 c -1.109 0 -2 0.891 -2 2 l 0 20 c 0 1.109 0.891 2 2 2 l 10 0 0 -24 m -10 0"
           style="fill:#f9e4bf;fill-opacity:1;stroke:none;fill-rule:nonzero"
           id="path41" />
        <path
           d="m 14 12 c -1.109 0 -2 0.891 -2 2 l 0 20 c 0 1.109 0.891 2 2 2 l 1 0 c -1.109 0 -2 -0.891 -2 -2 l 0 -20 c 0 -1.109 0.891 -2 2 -2 m -1 0"
           style="fill:#fff;fill-opacity:1;stroke:none;fill-rule:nonzero"
           id="path43" />
        <path
           d="m 33 12 c 1.109 0 2 0.891 2 2 l 0 20 c 0 1.109 -0.891 2 -2 2 l 1 0 c 1.109 0 2 -0.891 2 -2 l 0 -20 c 0 -1.109 -0.891 -2 -2 -2 m -1 0"
           style="fill:#fbebcf;fill-opacity:1;stroke:none;fill-rule:nonzero"
           id="path45" />
      </g>
    </g>
  </g>
  <path
     d="m 23 14.5 -0.752 2.246 -2.248 0.752 2.248 0.75 0.752 2.252 0.752 -2.252 l 2.248 -0.75 -2.248 -0.752 -0.752 -2.246 m 7.91 0.5 c -0.518 -0.009 -1.033 0.232 -1.354 0.689 l -3.186 4.543 -8.578 12.227 c -0.514 0.733 -0.337 1.736 0.396 2.248 0.734 0.513 1.739 0.335 2.252 -0.396 l 8.578 -12.227 3.186 -4.545 c 0.514 -0.733 0.337 -1.734 -0.396 -2.246 -0.275 -0.192 -0.587 -0.288 -0.898 -0.293 z m -11.91 3.398 -1 2.998 l -3 1 3 1 l 1 2.998 l 1 -2.998 3 -1 -3 -1 -1 -2.998 z m 11.996 5.102 -1.252 3.752 -3.744 1.252 l 3.744 1.242 1.252 3.754 1.25 -3.754 3.756 -1.242 -3.756 -1.252 -1.25 -3.752 z"
     style="fill:#000;opacity:0.1;fill-opacity:1;stroke:none"
     id="path47" />
  <path
     d="m 22 13.5 l -0.752 2.246 l -2.248 0.752 l 2.248 0.75 l 0.752 2.252 l 0.752 -2.252 l 2.248 -0.75 l -2.248 -0.752 l -0.752 -2.246 z m -4 3.898 l -1 2.998 l -3 1 l 3 1 l 1 2.998 l 1 -2.998 l 3 -1 l -3 -1 l -1 -2.998 z m 11.996 5.102 l -1.252 3.752 l -3.744 1.252 l 3.744 1.242 l 1.252 3.754 l 1.25 -3.754 l 3.756 -1.242 l -3.756 -1.252 l -1.25 -3.752 z"
     style="fill:#e9db62;fill-opacity:1;stroke:none;fill-rule:nonzero"
     id="path49" />
  <g
     transform="matrix(-0.57951622,0.82610873,0.82763492,0.57844757,7.549812,16.503244)"
     id="g51">
    <path
       d="m -7.9 16 c -0.73 -0.001 -2.102 0.448 -2.101 1.6 0.001 1.183 1.37 1.6 2.101 1.6 l 14.801 0 c 0.886 0 1.6 -0.713 1.6 -1.6 0 -0.886 -0.713 -1.6 -1.6 -1.6 z"
       style="fill:#566072;opacity:1;fill-opacity:1;stroke:none"
       id="path53" />
    <path
       d="m 29.91 14 c -0.518 -0.009 -1.033 0.232 -1.354 0.689 l -3.186 4.543 c 0.314 -0.449 1.247 -0.484 1.961 0.016 c 0.714 0.499 1.01 1.375 0.688 1.836 l 3.186 -4.545 c 0.514 -0.733 0.337 -1.734 -0.396 -2.246 c -0.275 -0.192 -0.587 -0.288 -0.898 -0.293 z"
       transform="matrix(-0.56769755,0.8107561,0.81225393,0.56874634,-9.1188151,-15.507216)"
       style="fill:#bc9094;opacity:1;fill-opacity:1;stroke:none"
       id="path55" />
  </g>
</svg>
