<?xml version="1.0" encoding="UTF-8" standalone="no"?>
<svg
   xmlns:dc="http://purl.org/dc/elements/1.1/"
   xmlns:cc="http://creativecommons.org/ns#"
   xmlns:rdf="http://www.w3.org/1999/02/22-rdf-syntax-ns#"
   xmlns:svg="http://www.w3.org/2000/svg"
   xmlns="http://www.w3.org/2000/svg"
   xmlns:xlink="http://www.w3.org/1999/xlink"
   xmlns:sodipodi="http://sodipodi.sourceforge.net/DTD/sodipodi-0.dtd"
   xmlns:inkscape="http://www.inkscape.org/namespaces/inkscape"
   viewBox="0 0 48 48"
   id="svg2"
   version="1.1"
   inkscape:version="0.91 r13725"
   sodipodi:docname="bpython.svg">
  <metadata
     id="metadata39">
    <rdf:RDF>
      <cc:Work
         rdf:about="">
        <dc:format>image/svg+xml</dc:format>
        <dc:type
           rdf:resource="http://purl.org/dc/dcmitype/StillImage" />
      </cc:Work>
    </rdf:RDF>
  </metadata>
  <sodipodi:namedview
     pagecolor="#ffffff"
     bordercolor="#666666"
     borderopacity="1"
     objecttolerance="10"
     gridtolerance="10"
     guidetolerance="10"
     inkscape:pageopacity="0"
     inkscape:pageshadow="2"
     inkscape:window-width="686"
     inkscape:window-height="485"
     id="namedview37"
     showgrid="false"
     inkscape:zoom="4.9166667"
     inkscape:cx="24"
     inkscape:cy="24"
     inkscape:window-x="553"
     inkscape:window-y="78"
     inkscape:window-maximized="0"
     inkscape:current-layer="svg2" />
  <defs
     id="defs4">
    <linearGradient
       id="linearGradient3764"
       x1="1"
       x2="47"
       gradientUnits="userSpaceOnUse"
       gradientTransform="matrix(0,-1,1,0,-1.5e-6,47.999998)">
      <stop
         style="stop-color:#c3c3c3;stop-opacity:1"
         id="stop7" />
      <stop
         offset="1"
         style="stop-color:#cdcdcd;stop-opacity:1"
         id="stop9" />
    </linearGradient>
    <linearGradient
       inkscape:collect="always"
       xlink:href="#linearGradient3859"
       id="linearGradient3739"
       gradientUnits="userSpaceOnUse"
       gradientTransform="matrix(0.83333307,0,0,0.83333307,-317.03371,412.80361)"
       x1="379.57144"
       y1="-527.79797"
       x2="431.57144"
       y2="-527.79797" />
    <linearGradient
       id="linearGradient3859">
      <stop
         id="stop3861"
         offset="0"
         style="stop-color:#cccccc;stop-opacity:1" />
      <stop
         id="stop3863"
         offset="1"
         style="stop-color:#ececec;stop-opacity:1" />
    </linearGradient>
  </defs>
  <g
     id="g3665"
     transform="translate(0.55761199,0.30529681)">
    <rect
       transform="scale(1,-1)"
       ry="0"
       y="-43.694542"
       x="3.4424012"
       height="39.999989"
       width="39.999989"
       id="rect3667"
       style="fill:url(#linearGradient3739);fill-opacity:1;stroke:none" />
    <path
       sodipodi:nodetypes="cccc"
       inkscape:connector-curvature="0"
       id="path3669"
       d="m 3.4423873,43.694552 40.0000007,3.01e-4 c -20,-0.999999 -20,-0.999999 -40.0000017,0 z"
       style="opacity:0.35;fill:#000000;fill-opacity:1;stroke:none" />
    <path
       style="opacity:0.5;fill:#ffffff;fill-opacity:1;stroke:none"
       d="M 3.4423913,3.6947551 43.442388,3.6945549 c -19.999996,1.0000006 -19.999996,1.0000006 -39.9999977,0 z"
       id="path3671"
       inkscape:connector-curvature="0"
       sodipodi:nodetypes="cccc" />
  </g>
  <path
     d="m 20.02,12 c -2,0 -6,0.25 -6,3.25 L 14.01,28 l 7.01,0 0.006,6.75 c 0,3 4,3.25 6,3.25 2,0 6,-0.25 6,-3.25 l 0,-2.75 -6,0 0,-4 1.99,0 c 1.662,0 3,-1.115 3,-2.5 l 0,-1.5 2,0 c 1.108,0 2,0.669 2,1.5 l 0,2 c 0,0.831 -0.892,1.5 -2,1.5 l -5.99,0 0,2 6.99,0 c 1.662,0 3,-1.115 3,-2.5 l 0,-4 c 0,-1.385 -1.338,-2.5 -3,-2.5 l -3,0 0,-0.5 c 0,-1.385 -1.338,-2.5 -3,-2.5 l -8,0 0,2 7,0 c 0.872,0 1.604,0.418 1.879,1 l -8.879,0 0.004,4 -1,0 0,-8 6,0 0,-2.75 c 0,-3 -4,-3.25 -6,-3.25 z m 3,2 c 0.552,0 1,0.448 1,1 0,0.552 -0.448,1 -1,1 -0.552,0 -1,-0.448 -1,-1 0,-0.552 0.448,-1 1,-1 z m 4.01,10 2.99,0 0,0.5 c 0,0.831 -0.892,1.5 -2,1.5 l -0.99,0 z m 2.99,10 c 0.552,0 1,0.448 1,1 0,0.552 -0.448,1 -1,1 -0.552,0 -1,-0.448 -1,-1 0,-0.552 0.448,-1 1,-1 z"
     style="fill:#000;opacity:0.1;fill-opacity:1;stroke:none;fill-rule:nonzero"
     id="path27" />
  <path
     d="m 19.01,11 c -2,0 -6,0.25 -6,3.25 L 13,27 28.01,27 c -0.062,-0.743 -0.255,-2.02 -1,-2 l -8,0 0,-8 6,0 0,-2.75 c 0,-3 -4,-3.25 -6,-3.25 m 3,2 c 0.552,0 1,0.448 1,1 0,0.552 -0.448,1 -1,1 -0.552,0 -1,-0.448 -1,-1 0,-0.552 0.448,-1 1,-1 z"
     style="fill:#4085b0;fill-opacity:1;stroke:none;fill-rule:nonzero"
     id="path29" />
  <path
     d="m 20.01 21 0.01 12.75 c 0 3 4 3.25 6 3.25 2 0 6 -0.25 6 -3.25 l 0 -2.75 -6 0 0 -8 6.99 0 c 1.108 0 2 0.669 2 1.5 l 0 2 c 0 0.831 -0.892 1.5 -2 1.5 l -5.99 0 0 2 6.99 0 c 1.662 0 3 -1.115 3 -2.5 l 0 -4 c 0 -1.385 -1.338 -2.5 -3 -2.5 m -5 12 c 0.552 0 1 0.448 1 1 0 0.552 -0.448 1 -1 1 -0.552 0 -1 -0.448 -1 -1 0 -0.552 0.448 -1 1 -1 z"
     style="fill:#f9f747;fill-opacity:1;stroke:none;fill-rule:nonzero"
     id="path31" />
  <path
     d="m 27.01 27 1 0 c 1.662 0 3 -1.115 3 -2.5 l 0 -4 c 0 -1.385 -1.338 -2.5 -3 -2.5 l -8 0 0 2 7 0 c 1.108 0 2 0.669 2 1.5 l 0 2 c 0 0.831 -0.892 1.5 -2 1.5 z"
     style="fill:#4085b0;fill-opacity:1;stroke:none;fill-rule:nonzero"
     id="path33" />
  <path
     d="m 31.01 21 0 2 1 0 0 -2 z m -5 4 0 2 1 0 0 -2 z"
     style="fill:#000;opacity:0.1;fill-opacity:1;stroke:none"
     id="path35" />
</svg>
