<?xml version="1.0" encoding="UTF-8" standalone="no"?>
<svg
   xmlns:dc="http://purl.org/dc/elements/1.1/"
   xmlns:cc="http://creativecommons.org/ns#"
   xmlns:rdf="http://www.w3.org/1999/02/22-rdf-syntax-ns#"
   xmlns:svg="http://www.w3.org/2000/svg"
   xmlns="http://www.w3.org/2000/svg"
   xmlns:xlink="http://www.w3.org/1999/xlink"
   xmlns:sodipodi="http://sodipodi.sourceforge.net/DTD/sodipodi-0.dtd"
   xmlns:inkscape="http://www.inkscape.org/namespaces/inkscape"
   width="48"
   viewBox="0 0 13.546667 13.546667"
   height="48"
   id="svg2"
   version="1.1"
   inkscape:version="0.48.5 r10040"
   sodipodi:docname="braid.svg">
  <metadata
     id="metadata22">
    <rdf:RDF>
      <cc:Work
         rdf:about="">
        <dc:format>image/svg+xml</dc:format>
        <dc:type
           rdf:resource="http://purl.org/dc/dcmitype/StillImage" />
      </cc:Work>
    </rdf:RDF>
  </metadata>
  <sodipodi:namedview
     pagecolor="#ffffff"
     bordercolor="#666666"
     borderopacity="1"
     objecttolerance="10"
     gridtolerance="10"
     guidetolerance="10"
     inkscape:pageopacity="0"
     inkscape:pageshadow="2"
     inkscape:window-width="1366"
     inkscape:window-height="744"
     id="namedview20"
     showgrid="true"
     inkscape:zoom="6.604015"
     inkscape:cx="1.4650314"
     inkscape:cy="38.819974"
     inkscape:window-x="0"
     inkscape:window-y="24"
     inkscape:window-maximized="1"
     inkscape:current-layer="svg2"
     inkscape:snap-global="true">
    <inkscape:grid
       type="xygrid"
       id="grid2994" />
  </sodipodi:namedview>
  <defs
     id="defs4">
    <linearGradient
       gradientUnits="userSpaceOnUse"
       y2="1022.3622"
       x2="45"
       y1="1022.3622"
       x1="2.9999988"
       id="linearGradient7861"
       xlink:href="#linearGradient4708"
       inkscape:collect="always"
       gradientTransform="matrix(0.26878302,0,0,0.26878302,0.32254122,-269.63296)" />
    <linearGradient
       inkscape:collect="always"
       id="linearGradient4708">
      <stop
         style="stop-color:#47b73d;stop-opacity:1"
         offset="0"
         id="stop4710" />
      <stop
         style="stop-color:#ade355;stop-opacity:1"
         offset="1"
         id="stop4712" />
    </linearGradient>
  </defs>
  <rect
     style="fill:url(#linearGradient7861);fill-opacity:1;stroke:none"
     id="rect5237"
     width="11.288887"
     height="11.288887"
     x="1.1288904"
     y="1.1288984"
     ry="0" />
  <path
     style="fill:#000000"
     d=""
     id="path906"
     inkscape:connector-curvature="0" />
  <g
     style="font-size:2.82222223px;font-style:normal;font-variant:normal;font-weight:normal;font-stretch:normal;line-height:125%;letter-spacing:0px;word-spacing:0px;opacity:0.5;fill:#000000;fill-opacity:1;stroke:none;font-family:QUAKE;-inkscape-font-specification:QUAKE"
     id="text2996"
     transform="matrix(0.95238078,0,0,0.95238078,0.37883204,0.19620194)">
    <path
       d="m 2.0936484,6.0311009 c -3e-7,-0.137346 -0.051741,-0.2173088 -0.1552223,-0.2398888 l 0.6321778,0 c -0.077141,0.016935 -0.1307635,0.089372 -0.1608667,0.2173111 l 0,0.6293555 c 0.01317,0.1373494 0.08937,0.2238975 0.2286001,0.2596445 C 2.5781293,6.9238652 2.5263884,6.9643172 2.483115,7.0188787 2.43984,7.0734427 2.41444,7.1317685 2.406915,7.1938565 l 0,0.6604 c -5e-7,0.045156 0.015051,0.083726 0.045156,0.1157111 0.031985,0.030104 0.070555,0.048919 0.1157111,0.056444 L 1.9356039,8.0235898 C 2.0259149,8.012301 2.0785963,7.9567973 2.0936484,7.8570787 l 0,-1.8259778 M 3.295915,6.8777676 C 3.4106838,6.8363762 3.5066393,6.7620578 3.5837817,6.6548121 3.6628021,6.5475691 3.7023132,6.4365618 3.702315,6.3217898 3.7023132,6.1806806 3.6449281,6.0546214 3.5301595,5.9436121 3.417269,5.8326069 3.283684,5.7771032 3.1294039,5.7771009 c -0.043275,2.3e-6 -0.085609,0.00471 -0.127,0.014111 0.1110062,0.030106 0.2003764,0.096898 0.2681111,0.2003777 0.067732,0.101602 0.1015985,0.2116685 0.1016,0.3302 -1.5e-6,0.1260609 -0.037631,0.2436534 -0.1128889,0.3527778 -0.079023,0.1166531 -0.1787419,0.1872086 -0.2991555,0.2116667 0.020695,0.00565 0.043273,0.010349 0.067733,0.014111 0.3085615,0.099719 0.4628428,0.2775194 0.4628445,0.5334 -1.7e-6,0.1486375 -0.054565,0.2746966 -0.1636889,0.3781778 -0.09972,0.094074 -0.2351865,0.1589852 -0.4064,0.1947333 0.071495,0.018815 0.1439321,0.028222 0.2173111,0.028222 0.2069615,0 0.3800576,-0.054563 0.5192889,-0.1636889 0.139228,-0.1110066 0.2088427,-0.253999 0.2088447,-0.4289772 -2e-6,-0.1523993 -0.054565,-0.2793992 -0.1636889,-0.381 C 3.6007133,6.9652576 3.4652468,6.9041095 3.295915,6.8777676"
       id="path3769"
       inkscape:connector-curvature="0" />
    <path
       d="m 4.4082676,7.732901 c -5e-7,0.1204149 0.05174,0.1919112 0.1552222,0.2144888 l -0.6124222,0 c 0.086548,-0.022578 0.137348,-0.094074 0.1524,-0.2144888 l 0,-1.7300223 c -2e-7,-0.1241756 -0.049859,-0.1966126 -0.1495778,-0.2173111 l 0.6124222,-0.00282 c -0.07526,0.016936 -0.1270005,0.087491 -0.1552222,0.2116667 l 0,0.6096 c -5e-7,0.1166531 0.076199,0.1994382 0.2286,0.2483555 C 4.4948152,6.884354 4.4176745,6.9821909 4.4082676,7.1458787 l 0,0.5870223 m 0.9144,-0.9341556 c 0.022576,-0.011288 0.046095,-0.022576 0.070556,-0.033867 0.069613,-0.041391 0.1260577,-0.092191 0.1693334,-0.1524 C 5.624644,6.5296944 5.653807,6.4375022 5.650046,6.3359006 5.6425177,6.1853843 5.5757252,6.0546214 5.4496676,5.9436121 5.3254884,5.8326069 5.1853182,5.7771032 5.0291565,5.7771009 c -0.063971,2.3e-6 -0.1063047,0.00188 -0.127,0.00564 0.1241767,0.00941 0.2295395,0.068676 0.3160888,0.1778 0.086547,0.1072464 0.1298209,0.2257796 0.1298223,0.3556 -1.4e-6,0.1204164 -0.053624,0.2342459 -0.1608667,0.3414889 -0.097838,0.095957 -0.2116677,0.1608679 -0.3414889,0.1947333 l 0.042333,0 0,0 c -0.016934,1.2e-6 -0.03669,9.419e-4 -0.059267,0.00282 0.02634,0.00753 0.052681,0.014112 0.079022,0.019756 0.1862655,0.067734 0.3499543,0.1514603 0.4910667,0.2511778 0.3386649,0.2408303 0.5362202,0.5437485 0.5926666,0.9087555 0.00188,-0.03763 0.00282,-0.075259 0.00282,-0.1128889 C 5.9943544,7.5983755 5.9087471,7.3283831 5.7375342,7.1120121 5.6152363,6.9558502 5.4769475,6.8514281 5.3226676,6.7987454"
       id="path3771"
       inkscape:connector-curvature="0" />
    <path
       d="m 7.780162,8.0348787 0.6632222,0 C 8.4132782,8.0198269 8.3841153,7.9981899 8.3558953,7.9699676 8.2862783,7.9059974 8.2251302,7.8185086 8.1724509,7.707501 8.0576785,7.4572645 7.9306787,7.1872722 7.7914509,6.8975232 7.7858047,6.8862354 7.7575825,6.8260281 7.7067842,6.7169009 l 0.00282,0 -0.3979333,-0.9398 L 7.145162,6.2117232 C 7.1169387,6.2813397 7.0548499,6.4262137 6.9588953,6.6463454 6.9344352,6.7103171 6.8535316,6.8899984 6.7161842,7.1853898 6.6522133,7.3321461 6.5901244,7.4610275 6.5299175,7.5720343 6.3888061,7.8392049 6.2721544,7.9934862 6.179962,8.0348787 l 0.4515555,0 C 6.6108207,8.0311158 6.5920059,8.0235899 6.5750731,8.012301 6.5355615,7.9897232 6.512043,7.9549158 6.5045175,7.9078787 L 6.5214509,7.809101 C 6.5647245,7.6604643 6.6183466,7.5315829 6.6823175,7.4224565 6.7425243,7.3415535 6.8516501,7.3011017 7.0096953,7.301101 6.8892797,7.2954572 6.8290724,7.249361 6.8290731,7.1628121 c -7e-7,-0.02634 0.00658,-0.055503 0.019756,-0.087489 L 6.9447842,6.8297898 C 6.9880574,6.7375985 7.0313314,6.645406 7.0746064,6.5532121 7.1404572,6.4252729 7.1865535,6.3688285 7.2128953,6.3838787 c 0.033866,0.018816 0.086547,0.1100682 0.1580445,0.2737556 0.056443,0.1354679 0.1119467,0.2699937 0.1665111,0.4035778 0.01505,0.030105 0.022576,0.058327 0.022578,0.084667 -1.4e-6,0.039512 -0.016935,0.072438 -0.0508,0.098778 -0.024461,0.016934 -0.056446,0.031045 -0.095956,0.042333 -0.031986,0.00941 -0.047979,0.014112 -0.047978,0.014111 0.00188,7e-7 0.012228,9.414e-4 0.031045,0.00282 0.047036,0.00188 0.097836,0.00565 0.1524,0.011289 0.030102,0.00941 0.059265,0.025401 0.087489,0.047978 0.067732,0.050801 0.1241762,0.1307635 0.1693334,0.2398889 l 0.1128889,0.2765778 c 0.011287,0.097837 -0.034809,0.1495778 -0.1382889,0.1552222"
       id="path3773"
       inkscape:connector-curvature="0" />
    <path
       d="m 9.0934211,5.9972343 c 0.018814,-0.039509 0.036688,-0.073376 0.053622,-0.1016 0.041392,-0.071494 0.075259,-0.1110052 0.1016,-0.1185334 l -0.6378222,0 c 0.1034813,0.02258 0.1552219,0.097839 0.1552222,0.2257778 l 0.00282,1.8118667 c -0.018815,0.039511 -0.036689,0.073378 -0.053622,0.1016 -0.041393,0.071496 -0.075259,0.1110074 -0.1016,0.1185333 l 0.6378222,0 C 9.1479834,8.012301 9.095302,7.9370418 9.0934211,7.809101 l 0,-1.8118667"
       id="path3775"
       inkscape:connector-curvature="0" />
    <path
       d="m 11.099933,6.9398565 c 0.0094,-0.2596431 -0.04139,-0.4910651 -0.1524,-0.6942667 -0.114772,-0.2107239 -0.278461,-0.365946 -0.491067,-0.4656666 0.297273,0.024462 0.546569,0.1486391 0.747889,0.3725333 0.201316,0.223898 0.297272,0.4863644 0.287867,0.7874 -0.0094,0.2878675 -0.113832,0.5362228 -0.313267,0.7450667 -0.199439,0.2069631 -0.441209,0.3217333 -0.725311,0.3443111 0.201317,-0.094074 0.358421,-0.2389479 0.471311,-0.4346222 0.109124,-0.1881476 0.16745,-0.4063992 0.174978,-0.6547556 M 9.9202438,5.9972343 c 0.018814,-0.039509 0.036688,-0.073376 0.053622,-0.1016 0.041392,-0.071494 0.075259,-0.1110052 0.1016002,-0.1185334 l -0.6378224,0 c 0.1034813,0.02258 0.155222,0.097839 0.1552222,0.2257778 l 0.00282,1.8118667 c -0.018815,0.039511 -0.036689,0.073378 -0.053622,0.1016 -0.041393,0.071496 -0.075259,0.1110074 -0.1016,0.1185333 l 0.6378222,0 C 9.9748062,8.012301 9.9221247,7.9370418 9.9202438,7.809101 l 0,-1.8118667"
       id="path3777"
       inkscape:connector-curvature="0" />
  </g>
  <path
     style="opacity:0.5;fill:#000000;fill-opacity:1;stroke:none"
     d="m 1.1288892,12.417778 0,0 c 5.6444446,-0.282222 5.6444446,-0.282222 11.2888888,0 z"
     id="path3257"
     inkscape:connector-curvature="0"
     sodipodi:nodetypes="cccc" />
  <path
     sodipodi:nodetypes="cccc"
     inkscape:connector-curvature="0"
     id="path4027"
     d="m 1.1288892,1.1288891 0,0 c 5.6444446,0.2822223 5.6444446,0.2822223 11.2888888,0 z"
     style="opacity:0.75;fill:#ffffff;fill-opacity:1;stroke:none" />
</svg>
