<?xml version="1.0" encoding="UTF-8" standalone="no"?>
<svg
   xmlns:dc="http://purl.org/dc/elements/1.1/"
   xmlns:cc="http://creativecommons.org/ns#"
   xmlns:rdf="http://www.w3.org/1999/02/22-rdf-syntax-ns#"
   xmlns:svg="http://www.w3.org/2000/svg"
   xmlns="http://www.w3.org/2000/svg"
   xmlns:xlink="http://www.w3.org/1999/xlink"
   xmlns:sodipodi="http://sodipodi.sourceforge.net/DTD/sodipodi-0.dtd"
   xmlns:inkscape="http://www.inkscape.org/namespaces/inkscape"
   viewBox="0 0 48 48"
   id="svg2"
   version="1.1"
   inkscape:version="0.91 r13725"
   sodipodi:docname="brainworkshop.svg">
  <metadata
     id="metadata47">
    <rdf:RDF>
      <cc:Work
         rdf:about="">
        <dc:format>image/svg+xml</dc:format>
        <dc:type
           rdf:resource="http://purl.org/dc/dcmitype/StillImage" />
      </cc:Work>
    </rdf:RDF>
  </metadata>
  <sodipodi:namedview
     pagecolor="#ffffff"
     bordercolor="#666666"
     borderopacity="1"
     objecttolerance="10"
     gridtolerance="10"
     guidetolerance="10"
     inkscape:pageopacity="0"
     inkscape:pageshadow="2"
     inkscape:window-width="686"
     inkscape:window-height="485"
     id="namedview45"
     showgrid="false"
     inkscape:zoom="4.9166667"
     inkscape:cx="24"
     inkscape:cy="24"
     inkscape:window-x="440"
     inkscape:window-y="108"
     inkscape:window-maximized="0"
     inkscape:current-layer="svg2" />
  <defs
     id="defs4">
    <linearGradient
       id="linearGradient3764"
       y1="47"
       x2="0"
       y2="1"
       gradientUnits="userSpaceOnUse">
      <stop
         style="stop-color:#575757;stop-opacity:1"
         id="stop7" />
      <stop
         offset="1"
         style="stop-color:#616161;stop-opacity:1"
         id="stop9" />
    </linearGradient>
    <linearGradient
       gradientUnits="userSpaceOnUse"
       y2="-527.79797"
       x2="431.57144"
       y1="-527.79797"
       x1="379.57144"
       id="linearGradient4172"
       xlink:href="#linearGradient5277"
       inkscape:collect="always"
       gradientTransform="matrix(0.83333307,0,0,0.83333307,-317.03371,412.80361)" />
    <linearGradient
       id="linearGradient5277">
      <stop
         id="stop5279"
         offset="0"
         style="stop-color:#333333;stop-opacity:1" />
      <stop
         id="stop5281"
         offset="1"
         style="stop-color:#666666;stop-opacity:1" />
    </linearGradient>
  </defs>
  <g
     id="g3208"
     transform="translate(0.55761199,0.30529681)">
    <rect
       transform="scale(1,-1)"
       ry="0"
       y="-43.694542"
       x="3.4424012"
       height="39.999989"
       width="39.999989"
       id="rect2991-1-7"
       style="fill:url(#linearGradient4172);fill-opacity:1;stroke:none" />
    <path
       sodipodi:nodetypes="cccc"
       inkscape:connector-curvature="0"
       id="path3800"
       d="m 3.4423873,43.694552 40.0000007,3.01e-4 c -20,-0.999999 -20,-0.999999 -40.0000017,0 z"
       style="opacity:0.35;fill:#000000;fill-opacity:1;stroke:none" />
    <path
       style="opacity:0.5;fill:#ffffff;fill-opacity:1;stroke:none"
       d="M 3.4423913,3.6947551 43.442388,3.6945549 c -19.999996,1.0000006 -19.999996,1.0000006 -39.9999977,0 z"
       id="path3804"
       inkscape:connector-curvature="0"
       sodipodi:nodetypes="cccc" />
  </g>
  <g
     transform="matrix(1.0259162,-0.22357668,0.23317416,1.124724,-5.8287907,3.9769849)"
     id="g27">
    <g
       id="g29">
      <!-- color: #4b9cbf -->
      <g
         id="g31">
        <path
           d="m 28.713 14.619 c 0 0 -5.125 -0.753 -5.313 -0.804 -0.187 -0.051 2.102 1.198 2.102 1.198 l 0.285 1.877 -3.262 2.608 0.135 3.5 2.934 -1.501 4.675 -1.931 4.02 0.398 1.132 -0.355 -2.219 -2.719 -4.491 -2.27 z m -6.574 -0.795 -3.216 0.344 -3.402 2.571 -2.789 3.702 0.433 3.755 1.745 2.617 2.977 -0.148 3.945 -3.446 -0.022 -3.913 2.737 -2.469 0.047 -1.68 -2.456 -1.332 z m 12.284 6.915 -4.681 0.148 2.223 1.878 0.425 3.801 4.349 -0.245 -0.664 -4.743 -1.652 -0.839 z m -6.374 0.747 -4.675 2.023 -4.066 2.469 -0.142 3.207 3.969 1.383 2.93 -0.687 4.395 -2.172 1.132 -2.125 -0.943 -2.567 -2.599 -1.531 z m 7.882 5.785 -4.579 0.43 -3.94 2.483 1.908 2.336 2.219 -0.122 2.294 -0.878 c 0 0 1.089 -0.798 1.132 -1.095 0.051 -0.293 0.967 -3.156 0.967 -3.156 z"
           style="fill:#000;opacity:0.1;fill-opacity:1;stroke:none;fill-rule:nonzero"
           id="path33" />
        <path
           d="m 12.426 23.16 1.746 2.617 2.977 -0.148 3.945 -3.445 -0.023 -3.914 2.738 -2.469 0.047 -1.68 -2.457 -1.332 -3.215 0.344 -3.402 2.57 -2.789 3.703 m 0.434 3.754"
           style="fill:#a9b2ed;fill-opacity:1;stroke:none;fill-rule:nonzero"
           id="path35" />
        <path
           d="m 18.426 28.15 3.969 1.383 2.93 -0.688 4.395 -2.172 1.133 -2.125 -0.945 -2.566 -2.598 -1.531 -4.676 2.023 -4.066 2.469 m -0.141 3.211"
           style="fill:#7abb70;fill-opacity:1;stroke:none;fill-rule:nonzero"
           id="path37" />
        <path
           d="m 36 25.285 -4.348 0.246 -0.426 -3.801 -2.223 -1.879 4.68 -0.148 1.652 0.84 m 0.664 4.742"
           style="fill:#f8f864;fill-opacity:1;stroke:none;fill-rule:nonzero"
           id="path39" />
        <path
           d="m 21.922 21.961 -0.137 -3.5 3.262 -2.609 -0.285 -1.875 c 0 0 -2.289 -1.25 -2.102 -1.199 0.188 0.051 5.313 0.805 5.313 0.805 l 4.492 2.27 2.219 2.719 -1.133 0.355 -4.02 -0.398 -4.676 1.93 m -2.938 1.512"
           style="fill:#e67175;fill-opacity:1;stroke:none;fill-rule:nonzero"
           id="path41" />
        <path
           d="m 26.672 29.15 3.941 -2.484 4.578 -0.43 c 0 0 -0.914 2.863 -0.965 3.156 -0.043 0.297 -1.133 1.094 -1.133 1.094 l -2.293 0.879 -2.219 0.121 m -1.91 -2.336"
           style="fill:#e891ea;fill-opacity:1;stroke:none;fill-rule:nonzero"
           id="path43" />
      </g>
    </g>
  </g>
</svg>
