<?xml version="1.0" encoding="UTF-8" standalone="no"?>
<svg
   xmlns:dc="http://purl.org/dc/elements/1.1/"
   xmlns:cc="http://creativecommons.org/ns#"
   xmlns:rdf="http://www.w3.org/1999/02/22-rdf-syntax-ns#"
   xmlns:svg="http://www.w3.org/2000/svg"
   xmlns="http://www.w3.org/2000/svg"
   xmlns:xlink="http://www.w3.org/1999/xlink"
   xmlns:sodipodi="http://sodipodi.sourceforge.net/DTD/sodipodi-0.dtd"
   xmlns:inkscape="http://www.inkscape.org/namespaces/inkscape"
   viewBox="0 0 48 48"
   id="svg2"
   version="1.1"
   inkscape:version="0.91 r13725"
   sodipodi:docname="brave.svg">
  <metadata
     id="metadata40">
    <rdf:RDF>
      <cc:Work
         rdf:about="">
        <dc:format>image/svg+xml</dc:format>
        <dc:type
           rdf:resource="http://purl.org/dc/dcmitype/StillImage" />
      </cc:Work>
    </rdf:RDF>
  </metadata>
  <sodipodi:namedview
     pagecolor="#ffffff"
     bordercolor="#666666"
     borderopacity="1"
     objecttolerance="10"
     gridtolerance="10"
     guidetolerance="10"
     inkscape:pageopacity="0"
     inkscape:pageshadow="2"
     inkscape:window-width="686"
     inkscape:window-height="485"
     id="namedview38"
     showgrid="false"
     inkscape:zoom="4.9166667"
     inkscape:cx="24"
     inkscape:cy="24"
     inkscape:window-x="475"
     inkscape:window-y="137"
     inkscape:window-maximized="0"
     inkscape:current-layer="svg2" />
  <defs
     id="defs4">
    <linearGradient
       id="linearGradient3825"
       x1="1"
       x2="47"
       gradientUnits="userSpaceOnUse"
       gradientTransform="matrix(0,-1,1,0,0,48)">
      <stop
         style="stop-color:#f4ed74;stop-opacity:1"
         id="stop7" />
      <stop
         offset="1"
         style="stop-color:#f6ef86;stop-opacity:1"
         id="stop9" />
    </linearGradient>
    <linearGradient
       id="linearGradient4202"
       y1="33"
       x2="0"
       y2="7"
       gradientUnits="userSpaceOnUse"
       gradientTransform="translate(37.000026,3.9999998)">
      <stop
         style="stop-color:#f0772f;stop-opacity:1"
         id="stop12" />
      <stop
         offset="1"
         style="stop-color:#f19039;stop-opacity:1"
         id="stop14" />
    </linearGradient>
    <linearGradient
       inkscape:collect="always"
       xlink:href="#linearGradient3466"
       id="linearGradient3335"
       gradientUnits="userSpaceOnUse"
       gradientTransform="matrix(0.83333307,0,0,0.83333307,-317.03371,412.80361)"
       x1="379.57144"
       y1="-527.79797"
       x2="431.57144"
       y2="-527.79797" />
    <linearGradient
       id="linearGradient3466">
      <stop
         style="stop-color:#fbc02d;stop-opacity:1"
         offset="0"
         id="stop3468" />
      <stop
         style="stop-color:#fff176;stop-opacity:1"
         offset="1"
         id="stop3470" />
    </linearGradient>
  </defs>
  <g
     transform="translate(0.55761199,0.30529681)"
     id="g3313">
    <rect
       style="fill:url(#linearGradient3335);fill-opacity:1;stroke:none"
       id="rect3315"
       width="39.999989"
       height="39.999989"
       x="3.4424012"
       y="-43.694542"
       ry="0"
       transform="scale(1,-1)" />
    <path
       style="opacity:0.35;fill:#000000;fill-opacity:1;stroke:none"
       d="m 3.4423873,43.694552 40.0000007,3.01e-4 c -20,-0.999999 -20,-0.999999 -40.0000017,0 z"
       id="path3317"
       inkscape:connector-curvature="0"
       sodipodi:nodetypes="cccc" />
    <path
       sodipodi:nodetypes="cccc"
       inkscape:connector-curvature="0"
       id="path3319"
       d="M 3.4423913,3.6947551 43.442388,3.6945549 c -19.999996,1.0000006 -19.999996,1.0000006 -39.9999977,0 z"
       style="opacity:0.5;fill:#ffffff;fill-opacity:1;stroke:none" />
  </g>
  <path
     d="m 21 12 c -0.5 0 -2.25 2 -2.5 2 l -1.25 0 c -0.5 0 -2.25 1.75 -2.25 2.25 l 0 1.5 c 0 0.25 -1.989 2 -2 2.5 -0.011 0.5 3.5 12.25 4 12.75 0.5 0.5 6 5 7.5 5 0.333 0 0.667 0 1 0 1.5 0 7 -4.5 7.5 -5 0.5 -0.5 4.01 -12.25 4 -12.75 -0.011 -0.497 -2 -2.25 -2 -2.5 l 0 -1.5 c 0 -0.5 -1.75 -2.25 -2.25 -2.25 l -1.25 0 c -0.25 0 -2 -2 -2.5 -2 -2.667 0 -5.333 0 -8 0 z"
     style="fill:#000;opacity:0.1;fill-opacity:1;stroke:none"
     id="path30" />
  <path
     d="m 20 11 c -0.5 0 -2.25 2 -2.5 2 l -1.25 0 c -0.5 0 -2.25 1.75 -2.25 2.25 l 0 1.5 c 0 0.25 -1.989 2 -2 2.5 -0.011 0.5 3.5 12.25 4 12.75 0.5 0.5 6 5 7.5 5 0.333 0 0.667 0 1 0 1.5 0 7 -4.5 7.5 -5 0.5 -0.5 4.01 -12.25 4 -12.75 -0.011 -0.497 -2 -2.25 -2 -2.5 l 0 -1.5 c 0 -0.5 -1.75 -2.25 -2.25 -2.25 l -1.25 0 c -0.25 0 -2 -2 -2.5 -2 -2.667 0 -5.333 0 -8 0 z"
     style="fill:url(#linearGradient4202);opacity:1;fill-opacity:1;stroke:none"
     id="path32" />
  <path
     d="m 25 15.492 c -0.498 0 -0.994 0.171 -1.5 0.508 c -1.5 1 -3.5 -0.5 -4 -0.5 c -0.5 0 -3.5 3.643 -3.5 5 0 1 3.75 3.3 3.75 4 c 0 0.5 -0.75 0.74 -0.75 1.801 0 0.699 1 1.949 2 1.949 c 1 0 3.502 -1.963 3.5 -2.449 l 0 -0.301 c 0 -0.6 -2.25 -1.356 -2.25 -2.5 0 -1 0.75 -1.37 0.75 -2.5 c 0 -0.972 -2 -1.25 -3.5 -1.5 c -0.5 0 1.5 -1.645 4.25 0.133 0.696 0.45 -0.75 2.229 -0.5 3.867 0.375 0.35 1.063 0.525 1.75 0.525 0.688 0 1.375 -0.175 1.75 -0.525 0.25 -1.638 -1.196 -3.417 -0.5 -3.867 2.75 -1.778 4.75 -0.133 4.25 -0.133 -1.5 0.25 -3.5 0.528 -3.5 1.5 0 1.13 0.75 1.5 0.75 2.5 0 1.144 -2.25 1.9 -2.25 2.5 l 0 0.301 c -0.002 0.486 2.5 2.449 3.5 2.449 1 0 2 -1.25 2 -1.949 0 -1.06 -0.75 -1.301 -0.75 -1.801 0 -0.7 3.75 -3 3.75 -4 0 -1.357 -3 -5 -3.5 -5 -0.5 0 -2.5 1.5 -4 0.5 -0.506 -0.337 -1 -0.508 -1.5 -0.508 z m 0 11.908 c -1 0 -3.25 1.55 -3.25 1.85 0 0.3 2.25 2.75 3.25 2.75 1 0 3.25 -2.45 3.25 -2.75 0 -0.3 -2.25 -1.85 -3.25 -1.85 z"
     style="fill:#000;opacity:0.1;fill-opacity:1;stroke:none"
     id="path34" />
  <path
     d="m 24 14.492 c -0.498 0 -0.994 0.171 -1.5 0.508 c -1.5 1 -3.5 -0.5 -4 -0.5 c -0.5 0 -3.5 3.643 -3.5 5 0 1 3.75 3.3 3.75 4 c 0 0.5 -0.75 0.74 -0.75 1.801 0 0.699 1 1.949 2 1.949 c 1 0 3.502 -1.963 3.5 -2.449 l 0 -0.301 c 0 -0.6 -2.25 -1.356 -2.25 -2.5 0 -1 0.75 -1.37 0.75 -2.5 c 0 -0.972 -2 -1.25 -3.5 -1.5 c -0.5 0 1.5 -1.645 4.25 0.133 0.696 0.45 -0.75 2.229 -0.5 3.867 0.375 0.35 1.063 0.525 1.75 0.525 0.688 0 1.375 -0.175 1.75 -0.525 0.25 -1.638 -1.196 -3.417 -0.5 -3.867 2.75 -1.778 4.75 -0.133 4.25 -0.133 -1.5 0.25 -3.5 0.528 -3.5 1.5 0 1.13 0.75 1.5 0.75 2.5 0 1.144 -2.25 1.9 -2.25 2.5 l 0 0.301 c -0.002 0.486 2.5 2.449 3.5 2.449 1 0 2 -1.25 2 -1.949 0 -1.06 -0.75 -1.301 -0.75 -1.801 0 -0.7 3.75 -3 3.75 -4 0 -1.357 -3 -5 -3.5 -5 -0.5 0 -2.5 1.5 -4 0.5 -0.506 -0.337 -1 -0.508 -1.5 -0.508 z m 0 11.908 c -1 0 -3.25 1.55 -3.25 1.85 0 0.3 2.25 2.75 3.25 2.75 1 0 3.25 -2.45 3.25 -2.75 0 -0.3 -2.25 -1.85 -3.25 -1.85 z"
     style="fill:#f9f9f9;opacity:1;fill-opacity:1;stroke:none"
     id="path36" />
</svg>
