<?xml version="1.0" encoding="UTF-8" standalone="no"?>
<svg
   xmlns:dc="http://purl.org/dc/elements/1.1/"
   xmlns:cc="http://creativecommons.org/ns#"
   xmlns:rdf="http://www.w3.org/1999/02/22-rdf-syntax-ns#"
   xmlns:svg="http://www.w3.org/2000/svg"
   xmlns="http://www.w3.org/2000/svg"
   xmlns:xlink="http://www.w3.org/1999/xlink"
   xmlns:sodipodi="http://sodipodi.sourceforge.net/DTD/sodipodi-0.dtd"
   xmlns:inkscape="http://www.inkscape.org/namespaces/inkscape"
   viewBox="0 0 48 48"
   id="svg2"
   version="1.1"
   inkscape:version="0.91 r13725"
   sodipodi:docname="builder.svg">
  <metadata
     id="metadata85">
    <rdf:RDF>
      <cc:Work
         rdf:about="">
        <dc:format>image/svg+xml</dc:format>
        <dc:type
           rdf:resource="http://purl.org/dc/dcmitype/StillImage" />
      </cc:Work>
    </rdf:RDF>
  </metadata>
  <sodipodi:namedview
     pagecolor="#ffffff"
     bordercolor="#666666"
     borderopacity="1"
     objecttolerance="10"
     gridtolerance="10"
     guidetolerance="10"
     inkscape:pageopacity="0"
     inkscape:pageshadow="2"
     inkscape:window-width="1366"
     inkscape:window-height="705"
     id="namedview83"
     showgrid="false"
     inkscape:zoom="4.9166667"
     inkscape:cx="26.998364"
     inkscape:cy="30.037413"
     inkscape:window-x="0"
     inkscape:window-y="28"
     inkscape:window-maximized="1"
     inkscape:current-layer="svg2" />
  <defs
     id="defs4">
    <linearGradient
       id="linearGradient3984"
       x1="0.938"
       x2="46.938"
       gradientUnits="userSpaceOnUse">
      <stop
         style="stop-color:#5faee1;stop-opacity:1"
         id="stop7" />
      <stop
         offset="1"
         style="stop-color:#4ea5de;stop-opacity:1"
         id="stop9" />
    </linearGradient>
    <linearGradient
       id="linearGradient3406">
      <stop
         style="stop-color:#0288d1;stop-opacity:1"
         offset="0"
         id="stop3408" />
      <stop
         style="stop-color:#29b6f6;stop-opacity:1"
         offset="1"
         id="stop3410" />
    </linearGradient>
    <linearGradient
       inkscape:collect="always"
       xlink:href="#linearGradient3859"
       id="linearGradient3739"
       gradientUnits="userSpaceOnUse"
       gradientTransform="matrix(0.83333307,0,0,0.83333307,-317.03371,412.80361)"
       x1="379.57144"
       y1="-527.79797"
       x2="431.57144"
       y2="-527.79797" />
    <linearGradient
       id="linearGradient3859">
      <stop
         id="stop3861"
         offset="0"
         style="stop-color:#cccccc;stop-opacity:1" />
      <stop
         id="stop3863"
         offset="1"
         style="stop-color:#ececec;stop-opacity:1" />
    </linearGradient>
  </defs>
  <g
     id="g3665"
     transform="translate(0.55761199,0.30529681)">
    <rect
       transform="scale(1,-1)"
       ry="0"
       y="-43.694542"
       x="3.4424012"
       height="39.999989"
       width="39.999989"
       id="rect3667"
       style="fill:url(#linearGradient3739);fill-opacity:1;stroke:none" />
    <path
       sodipodi:nodetypes="cccc"
       inkscape:connector-curvature="0"
       id="path3669"
       d="m 3.4423873,43.694552 40.0000007,3.01e-4 c -20,-0.999999 -20,-0.999999 -40.0000017,0 z"
       style="opacity:0.35;fill:#000000;fill-opacity:1;stroke:none" />
    <path
       style="opacity:0.5;fill:#ffffff;fill-opacity:1;stroke:none"
       d="M 3.4423913,3.6947551 43.442388,3.6945549 c -19.999996,1.0000006 -19.999996,1.0000006 -39.9999977,0 z"
       id="path3671"
       inkscape:connector-curvature="0"
       sodipodi:nodetypes="cccc" />
  </g>
  <path
     d="m 24.5 13 c -1.657 0 -3 1.343 -3 3 0 0.709 0.245 1.362 0.656 1.875 l -2.375 5.188 c -1.614 0.261 -2.944 1.381 -3.5 2.875 -0.375 -0.031 -0.741 -0.044 -1.063 -0.031 -0.699 0.028 -1.274 0.159 -1.75 0.375 -0.82 0.372 -1.316 1.03 -1.375 1.719 -0.009 0.111 -0.014 0.233 0 0.344 0.101 0.799 0.812 1.435 1.813 1.594 0.712 0.113 1.588 -0.005 2.594 -0.406 0.518 1.019 1.411 1.799 2.5 2.188 l 0 0.281 -3 2 -1 0 0 3 11 0 0 -3 -1 0 -3 -2 0 -0.281 c 1.742 -0.621 3 -2.264 3 -4.219 0 -1.153 -0.443 -2.204 -1.156 -3 l 1.625 -5.688 c 0.238 -0.083 0.481 -0.176 0.688 -0.313 0.567 0.701 1.096 1.346 1.563 1.844 0.677 0.723 1.251 1.235 1.906 1.438 0.328 0.101 0.707 0.101 1.031 -0.031 0.324 -0.132 0.576 -0.375 0.813 -0.688 0.391 -0.515 0.745 -1.252 1.094 -2.25 0.141 0.058 0.285 0.094 0.438 0.125 l 0 6.06 -2 0 0 2 1 0 -1.313 1.531 -0.563 0.656 1.656 2 -0.344 -2.031 0.031 0 1 -1.156 0.531 0 0 1 0.5 1.469 0.5 -1.469 0 -1 0.531 0 1 1.156 -0.313 2.031 1.625 -2 -0.531 -0.656 -1.313 -1.531 1 0 0 -2 -0.406 0 c 0.233 -1.654 0.911 -3.679 1.219 -4.188 0.094 -0.155 0.205 -0.317 0.25 -0.531 0.045 -0.214 0.005 -0.467 -0.094 -0.688 -0.17 -0.38 -0.779 -1.196 -1.375 -1.75 0.247 -0.388 0.406 -0.85 0.406 -1.344 0 -1.381 -1.119 -2.5 -2.5 -2.5 -1.071 0 -1.987 0.679 -2.344 1.625 l -3.813 -0.5 c -0.38 -1.221 -1.498 -2.125 -2.844 -2.125 z m 3 3.063 3.531 0.156 c -0.011 0.094 -0.031 0.184 -0.031 0.281 0 0.151 0.037 0.294 0.063 0.438 l -3.656 -0.219 c 0.053 -0.214 0.089 -0.427 0.094 -0.656 z m -0.438 1.469 4.188 0.031 c 0.113 0.238 0.258 0.467 0.438 0.656 -0.359 1.078 -0.707 1.863 -1 2.25 -0.165 0.218 -0.301 0.301 -0.406 0.344 -0.106 0.043 -0.19 0.079 -0.344 0.031 -0.307 -0.095 -0.833 -0.508 -1.469 -1.188 -0.445 -0.476 -0.974 -1.136 -1.563 -1.844 0.064 -0.085 0.101 -0.189 0.156 -0.281 z m 7.813 1.063 c 0.571 0.518 1.143 1.307 1.188 1.406 0.025 0.055 0.007 0.031 0 0.063 -0.007 0.031 -0.024 0.134 -0.094 0.25 -0.237 0.391 -1.106 2.779 -1.375 4.688 l -0.594 0 0 -6.06 c 0.312 -0.064 0.617 -0.176 0.875 -0.344 z m -19.594 8.313 c 0.236 -0.009 0.495 0.024 0.781 0.063 -0.021 0.177 -0.063 0.349 -0.063 0.531 0 0.356 0.047 0.699 0.125 1.031 -0.885 0.364 -1.576 0.483 -2.063 0.406 -0.684 -0.109 -0.93 -0.448 -0.969 -0.75 -0.007 -0.057 -0.008 -0.126 0 -0.188 0.036 -0.268 0.237 -0.565 0.781 -0.813 0.335 -0.152 0.813 -0.257 1.406 -0.281 z"
     style="visibility:visible;fill:#000;opacity:0.1;fill-opacity:1;stroke:none;display:inline;color:#000"
     id="path23" />
  <g
     transform="translate(1.6625401e-4,0)"
     id="g29">
    <path
       d="m 25.13 15.906 -0.75 0.625 c 0.925 1.127 1.667 2.089 2.344 2.813 0.677 0.723 1.251 1.235 1.906 1.438 0.328 0.101 0.707 0.101 1.031 -0.031 0.324 -0.132 0.576 -0.375 0.813 -0.688 0.474 -0.625 0.887 -1.549 1.313 -2.906 l -0.969 -0.313 c -0.411 1.312 -0.794 2.189 -1.125 2.625 -0.165 0.218 -0.301 0.301 -0.406 0.344 -0.106 0.043 -0.19 0.079 -0.344 0.031 -0.307 -0.095 -0.833 -0.508 -1.469 -1.188 -0.636 -0.679 -1.417 -1.62 -2.344 -2.75 z"
       style="visibility:visible;fill:#0e334c;opacity:1;fill-opacity:1;stroke:none;display:inline;color:#000"
       id="path31" />
    <path
       d="M 17.215447,25.475194 22,15 l 3,1 -3,10.5 z"
       style="fill:#e4ae00;opacity:1;fill-opacity:1;stroke:none"
       id="path33" />
    <rect
       y="33"
       x="14"
       height="3"
       width="11"
       style="fill:#0e334c;opacity:1;fill-opacity:1;stroke:none;fill-rule:nonzero"
       id="rect35" />
    <path
       d="m 15 33 3 -2 0 -2 3 0 0 2 3 2 z"
       style="fill:#e4ae00;fill-opacity:1;stroke:none"
       id="path37" />
    <g
       id="g39">
      <path
         d="m 25.522 15 5.478 0.274 0 -0.552 -5.655 -0.722"
         style="fill:#0e334c;fill-opacity:1;stroke:none"
         id="path41" />
      <path
         d="m 24.05 16.516 6.98 0.036 -0.031 -0.552 -7.229 -0.475"
         style="fill:#0e334c;fill-opacity:1;stroke:none"
         id="path43" />
    </g>
    <path
       d="m 18 26 5 -11 1.313 0.68 -3.656 11.32"
       style="fill:#0e334c;fill-opacity:1;stroke:none"
       id="path45" />
    <path
       d="m 14.219 24.906 c -0.699 0.028 -1.274 0.159 -1.75 0.375 -0.82 0.372 -1.316 1.03 -1.375 1.719 l 1 0 c 0.036 -0.268 0.237 -0.565 0.781 -0.813 0.335 -0.152 0.813 -0.257 1.406 -0.281 0.49 -0.02 1.106 0.092 1.781 0.219 l -0.031 0.875 l 1 0 0.031 -1.344 0 -0.406 -0.375 -0.094 c -0.936 -0.215 -1.77 -0.278 -2.469 -0.25 z"
       style="visibility:visible;fill:#0e334c;opacity:1;fill-opacity:1;stroke:none;display:inline;color:#000"
       id="path47" />
    <circle
       transform="matrix(1.125,0,0,1.125,-2.4233056,-4.9999998)"
       cx="19.487"
       cy="28"
       r="4"
       style="fill:#ffcf36;opacity:1;fill-opacity:1;stroke:none;fill-rule:nonzero"
       id="circle49" />
    <circle
       transform="matrix(0.625,0,0,0.625,7.3203857,9)"
       cx="19.487"
       cy="28"
       r="4"
       style="fill:#0e334c;opacity:1;fill-opacity:1;stroke:none;fill-rule:nonzero"
       id="circle51" />
    <circle
       transform="matrix(1.1566265,0,0,1.1566265,-3.572289,-1.807229)"
       cx="23.406"
       cy="14.531"
       r="2.594"
       style="fill:#ffcf36;opacity:1;fill-opacity:1;stroke:none;fill-rule:nonzero"
       id="circle53" />
    <circle
       transform="matrix(0.57831319,0,0,0.57831319,9.9638571,6.5963864)"
       cx="23.406"
       cy="14.531"
       r="2.594"
       style="fill:#0e334c;fill-opacity:1;stroke:none;fill-rule:nonzero"
       id="circle55" />
    <path
       d="m 32 17 1 0 0 8 -1 0 z"
       style="fill:#0e334c;fill-opacity:1;stroke:none;fill-rule:nonzero"
       id="path57" />
    <path
       d="m 34.31 16.594 -0.625 0.813 c 0.634 0.484 1.319 1.496 1.368 1.607 0.025 0.055 0.007 0.031 0 0.063 -0.007 0.031 -0.024 0.134 -0.094 0.25 c -0.281 0.463 -1.462 3.719 -1.462 5.675 l 1 0 c 0 -1.719 0.931 -4.557 1.306 -5.175 0.094 -0.155 0.205 -0.317 0.25 -0.531 0.045 -0.214 0.005 -0.467 -0.094 -0.688 -0.196 -0.441 -0.973 -1.497 -1.65 -2.01 z"
       style="visibility:visible;fill:#0e334c;fill-opacity:1;stroke:none;display:inline;color:#000"
       id="path59" />
    <circle
       transform="matrix(1.25,0,0,1.25,-7.5,-4.5)"
       cx="32"
       cy="16"
       r="2"
       style="fill:#ffcf36;opacity:1;fill-opacity:1;stroke:none;fill-rule:nonzero"
       id="circle61" />
    <circle
       transform="matrix(1.5,0,0,1.5,-15.5,-8.5)"
       cx="32"
       cy="16"
       r="1"
       style="fill:#0e334c;opacity:1;fill-opacity:1;stroke:none;fill-rule:nonzero"
       id="circle63" />
    <path
       d="m 30 24 5 0 0 2 -5 0 z"
       style="fill:#ffcf36;fill-opacity:1;stroke:none;fill-rule:nonzero"
       id="path65" />
    <path
       d="m 31 26 3 0 0 1 -3 0 z"
       style="fill:#0e334c;fill-opacity:1;stroke:none;fill-rule:nonzero"
       id="path67" />
    <path
       d="m 11.09 27 c -0.009 0.111 -0.014 0.233 0 0.344 0.101 0.799 0.812 1.435 1.813 1.594 1 0.159 2.301 -0.108 3.875 -1.031 l -0.75 -0.781 c -1.304 0.71 -2.329 0.914 -2.969 0.813 -0.684 -0.109 -0.93 -0.448 -0.969 -0.75 -0.007 -0.057 -0.008 -0.126 0 -0.188 z"
       style="visibility:visible;fill:#0e334c;fill-opacity:1;stroke:none;display:inline;color:#000"
       id="path69" />
    <path
       transform="matrix(0.75795694,0.65230459,-0.65230459,0.75795694,0,0)"
       d="m 40.457 -0.514 1 0 0 2 -1 0 z"
       style="fill:#0e334c;fill-opacity:1;stroke:none;fill-rule:nonzero"
       id="path71" />
    <path
       d="m 32 26 1 0 0 2 -1 0 z"
       style="fill:#0e334c;fill-opacity:1;stroke:none;fill-rule:nonzero"
       id="path73" />
    <path
       transform="matrix(-0.75795694,0.65230459,0.65230459,0.75795694,0,0)"
       d="m -8.81 41.885 1 0 0 2 -1 0 z"
       style="fill:#0e334c;fill-opacity:1;stroke:none;fill-rule:nonzero"
       id="path75" />
    <path
       d="m 29.699 27.528 -0.559 0.66 1.648 2.01 -0.336 -2.047 z"
       style="fill:#0e334c;fill-opacity:1;stroke:none"
       id="path77" />
    <path
       d="m 35.3 27.518 0.559 0.66 -1.648 2.01 0.336 -2.047 z"
       style="fill:#0e334c;fill-opacity:1;stroke:none"
       id="path79" />
    <path
       d="m 32 28 0.492 1.469 l 0.508 -1.469"
       style="fill:#0e334c;fill-opacity:1;stroke:none"
       id="path81" />
  </g>
</svg>
