<?xml version="1.0" encoding="UTF-8" standalone="no"?>
<svg
   xmlns:dc="http://purl.org/dc/elements/1.1/"
   xmlns:cc="http://creativecommons.org/ns#"
   xmlns:rdf="http://www.w3.org/1999/02/22-rdf-syntax-ns#"
   xmlns:svg="http://www.w3.org/2000/svg"
   xmlns="http://www.w3.org/2000/svg"
   xmlns:xlink="http://www.w3.org/1999/xlink"
   xmlns:sodipodi="http://sodipodi.sourceforge.net/DTD/sodipodi-0.dtd"
   xmlns:inkscape="http://www.inkscape.org/namespaces/inkscape"
   viewBox="0 0 48 48"
   id="svg2"
   version="1.1"
   inkscape:version="0.91 r13725"
   sodipodi:docname="bygfoot.svg">
  <metadata
     id="metadata56">
    <rdf:RDF>
      <cc:Work
         rdf:about="">
        <dc:format>image/svg+xml</dc:format>
        <dc:type
           rdf:resource="http://purl.org/dc/dcmitype/StillImage" />
      </cc:Work>
    </rdf:RDF>
  </metadata>
  <sodipodi:namedview
     pagecolor="#ffffff"
     bordercolor="#666666"
     borderopacity="1"
     objecttolerance="10"
     gridtolerance="10"
     guidetolerance="10"
     inkscape:pageopacity="0"
     inkscape:pageshadow="2"
     inkscape:window-width="686"
     inkscape:window-height="485"
     id="namedview54"
     showgrid="false"
     inkscape:zoom="4.9166667"
     inkscape:cx="24"
     inkscape:cy="24"
     inkscape:window-x="476"
     inkscape:window-y="98"
     inkscape:window-maximized="0"
     inkscape:current-layer="svg2" />
  <defs
     id="defs4">
    <linearGradient
       id="linearGradient3775"
       y1="1"
       x2="0"
       y2="47"
       gradientUnits="userSpaceOnUse">
      <stop
         style="stop-color:#42d442;stop-opacity:1"
         id="stop7" />
      <stop
         offset="1"
         style="stop-color:#32d032;stop-opacity:0.992"
         id="stop9" />
    </linearGradient>
    <linearGradient
       id="linearGradient3801"
       y1="1"
       x2="0"
       y2="47"
       gradientUnits="userSpaceOnUse">
      <stop
         style="stop-color:#2aa42a;stop-opacity:1"
         id="stop12" />
      <stop
         offset="1"
         style="stop-color:#269426;stop-opacity:1"
         id="stop14" />
    </linearGradient>
    <linearGradient
       id="linearGradient3448">
      <stop
         style="stop-color:#7cb342;stop-opacity:1"
         offset="0"
         id="stop3450" />
      <stop
         style="stop-color:#aed581;stop-opacity:1"
         offset="1"
         id="stop3452" />
    </linearGradient>
    <linearGradient
       inkscape:collect="always"
       xlink:href="#linearGradient3454"
       id="linearGradient3331"
       gradientUnits="userSpaceOnUse"
       gradientTransform="matrix(0.83333307,0,0,0.83333307,-317.03371,412.80361)"
       x1="379.57144"
       y1="-527.79797"
       x2="431.57144"
       y2="-527.79797" />
    <linearGradient
       id="linearGradient3454">
      <stop
         style="stop-color:#43a047;stop-opacity:1"
         offset="0"
         id="stop3456" />
      <stop
         style="stop-color:#81c784;stop-opacity:1"
         offset="1"
         id="stop3458" />
    </linearGradient>
  </defs>
  <g
     transform="translate(0.55761199,0.30529681)"
     id="g3297">
    <rect
       style="fill:url(#linearGradient3331);fill-opacity:1;stroke:none"
       id="rect3299"
       width="39.999989"
       height="39.999989"
       x="3.4424012"
       y="-43.694542"
       ry="0"
       transform="scale(1,-1)" />
    <path
       style="opacity:0.35;fill:#000000;fill-opacity:1;stroke:none"
       d="m 3.4423873,43.694552 40.0000007,3.01e-4 c -20,-0.999999 -20,-0.999999 -40.0000017,0 z"
       id="path3301"
       inkscape:connector-curvature="0"
       sodipodi:nodetypes="cccc" />
    <path
       sodipodi:nodetypes="cccc"
       inkscape:connector-curvature="0"
       id="path3303"
       d="M 3.4423913,3.6947551 43.442388,3.6945549 c -19.999996,1.0000006 -19.999996,1.0000006 -39.9999977,0 z"
       style="opacity:0.5;fill:#ffffff;fill-opacity:1;stroke:none" />
  </g>
  <g
     id="g38">
    <g
       transform="matrix(0.13611111,0,0,0.12903442,8.7848091,12.374579)"
       style="fill:#000;fill-opacity:0.284"
       id="g40">
      <path
         d="m 210.97 54.719 -11.191 -40.43 -15.316 -13.316 l -31.978 0 c -23.661 16.427 -36.855 15.92 -61.03 0 l -32.712 0 l -14.214 13.393 -13.557 40.35 l 30 20 2.881 -16.16 7.119 136.16 100 -5 5 -130 5 15 z"
         style="fill-opacity:0.118;stroke:none;fill-rule:evenodd"
         id="path42" />
    </g>
    <g
       transform="matrix(1.0315918,0,0,1.0345598,-0.74325354,-0.56800087)"
       id="g44">
      <g
         transform="matrix(0.1319428,0,0,0.12472398,8.2668964,11.543635)"
         style="fill:#d00;fill-opacity:1"
         id="g46">
        <path
           d="m 210.97 54.719 -11.191 -40.43 -15.316 -13.316 l -30.94 0 c -23.661 16.427 -37.1 15.92 -61.28 0 l -33.506 0 l -14.214 13.393 -13.557 40.35 l 30 20 2.881 -16.16 7.119 136.16 100 -5 5 -130 5 15 z"
           style="fill:#db1515;stroke:none;fill-rule:evenodd"
           id="path48" />
      </g>
      <path
         d="m 19.751 28.38 0.058 -1.318 0.87 -0.075 c 0 0 0.182 -3.281 0.338 -5.884 l -1.073 0.339 0.24 -1.901 2.885 -0.87 -0.449 8.169 0.869 -0.076 -0.053 1.331 z"
         style="fill:#f5f5f5;fill-opacity:1"
         id="path50" />
      <path
         d="m 24.914 28.38 0.058 -1.318 0.87 -0.075 c 0 0 0.182 -3.281 0.338 -5.884 l -1.073 0.339 0.24 -1.901 2.885 -0.87 -0.449 8.169 0.869 -0.076 -0.053 1.331 z"
         style="fill:#f5f5f5;fill-opacity:1"
         id="path52" />
    </g>
  </g>
</svg>
