<?xml version="1.0" encoding="UTF-8" standalone="no"?>
<svg
   xmlns:dc="http://purl.org/dc/elements/1.1/"
   xmlns:cc="http://creativecommons.org/ns#"
   xmlns:rdf="http://www.w3.org/1999/02/22-rdf-syntax-ns#"
   xmlns:svg="http://www.w3.org/2000/svg"
   xmlns="http://www.w3.org/2000/svg"
   xmlns:xlink="http://www.w3.org/1999/xlink"
   xmlns:sodipodi="http://sodipodi.sourceforge.net/DTD/sodipodi-0.dtd"
   xmlns:inkscape="http://www.inkscape.org/namespaces/inkscape"
   viewBox="0 0 48 48"
   id="svg2"
   version="1.1"
   inkscape:version="0.91 r13725"
   sodipodi:docname="bzr-explorer.svg">
  <metadata
     id="metadata37">
    <rdf:RDF>
      <cc:Work
         rdf:about="">
        <dc:format>image/svg+xml</dc:format>
        <dc:type
           rdf:resource="http://purl.org/dc/dcmitype/StillImage" />
      </cc:Work>
    </rdf:RDF>
  </metadata>
  <sodipodi:namedview
     pagecolor="#ffffff"
     bordercolor="#666666"
     borderopacity="1"
     objecttolerance="10"
     gridtolerance="10"
     guidetolerance="10"
     inkscape:pageopacity="0"
     inkscape:pageshadow="2"
     inkscape:window-width="686"
     inkscape:window-height="485"
     id="namedview35"
     showgrid="false"
     inkscape:zoom="4.9166667"
     inkscape:cx="24"
     inkscape:cy="24"
     inkscape:window-x="455"
     inkscape:window-y="106"
     inkscape:window-maximized="0"
     inkscape:current-layer="svg2" />
  <defs
     id="defs4">
    <linearGradient
       id="linearGradient3764"
       x1="1"
       x2="47"
       gradientUnits="userSpaceOnUse"
       gradientTransform="matrix(0,-1,1,0,-1.5e-6,47.999998)">
      <stop
         style="stop-color:#d7d7d7;stop-opacity:1"
         id="stop7" />
      <stop
         offset="1"
         style="stop-color:#e1e1e1;stop-opacity:1"
         id="stop9" />
    </linearGradient>
    <linearGradient
       inkscape:collect="always"
       xlink:href="#linearGradient3859"
       id="linearGradient3739"
       gradientUnits="userSpaceOnUse"
       gradientTransform="matrix(0.83333307,0,0,0.83333307,-317.03371,412.80361)"
       x1="379.57144"
       y1="-527.79797"
       x2="431.57144"
       y2="-527.79797" />
    <linearGradient
       id="linearGradient3859">
      <stop
         id="stop3861"
         offset="0"
         style="stop-color:#cccccc;stop-opacity:1" />
      <stop
         id="stop3863"
         offset="1"
         style="stop-color:#ececec;stop-opacity:1" />
    </linearGradient>
  </defs>
  <g
     id="g3665"
     transform="translate(0.55761199,0.30529681)">
    <rect
       transform="scale(1,-1)"
       ry="0"
       y="-43.694542"
       x="3.4424012"
       height="39.999989"
       width="39.999989"
       id="rect3667"
       style="fill:url(#linearGradient3739);fill-opacity:1;stroke:none" />
    <path
       sodipodi:nodetypes="cccc"
       inkscape:connector-curvature="0"
       id="path3669"
       d="m 3.4423873,43.694552 40.0000007,3.01e-4 c -20,-0.999999 -20,-0.999999 -40.0000017,0 z"
       style="opacity:0.35;fill:#000000;fill-opacity:1;stroke:none" />
    <path
       style="opacity:0.5;fill:#ffffff;fill-opacity:1;stroke:none"
       d="M 3.4423913,3.6947551 43.442388,3.6945549 c -19.999996,1.0000006 -19.999996,1.0000006 -39.9999977,0 z"
       id="path3671"
       inkscape:connector-curvature="0"
       sodipodi:nodetypes="cccc" />
  </g>
  <g
     transform="translate(2.6852744e-4,0)"
     id="g27">
    <path
       d="m 25.15 12 c -0.429 0 -0.887 0.328 -1.904 1.25 -1.018 0.922 -2.58 2.473 -5.084 5.01 -3.02 3.059 -4.647 4.743 -5.463 5.807 -0.408 0.532 -0.62 0.912 -0.684 1.258 -0.063 0.346 0.05 0.638 0.217 0.895 0.025 0.038 0.042 0.053 0.07 0.086 0.16 0.179 0.347 0.366 0.488 0.516 0.317 0.327 0.76 0.78 1.299 1.324 1.078 1.088 2.537 2.546 4.115 4.109 2.103 2.083 3.581 3.504 4.596 4.41 0.507 0.453 0.898 0.777 1.199 0.992 c 0.301 0.216 0.489 0.342 0.719 0.342 c 0.088 0 0.141 -0.025 0.203 -0.055 0.062 -0.029 0.126 -0.069 0.199 -0.117 0.147 -0.096 0.326 -0.23 0.537 -0.4 0.423 -0.34 0.973 -0.822 1.607 -1.402 1.27 -1.161 2.879 -2.717 4.461 -4.299 1.581 -1.582 3.136 -3.189 4.297 -4.459 0.581 -0.635 1.062 -1.185 1.402 -1.607 0.17 -0.211 0.304 -0.39 0.4 -0.537 0.048 -0.073 0.088 -0.139 0.117 -0.201 c 0.029 -0.062 0.055 -0.115 0.055 -0.203 0 -0.126 -0.047 -0.217 -0.111 -0.332 -0.064 -0.115 -0.154 -0.246 -0.273 -0.404 -0.238 -0.316 -0.593 -0.732 -1.078 -1.266 -0.97 -1.067 -2.46 -2.602 -4.555 -4.697 -2.426 -2.428 -3.949 -3.917 -4.947 -4.807 -0.998 -0.89 -1.457 -1.213 -1.883 -1.213"
       style="fill:#000;opacity:1;fill-opacity:0.098;stroke:none;display:inline"
       id="path29" />
    <path
       d="m 11.225 24.356 12.919 -12.993 c 4.57 3.848 8.748 7.94 12.551 12.267 -3.991 4.448 -8.197 8.831 -13.14 12.993 z"
       style="fill:#f8e653;fill-opacity:1;stroke:none"
       id="path31" />
    <path
       d="m 24.15 11 c -0.429 0 -0.887 0.328 -1.904 1.25 -1.018 0.922 -2.58 2.473 -5.084 5.01 -3.02 3.059 -4.647 4.743 -5.463 5.807 -0.408 0.532 -0.62 0.912 -0.684 1.258 -0.063 0.346 0.05 0.638 0.217 0.895 0.025 0.038 0.042 0.053 0.07 0.086 0.16 0.179 0.347 0.366 0.488 0.516 0.317 0.327 0.76 0.78 1.299 1.324 1.078 1.088 2.537 2.546 4.115 4.109 2.103 2.083 3.581 3.504 4.596 4.41 0.507 0.453 0.898 0.777 1.199 0.992 c 0.301 0.216 0.489 0.342 0.719 0.342 c 0.088 0 0.141 -0.025 0.203 -0.055 0.062 -0.029 0.126 -0.069 0.199 -0.117 0.147 -0.096 0.326 -0.23 0.537 -0.4 0.423 -0.34 0.973 -0.822 1.607 -1.402 1.27 -1.161 2.879 -2.717 4.461 -4.299 1.581 -1.582 3.136 -3.189 4.297 -4.459 0.581 -0.635 1.062 -1.185 1.402 -1.607 0.17 -0.211 0.304 -0.39 0.4 -0.537 0.048 -0.073 0.088 -0.139 0.117 -0.201 c 0.029 -0.062 0.055 -0.115 0.055 -0.203 0 -0.126 -0.047 -0.217 -0.111 -0.332 -0.064 -0.115 -0.154 -0.246 -0.273 -0.404 -0.238 -0.316 -0.593 -0.732 -1.078 -1.266 -0.97 -1.067 -2.46 -2.602 -4.555 -4.697 -2.426 -2.428 -3.949 -3.917 -4.947 -4.807 -0.998 -0.89 -1.457 -1.213 -1.883 -1.213 m 0.012 0.693 c 0.028 0.016 0.06 0.036 0.105 0.068 0.11 0.078 0.263 0.199 0.447 0.355 0.369 0.313 0.867 0.769 1.447 1.316 1.161 1.095 2.653 2.565 4.125 4.057 1.472 1.492 2.925 3.01 4.01 4.184 0.541 0.589 0.99 1.094 1.301 1.469 0.155 0.188 0.277 0.345 0.355 0.457 0.039 0.056 0.067 0.102 0.082 0.131 0.002 0.004 0 0.005 0.002 0.008 -0.002 -0.016 -0.008 0.026 -0.057 0.107 -0.055 0.092 -0.146 0.22 -0.268 0.377 -0.244 0.315 -0.617 0.749 -1.119 1.301 -1 1.104 -2.525 2.678 -4.574 4.738 -1.672 1.681 -3.235 3.21 -4.404 4.316 -0.584 0.553 -1.07 1 -1.42 1.311 -0.175 0.154 -0.316 0.273 -0.416 0.35 -0.043 0.033 -0.074 0.053 -0.098 0.068 -0.058 -0.002 -0.105 -0.002 -0.266 -0.113 -0.177 -0.122 -0.455 -0.357 -0.902 -0.777 -0.894 -0.84 -2.47 -2.419 -5.377 -5.348 -2.665 -2.684 -4.067 -4.115 -4.732 -4.947 -0.333 -0.416 -0.473 -0.679 -0.51 -0.846 -0.037 -0.167 0 -0.258 0.098 -0.436 0.014 -0.025 0.087 -0.128 0.195 -0.258 0.109 -0.13 0.256 -0.298 0.436 -0.496 0.359 -0.396 0.847 -0.914 1.42 -1.51 1.146 -1.192 2.63 -2.695 4.113 -4.17 1.483 -1.475 2.964 -2.923 4.1 -4 0.568 -0.539 1.05 -0.985 1.4 -1.295 0.175 -0.155 0.319 -0.274 0.42 -0.354 0.038 -0.03 0.064 -0.048 0.088 -0.064 z m -0.594 3.808 c -0.274 -0.051 -1.057 0.835 -2.098 2.373 -2.301 3.402 -2.297 3.164 -0.828 3.164 l 1.355 0 0 10.529 c 0.608 0.433 2.1 0.399 3 0.432 l 0 -3.691 c 0 0 1.023 0.264 1.635 0.824 0.94 0.86 1.185 0.962 1.57 0.662 1.294 -1.048 -3.466 -5.942 -3.223 -8.37 0.342 -0.73 2.332 -0.1 2.545 -0.551 0.219 -0.462 -3.53 -5.294 -3.957 -5.373 z"
       style="fill:#3c3c3c;opacity:1;fill-opacity:1;stroke:none;display:inline"
       id="path33" />
  </g>
</svg>
