<?xml version="1.0" encoding="UTF-8" standalone="no"?>
<svg
   xmlns:dc="http://purl.org/dc/elements/1.1/"
   xmlns:cc="http://creativecommons.org/ns#"
   xmlns:rdf="http://www.w3.org/1999/02/22-rdf-syntax-ns#"
   xmlns:svg="http://www.w3.org/2000/svg"
   xmlns="http://www.w3.org/2000/svg"
   xmlns:xlink="http://www.w3.org/1999/xlink"
   xmlns:sodipodi="http://sodipodi.sourceforge.net/DTD/sodipodi-0.dtd"
   xmlns:inkscape="http://www.inkscape.org/namespaces/inkscape"
   viewBox="0 0 48 48"
   id="svg2"
   version="1.1"
   inkscape:version="0.91 r13725"
   sodipodi:docname="calf.svg">
  <metadata
     id="metadata67">
    <rdf:RDF>
      <cc:Work
         rdf:about="">
        <dc:format>image/svg+xml</dc:format>
        <dc:type
           rdf:resource="http://purl.org/dc/dcmitype/StillImage" />
      </cc:Work>
    </rdf:RDF>
  </metadata>
  <sodipodi:namedview
     pagecolor="#ffffff"
     bordercolor="#666666"
     borderopacity="1"
     objecttolerance="10"
     gridtolerance="10"
     guidetolerance="10"
     inkscape:pageopacity="0"
     inkscape:pageshadow="2"
     inkscape:window-width="1366"
     inkscape:window-height="740"
     id="namedview65"
     showgrid="false"
     inkscape:zoom="4.9166667"
     inkscape:cx="33.966102"
     inkscape:cy="24"
     inkscape:window-x="0"
     inkscape:window-y="28"
     inkscape:window-maximized="1"
     inkscape:current-layer="svg2" />
  <defs
     id="defs4">
    <linearGradient
       id="linearGradient4178"
       y1="1"
       x2="0"
       y2="47"
       gradientUnits="userSpaceOnUse">
      <stop
         style="stop-color:#82d070;stop-opacity:1"
         id="stop7" />
      <stop
         offset="1"
         style="stop-color:#75cb61;stop-opacity:1"
         id="stop9" />
    </linearGradient>
    <linearGradient
       inkscape:collect="always"
       xlink:href="#linearGradient3757"
       id="linearGradient3737"
       gradientUnits="userSpaceOnUse"
       gradientTransform="matrix(0.83333307,0,0,0.83333307,-317.03371,412.80361)"
       x1="379.57144"
       y1="-527.79797"
       x2="431.57144"
       y2="-527.79797" />
    <linearGradient
       id="linearGradient3757">
      <stop
         id="stop3759"
         offset="0"
         style="stop-color:#65d965;stop-opacity:1" />
      <stop
         id="stop3761"
         offset="1"
         style="stop-color:#89ea89;stop-opacity:1" />
    </linearGradient>
  </defs>
  <g
     transform="translate(0.55761199,0.30529681)"
     id="g3657">
    <rect
       style="fill:url(#linearGradient3737);fill-opacity:1;stroke:none"
       id="rect3659"
       width="39.999989"
       height="39.999989"
       x="3.4424012"
       y="-43.694542"
       ry="0"
       transform="scale(1,-1)" />
    <path
       style="opacity:0.35;fill:#000000;fill-opacity:1;stroke:none"
       d="m 3.4423873,43.694552 40.0000007,3.01e-4 c -20,-0.999999 -20,-0.999999 -40.0000017,0 z"
       id="path3661"
       inkscape:connector-curvature="0"
       sodipodi:nodetypes="cccc" />
    <path
       sodipodi:nodetypes="cccc"
       inkscape:connector-curvature="0"
       id="path3663"
       d="M 3.4423913,3.6947551 43.442388,3.6945549 c -19.999996,1.0000006 -19.999996,1.0000006 -39.9999977,0 z"
       style="opacity:0.5;fill:#ffffff;fill-opacity:1;stroke:none" />
  </g>
  <path
     d="m 15.375 12.584 c -1.688 -0.052 -4.375 2.559 -4.375 2.559 c 0 0 2.784 3.641 4.787 3.879 0.681 0.081 1.517 -0.199 2.326 -0.59 l -1.594 4.775 c 0 0 -2.185 4.226 -1.879 6.441 0.091 0.661 0.532 1.468 1.029 2.205 1.01 3.237 4.794 5.646 9.32 5.646 3.81 0 7.09 -1.709 8.639 -4.18 0.732 -0.87 1.985 -2.49 2.148 -3.672 0.306 -2.215 -1.877 -6.441 -1.877 -6.441 l -1.518 -4.551 c 0.647 0.264 1.288 0.429 1.83 0.365 c 2 -0.238 4.787 -3.879 4.787 -3.879 c 0 0 -2.687 -2.611 -4.375 -2.559 -1.636 0.051 -3.817 1.944 -4.973 3.064 -1.077 -0.423 -2.536 -0.892 -4.408 -0.889 -2.045 0.003 -3.682 0.541 -4.775 1.01 -1.12 -1.1 -3.403 -3.129 -5.094 -3.182 z"
     style="fill:#000;opacity:0.1;fill-opacity:1"
     id="path21" />
  <g
     transform="matrix(0.89240973,0,0,0.89240973,2.5718496,3.6606354)"
     id="g27">
    <path
       d="m 39.699 11.746 c 0 0 -3.01 -2.926 -4.902 -2.867 -2.598 0.081 -6.474 4.347 -6.474 4.347 0 0 3.767 3.133 6.01 2.867 2.245 -0.266 5.364 -4.347 5.364 -4.347 z"
       style="fill:#1a1a1a;stroke:none;fill-rule:evenodd"
       id="path29" />
    <path
       d="m 33.663 10.951 c 0.549 -0.121 1.125 0.133 1.656 0.316 0.867 0.299 2.445 1.261 2.445 1.261 l -0.042 0.108 c -0.926 1.047 -2.534 2.657 -3.823 2.81 -1.248 0.148 -3.034 -0.928 -4.136 -1.701 0 0 2.337 -2.451 3.899 -2.795 z"
       style="fill:#d7a2a2;fill-opacity:1;stroke:none;fill-rule:evenodd"
       id="path31" />
    <path
       d="m 24.21 11.311 0 0.006 c -4.76 0.171 -7.293 2.248 -7.293 2.248 l -2.406 7.219 c 0 0 -2.449 4.735 -2.105 7.217 0.259 1.874 3.01 4.812 3.01 4.812 l 17.67 0 c 0 0 2.747 -2.939 3.01 -4.813 0.343 -2.482 -2.104 -7.217 -2.104 -7.217 l -2.406 -7.219 c 0 0 -2.533 -2.077 -7.293 -2.248 l 0 -0.006 c -0.014 0 -0.025 0.003 -0.039 0.004 -0.013 0 -0.024 -0.004 -0.037 -0.004 z"
       style="fill:#f9f9f9;stroke:none;fill-rule:evenodd"
       id="path33" />
    <path
       d="m 8.324 11.746 c 0 0 3.01 -2.926 4.902 -2.867 2.598 0.081 6.474 4.347 6.474 4.347 0 0 -3.767 3.133 -6.01 2.867 -2.245 -0.266 -5.364 -4.347 -5.364 -4.347 z"
       style="fill:#1a1a1a;stroke:none;fill-rule:evenodd"
       id="path35" />
    <path
       d="m 14.425 11.04 c -0.549 -0.121 -1.125 0.133 -1.656 0.316 -0.867 0.299 -2.445 1.261 -2.445 1.261 l 0.042 0.108 c 0.926 1.047 2.534 2.657 3.823 2.81 1.248 0.148 3.034 -0.928 4.136 -1.701 0 0 -2.337 -2.451 -3.899 -2.795 z"
       style="fill:#d7a2a2;fill-opacity:1;stroke:none;fill-rule:evenodd"
       id="path37" />
    <path
       d="m 24.21 11.311 0 0.006 c -4.76 0.171 -7.293 2.248 -7.293 2.248 l -2.406 7.219 c 0 0 -0.359 0.751 -0.766 1.697 0 0 8.775 6.428 12.02 3.763 c 2.774 -2.279 -0.819 -7.133 -1.162 -10.707 -0.135 -1.406 -0.352 -4.223 -0.352 -4.223 c -0.014 0 -0.029 -0.003 -0.041 -0.004 z"
       style="fill:#1a1a1a;stroke:none;fill-rule:evenodd"
       id="path39" />
    <path
       d="m 32.902 17.535 c 0 0 -2.038 0.095 -2.66 0.777 -1.417 1.555 -1.665 4.144 -1.201 6.195 0.389 1.72 3.145 4.256 3.145 4.256 l 2.248 2.414 c 0.737 -0.982 1.521 -2.215 1.654 -3.178 0.343 -2.482 -2.104 -7.217 -2.104 -7.217"
       style="fill:#1a1a1a;stroke:none;fill-rule:evenodd"
       id="path41" />
    <g
       transform="matrix(0.54461206,0,0,0.54461206,10.751382,8.4752945)"
       id="g43">
      <ellipse
         cx="25.19"
         cy="8"
         rx="7.177"
         ry="10.253"
         transform="matrix(0.86339778,0.50452381,-0.50452381,0.86339778,0,0)"
         style="fill:#1a1a1a"
         id="ellipse45" />
      <ellipse
         transform="matrix(-0.86339778,0.50452381,0.50452381,0.86339778,0,0)"
         ry="10.253"
         rx="7.177"
         cy="32.551"
         cx="-16.819"
         style="fill:#1a1a1a"
         id="ellipse47" />
      <ellipse
         transform="matrix(0.86339778,0.50452381,-0.50452381,0.86339778,0,0)"
         ry="9.526"
         rx="6.668"
         cy="8"
         cx="25.19"
         style="fill:#f9f9f9"
         id="ellipse49" />
      <ellipse
         cx="-16.819"
         cy="32.551"
         rx="6.668"
         ry="9.526"
         transform="matrix(-0.86339778,0.50452381,0.50452381,0.86339778,0,0)"
         style="fill:#f9f9f9"
         id="ellipse51" />
      <path
         d="m 24.76 18.19 a 2.5 2.5 0 0 1 -2.5 2.5 2.5 2.5 0 0 1 -2.5 -2.5 2.5 2.5 0 0 1 2.5 -2.5 2.5 2.5 0 0 1 2.5 2.5 z"
         style="fill:#1a1a1a"
         id="path53" />
      <path
         d="m 31.488 18.09 a 4 4 0 0 1 -4 4 4 4 0 0 1 -4 -4 4 4 0 0 1 4 -4 4 4 0 0 1 4 4 z"
         style="fill:#1a1a1a"
         id="path55" />
    </g>
    <g
       transform="translate(-1.046243,0.18497115)"
       id="g57">
      <path
         d="m 35.796 28.361 c 0 4.558 -4.813 8.253 -10.75 8.253 -5.937 0 -10.75 -3.695 -10.75 -8.253 0 -2.279 1.268 -4.43 3.403 -5.497 2.134 -1.067 4.785 0.799 7.347 0.799 2.562 0 5.467 -1.867 7.601 -0.799 2.134 1.067 3.149 3.218 3.149 5.497 z"
         style="fill:#d7a2a2;fill-opacity:1"
         id="path59" />
      <circle
         cx="20.01"
         cy="27.07"
         r="2.25"
         style="fill:#1a1a1a"
         id="circle61" />
      <circle
         r="2.25"
         cy="27.07"
         cx="29.672"
         style="fill:#1a1a1a"
         id="circle63" />
    </g>
  </g>
</svg>
