<?xml version="1.0" encoding="UTF-8" standalone="no"?>
<svg
   xmlns:dc="http://purl.org/dc/elements/1.1/"
   xmlns:cc="http://creativecommons.org/ns#"
   xmlns:rdf="http://www.w3.org/1999/02/22-rdf-syntax-ns#"
   xmlns:svg="http://www.w3.org/2000/svg"
   xmlns="http://www.w3.org/2000/svg"
   xmlns:xlink="http://www.w3.org/1999/xlink"
   xmlns:sodipodi="http://sodipodi.sourceforge.net/DTD/sodipodi-0.dtd"
   xmlns:inkscape="http://www.inkscape.org/namespaces/inkscape"
   width="48"
   viewBox="0 0 13.546667 13.546667"
   height="48"
   enable-background="new"
   id="svg2"
   version="1.1"
   inkscape:version="0.91pre2 r13516"
   sodipodi:docname="calibre-ebook-edit.svg">
  <metadata
     id="metadata87">
    <rdf:RDF>
      <cc:Work
         rdf:about="">
        <dc:format>image/svg+xml</dc:format>
        <dc:type
           rdf:resource="http://purl.org/dc/dcmitype/StillImage" />
      </cc:Work>
    </rdf:RDF>
  </metadata>
  <sodipodi:namedview
     pagecolor="#ffffff"
     bordercolor="#666666"
     borderopacity="1"
     objecttolerance="10"
     gridtolerance="10"
     guidetolerance="10"
     inkscape:pageopacity="0"
     inkscape:pageshadow="2"
     inkscape:window-width="1301"
     inkscape:window-height="744"
     id="namedview85"
     showgrid="true"
     showguides="false"
     inkscape:zoom="9.2135214"
     inkscape:cx="20.131513"
     inkscape:cy="26.139097"
     inkscape:window-x="65"
     inkscape:window-y="24"
     inkscape:window-maximized="1"
     inkscape:current-layer="svg2"
     inkscape:snap-global="false">
    <inkscape:grid
       type="xygrid"
       id="grid3408" />
  </sodipodi:namedview>
  <defs
     id="defs4">
    <linearGradient
       id="linearGradient897">
      <stop
         id="stop899"
         offset="0"
         style="stop-color:#a77543;stop-opacity:1" />
      <stop
         id="stop901"
         offset="1"
         style="stop-color:#845526;stop-opacity:1" />
    </linearGradient>
    <linearGradient
       id="linearGradient838">
      <stop
         style="stop-color:#ff0000;stop-opacity:1"
         offset="0"
         id="stop840" />
      <stop
         style="stop-color:#aa0000;stop-opacity:1"
         offset="1"
         id="stop842" />
    </linearGradient>
    <linearGradient
       inkscape:collect="always"
       xlink:href="#linearGradient839"
       id="linearGradient859"
       x1="153.14285"
       y1="-479.93362"
       x2="201.14285"
       y2="-479.93362"
       gradientUnits="userSpaceOnUse"
       gradientTransform="matrix(0.83333381,0,0,0.83333381,-123.63847,-627.59596)" />
    <linearGradient
       id="linearGradient839">
      <stop
         style="stop-color:#96570c;stop-opacity:1"
         offset="0"
         id="stop841" />
      <stop
         style="stop-color:#e2cd8c;stop-opacity:1"
         offset="1"
         id="stop843" />
    </linearGradient>
    <linearGradient
       y2="-515.24841"
       x2="428.508"
       y1="-515.24841"
       x1="376.633"
       gradientTransform="matrix(0,-0.83333381,-0.83333381,0,-419.74471,1365.6727)"
       gradientUnits="userSpaceOnUse"
       id="linearGradient2927"
       xlink:href="#linearGradient2950"
       inkscape:collect="always" />
    <linearGradient
       id="linearGradient2950"
       inkscape:collect="always">
      <stop
         id="stop2952"
         offset="0"
         style="stop-color:#280a00;stop-opacity:1" />
      <stop
         style="stop-color:#422514;stop-opacity:1"
         offset="0.20973869"
         id="stop2954" />
      <stop
         id="stop2956"
         offset="0.54495704"
         style="stop-color:#442816;stop-opacity:1" />
      <stop
         id="stop2958"
         offset="1"
         style="stop-color:#764d33;stop-opacity:1" />
    </linearGradient>
  </defs>
  <g
     transform="matrix(0.28222223,0,0,0.28222223,0.00930618,-283.44526)"
     id="g3444">
    <rect
       transform="scale(1,-1)"
       ry="3.5563173e-06"
       y="-1048.3744"
       x="3.9806311"
       height="40.000023"
       width="40.000023"
       id="rect2991-1"
       style="fill:url(#linearGradient859);fill-opacity:1;stroke:none" />
    <path
       sodipodi:nodetypes="sccccccccs"
       inkscape:connector-curvature="0"
       id="rect5459"
       d="m 3.9806388,1046.7598 c 0,0.4489 2e-5,1.6143 2e-5,1.6143 l 1.61456,0 4.2187603,0 0,-40 -4.2187603,0 -1.61456,0 -2e-5,1.6146 0,36.7711 z"
       style="fill:url(#linearGradient2927);fill-opacity:1;stroke:none" />
    <path
       sodipodi:nodetypes="cccc"
       inkscape:connector-curvature="0"
       id="path3257"
       d="m 3.9806588,1048.3741 0,0 c 20.0000002,-1 20.0000002,-1 40.0000002,0 z"
       style="opacity:0.5;fill:#000000;fill-opacity:1;stroke:none" />
    <path
       style="opacity:0.9;fill:#ffffff;fill-opacity:1;stroke:none"
       d="m 3.9806588,1008.3741 0,0 c 20.0000002,1 20.0000002,1 40.0000002,0 z"
       id="path4027"
       inkscape:connector-curvature="0"
       sodipodi:nodetypes="cccc" />
    <text
       transform="translate(0,1004.3622)"
       sodipodi:linespacing="125%"
       id="text959-1"
       y="39.5"
       x="-50"
       style="font-style:normal;font-weight:normal;font-size:40px;line-height:125%;font-family:sans-serif;letter-spacing:0px;word-spacing:0px;fill:#000000;fill-opacity:1;stroke:none"
       xml:space="preserve"><tspan
         y="39.5"
         x="-50"
         id="tspan961-6"
         sodipodi:role="line" /></text>
    <text
       sodipodi:linespacing="125%"
       id="text3025-9"
       y="1037.2073"
       x="70.300987"
       style="font-style:italic;font-variant:normal;font-weight:bold;font-stretch:normal;font-size:40px;line-height:125%;font-family:'URW Chancery L';-inkscape-font-specification:'URW Chancery L Bold Italic';letter-spacing:0px;word-spacing:0px;fill:#000000;fill-opacity:1;stroke:none"
       xml:space="preserve"><tspan
         y="1037.2073"
         x="70.300987"
         id="tspan3027-0"
         sodipodi:role="line" /></text>
  </g>
  <text
     xml:space="preserve"
     style="font-style:normal;font-weight:normal;font-size:11.28888893px;line-height:125%;font-family:sans-serif;letter-spacing:0px;word-spacing:0px;fill:#000000;fill-opacity:1;stroke:none"
     x="-14.113194"
     y="11.147778"
     id="text959"
     sodipodi:linespacing="125%"><tspan
       y="11.147778"
       x="-14.113194"
       sodipodi:role="line"
       id="tspan961" /></text>
  <text
     xml:space="preserve"
     style="font-style:italic;font-variant:normal;font-weight:bold;font-stretch:normal;font-size:11.28888893px;line-height:125%;font-family:'URW Chancery L';-inkscape-font-specification:'URW Chancery L Bold Italic';letter-spacing:0px;word-spacing:0px;fill:#000000;fill-opacity:1;stroke:none"
     x="19.838417"
     y="9.2696104"
     id="text3025"
     sodipodi:linespacing="125%"><tspan
       sodipodi:role="line"
       id="tspan3027"
       x="19.838417"
       y="9.2696104" /></text>
  <path
     style="fill:#502d16;fill-opacity:0.40784314"
     d="m 8.4947665,3.784192 -0.03741,0.089435 c -0.02059,0.049061 -0.07085,0.1463554 -0.1115261,0.2162827 -0.061709,0.1060207 -0.085341,0.1300541 -0.142526,0.1453762 -0.057186,0.015321 -0.091896,0.0058 -0.2087988,-0.05808 C 7.9174217,4.1351109 7.8264776,4.0763591 7.7924716,4.046796 7.7206196,3.984314 7.7100186,3.987896 7.5309366,4.13338 7.4506286,4.198627 7.4193913,4.2358187 7.4311686,4.2520326 c 0.00944,0.012999 0.043627,0.1011524 0.076251,0.1959729 0.046391,0.1348323 0.056858,0.1895853 0.048459,0.2512012 -0.013674,0.1003479 -0.046244,0.1183579 -0.3246021,0.1799386 l -0.2191331,0.048459 -0.020666,0.1546403 c -0.011353,0.085043 -0.017509,0.1669081 -0.013539,0.1817202 0.00398,0.014846 0.071346,0.054924 0.149652,0.089078 0.1725612,0.075263 0.2856383,0.1629863 0.3053612,0.2365926 0.016831,0.062815 -0.051572,0.2082195 -0.1703182,0.362015 -0.040921,0.053014 -0.071178,0.1082649 -0.067343,0.1225721 0.00384,0.014299 0.050309,0.082229 0.103331,0.151077 l 0.096204,0.1250662 0.2134319,-0.069481 c 0.3466909,-0.1131271 0.3913219,-0.086791 0.46285,0.2711552 l 0.03991,0.1995359 0.091576,0.019242 c 0.1681352,0.035932 0.2933882,0.039664 0.2850502,0.00855 -0.0072,-0.027014 0.1179931,-0.280459 0.1713881,-0.3466937 0.02906,-0.036033 0.07526,-0.071416 0.1026179,-0.078745 0.06809,-0.018248 0.2075371,0.039853 0.3552441,0.1482265 0.140472,0.1030665 0.137107,0.103531 0.322821,-0.047388 0.09317,-0.075719 0.103842,-0.091534 0.0848,-0.1264917 -0.05693,-0.1045375 -0.118755,-0.3066341 -0.118654,-0.3873133 1.75e-4,-0.1396054 0.03711,-0.1662145 0.309994,-0.224834 0.263482,-0.056586 0.240703,-0.033655 0.264029,-0.2704425 l 0.01319,-0.1329052 -0.171745,-0.078746 c -0.205344,-0.093993 -0.288729,-0.1645368 -0.292535,-0.2479933 -0.0026,-0.055921 0.141102,-0.3191839 0.223766,-0.4101176 0.03479,-0.038256 0.03416,-0.042901 -0.01142,-0.1090321 -0.02614,-0.03795 -0.0759,-0.1026908 -0.110814,-0.1439509 L 9.5668956,4.247759 9.3196126,4.314034 C 8.9927486,4.40162 9.0073066,4.410191 8.9180636,4.0792213 L 8.8503776,3.8283732 8.6725764,3.8062813 8.4947755,3.7841905 Z m -0.02529,0.9324737 c 0.03855,-0.00228 0.07485,0.00201 0.126135,0.012114 0.2268291,0.044728 0.3814191,0.1901428 0.4432541,0.4168875 C 9.1538276,5.5672172 8.7953115,5.9521986 8.3689955,5.865065 8.1325527,5.8167321 7.9876191,5.6773989 7.9232422,5.4357073 7.8805767,5.275529 7.9037407,5.1342589 7.9959331,4.989246 8.0881369,4.8441951 8.1594274,4.7921072 8.3305125,4.7444582 c 0.05969,-0.016589 0.100409,-0.02552 0.138962,-0.027793 z M 6.620911,5.5579231 6.5418093,5.6598289 c -0.043436,0.056082 -0.1415362,0.1641357 -0.2180642,0.2401556 -0.1160715,0.1152465 -0.1548087,0.13825 -0.233742,0.13825 -0.078928,0 -0.1201833,-0.024553 -0.2487071,-0.1471577 C 5.7565559,5.8102619 5.6596771,5.7035812 5.6260822,5.6537716 5.5551066,5.5485059 5.5399239,5.5492243 5.2590788,5.6747942 c -0.1259452,0.056318 -0.1788219,0.09335 -0.1692492,0.1182963 0.00767,0.019998 0.021349,0.1456167 0.030643,0.278994 0.013218,0.1896598 0.00821,0.2638229 -0.023873,0.3402798 C 5.0443571,6.5368827 4.9956798,6.5488347 4.615932,6.5320857 L 4.3169845,6.518902 4.2371703,6.7109553 c -0.043967,0.105608 -0.079814,0.2086638 -0.079814,0.2291099 0,0.020494 0.072704,0.095387 0.1617667,0.1663986 0.1962688,0.1564812 0.3117746,0.3085134 0.3117746,0.4101174 0,0.086709 -0.1385487,0.2505281 -0.3445556,0.4076232 -0.070997,0.054157 -0.1289857,0.1145813 -0.1289857,0.1343305 0,0.019738 0.036357,0.1235688 0.080884,0.2305351 l 0.080883,0.1945477 0.2989476,-0.016034 c 0.4855439,-0.026057 0.5338049,0.022776 0.5024027,0.50846 l -0.017459,0.2707986 0.11117,0.057011 c 0.204144,0.1042971 0.3641528,0.1519802 0.3641528,0.1090323 0,-0.037289 0.2490114,-0.3204359 0.3406363,-0.3873133 0.049853,-0.036378 0.1215131,-0.066275 0.1592723,-0.066275 0.094009,0 0.253363,0.1230105 0.406198,0.3135562 C 6.629788,9.454068 6.6253892,9.4537328 6.9166522,9.3234505 7.0627785,9.258084 7.0823245,9.2410694 7.0698676,9.189476 7.0326082,9.0351922 7.0222987,8.7538884 7.0502707,8.6500167 7.0986711,8.4702786 7.1553401,8.4485533 7.5270189,8.4672275 7.8858856,8.4852756 7.8488968,8.5072349 7.9606528,8.2103251 l 0.062713,-0.166755 -0.1204345,-0.099768 0.050945,0.00713 c 0.035829,0.00489 0.1083539,0.020513 0.1614102,0.03492 0.080451,0.021862 0.1003188,0.033215 0.1204348,0.068056 0.020115,0.034836 0.019918,0.059185 -0.0015,0.1471577 -0.014078,0.057998 -0.03645,0.1281877 -0.049879,0.1557091 -0.028381,0.058151 -0.024027,0.06446 0.1029744,0.1564219 0.056951,0.041237 0.086564,0.055477 0.095135,0.044897 0.0068,-0.00848 0.05894,-0.046712 0.115447,-0.084803 0.08035,-0.054166 0.1144979,-0.070928 0.1564219,-0.076251 0.06827,-0.00867 0.08592,0.00984 0.175305,0.1817203 l 0.07019,0.1353993 0.105113,-0.013896 c 0.05782,-0.00749 0.112478,-0.017949 0.121503,-0.023161 0.009,-0.00522 0.02341,-0.056258 0.03208,-0.1136639 0.01906,-0.1265068 0.05671,-0.2164014 0.10155,-0.2422936 0.03828,-0.022098 0.146112,-0.00243 0.267947,0.048459 0.04201,0.017536 0.08357,0.027481 0.09228,0.022448 0.0087,-0.00501 0.04503,-0.047512 0.08088,-0.094423 l 0.0653,-0.085162 -0.08302,-0.1279167 C 9.5481656,7.8768745 9.5572296,7.8431286 9.7796036,7.7332206 l 0.123999,-0.061285 -0.0033,-0.063424 c -0.0059,-0.1166846 -0.02559,-0.199791 -0.04453,-0.1888466 -0.01647,0.0095 -0.204747,-0.027909 -0.257615,-0.051308 -0.02877,-0.012733 -0.06022,-0.036781 -0.06984,-0.053446 -0.02394,-0.041495 -0.01024,-0.1433801 0.03491,-0.2593966 0.04296,-0.1103324 0.04371,-0.1080967 -0.08801,-0.2034554 -0.0661,-0.047842 -0.07839,-0.052139 -0.09799,-0.033493 -0.0586,0.055763 -0.180409,0.1319653 -0.233384,0.1460889 -0.09167,0.024439 -0.115557,0.00491 -0.202031,-0.1639045 -0.08349,-0.1629976 -0.06425,-0.1524702 -0.223764,-0.1261352 l -0.08979,0.014965 -0.02137,0.1264917 c -0.02559,0.1513179 -0.05743,0.2187034 -0.111526,0.2358798 -0.03624,0.01151 -0.2343408,-0.03656 -0.3085692,-0.074827 -0.031231,-0.016102 -0.03408,-0.015171 -0.069486,0.026369 -0.020322,0.023837 -0.054233,0.068167 -0.075183,0.098343 l -0.037781,0.054872 0.086941,0.1507208 c 0.1149966,0.1991592 0.11783,0.1878575 -0.083723,0.3046476 l -0.1528292,0.088723 0.017104,0.1204341 0.015323,0.1097448 -0.05808,-0.048102 C 7.5971495,7.6909563 7.5145204,7.5712188 7.5384197,7.4624215 7.5544317,7.38952 7.8299372,7.0999153 7.9677787,7.011328 8.0257748,6.9740619 8.0267923,6.9682719 7.9909406,6.8673772 7.9703572,6.809476 7.9283225,6.7088005 7.8975875,6.6436119 l -0.055941,-0.1186525 -0.3409923,0 c -0.4512167,0 -0.4354083,0.016292 -0.4361285,-0.4407605 L 7.0641657,5.7375053 6.8425384,5.6477142 6.620911,5.5579231 Z M 6.0782448,6.7376788 c 0.1651762,-0.00152 0.2219213,0.01021 0.3470499,0.07162 0.2766968,0.1358815 0.4254735,0.3761041 0.426864,0.6894675 C 6.8547448,8.0813527 6.2597975,8.453984 5.7408154,8.1946471 5.4529855,8.0508043 5.3148807,7.8212104 5.3153765,7.4877199 5.3156956,7.2667 5.3938735,7.0925164 5.5626584,6.937571 5.7314627,6.7825783 5.841461,6.7400058 6.0782448,6.7376788 Z m 2.8059718,0.5519305 c 0.1979,-0.00212 0.378963,0.1474156 0.392304,0.3687849 0.0099,0.1636999 -0.05613,0.2833066 -0.203456,0.3680724 -0.09764,0.056183 -0.194316,0.066013 -0.305719,0.031 C 8.6559185,8.0224546 8.6088695,7.9846556 8.5475006,7.880735 8.5047505,7.80822 8.4956405,7.7805831 8.4908505,7.7097041 c -0.01053,-0.1567569 0.05765,-0.2840397 0.195615,-0.3645093 0.06413,-0.037401 0.1317881,-0.054878 0.1977551,-0.055586 z"
     id="path907-2"
     inkscape:connector-curvature="0" />
</svg>
