<?xml version="1.0" encoding="UTF-8" standalone="no"?>
<!-- Created with Inkscape (http://www.inkscape.org/) -->

<svg
   width="48"
   height="48"
   id="svg2"
   version="1.1"
   inkscape:version="0.48.5 r10040"
   sodipodi:docname="calligrasheets.svg">
  <defs
     id="defs4">
    <linearGradient
       inkscape:collect="always"
       id="linearGradient4001">
      <stop
         style="stop-color:#c0bebe;stop-opacity:1"
         offset="0"
         id="stop4003" />
      <stop
         style="stop-color:#f2f7f7;stop-opacity:1"
         offset="1"
         id="stop4005" />
    </linearGradient>
    <linearGradient
       id="linearGradient3795-1-2">
      <stop
         style="stop-color:#272b30;stop-opacity:1"
         offset="0"
         id="stop3797-1-9" />
      <stop
         style="stop-color:#282c31;stop-opacity:1"
         offset="1"
         id="stop3799-3-6" />
    </linearGradient>
    <linearGradient
       inkscape:collect="always"
       xlink:href="#linearGradient4001"
       id="linearGradient4007"
       x1="3.0000002"
       y1="1027.3123"
       x2="45.000134"
       y2="1027.3123"
       gradientUnits="userSpaceOnUse"
       gradientTransform="matrix(0.95237789,0,0,0.95237799,1.1428661,48.972597)" />
    <linearGradient
       id="linearGradient6194"
       spreadMethod="pad"
       gradientTransform="matrix(13.526835,20.525875,20.525875,-13.526835,19.18986,1021.0543)"
       gradientUnits="userSpaceOnUse"
       y2="0"
       x2="1"
       y1="0"
       x1="0">
      <stop
         id="stop6196"
         offset="0"
         style="stop-opacity:1;stop-color:#ffffff" />
      <stop
         id="stop6198"
         offset="0.168498"
         style="stop-opacity:1;stop-color:#29282b" />
      <stop
         id="stop6200"
         offset="0.263736"
         style="stop-opacity:1;stop-color:#868c95" />
      <stop
         id="stop6202"
         offset="0.395604"
         style="stop-opacity:1;stop-color:#92979f" />
      <stop
         id="stop6204"
         offset="0.542125"
         style="stop-opacity:1;stop-color:#737881" />
      <stop
         id="stop6206"
         offset="0.626374"
         style="stop-opacity:1;stop-color:#70757e" />
      <stop
         id="stop6208"
         offset="0.717949"
         style="stop-opacity:1;stop-color:#e4e6e8" />
      <stop
         id="stop6210"
         offset="0.791209"
         style="stop-opacity:1;stop-color:#ffffff" />
      <stop
         id="stop6212"
         offset="1"
         style="stop-opacity:1;stop-color:#1d191a" />
    </linearGradient>
  </defs>
  <sodipodi:namedview
     id="base"
     pagecolor="#ffffff"
     bordercolor="#666666"
     borderopacity="1.0"
     inkscape:pageopacity="0.0"
     inkscape:pageshadow="2"
     inkscape:zoom="11.91033"
     inkscape:cx="27.410295"
     inkscape:cy="24.251621"
     inkscape:document-units="px"
     inkscape:current-layer="layer1"
     showgrid="true"
     inkscape:window-width="1301"
     inkscape:window-height="744"
     inkscape:window-x="65"
     inkscape:window-y="24"
     inkscape:window-maximized="1"
     inkscape:snap-nodes="true">
    <inkscape:grid
       type="xygrid"
       id="grid3140" />
  </sodipodi:namedview>
  <metadata
     id="metadata7">
    <rdf:RDF>
      <cc:Work
         rdf:about="">
        <dc:format>image/svg+xml</dc:format>
        <dc:type
           rdf:resource="http://purl.org/dc/dcmitype/StillImage" />
        <dc:title />
      </cc:Work>
    </rdf:RDF>
  </metadata>
  <g
     inkscape:label="Capa 1"
     inkscape:groupmode="layer"
     id="layer1"
     transform="translate(0,-1004.3622)">
    <path
       style="fill:url(#linearGradient4007);fill-opacity:1;stroke:none"
       d="m 5.619318,1008.3622 c -0.8977281,0 -1.6193181,0.7215 -1.6193181,1.6192 l 0,36.7615 c 0,0.8977 0.72159,1.6193 1.6193181,1.6193 l 36.761363,0 c 0.897728,0 1.619319,-0.7216 1.619319,-1.6193 l 0,-36.7614 c 0,-0.8978 -0.721591,-1.6193 -1.619319,-1.6193 z"
       id="rect839"
       inkscape:connector-curvature="0"
       sodipodi:nodetypes="sssssssss" />
    <rect
       ry="0"
       y="1036.2428"
       x="8"
       height="4.0563388"
       width="10.666666"
       id="rect983"
       style="color:#000000;fill:#ffffff;fill-opacity:1;fill-rule:nonzero;stroke:none;stroke-width:0.2;marker:none;visibility:visible;display:inline;overflow:visible;enable-background:accumulate" />
    <rect
       ry="0"
       y="1040.0673"
       x="29.325371"
       height="0.23198582"
       width="10.666666"
       id="rect985"
       style="color:#000000;fill:#000000;fill-opacity:0.3137255;fill-rule:nonzero;stroke:none;stroke-width:0.2;marker:none;visibility:visible;display:inline;overflow:visible;enable-background:accumulate" />
    <rect
       style="color:#000000;fill:#000000;fill-opacity:0.3137255;fill-rule:nonzero;stroke:none;stroke-width:0.2;marker:none;visibility:visible;display:inline;overflow:visible;enable-background:accumulate"
       id="rect987"
       width="10.666666"
       height="0.23198582"
       x="18.66666"
       y="1040.0673"
       ry="0" />
    <rect
       style="color:#000000;fill:#ffffff;fill-opacity:1;fill-rule:nonzero;stroke:none;stroke-width:0.2;marker:none;visibility:visible;display:inline;overflow:visible;enable-background:accumulate"
       id="rect973"
       width="10.666666"
       height="4.0563388"
       x="8"
       y="1032.1865"
       ry="0" />
    <rect
       style="color:#000000;fill:#000000;fill-opacity:0.3137255;fill-rule:nonzero;stroke:none;stroke-width:0.2;marker:none;visibility:visible;display:inline;overflow:visible;enable-background:accumulate"
       id="rect975"
       width="10.666666"
       height="0.23198582"
       x="29.325371"
       y="1036.011"
       ry="0" />
    <rect
       ry="0"
       y="1036.011"
       x="18.66666"
       height="0.23198582"
       width="10.666666"
       id="rect977"
       style="color:#000000;fill:#000000;fill-opacity:0.3137255;fill-rule:nonzero;stroke:none;stroke-width:0.2;marker:none;visibility:visible;display:inline;overflow:visible;enable-background:accumulate" />
    <rect
       ry="0"
       y="1028.1304"
       x="8"
       height="4.0563388"
       width="10.666666"
       id="rect935"
       style="color:#000000;fill:#ffffff;fill-opacity:1;fill-rule:nonzero;stroke:none;stroke-width:0.2;marker:none;visibility:visible;display:inline;overflow:visible;enable-background:accumulate" />
    <rect
       ry="0"
       y="1031.9547"
       x="29.325371"
       height="0.23198582"
       width="10.666666"
       id="rect943"
       style="color:#000000;fill:#000000;fill-opacity:0.3137255;fill-rule:nonzero;stroke:none;stroke-width:0.2;marker:none;visibility:visible;display:inline;overflow:visible;enable-background:accumulate" />
    <rect
       style="color:#000000;fill:#000000;fill-opacity:0.3137255;fill-rule:nonzero;stroke:none;stroke-width:0.2;marker:none;visibility:visible;display:inline;overflow:visible;enable-background:accumulate"
       id="rect945"
       width="10.666666"
       height="0.23198582"
       x="18.66666"
       y="1031.9547"
       ry="0" />
    <rect
       style="color:#000000;fill:#ffffff;fill-opacity:1;fill-rule:nonzero;stroke:none;stroke-width:0.2;marker:none;visibility:visible;display:inline;overflow:visible;enable-background:accumulate"
       id="rect927"
       width="10.666666"
       height="4.0563388"
       x="8"
       y="1024.3062"
       ry="0" />
    <rect
       ry="0"
       y="1016.4252"
       x="18.66666"
       height="4.0563388"
       width="10.666666"
       id="rect893"
       style="color:#000000;fill:#484848;fill-opacity:1;fill-rule:nonzero;stroke:none;stroke-width:0.2;marker:none;visibility:visible;display:inline;overflow:visible;enable-background:accumulate" />
    <rect
       ry="0"
       y="1020.2495"
       x="29.325371"
       height="0.23198582"
       width="10.666666"
       id="rect897"
       style="color:#000000;fill:#cccccc;fill-opacity:1;fill-rule:nonzero;stroke:none;stroke-width:0.2;marker:none;visibility:visible;display:inline;overflow:visible;enable-background:accumulate" />
    <rect
       style="color:#000000;fill:#000000;fill-opacity:0.23529412;fill-rule:nonzero;stroke:none;stroke-width:0.2;marker:none;visibility:visible;display:inline;overflow:visible;enable-background:accumulate"
       id="rect901"
       width="10.666666"
       height="0.23198582"
       x="29.325371"
       y="1016.4252"
       ry="0" />
    <rect
       style="color:#000000;fill:#000000;fill-opacity:0.3137255;fill-rule:nonzero;stroke:none;stroke-width:0.2;marker:none;visibility:visible;display:inline;overflow:visible;enable-background:accumulate"
       id="rect903"
       width="10.666666"
       height="0.23198582"
       x="29.325371"
       y="1020.2495"
       ry="0" />
    <rect
       style="color:#000000;fill:#000000;fill-opacity:0.3137255;fill-rule:nonzero;stroke:none;stroke-width:0.2;marker:none;visibility:visible;display:inline;overflow:visible;enable-background:accumulate"
       id="rect899"
       width="23.865711"
       height="0.23198582"
       x="-1040.2909"
       y="39.768013"
       ry="0"
       transform="matrix(0,-1,1,0,0,0)" />
    <rect
       transform="matrix(0,-1,1,0,0,0)"
       ry="0"
       y="29.101349"
       x="-1040.2909"
       height="0.23198582"
       width="23.865711"
       id="rect911"
       style="color:#000000;fill:#000000;fill-opacity:0.3137255;fill-rule:nonzero;stroke:none;stroke-width:0.2;marker:none;visibility:visible;display:inline;overflow:visible;enable-background:accumulate" />
    <rect
       style="color:#000000;fill:#cccccc;fill-opacity:1;fill-rule:nonzero;stroke:none;stroke-width:0.2;marker:none;visibility:visible;display:inline;overflow:visible;enable-background:accumulate"
       id="rect917"
       width="10.666666"
       height="0.23198582"
       x="29.325371"
       y="1024.3062"
       ry="0" />
    <rect
       ry="0"
       y="1024.3062"
       x="29.325371"
       height="0.23198582"
       width="10.666666"
       id="rect919"
       style="color:#000000;fill:#000000;fill-opacity:0.3137255;fill-rule:nonzero;stroke:none;stroke-width:0.2;marker:none;visibility:visible;display:inline;overflow:visible;enable-background:accumulate" />
    <rect
       style="color:#000000;fill:#000000;fill-opacity:0.23529412;fill-rule:nonzero;stroke:none;stroke-width:0.2;marker:none;visibility:visible;display:inline;overflow:visible;enable-background:accumulate"
       id="rect923"
       width="23.865711"
       height="0.23198582"
       x="-1040.2909"
       y="18.66666"
       ry="0"
       transform="matrix(0,-1,1,0,0,0)" />
    <rect
       style="color:#000000;fill:#000000;fill-opacity:0.3137255;fill-rule:nonzero;stroke:none;stroke-width:0.2;marker:none;visibility:visible;display:inline;overflow:visible;enable-background:accumulate"
       id="rect929"
       width="10.666666"
       height="0.23198582"
       x="29.325371"
       y="1028.1304"
       ry="0" />
    <rect
       ry="0"
       y="1028.1304"
       x="18.66666"
       height="0.23198582"
       width="10.666666"
       id="rect931"
       style="color:#000000;fill:#000000;fill-opacity:0.3137255;fill-rule:nonzero;stroke:none;stroke-width:0.2;marker:none;visibility:visible;display:inline;overflow:visible;enable-background:accumulate" />
    <rect
       style="color:#000000;fill:#484848;fill-opacity:1;fill-rule:nonzero;stroke:none;stroke-width:0.2;marker:none;visibility:visible;display:inline;overflow:visible;enable-background:accumulate"
       id="rect989"
       width="10.666666"
       height="4.0563388"
       x="8"
       y="1020.4814"
       ry="0" />
    <rect
       ry="0"
       y="1024.3062"
       x="8"
       height="0.23198582"
       width="10.666666"
       id="rect993"
       style="color:#000000;fill:#cccccc;fill-opacity:1;fill-rule:nonzero;stroke:none;stroke-width:0.2;marker:none;visibility:visible;display:inline;overflow:visible;enable-background:accumulate" />
    <rect
       transform="matrix(0,-1,1,0,0,0)"
       ry="0"
       y="8"
       x="-1040.2909"
       height="0.23198582"
       width="19.809372"
       id="rect995"
       style="color:#000000;fill:#cccccc;fill-opacity:1;fill-rule:nonzero;stroke:none;stroke-width:0.2;marker:none;visibility:visible;display:inline;overflow:visible;enable-background:accumulate" />
    <rect
       style="color:#000000;fill:#000000;fill-opacity:0.23529412;fill-rule:nonzero;stroke:none;stroke-width:0.2;marker:none;visibility:visible;display:inline;overflow:visible;enable-background:accumulate"
       id="rect997"
       width="10.666666"
       height="0.23198582"
       x="8"
       y="1020.4814"
       ry="0" />
    <rect
       style="color:#000000;fill:#d4e6b5;fill-opacity:1;fill-rule:nonzero;stroke:none;stroke-width:0.2;marker:none;visibility:visible;display:inline;overflow:visible;enable-background:accumulate"
       id="rect4373"
       width="10.666666"
       height="15.514595"
       x="8.0056677"
       y="1024.5387"
       ry="0" />
    <rect
       style="color:#000000;fill:#000000;fill-opacity:0.3137255;fill-rule:nonzero;stroke:none;stroke-width:0.2;marker:none;visibility:visible;display:inline;overflow:visible;enable-background:accumulate"
       id="rect999"
       width="10.666666"
       height="0.23198582"
       x="8"
       y="1028.1304"
       ry="0" />
    <rect
       style="color:#000000;fill:#cccccc;fill-opacity:1;fill-rule:nonzero;stroke:none;stroke-width:0.2;marker:none;visibility:visible;display:inline;overflow:visible;enable-background:accumulate"
       id="rect1023"
       width="10.666666"
       height="0.23198582"
       x="8"
       y="1040.0673"
       ry="0" />
    <rect
       ry="0"
       y="1040.0673"
       x="8"
       height="0.23198582"
       width="10.666666"
       id="rect1025"
       style="color:#000000;fill:#cccccc;fill-opacity:1;fill-rule:nonzero;stroke:none;stroke-width:0.2;marker:none;visibility:visible;display:inline;overflow:visible;enable-background:accumulate" />
    <rect
       ry="0"
       y="1036.011"
       x="8"
       height="0.23198582"
       width="10.666666"
       id="rect1027"
       style="color:#000000;fill:#000000;fill-opacity:0.3137255;fill-rule:nonzero;stroke:none;stroke-width:0.2;marker:none;visibility:visible;display:inline;overflow:visible;enable-background:accumulate" />
    <rect
       style="color:#000000;fill:#000000;fill-opacity:0.3137255;fill-rule:nonzero;stroke:none;stroke-width:0.2;marker:none;visibility:visible;display:inline;overflow:visible;enable-background:accumulate"
       id="rect1029"
       width="10.666666"
       height="0.23198582"
       x="8"
       y="1031.9547"
       ry="0" />
    <rect
       ry="0"
       y="1016.4252"
       x="18.66666"
       height="0.23198582"
       width="10.666666"
       id="rect1107"
       style="color:#000000;fill:#000000;fill-opacity:0.23529412;fill-rule:nonzero;stroke:none;stroke-width:0.2;marker:none;visibility:visible;display:inline;overflow:visible;enable-background:accumulate" />
    <rect
       ry="0"
       y="1020.4814"
       x="18.66666"
       height="4.0563388"
       width="10.666666"
       id="rect909"
       style="color:#000000;fill:#d4e6b5;fill-opacity:1;fill-rule:nonzero;stroke:none;stroke-width:0.2;marker:none;visibility:visible;display:inline;overflow:visible;enable-background:accumulate" />
    <path
       style="color:#000000;fill:#96cc3e;fill-opacity:1;fill-rule:nonzero;stroke:none;stroke-width:0.2;marker:none;visibility:visible;display:inline;overflow:visible;enable-background:accumulate"
       d="m 18.660993,1024.3054 0,0.2334 10.048525,0 0,-0.2334 -10.048525,0 z"
       id="rect921"
       inkscape:connector-curvature="0" />
    <rect
       ry="0"
       y="1020.2495"
       x="18.66666"
       height="0.23198582"
       width="10.666666"
       id="rect1111"
       style="color:#000000;fill:#96cc3e;fill-opacity:1;fill-rule:nonzero;stroke:none;stroke-width:0.2;marker:none;visibility:visible;display:inline;overflow:visible;enable-background:accumulate" />
    <rect
       transform="matrix(0,-1,1,0,0,0)"
       ry="0"
       y="18.66666"
       x="-1024.5366"
       height="0.23198582"
       width="4.2868004"
       id="rect1113"
       style="color:#000000;fill:#96cc3e;fill-opacity:1;fill-rule:nonzero;stroke:none;stroke-width:0.2;marker:none;visibility:visible;display:inline;overflow:visible;enable-background:accumulate" />
    <path
       style="color:#000000;fill:#96cc3e;fill-opacity:1;fill-rule:nonzero;stroke:none;stroke-width:0.2;marker:none;visibility:visible;display:inline;overflow:visible;enable-background:accumulate"
       d="m 29.105865,1020.2488 0,3.6603 0.233144,0 0,-3.6603 -0.233144,0 z"
       id="rect1115"
       inkscape:connector-curvature="0" />
    <rect
       style="color:#000000;fill:#96cc3e;fill-opacity:1;fill-rule:nonzero;stroke:none;stroke-width:0.2;marker:none;visibility:visible;display:inline;overflow:visible;enable-background:accumulate"
       id="rect1117"
       width="0.79269117"
       height="0.79269117"
       x="28.814436"
       y="1024.0258" />
    <path
       inkscape:connector-curvature="0"
       id="path1149"
       style="font-size:3.39965391px;font-style:normal;font-variant:normal;font-weight:normal;font-stretch:normal;line-height:125%;letter-spacing:0px;word-spacing:0px;fill:#ffffff;fill-opacity:1;stroke:none;font-family:Helvetica;-inkscape-font-specification:Helvetica"
       d="m 23.660129,1018.9885 -0.124281,0.3754 -0.400745,0 0.649306,-1.8213 0.43879,0 0.641698,1.8213 -0.413426,0 -0.119207,-0.3754 -0.672135,0 z m 0.103991,-0.3146 0.464152,0 L 24,1017.9535 l -0.23588,0.7204 z" />
    <path
       inkscape:connector-curvature="0"
       id="path1146"
       style="font-size:3.39965391px;font-style:normal;font-variant:normal;font-weight:normal;font-stretch:normal;line-height:125%;letter-spacing:0px;word-spacing:0px;fill:#000000;fill-opacity:1;stroke:none;font-family:Helvetica;-inkscape-font-specification:Helvetica"
       d="m 33.907945,1019.3639 0,-1.8212 0.885187,0 q 0.299293,0 0.446398,0.1626 0.114138,0.1265 0.114138,0.304 0,0.17 -0.08371,0.2688 -0.0482,0.056 -0.142036,0.104 0.154718,0.057 0.223199,0.1828 0.05832,0.1067 0.05832,0.2588 0,0.2256 -0.154717,0.3754 -0.08877,0.087 -0.185155,0.1191 -0.134426,0.045 -0.390597,0.045 l -0.771051,10e-5 z m 0.3627,-0.8014 0.0024,0.4868 0.466688,0 q 0.142037,0 0.215591,-0.063 0.07609,-0.066 0.07609,-0.2028 0,-0.1115 -0.08117,-0.1649 -0.08117,-0.057 -0.195299,-0.057 l -0.484443,2e-4 z m 0,-0.7051 0.0024,0.3983 0.446398,0 q 0.121745,0 0.190226,-0.045 0.07864,-0.054 0.07864,-0.1574 0,-0.104 -0.07354,-0.1495 -0.07354,-0.045 -0.20798,-0.045 l -0.436253,-2e-4 z" />
    <path
       inkscape:connector-curvature="0"
       id="path1162"
       style="font-size:3.39965391px;font-style:normal;font-variant:normal;font-weight:normal;font-stretch:normal;line-height:125%;letter-spacing:0px;word-spacing:0px;fill:#ffffff;fill-opacity:1;stroke:none;font-family:Helvetica;-inkscape-font-specification:Helvetica"
       d="m 12.592717,1022.1798 0,-0.2487 0.05073,0 q 0.233344,0 0.347477,-0.104 0.09131,-0.084 0.09131,-0.208 l 0.29168,0 0.0024,1.8011 -0.355089,0 0,-1.2404 -0.428644,0 z" />
    <path
       inkscape:connector-curvature="0"
       id="path4375"
       d="m 8,1040.0665 0,0.2334 10.048525,0 0,-0.2334 -10.048525,0 z"
       style="color:#000000;fill:#96cc3e;fill-opacity:1;fill-rule:nonzero;stroke:none;stroke-width:0.2;marker:none;visibility:visible;display:inline;overflow:visible;enable-background:accumulate" />
    <rect
       style="color:#000000;fill:#96cc3e;fill-opacity:1;fill-rule:nonzero;stroke:none;stroke-width:0.2;marker:none;visibility:visible;display:inline;overflow:visible;enable-background:accumulate"
       id="rect4377"
       width="10.666666"
       height="0.23198582"
       x="8.0056677"
       y="1024.3069"
       ry="0" />
    <rect
       style="color:#000000;fill:#96cc3e;fill-opacity:1;fill-rule:nonzero;stroke:none;stroke-width:0.2;marker:none;visibility:visible;display:inline;overflow:visible;enable-background:accumulate"
       id="rect4379"
       width="15.772079"
       height="0.23198582"
       x="-1040.0819"
       y="8.0056677"
       ry="0"
       transform="matrix(0,-1,1,0,0,0)" />
    <path
       inkscape:connector-curvature="0"
       id="path4381"
       d="m 18.660993,1024.3062 0,15.2109 0.233144,0 0,-15.2109 -0.233144,0 z"
       style="color:#000000;fill:#96cc3e;fill-opacity:1;fill-rule:nonzero;stroke:none;stroke-width:0.2;marker:none;visibility:visible;display:inline;overflow:visible;enable-background:accumulate" />
    <rect
       y="1039.7869"
       x="18.38122"
       height="0.79269117"
       width="0.79269117"
       id="rect4383"
       style="color:#000000;fill:#96cc3e;fill-opacity:1;fill-rule:nonzero;stroke:none;stroke-width:0.2;marker:none;visibility:visible;display:inline;overflow:visible;enable-background:accumulate" />
    <path
       inkscape:connector-curvature="0"
       id="path1159"
       style="font-size:3.39965391px;font-style:normal;font-variant:normal;font-weight:normal;font-stretch:normal;line-height:125%;letter-spacing:0px;word-spacing:0px;fill:#000000;fill-opacity:1;stroke:none;font-family:Helvetica;-inkscape-font-specification:Helvetica"
       d="m 12.848888,1026.0702 -0.344943,0 q 0,-0.3805 0.233343,-0.5376 0.144575,-0.099 0.352555,-0.099 0.268853,0 0.443861,0.1523 0.175008,0.1499 0.175008,0.416 0,0.2056 -0.121744,0.3629 -0.08117,0.1064 -0.2511,0.2231 -0.111599,0.079 -0.22066,0.1545 -0.152183,0.1119 -0.18262,0.1776 l 0.781196,0 0,0.3147 -1.230128,0 q 0,-0.2028 0.06086,-0.3298 0.09131,-0.1929 0.357627,-0.3854 0.2232,-0.1626 0.28407,-0.2155 0.167401,-0.1472 0.167401,-0.3148 0,-0.1012 -0.05833,-0.1724 -0.06848,-0.085 -0.190227,-0.085 -0.162327,0 -0.220663,0.1193 -0.03551,0.072 -0.03551,0.218 z" />
    <path
       inkscape:connector-curvature="0"
       id="path1152"
       style="font-size:3.39965391px;font-style:normal;font-variant:normal;font-weight:normal;font-stretch:normal;line-height:125%;letter-spacing:0px;word-spacing:0px;fill:#000000;fill-opacity:1;stroke:none;font-family:Helvetica;-inkscape-font-specification:Helvetica"
       d="m 23.608135,1022.1798 0,-0.2487 0.05073,0 q 0.233345,0 0.347483,-0.104 0.0913,-0.084 0.0913,-0.208 l 0.291682,0 0.0024,1.8011 -0.355088,0 0,-1.2404 -0.428643,0 z" />
    <path
       inkscape:connector-curvature="0"
       id="path1154"
       style="font-size:3.39965391px;font-style:normal;font-variant:normal;font-weight:normal;font-stretch:normal;line-height:125%;letter-spacing:0px;word-spacing:0px;fill:#000000;fill-opacity:1;stroke:none;font-family:Helvetica;-inkscape-font-specification:Helvetica"
       d="m 25.174689,1022.7453 0.454008,0 0,-0.7734 -0.454008,0.7734 z m 1.004395,0 -0.0024,0.2767 -0.197836,0 0,0.3982 -0.35509,0 0,-0.3982 -0.710178,0 0,-0.307 0.659451,-1.0959 0.405817,0 0,1.1262 0.200372,0 z" />
    <path
       inkscape:connector-curvature="0"
       id="path1156"
       style="font-size:3.39965391px;font-style:normal;font-variant:normal;font-weight:normal;font-stretch:normal;line-height:125%;letter-spacing:0px;word-spacing:0px;fill:#000000;fill-opacity:1;stroke:none;font-family:Helvetica;-inkscape-font-specification:Helvetica"
       d="m 27.540196,1022.0759 -0.352556,0 q -0.01016,-0.082 -0.06087,-0.127 -0.05073,-0.045 -0.149645,-0.045 -0.157253,0 -0.233344,0.1598 -0.06342,0.1344 -0.06342,0.3373 l 0.0075,0.01 q 0.06087,-0.084 0.144572,-0.1167 0.08624,-0.033 0.192763,-0.033 0.261245,0 0.413426,0.1751 0.136963,0.1598 0.136963,0.3805 0,0.2968 -0.162327,0.4769 -0.162328,0.18 -0.426108,0.18 -0.372843,0 -0.530097,-0.284 -0.121746,-0.2182 -0.121746,-0.6214 0,-0.2385 0.03298,-0.3958 0.05073,-0.2409 0.182618,-0.3779 0.164862,-0.1699 0.45147,-0.1699 0.08624,0 0.177545,0.023 0.129353,0.033 0.190226,0.093 0.07864,0.075 0.111599,0.1423 0.0355,0.059 0.05832,0.1947 z m -0.322118,0.7659 q 0,-0.1546 -0.08624,-0.2357 -0.07101,-0.066 -0.169936,-0.066 -0.114137,0 -0.185154,0.07 -0.08624,0.084 -0.08624,0.241 0,0.1495 0.07609,0.2434 0.07608,0.091 0.205445,0.091 0.106526,0 0.175008,-0.085 0.07101,-0.085 0.07101,-0.2591 z" />
    <rect
       ry="0"
       y="1016.3622"
       x="8"
       height="0.23198582"
       width="10.666666"
       id="rect3910"
       style="color:#000000;fill:#000000;fill-opacity:0.31372549;fill-rule:nonzero;stroke:none;stroke-width:0.2;marker:none;visibility:visible;display:inline;overflow:visible;enable-background:accumulate" />
    <rect
       transform="matrix(0,-1,1,0,0,0)"
       ry="0"
       y="8"
       x="-1024.3622"
       height="0.23198582"
       width="7.999989"
       id="rect3912"
       style="color:#000000;fill:#000000;fill-opacity:0.31372549;fill-rule:nonzero;stroke:none;stroke-width:0.2;marker:none;visibility:visible;display:inline;overflow:visible;enable-background:accumulate" />
    <rect
       style="color:#000000;fill:#000000;fill-opacity:0.31372549;fill-rule:nonzero;stroke:none;stroke-width:0.2;marker:none;visibility:visible;display:inline;overflow:visible;enable-background:accumulate"
       id="rect3914"
       width="11.310716"
       height="0.20691161"
       x="364.73886"
       y="949.10162"
       ry="0"
       transform="matrix(0.93660154,0.35039628,-0.35134433,0.93624632,0,0)" />
    <path
       style="opacity:0.5;fill:#000000;fill-opacity:1;stroke:none"
       d="m 6.0000003,1048.3622 0,0 C 24,1047.3622 24,1047.3622 42,1048.3622 z"
       id="path3257"
       inkscape:connector-curvature="0"
       sodipodi:nodetypes="cccc" />
    <path
       sodipodi:nodetypes="cccc"
       inkscape:connector-curvature="0"
       id="path4027"
       d="m 6.0000003,1008.3622 0,0 c 17.9999997,1 17.9999997,1 35.9999997,0 z"
       style="opacity:0.9;fill:#ffffff;fill-opacity:1;stroke:none" />
  </g>
</svg>
