<?xml version="1.0" encoding="UTF-8" standalone="no"?>
<svg
   xmlns:dc="http://purl.org/dc/elements/1.1/"
   xmlns:cc="http://creativecommons.org/ns#"
   xmlns:rdf="http://www.w3.org/1999/02/22-rdf-syntax-ns#"
   xmlns:svg="http://www.w3.org/2000/svg"
   xmlns="http://www.w3.org/2000/svg"
   xmlns:xlink="http://www.w3.org/1999/xlink"
   xmlns:sodipodi="http://sodipodi.sourceforge.net/DTD/sodipodi-0.dtd"
   xmlns:inkscape="http://www.inkscape.org/namespaces/inkscape"
   viewBox="0 0 48 48"
   id="svg2"
   version="1.1"
   inkscape:version="0.91 r13725"
   sodipodi:docname="cellwriter.svg">
  <metadata
     id="metadata39">
    <rdf:RDF>
      <cc:Work
         rdf:about="">
        <dc:format>image/svg+xml</dc:format>
        <dc:type
           rdf:resource="http://purl.org/dc/dcmitype/StillImage" />
      </cc:Work>
    </rdf:RDF>
  </metadata>
  <sodipodi:namedview
     pagecolor="#ffffff"
     bordercolor="#666666"
     borderopacity="1"
     objecttolerance="10"
     gridtolerance="10"
     guidetolerance="10"
     inkscape:pageopacity="0"
     inkscape:pageshadow="2"
     inkscape:window-width="686"
     inkscape:window-height="485"
     id="namedview37"
     showgrid="false"
     inkscape:zoom="4.9166667"
     inkscape:cx="24"
     inkscape:cy="24"
     inkscape:window-x="475"
     inkscape:window-y="93"
     inkscape:window-maximized="0"
     inkscape:current-layer="svg2" />
  <defs
     id="defs4">
    <linearGradient
       id="linearGradient3764"
       x1="1"
       x2="47"
       gradientUnits="userSpaceOnUse"
       gradientTransform="matrix(0,-1,1,0,-1.5e-6,47.999998)">
      <stop
         style="stop-color:#e4e4e4;stop-opacity:1"
         id="stop7" />
      <stop
         offset="1"
         style="stop-color:#eee;stop-opacity:1"
         id="stop9" />
    </linearGradient>
    <linearGradient
       inkscape:collect="always"
       xlink:href="#linearGradient3859"
       id="linearGradient3739"
       gradientUnits="userSpaceOnUse"
       gradientTransform="matrix(0.83333307,0,0,0.83333307,-317.03371,412.80361)"
       x1="379.57144"
       y1="-527.79797"
       x2="431.57144"
       y2="-527.79797" />
    <linearGradient
       id="linearGradient3859">
      <stop
         id="stop3861"
         offset="0"
         style="stop-color:#cccccc;stop-opacity:1" />
      <stop
         id="stop3863"
         offset="1"
         style="stop-color:#ececec;stop-opacity:1" />
    </linearGradient>
  </defs>
  <g
     id="g3665"
     transform="translate(0.55761199,0.30529681)">
    <rect
       transform="scale(1,-1)"
       ry="0"
       y="-43.694542"
       x="3.4424012"
       height="39.999989"
       width="39.999989"
       id="rect3667"
       style="fill:url(#linearGradient3739);fill-opacity:1;stroke:none" />
    <path
       sodipodi:nodetypes="cccc"
       inkscape:connector-curvature="0"
       id="path3669"
       d="m 3.4423873,43.694552 40.0000007,3.01e-4 c -20,-0.999999 -20,-0.999999 -40.0000017,0 z"
       style="opacity:0.35;fill:#000000;fill-opacity:1;stroke:none" />
    <path
       style="opacity:0.5;fill:#ffffff;fill-opacity:1;stroke:none"
       d="M 3.4423913,3.6947551 43.442388,3.6945549 c -19.999996,1.0000006 -19.999996,1.0000006 -39.9999977,0 z"
       id="path3671"
       inkscape:connector-curvature="0"
       sodipodi:nodetypes="cccc" />
  </g>
  <path
     d="m 12 16 0 18 26 0 0 -18 -26 0 z m 1 1 11 0 0 16 -11 0 0 -16 z m 13 0 11 0 0 16 -11 0 0 -16 z m 7.416 1.658 c 0.334 2.101 1.062 4.168 0.934 6.32 -0.086 0.787 -0.209 1.586 -0.529 2.324 -0.436 1.01 -1.37 -1.872 -1.637 -2.637 -0.224 -0.642 -1 -0.582 -1.268 0.033 -0.346 0.802 -0.483 1.697 -0.943 2.441 -1.706 2.758 -1.86 -3.236 -1.051 -4.623 -0.003 -0.489 -1.086 -0.371 -1.086 -0.371 -0.076 2.091 -0.88 5.873 0.307 7.523 0.645 0.897 2.108 -0.171 2.709 -1.561 1.105 -2.555 1.24 2.183 3.338 1.35 0.909 -0.503 1.279 -1.711 1.309 -2.744 0.058 -2.029 -0.813 -6.01 -2.082 -8.06 z m -14.217 1.344 c -0.446 -0.025 -1.01 0.328 -1.322 0.613 -1.69 1.118 -3.26 2.906 -3.371 5.162 -0.115 1.978 1.489 3.521 3.115 4.03 1.545 0.533 3.584 -0.061 4.879 -1.316 -1.045 0.528 -2.246 0.644 -3.371 0.4 -1.461 -0.299 -3.083 -1.295 -3.324 -3.03 -0.008 -1.644 0.972 -3.261 2.334 -3.955 0.677 -0.14 1.886 -0.279 1.66 -1.346 -0.107 -0.386 -0.332 -0.538 -0.6 -0.553 z"
     style="fill:#000;opacity:0.1;fill-opacity:1;stroke:none;fill-rule:evenodd"
     id="path23" />
  <g
     id="g29">
    <path
       d="m 11 15 0 18 c 8.667 0 17.333 0 26 0 l 0 -18 c -8.667 0 -17.333 0 -26 0 z m 1 1 11 0 0 16 -11 0 z m 13 0 11 0 0 16 -11 0 z"
       style="fill:#969696;fill-opacity:1;stroke:none;fill-rule:evenodd"
       id="path31" />
    <path
       d="m 16.62 28.804 c -1.626 -0.506 -3.229 -2.049 -3.114 -4.03 0.111 -2.256 1.681 -4.04 3.371 -5.161 0.506 -0.457 1.638 -1.09 1.923 -0.062 0.225 1.067 -0.984 1.207 -1.661 1.347 -1.361 0.694 -2.342 2.31 -2.334 3.954 0.241 1.738 1.862 2.734 3.324 3.03 1.125 0.243 2.327 0.128 3.372 -0.4 -1.295 1.256 -3.334 1.849 -4.88 1.317 z"
       style="fill:#333;fill-opacity:1"
       id="path33" />
    <path
       d="m 27.14 28.67 c -1.186 -1.651 -0.383 -5.433 -0.307 -7.524 0 0 1.084 -0.118 1.086 0.371 -0.81 1.387 -0.657 7.38 1.049 4.622 0.461 -0.745 0.598 -1.638 0.945 -2.44 0.266 -0.615 1.043 -0.676 1.267 -0.034 0.267 0.764 1.202 3.642 1.637 2.637 0.32 -0.738 0.443 -1.537 0.529 -2.324 0.129 -2.153 -0.601 -4.22 -0.935 -6.321 1.269 2.047 2.14 6.03 2.082 8.06 -0.029 1.034 -0.4 2.241 -1.308 2.744 -2.098 0.833 -2.232 -3.905 -3.337 -1.35 -0.601 1.389 -2.064 2.458 -2.709 1.561 z"
       style="fill:#333;fill-opacity:1"
       id="path35" />
  </g>
</svg>
