<?xml version="1.0" encoding="UTF-8" standalone="no"?>
<svg
   xmlns:dc="http://purl.org/dc/elements/1.1/"
   xmlns:cc="http://creativecommons.org/ns#"
   xmlns:rdf="http://www.w3.org/1999/02/22-rdf-syntax-ns#"
   xmlns:svg="http://www.w3.org/2000/svg"
   xmlns="http://www.w3.org/2000/svg"
   xmlns:xlink="http://www.w3.org/1999/xlink"
   xmlns:sodipodi="http://sodipodi.sourceforge.net/DTD/sodipodi-0.dtd"
   xmlns:inkscape="http://www.inkscape.org/namespaces/inkscape"
   viewBox="0 0 48 48"
   id="svg2"
   version="1.1"
   inkscape:version="0.91 r13725"
   sodipodi:docname="chatty.svg">
  <metadata
     id="metadata35">
    <rdf:RDF>
      <cc:Work
         rdf:about="">
        <dc:format>image/svg+xml</dc:format>
        <dc:type
           rdf:resource="http://purl.org/dc/dcmitype/StillImage" />
      </cc:Work>
    </rdf:RDF>
  </metadata>
  <sodipodi:namedview
     pagecolor="#ffffff"
     bordercolor="#666666"
     borderopacity="1"
     objecttolerance="10"
     gridtolerance="10"
     guidetolerance="10"
     inkscape:pageopacity="0"
     inkscape:pageshadow="2"
     inkscape:window-width="1366"
     inkscape:window-height="705"
     id="namedview33"
     showgrid="false"
     inkscape:zoom="4.9166667"
     inkscape:cx="24"
     inkscape:cy="24"
     inkscape:window-x="0"
     inkscape:window-y="28"
     inkscape:window-maximized="1"
     inkscape:current-layer="svg2" />
  <defs
     id="defs4">
    <linearGradient
       id="linearGradient3764"
       x1="1"
       x2="47"
       gradientUnits="userSpaceOnUse"
       gradientTransform="matrix(0,-1,1,0,-1.5e-6,47.999998)">
      <stop
         style="stop-color:#622a5f;stop-opacity:1"
         id="stop7" />
      <stop
         offset="1"
         style="stop-color:#70306c;stop-opacity:1"
         id="stop9" />
    </linearGradient>
    <linearGradient
       inkscape:collect="always"
       xlink:href="#linearGradient3430"
       id="linearGradient3283"
       gradientUnits="userSpaceOnUse"
       gradientTransform="matrix(0.83333307,0,0,0.83333307,-317.03371,412.80361)"
       x1="379.57144"
       y1="-527.79797"
       x2="431.57144"
       y2="-527.79797" />
    <linearGradient
       id="linearGradient3430">
      <stop
         style="stop-color:#6a1b9a;stop-opacity:1"
         offset="0"
         id="stop3432" />
      <stop
         style="stop-color:#ba68c8;stop-opacity:1"
         offset="1"
         id="stop3434" />
    </linearGradient>
  </defs>
  <g
     transform="translate(0.55761199,0.30529681)"
     id="g3255">
    <rect
       style="fill:url(#linearGradient3283);fill-opacity:1;stroke:none"
       id="rect3257"
       width="39.999989"
       height="39.999989"
       x="3.4424012"
       y="-43.694542"
       ry="0"
       transform="scale(1,-1)" />
    <path
       style="opacity:0.35;fill:#000000;fill-opacity:1;stroke:none"
       d="m 3.4423873,43.694552 40.0000007,3.01e-4 c -20,-0.999999 -20,-0.999999 -40.0000017,0 z"
       id="path3259"
       inkscape:connector-curvature="0"
       sodipodi:nodetypes="cccc" />
    <path
       sodipodi:nodetypes="cccc"
       inkscape:connector-curvature="0"
       id="path3261"
       d="M 3.4423913,3.6947551 43.442388,3.6945549 c -19.999996,1.0000006 -19.999996,1.0000006 -39.9999977,0 z"
       style="opacity:0.5;fill:#ffffff;fill-opacity:1;stroke:none" />
  </g>
  <path
     d="m 25 12.493 c -4 0 -7 0.5 -10.227 1.5 c -0.937 0.289 -1.371 0.875 -1.773 1.773 c -1 2.227 -1.5 4.227 -1.5 7.727 0 2.5 0.5 4.5 1.5 7.73 0.289 0.938 0.816 1.543 1.773 1.77 1.647 0.39 2.928 0.68 4.148 0.918 c -0.258 1.706 -1.226 3.363 -2.922 4.082 c 3.613 0.137 7.216 -1.689 7.881 -3.518 0.361 0.001 0.723 0.018 1.119 0.018 4 0 6 -0.5 10.227 -1.5 c 0.957 -0.227 1.484 -0.832 1.773 -1.77 c 1 -3.23 1.5 -5.23 1.5 -7.73 0 -2.5 -0.5 -4.938 -1.5 -7.727 -0.332 -0.925 -0.835 -1.484 -1.773 -1.773 -3.227 -1 -6.227 -1.5 -10.227 -1.5 z m 0.83 4.508 c 0.951 0 1.884 0.195 2.799 0.586 0.921 0.385 1.706 0.908 2.354 1.566 l -1.881 2.223 c -0.416 -0.51 -0.914 -0.913 -1.49 -1.209 -0.577 -0.302 -1.152 -0.453 -1.729 -0.453 -0.672 0 -1.277 0.162 -1.818 0.488 -0.541 0.32 -0.966 0.761 -1.275 1.324 -0.309 0.563 -0.463 1.191 -0.463 1.885 0 0.705 0.154 1.343 0.463 1.912 0.309 0.569 0.735 1.02 1.275 1.352 0.547 0.326 1.153 0.49 1.818 0.49 0.535 0 1.089 -0.134 1.666 -0.4 0.582 -0.267 1.101 -0.631 1.553 -1.094 l 1.898 2 c -0.695 0.705 -1.516 1.272 -2.461 1.699 -0.939 0.421 -1.877 0.631 -2.816 0.631 -1.266 0 -2.411 -0.284 -3.434 -0.854 c -1.022 -0.569 -1.828 -1.356 -2.416 -2.357 -0.582 -1 -0.873 -2.115 -0.873 -3.342 c 0 -1.215 0.296 -2.309 0.891 -3.281 0.6 -0.978 1.421 -1.749 2.461 -2.313 1.04 -0.569 2.201 -0.854 3.479 -0.854 z"
     style="fill:#000;fill-opacity:0.098;stroke:none;fill-rule:nonzero"
     id="path27" />
  <path
     d="m 24 11.492 c -4 0 -7 0.5 -10.227 1.5 c -0.937 0.289 -1.371 0.875 -1.773 1.773 c -1 2.227 -1.5 4.227 -1.5 7.727 c 0 2.5 0.5 4.5 1.5 7.73 c 0.289 0.938 0.816 1.543 1.773 1.77 c 4.227 1 6.227 1.5 10.227 1.5 c 4 0 6 -0.5 10.227 -1.5 c 0.957 -0.227 1.484 -0.832 1.773 -1.77 c 1 -3.23 1.5 -5.23 1.5 -7.73 c 0 -2.5 -0.5 -4.938 -1.5 -7.727 c -0.332 -0.925 -0.835 -1.484 -1.773 -1.773 c -3.227 -1 -6.227 -1.5 -10.227 -1.5 z m 0.83 4.508 c 0.951 0 1.884 0.195 2.799 0.586 c 0.921 0.385 1.706 0.908 2.354 1.566 l -1.881 2.223 c -0.416 -0.51 -0.914 -0.913 -1.49 -1.209 c -0.577 -0.302 -1.152 -0.453 -1.729 -0.453 c -0.672 0 -1.277 0.162 -1.818 0.488 c -0.541 0.32 -0.966 0.761 -1.275 1.324 c -0.309 0.563 -0.463 1.191 -0.463 1.885 c 0 0.705 0.154 1.343 0.463 1.912 c 0.309 0.569 0.735 1.02 1.275 1.352 c 0.547 0.326 1.153 0.49 1.818 0.49 c 0.535 0 1.089 -0.134 1.666 -0.4 c 0.582 -0.267 1.101 -0.631 1.553 -1.094 l 1.898 2 c -0.695 0.705 -1.516 1.272 -2.461 1.699 c -0.939 0.421 -1.877 0.631 -2.816 0.631 c -1.266 0 -2.411 -0.284 -3.434 -0.854 c -1.022 -0.569 -1.828 -1.356 -2.416 -2.357 c -0.582 -1 -0.873 -2.115 -0.873 -3.342 c 0 -1.215 0.296 -2.309 0.891 -3.281 c 0.6 -0.978 1.421 -1.749 2.461 -2.313 c 1.04 -0.569 2.201 -0.854 3.479 -0.854 z"
     style="fill:#e7a3f1;fill-opacity:1;stroke:none;fill-rule:nonzero"
     id="path29" />
  <path
     d="m 23 32.891 c 0 2 -4 4.254 -8 4.102 2 -0.848 3 -3 3 -5 m 5 0.898"
     style="fill:#e7a3f1;fill-opacity:1;stroke:none;fill-rule:nonzero"
     id="path31" />
</svg>
