<?xml version="1.0" encoding="UTF-8" standalone="no"?>
<svg
   xmlns:dc="http://purl.org/dc/elements/1.1/"
   xmlns:cc="http://creativecommons.org/ns#"
   xmlns:rdf="http://www.w3.org/1999/02/22-rdf-syntax-ns#"
   xmlns:svg="http://www.w3.org/2000/svg"
   xmlns="http://www.w3.org/2000/svg"
   xmlns:xlink="http://www.w3.org/1999/xlink"
   xmlns:sodipodi="http://sodipodi.sourceforge.net/DTD/sodipodi-0.dtd"
   xmlns:inkscape="http://www.inkscape.org/namespaces/inkscape"
   viewBox="0 0 48 48"
   id="svg2"
   version="1.1"
   inkscape:version="0.91 r13725"
   sodipodi:docname="chrome-gebjgjhbjedcomcajgpodjgfjgkepgpl-Default.svg">
  <metadata
     id="metadata33">
    <rdf:RDF>
      <cc:Work
         rdf:about="">
        <dc:format>image/svg+xml</dc:format>
        <dc:type
           rdf:resource="http://purl.org/dc/dcmitype/StillImage" />
      </cc:Work>
    </rdf:RDF>
  </metadata>
  <sodipodi:namedview
     pagecolor="#ffffff"
     bordercolor="#666666"
     borderopacity="1"
     objecttolerance="10"
     gridtolerance="10"
     guidetolerance="10"
     inkscape:pageopacity="0"
     inkscape:pageshadow="2"
     inkscape:window-width="686"
     inkscape:window-height="485"
     id="namedview31"
     showgrid="false"
     inkscape:zoom="4.9166667"
     inkscape:cx="24"
     inkscape:cy="24"
     inkscape:window-x="507"
     inkscape:window-y="104"
     inkscape:window-maximized="0"
     inkscape:current-layer="svg2" />
  <defs
     id="defs4">
    <linearGradient
       id="linearGradient3837"
       x1="1"
       x2="47"
       gradientUnits="userSpaceOnUse">
      <stop
         style="stop-color:#e3120c;stop-opacity:1"
         id="stop7" />
      <stop
         offset="1"
         style="stop-color:#f21812;stop-opacity:1"
         id="stop9" />
    </linearGradient>
    <linearGradient
       inkscape:collect="always"
       xlink:href="#linearGradient3534"
       id="linearGradient3520"
       gradientUnits="userSpaceOnUse"
       gradientTransform="matrix(0.83333307,0,0,0.83333307,-317.03371,412.80361)"
       x1="379.57144"
       y1="-527.79797"
       x2="431.57144"
       y2="-527.79797" />
    <linearGradient
       id="linearGradient3534">
      <stop
         id="stop3536"
         offset="0"
         style="stop-color:#e64a19;stop-opacity:1" />
      <stop
         id="stop3538"
         offset="1"
         style="stop-color:#ff8a65;stop-opacity:1" />
    </linearGradient>
  </defs>
  <g
     id="g3486"
     transform="translate(0.55761199,0.30529681)">
    <rect
       transform="scale(1,-1)"
       ry="0"
       y="-43.694542"
       x="3.4424012"
       height="39.999989"
       width="39.999989"
       id="rect3488"
       style="fill:url(#linearGradient3520);fill-opacity:1;stroke:none" />
    <path
       sodipodi:nodetypes="cccc"
       inkscape:connector-curvature="0"
       id="path3490"
       d="m 3.4423873,43.694552 40.0000007,3.01e-4 c -20,-0.999999 -20,-0.999999 -40.0000017,0 z"
       style="opacity:0.35;fill:#000000;fill-opacity:1;stroke:none" />
    <path
       style="opacity:0.5;fill:#ffffff;fill-opacity:1;stroke:none"
       d="M 3.4423913,3.6947551 43.442388,3.6945549 c -19.999996,1.0000006 -19.999996,1.0000006 -39.9999977,0 z"
       id="path3492"
       inkscape:connector-curvature="0"
       sodipodi:nodetypes="cccc" />
  </g>
  <path
     d="m 14 37 0 -1 c 2 0 4 -0.503 4 -2 l 0 -18 c 0 -1.54 -2 -2 -4 -2 l 0 -1 19.695 0 0.305 6 -1 0 c 0 -1 -0.544 -4 -3 -4 l 0 0 -8 0 0 9 7 0 c 1.557 0 2 -1 2 -3 l 1 0 0 8 -1 0 c 0 -2 -0.547 -3 -2 -3 l -7 0 0 7 c 0 1 1 2 2 2 l 6 0 c 2 0 3.912 -0.877 4.458 -4 l 1.119 0 -0.576 6 z"
     style="fill:#000;opacity:0.1;fill-opacity:1;stroke:none"
     id="path27" />
  <path
     d="m 13 36 0 -1 c 2 0 4 -0.503 4 -2 l 0 -18 c 0 -1.54 -2 -2 -4 -2 l 0 -1 19.695 0 0.305 6 -1 0 c 0 -1 -0.544 -4 -3 -4 l 0 0 -8 0 0 9 7 0 c 1.557 0 2 -1 2 -3 l 1 0 0 8 -1 0 c 0 -2 -0.547 -3 -2 -3 l -7 0 0 7 c 0 1 1 2 2 2 l 6 0 c 2 0 3.912 -0.877 4.458 -4 l 1.119 0 -0.576 6 z"
     style="fill:#eeeae6;opacity:1;fill-opacity:1;stroke:none"
     id="path29" />
</svg>
