<?xml version="1.0" encoding="UTF-8" standalone="no"?>
<svg
   xmlns:dc="http://purl.org/dc/elements/1.1/"
   xmlns:cc="http://creativecommons.org/ns#"
   xmlns:rdf="http://www.w3.org/1999/02/22-rdf-syntax-ns#"
   xmlns:svg="http://www.w3.org/2000/svg"
   xmlns="http://www.w3.org/2000/svg"
   xmlns:xlink="http://www.w3.org/1999/xlink"
   xmlns:sodipodi="http://sodipodi.sourceforge.net/DTD/sodipodi-0.dtd"
   xmlns:inkscape="http://www.inkscape.org/namespaces/inkscape"
   viewBox="0 0 48 48"
   id="svg2"
   version="1.1"
   inkscape:version="0.91 r13725"
   sodipodi:docname="chrome-jeogkiiogjbmhklcnbgkdcjoioegiknm-Default.svg">
  <metadata
     id="metadata47">
    <rdf:RDF>
      <cc:Work
         rdf:about="">
        <dc:format>image/svg+xml</dc:format>
        <dc:type
           rdf:resource="http://purl.org/dc/dcmitype/StillImage" />
      </cc:Work>
    </rdf:RDF>
  </metadata>
  <sodipodi:namedview
     pagecolor="#ffffff"
     bordercolor="#666666"
     borderopacity="1"
     objecttolerance="10"
     gridtolerance="10"
     guidetolerance="10"
     inkscape:pageopacity="0"
     inkscape:pageshadow="2"
     inkscape:window-width="1366"
     inkscape:window-height="705"
     id="namedview45"
     showgrid="false"
     inkscape:zoom="4.9166667"
     inkscape:cx="24"
     inkscape:cy="24"
     inkscape:window-x="0"
     inkscape:window-y="28"
     inkscape:window-maximized="1"
     inkscape:current-layer="svg2" />
  <defs
     id="defs4">
    <linearGradient
       id="linearGradient4028"
       x1="1"
       x2="47"
       gradientUnits="userSpaceOnUse">
      <stop
         style="stop-color:#e4e4e4;stop-opacity:1"
         id="stop7" />
      <stop
         offset="1"
         style="stop-color:#eee;stop-opacity:1"
         id="stop9" />
    </linearGradient>
    <linearGradient
       inkscape:collect="always"
       xlink:href="#linearGradient3859"
       id="linearGradient3739"
       gradientUnits="userSpaceOnUse"
       gradientTransform="matrix(0.83333307,0,0,0.83333307,-317.03371,412.80361)"
       x1="379.57144"
       y1="-527.79797"
       x2="431.57144"
       y2="-527.79797" />
    <linearGradient
       id="linearGradient3859">
      <stop
         id="stop3861"
         offset="0"
         style="stop-color:#cccccc;stop-opacity:1" />
      <stop
         id="stop3863"
         offset="1"
         style="stop-color:#ececec;stop-opacity:1" />
    </linearGradient>
  </defs>
  <g
     id="g3665"
     transform="translate(0.55761199,0.30529681)">
    <rect
       transform="scale(1,-1)"
       ry="0"
       y="-43.694542"
       x="3.4424012"
       height="39.999989"
       width="39.999989"
       id="rect3667"
       style="fill:url(#linearGradient3739);fill-opacity:1;stroke:none" />
    <path
       sodipodi:nodetypes="cccc"
       inkscape:connector-curvature="0"
       id="path3669"
       d="m 3.4423873,43.694552 40.0000007,3.01e-4 c -20,-0.999999 -20,-0.999999 -40.0000017,0 z"
       style="opacity:0.35;fill:#000000;fill-opacity:1;stroke:none" />
    <path
       style="opacity:0.5;fill:#ffffff;fill-opacity:1;stroke:none"
       d="M 3.4423913,3.6947551 43.442388,3.6945549 c -19.999996,1.0000006 -19.999996,1.0000006 -39.9999977,0 z"
       id="path3671"
       inkscape:connector-curvature="0"
       sodipodi:nodetypes="cccc" />
  </g>
  <path
     d="m 26.845 12.01 c -0.133 0.011 -0.274 0.055 -0.407 0.094 -1.061 0.309 -1.654 1.409 -1.345 2.469 l 0.845 2.876 -0.031 0 -5.755 1.688 -0.845 -2.876 c -0.309 -1.061 -1.41 -1.684 -2.471 -1.375 -1.061 0.309 -1.686 1.409 -1.376 2.469 l 0.845 2.907 -2.878 0.844 c -1.061 0.309 -1.654 1.409 -1.345 2.469 0.309 1.061 1.41 1.653 2.471 1.344 l 2.878 -0.844 1.689 5.782 -2.878 0.844 c -1.061 0.309 -1.686 1.409 -1.376 2.469 0.309 1.061 1.41 1.684 2.471 1.375 l 2.909 -0.844 0.845 2.876 c 0.309 1.061 1.41 1.653 2.471 1.344 1.061 -0.309 1.654 -1.409 1.345 -2.469 l -0.845 -2.876 5.787 -1.688 0.845 2.876 c 0.309 1.061 1.41 1.684 2.471 1.375 1.061 -0.309 1.686 -1.409 1.376 -2.469 l -0.845 -2.907 2.878 -0.844 c 1.061 -0.309 1.654 -1.409 1.345 -2.469 -0.309 -1.061 -1.41 -1.653 -2.471 -1.344 l -2.878 0.844 0 -0.031 -1.689 -5.751 2.878 -0.844 c 1.061 -0.309 1.686 -1.409 1.376 -2.469 c -0.309 -1.061 -1.41 -1.684 -2.471 -1.375 l -2.909 0.844 -0.845 -2.876 c -0.271 -0.928 -1.136 -1.514 -2.064 -1.438 z m 0.188 9.252 1.689 5.782 0 0.031 -5.755 1.657 -1.689 -5.751 0 -0.031 5.755 -1.688 z"
     style="fill:#000;opacity:0.1;fill-opacity:1;stroke:none;fill-rule:nonzero"
     id="path23" />
  <path
     d="m 12.441 20.08 c -1.06 0.309 -1.669 1.419 -1.36 2.48 0.309 1.06 1.419 1.669 2.48 1.36 l 19.2 -5.597 c 1.06 -0.309 1.669 -1.419 1.36 -2.48 -0.309 -1.06 -1.419 -1.669 -2.48 -1.36 l -19.2 5.597 z"
     style="fill:#6fcbdc;opacity:1;fill-opacity:1;stroke:none;fill-rule:nonzero"
     id="path29" />
  <path
     d="m 18.321 15.239 c -0.309 -1.06 -1.419 -1.669 -2.48 -1.36 -1.06 0.309 -1.669 1.419 -1.36 2.48 l 5.597 19.2 c 0.309 1.06 1.419 1.669 2.48 1.36 1.06 -0.309 1.669 -1.419 1.36 -2.48 l -5.597 -19.2 z"
     style="fill:#3fba91;opacity:1;fill-opacity:1;stroke:none;fill-rule:nonzero"
     id="path31" />
  <rect
     width="4"
     height="4"
     x="9.324"
     y="22.758"
     transform="matrix(0.96003935,-0.27986506,0.27986506,0.96003935,0,0)"
     style="fill:#1b947d;opacity:1;fill-opacity:1;stroke:none;fill-rule:nonzero"
     id="rect33" />
  <path
     d="m 27.922 12.441 c -0.309 -1.06 -1.419 -1.669 -2.48 -1.36 -1.06 0.309 -1.669 1.419 -1.36 2.48 l 5.597 19.2 c 0.309 1.06 1.419 1.669 2.48 1.36 1.06 -0.309 1.669 -1.419 1.36 -2.48 l -5.597 -19.2 z"
     style="fill:#e9a821;opacity:1;fill-opacity:1;stroke:none;fill-rule:nonzero"
     id="path35" />
  <rect
     width="4"
     height="4"
     x="19.324"
     y="22.758"
     transform="matrix(0.96003935,-0.27986506,0.27986506,0.96003935,0,0)"
     style="fill:#65861c;opacity:1;fill-opacity:1;stroke:none;fill-rule:nonzero"
     id="rect37" />
  <path
     d="m 15.239 29.679 c -1.06 0.309 -1.669 1.419 -1.36 2.48 0.309 1.06 1.419 1.669 2.48 1.36 l 19.2 -5.597 c 1.06 -0.309 1.669 -1.419 1.36 -2.48 -0.309 -1.06 -1.419 -1.669 -2.48 -1.36 l -19.2 5.597 z"
     style="fill:#e11664;opacity:1;fill-opacity:1;stroke:none;fill-rule:nonzero"
     id="path39" />
  <rect
     width="4"
     height="4"
     x="9.324"
     y="32.758"
     transform="matrix(0.96003935,-0.27986506,0.27986506,0.96003935,0,0)"
     style="fill:#381039;opacity:1;fill-opacity:1;stroke:none;fill-rule:nonzero"
     id="rect41" />
  <rect
     width="4"
     height="4"
     x="19.324"
     y="32.758"
     transform="matrix(0.96003935,-0.27986506,0.27986506,0.96003935,0,0)"
     style="fill:#ce0e0d;opacity:1;fill-opacity:1;stroke:none;fill-rule:nonzero"
     id="rect43" />
</svg>
