<?xml version="1.0" encoding="UTF-8" standalone="no"?>
<svg
   xmlns:dc="http://purl.org/dc/elements/1.1/"
   xmlns:cc="http://creativecommons.org/ns#"
   xmlns:rdf="http://www.w3.org/1999/02/22-rdf-syntax-ns#"
   xmlns:svg="http://www.w3.org/2000/svg"
   xmlns="http://www.w3.org/2000/svg"
   xmlns:xlink="http://www.w3.org/1999/xlink"
   xmlns:sodipodi="http://sodipodi.sourceforge.net/DTD/sodipodi-0.dtd"
   xmlns:inkscape="http://www.inkscape.org/namespaces/inkscape"
   viewBox="0 0 48 48"
   id="svg2"
   version="1.1"
   inkscape:version="0.91 r13725"
   sodipodi:docname="chrome-jbdlaalbpgnopkpnmoppmccbgkjhfmgh-Default.svg">
  <metadata
     id="metadata33">
    <rdf:RDF>
      <cc:Work
         rdf:about="">
        <dc:format>image/svg+xml</dc:format>
        <dc:type
           rdf:resource="http://purl.org/dc/dcmitype/StillImage" />
      </cc:Work>
    </rdf:RDF>
  </metadata>
  <sodipodi:namedview
     pagecolor="#ffffff"
     bordercolor="#666666"
     borderopacity="1"
     objecttolerance="10"
     gridtolerance="10"
     guidetolerance="10"
     inkscape:pageopacity="0"
     inkscape:pageshadow="2"
     inkscape:window-width="1366"
     inkscape:window-height="705"
     id="namedview31"
     showgrid="false"
     inkscape:zoom="4.9166667"
     inkscape:cx="24"
     inkscape:cy="24"
     inkscape:window-x="0"
     inkscape:window-y="28"
     inkscape:window-maximized="1"
     inkscape:current-layer="svg2" />
  <defs
     id="defs4">
    <linearGradient
       id="linearGradient3807"
       x1="1"
       x2="47"
       gradientUnits="userSpaceOnUse">
      <stop
         style="stop-color:#205081;stop-opacity:1"
         id="stop7" />
      <stop
         offset="1"
         style="stop-color:#245990;stop-opacity:1"
         id="stop9" />
    </linearGradient>
    <linearGradient
       inkscape:collect="always"
       xlink:href="#linearGradient3473"
       id="linearGradient3463"
       gradientUnits="userSpaceOnUse"
       gradientTransform="matrix(0.83333307,0,0,0.83333307,-317.03371,412.80361)"
       x1="379.57144"
       y1="-527.79797"
       x2="431.57144"
       y2="-527.79797" />
    <linearGradient
       id="linearGradient3473">
      <stop
         id="stop3475"
         offset="0"
         style="stop-color:#14283f;stop-opacity:1" />
      <stop
         id="stop3477"
         offset="1"
         style="stop-color:#39526a;stop-opacity:1" />
    </linearGradient>
  </defs>
  <g
     transform="translate(0.55761199,0.30529681)"
     id="g3423">
    <rect
       style="fill:url(#linearGradient3463);fill-opacity:1;stroke:none"
       id="rect3425"
       width="39.999989"
       height="39.999989"
       x="3.4424012"
       y="-43.694542"
       ry="0"
       transform="scale(1,-1)" />
    <path
       style="opacity:0.35;fill:#000000;fill-opacity:1;stroke:none"
       d="m 3.4423873,43.694552 40.0000007,3.01e-4 c -20,-0.999999 -20,-0.999999 -40.0000017,0 z"
       id="path3427"
       inkscape:connector-curvature="0"
       sodipodi:nodetypes="cccc" />
    <path
       sodipodi:nodetypes="cccc"
       inkscape:connector-curvature="0"
       id="path3429"
       d="M 3.4423913,3.6947551 43.442388,3.6945549 c -19.999996,1.0000006 -19.999996,1.0000006 -39.9999977,0 z"
       style="opacity:0.5;fill:#ffffff;fill-opacity:1;stroke:none" />
  </g>
  <path
     d="m 25 12 c -6.627 0 -12 1.343 -12 3 0 0.104 0.022 0.212 0.063 0.313 l 2.594 14.219 c 2.362 1.528 5.681 2.469 9.375 2.469 c 3.67 0 6.954 -0.958 9.313 -2.469 l 2.594 -14.219 c 0.041 -0.101 0.063 -0.209 0.063 -0.313 0 -1.657 -5.373 -3 -12 -3 z m 0 2 c 4.418 0 8 0.672 8 1.5 0 0.828 -3.582 1.5 -8 1.5 -4.418 0 -8 -0.672 -8 -1.5 0 -0.828 3.582 -1.5 8 -1.5 z m 0 7 c 2.209 0 4 1.791 4 4 0 2.209 -1.791 4 -4 4 -2.209 0 -4 -1.791 -4 -4 0 -2.209 1.791 -4 4 -4 z m 0 2 c -1.105 0 -2 0.895 -2 2 0 1.105 0.895 2 2 2 1.105 0 2 -0.895 2 -2 0 -1.105 -0.895 -2 -2 -2 z m -8.938 8.75 0.938 5.25 c 2 2 4 3 8 3 4 0 6 -1 8 -3 l 0.938 -5.188 c -2.324 1.359 -5.45 2.188 -8.906 2.188 -3.493 0 -6.637 -0.865 -8.969 -2.25 z"
     style="fill:#000;opacity:0.1;fill-opacity:1;stroke:none;fill-rule:nonzero"
     id="path27" />
  <path
     d="m 24 11 c -6.627 0 -12 1.343 -12 3 c 0 0.104 0.022 0.212 0.063 0.313 l 2.594 14.219 c 2.362 1.528 5.681 2.469 9.375 2.469 c 3.67 0 6.954 -0.958 9.313 -2.469 l 2.594 -14.219 c 0.041 -0.101 0.063 -0.209 0.063 -0.313 c 0 -1.657 -5.373 -3 -12 -3 z m 0 2 c 4.418 0 8 0.672 8 1.5 c 0 0.828 -3.582 1.5 -8 1.5 c -4.418 0 -8 -0.672 -8 -1.5 c 0 -0.828 3.582 -1.5 8 -1.5 z m 0 7 c 2.209 0 4 1.791 4 4 c 0 2.209 -1.791 4 -4 4 c -2.209 0 -4 -1.791 -4 -4 c 0 -2.209 1.791 -4 4 -4 z m 0 2 c -1.105 0 -2 0.895 -2 2 c 0 1.105 0.895 2 2 2 c 1.105 0 2 -0.895 2 -2 c 0 -1.105 -0.895 -2 -2 -2 z m -8.938 8.75 l 0.938 5.25 c 2 2 4 3 8 3 c 4 0 6 -1 8 -3 l 0.938 -5.188 c -2.324 1.359 -5.45 2.188 -8.906 2.188 c -3.493 0 -6.637 -0.865 -8.969 -2.25 z"
     style="fill:#eff3f6;opacity:1;fill-opacity:1;stroke:none;fill-rule:nonzero"
     id="path29" />
</svg>
