<?xml version="1.0" encoding="UTF-8" standalone="no"?>
<svg
   xmlns:dc="http://purl.org/dc/elements/1.1/"
   xmlns:cc="http://creativecommons.org/ns#"
   xmlns:rdf="http://www.w3.org/1999/02/22-rdf-syntax-ns#"
   xmlns:svg="http://www.w3.org/2000/svg"
   xmlns="http://www.w3.org/2000/svg"
   xmlns:xlink="http://www.w3.org/1999/xlink"
   xmlns:sodipodi="http://sodipodi.sourceforge.net/DTD/sodipodi-0.dtd"
   xmlns:inkscape="http://www.inkscape.org/namespaces/inkscape"
   viewBox="0 0 48 48"
   id="svg2"
   version="1.1"
   inkscape:version="0.91 r13725"
   sodipodi:docname="chrome-omimkinlomnncbmnceacpkmlbfaapojj-Default.svg">
  <metadata
     id="metadata75">
    <rdf:RDF>
      <cc:Work
         rdf:about="">
        <dc:format>image/svg+xml</dc:format>
        <dc:type
           rdf:resource="http://purl.org/dc/dcmitype/StillImage" />
      </cc:Work>
    </rdf:RDF>
  </metadata>
  <sodipodi:namedview
     pagecolor="#ffffff"
     bordercolor="#666666"
     borderopacity="1"
     objecttolerance="10"
     gridtolerance="10"
     guidetolerance="10"
     inkscape:pageopacity="0"
     inkscape:pageshadow="2"
     inkscape:window-width="1366"
     inkscape:window-height="705"
     id="namedview73"
     showgrid="false"
     inkscape:zoom="6.9532167"
     inkscape:cx="9.6383898"
     inkscape:cy="21.133496"
     inkscape:window-x="0"
     inkscape:window-y="28"
     inkscape:window-maximized="1"
     inkscape:current-layer="svg2" />
  <defs
     id="defs4">
    <linearGradient
       id="linearGradient4018"
       gradientUnits="userSpaceOnUse"
       gradientTransform="matrix(0,-1,1,0,-1.5e-6,47.999998)"
       x1="1"
       x2="47">
      <stop
         style="stop-color:#3d3d3d;stop-opacity:1"
         id="stop7" />
      <stop
         offset="1"
         style="stop-color:#474747;stop-opacity:1"
         id="stop9" />
    </linearGradient>
    <linearGradient
       gradientUnits="userSpaceOnUse"
       y2="-527.79797"
       x2="431.57144"
       y1="-527.79797"
       x1="379.57144"
       id="linearGradient4172"
       xlink:href="#linearGradient5277"
       inkscape:collect="always"
       gradientTransform="matrix(0.83333307,0,0,0.83333307,-317.03371,412.80361)" />
    <linearGradient
       id="linearGradient5277">
      <stop
         id="stop5279"
         offset="0"
         style="stop-color:#333333;stop-opacity:1" />
      <stop
         id="stop5281"
         offset="1"
         style="stop-color:#666666;stop-opacity:1" />
    </linearGradient>
  </defs>
  <g
     id="g3208"
     transform="translate(0.55761199,0.30529681)">
    <rect
       transform="scale(1,-1)"
       ry="0"
       y="-43.694542"
       x="3.4424012"
       height="39.999989"
       width="39.999989"
       id="rect2991-1-7"
       style="fill:url(#linearGradient4172);fill-opacity:1;stroke:none" />
    <path
       sodipodi:nodetypes="cccc"
       inkscape:connector-curvature="0"
       id="path3800"
       d="m 3.4423873,43.694552 40.0000007,3.01e-4 c -20,-0.999999 -20,-0.999999 -40.0000017,0 z"
       style="opacity:0.35;fill:#000000;fill-opacity:1;stroke:none" />
    <path
       style="opacity:0.5;fill:#ffffff;fill-opacity:1;stroke:none"
       d="M 3.4423913,3.6947551 43.442388,3.6945549 c -19.999996,1.0000006 -19.999996,1.0000006 -39.9999977,0 z"
       id="path3804"
       inkscape:connector-curvature="0"
       sodipodi:nodetypes="cccc" />
  </g>
  <path
     d="m 11 18 0 14 9 0 0 -14 -9 0 z m 2 2 5 0 0 10 -5 0 0 -10 z"
     style="fill:#000;fill-opacity:0.118;stroke:none;fill-rule:nonzero"
     id="path25" />
  <path
     d="m 30 18 0 14 9 0 0 -14 -9 0 z m 2 2 5 0 0 10 -5 0 0 -10 z"
     style="fill:#000;fill-opacity:0.118;stroke:none;fill-rule:nonzero"
     id="path31" />
  <path
     d="m 10 17 0 14 9 0 0 -14 -9 0 z m 2 2 5 0 0 10 -5 0 0 -10 z"
     style="fill:#fff;fill-opacity:1;stroke:none;fill-rule:nonzero"
     id="path33" />
  <path
     d="m 29 17 0 14 9 0 0 -14 -9 0 z m 2 2 5 0 0 10 -5 0 0 -10 z"
     style="fill:#fff;fill-opacity:1;stroke:none;fill-rule:nonzero"
     id="path37" />
  <rect
     y="6"
     x="24"
     height="3"
     width="2"
     style="fill:#000;fill-opacity:0.118;stroke:none;fill-rule:nonzero"
     id="rect39" />
  <rect
     y="11"
     x="24"
     height="3"
     width="2"
     style="fill:#000;fill-opacity:0.118;stroke:none;fill-rule:nonzero"
     id="rect43" />
  <rect
     width="2"
     height="3"
     x="23"
     y="5"
     style="fill:#fff;fill-opacity:1;stroke:none;fill-rule:nonzero"
     id="rect45" />
  <rect
     y="16"
     x="24"
     height="3"
     width="2"
     style="fill:#000;fill-opacity:0.118;stroke:none;fill-rule:nonzero"
     id="rect47" />
  <rect
     width="2"
     height="3"
     x="23"
     y="10"
     style="fill:#fff;fill-opacity:1;stroke:none;fill-rule:nonzero"
     id="rect49" />
  <rect
     y="21"
     x="24"
     height="3"
     width="2"
     style="fill:#000;fill-opacity:0.118;stroke:none;fill-rule:nonzero"
     id="rect51" />
  <rect
     width="2"
     height="3"
     x="23"
     y="15"
     style="fill:#fff;fill-opacity:1;stroke:none;fill-rule:nonzero"
     id="rect53" />
  <rect
     y="26"
     x="24"
     height="3"
     width="2"
     style="fill:#000;fill-opacity:0.118;stroke:none;fill-rule:nonzero"
     id="rect55" />
  <rect
     width="2"
     height="3"
     x="23"
     y="20"
     style="fill:#fff;fill-opacity:1;stroke:none;fill-rule:nonzero"
     id="rect57" />
  <rect
     y="31"
     x="24"
     height="3"
     width="2"
     style="fill:#000;fill-opacity:0.118;stroke:none;fill-rule:nonzero"
     id="rect59" />
  <rect
     width="2"
     height="3"
     x="23"
     y="25"
     style="fill:#fff;fill-opacity:1;stroke:none;fill-rule:nonzero"
     id="rect61" />
  <rect
     y="36"
     x="24"
     height="3"
     width="2"
     style="fill:#000;fill-opacity:0.118;stroke:none;fill-rule:nonzero"
     id="rect63" />
  <rect
     width="2"
     height="3"
     x="23"
     y="30"
     style="fill:#fff;fill-opacity:1;stroke:none;fill-rule:nonzero"
     id="rect65" />
  <rect
     y="41"
     x="24"
     height="3"
     width="2"
     style="fill:#000;fill-opacity:0.118;stroke:none;fill-rule:nonzero"
     id="rect67" />
  <rect
     width="2"
     height="3"
     x="23"
     y="35"
     style="fill:#fff;fill-opacity:1;stroke:none;fill-rule:nonzero"
     id="rect69" />
  <rect
     width="2"
     height="3"
     x="23"
     y="40"
     style="fill:#fff;fill-opacity:1;stroke:none;fill-rule:nonzero"
     id="rect71" />
</svg>
