<?xml version="1.0" encoding="UTF-8" standalone="no"?>
<svg
   xmlns:dc="http://purl.org/dc/elements/1.1/"
   xmlns:cc="http://creativecommons.org/ns#"
   xmlns:rdf="http://www.w3.org/1999/02/22-rdf-syntax-ns#"
   xmlns:svg="http://www.w3.org/2000/svg"
   xmlns="http://www.w3.org/2000/svg"
   xmlns:xlink="http://www.w3.org/1999/xlink"
   xmlns:sodipodi="http://sodipodi.sourceforge.net/DTD/sodipodi-0.dtd"
   xmlns:inkscape="http://www.inkscape.org/namespaces/inkscape"
   viewBox="0 0 48 48"
   id="svg2"
   version="1.1"
   inkscape:version="0.91 r13725"
   sodipodi:docname="chrome-cijncchffkmlnfdbnkkfclcbnjcoegjc-Default.svg">
  <metadata
     id="metadata60">
    <rdf:RDF>
      <cc:Work
         rdf:about="">
        <dc:format>image/svg+xml</dc:format>
        <dc:type
           rdf:resource="http://purl.org/dc/dcmitype/StillImage" />
      </cc:Work>
    </rdf:RDF>
  </metadata>
  <sodipodi:namedview
     pagecolor="#ffffff"
     bordercolor="#666666"
     borderopacity="1"
     objecttolerance="10"
     gridtolerance="10"
     guidetolerance="10"
     inkscape:pageopacity="0"
     inkscape:pageshadow="2"
     inkscape:window-width="1366"
     inkscape:window-height="705"
     id="namedview58"
     showgrid="false"
     inkscape:zoom="6.9532167"
     inkscape:cx="27.421676"
     inkscape:cy="22.522704"
     inkscape:window-x="0"
     inkscape:window-y="28"
     inkscape:window-maximized="1"
     inkscape:current-layer="svg2" />
  <defs
     id="defs4">
    <linearGradient
       id="linearGradient4856"
       x1="0.998"
       x2="47"
       gradientUnits="userSpaceOnUse"
       gradientTransform="matrix(0,-1,1,0,0.00292944,47.999023)">
      <stop
         style="stop-color:#5b5b5b;stop-opacity:1"
         id="stop7" />
      <stop
         offset="1"
         style="stop-color:#656565;stop-opacity:1"
         id="stop9" />
    </linearGradient>
    <radialGradient
       id="radial0"
       gradientUnits="userSpaceOnUse"
       cx="6.773"
       cy="5.927"
       r="0.564"
       gradientTransform="matrix(3.543307,0,0,3.543307,1.47638e-7,3.77575e-4)">
      <stop
         style="stop-color:#8eb0c7;stop-opacity:1"
         id="stop12" />
      <stop
         offset="1"
         style="stop-color:#8eb0c7;stop-opacity:0"
         id="stop14" />
    </radialGradient>
    <radialGradient
       id="radial1"
       gradientUnits="userSpaceOnUse"
       cx="6"
       cy="17.292"
       r="1"
       gradientTransform="translate(18,8.707971)"
       xlink:href="#radial0" />
    <radialGradient
       r="0.564"
       cy="5.927"
       cx="6.773"
       gradientTransform="matrix(3.543307,0,0,3.543307,1.47638e-7,3.77575e-4)"
       gradientUnits="userSpaceOnUse"
       id="radialGradient3475"
       xlink:href="#radial0" />
    <linearGradient
       gradientUnits="userSpaceOnUse"
       y2="-527.79797"
       x2="431.57144"
       y1="-527.79797"
       x1="379.57144"
       id="linearGradient4172"
       xlink:href="#linearGradient5277"
       inkscape:collect="always"
       gradientTransform="matrix(0.83333307,0,0,0.83333307,-316.4761,412.49831)" />
    <linearGradient
       id="linearGradient5277">
      <stop
         id="stop5279"
         offset="0"
         style="stop-color:#333333;stop-opacity:1" />
      <stop
         id="stop5281"
         offset="1"
         style="stop-color:#666666;stop-opacity:1" />
    </linearGradient>
    <clipPath
       clipPathUnits="userSpaceOnUse"
       id="clipPath3168">
      <rect
         style="fill:#ffffff;fill-opacity:1;stroke:none"
         id="rect3170"
         width="39.999989"
         height="39.999989"
         x="4.0000134"
         y="-43.99984"
         ry="0"
         transform="scale(1,-1)" />
    </clipPath>
  </defs>
  <rect
     style="fill:url(#linearGradient4172);fill-opacity:1;stroke:none"
     id="rect2991-1-7"
     width="39.999989"
     height="39.999989"
     x="4.0000134"
     y="-43.99984"
     ry="0"
     transform="scale(1,-1)" />
  <g
     id="g3256"
     mask="none"
     clip-path="url(#clipPath3168)">
    <path
       id="path28"
       style="fill:#000;opacity:0.1;fill-opacity:1;stroke:none;fill-rule:nonzero"
       d="m 24 0.996 c -1.719 0 -3.391 0.193 -5 0.551 l 0 10.818 c -4.725 2.249 -8 7.05 -8 12.635 c 0 5.58 3.275 10.386 8 12.635 l 0 8.809 c 1.61 0.361 3.281 0.559 4.998 0.559 c 2.442 0 4.794 -0.385 7 -1.09 l 0 -8.277 c 4.725 -2.249 8 -7.05 8 -12.635 c 0 -5.58 -3.275 -10.386 -8 -12.635 l 0 -10.283 c -1.032 -0.329 -2.095 -0.591 -3.184 -0.773 l -0.002 0 c -1.242 -0.208 -2.511 -0.313 -3.813 -0.313 z" />
    <g
       id="g34">
      <g
         id="g36">
        <path
           id="path38"
           style="fill:#7de5a8;opacity:1;fill-opacity:1;stroke:none;fill-rule:nonzero"
           d="m 24 0.996 l 0 46.01 c 1.017 0 2.02 -0.073 3 -0.201 l 0 -45.594 c -0.983 -0.128 -1.978 -0.211 -2.998 -0.211 c 0 0 0 0 -0.002 0 z" />
        <path
           id="path40"
           style="fill:#4c9cff;opacity:1;fill-opacity:1;stroke:none;fill-rule:nonzero"
           d="m 27 1.207 l 0 45.594 c 1.023 -0.133 2.024 -0.333 3 -0.596 l 0 -44.41 c -0.716 -0.193 -1.442 -0.364 -2.184 -0.488 c 0 0 -0.002 0 -0.002 0 c -0.269 -0.045 -0.543 -0.066 -0.814 -0.102 z" />
        <path
           id="path42"
           style="fill:#ff2f6e;opacity:1;fill-opacity:1;stroke:none;fill-rule:nonzero"
           d="m 21 1.195 c -1.023 0.133 -2.024 0.334 -3 0.598 l 0 44.39 c 0.977 0.266 1.977 0.472 3 0.607 l 0 -45.596 z" />
        <path
           id="path44"
           style="fill:#ffd468;opacity:1;fill-opacity:1;stroke:none;fill-rule:nonzero"
           d="m 24 0.996 c -1.018 0 -2.02 0.071 -3 0.199 l 0 45.596 c 0.983 0.13 1.981 0.211 2.998 0.211 c 0 0 0 0 0.002 0 l 0 -46.01 z" />
      </g>
      <path
         id="path46"
         style="fill:#e5d6c8;fill-opacity:1;stroke:none;fill-rule:nonzero"
         d="m 38 24 c 0 7.73 -6.27 14 -14 14 -7.73 0 -14 -6.27 -14 -14 0 -7.73 6.27 -14 14 -14 7.73 0 14 6.27 14 14 m 0 0" />
      <path
         id="path48"
         style="fill:#f9f9f9;fill-opacity:1;stroke:none;fill-rule:nonzero"
         d="m 35 24 c 0 6.074 -4.926 11 -11 11 -6.074 0 -11 -4.926 -11 -11 0 -6.074 4.926 -11 11 -11 6.074 0 11 4.926 11 11 m 0 0" />
      <path
         id="path50"
         style="fill:#84b295;fill-opacity:1;stroke:none;fill-rule:nonzero"
         d="m 32 24 c 0 4.418 -3.582 8 -8 8 -4.418 0 -8 -3.582 -8 -8 0 -4.418 3.582 -8 8 -8 4.418 0 8 3.582 8 8 m 0 0" />
      <path
         id="path52"
         style="fill:#355362;fill-opacity:1;stroke:none;fill-rule:nonzero"
         d="m 30 24 c 0 3.313 -2.688 6 -6 6 -3.313 0 -6 -2.688 -6 -6 0 -3.313 2.688 -6 6 -6 3.313 0 6 2.688 6 6 m 0 0" />
      <path
         id="path54"
         style="fill:url(#radialGradient3475);stroke:none;fill-rule:nonzero"
         d="m 26 21 c 0 1.105 -0.895 2 -2 2 -1.105 0 -2 -0.895 -2 -2 0 -1.105 0.895 -2 2 -2 1.105 0 2 0.895 2 2 m 0 0" />
      <path
         id="path56"
         style="fill:url(#radial1);stroke:none;fill-rule:nonzero"
         d="m 25 26 c 0 0.551 -0.449 1 -1 1 -0.551 0 -1 -0.449 -1 -1 0 -0.551 0.449 -1 1 -1 0.551 0 1 0.449 1 1 m 0 0" />
    </g>
  </g>
  <path
     style="opacity:0.35;fill:#000000;fill-opacity:1;stroke:none"
     d="M 3.9999993,43.999849 44,44.00015 c -20,-0.999999 -20,-0.999999 -40.0000017,0 z"
     id="path3800"
     inkscape:connector-curvature="0"
     sodipodi:nodetypes="cccc" />
  <path
     sodipodi:nodetypes="cccc"
     inkscape:connector-curvature="0"
     id="path3804"
     d="M 4.0000033,4.0000519 44,3.9998517 c -19.999996,1.0000006 -19.999996,1.0000006 -39.9999977,0 z"
     style="opacity:0.5;fill:#ffffff;fill-opacity:1;stroke:none" />
</svg>
