<?xml version="1.0" encoding="UTF-8" standalone="no"?>
<svg
   xmlns:dc="http://purl.org/dc/elements/1.1/"
   xmlns:cc="http://creativecommons.org/ns#"
   xmlns:rdf="http://www.w3.org/1999/02/22-rdf-syntax-ns#"
   xmlns:svg="http://www.w3.org/2000/svg"
   xmlns="http://www.w3.org/2000/svg"
   xmlns:xlink="http://www.w3.org/1999/xlink"
   xmlns:sodipodi="http://sodipodi.sourceforge.net/DTD/sodipodi-0.dtd"
   xmlns:inkscape="http://www.inkscape.org/namespaces/inkscape"
   viewBox="0 0 48 48"
   id="svg2"
   version="1.1"
   inkscape:version="0.91 r13725"
   sodipodi:docname="chrome-eempgbpnkjnacmilmobpbhbfpdjdcpgd-Default.svg">
  <metadata
     id="metadata53">
    <rdf:RDF>
      <cc:Work
         rdf:about="">
        <dc:format>image/svg+xml</dc:format>
        <dc:type
           rdf:resource="http://purl.org/dc/dcmitype/StillImage" />
      </cc:Work>
    </rdf:RDF>
  </metadata>
  <sodipodi:namedview
     pagecolor="#ffffff"
     bordercolor="#666666"
     borderopacity="1"
     objecttolerance="10"
     gridtolerance="10"
     guidetolerance="10"
     inkscape:pageopacity="0"
     inkscape:pageshadow="2"
     inkscape:window-width="1366"
     inkscape:window-height="705"
     id="namedview51"
     showgrid="false"
     inkscape:zoom="4.9166667"
     inkscape:cx="24"
     inkscape:cy="24"
     inkscape:window-x="0"
     inkscape:window-y="28"
     inkscape:window-maximized="1"
     inkscape:current-layer="svg2" />
  <defs
     id="defs4">
    <linearGradient
       id="linearGradient3764"
       x1="1"
       x2="47"
       gradientUnits="userSpaceOnUse"
       gradientTransform="matrix(0,-1,1,0,-1.5e-6,47.999998)">
      <stop
         style="stop-color:#e4e4e4;stop-opacity:1"
         id="stop7" />
      <stop
         offset="1"
         style="stop-color:#eee;stop-opacity:1"
         id="stop9" />
    </linearGradient>
    <linearGradient
       inkscape:collect="always"
       xlink:href="#linearGradient3859"
       id="linearGradient3739"
       gradientUnits="userSpaceOnUse"
       gradientTransform="matrix(0.83333307,0,0,0.83333307,-317.03371,412.80361)"
       x1="379.57144"
       y1="-527.79797"
       x2="431.57144"
       y2="-527.79797" />
    <linearGradient
       id="linearGradient3859">
      <stop
         id="stop3861"
         offset="0"
         style="stop-color:#cccccc;stop-opacity:1" />
      <stop
         id="stop3863"
         offset="1"
         style="stop-color:#ececec;stop-opacity:1" />
    </linearGradient>
  </defs>
  <g
     id="g3665"
     transform="translate(0.55761199,0.30529681)">
    <rect
       transform="scale(1,-1)"
       ry="0"
       y="-43.694542"
       x="3.4424012"
       height="39.999989"
       width="39.999989"
       id="rect3667"
       style="fill:url(#linearGradient3739);fill-opacity:1;stroke:none" />
    <path
       sodipodi:nodetypes="cccc"
       inkscape:connector-curvature="0"
       id="path3669"
       d="m 3.4423873,43.694552 40.0000007,3.01e-4 c -20,-0.999999 -20,-0.999999 -40.0000017,0 z"
       style="opacity:0.35;fill:#000000;fill-opacity:1;stroke:none" />
    <path
       style="opacity:0.5;fill:#ffffff;fill-opacity:1;stroke:none"
       d="M 3.4423913,3.6947551 43.442388,3.6945549 c -19.999996,1.0000006 -19.999996,1.0000006 -39.9999977,0 z"
       id="path3671"
       inkscape:connector-curvature="0"
       sodipodi:nodetypes="cccc" />
  </g>
  <g
     id="g23">
    <g
       id="g25">
      <g
         transform="translate(1,1)"
         id="g27">
        <g
           style="opacity:0.1"
           id="g29">
          <!-- color: #eeeeee -->
          <g
             id="g31">
            <path
               d="m 37.26 12.01 c -0.165 0.026 -0.329 0.082 -0.488 0.172 -0.884 0.42 -2.32 1.919 -3.871 3.799 c -2.121 -1.857 -4.888 -2.984 -7.898 -2.984 c -6.555 0 -12 5.316 -12 12 0 6.684 5.445 12 12 12 6.555 0 12 -5.316 12 -12 0 -2.576 -0.814 -4.944 -2.182 -6.887 1.365 -1.748 2.709 -3.23 3.869 -4.064 0.886 -0.954 -0.274 -2.216 -1.43 -2.035 z"
               transform="translate(-1,-1)"
               id="path33" />
          </g>
        </g>
      </g>
    </g>
  </g>
  <g
     id="g35">
    <g
       id="g37">
      <!-- color: #eeeeee -->
      <g
         id="g39">
        <path
           d="m 35 24 c 0 6.078 -4.926 11 -11 11 -6.078 0 -11 -4.926 -11 -11 0 -6.078 4.926 -11 11 -11 6.074 0 11 4.926 11 11 m 0 0"
           style="fill:#f9f9f9;fill-opacity:1;stroke:none;fill-rule:nonzero"
           id="path41" />
        <path
           d="m 24 12 c -6.555 0 -12 5.316 -12 12 0 6.684 5.445 12 12 12 6.555 0 12 -5.316 12 -12 0 -6.688 -5.441 -12 -12 -12 m 0 2.027 c 5.695 0 10.188 4.527 10.188 9.977 0 5.449 -4.496 9.973 -10.188 9.973 -5.699 0 -10.191 -4.523 -10.191 -9.973 0 -5.449 4.496 -9.977 10.191 -9.977 m 0 0"
           style="fill:#5983c3;fill-opacity:1;stroke:none;fill-rule:nonzero"
           id="path43" />
        <path
           d="m 18.301,24.13 4.418,5.859 c 1.32,1.344 2.816,1.344 3.32,0 2.137,-4.977 7.863,-14.219 11.648,-16.941 1.012,-1.09 -0.645,-2.582 -1.918,-1.863 C 33.031,12.486 25.16,23.677 24.14,26.841 L 20.792,22.216 C 19.573,20.45 17.151,22.431 18.3,24.13 m 0,0"
           style="fill:#d7a433;fill-opacity:1;stroke:none;fill-rule:evenodd"
           id="path45" />
      </g>
    </g>
  </g>
</svg>
