<?xml version="1.0" encoding="UTF-8" standalone="no"?>
<svg
   xmlns:dc="http://purl.org/dc/elements/1.1/"
   xmlns:cc="http://creativecommons.org/ns#"
   xmlns:rdf="http://www.w3.org/1999/02/22-rdf-syntax-ns#"
   xmlns:svg="http://www.w3.org/2000/svg"
   xmlns="http://www.w3.org/2000/svg"
   xmlns:xlink="http://www.w3.org/1999/xlink"
   xmlns:sodipodi="http://sodipodi.sourceforge.net/DTD/sodipodi-0.dtd"
   xmlns:inkscape="http://www.inkscape.org/namespaces/inkscape"
   viewBox="0 0 48 48"
   id="svg2"
   version="1.1"
   inkscape:version="0.91 r13725"
   sodipodi:docname="city.svg">
  <metadata
     id="metadata56">
    <rdf:RDF>
      <cc:Work
         rdf:about="">
        <dc:format>image/svg+xml</dc:format>
        <dc:type
           rdf:resource="http://purl.org/dc/dcmitype/StillImage" />
      </cc:Work>
    </rdf:RDF>
  </metadata>
  <defs
     id="defs54">
    <linearGradient
       inkscape:collect="always"
       xlink:href="#linearGradient3400"
       id="linearGradient3217"
       gradientUnits="userSpaceOnUse"
       gradientTransform="matrix(0.83333307,0,0,0.83333307,-316.4761,412.49831)"
       x1="379.57144"
       y1="-527.79797"
       x2="431.57144"
       y2="-527.79797" />
    <linearGradient
       id="linearGradient3400">
      <stop
         style="stop-color:#0097a7;stop-opacity:1"
         offset="0"
         id="stop3402" />
      <stop
         style="stop-color:#26c6da;stop-opacity:1"
         offset="1"
         id="stop3404" />
    </linearGradient>
    <clipPath
       clipPathUnits="userSpaceOnUse"
       id="clipPath3222">
      <rect
         transform="scale(1,-1)"
         ry="0"
         y="-43.99984"
         x="4.0000134"
         height="39.999989"
         width="39.999989"
         id="rect3224"
         style="fill:url(#linearGradient3226);fill-opacity:1;stroke:none" />
    </clipPath>
    <linearGradient
       inkscape:collect="always"
       xlink:href="#linearGradient3400"
       id="linearGradient3226"
       gradientUnits="userSpaceOnUse"
       gradientTransform="matrix(0.83333307,0,0,0.83333307,-316.4761,412.49831)"
       x1="379.57144"
       y1="-527.79797"
       x2="431.57144"
       y2="-527.79797" />
  </defs>
  <sodipodi:namedview
     pagecolor="#ffffff"
     bordercolor="#666666"
     borderopacity="1"
     objecttolerance="10"
     gridtolerance="10"
     guidetolerance="10"
     inkscape:pageopacity="0"
     inkscape:pageshadow="2"
     inkscape:window-width="1366"
     inkscape:window-height="705"
     id="namedview52"
     showgrid="false"
     inkscape:zoom="4.9166667"
     inkscape:cx="25.085873"
     inkscape:cy="22.463012"
     inkscape:window-x="0"
     inkscape:window-y="28"
     inkscape:window-maximized="1"
     inkscape:current-layer="svg2" />
  <rect
     style="fill:url(#linearGradient3217);fill-opacity:1;stroke:none"
     id="rect3211"
     width="39.999989"
     height="39.999989"
     x="4.0000134"
     y="-43.99984"
     ry="0"
     transform="scale(1,-1)" />
  <path
     sodipodi:nodetypes="cccc"
     inkscape:connector-curvature="0"
     id="path3215"
     d="M 4.0000033,4.0000519 44,3.9998517 c -19.999996,1.0000006 -19.999996,1.0000006 -39.9999977,0 z"
     style="opacity:0.5;fill:#ffffff;fill-opacity:1;stroke:none" />
  <path
     d="m 19 12 0 6 -9 0 0 22 31 -2 0 -16 -10 0 0 -10 z"
     style="fill:#000;opacity:0.1;fill-opacity:1;stroke:none;fill-rule:nonzero"
     id="path16" />
  <g
     id="g18">
    <g
       id="g20">
      <!-- color: #7dc06d -->
    </g>
  </g>
  <rect
     width="10"
     height="21"
     x="10"
     y="18"
     style="fill:#c1e6ff;fill-opacity:1;stroke:none;fill-rule:nonzero"
     id="rect24" />
  <path
     d="m 9 17 c 0 7.333 0 14.667 0 22 l 1 0 0 -3 4 0 0 2 1 0 0 -2 5 0 0 -1 -5 0 0 -2 5 0 0 -1 -5 0 0 -2 5 0 0 -1 -5 0 0 -2 5 0 0 -1 -5 0 0 -2 5 0 0 -1 -5 0 0 -2 5 0 0 -1 -5 0 0 -2 5 0 0 -1 -5 0 -1 0 z m 1 1 4 0 0 2 -4 0 z m 0 3 4 0 0 2 -4 0 z m 0 3 4 0 0 2 -4 0 z m 0 3 4 0 0 2 -4 0 z m 0 3 4 0 0 2 -4 0 z m 0 3 4 0 0 2 -4 0 z"
     style="fill:#494949;fill-opacity:1;stroke:none;fill-rule:nonzero"
     id="path26" />
  <rect
     width="13"
     height="19"
     x="27"
     y="21"
     style="fill:#dbdfe1;fill-opacity:1;stroke:none;fill-rule:nonzero"
     id="rect30" />
  <path
     d="m 28 21 0 1 6 0 0 1 -6 0 0 1 6 0 0 1 -6 0 0 1 6 0 0 1 -6 0 0 1 6 0 0 1 -6 0 0 1 6 0 0 1 -6 0 0 1 6 0 0 1 -6 0 0 1 6 0 0 1 -6 0 0 1 6 0 0 1 -6 0 0 1 6 0 0 1 -6 0 0 1 7 -1 0 -1 5 0 0 -1 0 -15 0 -1 -5 0 -1 0 z m 7 1 4 0 0 1 -4 0 z m 0 2 4 0 0 1 -4 0 z m 0 2 4 0 0 1 -4 0 z m 0 2 4 0 0 1 -4 0 z m 0 2 4 0 0 1 -4 0 z m 0 2 4 0 0 1 -4 0 z m 0 2 4 0 0 1 -4 0 z m 0 2 4 0 0 1 -4 0 z"
     style="fill:#c4cbcd;fill-opacity:1;stroke:none;fill-rule:nonzero"
     id="path32" />
  <rect
     y="11"
     x="18"
     height="31"
     width="12"
     style="fill:#9d9ea0;opacity:1;fill-opacity:1;stroke:none;fill-rule:nonzero"
     id="rect34" />
  <path
     d="m 19 12 l 0 29 l 10 0 l 0 -29 l -4 0 l 0 28 l -2 0 l 0 -28 l -4 0 z"
     style="fill:#d0d5d8;fill-opacity:1;stroke:none;fill-rule:nonzero"
     id="path36" />
  <path
     d="m 20 14 l 0 2 l 2 0 l 0 -2 l -2 0 z m 6 0 l 0 2 l 2 0 l 0 -2 l -2 0 z m -6 3 l 0 2 l 2 0 l 0 -2 l -2 0 z m 6 0 l 0 2 l 2 0 l 0 -2 l -2 0 z m -6 3 l 0 2 l 2 0 l 0 -2 l -2 0 z m 6 0 l 0 2 l 2 0 l 0 -2 l -2 0 z m -6 3 l 0 2 l 2 0 l 0 -2 l -2 0 z m 6 0 l 0 2 l 2 0 l 0 -2 l -2 0 z m -6 3 l 0 2 l 2 0 l 0 -2 l -2 0 z m 6 0 l 0 2 l 2 0 l 0 -2 l -2 0 z m -6 3 l 0 2 l 2 0 l 0 -2 l -2 0 z m 6 0 l 0 2 l 2 0 l 0 -2 l -2 0 z m -6 3 l 0 2 l 2 0 l 0 -2 l -2 0 z m 6 0 l 0 2 l 2 0 l 0 -2 l -2 0 z m -6 3 l 0 2 l 2 0 l 0 -2 l -2 0 z m 6 0 l 0 2 l 2 0 l 0 -2 l -2 0 z m 0 3 l 0 2 l 2 0 l 0 -2 l -2 0 z"
     style="fill:#8c8a8c;fill-opacity:1;stroke:none;fill-rule:nonzero"
     id="path38" />
  <g
     id="g3214"
     clip-path="url(#clipPath3222)">
    <path
       sodipodi:nodetypes="sccss"
       inkscape:connector-curvature="0"
       id="path22"
       style="opacity:1;fill:#103810;fill-opacity:1;fill-rule:nonzero;stroke:none"
       d="M 5,33 C 4.297,33 3.618,33.111 2.969,33.281 2.0656334,38.676819 0.94626525,44.463185 5.1342652,46.895185 5.4762652,46.004185 13,42.011 13,41 13,36.582 9.418,33 5,33 Z" />
    <path
       sodipodi:nodetypes="cccscc"
       inkscape:connector-curvature="0"
       id="path28"
       style="opacity:1;fill:#396929;fill-opacity:1;fill-rule:nonzero;stroke:none"
       d="M 14,37 C 11.387,37 4.8073594,37.552727 5.1768159,45.802552 9.1418159,49.937552 16.853,46.699 22.969,46.966 23.004,46.644 23,46.329 23,45.997 c 0,-4.971 -4.03,-9 -9,-9 z" />
    <path
       sodipodi:nodetypes="sscscss"
       inkscape:connector-curvature="0"
       id="path40"
       style="opacity:1;fill:#335533;fill-opacity:1;fill-rule:nonzero;stroke:none"
       d="m 21,36 c -3.866,0 -7,3.134 -7,7 0,0.626 0.167909,2.817002 0.321909,3.395002 2.963,1.39 6.189091,0.605998 9.678091,0.605998 0.977,0 1.931,-0.069 2.875,-0.188 C 27.591,45.715 28,44.409 28,43 28,39.134 24.866,36 21,36 Z" />
    <path
       sodipodi:nodetypes="ssccs"
       inkscape:connector-curvature="0"
       id="path42"
       style="opacity:1;fill:#082c10;fill-opacity:1;fill-rule:nonzero;stroke:none"
       d="m 44,33 c -2.761,0 -5,2.239 -5,5 0,1 6.34737,3.703729 6.85337,4.485729 2.236,-2.12 1.019815,-6.277002 -0.75937,-9.360729 C 44.739,33.045 44.38,33 44,33 Z" />
    <path
       id="path44"
       style="fill:#396929;fill-opacity:1;stroke:none;fill-rule:nonzero"
       d="m 28 39.03 c -2.761 0 -5 2.239 -5 5 c 0 1.113 0.377 2.141 1 2.969 c 3.13 0 6.093 -0.649 8.813 -1.781 c 0.103 -0.383 0.188 -0.768 0.188 -1.188 c 0 -2.761 -2.239 -5 -5 -5 z" />
    <path
       sodipodi:nodetypes="cscccc"
       inkscape:connector-curvature="0"
       id="path46"
       style="opacity:1;fill:#335533;fill-opacity:1;fill-rule:nonzero;stroke:none"
       d="m 38,36 c -5.523,0 -10,4.477 -10,10 0,0.219 0.017,0.44 0.031,0.656 6.095,-1.079 14.304276,0.752278 17.729276,-4.116722 C 45.847368,36.943364 39.735,35.999 37.999,35.999 Z" />
  </g>
  <path
     style="opacity:0.35;fill:#000000;fill-opacity:1;stroke:none"
     d="M 3.9999993,43.999849 44,44.00015 c -20,-0.999999 -20,-0.999999 -40.0000017,0 z"
     id="path3213"
     inkscape:connector-curvature="0"
     sodipodi:nodetypes="cccc" />
</svg>
