<?xml version="1.0" encoding="UTF-8" standalone="no"?>
<svg
   xmlns:dc="http://purl.org/dc/elements/1.1/"
   xmlns:cc="http://creativecommons.org/ns#"
   xmlns:rdf="http://www.w3.org/1999/02/22-rdf-syntax-ns#"
   xmlns:svg="http://www.w3.org/2000/svg"
   xmlns="http://www.w3.org/2000/svg"
   xmlns:xlink="http://www.w3.org/1999/xlink"
   xmlns:sodipodi="http://sodipodi.sourceforge.net/DTD/sodipodi-0.dtd"
   xmlns:inkscape="http://www.inkscape.org/namespaces/inkscape"
   viewBox="0 0 48 48"
   id="svg2"
   version="1.1"
   inkscape:version="0.91 r13725"
   sodipodi:docname="ckb.svg">
  <metadata
     id="metadata85">
    <rdf:RDF>
      <cc:Work
         rdf:about="">
        <dc:format>image/svg+xml</dc:format>
        <dc:type
           rdf:resource="http://purl.org/dc/dcmitype/StillImage" />
      </cc:Work>
    </rdf:RDF>
  </metadata>
  <sodipodi:namedview
     pagecolor="#ffffff"
     bordercolor="#666666"
     borderopacity="1"
     objecttolerance="10"
     gridtolerance="10"
     guidetolerance="10"
     inkscape:pageopacity="0"
     inkscape:pageshadow="2"
     inkscape:window-width="1366"
     inkscape:window-height="705"
     id="namedview83"
     showgrid="false"
     inkscape:zoom="4.9166667"
     inkscape:cx="24"
     inkscape:cy="24"
     inkscape:window-x="0"
     inkscape:window-y="28"
     inkscape:window-maximized="1"
     inkscape:current-layer="svg2" />
  <defs
     id="defs4">
    <linearGradient
       id="linearGradient3764"
       x1="1"
       x2="47"
       gradientUnits="userSpaceOnUse"
       gradientTransform="matrix(0,-1,1,0,-1.5e-6,47.999998)">
      <stop
         style="stop-color:#3d3d3d;stop-opacity:1"
         id="stop7" />
      <stop
         offset="1"
         style="stop-color:#474747;stop-opacity:1"
         id="stop9" />
    </linearGradient>
    <linearGradient
       gradientUnits="userSpaceOnUse"
       y2="-527.79797"
       x2="431.57144"
       y1="-527.79797"
       x1="379.57144"
       id="linearGradient4172"
       xlink:href="#linearGradient5277"
       inkscape:collect="always"
       gradientTransform="matrix(0.83333307,0,0,0.83333307,-317.03371,412.80361)" />
    <linearGradient
       id="linearGradient5277">
      <stop
         id="stop5279"
         offset="0"
         style="stop-color:#333333;stop-opacity:1" />
      <stop
         id="stop5281"
         offset="1"
         style="stop-color:#666666;stop-opacity:1" />
    </linearGradient>
  </defs>
  <g
     id="g3208"
     transform="translate(0.55761199,0.30529681)">
    <rect
       transform="scale(1,-1)"
       ry="0"
       y="-43.694542"
       x="3.4424012"
       height="39.999989"
       width="39.999989"
       id="rect2991-1-7"
       style="fill:url(#linearGradient4172);fill-opacity:1;stroke:none" />
    <path
       sodipodi:nodetypes="cccc"
       inkscape:connector-curvature="0"
       id="path3800"
       d="m 3.4423873,43.694552 40.0000007,3.01e-4 c -20,-0.999999 -20,-0.999999 -40.0000017,0 z"
       style="opacity:0.35;fill:#000000;fill-opacity:1;stroke:none" />
    <path
       style="opacity:0.5;fill:#ffffff;fill-opacity:1;stroke:none"
       d="M 3.4423913,3.6947551 43.442388,3.6945549 c -19.999996,1.0000006 -19.999996,1.0000006 -39.9999977,0 z"
       id="path3804"
       inkscape:connector-curvature="0"
       sodipodi:nodetypes="cccc" />
  </g>
  <g
     transform="translate(0,0.003906)"
     id="g27">
    <g
       id="g29">
      <g
         transform="translate(1,1)"
         id="g31">
        <g
           style="opacity:0.1"
           id="g33">
          <!-- color: #67707b -->
          <g
             id="g35">
            <path
               d="m 9 14.996 c -0.551 0 -1 0.449 -1 1 l 0 2 c 0 0.555 0.449 1 1 1 l 2 0 c 0.551 0 1 -0.445 1 -1 l 0 -2 c 0 -0.551 -0.449 -1 -1 -1 l -2 0 z m 6 0 c -0.551 0 -1 0.449 -1 1 l 0 2 c 0 0.555 0.449 1 1 1 l 2 0 c 0.551 0 1 -0.445 1 -1 l 0 -2 c 0 -0.551 -0.449 -1 -1 -1 l -2 0 z m 6 0 c -0.551 0 -1 0.449 -1 1 l 0 2 c 0 0.555 0.449 1 1 1 l 2 0 c 0.551 0 1 -0.445 1 -1 l 0 -2 c 0 -0.551 -0.449 -1 -1 -1 l -2 0 z m 6 0 c -0.551 0 -1 0.449 -1 1 l 0 2 c 0 0.555 0.449 1 1 1 l 2 0 c 0.551 0 1 -0.445 1 -1 l 0 -2 c 0 -0.551 -0.449 -1 -1 -1 l -2 0 z m 6 0 c -0.551 0 -1 0.449 -1 1 l 0 2 c 0 0.555 0.449 1 1 1 l 2 0 c 0.551 0 1 -0.445 1 -1 l 0 -2 c 0 -0.551 -0.449 -1 -1 -1 l -2 0 z m 6 0 c -0.551 0 -1 0.449 -1 1 l 0 2 c 0 0.555 0.449 1 1 1 l 2 0 c 0.551 0 1 -0.445 1 -1 l 0 -2 c 0 -0.551 -0.449 -1 -1 -1 l -2 0 z m -30 6 c -0.551 0 -1 0.449 -1 1 l 0 2 c 0 0.555 0.449 1 1 1 l 2 0 c 0.551 0 1 -0.445 1 -1 l 0 -2 c 0 -0.551 -0.449 -1 -1 -1 l -2 0 z m 6 0 c -0.551 0 -1 0.449 -1 1 l 0 2 c 0 0.555 0.449 1 1 1 l 2 0 c 0.551 0 1 -0.445 1 -1 l 0 -2 c 0 -0.551 -0.449 -1 -1 -1 l -2 0 z m 6 0 c -0.551 0 -1 0.449 -1 1 l 0 2 c 0 0.555 0.449 1 1 1 l 2 0 c 0.551 0 1 -0.445 1 -1 l 0 -2 c 0 -0.551 -0.449 -1 -1 -1 l -2 0 z m 6 0 c -0.551 0 -1 0.449 -1 1 l 0 2 c 0 0.555 0.449 1 1 1 l 2 0 c 0.551 0 1 -0.445 1 -1 l 0 -2 c 0 -0.551 -0.449 -1 -1 -1 l -2 0 z m 6 0 c -0.551 0 -1 0.449 -1 1 l 0 2 c 0 0.555 0.449 1 1 1 l 2 0 c 0.551 0 1 -0.445 1 -1 l 0 -2 c 0 -0.551 -0.449 -1 -1 -1 l -2 0 z m 6 0 c -0.551 0 -1 0.449 -1 1 l 0 2 c 0 0.555 0.449 1 1 1 l 2 0 c 0.551 0 1 -0.445 1 -1 l 0 -2 c 0 -0.551 -0.449 -1 -1 -1 l -2 0 z m -30 6 c -0.551 0 -1 0.449 -1 1 l 0 2 c 0 0.555 0.449 1 1 1 l 2 0 c 0.551 0 1 -0.445 1 -1 l 0 -2 c 0 -0.551 -0.449 -1 -1 -1 l -2 0 z m 6 0 c -0.551 0 -1 0.449 -1 1 l 0 2 c 0 0.555 0.449 1 1 1 l 2 0 c 0.551 0 1 -0.445 1 -1 l 0 -2 c 0 -0.551 -0.449 -1 -1 -1 l -2 0 z m 6 0 c -0.551 0 -1 0.449 -1 1 l 0 2 c 0 0.555 0.449 1 1 1 l 2 0 c 0.551 0 1 -0.445 1 -1 l 0 -2 c 0 -0.551 -0.449 -1 -1 -1 l -2 0 z m 6 0 c -0.551 0 -1 0.449 -1 1 l 0 2 c 0 0.555 0.449 1 1 1 l 2 0 c 0.551 0 1 -0.445 1 -1 l 0 -2 c 0 -0.551 -0.449 -1 -1 -1 l -2 0 z m 6 0 c -0.551 0 -1 0.449 -1 1 l 0 2 c 0 0.555 0.449 1 1 1 l 2 0 c 0.551 0 1 -0.445 1 -1 l 0 -2 c 0 -0.551 -0.449 -1 -1 -1 l -2 0 z m 6 0 c -0.551 0 -1 0.449 -1 1 l 0 2 c 0 0.555 0.449 1 1 1 l 2 0 c 0.551 0 1 -0.445 1 -1 l 0 -2 c 0 -0.551 -0.449 -1 -1 -1 l -2 0 z m -24 6 c -0.551 0 -1 0.449 -1 1 l 0 2 c 0 0.555 0.449 1 1 1 l 20 0 c 0.551 0 1 -0.445 1 -1 l 0 -2 c 0 -0.551 -0.449 -1 -1 -1 l -20 0 z"
               transform="translate(-1,-1)"
               style="fill:#000;fill-opacity:1;stroke:none;fill-rule:nonzero"
               id="path37" />
          </g>
        </g>
      </g>
    </g>
  </g>
  <g
     transform="translate(0,0.003906)"
     id="g39">
    <g
       id="g41">
      <!-- color: #67707b -->
      <g
         id="g43">
        <path
           d="m 8 13.996 2 0 c 0.551 0 1 0.449 1 1 l 0 2 c 0 0.555 -0.449 1 -1 1 l -2 0 c -0.551 0 -1 -0.445 -1 -1 l 0 -2 c 0 -0.551 0.449 -1 1 -1 m 0 0"
           style="fill:#ed7868;fill-opacity:1;stroke:none;fill-rule:nonzero"
           id="path45" />
        <path
           d="m 14 13.996 2 0 c 0.551 0 1 0.449 1 1 l 0 2 c 0 0.555 -0.449 1 -1 1 l -2 0 c -0.551 0 -1 -0.445 -1 -1 l 0 -2 c 0 -0.551 0.449 -1 1 -1 m 0 0"
           style="fill:#ed7868;fill-opacity:1;stroke:none;fill-rule:nonzero"
           id="path47" />
        <path
           d="m 20 13.996 2 0 c 0.551 0 1 0.449 1 1 l 0 2 c 0 0.555 -0.449 1 -1 1 l -2 0 c -0.551 0 -1 -0.445 -1 -1 l 0 -2 c 0 -0.551 0.449 -1 1 -1 m 0 0"
           style="fill:#d992c9;fill-opacity:1;stroke:none;fill-rule:nonzero"
           id="path49" />
        <path
           d="m 26 13.996 2 0 c 0.551 0 1 0.449 1 1 l 0 2 c 0 0.555 -0.449 1 -1 1 l -2 0 c -0.551 0 -1 -0.445 -1 -1 l 0 -2 c 0 -0.551 0.449 -1 1 -1 m 0 0"
           style="fill:#d992c9;fill-opacity:1;stroke:none;fill-rule:nonzero"
           id="path51" />
        <path
           d="m 32 13.996 2 0 c 0.551 0 1 0.449 1 1 l 0 2 c 0 0.555 -0.449 1 -1 1 l -2 0 c -0.551 0 -1 -0.445 -1 -1 l 0 -2 c 0 -0.551 0.449 -1 1 -1 m 0 0"
           style="fill:#d992c9;fill-opacity:1;stroke:none;fill-rule:nonzero"
           id="path53" />
        <path
           d="m 38 13.996 2 0 c 0.551 0 1 0.449 1 1 l 0 2 c 0 0.555 -0.449 1 -1 1 l -2 0 c -0.551 0 -1 -0.445 -1 -1 l 0 -2 c 0 -0.551 0.449 -1 1 -1 m 0 0"
           style="fill:#9ab9dd;fill-opacity:1;stroke:none;fill-rule:nonzero"
           id="path55" />
        <path
           d="m 8 19.996 2 0 c 0.551 0 1 0.449 1 1 l 0 2 c 0 0.555 -0.449 1 -1 1 l -2 0 c -0.551 0 -1 -0.445 -1 -1 l 0 -2 c 0 -0.551 0.449 -1 1 -1 m 0 0"
           style="fill:#ed7868;fill-opacity:1;stroke:none;fill-rule:nonzero"
           id="path57" />
        <path
           d="m 14 19.996 2 0 c 0.551 0 1 0.449 1 1 l 0 2 c 0 0.555 -0.449 1 -1 1 l -2 0 c -0.551 0 -1 -0.445 -1 -1 l 0 -2 c 0 -0.551 0.449 -1 1 -1 m 0 0"
           style="fill:#f2b477;fill-opacity:1;stroke:none;fill-rule:nonzero"
           id="path59" />
        <path
           d="m 20 19.996 2 0 c 0.551 0 1 0.449 1 1 l 0 2 c 0 0.555 -0.449 1 -1 1 l -2 0 c -0.551 0 -1 -0.445 -1 -1 l 0 -2 c 0 -0.551 0.449 -1 1 -1 m 0 0"
           style="fill:#f2b477;fill-opacity:1;stroke:none;fill-rule:nonzero"
           id="path61" />
        <path
           d="m 26 19.996 2 0 c 0.551 0 1 0.449 1 1 l 0 2 c 0 0.555 -0.449 1 -1 1 l -2 0 c -0.551 0 -1 -0.445 -1 -1 l 0 -2 c 0 -0.551 0.449 -1 1 -1 m 0 0"
           style="fill:#86dd95;fill-opacity:1;stroke:none;fill-rule:nonzero"
           id="path63" />
        <path
           d="m 32 19.996 2 0 c 0.551 0 1 0.449 1 1 l 0 2 c 0 0.555 -0.449 1 -1 1 l -2 0 c -0.551 0 -1 -0.445 -1 -1 l 0 -2 c 0 -0.551 0.449 -1 1 -1 m 0 0"
           style="fill:#86dd95;fill-opacity:1;stroke:none;fill-rule:nonzero"
           id="path65" />
        <path
           d="m 38 19.996 2 0 c 0.551 0 1 0.449 1 1 l 0 2 c 0 0.555 -0.449 1 -1 1 l -2 0 c -0.551 0 -1 -0.445 -1 -1 l 0 -2 c 0 -0.551 0.449 -1 1 -1 m 0 0"
           style="fill:#9ab9dd;fill-opacity:1;stroke:none;fill-rule:nonzero"
           id="path67" />
        <path
           d="m 8 25.996 2 0 c 0.551 0 1 0.449 1 1 l 0 2 c 0 0.555 -0.449 1 -1 1 l -2 0 c -0.551 0 -1 -0.445 -1 -1 l 0 -2 c 0 -0.551 0.449 -1 1 -1 m 0 0"
           style="fill:#f2b477;fill-opacity:1;stroke:none;fill-rule:nonzero"
           id="path69" />
        <path
           d="m 14 25.996 2 0 c 0.551 0 1 0.449 1 1 l 0 2 c 0 0.555 -0.449 1 -1 1 l -2 0 c -0.551 0 -1 -0.445 -1 -1 l 0 -2 c 0 -0.551 0.449 -1 1 -1 m 0 0"
           style="fill:#f3f284;fill-opacity:1;stroke:none;fill-rule:nonzero"
           id="path71" />
        <path
           d="m 20 25.996 2 0 c 0.551 0 1 0.449 1 1 l 0 2 c 0 0.555 -0.449 1 -1 1 l -2 0 c -0.551 0 -1 -0.445 -1 -1 l 0 -2 c 0 -0.551 0.449 -1 1 -1 m 0 0"
           style="fill:#f3f284;fill-opacity:1;stroke:none;fill-rule:nonzero"
           id="path73" />
        <path
           d="m 26 25.996 2 0 c 0.551 0 1 0.449 1 1 l 0 2 c 0 0.555 -0.449 1 -1 1 l -2 0 c -0.551 0 -1 -0.445 -1 -1 l 0 -2 c 0 -0.551 0.449 -1 1 -1 m 0 0"
           style="fill:#f3f284;fill-opacity:1;stroke:none;fill-rule:nonzero"
           id="path75" />
        <path
           d="m 32 25.996 2 0 c 0.551 0 1 0.449 1 1 l 0 2 c 0 0.555 -0.449 1 -1 1 l -2 0 c -0.551 0 -1 -0.445 -1 -1 l 0 -2 c 0 -0.551 0.449 -1 1 -1 m 0 0"
           style="fill:#86dd95;fill-opacity:1;stroke:none;fill-rule:nonzero"
           id="path77" />
        <path
           d="m 38 25.996 2 0 c 0.551 0 1 0.449 1 1 l 0 2 c 0 0.555 -0.449 1 -1 1 l -2 0 c -0.551 0 -1 -0.445 -1 -1 l 0 -2 c 0 -0.551 0.449 -1 1 -1 m 0 0"
           style="fill:#9ab9dd;fill-opacity:1;stroke:none;fill-rule:nonzero"
           id="path79" />
        <path
           d="m 14 31.996 20 0 c 0.551 0 1 0.449 1 1 l 0 2 c 0 0.555 -0.449 1 -1 1 l -20 0 c -0.551 0 -1 -0.445 -1 -1 l 0 -2 c 0 -0.551 0.449 -1 1 -1 m 0 0"
           style="fill:#ececeb;fill-opacity:1;stroke:none;fill-rule:nonzero"
           id="path81" />
      </g>
    </g>
  </g>
</svg>
