<?xml version="1.0" encoding="UTF-8" standalone="no"?>
<svg
   xmlns:dc="http://purl.org/dc/elements/1.1/"
   xmlns:cc="http://creativecommons.org/ns#"
   xmlns:rdf="http://www.w3.org/1999/02/22-rdf-syntax-ns#"
   xmlns:svg="http://www.w3.org/2000/svg"
   xmlns="http://www.w3.org/2000/svg"
   xmlns:xlink="http://www.w3.org/1999/xlink"
   xmlns:sodipodi="http://sodipodi.sourceforge.net/DTD/sodipodi-0.dtd"
   xmlns:inkscape="http://www.inkscape.org/namespaces/inkscape"
   viewBox="0 0 48 48"
   id="svg2"
   version="1.1"
   inkscape:version="0.91 r13725"
   sodipodi:docname="clion.svg">
  <metadata
     id="metadata37">
    <rdf:RDF>
      <cc:Work
         rdf:about="">
        <dc:format>image/svg+xml</dc:format>
        <dc:type
           rdf:resource="http://purl.org/dc/dcmitype/StillImage" />
      </cc:Work>
    </rdf:RDF>
  </metadata>
  <sodipodi:namedview
     pagecolor="#ffffff"
     bordercolor="#666666"
     borderopacity="1"
     objecttolerance="10"
     gridtolerance="10"
     guidetolerance="10"
     inkscape:pageopacity="0"
     inkscape:pageshadow="2"
     inkscape:window-width="1366"
     inkscape:window-height="705"
     id="namedview35"
     showgrid="false"
     inkscape:zoom="4.9166667"
     inkscape:cx="24"
     inkscape:cy="24"
     inkscape:window-x="0"
     inkscape:window-y="28"
     inkscape:window-maximized="1"
     inkscape:current-layer="svg2" />
  <defs
     id="defs4">
    <linearGradient
       y2="46"
       y1="2"
       x2="24"
       x1="24"
       gradientUnits="userSpaceOnUse"
       id="linearGradient4171">
      <stop
         style="stop-color:#55dbb7;stop-opacity:1"
         offset="0"
         id="stop7" />
      <stop
         style="stop-color:#25b9d7;stop-opacity:1"
         offset="1"
         id="stop9" />
    </linearGradient>
    <linearGradient
       inkscape:collect="always"
       xlink:href="#linearGradient3400"
       id="linearGradient3217"
       gradientUnits="userSpaceOnUse"
       gradientTransform="matrix(0.83333307,0,0,0.83333307,-317.03371,412.80361)"
       x1="379.57144"
       y1="-527.79797"
       x2="431.57144"
       y2="-527.79797" />
    <linearGradient
       id="linearGradient3400">
      <stop
         style="stop-color:#0097a7;stop-opacity:1"
         offset="0"
         id="stop3402" />
      <stop
         style="stop-color:#26c6da;stop-opacity:1"
         offset="1"
         id="stop3404" />
    </linearGradient>
  </defs>
  <g
     id="g3209"
     transform="translate(0.55761199,0.30529681)">
    <rect
       transform="scale(1,-1)"
       ry="0"
       y="-43.694542"
       x="3.4424012"
       height="39.999989"
       width="39.999989"
       id="rect3211"
       style="fill:url(#linearGradient3217);fill-opacity:1;stroke:none" />
    <path
       sodipodi:nodetypes="cccc"
       inkscape:connector-curvature="0"
       id="path3213"
       d="m 3.4423873,43.694552 40.0000007,3.01e-4 c -20,-0.999999 -20,-0.999999 -40.0000017,0 z"
       style="opacity:0.35;fill:#000000;fill-opacity:1;stroke:none" />
    <path
       style="opacity:0.5;fill:#ffffff;fill-opacity:1;stroke:none"
       d="M 3.4423913,3.6947551 43.442388,3.6945549 c -19.999996,1.0000006 -19.999996,1.0000006 -39.9999977,0 z"
       id="path3215"
       inkscape:connector-curvature="0"
       sodipodi:nodetypes="cccc" />
  </g>
  <g
     id="g25">
    <path
       d="m 12,12 26,0 0,26 -26,0 z"
       style="fill:#000000;fill-opacity:0.1"
       id="path27" />
    <path
       d="m 11,11 26,0 0,26 -26,0 z"
       style="fill:#303030;fill-opacity:1"
       id="path29" />
    <path
       style="fill:#f9f9f9;fill-opacity:1"
       d="m 19,13.998047 c -3.310185,0 -5,2.371962 -5,5.441406 0,3.069445 1.810185,5.618784 5,5.558594 2.046296,0 3.28776,-0.804108 4.371094,-2.007813 L 22,21.59375 c -0.842592,0.782407 -1.796296,1.404297 -3,1.404297 -1.855211,0 -2.985329,-1.733985 -2.998047,-3.587891 0.0127,-1.852621 1.202154,-3.412109 2.998047,-3.412109 1.083333,0 2.001158,0.403139 2.84375,1.185547 l 1.306641,-1.566406 C 22.127242,14.594039 21.046296,13.998047 19,13.998047 Z m 6,0.002 0,11 7,0 0,-2 -5,0 0,-9 -2,0 z"
       id="path31" />
    <path
       style="opacity:1;fill:#f9f9f9;fill-opacity:1;"
       d="m 13,32 10,0 0,2 -10,0 z"
       id="path33" />
  </g>
</svg>
