<?xml version="1.0" encoding="UTF-8" standalone="no"?>
<svg
   xmlns:dc="http://purl.org/dc/elements/1.1/"
   xmlns:cc="http://creativecommons.org/ns#"
   xmlns:rdf="http://www.w3.org/1999/02/22-rdf-syntax-ns#"
   xmlns:svg="http://www.w3.org/2000/svg"
   xmlns="http://www.w3.org/2000/svg"
   xmlns:xlink="http://www.w3.org/1999/xlink"
   xmlns:sodipodi="http://sodipodi.sourceforge.net/DTD/sodipodi-0.dtd"
   xmlns:inkscape="http://www.inkscape.org/namespaces/inkscape"
   viewBox="0 0 48 48"
   id="svg2"
   version="1.1"
   inkscape:version="0.91 r13725"
   sodipodi:docname="cnc-qt.svg">
  <metadata
     id="metadata33">
    <rdf:RDF>
      <cc:Work
         rdf:about="">
        <dc:format>image/svg+xml</dc:format>
        <dc:type
           rdf:resource="http://purl.org/dc/dcmitype/StillImage" />
      </cc:Work>
    </rdf:RDF>
  </metadata>
  <sodipodi:namedview
     pagecolor="#ffffff"
     bordercolor="#666666"
     borderopacity="1"
     objecttolerance="10"
     gridtolerance="10"
     guidetolerance="10"
     inkscape:pageopacity="0"
     inkscape:pageshadow="2"
     inkscape:window-width="1366"
     inkscape:window-height="705"
     id="namedview31"
     showgrid="false"
     inkscape:zoom="4.9166667"
     inkscape:cx="24"
     inkscape:cy="24"
     inkscape:window-x="0"
     inkscape:window-y="28"
     inkscape:window-maximized="1"
     inkscape:current-layer="svg2" />
  <defs
     id="defs4">
    <linearGradient
       id="linearGradient3764"
       x1="1"
       x2="47"
       gradientUnits="userSpaceOnUse"
       gradientTransform="matrix(0,-1,1,0,-1.5e-6,47.999998)">
      <stop
         style="stop-color:#27b727;stop-opacity:1"
         id="stop7" />
      <stop
         offset="1"
         style="stop-color:#2bc72b;stop-opacity:1"
         id="stop9" />
    </linearGradient>
    <linearGradient
       inkscape:collect="always"
       xlink:href="#linearGradient3454"
       id="linearGradient3331"
       gradientUnits="userSpaceOnUse"
       gradientTransform="matrix(0.83333307,0,0,0.83333307,-317.03371,412.80361)"
       x1="379.57144"
       y1="-527.79797"
       x2="431.57144"
       y2="-527.79797" />
    <linearGradient
       id="linearGradient3454">
      <stop
         style="stop-color:#43a047;stop-opacity:1"
         offset="0"
         id="stop3456" />
      <stop
         style="stop-color:#81c784;stop-opacity:1"
         offset="1"
         id="stop3458" />
    </linearGradient>
  </defs>
  <g
     transform="translate(0.55761199,0.30529681)"
     id="g3297">
    <rect
       style="fill:url(#linearGradient3331);fill-opacity:1;stroke:none"
       id="rect3299"
       width="39.999989"
       height="39.999989"
       x="3.4424012"
       y="-43.694542"
       ry="0"
       transform="scale(1,-1)" />
    <path
       style="opacity:0.35;fill:#000000;fill-opacity:1;stroke:none"
       d="m 3.4423873,43.694552 40.0000007,3.01e-4 c -20,-0.999999 -20,-0.999999 -40.0000017,0 z"
       id="path3301"
       inkscape:connector-curvature="0"
       sodipodi:nodetypes="cccc" />
    <path
       sodipodi:nodetypes="cccc"
       inkscape:connector-curvature="0"
       id="path3303"
       d="M 3.4423913,3.6947551 43.442388,3.6945549 c -19.999996,1.0000006 -19.999996,1.0000006 -39.9999977,0 z"
       style="opacity:0.5;fill:#ffffff;fill-opacity:1;stroke:none" />
  </g>
  <path
     d="m 15 17 -4 4 0 8 4 4 4 0 0 -4 -2 0 -2 -2 0 -4 2 -2 2 0 0 -4 -4 0 z m 5 0 0 16 4 0 0 -5.287 l 2.35 5.287 3.65 0 0 -16 -4 0 0 5.287 -2.35 -5.287 -3.65 0 m 11 0 0 4 2 0 2 2 0 4 -2 2 -2 0 0 4 4 0 4 -4 0 -8 -4 -4 -4 0 z m -10 1 2 0 4 9 0 -9 2 0 0 14 -2 0 -4 -9 0 9 -2 0 0 -14 z"
     style="fill:#000;opacity:0.1;fill-opacity:1;stroke:none"
     id="path27" />
  <path
     d="m 14 16 l -4 4 l 0 8 l 4 4 l 4 0 l 0 -4 l -2 0 l -2 -2 l 0 -4 l 2 -2 l 2 0 l 0 -4 l -4 0 z m 5 0 l 0 16 l 4 0 l 0 -5.287 l 2.35 5.287 l 3.65 0 l 0 -16 l -4 0 l 0 5.287 l -2.35 -5.287 l -3.65 0 z m 11 0 l 0 4 l 2 0 l 2 2 l 0 4 l -2 2 l -2 0 l 0 4 l 4 0 l 4 -4 l 0 -8 l -4 -4 l -4 0 z m -10 1 l 2 0 l 4 9 l 0 -9 l 2 0 l 0 14 l -2 0 l -4 -9 l 0 9 l -2 0 l 0 -14 z"
     style="fill:#2a2a2a;opacity:1;fill-opacity:1;stroke:none"
     id="path29" />
</svg>
