<?xml version="1.0" encoding="UTF-8" standalone="no"?>
<svg
   xmlns:dc="http://purl.org/dc/elements/1.1/"
   xmlns:cc="http://creativecommons.org/ns#"
   xmlns:rdf="http://www.w3.org/1999/02/22-rdf-syntax-ns#"
   xmlns:svg="http://www.w3.org/2000/svg"
   xmlns="http://www.w3.org/2000/svg"
   xmlns:xlink="http://www.w3.org/1999/xlink"
   xmlns:sodipodi="http://sodipodi.sourceforge.net/DTD/sodipodi-0.dtd"
   xmlns:inkscape="http://www.inkscape.org/namespaces/inkscape"
   height="48"
   width="48"
   viewBox="0 0 13.546667 13.546667"
   id="svg2"
   version="1.1"
   inkscape:version="0.48.5 r10040"
   sodipodi:docname="colorhug-flash.svg">
  <metadata
     id="metadata32">
    <rdf:RDF>
      <cc:Work
         rdf:about="">
        <dc:format>image/svg+xml</dc:format>
        <dc:type
           rdf:resource="http://purl.org/dc/dcmitype/StillImage" />
      </cc:Work>
    </rdf:RDF>
  </metadata>
  <sodipodi:namedview
     pagecolor="#ffffff"
     bordercolor="#666666"
     borderopacity="1"
     objecttolerance="10"
     gridtolerance="10"
     guidetolerance="10"
     inkscape:pageopacity="0"
     inkscape:pageshadow="2"
     inkscape:window-width="1301"
     inkscape:window-height="744"
     id="namedview30"
     showgrid="true"
     inkscape:zoom="13.18263"
     inkscape:cx="22.26514"
     inkscape:cy="26.964914"
     inkscape:window-x="65"
     inkscape:window-y="24"
     inkscape:window-maximized="1"
     inkscape:current-layer="svg2">
    <inkscape:grid
       type="xygrid"
       id="grid3796" />
  </sodipodi:namedview>
  <defs
     id="defs4">
    <linearGradient
       id="linearGradient3788">
      <stop
         style="stop-color:#ececec;stop-opacity:1;"
         offset="0"
         id="stop3790" />
      <stop
         style="stop-color:#ffffff;stop-opacity:1;"
         offset="1"
         id="stop3792" />
    </linearGradient>
    <linearGradient
       inkscape:collect="always"
       id="linearGradient4281">
      <stop
         style="stop-color:#55cd51;stop-opacity:1"
         offset="0"
         id="stop4283" />
      <stop
         style="stop-color:#74d671;stop-opacity:1"
         offset="1"
         id="stop4285" />
    </linearGradient>
    <linearGradient
       inkscape:collect="always"
       id="linearGradient4262">
      <stop
         style="stop-color:#2474f2;stop-opacity:1"
         offset="0"
         id="stop4264" />
      <stop
         style="stop-color:#5291f5;stop-opacity:1"
         offset="1"
         id="stop4266" />
    </linearGradient>
    <linearGradient
       inkscape:collect="always"
       id="linearGradient4253">
      <stop
         style="stop-color:#f32929;stop-opacity:1"
         offset="0"
         id="stop4255" />
      <stop
         style="stop-color:#f55252;stop-opacity:1"
         offset="1"
         id="stop4257" />
    </linearGradient>
    <linearGradient
       id="linearGradient4917">
      <stop
         style="stop-color:#f2f2f2;stop-opacity:1"
         offset="0"
         id="stop4919" />
      <stop
         style="stop-color:#ffffff;stop-opacity:1;"
         offset="1"
         id="stop4921" />
    </linearGradient>
    <linearGradient
       gradientUnits="userSpaceOnUse"
       y2="-1004.6741"
       x2="24.925514"
       y1="-1051.8735"
       x1="24.925514"
       id="linearGradient4915"
       xlink:href="#linearGradient4917"
       inkscape:collect="always"
       gradientTransform="matrix(0.28222223,0,0,0.28222223,-1.7617798e-7,283.45334)" />
    <linearGradient
       inkscape:collect="always"
       xlink:href="#linearGradient4253"
       id="linearGradient4260"
       x1="4.7570009"
       y1="9.8638277"
       x2="4.7570009"
       y2="5.5978718"
       gradientUnits="userSpaceOnUse"
       gradientTransform="scale(3.543307,3.543307)" />
    <linearGradient
       inkscape:collect="always"
       xlink:href="#linearGradient4262"
       id="linearGradient4268"
       x1="9.1150284"
       y1="9.8638277"
       x2="9.1150284"
       y2="5.5364909"
       gradientUnits="userSpaceOnUse"
       gradientTransform="scale(3.543307,3.543307)" />
    <linearGradient
       inkscape:collect="always"
       xlink:href="#linearGradient4281"
       id="linearGradient4287"
       x1="24.032703"
       y1="21.683647"
       x2="24.032703"
       y2="11.026611"
       gradientUnits="userSpaceOnUse" />
    <linearGradient
       inkscape:collect="always"
       xlink:href="#linearGradient3788"
       id="linearGradient3794"
       x1="1.4084145"
       y1="6.7733357"
       x2="12.138252"
       y2="6.7733357"
       gradientUnits="userSpaceOnUse"
       gradientTransform="matrix(0.66221172,0,0,0.66221172,2.2879525,2.2749284)" />
  </defs>
  <path
     style="fill:#000000;fill-opacity:0.23529412"
     d="m 6.7733338,1.549781 c -1.9763342,0 -3.5779804,1.5969277 -3.5779804,3.5664476 0,0.1101231 0.00444,0.2187415 0.014246,0.3263194 0.455532,-0.2094249 0.9626771,-0.3263194 1.4972703,-0.3263194 0.2503343,0 0.4955481,0.025895 0.7313354,0.074625 -0.00138,-0.024714 -0.00271,-0.04957 -0.00271,-0.074625 0,-0.7363429 0.5989508,-1.3337714 1.3378416,-1.3337714 0.7388907,0 1.3378419,0.5974285 1.3378416,1.3337714 0,0.025056 -0.00133,0.049913 -0.00271,0.074625 0.2358238,-0.048729 0.4796443,-0.074625 0.7299783,-0.074625 0.5345932,0 1.0430968,0.1168948 1.4986277,0.3263194 0.0098,-0.1075779 0.01425,-0.2161961 0.01425,-0.3263194 0,-1.9695199 -1.6016463,-3.5664476 -3.5779805,-3.5664476 z m 3.5637342,3.892767 c -0.07139,0.784065 -0.3978424,1.4948583 -0.8955131,2.0495028 0.4361251,0.2196904 0.7354061,0.669678 0.7354061,1.1899464 0,0.7363429 -0.5982729,1.3330928 -1.3371636,1.3330928 -0.2703415,0 -0.5229698,-0.080365 -0.7333706,-0.2177721 -0.241749,0.7322451 -0.7138634,1.3604901 -1.3324146,1.7971301 0.5835,0.411712 1.2964353,0.653995 2.0657852,0.653995 1.9763336,0 3.5779806,-1.596926 3.5779806,-3.5664458 0,-1.4365683 -0.852471,-2.6745436 -2.08071,-3.2394492 z m -7.127468,0 C 1.9813603,6.0074536 1.1288899,7.2454289 1.1288899,8.6819972 c 0,1.9695198 1.6016458,3.5664458 3.5779804,3.5664458 0.7693498,0 1.4822851,-0.242283 2.0657851,-0.653995 C 6.1541043,11.157808 5.6819898,10.529563 5.4402409,9.7973179 5.2298399,9.9347246 4.9772116,10.01509 4.7068703,10.01509 c -0.7388908,0 -1.3371633,-0.5967499 -1.3371633,-1.3330928 0,-0.5202684 0.2992805,-0.970256 0.7354058,-1.1899464 C 3.607442,6.9374063 3.2809844,6.226613 3.2096,5.442548 z M 6.7733338,3.9418854 c -0.6510947,0 -1.1756998,0.5238626 -1.1756998,1.1743432 0,0.6504803 0.5246051,1.1736644 1.1756998,1.1736644 0.6510948,0 1.1756998,-0.5231841 1.1756998,-1.1736644 0,-0.6504806 -0.524605,-1.1743432 -1.1756998,-1.1743432 z m -2.0664635,3.565769 c -0.6510949,0 -1.1743428,0.5238625 -1.1743428,1.1743428 0,0.6504807 0.5232479,1.1736649 1.1743428,1.1736649 0.6510943,0 1.1756998,-0.5231842 1.1756998,-1.1736649 0,-0.6504803 -0.5246055,-1.1743428 -1.1756998,-1.1743428 z m 4.1329271,0 c -0.6510944,0 -1.1756998,0.5238625 -1.1756998,1.1743428 0,0.6504807 0.5246054,1.1736649 1.1756998,1.1736649 0.6510947,0 1.1743426,-0.5231842 1.1743426,-1.1736649 0,-0.6504803 -0.5232479,-1.1743428 -1.1743426,-1.1743428 z"
     id="path4314"
     inkscape:connector-curvature="0" />
  <g
     id="g4307"
     transform="matrix(1.5809787,0,0,1.579487,-3.9351619,-3.4923177)">
    <path
       id="path18"
       transform="scale(0.28222223,0.28222223)"
       d="m 31.986328,19.732422 c -0.159987,1.758915 -0.890473,3.353406 -2.005859,4.597656 0.977449,0.492837 1.648437,1.502789 1.648437,2.669922 0,1.651858 -1.342037,2.990234 -2.998047,2.990234 -0.605892,0 -1.171025,-0.180033 -1.642578,-0.488281 -0.54181,1.642666 -1.600024,3.051724 -2.986328,4.03125 C 25.3097,34.456809 26.906584,35 28.630859,35 c 4.429383,0 8.019532,-3.581722 8.019532,-8 0,-3.222694 -1.911318,-6.000309 -4.664063,-7.267578 z m -3.355469,4.632812 c -1.45924,0 -2.634765,1.175525 -2.634765,2.634766 0,1.459241 1.175525,2.632812 2.634765,2.632812 1.459241,0 2.632813,-1.173571 2.632813,-2.632812 0,-1.459241 -1.173572,-2.634766 -2.632813,-2.634766 z"
       style="fill:url(#linearGradient4268);fill-opacity:1"
       inkscape:connector-curvature="0" />
    <path
       id="path20"
       transform="scale(0.28222223,0.28222223)"
       d="m 24,11 c -4.429382,0 -8.019531,3.581722 -8.019531,8 0,0.247043 0.01123,0.49109 0.0332,0.732422 C 17.034612,19.262614 18.171005,19 19.369141,19 c 0.561052,0 1.110222,0.05865 1.638671,0.167969 -0.0031,-0.05544 -0.0059,-0.111762 -0.0059,-0.167969 0,-1.651858 1.342037,-2.992188 2.998047,-2.992188 1.65601,0 2.998047,1.34033 2.998047,2.992188 0,0.05621 -0.0028,0.112527 -0.0059,0.167969 C 27.520637,19.058654 28.067854,19 28.628906,19 c 1.198136,0 2.336482,0.262615 3.357422,0.732422 0.02197,-0.241331 0.0332,-0.485379 0.0332,-0.732422 0,-4.418278 -3.590149,-8 -8.019531,-8 z m 0,5.365234 c -1.459241,0 -2.634766,1.175525 -2.634766,2.634766 0,1.459241 1.175525,2.632812 2.634766,2.632812 1.459241,0 2.634766,-1.173571 2.634766,-2.632812 0,-1.459241 -1.175525,-2.634766 -2.634766,-2.634766 z"
       style="fill:url(#linearGradient4287);fill-opacity:1;stroke:none"
       inkscape:connector-curvature="0" />
    <path
       id="path22"
       transform="scale(0.28222223,0.28222223)"
       d="M 16.013672,19.732422 C 13.260927,20.999691 11.349609,23.777306 11.349609,27 c 0,4.418278 3.590149,8 8.019532,8 1.724275,0 3.321159,-0.543191 4.628906,-1.466797 -1.386304,-0.979526 -2.444518,-2.388584 -2.986328,-4.03125 -0.471553,0.308248 -1.036686,0.488281 -1.642578,0.488281 -1.65601,0 -2.998047,-1.338376 -2.998047,-2.990234 0,-1.167133 0.670988,-2.177085 1.648437,-2.669922 -1.115386,-1.24425 -1.845872,-2.838741 -2.005859,-4.597656 z m 3.355469,4.632812 c -1.459241,0 -2.632813,1.175525 -2.632813,2.634766 0,1.459241 1.173572,2.632812 2.632813,2.632812 1.45924,0 2.634765,-1.173571 2.634765,-2.632812 0,-1.459241 -1.175525,-2.634766 -2.634765,-2.634766 z"
       style="fill:url(#linearGradient4260);fill-opacity:1;stroke:none"
       inkscape:connector-curvature="0" />
  </g>
  <path
     style="fill:#494949;fill-opacity:0.31372549"
     d="m 6.7733338,3.3655004 c -0.7388907,3e-7 -1.3378416,0.5974288 -1.3378416,1.3337713 0,0.025056 0.00133,0.049912 0.00271,0.074626 -0.2357873,-0.048731 -0.4810011,-0.074626 -0.7313355,-0.074626 -0.5345931,0 -1.0417382,0.1168946 -1.4972702,0.3263194 0.00811,0.089084 0.020705,0.176835 0.035278,0.263905 0.4465703,-0.199583 0.9408753,-0.3120724 1.4619922,-0.3120724 0.2503344,0 0.4955482,0.025895 0.7313355,0.074626 -0.00138,-0.024714 -0.00271,-0.04957 -0.00271,-0.074626 0,-0.3263145 0.1221955,-0.621603 0.3174998,-0.8534511 C 5.9544129,3.7674272 6.3328386,3.524929 6.7733338,3.524929 c 0.4404952,0 0.818921,0.2424982 1.0203418,0.5990436 0.1953044,0.2318481 0.3175002,0.5271366 0.3174998,0.8534511 0,0.025056 -0.00133,0.049912 -0.00271,0.074626 0.2358238,-0.048728 0.4796444,-0.074626 0.7299784,-0.074626 0.5211395,0 1.0167002,0.1124734 1.4633497,0.3120724 0.01457,-0.08707 0.02717,-0.1748214 0.03528,-0.263905 C 9.8815367,4.8161666 9.3730338,4.6992717 8.8384403,4.6992717 c -0.2503337,0 -0.4941546,0.025897 -0.7299784,0.074626 0.00138,-0.024714 0.00271,-0.04957 0.00271,-0.074626 7e-7,-0.7363425 -0.5989509,-1.3337713 -1.3378416,-1.3337713 z m 3.5637342,1.6600907 c 0.0041,0.00191 0.0081,0.00419 0.01221,0.00611 2.5e-4,-0.01823 0.002,-0.035963 0.002,-0.054273 0,-0.043787 -0.0052,-0.086173 -0.0068,-0.1295781 -0.0023,0.059285 -0.0021,0.1191524 -0.0075,0.1777455 z m -7.127468,0 c -0.00534,-0.058593 -0.00515,-0.11846 -0.00746,-0.1777455 -0.00157,0.043405 -0.00678,0.085791 -0.00678,0.1295781 0,0.018311 0.00179,0.036043 0.00204,0.054273 0.00413,-0.00192 0.00807,-0.0042 0.012211,-0.00611 z M 5.6118809,4.8383477 c -0.00547,0.046122 -0.014247,0.09144 -0.014247,0.139076 0,0.6504803 0.524605,1.1736643 1.1756998,1.1736643 0.6510948,0 1.1756998,-0.523184 1.1756998,-1.1736643 0,-0.047636 -0.00878,-0.092954 -0.014247,-0.139076 C 7.8655566,5.4219453 7.3767478,5.8729361 6.7733338,5.8729361 6.1699202,5.8729364 5.681111,5.4219453 5.6118809,4.8383477 z M 3.9504335,7.1666808 C 3.5998489,7.4069417 3.369707,7.8089342 3.369707,8.2650407 c 0,0.039279 0.0082,0.076237 0.011533,0.1146527 0.033246,-0.26957 0.1468417,-0.5140505 0.3168214,-0.7089474 0.089284,-0.1517556 0.2083119,-0.2834463 0.3541349,-0.3812712 -0.03459,-0.040386 -0.068978,-0.08088 -0.1017629,-0.122794 z m 5.6458007,0 c -0.032785,0.041914 -0.067173,0.082408 -0.1017629,0.122794 0.1458229,0.097825 0.2648505,0.2295156 0.3541348,0.3812712 0.1699799,0.1948969 0.2835759,0.4393774 0.3168219,0.7089474 0.0033,-0.038415 0.01153,-0.075373 0.01153,-0.1146527 0,-0.4561065 -0.2301422,-0.858099 -0.5807268,-1.0983599 z M 1.1349956,8.3851207 c -0.00232,0.052663 -0.00611,0.1048391 -0.00611,0.1580716 0,1.9695197 1.6016459,3.5664477 3.5779804,3.5664477 0.7693499,0 1.4822852,-0.242284 2.0657852,-0.653996 -0.067293,-0.0475 -0.1323443,-0.098 -0.1960629,-0.14993 -0.5441842,0.33301 -1.1843926,0.525774 -1.8697223,0.525774 -1.9356952,0 -3.5078681,-1.532862 -3.5718746,-3.4463673 z m 11.2766764,0 c -0.06401,1.9135053 -1.63618,3.4463673 -3.5718746,3.4463673 -0.6853296,0 -1.3255381,-0.192764 -1.8697222,-0.525774 -0.063719,0.05193 -0.1287698,0.102427 -0.196063,0.14993 0.5835,0.411712 1.2964353,0.653996 2.0657852,0.653996 1.9763346,0 3.5779806,-1.596928 3.5779806,-3.5664477 0,-0.053233 -0.0038,-0.1054084 -0.0061,-0.1580716 z m -8.8648976,0.018996 c -0.00546,0.046122 -0.014247,0.09144 -0.014247,0.1390757 0,0.212362 0.060292,0.4085966 0.1580715,0.580048 0.2452127,0.2883884 0.6070772,0.4748933 1.0162712,0.4748933 0.2703414,0 0.5229697,-0.080366 0.7333706,-0.2177723 0.00637,0.019284 0.014347,0.037849 0.021031,0.056987 C 5.7168262,9.2224304 5.88257,8.904561 5.88257,8.5431923 c 0,-0.047636 -0.00878,-0.092954 -0.014247,-0.1390757 -0.06923,0.583598 -0.5580392,1.0345888 -1.1614529,1.0345888 -0.6034136,0 -1.0910366,-0.4509908 -1.1600958,-1.0345888 z m 4.1315701,0 c -0.00547,0.046122 -0.014247,0.09144 -0.014247,0.1390757 0,0.3613687 0.1657438,0.6792381 0.4212982,0.894156 0.00668,-0.019138 0.014664,-0.037703 0.021031,-0.056987 0.2104005,0.1374069 0.4630292,0.2177723 0.7333706,0.2177723 0.4091937,0 0.7710585,-0.1865049 1.0162712,-0.4748933 0.097779,-0.1714514 0.1580714,-0.367686 0.1580714,-0.580048 0,-0.047636 -0.0088,-0.092954 -0.014247,-0.1390757 -0.069059,0.583598 -0.5566822,1.0345888 -1.1600958,1.0345888 -0.6034136,0 -1.0922228,-0.4509908 -1.1614529,-1.0345888 z"
     id="path4336"
     inkscape:connector-curvature="0" />
  <path
     style="color:#000000;fill:url(#linearGradient3794);fill-opacity:1;fill-rule:nonzero;stroke:none;stroke-width:0.2;marker:none;visibility:visible;display:inline;overflow:visible;enable-background:accumulate"
     d="M 7.5715692,3.8821914 10.326045,4.7872104 9.4828384,5.2706597 C 9.5671891,5.5080485 9.61213,5.7576599 9.61213,6.023942 c 0,1.2522623 -1.013092,2.2710231 -2.2654159,2.2710231 -0.2449971,0 -0.4816516,-0.046181 -0.7026731,-0.1180403 0.9087491,-0.2955492 1.5683655,-1.145697 1.5683655,-2.1529828 0,-0.00654 5.8e-5,-0.010279 0,-0.01682 L 6.981324,6.7154383 7.5715692,3.8821914 z M 6.1999526,5.2256937 c 0.2449958,0 0.4816519,0.046162 0.7026724,0.118059 -0.9087474,0.2955866 -1.5683646,1.1456971 -1.5683646,2.1529828 0,0.00654 -5.82e-5,0.010279 0,0.01682 L 6.5653418,6.805258 5.9750973,9.6384302 3.220621,8.7333925 4.0638284,8.2499618 C 3.9794779,8.012573 3.9345362,7.7629616 3.9345362,7.4966794 c 7e-7,-1.2522248 1.0130932,-2.2709857 2.2654164,-2.2709857 z"
     id="path1429"
     inkscape:connector-curvature="0" />
  <path
     style="color:#000000;fill:#000000;fill-opacity:0.31372549;fill-rule:nonzero;stroke:none;stroke-width:0.2;marker:none;visibility:visible;display:inline;overflow:visible;enable-background:accumulate"
     d="M 10.16,4.7329186 9.4828863,5.1209228 c 0.014829,0.041751 0.027058,0.084512 0.039423,0.1270297 L 10.326085,4.7873038 10.16,4.7329183 z M 6.6769674,5.2829945 C 5.8871986,5.63719 5.3344194,6.42572 5.3344194,7.3471854 c 0,0.00654 -5.83e-5,0.010279 0,0.016821 l 0.0055,-0.00299 C 5.3961574,6.413703 6.0349811,5.6257337 6.9025708,5.3435284 6.8292165,5.3197372 6.7535186,5.3004503 6.6769872,5.2829944 z M 8.2122467,5.8575344 7.016802,6.5452368 6.981395,6.7153448 8.2067713,6.0101121 c 0.00268,-0.04506 0.00548,-0.090044 0.00548,-0.1357762 -6e-7,-0.00654 5.75e-5,-0.010279 -6e-7,-0.01682 z m 1.3965717,0.085428 C 9.572285,7.1633035 8.5759353,8.1454898 7.3467812,8.1454898 c -0.1638087,0 -0.3232771,-0.022147 -0.4774476,-0.057301 -0.073439,0.032911 -0.1479216,0.063562 -0.2252184,0.088698 0.2210215,0.07186 0.4576689,0.1178908 0.702666,0.1178908 1.252324,0 2.2653225,-1.018518 2.2653225,-2.2707802 0,-0.027417 -0.00231,-0.053974 -0.00334,-0.081036 z M 6.565271,6.8051272 6.5298627,6.825573 5.9750305,9.4887676 3.3862999,8.6382647 3.2205801,8.733187 5.9750305,9.6384302 6.5652698,6.8051271 z m -2.627423,0.622739 c -6.618e-4,0.023006 -0.00331,0.045452 -0.00331,0.068626 0,0.2193726 0.031879,0.4271391 0.089795,0.6263648 l 0.039422,-0.022632 C 3.9880648,7.8872253 3.9460508,7.6637785 3.9378208,7.4278662 z"
     id="path4059"
     inkscape:connector-curvature="0" />
</svg>
