<?xml version="1.0" encoding="UTF-8" standalone="no"?>
<svg
   xmlns:dc="http://purl.org/dc/elements/1.1/"
   xmlns:cc="http://creativecommons.org/ns#"
   xmlns:rdf="http://www.w3.org/1999/02/22-rdf-syntax-ns#"
   xmlns:svg="http://www.w3.org/2000/svg"
   xmlns="http://www.w3.org/2000/svg"
   xmlns:xlink="http://www.w3.org/1999/xlink"
   xmlns:sodipodi="http://sodipodi.sourceforge.net/DTD/sodipodi-0.dtd"
   xmlns:inkscape="http://www.inkscape.org/namespaces/inkscape"
   viewBox="0 0 48 48"
   id="svg2"
   version="1.1"
   inkscape:version="0.91 r13725"
   sodipodi:docname="colobot.svg">
  <metadata
     id="metadata38">
    <rdf:RDF>
      <cc:Work
         rdf:about="">
        <dc:format>image/svg+xml</dc:format>
        <dc:type
           rdf:resource="http://purl.org/dc/dcmitype/StillImage" />
      </cc:Work>
    </rdf:RDF>
  </metadata>
  <sodipodi:namedview
     pagecolor="#ffffff"
     bordercolor="#666666"
     borderopacity="1"
     objecttolerance="10"
     gridtolerance="10"
     guidetolerance="10"
     inkscape:pageopacity="0"
     inkscape:pageshadow="2"
     inkscape:window-width="1366"
     inkscape:window-height="705"
     id="namedview36"
     showgrid="false"
     inkscape:zoom="4.9166667"
     inkscape:cx="24"
     inkscape:cy="24"
     inkscape:window-x="0"
     inkscape:window-y="28"
     inkscape:window-maximized="1"
     inkscape:current-layer="svg2" />
  <defs
     id="defs4">
    <linearGradient
       id="linearGradient3764"
       x1="1"
       x2="47"
       gradientUnits="userSpaceOnUse"
       gradientTransform="matrix(0,-1,1,0,-1.5e-6,47.999998)">
      <stop
         style="stop-color:#efc429;stop-opacity:1"
         id="stop7" />
      <stop
         offset="1"
         style="stop-color:#f5cb37;stop-opacity:1"
         id="stop9" />
    </linearGradient>
    <radialGradient
       id="radialGradient4187"
       cx="24"
       cy="24"
       r="15"
       gradientUnits="userSpaceOnUse">
      <stop
         style="stop-color:#776e53;stop-opacity:1"
         id="stop12" />
      <stop
         offset="1"
         style="stop-color:#6f664d;stop-opacity:1"
         id="stop14" />
    </radialGradient>
    <linearGradient
       inkscape:collect="always"
       xlink:href="#linearGradient3472"
       id="linearGradient3337"
       gradientUnits="userSpaceOnUse"
       gradientTransform="matrix(0.83333307,0,0,0.83333307,-317.03371,412.80361)"
       x1="379.57144"
       y1="-527.79797"
       x2="431.57144"
       y2="-527.79797" />
    <linearGradient
       id="linearGradient3472">
      <stop
         style="stop-color:#ff8f00;stop-opacity:1"
         offset="0"
         id="stop3474" />
      <stop
         style="stop-color:#ffd54f;stop-opacity:1"
         offset="1"
         id="stop3476" />
    </linearGradient>
  </defs>
  <g
     id="g3321"
     transform="translate(0.55761199,0.30529681)">
    <rect
       transform="scale(1,-1)"
       ry="0"
       y="-43.694542"
       x="3.4424012"
       height="39.999989"
       width="39.999989"
       id="rect3323"
       style="fill:url(#linearGradient3337);fill-opacity:1;stroke:none" />
    <path
       sodipodi:nodetypes="cccc"
       inkscape:connector-curvature="0"
       id="path3325"
       d="m 3.4423873,43.694552 40.0000007,3.01e-4 c -20,-0.999999 -20,-0.999999 -40.0000017,0 z"
       style="opacity:0.35;fill:#000000;fill-opacity:1;stroke:none" />
    <path
       style="opacity:0.5;fill:#ffffff;fill-opacity:1;stroke:none"
       d="M 3.4423913,3.6947551 43.442388,3.6945549 c -19.999996,1.0000006 -19.999996,1.0000006 -39.9999977,0 z"
       id="path3327"
       inkscape:connector-curvature="0"
       sodipodi:nodetypes="cccc" />
  </g>
  <path
     d="M 23 10 A 13 13 0 0 0 10 23 l 7.266 0 A 8 8 0 0 1 23 17.26 L 23 10 m 4 0 0 7.266 A 8 8 0 0 1 32.74 23 L 40 23 A 13 13 0 0 0 27 10 m -2 10 a 5 5 0 0 0 -5 5 5 5 0 0 0 5 5 5 5 0 0 0 5 -5 5 5 0 0 0 -5 -5 z m -15 7 a 13 13 0 0 0 13 13 l 0 -7.266 A 8 8 0 0 1 17.26 27 L 10 27 m 22.734 0 A 8 8 0 0 1 27 32.74 L 27 40 A 13 13 0 0 0 40 27 l -7.266 0 z"
     style="fill:#000;opacity:0.1;fill-opacity:1;stroke:none"
     id="path32" />
  <path
     d="M 22 9 A 13 13 0 0 0 9 22 L 16.266 22 A 8 8 0 0 1 22 16.26 L 22 9 z M 26 9 L 26 16.266 A 8 8 0 0 1 31.74 22 L 39 22 A 13 13 0 0 0 26 9 z M 24 19 A 5 5 0 0 0 19 24 A 5 5 0 0 0 24 29 A 5 5 0 0 0 29 24 A 5 5 0 0 0 24 19 z M 9 26 A 13 13 0 0 0 22 39 L 22 31.734 A 8 8 0 0 1 16.26 26 L 9 26 z M 31.734 26 A 8 8 0 0 1 26 31.74 L 26 39 A 13 13 0 0 0 39 26 L 31.734 26 z"
     style="fill:url(#radialGradient4187);opacity:1;fill-opacity:1;stroke:none"
     id="path34" />
</svg>
