<?xml version="1.0" encoding="UTF-8" standalone="no"?>
<svg
   xmlns:dc="http://purl.org/dc/elements/1.1/"
   xmlns:cc="http://creativecommons.org/ns#"
   xmlns:rdf="http://www.w3.org/1999/02/22-rdf-syntax-ns#"
   xmlns:svg="http://www.w3.org/2000/svg"
   xmlns="http://www.w3.org/2000/svg"
   xmlns:xlink="http://www.w3.org/1999/xlink"
   xmlns:sodipodi="http://sodipodi.sourceforge.net/DTD/sodipodi-0.dtd"
   xmlns:inkscape="http://www.inkscape.org/namespaces/inkscape"
   viewBox="0 0 48 48"
   id="svg2"
   version="1.1"
   inkscape:version="0.91 r13725"
   sodipodi:docname="connectagram.svg">
  <metadata
     id="metadata44">
    <rdf:RDF>
      <cc:Work
         rdf:about="">
        <dc:format>image/svg+xml</dc:format>
        <dc:type
           rdf:resource="http://purl.org/dc/dcmitype/StillImage" />
      </cc:Work>
    </rdf:RDF>
  </metadata>
  <sodipodi:namedview
     pagecolor="#ffffff"
     bordercolor="#666666"
     borderopacity="1"
     objecttolerance="10"
     gridtolerance="10"
     guidetolerance="10"
     inkscape:pageopacity="0"
     inkscape:pageshadow="2"
     inkscape:window-width="1366"
     inkscape:window-height="705"
     id="namedview42"
     showgrid="false"
     inkscape:zoom="4.9166667"
     inkscape:cx="24"
     inkscape:cy="24"
     inkscape:window-x="0"
     inkscape:window-y="28"
     inkscape:window-maximized="1"
     inkscape:current-layer="svg2" />
  <defs
     id="defs4">
    <linearGradient
       id="linearGradient3764"
       x1="1"
       x2="47"
       gradientUnits="userSpaceOnUse"
       gradientTransform="matrix(0,-1,1,0,-1.5e-6,47.999998)">
      <stop
         style="stop-color:#e4e4e4;stop-opacity:1"
         id="stop7" />
      <stop
         offset="1"
         style="stop-color:#eee;stop-opacity:1"
         id="stop9" />
    </linearGradient>
    <linearGradient
       id="linearGradient4228"
       y1="36"
       x2="0"
       y2="12"
       gradientUnits="userSpaceOnUse">
      <stop
         style="stop-color:#1b991b;stop-opacity:1"
         id="stop12" />
      <stop
         offset="1"
         style="stop-color:#1eaa1e;stop-opacity:1"
         id="stop14" />
    </linearGradient>
    <linearGradient
       inkscape:collect="always"
       xlink:href="#linearGradient3859"
       id="linearGradient3739"
       gradientUnits="userSpaceOnUse"
       gradientTransform="matrix(0.83333307,0,0,0.83333307,-317.03371,412.80361)"
       x1="379.57144"
       y1="-527.79797"
       x2="431.57144"
       y2="-527.79797" />
    <linearGradient
       id="linearGradient3859">
      <stop
         id="stop3861"
         offset="0"
         style="stop-color:#cccccc;stop-opacity:1" />
      <stop
         id="stop3863"
         offset="1"
         style="stop-color:#ececec;stop-opacity:1" />
    </linearGradient>
  </defs>
  <g
     id="g3665"
     transform="translate(0.55761199,0.30529681)">
    <rect
       transform="scale(1,-1)"
       ry="0"
       y="-43.694542"
       x="3.4424012"
       height="39.999989"
       width="39.999989"
       id="rect3667"
       style="fill:url(#linearGradient3739);fill-opacity:1;stroke:none" />
    <path
       sodipodi:nodetypes="cccc"
       inkscape:connector-curvature="0"
       id="path3669"
       d="m 3.4423873,43.694552 40.0000007,3.01e-4 c -20,-0.999999 -20,-0.999999 -40.0000017,0 z"
       style="opacity:0.35;fill:#000000;fill-opacity:1;stroke:none" />
    <path
       style="opacity:0.5;fill:#ffffff;fill-opacity:1;stroke:none"
       d="M 3.4423913,3.6947551 43.442388,3.6945549 c -19.999996,1.0000006 -19.999996,1.0000006 -39.9999977,0 z"
       id="path3671"
       inkscape:connector-curvature="0"
       sodipodi:nodetypes="cccc" />
  </g>
  <rect
     rx="3"
     y="13"
     x="13"
     height="24"
     width="24"
     style="fill:#000;fill-opacity:0.098;stroke:none;fill-rule:evenodd"
     id="rect32" />
  <g
     id="g34">
    <rect
       rx="3"
       y="12"
       x="12"
       height="24"
       width="24"
       style="fill:url(#linearGradient4228);fill-opacity:1;stroke:none;fill-rule:evenodd"
       id="rect36" />
    <path
       d="m 26.622 17.998 c -0.806 -0.019 -1.587 0.039 -2.24 0.184 -2.441 0.54 -4.324 2.142 -5.071 4.316 -0.392 1.141 -0.419 3.687 -0.053 4.85 1.109 3.522 4.656 5.229 9.312 4.479 0.842 -0.154 1.64 -0.452 2.429 -0.75 l 0 -2.865 -0.734 0.395 c -2.289 1.119 -5.556 1.102 -6.841 -0.957 -1.158 -1.933 -0.752 -5.03 0.823 -6.264 1.372 -1.078 3.959 -1.07 6.01 0.021 l 0.74 0.393 0 -2.798 -0.615 -0.288 c -1.01 -0.433 -2.419 -0.683 -3.763 -0.715 z"
       style="fill:#000;fill-opacity:0.098"
       id="path38" />
    <path
       d="m 25.622 16.998 c -0.806 -0.019 -1.587 0.039 -2.24 0.184 -2.441 0.54 -4.324 2.142 -5.071 4.316 -0.392 1.141 -0.419 3.687 -0.053 4.85 1.109 3.522 4.656 5.229 9.312 4.479 0.842 -0.154 1.64 -0.452 2.429 -0.75 l 0 -2.865 -0.734 0.395 c -2.289 1.119 -5.556 1.102 -6.841 -0.957 -1.158 -1.933 -0.752 -5.03 0.823 -6.264 1.372 -1.078 3.959 -1.07 6.01 0.021 l 0.74 0.393 0 -2.798 -0.615 -0.288 c -1.01 -0.433 -2.419 -0.683 -3.763 -0.715 z"
       style="fill:#ececec;fill-opacity:1"
       id="path40" />
  </g>
</svg>
