<?xml version="1.0" encoding="UTF-8" standalone="no"?>
<svg
   xmlns:dc="http://purl.org/dc/elements/1.1/"
   xmlns:cc="http://creativecommons.org/ns#"
   xmlns:rdf="http://www.w3.org/1999/02/22-rdf-syntax-ns#"
   xmlns:svg="http://www.w3.org/2000/svg"
   xmlns="http://www.w3.org/2000/svg"
   xmlns:xlink="http://www.w3.org/1999/xlink"
   xmlns:sodipodi="http://sodipodi.sourceforge.net/DTD/sodipodi-0.dtd"
   xmlns:inkscape="http://www.inkscape.org/namespaces/inkscape"
   viewBox="0 0 48 48"
   id="svg2"
   version="1.1"
   inkscape:version="0.91 r13725"
   sodipodi:docname="crusader-kings.svg">
  <metadata
     id="metadata49">
    <rdf:RDF>
      <cc:Work
         rdf:about="">
        <dc:format>image/svg+xml</dc:format>
        <dc:type
           rdf:resource="http://purl.org/dc/dcmitype/StillImage" />
      </cc:Work>
    </rdf:RDF>
  </metadata>
  <sodipodi:namedview
     pagecolor="#ffffff"
     bordercolor="#666666"
     borderopacity="1"
     objecttolerance="10"
     gridtolerance="10"
     guidetolerance="10"
     inkscape:pageopacity="0"
     inkscape:pageshadow="2"
     inkscape:window-width="1366"
     inkscape:window-height="705"
     id="namedview47"
     showgrid="false"
     inkscape:zoom="4.9166667"
     inkscape:cx="24"
     inkscape:cy="24"
     inkscape:window-x="0"
     inkscape:window-y="28"
     inkscape:window-maximized="1"
     inkscape:current-layer="svg2" />
  <defs
     id="defs4">
    <linearGradient
       id="linearGradient4260"
       x1="1"
       x2="47"
       gradientUnits="userSpaceOnUse">
      <stop
         style="stop-color:#346181;stop-opacity:1"
         id="stop7" />
      <stop
         offset="1"
         style="stop-color:#396b8f;stop-opacity:1"
         id="stop9" />
    </linearGradient>
    <linearGradient
       inkscape:collect="always"
       xlink:href="#linearGradient3418"
       id="linearGradient3279"
       gradientUnits="userSpaceOnUse"
       gradientTransform="matrix(0.83333307,0,0,0.83333307,-317.03371,412.80361)"
       x1="379.57144"
       y1="-527.79797"
       x2="431.57144"
       y2="-527.79797" />
    <linearGradient
       id="linearGradient3418">
      <stop
         style="stop-color:#3949ab;stop-opacity:1"
         offset="0"
         id="stop3420" />
      <stop
         style="stop-color:#7986cb;stop-opacity:1"
         offset="1"
         id="stop3422" />
    </linearGradient>
  </defs>
  <g
     transform="translate(0.55761199,0.30529681)"
     id="g3239">
    <rect
       style="fill:url(#linearGradient3279);fill-opacity:1;stroke:none"
       id="rect3241"
       width="39.999989"
       height="39.999989"
       x="3.4424012"
       y="-43.694542"
       ry="0"
       transform="scale(1,-1)" />
    <path
       style="opacity:0.35;fill:#000000;fill-opacity:1;stroke:none"
       d="m 3.4423873,43.694552 40.0000007,3.01e-4 c -20,-0.999999 -20,-0.999999 -40.0000017,0 z"
       id="path3243"
       inkscape:connector-curvature="0"
       sodipodi:nodetypes="cccc" />
    <path
       sodipodi:nodetypes="cccc"
       inkscape:connector-curvature="0"
       id="path3245"
       d="M 3.4423913,3.6947551 43.442388,3.6945549 c -19.999996,1.0000006 -19.999996,1.0000006 -39.9999977,0 z"
       style="opacity:0.5;fill:#ffffff;fill-opacity:1;stroke:none" />
  </g>
  <g
     transform="translate(0,1)"
     id="g23">
    <g
       id="g25">
      <g
         transform="translate(1,1)"
         id="g27">
        <g
           style="opacity:0.1"
           id="g29">
          <!-- color: #455b68 -->
          <g
             id="g31">
            <path
               d="M 24,11 C 20,12.172 16,13.348 12,14.523 12.293,23.246 14.531,33.886 24,37 33.57,33.98 35.594,23.152 36,14.523 32,13.347 28,12.171 24,11 m 0,0"
               style="fill:#000;fill-opacity:1;stroke:none;fill-rule:evenodd"
               id="path33" />
          </g>
        </g>
      </g>
    </g>
  </g>
  <path
     d="m 24 14 c -3.385 0.992 -6.769 1.987 -10.154 2.981 0.248 7.381 2.142 16.384 10.154 19.02 8.098 -2.555 9.81 -11.718 10.154 -19.02 -3.385 -0.995 -6.769 -1.99 -10.154 -2.981 m 0 0"
     style="fill:#e6e6e6;fill-opacity:1;stroke:none;fill-rule:evenodd"
     id="path39" />
  <path
     d="m 24 13 c -3.692 1.082 -7.385 2.167 -11.08 3.252 0.27 8.05 2.336 17.874 11.08 20.748 8.834 -2.788 10.702 -12.783 11.08 -20.748 -3.692 -1.086 -7.385 -2.171 -11.08 -3.252 m 0 0"
     style="fill:#e6e6e6;fill-opacity:1;stroke:none;fill-rule:evenodd"
     id="path41" />
  <path
     d="m 24 13 l -3 1 l 2 3 l 0 4 l -6 0 l -4 -2 l 0 3 l 1 3 l 3 -2 l 6 0 l 0 10 l -2 3 l 3 1 l 3 -1 l -2 -3 l 0 -10 l 6 0 l 3 2 l 1 -3 l 0 -3 l -4 2 l -6 0 l 0 -4 l 2 -3 l -3 -1 z"
     style="fill:#e04a4a;opacity:1;fill-opacity:1;stroke:none;fill-rule:nonzero"
     id="path43" />
  <path
     d="m 24 12 c -4 1.172 -8 2.348 -12 3.523 c 0.293 8.723 2.531 19.363 12 22.477 c 9.57 -3.02 11.594 -13.848 12 -22.477 c -4 -1.176 -8 -2.352 -12 -3.523 z m 0 2 c 3.385 0.991 6.77 1.985 10.154 2.98 c -0.344 7.301 -2.057 16.464 -10.154 19.02 c -8.01 -2.635 -9.906 -11.639 -10.154 -19.02 c 3.385 -0.994 6.77 -1.989 10.154 -2.98 z"
     style="fill:#d3b06b;fill-opacity:1;stroke:none;fill-rule:evenodd"
     id="path45" />
</svg>
