<?xml version="1.0" encoding="UTF-8" standalone="no"?>
<svg
   xmlns:dc="http://purl.org/dc/elements/1.1/"
   xmlns:cc="http://creativecommons.org/ns#"
   xmlns:rdf="http://www.w3.org/1999/02/22-rdf-syntax-ns#"
   xmlns:svg="http://www.w3.org/2000/svg"
   xmlns="http://www.w3.org/2000/svg"
   xmlns:xlink="http://www.w3.org/1999/xlink"
   xmlns:sodipodi="http://sodipodi.sourceforge.net/DTD/sodipodi-0.dtd"
   xmlns:inkscape="http://www.inkscape.org/namespaces/inkscape"
   viewBox="0 0 48 48"
   id="svg2"
   version="1.1"
   inkscape:version="0.91 r13725"
   sodipodi:docname="cryptocat.svg">
  <metadata
     id="metadata43">
    <rdf:RDF>
      <cc:Work
         rdf:about="">
        <dc:format>image/svg+xml</dc:format>
        <dc:type
           rdf:resource="http://purl.org/dc/dcmitype/StillImage" />
      </cc:Work>
    </rdf:RDF>
  </metadata>
  <sodipodi:namedview
     pagecolor="#ffffff"
     bordercolor="#666666"
     borderopacity="1"
     objecttolerance="10"
     gridtolerance="10"
     guidetolerance="10"
     inkscape:pageopacity="0"
     inkscape:pageshadow="2"
     inkscape:window-width="1366"
     inkscape:window-height="705"
     id="namedview41"
     showgrid="false"
     inkscape:zoom="4.9166667"
     inkscape:cx="24"
     inkscape:cy="24"
     inkscape:window-x="0"
     inkscape:window-y="28"
     inkscape:window-maximized="1"
     inkscape:current-layer="svg2" />
  <defs
     id="defs4">
    <linearGradient
       id="linearGradient3764"
       x1="1"
       x2="47"
       gradientUnits="userSpaceOnUse"
       gradientTransform="matrix(0,-1,1,0,-1.5e-6,47.999998)">
      <stop
         style="stop-color:#2883c4;stop-opacity:1"
         id="stop7" />
      <stop
         offset="1"
         style="stop-color:#2c8ed4;stop-opacity:1"
         id="stop9" />
    </linearGradient>
    <linearGradient
       inkscape:collect="always"
       xlink:href="#linearGradient3412"
       id="linearGradient3237"
       gradientUnits="userSpaceOnUse"
       gradientTransform="matrix(0.83333307,0,0,0.83333307,-317.03371,412.80361)"
       x1="379.57144"
       y1="-527.79797"
       x2="431.57144"
       y2="-527.79797" />
    <linearGradient
       id="linearGradient3412">
      <stop
         style="stop-color:#1976d2;stop-opacity:1"
         offset="0"
         id="stop3414" />
      <stop
         style="stop-color:#42a5f5;stop-opacity:1"
         offset="1"
         id="stop3416" />
    </linearGradient>
  </defs>
  <g
     id="g3229"
     transform="translate(0.55761199,0.30529681)">
    <rect
       transform="scale(1,-1)"
       ry="0"
       y="-43.694542"
       x="3.4424012"
       height="39.999989"
       width="39.999989"
       id="rect3231"
       style="fill:url(#linearGradient3237);fill-opacity:1;stroke:none" />
    <path
       sodipodi:nodetypes="cccc"
       inkscape:connector-curvature="0"
       id="path3233"
       d="m 3.4423873,43.694552 40.0000007,3.01e-4 c -20,-0.999999 -20,-0.999999 -40.0000017,0 z"
       style="opacity:0.35;fill:#000000;fill-opacity:1;stroke:none" />
    <path
       style="opacity:0.5;fill:#ffffff;fill-opacity:1;stroke:none"
       d="M 3.4423913,3.6947551 43.442388,3.6945549 c -19.999996,1.0000006 -19.999996,1.0000006 -39.9999977,0 z"
       id="path3235"
       inkscape:connector-curvature="0"
       sodipodi:nodetypes="cccc" />
  </g>
  <path
     d="m 14 11 0 6 2 0 0 2 -2 0 0 2 -2 0 0 2 2 0 0 2 2 0 0 2 2 0 0 2 2 0 0 2 -2 0 0 4 -2 0 0 2 c 6.667 0 13.333 0 20 0 0 -3.333 0 -6.667 0 -10 l -2 0 0 -2 2 0 c 0 -4.667 0 -9.333 0 -14 l -4 0 0 2 -14 0 0 -2 z m 0 14 -2 0 0 2 2 0 z m 0 -6 0 -2 -2 0 0 2 z"
     style="fill:#000;opacity:0.1;fill-opacity:1;stroke:none"
     id="path27" />
  <path
     d="m 15 12 0 14 4 0 c 0.394 1.446 0.463 2.799 0 4 -0.836 2.501 -0.345 4.207 0 6 l 16 0 0 -10 -2 0 0 -2 2 -6 0 -2 -2 -4 -2 0 c -4 1 -10 1 -14 0 z"
     style="fill:#f55b4b;opacity:1;fill-opacity:1;stroke:none"
     id="path29" />
  <path
     d="m 15 12 0 5 1 0 0 -4 2 0 0 -0.793 c -0.338 -0.066 -0.685 -0.128 -1 -0.207 m 1 1 0 2 0 2 -2 0 0 2 -1 0 0 6 1 0 0 -2 2 0 0 2 4 0 0 -2 2 0 0 -4 -2 0 0 -2 -2 0 0 -2 2 0 0 2 2 0 0 -2 2 0 0 2 2 0 0 -2 2 0 0 2 -2 0 0 2 -2 0 0 4 2 0 0 2 4 0 0 -2 1.334 0 l 0.666 -4 l 0 -2 -2 0 c 0 -1.333 0 -2.667 0 -4 z m 13 0 2.5 0 -0.5 -1 -2 0 z m 3 4 1 0 0 -2 -1 -1 z m -2 8 0 2 2 0 0 -1 -1 0 0 -1 z m 0 2 -6 0 0 -2 -2 0 0 2 -4.783 0 l -0.217 3 l 0 6 1 0 0 -5 2 0 0 -2 10 0 z m -14 -2 -2 0 0 1 2 0 z m 16 6 0 2 -2 0 0 3 2 0 0 -1 1 0 0 -4 z m -10 2 0 3 2 0 0 -3 z"
     style="fill:#000;opacity:0.1;fill-opacity:1;stroke:none"
     id="path31" />
  <path
     d="m 16 17 1 5 4 0 0 -4 z m 11 1 0 4 4 0 1 -5 z"
     style="fill:#546585;opacity:1;fill-opacity:1;stroke:none"
     id="path33" />
  <path
     d="m 13 10 c 0 2 0 4 0 6 l 2 0 0 -4 2 0 0 -2 z m 4 2 0 2 14 0 0 -2 z m 14 0 2 0 0 4 2 0 0 -6 -4 0 z m 2 4 -6 0 0 2 4 0 0 4 2 0 0 2 2 0 0 -6 -2 0 z m 0 8 -2 0 0 2 2 0 z m -2 2 -6 0 0 -2 -2 0 0 2 -6 0 0 2 2 0 0 2 2 0 0 -2 10 0 z m -12 4 -2 0 0 4 -2 0 0 2 4 0 z m -2 -4 0 -2 -2 0 0 2 z m -2 -2 0 -2 2 0 0 -4 4 0 0 -2 -6 0 0 2 -2 0 0 2 -2 0 0 2 2 0 0 2 z m -2 0 -2 0 0 2 2 0 z m 0 -6 0 -2 -2 0 0 2 z m 8 0 0 4 2 0 0 -4 z m 0 4 -4 0 0 2 4 0 z m 10 2 0 -2 -4 0 0 2 z m -4 -2 0 -4 -2 0 0 4 z m 6 8 0 2 -2 0 0 4 2 0 0 -2 2 0 0 -4 z m -10 2 0 4 2 0 0 -4 z"
     style="fill:#383f4d;opacity:1;fill-opacity:1;stroke:none"
     id="path35" />
  <path
     d="m 17 18 0 2 2 0 0 -2 -2 0 z m 10 0 0 2 2 0 0 -2 -2 0 z"
     style="fill:#f9f9f9;opacity:1;fill-opacity:1;stroke:none"
     id="path37" />
  <path
     d="m 17 14 0 2 2 0 0 -2 -2 0 z m 4 0 0 2 2 0 0 -2 -2 0 z m 4 0 0 2 2 0 0 -2 -2 0 z m 4 0 0 2 2 0 0 -2 -2 0 z"
     style="fill:#98357c;opacity:1;fill-opacity:1;stroke:none"
     id="path39" />
</svg>
