<?xml version="1.0" encoding="UTF-8" standalone="no"?>
<svg
   xmlns:dc="http://purl.org/dc/elements/1.1/"
   xmlns:cc="http://creativecommons.org/ns#"
   xmlns:rdf="http://www.w3.org/1999/02/22-rdf-syntax-ns#"
   xmlns:svg="http://www.w3.org/2000/svg"
   xmlns="http://www.w3.org/2000/svg"
   xmlns:xlink="http://www.w3.org/1999/xlink"
   xmlns:sodipodi="http://sodipodi.sourceforge.net/DTD/sodipodi-0.dtd"
   xmlns:inkscape="http://www.inkscape.org/namespaces/inkscape"
   viewBox="0 0 48 48"
   id="svg2"
   version="1.1"
   inkscape:version="0.91 r13725"
   sodipodi:docname="cryptote.svg">
  <metadata
     id="metadata73">
    <rdf:RDF>
      <cc:Work
         rdf:about="">
        <dc:format>image/svg+xml</dc:format>
        <dc:type
           rdf:resource="http://purl.org/dc/dcmitype/StillImage" />
      </cc:Work>
    </rdf:RDF>
  </metadata>
  <sodipodi:namedview
     pagecolor="#ffffff"
     bordercolor="#666666"
     borderopacity="1"
     objecttolerance="10"
     gridtolerance="10"
     guidetolerance="10"
     inkscape:pageopacity="0"
     inkscape:pageshadow="2"
     inkscape:window-width="1366"
     inkscape:window-height="705"
     id="namedview71"
     showgrid="false"
     inkscape:zoom="4.9166667"
     inkscape:cx="24"
     inkscape:cy="24"
     inkscape:window-x="0"
     inkscape:window-y="28"
     inkscape:window-maximized="1"
     inkscape:current-layer="svg2" />
  <defs
     id="defs4">
    <linearGradient
       id="linearGradient3764"
       x2="47"
       gradientUnits="userSpaceOnUse"
       x1="1"
       gradientTransform="matrix(0 -1 1 0 -.0000015 48)">
      <stop
         style="stop-color:#a0beff"
         id="stop7" />
      <stop
         offset="1"
         style="stop-color:#b5ccff"
         id="stop9" />
    </linearGradient>
    <linearGradient
       inkscape:collect="always"
       xlink:href="#linearGradient3400"
       id="linearGradient3217"
       gradientUnits="userSpaceOnUse"
       gradientTransform="matrix(0.83333307,0,0,0.83333307,-317.03371,412.80361)"
       x1="379.57144"
       y1="-527.79797"
       x2="431.57144"
       y2="-527.79797" />
    <linearGradient
       id="linearGradient3400">
      <stop
         style="stop-color:#0097a7;stop-opacity:1"
         offset="0"
         id="stop3402" />
      <stop
         style="stop-color:#26c6da;stop-opacity:1"
         offset="1"
         id="stop3404" />
    </linearGradient>
  </defs>
  <g
     id="g3209"
     transform="translate(0.55761199,0.30529681)">
    <rect
       transform="scale(1,-1)"
       ry="0"
       y="-43.694542"
       x="3.4424012"
       height="39.999989"
       width="39.999989"
       id="rect3211"
       style="fill:url(#linearGradient3217);fill-opacity:1;stroke:none" />
    <path
       sodipodi:nodetypes="cccc"
       inkscape:connector-curvature="0"
       id="path3213"
       d="m 3.4423873,43.694552 40.0000007,3.01e-4 c -20,-0.999999 -20,-0.999999 -40.0000017,0 z"
       style="opacity:0.35;fill:#000000;fill-opacity:1;stroke:none" />
    <path
       style="opacity:0.5;fill:#ffffff;fill-opacity:1;stroke:none"
       d="M 3.4423913,3.6947551 43.442388,3.6945549 c -19.999996,1.0000006 -19.999996,1.0000006 -39.9999977,0 z"
       id="path3215"
       inkscape:connector-curvature="0"
       sodipodi:nodetypes="cccc" />
  </g>
  <g
     transform="translate(2,1)"
     id="g27">
    <path
       d="m 16 10 c -2.675 0 -3.744 1.566 -3.957 4 l -0.6 0 c -0.244 0 -0.443 0.199 -0.443 0.443 l 0 8.113 c 0 0.244 0.199 0.443 0.443 0.443 l 2.557 0 0 13 c 0 0 0 1 1 1 l 18 0 c 0 0 0.996 0 0.996 -1 l 0 -3 1.441 0 c 0 0 0.564 -0.328 0.564 -2 0 -1.609 -0.625 -1.996 -0.625 -1.996 l -1.381 0 0 -8 -8 -8 c -2.067 -0.002 -3.946 -0.002 -6.123 -0.002 c -0.297 -1.855 -1.226 -3 -3.873 -3 m 0 1 c 1.727 0 2.488 0.736 2.801 2 c -1.273 0 -3.02 -0.002 -3.801 -0.002 c 0 0 -1 0 -1 1 l -0.959 0 c 0.153 -1.833 0.828 -3 2.959 -3"
       style="fill:#000;opacity:0.1"
       id="path29" />
    <path
       d="m 14,12 c 0,0 -1,0 -1,1 l 0,22 c 0,0 0,1 1,1 l 18,0 c 0,0 0.996,0 0.996,-1 l 0,-14.996 -8,-8 C 21.284,12 16.254,12 14,12 m 0,0.004"
       style="fill:#f9f9f9"
       id="path31" />
    <path
       d="m 18 21 0 1 10 0 0 -1 m -10 0"
       style="fill:#aaa"
       id="path33" />
    <path
       d="m 18 23 0 1 10 0 0 -1 m -10 0"
       style="fill:#aaa"
       id="path35" />
    <path
       d="m 18 25 0 1 10 0 0 -1 m -10 0"
       style="fill:#aaa"
       id="path37" />
    <path
       d="m 33 20 -8 -8 c -0.004 4 0 6 0 7 0 1 0 1 1 1 1 0 4.098 0.008 7 0"
       style="fill:#dedede"
       id="path39" />
  </g>
  <g
     transform="translate(2,1)"
     id="g41">
    <path
       d="m 18.964 28 13.773 0 0 4 -13.773 0 m 0 -4"
       style="fill:#dd8a4c"
       id="path43" />
    <path
       d="m 32,28 0,4 2.438,0 c 0,0 0.563,-0.328 0.563,-2 0,-1.609 -0.625,-1.996 -0.625,-1.996 l -2.371,0 M 32,28"
       style="fill:#e22852"
       id="path45" />
    <path
       d="m 19,28 -4,1.996 4,2 0,-4 M 19,28"
       style="fill:#e5c789"
       id="path47" />
    <path
       d="M 17,28.984 15,30 l 2,1.02 m 0,-2.035"
       style="fill:#2d2d2d"
       id="path49" />
  </g>
  <g
     transform="matrix(0.49998,0,0,0.49998,5.00028,5.5004)"
     id="g51">
    <g
       id="g53">
      <g
         id="g55">
        <!-- color: #ce5952 -->
        <g
           id="g57">
          <path
             d="m 14.887,17 18.227,0 c 0.488,0 0.887,0.398 0.887,0.887 l 0,16.227 c 0,0.488 -0.398,0.887 -0.887,0.887 l -18.227,0 C 14.399,35.001 14,34.603 14,34.114 L 14,17.887 C 14,17.399 14.398,17 14.887,17"
             style="fill:#eec84a"
             id="path59" />
          <path
             d="m 14.887 17 18.227 0 c 0.488 0 0.887 0.511 0.887 1 l 0 2 c 0 0.488 -0.398 1 -0.887 1 l -18.227 0 c -0.488 0 -0.887 -0.511 -0.887 -1 l 0 -2 c 0 -0.488 0.398 -1 0.887 -1"
             style="fill:#d4b142"
             id="path61" />
          <path
             d="m 17 17 c -0.552 0 -1 0.448 -1 1 c 0 0.319 0.159 0.59 0.391 0.773 l -0.891 2.227 l 3 0 l -0.891 -2.227 c 0.232 -0.183 0.391 -0.455 0.391 -0.773 c 0 -0.552 -0.448 -1 -1 -1 z"
             transform="matrix(2.00008,0,0,2.00008,-10.00096,-11.00124)"
             style="fill:#705d22"
             id="path63" />
          <path
             d="m 19 19 c 0 0.554 -0.896 1 -2 1 -1.104 0 -2 -0.446 -2 -1 0 -0.554 0.896 -1 2 -1 1.104 0 2 0.446 2 1"
             style="fill:#4a4a4a"
             id="path65" />
          <path
             d="m 33 19 c 0 0.554 -0.896 1 -2 1 -1.104 0 -2 -0.446 -2 -1 0 -0.554 0.896 -1 2 -1 1.104 0 2 0.446 2 1"
             style="fill:#4a4a4a"
             id="path67" />
          <path
             d="m 16 19 c 0 -6 1.948 -10 8 -10 7 0 8 4 8 10 l -2 0 c 0 -4.972 -0.999 -8 -6 -8 -4.999 0 -6 3.191 -6 8"
             style="fill:#e4e4e4"
             id="path69" />
        </g>
      </g>
    </g>
  </g>
</svg>
