<?xml version="1.0" encoding="UTF-8" standalone="no"?>
<!-- Created with Inkscape (http://www.inkscape.org/) -->

<svg
   xmlns:dc="http://purl.org/dc/elements/1.1/"
   xmlns:cc="http://creativecommons.org/ns#"
   xmlns:rdf="http://www.w3.org/1999/02/22-rdf-syntax-ns#"
   xmlns:svg="http://www.w3.org/2000/svg"
   xmlns="http://www.w3.org/2000/svg"
   xmlns:xlink="http://www.w3.org/1999/xlink"
   xmlns:sodipodi="http://sodipodi.sourceforge.net/DTD/sodipodi-0.dtd"
   xmlns:inkscape="http://www.inkscape.org/namespaces/inkscape"
   width="48"
   height="48"
   id="svg2"
   version="1.1"
   inkscape:version="0.48.5 r10040"
   sodipodi:docname="cs-source.svg">
  <defs
     id="defs4">
    <linearGradient
       id="linearGradient4219"
       inkscape:collect="always">
      <stop
         id="stop4221"
         offset="0"
         style="stop-color:#c2d9f6;stop-opacity:1" />
      <stop
         id="stop4223"
         offset="1"
         style="stop-color:#f5fbff;stop-opacity:1" />
    </linearGradient>
    <linearGradient
       inkscape:collect="always"
       xlink:href="#linearGradient5277"
       id="linearGradient835"
       x1="-31.112698"
       y1="-1050.9148"
       x2="-31.112698"
       y2="-1002.9058"
       gradientUnits="userSpaceOnUse"
       gradientTransform="translate(55.996581,-1.455814)" />
    <linearGradient
       gradientTransform="matrix(1.0058652,0,0,0.994169,119.23086,972.70405)"
       gradientUnits="userSpaceOnUse"
       id="ButtonShadow"
       y2="7.0165396"
       x2="45.447727"
       y1="92.539597"
       x1="45.447727">
      <stop
         offset="0"
         style="stop-color:#000000;stop-opacity:1"
         id="stop3750" />
      <stop
         offset="1"
         style="stop-color:#000000;stop-opacity:0.58823532"
         id="stop3752" />
    </linearGradient>
    <filter
       id="filter3174"
       color-interpolation-filters="sRGB">
      <feGaussianBlur
         stdDeviation="1.71"
         id="feGaussianBlur3176" />
    </filter>
    <linearGradient
       inkscape:collect="always"
       id="linearGradient5277">
      <stop
         style="stop-color:#144786;stop-opacity:1"
         offset="0"
         id="stop5279" />
      <stop
         style="stop-color:#068edc;stop-opacity:1"
         offset="1"
         id="stop5281" />
    </linearGradient>
    <linearGradient
       inkscape:collect="always"
       xlink:href="#linearGradient4219"
       id="linearGradient4217"
       x1="32.899597"
       y1="1043.7552"
       x2="32.899597"
       y2="1012.9162"
       gradientUnits="userSpaceOnUse"
       gradientTransform="matrix(1.2015085,0,0,1.2015085,-4.8362042,-207.26404)" />
    <linearGradient
       inkscape:collect="always"
       xlink:href="#linearGradient5277"
       id="linearGradient3783"
       x1="6"
       y1="24.40625"
       x2="34.8125"
       y2="24.40625"
       gradientUnits="userSpaceOnUse" />
  </defs>
  <sodipodi:namedview
     id="base"
     pagecolor="#ffffff"
     bordercolor="#666666"
     borderopacity="1.0"
     inkscape:pageopacity="0.0"
     inkscape:pageshadow="2"
     inkscape:zoom="5.6568542"
     inkscape:cx="16.00179"
     inkscape:cy="19.996543"
     inkscape:document-units="px"
     inkscape:current-layer="layer1"
     showgrid="true"
     inkscape:window-width="1301"
     inkscape:window-height="744"
     inkscape:window-x="65"
     inkscape:window-y="24"
     inkscape:window-maximized="1">
    <inkscape:grid
       type="xygrid"
       id="grid3850" />
  </sodipodi:namedview>
  <metadata
     id="metadata7">
    <rdf:RDF>
      <cc:Work
         rdf:about="">
        <dc:format>image/svg+xml</dc:format>
        <dc:type
           rdf:resource="http://purl.org/dc/dcmitype/StillImage" />
        <dc:title />
      </cc:Work>
    </rdf:RDF>
  </metadata>
  <g
     inkscape:label="Capa 1"
     inkscape:groupmode="layer"
     id="layer1"
     transform="translate(0,-1004.3622)">
    <path
       sodipodi:type="arc"
       style="fill:url(#linearGradient3783);fill-opacity:1;stroke:none"
       id="path3007"
       sodipodi:cx="20.40625"
       sodipodi:cy="24.40625"
       sodipodi:rx="14.40625"
       sodipodi:ry="14.40625"
       d="m 34.8125,24.40625 a 14.40625,14.40625 0 1 1 -28.8125,0 14.40625,14.40625 0 1 1 28.8125,0 z"
       transform="matrix(1.2015085,0,0,1.2015085,-4.8362042,999.4857)" />
    <path
       id="path4225"
       d="m 37.055088,1010.3024 c -1.97879,0 -4.094086,0.1368 -5.919371,0.1368 -4.073534,0 -8.069229,-0.1443 -11.60446,0.1142 -5.461911,0.3984 -9.515476,2.7535 -12.3150981,5.7282 -2.8598474,3.0397 -5.0837868,7.3426 -5.0837868,12.6221 0,5.5038 2.1593379,9.6164 5.0837868,12.6217 2.7821278,2.8596 6.9040561,5.3859 12.0808221,5.7289 9.547822,0.6319 15.901525,-4.6421 18.703019,-11.3341 1.819085,-4.3453 4.017918,-9.5688 5.919401,-14.1402 0.574513,-1.3814 1.70792,-3.1402 1.897579,-4.7964 0.377862,-3.2987 -1.409238,-5.1965 -3.670297,-6.0754 -1.269237,-0.4929 -3.112815,-0.6152 -5.091595,-0.6087 z m -16.086939,3.6546 c 4.559139,0.018 7.854027,1.7976 10.167568,3.8474 2.903336,2.572 5.589386,7.8152 4.615234,13.5622 -0.795337,4.6918 -3.460381,8.4165 -7.809192,10.7481 -4.732301,2.5376 -10.681895,2.162 -14.92337,-0.3468 -4.0931588,-2.4217 -7.9455471,-7.1142 -7.3406404,-14.4955 0.3216318,-3.9246 2.0497386,-6.649 4.2638184,-8.882 2.063011,-2.0809 4.961264,-3.8997 8.996193,-4.3257 0.704044,-0.071 1.379082,-0.1094 2.030389,-0.1082 z m -0.77311,3.747 c -0.307637,0.018 -0.652532,0.089 -1.023008,0.2313 -0.962919,0.3524 -0.714137,1.6305 -0.632542,2.4983 -0.0545,0.083 -0.160489,0.051 -0.242083,0.051 -1.044524,0.052 -1.513602,1.1367 -1.733641,2.0048 0.05451,0.7871 -0.05717,1.6546 -0.195232,2.4135 -0.138042,0.7595 -0.409857,1.3569 -0.437314,2.0893 -0.05451,0.6512 0.19509,1.4154 0.140566,2.0122 -0.577753,1.6824 -0.995075,2.7899 -1.296328,4.5804 -0.219654,0.4066 -0.984943,1.2748 -1.288515,1.465 -0.08159,0.1338 0.05025,0.4352 -0.08592,0.624 -0.247107,0.3523 -0.631545,0.5456 -0.8512,0.9252 0.05451,0.083 -0.326139,0.1568 -0.296748,0.293 0.02708,0.1342 0.215154,0.4892 0.296748,0.5705 0.02708,0.056 0.304556,-0.083 0.304556,0 0.11102,0.3253 0.358367,1.0017 0.632545,1.1648 1.210036,0.1338 1.208571,0.1338 1.702408,0 0.274179,-0.787 -0.928635,-0.4303 -0.819967,-1.4885 1.649729,-0.3245 2.167579,-0.7894 2.826929,-2.4979 0.301251,-1.2479 0.711283,-2.4687 1.343182,-3.6624 0.108677,-0.083 0.08073,-0.296 0.273321,-0.378 0.740946,1.2203 2.09142,2.0872 2.748835,3.3621 0.165505,1.6542 0.494428,2.5541 1.06986,2.8524 0.138042,0.051 -0.0018,0.5704 0.109326,0.6784 0,0.1634 0.05816,0.3496 -0.02341,0.5398 -0.05646,0.1353 -0.0234,0.2964 -0.0234,0.4321 l 0,0.1611 c 0.02708,0.2455 0.08088,0.2507 0.327987,0.4393 0.713875,0.461 1.6711,1.1907 2.631696,0.6482 0.439698,-0.706 -0.488601,-1.5978 -1.147949,-2.059 -0.219655,-0.1628 -0.608593,-0.5688 -0.554454,-0.8402 0.3581,-0.3527 0.606609,-1.8982 0.468552,-3.0919 -0.05451,-0.2708 -0.107643,-0.5465 -0.218659,-0.7633 -0.328706,-0.6235 -1.07051,-1.489 -1.702403,-2.1125 0.0816,-0.083 0.191862,-0.1924 0.327987,-0.2469 0,-0.5964 -0.249558,-0.7846 -0.577882,-1.2181 -0.276501,-0.4345 -0.905333,-1.2785 -1.374416,-1.5499 0,0 -0.0018,-0.023 -0.468553,-0.023 -0.02708,-0.2984 0.05899,-0.5461 0.140579,-0.8715 0,-0.2437 0.195365,-0.1058 0.249891,-0.6475 0.138044,-0.4611 0.07646,-0.1946 0.187423,-0.6556 0.108677,-0.2167 0.1718,-0.4335 0.1718,-0.7861 0.410308,0.1354 1.234982,0.1081 1.593076,0 l 0.07809,0.05 c 0.111019,0.025 0.137065,-0.1338 0.218656,-0.1614 0.63228,-0.3263 0.853126,-0.8943 1.374419,-0.9485 0,0 0.277295,-0.1353 0.687209,0 0.165521,0 0.304559,0.035 0.304559,-0.1312 0.02708,-0.2439 0.02557,-0.438 0.163991,-0.6014 0.108676,0.6511 0.410237,1.3842 0.96053,2.0895 l 0.546637,-0.3778 c -0.521294,-0.6236 -0.849021,-1.3295 -0.905866,-2.1434 0.02708,0.051 0.05482,0.1082 0.109337,0.1615 0.192582,0 0.303173,-0.4048 0.523215,-0.3779 0.02708,-0.05 0.08641,-0.3036 0.140565,-0.4934 l 2.053821,0 0.741871,-0.1613 0,-0.3778 -0.546643,-0.055 0,-0.432 -0.140566,0 0,-0.4932 -0.327985,0 0,0.4625 -0.851203,-0.055 0,-0.3005 -0.327986,0 0,0.2776 -0.874631,-0.085 0,-0.4088 -0.335794,0 0,0.3857 -1.288519,-0.085 0,-0.1312 -0.96053,0 0,-0.2469 -0.523215,0 0,0.1312 c -0.05646,0.025 -0.109493,0.083 -0.163989,0.1081 l -0.05467,0 c -0.908786,-0.7053 -0.964446,0.7341 -1.569655,0.4084 -0.05451,-0.2982 -0.02341,-0.5648 -0.02341,-0.9171 1.044517,-0.025 0.660476,-0.3031 0.359221,-0.6554 -0.108677,-0.1354 -0.168162,-0.3503 -0.195228,-0.4859 -0.185335,-0.6713 -0.80292,-1.1483 -1.725833,-1.1024 z m 1.850777,4.179 c 0.130838,10e-5 0.203041,0.046 0.203041,0.046 0.329096,-0.058 0.632536,0.025 1.155761,0 -0.08394,0.895 -0.738632,0.514 -1.452511,1.0022 -0.192583,-0.025 -0.416803,-0.028 -0.718445,-0.028 -0.05451,-0.5967 0.164646,-0.7011 0.273323,-0.8094 0.219843,-0.1632 0.407978,-0.2083 0.538831,-0.2083 z"
       style="fill:#000000;fill-opacity:0.23529412"
       inkscape:connector-curvature="0" />
    <rect
       style="opacity:0.9;fill:url(#ButtonShadow);fill-opacity:1;fill-rule:nonzero;stroke:none;display:none;filter:url(#filter3174)"
       id="rect3745"
       y="979.70404"
       x="124.23086"
       ry="6"
       rx="6"
       height="85"
       width="86" />
    <path
       inkscape:connector-curvature="0"
       style="fill:url(#linearGradient4217);fill-opacity:1"
       d="m 37.055088,1009.8218 c -1.97879,0 -4.094086,0.1368 -5.919371,0.1368 -4.073534,0 -8.069229,-0.1443 -11.60446,0.1142 -5.461911,0.3984 -9.515476,2.7535 -12.3150981,5.7282 -2.8598474,3.0397 -5.0837868,7.3426 -5.0837868,12.6221 0,5.5038 2.1593379,9.6164 5.0837868,12.6217 2.7821278,2.8596 6.9040561,5.3859 12.0808221,5.7289 9.547822,0.6319 15.901525,-4.6421 18.703019,-11.3341 1.819085,-4.3453 4.017918,-9.5688 5.919401,-14.1402 0.574513,-1.3815 1.70792,-3.1402 1.897579,-4.7964 0.377862,-3.2987 -1.409238,-5.1965 -3.670297,-6.0754 -1.269237,-0.4929 -3.112815,-0.6152 -5.091595,-0.6087 z m -16.086939,3.6546 c 4.559139,0.018 7.854027,1.7976 10.167568,3.8474 2.903336,2.572 5.589386,7.8152 4.615234,13.5622 -0.795337,4.6918 -3.460381,8.4165 -7.809192,10.7481 -4.732301,2.5376 -10.681895,2.162 -14.92337,-0.3468 -4.0931588,-2.4217 -7.9455471,-7.1142 -7.3406404,-14.4955 0.3216318,-3.9246 2.0497386,-6.649 4.2638184,-8.8821 2.063011,-2.0808 4.961264,-3.8996 8.996193,-4.3256 0.704044,-0.071 1.379082,-0.1094 2.030389,-0.1082 z m -0.77311,3.747 c -0.307637,0.018 -0.652532,0.089 -1.023008,0.2313 -0.962919,0.3524 -0.714137,1.6305 -0.632542,2.4983 -0.0545,0.083 -0.160489,0.051 -0.242083,0.051 -1.044524,0.052 -1.513602,1.1367 -1.733641,2.0048 0.05451,0.7871 -0.05717,1.6546 -0.195232,2.4135 -0.138042,0.7595 -0.409857,1.3569 -0.437314,2.0893 -0.05451,0.6512 0.19509,1.4154 0.140566,2.0122 -0.577753,1.6824 -0.995075,2.7899 -1.296328,4.5804 -0.219654,0.4066 -0.984943,1.2748 -1.288515,1.465 -0.08159,0.1338 0.05025,0.4351 -0.08592,0.624 -0.247107,0.3523 -0.631545,0.5456 -0.8512,0.9252 0.05451,0.083 -0.326139,0.1568 -0.296748,0.293 0.02708,0.1342 0.215154,0.4892 0.296748,0.5705 0.02708,0.057 0.304556,-0.083 0.304556,0 0.11102,0.3253 0.358367,1.0017 0.632545,1.1648 1.210036,0.1338 1.208571,0.1338 1.702408,0 0.274179,-0.787 -0.928635,-0.4303 -0.819967,-1.4885 1.649729,-0.3245 2.167579,-0.7894 2.826929,-2.4979 0.301251,-1.2479 0.711283,-2.4688 1.343182,-3.6624 0.108677,-0.083 0.08073,-0.296 0.273321,-0.378 0.740946,1.2203 2.09142,2.0872 2.748835,3.3621 0.165505,1.6542 0.494428,2.5541 1.06986,2.8524 0.138042,0.05 -0.0018,0.5704 0.109326,0.6784 0,0.1634 0.05816,0.3496 -0.02341,0.5398 -0.05646,0.1353 -0.0234,0.2964 -0.0234,0.4321 l 0,0.1611 c 0.02708,0.2455 0.08088,0.2506 0.327987,0.4393 0.713875,0.461 1.6711,1.1907 2.631696,0.6482 0.439698,-0.706 -0.488601,-1.5978 -1.147949,-2.059 -0.219655,-0.1628 -0.608593,-0.5688 -0.554454,-0.8402 0.3581,-0.3527 0.606609,-1.8982 0.468552,-3.0919 -0.05451,-0.2708 -0.107643,-0.5465 -0.218659,-0.7633 -0.328706,-0.6235 -1.07051,-1.489 -1.702403,-2.1125 0.0816,-0.083 0.191862,-0.1924 0.327987,-0.2469 0,-0.5964 -0.249558,-0.7846 -0.577882,-1.2181 -0.276501,-0.4345 -0.905333,-1.2785 -1.374416,-1.5499 0,0 -0.0018,-0.023 -0.468553,-0.023 -0.02708,-0.2984 0.05899,-0.5461 0.140579,-0.8715 0,-0.2437 0.195365,-0.1058 0.249891,-0.6475 0.138044,-0.4611 0.07646,-0.1946 0.187423,-0.6556 0.108677,-0.2167 0.1718,-0.4335 0.1718,-0.7861 0.410308,0.1354 1.234982,0.1081 1.593076,0 l 0.07809,0.05 c 0.111019,0.025 0.137065,-0.1338 0.218656,-0.1614 0.63228,-0.3263 0.853126,-0.8943 1.374419,-0.9485 0,0 0.277295,-0.1353 0.687209,0 0.165521,0 0.304559,0.035 0.304559,-0.1312 0.02708,-0.2439 0.02557,-0.438 0.163991,-0.6014 0.108676,0.6511 0.410237,1.3842 0.96053,2.0894 l 0.546637,-0.3777 c -0.521294,-0.6236 -0.849021,-1.3295 -0.905866,-2.1434 0.02708,0.051 0.05482,0.1082 0.109337,0.1615 0.192582,0 0.303173,-0.4048 0.523215,-0.3779 0.02708,-0.05 0.08641,-0.3036 0.140565,-0.4934 l 2.053821,0 0.741871,-0.1613 0,-0.3778 -0.546643,-0.055 0,-0.432 -0.140566,0 0,-0.4932 -0.327985,0 0,0.4625 -0.851203,-0.055 0,-0.3005 -0.327986,0 0,0.2776 -0.874631,-0.085 0,-0.4088 -0.335794,0 0,0.3857 -1.288519,-0.085 0,-0.1312 -0.96053,0 0,-0.2469 -0.523215,0 0,0.1312 c -0.05646,0.025 -0.109493,0.083 -0.163989,0.1081 l -0.05467,0 c -0.908786,-0.7053 -0.964446,0.7341 -1.569655,0.4084 -0.05451,-0.2982 -0.02341,-0.5648 -0.02341,-0.9171 1.044517,-0.025 0.660476,-0.3032 0.359221,-0.6554 -0.108677,-0.1354 -0.168162,-0.3503 -0.195228,-0.4859 -0.185335,-0.6713 -0.80292,-1.1483 -1.725833,-1.1024 z m 1.850777,4.179 c 0.130838,1e-4 0.203041,0.046 0.203041,0.046 0.329096,-0.058 0.632536,0.025 1.155761,0 -0.08394,0.895 -0.738632,0.514 -1.452511,1.0021 -0.192583,-0.025 -0.416803,-0.028 -0.718445,-0.028 -0.05451,-0.5967 0.164646,-0.7011 0.273323,-0.8094 0.219843,-0.1632 0.407978,-0.2083 0.538831,-0.2083 z"
       id="path3967-8" />
    <path
       style="fill:#125192;fill-opacity:0.31372549"
       d="m 20.968068,1012.5146 c -0.651307,-0 -1.325848,0.037 -2.029892,0.1079 -4.034929,0.4261 -6.934223,2.2441 -8.9972337,4.325 -2.2140798,2.233 -3.9423153,4.9576 -4.2639471,8.8822 -0.055335,0.6752 -0.060623,1.3219 -0.044587,1.9525 0.00941,-0.3268 0.016889,-0.6524 0.044587,-0.9903 0.3216318,-3.9247 2.0498673,-6.6493 4.2639471,-8.8823 2.0630107,-2.0809 4.9623047,-3.8989 8.9972337,-4.325 0.704044,-0.071 1.378585,-0.1091 2.029892,-0.1079 4.559139,0.018 7.854695,1.7965 10.168235,3.8462 2.408637,2.1338 4.659987,6.109 4.803688,10.6822 0.170665,-4.9736 -2.227786,-9.36 -4.803688,-11.642 -2.31354,-2.0497 -5.609096,-3.8305 -10.168235,-3.8485 z m 24.863248,2.6118 c -0.0084,0.1408 0.0027,0.2691 -0.01408,0.4154 -0.189658,1.6562 -1.323963,3.4151 -1.898477,4.7966 -1.901483,4.5714 -4.099282,9.7935 -5.918368,14.1389 -2.801493,6.6919 -9.155347,11.9664 -18.703169,11.3345 -5.176766,-0.343 -9.2986652,-2.8687 -12.080793,-5.7283 -2.8329579,-2.9113 -4.9299168,-6.873 -5.0594772,-12.1206 -0.00389,0.1552 -0.023467,0.3029 -0.023467,0.4599 0,5.5039 2.1584954,9.6176 5.0829443,12.6229 2.7821278,2.8596 6.904027,5.3852 12.080793,5.7283 9.547822,0.6318 15.901676,-4.6426 18.703169,-11.3346 1.819086,-4.3453 4.016885,-9.5674 5.918368,-14.1388 0.574514,-1.3815 1.708819,-3.1405 1.898477,-4.7967 0.05647,-0.493 0.04868,-0.9458 0.01408,-1.3775 z m -27.348399,3.2901 c -0.02815,0.1947 -0.02593,0.4033 -0.01643,0.6125 0.02652,-0.01 0.05474,-0.01 0.07275,-0.038 -0.0166,-0.1765 -0.03749,-0.3756 -0.05632,-0.5749 z m 3.482498,0.056 c -0.07565,0.01 -0.107869,0.021 -0.208857,0.024 0,0.3523 -0.03104,0.6193 0.02347,0.9175 0.0444,0.024 0.08064,0.022 0.119681,0.028 0.07221,-0 0.126249,-0.015 0.180696,-0.024 0.109004,-0.053 0.206004,-0.1611 0.302723,-0.2769 -0.05879,-0.1 -0.158004,-0.2122 -0.267523,-0.3402 -0.07363,-0.092 -0.116503,-0.2133 -0.150188,-0.3286 z m 7.232517,1.9572 -0.194776,0.042 -2.053359,0 c -0.05415,0.1898 -0.113719,0.4423 -0.140801,0.4928 -0.220042,-0.027 -0.330731,0.3778 -0.523313,0.3778 -0.05451,-0.053 -0.08087,-0.1091 -0.107949,-0.1596 0.02613,0.3742 0.113317,0.7227 0.246403,1.0537 0.120705,-0.1138 0.221854,-0.3297 0.384859,-0.3097 0.02708,-0.05 0.08665,-0.303 0.140801,-0.4929 l 2.053359,0 0.741557,-0.1619 0,-0.3778 -0.546781,-0.056 0,-0.4083 z m -7.15273,0.012 0,0 c -0.130853,0 -0.317551,0.046 -0.537394,0.2089 -0.108677,0.1084 -0.329075,0.2129 -0.274562,0.8096 0.216868,0 0.362427,0.01 0.516272,0.019 0.114375,-0.048 0.217093,-0.077 0.295684,-0.077 l 0,-0 c 0.04054,0 0.03449,0.01 0.06336,0.014 0.648371,-0.3401 1.217839,-0.1026 1.295377,-0.9293 -0.523225,0.025 -0.825477,-0.058 -1.154574,0 0,0 -0.07333,-0.045 -0.204163,-0.045 z m 3.529431,1.1733 c -0.138422,0.1634 -0.13484,0.3569 -0.161922,0.6008 0,0.166 -0.139549,0.1314 -0.30507,0.1314 -0.409914,-0.1353 -0.687583,0 -0.687583,0 -0.521292,0.054 -0.742884,0.6219 -1.375164,0.9481 -0.08159,0.028 -0.107222,0.1871 -0.218242,0.1619 l -0.07744,-0.052 c -0.358094,0.1081 -1.183097,0.1354 -1.593407,0 0,0.3526 -0.06263,0.5694 -0.171308,0.7861 -0.11096,0.461 -0.04969,0.1961 -0.187736,0.6571 -0.05453,0.5417 -0.251096,0.404 -0.251096,0.6477 -0.08159,0.3255 -0.167883,0.5721 -0.140802,0.8706 0.160977,0 0.09255,0 0.161922,0.01 0.04564,-0.1239 0.184282,-0.1115 0.229976,-0.5655 0.138044,-0.461 0.07678,-0.1937 0.187736,-0.6547 0.108676,-0.2168 0.171308,-0.4335 0.171308,-0.7862 0.41031,0.1354 1.235313,0.1082 1.593407,0 l 0.07744,0.049 c 0.11102,0.025 0.136652,-0.1319 0.218242,-0.1596 0.63228,-0.3262 0.853872,-0.8962 1.375164,-0.9504 0,0 0.277669,-0.1353 0.687583,0 0.165521,0 0.30507,0.035 0.30507,-0.1314 0.02708,-0.2439 0.0235,-0.4374 0.161922,-0.6008 0.108677,0.6511 0.411852,1.3857 0.962146,2.0909 l 0.54678,-0.3778 c -0.173457,-0.2075 -0.318126,-0.428 -0.445873,-0.6547 l -0.100907,0.07 c -0.550294,-0.7053 -0.853469,-1.4375 -0.962146,-2.0886 z m -9.614414,4.6324 c -0.01025,0.088 -0.02475,0.1717 -0.02816,0.2629 -0.03182,0.3801 0.03707,0.7978 0.09152,1.1991 0.01863,-0.054 0.03031,-0.093 0.04928,-0.1478 0.03586,-0.3925 -0.05844,-0.8566 -0.112641,-1.3142 z m 2.853582,2.9099 c -0.192591,0.082 -0.165887,0.2949 -0.274563,0.3778 -0.6319,1.1937 -1.04106,2.4153 -1.34231,3.6632 -0.659351,1.7086 -1.178041,2.1747 -2.82777,2.4993 -0.05317,0.5178 0.207101,0.6954 0.455259,0.8354 1.263655,-0.3281 1.785004,-0.8501 2.372511,-2.3725 0.30125,-1.2479 0.71041,-2.4695 1.34231,-3.6632 0.108676,-0.083 0.08197,-0.2958 0.274563,-0.3778 0.740947,1.2203 2.090566,2.0879 2.747981,3.3628 0.165506,1.6541 0.494661,2.5529 1.070094,2.8512 0.0814,0.03 0.06678,0.2211 0.06336,0.3966 0.0037,-0.047 0.003,-0.095 0.02112,-0.1384 0.08157,-0.1902 0.02347,-0.3764 0.02347,-0.5398 -0.111127,-0.108 0.03009,-0.6277 -0.107948,-0.6782 -0.575433,-0.2983 -0.904588,-1.1994 -1.070094,-2.8536 -0.657415,-1.2749 -2.007034,-2.1424 -2.747981,-3.3628 z m 3.766447,0.1854 c -0.02384,0.023 -0.0618,0.04 -0.08213,0.061 0.0876,0.086 0.177094,0.1989 0.267523,0.2934 -0.04002,-0.1303 -0.111349,-0.2476 -0.185389,-0.3544 z m 1.849198,4.1537 c -0.05683,0.8492 -0.237194,1.6371 -0.478727,1.875 -0.03109,0.1559 0.08713,0.3455 0.232324,0.5186 0.20113,-0.5781 0.306501,-1.5377 0.246403,-2.3936 z m -11.618494,2.4969 c -0.05402,10e-4 -0.123449,0.014 -0.183043,0.021 -0.02531,0.035 -0.0552,0.065 -0.07744,0.1032 0.05451,0.083 -0.327421,0.1571 -0.298031,0.2934 0.02708,0.1342 0.216436,0.4889 0.298031,0.5702 0.02708,0.057 0.30507,-0.083 0.30507,0 0.111019,0.3253 0.357083,1.0009 0.631262,1.164 1.210035,0.1338 1.209865,0.1338 1.703701,0 0.193714,-0.5561 -0.345588,-0.5471 -0.642995,-0.8636 -0.210923,-0 -0.487369,-0.033 -1.060706,-0.096 -0.274179,-0.1631 -0.520243,-0.8411 -0.631262,-1.1663 0,-0.021 -0.01815,-0.026 -0.04459,-0.026 z m 9.935912,1.3516 c -0.002,0.068 -3.62e-4,0.1363 -0.03051,0.2066 -0.05646,0.1352 -0.02347,0.2961 -0.02347,0.4317 l 0,0.162 c 0.02708,0.2454 0.08144,0.2502 0.328538,0.4388 0.713875,0.461 1.672396,1.1902 2.632993,0.6477 0.184143,-0.2957 0.121508,-0.6231 -0.05397,-0.9387 -0.942529,0.4865 -1.87842,-0.2164 -2.579019,-0.6688 -0.164498,-0.1256 -0.232249,-0.1913 -0.274564,-0.2793 z"
       id="path4233"
       inkscape:connector-curvature="0" />
  </g>
</svg>
