<?xml version="1.0" encoding="UTF-8" standalone="no"?>
<svg
   xmlns:dc="http://purl.org/dc/elements/1.1/"
   xmlns:cc="http://creativecommons.org/ns#"
   xmlns:rdf="http://www.w3.org/1999/02/22-rdf-syntax-ns#"
   xmlns:svg="http://www.w3.org/2000/svg"
   xmlns="http://www.w3.org/2000/svg"
   xmlns:xlink="http://www.w3.org/1999/xlink"
   xmlns:sodipodi="http://sodipodi.sourceforge.net/DTD/sodipodi-0.dtd"
   xmlns:inkscape="http://www.inkscape.org/namespaces/inkscape"
   viewBox="0 0 48 48"
   id="svg2"
   version="1.1"
   inkscape:version="0.91 r13725"
   sodipodi:docname="currency.svg">
  <metadata
     id="metadata67">
    <rdf:RDF>
      <cc:Work
         rdf:about="">
        <dc:format>image/svg+xml</dc:format>
        <dc:type
           rdf:resource="http://purl.org/dc/dcmitype/StillImage" />
      </cc:Work>
    </rdf:RDF>
  </metadata>
  <sodipodi:namedview
     pagecolor="#ffffff"
     bordercolor="#666666"
     borderopacity="1"
     objecttolerance="10"
     gridtolerance="10"
     guidetolerance="10"
     inkscape:pageopacity="0"
     inkscape:pageshadow="2"
     inkscape:window-width="1366"
     inkscape:window-height="705"
     id="namedview65"
     showgrid="false"
     inkscape:zoom="4.9166667"
     inkscape:cx="24"
     inkscape:cy="24"
     inkscape:window-x="0"
     inkscape:window-y="28"
     inkscape:window-maximized="1"
     inkscape:current-layer="svg2" />
  <defs
     id="defs4">
    <linearGradient
       id="linearGradient3845"
       y1="47"
       x2="0"
       y2="1"
       gradientUnits="userSpaceOnUse">
      <stop
         style="stop-color:#aae974;stop-opacity:1"
         id="stop7" />
      <stop
         offset="1"
         style="stop-color:#b4ec84;stop-opacity:1"
         id="stop9" />
    </linearGradient>
    <linearGradient
       inkscape:collect="always"
       xlink:href="#linearGradient3448"
       id="linearGradient3329"
       gradientUnits="userSpaceOnUse"
       gradientTransform="matrix(0.83333307,0,0,0.83333307,-317.03371,412.80361)"
       x1="379.57144"
       y1="-527.79797"
       x2="431.57144"
       y2="-527.79797" />
    <linearGradient
       id="linearGradient3448">
      <stop
         style="stop-color:#7cb342;stop-opacity:1"
         offset="0"
         id="stop3450" />
      <stop
         style="stop-color:#aed581;stop-opacity:1"
         offset="1"
         id="stop3452" />
    </linearGradient>
  </defs>
  <g
     id="g3289"
     transform="translate(0.55761199,0.30529681)">
    <rect
       transform="scale(1,-1)"
       ry="0"
       y="-43.694542"
       x="3.4424012"
       height="39.999989"
       width="39.999989"
       id="rect3291"
       style="fill:url(#linearGradient3329);fill-opacity:1;stroke:none" />
    <path
       sodipodi:nodetypes="cccc"
       inkscape:connector-curvature="0"
       id="path3293"
       d="m 3.4423873,43.694552 40.0000007,3.01e-4 c -20,-0.999999 -20,-0.999999 -40.0000017,0 z"
       style="opacity:0.35;fill:#000000;fill-opacity:1;stroke:none" />
    <path
       style="opacity:0.5;fill:#ffffff;fill-opacity:1;stroke:none"
       d="M 3.4423913,3.6947551 43.442388,3.6945549 c -19.999996,1.0000006 -19.999996,1.0000006 -39.9999977,0 z"
       id="path3295"
       inkscape:connector-curvature="0"
       sodipodi:nodetypes="cccc" />
  </g>
  <path
     transform="matrix(1.3,0,0,1.3,-1,-4.9)"
     d="m 20 18 a 5 5 0 1 1 -10 0 5 5 0 1 1 10 0 z"
     style="fill:#000;fill-opacity:0.118;stroke:none;fill-rule:nonzero"
     id="path27" />
  <path
     d="m 20 18 a 5 5 0 1 1 -10 0 5 5 0 1 1 10 0 z"
     transform="matrix(1.3,0,0,1.3,-2,-5.9)"
     style="fill:#889898;fill-opacity:1;stroke:none;fill-rule:nonzero"
     id="path29" />
  <path
     d="m 20 18 a 5 5 0 1 1 -10 0 5 5 0 1 1 10 0 z"
     transform="matrix(1.3,0,0,1.3,12,-4.9)"
     style="fill:#000;fill-opacity:0.118;stroke:none;fill-rule:nonzero"
     id="path31" />
  <path
     d="m 20 18 a 5 5 0 1 1 -10 0 5 5 0 1 1 10 0 z"
     transform="matrix(1.1,0,0,1.1,1,-2.3)"
     style="fill:#c7cfcf;fill-opacity:1;stroke:none;fill-rule:nonzero"
     id="path33" />
  <path
     transform="matrix(1.3,0,0,1.3,-1,8.1)"
     d="m 20 18 a 5 5 0 1 1 -10 0 5 5 0 1 1 10 0 z"
     style="fill:#000;fill-opacity:0.118;stroke:none;fill-rule:nonzero"
     id="path35" />
  <path
     transform="matrix(1.3,0,0,1.3,11,-5.9)"
     d="m 20 18 a 5 5 0 1 1 -10 0 5 5 0 1 1 10 0 z"
     style="fill:#c09730;fill-opacity:1;stroke:none;fill-rule:nonzero"
     id="path37" />
  <path
     d="m 20 18 a 5 5 0 1 1 -10 0 5 5 0 1 1 10 0 z"
     transform="matrix(1.3,0,0,1.3,12,8.1)"
     style="fill:#000;fill-opacity:0.118;stroke:none;fill-rule:nonzero"
     id="path39" />
  <path
     transform="matrix(1.1,0,0,1.1,14,-2.3)"
     d="m 20 18 a 5 5 0 1 1 -10 0 5 5 0 1 1 10 0 z"
     style="fill:#ebc859;fill-opacity:1;stroke:none;fill-rule:nonzero"
     id="path41" />
  <path
     d="m 20 18 a 5 5 0 1 1 -10 0 5 5 0 1 1 10 0 z"
     transform="matrix(1.3,0,0,1.3,-2,7.1)"
     style="fill:#7b7146;fill-opacity:1;stroke:none;fill-rule:nonzero"
     id="path43" />
  <path
     d="m 20 18 a 5 5 0 1 1 -10 0 5 5 0 1 1 10 0 z"
     transform="matrix(1.1,0,0,1.1,1,10.7)"
     style="fill:#b4a767;fill-opacity:1;stroke:none;fill-rule:nonzero"
     id="path45" />
  <path
     transform="matrix(1.3,0,0,1.3,11,7.1)"
     d="m 20 18 a 5 5 0 1 1 -10 0 5 5 0 1 1 10 0 z"
     style="fill:#6f6f6f;fill-opacity:1;stroke:none;fill-rule:nonzero"
     id="path47" />
  <path
     transform="matrix(1.1,0,0,1.1,14,10.7)"
     d="m 20 18 a 5 5 0 1 1 -10 0 5 5 0 1 1 10 0 z"
     style="fill:#acafaf;fill-opacity:1;stroke:none;fill-rule:nonzero"
     id="path49" />
  <g
     transform="scale(1.0009181,0.99908276)"
     style="fill:#000;fill-opacity:1;stroke:none"
     id="g51">
    <path
       d="m 16.984 22.02 0 -1 c -0.844 -0.133 -1.487 -0.569 -2.198 -1.201 l 0.822 -1.113 c 0.519 0.452 0.957 0.766 1.376 0.892 l 0 -1.511 c -0.698 -0.18 -1.18 -0.419 -1.506 -0.718 -0.326 -0.306 -0.489 -0.789 -0.489 -1.355 0 -0.572 0.186 -0.992 0.558 -1.358 0.372 -0.372 0.831 -0.571 1.436 -0.644 l 0 -1 0.999 0 0 1 c 0.665 0.093 1.34 0.392 1.998 0.851 l -0.743 1.149 c -0.419 -0.299 -0.896 -0.549 -1.255 -0.649 l 0 1.501 c 0.718 0.186 1.335 0.421 1.674 0.733 0.346 0.312 0.519 0.755 0.519 1.326 0 0.572 -0.193 1.044 -0.578 1.416 -0.379 0.372 -0.976 0.605 -1.614 0.678 l 0 1 m 0.859 -3.053 c 0 -0.375 -0.402 -0.5 -0.859 -0.611 l 0 1.311 c 0.592 -0.07 0.881 -0.273 0.859 -0.701 m -1.858 -3.683 c -0.432 0.02 -0.709 0.373 -0.709 0.639 -0.022 0.476 0.377 0.615 0.709 0.692"
       style="fill:#889898"
       id="path53" />
  </g>
  <path
     d="m 30.813 13.5 c -0.645 0 -1.213 0.232 -1.719 0.719 -0.47 0.452 -0.795 1.057 -1 1.781 l -1.094 0 l 0 1 0.9 0 0 1 -0.9 0 0 1 1.094 0 c 0.003 0.011 -0.003 0.02 0 0.031 0.211 0.757 0.549 1.363 1.031 1.813 c 0.488 0.442 1.03 0.656 1.656 0.656 0.916 0 1.659 -0.42 2.219 -1.281 l -0.625 -0.969 c -0.259 0.33 -0.515 0.561 -0.75 0.719 -0.229 0.15 -0.518 0.219 -0.844 0.219 -0.657 0 -1.143 -0.377 -1.469 -1.156 -0.005 -0.013 0.004 -0.019 0 -0.031 l 1.688 0 l 0 -1 -1.906 0 0 -1 1.906 0 0 -1 -1.688 0 c 0.136 -0.339 0.323 -0.618 0.563 -0.813 0.283 -0.232 0.588 -0.344 0.938 -0.344 0.349 0 0.64 0.076 0.875 0.219 0.241 0.142 0.516 0.398 0.781 0.75 l 0.625 -1.031 c -0.56 -0.861 -1.323 -1.281 -2.281 -1.281 z"
     style="fill:#c09730;fill-opacity:1;stroke:none;fill-rule:nonzero"
     id="path55" />
  <g
     transform="scale(0.90506385,1.1048944)"
     style="fill:#000;fill-opacity:1;stroke:none"
     id="g57">
    <path
       d="m 14.906 27 l 1.375 3 l -1.281 0 l 0 1 l 1.719 0 l 0.281 0.594 l 0 0.406 l -2 0 l 0 1 l 2 0 l 0 2 l 1 0 l 0 -2 l 2 0 l 0 -1 l -2 0 l 0 -0.406 l 0.281 -0.594 l 1.719 0 l 0 -1 l -1.281 0 l 1.375 -3 l -1.188 0 l -1.406 3.156 l -1.406 -3.156 l -1.188 0 z"
       transform="scale(1.1048944,0.90506387)"
       style="fill:#7b7146"
       id="path59" />
  </g>
  <g
     transform="scale(0.99069749,1.0093899)"
     style="fill:#000;fill-opacity:1;stroke:none"
     id="g61">
    <path
       d="m 30.28 29.721 2.02 0 0 0.991 -2.02 0 0 1.981 3.03 0 0 0.991 -5.05 0 0 -0.991 1.01 0 0 -1.981 -1.01 0 0 -0.991 1.01 0 0 -0.793 c 0 -1.589 0.855 -2.184 2.025 -2.18 1 0 1.729 0.656 2.01 1.419 l -0.808 0.414 c -0.202 -0.516 -0.564 -0.842 -1.124 -0.842 -0.662 0 -1.096 0.412 -1.096 1.189"
       style="fill:#6f6f6f"
       id="path63" />
  </g>
</svg>
