<?xml version="1.0" encoding="UTF-8" standalone="no"?>
<svg
   xmlns:dc="http://purl.org/dc/elements/1.1/"
   xmlns:cc="http://creativecommons.org/ns#"
   xmlns:rdf="http://www.w3.org/1999/02/22-rdf-syntax-ns#"
   xmlns:svg="http://www.w3.org/2000/svg"
   xmlns="http://www.w3.org/2000/svg"
   xmlns:xlink="http://www.w3.org/1999/xlink"
   xmlns:sodipodi="http://sodipodi.sourceforge.net/DTD/sodipodi-0.dtd"
   xmlns:inkscape="http://www.inkscape.org/namespaces/inkscape"
   viewBox="0 0 48 48"
   id="svg2"
   version="1.1"
   inkscape:version="0.91 r13725"
   sodipodi:docname="cutegram.svg">
  <metadata
     id="metadata52">
    <rdf:RDF>
      <cc:Work
         rdf:about="">
        <dc:format>image/svg+xml</dc:format>
        <dc:type
           rdf:resource="http://purl.org/dc/dcmitype/StillImage" />
      </cc:Work>
    </rdf:RDF>
  </metadata>
  <sodipodi:namedview
     pagecolor="#ffffff"
     bordercolor="#666666"
     borderopacity="1"
     objecttolerance="10"
     gridtolerance="10"
     guidetolerance="10"
     inkscape:pageopacity="0"
     inkscape:pageshadow="2"
     inkscape:window-width="1366"
     inkscape:window-height="705"
     id="namedview50"
     showgrid="false"
     inkscape:zoom="4.9166667"
     inkscape:cx="24"
     inkscape:cy="24"
     inkscape:window-x="0"
     inkscape:window-y="28"
     inkscape:window-maximized="1"
     inkscape:current-layer="svg2" />
  <defs
     id="defs4">
    <linearGradient
       id="linearGradient3845"
       y1="47"
       x2="0"
       y2="1"
       gradientUnits="userSpaceOnUse">
      <stop
         style="stop-color:#d22724;stop-opacity:1"
         id="stop7" />
      <stop
         offset="1"
         style="stop-color:#db322f;stop-opacity:1"
         id="stop9" />
    </linearGradient>
    <linearGradient
       y2="160"
       x2="160"
       y1="120"
       x1="135"
       gradientTransform="matrix(0.05622958,0,0,0.05622958,0.07160145,-0.0527796)"
       gradientUnits="userSpaceOnUse"
       id="linearGradient3102">
      <stop
         style="stop-color:#eff7fc"
         id="stop12" />
      <stop
         offset="1"
         style="stop-color:#fff"
         id="stop14" />
    </linearGradient>
    <linearGradient
       inkscape:collect="always"
       xlink:href="#linearGradient3442"
       id="linearGradient3287"
       gradientUnits="userSpaceOnUse"
       gradientTransform="matrix(0.83333307,0,0,0.83333307,-317.03371,412.80361)"
       x1="379.57144"
       y1="-527.79797"
       x2="431.57144"
       y2="-527.79797" />
    <linearGradient
       id="linearGradient3442">
      <stop
         style="stop-color:#e53935;stop-opacity:1"
         offset="0"
         id="stop3444" />
      <stop
         style="stop-color:#e57373;stop-opacity:1"
         offset="1"
         id="stop3446" />
    </linearGradient>
  </defs>
  <g
     transform="translate(0.55761199,0.30529681)"
     id="g3271">
    <rect
       style="fill:url(#linearGradient3287);fill-opacity:1;stroke:none"
       id="rect3273"
       width="39.999989"
       height="39.999989"
       x="3.4424012"
       y="-43.694542"
       ry="0"
       transform="scale(1,-1)" />
    <path
       style="opacity:0.35;fill:#000000;fill-opacity:1;stroke:none"
       d="m 3.4423873,43.694552 40.0000007,3.01e-4 c -20,-0.999999 -20,-0.999999 -40.0000017,0 z"
       id="path3275"
       inkscape:connector-curvature="0"
       sodipodi:nodetypes="cccc" />
    <path
       sodipodi:nodetypes="cccc"
       inkscape:connector-curvature="0"
       id="path3277"
       d="M 3.4423913,3.6947551 43.442388,3.6945549 c -19.999996,1.0000006 -19.999996,1.0000006 -39.9999977,0 z"
       style="opacity:0.5;fill:#ffffff;fill-opacity:1;stroke:none" />
  </g>
  <g
     id="g32">
    <g
       transform="scale(3.543307,3.543307)"
       style="fill:#000;opacity:0.1;fill-opacity:1"
       id="g34">
      <path
         d="m 5.582 9.787 c -0.219 0 -0.181 -0.083 -0.257 -0.291 l -0.643 -2.116 3.981 -2.487 0.465 0.122 -0.386 1.058"
         id="path36" />
      <path
         d="m 5.582 9.787 c 0.169 0 0.243 -0.077 0.337 -0.169 c 0.145 -0.142 2.024 -1.968 2.024 -1.968 l -1.151 -0.279 -1.068 0.675 -0.142 1.684"
         id="path38" />
      <path
         d="m 5.697 8.07 2.719 2.01 c 0.31 0.171 0.534 0.083 0.612 -0.288 l 1.107 -5.216 c 0.113 -0.454 -0.173 -0.66 -0.47 -0.526 l -6.5 2.507 c -0.444 0.178 -0.441 0.425 -0.081 0.536 l 1.668 0.521 3.861 -2.436 c 0.182 -0.111 0.35 -0.051 0.212 0.071 z"
         id="path40" />
    </g>
    <g
       transform="matrix(3.543307,0,0,3.543307,-0.99999987,-1.0000008)"
       id="g42">
      <path
         d="m 5.582 9.787 c -0.219 0 -0.181 -0.083 -0.257 -0.291 l -0.643 -2.116 3.981 -2.487 0.465 0.122 -0.386 1.058"
         style="fill:#c8daea"
         id="path44" />
      <path
         d="m 5.582 9.787 c 0.169 0 0.243 -0.077 0.337 -0.169 c 0.145 -0.142 2.024 -1.968 2.024 -1.968 l -1.151 -0.279 -1.068 0.675 -0.142 1.684"
         style="fill:#a7c2d1"
         id="path46" />
      <path
         d="m 5.697 8.07 2.719 2.01 c 0.31 0.171 0.534 0.083 0.612 -0.288 l 1.107 -5.216 c 0.113 -0.454 -0.173 -0.66 -0.47 -0.526 l -6.5 2.507 c -0.444 0.178 -0.441 0.425 -0.081 0.536 l 1.668 0.521 3.861 -2.436 c 0.182 -0.111 0.35 -0.051 0.212 0.071 z"
         style="fill:url(#linearGradient3102)"
         id="path48" />
    </g>
  </g>
</svg>
