<?xml version="1.0" encoding="UTF-8" standalone="no"?>
<!-- Created with Inkscape (http://www.inkscape.org/) -->

<svg
   xmlns:dc="http://purl.org/dc/elements/1.1/"
   xmlns:cc="http://creativecommons.org/ns#"
   xmlns:rdf="http://www.w3.org/1999/02/22-rdf-syntax-ns#"
   xmlns:svg="http://www.w3.org/2000/svg"
   xmlns="http://www.w3.org/2000/svg"
   xmlns:xlink="http://www.w3.org/1999/xlink"
   xmlns:sodipodi="http://sodipodi.sourceforge.net/DTD/sodipodi-0.dtd"
   xmlns:inkscape="http://www.inkscape.org/namespaces/inkscape"
   width="48px"
   height="48px"
   id="svg2985"
   version="1.1"
   inkscape:version="0.48.4 r9939"
   sodipodi:docname="绘图.svg">
  <defs
     id="defs2987">
    <linearGradient
       id="linearGradient3813">
      <stop
         style="stop-color:#333333;stop-opacity:1;"
         offset="0"
         id="stop3815" />
      <stop
         style="stop-color:#6c6c6c;stop-opacity:1;"
         offset="1"
         id="stop3817" />
    </linearGradient>
    <linearGradient
       id="linearGradient3794">
      <stop
         style="stop-color:#ececec;stop-opacity:1;"
         offset="0"
         id="stop3796" />
      <stop
         style="stop-color:#ffffff;stop-opacity:1;"
         offset="1"
         id="stop3798" />
    </linearGradient>
    <linearGradient
       inkscape:collect="always"
       xlink:href="#linearGradient3794"
       id="linearGradient3800"
       x1="4"
       y1="24"
       x2="44"
       y2="24"
       gradientUnits="userSpaceOnUse" />
    <linearGradient
       inkscape:collect="always"
       xlink:href="#linearGradient3813"
       id="linearGradient3819"
       x1="6.4353895"
       y1="24.000001"
       x2="41.564078"
       y2="24.000001"
       gradientUnits="userSpaceOnUse" />
  </defs>
  <sodipodi:namedview
     id="base"
     pagecolor="#ffffff"
     bordercolor="#666666"
     borderopacity="1.0"
     inkscape:pageopacity="0.0"
     inkscape:pageshadow="2"
     inkscape:zoom="4.9497475"
     inkscape:cx="21.690203"
     inkscape:cy="37.755029"
     inkscape:current-layer="layer1"
     showgrid="true"
     inkscape:grid-bbox="true"
     inkscape:document-units="px"
     showguides="true"
     inkscape:guide-bbox="true"
     inkscape:window-width="451"
     inkscape:window-height="381"
     inkscape:window-x="388"
     inkscape:window-y="248"
     inkscape:window-maximized="0">
    <inkscape:grid
       type="xygrid"
       id="grid2993" />
    <sodipodi:guide
       orientation="0,1"
       position="23,44"
       id="guide2995" />
    <sodipodi:guide
       orientation="1,0"
       position="4,35"
       id="guide2997" />
    <sodipodi:guide
       orientation="0,1"
       position="27,4"
       id="guide2999" />
    <sodipodi:guide
       orientation="1,0"
       position="44,19"
       id="guide3001" />
  </sodipodi:namedview>
  <metadata
     id="metadata2990">
    <rdf:RDF>
      <cc:Work
         rdf:about="">
        <dc:format>image/svg+xml</dc:format>
        <dc:type
           rdf:resource="http://purl.org/dc/dcmitype/StillImage" />
        <dc:title></dc:title>
      </cc:Work>
    </rdf:RDF>
  </metadata>
  <g
     id="layer1"
     inkscape:label="Layer 1"
     inkscape:groupmode="layer">
    <rect
       style="fill:url(#linearGradient3800);fill-opacity:1.0;stroke:none"
       id="rect3003"
       width="40"
       height="40"
       x="4"
       y="4"
       ry="0" />
    <path
       style="opacity:0.5;fill:#000000;fill-opacity:1;stroke:none"
       d="m 4,44 0,0 c 20,-1 20,-1 40,0 z"
       id="path3257"
       inkscape:connector-curvature="0"
       sodipodi:nodetypes="cccc" />
    <path
       sodipodi:nodetypes="cccc"
       inkscape:connector-curvature="0"
       id="path4027"
       d="M 4,4 4,4 C 24,5 24,5 44,4 z"
       style="opacity:0.75;fill:#ffffff;fill-opacity:1;stroke:none" />
    <g
       style="font-size:22px;font-style:normal;font-variant:normal;font-weight:bold;font-stretch:normal;line-height:125%;letter-spacing:0px;word-spacing:0px;fill:url(#linearGradient3819);fill-opacity:1;stroke:none;font-family:Nexa Light;-inkscape-font-specification:'Nexa Light, Bold'"
       id="text3802">
      <path
         d="m 19.173922,28.818001 c -1.319999,1.297998 -3.080002,1.958 -4.818,1.958 -4.4439957,0 -6.7320002,-3.124004 -6.7760002,-6.732 -0.022,-3.695997 2.2880045,-6.864 6.7760002,-6.864 1.737998,0 3.476001,0.638001 4.796,1.958 l 0.814,-0.704 c -1.539999,-1.539999 -3.586002,-2.31 -5.61,-2.31 -5.2799949,0 -7.9640001,3.850004 -7.9200002,7.964 0.022,4.157996 2.7280052,7.788 7.9200002,7.788 2.023998,0 4.070001,-0.770002 5.61,-2.31 l -0.792,-0.748"
         style="fill:url(#linearGradient3819);fill-opacity:1"
         id="path3807" />
      <path
         d="m 21.744141,23.648001 0,1.056 3.85,0 0,3.894 1.034,0 0,-3.894 3.85,0 0,-1.056 -3.85,0 0,-3.784 -1.034,0 0,3.784 -3.85,0"
         style="fill:url(#linearGradient3819);fill-opacity:1"
         id="path3809" />
      <path
         d="m 32.830078,23.648001 0,1.056 3.85,0 0,3.894 1.034,0 0,-3.894 3.85,0 0,-1.056 -3.85,0 0,-3.784 -1.034,0 0,3.784 -3.85,0"
         style="fill:url(#linearGradient3819);fill-opacity:1"
         id="path3811" />
    </g>
  </g>
</svg>
