<?xml version="1.0" encoding="UTF-8" standalone="no"?>
<svg
   xmlns:dc="http://purl.org/dc/elements/1.1/"
   xmlns:cc="http://creativecommons.org/ns#"
   xmlns:rdf="http://www.w3.org/1999/02/22-rdf-syntax-ns#"
   xmlns:svg="http://www.w3.org/2000/svg"
   xmlns="http://www.w3.org/2000/svg"
   xmlns:xlink="http://www.w3.org/1999/xlink"
   xmlns:sodipodi="http://sodipodi.sourceforge.net/DTD/sodipodi-0.dtd"
   xmlns:inkscape="http://www.inkscape.org/namespaces/inkscape"
   viewBox="0 0 48 48"
   id="svg2"
   version="1.1"
   inkscape:version="0.91 r13725"
   sodipodi:docname="denemo.svg">
  <metadata
     id="metadata55">
    <rdf:RDF>
      <cc:Work
         rdf:about="">
        <dc:format>image/svg+xml</dc:format>
        <dc:type
           rdf:resource="http://purl.org/dc/dcmitype/StillImage" />
      </cc:Work>
    </rdf:RDF>
  </metadata>
  <sodipodi:namedview
     pagecolor="#ffffff"
     bordercolor="#666666"
     borderopacity="1"
     objecttolerance="10"
     gridtolerance="10"
     guidetolerance="10"
     inkscape:pageopacity="0"
     inkscape:pageshadow="2"
     inkscape:window-width="1366"
     inkscape:window-height="705"
     id="namedview53"
     showgrid="false"
     inkscape:zoom="9.8333333"
     inkscape:cx="17.391797"
     inkscape:cy="24.594901"
     inkscape:window-x="0"
     inkscape:window-y="28"
     inkscape:window-maximized="1"
     inkscape:current-layer="svg2" />
  <defs
     id="defs4">
    <linearGradient
       id="linearGradient3022"
       y1="1"
       x2="0"
       y2="47"
       gradientUnits="userSpaceOnUse">
      <stop
         style="stop-color:#77b5dd;stop-opacity:1"
         id="stop7" />
      <stop
         offset="1"
         style="stop-color:#67acd9;stop-opacity:1"
         id="stop9" />
    </linearGradient>
    <linearGradient
       inkscape:collect="always"
       xlink:href="#linearGradient3406"
       id="linearGradient3227"
       gradientUnits="userSpaceOnUse"
       gradientTransform="matrix(0.83333307,0,0,0.83333307,-316.4761,412.49831)"
       x1="379.57144"
       y1="-527.79797"
       x2="431.57144"
       y2="-527.79797" />
    <linearGradient
       id="linearGradient3406">
      <stop
         style="stop-color:#0288d1;stop-opacity:1"
         offset="0"
         id="stop3408" />
      <stop
         style="stop-color:#29b6f6;stop-opacity:1"
         offset="1"
         id="stop3410" />
    </linearGradient>
    <clipPath
       clipPathUnits="userSpaceOnUse"
       id="clipPath3212">
      <rect
         style="fill:url(#linearGradient3216);fill-opacity:1;stroke:none"
         id="rect3214"
         width="39.999989"
         height="39.999989"
         x="4.0000134"
         y="-43.99984"
         ry="0"
         transform="scale(1,-1)" />
    </clipPath>
    <linearGradient
       inkscape:collect="always"
       xlink:href="#linearGradient3406"
       id="linearGradient3216"
       gradientUnits="userSpaceOnUse"
       gradientTransform="matrix(0.83333307,0,0,0.83333307,-316.4761,412.49831)"
       x1="379.57144"
       y1="-527.79797"
       x2="431.57144"
       y2="-527.79797" />
  </defs>
  <rect
     transform="scale(1,-1)"
     ry="0"
     y="-43.99984"
     x="4.0000134"
     height="39.999989"
     width="39.999989"
     id="rect3221"
     style="fill:url(#linearGradient3227);fill-opacity:1;stroke:none" />
  <path
     sodipodi:nodetypes="cccc"
     inkscape:connector-curvature="0"
     id="path3223"
     d="M 3.9999993,43.999849 44,44.00015 c -20,-0.999999 -20,-0.999999 -40.0000017,0 z"
     style="opacity:0.35;fill:#000000;fill-opacity:1;stroke:none" />
  <path
     style="opacity:0.5;fill:#ffffff;fill-opacity:1;stroke:none"
     d="M 4.0000033,4.0000519 44,3.9998517 c -19.999996,1.0000006 -19.999996,1.0000006 -39.9999977,0 z"
     id="path3225"
     inkscape:connector-curvature="0"
     sodipodi:nodetypes="cccc" />
  <g
     style="fill:#808080"
     id="g23"
     clip-path="url(#clipPath3212)">
    <path
       d="m 1 23 45.979 0 0.031 1 l -46.01 0 z"
       style="fill:#315792;fill-opacity:0.51;stroke:none"
       id="path25" />
    <path
       d="m 1.367 20 45.28 0 0.165 1 -45.614 0 z"
       style="fill:#315792;fill-opacity:0.51;stroke:none"
       id="path27" />
    <path
       d="m 1.107 26 45.785 0 -0.073 1 -45.623 0.017 z"
       style="fill:#315792;fill-opacity:0.51;stroke:none"
       id="path29" />
    <path
       d="m 2.136 17 43.77 0 0.307 1 -44.39 0 z"
       style="fill:#315792;fill-opacity:0.51;stroke:none"
       id="path31" />
    <path
       d="m 1.567 29 44.891 -0.019 -0.253 1.031 -44.39 -0.011 z"
       style="fill:#315792;fill-opacity:0.51;stroke:none"
       id="path33" />
  </g>
  <g
     transform="translate(1.000001,0)"
     id="g39">
    <g
       transform="translate(1.000001,0.99999912)"
       style="fill:#000;fill-opacity:0.118"
       id="g41">
      <path
         d="m 22.254 11.863 c 9.104 0 14.162 1.977 14.162 11.863 0 9.886 -5.058 11.863 -14.162 11.863 l -10.116 0 0 -1.977 c 0 0 0.555 0 1.012 0 0.637 0 1.012 -0.398 1.012 -0.989 0.058 -5.92 0.055 -12.387 0 -17.794 0 -0.494 -0.371 -0.989 -1.012 -0.989 -1.012 0 -1.012 -0.018 -1.012 -0.018 l 0 -1.959 m 10.116 21.749 c 7.081 0 9.104 -3.954 9.104 -9.886 0 -5.931 -2.023 -9.886 -9.104 -9.886 l -4.046 0 0 19.771"
         transform="scale(0.98857105,1.0115611)"
         style="stroke:none"
         id="path43" />
      <path
         d="m 24.5 18 c -0.944 0 -1.8 0.278 -2.438 0.719 c -0.637 0.441 -1.063 1.062 -1.063 1.781 c 0 4.167 0 8.333 0 12.5 l 0.5 0 c 0.47 -1.778 2.309 -3.42 3.719 -4.938 0.705 -0.759 1.308 -1.466 1.563 -2.188 0.127 -0.361 0.138 -0.736 0.031 -1.094 -0.178 -0.496 -0.474 -0.727 -0.781 -1.031 -0.647 0 -0.708 0 -1.063 0 l 0.156 0.344 c 0.173 0.455 0.144 0.823 0.031 1.188 -0.112 0.364 -0.336 0.727 -0.656 1.094 -0.526 0.602 -1.288 1.287 -2 2.031 l 0 -5.969 c 0.585 0.306 1.228 0.563 2 0.563 0.944 0 1.8 -0.278 2.438 -0.719 0.637 -0.441 1.063 -1.062 1.063 -1.781 0 -0.719 -0.425 -1.34 -1.063 -1.781 -0.637 -0.441 -1.493 -0.719 -2.438 -0.719"
         style="visibility:visible;stroke:none;display:inline;color:#000;fill-rule:nonzero"
         id="path45" />
    </g>
    <g
       id="g47">
      <path
         transform="scale(0.98857105,1.0115611)"
         d="m 22.254 11.863 c 9.104 0 14.162 1.977 14.162 11.863 0 9.886 -5.058 11.863 -14.162 11.863 l -10.116 0 0 -1.977 c 0 0 0.555 0 1.012 0 0.637 0 1.012 -0.398 1.012 -0.989 0.058 -5.92 0.055 -12.387 0 -17.794 0 -0.494 -0.371 -0.989 -1.012 -0.989 -1.012 0 -1.012 -0.018 -1.012 -0.018 l 0 -1.959 m 10.116 21.749 c 7.081 0 9.104 -3.954 9.104 -9.886 0 -5.931 -2.023 -9.886 -9.104 -9.886 l -4.046 0 0 19.771"
         style="fill:#0f465f;fill-opacity:1;stroke:none"
         id="path49" />
      <path
         d="m 24.5 18 c -0.944 0 -1.8 0.278 -2.438 0.719 c -0.637 0.441 -1.063 1.062 -1.063 1.781 c 0 4.167 0 8.333 0 12.5 l 0.5 0 c 0.47 -1.778 2.309 -3.42 3.719 -4.938 0.705 -0.759 1.308 -1.466 1.563 -2.188 0.127 -0.361 0.138 -0.736 0.031 -1.094 -0.178 -0.496 -0.474 -0.727 -0.781 -1.031 -0.647 0 -0.708 0 -1.063 0 l 0.156 0.344 c 0.173 0.455 0.144 0.823 0.031 1.188 -0.112 0.364 -0.336 0.727 -0.656 1.094 -0.526 0.602 -1.288 1.287 -2 2.031 l 0 -5.969 c 0.585 0.306 1.228 0.563 2 0.563 0.944 0 1.8 -0.278 2.438 -0.719 0.637 -0.441 1.063 -1.062 1.063 -1.781 0 -0.719 -0.425 -1.34 -1.063 -1.781 -0.637 -0.441 -1.493 -0.719 -2.438 -0.719"
         style="visibility:visible;fill:#0f465f;fill-opacity:1;stroke:none;display:inline;color:#000;fill-rule:nonzero"
         id="path51" />
    </g>
  </g>
</svg>
