<?xml version="1.0" encoding="UTF-8" standalone="no"?>
<svg
   xmlns:dc="http://purl.org/dc/elements/1.1/"
   xmlns:cc="http://creativecommons.org/ns#"
   xmlns:rdf="http://www.w3.org/1999/02/22-rdf-syntax-ns#"
   xmlns:svg="http://www.w3.org/2000/svg"
   xmlns="http://www.w3.org/2000/svg"
   xmlns:xlink="http://www.w3.org/1999/xlink"
   xmlns:sodipodi="http://sodipodi.sourceforge.net/DTD/sodipodi-0.dtd"
   xmlns:inkscape="http://www.inkscape.org/namespaces/inkscape"
   viewBox="0 0 48 48"
   id="svg2"
   version="1.1"
   inkscape:version="0.91 r13725"
   sodipodi:docname="desktop-environment-kde.svg">
  <metadata
     id="metadata49">
    <rdf:RDF>
      <cc:Work
         rdf:about="">
        <dc:format>image/svg+xml</dc:format>
        <dc:type
           rdf:resource="http://purl.org/dc/dcmitype/StillImage" />
      </cc:Work>
    </rdf:RDF>
  </metadata>
  <sodipodi:namedview
     pagecolor="#ffffff"
     bordercolor="#666666"
     borderopacity="1"
     objecttolerance="10"
     gridtolerance="10"
     guidetolerance="10"
     inkscape:pageopacity="0"
     inkscape:pageshadow="2"
     inkscape:window-width="686"
     inkscape:window-height="485"
     id="namedview47"
     showgrid="false"
     inkscape:zoom="4.9166667"
     inkscape:cx="24"
     inkscape:cy="24"
     inkscape:window-x="0"
     inkscape:window-y="28"
     inkscape:window-maximized="0"
     inkscape:current-layer="svg2" />
  <defs
     id="defs4">
    <linearGradient
       id="linearGradient3764"
       x1="1"
       x2="47"
       gradientUnits="userSpaceOnUse"
       gradientTransform="matrix(0,-1,1,0,-1.5e-6,47.999998)">
      <stop
         style="stop-color:#32a2f8;stop-opacity:1"
         id="stop7" />
      <stop
         offset="1"
         style="stop-color:#45a9f9;stop-opacity:1"
         id="stop9" />
    </linearGradient>
    <linearGradient
       inkscape:collect="always"
       xlink:href="#linearGradient3400"
       id="linearGradient3217"
       gradientUnits="userSpaceOnUse"
       gradientTransform="matrix(0.83333307,0,0,0.83333307,-317.03371,412.80361)"
       x1="379.57144"
       y1="-527.79797"
       x2="431.57144"
       y2="-527.79797" />
    <linearGradient
       id="linearGradient3400">
      <stop
         style="stop-color:#0097a7;stop-opacity:1"
         offset="0"
         id="stop3402" />
      <stop
         style="stop-color:#26c6da;stop-opacity:1"
         offset="1"
         id="stop3404" />
    </linearGradient>
  </defs>
  <g
     id="g3209"
     transform="translate(0.55761199,0.30529681)">
    <rect
       transform="scale(1,-1)"
       ry="0"
       y="-43.694542"
       x="3.4424012"
       height="39.999989"
       width="39.999989"
       id="rect3211"
       style="fill:url(#linearGradient3217);fill-opacity:1;stroke:none" />
    <path
       sodipodi:nodetypes="cccc"
       inkscape:connector-curvature="0"
       id="path3213"
       d="m 3.4423873,43.694552 40.0000007,3.01e-4 c -20,-0.999999 -20,-0.999999 -40.0000017,0 z"
       style="opacity:0.35;fill:#000000;fill-opacity:1;stroke:none" />
    <path
       style="opacity:0.5;fill:#ffffff;fill-opacity:1;stroke:none"
       d="M 3.4423913,3.6947551 43.442388,3.6945549 c -19.999996,1.0000006 -19.999996,1.0000006 -39.9999977,0 z"
       id="path3215"
       inkscape:connector-curvature="0"
       sodipodi:nodetypes="cccc" />
  </g>
  <g
     id="g23">
    <g
       id="g25">
      <g
         transform="translate(1,1)"
         id="g27">
        <g
           style="opacity:0.1"
           id="g29">
          <!-- color: #45a9f9 -->
          <g
             id="g31">
            <path
               d="m 25.91 12 l -4.172 0.297 l 0 16.617 l 4.172 -0.508 l 0 -7.254 c 1.809 2.73 3.262 5.27 5.684 7.91 l 4.32 -1.242 c -2.313 -2.68 -4.04 -5.04 -5.617 -7.613 c 1.641 -2.418 3.695 -4.848 5.703 -7.02 l -4.477 -1.098 c -2.09 2.355 -3.949 4.789 -5.613 7.234 m -9.504 -3.914 c -0.059 0.008 -0.129 0.043 -0.184 0.098 c -0.492 0.465 -0.957 0.93 -1.445 1.395 c -0.215 0.207 0.004 0.453 0.098 0.625 l 0.992 1.371 l 0.742 1 c 0.105 0.145 0.137 0.16 0.082 0.262 c -0.066 0.105 -0.121 0.191 -0.184 0.297 c -0.965 1.621 -0.289 1.746 -2.355 2.273 l -1.582 0.262 c -0.234 0.078 -0.539 0.07 -0.555 0.395 c 0 0.656 -0.02 1.309 -0.02 1.961 c -0.012 0.301 0.324 0.328 0.523 0.379 l 1.684 0.293 l 1.262 0.23 c 0.172 0.023 0.211 -0.016 0.25 0.113 c 0.516 2.176 1.191 1.676 0.066 3.578 l -0.906 1.262 c -0.121 0.219 -0.344 0.434 -0.117 0.656 c 0.477 0.473 0.934 0.949 1.414 1.422 c 0.211 0.207 0.484 -0.004 0.656 -0.098 l 1.395 -0.969 l 1.043 -0.703 c 0.145 -0.117 0.164 -0.145 0.27 -0.082 c 2.09 1.277 2.164 0.355 2.773 2.504 l 0.301 1.539 c 0.078 0.23 0.086 0.527 0.406 0.539 l 2.031 0 c 0.305 0 0.332 -0.348 0.371 -0.539 l 0.285 -1.637 l 0.203 -1.211 c 0.012 -0.117 0.008 -0.176 0.031 -0.215 c 2.449 -0.504 1.84 -1.215 3.832 -0.082 l 1.293 0.883 c 0.238 0.117 0.465 0.32 0.691 0.102 c 0.48 -0.453 0.957 -0.91 1.438 -1.359 c 0.215 -0.219 0.004 -0.469 -0.098 -0.637 l -0.02 0 l -0.941 -1.293 l -0.621 0.211 c -0.16 0.105 -0.371 0.066 -0.559 -0.18 l -1.359 -1.75 c -1.27 1.711 -3.324 2.816 -5.652 2.816 c -3.832 0 -6.961 -3.043 -6.961 -6.777 c 0 -2.652 1.578 -4.949 3.867 -6.06 l 0 -1.559 c -0.078 0.039 -0.168 0.059 -0.234 0.082 c -0.895 0.363 -0.953 0.527 -2.418 -0.293 l -1.293 -0.898 c -0.18 -0.078 -0.34 -0.227 -0.504 -0.188 m 4.441 3.484 c -1.945 1.07 -3.266 3.121 -3.266 5.453 c 0 3.441 2.883 6.254 6.43 6.254 c 2.191 0 4.113 -1.082 5.273 -2.727 l -0.063 -0.133 c -1.359 1.469 -2.895 2.422 -5.23 2.473 c -2.91 0.051 -5.855 -2.473 -5.871 -5.797 c -0.023 -2.145 0.992 -3.586 2.723 -4.613 l 0 -0.902 m 0.004 0"
               style="fill:#000;fill-opacity:1;stroke:none;fill-rule:evenodd"
               id="path33" />
          </g>
        </g>
      </g>
    </g>
  </g>
  <g
     id="g35">
    <g
       id="g37">
      <!-- color: #45a9f9 -->
      <g
         id="g39">
        <path
           d="m 25.91 12 l -4.172 0.297 l 0 16.617 l 4.172 -0.508 l 0 -7.254 c 1.809 2.73 3.262 5.27 5.684 7.91 l 4.32 -1.242 c -2.313 -2.68 -4.04 -5.04 -5.617 -7.613 c 1.641 -2.418 3.695 -4.848 5.703 -7.02 l -4.477 -1.098 c -2.09 2.355 -3.949 4.789 -5.613 7.234 m -9.504 -3.914 c -0.059 0.008 -0.129 0.043 -0.184 0.098 c -0.492 0.465 -0.957 0.93 -1.445 1.395 c -0.215 0.207 0.004 0.453 0.098 0.625 l 0.992 1.371 l 0.742 1 c 0.105 0.145 0.137 0.16 0.082 0.262 c -0.066 0.105 -0.121 0.191 -0.184 0.297 c -0.965 1.621 -0.289 1.746 -2.355 2.273 l -1.582 0.262 c -0.234 0.078 -0.539 0.07 -0.555 0.395 c 0 0.656 -0.02 1.309 -0.02 1.961 c -0.012 0.301 0.324 0.328 0.523 0.379 l 1.684 0.293 l 1.262 0.23 c 0.172 0.023 0.211 -0.016 0.25 0.113 c 0.516 2.176 1.191 1.676 0.066 3.578 l -0.906 1.262 c -0.121 0.219 -0.344 0.434 -0.117 0.656 c 0.477 0.473 0.934 0.949 1.414 1.422 c 0.211 0.207 0.484 -0.004 0.656 -0.098 l 1.395 -0.969 l 1.043 -0.703 c 0.145 -0.117 0.164 -0.145 0.27 -0.082 c 2.09 1.277 2.164 0.355 2.773 2.504 l 0.301 1.539 c 0.078 0.23 0.086 0.527 0.406 0.539 l 2.031 0 c 0.305 0 0.332 -0.348 0.371 -0.539 l 0.285 -1.637 l 0.203 -1.211 c 0.012 -0.117 0.008 -0.176 0.031 -0.215 c 2.449 -0.504 1.84 -1.215 3.832 -0.082 l 1.293 0.883 c 0.238 0.117 0.465 0.32 0.691 0.102 c 0.48 -0.453 0.957 -0.91 1.438 -1.359 c 0.215 -0.219 0.004 -0.469 -0.098 -0.637 l -0.02 0 l -0.941 -1.293 l -0.621 0.211 c -0.16 0.105 -0.371 0.066 -0.559 -0.18 l -1.359 -1.75 c -1.27 1.711 -3.324 2.816 -5.652 2.816 c -3.832 0 -6.961 -3.043 -6.961 -6.777 c 0 -2.652 1.578 -4.949 3.867 -6.06 l 0 -1.559 c -0.078 0.039 -0.168 0.059 -0.234 0.082 c -0.895 0.363 -0.953 0.527 -2.418 -0.293 l -1.293 -0.898 c -0.18 -0.078 -0.34 -0.227 -0.504 -0.188 m 4.441 3.484 c -1.945 1.07 -3.266 3.121 -3.266 5.453 c 0 3.441 2.883 6.254 6.43 6.254 c 2.191 0 4.113 -1.082 5.273 -2.727 l -0.063 -0.133 c -1.359 1.469 -2.895 2.422 -5.23 2.473 c -2.91 0.051 -5.855 -2.473 -5.871 -5.797 c -0.023 -2.145 0.992 -3.586 2.723 -4.613 l 0 -0.902 m 0.004 0"
           style="fill:#fff;fill-opacity:1;stroke:none;fill-rule:evenodd"
           id="path41" />
      </g>
    </g>
  </g>
</svg>
