<?xml version="1.0" encoding="UTF-8" standalone="no"?>
<!-- Created with Inkscape (http://www.inkscape.org/) -->

<svg
   xmlns:dc="http://purl.org/dc/elements/1.1/"
   xmlns:cc="http://creativecommons.org/ns#"
   xmlns:rdf="http://www.w3.org/1999/02/22-rdf-syntax-ns#"
   xmlns:svg="http://www.w3.org/2000/svg"
   xmlns="http://www.w3.org/2000/svg"
   xmlns:xlink="http://www.w3.org/1999/xlink"
   xmlns:sodipodi="http://sodipodi.sourceforge.net/DTD/sodipodi-0.dtd"
   xmlns:inkscape="http://www.inkscape.org/namespaces/inkscape"
   width="48"
   height="48"
   id="svg5453"
   version="1.1"
   inkscape:version="0.92.2 2405546, 2018-03-11"
   sodipodi:docname="gnome-logo-icon.svg">
  <defs
     id="defs5455">
    <linearGradient
       gradientTransform="translate(384.57143,499.798)"
       inkscape:collect="always"
       xlink:href="#linearGradient3765"
       id="linearGradient875"
       x1="24"
       y1="47"
       x2="24"
       y2="1"
       gradientUnits="userSpaceOnUse" />
    <linearGradient
       id="linearGradient3765">
      <stop
         style="stop-color:#424242;stop-opacity:1"
         offset="0"
         id="stop3767" />
      <stop
         style="stop-color:#767676;stop-opacity:1"
         offset="1"
         id="stop3769" />
    </linearGradient>
  </defs>
  <sodipodi:namedview
     id="base"
     pagecolor="#ffffff"
     bordercolor="#666666"
     borderopacity="1.0"
     inkscape:pageopacity="0"
     inkscape:pageshadow="2"
     inkscape:zoom="8.5979004"
     inkscape:cx="22.859108"
     inkscape:cy="11.457901"
     inkscape:document-units="px"
     inkscape:current-layer="layer1"
     showgrid="true"
     fit-margin-top="0"
     fit-margin-left="0"
     fit-margin-right="0"
     fit-margin-bottom="0"
     inkscape:window-width="1920"
     inkscape:window-height="1006"
     inkscape:window-x="0"
     inkscape:window-y="0"
     inkscape:window-maximized="1">
    <inkscape:grid
       type="xygrid"
       id="grid3000" />
  </sodipodi:namedview>
  <metadata
     id="metadata5458">
    <rdf:RDF>
      <cc:Work
         rdf:about="">
        <dc:format>image/svg+xml</dc:format>
        <dc:type
           rdf:resource="http://purl.org/dc/dcmitype/StillImage" />
        <dc:title />
      </cc:Work>
    </rdf:RDF>
  </metadata>
  <g
     inkscape:label="Capa 1"
     inkscape:groupmode="layer"
     id="layer1"
     transform="translate(-384.57143,-499.798)">
    <path
       inkscape:connector-curvature="0"
       style="fill:url(#linearGradient875);fill-opacity:1;stroke:none"
       d="m 408.57143,500.798 c -12.703,0 -23,10.297 -23,23 0,12.703 10.297,23 23,23 12.703,0 23,-10.297 23,-23 0,-12.703 -10.297,-23 -23,-23 z"
       id="path29" />
    <g
       transform="translate(384.57143,499.798)"
       id="g37">
      <path
         style="opacity:0.1"
         inkscape:connector-curvature="0"
         d="m 40.03,7.531 c 3.712,4.084 5.969,9.514 5.969,15.469 0,12.703 -10.297,23 -23,23 C 17.045,46 11.615,43.744 7.53,40.031 11.708,44.322 17.54,47 23.999,47 c 12.703,0 23,-10.298 23,-23 0,-6.462 -2.677,-12.291 -6.969,-16.469 z"
         id="path35" />
    </g>
    <path
       inkscape:connector-curvature="0"
       id="path4909-2"
       d="m 417.83601,508.96427 c -1.14084,0.0509 -2.44788,0.58098 -3.50235,1.44444 -1.29201,1.06072 -2.34151,3.74937 -2.06027,5.25263 0.14513,0.77279 0.72873,1.71558 1.28763,2.01007 1.04083,0.5445 2.93782,-0.36575 4.68706,-2.21658 1.88961,-2.00551 2.75738,-4.2105 2.11173,-5.45898 -0.39682,-0.76884 -1.38294,-1.10404 -2.5238,-1.03158 z m -9.32251,1.18453 c -1.58719,0 -2.42694,1.12007 -2.42084,3.24874 0.002,1.45589 0.51625,2.76609 1.18463,3.0887 0.497,0.24056 0.50943,0.21573 1.13317,0 1.03321,-0.3649 2.00388,-2.77035 1.80268,-4.38027 -0.16451,-1.31559 -0.73143,-1.95764 -1.69964,-1.95717 z m -6.2838,2.16357 c -0.29698,0.0285 -0.5948,0.23512 -0.87553,0.51344 -0.56596,0.57159 -0.57348,0.87796 -0.56658,1.95673 0.005,1.27587 0.31952,1.97571 1.18464,2.88887 0.64708,0.67707 1.11369,0.7211 1.69968,0.0679 0.63478,-0.671 0.83184,-1.72627 0.61803,-2.88339 -0.32608,-1.76457 -1.16924,-2.70323 -2.06024,-2.57444 z m -4.42947,3.8612 c -0.30812,0.0333 -0.58582,0.22845 -0.87557,0.51937 -0.76038,0.75632 -0.22857,2.85274 0.97853,3.9079 1.44089,1.26804 2.60436,0.0714 2.11182,-2.11037 -0.35048,-1.57739 -1.29038,-2.46684 -2.21478,-2.3169 z m 13.23705,2.7832 c -1.02034,-0.0127 -2.16378,0.0444 -3.34793,0.30599 -3.05038,0.62207 -5.49117,1.77408 -7.0563,3.34849 -0.9014,0.91096 -1.41708,1.74821 -1.85423,3.03559 -1.05797,3.13176 0.90143,7.57268 4.63553,10.6134 1.39125,1.12974 2.24017,1.63554 3.65695,2.11014 0.73463,0.24318 1.3172,0.30103 2.67831,0.25789 1.56033,-0.0345 1.87767,-0.0817 2.8843,-0.6172 1.47523,-0.73153 3.14733,-2.40745 3.86297,-3.86157 0.43657,-0.8877 0.50654,-1.26918 0.46354,-2.01107 -0.0736,-1.26962 -0.56476,-1.6084 -2.16321,-1.59853 -2.28201,0.0134 -3.23994,0.55489 -3.70844,2.16418 -0.35385,1.21769 -0.74505,1.6505 -1.54515,1.6505 -1.26813,0 -2.57537,-1.00706 -2.57537,-2.06361 0,-0.72681 1.17898,-1.81836 4.12052,-3.80714 4.14371,-2.8061 5.56836,-4.50743 5.35662,-6.38412 -0.21879,-1.947 -2.34718,-3.08858 -5.40811,-3.14294 z"
       style="fill:#ffffff;fill-opacity:1;stroke:none;stroke-width:0.73939329" />
  </g>
</svg>
