<?xml version="1.0" encoding="UTF-8" standalone="no"?>
<!-- Created with Inkscape (http://www.inkscape.org/) -->

<svg
   xmlns:dc="http://purl.org/dc/elements/1.1/"
   xmlns:cc="http://creativecommons.org/ns#"
   xmlns:rdf="http://www.w3.org/1999/02/22-rdf-syntax-ns#"
   xmlns:svg="http://www.w3.org/2000/svg"
   xmlns="http://www.w3.org/2000/svg"
   xmlns:xlink="http://www.w3.org/1999/xlink"
   xmlns:sodipodi="http://sodipodi.sourceforge.net/DTD/sodipodi-0.dtd"
   xmlns:inkscape="http://www.inkscape.org/namespaces/inkscape"
   width="48px"
   height="48px"
   id="svg2985"
   version="1.1"
   inkscape:version="0.48.5 r10040"
   sodipodi:docname="s.svg">
  <defs
     id="defs2987">
    <linearGradient
       id="linearGradient3770">
      <stop
         style="stop-color:#ca8549;stop-opacity:1;"
         offset="0"
         id="stop3772" />
      <stop
         style="stop-color:#eca261;stop-opacity:1;"
         offset="1"
         id="stop3774" />
    </linearGradient>
    <linearGradient
       inkscape:collect="always"
       xlink:href="#linearGradient3770"
       id="linearGradient3778"
       x1="4"
       y1="24"
       x2="44"
       y2="24"
       gradientUnits="userSpaceOnUse" />
  </defs>
  <sodipodi:namedview
     id="base"
     pagecolor="#ffffff"
     bordercolor="#666666"
     borderopacity="1.0"
     inkscape:pageopacity="0.0"
     inkscape:pageshadow="2"
     inkscape:zoom="14"
     inkscape:cx="32.311661"
     inkscape:cy="3.5594313"
     inkscape:current-layer="layer1"
     showgrid="true"
     inkscape:grid-bbox="true"
     inkscape:document-units="px"
     showguides="true"
     inkscape:guide-bbox="true"
     inkscape:window-width="448"
     inkscape:window-height="391"
     inkscape:window-x="0"
     inkscape:window-y="24"
     inkscape:window-maximized="0">
    <inkscape:grid
       type="xygrid"
       id="grid2993" />
    <sodipodi:guide
       orientation="0,1"
       position="23,44"
       id="guide2995" />
    <sodipodi:guide
       orientation="1,0"
       position="4,35"
       id="guide2997" />
    <sodipodi:guide
       orientation="0,1"
       position="27,4"
       id="guide2999" />
    <sodipodi:guide
       orientation="1,0"
       position="44,19"
       id="guide3001" />
  </sodipodi:namedview>
  <metadata
     id="metadata2990">
    <rdf:RDF>
      <cc:Work
         rdf:about="">
        <dc:format>image/svg+xml</dc:format>
        <dc:type
           rdf:resource="http://purl.org/dc/dcmitype/StillImage" />
        <dc:title />
      </cc:Work>
    </rdf:RDF>
  </metadata>
  <g
     id="layer1"
     inkscape:label="Layer 1"
     inkscape:groupmode="layer">
    <g
       style="font-size:62.26086807px;font-style:normal;font-variant:normal;font-weight:normal;font-stretch:normal;line-height:125%;letter-spacing:0px;word-spacing:0px;fill:#333333;fill-opacity:1;stroke:none;font-family:'方正超粗黑_GBK';-inkscape-font-specification:'方正超粗黑_GBK'"
       id="text3149">
      <path
         d="m 14.107337,44.756793 1.702445,0 c 0.324269,-0.648549 0.729612,-0.972824 1.216033,-0.972826 0.324267,2e-6 1.053886,0.162139 2.188859,0.486413 3.567015,0.810689 6.404421,1.216033 8.512228,1.216033 8.268994,-0.324275 12.727776,-4.053438 13.376358,-11.1875 -3.2e-5,-2.918464 -1.216063,-5.674802 -3.648098,-8.269021 -1.945678,-1.945631 -5.188429,-4.053419 -9.72826,-6.32337 -5.026282,-2.756312 -7.539413,-5.188375 -7.539402,-7.296195 0.324264,-2.7563053 2.350983,-4.2155429 6.080163,-4.3777174 5.026245,0.1621745 8.431133,2.9185124 10.214673,8.2690214 l 2.432065,0 -1.216032,-9.971467 -1.216033,0 c -0.324302,0.1621762 -0.405371,0.2432449 -0.243206,0.2432065 -0.48644,0.3243134 -0.891784,0.486451 -1.216033,0.486413 -0.162163,3.8e-5 -0.729645,-0.1620996 -1.702445,-0.486413 -2.9185,-0.8106492 -5.5127,-1.215993 -7.782609,-1.2160326 -7.944755,0.4864522 -12.16033,3.89134 -12.646739,10.2146741 0.972821,5.999117 4.620916,10.052555 10.944293,12.160325 5.350524,2.107805 8.350068,5.107349 8.998642,8.998641 -0.324299,3.891309 -2.675293,5.918028 -7.052989,6.080163 -5.188418,3e-6 -8.755443,-3.08061 -10.701087,-9.241847 l -2.432065,0 1.459239,11.187499"
         style="font-weight:bold;fill:#333333;font-family:'刘德华字体叶根友仿版';-inkscape-font-specification:'刘德华字体叶根友仿版 Bold'"
         id="path2998" />
    </g>
    <text
       xml:space="preserve"
       style="font-size:40px;font-style:normal;font-weight:normal;line-height:125%;letter-spacing:0px;word-spacing:0px;fill:#000000;fill-opacity:1;stroke:none;font-family:Sans"
       x="10.00051"
       y="26.988827"
       id="text3141"
       sodipodi:linespacing="125%"><tspan
         sodipodi:role="line"
         id="tspan3143" /></text>
    <g
       style="font-size:62.26086807px;font-style:normal;font-variant:normal;font-weight:normal;font-stretch:normal;line-height:125%;letter-spacing:0px;word-spacing:0px;fill:#666666;fill-opacity:1;stroke:none;font-family:'方正超粗黑_GBK';-inkscape-font-specification:'方正超粗黑_GBK'"
       id="text3145">
      <path
         d="m 13.107337,43.756793 1.702445,0 c 0.324269,-0.648549 0.729612,-0.972824 1.216033,-0.972826 0.324267,2e-6 1.053886,0.162139 2.188859,0.486413 3.567015,0.810689 6.404421,1.216033 8.512228,1.216033 8.268994,-0.324275 12.727776,-4.053438 13.376358,-11.1875 -3.2e-5,-2.918464 -1.216063,-5.674802 -3.648098,-8.269021 -1.945678,-1.945631 -5.188429,-4.053419 -9.72826,-6.32337 -5.026282,-2.756312 -7.539413,-5.188375 -7.539402,-7.296195 0.324264,-2.7563053 2.350983,-4.2155429 6.080163,-4.3777174 5.026245,0.1621745 8.431133,2.9185122 10.214673,8.2690214 l 2.432065,0 -1.216032,-9.971467 -1.216033,0 c -0.324302,0.1621762 -0.405371,0.2432449 -0.243206,0.2432065 -0.48644,0.3243134 -0.891784,0.486451 -1.216033,0.486413 -0.162163,3.8e-5 -0.729645,-0.1620996 -1.702445,-0.486413 -2.9185,-0.8106492 -5.5127,-1.215993 -7.782609,-1.2160326 -7.944755,0.4864522 -12.16033,3.89134 -12.646739,10.2146741 0.972821,5.999117 4.620916,10.052555 10.944293,12.160325 5.350524,2.107805 8.350068,5.107349 8.998642,8.998641 -0.324299,3.891309 -2.675293,5.918028 -7.052989,6.080163 -5.188418,3e-6 -8.755443,-3.08061 -10.701087,-9.241847 l -2.432065,0 1.459239,11.187499"
         style="font-weight:bold;fill:#666666;font-family:'刘德华字体叶根友仿版';-inkscape-font-specification:'刘德华字体叶根友仿版 Bold'"
         id="path3001" />
    </g>
  </g>
</svg>
