<?xml version="1.0" encoding="UTF-8" standalone="no"?>
<!-- Created with Inkscape (http://www.inkscape.org/) -->

<svg
   xmlns:dc="http://purl.org/dc/elements/1.1/"
   xmlns:cc="http://creativecommons.org/ns#"
   xmlns:rdf="http://www.w3.org/1999/02/22-rdf-syntax-ns#"
   xmlns:svg="http://www.w3.org/2000/svg"
   xmlns="http://www.w3.org/2000/svg"
   xmlns:xlink="http://www.w3.org/1999/xlink"
   xmlns:sodipodi="http://sodipodi.sourceforge.net/DTD/sodipodi-0.dtd"
   xmlns:inkscape="http://www.inkscape.org/namespaces/inkscape"
   width="48"
   height="48"
   id="svg5453"
   version="1.1"
   inkscape:version="0.48.5 r10040"
   sodipodi:docname="distributor-logo-kubuntu.svg">
  <defs
     id="defs5455">
    <linearGradient
       inkscape:collect="always"
       xlink:href="#linearGradient4142"
       id="linearGradient4612"
       x1="408.72192"
       y1="-547.79987"
       x2="408.72192"
       y2="-499.80991"
       gradientUnits="userSpaceOnUse" />
    <linearGradient
       id="linearGradient4142">
      <stop
         id="stop4144"
         offset="0"
         style="stop-color:#0a79d6;stop-opacity:0.99803919" />
      <stop
         id="stop4146"
         offset="1"
         style="stop-color:#2995ed;stop-opacity:1" />
    </linearGradient>
    <linearGradient
       inkscape:collect="always"
       xlink:href="#linearGradient4142"
       id="linearGradient4218"
       x1="380.01373"
       y1="573.58313"
       x2="380.01373"
       y2="484.34549"
       gradientUnits="userSpaceOnUse"
       gradientTransform="matrix(0.44356655,0,0,0.44356655,259.80378,289.11097)" />
  </defs>
  <sodipodi:namedview
     id="base"
     pagecolor="#ffffff"
     bordercolor="#666666"
     borderopacity="1.0"
     inkscape:pageopacity="0"
     inkscape:pageshadow="2"
     inkscape:zoom="8.0000001"
     inkscape:cx="25.423373"
     inkscape:cy="14.951863"
     inkscape:document-units="px"
     inkscape:current-layer="layer1"
     showgrid="true"
     fit-margin-top="0"
     fit-margin-left="0"
     fit-margin-right="0"
     fit-margin-bottom="0"
     inkscape:window-width="1301"
     inkscape:window-height="744"
     inkscape:window-x="65"
     inkscape:window-y="24"
     inkscape:window-maximized="1">
    <inkscape:grid
       type="xygrid"
       id="grid3768" />
  </sodipodi:namedview>
  <metadata
     id="metadata5458">
    <rdf:RDF>
      <cc:Work
         rdf:about="">
        <dc:format>image/svg+xml</dc:format>
        <dc:type
           rdf:resource="http://purl.org/dc/dcmitype/StillImage" />
        <dc:title />
      </cc:Work>
    </rdf:RDF>
  </metadata>
  <g
     inkscape:label="Capa 1"
     inkscape:groupmode="layer"
     id="layer1"
     transform="translate(-384.57143,-499.798)">
    <path
       inkscape:connector-curvature="0"
       id="path4220"
       d="m 408.57101,504.46134 c -10.93151,0 -19.7933,8.86192 -19.7933,19.79328 0,10.93123 8.86179,19.79416 19.7933,19.79416 10.93193,0 19.79414,-8.86293 19.79414,-19.79416 0,-10.93136 -8.86221,-19.79328 -19.79414,-19.79328 z m -1.19989,3.9713 c 0.0904,0.009 0.17213,0.0656 0.21312,0.15162 l 1.95446,4.10904 c 0.95214,0.0279 1.90755,0.19209 2.839,0.48949 l 3.14049,-3.13615 c 0.0865,-0.0868 0.22188,-0.10321 0.32747,-0.0389 l 2.4968,1.51784 c 0.10835,0.0659 0.15494,0.19904 0.11259,0.31794 l -1.51869,4.27539 c 0.57336,0.63641 1.05943,1.33423 1.45286,2.07576 l 4.66178,0.004 c 0.12339,10e-5 0.23058,0.085 0.2599,0.20445 l 0.69134,2.839 c 0.0305,0.123 -0.0293,0.2502 -0.14381,0.30495 l -5.83915,1.27785 c -0.69053,-4.5978 -4.65779,-8.12367 -9.4483,-8.12367 -1.06142,0 -2.08092,0.17607 -3.0348,0.49555 l -0.0494,-0.0303 -1.25099,-5.77503 c 4.4e-4,-0.12365 0.0852,-0.23072 0.20446,-0.25991 l 2.839,-0.69134 c 0.0308,-0.008 0.0617,-0.0103 0.0919,-0.006 z m -9.25859,4.18182 c 0.0594,-0.006 0.12095,0.008 0.17413,0.0424 l 4.44434,4.04841 c -2.25583,1.74758 -3.71401,4.47491 -3.71401,7.5493 0,2.77191 1.18722,5.26072 3.07291,7.00609 l -0.003,0.0641 -3.99037,4.41314 c -0.1059,0.0638 -0.24145,0.0477 -0.32834,-0.0389 l -2.06622,-2.06622 c -0.09,-0.0896 -0.10424,-0.22983 -0.0346,-0.33615 l 2.49592,-3.80583 c -0.47086,-0.82803 -0.82791,-1.72923 -1.05781,-2.6796 l -4.3109,-1.05347 c -0.11902,-0.0288 -0.2036,-0.13631 -0.2036,-0.25989 l 0,-2.92131 c 0,-0.12686 0.0887,-0.23687 0.21226,-0.2625 l 4.4426,-0.92352 c 0.24583,-0.82057 0.58968,-1.59861 1.01881,-2.32006 l -2.41969,-3.9843 c -0.064,-0.10552 -0.048,-0.24119 0.0389,-0.32835 l 2.06622,-2.06622 c 0.0446,-0.045 0.10257,-0.0709 0.16201,-0.0771 z m 19.78809,13.70033 5.79496,1.29691 c 0.1081,0.06 0.16085,0.18639 0.12909,0.30496 l -0.75893,2.82167 c -0.0328,0.12262 -0.14688,0.20475 -0.27375,0.19752 l -4.5431,-0.26251 c -0.4824,0.82137 -1.08463,1.58058 -1.79332,2.25423 l 1.23886,4.26153 c 0.0344,0.11761 -0.0159,0.24412 -0.123,0.30582 l -2.53231,1.45891 c -0.10989,0.0634 -0.24877,0.0406 -0.33268,-0.0537 l -3.01833,-3.38738 c -0.83373,0.19663 -1.6791,0.28716 -2.51846,0.27549 l -2.24469,4.08567 c -0.0594,0.10822 -0.18518,0.16084 -0.30409,0.12908 l -2.82167,-0.75891 c -0.12249,-0.0325 -0.20548,-0.14611 -0.19839,-0.2729 l 1.5265,-5.77677 0.0287,-0.0156 c 1.06074,0.40626 2.21153,0.6307 3.41513,0.6307 4.56927,0 8.3873,-3.20864 9.32961,-7.49473 z"
       style="fill:#000000;fill-opacity:0.23529412" />
    <path
       style="fill:url(#linearGradient4218);fill-opacity:1"
       d="m 408.57101,503.94722 c -10.93151,0 -19.7933,8.86192 -19.7933,19.79328 0,10.93123 8.86179,19.79416 19.7933,19.79416 10.93193,0 19.79414,-8.86293 19.79414,-19.79416 0,-10.93136 -8.86221,-19.79328 -19.79414,-19.79328 z m -1.19989,3.9713 c 0.0904,0.009 0.17213,0.0655 0.21312,0.15161 l 1.95446,4.10905 c 0.95214,0.0279 1.90755,0.19209 2.839,0.48948 l 3.14049,-3.13614 c 0.0865,-0.0868 0.22188,-0.10321 0.32747,-0.0389 l 2.4968,1.51783 c 0.10835,0.0659 0.15494,0.19905 0.11259,0.31795 l -1.51869,4.27539 c 0.57336,0.63641 1.05943,1.33423 1.45286,2.07576 l 4.66178,0.004 c 0.12339,10e-5 0.23058,0.085 0.2599,0.20445 l 0.69134,2.839 c 0.0305,0.123 -0.0293,0.25019 -0.14381,0.30495 l -5.83915,1.27785 c -0.69053,-4.5978 -4.65779,-8.12368 -9.4483,-8.12368 -1.06142,0 -2.08092,0.17608 -3.0348,0.49555 l -0.0494,-0.0303 -1.25099,-5.77504 c 4.4e-4,-0.12364 0.0852,-0.23071 0.20446,-0.2599 l 2.839,-0.69134 c 0.0308,-0.008 0.0617,-0.0103 0.0919,-0.006 z m -9.25859,4.18182 c 0.0594,-0.006 0.12095,0.008 0.17413,0.0424 l 4.44434,4.0484 c -2.25583,1.74758 -3.71401,4.47491 -3.71401,7.5493 0,2.77192 1.18722,5.26072 3.07291,7.00609 l -0.003,0.0641 -3.99037,4.41314 c -0.1059,0.0638 -0.24145,0.0477 -0.32834,-0.0389 l -2.06622,-2.06623 c -0.09,-0.0896 -0.10424,-0.22982 -0.0346,-0.33614 l 2.49592,-3.80583 c -0.47086,-0.82804 -0.82791,-1.72923 -1.05781,-2.6796 l -4.3109,-1.05347 c -0.11902,-0.0288 -0.2036,-0.13631 -0.2036,-0.25989 l 0,-2.92131 c 0,-0.12686 0.0887,-0.23687 0.21226,-0.2625 l 4.4426,-0.92352 c 0.24583,-0.82058 0.58968,-1.59861 1.01881,-2.32007 l -2.41969,-3.98429 c -0.064,-0.10553 -0.048,-0.24119 0.0389,-0.32835 l 2.06622,-2.06622 c 0.0446,-0.045 0.10257,-0.0709 0.16201,-0.0771 z m 19.78809,13.70033 5.79496,1.29691 c 0.1081,0.06 0.16085,0.18638 0.12909,0.30495 l -0.75893,2.82168 c -0.0328,0.12261 -0.14688,0.20474 -0.27375,0.19752 l -4.5431,-0.26251 c -0.4824,0.82136 -1.08463,1.58058 -1.79332,2.25422 l 1.23886,4.26154 c 0.0344,0.11761 -0.0159,0.24412 -0.123,0.30581 l -2.53231,1.45892 c -0.10989,0.0634 -0.24877,0.0406 -0.33268,-0.0537 l -3.01833,-3.38739 c -0.83373,0.19664 -1.6791,0.28717 -2.51846,0.2755 l -2.24469,4.08566 c -0.0594,0.10823 -0.18518,0.16085 -0.30409,0.12909 l -2.82167,-0.75891 c -0.12249,-0.0325 -0.20548,-0.14612 -0.19839,-0.2729 l 1.5265,-5.77677 0.0287,-0.0155 c 1.06074,0.40626 2.21153,0.6307 3.41513,0.6307 4.56927,0 8.3873,-3.20864 9.32961,-7.49473 z"
       id="path2819-8-3-8"
       inkscape:connector-curvature="0" />
    <path
       style="fill:#0e7cd9;fill-opacity:0.31372549"
       d="m 407.37148,506.89137 c -0.0302,-0.004 -0.062,-0.003 -0.0929,0.005 l -2.83922,0.69286 c -0.11924,0.0292 -0.2029,0.13492 -0.20334,0.25857 l 0.17071,0.78826 c 0.0122,-0.005 0.0195,-0.0169 0.0326,-0.0201 l 2.83922,-0.69035 c 0.0308,-0.008 0.0627,-0.009 0.0929,-0.005 l 0,-0.003 c 0.0904,0.009 0.17239,0.0671 0.21338,0.15313 l 1.95306,4.10696 c 0.95214,0.0279 1.90777,0.19213 2.83922,0.48952 l 3.14047,-3.13545 c 0.0865,-0.0867 0.22327,-0.10192 0.32886,-0.0376 l 2.37982,1.44597 0.22845,-0.64014 c 0.0423,-0.11891 -0.005,-0.25037 -0.11297,-0.31631 l -2.4953,-1.51877 c -0.10559,-0.0643 -0.24236,-0.0491 -0.32886,0.0377 l -3.14047,3.13795 c -0.93145,-0.29739 -1.88708,-0.46163 -2.83922,-0.48952 l -1.95306,-4.10947 c -0.041,-0.0861 -0.12303,-0.14162 -0.21338,-0.15062 z m -9.25823,4.17976 c -0.0594,0.006 -0.11857,0.0328 -0.16317,0.0778 l -2.06603,2.06603 c -0.0869,0.0872 -0.10167,0.22333 -0.0377,0.32886 l 0.27865,0.45939 1.82504,-1.82503 c 0.0446,-0.045 0.10373,-0.0716 0.16317,-0.0778 0.0594,-0.006 0.12003,0.008 0.17322,0.0427 l 3.86596,3.52205 c 0.1888,-0.17183 0.3753,-0.34553 0.57738,-0.50208 l -4.44334,-4.04922 c -0.0532,-0.0347 -0.11384,-0.0491 -0.17322,-0.0427 z m 19.07626,3.82328 -0.25355,0.71044 c 0.57337,0.6364 1.06007,1.33454 1.45351,2.07607 l 4.66174,0.003 c 0.12339,10e-5 0.22925,0.0863 0.25857,0.20585 l 0.51714,2.12377 0.0326,-0.008 c 0.11451,-0.0548 0.17355,-0.18326 0.14309,-0.30627 l -0.69286,-2.83922 c -0.0293,-0.1195 -0.13518,-0.20324 -0.25857,-0.20334 l -4.66174,-0.005 c -0.33063,-0.62315 -0.74167,-1.20635 -1.19996,-1.75726 z m -19.21182,3.19068 c -0.29019,0.56284 -0.54571,1.14538 -0.73051,1.76227 l -4.44335,0.92382 c -0.12357,0.0256 -0.21338,0.13673 -0.21338,0.26359 l 0,1.02673 c 0,-0.12686 0.0898,-0.23544 0.21338,-0.26107 l 4.44335,-0.92382 c 0.24582,-0.82058 0.58757,-1.59812 1.01669,-2.31957 l -0.28618,-0.47195 z m -9.17538,5.14122 c -0.004,0.17268 -0.0251,0.34088 -0.0251,0.51463 0,10.93122 8.86271,19.79422 19.79422,19.79422 10.93193,0 19.79423,-8.863 19.79423,-19.79422 0,-0.17375 -0.0207,-0.34195 -0.0251,-0.51463 -0.27556,10.69109 -9.01095,19.2796 -19.76912,19.2796 -10.75775,0 -19.49358,-8.58851 -19.76912,-19.2796 z m 10.2448,0.0276 c -0.008,0.16286 -0.0301,0.32205 -0.0301,0.48701 0,2.53838 1.00245,4.83197 2.61831,6.54201 l 0.45187,-0.49956 0.003,-0.0653 c -1.76119,-1.63014 -2.89814,-3.91207 -3.04256,-6.46419 z m 18.85283,1.51877 c -0.9423,4.28608 -4.75923,7.49344 -9.32851,7.49344 -1.2036,0 -2.35587,-0.22385 -3.41661,-0.6301 l -0.0276,0.0151 -1.5263,5.77886 c -0.007,0.12678 0.0758,0.2386 0.19832,0.27112 l 1.32798,-5.02073 0.0276,-0.0151 c 1.06074,0.40626 2.21301,0.63011 3.41661,0.63011 4.56928,0 8.38621,-3.20987 9.32851,-7.49595 l 5.73368,1.28279 0.19079,-0.70792 c 0.0317,-0.11857 -0.0199,-0.24373 -0.12803,-0.30375 l -5.79644,-1.29786 z m -20.02015,3.6099 -2.21163,3.37142 c -0.0697,0.10632 -0.0548,0.24681 0.0351,0.33639 l 0.25355,0.25355 2.20661,-3.3664 c -0.10806,-0.19002 -0.18777,-0.39752 -0.28367,-0.59496 z m 18.80263,3.78312 c -0.079,0.0801 -0.14405,0.17069 -0.22593,0.24853 l 1.03929,3.57978 0.0753,-0.0427 c 0.10706,-0.0617 0.15745,-0.18615 0.123,-0.30375 l -1.01167,-3.48188 z"
       id="path4228"
       inkscape:connector-curvature="0" />
  </g>
</svg>
