<?xml version="1.0" encoding="UTF-8" standalone="no"?>
<!-- Created with Inkscape (http://www.inkscape.org/) -->

<svg
   xmlns:dc="http://purl.org/dc/elements/1.1/"
   xmlns:cc="http://creativecommons.org/ns#"
   xmlns:rdf="http://www.w3.org/1999/02/22-rdf-syntax-ns#"
   xmlns:svg="http://www.w3.org/2000/svg"
   xmlns="http://www.w3.org/2000/svg"
   xmlns:xlink="http://www.w3.org/1999/xlink"
   xmlns:sodipodi="http://sodipodi.sourceforge.net/DTD/sodipodi-0.dtd"
   xmlns:inkscape="http://www.inkscape.org/namespaces/inkscape"
   width="48"
   height="48"
   id="svg5453"
   version="1.1"
   inkscape:version="0.48.5 r10040"
   sodipodi:docname="distributor-logo-lubuntu.svg">
  <defs
     id="defs5455">
    <linearGradient
       inkscape:collect="always"
       id="linearGradient4606">
      <stop
         style="stop-color:#2374c3;stop-opacity:0.99901962"
         offset="0"
         id="stop4608" />
      <stop
         style="stop-color:#1b90e3;stop-opacity:0.99803919"
         offset="1"
         id="stop4610" />
    </linearGradient>
    <linearGradient
       inkscape:collect="always"
       xlink:href="#linearGradient4606"
       id="linearGradient4612"
       x1="408.72192"
       y1="-547.79987"
       x2="408.72192"
       y2="-499.80991"
       gradientUnits="userSpaceOnUse" />
    <linearGradient
       inkscape:collect="always"
       xlink:href="#linearGradient4606"
       id="linearGradient4656"
       x1="30.513618"
       y1="39.392342"
       x2="30.513618"
       y2="8.5"
       gradientUnits="userSpaceOnUse"
       gradientTransform="matrix(1.3168349,0,0,1.3168349,376.9674,492.13066)" />
    <inkscape:perspective
       id="perspective2988"
       inkscape:persp3d-origin="372.04724 : 350.78739 : 1"
       inkscape:vp_z="744.09448 : 526.18109 : 1"
       inkscape:vp_y="0 : 1000 : 0"
       inkscape:vp_x="0 : 526.18109 : 1"
       sodipodi:type="inkscape:persp3d" />
    <inkscape:perspective
       sodipodi:type="inkscape:persp3d"
       inkscape:vp_x="0 : 0.5 : 1"
       inkscape:vp_y="0 : 1000 : 0"
       inkscape:vp_z="1 : 0.5 : 1"
       inkscape:persp3d-origin="0.5 : 0.33333333 : 1"
       id="perspective2955" />
    <linearGradient
       id="linearGradient3431">
      <stop
         style="stop-color:#3d3d3d;stop-opacity:1;"
         offset="0"
         id="stop3433" />
      <stop
         style="stop-color:#000000;stop-opacity:0.11400651;"
         offset="1"
         id="stop3435" />
    </linearGradient>
    <linearGradient
       id="linearGradient3312">
      <stop
         id="stop3314"
         offset="0"
         style="stop-color:#c7f994;stop-opacity:1;" />
      <stop
         id="stop3316"
         offset="1"
         style="stop-color:#87cf3e;stop-opacity:1;" />
    </linearGradient>
  </defs>
  <sodipodi:namedview
     id="base"
     pagecolor="#ffffff"
     bordercolor="#666666"
     borderopacity="1.0"
     inkscape:pageopacity="0"
     inkscape:pageshadow="2"
     inkscape:zoom="8"
     inkscape:cx="2.4724994"
     inkscape:cy="7.9170957"
     inkscape:document-units="px"
     inkscape:current-layer="layer1"
     showgrid="true"
     fit-margin-top="0"
     fit-margin-left="0"
     fit-margin-right="0"
     fit-margin-bottom="0"
     inkscape:window-width="1301"
     inkscape:window-height="744"
     inkscape:window-x="65"
     inkscape:window-y="24"
     inkscape:window-maximized="1">
    <inkscape:grid
       type="xygrid"
       id="grid3776" />
  </sodipodi:namedview>
  <metadata
     id="metadata5458">
    <rdf:RDF>
      <cc:Work
         rdf:about="">
        <dc:format>image/svg+xml</dc:format>
        <dc:type
           rdf:resource="http://purl.org/dc/dcmitype/StillImage" />
        <dc:title />
      </cc:Work>
    </rdf:RDF>
  </metadata>
  <g
     inkscape:label="Capa 1"
     inkscape:groupmode="layer"
     id="layer1"
     transform="translate(-384.57143,-499.798)">
    <path
       id="path4664"
       d="m 408.57143,503.98112 c -10.93241,0 -19.81914,8.65795 -20.23862,19.48761 6.72229,-4.744 18.15647,-12.52821 20.99221,-12.7337 0.94097,-1.19189 4.17516,-2.15551 4.76066,-2.13471 l -1.69748,2.13471 c 0,0 -0.0283,2.15371 -0.65585,2.57195 5.8566,3.91393 8.65464,17.96313 9.85055,26.49102 l -0.5041,0.40379 c 4.7251,-3.7128 7.77241,-9.46548 7.77241,-15.9409 0,-11.19993 -9.07986,-20.27977 -20.27978,-20.27977 z m -0.28805,16.66104 c -1.57542,0.047 -4.77687,4.75505 -8.42826,9.79654 -1.75466,2.42265 -4.02875,5.73785 -5.69943,8.03475 l -1.20367,-1.31427 c 3.43536,-5.62524 7.71174,-12.48862 7.50493,-12.7414 -0.0442,-0.0211 -0.10192,-0.0632 -0.1646,-0.054 -1.16366,0.17633 -5.83495,5.99784 -9.17669,10.18233 3.52836,5.97403 10.01514,9.99457 17.45577,9.99457 4.51674,0 8.67388,-1.49482 12.04441,-3.99166 -2.49619,-7.62828 -7.31742,-19.82415 -12.16786,-19.85283 -0.0472,-0.009 -0.11377,-0.054 -0.1646,-0.054 z m -11.76665,1.97012 c -1.44093,-0.0105 -5.12438,1.29217 -8.18392,2.47163 0.12168,3.02356 0.89693,5.87374 2.20158,8.41539 0.61519,-0.92938 1.67911,-2.45571 2.31476,-3.38981 2.43119,-3.57279 4.82261,-6.73467 4.26942,-7.38662 -0.0988,-0.10891 -0.31832,-0.10928 -0.60184,-0.11059 z m -8.20707,1.28082 c -0.003,0.12365 -0.018,0.24361 -0.018,0.36779 0,0.17023 0.0216,0.33488 0.0257,0.5041 l -0.008,-0.87189 z m 2.26331,9.6885 c 0.12695,0.24447 0.25967,0.4842 0.39608,0.72272 l -0.39608,-0.72272 z"
       style="color:#000000;fill:#000000;fill-opacity:0.23529412;fill-rule:evenodd;stroke:none;stroke-width:1.41732287;marker:none;visibility:visible;display:inline;overflow:visible;enable-background:accumulate"
       inkscape:connector-curvature="0" />
    <path
       style="color:#000000;fill:url(#linearGradient4656);fill-opacity:1;fill-rule:evenodd;stroke:none;stroke-width:1.41732287;marker:none;visibility:visible;display:inline;overflow:visible;enable-background:accumulate"
       d="m 408.57143,503.45492 c -10.93241,0 -19.81914,8.65795 -20.23862,19.48762 6.72229,-4.744 18.15647,-12.52821 20.9922,-12.73369 0.94098,-1.19191 4.17517,-2.15552 4.76067,-2.13472 l -1.69748,2.13472 c 0,0 -0.0283,2.1537 -0.65585,2.57194 5.8566,3.91392 8.65463,17.96312 9.85054,26.49101 l -0.5041,0.4038 c 4.72512,-3.7128 7.77242,-9.46549 7.77242,-15.94091 0,-11.19992 -9.07985,-20.27977 -20.27978,-20.27977 z m -0.28805,16.66105 c -1.57542,0.047 -4.77688,4.75504 -8.42826,9.79653 -1.75466,2.42266 -4.02875,5.73785 -5.69943,8.03475 l -1.20367,-1.31426 c 3.43536,-5.62524 7.71174,-12.48863 7.50493,-12.74141 -0.0443,-0.0211 -0.10192,-0.0632 -0.1646,-0.054 -1.16366,0.17634 -5.83495,5.99784 -9.17669,10.18233 3.52836,5.97404 10.01515,9.99457 17.45577,9.99457 4.51673,0 8.67387,-1.49481 12.04441,-3.99166 -2.49619,-7.62827 -7.31742,-19.82414 -12.16786,-19.85283 -0.0472,-0.009 -0.11377,-0.054 -0.1646,-0.054 z m -11.76664,1.97011 c -1.44094,-0.0105 -5.12439,1.29217 -8.18393,2.47164 0.12167,3.02356 0.89692,5.87374 2.20159,8.41539 0.61518,-0.92938 1.6791,-2.45571 2.31475,-3.38982 2.43119,-3.57279 4.82261,-6.73467 4.26942,-7.38662 -0.0988,-0.1089 -0.31832,-0.10927 -0.60183,-0.11059 z m -8.20707,1.28083 c -0.002,0.12365 -0.018,0.2436 -0.018,0.36778 0,0.17023 0.0216,0.33489 0.0257,0.50411 l -0.008,-0.87189 z m 2.26331,9.68851 c 0.12687,0.24446 0.25966,0.48419 0.39608,0.72271 l -0.39608,-0.72271 z"
       id="path3910-7"
       inkscape:connector-curvature="0" />
    <path
       style="color:#000000;fill:#2274c3;fill-opacity:0.31372549;fill-rule:evenodd;stroke:none;stroke-width:1.41732287;marker:none;visibility:visible;display:inline;overflow:visible;enable-background:accumulate"
       d="m 414.08568,507.01964 c -0.5855,-0.0208 -3.81969,0.9428 -4.76067,2.13471 -2.8233,0.20458 -14.1582,7.9147 -20.89189,12.66425 -0.0352,0.3741 -0.0856,0.74422 -0.10031,1.12394 6.72229,-4.744 18.15647,-12.52821 20.9922,-12.73369 0.68178,-0.86359 2.55039,-1.59523 3.76018,-1.93153 l 1.00049,-1.25768 z m -1.94953,5.02815 c -0.0955,0.32517 -0.21887,0.60974 -0.4038,0.733 5.65101,3.77653 8.43718,16.94517 9.70137,25.52911 0.0493,-0.0406 0.0951,-0.0849 0.14403,-0.12603 -1.16989,-8.32826 -3.87182,-21.85945 -9.4416,-26.13608 z m 9.4416,26.13608 c 0.001,0.0104 0.004,0.023 0.005,0.0334 l -0.14402,0.11573 c 0.0431,0.29276 0.0994,0.62138 0.13888,0.90276 4.42938,-3.71906 7.27346,-9.2649 7.27346,-15.50111 0,-0.13202 -0.0181,-0.25951 -0.0206,-0.39093 -0.19311,5.96639 -2.98112,11.25382 -7.25288,14.84011 z m 0,1.05193 c -0.1699,0.14265 -0.32441,0.30264 -0.49896,0.4398 l 0.5041,-0.4038 c -0.002,-0.0112 -0.004,-0.0248 -0.005,-0.036 z m -24.58778,-17.09314 c -0.58322,1.34539 -2.34653,3.7493 -4.14082,6.38614 -0.63565,0.93409 -1.69957,2.46044 -2.31475,3.38982 -1.15604,-2.25212 -1.8681,-4.75433 -2.10642,-7.39691 -0.0309,0.0119 -0.0644,0.0241 -0.0952,0.036 0.12167,3.02356 0.89693,5.87374 2.20159,8.41539 0.084,-0.12695 0.2178,-0.31674 0.31635,-0.46295 0.62286,-0.92408 1.44958,-2.12036 1.9984,-2.92687 2.43119,-3.57279 4.82261,-6.73467 4.26942,-7.38662 -0.0275,-0.0303 -0.0836,-0.0382 -0.1286,-0.054 z m -8.6803,1.22425 c -0.002,0.12365 -0.018,0.2436 -0.018,0.36778 0,0.17023 0.0216,0.33489 0.0257,0.50411 l -0.008,-0.87189 z m 11.98268,0.47066 c -0.0961,0.0146 -0.22398,0.0797 -0.36522,0.16718 -1.21493,2.22019 -4.32918,7.24452 -6.96996,11.5686 0.0298,0.0361 0.06,0.0721 0.09,0.10802 l 0.29063,0.31892 c 3.35954,-5.4922 7.31814,-11.86546 7.11913,-12.10871 -0.0443,-0.0211 -0.10192,-0.0632 -0.1646,-0.054 z m -7.24516,11.8438 -0.0952,-0.10288 c 0.001,-0.002 0.004,-0.003 0.005,-0.005 -0.52926,-0.64149 -1.01978,-1.31513 -1.46858,-2.01898 -0.1196,0.14964 -0.25637,0.31956 -0.37293,0.46553 0.54319,0.9197 1.1654,1.78581 1.84151,2.60537 0.12397,-0.203 0.24445,-0.39855 0.37036,-0.6044 -0.0964,-0.11036 -0.18627,-0.22705 -0.28034,-0.3395 z m -0.09,0.9439 c -0.002,0.003 -0.004,0.005 -0.005,0.008 l 0.10803,0.11831 c -0.0349,-0.0416 -0.0684,-0.0842 -0.10288,-0.12603 z m 0.10288,0.12603 c 3.71593,4.4321 9.27474,7.26317 15.51138,7.26317 4.51673,0 8.67387,-1.49481 12.04441,-3.99166 -0.0876,-0.26768 -0.19998,-0.57567 -0.2932,-0.85388 -3.31825,2.37111 -7.36187,3.79104 -11.75121,3.79104 -5.42982,0 -10.3462,-2.14595 -13.98108,-5.62484 -0.13383,0.18603 -0.30733,0.43707 -0.43466,0.61212 l -1.09564,-1.19595 z m -2.48707,-3.69588 c 0.12687,0.24446 0.25966,0.48419 0.39608,0.72271 l -0.39608,-0.72271 z"
       id="path4672"
       inkscape:connector-curvature="0" />
  </g>
</svg>
