<?xml version="1.0" encoding="UTF-8" standalone="no"?>
<!-- Created with Inkscape (http://www.inkscape.org/) -->

<svg
   xmlns:dc="http://purl.org/dc/elements/1.1/"
   xmlns:cc="http://creativecommons.org/ns#"
   xmlns:rdf="http://www.w3.org/1999/02/22-rdf-syntax-ns#"
   xmlns:svg="http://www.w3.org/2000/svg"
   xmlns="http://www.w3.org/2000/svg"
   xmlns:xlink="http://www.w3.org/1999/xlink"
   xmlns:sodipodi="http://sodipodi.sourceforge.net/DTD/sodipodi-0.dtd"
   xmlns:inkscape="http://www.inkscape.org/namespaces/inkscape"
   width="48"
   height="48"
   id="svg5453"
   version="1.1"
   inkscape:version="0.48.5 r10040"
   sodipodi:docname="distributor-logo-linux-mint.svg">
  <defs
     id="defs5455">
    <linearGradient
       inkscape:collect="always"
       id="linearGradient4606">
      <stop
         style="stop-color:#4b9736;stop-opacity:1"
         offset="0"
         id="stop4608" />
      <stop
         style="stop-color:#a8d982;stop-opacity:1"
         offset="1"
         id="stop4610" />
    </linearGradient>
    <linearGradient
       inkscape:collect="always"
       xlink:href="#linearGradient4606"
       id="linearGradient4612"
       x1="408.72192"
       y1="-547.79987"
       x2="408.72192"
       y2="-499.80991"
       gradientUnits="userSpaceOnUse" />
    <linearGradient
       inkscape:collect="always"
       xlink:href="#linearGradient4606"
       id="linearGradient4842"
       x1="422.57843"
       y1="539.2243"
       x2="422.57843"
       y2="508.28842"
       gradientUnits="userSpaceOnUse"
       gradientTransform="matrix(1.1642819,0,0,1.1642819,-67.120902,-86.083401)" />
  </defs>
  <sodipodi:namedview
     id="base"
     pagecolor="#ffffff"
     bordercolor="#666666"
     borderopacity="1.0"
     inkscape:pageopacity="0"
     inkscape:pageshadow="2"
     inkscape:zoom="5.6568543"
     inkscape:cx="54.393051"
     inkscape:cy="26.192531"
     inkscape:document-units="px"
     inkscape:current-layer="layer1"
     showgrid="true"
     fit-margin-top="0"
     fit-margin-left="0"
     fit-margin-right="0"
     fit-margin-bottom="0"
     inkscape:window-width="1301"
     inkscape:window-height="744"
     inkscape:window-x="65"
     inkscape:window-y="24"
     inkscape:window-maximized="1">
    <inkscape:grid
       type="xygrid"
       id="grid3768" />
  </sodipodi:namedview>
  <metadata
     id="metadata5458">
    <rdf:RDF>
      <cc:Work
         rdf:about="">
        <dc:format>image/svg+xml</dc:format>
        <dc:type
           rdf:resource="http://purl.org/dc/dcmitype/StillImage" />
        <dc:title />
      </cc:Work>
    </rdf:RDF>
  </metadata>
  <g
     inkscape:label="Capa 1"
     inkscape:groupmode="layer"
     id="layer1"
     transform="translate(-384.57143,-499.798)">
    <path
       sodipodi:nodetypes="cccccscsccccccssscsccscccscccccsccsssccscsssccsssccccccscs"
       inkscape:connector-curvature="0"
       id="path4850"
       d="m 388.57143,506.30091 0,11.46505 4.71658,0 0,2.30117 0.007,9.0238 c 0,7.43147 6.45455,13.06987 13.8927,13.06987 l 21.38374,0 0,-22.68255 c 0,-7.43816 -6.44787,-13.06988 -13.8927,-13.06988 l -6.22077,-0.0136 z m 3.03694,3.05055 16.84395,0.0735 0,0.0136 6.22622,0 c 6.00001,0 10.86392,4.49462 10.86392,10.03974 l 0,16.59778 c 0,1.84635 -1.66078,3.04782 -3.55784,3.04784 l -14.79711,0 c -5.99332,0 -10.85576,-4.49461 -10.85576,-10.03973 l -0.0136,-11.37801 c 0,-1.76646 -1.54114,-2.9703 -2.82207,-2.9703 l -1.88772,0 z m 7.62704,3.37424 0,16.48491 c 0,1.74904 0.63991,3.28318 1.885,4.52345 1.06422,1.05044 2.34423,1.73121 3.78224,1.885 l 4.06921,0 0,-3.23007 -3.49392,-0.0136 c -1.69775,0 -3.14846,-1.65178 -3.14846,-3.77544 l 0,-15.87425 z m 11.66089,2.70782 c -1.40544,0 -2.6551,0.52189 -3.65847,1.53547 -1.00287,1.01304 -1.52868,2.27746 -1.52868,3.70472 l 0,7.21495 3.27224,0 0,-7.21495 c 0,-0.54705 0.1779,-0.975 0.56848,-1.36956 0.39188,-0.39581 0.80762,-0.57392 1.34643,-0.57392 0.55011,0 0.95914,0.1772 1.35187,0.57392 0.3906,0.39456 0.56849,0.82251 0.56849,1.36956 l 0,7.21495 3.27224,0 0,-7.21495 c 0,-0.54705 0.17789,-0.975 0.56848,-1.36956 0.39274,-0.39672 0.80175,-0.57392 1.35187,-0.57392 0.53883,0 0.95456,0.17811 1.34643,0.57392 0.39059,0.39456 0.5685,0.82251 0.5685,1.36956 -0.007,0.68632 0.0204,7.17143 0.0204,7.17143 l 3.26137,0 -0.009,-7.17143 c 0,-1.42726 -0.52579,-2.69168 -1.52867,-3.70472 -1.00337,-1.01358 -2.25304,-1.53547 -3.65848,-1.53547 -1.37956,0 -2.58583,0.51313 -3.56191,1.4525 -0.97374,-0.93781 -2.17225,-1.4525 -3.55124,-1.4525 z"
       style="color:#000000;fill:#000000;fill-opacity:0.23529412;fill-rule:evenodd;stroke:none;stroke-width:1;marker:none;visibility:visible;display:inline;overflow:visible;enable-background:accumulate" />
    <path
       style="color:#000000;fill:url(#linearGradient4842);fill-opacity:1;fill-rule:evenodd;stroke:none;stroke-width:1;marker:none;visibility:visible;display:inline;overflow:visible;enable-background:accumulate"
       d="m 388.57143,505.8352 0,11.46505 4.71658,0 0,2.30117 0.007,9.0238 c 0,7.43147 6.45455,13.06987 13.8927,13.06987 l 21.38374,0 0,-22.68256 c 0,-7.43815 -6.44787,-13.06988 -13.8927,-13.06988 l -6.22077,-0.0136 z m 3.03694,3.05055 16.84395,0.0735 0,0.0136 6.22622,0 c 6.00001,0 10.86392,4.49461 10.86392,10.03974 l 0,16.59778 c 0,1.84634 -1.66078,3.04781 -3.55784,3.04784 l -14.79711,0 c -5.99332,0 -10.85576,-4.49461 -10.85576,-10.03974 l -0.0136,-11.378 c 0,-1.76646 -1.54114,-2.9703 -2.82207,-2.9703 l -1.88772,0 z m 7.62704,3.37424 0,16.4849 c 0,1.74905 0.63991,3.28319 1.885,4.52346 1.06422,1.05044 2.34423,1.73121 3.78224,1.885 l 4.06921,0 0,-3.23007 -3.49392,-0.0136 c -1.69775,0 -3.14846,-1.65178 -3.14846,-3.77544 l 0,-15.87425 z m 11.66089,2.70782 c -1.40544,0 -2.6551,0.52189 -3.65847,1.53546 -1.00287,1.01304 -1.52868,2.27747 -1.52868,3.70472 l 0,7.21495 3.27224,0 0,-7.21495 c 0,-0.54704 0.1779,-0.97499 0.56848,-1.36955 0.39188,-0.39581 0.80762,-0.57392 1.34643,-0.57392 0.55011,0 0.95914,0.1772 1.35187,0.57392 0.3906,0.39456 0.56849,0.82251 0.56849,1.36955 l 0,7.21495 3.27224,0 0,-7.21495 c 0,-0.54704 0.17789,-0.97499 0.56848,-1.36955 0.39274,-0.39672 0.80175,-0.57392 1.35187,-0.57392 0.53883,0 0.95456,0.17811 1.34643,0.57392 0.39059,0.39456 0.5685,0.82251 0.5685,1.36955 -0.007,0.68633 0.0204,7.17143 0.0204,7.17143 l 3.26137,0 -0.009,-7.17143 c 0,-1.42725 -0.52579,-2.69168 -1.52867,-3.70472 -1.00337,-1.01357 -2.25304,-1.53546 -3.65848,-1.53546 -1.37956,0 -2.58583,0.51313 -3.56191,1.4525 -0.97374,-0.93781 -2.17225,-1.4525 -3.55124,-1.4525 z"
       id="path4130"
       inkscape:connector-curvature="0"
       sodipodi:nodetypes="cccccscsccccccssscsccscccscccccsccsssccscsssccsssccccccscs" />
    <path
       style="color:#000000;fill:#4d9838;fill-opacity:0.31372549;fill-rule:evenodd;stroke:none;stroke-width:1;marker:none;visibility:visible;display:inline;overflow:visible;enable-background:accumulate"
       d="m 391.60748,507.95365 0,0.93233 16.84571,0.0728 0,0.0136 6.22617,0 c 6.00001,0 10.86284,4.49454 10.86284,10.03966 l 0,-0.93233 c 0,-5.54513 -4.86283,-10.03966 -10.86284,-10.03966 l -6.22617,0 0,-0.0136 -16.84571,-0.0728 z m -3.03577,8.41375 0,0.93233 4.71625,0 0,-0.93233 -4.71625,0 z m 22.32373,0.96418 c -0.53882,0 -0.95431,0.17951 -1.3462,0.57532 -0.39058,0.39456 -0.5685,0.82189 -0.5685,1.36894 l 0,0.93233 c 0,-0.54705 0.17792,-0.97665 0.5685,-1.37121 0.39189,-0.39581 0.80738,-0.57305 1.3462,-0.57305 0.55011,0 0.96029,0.17633 1.35303,0.57305 0.39059,0.39456 0.56849,0.82416 0.56849,1.37121 l 0,-0.93233 c 0,-0.54705 -0.1779,-0.97438 -0.56849,-1.36894 -0.39274,-0.39672 -0.80292,-0.57532 -1.35303,-0.57532 z m 7.11304,0 c -0.55012,0 -0.95802,0.1786 -1.35075,0.57532 -0.39059,0.39456 -0.5685,0.82189 -0.5685,1.36894 l 0,0.93233 c 0,-0.54705 0.17791,-0.97665 0.5685,-1.37121 0.39273,-0.39672 0.80063,-0.57305 1.35075,-0.57305 0.53883,0 0.95433,0.17724 1.3462,0.57305 0.39058,0.39456 0.5685,0.82416 0.5685,1.37121 -0.007,0.68632 0.0205,7.16988 0.0205,7.16988 l 3.26317,0 -0.002,-0.93005 -3.2609,0 c 0,0 -0.0275,-6.48584 -0.0205,-7.17216 0,-0.54705 -0.17791,-0.97438 -0.5685,-1.36894 -0.39181,-0.39581 -0.80731,-0.57532 -1.34614,-0.57532 z m -12.3,9.15962 0,0.93234 3.27226,0 0,-0.93234 -3.27226,0 z m 7.10848,0 0,0.93234 3.27227,0 0,-0.93234 -3.27227,0 z m -19.52218,1.20294 0,0.93006 c 0,7.43148 6.45364,13.07089 13.89179,13.07089 l 21.38458,0 0,-0.93234 -21.38458,0 c -7.43815,0 -13.89179,-5.63714 -13.89179,-13.06861 z m 5.93966,0.11825 0,0.93233 c 0,1.74904 0.64004,3.28269 1.88513,4.52297 1.06423,1.05044 2.34591,1.73134 3.78392,1.88513 l 4.06816,0 0,-0.93233 -4.06816,0 c -1.43801,-0.15379 -2.71969,-0.8347 -3.78392,-1.88514 -1.24509,-1.24027 -1.88513,-2.77392 -1.88513,-4.52296 z"
       id="path4858"
       inkscape:connector-curvature="0" />
  </g>
</svg>
