<?xml version="1.0" encoding="UTF-8" standalone="no"?>
<!-- Created with Inkscape (http://www.inkscape.org/) -->

<svg
   xmlns:dc="http://purl.org/dc/elements/1.1/"
   xmlns:cc="http://creativecommons.org/ns#"
   xmlns:rdf="http://www.w3.org/1999/02/22-rdf-syntax-ns#"
   xmlns:svg="http://www.w3.org/2000/svg"
   xmlns="http://www.w3.org/2000/svg"
   xmlns:xlink="http://www.w3.org/1999/xlink"
   xmlns:sodipodi="http://sodipodi.sourceforge.net/DTD/sodipodi-0.dtd"
   xmlns:inkscape="http://www.inkscape.org/namespaces/inkscape"
   width="48"
   height="48"
   id="svg5453"
   version="1.1"
   inkscape:version="0.48.5 r10040"
   sodipodi:docname="doublecmd.svg">
  <defs
     id="defs5455">
    <linearGradient
       id="linearGradient4085">
      <stop
         style="stop-color:#f1c7c7;stop-opacity:1"
         offset="0"
         id="stop4087" />
      <stop
         style="stop-color:#fef6f6;stop-opacity:1"
         offset="1"
         id="stop4089" />
    </linearGradient>
    <linearGradient
       id="linearGradient3795">
      <stop
         id="stop3797"
         offset="0"
         style="stop-color:#ce3c3c;stop-opacity:1" />
      <stop
         id="stop3799"
         offset="1"
         style="stop-color:#ea5252;stop-opacity:1" />
    </linearGradient>
    <linearGradient
       gradientUnits="userSpaceOnUse"
       y2="-1027.3622"
       x2="48.000011"
       y1="-1027.3622"
       x1="9.9999997e-06"
       id="linearGradient848"
       xlink:href="#linearGradient3795"
       inkscape:collect="always"
       gradientTransform="matrix(0.83333289,0,0,0.83333289,388.57143,333.17003)" />
    <linearGradient
       inkscape:collect="always"
       xlink:href="#linearGradient4085"
       id="linearGradient4261"
       x1="25"
       y1="39.999973"
       x2="25"
       y2="7.9999738"
       gradientUnits="userSpaceOnUse"
       gradientTransform="matrix(0.83333289,0,0,0.83333289,388.57144,503.79801)" />
  </defs>
  <sodipodi:namedview
     id="base"
     pagecolor="#ffffff"
     bordercolor="#666666"
     borderopacity="1.0"
     inkscape:pageopacity="0"
     inkscape:pageshadow="2"
     inkscape:zoom="8.905142"
     inkscape:cx="33.649164"
     inkscape:cy="11.558245"
     inkscape:document-units="px"
     inkscape:current-layer="layer1"
     showgrid="true"
     fit-margin-top="0"
     fit-margin-left="0"
     fit-margin-right="0"
     fit-margin-bottom="0"
     inkscape:window-width="1301"
     inkscape:window-height="744"
     inkscape:window-x="65"
     inkscape:window-y="24"
     inkscape:window-maximized="1"
     inkscape:showpageshadow="false"
     borderlayer="true">
    <inkscape:grid
       type="xygrid"
       id="grid4219" />
    <sodipodi:guide
       position="8.0000117,8.0000264"
       orientation="-32,0"
       id="guide4225" />
    <sodipodi:guide
       position="8.0000117,40.000026"
       orientation="0,32"
       id="guide4227" />
    <sodipodi:guide
       position="40.000012,40.000026"
       orientation="32,0"
       id="guide4229" />
    <sodipodi:guide
       position="40.000012,8.0000264"
       orientation="0,-32"
       id="guide4231" />
  </sodipodi:namedview>
  <metadata
     id="metadata5458">
    <rdf:RDF>
      <cc:Work
         rdf:about="">
        <dc:format>image/svg+xml</dc:format>
        <dc:type
           rdf:resource="http://purl.org/dc/dcmitype/StillImage" />
        <dc:title />
      </cc:Work>
    </rdf:RDF>
  </metadata>
  <g
     inkscape:label="Capa 1"
     inkscape:groupmode="layer"
     id="layer1"
     transform="translate(-384.57143,-499.798)">
    <rect
       style="fill:url(#linearGradient848);fill-opacity:1;stroke:none"
       id="rect2991-1"
       width="39.999977"
       height="39.999977"
       x="388.57144"
       y="-543.79797"
       ry="0"
       transform="scale(1,-1)" />
    <rect
       style="fill:none;stroke:none"
       id="rect1526"
       width="39.999977"
       height="39.999977"
       x="388.57144"
       y="503.798"
       ry="0" />
    <path
       style="text-decoration:none;color:#000000;fill:url(#linearGradient4261);fill-opacity:1;fill-rule:nonzero;stroke:none;visibility:visible;display:inline;overflow:visible;enable-background:accumulate"
       d="m 394.40477,511.298 c -2.11054,0 -4.09318,0.52273 -5.83333,1.43881 l 0,1.93359 c 1.68307,-1.075 3.67982,-1.70573 5.83333,-1.70573 6.00167,0 10.83333,4.83166 10.83333,10.83333 0,6.00166 -4.83166,10.83333 -10.83333,10.83333 -2.15351,0 -4.15026,-0.63073 -5.83333,-1.70573 l 0,1.93359 c 1.74015,0.91607 3.72279,1.4388 5.83333,1.4388 6.925,0 12.5,-5.575 12.5,-12.49999 0,-6.925 -5.575,-12.5 -12.5,-12.5 z m 28.33332,0 c -6.925,0 -12.49999,5.575 -12.49999,12.5 0,6.92499 5.57499,12.49999 12.49999,12.49999 2.11055,0 4.09318,-0.52273 5.83333,-1.4388 l 0,-1.93359 c -1.68307,1.07501 -3.67981,1.70573 -5.83333,1.70573 -6.00166,0 -10.83333,-4.83167 -10.83333,-10.83333 0,-6.00167 4.83167,-10.83333 10.83333,-10.83333 2.15352,0 4.15026,0.63073 5.83333,1.70573 l 0,-1.93359 c -1.74015,-0.91608 -3.72278,-1.43881 -5.83333,-1.43881 z"
       id="rect4233"
       inkscape:connector-curvature="0" />
    <path
       style="opacity:0.5;fill:#000000;fill-opacity:1;stroke:none"
       d="m 388.57143,543.798 0,0 c 20,-1 20,-1 40,0 z"
       id="path3257"
       inkscape:connector-curvature="0"
       sodipodi:nodetypes="cccc" />
    <path
       sodipodi:nodetypes="cccc"
       inkscape:connector-curvature="0"
       id="path4027"
       d="m 388.57143,503.798 0,0 c 20,1 20,1 40,0 z"
       style="opacity:0.75;fill:#ffffff;fill-opacity:1;stroke:none" />
  </g>
</svg>
