<?xml version="1.0" encoding="UTF-8" standalone="no"?>
<svg
   xmlns:dc="http://purl.org/dc/elements/1.1/"
   xmlns:cc="http://creativecommons.org/ns#"
   xmlns:rdf="http://www.w3.org/1999/02/22-rdf-syntax-ns#"
   xmlns:svg="http://www.w3.org/2000/svg"
   xmlns="http://www.w3.org/2000/svg"
   xmlns:xlink="http://www.w3.org/1999/xlink"
   xmlns:sodipodi="http://sodipodi.sourceforge.net/DTD/sodipodi-0.dtd"
   xmlns:inkscape="http://www.inkscape.org/namespaces/inkscape"
   height="48"
   width="48"
   version="1"
   id="svg16"
   sodipodi:docname="eeschema.svg"
   inkscape:version="0.92.1 r15371">
  <metadata
     id="metadata22">
    <rdf:RDF>
      <cc:Work
         rdf:about="">
        <dc:format>image/svg+xml</dc:format>
        <dc:type
           rdf:resource="http://purl.org/dc/dcmitype/StillImage" />
        <dc:title></dc:title>
      </cc:Work>
    </rdf:RDF>
  </metadata>
  <defs
     id="defs20">
    <linearGradient
       inkscape:collect="always"
       id="linearGradient4622">
      <stop
         style="stop-color:#000000;stop-opacity:1;"
         offset="0"
         id="stop4618" />
      <stop
         style="stop-color:#000000;stop-opacity:0;"
         offset="1"
         id="stop4620" />
    </linearGradient>
    <linearGradient
       inkscape:collect="always"
       id="linearGradient4562">
      <stop
         style="stop-color:#ffffff;stop-opacity:1;"
         offset="0"
         id="stop4558" />
      <stop
         style="stop-color:#e9e9e9;stop-opacity:1"
         offset="1"
         id="stop4560" />
    </linearGradient>
    <linearGradient
       inkscape:collect="always"
       id="linearGradient4529">
      <stop
         style="stop-color:#69a81c;stop-opacity:1;"
         offset="0"
         id="stop4525" />
      <stop
         style="stop-color:#a7e45c;stop-opacity:1"
         offset="1"
         id="stop4527" />
    </linearGradient>
    <linearGradient
       inkscape:collect="always"
       xlink:href="#linearGradient4529"
       id="linearGradient4531"
       x1="-44"
       y1="-24"
       x2="-4"
       y2="-24"
       gradientUnits="userSpaceOnUse" />
    <linearGradient
       inkscape:collect="always"
       xlink:href="#linearGradient4562"
       id="linearGradient4564"
       x1="24"
       y1="11"
       x2="24"
       y2="17.130148"
       gradientUnits="userSpaceOnUse" />
    <linearGradient
       inkscape:collect="always"
       xlink:href="#linearGradient4562"
       id="linearGradient4572"
       x1="24"
       y1="22"
       x2="24"
       y2="27.635914"
       gradientUnits="userSpaceOnUse" />
    <linearGradient
       inkscape:collect="always"
       xlink:href="#linearGradient4562"
       id="linearGradient4580"
       x1="39"
       y1="22"
       x2="39"
       y2="27.883032"
       gradientUnits="userSpaceOnUse" />
    <linearGradient
       inkscape:collect="always"
       xlink:href="#linearGradient4562"
       id="linearGradient4588"
       x1="24"
       y1="30"
       x2="24"
       y2="35.88303"
       gradientUnits="userSpaceOnUse" />
    <linearGradient
       inkscape:collect="always"
       xlink:href="#linearGradient4562"
       id="linearGradient4596"
       x1="9"
       y1="30"
       x2="9"
       y2="35.88303"
       gradientUnits="userSpaceOnUse" />
    <linearGradient
       inkscape:collect="always"
       xlink:href="#linearGradient4622"
       id="linearGradient4624"
       x1="8.7637043"
       y1="32.822697"
       x2="16.646051"
       y2="40.705044"
       gradientUnits="userSpaceOnUse" />
    <linearGradient
       inkscape:collect="always"
       xlink:href="#linearGradient4622"
       id="linearGradient4626"
       x1="23.914778"
       y1="32.819767"
       x2="32.291359"
       y2="41.196346"
       gradientUnits="userSpaceOnUse" />
    <linearGradient
       inkscape:collect="always"
       xlink:href="#linearGradient4622"
       id="linearGradient4628"
       x1="23.978432"
       y1="25.32052"
       x2="31.805611"
       y2="33.147701"
       gradientUnits="userSpaceOnUse" />
    <linearGradient
       inkscape:collect="always"
       xlink:href="#linearGradient4622"
       id="linearGradient4630"
       x1="38.81678"
       y1="24.906868"
       x2="43.467907"
       y2="27.592197"
       gradientUnits="userSpaceOnUse" />
    <linearGradient
       inkscape:collect="always"
       xlink:href="#linearGradient4622"
       id="linearGradient4632"
       x1="24.171404"
       y1="14.18132"
       x2="29.458452"
       y2="19.468369"
       gradientUnits="userSpaceOnUse" />
  </defs>
  <sodipodi:namedview
     pagecolor="#ffffff"
     bordercolor="#666666"
     borderopacity="1"
     objecttolerance="10"
     gridtolerance="10"
     guidetolerance="10"
     inkscape:pageopacity="0"
     inkscape:pageshadow="2"
     inkscape:window-width="1600"
     inkscape:window-height="808"
     id="namedview18"
     showgrid="false"
     inkscape:zoom="6.56"
     inkscape:cx="24.51034"
     inkscape:cy="21.036019"
     inkscape:window-x="0"
     inkscape:window-y="0"
     inkscape:window-maximized="1"
     inkscape:current-layer="svg16">
    <inkscape:grid
       type="xygrid"
       id="grid4499" />
  </sodipodi:namedview>
  <polygon
     points="502 812.5 551.5 721.5 612.5 637 628.5 616 668 619.5 707 615 713 603 688.5 578 676.5 569.5 693.5 560.5 693.5 540 732.5 497.5 664 430.5 588 333 517.5 214 500 192 386 355 328 328 304 332.5 299.5 366 318.5 403.5 338 431 309.5 462 275.5 507 300 533 304 551 318.5 569.5 340.5 583 351.5 604.5 373.5 617 395 637.5 452.5 723 488.5 788.5"
     fill="#5a0e00"
     transform="matrix(.063142 0 0 .063142 -131 -8.0295)"
     display="none"
     id="polygon2" />
  <rect
     transform="matrix(0,-1,-1,0,0,0)"
     rx="2"
     ry="2"
     height="40"
     width="40"
     y="-44"
     x="-44"
     fill="#709642"
     id="rect4"
     style="fill:url(#linearGradient4531);fill-opacity:1" />
  <path
     d="M 6,44 C 4.892,44 4,43.108 4,42 v -1 c 0,1.108 0.892,2 2,2 h 36 c 1.108,0 2,-0.892 2,-2 v 1 c 0,1.108 -0.892,2 -2,2 z"
     id="path8"
     inkscape:connector-curvature="0"
     style="opacity:0.2" />
  <path
     d="M 23 15 L 23 24 L 25 24 L 25 15 L 23 15 z M 25 24 L 25 26 L 38 26 L 38 24 L 25 24 z M 25 26 L 23 26 L 23 32 L 25 32 L 25 26 z M 23 32 L 10 32 L 10 34 L 23 34 L 23 32 z "
     id="path10"
     style="fill:#5d5d5d;fill-opacity:1" />
  <path
     style="opacity:0.3;vector-effect:none;fill:url(#linearGradient4632);fill-opacity:1;stroke:none;stroke-width:1.69139552;stroke-linecap:round;stroke-linejoin:round;stroke-miterlimit:4;stroke-dasharray:none;stroke-dashoffset:0;stroke-opacity:1"
     d="M 26.101212,11.859673 37.381417,23.139878 33.145182,27.376113 21.864978,16.095908 25,15 Z"
     id="rect4598"
     inkscape:connector-curvature="0"
     sodipodi:nodetypes="cccccc" />
  <path
     style="opacity:0.3;vector-effect:none;fill:url(#linearGradient4630);fill-opacity:1;stroke:none;stroke-width:1.69139552;stroke-linecap:round;stroke-linejoin:round;stroke-miterlimit:4;stroke-dasharray:none;stroke-dashoffset:0;stroke-opacity:1"
     d="m 41.074219,22.832031 -1.030146,3.314228 -3.204229,0.9221 L 44,34.230469 v -8.472657 z"
     id="path4601"
     inkscape:connector-curvature="0"
     sodipodi:nodetypes="cccccc" />
  <path
     style="opacity:0.3;vector-effect:none;fill:url(#linearGradient4628);fill-opacity:1;stroke:none;stroke-width:1.69139552;stroke-linecap:round;stroke-linejoin:round;stroke-miterlimit:4;stroke-dasharray:none;stroke-dashoffset:0;stroke-opacity:1"
     d="M 26.072985,22.83413 37.35319,34.114335 33.116955,38.35057 21.836751,27.070365 25,26 Z"
     id="path4603"
     inkscape:connector-curvature="0"
     sodipodi:nodetypes="cccccc" />
  <path
     style="opacity:0.2;vector-effect:none;fill:url(#linearGradient4626);fill-opacity:1;stroke:none;stroke-width:1.69139552;stroke-linecap:round;stroke-linejoin:round;stroke-miterlimit:4;stroke-dasharray:none;stroke-dashoffset:0;stroke-opacity:1"
     d="m 26.091797,30.865234 -1.031428,3.573935 -3.2049,0.66044 L 30.755859,44 h 4.761719 l 1.855469,-1.855469 z"
     id="path4605"
     inkscape:connector-curvature="0"
     sodipodi:nodetypes="ccccccc" />
  <path
     style="opacity:0.2;vector-effect:none;fill:url(#linearGradient4624);fill-opacity:1;stroke:none;stroke-width:1.69139552;stroke-linecap:round;stroke-linejoin:round;stroke-miterlimit:4;stroke-dasharray:none;stroke-dashoffset:0;stroke-opacity:1"
     d="M 11.105469,30.871094 10,34 6.8691406,35.107422 15.763672,44 h 4.77539 l 1.847657,-1.847656 z"
     id="path4607"
     inkscape:connector-curvature="0"
     sodipodi:nodetypes="ccccccc" />
  <path
     style="fill:url(#linearGradient4564);fill-opacity:1"
     d="M 24 11 A 3 3 0 0 0 21 14 A 3 3 0 0 0 24 17 A 3 3 0 0 0 27 14 A 3 3 0 0 0 24 11 z M 24 13 A 1 1 0 0 1 25 14 A 1 1 0 0 1 24 15 A 1 1 0 0 1 23 14 A 1 1 0 0 1 24 13 z "
     id="path4551" />
  <path
     style="fill:url(#linearGradient4572);fill-opacity:1"
     d="M 24 22 A 3 3 0 0 0 21 25 A 3 3 0 0 0 24 28 A 3 3 0 0 0 27 25 A 3 3 0 0 0 24 22 z M 24 24 A 1 1 0 0 1 25 25 A 1 1 0 0 1 24 26 A 1 1 0 0 1 23 25 A 1 1 0 0 1 24 24 z "
     id="path4547" />
  <path
     style="fill:url(#linearGradient4580);fill-opacity:1"
     d="M 39 22 A 3 3 0 0 0 36 25 A 3 3 0 0 0 39 28 A 3 3 0 0 0 42 25 A 3 3 0 0 0 39 22 z M 39 24 A 1 1 0 0 1 40 25 A 1 1 0 0 1 39 26 A 1 1 0 0 1 38 25 A 1 1 0 0 1 39 24 z "
     id="path4545" />
  <path
     style="fill:url(#linearGradient4596);fill-opacity:1"
     d="M 9 30 A 3 3 0 0 0 6 33 A 3 3 0 0 0 9 36 A 3 3 0 0 0 12 33 A 3 3 0 0 0 9 30 z M 9 32 A 1 1 0 0 1 10 33 A 1 1 0 0 1 9 34 A 1 1 0 0 1 8 33 A 1 1 0 0 1 9 32 z "
     id="path4539" />
  <path
     style="fill:url(#linearGradient4588);fill-opacity:1"
     d="M 24 30 A 3 3 0 0 0 21 33 A 3 3 0 0 0 24 36 A 3 3 0 0 0 27 33 A 3 3 0 0 0 24 30 z M 24 32 A 1 1 0 0 1 25 33 A 1 1 0 0 1 24 34 A 1 1 0 0 1 23 33 A 1 1 0 0 1 24 32 z "
     id="path4537" />
</svg>
