<?xml version="1.0" encoding="UTF-8" standalone="no"?>
<!-- Created with Inkscape (http://www.inkscape.org/) -->

<svg
   xmlns:dc="http://purl.org/dc/elements/1.1/"
   xmlns:cc="http://creativecommons.org/ns#"
   xmlns:rdf="http://www.w3.org/1999/02/22-rdf-syntax-ns#"
   xmlns:svg="http://www.w3.org/2000/svg"
   xmlns="http://www.w3.org/2000/svg"
   xmlns:xlink="http://www.w3.org/1999/xlink"
   xmlns:sodipodi="http://sodipodi.sourceforge.net/DTD/sodipodi-0.dtd"
   xmlns:inkscape="http://www.inkscape.org/namespaces/inkscape"
   width="48"
   height="48"
   id="svg5453"
   version="1.1"
   inkscape:version="0.48.5 r10040"
   sodipodi:docname="elegance-colors.svg">
  <defs
     id="defs5455">
    <linearGradient
       id="linearGradient4212">
      <stop
         style="stop-color:#b9ddff;stop-opacity:1"
         offset="0"
         id="stop4214" />
      <stop
         style="stop-color:#f5fcff;stop-opacity:1"
         offset="1"
         id="stop4216" />
    </linearGradient>
    <linearGradient
       id="linearGradient908">
      <stop
         id="stop910"
         offset="0"
         style="stop-color:#1a1a1a;stop-opacity:1" />
      <stop
         id="stop912"
         offset="1"
         style="stop-color:#333333;stop-opacity:1" />
    </linearGradient>
    <linearGradient
       id="linearGradient4093"
       inkscape:collect="always">
      <stop
         id="stop4095"
         offset="0"
         style="stop-color:#94cf1f;stop-opacity:1" />
      <stop
         id="stop4097"
         offset="1"
         style="stop-color:#c8e62f;stop-opacity:1" />
    </linearGradient>
    <linearGradient
       id="linearGradient877"
       inkscape:collect="always">
      <stop
         id="stop879"
         offset="0"
         style="stop-color:#0a8dd6;stop-opacity:1" />
      <stop
         id="stop881"
         offset="1"
         style="stop-color:#10b2e4;stop-opacity:1" />
    </linearGradient>
    <linearGradient
       id="linearGradient3795-1">
      <stop
         id="stop3797-2"
         offset="0"
         style="stop-color:#dd4814;stop-opacity:1" />
      <stop
         id="stop3799-7"
         offset="1"
         style="stop-color:#ed632b;stop-opacity:1" />
    </linearGradient>
    <linearGradient
       id="linearGradient1480"
       inkscape:collect="always">
      <stop
         id="stop1482"
         offset="0"
         style="stop-color:#e3223a;stop-opacity:1" />
      <stop
         id="stop1484"
         offset="1"
         style="stop-color:#f45826;stop-opacity:1" />
    </linearGradient>
    <linearGradient
       inkscape:collect="always"
       xlink:href="#linearGradient908"
       id="linearGradient4424"
       gradientUnits="userSpaceOnUse"
       gradientTransform="translate(434.57849,488.98815)"
       x1="-26.978014"
       y1="-1037.1139"
       x2="-26.978014"
       y2="-991.26373" />
    <linearGradient
       inkscape:collect="always"
       xlink:href="#linearGradient877"
       id="linearGradient4180"
       x1="35.730991"
       y1="39.399998"
       x2="35.730991"
       y2="31.294603"
       gradientUnits="userSpaceOnUse"
       gradientTransform="matrix(1.2757768,0,0,1.2757768,377.8146,493.1242)" />
    <linearGradient
       inkscape:collect="always"
       xlink:href="#linearGradient4093"
       id="linearGradient4199"
       x1="424.3241"
       y1="530.87164"
       x2="424.3241"
       y2="527.97693"
       gradientUnits="userSpaceOnUse"
       gradientTransform="matrix(1.2757768,0,0,1.2757768,-112.81272,-144.50651)" />
    <linearGradient
       inkscape:collect="always"
       xlink:href="#linearGradient4212"
       id="linearGradient4243"
       x1="28.195883"
       y1="36.509514"
       x2="28.195883"
       y2="12.114331"
       gradientUnits="userSpaceOnUse"
       gradientTransform="matrix(1.2757768,0,0,1.2757768,377.8146,493.1242)" />
    <linearGradient
       inkscape:collect="always"
       xlink:href="#linearGradient1480"
       id="linearGradient4297"
       x1="27.267805"
       y1="24.356117"
       x2="27.267805"
       y2="8.6000099"
       gradientUnits="userSpaceOnUse"
       gradientTransform="matrix(1.2747303,0,0,1.2747303,377.83996,493.1337)" />
    <linearGradient
       inkscape:collect="always"
       xlink:href="#linearGradient3795-1"
       id="linearGradient4314"
       gradientUnits="userSpaceOnUse"
       x1="423.03241"
       y1="532.79761"
       x2="424.3241"
       y2="527.97693"
       gradientTransform="matrix(1.9569346,-0.52435907,0.52435907,1.9569346,-684.41887,-300.74731)" />
  </defs>
  <sodipodi:namedview
     id="base"
     pagecolor="#ffffff"
     bordercolor="#666666"
     borderopacity="1.0"
     inkscape:pageopacity="0"
     inkscape:pageshadow="2"
     inkscape:zoom="3.890625"
     inkscape:cx="8.0250026"
     inkscape:cy="2.0983991"
     inkscape:document-units="px"
     inkscape:current-layer="layer1"
     showgrid="true"
     fit-margin-top="0"
     fit-margin-left="0"
     fit-margin-right="0"
     fit-margin-bottom="0"
     inkscape:window-width="1301"
     inkscape:window-height="744"
     inkscape:window-x="65"
     inkscape:window-y="24"
     inkscape:window-maximized="1">
    <sodipodi:guide
       position="8.5999872,8.600002"
       orientation="-30.799988,0"
       id="guide4430" />
    <sodipodi:guide
       position="8.5999872,39.39999"
       orientation="0,30.799988"
       id="guide4432" />
    <sodipodi:guide
       position="39.399975,39.39999"
       orientation="30.799988,0"
       id="guide4434" />
    <sodipodi:guide
       position="39.399975,8.600002"
       orientation="0,-30.799988"
       id="guide4436" />
    <inkscape:grid
       type="xygrid"
       id="grid3032" />
  </sodipodi:namedview>
  <metadata
     id="metadata5458">
    <rdf:RDF>
      <cc:Work
         rdf:about="">
        <dc:format>image/svg+xml</dc:format>
        <dc:type
           rdf:resource="http://purl.org/dc/dcmitype/StillImage" />
        <dc:title />
      </cc:Work>
    </rdf:RDF>
  </metadata>
  <g
     inkscape:label="Capa 1"
     inkscape:groupmode="layer"
     id="layer1"
     transform="translate(-384.57143,-499.798)">
    <path
       style="fill:#000000;fill-opacity:0.23529412;stroke:none"
       d="m 411.74414,504.6062 c -1.64895,-8.3e-4 -2.98586,1.33607 -2.98503,2.98504 -0.2082,3.65155 5.63315,6.16393 5.91027,9.19681 0.13052,2.66151 -1.32202,5.26788 -3.48835,7.84879 8.12619,-5.45728 6.47934,-10.10352 4.60712,-12.81223 -1.37188,-1.98488 -1.14178,-3.35353 -1.0764,-3.93687 0.005,-0.0398 0.003,-0.0799 0.005,-0.11214 0.005,-0.0614 0.009,-0.12285 0.0102,-0.18437 8.3e-4,-1.648 -1.33458,-2.98449 -2.98255,-2.98504 z m -6.66027,4.57223 c -1.50064,0.006 -3.00144,0.46658 -4.50496,1.37791 -1.95472,1.22499 -3.75442,2.84293 -5.39698,4.85629 -1.63273,1.9634 -3.00901,4.08221 -4.13122,6.35379 -1.12219,2.27159 -1.85063,4.25547 -2.1852,5.95514 -0.26568,1.34972 -0.37289,1.91544 -0.31893,3.22423 0.0637,1.2588 0.32689,2.42557 0.78986,3.50331 0.52272,1.03756 1.25611,1.93448 2.19766,2.69101 0.9317,0.80653 2.14564,1.35929 3.64534,1.65449 2.04958,0.40346 4.09466,0.44044 6.13202,0.11456 7.07005,-0.4409 13.54669,-10.7111 19.09129,-7.50993 4.66821,2.4868 6.05519,-3.42091 2.60132,-3.83221 -6.40812,-0.64189 -12.26726,5.18345 -15.75741,7.27819 -1.38671,0.71365 -2.84526,1.2577 -4.3729,1.63207 -1.51781,0.32435 -3.07473,0.33003 -4.6744,0.0149 -1.74965,-0.3444 -2.90556,-1.06538 -3.46843,-2.16278 -0.55304,-1.1474 -0.66347,-2.57109 -0.32891,-4.27074 0.18698,-0.9498 0.51792,-1.97418 0.99419,-3.07475 1.22848,-0.1736 2.62728,-0.67836 4.1935,-1.51245 1.5662,-0.83409 3.06225,-1.83906 4.48752,-3.01244 1.48515,-1.21353 2.7498,-2.49509 3.79484,-3.84717 1.10489,-1.39225 1.77973,-2.71452 2.02574,-3.96426 0.25585,-1.29973 0.0917,-2.44607 -0.49087,-3.44351 -0.53257,-0.98757 -1.47335,-1.61554 -2.82307,-1.88122 -0.4999,-0.0984 -0.99978,-0.14665 -1.5,-0.14452 z m 18.34876,1.09386 c -0.41022,0.0222 -0.85463,0.13666 -1.32308,0.36877 -3.04457,1.73238 -2.72181,5.7675 -4.33055,9.92936 1.66329,-1.94985 3.46479,-5.43654 5.59134,-5.73835 4.12119,-0.33962 2.93394,-4.71486 0.0623,-4.55978 z m -18.50074,2.49418 c 0.20099,-0.0318 0.39559,-0.0295 0.58304,0.008 0.4999,0.0985 0.78589,0.36292 0.85716,0.79236 0.13106,0.38928 0.15849,0.78362 0.0797,1.18354 -0.19682,0.99979 -0.67881,1.99599 -1.44517,2.98754 -0.75652,0.94153 -1.63968,1.85846 -2.64618,2.75081 -0.99663,0.84235 -2.05233,1.59461 -3.16941,2.25747 -1.10726,0.61287 -2.10922,1.09026 -3.00747,1.43272 0.22792,-0.63018 0.70481,-1.60162 1.43023,-2.91279 0.73529,-1.36114 1.56379,-2.67754 2.48919,-3.94931 0.93523,-1.32178 1.88153,-2.43419 2.83803,-3.33637 0.72473,-0.71414 1.38788,-1.11794 1.99086,-1.21344 z m 23.14773,16.80142 c -0.46307,0 -0.62893,0.12107 -0.97176,0.31893 -1.17377,0.75221 -1.93572,2.00312 -2.06559,3.39119 0.9902,-0.68319 2.07019,-0.61587 2.8181,-0.4485 0.21913,0.0587 0.72002,0.0226 1.044,-0.16446 0.49877,-0.28618 0.8351,-0.82384 0.83472,-1.4402 -8.3e-4,-0.91574 -0.74373,-1.65751 -1.65947,-1.65696 z m -7.07637,3.26909 c -2.86149,0.0494 -5.89343,1.0063 -7.62953,1.85381 -0.003,0.001 -0.005,0.001 -0.008,0.003 -4.55863,2.09707 -7.98168,6.43205 -13.22586,6.65528 -4.62177,-0.006 -8.97047,-2.18966 -11.73583,-5.89283 2.41259,5.14703 7.58131,8.4372 13.26573,8.44432 4.65874,-0.16011 7.63448,-2.8214 11.73832,-3.07723 0.81328,0 3.53844,-0.52525 7.99829,2.38702 l 0.0102,-0.0199 c 0.66998,0.38073 1.42708,0.58159 2.19768,0.58304 2.466,0 4.46509,-1.99908 4.46509,-4.46509 0,-5.09755 -3.39735,-6.53435 -7.07638,-6.47091 z"
       id="path4316"
       inkscape:connector-curvature="0" />
    <path
       style="fill:url(#linearGradient4180);fill-opacity:1;stroke:none"
       d="m 413.37439,534.18079 c -23.70653,13.4538 -11.85326,6.7269 0,0 z m 0,0 c -0.002,0.001 -0.005,0.001 -0.008,0.003 -4.55874,2.09713 -7.98184,6.43217 -13.22616,6.65541 -4.62189,-0.006 -8.97071,-2.18971 -11.73615,-5.89299 2.41265,5.14718 7.58152,8.43742 13.26608,8.44455 4.65887,-0.16012 7.6347,-2.82148 11.73864,-3.07732 0.81332,0 3.53855,-0.52526 7.99853,2.3871 l 0.01,-0.0199 c 0.66999,0.38074 1.42711,0.58161 2.19772,0.58307 2.46608,0 4.46522,-1.99915 4.46522,-4.46522 0,-9.06256 -10.73796,-6.55441 -14.70632,-4.61721 z"
       id="path4142"
       inkscape:connector-curvature="0"
       sodipodi:nodetypes="cccccccccccccc" />
    <path
       style="fill:url(#linearGradient4199);fill-opacity:1;stroke:none"
       d="m 428.08113,529.0577 c 0.91576,-5.4e-4 1.65867,0.74124 1.6595,1.65701 3.9e-4,0.61636 -0.3355,1.15433 -0.83428,1.44053 -0.32399,0.18705 -0.82618,0.22354 -1.04532,0.16482 -0.74792,-0.16736 -1.82712,-0.23535 -2.81735,0.44786 0.12989,-1.38811 0.89185,-2.63904 2.06566,-3.39127 0.34283,-0.19793 0.50891,-0.31904 0.97199,-0.31904 z"
       id="path4185"
       inkscape:connector-curvature="0"
       sodipodi:nodetypes="cccccccc" />
    <path
       style="fill:url(#linearGradient4243);fill-opacity:1;stroke:none"
       d="m 405.08433,508.66775 c -1.50069,0.006 -3.00152,0.46658 -4.50508,1.37793 -1.95478,1.22501 -3.75453,2.84301 -5.39714,4.85643 -1.63276,1.96344 -3.00908,4.08232 -4.13132,6.35396 -1.12223,2.27165 -1.85068,4.25559 -2.18527,5.95529 -0.26569,1.34976 -0.37294,1.91527 -0.31899,3.22409 0.0637,1.25883 0.3269,2.42563 0.78988,3.5034 0.52274,1.0376 1.25615,1.93454 2.19773,2.6911 0.93172,0.80654 2.14569,1.3593 3.64543,1.65452 2.04964,0.40348 4.09477,0.44044 6.1322,0.11461 7.07024,-0.44092 13.54711,-10.71116 19.09185,-7.5099 4.66833,2.48689 6.05479,-3.42031 2.60082,-3.83163 -6.40829,-0.64189 -12.26701,5.1829 -15.75726,7.27772 -1.38675,0.71366 -2.84534,1.25773 -4.37303,1.6321 -1.51784,0.32436 -3.07481,0.33004 -4.67452,0.0149 -1.7497,-0.34442 -2.90563,-1.06541 -3.46852,-2.16284 -0.55306,-1.14742 -0.66349,-2.57116 -0.32891,-4.27086 0.18697,-0.94983 0.51792,-1.97422 0.99421,-3.07482 1.22852,-0.17361 2.62735,-0.67839 4.19361,-1.51249 1.56624,-0.83412 3.06233,-1.83911 4.48765,-3.01253 1.48518,-1.21356 2.74986,-2.49515 3.79494,-3.84727 1.10491,-1.39229 1.77978,-2.71461 2.02579,-3.96437 0.25585,-1.29977 0.0917,-2.44614 -0.49087,-3.4436 -0.53259,-0.9876 -1.4734,-1.61558 -2.82316,-1.88128 -0.49992,-0.0984 -0.99981,-0.14665 -1.50004,-0.14451 z m -0.152,3.58812 c 0.201,-0.0318 0.39561,-0.0294 0.58308,0.008 0.49991,0.0984 0.7859,0.36293 0.85716,0.79237 0.13108,0.3893 0.15851,0.78365 0.0797,1.18358 -0.19683,0.99981 -0.67883,1.99605 -1.44521,2.98761 -0.75655,0.94157 -1.63972,1.85853 -2.64624,2.7509 -0.99667,0.84237 -2.0524,1.59465 -3.16951,2.25753 -1.10728,0.61288 -2.10927,1.09029 -3.00754,1.43275 0.22792,-0.6302 0.70481,-1.60167 1.43026,-2.91285 0.7353,-1.36118 1.56384,-2.67762 2.48926,-3.94943 0.93526,-1.32182 1.88157,-2.43426 2.83811,-3.33646 0.72475,-0.71416 1.38792,-1.11797 1.9909,-1.21348 z"
       id="path4201"
       inkscape:connector-curvature="0"
       sodipodi:nodetypes="sccsscccscccccccscsccscsscccccccccccsc" />
    <path
       style="fill:url(#linearGradient4297);fill-opacity:1;stroke:none"
       d="m 411.74483,504.09589 c -1.649,-8.3e-4 -2.98599,1.33616 -2.98516,2.98517 -0.20821,3.65165 5.63343,6.164 5.91056,9.19696 0.13051,2.66159 -1.3217,5.26657 -3.48808,7.84756 8.12641,-5.45745 6.47822,-10.10324 4.60595,-12.81202 -1.37192,-1.98493 -1.14093,-3.35288 -1.07554,-3.93623 0.005,-0.0398 0.003,-0.0797 0.005,-0.11201 0.005,-0.0614 0.009,-0.12273 0.0102,-0.18424 8.2e-4,-1.64803 -1.33466,-2.98461 -2.98267,-2.98516 z"
       id="path4288"
       inkscape:connector-curvature="0"
       sodipodi:nodetypes="ccccsscccc" />
    <path
       sodipodi:nodetypes="ccccc"
       inkscape:connector-curvature="0"
       id="path4312"
       d="m 422.1096,510.13005 c 3.74766,-1.857 5.97057,3.80454 1.26051,4.19269 -2.12661,0.30182 -3.92746,3.7871 -5.59079,5.737 1.60878,-4.16198 1.28592,-8.19748 4.33056,-9.92991 z"
       style="fill:url(#linearGradient4314);fill-opacity:1;stroke:none" />
    <path
       style="fill:#1e1e1e;fill-opacity:0.31372549;stroke:none"
       d="m 414.69253,506.7192 c -0.0245,0.22497 -0.0277,0.51771 0,0.87958 0.008,-0.0695 0.0137,-0.1663 0.0199,-0.22177 0.005,-0.0398 0.003,-0.0799 0.005,-0.11214 0.005,-0.0614 0.009,-0.12286 0.0102,-0.18439 6e-5,-0.12387 -0.0203,-0.24135 -0.0348,-0.3613 z"
       id="path4116"
       inkscape:connector-curvature="0" />
    <path
       style="fill:#7e0e12;fill-opacity:0.31372549;stroke:none"
       d="m 408.78707,506.80392 c -0.009,0.0926 -0.0274,0.18165 -0.0274,0.27658 -0.20614,3.61537 5.51026,6.11462 5.89299,9.10735 0.0183,-0.26755 0.0306,-0.53619 0.0175,-0.80483 -0.26121,-2.85885 -5.46063,-5.25522 -5.88303,-8.5791 z"
       id="path4114"
       inkscape:connector-curvature="0" />
    <path
       style="fill:#0052a0;fill-opacity:0.31372549;stroke:none"
       d="m 404.93234,511.36133 c -0.603,0.0956 -1.26616,0.49932 -1.99092,1.21348 -0.95651,0.90219 -1.90284,2.01464 -2.8381,3.33646 -0.92543,1.27181 -1.75395,2.58826 -2.48926,3.94942 -0.72545,1.3112 -1.20236,2.28265 -1.43026,2.91286 0.15314,-0.0584 0.3267,-0.14307 0.48589,-0.20931 0.24679,-0.5099 0.55234,-1.10044 0.94437,-1.80901 0.73531,-1.36118 1.56383,-2.67761 2.48926,-3.94942 0.93526,-1.32182 1.88158,-2.43426 2.8381,-3.33645 0.72476,-0.71417 1.38792,-1.11798 1.99092,-1.2135 0.20099,-0.0318 0.3956,-0.0295 0.58306,0.008 0.49992,0.0985 0.78591,0.36293 0.85717,0.79238 0.0371,0.11049 0.0468,0.22259 0.0672,0.3339 0.003,-0.0151 0.009,-0.0299 0.0127,-0.0449 0.0787,-0.39993 0.0513,-0.79428 -0.0797,-1.18359 -0.0713,-0.42942 -0.35726,-0.69388 -0.85717,-0.79237 -0.18746,-0.0371 -0.38208,-0.0393 -0.58307,-0.008 z"
       id="path4112"
       inkscape:connector-curvature="0" />
    <path
       style="fill:#903510;fill-opacity:0.31372549;stroke:none"
       d="m 425.98265,511.66782 c -0.1968,0.86336 -0.98678,1.6253 -2.61136,1.75917 -1.90314,0.27011 -3.53936,3.04595 -5.05576,5.03333 -0.1547,0.52839 -0.32804,1.06242 -0.53573,1.59971 1.66334,-1.94989 3.46489,-5.43668 5.59149,-5.73851 2.17793,-0.17947 2.8636,-1.48434 2.61136,-2.6537 z"
       id="path4110"
       inkscape:connector-curvature="0" />
    <path
       style="fill:#0052a0;fill-opacity:0.31372549;stroke:none"
       d="m 409.98062,512.55488 c -0.0188,0.22651 -0.0356,0.45106 -0.0822,0.68772 -0.24602,1.24978 -0.92089,2.57208 -2.02579,3.96437 -1.04508,1.35212 -2.30977,2.63372 -3.79494,3.84728 -1.42532,1.17342 -2.92141,2.17841 -4.48765,3.01253 -1.56624,0.8341 -2.96511,1.33887 -4.19361,1.51248 -0.47629,1.10059 -0.80724,2.125 -0.99422,3.07483 -0.16831,0.85509 -0.22358,1.63934 -0.16695,2.3547 0.0198,-0.46418 0.0656,-0.94534 0.16695,-1.46017 0.18698,-0.94983 0.51793,-1.97422 0.99422,-3.07482 1.22852,-0.17361 2.62736,-0.67838 4.19361,-1.51249 1.56624,-0.83411 3.06233,-1.83911 4.48765,-3.01253 1.48518,-1.21356 2.74986,-2.49515 3.79494,-3.84727 1.10491,-1.39229 1.77977,-2.7146 2.02579,-3.96437 0.10985,-0.55768 0.12694,-1.0807 0.0822,-1.58226 z"
       id="path4108"
       inkscape:connector-curvature="0" />
    <path
       style="fill:#7e0e12;fill-opacity:0.31372549;stroke:none"
       d="m 417.2989,515.17371 c -0.13341,2.03427 -1.31642,4.39668 -4.61224,6.96694 -0.44607,0.6638 -0.95105,1.32595 -1.50501,1.98592 5.0427,-3.38652 6.31977,-6.46014 6.11725,-8.95286 z"
       id="path4106"
       inkscape:connector-curvature="0" />
    <path
       style="fill:#0052a0;fill-opacity:0.31372549;stroke:none"
       d="m 424.8813,528.71887 c -0.28442,1.43136 -1.86578,2.66717 -4.47768,1.27578 -5.54472,-3.20126 -12.0216,7.06922 -19.0918,7.51014 -2.03743,0.32588 -4.08257,0.28886 -6.1322,-0.11457 -1.49974,-0.29521 -2.7137,-0.84798 -3.64543,-1.65453 -0.94157,-0.75654 -1.67499,-1.65349 -2.19773,-2.69108 -0.46298,-1.07776 -0.72622,-2.24458 -0.78988,-3.50341 -0.001,-0.0387 0.001,-0.0648 0,-0.10219 -0.0115,0.29548 -0.016,0.61139 0,0.9967 0.0637,1.25883 0.3269,2.42563 0.78988,3.50341 0.52274,1.03759 1.25616,1.93454 2.19773,2.69109 0.93173,0.80654 2.14569,1.35931 3.64543,1.65452 2.04964,0.40348 4.09477,0.44045 6.1322,0.11457 7.07024,-0.44092 13.54706,-10.7114 19.0918,-7.51014 3.15459,1.68049 4.80101,-0.47058 4.47768,-2.17031 z"
       id="path4104"
       inkscape:connector-curvature="0" />
    <path
       style="fill:#506711;fill-opacity:0.31372549;stroke:none"
       d="m 429.67294,530.2812 c -0.12043,0.41746 -0.39818,0.76737 -0.76746,0.97926 -0.32398,0.18704 -0.8249,0.22313 -1.04404,0.16445 -0.69581,-0.15569 -1.67791,-0.19985 -2.60887,0.34137 -0.0526,0.15853 -0.0672,0.32873 -0.10219,0.49337 0.14381,0.0746 0.28513,0.15282 0.42109,0.23921 0.83153,-0.36232 1.67341,-0.31737 2.28993,-0.1794 0.21914,0.0587 0.72005,0.0226 1.04405,-0.16446 0.49877,-0.2862 0.83511,-0.82387 0.83472,-1.44024 -1.2e-4,-0.15123 -0.0292,-0.29437 -0.0672,-0.43356 z"
       id="path4102"
       inkscape:connector-curvature="0" />
    <path
       style="fill:#064d72;fill-opacity:0.31372549;stroke:none"
       d="m 388.40455,534.94576 c 2.41266,5.14717 7.58152,8.43743 13.26608,8.44454 4.65887,-0.16011 7.6347,-2.82147 11.73864,-3.07731 0.81331,0 3.53855,-0.52526 7.99852,2.38709 l 0.0102,-0.0199 c 0.67,0.38074 1.42712,0.58162 2.19773,0.58307 2.46608,0 4.46522,-1.99914 4.46522,-4.46522 0,-0.21703 -0.0153,-0.419 -0.0274,-0.62294 -0.14276,2.33732 -2.06458,4.19362 -4.43781,4.19362 -0.7706,-0.001 -1.52773,-0.20232 -2.19773,-0.58307 l -0.0102,0.0199 c -4.45995,-2.91235 -7.18523,-2.3871 -7.99852,-2.3871 -4.10393,0.25585 -7.0798,2.91721 -11.73864,3.07732 -4.59749,-0.006 -8.85656,-2.1598 -11.59412,-5.70612 -0.59909,-0.56854 -1.16954,-1.17108 -1.67197,-1.84389 z"
       id="path4337"
       inkscape:connector-curvature="0" />
  </g>
</svg>
