<?xml version="1.0" encoding="UTF-8" standalone="no"?>
<svg
   xmlns:dc="http://purl.org/dc/elements/1.1/"
   xmlns:cc="http://creativecommons.org/ns#"
   xmlns:rdf="http://www.w3.org/1999/02/22-rdf-syntax-ns#"
   xmlns:svg="http://www.w3.org/2000/svg"
   xmlns="http://www.w3.org/2000/svg"
   xmlns:xlink="http://www.w3.org/1999/xlink"
   xmlns:sodipodi="http://sodipodi.sourceforge.net/DTD/sodipodi-0.dtd"
   xmlns:inkscape="http://www.inkscape.org/namespaces/inkscape"
   width="48"
   viewBox="0 0 13.546667 13.546667"
   height="48"
   id="svg2"
   version="1.1"
   inkscape:version="0.48.5 r10040"
   sodipodi:docname="epoptes.svg">
  <metadata
     id="metadata22">
    <rdf:RDF>
      <cc:Work
         rdf:about="">
        <dc:format>image/svg+xml</dc:format>
        <dc:type
           rdf:resource="http://purl.org/dc/dcmitype/StillImage" />
      </cc:Work>
    </rdf:RDF>
  </metadata>
  <sodipodi:namedview
     pagecolor="#ffffff"
     bordercolor="#666666"
     borderopacity="1"
     objecttolerance="10"
     gridtolerance="10"
     guidetolerance="10"
     inkscape:pageopacity="0"
     inkscape:pageshadow="2"
     inkscape:window-width="1301"
     inkscape:window-height="744"
     id="namedview20"
     showgrid="true"
     inkscape:zoom="5.930887"
     inkscape:cx="-19.962923"
     inkscape:cy="29.352567"
     inkscape:window-x="65"
     inkscape:window-y="24"
     inkscape:window-maximized="1"
     inkscape:current-layer="svg2">
    <inkscape:grid
       type="xygrid"
       id="grid4296" />
  </sodipodi:namedview>
  <defs
     id="defs4">
    <linearGradient
       y2="-1004.7674"
       x2="22.080658"
       y1="-1052.8413"
       x1="22.080658"
       gradientUnits="userSpaceOnUse"
       id="linearGradient1698"
       xlink:href="#linearGradient1462"
       inkscape:collect="always"
       gradientTransform="matrix(0.28222223,0,0,0.28222223,-3.056488e-7,283.45334)" />
    <linearGradient
       inkscape:collect="always"
       id="linearGradient1462">
      <stop
         style="stop-color:#000000;stop-opacity:1"
         offset="0"
         id="stop1464" />
      <stop
         style="stop-color:#666666;stop-opacity:1"
         offset="1"
         id="stop1466" />
    </linearGradient>
    <linearGradient
       inkscape:collect="always"
       xlink:href="#linearGradient1499"
       id="linearGradient1497"
       x1="2.0000014"
       y1="34.05632"
       x2="46"
       y2="34.05632"
       gradientUnits="userSpaceOnUse"
       gradientTransform="matrix(0.26063817,0,0,0.26253292,0.51801718,0.43150392)" />
    <linearGradient
       id="linearGradient1499"
       inkscape:collect="always">
      <stop
         id="stop1501"
         offset="0"
         style="stop-color:#256e0d;stop-opacity:1" />
      <stop
         id="stop1503"
         offset="1"
         style="stop-color:#4ea119;stop-opacity:1" />
    </linearGradient>
    <linearGradient
       inkscape:collect="always"
       xlink:href="#linearGradient1483"
       id="linearGradient1489"
       x1="2.0000014"
       y1="11.880357"
       x2="46"
       y2="11.880357"
       gradientUnits="userSpaceOnUse"
       gradientTransform="matrix(0.26063817,0,0,0.25877193,0.51801718,0.52237951)" />
    <linearGradient
       inkscape:collect="always"
       id="linearGradient1483">
      <stop
         style="stop-color:#43bc16;stop-opacity:1"
         offset="0"
         id="stop1485" />
      <stop
         style="stop-color:#88c34a;stop-opacity:1"
         offset="1"
         id="stop1487" />
    </linearGradient>
    <linearGradient
       inkscape:collect="always"
       xlink:href="#linearGradient1539"
       id="linearGradient1545"
       x1="24.40625"
       y1="1027.2728"
       x2="24.40625"
       y2="1027.844"
       gradientUnits="userSpaceOnUse"
       gradientTransform="matrix(0.25656567,0,0,0.43634777,0.61575709,-441.77318)" />
    <linearGradient
       inkscape:collect="always"
       id="linearGradient1539">
      <stop
         style="stop-color:#000000;stop-opacity:1;"
         offset="0"
         id="stop1541" />
      <stop
         style="stop-color:#000000;stop-opacity:0;"
         offset="1"
         id="stop1543" />
    </linearGradient>
    <linearGradient
       inkscape:collect="always"
       xlink:href="#linearGradient1577"
       id="linearGradient1583"
       x1="19.55019"
       y1="20.5625"
       x2="25.399618"
       y2="20.5625"
       gradientUnits="userSpaceOnUse" />
    <linearGradient
       inkscape:collect="always"
       id="linearGradient1577">
      <stop
         style="stop-color:#b6e500;stop-opacity:1"
         offset="0"
         id="stop1579" />
      <stop
         style="stop-color:#ccff00;stop-opacity:1"
         offset="1"
         id="stop1581" />
    </linearGradient>
  </defs>
  <path
     style="fill:url(#linearGradient1497);fill-opacity:1;stroke:none"
     d="m 12.417778,6.7733356 -11.2888901,0 0,5.1850404 c 0,0.25523 0.2027208,0.459402 0.4561168,0.459402 l 10.3766563,0 c 0.253397,0 0.456117,-0.204172 0.456117,-0.459402 l 0,-5.1850404 z"
     id="path1481"
     inkscape:connector-curvature="0" />
  <path
     style="fill:url(#linearGradient1489);fill-opacity:1;stroke:none"
     d="m 1.5850047,1.1288889 c -0.253396,0 -0.4561168,0.2012264 -0.4561168,0.452846 l 0,5.1916007 11.2888901,0 0,-5.1916007 c 0,-0.2516196 -0.20272,-0.452846 -0.456117,-0.452846 l -10.3766563,0 z"
     id="rect1476"
     inkscape:connector-curvature="0" />
  <path
     id="rect4171"
     d="m 5.0531211,2.1861014 0,2.5803178 1.1468079,0 0,0.2867018 0.2867021,0 0,-0.2867018 0.5734038,0 0,0.2867018 0.286702,0 0,-0.2867018 1.1468079,0 0,-2.5803178 -3.4404237,0 z m 0.2867019,0.2867019 2.8670199,0 0,1.43351 -2.8670199,0 0,-1.43351 z m 0,1.7202119 2.8670199,0 0,0.286702 -2.8670199,0 0,-0.286702 z m 0.573404,1.1468075 0,0.2867028 1.720212,0 0,-0.2867028 -0.2867021,0 -0.286702,0 -0.5734038,0 -0.2867021,0 -0.286702,0 z"
     style="text-decoration:none;color:#000000;fill:#ffffff;fill-opacity:1;fill-rule:nonzero;stroke:none;visibility:visible;display:inline;overflow:visible;enable-background:accumulate"
     inkscape:connector-curvature="0" />
  <path
     inkscape:connector-curvature="0"
     style="text-decoration:none;color:#000000;fill:#ffffff;fill-opacity:1;fill-rule:nonzero;stroke:none;visibility:visible;display:inline;overflow:visible;enable-background:accumulate"
     d="m 5.0531211,7.9201409 0,2.5803181 1.1468079,0 0,0.286701 0.2867021,0 0,-0.286701 0.5734038,0 0,0.286701 0.286702,0 0,-0.286701 1.1468079,0 0,-2.5803181 -3.4404237,0 z m 0.2867019,0.2867019 2.8670199,0 0,1.43351 -2.8670199,0 0,-1.43351 z m 0,1.7202119 2.8670199,0 0,0.2867023 -2.8670199,0 0,-0.2867023 z m 0.573404,1.1468073 0,0.286703 1.720212,0 0,-0.286703 -0.2867021,0 -0.286702,0 -0.5734038,0 -0.2867021,0 -0.286702,0 z"
     id="path4298" />
  <path
     style="opacity:0.5;fill:#000000;fill-opacity:1;stroke:none"
     d="m 1.7736694,12.417778 0,0 c 5.0398324,-0.282222 5.0398324,-0.282222 10.0796646,0 z"
     id="path3257"
     inkscape:connector-curvature="0"
     sodipodi:nodetypes="cccc" />
  <path
     sodipodi:nodetypes="cccc"
     inkscape:connector-curvature="0"
     id="path4027"
     d="m 1.7736694,1.1288893 0,0 c 5.0398324,0.2822222 5.0398324,0.2822222 10.0796646,0 z"
     style="opacity:0.75;fill:#ffffff;fill-opacity:1;stroke:none" />
</svg>
