<?xml version="1.0" encoding="UTF-8" standalone="no"?>
<!-- Created with Inkscape (http://www.inkscape.org/) -->

<svg
   xmlns:dc="http://purl.org/dc/elements/1.1/"
   xmlns:cc="http://creativecommons.org/ns#"
   xmlns:rdf="http://www.w3.org/1999/02/22-rdf-syntax-ns#"
   xmlns:svg="http://www.w3.org/2000/svg"
   xmlns="http://www.w3.org/2000/svg"
   xmlns:xlink="http://www.w3.org/1999/xlink"
   xmlns:sodipodi="http://sodipodi.sourceforge.net/DTD/sodipodi-0.dtd"
   xmlns:inkscape="http://www.inkscape.org/namespaces/inkscape"
   width="48"
   height="48"
   id="svg2"
   version="1.1"
   inkscape:version="0.48.5 r10040"
   sodipodi:docname="face-smile-.svg"
   inkscape:export-filename="/home/uri/workspace/NitruxforAndroid/res/drawable-xhdpi/google_news.png"
   inkscape:export-xdpi="180"
   inkscape:export-ydpi="180">
  <defs
     id="defs4">
    <linearGradient
       id="linearGradient4181"
       spreadMethod="pad"
       gradientTransform="matrix(-21.766113,37.700012,37.700012,21.766113,190.19434,424.35156)"
       gradientUnits="userSpaceOnUse"
       y2="0"
       x2="1"
       y1="0"
       x1="0">
      <stop
         id="stop4183"
         offset="0"
         style="stop-opacity:1;stop-color:#ffe95a" />
      <stop
         style="stop-color:#fdbe02;stop-opacity:0.75313807"
         offset="0.69047624"
         id="stop4185" />
      <stop
         id="stop4187"
         offset="1"
         style="stop-opacity:0;stop-color:#fdbc02" />
    </linearGradient>
    <linearGradient
       inkscape:collect="always"
       id="linearGradient4157">
      <stop
         style="stop-color:#ffffff;stop-opacity:1;"
         offset="0"
         id="stop4159" />
      <stop
         style="stop-color:#ffffff;stop-opacity:0;"
         offset="1"
         id="stop4161" />
    </linearGradient>
    <radialGradient
       id="radialGradient2493"
       spreadMethod="pad"
       gradientTransform="matrix(301.28952,0,0,-294.11624,297.63867,297.6377)"
       gradientUnits="userSpaceOnUse"
       r="1"
       cy="0"
       cx="0"
       fy="0"
       fx="0">
      <stop
         id="stop2495"
         offset="0"
         style="stop-opacity:1;stop-color:#4080d7" />
      <stop
         id="stop2497"
         offset="1"
         style="stop-opacity:1;stop-color:#67adfd" />
    </radialGradient>
    <linearGradient
       x1="0"
       y1="0"
       x2="1"
       y2="0"
       gradientUnits="userSpaceOnUse"
       gradientTransform="matrix(-21.766113,37.700012,37.700012,21.766113,190.19434,424.35156)"
       spreadMethod="pad"
       id="linearGradient460">
      <stop
         style="stop-opacity:1;stop-color:#ffe95a"
         offset="0"
         id="stop462" />
      <stop
         id="stop4153"
         offset="0.69047624"
         style="stop-color:#fdbe02;stop-opacity:1" />
      <stop
         style="stop-opacity:1;stop-color:#fdbc02"
         offset="1"
         id="stop464" />
    </linearGradient>
    <linearGradient
       inkscape:collect="always"
       xlink:href="#radialGradient2493"
       id="linearGradient2491"
       x1="25.102289"
       y1="-1051.4783"
       x2="25.102289"
       y2="-1004.6325"
       gradientUnits="userSpaceOnUse" />
    <radialGradient
       inkscape:collect="always"
       xlink:href="#linearGradient460"
       id="radialGradient4151"
       cx="12.059889"
       cy="15.369731"
       fx="12.059889"
       fy="15.369731"
       r="7.6231403"
       gradientUnits="userSpaceOnUse"
       gradientTransform="matrix(2.0159741,0,0,2.0159741,-6.1669191,989.8965)" />
    <linearGradient
       inkscape:collect="always"
       xlink:href="#linearGradient4157"
       id="linearGradient4163"
       x1="5.6064367"
       y1="9.4862299"
       x2="16.758808"
       y2="20.638601"
       gradientUnits="userSpaceOnUse"
       gradientTransform="matrix(2.0160764,0,0,2.0160764,-6.1684472,989.89444)" />
    <radialGradient
       inkscape:collect="always"
       xlink:href="#linearGradient4181"
       id="radialGradient4179"
       cx="14.963943"
       cy="19.080467"
       fx="14.963943"
       fy="19.080467"
       r="7.6231403"
       gradientUnits="userSpaceOnUse"
       gradientTransform="matrix(2.5448828,0,0,2.5448828,-14.081484,979.8046)" />
  </defs>
  <sodipodi:namedview
     id="base"
     pagecolor="#ffffff"
     bordercolor="#666666"
     borderopacity="1.0"
     inkscape:pageopacity="0.0"
     inkscape:pageshadow="2"
     inkscape:zoom="6.4735156"
     inkscape:cx="-1.5165266"
     inkscape:cy="22.122248"
     inkscape:document-units="px"
     inkscape:current-layer="layer1"
     showgrid="true"
     inkscape:window-width="1301"
     inkscape:window-height="744"
     inkscape:window-x="65"
     inkscape:window-y="24"
     inkscape:window-maximized="1">
    <inkscape:grid
       type="xygrid"
       id="grid3850" />
  </sodipodi:namedview>
  <metadata
     id="metadata7">
    <rdf:RDF>
      <cc:Work
         rdf:about="">
        <dc:format>image/svg+xml</dc:format>
        <dc:type
           rdf:resource="http://purl.org/dc/dcmitype/StillImage" />
        <dc:title />
      </cc:Work>
    </rdf:RDF>
  </metadata>
  <g
     inkscape:label="Capa 1"
     inkscape:groupmode="layer"
     id="layer1"
     transform="translate(0,-1004.3622)">
    <circle
       style="fill:url(#radialGradient4151);fill-opacity:1;stroke:none"
       id="path4143"
       cx="24"
       cy="1028.3623"
       r="15.368052"
       d="m 39.368052,1028.3623 c 0,8.4875 -6.880512,15.3681 -15.368052,15.3681 -8.48754,0 -15.3680515,-6.8806 -15.3680515,-15.3681 0,-8.4875 6.8805115,-15.368 15.3680515,-15.368 8.48754,0 15.368052,6.8805 15.368052,15.368 z"
       sodipodi:cx="24"
       sodipodi:cy="1028.3623"
       sodipodi:rx="15.368052"
       sodipodi:ry="15.368052"
       transform="matrix(1.3013919,0,0,1.3013919,-7.2334068,-309.94008)" />
    <circle
       id="path4155"
       style="fill:url(#linearGradient4163);fill-opacity:1;stroke:none"
       cx="24"
       cy="1028.3622"
       r="15.368831"
       d="m 39.368831,1028.3622 c 0,8.488 -6.88086,15.3688 -15.368831,15.3688 -8.487971,0 -15.3688307,-6.8808 -15.3688307,-15.3688 0,-8.488 6.8808597,-15.3688 15.3688307,-15.3688 8.487971,0 15.368831,6.8808 15.368831,15.3688 z"
       sodipodi:cx="24"
       sodipodi:cy="1028.3622"
       sodipodi:rx="15.368831"
       sodipodi:ry="15.368831"
       transform="matrix(1.3013919,0,0,1.3013919,-7.2334068,-309.94008)" />
    <rect
       style="fill:#1a1a1a;fill-opacity:1;stroke:none"
       id="rect4435"
       width="11.253214"
       height="11.253214"
       x="10.329741"
       y="1019.473"
       ry="5.6266069" />
    <rect
       ry="5.6266069"
       y="1019.473"
       x="26.405762"
       height="11.253214"
       width="11.253214"
       id="rect4439"
       style="fill:#1a1a1a;fill-opacity:1;stroke:none" />
    <circle
       sodipodi:ry="1.3380764"
       sodipodi:rx="1.3380764"
       sodipodi:cy="1025.3549"
       sodipodi:cx="19.579607"
       d="m 20.917683,1025.3549 c 0,0.739 -0.599077,1.338 -1.338076,1.338 -0.738999,0 -1.338076,-0.599 -1.338076,-1.338 0,-0.739 0.599077,-1.3381 1.338076,-1.3381 0.738999,0 1.338076,0.5991 1.338076,1.3381 z"
       style="fill:#ffffff;fill-opacity:1;stroke:none"
       id="path4449"
       cx="19.579607"
       cy="1025.3549"
       r="1.3380764"
       transform="matrix(1.6076019,0,0,1.6076019,-14.581115,-625.40199)" />
    <circle
       sodipodi:ry="0.47461477"
       sodipodi:rx="0.47461477"
       sodipodi:cy="1028.4952"
       sodipodi:cx="17.476915"
       d="m 17.95153,1028.4952 c 0,0.2622 -0.212492,0.4747 -0.474615,0.4747 -0.262122,0 -0.474614,-0.2125 -0.474614,-0.4747 0,-0.2621 0.212492,-0.4746 0.474614,-0.4746 0.262123,0 0.474615,0.2125 0.474615,0.4746 z"
       r="0.47461477"
       cy="1028.4952"
       cx="17.476915"
       id="circle4451"
       style="fill:#ffffff;fill-opacity:1;stroke:none"
       transform="matrix(1.6076019,0,0,1.6076019,-14.581115,-625.40199)" />
    <circle
       sodipodi:ry="1.3380764"
       sodipodi:rx="1.3380764"
       sodipodi:cy="1025.3549"
       sodipodi:cx="30.120371"
       d="m 31.458447,1025.3549 c 0,0.739 -0.599077,1.338 -1.338076,1.338 -0.738999,0 -1.338076,-0.599 -1.338076,-1.338 0,-0.739 0.599077,-1.3381 1.338076,-1.3381 0.738999,0 1.338076,0.5991 1.338076,1.3381 z"
       r="1.3380764"
       cy="1025.3549"
       cx="30.120371"
       id="circle4453"
       style="fill:#ffffff;fill-opacity:1;stroke:none"
       transform="matrix(1.6076019,0,0,1.6076019,-14.581115,-625.40199)" />
    <circle
       sodipodi:ry="0.47461477"
       sodipodi:rx="0.47461477"
       sodipodi:cy="1028.4952"
       sodipodi:cx="28.017679"
       d="m 28.492294,1028.4952 c 0,0.2622 -0.212492,0.4747 -0.474615,0.4747 -0.262122,0 -0.474615,-0.2125 -0.474615,-0.4747 0,-0.2621 0.212493,-0.4746 0.474615,-0.4746 0.262123,0 0.474615,0.2125 0.474615,0.4746 z"
       style="fill:#ffffff;fill-opacity:1;stroke:none"
       id="circle4455"
       cx="28.017679"
       cy="1028.4952"
       r="0.47461477"
       transform="matrix(1.6076019,0,0,1.6076019,-14.581115,-625.40199)" />
    <g
       transform="matrix(0,1,-1,0,0,0)"
       style="font-size:23.37950134px;font-style:normal;font-variant:normal;font-weight:normal;font-stretch:normal;line-height:125%;letter-spacing:0px;word-spacing:0px;fill:#1a1a1a;fill-opacity:1;stroke:none;font-family:Satellite;-inkscape-font-specification:Satellite"
       id="text3009">
      <path
         d="m 1037.2974,-14.6482 c 3.203,-2.010635 5.237,-5.424048 5.237,-9.3518 0,-3.927753 -2.034,-7.341166 -5.237,-9.351801 l 0,1.052078 c 2.6652,1.800219 4.3953,4.862939 4.3953,8.299723 0,3.436783 -1.7301,6.499503 -4.3953,8.299723 l 0,1.052077"
         style=""
         id="path3014" />
    </g>
  </g>
</svg>
