<?xml version="1.0" encoding="UTF-8" standalone="no"?>
<!-- Created with Inkscape (http://www.inkscape.org/) -->

<svg
   xmlns:dc="http://purl.org/dc/elements/1.1/"
   xmlns:cc="http://creativecommons.org/ns#"
   xmlns:rdf="http://www.w3.org/1999/02/22-rdf-syntax-ns#"
   xmlns:svg="http://www.w3.org/2000/svg"
   xmlns="http://www.w3.org/2000/svg"
   xmlns:xlink="http://www.w3.org/1999/xlink"
   xmlns:sodipodi="http://sodipodi.sourceforge.net/DTD/sodipodi-0.dtd"
   xmlns:inkscape="http://www.inkscape.org/namespaces/inkscape"
   width="48"
   height="48"
   id="svg2"
   version="1.1"
   inkscape:version="0.48.5 r10040"
   sodipodi:docname="fityk.svg"
   inkscape:export-filename="/home/uri/workspace/NitruxforAndroid/res/drawable-xhdpi/ubuntu_one_files.png"
   inkscape:export-xdpi="180"
   inkscape:export-ydpi="180">
  <defs
     id="defs4">
    <linearGradient
       id="linearGradient4078">
      <stop
         id="stop4080"
         offset="0"
         style="stop-color:#f9cebf;stop-opacity:1" />
      <stop
         id="stop4082"
         offset="1"
         style="stop-color:#fef8f6;stop-opacity:1" />
    </linearGradient>
    <linearGradient
       id="linearGradient3795">
      <stop
         style="stop-color:#dd4814;stop-opacity:1"
         offset="0"
         id="stop3797" />
      <stop
         style="stop-color:#ed632b;stop-opacity:1"
         offset="1"
         id="stop3799" />
    </linearGradient>
    <linearGradient
       inkscape:collect="always"
       xlink:href="#linearGradient3795"
       id="linearGradient3801"
       x1="0"
       y1="1022.3622"
       x2="48"
       y2="1022.3622"
       gradientUnits="userSpaceOnUse"
       gradientTransform="matrix(0.83333343,0,0,0.83333343,3.9999977,171.3936)" />
    <clipPath
       id="clipPath-479245054">
      <g
         id="g4167"
         transform="translate(0,-1004.3622)">
        <path
           id="path4169"
           fill="#1890d0"
           transform="matrix(15.333333,0,0,11.5,414.99999,878.8622)"
           d="m -24 13 c 0 1.105 -0.672 2 -1.5 2 -0.828 0 -1.5 -0.895 -1.5 -2 0 -1.105 0.672 -2 1.5 -2 0.828 0 1.5 0.895 1.5 2 z" />
      </g>
    </clipPath>
    <linearGradient
       inkscape:collect="always"
       xlink:href="#linearGradient4078"
       id="linearGradient4334"
       x1="25.622053"
       y1="36.625652"
       x2="25.622053"
       y2="11.565977"
       gradientUnits="userSpaceOnUse" />
    <linearGradient
       inkscape:collect="always"
       xlink:href="#linearGradient4078"
       id="linearGradient3048"
       gradientUnits="userSpaceOnUse"
       x1="10.21729"
       y1="21.266497"
       x2="36.972931"
       y2="22.074873" />
    <linearGradient
       inkscape:collect="always"
       xlink:href="#linearGradient4078"
       id="linearGradient3050"
       gradientUnits="userSpaceOnUse"
       x1="25.622053"
       y1="36.625652"
       x2="25.622053"
       y2="11.565977" />
    <linearGradient
       inkscape:collect="always"
       xlink:href="#linearGradient4078"
       id="linearGradient3052"
       gradientUnits="userSpaceOnUse"
       x1="25.622053"
       y1="36.625652"
       x2="25.622053"
       y2="11.565977" />
    <linearGradient
       inkscape:collect="always"
       xlink:href="#linearGradient4078"
       id="linearGradient3054"
       gradientUnits="userSpaceOnUse"
       x1="25.622053"
       y1="36.625652"
       x2="25.622053"
       y2="11.565977" />
    <linearGradient
       inkscape:collect="always"
       xlink:href="#linearGradient4078"
       id="linearGradient3056"
       gradientUnits="userSpaceOnUse"
       x1="25.622053"
       y1="36.625652"
       x2="25.622053"
       y2="11.565977" />
    <linearGradient
       inkscape:collect="always"
       xlink:href="#linearGradient4078"
       id="linearGradient3058"
       gradientUnits="userSpaceOnUse"
       x1="25.622053"
       y1="36.625652"
       x2="25.622053"
       y2="11.565977" />
    <linearGradient
       inkscape:collect="always"
       xlink:href="#linearGradient4078"
       id="linearGradient3060"
       gradientUnits="userSpaceOnUse"
       x1="25.622053"
       y1="36.625652"
       x2="25.622053"
       y2="11.565977" />
    <linearGradient
       inkscape:collect="always"
       xlink:href="#linearGradient4078"
       id="linearGradient3062"
       gradientUnits="userSpaceOnUse"
       x1="25.622053"
       y1="36.625652"
       x2="25.622053"
       y2="11.565977" />
    <linearGradient
       inkscape:collect="always"
       xlink:href="#linearGradient4078"
       id="linearGradient3064"
       gradientUnits="userSpaceOnUse"
       x1="25.622053"
       y1="36.625652"
       x2="25.622053"
       y2="11.565977" />
    <linearGradient
       inkscape:collect="always"
       xlink:href="#linearGradient4078"
       id="linearGradient3066"
       gradientUnits="userSpaceOnUse"
       x1="25.622053"
       y1="36.625652"
       x2="25.622053"
       y2="11.565977" />
    <linearGradient
       inkscape:collect="always"
       xlink:href="#linearGradient4078"
       id="linearGradient3068"
       gradientUnits="userSpaceOnUse"
       x1="25.622053"
       y1="36.625652"
       x2="25.622053"
       y2="11.565977" />
  </defs>
  <sodipodi:namedview
     id="base"
     pagecolor="#ffffff"
     bordercolor="#666666"
     borderopacity="1.0"
     inkscape:pageopacity="0.0"
     inkscape:pageshadow="2"
     inkscape:zoom="5.6568542"
     inkscape:cx="66.592837"
     inkscape:cy="0.22033954"
     inkscape:document-units="px"
     inkscape:current-layer="layer1"
     showgrid="true"
     inkscape:window-width="1301"
     inkscape:window-height="744"
     inkscape:window-x="65"
     inkscape:window-y="24"
     inkscape:window-maximized="1">
    <inkscape:grid
       type="xygrid"
       id="grid4326" />
  </sodipodi:namedview>
  <metadata
     id="metadata7">
    <rdf:RDF>
      <cc:Work
         rdf:about="">
        <dc:format>image/svg+xml</dc:format>
        <dc:type
           rdf:resource="http://purl.org/dc/dcmitype/StillImage" />
        <dc:title />
      </cc:Work>
    </rdf:RDF>
  </metadata>
  <g
     inkscape:label="Capa 1"
     inkscape:groupmode="layer"
     id="layer1"
     transform="translate(0,-1004.3622)">
    <rect
       style="fill:url(#linearGradient3801);fill-opacity:1;stroke:none"
       id="rect2991"
       width="40.000004"
       height="40.000004"
       x="3.9999981"
       y="1008.3622"
       ry="0" />
    <g
       id="g4213"
       transform="matrix(1.0278207,0,0,1.0308728,-0.66821067,1003.1058)"
       style="fill:url(#linearGradient4334);fill-opacity:1">
      <g
         clip-path="url(#clipPath-479245054)"
         id="g4215"
         style="fill:url(#linearGradient3068);fill-opacity:1">
        <!-- color: #174767 -->
        <g
           id="g4217"
           style="fill:url(#linearGradient3066);fill-opacity:1">
          <path
             style="fill:url(#linearGradient3050);fill-opacity:1;fill-rule:nonzero;stroke:none"
             inkscape:connector-curvature="0"
             d="m 36,14.332 c 0,1.262 -1.02,2.281 -2.281,2.281 -1.258,0 -2.281,-1.02 -2.281,-2.281 0,-1.262 1.023,-2.281 2.281,-2.281 1.262,0 2.281,1.02 2.281,2.281 m 0,0"
             id="path4219" />
          <path
             style="fill:url(#linearGradient3052);fill-opacity:1;fill-rule:nonzero;stroke:none"
             inkscape:connector-curvature="0"
             d="m 31.22,15.773 c 0,1.262 -1.02,2.281 -2.281,2.281 -1.258,0 -2.281,-1.02 -2.281,-2.281 0,-1.262 1.023,-2.281 2.281,-2.281 1.262,0 2.281,1.02 2.281,2.281 m 0,0"
             id="path4221" />
          <path
             style="fill:url(#linearGradient3054);fill-opacity:1;fill-rule:nonzero;stroke:none"
             inkscape:connector-curvature="0"
             d="m 27.371,19.14 c 0,1.262 -1.02,2.281 -2.281,2.281 -1.258,0 -2.281,-1.02 -2.281,-2.281 0,-1.262 1.023,-2.281 2.281,-2.281 1.262,0 2.281,1.02 2.281,2.281 m 0,0"
             id="path4223" />
          <path
             style="fill:url(#linearGradient3048);fill-opacity:1;fill-rule:nonzero;stroke:none"
             inkscape:connector-curvature="0"
             d="m 25.863,24.25 c 0,1.258 -1.023,2.281 -2.281,2.281 -1.262,0 -2.281,-1.023 -2.281,-2.281 0,-1.262 1.02,-2.285 2.281,-2.285 1.258,0 2.281,1.023 2.281,2.285 m 0,0"
             id="path4225" />
          <path
             style="fill:url(#linearGradient3056);fill-opacity:1;fill-rule:nonzero;stroke:none"
             inkscape:connector-curvature="0"
             d="m 25,29.551 c 0,1.262 -1.023,2.285 -2.281,2.285 -1.262,0 -2.281,-1.023 -2.281,-2.285 0,-1.258 1.02,-2.281 2.281,-2.281 1.258,0 2.281,1.023 2.281,2.281 m 0,0"
             id="path4227" />
          <path
             style="fill:url(#linearGradient3058);fill-opacity:1;fill-rule:nonzero;stroke:none"
             inkscape:connector-curvature="0"
             d="m 21.758,33.703 c 0,1.262 -1.023,2.281 -2.281,2.281 -1.258,0 -2.281,-1.02 -2.281,-2.281 0,-1.262 1.023,-2.281 2.281,-2.281 1.258,0 2.281,1.02 2.281,2.281 m 0,0"
             id="path4229" />
          <path
             style="fill:url(#linearGradient3060);fill-opacity:1;fill-rule:nonzero;stroke:none"
             inkscape:connector-curvature="0"
             d="m 16.563,34.668 c 0,1.262 -1.023,2.281 -2.281,2.281 -1.262,0 -2.281,-1.02 -2.281,-2.281 0,-1.262 1.02,-2.281 2.281,-2.281 1.258,0 2.281,1.02 2.281,2.281 m 0,0"
             id="path4231" />
          <path
             style="fill:url(#linearGradient3062);fill-opacity:1;fill-rule:nonzero;stroke:none"
             inkscape:connector-curvature="0"
             d="m 20.734,24.363004 c 0,1.262 -1.02,2.285 -2.277,2.285 -1.262,0 -2.281,-1.023 -2.281,-2.285 0,-1.258 1.02,-2.281 2.281,-2.281 1.258,0 2.277,1.023 2.277,2.281"
             id="path4233"
             sodipodi:nodetypes="csssc" />
          <path
             style="fill:url(#linearGradient3064);fill-opacity:1;fill-rule:nonzero;stroke:none"
             inkscape:connector-curvature="0"
             d="m 31.28,24.258298 c 0,1.262 -1.023,2.281 -2.281,2.281 -1.258,0 -2.281,-1.02 -2.281,-2.281 0,-1.262 1.023,-2.281 2.281,-2.281 1.258,0 2.281,1.02 2.281,2.281"
             id="path4235"
             sodipodi:nodetypes="csssc" />
        </g>
      </g>
    </g>
    <path
       style="opacity:0.5;fill:#000000;fill-opacity:1;stroke:none"
       d="m 4,1048.3622 0,0 c 20,-1 20,-1 40,0 z"
       id="path3257"
       inkscape:connector-curvature="0"
       sodipodi:nodetypes="cccc" />
    <path
       sodipodi:nodetypes="cccc"
       inkscape:connector-curvature="0"
       id="path4027"
       d="m 4,1008.3622 0,0 c 20,1 20,1 40,0 z"
       style="opacity:0.75;fill:#ffffff;fill-opacity:1;stroke:none" />
  </g>
</svg>
