<?xml version="1.0" encoding="UTF-8" standalone="no"?>
<!-- Created with Inkscape (http://www.inkscape.org/) -->

<svg
   xmlns:dc="http://purl.org/dc/elements/1.1/"
   xmlns:cc="http://creativecommons.org/ns#"
   xmlns:rdf="http://www.w3.org/1999/02/22-rdf-syntax-ns#"
   xmlns:svg="http://www.w3.org/2000/svg"
   xmlns="http://www.w3.org/2000/svg"
   xmlns:xlink="http://www.w3.org/1999/xlink"
   xmlns:sodipodi="http://sodipodi.sourceforge.net/DTD/sodipodi-0.dtd"
   xmlns:inkscape="http://www.inkscape.org/namespaces/inkscape"
   width="48"
   height="48"
   id="svg2"
   version="1.1"
   inkscape:version="0.48.5 r10040"
   sodipodi:docname="fogger.svg"
   inkscape:export-filename="/home/uri/workspace/NitruxforAndroid/res/drawable-xhdpi/ubuntu_one_files.png"
   inkscape:export-xdpi="180"
   inkscape:export-ydpi="180">
  <defs
     id="defs4">
    <linearGradient
       id="linearGradient4078">
      <stop
         id="stop4080"
         offset="0"
         style="stop-color:#f9cebf;stop-opacity:1" />
      <stop
         id="stop4082"
         offset="1"
         style="stop-color:#fef8f6;stop-opacity:1" />
    </linearGradient>
    <linearGradient
       id="linearGradient3795">
      <stop
         style="stop-color:#dd4814;stop-opacity:1"
         offset="0"
         id="stop3797" />
      <stop
         style="stop-color:#ed632b;stop-opacity:1"
         offset="1"
         id="stop3799" />
    </linearGradient>
    <linearGradient
       inkscape:collect="always"
       xlink:href="#linearGradient3795"
       id="linearGradient3801"
       x1="0.079650134"
       y1="1031.4993"
       x2="48.465359"
       y2="1031.4993"
       gradientUnits="userSpaceOnUse"
       gradientTransform="matrix(0.4133452,0,0,0.4133452,13.967077,605.99692)" />
    <linearGradient
       inkscape:collect="always"
       xlink:href="#linearGradient4078"
       id="linearGradient983"
       x1="3.2191226"
       y1="1032.1472"
       x2="44.780876"
       y2="1032.1472"
       gradientUnits="userSpaceOnUse"
       gradientTransform="matrix(0.96242329,0,0,0.96244982,0.90184132,38.972348)" />
  </defs>
  <sodipodi:namedview
     id="base"
     pagecolor="#ffffff"
     bordercolor="#666666"
     borderopacity="1.0"
     inkscape:pageopacity="0.0"
     inkscape:pageshadow="2"
     inkscape:zoom="6.2777085"
     inkscape:cx="-5.9032184"
     inkscape:cy="1.2819264"
     inkscape:document-units="px"
     inkscape:current-layer="layer1"
     showgrid="true"
     inkscape:window-width="1301"
     inkscape:window-height="744"
     inkscape:window-x="65"
     inkscape:window-y="24"
     inkscape:window-maximized="1">
    <inkscape:grid
       type="xygrid"
       id="grid3000" />
  </sodipodi:namedview>
  <metadata
     id="metadata7">
    <rdf:RDF>
      <cc:Work
         rdf:about="">
        <dc:format>image/svg+xml</dc:format>
        <dc:type
           rdf:resource="http://purl.org/dc/dcmitype/StillImage" />
        <dc:title />
      </cc:Work>
    </rdf:RDF>
  </metadata>
  <g
     inkscape:label="Capa 1"
     inkscape:groupmode="layer"
     id="layer1"
     transform="translate(0,-1004.3622)">
    <rect
       style="fill:url(#linearGradient3801);fill-opacity:1;stroke:none"
       id="rect2991"
       width="19.84057"
       height="19.84057"
       x="13.967077"
       y="1021.1452"
       ry="0.80376774" />
    <path
       inkscape:connector-curvature="0"
       id="path4362"
       d="m 27.300651,1013.3622 c -3.716607,0 -6.900866,2.3381 -8.593411,5.7069 -0.953183,-0.793 -2.171944,-1.3066 -3.507674,-1.3066 -3.035762,0 -5.4997833,2.464 -5.4997831,5.4998 0,0.6819 0.1167149,1.323 0.3437361,1.9258 -3.4526264,1.5421 -5.8435192,5.035 -5.8435191,9.074 0,5.4842 4.4158338,9.9001 9.8999991,9.9001 l 19.800001,0 c 5.484162,0 9.9,-4.4159 9.9,-9.9001 0,-4.3448 -2.793567,-8.0097 -6.669659,-9.3494 0.0086,-0.187 0.06836,-0.3595 0.06836,-0.5508 1e-5,-6.0717 -4.433682,-10.9997 -9.898047,-10.9997 z m -3.30651,8.4002 1.462832,2.9237 -2.923712,0 1.46088,-2.9237 z m -8.769186,1.4608 2.923714,0 0,1.4629 -1.460881,0 0,1.461 1.460881,0 0,2.9217 -1.460881,0 0,1.4629 1.460881,0 0,2.9238 -1.460881,0 0,1.4608 1.460881,0 0,2.9219 -1.460881,0 0,1.4628 1.460881,0 0,1.4609 -2.923714,0 0,-17.5387 z m 15.712271,0.5938 0,1.5996 c -0.186432,0.133 -0.320299,0.3476 -0.320299,0.5937 0,0.4036 0.326864,0.7305 0.730439,0.7305 0.403578,0 0.73044,-0.3269 0.73044,-0.7305 0,-0.2805 -0.178192,-0.5181 -0.41014,-0.6406 l 0,-1.5527 c 0.57447,0.8816 1.458698,2.2508 0.958947,3.1522 -0.48163,0.8686 -2.161086,0.8644 -2.648333,0 -0.50233,-0.8909 0.367554,-2.2677 0.958946,-3.1522 z m -8.403965,2.3301 2.923712,0 0,14.6148 -2.923712,0 0,-14.6148 z m 7.308305,2.9217 2.92176,0 0,11.6931 -2.92176,0 0,-11.6931 z"
       style="fill:#000000;fill-opacity:0.23529412;fill-rule:evenodd;stroke:none" />
    <path
       style="fill:url(#linearGradient983);fill-opacity:1;fill-rule:evenodd;stroke:none"
       d="m 27.300651,1012.9622 c -3.716607,0 -6.900866,2.3381 -8.593411,5.7069 -0.953183,-0.793 -2.171944,-1.3066 -3.507674,-1.3066 -3.035762,0 -5.4997833,2.464 -5.4997831,5.4998 0,0.6819 0.1167149,1.323 0.3437361,1.9258 -3.4526264,1.5421 -5.8435192,5.035 -5.8435191,9.074 0,5.4842 4.4158338,9.9001 9.8999991,9.9001 l 19.800001,0 c 5.484162,0 9.9,-4.4159 9.9,-9.9001 0,-4.3448 -2.793567,-8.0097 -6.669659,-9.3494 0.0086,-0.187 0.06836,-0.3595 0.06836,-0.5508 1e-5,-6.0717 -4.433682,-10.9997 -9.898047,-10.9997 z m -3.30651,8.4002 1.462832,2.9237 -2.923712,0 1.46088,-2.9237 z m -8.769186,1.4608 2.923714,0 0,1.4629 -1.460881,0 0,1.461 1.460881,0 0,2.9217 -1.460881,0 0,1.4629 1.460881,0 0,2.9238 -1.460881,0 0,1.4608 1.460881,0 0,2.9219 -1.460881,0 0,1.4628 1.460881,0 0,1.4609 -2.923714,0 0,-17.5387 z m 15.712271,0.5938 0,1.5996 c -0.186432,0.133 -0.320299,0.3476 -0.320299,0.5937 0,0.4036 0.326864,0.7305 0.730439,0.7305 0.403578,0 0.73044,-0.3269 0.73044,-0.7305 0,-0.2805 -0.178192,-0.5181 -0.41014,-0.6406 l 0,-1.5527 c 0.57447,0.8816 1.458698,2.2508 0.958947,3.1522 -0.48163,0.8686 -2.161086,0.8644 -2.648333,0 -0.50233,-0.8909 0.367554,-2.2677 0.958946,-3.1522 z m -8.403965,2.3301 2.923712,0 0,14.6148 -2.923712,0 0,-14.6148 z m 7.308305,2.9217 2.92176,0 0,11.6931 -2.92176,0 0,-11.6931 z"
       id="rect3193"
       inkscape:connector-curvature="0" />
    <path
       style="fill:#dd4915;fill-opacity:0.3137255;fill-rule:evenodd;stroke:none"
       d="M 23.994141 16.201172 L 22.533203 19.123047 L 22.933594 19.123047 L 23.994141 17 L 25.056641 19.123047 L 25.457031 19.123047 L 23.994141 16.201172 z M 15.224609 17.660156 L 15.224609 18.460938 L 18.148438 18.460938 L 18.148438 17.660156 L 15.224609 17.660156 z M 9.7246094 17.996094 C 9.7094956 18.162136 9.6992187 18.330042 9.6992188 18.5 C 9.6992188 18.924392 9.7607372 19.327315 9.8496094 19.720703 C 9.9146304 19.689906 9.9771672 19.65439 10.042969 19.625 C 9.8498361 19.112183 9.7541315 18.565888 9.7246094 17.996094 z M 30.9375 18.253906 C 30.399243 19.058936 29.641821 20.269207 29.886719 21.152344 C 30.048514 20.424715 30.549654 19.634759 30.9375 19.054688 L 30.9375 18.253906 z M 31.667969 18.253906 L 31.667969 19.054688 C 32.046395 19.635433 32.549792 20.427384 32.712891 21.158203 C 32.961866 20.267419 32.192655 19.059107 31.667969 18.253906 z M 37.171875 19.011719 C 37.153702 19.123174 37.136134 19.234928 37.130859 19.349609 C 37.150826 19.356511 37.169544 19.366022 37.189453 19.373047 C 37.187224 19.251736 37.177617 19.132039 37.171875 19.011719 z M 16.6875 20.583984 L 16.6875 21.384766 L 18.148438 21.384766 L 18.148438 20.583984 L 16.6875 20.583984 z M 22.533203 20.583984 L 22.533203 21.384766 L 25.457031 21.384766 L 25.457031 20.583984 L 22.533203 20.583984 z M 31.939453 20.851562 C 31.807972 21.044224 31.598624 21.177734 31.347656 21.177734 C 31.097667 21.177734 30.887524 21.044913 30.755859 20.853516 C 30.67542 20.96847 30.617188 21.098689 30.617188 21.248047 C 30.617188 21.651647 30.944081 21.978516 31.347656 21.978516 C 31.751234 21.978516 32.078125 21.651647 32.078125 21.248047 C 32.078125 21.098381 32.022012 20.965834 31.939453 20.851562 z M 29.841797 23.505859 L 29.841797 24.306641 L 32.763672 24.306641 L 32.763672 23.505859 L 29.841797 23.505859 z M 16.6875 24.96875 L 16.6875 25.769531 L 18.148438 25.769531 L 18.148438 24.96875 L 16.6875 24.96875 z M 4.2167969 29.050781 C 4.2101655 29.200377 4.1992187 29.3488 4.1992188 29.5 C 4.1992188 34.9842 8.6154441 39.400391 14.099609 39.400391 L 33.900391 39.400391 C 39.384553 39.400391 43.800781 34.9842 43.800781 29.5 C 43.800781 29.352068 43.789613 29.206837 43.783203 29.060547 C 43.592823 34.374744 39.262617 38.599609 33.900391 38.599609 L 14.099609 38.599609 C 8.7340919 38.599609 4.4022 34.369575 4.2167969 29.050781 z M 16.6875 29.353516 L 16.6875 30.154297 L 18.148438 30.154297 L 18.148438 29.353516 L 16.6875 29.353516 z M 16.6875 33.738281 L 16.6875 34.539062 L 18.148438 34.539062 L 18.148438 33.738281 L 16.6875 33.738281 z "
       id="path4372"
       transform="translate(0,1004.3622)" />
  </g>
</svg>
