<?xml version="1.0" encoding="UTF-8" standalone="no"?>
<!-- Created with Inkscape (http://www.inkscape.org/) -->

<svg
   xmlns:dc="http://purl.org/dc/elements/1.1/"
   xmlns:cc="http://creativecommons.org/ns#"
   xmlns:rdf="http://www.w3.org/1999/02/22-rdf-syntax-ns#"
   xmlns:svg="http://www.w3.org/2000/svg"
   xmlns="http://www.w3.org/2000/svg"
   xmlns:xlink="http://www.w3.org/1999/xlink"
   xmlns:sodipodi="http://sodipodi.sourceforge.net/DTD/sodipodi-0.dtd"
   xmlns:inkscape="http://www.inkscape.org/namespaces/inkscape"
   version="1.0"
   width="48"
   height="48"
   id="svg2408"
   style="display:inline;enable-background:new"
   inkscape:version="0.48.4 r9939"
   sodipodi:docname="gdm-setup.svg">
  <sodipodi:namedview
     pagecolor="#ffffff"
     bordercolor="#666666"
     borderopacity="1"
     objecttolerance="10"
     gridtolerance="10"
     guidetolerance="10"
     inkscape:pageopacity="0"
     inkscape:pageshadow="2"
     inkscape:window-width="1301"
     inkscape:window-height="744"
     id="namedview95"
     showgrid="true"
     inkscape:snap-bbox="true"
     inkscape:zoom="3.4766083"
     inkscape:cx="-3.6749314"
     inkscape:cy="58.099362"
     inkscape:window-x="65"
     inkscape:window-y="24"
     inkscape:window-maximized="1"
     inkscape:current-layer="svg2408">
    <inkscape:grid
       type="xygrid"
       id="grid3131"
       empspacing="5"
       visible="true"
       enabled="true"
       snapvisiblegridlinesonly="true" />
  </sodipodi:namedview>
  <defs
     id="defs2410">
    <linearGradient
       id="linearGradient3687">
      <stop
         id="stop3689"
         style="stop-color:#ffffff;stop-opacity:1"
         offset="0" />
      <stop
         id="stop3691"
         style="stop-color:#ffffff;stop-opacity:0"
         offset="1" />
    </linearGradient>
    <linearGradient
       id="linearGradient3487">
      <stop
         id="stop3489"
         style="stop-color:#9cb7d2;stop-opacity:1"
         offset="0" />
      <stop
         id="stop3491"
         style="stop-color:#e7edf3;stop-opacity:0"
         offset="1" />
    </linearGradient>
    <radialGradient
       cx="56.065952"
       cy="-15.871236"
       r="35.9375"
       fx="56.065952"
       fy="-15.871236"
       id="radialGradient3465"
       xlink:href="#linearGradient3224"
       gradientUnits="userSpaceOnUse"
       gradientTransform="matrix(0.00225966,0.925477,-1.3844339,0,25.901984,-30.21143)" />
    <linearGradient
       id="linearGradient3465">
      <stop
         id="stop3467"
         style="stop-color:#919191;stop-opacity:1"
         offset="0" />
      <stop
         id="stop3469"
         style="stop-color:#fdfdfd;stop-opacity:1"
         offset="1" />
    </linearGradient>
    <linearGradient
       id="linearGradient3187">
      <stop
         id="stop3189"
         style="stop-color:#b4b4b4;stop-opacity:1"
         offset="0" />
      <stop
         id="stop3191"
         style="stop-color:#e6e6e6;stop-opacity:1"
         offset="1" />
    </linearGradient>
    <linearGradient
       x1="45.447727"
       y1="92.539597"
       x2="45.447727"
       y2="7.0165396"
       id="ButtonShadow"
       gradientUnits="userSpaceOnUse"
       gradientTransform="scale(1.0058652,0.994169)">
      <stop
         id="stop3750"
         style="stop-color:#000000;stop-opacity:1"
         offset="0" />
      <stop
         id="stop3752"
         style="stop-color:#000000;stop-opacity:0.58823532"
         offset="1" />
    </linearGradient>
    <linearGradient
       id="linearGradient3737">
      <stop
         id="stop3739"
         style="stop-color:#ffffff;stop-opacity:1"
         offset="0" />
      <stop
         id="stop3741"
         style="stop-color:#ffffff;stop-opacity:0"
         offset="1" />
    </linearGradient>
    <filter
       color-interpolation-filters="sRGB"
       id="filter3174">
      <feGaussianBlur
         id="feGaussianBlur3176"
         stdDeviation="1.71" />
    </filter>
    <linearGradient
       x1="36.357143"
       y1="6"
       x2="36.357143"
       y2="63.893143"
       id="linearGradient3188"
       xlink:href="#linearGradient3737"
       gradientUnits="userSpaceOnUse" />
    <linearGradient
       x1="43.17857"
       y1="13"
       x2="43.17857"
       y2="83.294571"
       id="linearGradient3436"
       xlink:href="#linearGradient3465"
       gradientUnits="userSpaceOnUse"
       gradientTransform="matrix(1.0294118,0,0,1.0294118,-1.4117647,-1.4117647)" />
    <linearGradient
       x1="48"
       y1="90"
       x2="48"
       y2="5.9877172"
       id="linearGradient3466"
       xlink:href="#linearGradient3187"
       gradientUnits="userSpaceOnUse" />
    <linearGradient
       x1="76.45089"
       y1="8.0625"
       x2="76.45089"
       y2="72.765785"
       id="linearGradient3693"
       xlink:href="#linearGradient3687"
       gradientUnits="userSpaceOnUse" />
    <linearGradient
       x1="65.15625"
       y1="16.125"
       x2="65.15625"
       y2="69.687508"
       id="linearGradient3701"
       xlink:href="#linearGradient3487"
       gradientUnits="userSpaceOnUse" />
    <linearGradient
       x1="65.15625"
       y1="16.125"
       x2="65.15625"
       y2="69.687508"
       id="linearGradient2675"
       xlink:href="#linearGradient3737"
       gradientUnits="userSpaceOnUse" />
    <linearGradient
       id="linearGradient3737-1">
      <stop
         id="stop3739-7"
         style="stop-color:#ffffff;stop-opacity:1"
         offset="0" />
      <stop
         id="stop3741-2"
         style="stop-color:#ffffff;stop-opacity:0"
         offset="1" />
    </linearGradient>
    <radialGradient
       cx="48"
       cy="90.171875"
       r="42"
       fx="48"
       fy="90.171875"
       id="radialGradient2893"
       xlink:href="#linearGradient3737-1"
       gradientUnits="userSpaceOnUse"
       gradientTransform="matrix(1.1573129,0,0,0.99590774,-7.551021,0.1971319)" />
    <linearGradient
       id="linearGradient3224">
      <stop
         id="stop3226"
         style="stop-color:#80a2c8;stop-opacity:1"
         offset="0" />
      <stop
         id="stop3228"
         style="stop-color:#2e4c6d;stop-opacity:1"
         offset="1" />
    </linearGradient>
    <linearGradient
       x1="32.251034"
       y1="6.1317081"
       x2="32.251034"
       y2="90.238609"
       id="linearGradient3721"
       xlink:href="#ButtonShadow-0"
       gradientUnits="userSpaceOnUse"
       gradientTransform="translate(0,-97)" />
    <linearGradient
       x1="45.447727"
       y1="92.539597"
       x2="45.447727"
       y2="7.0165396"
       id="ButtonShadow-0"
       gradientUnits="userSpaceOnUse"
       gradientTransform="matrix(1.0058652,0,0,0.994169,100,0)">
      <stop
         id="stop3750-8"
         style="stop-color:#000000;stop-opacity:1"
         offset="0" />
      <stop
         id="stop3752-5"
         style="stop-color:#000000;stop-opacity:0.58823532"
         offset="1" />
    </linearGradient>
    <linearGradient
       x1="32.251034"
       y1="6.1317081"
       x2="32.251034"
       y2="90.238609"
       id="linearGradient3725"
       xlink:href="#ButtonShadow-0"
       gradientUnits="userSpaceOnUse"
       gradientTransform="matrix(1.0238095,0,0,1.0119048,-1.1428571,-98.071429)" />
    <linearGradient
       x1="32.251034"
       y1="6.1317081"
       x2="32.251034"
       y2="90.238609"
       id="linearGradient3772"
       xlink:href="#ButtonShadow-0"
       gradientUnits="userSpaceOnUse"
       gradientTransform="matrix(1.0238095,0,0,1.0119048,-1.1428571,-98.071429)" />
    <linearGradient
       x1="32.251034"
       y1="6.1317081"
       x2="32.251034"
       y2="90.238609"
       id="linearGradient3780"
       xlink:href="#ButtonShadow-0"
       gradientUnits="userSpaceOnUse"
       gradientTransform="matrix(1.0238095,0,0,1.0119048,-1.1428571,-98.071429)" />
    <linearGradient
       x1="32.251034"
       y1="6.1317081"
       x2="32.251034"
       y2="90.238609"
       id="linearGradient2969"
       xlink:href="#ButtonShadow-0"
       gradientUnits="userSpaceOnUse"
       gradientTransform="matrix(1.0238095,0,0,1.0119048,-1.1428571,-98.071429)" />
    <linearGradient
       id="linearGradient3175-1">
      <stop
         id="stop3177-6"
         style="stop-color:#4490e6;stop-opacity:1"
         offset="0" />
      <stop
         id="stop3179-3"
         style="stop-color:#103d8f;stop-opacity:1"
         offset="1" />
    </linearGradient>
    <radialGradient
       cx="56.065952"
       cy="-15.871236"
       r="35.9375"
       fx="56.065952"
       fy="-15.871236"
       id="radialGradient4510"
       xlink:href="#linearGradient3175-1"
       gradientUnits="userSpaceOnUse"
       gradientTransform="matrix(0.00225966,0.925477,-1.3844339,0,25.901984,-30.21143)" />
    <radialGradient
       inkscape:collect="always"
       xlink:href="#linearGradient3224"
       id="radialGradient3100"
       gradientUnits="userSpaceOnUse"
       gradientTransform="matrix(-0.00125645,-0.68586623,0.7697986,0,36.269973,75.32899)"
       cx="76.296204"
       cy="-15.81467"
       fx="76.296204"
       fy="-15.81467"
       r="35.9375" />
  </defs>
  <metadata
     id="metadata2413">
    <rdf:RDF>
      <cc:Work
         rdf:about="">
        <dc:format>image/svg+xml</dc:format>
        <dc:type
           rdf:resource="http://purl.org/dc/dcmitype/StillImage" />
      </cc:Work>
    </rdf:RDF>
  </metadata>
  <g
     id="layer2"
     style="display:none"
     transform="translate(0,-48)">
    <rect
       width="86"
       height="85"
       rx="6"
       ry="6"
       x="5"
       y="7"
       id="rect3745"
       style="opacity:0.9;fill:url(#ButtonShadow);fill-opacity:1;fill-rule:nonzero;stroke:none;filter:url(#filter3174)" />
  </g>
  <path
     inkscape:connector-curvature="0"
     style="fill:url(#radialGradient3100);fill-opacity:1;fill-rule:nonzero;stroke:none"
     id="path3215"
     d="m 43.96526,44 0,-39.9264828 -39.9652697,0 0,39.9264828 39.9652697,0 z" />
  <rect
     style="opacity:0.2;fill:#ffffff;fill-opacity:1;stroke:none"
     id="rect3115"
     y="37.402817"
     x="3.9999781"
     height="5.5555592"
     width="40.000023" />
  <rect
     style="opacity:0.3;fill:#ffffff;fill-opacity:1;stroke:none"
     id="rect3889"
     y="15.184635"
     x="11.777774"
     ry="0"
     rx="0"
     height="17.777788"
     width="24.444458" />
  <rect
     style="fill:#ffffff;fill-opacity:1;stroke:none;opacity:0.6"
     id="rect3133"
     width="16"
     height="3"
     x="16"
     y="25"
     rx="0"
     ry="0" />
  <path
     inkscape:connector-curvature="0"
     style="fill:#4d4d4d;fill-opacity:1;stroke:none"
     id="path3935"
     d="m 17.906294,26.564826 a 0.56425968,0.56425968 0 0 1 -1.128518,0 0.56425968,0.56425968 0 1 1 1.128518,0 z" />
  <path
     inkscape:connector-curvature="0"
     style="fill:#4d4d4d;fill-opacity:1;stroke:none"
     id="path3941"
     d="m 19.486222,26.564826 a 0.5642598,0.5642598 0 0 1 -1.12852,0 0.5642598,0.5642598 0 1 1 1.12852,0 z" />
  <path
     inkscape:connector-curvature="0"
     style="fill:#4d4d4d;fill-opacity:1;stroke:none"
     id="path3943"
     d="m 21.066149,26.564826 a 0.56425972,0.56425972 0 0 1 -1.128519,0 0.56425972,0.56425972 0 1 1 1.128519,0 z" />
  <path
     inkscape:connector-curvature="0"
     style="fill:#4d4d4d;fill-opacity:1;stroke:none"
     id="path3945"
     d="m 22.646076,26.564826 a 0.56425968,0.56425968 0 0 1 -1.128519,0 0.56425968,0.56425968 0 1 1 1.128519,0 z" />
  <g
     style="font-size:4.78869057px;font-style:normal;font-variant:normal;font-weight:normal;font-stretch:normal;text-align:start;line-height:125%;writing-mode:lr-tb;text-anchor:start;fill:#ffffff;fill-opacity:1;stroke:none;font-family:Liberation Sans;-inkscape-font-specification:Liberation Sans"
     id="text3947"
     transform="matrix(0.55555587,0,0,0.55555587,-2.6666803,-1.4820415)">
    <path
       id="path3952"
       inkscape:connector-curvature="0"
       d="m 32.54867,35.650077 c -3e-6,0.143414 -0.02416,0.277472 -0.07249,0.402176 -0.04677,0.123148 -0.117693,0.230706 -0.212779,0.322675 -0.09353,0.09041 -0.211222,0.162119 -0.353072,0.215117 -0.141855,0.053 -0.307089,0.0795 -0.495704,0.0795 l -0.968027,0 0,1.283687 -0.446601,0 0,-3.294563 1.386569,0 c 0.19485,3e-6 0.364761,0.02416 0.509734,0.07248 0.144967,0.04677 0.265776,0.113797 0.362425,0.201087 0.09664,0.08574 0.169129,0.190179 0.217455,0.313323 0.04832,0.12159 0.07248,0.256428 0.07249,0.404513 m -0.44894,0.0047 c -2e-6,-0.208879 -0.06391,-0.367099 -0.191734,-0.47466 -0.127825,-0.109115 -0.31956,-0.163673 -0.575204,-0.163676 l -0.886189,0 0,1.300054 0.904895,0 c 0.257203,2e-6 0.44582,-0.05689 0.565851,-0.17069 0.121585,-0.113792 0.182379,-0.277468 0.182381,-0.491028" />
    <path
       id="path3954"
       inkscape:connector-curvature="0"
       d="m 33.773902,37.999996 c -0.254089,0 -0.445044,-0.06703 -0.572866,-0.201087 -0.127824,-0.134058 -0.191735,-0.317999 -0.191735,-0.551822 0,-0.166793 0.03118,-0.303189 0.09353,-0.40919 0.06391,-0.107557 0.146529,-0.191733 0.247852,-0.252528 0.102882,-0.06079 0.219793,-0.102881 0.350735,-0.126265 0.130939,-0.02338 0.264218,-0.03663 0.399837,-0.03975 l 0.568189,-0.0094 0,-0.137955 c -2e-6,-0.104439 -0.01091,-0.193292 -0.03274,-0.266558 -0.02183,-0.07326 -0.05534,-0.132497 -0.100544,-0.177705 -0.04521,-0.0452 -0.102104,-0.07794 -0.170691,-0.09821 -0.06703,-0.02182 -0.14653,-0.03273 -0.238499,-0.03274 -0.08106,2e-6 -0.154324,0.0062 -0.219793,0.01871 -0.06547,0.01091 -0.122369,0.03196 -0.170691,0.06313 -0.04832,0.02962 -0.0873,0.07093 -0.116911,0.123926 -0.02962,0.05144 -0.0491,0.116913 -0.05846,0.196411 l -0.439587,-0.03975 c 0.01559,-0.09976 0.04521,-0.190953 0.08885,-0.273572 0.04365,-0.08417 0.105219,-0.156659 0.18472,-0.217456 0.08106,-0.06079 0.181601,-0.107556 0.301631,-0.140293 0.121587,-0.03429 0.268116,-0.05144 0.439587,-0.05144 0.317997,2e-6 0.557276,0.07327 0.717836,0.219793 0.160556,0.144973 0.240835,0.355413 0.240837,0.631322 l 0,1.089614 c -2e-6,0.124706 0.01637,0.219014 0.0491,0.282925 0.03273,0.06235 0.09509,0.09353 0.187058,0.09353 0.02338,0 0.04676,-0.0016 0.07015,-0.0047 0.02338,-0.0031 0.04598,-0.007 0.06781,-0.01169 l 0,0.261881 c -0.053,0.01247 -0.106002,0.02182 -0.159,0.02806 -0.05144,0.0062 -0.106781,0.0094 -0.166014,0.0094 -0.0795,0 -0.14809,-0.01013 -0.205764,-0.0304 -0.05612,-0.02182 -0.102105,-0.05378 -0.137955,-0.09587 -0.03585,-0.04365 -0.06313,-0.09665 -0.08184,-0.159 -0.01871,-0.06391 -0.0304,-0.137955 -0.03507,-0.222131 l -0.01403,0 c -0.04521,0.08106 -0.09509,0.154323 -0.149647,0.219793 -0.053,0.06547 -0.115354,0.121588 -0.187058,0.168352 -0.07171,0.04521 -0.153545,0.08028 -0.245514,0.105221 -0.09041,0.02494 -0.194853,0.03741 -0.313322,0.03741 m 0.09587,-0.31566 c 0.134057,0 0.250968,-0.02416 0.350734,-0.07249 0.101322,-0.04988 0.184719,-0.113014 0.250191,-0.189397 0.06703,-0.07638 0.116909,-0.159778 0.149646,-0.25019 0.03273,-0.09041 0.0491,-0.176925 0.0491,-0.259544 l 0,-0.208102 -0.460631,0.0094 c -0.102883,0.0016 -0.201089,0.0094 -0.294617,0.02338 -0.09197,0.01247 -0.17303,0.03819 -0.243175,0.07716 -0.07015,0.03897 -0.126265,0.09353 -0.168353,0.163676 -0.04053,0.07015 -0.06079,0.162118 -0.06079,0.275911 0,0.137176 0.03663,0.243176 0.109897,0.317999 0.07482,0.07482 0.180822,0.112235 0.317999,0.112235" />
    <path
       id="path3956"
       inkscape:connector-curvature="0"
       d="m 37.692772,37.254102 c -3e-6,0.11847 -0.02338,0.22447 -0.07015,0.317999 -0.04521,0.09197 -0.111458,0.169911 -0.19875,0.233822 -0.0873,0.06235 -0.194854,0.110677 -0.322675,0.144971 -0.126266,0.03274 -0.271236,0.0491 -0.43491,0.0491 -0.14653,0 -0.27903,-0.01169 -0.397499,-0.03507 -0.116912,-0.02182 -0.219794,-0.05768 -0.308646,-0.107559 -0.08885,-0.04988 -0.163677,-0.115352 -0.22447,-0.196411 -0.05924,-0.08262 -0.102882,-0.18316 -0.130941,-0.301631 l 0.371778,-0.07249 c 0.03585,0.135618 0.109896,0.235382 0.222132,0.299293 0.112234,0.06235 0.268116,0.09353 0.467646,0.09353 0.09041,0 0.173027,-0.0062 0.247852,-0.01871 0.07638,-0.01247 0.141851,-0.03351 0.196411,-0.06313 0.05456,-0.03118 0.09664,-0.07171 0.126264,-0.121588 0.03117,-0.05144 0.04676,-0.114572 0.04677,-0.189396 -2e-6,-0.07638 -0.01793,-0.138734 -0.05378,-0.187058 -0.03585,-0.04988 -0.08574,-0.09119 -0.149646,-0.123926 -0.06391,-0.03274 -0.141854,-0.06079 -0.233823,-0.08418 -0.09041,-0.02494 -0.190177,-0.05222 -0.299293,-0.08184 -0.101324,-0.0265 -0.201868,-0.05612 -0.301631,-0.08885 -0.09977,-0.03273 -0.190177,-0.0756 -0.271235,-0.128603 -0.0795,-0.05456 -0.144191,-0.121586 -0.194073,-0.201087 -0.04988,-0.0795 -0.07482,-0.179263 -0.07482,-0.299294 0,-0.230703 0.08184,-0.406069 0.245514,-0.526101 0.165234,-0.121585 0.405292,-0.182379 0.720174,-0.182382 0.279027,3e-6 0.500379,0.04911 0.664057,0.147309 0.165232,0.09821 0.269673,0.255648 0.313322,0.472322 l -0.378793,0.04676 c -0.01403,-0.06547 -0.03975,-0.120027 -0.07716,-0.163676 -0.03741,-0.0452 -0.08262,-0.08106 -0.135617,-0.107558 -0.053,-0.02806 -0.113016,-0.04754 -0.180044,-0.05846 -0.06547,-0.01247 -0.13406,-0.0187 -0.205764,-0.01871 -0.190177,3e-6 -0.33047,0.02884 -0.420881,0.08651 -0.09041,0.05768 -0.135618,0.144972 -0.135617,0.261881 -1e-6,0.06859 0.01637,0.125487 0.0491,0.170691 0.03429,0.04365 0.08106,0.08106 0.140293,0.112235 0.06079,0.02962 0.133278,0.05612 0.217455,0.0795 0.08418,0.02182 0.176925,0.04521 0.278249,0.07015 0.06703,0.01715 0.135616,0.03585 0.205765,0.05612 0.07014,0.01871 0.137953,0.04209 0.203425,0.07015 0.06703,0.0265 0.12938,0.05846 0.187059,0.09587 0.05923,0.03585 0.110674,0.0795 0.154323,0.130941 0.04364,0.05144 0.07794,0.111456 0.102882,0.180043 0.0265,0.06859 0.03975,0.148089 0.03975,0.2385" />
    <path
       id="path3958"
       inkscape:connector-curvature="0"
       d="m 40.087117,37.254102 c -2e-6,0.11847 -0.02338,0.22447 -0.07015,0.317999 -0.04521,0.09197 -0.111457,0.169911 -0.198749,0.233822 -0.0873,0.06235 -0.194854,0.110677 -0.322675,0.144971 -0.126266,0.03274 -0.271236,0.0491 -0.434911,0.0491 -0.14653,0 -0.279029,-0.01169 -0.397498,-0.03507 -0.116913,-0.02182 -0.219794,-0.05768 -0.308647,-0.107559 -0.08885,-0.04988 -0.163676,-0.115352 -0.224469,-0.196411 -0.05924,-0.08262 -0.102883,-0.18316 -0.130941,-0.301631 l 0.371778,-0.07249 c 0.03585,0.135618 0.109896,0.235382 0.222132,0.299293 0.112234,0.06235 0.268116,0.09353 0.467645,0.09353 0.09041,0 0.173028,-0.0062 0.247852,-0.01871 0.07638,-0.01247 0.141851,-0.03351 0.196412,-0.06313 0.05456,-0.03118 0.09664,-0.07171 0.126264,-0.121588 0.03117,-0.05144 0.04676,-0.114572 0.04676,-0.189396 -10e-7,-0.07638 -0.01793,-0.138734 -0.05378,-0.187058 -0.03585,-0.04988 -0.08574,-0.09119 -0.149646,-0.123926 -0.06391,-0.03274 -0.141854,-0.06079 -0.233823,-0.08418 -0.09041,-0.02494 -0.190177,-0.05222 -0.299293,-0.08184 -0.101325,-0.0265 -0.201868,-0.05612 -0.301632,-0.08885 -0.09977,-0.03273 -0.190176,-0.0756 -0.271234,-0.128603 -0.0795,-0.05456 -0.144191,-0.121586 -0.194073,-0.201087 -0.04988,-0.0795 -0.07482,-0.179263 -0.07482,-0.299294 -10e-7,-0.230703 0.08184,-0.406069 0.245514,-0.526101 0.165234,-0.121585 0.405291,-0.182379 0.720174,-0.182382 0.279027,3e-6 0.500379,0.04911 0.664056,0.147309 0.165233,0.09821 0.269674,0.255648 0.313323,0.472322 l -0.378793,0.04676 c -0.01403,-0.06547 -0.03975,-0.120027 -0.07716,-0.163676 -0.03741,-0.0452 -0.08262,-0.08106 -0.135618,-0.107558 -0.053,-0.02806 -0.113015,-0.04754 -0.180043,-0.05846 -0.06547,-0.01247 -0.13406,-0.0187 -0.205764,-0.01871 -0.190177,3e-6 -0.330471,0.02884 -0.420881,0.08651 -0.09041,0.05768 -0.135618,0.144972 -0.135617,0.261881 -10e-7,0.06859 0.01637,0.125487 0.0491,0.170691 0.03429,0.04365 0.08106,0.08106 0.140294,0.112235 0.06079,0.02962 0.133278,0.05612 0.217455,0.0795 0.08418,0.02182 0.176925,0.04521 0.278249,0.07015 0.06703,0.01715 0.135616,0.03585 0.205764,0.05612 0.07015,0.01871 0.137954,0.04209 0.203426,0.07015 0.06703,0.0265 0.12938,0.05846 0.187058,0.09587 0.05923,0.03585 0.110674,0.0795 0.154323,0.130941 0.04364,0.05144 0.07794,0.111456 0.102882,0.180043 0.0265,0.06859 0.03975,0.148089 0.03975,0.2385" />
    <path
       id="path3960"
       inkscape:connector-curvature="0"
       d="m 43.005225,37.953232 -0.48869,0 -0.404513,-1.632083 c -0.01247,-0.04209 -0.02572,-0.09431 -0.03975,-0.156661 -0.01247,-0.06235 -0.02494,-0.123145 -0.03741,-0.182382 -0.01559,-0.06859 -0.0304,-0.139512 -0.04443,-0.212779 -0.01403,0.07015 -0.02884,0.139516 -0.04443,0.208102 -0.01247,0.05924 -0.0265,0.120811 -0.04209,0.18472 -0.01403,0.06391 -0.02728,0.120031 -0.03975,0.168353 l -0.416204,1.62273 -0.486351,0 -0.708483,-2.529963 0.416204,0 0.427896,1.718598 c 0.01091,0.03585 0.02182,0.08028 0.03274,0.133279 0.01091,0.05144 0.02182,0.102103 0.03273,0.151985 0.01091,0.05768 0.0226,0.116911 0.03507,0.177705 0.01247,-0.05924 0.02572,-0.116911 0.03975,-0.173029 0.01247,-0.04832 0.02494,-0.09743 0.03741,-0.147308 0.01247,-0.04988 0.02338,-0.09119 0.03274,-0.123926 l 0.458293,-1.737304 0.451278,0 0.441925,1.737304 c 0.01091,0.04053 0.0226,0.08651 0.03507,0.137955 0.01247,0.05144 0.02416,0.09977 0.03507,0.14497 0.01247,0.053 0.02494,0.10678 0.03741,0.161338 0.01247,-0.05924 0.02494,-0.116911 0.03741,-0.173029 0.01091,-0.04832 0.02182,-0.09821 0.03274,-0.149647 0.01247,-0.053 0.02416,-0.09976 0.03507,-0.140293 l 0.446601,-1.718598 0.411528,0 -0.72485,2.529963" />
    <path
       id="path3962"
       inkscape:connector-curvature="0"
       d="m 46.182877,36.685912 c -2e-6,0.442706 -0.09743,0.772395 -0.292278,0.989071 -0.194855,0.216676 -0.47778,0.325013 -0.848777,0.325013 -0.176148,0 -0.333588,-0.0265 -0.472322,-0.0795 -0.138736,-0.053 -0.256426,-0.134059 -0.353073,-0.243176 -0.09509,-0.109117 -0.168352,-0.245513 -0.219793,-0.40919 -0.04988,-0.165234 -0.07482,-0.359307 -0.07482,-0.582219 0,-0.872936 0.378013,-1.309405 1.13404,-1.309407 0.19641,2e-6 0.365541,0.02728 0.507396,0.08184 0.143409,0.05456 0.26032,0.136399 0.350734,0.245514 0.09197,0.109119 0.159776,0.245516 0.203426,0.40919 0.04364,0.163677 0.06547,0.354632 0.06547,0.572865 m -0.441925,0 c -2e-6,-0.196409 -0.01559,-0.358526 -0.04677,-0.486351 -0.02962,-0.127821 -0.07404,-0.229924 -0.133279,-0.306308 -0.05768,-0.07638 -0.128604,-0.12938 -0.212778,-0.158999 -0.08418,-0.03117 -0.179266,-0.04676 -0.285264,-0.04677 -0.10756,2e-6 -0.204986,0.01637 -0.292279,0.0491 -0.08574,0.03118 -0.159,0.08574 -0.219793,0.163676 -0.0608,0.07638 -0.107559,0.178486 -0.140294,0.306308 -0.03118,0.127824 -0.04677,0.287603 -0.04676,0.479336 -10e-7,0.196413 0.01715,0.359309 0.05144,0.48869 0.03429,0.127824 0.08106,0.229926 0.140293,0.306308 0.06079,0.07638 0.13172,0.130161 0.212779,0.161338 0.08262,0.03118 0.172248,0.04676 0.268896,0.04676 0.107557,0 0.204984,-0.01481 0.292279,-0.04443 0.08729,-0.03118 0.161336,-0.08495 0.222132,-0.161338 0.06079,-0.07638 0.107556,-0.179263 0.140293,-0.308646 0.03273,-0.129381 0.0491,-0.292277 0.0491,-0.48869" />
    <path
       id="path3964"
       inkscape:connector-curvature="0"
       d="m 46.718331,37.953232 0,-1.940729 c 0,-0.053 -7.79e-4,-0.106777 -0.0023,-0.161338 0,-0.05611 -7.8e-4,-0.109894 -0.0023,-0.161338 -0.0016,-0.05144 -0.0031,-0.09976 -0.0047,-0.14497 -0.0016,-0.0452 -0.0031,-0.08573 -0.0047,-0.121588 l 0.397499,0 c 0.0016,0.03586 0.0031,0.07716 0.0047,0.123926 0.0031,0.04521 0.0055,0.09197 0.007,0.140294 0.0031,0.04833 0.0047,0.09509 0.0047,0.140294 0.0016,0.04365 0.0023,0.08106 0.0023,0.112235 l 0.0094,0 c 0.02962,-0.09665 0.06079,-0.180042 0.09353,-0.250191 0.03429,-0.0717 0.07404,-0.130159 0.119249,-0.175367 0.0452,-0.04676 0.09898,-0.08106 0.161338,-0.102882 0.06235,-0.02338 0.137954,-0.03507 0.226808,-0.03507 0.03429,2e-6 0.06703,0.0031 0.09821,0.0094 0.03117,0.0047 0.05534,0.0094 0.07249,0.01403 l 0,0.385808 c -0.02806,-0.0078 -0.0608,-0.01325 -0.09821,-0.01637 -0.03741,-0.0047 -0.0795,-0.007 -0.126264,-0.007 -0.09665,3e-6 -0.179266,0.02183 -0.247852,0.06547 -0.06703,0.04365 -0.122369,0.104443 -0.166015,0.182381 -0.04209,0.07638 -0.07326,0.168355 -0.09353,0.275911 -0.02027,0.106002 -0.0304,0.222133 -0.0304,0.348396 l 0,1.318761 -0.420881,0" />
    <path
       id="path3966"
       inkscape:connector-curvature="0"
       d="m 49.905336,37.54638 c -0.07794,0.162118 -0.181604,0.278249 -0.310984,0.348396 -0.127825,0.07015 -0.286824,0.10522 -0.476999,0.10522 -0.319558,0 -0.55494,-0.107558 -0.706145,-0.322675 -0.149646,-0.215117 -0.22447,-0.540909 -0.224469,-0.977379 -1e-6,-0.882289 0.310204,-1.323435 0.930614,-1.323437 0.191734,2e-6 0.351512,0.03508 0.479337,0.10522 0.127821,0.07015 0.230703,0.181605 0.308646,0.334367 l 0.0047,0 c -2e-6,-0.01559 -7.82e-4,-0.03975 -0.0023,-0.07249 -2e-6,-0.03429 -7.81e-4,-0.06937 -0.0023,-0.105221 -2e-6,-0.03741 -2e-6,-0.07248 0,-0.10522 -2e-6,-0.03273 -2e-6,-0.05611 0,-0.07015 l 0,-0.979717 0.420881,0 0,2.948505 c -2e-6,0.06079 -2e-6,0.11925 0,0.175367 0.0016,0.05612 0.0031,0.107559 0.0047,0.154323 0.0016,0.04677 0.0031,0.08729 0.0047,0.121588 0.0016,0.03273 0.0031,0.05612 0.0047,0.07015 l -0.402175,0 c -0.0031,-0.01559 -0.0062,-0.03741 -0.0094,-0.06547 -0.0016,-0.02962 -0.0039,-0.06313 -0.007,-0.100543 -0.0016,-0.03741 -0.0031,-0.07638 -0.0047,-0.116912 -0.0016,-0.04209 -0.0023,-0.0834 -0.0023,-0.123926 l -0.0094,0 M 48.62877,36.685908 c -1e-6,0.174589 0.01091,0.324236 0.03274,0.44894 0.02182,0.124706 0.0569,0.227588 0.10522,0.308646 0.04832,0.0795 0.109896,0.137956 0.18472,0.175367 0.07482,0.03741 0.166013,0.05612 0.273573,0.05612 0.110675,0 0.208101,-0.01793 0.292278,-0.05378 0.08573,-0.03585 0.15666,-0.09353 0.212779,-0.173028 0.05767,-0.08106 0.101321,-0.186279 0.130941,-0.315661 0.02961,-0.129381 0.04442,-0.287601 0.04443,-0.47466 -2e-6,-0.179263 -0.01481,-0.330468 -0.04443,-0.453617 -0.02962,-0.124703 -0.07327,-0.225247 -0.130941,-0.301631 -0.05768,-0.07638 -0.128604,-0.130939 -0.212779,-0.163676 -0.08262,-0.03429 -0.178486,-0.05144 -0.287602,-0.05144 -0.102883,2e-6 -0.191736,0.01793 -0.266558,0.05378 -0.07482,0.03586 -0.137177,0.09353 -0.187058,0.173029 -0.04988,0.0795 -0.0873,0.183163 -0.112235,0.310984 -0.02338,0.126266 -0.03507,0.27981 -0.03507,0.460631" />
    <path
       id="path3968"
       inkscape:connector-curvature="0"
       d="m 52.416592,35.907282 0,-0.484013 0.455954,0 0,0.484013 -0.455954,0 m 0,2.04595 0,-0.484013 0.455954,0 0,0.484013 -0.455954,0" />
  </g>
  <path
     style="opacity:0.5;fill:#000000;fill-opacity:1;stroke:none"
     d="m 4,44 0,0 c 20,-1 20,-1 40,0 z"
     id="path3257"
     inkscape:connector-curvature="0"
     sodipodi:nodetypes="cccc" />
  <path
     sodipodi:nodetypes="cccc"
     inkscape:connector-curvature="0"
     id="path4027"
     d="M 4,4 4,4 C 24,5 24,5 44,4 z"
     style="opacity:0.75;fill:#ffffff;fill-opacity:1;stroke:none" />
</svg>
