<?xml version="1.0" encoding="UTF-8" standalone="no"?>
<svg
   xmlns:dc="http://purl.org/dc/elements/1.1/"
   xmlns:cc="http://creativecommons.org/ns#"
   xmlns:rdf="http://www.w3.org/1999/02/22-rdf-syntax-ns#"
   xmlns:svg="http://www.w3.org/2000/svg"
   xmlns="http://www.w3.org/2000/svg"
   xmlns:sodipodi="http://sodipodi.sourceforge.net/DTD/sodipodi-0.dtd"
   xmlns:inkscape="http://www.inkscape.org/namespaces/inkscape"
   viewBox="0 0 48 48"
   id="svg2"
   version="1.1"
   inkscape:version="0.91pre2 r13516"
   sodipodi:docname="giggle.svg">
  <metadata
     id="metadata73">
    <rdf:RDF>
      <cc:Work
         rdf:about="">
        <dc:format>image/svg+xml</dc:format>
        <dc:type
           rdf:resource="http://purl.org/dc/dcmitype/StillImage" />
      </cc:Work>
    </rdf:RDF>
  </metadata>
  <sodipodi:namedview
     pagecolor="#ffffff"
     bordercolor="#666666"
     borderopacity="1"
     objecttolerance="10"
     gridtolerance="10"
     guidetolerance="10"
     inkscape:pageopacity="0"
     inkscape:pageshadow="2"
     inkscape:window-width="1301"
     inkscape:window-height="744"
     id="namedview71"
     showgrid="true"
     inkscape:object-nodes="true"
     inkscape:snap-bbox="true"
     inkscape:zoom="6.9532167"
     inkscape:cx="3.8360656"
     inkscape:cy="15.962309"
     inkscape:window-x="65"
     inkscape:window-y="24"
     inkscape:window-maximized="1"
     inkscape:current-layer="svg2">
    <inkscape:grid
       type="xygrid"
       id="grid3402" />
  </sodipodi:namedview>
  <defs
     id="defs4">
    <linearGradient
       id="linearGradient3764"
       x1="36.074997"
       x2="13.074998"
       gradientUnits="userSpaceOnUse"
       gradientTransform="matrix(-0.86956522,-0.86956522,0.86956522,-0.86956522,23.999997,65.73913)"
       y1="13.075002"
       y2="36.075001">
      <stop
         stop-color="#c60606"
         stop-opacity="1"
         id="stop7" />
      <stop
         offset="1"
         stop-color="#d90606"
         stop-opacity="1"
         id="stop9"
         style="stop-color:#ff2929;stop-opacity:1" />
    </linearGradient>
    <clipPath
       id="clipPath-274404949">
      <g
         transform="translate(0,-1004.3622)"
         id="g12">
        <path
           d="m -24 13 c 0 1.105 -0.672 2 -1.5 2 -0.828 0 -1.5 -0.895 -1.5 -2 0 -1.105 0.672 -2 1.5 -2 0.828 0 1.5 0.895 1.5 2 z"
           transform="matrix(15.333333,0,0,11.5,414.99999,878.8622)"
           fill="#1890d0"
           id="path14" />
      </g>
    </clipPath>
    <clipPath
       id="clipPath-281645634">
      <g
         transform="translate(0,-1004.3622)"
         id="g17">
        <path
           d="m -24 13 c 0 1.105 -0.672 2 -1.5 2 -0.828 0 -1.5 -0.895 -1.5 -2 0 -1.105 0.672 -2 1.5 -2 0.828 0 1.5 0.895 1.5 2 z"
           transform="matrix(15.333333,0,0,11.5,414.99999,878.8622)"
           fill="#1890d0"
           id="path19" />
      </g>
    </clipPath>
  </defs>
  <path
     sodipodi:nodetypes="ccccc"
     style="fill:url(#linearGradient3764);fill-opacity:1"
     inkscape:connector-curvature="0"
     id="path31"
     d="M 3.9999995,3.9999999 44,3.9999999 44,44 3.9999995,44 Z" />
  <g
     id="g33" />
  <g
     id="g53">
    <g
       clip-path="url(#clipPath-281645634)"
       id="g55">
      <!-- color: #d90606 -->
      <g
         id="g57">
        <path
           d="m 8.184 7.06 c 0 0 1.41 -3.669 -1.411 -3.669 c 0 0 1.976 1.693 -1.411 3.669"
           transform="matrix(3.543307,0,0,3.543307,0,0)"
           stroke-opacity="1"
           fill="none"
           stroke="#fff"
           stroke-linejoin="miter"
           stroke-linecap="butt"
           stroke-width="0.282"
           stroke-miterlimit="4"
           id="path59" />
        <path
           d="m 19 24 c -3.313 0 -6 2.688 -6 6 c 0 3.313 2.688 6 6 6 c 1.715 0 3.25 -0.723 4.344 -1.875 c -0.852 -1.16 -1.344 -2.578 -1.344 -4.125 c 0 -1.547 0.492 -2.965 1.344 -4.125 c -1.094 -1.152 -2.629 -1.875 -4.344 -1.875 m 0 0"
           fill="#fff"
           stroke="none"
           fill-rule="nonzero"
           fill-opacity="1"
           id="path61" />
        <path
           d="m 24 12 c 1.578 6.793 -3.098 5.629 -8 10.406 c -1.996 -5 2.938 -13.914 8 -10.406 m 0 0"
           fill="#fff"
           stroke="none"
           fill-rule="nonzero"
           fill-opacity="1"
           id="path63" />
        <path
           d="m 35 30 c 0 3.313 -2.688 6 -6 6 c -3.313 0 -6 -2.688 -6 -6 c 0 -3.313 2.688 -6 6 -6 c 3.313 0 6 2.688 6 6 m 0 0"
           fill="#fff"
           stroke="none"
           fill-rule="nonzero"
           fill-opacity="1"
           id="path65" />
      </g>
    </g>
  </g>
  <path
     style="opacity:0.5;fill:#000000;fill-opacity:1;stroke:none"
     d="m 3.9999996,44 0,0 C 24,43 24,43 44,44 Z"
     id="path3257"
     inkscape:connector-curvature="0"
     sodipodi:nodetypes="cccc" />
  <path
     sodipodi:nodetypes="cccc"
     inkscape:connector-curvature="0"
     id="path4027"
     d="m 3.9999996,4.0000001 0,0 c 20.0000004,1 20.0000004,1 40.0000004,0 z"
     style="opacity:0.75;fill:#ffffff;fill-opacity:1;stroke:none" />
</svg>
