<?xml version="1.0" encoding="UTF-8" standalone="no"?>
<svg
   xmlns:dc="http://purl.org/dc/elements/1.1/"
   xmlns:cc="http://creativecommons.org/ns#"
   xmlns:rdf="http://www.w3.org/1999/02/22-rdf-syntax-ns#"
   xmlns:svg="http://www.w3.org/2000/svg"
   xmlns="http://www.w3.org/2000/svg"
   xmlns:xlink="http://www.w3.org/1999/xlink"
   xmlns:sodipodi="http://sodipodi.sourceforge.net/DTD/sodipodi-0.dtd"
   xmlns:inkscape="http://www.inkscape.org/namespaces/inkscape"
   width="48"
   viewBox="0 0 13.546667 13.546667"
   height="48"
   id="svg2"
   version="1.1"
   inkscape:version="0.48.4 r9939"
   sodipodi:docname="gmchess.svg">
  <metadata
     id="metadata22">
    <rdf:RDF>
      <cc:Work
         rdf:about="">
        <dc:format>image/svg+xml</dc:format>
        <dc:type
           rdf:resource="http://purl.org/dc/dcmitype/StillImage" />
        <dc:title />
      </cc:Work>
    </rdf:RDF>
  </metadata>
  <sodipodi:namedview
     pagecolor="#ffffff"
     bordercolor="#666666"
     borderopacity="1"
     objecttolerance="10"
     gridtolerance="10"
     guidetolerance="10"
     inkscape:pageopacity="0"
     inkscape:pageshadow="2"
     inkscape:window-width="1301"
     inkscape:window-height="744"
     id="namedview20"
     showgrid="true"
     inkscape:showpageshadow="false"
     borderlayer="true"
     inkscape:zoom="4.6067607"
     inkscape:cx="39.97715"
     inkscape:cy="28.276719"
     inkscape:window-x="65"
     inkscape:window-y="24"
     inkscape:window-maximized="1"
     inkscape:current-layer="svg2"
     inkscape:object-paths="true"
     inkscape:object-nodes="true"
     inkscape:snap-smooth-nodes="true">
    <inkscape:grid
       type="xygrid"
       id="grid4252" />
  </sodipodi:namedview>
  <defs
     id="defs4">
    <linearGradient
       id="linearGradient3765">
      <stop
         style="stop-color:#eda574;stop-opacity:1;"
         offset="0"
         id="stop3767" />
      <stop
         style="stop-color:#ff9d58;stop-opacity:1;"
         offset="1"
         id="stop3769" />
    </linearGradient>
    <linearGradient
       inkscape:collect="always"
       id="linearGradient4153">
      <stop
         style="stop-color:#e6e6e6;stop-opacity:1"
         offset="0"
         id="stop4155" />
      <stop
         style="stop-color:#f9f9f9;stop-opacity:1"
         offset="1"
         id="stop4157" />
    </linearGradient>
    <linearGradient
       id="linearGradient854">
      <stop
         style="stop-color:#1a1a1a;stop-opacity:1"
         offset="0"
         id="stop856" />
      <stop
         style="stop-color:#333333;stop-opacity:1"
         offset="1"
         id="stop858" />
    </linearGradient>
    <linearGradient
       inkscape:collect="always"
       xlink:href="#linearGradient4153"
       id="linearGradient4159"
       x1="-1.7362217e-05"
       y1="25.200003"
       x2="48.000019"
       y2="25.200003"
       gradientUnits="userSpaceOnUse"
       gradientTransform="matrix(0.23518502,0,0,0.23518502,1.128893,1.1288926)" />
    <linearGradient
       inkscape:collect="always"
       xlink:href="#linearGradient3765"
       id="linearGradient3771"
       x1="-7.3157828e-08"
       y1="-6.7733288"
       x2="13.546667"
       y2="-6.7733288"
       gradientUnits="userSpaceOnUse"
       gradientTransform="matrix(0.83333273,0,0,0.83333273,1.128893,-1.1288926)" />
  </defs>
  <rect
     style="fill:url(#linearGradient3771);fill-opacity:1;stroke:none"
     id="rect2991-1"
     width="11.288881"
     height="11.288881"
     x="1.1288929"
     y="-12.417769"
     ry="0.45732751"
     transform="scale(1,-1)" />
  <path
     style="fill:url(#linearGradient4159);fill-opacity:1;stroke:none"
     d="m 1.5864013,1.1288926 c -0.2533594,0 -0.4575083,0.2041489 -0.4575083,0.4575083 l 0,3.305452 3.7629603,0 0,-3.7629603 -3.305452,0 z m 3.305452,3.7629603 0,3.7629604 3.7629604,0 0,-3.7629604 -3.7629604,0 z m 3.7629604,0 3.7629603,0 0,-3.305452 c 0,-0.2533594 -0.204149,-0.4575083 -0.457509,-0.4575083 l -3.3054513,0 0,3.7629603 z m 0,3.7629604 0,3.7629607 3.3054513,0 c 0.25336,0 0.457509,-0.204149 0.457509,-0.457509 l 0,-3.3054517 -3.7629603,0 z m -3.7629604,0 -3.7629603,0 0,3.3054517 c 0,0.25336 0.2041489,0.457509 0.4575083,0.457509 l 3.305452,0 0,-3.7629607 z"
     id="rect4142"
     inkscape:connector-curvature="0" />
  <path
     style="opacity:0.35;fill:#000000;fill-opacity:1;stroke:none"
     d="m 1.599263,12.417774 0,0 c 5.4092556,-0.235185 5.4092556,-0.235185 10.348141,0 z"
     id="path3773"
     inkscape:connector-curvature="0"
     sodipodi:nodetypes="cccc" />
  <path
     style="opacity:0.75;fill:#ffffff;fill-opacity:1;stroke:none"
     d="m 1.599263,1.1288926 0,0 c 5.4092556,0.235185 5.4092556,0.235185 10.348142,0 z"
     id="path3773-5"
     inkscape:connector-curvature="0"
     sodipodi:nodetypes="cccc" />
  <g
     style="font-size:7.92847538000000007px;font-style:normal;font-variant:normal;font-weight:bold;font-stretch:normal;line-height:125%;letter-spacing:0px;word-spacing:0px;fill:#3d3d3d;fill-opacity:1;stroke:none;font-family:'陈继世-行楷简体';-inkscape-font-specification:'陈继世-行楷简体 Bold';opacity:1"
     id="text2997">
    <path
       d="m 7.2998339,3.304626 0.061941,0 0.2167943,0.4335884 0.030971,0.5884416 0.061941,0.9291182 1.0839712,-0.1858237 c 0.8671702,0.020651 1.3110816,0.175504 1.3317366,0.4645592 l 0,0.2477648 -0.1858241,-0.030971 C 9.5503579,5.9371307 9.3438874,6.1126306 9.2819527,6.2778042 9.178711,6.277807 8.9722405,6.5255716 8.6625406,7.0210988 8.4560642,7.2069243 8.3218584,7.299836 8.2599227,7.2998342 8.156682,7.299836 8.0327997,7.2585419 7.8882754,7.1759518 l -0.030971,0.3716473 0,0.030971 0.030971,0.030971 -0.030971,0.3097061 0,0.2787354 -0.1238824,0.867177 C 7.6508292,9.7878056 7.568241,10.1801 7.4856575,10.242042 c -0.041299,-10e-7 -0.144534,-0.5265011 -0.309706,-1.579501 0.020643,-1.1149404 0.020643,-1.8788813 0,-2.291825 -0.1032397,0.02065 -0.2684161,-0.061938 -0.4955297,-0.2477648 l -0.092912,0 0,0.1858236 0.4335885,0.712324 -0.092912,0.5265003 -0.1238824,0 C 6.5978297,7.4856595 6.4223297,7.2585419 6.2778039,6.8662458 6.2365063,6.7010715 6.1539181,6.5358951 6.030039,6.370716 5.8855064,6.4120128 5.8029182,6.4842775 5.7822742,6.5875103 L 5.8442154,6.8043045 5.875186,7.08304 C 5.8958299,7.3101595 5.7925947,7.5579241 5.5654799,7.8263346 5.3383596,7.7024535 5.2144773,7.5682477 5.1938326,7.4237167 c -0.020649,1.6e-6 -0.041297,-0.082587 -0.061941,-0.2477649 l 0,-0.061941 0.030971,-0.4955297 -0.030971,-0.3097061 0.061941,-0.030971 C 5.1525361,6.1539247 5.1009185,6.0713365 5.0389796,6.0300394 L 5.0699502,5.9061569 C 5.2557714,5.885513 5.4725654,6.0506894 5.7203329,6.4016866 L 6.030039,6.215863 l 0.092912,-0.030971 0.030971,0.030971 0.030971,0 -0.030971,-0.061941 -0.030971,-0.1858237 C 6.1023004,5.7409837 6.350065,5.5654838 6.8662454,5.4415978 6.8455943,5.4003074 6.959153,5.3693368 7.2069221,5.348686 7.2895059,5.3073956 7.3411235,5.0699545 7.3617751,4.636362 l -0.1858236,-0.9291182 0.030971,-0.154853 -0.030971,-0.030971 0,-0.061941 0.1238824,-0.154853 m 0,0.3716472 -0.030971,0.1238825 0.030971,0.092912 0,0 0.030971,0.154853 0.030971,0 0,-0.2167942 0,-0.061941 -0.061941,-0.092912 m -3.8093847,2.1679425 0.1548531,0 0.154853,0.092912 0.1858237,-0.092912 0.030971,0.030971 0,0.030971 -0.092912,0.030971 0,0.092912 c 0.1238812,-0.020644 0.2890576,0.1032383 0.4955298,0.3716472 0.082586,2.7e-6 0.1342041,0.1961497 0.154853,0.5884416 0.020645,0.2064726 -0.1238841,0.4439136 -0.4335885,0.7123239 l -0.092912,0 C 3.9653307,7.7231006 3.8104778,7.4443654 3.5833611,6.8662458 L 3.6143317,6.2778042 3.4594786,5.9680981 3.4904492,5.8442157 M 8.5076876,6.3397454 8.2908933,6.2778042 8.2289521,6.370716 8.0740991,6.4016866 8.0121579,6.370716 c -0.1238876,2.7e-6 -0.1755052,0.103238 -0.1548531,0.3097061 l 0.030971,0.2787355 0.1548531,0.030971 C 8.373476,6.9488362 8.6831818,6.7010715 8.9722467,6.2468336 L 8.9412761,6.215863 8.5076876,6.3397454"
       id="path3002"
       style="fill:#3d3d3d;fill-opacity:1" />
  </g>
</svg>
