<?xml version="1.0" encoding="UTF-8" standalone="no"?>
<svg
   xmlns:dc="http://purl.org/dc/elements/1.1/"
   xmlns:cc="http://creativecommons.org/ns#"
   xmlns:rdf="http://www.w3.org/1999/02/22-rdf-syntax-ns#"
   xmlns:svg="http://www.w3.org/2000/svg"
   xmlns="http://www.w3.org/2000/svg"
   xmlns:xlink="http://www.w3.org/1999/xlink"
   xmlns:sodipodi="http://sodipodi.sourceforge.net/DTD/sodipodi-0.dtd"
   xmlns:inkscape="http://www.inkscape.org/namespaces/inkscape"
   viewBox="0 0 48 48"
   id="svg2"
   version="1.1"
   inkscape:version="0.48.5 r10040"
   width="100%"
   height="100%"
   sodipodi:docname="gnome-alsamixer-icon.svg">
  <metadata
     id="metadata237">
    <rdf:RDF>
      <cc:Work
         rdf:about="">
        <dc:format>image/svg+xml</dc:format>
        <dc:type
           rdf:resource="http://purl.org/dc/dcmitype/StillImage" />
      </cc:Work>
    </rdf:RDF>
  </metadata>
  <sodipodi:namedview
     pagecolor="#ffffff"
     bordercolor="#666666"
     borderopacity="1"
     objecttolerance="10"
     gridtolerance="10"
     guidetolerance="10"
     inkscape:pageopacity="0"
     inkscape:pageshadow="2"
     inkscape:window-width="1301"
     inkscape:window-height="744"
     id="namedview235"
     showgrid="true"
     inkscape:snap-global="true"
     inkscape:zoom="9.0450742"
     inkscape:cx="20.238024"
     inkscape:cy="13.405005"
     inkscape:window-x="65"
     inkscape:window-y="24"
     inkscape:window-maximized="1"
     inkscape:current-layer="svg2">
    <inkscape:grid
       type="xygrid"
       id="grid3214" />
  </sodipodi:namedview>
  <defs
     id="defs4">
    <linearGradient
       id="linearGradient3986">
      <stop
         style="stop-color:#f2f2f2;stop-opacity:1;"
         offset="0"
         id="stop3988" />
      <stop
         style="stop-color:#f2f2f2;stop-opacity:0;"
         offset="1"
         id="stop3990" />
    </linearGradient>
    <linearGradient
       id="linearGradient3764"
       x1="1"
       x2="47"
       gradientUnits="userSpaceOnUse"
       gradientTransform="matrix(0,-1,1,0,-1.5e-6,47.999998)">
      <stop
         stop-color="#3d3d3d"
         stop-opacity="1"
         id="stop7" />
      <stop
         offset="1"
         stop-color="#474747"
         stop-opacity="1"
         id="stop9"
         style="stop-color:#737373;stop-opacity:1;" />
    </linearGradient>
    <clipPath
       id="clipPath-559913961">
      <g
         transform="translate(0,-1004.3622)"
         id="g12">
        <path
           d="m -24 13 c 0 1.105 -0.672 2 -1.5 2 -0.828 0 -1.5 -0.895 -1.5 -2 0 -1.105 0.672 -2 1.5 -2 0.828 0 1.5 0.895 1.5 2 z"
           transform="matrix(15.333333,0,0,11.5,414.99999,878.8622)"
           fill="#1890d0"
           id="path14" />
      </g>
    </clipPath>
    <clipPath
       id="clipPath-567190404">
      <g
         transform="translate(0,-1004.3622)"
         id="g17">
        <path
           d="m -24 13 c 0 1.105 -0.672 2 -1.5 2 -0.828 0 -1.5 -0.895 -1.5 -2 0 -1.105 0.672 -2 1.5 -2 0.828 0 1.5 0.895 1.5 2 z"
           transform="matrix(15.333333,0,0,11.5,414.99999,878.8622)"
           fill="#1890d0"
           id="path19" />
      </g>
    </clipPath>
    <linearGradient
       inkscape:collect="always"
       xlink:href="#linearGradient3764"
       id="linearGradient3992"
       x1="4"
       y1="24"
       x2="44"
       y2="24"
       gradientUnits="userSpaceOnUse" />
  </defs>
  <rect
     style="fill:url(#linearGradient3992);fill-opacity:1.0;stroke:none"
     id="rect3216"
     width="40"
     height="40"
     x="4"
     y="4" />
  <g
     id="g33" />
  <g
     id="g139"
     transform="matrix(0.87710168,0,0,0.91812036,2.931608,1.9650031)">
    <path
       d="m 17.02,32 3.957,0 c 0.012,0 0.02,0.004 0.02,0.004 l 0,1.992 c 0,0 -0.008,0.004 -0.02,0.004 l -3.957,0 c -0.012,0 -0.023,-0.004 -0.023,-0.004 l 0,-1.992 c 0,0 0.012,-0.004 0.023,-0.004 m 0,0"
       id="path141"
       inkscape:connector-curvature="0"
       style="fill:#e4c82f;fill-opacity:1;fill-rule:nonzero;stroke:none" />
    <path
       d="m 17.02,28.984 3.957,0 c 0.012,0 0.02,0.004 0.02,0.004 l 0,1.992 c 0,0 -0.008,0.004 -0.02,0.004 l -3.957,0 c -0.012,0 -0.023,-0.004 -0.023,-0.004 l 0,-1.992 c 0,0 0.012,-0.004 0.023,-0.004 m 0,0"
       id="path143"
       inkscape:connector-curvature="0"
       style="fill:#e4c82f;fill-opacity:0.9020004;fill-rule:nonzero;stroke:none" />
    <path
       d="m 17.02,26.02 3.957,0 c 0.012,0 0.02,0 0.02,0.004 l 0,1.965 c 0,0.004 -0.008,0.004 -0.02,0.004 l -3.957,0 c -0.012,0 -0.023,0 -0.023,-0.004 l 0,-1.965 c 0,-0.004 0.012,-0.004 0.023,-0.004 m 0,0"
       id="path145"
       inkscape:connector-curvature="0"
       style="fill:#e4c82f;fill-opacity:0.8;fill-rule:nonzero;stroke:none" />
    <path
       d="m 17.02,23 3.957,0 c 0.012,0 0.02,0.004 0.02,0.004 l 0,1.953 c 0,0 -0.008,0.004 -0.02,0.004 l -3.957,0 c -0.012,0 -0.023,-0.004 -0.023,-0.004 l 0,-1.953 c 0,0 0.012,-0.004 0.023,-0.004 m 0,0"
       id="path147"
       inkscape:connector-curvature="0"
       style="fill:#e4c82f;fill-opacity:0.70200004;fill-rule:nonzero;stroke:none" />
    <path
       d="m 17.02,20 3.957,0 c 0.012,0 0.02,0 0.02,0.004 l 0,1.941 c 0,0 -0.008,0.004 -0.02,0.004 l -3.957,0 c -0.012,0 -0.023,-0.004 -0.023,-0.004 l 0,-1.941 C 16.997,20 17.009,20 17.02,20 m 0,0"
       id="path149"
       inkscape:connector-curvature="0"
       style="fill:#e4c82f;fill-opacity:0.6;fill-rule:nonzero;stroke:none" />
    <path
       d="m 27.02,32.01 3.961,0 c 0.012,0 0.02,0 0.02,0.004 l 0,1.977 c 0,0 -0.008,0.004 -0.02,0.004 l -3.961,0 C 27.008,33.995 27,33.991 27,33.991 l 0,-1.977 c 0,-0.004 0.008,-0.004 0.02,-0.004 m 0,0"
       id="path151"
       inkscape:connector-curvature="0"
       style="fill:#3e8ded;fill-opacity:1;fill-rule:nonzero;stroke:none" />
    <path
       d="m 27.02,29.02 3.961,0 c 0.012,0 0.02,0.004 0.02,0.004 l 0,1.965 c 0,0.004 -0.008,0.004 -0.02,0.004 l -3.961,0 c -0.012,0 -0.02,0 -0.02,-0.004 l 0,-1.965 c 0,0 0.008,-0.004 0.02,-0.004 m 0,0"
       id="path153"
       inkscape:connector-curvature="0"
       style="fill:#3e8ded;fill-opacity:0.9020004;fill-rule:nonzero;stroke:none" />
    <path
       d="m 27.02,26.05 3.961,0 c 0.012,0 0.02,0.004 0.02,0.004 l 0,1.957 c 0,0 -0.008,0.004 -0.02,0.004 l -3.961,0 C 27.008,28.015 27,28.011 27,28.011 l 0,-1.957 c 0,0 0.008,-0.004 0.02,-0.004 m 0,0"
       id="path155"
       inkscape:connector-curvature="0"
       style="fill:#3e8ded;fill-opacity:0.8;fill-rule:nonzero;stroke:none" />
    <path
       d="m 27.02,23.05 3.961,0 c 0.012,0 0.02,0 0.02,0.004 l 0,1.941 c 0,0 -0.008,0.004 -0.02,0.004 l -3.961,0 C 27.008,24.999 27,24.995 27,24.995 l 0,-1.941 c 0,-0.004 0.008,-0.004 0.02,-0.004 m 0,0"
       id="path157"
       inkscape:connector-curvature="0"
       style="fill:#3e8ded;fill-opacity:0.70200004;fill-rule:nonzero;stroke:none" />
    <path
       d="m 27.02,20.06 3.961,0 c 0.012,0 0.02,0.004 0.02,0.004 l 0,1.926 c 0,0.004 -0.008,0.004 -0.02,0.004 l -3.961,0 c -0.012,0 -0.02,0 -0.02,-0.004 l 0,-1.926 c 0,0 0.008,-0.004 0.02,-0.004 m 0,0"
       id="path159"
       inkscape:connector-curvature="0"
       style="fill:#3e8ded;fill-opacity:0.6;fill-rule:nonzero;stroke:none" />
    <path
       d="m 27.02,17 3.961,0 c 0.012,0 0.02,0.004 0.02,0.004 l 0,1.992 C 31.001,19 30.993,19 30.981,19 L 27.02,19 C 27.008,19 27,19 27,18.996 l 0,-1.992 c 0,0 0.008,-0.004 0.02,-0.004 m 0,0"
       id="path161"
       inkscape:connector-curvature="0"
       style="fill:#3e8ded;fill-opacity:0.50199998;fill-rule:nonzero;stroke:none" />
    <path
       d="m 32.02,32 3.961,0 c 0.012,0 0.02,0.004 0.02,0.004 l 0,1.992 c 0,0 -0.008,0.004 -0.02,0.004 L 32.02,34 C 32.008,34 32,33.996 32,33.996 l 0,-1.992 c 0,0 0.008,-0.004 0.02,-0.004 m 0,0"
       id="path163"
       inkscape:connector-curvature="0"
       style="fill:#db4ddb;fill-opacity:1;fill-rule:nonzero;stroke:none" />
    <path
       d="m 32.02,29 3.961,0 c 0.012,0 0.02,0 0.02,0.004 l 0,1.98 c 0,0 -0.008,0.004 -0.02,0.004 l -3.961,0 C 32.008,30.988 32,30.984 32,30.984 l 0,-1.98 C 32,29 32.008,29 32.02,29 m 0,0"
       id="path165"
       inkscape:connector-curvature="0"
       style="fill:#db4ddb;fill-opacity:0.9020004;fill-rule:nonzero;stroke:none" />
    <path
       d="m 32.02,26.02 3.961,0 c 0.012,0 0.02,0 0.02,0.004 l 0,1.965 c 0,0.004 -0.008,0.004 -0.02,0.004 l -3.961,0 c -0.012,0 -0.02,0 -0.02,-0.004 l 0,-1.965 c 0,-0.004 0.008,-0.004 0.02,-0.004 m 0,0"
       id="path167"
       inkscape:connector-curvature="0"
       style="fill:#db4ddb;fill-opacity:0.8;fill-rule:nonzero;stroke:none" />
    <path
       d="m 32.02,23 3.961,0 c 0.012,0 0.02,0.004 0.02,0.004 l 0,1.953 c 0,0 -0.008,0.004 -0.02,0.004 l -3.961,0 C 32.008,24.961 32,24.957 32,24.957 l 0,-1.953 c 0,0 0.008,-0.004 0.02,-0.004 m 0,0"
       id="path169"
       inkscape:connector-curvature="0"
       style="fill:#db4ddb;fill-opacity:0.70200004;fill-rule:nonzero;stroke:none" />
    <path
       d="m 32.02,20 3.961,0 c 0.012,0 0.02,0 0.02,0.004 l 0,1.941 c 0,0 -0.008,0.004 -0.02,0.004 l -3.961,0 C 32.008,21.949 32,21.945 32,21.945 l 0,-1.941 C 32,20 32.008,20 32.02,20 m 0,0"
       id="path171"
       inkscape:connector-curvature="0"
       style="fill:#db4ddb;fill-opacity:0.6;fill-rule:nonzero;stroke:none" />
    <path
       d="m 22.02,32 3.957,0 c 0.012,0 0.02,0.004 0.02,0.004 l 0,1.992 c 0,0 -0.008,0.004 -0.02,0.004 l -3.957,0 c -0.012,0 -0.023,-0.004 -0.023,-0.004 l 0,-1.992 c 0,0 0.012,-0.004 0.023,-0.004 m 0,0"
       id="path173"
       inkscape:connector-curvature="0"
       style="fill:#7fcf5b;fill-opacity:1;fill-rule:nonzero;stroke:none" />
    <path
       d="m 22.02,29 3.957,0 c 0.012,0 0.02,0 0.02,0.004 l 0,1.98 c 0,0 -0.008,0.004 -0.02,0.004 l -3.957,0 c -0.012,0 -0.023,-0.004 -0.023,-0.004 l 0,-1.98 C 21.997,29 22.009,29 22.02,29 m 0,0"
       id="path175"
       inkscape:connector-curvature="0"
       style="fill:#7fcf5b;fill-opacity:0.9020004;fill-rule:nonzero;stroke:none" />
    <path
       d="m 22.02,26.02 3.957,0 c 0.012,0 0.02,0 0.02,0.004 l 0,1.965 c 0,0.004 -0.008,0.004 -0.02,0.004 l -3.957,0 c -0.012,0 -0.023,0 -0.023,-0.004 l 0,-1.965 c 0,-0.004 0.012,-0.004 0.023,-0.004 m 0,0"
       id="path177"
       inkscape:connector-curvature="0"
       style="fill:#7fcf5b;fill-opacity:0.8;fill-rule:nonzero;stroke:none" />
    <path
       d="m 12.02,32 3.957,0 c 0.012,0 0.02,0.004 0.02,0.004 l 0,1.992 c 0,0 -0.008,0.004 -0.02,0.004 l -3.957,0 c -0.012,0 -0.023,-0.004 -0.023,-0.004 l 0,-1.992 c 0,0 0.012,-0.004 0.023,-0.004 m 0,0"
       id="path179"
       inkscape:connector-curvature="0"
       style="fill:#c52f2f;fill-opacity:1;fill-rule:nonzero;stroke:none" />
    <path
       d="m 12.02,29.02 3.957,0 c 0.012,0 0.02,0.004 0.02,0.004 l 0,1.969 c 0,0 -0.008,0 -0.02,0 l -3.957,0 c -0.012,0 -0.023,0 -0.023,0 l 0,-1.969 c 0,0 0.012,-0.004 0.023,-0.004 m 0,0"
       id="path181"
       inkscape:connector-curvature="0"
       style="fill:#c52f2f;fill-opacity:0.9020004;fill-rule:nonzero;stroke:none" />
    <path
       d="m 12.02,26.04 3.957,0 c 0.012,0 0.02,0 0.02,0 l 0,1.957 c 0,0.004 -0.008,0.004 -0.02,0.004 l -3.957,0 c -0.012,0 -0.023,0 -0.023,-0.004 l 0,-1.957 c 0,0 0.012,0 0.023,0 m 0,0"
       id="path183"
       inkscape:connector-curvature="0"
       style="fill:#c52f2f;fill-opacity:0.8;fill-rule:nonzero;stroke:none" />
    <path
       d="m 12.02,23.05 3.957,0 c 0.012,0 0.02,0 0.02,0.004 l 0,1.941 c 0,0 -0.008,0.004 -0.02,0.004 l -3.957,0 c -0.012,0 -0.023,-0.004 -0.023,-0.004 l 0,-1.941 c 0,-0.004 0.012,-0.004 0.023,-0.004 m 0,0"
       id="path185"
       inkscape:connector-curvature="0"
       style="fill:#c52f2f;fill-opacity:0.70200004;fill-rule:nonzero;stroke:none" />
    <path
       d="m 12.02,20.06 3.957,0 c 0.012,0 0.02,0.004 0.02,0.004 l 0,1.93 c 0,0 -0.008,0 -0.02,0 l -3.957,0 c -0.012,0 -0.023,0 -0.023,0 l 0,-1.93 c 0,0 0.012,-0.004 0.023,-0.004 m 0,0"
       id="path187"
       inkscape:connector-curvature="0"
       style="fill:#c52f2f;fill-opacity:0.6;fill-rule:nonzero;stroke:none" />
    <path
       d="m 12.02,17 3.957,0 c 0.012,0 0.02,0 0.02,0.004 l 0,1.988 c 0,0.004 -0.008,0.004 -0.02,0.004 l -3.957,0 c -0.012,0 -0.023,0 -0.023,-0.004 l 0,-1.988 C 11.997,17 12.009,17 12.02,17 m 0,0"
       id="path189"
       inkscape:connector-curvature="0"
       style="fill:#c52f2f;fill-opacity:0.50199998;fill-rule:nonzero;stroke:none" />
    <path
       d="m 12.02,14 3.957,0 c 0.012,0 0.02,0.004 0.02,0.004 l 0,1.992 c 0,0 -0.008,0.004 -0.02,0.004 l -3.957,0 c -0.012,0 -0.023,-0.004 -0.023,-0.004 l 0,-1.992 c 0,0 0.012,-0.004 0.023,-0.004 m 0,0"
       id="path191"
       inkscape:connector-curvature="0"
       style="fill:#c52f2f;fill-opacity:0.4;fill-rule:nonzero;stroke:none" />
    <path
       d="m 7.02,32 3.957,0 c 0.012,0 0.02,0.004 0.02,0.004 l 0,1.992 c 0,0 -0.008,0.004 -0.02,0.004 L 7.02,34 C 7.008,34 6.997,33.996 6.997,33.996 l 0,-1.992 c 0,0 0.012,-0.004 0.023,-0.004 m 0,0"
       id="path193"
       inkscape:connector-curvature="0"
       style="fill:#db4ddb;fill-opacity:1;fill-rule:nonzero;stroke:none" />
    <path
       d="m 7.02,29 3.957,0 c 0.012,0 0.02,0 0.02,0.004 l 0,1.98 c 0,0 -0.008,0.004 -0.02,0.004 l -3.957,0 c -0.012,0 -0.023,-0.004 -0.023,-0.004 l 0,-1.98 C 6.997,29 7.009,29 7.02,29 m 0,0"
       id="path195"
       inkscape:connector-curvature="0"
       style="fill:#db4ddb;fill-opacity:0.9020004;fill-rule:nonzero;stroke:none" />
    <path
       d="m 7.02,26.02 3.957,0 c 0.012,0 0.02,0 0.02,0.004 l 0,1.965 c 0,0.004 -0.008,0.004 -0.02,0.004 l -3.957,0 c -0.012,0 -0.023,0 -0.023,-0.004 l 0,-1.965 c 0,-0.004 0.012,-0.004 0.023,-0.004 m 0,0"
       id="path197"
       inkscape:connector-curvature="0"
       style="fill:#db4ddb;fill-opacity:0.8;fill-rule:nonzero;stroke:none" />
    <path
       d="m 7.02,23 3.957,0 c 0.012,0 0.02,0.004 0.02,0.004 l 0,1.953 c 0,0 -0.008,0.004 -0.02,0.004 l -3.957,0 c -0.012,0 -0.023,-0.004 -0.023,-0.004 l 0,-1.953 c 0,0 0.012,-0.004 0.023,-0.004 m 0,0"
       id="path199"
       inkscape:connector-curvature="0"
       style="fill:#db4ddb;fill-opacity:0.70200004;fill-rule:nonzero;stroke:none" />
    <path
       d="m 7.02,20 3.957,0 c 0.012,0 0.02,0 0.02,0.004 l 0,1.941 c 0,0 -0.008,0.004 -0.02,0.004 l -3.957,0 c -0.012,0 -0.023,-0.004 -0.023,-0.004 l 0,-1.941 C 6.997,20 7.009,20 7.02,20 m 0,0"
       id="path201"
       inkscape:connector-curvature="0"
       style="fill:#db4ddb;fill-opacity:0.6;fill-rule:nonzero;stroke:none" />
    <path
       d="m 2,17 0,2 3.969,0 C 5.981,19 6,19 6,19 L 6,17 C 6,16.996 5.98,17 5.969,17 M 2,20 2,22 5.969,22 C 5.981,22 6,22 6,22 l 0,-1.938 c 0,-0.004 -0.02,0 -0.031,0 M 2,23 c 0,1 0,1.273 0,2 l 3.969,0 C 5.981,25 6,25 6,25 l 0,-1.938 c 0,-0.004 -0.02,0 -0.031,0 M 2,26 c 0,0.676 0,1.43 0,2 l 3.969,0 C 5.981,28 6,28 6,28 l 0,-1.969 c 0,-0.004 -0.02,0 -0.031,0 M 2,29 c 0,1 0,1.398 0,2 l 3.969,0 C 5.981,31 6,31 6,31 l 0,-1.969 c 0,-0.004 -0.02,0 -0.031,0 M 2,32 c 0,0.684 0,1.301 0,2 l 3.969,0 C 5.981,34 6,34 6,34 L 6,32 C 6,31.996 5.98,32 5.969,32 M 2,32"
       id="path203"
       inkscape:connector-curvature="0"
       style="fill:#3e8ded;fill-opacity:0.50199998;fill-rule:nonzero;stroke:none" />
    <path
       d="m 37.02,32 3.961,0 c 0.012,0 0.02,0.004 0.02,0.004 l 0,1.992 c 0,0 -0.008,0.004 -0.02,0.004 L 37.02,34 C 37.008,34 37,33.996 37,33.996 l 0,-1.992 c 0,0 0.008,-0.004 0.02,-0.004 m 0,0"
       id="path205"
       inkscape:connector-curvature="0"
       style="fill:#c52f2f;fill-opacity:1;fill-rule:nonzero;stroke:none" />
    <path
       d="m 37.02,29.02 3.961,0 c 0.012,0 0.02,0.004 0.02,0.004 l 0,1.969 c 0,0 -0.008,0 -0.02,0 l -3.961,0 c -0.012,0 -0.02,0 -0.02,0 l 0,-1.969 c 0,0 0.008,-0.004 0.02,-0.004 m 0,0"
       id="path207"
       inkscape:connector-curvature="0"
       style="fill:#c52f2f;fill-opacity:0.9020004;fill-rule:nonzero;stroke:none" />
    <path
       d="m 37.02,26.04 3.961,0 c 0.012,0 0.02,0 0.02,0 l 0,1.957 c 0,0.004 -0.008,0.004 -0.02,0.004 l -3.961,0 c -0.012,0 -0.02,0 -0.02,-0.004 l 0,-1.957 c 0,0 0.008,0 0.02,0 m 0,0"
       id="path209"
       inkscape:connector-curvature="0"
       style="fill:#c52f2f;fill-opacity:0.8;fill-rule:nonzero;stroke:none" />
    <path
       d="m 37.02,23.05 3.961,0 c 0.012,0 0.02,0 0.02,0.004 l 0,1.941 c 0,0 -0.008,0.004 -0.02,0.004 l -3.961,0 C 37.008,24.999 37,24.995 37,24.995 l 0,-1.941 c 0,-0.004 0.008,-0.004 0.02,-0.004 m 0,0"
       id="path211"
       inkscape:connector-curvature="0"
       style="fill:#c52f2f;fill-opacity:0.70200004;fill-rule:nonzero;stroke:none" />
    <path
       d="m 37.02,20.06 3.961,0 c 0.012,0 0.02,0.004 0.02,0.004 l 0,1.93 c 0,0 -0.008,0 -0.02,0 l -3.961,0 c -0.012,0 -0.02,0 -0.02,0 l 0,-1.93 c 0,0 0.008,-0.004 0.02,-0.004 m 0,0"
       id="path213"
       inkscape:connector-curvature="0"
       style="fill:#c52f2f;fill-opacity:0.6;fill-rule:nonzero;stroke:none" />
    <path
       d="m 37.02,17 3.961,0 c 0.012,0 0.02,0 0.02,0.004 l 0,1.988 c 0,0.004 -0.008,0.004 -0.02,0.004 l -3.961,0 c -0.012,0 -0.02,0 -0.02,-0.004 l 0,-1.988 C 37,17 37.008,17 37.02,17 m 0,0"
       id="path215"
       inkscape:connector-curvature="0"
       style="fill:#c52f2f;fill-opacity:0.50199998;fill-rule:nonzero;stroke:none" />
    <path
       d="m 37.02,14 3.961,0 c 0.012,0 0.02,0.004 0.02,0.004 l 0,1.992 c 0,0 -0.008,0.004 -0.02,0.004 L 37.02,16 C 37.008,16 37,15.996 37,15.996 l 0,-1.992 c 0,0 0.008,-0.004 0.02,-0.004 m 0,0"
       id="path217"
       inkscape:connector-curvature="0"
       style="fill:#c52f2f;fill-opacity:0.4;fill-rule:nonzero;stroke:none" />
    <path
       d="m 3.548,5.847 0.428,0 c 0.107,0 0.194,0.088 0.194,0.206 l 0,1.679 c 0,0.11 -0.087,0.205 -0.194,0.205 l -0.428,0 C 3.44,7.937 3.353,7.843 3.353,7.732 l 0,-1.679 c 0,-0.117 0.087,-0.206 0.195,-0.206 m 0,0"
       transform="matrix(3.543307,0,0,3.543307,-0.566929,-0.421795)"
       stroke-miterlimit="4"
       id="path219"
       inkscape:connector-curvature="0"
       style="fill:#f9f9f9;fill-opacity:1;fill-rule:nonzero;stroke:#f9f9f9;stroke-width:0.176;stroke-linecap:butt;stroke-linejoin:miter;stroke-miterlimit:4;stroke-opacity:1" />
    <path
       d="M 4.086,5.943 6.5,3.749 6.5,6.527 6.794,6.979 6.5,7.316 6.5,10.029 4.077,7.911 M 4.086,5.94"
       transform="matrix(3.543307,0,0,3.543307,-0.566929,-0.421795)"
       stroke-miterlimit="4"
       id="path221"
       inkscape:connector-curvature="0"
       style="fill:#f9f9f9;fill-opacity:1;fill-rule:nonzero;stroke:#f9f9f9;stroke-width:0.12800001;stroke-linecap:round;stroke-linejoin:round;stroke-miterlimit:4;stroke-opacity:1" />
    <path
       d="m 7.291,5.623 c 0.667,0.7 0.667,1.837 0,2.538"
       transform="matrix(3.543307,0,0,3.543307,-0.566929,-0.421795)"
       stroke-miterlimit="4"
       id="path223"
       inkscape:connector-curvature="0"
       style="fill:none;stroke:#f9f9f9;stroke-width:0.58899999;stroke-linecap:butt;stroke-linejoin:round;stroke-miterlimit:4;stroke-opacity:1" />
    <path
       d="m 8.172,4.737 c 1.131,1.19 1.131,3.12 0,4.311"
       transform="matrix(3.543307,0,0,3.543307,-0.566929,-0.421795)"
       stroke-miterlimit="4"
       id="path225"
       inkscape:connector-curvature="0"
       style="fill:none;stroke:#f9f9f9;stroke-width:0.58899999;stroke-linecap:butt;stroke-linejoin:round;stroke-miterlimit:4;stroke-opacity:1" />
    <path
       d="m 9.09,3.8 c 1.627,1.707 1.627,4.477 0,6.184"
       transform="matrix(3.543307,0,0,3.543307,-0.566929,-0.421795)"
       stroke-miterlimit="4"
       id="path227"
       inkscape:connector-curvature="0"
       style="fill:none;stroke:#f9f9f9;stroke-width:0.58899999;stroke-linecap:butt;stroke-linejoin:round;stroke-miterlimit:4;stroke-opacity:1" />
    <path
       d="m 42,20 0,1.938 c 0,0.004 0.02,0 0.031,0 l 3.969,0.063 0,-2 -3.969,0 c -0.012,0 -0.031,0 -0.031,0 m 0,3 0,1.969 c 0,0.004 0.02,0 0.031,0 l 3.969,0 0,-1.969 -3.969,0 c -0.012,0 -0.031,-0.004 -0.031,0 m 0,3 0,1.969 c 0,0.004 0.02,0 0.031,0 l 3.969,0.031 0,-2 -3.969,0 c -0.012,0 -0.031,-0.004 -0.031,0 m 0,3 0,1.969 c 0,0.004 0.02,0 0.031,0 l 3.969,0.031 0,-2 -3.969,0 c -0.012,0 -0.031,-0.004 -0.031,0 m 0,3 0,2 c 0,0 0.02,0 0.031,0 l 3.969,0 0,-2 -3.969,0 c -0.012,0 -0.031,-0.004 -0.031,0 m 0,0"
       id="path229"
       inkscape:connector-curvature="0"
       style="fill:#e4c82f;fill-opacity:0.6;fill-rule:nonzero;stroke:none" />
  </g>
  <path
     style="opacity:0.35;fill:#000000;fill-opacity:1;stroke:none"
     d="M 4.0000014,43.9997 43.999998,44 C 24.000001,43 24.000001,43 4,44 z"
     id="path3800"
     inkscape:connector-curvature="0"
     sodipodi:nodetypes="cccc" />
  <path
     sodipodi:nodetypes="cccc"
     inkscape:connector-curvature="0"
     id="path3804"
     d="m 4.0000049,3.9999005 39.9999961,-2e-4 c -19.999996,1 -19.999996,1 -39.9999975,0 z"
     style="opacity:0.75;fill:#ffffff;fill-opacity:1;stroke:none" />
</svg>
