<?xml version="1.0" encoding="UTF-8" standalone="no"?>
<!-- Created with Inkscape (http://www.inkscape.org/) -->

<svg
   xmlns:dc="http://purl.org/dc/elements/1.1/"
   xmlns:cc="http://creativecommons.org/ns#"
   xmlns:rdf="http://www.w3.org/1999/02/22-rdf-syntax-ns#"
   xmlns:svg="http://www.w3.org/2000/svg"
   xmlns="http://www.w3.org/2000/svg"
   xmlns:xlink="http://www.w3.org/1999/xlink"
   xmlns:sodipodi="http://sodipodi.sourceforge.net/DTD/sodipodi-0.dtd"
   xmlns:inkscape="http://www.inkscape.org/namespaces/inkscape"
   width="48"
   height="48"
   id="svg2"
   version="1.1"
   inkscape:version="0.92.2 2405546, 2018-03-11"
   sodipodi:docname="gnote.svg">
  <defs
     id="defs4">
    <linearGradient
       id="linearGradient843">
      <stop
         id="stop839"
         offset="0"
         style="stop-color:#f1c36b;stop-opacity:1" />
      <stop
         id="stop841"
         offset="1"
         style="stop-color:#ffdb4e;stop-opacity:1" />
    </linearGradient>
    <linearGradient
       id="linearGradient1374">
      <stop
         style="stop-color:#fef3c8;stop-opacity:1"
         offset="0"
         id="stop1376" />
      <stop
         style="stop-color:#ffffff;stop-opacity:1;"
         offset="1"
         id="stop1378" />
    </linearGradient>
    <linearGradient
       y2="-537.47601"
       x2="428.86081"
       y1="-537.87738"
       x1="374.84741"
       gradientTransform="matrix(0.83333333,0,0,0.83309926,-313.29165,-584.76487)"
       gradientUnits="userSpaceOnUse"
       id="linearGradient1089"
       xlink:href="#linearGradient843"
       inkscape:collect="always" />
    <linearGradient
       inkscape:collect="always"
       xlink:href="#linearGradient1374"
       id="linearGradient3230"
       gradientUnits="userSpaceOnUse"
       gradientTransform="matrix(0.79804648,0,0,0.79541597,4.8288707,210.31964)"
       x1="2.9999988"
       y1="1029.4122"
       x2="45.000134"
       y2="1029.4122" />
  </defs>
  <sodipodi:namedview
     id="base"
     pagecolor="#ffffff"
     bordercolor="#666666"
     borderopacity="1.0"
     inkscape:pageopacity="0.0"
     inkscape:pageshadow="2"
     inkscape:zoom="11.313709"
     inkscape:cx="47.039467"
     inkscape:cy="13.899788"
     inkscape:document-units="px"
     inkscape:current-layer="layer1"
     showgrid="false"
     inkscape:window-width="1920"
     inkscape:window-height="1006"
     inkscape:window-x="0"
     inkscape:window-y="0"
     inkscape:window-maximized="1">
    <inkscape:grid
       type="xygrid"
       id="grid3232" />
  </sodipodi:namedview>
  <metadata
     id="metadata7">
    <rdf:RDF>
      <cc:Work
         rdf:about="">
        <dc:format>image/svg+xml</dc:format>
        <dc:type
           rdf:resource="http://purl.org/dc/dcmitype/StillImage" />
        <dc:title />
      </cc:Work>
    </rdf:RDF>
  </metadata>
  <g
     inkscape:label="Capa 1"
     inkscape:groupmode="layer"
     id="layer1"
     transform="translate(0,-1004.3622)">
    <rect
       style="fill:url(#linearGradient1089);fill-opacity:1.0;stroke:none"
       id="rect2991-1"
       width="40"
       height="39.988766"
       x="4"
       y="-1048.3622"
       ry="0"
       transform="scale(1,-1)" />
    <path
       style="fill:url(#linearGradient3230);fill-opacity:1;stroke:none"
       d="m 8.5799203,1011.5916 c -0.7522525,0 -1.3569099,0.6027 -1.3569099,1.3524 l 0,30.7028 c 0,0.7498 0.6046574,1.3525 1.3569099,1.3525 l 30.8042367,0 c 0.752253,0 1.356911,-0.6027 1.356911,-1.3525 l 0,-30.7027 c 0,-0.7498 -0.604658,-1.3525 -1.356911,-1.3525 z"
       id="rect839"
       inkscape:connector-curvature="0"
       sodipodi:nodetypes="sssssssss" />
    <path
       sodipodi:type="arc"
       style="fill:#c83737;fill-opacity:1"
       id="path1384"
       sodipodi:cx="26.874998"
       sodipodi:cy="5.2500019"
       sodipodi:rx="3.3749998"
       sodipodi:ry="3.3749998"
       d="m 30.249998,5.2500019 a 3.3749998,3.3749998 0 0 1 -3.375,3.3749998 3.3749998,3.3749998 0 0 1 -3.375,-3.3749998 3.3749998,3.3749998 0 0 1 3.375,-3.3749998 3.3749998,3.3749998 0 0 1 3.375,3.3749998 z"
       transform="matrix(0.48575397,0,0,0.48411901,10.927402,1011.5399)" />
    <path
       style="fill:#000000;fill-opacity:1;opacity:0.1"
       d="m 7.2230091,1018.0662 0,0.2088 33.5180599,0 0,-0.2088 -33.5180599,0 z m 0,5.0109 0,0.2088 33.5180599,0 0,-0.2088 -33.5180599,0 z m 0,5.0108 0,0.2088 33.5180599,0 0,-0.2088 -33.5180599,0 z m 0,5.0108 0,0.2087 33.5180599,0 0,-0.2087 -33.5180599,0 z m 0,5.0107 0,0.2088 33.5180599,0 0,-0.2088 -33.5180599,0 z"
       id="rect2274"
       inkscape:connector-curvature="0" />
    <path
       style="fill:#ffffff;fill-opacity:0.33187776"
       d="m 7.2230091,1018.275 0,0.2088 33.5180599,0 0,-0.2088 -33.5180599,0 z m 0,5.0109 0,0.2088 33.5180599,0 0,-0.2088 -33.5180599,0 z m 0,5.0108 0,0.2087 33.5180599,0 0,-0.2087 -33.5180599,0 z m 0,5.0107 0,0.2088 33.5180599,0 0,-0.2088 -33.5180599,0 z m 0,5.0108 0,0.2088 33.5180599,0 0,-0.2088 -33.5180599,0 z"
       id="rect2276"
       inkscape:connector-curvature="0" />
    <path
       style="opacity:0.35;fill:#000000;fill-opacity:1;stroke:none"
       d="m 4,1048.3622 0,0 c 20,-1 20,-1 40,0 z"
       id="path3257"
       inkscape:connector-curvature="0"
       sodipodi:nodetypes="cccc" />
    <path
       sodipodi:nodetypes="cccc"
       inkscape:connector-curvature="0"
       id="path4027"
       d="m 4.0390625,1008.37 0,0 c 19.9999995,1 19.9999995,1 39.9999995,0 z"
       style="opacity:0.5;fill:#ffffff;fill-opacity:1;stroke:none" />
    <g
       aria-label="Note"
       style="font-style:normal;font-weight:normal;font-size:10.83120251px;line-height:1.25;font-family:sans-serif;letter-spacing:0px;word-spacing:0px;fill:#666666;fill-opacity:1;stroke:none;stroke-width:0.27078009"
       id="text842">
      <path
         d="m 12.000001,1024.3375 h 1.438519 l 3.501101,6.6056 v -6.6056 h 1.03658 v 7.896 h -1.438519 l -3.501101,-6.6055 v 6.6055 h -1.03658 z"
         style="fill:#666666;fill-opacity:1;stroke-width:0.27078009"
         id="path844" />
      <path
         d="m 22.355223,1026.9924 q -0.782724,0 -1.23755,0.6135 -0.454826,0.6082 -0.454826,1.6713 0,1.063 0.449537,1.6765 0.454826,0.6082 1.242839,0.6082 0.777435,0 1.23226,-0.6135 0.454826,-0.6135 0.454826,-1.6712 0,-1.0525 -0.454826,-1.666 -0.454825,-0.6188 -1.23226,-0.6188 z m 0,-0.825 q 1.269281,0 1.993829,0.825 0.724549,0.8251 0.724549,2.2848 0,1.4543 -0.724549,2.2847 -0.724548,0.825 -1.993829,0.825 -1.274571,0 -1.999119,-0.825 -0.719259,-0.8304 -0.719259,-2.2847 0,-1.4597 0.719259,-2.2848 0.724548,-0.825 1.999119,-0.825 z"
         style="fill:#666666;fill-opacity:1;stroke-width:0.27078009"
         id="path846" />
      <path
         d="m 27.643896,1024.6284 v 1.6818 h 2.004407 v 0.7563 h -2.004407 v 3.2155 q 0,0.7245 0.195681,0.9308 0.200969,0.2063 0.809167,0.2063 h 0.999559 v 0.8144 h -0.999559 q -1.126487,0 -1.55487,-0.4178 -0.428383,-0.4231 -0.428383,-1.5337 v -3.2155 h -0.71397 v -0.7563 h 0.71397 v -1.6818 z"
         style="fill:#666666;fill-opacity:1;stroke-width:0.27078009"
         id="path848" />
      <path
         d="m 36,1029.0286 v 0.476 h -4.474218 q 0.06346,1.0048 0.602909,1.5337 0.544733,0.5236 1.51256,0.5236 0.5606,0 1.084178,-0.1375 0.528868,-0.1376 1.047158,-0.4126 v 0.9203 q -0.523579,0.2221 -1.073601,0.3384 -0.550022,0.1164 -1.11591,0.1164 -1.417364,0 -2.247686,-0.825 -0.825033,-0.8251 -0.825033,-2.2319 0,-1.4543 0.782724,-2.3058 0.788012,-0.8568 2.120757,-0.8568 1.195241,0 1.888057,0.7722 Q 36,1027.7064 36,1029.0286 Z m -0.973116,-0.2856 q -0.01058,-0.7986 -0.449537,-1.2746 -0.433672,-0.476 -1.152931,-0.476 -0.814456,0 -1.306302,0.4602 -0.486558,0.4601 -0.5606,1.2957 z"
         style="fill:#666666;fill-opacity:1;stroke-width:0.27078009"
         id="path850" />
    </g>
  </g>
</svg>
