<?xml version="1.0" encoding="UTF-8" standalone="no"?>
<svg
   xmlns:dc="http://purl.org/dc/elements/1.1/"
   xmlns:cc="http://creativecommons.org/ns#"
   xmlns:rdf="http://www.w3.org/1999/02/22-rdf-syntax-ns#"
   xmlns:svg="http://www.w3.org/2000/svg"
   xmlns="http://www.w3.org/2000/svg"
   xmlns:xlink="http://www.w3.org/1999/xlink"
   xmlns:sodipodi="http://sodipodi.sourceforge.net/DTD/sodipodi-0.dtd"
   xmlns:inkscape="http://www.inkscape.org/namespaces/inkscape"
   viewBox="0 0 48 48"
   id="svg2"
   version="1.1"
   inkscape:version="0.91 r13725"
   width="100%"
   height="100%"
   sodipodi:docname="gnubg.svg">
  <metadata
     id="metadata81">
    <rdf:RDF>
      <cc:Work
         rdf:about="">
        <dc:format>image/svg+xml</dc:format>
        <dc:type
           rdf:resource="http://purl.org/dc/dcmitype/StillImage" />
      </cc:Work>
    </rdf:RDF>
  </metadata>
  <sodipodi:namedview
     pagecolor="#ffffff"
     bordercolor="#666666"
     borderopacity="1"
     objecttolerance="10"
     gridtolerance="10"
     guidetolerance="10"
     inkscape:pageopacity="0"
     inkscape:pageshadow="2"
     inkscape:window-width="1366"
     inkscape:window-height="705"
     id="namedview79"
     showgrid="true"
     inkscape:zoom="3.1979167"
     inkscape:cx="-34.333234"
     inkscape:cy="29.617031"
     inkscape:window-x="0"
     inkscape:window-y="28"
     inkscape:window-maximized="1"
     inkscape:current-layer="svg2">
    <inkscape:grid
       type="xygrid"
       id="grid3058" />
  </sodipodi:namedview>
  <defs
     id="defs4">
    <linearGradient
       id="linearGradient3764"
       x1="1"
       x2="47"
       gradientUnits="userSpaceOnUse"
       gradientTransform="matrix(0,-1,1,0,-1.5e-6,47.999998)">
      <stop
         stop-color="#875f49"
         stop-opacity="1"
         id="stop7" />
      <stop
         offset="1"
         stop-color="#936750"
         stop-opacity="1"
         id="stop9" />
    </linearGradient>
    <clipPath
       id="clipPath-558026255">
      <g
         transform="translate(0,-1004.3622)"
         id="g12">
        <path
           d="m -24 13 c 0 1.105 -0.672 2 -1.5 2 -0.828 0 -1.5 -0.895 -1.5 -2 0 -1.105 0.672 -2 1.5 -2 0.828 0 1.5 0.895 1.5 2 z"
           transform="matrix(15.333333,0,0,11.5,414.99999,878.8622)"
           fill="#1890d0"
           id="path14" />
      </g>
    </clipPath>
    <clipPath
       id="clipPath-566297096">
      <g
         transform="translate(0,-1004.3622)"
         id="g17">
        <path
           d="m -24 13 c 0 1.105 -0.672 2 -1.5 2 -0.828 0 -1.5 -0.895 -1.5 -2 0 -1.105 0.672 -2 1.5 -2 0.828 0 1.5 0.895 1.5 2 z"
           transform="matrix(15.333333,0,0,11.5,414.99999,878.8622)"
           fill="#1890d0"
           id="path19" />
      </g>
    </clipPath>
    <linearGradient
       id="linearGradient5277">
      <stop
         id="stop5279"
         offset="0"
         style="stop-color:#333333;stop-opacity:1" />
      <stop
         id="stop5281"
         offset="1"
         style="stop-color:#666666;stop-opacity:1" />
    </linearGradient>
    <linearGradient
       gradientUnits="userSpaceOnUse"
       y2="-527.79797"
       x2="431.57144"
       y1="-527.79797"
       x1="379.57144"
       id="linearGradient4172"
       xlink:href="#linearGradient5277"
       inkscape:collect="always"
       gradientTransform="matrix(0.83333307,0,0,0.83333307,-317.03371,412.80361)" />
  </defs>
  <g
     id="g3208"
     transform="translate(0.55761199,0.30529681)">
    <rect
       transform="scale(1,-1)"
       ry="0"
       y="-43.694542"
       x="3.4424012"
       height="39.999989"
       width="39.999989"
       id="rect2991-1-7"
       style="fill:url(#linearGradient4172);fill-opacity:1;stroke:none" />
    <path
       sodipodi:nodetypes="cccc"
       inkscape:connector-curvature="0"
       id="path3800"
       d="m 3.4423873,43.694552 40.0000007,3.01e-4 c -20,-0.999999 -20,-0.999999 -40.0000017,0 z"
       style="opacity:0.35;fill:#000000;fill-opacity:1;stroke:none" />
    <path
       style="opacity:0.5;fill:#ffffff;fill-opacity:1;stroke:none"
       d="M 3.4423913,3.6947551 43.442388,3.6945549 c -19.999996,1.0000006 -19.999996,1.0000006 -39.9999977,0 z"
       id="path3804"
       inkscape:connector-curvature="0"
       sodipodi:nodetypes="cccc" />
  </g>
  <g
     id="g33"
     transform="matrix(1.0955383,0,0,1.0955383,-2.2924191,-2.293451)" />
  <path
     style="fill:#ececec;fill-opacity:1;fill-rule:nonzero;stroke:none"
     inkscape:connector-curvature="0"
     id="path73"
     d="m 26.246354,9.7574703 c -0.08107,0 -0.170904,0.017528 -0.282649,0.055872 L 13.43732,13.472441 c -0.107363,0.02191 -0.0986,0.04711 -0.01315,0.119413 l 11.114237,8.830039 c 0.209247,0.166522 0.299081,0.188433 0.586112,0.0986 L 37.590653,18.22379 c 0.295795,-0.107362 0.307846,-0.128178 0.02191,-0.320992 L 26.670327,9.9382341 C 26.499423,9.8232026 26.387678,9.762948 26.246354,9.7585658 m -1.438442,1.0703412 c 0.251974,0 0.522572,0.0252 0.792074,0.08545 1.082392,0.23554 1.86132,0.898341 1.715613,1.481167 -0.136942,0.572967 -1.142647,0.846852 -2.229421,0.620075 -1.082391,-0.248687 -1.870084,-0.898341 -1.715613,-1.481168 0.102981,-0.432737 0.697859,-0.697857 1.438442,-0.70224 m -7.053075,2.130822 c 0.248687,0 0.522571,0.0252 0.792074,0.08545 1.091156,0.235541 1.861319,0.89396 1.719995,1.472404 -0.141324,0.572967 -1.142646,0.851233 -2.229421,0.616788 -1.091156,-0.239923 -1.861319,-0.89396 -1.719995,-1.481168 0.102981,-0.428355 0.689094,-0.689094 1.438443,-0.693476 m 10.699026,0.543387 c 0.248688,0 0.522572,0.02958 0.792075,0.08984 1.091156,0.23554 1.861319,0.893959 1.719995,1.468021 -0.141325,0.577348 -1.142647,0.851233 -2.233803,0.616788 -1.086774,-0.239923 -1.856937,-0.890673 -1.715613,-1.472403 0.10298,-0.432738 0.689094,-0.697859 1.438442,-0.702241 m -15.808618,0.680329 c -0.02191,0.0044 -0.02958,0.04273 -0.04273,0.115032 L 9.7771264,28.346564 c -0.02958,0.145707 -0.025197,0.179668 0.1117449,0.295795 l 10.7242237,9.192663 c 0.248688,0.239922 0.303465,0.23554 0.338522,-0.05588 l 3.124475,-14.241998 c 0.07231,-0.197197 0,-0.299082 -0.111745,-0.393298 L 12.764659,14.251368 c -0.06025,-0.04711 -0.08983,-0.07231 -0.115031,-0.06902 m 8.712816,1.609346 c 0.248687,0 0.522571,0.0252 0.792074,0.08545 1.091156,0.235541 1.861319,0.898342 1.719995,1.472403 -0.141324,0.572967 -1.142646,0.851234 -2.233802,0.612407 -1.091157,-0.235541 -1.856938,-0.890673 -1.719995,-1.472404 0.107362,-0.428355 0.693475,-0.689093 1.441728,-0.693476 m 10.809676,0.466699 c 0.248687,0 0.522572,0.0252 0.792074,0.08545 1.091156,0.235541 1.86132,0.89396 1.719996,1.472404 -0.141325,0.572966 -1.142647,0.851234 -2.229421,0.620075 -1.091156,-0.235541 -1.86132,-0.902724 -1.719995,-1.484454 0.102981,-0.428356 0.689093,-0.689094 1.441729,-0.693477 m -18.833399,0.518188 c 0.04272,-0.0044 0.08983,-0.0044 0.13256,0 0.513807,0.0252 1.07034,0.50066 1.391333,1.270824 0.436025,1.030901 0.299082,2.173547 -0.31661,2.567941 -0.608024,0.388917 -1.441729,-0.111744 -1.887613,-1.147028 -0.432737,-1.023233 -0.287031,-2.165879 0.320993,-2.567942 0.115031,-0.06902 0.231159,-0.111745 0.354954,-0.128178 m 11.725547,1.852555 c 0.248687,0 0.522571,0.02191 0.792074,0.08545 1.091156,0.239923 1.861319,0.890673 1.719995,1.472404 -0.136942,0.56968 -1.138264,0.843564 -2.229421,0.612406 -1.091156,-0.235541 -1.861319,-0.89396 -1.719995,-1.468021 0.111746,-0.432738 0.689094,-0.693476 1.441729,-0.697859 m 13.103733,0.38563 c -0.0252,0.0044 -0.06025,0.01753 -0.0986,0.0252 l -12.807938,4.425974 c -0.260738,0.107363 -0.248687,0.150089 -0.295796,0.342904 l -3.124474,14.199272 c -0.0088,0.209248 -0.08983,0.303464 0.162139,0.197196 l 12.616219,-4.689998 c 0.244305,-0.115032 0.291413,-0.136943 0.31661,-0.372484 l 3.273469,-14.002075 c 0.0252,-0.0986 0.01752,-0.13256 -0.05149,-0.119414 m -2.076045,2.306108 c 0.363719,0.0044 0.646367,0.179669 0.770163,0.513808 0.248687,0.671565 -0.231158,1.746288 -1.082392,2.397038 -0.851233,0.655132 -1.741906,0.637603 -1.989497,-0.03396 -0.248687,-0.671565 0.231159,-1.741906 1.082392,-2.397038 0.428355,-0.325375 0.859997,-0.483132 1.219334,-0.479846 m -15.521586,1.223715 c 0.522571,0.01315 1.086774,0.500661 1.416531,1.28397 0.436024,1.023234 0.295795,2.173549 -0.312228,2.56356 -0.612407,0.393298 -1.454875,-0.123796 -1.887613,-1.147028 -0.436024,-1.027616 -0.287031,-2.165879 0.316611,-2.559178 0.111745,-0.07231 0.235541,-0.115031 0.359336,-0.13256 0.03396,-0.0044 0.06464,-0.0088 0.0986,-0.0044 m -4.566203,1.638926 c 0.522572,0.01315 1.086774,0.500661 1.420913,1.279589 0.432738,1.027614 0.291414,2.173547 -0.31661,2.567941 -0.608024,0.393299 -1.450493,-0.123796 -1.887613,-1.147028 -0.432738,-1.027615 -0.287031,-2.169166 0.320993,-2.559178 0.111745,-0.07231 0.231158,-0.115031 0.354954,-0.132559 0.03396,-0.0044 0.06464,-0.0088 0.102981,-0.0044 m -4.497185,1.621397 c 0.04273,-0.0044 0.08983,-0.0044 0.13256,0 0.513808,0.02958 1.065959,0.513807 1.391334,1.28397 0.432738,1.023233 0.295795,2.165879 -0.316611,2.554796 -0.608023,0.393298 -1.450492,-0.119414 -1.88323,-1.142647 -0.436024,-1.027615 -0.291413,-2.173548 0.316611,-2.567941 0.111745,-0.07231 0.231158,-0.115032 0.354954,-0.132561 m 19.796377,1.365041 c 0.354954,0.0088 0.633221,0.184051 0.757017,0.513808 0.248687,0.671565 -0.235541,1.746288 -1.086774,2.397038 -0.846851,0.650749 -1.741906,0.637603 -1.989498,-0.03396 -0.248686,-0.671566 0.235541,-1.741907 1.086775,-2.397038 0.372482,-0.287032 0.749347,-0.440407 1.082391,-0.475464 0.05588,-0.0044 0.107363,-0.0088 0.154471,-0.0044 m -12.795887,4.544319 c 0.04273,-0.0044 0.08983,-0.0044 0.13256,0 0.509425,0.02191 1.070341,0.505043 1.391334,1.270824 0.436024,1.027614 0.287031,2.169166 -0.316611,2.567941 -0.612406,0.388917 -1.446111,-0.119413 -1.878848,-1.147028 -0.436025,-1.027615 -0.295795,-2.173548 0.312228,-2.56356 0.115032,-0.07231 0.235541,-0.115031 0.359337,-0.13256 m 7.574551,1.476786 c 0.363719,0.0044 0.646368,0.170903 0.770164,0.509425 0.248688,0.667183 -0.231158,1.741906 -1.082391,2.392656 -0.851234,0.655132 -1.741907,0.641985 -1.989498,-0.0252 -0.251974,-0.671564 0.231158,-1.741905 1.082391,-2.397037 0.423974,-0.325375 0.859998,-0.483132 1.219334,-0.479846 m 0,0" />
</svg>
