<?xml version="1.0" encoding="UTF-8" standalone="no"?>
<svg
   xmlns:dc="http://purl.org/dc/elements/1.1/"
   xmlns:cc="http://creativecommons.org/ns#"
   xmlns:rdf="http://www.w3.org/1999/02/22-rdf-syntax-ns#"
   xmlns:svg="http://www.w3.org/2000/svg"
   xmlns="http://www.w3.org/2000/svg"
   xmlns:xlink="http://www.w3.org/1999/xlink"
   xmlns:sodipodi="http://sodipodi.sourceforge.net/DTD/sodipodi-0.dtd"
   xmlns:inkscape="http://www.inkscape.org/namespaces/inkscape"
   width="48"
   viewBox="0 0 13.546667 13.546667"
   height="48"
   enable-background="new"
   id="svg2"
   version="1.1"
   inkscape:version="0.48.5 r10040"
   sodipodi:docname="google-plus-pictures.svg">
  <metadata
     id="metadata84">
    <rdf:RDF>
      <cc:Work
         rdf:about="">
        <dc:format>image/svg+xml</dc:format>
        <dc:type
           rdf:resource="http://purl.org/dc/dcmitype/StillImage" />
      </cc:Work>
    </rdf:RDF>
  </metadata>
  <sodipodi:namedview
     pagecolor="#ffffff"
     bordercolor="#666666"
     borderopacity="1"
     objecttolerance="10"
     gridtolerance="10"
     guidetolerance="10"
     inkscape:pageopacity="0"
     inkscape:pageshadow="2"
     inkscape:window-width="1301"
     inkscape:window-height="744"
     id="namedview82"
     showgrid="true"
     inkscape:zoom="6.5149434"
     inkscape:cx="8.5164132"
     inkscape:cy="45.480811"
     inkscape:window-x="65"
     inkscape:window-y="24"
     inkscape:window-maximized="1"
     inkscape:current-layer="svg2">
    <inkscape:grid
       type="xygrid"
       id="grid3018" />
  </sodipodi:namedview>
  <defs
     id="defs4">
    <linearGradient
       inkscape:collect="always"
       id="linearGradient4102">
      <stop
         style="stop-color:#afcdf5;stop-opacity:1"
         offset="0"
         id="stop4104" />
      <stop
         style="stop-color:#f6f9fe;stop-opacity:1"
         offset="1"
         id="stop4106" />
    </linearGradient>
    <linearGradient
       id="linearGradient5555"
       inkscape:collect="always">
      <stop
         id="stop5557"
         offset="0"
         style="stop-color:#2d7ce6;stop-opacity:1" />
      <stop
         id="stop5559"
         offset="1"
         style="stop-color:#4990f1;stop-opacity:1" />
    </linearGradient>
    <linearGradient
       gradientTransform="translate(-3.1091309e-7,-8.691406e-6)"
       inkscape:collect="always"
       xlink:href="#linearGradient5555"
       id="linearGradient5561-0"
       x1="27.223612"
       y1="-1052.3843"
       x2="27.223612"
       y2="-1004.3317"
       gradientUnits="userSpaceOnUse" />
    <linearGradient
       gradientTransform="translate(-85.500385,1008.3008)"
       gradientUnits="userSpaceOnUse"
       y2="4.6610126"
       x2="119.18933"
       y1="35.458042"
       x1="119.18933"
       id="linearGradient4066"
       xlink:href="#linearGradient4102"
       inkscape:collect="always" />
    <linearGradient
       inkscape:collect="always"
       xlink:href="#linearGradient5555"
       id="linearGradient3000"
       gradientUnits="userSpaceOnUse"
       gradientTransform="translate(-3.1091309e-7,-8.691406e-6)"
       x1="27.223612"
       y1="-1052.3843"
       x2="27.223612"
       y2="-1004.3317" />
    <linearGradient
       inkscape:collect="always"
       xlink:href="#linearGradient4102"
       id="linearGradient3002"
       gradientUnits="userSpaceOnUse"
       gradientTransform="translate(-85.500385,1008.3008)"
       x1="119.18933"
       y1="35.458042"
       x2="119.18933"
       y2="4.6610126" />
    <linearGradient
       inkscape:collect="always"
       xlink:href="#linearGradient4102"
       id="linearGradient3010"
       gradientUnits="userSpaceOnUse"
       gradientTransform="matrix(0.23518539,0,0,0.23518539,-18.979556,2.0551845)"
       x1="93.900391"
       y1="18.861404"
       x2="125.10036"
       y2="18.861404" />
    <linearGradient
       inkscape:collect="always"
       xlink:href="#linearGradient5555"
       id="linearGradient3015"
       gradientUnits="userSpaceOnUse"
       gradientTransform="matrix(0.23518539,0,0,0.23518539,1.1288845,235.08243)"
       x1="3.8177933e-07"
       y1="-1032.3622"
       x2="48"
       y2="-1032.3622" />
  </defs>
  <path
     style="fill:#000000;fill-opacity:0.11764706;stroke:none"
     d="m 3.1514789,3.4337001 0,7.2437099 7.2437081,0 0,-7.2437099 -7.2437081,0 z m 0.8048547,0.8048514 5.6340005,0 0,4.8291556 -0.8748147,0 L 7.5538189,7.055555 7.1435333,7.7660736 5.9283915,5.6612585 3.9618357,9.0677071 l -0.00549,0 -9.2e-6,-4.8291556 z m 4.426709,0.4024257 c -0.4445098,0 -0.8048539,0.360351 -0.8048539,0.804875 0,0.4445239 0.3603441,0.8048514 0.8048539,0.8048514 0.4445097,0 0.8048631,-0.3603275 0.8048631,-0.8048514 0,-0.444524 -0.3603534,-0.804875 -0.8048631,-0.804875 z"
     id="path4078"
     inkscape:connector-curvature="0" />
  <rect
     style="fill:url(#linearGradient3015);fill-opacity:1;stroke:none"
     id="rect2991-1-7-2"
     width="11.288898"
     height="11.288898"
     x="1.128886"
     y="-12.417778"
     ry="0"
     transform="scale(1,-1)" />
  <path
     inkscape:connector-curvature="0"
     id="rect4144"
     d="m 3.1514789,3.1514776 0,7.2437104 7.2437081,0 0,-7.2437104 -7.2437081,0 z m 0.8048547,0.8048514 5.6340005,0 0,4.8291556 -0.8748147,0 L 7.5538189,6.7733325 7.1435333,7.4838511 5.9283915,5.379036 3.9618357,8.7854846 l -0.00549,0 -9.2e-6,-4.8291556 z m 4.426709,0.4024258 c -0.4445098,0 -0.8048539,0.360351 -0.8048539,0.8048749 0,0.4445239 0.3603441,0.8048514 0.8048539,0.8048514 0.4445097,0 0.8048631,-0.3603275 0.8048631,-0.8048514 0,-0.4445239 -0.3603534,-0.8048749 -0.8048631,-0.8048749 z"
     style="fill:url(#linearGradient3010);fill-opacity:1;stroke:none" />
  <path
     style="opacity:0.5;fill:#000000;fill-opacity:1;stroke:none"
     d="m 1.1288889,12.417778 0,0 c 5.6444446,-0.282222 5.6444446,-0.282222 11.2888891,0 z"
     id="path3257"
     inkscape:connector-curvature="0"
     sodipodi:nodetypes="cccc" />
  <path
     sodipodi:nodetypes="cccc"
     inkscape:connector-curvature="0"
     id="path4027"
     d="m 1.1288889,1.1288891 0,0 c 5.6444446,0.2822222 5.6444446,0.2822222 11.2888891,0 z"
     style="opacity:0.75;fill:#ffffff;fill-opacity:1;stroke:none" />
</svg>
