<?xml version="1.0" encoding="UTF-8" standalone="no"?>
<svg
   xmlns:dc="http://purl.org/dc/elements/1.1/"
   xmlns:cc="http://creativecommons.org/ns#"
   xmlns:rdf="http://www.w3.org/1999/02/22-rdf-syntax-ns#"
   xmlns:svg="http://www.w3.org/2000/svg"
   xmlns="http://www.w3.org/2000/svg"
   xmlns:xlink="http://www.w3.org/1999/xlink"
   xmlns:sodipodi="http://sodipodi.sourceforge.net/DTD/sodipodi-0.dtd"
   xmlns:inkscape="http://www.inkscape.org/namespaces/inkscape"
   width="48"
   viewBox="0 0 13.546667 13.546667"
   height="48"
   id="svg2"
   version="1.1"
   inkscape:version="0.48.5 r10040"
   sodipodi:docname="web-google-movies.svg">
  <metadata
     id="metadata20">
    <rdf:RDF>
      <cc:Work
         rdf:about="">
        <dc:format>image/svg+xml</dc:format>
        <dc:type
           rdf:resource="http://purl.org/dc/dcmitype/StillImage" />
        <dc:title />
      </cc:Work>
    </rdf:RDF>
  </metadata>
  <sodipodi:namedview
     pagecolor="#ffffff"
     bordercolor="#666666"
     borderopacity="1"
     objecttolerance="10"
     gridtolerance="10"
     guidetolerance="10"
     inkscape:pageopacity="0"
     inkscape:pageshadow="2"
     inkscape:window-width="1301"
     inkscape:window-height="744"
     id="namedview18"
     showgrid="true"
     inkscape:showpageshadow="false"
     borderlayer="true"
     inkscape:zoom="9.3574826"
     inkscape:cx="18.702334"
     inkscape:cy="20.7625"
     inkscape:window-x="65"
     inkscape:window-y="24"
     inkscape:window-maximized="1"
     inkscape:current-layer="svg2">
    <sodipodi:guide
       position="8.5999999,8.6000013"
       orientation="-30.800001,0"
       id="guide4205" />
    <sodipodi:guide
       position="8.5999999,39.400002"
       orientation="0,30.800002"
       id="guide4207" />
    <sodipodi:guide
       position="39.400002,39.400002"
       orientation="30.800001,0"
       id="guide4209" />
    <sodipodi:guide
       position="39.400002,8.6000013"
       orientation="0,-30.800002"
       id="guide4211" />
    <inkscape:grid
       type="xygrid"
       id="grid4217" />
  </sodipodi:namedview>
  <defs
     id="defs4">
    <linearGradient
       inkscape:collect="always"
       xlink:href="#linearGradient5277-2"
       id="linearGradient4172-2"
       x1="419.08624"
       y1="-547.79797"
       x2="419.08624"
       y2="-499.7912"
       gradientUnits="userSpaceOnUse"
       gradientTransform="matrix(0.28222223,0,0,0.28222223,-108.53461,141.05408)" />
    <linearGradient
       inkscape:collect="always"
       id="linearGradient5277-2">
      <stop
         style="stop-color:#c73331;stop-opacity:1"
         offset="0"
         id="stop5279-4" />
      <stop
         style="stop-color:#d55f5e;stop-opacity:1"
         offset="1"
         id="stop5281-8" />
    </linearGradient>
    <linearGradient
       inkscape:collect="always"
       xlink:href="#linearGradient5277-2"
       id="linearGradient4172"
       x1="2.4271111"
       y1="6.4911113"
       x2="11.119556"
       y2="6.4911113"
       gradientUnits="userSpaceOnUse"
       gradientTransform="matrix(1.2986684,0,0,1.2986684,-2.0229806,-2.0398386)" />
  </defs>
  <path
     inkscape:connector-curvature="0"
     id="path4180"
     d="m 12.417778,1.2586359 0,11.2888881 -11.2888892,0 0,-11.2888881 11.2888892,0 z m -0.513261,0.5132615 -1.466053,0 0,1.0995393 1.466053,0 0,-1.0995393 z m -8.7963143,0 -1.4660523,0 0,1.0995393 1.4660523,0 0,-1.0995393 z m 8.7963143,1.5268994 -1.466053,0 0,1.0995392 1.466053,0 0,-1.0995392 z m -8.7963143,0 -1.4660523,0 0,1.0995392 1.4660523,0 0,-1.0995392 z m 8.7963143,1.5276147 -1.466053,0 0,1.0995393 1.466053,0 0,-1.0995393 z m -8.7963143,0 -1.4660523,0 0,1.0995393 1.4660523,0 0,-1.0995393 z m 8.7963143,1.5268995 -1.466053,0 0,1.0995393 1.466053,0 0,-1.0995393 z m -8.7963143,0 -1.4660523,0 0,1.0995393 1.4660523,0 0,-1.0995393 z m 8.7963143,1.5268994 -1.466053,0 0,1.0995392 1.466053,0 0,-1.0995392 z m -8.7963143,0 -1.4660523,0 0,1.0995392 1.4660523,0 0,-1.0995392 z m 0,1.4660523 -1.4660523,0 0,1.0995393 1.4660523,0 0,-1.0995393 z m 8.7963143,0.061562 -1.466053,0 0,1.0995392 1.466053,0 0,-1.0995392 z m 0,1.4044902 -1.466053,0 0,1.099538 1.466053,0 0,-1.099538 z m -8.7963143,0 -1.4660523,0 0,1.099538 1.4660523,0 0,-1.099538 z"
     style="fill:#000000;fill-opacity:0.23529412;stroke:none" />
  <path
     style="fill:url(#linearGradient4172);fill-opacity:1;stroke:none"
     d="m 12.417778,1.1120307 0,11.2888893 -11.2888892,0 0,-11.2888893 11.2888892,0 z m -0.513261,0.5132616 -1.466053,0 0,1.0995393 1.466053,0 0,-1.0995393 z m -8.7963143,0 -1.4660523,0 0,1.0995393 1.4660523,0 0,-1.0995393 z m 8.7963143,1.5268993 -1.466053,0 0,1.0995393 1.466053,0 0,-1.0995393 z m -8.7963143,0 -1.4660523,0 0,1.0995393 1.4660523,0 0,-1.0995393 z m 8.7963143,1.5276148 -1.466053,0 0,1.0995393 1.466053,0 0,-1.0995393 z m -8.7963143,0 -1.4660523,0 0,1.0995393 1.4660523,0 0,-1.0995393 z m 8.7963143,1.5268995 -1.466053,0 0,1.0995393 1.466053,0 0,-1.0995393 z m -8.7963143,0 -1.4660523,0 0,1.0995393 1.4660523,0 0,-1.0995393 z m 8.7963143,1.5268994 -1.466053,0 0,1.0995392 1.466053,0 0,-1.0995392 z m -8.7963143,0 -1.4660523,0 0,1.0995392 1.4660523,0 0,-1.0995392 z m 0,1.4660523 -1.4660523,0 0,1.0995394 1.4660523,0 0,-1.0995394 z m 8.7963143,0.061562 -1.466053,0 0,1.0995393 1.466053,0 0,-1.0995393 z m 0,1.4044903 -1.466053,0 0,1.099539 1.466053,0 0,-1.099539 z m -8.7963143,0 -1.4660523,0 0,1.099539 1.4660523,0 0,-1.099539 z"
     id="rect4213"
     inkscape:connector-curvature="0" />
  <path
     style="fill:#9c2a29;fill-opacity:1;stroke:none"
     d="m 1.6421503,1.3317955 0,0.2934968 1.4660523,0 0,-0.2934968 -1.4660523,0 z m 8.7963137,0 0,0.2934968 1.466053,0 0,-0.2934968 -1.466053,0 z m -8.7963137,1.5268991 0,0.2934971 1.4660523,0 0,-0.2934971 -1.4660523,0 z m 8.7963137,0 0,0.2934971 1.466053,0 0,-0.2934971 -1.466053,0 z m -8.7963137,1.5276152 0,0.2934967 1.4660523,0 0,-0.2934967 -1.4660523,0 z m 8.7963137,0 0,0.2934967 1.466053,0 0,-0.2934967 -1.466053,0 z m -8.7963137,1.5268994 0,0.2934967 1.4660523,0 0,-0.2934967 -1.4660523,0 z m 8.7963137,0 0,0.2934967 1.466053,0 0,-0.2934967 -1.466053,0 z m -8.7963137,1.526899 0,0.2934971 1.4660523,0 0,-0.2934971 -1.4660523,0 z m 8.7963137,0 0,0.2934971 1.466053,0 0,-0.2934971 -1.466053,0 z m -8.7963137,1.4660523 0,0.2934971 1.4660523,0 0,-0.2934971 -1.4660523,0 z m 8.7963137,0.061563 0,0.2934967 1.466053,0 0,-0.2934967 -1.466053,0 z m -8.7963137,1.4044896 0,0.293497 1.4660523,0 0,-0.293497 -1.4660523,0 z m 8.7963137,0 0,0.293497 1.466053,0 0,-0.293497 -1.466053,0 z m -9.3095752,1.73521 0,0.293497 11.2888892,0 0,-0.293497 -11.2888892,0 z"
     id="path4188"
     inkscape:connector-curvature="0" />
</svg>
