<?xml version="1.0" encoding="UTF-8" standalone="no"?>
<svg
   xmlns:dc="http://purl.org/dc/elements/1.1/"
   xmlns:cc="http://creativecommons.org/ns#"
   xmlns:rdf="http://www.w3.org/1999/02/22-rdf-syntax-ns#"
   xmlns:svg="http://www.w3.org/2000/svg"
   xmlns="http://www.w3.org/2000/svg"
   xmlns:xlink="http://www.w3.org/1999/xlink"
   xmlns:sodipodi="http://sodipodi.sourceforge.net/DTD/sodipodi-0.dtd"
   xmlns:inkscape="http://www.inkscape.org/namespaces/inkscape"
   viewBox="0 0 48 48"
   id="svg2"
   version="1.1"
   inkscape:version="0.48.5 r10040"
   width="100%"
   height="100%"
   sodipodi:docname="gourmet.svg">
  <metadata
     id="metadata109">
    <rdf:RDF>
      <cc:Work
         rdf:about="">
        <dc:format>image/svg+xml</dc:format>
        <dc:type
           rdf:resource="http://purl.org/dc/dcmitype/StillImage" />
      </cc:Work>
    </rdf:RDF>
  </metadata>
  <sodipodi:namedview
     pagecolor="#ffffff"
     bordercolor="#666666"
     borderopacity="1"
     objecttolerance="10"
     gridtolerance="10"
     guidetolerance="10"
     inkscape:pageopacity="0"
     inkscape:pageshadow="2"
     inkscape:window-width="1301"
     inkscape:window-height="744"
     id="namedview107"
     showgrid="true"
     inkscape:zoom="6.3958333"
     inkscape:cx="54.019853"
     inkscape:cy="31.046671"
     inkscape:window-x="65"
     inkscape:window-y="24"
     inkscape:window-maximized="1"
     inkscape:current-layer="svg2">
    <inkscape:grid
       type="xygrid"
       id="grid3086" />
  </sodipodi:namedview>
  <defs
     id="defs4">
    <linearGradient
       id="linearGradient3764"
       y1="47"
       x2="0"
       y2="1"
       gradientUnits="userSpaceOnUse">
      <stop
         stop-color="#4771b1"
         stop-opacity="1"
         id="stop7" />
      <stop
         offset="1"
         stop-color="#527ab9"
         stop-opacity="1"
         id="stop9"
         style="stop-color:#84aae6;stop-opacity:1;" />
    </linearGradient>
    <clipPath
       id="clipPath-161223210">
      <g
         transform="translate(0,-1004.3622)"
         id="g12">
        <path
           d="m -24 13 c 0 1.105 -0.672 2 -1.5 2 -0.828 0 -1.5 -0.895 -1.5 -2 0 -1.105 0.672 -2 1.5 -2 0.828 0 1.5 0.895 1.5 2 z"
           transform="matrix(15.333333,0,0,11.5,414.99999,878.8622)"
           fill="#1890d0"
           id="path14" />
      </g>
    </clipPath>
    <clipPath
       id="clipPath-170460555">
      <g
         transform="translate(0,-1004.3622)"
         id="g17">
        <path
           d="m -24 13 c 0 1.105 -0.672 2 -1.5 2 -0.828 0 -1.5 -0.895 -1.5 -2 0 -1.105 0.672 -2 1.5 -2 0.828 0 1.5 0.895 1.5 2 z"
           transform="matrix(15.333333,0,0,11.5,414.99999,878.8622)"
           fill="#1890d0"
           id="path19" />
      </g>
    </clipPath>
    <linearGradient
       inkscape:collect="always"
       xlink:href="#linearGradient3764"
       id="linearGradient3864"
       x1="4"
       y1="24"
       x2="44"
       y2="24"
       gradientUnits="userSpaceOnUse" />
  </defs>
  <rect
     style="fill:url(#linearGradient3864);fill-opacity:1.0;stroke:none"
     id="rect3088"
     width="40"
     height="40"
     x="4"
     y="4" />
  <g
     id="g33" />
  <g
     id="g35">
    <g
       clip-path="url(#clipPath-161223210)"
       id="g37">
      <g
         transform="translate(1,1)"
         id="g39">
        <g
           opacity="0.1"
           id="g41">
          <!-- color: #527ab9 -->
          <g
             id="g43">
            <path
               d="m 29.25 9.969 c -0.32 0.086 -0.699 0.156 -1.188 0.188 c 3.137 0.785 1.625 5.117 -1.625 5.313 c 3.066 1.145 2.094 7.164 -2.125 5.469 c 2.773 4.309 -2.395 7.859 -5.188 4.781 c 0.949 3.844 -5.219 4.809 -5.938 0.063 c 0.223 2.828 -1.25 4.066 -3 4.066 c 2.277 5.383 7.598 9.156 13.813 9.156 c 8.285 0 15 -6.719 15 -15 c 0 -6.441 -4.055 -11.902 -9.75 -14.03 m 0 0"
               stroke="none"
               fill-rule="nonzero"
               fill-opacity="1"
               fill="#000"
               id="path45" />
            <path
               d="m 11.531 16.945 l 0 2 l 4 -1 m -4 -1"
               stroke="none"
               fill-rule="nonzero"
               fill-opacity="0.886"
               fill="#000"
               id="path47" />
            <path
               d="m 24.836 11.371 l 0 2 l 3 -1 m -3 -1"
               stroke="none"
               fill-rule="nonzero"
               fill-opacity="0.886"
               fill="#000"
               id="path49" />
            <path
               d="m 21.758 16.938 l 1 3 l 1.996 -2 m -2.996 -1"
               stroke="none"
               fill-rule="nonzero"
               fill-opacity="0.886"
               fill="#000"
               id="path51" />
            <path
               d="m 31.621 14.5 l -1 4 l 3 -1 m -2 -3"
               stroke="none"
               fill-rule="nonzero"
               fill-opacity="1"
               fill="#000"
               id="path53" />
            <path
               d="m 16.625 21.301 l 0 4 l 2 -3 m -2 -1"
               stroke="none"
               fill-rule="nonzero"
               fill-opacity="0.886"
               fill="#000"
               id="path55" />
            <path
               d="m 25.508 27.801 l 0 1.996 l 3 -1 l -2 -3 m -1 2"
               stroke="none"
               fill-rule="nonzero"
               fill-opacity="1"
               fill="#000"
               id="path57" />
            <path
               d="m 18.05 11.938 l 0 1 l 1 0.996 m -1 -1.996"
               stroke="none"
               fill-rule="nonzero"
               fill-opacity="0.886"
               fill="#000"
               id="path59" />
            <path
               d="m 33.371 21.633 l -3 1 l 2 2 l 1 -2 l 0 -1 m 0.004 0"
               stroke="none"
               fill-rule="nonzero"
               fill-opacity="1"
               fill="#000"
               id="path61" />
            <path
               d="m 34.637 26.883 c -0.523 1.664 -0.957 3.043 -1 3.01 l 3 -1"
               stroke="none"
               fill-rule="nonzero"
               fill-opacity="1"
               fill="#000"
               id="path63" />
            <path
               d="m 27.984 32.17 l -2 1.988 l 3 2 l 2 -2 m -3 -1.988"
               stroke="none"
               fill-rule="nonzero"
               fill-opacity="1"
               fill="#000"
               id="path65" />
            <path
               d="m 20.703 34.3 l -2 0 l 3 2 l 1 -1 m -2 -1"
               stroke="none"
               fill-rule="nonzero"
               fill-opacity="1"
               fill="#000"
               id="path67" />
            <path
               d="m 13.188 31.23 l 4 -0.988 l 0 1.988 l -3 0 m -1 -1"
               stroke="none"
               fill-rule="nonzero"
               fill-opacity="1"
               fill="#000"
               id="path69" />
          </g>
        </g>
      </g>
    </g>
  </g>
  <g
     id="g71">
    <g
       clip-path="url(#clipPath-170460555)"
       id="g73">
      <!-- color: #527ab9 -->
      <g
         id="g75">
        <path
           d="m 29.25 9.969 c -0.32 0.086 -0.699 0.156 -1.188 0.188 c 3.137 0.785 1.625 5.117 -1.625 5.313 c 3.066 1.145 2.094 7.164 -2.125 5.469 c 2.773 4.309 -2.395 7.859 -5.188 4.781 c 0.949 3.844 -5.219 4.809 -5.938 0.063 c 0.223 2.828 -1.25 4.066 -3 4.066 c 2.277 5.383 7.598 9.156 13.813 9.156 c 8.285 0 15 -6.719 15 -15 c 0 -6.441 -4.055 -11.902 -9.75 -14.03 m 0 0"
           fill="#cfa159"
           stroke="none"
           fill-rule="nonzero"
           fill-opacity="1"
           id="path77" />
        <path
           d="m 11.531 16.945 l 0 2 l 4 -1 m -4 -1"
           fill="#cea159"
           stroke="none"
           fill-rule="nonzero"
           fill-opacity="0.886"
           id="path79" />
        <path
           d="m 24.836 11.371 l 0 2 l 3 -1 m -3 -1"
           fill="#cea159"
           stroke="none"
           fill-rule="nonzero"
           fill-opacity="0.886"
           id="path81" />
        <path
           d="m 21.758 16.938 l 1 3 l 1.996 -2 m -2.996 -1"
           fill="#cea159"
           stroke="none"
           fill-rule="nonzero"
           fill-opacity="0.886"
           id="path83" />
        <path
           d="m 31.621 14.5 l -1 4 l 3 -1 m -2 -3"
           fill="#855920"
           stroke="none"
           fill-rule="nonzero"
           fill-opacity="1"
           id="path85" />
        <path
           d="m 16.625 21.301 l 0 4 l 2 -3 m -2 -1"
           fill="#cea159"
           stroke="none"
           fill-rule="nonzero"
           fill-opacity="0.886"
           id="path87" />
        <path
           d="m 25.508 27.801 l 0 1.996 l 3 -1 l -2 -3 m -1 2"
           fill="#855920"
           stroke="none"
           fill-rule="nonzero"
           fill-opacity="1"
           id="path89" />
        <path
           d="m 18.05 11.938 l 0 1 l 1 0.996 m -1 -1.996"
           fill="#cea159"
           stroke="none"
           fill-rule="nonzero"
           fill-opacity="0.886"
           id="path91" />
        <path
           d="m 33.371 21.633 l -3 1 l 2 2 l 1 -2 l 0 -1 m 0.004 0"
           fill="#855920"
           stroke="none"
           fill-rule="nonzero"
           fill-opacity="1"
           id="path93" />
        <path
           d="m 34.637 26.883 c -0.523 1.664 -0.957 3.043 -1 3.01 l 3 -1"
           fill="#855920"
           stroke="none"
           fill-rule="nonzero"
           fill-opacity="1"
           id="path95" />
        <path
           d="m 27.984 32.17 l -2 1.988 l 3 2 l 2 -2 m -3 -1.988"
           fill="#855920"
           stroke="none"
           fill-rule="nonzero"
           fill-opacity="1"
           id="path97" />
        <path
           d="m 20.703 34.3 l -2 0 l 3 2 l 1 -1 m -2 -1"
           fill="#855920"
           stroke="none"
           fill-rule="nonzero"
           fill-opacity="1"
           id="path99" />
        <path
           d="m 13.188 31.23 l 4 -0.988 l 0 1.988 l -3 0 m -1 -1"
           fill="#855920"
           stroke="none"
           fill-rule="nonzero"
           fill-opacity="1"
           id="path101" />
      </g>
    </g>
  </g>
  <path
     style="opacity:0.35;fill:#000000;fill-opacity:1;stroke:none"
     d="M 4.000003,43.9997 44,44 C 24.000003,43 24.000003,43 4.000002,44 z"
     id="path3800"
     inkscape:connector-curvature="0"
     sodipodi:nodetypes="cccc" />
  <path
     sodipodi:nodetypes="cccc"
     inkscape:connector-curvature="0"
     id="path3804"
     d="m 4.000007,3.9999 39.999996,-2e-4 c -19.999996,1 -19.999996,1 -39.999998,0 z"
     style="opacity:0.75;fill:#ffffff;fill-opacity:1;stroke:none" />
</svg>
