<?xml version="1.0" encoding="UTF-8" standalone="no"?>
<svg
   xmlns:dc="http://purl.org/dc/elements/1.1/"
   xmlns:cc="http://creativecommons.org/ns#"
   xmlns:rdf="http://www.w3.org/1999/02/22-rdf-syntax-ns#"
   xmlns:svg="http://www.w3.org/2000/svg"
   xmlns="http://www.w3.org/2000/svg"
   xmlns:xlink="http://www.w3.org/1999/xlink"
   xmlns:sodipodi="http://sodipodi.sourceforge.net/DTD/sodipodi-0.dtd"
   xmlns:inkscape="http://www.inkscape.org/namespaces/inkscape"
   viewBox="0 0 48 48"
   id="svg2"
   version="1.1"
   inkscape:version="0.48.5 r10040"
   width="100%"
   height="100%"
   sodipodi:docname="gramps.svg">
  <metadata
     id="metadata109">
    <rdf:RDF>
      <cc:Work
         rdf:about="">
        <dc:format>image/svg+xml</dc:format>
        <dc:type
           rdf:resource="http://purl.org/dc/dcmitype/StillImage" />
      </cc:Work>
    </rdf:RDF>
  </metadata>
  <sodipodi:namedview
     pagecolor="#ffffff"
     bordercolor="#666666"
     borderopacity="1"
     objecttolerance="10"
     gridtolerance="10"
     guidetolerance="10"
     inkscape:pageopacity="0"
     inkscape:pageshadow="2"
     inkscape:window-width="1301"
     inkscape:window-height="744"
     id="namedview107"
     showgrid="true"
     inkscape:zoom="4.5225371"
     inkscape:cx="22.79297"
     inkscape:cy="29.709441"
     inkscape:window-x="65"
     inkscape:window-y="24"
     inkscape:window-maximized="1"
     inkscape:current-layer="svg2">
    <inkscape:grid
       type="xygrid"
       id="grid3086" />
  </sodipodi:namedview>
  <defs
     id="defs4">
    <linearGradient
       id="linearGradient3764"
       x1="1"
       x2="47"
       gradientUnits="userSpaceOnUse"
       gradientTransform="matrix(0,-1,1,0,-1.5e-6,47.999998)">
      <stop
         stop-color="#d1bdaf"
         stop-opacity="1"
         id="stop7" />
      <stop
         offset="1"
         stop-color="#d8c8bc"
         stop-opacity="1"
         id="stop9"
         style="stop-color:#edddd2;stop-opacity:1;" />
    </linearGradient>
    <clipPath
       id="clipPath-673761041">
      <g
         transform="translate(0,-1004.3622)"
         id="g17">
        <path
           d="m -24 13 c 0 1.105 -0.672 2 -1.5 2 -0.828 0 -1.5 -0.895 -1.5 -2 0 -1.105 0.672 -2 1.5 -2 0.828 0 1.5 0.895 1.5 2 z"
           transform="matrix(15.333333,0,0,11.5,414.99999,878.8622)"
           fill="#1890d0"
           id="path19" />
      </g>
    </clipPath>
    <linearGradient
       inkscape:collect="always"
       xlink:href="#linearGradient3764"
       id="linearGradient3864"
       x1="4"
       y1="24"
       x2="44"
       y2="24"
       gradientUnits="userSpaceOnUse" />
  </defs>
  <rect
     style="fill:url(#linearGradient3864);fill-opacity:1.0;stroke:none"
     id="rect3088"
     width="40"
     height="40"
     x="4"
     y="4" />
  <g
     id="g33" />
  <g
     id="g71">
    <g
       clip-path="url(#clipPath-673761041)"
       id="g73">
      <!-- color: #d8c8bc -->
      <g
         id="g75">
        <path
           d="m 26 23 c 0 1.996 0 4.922 0 7 l 1 0 l 0 -5.996 l 2 0 l 0 -1 m -3 -0.004"
           fill="#2d2d2d"
           stroke="none"
           fill-rule="nonzero"
           fill-opacity="1"
           id="path77" />
        <path
           d="m 17 15 c 0 1.996 0 3.918 0 5.996 l 1 0 l 0 -5 l 4 0 l 0 -0.996 m -5 0"
           fill="#2d2d2d"
           stroke="none"
           fill-rule="nonzero"
           fill-opacity="1"
           id="path79" />
        <path
           d="m 3.56 -7.28 l 1.346 0 c 0.064 0 0.116 0.043 0.116 0.09 l 0 0.833 c 0 0.05 -0.052 0.087 -0.116 0.087 l -1.346 0 c -0.064 0 -0.116 -0.04 -0.116 -0.087 l 0 -0.833 c 0 -0.05 0.052 -0.09 0.116 -0.09 m 0 0"
           transform="matrix(0,3.543307,-3.543307,0,0,0)"
           stroke-opacity="1"
           fill="#d6cfba"
           fill-rule="nonzero"
           stroke="#6f6751"
           stroke-linejoin="miter"
           fill-opacity="1"
           stroke-linecap="butt"
           stroke-width="0.115"
           stroke-miterlimit="4"
           id="path81" />
        <path
           d="m 22 23 c 0 1.996 0 4.922 0 7 l -1 0 l 0 -5.996 l -1.996 0 l 0 -1 m 2.996 -0.004"
           fill="#2d2d2d"
           stroke="none"
           fill-rule="nonzero"
           fill-opacity="1"
           id="path83" />
        <path
           d="m 6.1 -5.587 l 1.346 0 c 0.064 0 0.116 0.041 0.116 0.09 l 0 0.831 c 0 0.051 -0.052 0.089 -0.116 0.089 l -1.346 0 c -0.064 0 -0.116 -0.041 -0.116 -0.089 l 0 -0.831 c 0 -0.052 0.052 -0.09 0.116 -0.09 m 0 0"
           transform="matrix(0,3.543307,-3.543307,0,0,0)"
           stroke-opacity="1"
           fill="#d6cfba"
           fill-rule="nonzero"
           stroke="#6f6751"
           stroke-linejoin="miter"
           fill-opacity="1"
           stroke-linecap="butt"
           stroke-width="0.115"
           stroke-miterlimit="4"
           id="path85" />
        <path
           d="m 6.1 -8.973 l 1.346 0 c 0.064 0 0.116 0.04 0.116 0.088 l 0 0.832 c 0 0.05 -0.052 0.09 -0.116 0.09 l -1.346 0 c -0.064 0 -0.116 -0.042 -0.116 -0.09 l 0 -0.832 c 0 -0.051 0.052 -0.088 0.116 -0.088 m 0 0"
           transform="matrix(0,3.543307,-3.543307,0,0,0)"
           stroke-opacity="1"
           fill="#d6cfba"
           fill-rule="nonzero"
           stroke="#6f6751"
           stroke-linejoin="miter"
           fill-opacity="1"
           stroke-linecap="butt"
           stroke-width="0.115"
           stroke-miterlimit="4"
           id="path87" />
        <path
           d="m 8.64 -6.433 l 1.346 0 c 0.064 0 0.116 0.04 0.116 0.088 l 0 0.832 c 0 0.05 -0.052 0.09 -0.116 0.09 l -1.346 0 c -0.064 0 -0.116 -0.042 -0.116 -0.09 l 0 -0.832 c 0 -0.051 0.052 -0.088 0.116 -0.088 m 0 0"
           transform="matrix(0,3.543307,-3.543307,0,0,0)"
           stroke-opacity="1"
           fill="#d6cfba"
           fill-rule="nonzero"
           stroke="#6f6751"
           stroke-linejoin="miter"
           fill-opacity="1"
           stroke-linecap="butt"
           stroke-width="0.115"
           stroke-miterlimit="4"
           id="path89" />
        <path
           d="m 8.64 -8.127 l 1.346 0 c 0.064 0 0.116 0.041 0.116 0.09 l 0 0.831 c 0 0.051 -0.052 0.089 -0.116 0.089 l -1.346 0 c -0.064 0 -0.116 -0.041 -0.116 -0.089 l 0 -0.831 c 0 -0.052 0.052 -0.09 0.116 -0.09 m 0 0"
           transform="matrix(0,3.543307,-3.543307,0,0,0)"
           stroke-opacity="1"
           fill="#d6cfba"
           fill-rule="nonzero"
           stroke="#6f6751"
           stroke-linejoin="miter"
           fill-opacity="1"
           stroke-linecap="butt"
           stroke-width="0.115"
           stroke-miterlimit="4"
           id="path91" />
        <path
           d="m 8.64 -10.1 l 1.346 0 c 0.064 0 0.116 0.043 0.116 0.09 l 0 0.833 c 0 0.05 -0.052 0.087 -0.116 0.087 l -1.346 0 c -0.064 0 -0.116 -0.04 -0.116 -0.087 l 0 -0.833 c 0 -0.05 0.052 -0.09 0.116 -0.09 m 0 0"
           transform="matrix(0,3.543307,-3.543307,0,0,0)"
           stroke-opacity="1"
           fill="#d6cfba"
           fill-rule="nonzero"
           stroke="#6f6751"
           stroke-linejoin="miter"
           fill-opacity="1"
           stroke-linecap="butt"
           stroke-width="0.115"
           stroke-miterlimit="4"
           id="path93" />
        <path
           d="m 8.64 -4.458 l 1.346 0 c 0.064 0 0.116 0.041 0.116 0.09 l 0 0.832 c 0 0.051 -0.052 0.088 -0.116 0.088 l -1.346 0 c -0.064 0 -0.116 -0.04 -0.116 -0.088 l 0 -0.832 c 0 -0.051 0.052 -0.09 0.116 -0.09 m 0 0"
           transform="matrix(0,3.543307,-3.543307,0,0,0)"
           stroke-opacity="1"
           fill="#d6cfba"
           fill-rule="nonzero"
           stroke="#6f6751"
           stroke-linejoin="miter"
           fill-opacity="1"
           stroke-linecap="butt"
           stroke-width="0.115"
           stroke-miterlimit="4"
           id="path95" />
        <path
           d="m 31 15 c 0 1.996 0 3.918 0 5.996 l -1 0 l 0 -5 l -4 0 l 0 -0.996 m 5 0"
           fill="#2d2d2d"
           stroke="none"
           fill-rule="nonzero"
           fill-opacity="1"
           id="path97" />
        <path
           d="m 13 23 c 0 1.996 0 4.922 0 7 l 1 0 l 0 -5.996 l 1.996 0 l 0 -1 m -2.996 -0.004"
           fill="#2d2d2d"
           stroke="none"
           fill-rule="nonzero"
           fill-opacity="1"
           id="path99" />
        <path
           d="m 35 23 c 0 1.996 0 4.922 0 7 l -1 0 l 0 -5.996 l -1.996 0 l 0 -1 m 2.996 -0.004"
           fill="#2d2d2d"
           stroke="none"
           fill-rule="nonzero"
           fill-opacity="1"
           id="path101" />
      </g>
    </g>
  </g>
  <path
     style="opacity:0.35;fill:#000000;fill-opacity:1;stroke:none"
     d="M 4.000003,43.9997 44,44 C 24.000003,43 24.000003,43 4.000002,44 z"
     id="path3800"
     inkscape:connector-curvature="0"
     sodipodi:nodetypes="cccc" />
  <path
     sodipodi:nodetypes="cccc"
     inkscape:connector-curvature="0"
     id="path3804"
     d="m 4.000007,3.9999 39.999996,-2e-4 c -19.999996,1 -19.999996,1 -39.999998,0 z"
     style="opacity:0.75;fill:#ffffff;fill-opacity:1;stroke:none" />
</svg>
