<?xml version="1.0" encoding="UTF-8" standalone="no"?>
<svg
   xmlns:dc="http://purl.org/dc/elements/1.1/"
   xmlns:cc="http://creativecommons.org/ns#"
   xmlns:rdf="http://www.w3.org/1999/02/22-rdf-syntax-ns#"
   xmlns:svg="http://www.w3.org/2000/svg"
   xmlns="http://www.w3.org/2000/svg"
   xmlns:xlink="http://www.w3.org/1999/xlink"
   xmlns:sodipodi="http://sodipodi.sourceforge.net/DTD/sodipodi-0.dtd"
   xmlns:inkscape="http://www.inkscape.org/namespaces/inkscape"
   viewBox="0 0 48 48"
   id="svg2"
   version="1.1"
   inkscape:version="0.48.5 r10040"
   width="100%"
   height="100%"
   sodipodi:docname="GreedCorp.svg">
  <metadata
     id="metadata69">
    <rdf:RDF>
      <cc:Work
         rdf:about="">
        <dc:format>image/svg+xml</dc:format>
        <dc:type
           rdf:resource="http://purl.org/dc/dcmitype/StillImage" />
      </cc:Work>
    </rdf:RDF>
  </metadata>
  <sodipodi:namedview
     pagecolor="#ffffff"
     bordercolor="#666666"
     borderopacity="1"
     objecttolerance="10"
     gridtolerance="10"
     guidetolerance="10"
     inkscape:pageopacity="0"
     inkscape:pageshadow="2"
     inkscape:window-width="1301"
     inkscape:window-height="744"
     id="namedview67"
     showgrid="true"
     inkscape:zoom="4.5225371"
     inkscape:cx="12.896058"
     inkscape:cy="12.972309"
     inkscape:window-x="65"
     inkscape:window-y="24"
     inkscape:window-maximized="1"
     inkscape:current-layer="svg2">
    <inkscape:grid
       type="xygrid"
       id="grid3046" />
  </sodipodi:namedview>
  <defs
     id="defs4">
    <linearGradient
       id="linearGradient3764"
       y1="47"
       x2="0"
       y2="1"
       gradientUnits="userSpaceOnUse">
      <stop
         stop-color="#656c7b"
         stop-opacity="1"
         id="stop7"
         offset="0"
         style="stop-color:#caccd1;stop-opacity:1;" />
      <stop
         offset="1"
         stop-color="#6f7686"
         stop-opacity="1"
         id="stop9"
         style="stop-color:#f3f3f3;stop-opacity:1;" />
    </linearGradient>
    <clipPath
       id="clipPath-054820971">
      <g
         transform="translate(0,-1004.3622)"
         id="g12">
        <path
           d="m -24 13 c 0 1.105 -0.672 2 -1.5 2 -0.828 0 -1.5 -0.895 -1.5 -2 0 -1.105 0.672 -2 1.5 -2 0.828 0 1.5 0.895 1.5 2 z"
           transform="matrix(15.333333,0,0,11.5,414.99999,878.8622)"
           fill="#1890d0"
           id="path14" />
      </g>
    </clipPath>
    <clipPath
       id="clipPath-064351736">
      <g
         transform="translate(0,-1004.3622)"
         id="g17">
        <path
           d="m -24 13 c 0 1.105 -0.672 2 -1.5 2 -0.828 0 -1.5 -0.895 -1.5 -2 0 -1.105 0.672 -2 1.5 -2 0.828 0 1.5 0.895 1.5 2 z"
           transform="matrix(15.333333,0,0,11.5,414.99999,878.8622)"
           fill="#1890d0"
           id="path19" />
      </g>
    </clipPath>
    <linearGradient
       inkscape:collect="always"
       xlink:href="#linearGradient3764"
       id="linearGradient3824"
       x1="4"
       y1="24"
       x2="44"
       y2="24"
       gradientUnits="userSpaceOnUse" />
  </defs>
  <rect
     style="fill:url(#linearGradient3824);fill-opacity:1.0;stroke:none"
     id="rect3048"
     width="40"
     height="40"
     x="4"
     y="4" />
  <g
     id="g33" />
  <g
     id="g35">
    <g
       clip-path="url(#clipPath-054820971)"
       id="g37">
      <g
         transform="translate(1,1)"
         id="g39">
        <g
           opacity="0.1"
           id="g41">
          <!-- color: #6f7686 -->
          <g
             id="g43">
            <path
               d="m 17.98 15.438 l 5.988 -3.438 l 6 3.418 l 0.012 6.852 l -5.992 3.438 l -6 -3.414 m -0.012 -6.855"
               stroke="none"
               fill-rule="nonzero"
               fill-opacity="1"
               fill="#000"
               id="path45" />
            <path
               d="m 12 25.73 l 5.992 -3.438 l 6 3.414 l 0.016 6.855 l -5.992 3.438 l -6 -3.418 m -0.012 -6.852"
               stroke="none"
               fill-rule="nonzero"
               fill-opacity="1"
               fill="#000"
               id="path47" />
            <path
               d="m 23.992 25.707 l 5.992 -3.438 l 6 3.418 l 0.012 6.855 l -5.992 3.438 l -6 -3.418 m -0.016 -6.855"
               stroke="none"
               fill-rule="nonzero"
               fill-opacity="1"
               fill="#000"
               id="path49" />
          </g>
        </g>
      </g>
    </g>
  </g>
  <g
     id="g51">
    <g
       clip-path="url(#clipPath-064351736)"
       id="g53">
      <!-- color: #6f7686 -->
      <g
         id="g55">
        <path
           d="m 17.98 15.438 l 5.988 -3.438 l 6 3.418 l 0.012 6.852 l -5.992 3.438 l -6 -3.414 m -0.012 -6.855"
           fill="#c5a370"
           stroke="none"
           fill-rule="nonzero"
           fill-opacity="1"
           id="path57" />
        <path
           d="m 12 25.73 l 5.992 -3.438 l 6 3.414 l 0.016 6.855 l -5.992 3.438 l -6 -3.418 m -0.012 -6.852"
           fill="#362e29"
           stroke="none"
           fill-rule="nonzero"
           fill-opacity="1"
           id="path59" />
        <path
           d="m 23.992 25.707 l 5.992 -3.438 l 6 3.418 l 0.012 6.855 l -5.992 3.438 l -6 -3.418 m -0.016 -6.855"
           fill="#346200"
           stroke="none"
           fill-rule="nonzero"
           fill-opacity="1"
           id="path61" />
      </g>
    </g>
  </g>
  <path
     style="opacity:0.35;fill:#000000;fill-opacity:1;stroke:none"
     d="M 4.000001,43.9997 43.999998,44 C 24.000001,43 24.000001,43 4,44 z"
     id="path3800"
     inkscape:connector-curvature="0"
     sodipodi:nodetypes="cccc" />
  <path
     sodipodi:nodetypes="cccc"
     inkscape:connector-curvature="0"
     id="path3804"
     d="m 4.000005,3.9999 39.999996,-2e-4 c -19.999996,1 -19.999996,1 -39.999998,0 z"
     style="opacity:0.75;fill:#ffffff;fill-opacity:1;stroke:none" />
</svg>
