<?xml version="1.0" encoding="UTF-8" standalone="no"?>
<svg
   xmlns:dc="http://purl.org/dc/elements/1.1/"
   xmlns:cc="http://creativecommons.org/ns#"
   xmlns:rdf="http://www.w3.org/1999/02/22-rdf-syntax-ns#"
   xmlns:svg="http://www.w3.org/2000/svg"
   xmlns="http://www.w3.org/2000/svg"
   xmlns:xlink="http://www.w3.org/1999/xlink"
   xmlns:sodipodi="http://sodipodi.sourceforge.net/DTD/sodipodi-0.dtd"
   xmlns:inkscape="http://www.inkscape.org/namespaces/inkscape"
   viewBox="0 0 48 48"
   id="svg2"
   version="1.1"
   inkscape:version="0.91 r13725"
   sodipodi:docname="grip.svg">
  <metadata
     id="metadata108">
    <rdf:RDF>
      <cc:Work
         rdf:about="">
        <dc:format>image/svg+xml</dc:format>
        <dc:type
           rdf:resource="http://purl.org/dc/dcmitype/StillImage" />
      </cc:Work>
    </rdf:RDF>
  </metadata>
  <sodipodi:namedview
     pagecolor="#ffffff"
     bordercolor="#666666"
     borderopacity="1"
     objecttolerance="10"
     gridtolerance="10"
     guidetolerance="10"
     inkscape:pageopacity="0"
     inkscape:pageshadow="2"
     inkscape:window-width="1366"
     inkscape:window-height="705"
     id="namedview106"
     showgrid="false"
     inkscape:zoom="4.9166667"
     inkscape:cx="27.376286"
     inkscape:cy="19.691137"
     inkscape:window-x="0"
     inkscape:window-y="28"
     inkscape:window-maximized="1"
     inkscape:current-layer="svg2" />
  <defs
     id="defs4">
    <linearGradient
       id="linearGradient3764"
       x1="1"
       x2="47"
       gradientUnits="userSpaceOnUse"
       gradientTransform="matrix(0,-1,1,0,-1.5e-6,47.999998)">
      <stop
         stop-color="#45b3af"
         stop-opacity="1"
         id="stop7" />
      <stop
         offset="1"
         stop-color="#51bcb7"
         stop-opacity="1"
         id="stop9" />
    </linearGradient>
    <clipPath
       id="clipPath-720618044">
      <g
         transform="translate(0,-1004.3622)"
         id="g12">
        <path
           d="m -24 13 c 0 1.105 -0.672 2 -1.5 2 -0.828 0 -1.5 -0.895 -1.5 -2 0 -1.105 0.672 -2 1.5 -2 0.828 0 1.5 0.895 1.5 2 z"
           transform="matrix(15.333333,0,0,11.5,414.99999,878.8622)"
           fill="#1890d0"
           id="path14" />
      </g>
    </clipPath>
    <clipPath
       id="clipPath-730436204">
      <g
         transform="translate(0,-1004.3622)"
         id="g17">
        <path
           d="m -24 13 c 0 1.105 -0.672 2 -1.5 2 -0.828 0 -1.5 -0.895 -1.5 -2 0 -1.105 0.672 -2 1.5 -2 0.828 0 1.5 0.895 1.5 2 z"
           transform="matrix(15.333333,0,0,11.5,414.99999,878.8622)"
           fill="#1890d0"
           id="path19" />
      </g>
    </clipPath>
    <linearGradient
       id="linear0"
       gradientUnits="userSpaceOnUse"
       y1="279.1"
       x2="0"
       y2="268.33"
       gradientTransform="matrix(2.797157,0,0,2.797157,-332.973332,-741.653379)">
      <stop
         stop-color="#c8c8c8"
         stop-opacity="1"
         id="stop22" />
      <stop
         offset="1"
         stop-color="#eaeaea"
         stop-opacity="1"
         id="stop24" />
    </linearGradient>
    <linearGradient
       id="linearGradient26"
       gradientUnits="userSpaceOnUse"
       y1="279.1"
       x2="0"
       y2="268.33"
       gradientTransform="matrix(2.797157,0,0,2.797157,-332.973332,-741.653379)">
      <stop
         stop-color="#c8c8c8"
         stop-opacity="1"
         id="stop28" />
      <stop
         offset="1"
         stop-color="#eaeaea"
         stop-opacity="1"
         id="stop30" />
    </linearGradient>
    <linearGradient
       inkscape:collect="always"
       xlink:href="#linearGradient3400"
       id="linearGradient3217"
       gradientUnits="userSpaceOnUse"
       gradientTransform="matrix(0.83333307,0,0,0.83333307,-317.03371,412.80361)"
       x1="379.57144"
       y1="-527.79797"
       x2="431.57144"
       y2="-527.79797" />
    <linearGradient
       id="linearGradient3400">
      <stop
         style="stop-color:#0097a7;stop-opacity:1"
         offset="0"
         id="stop3402" />
      <stop
         style="stop-color:#26c6da;stop-opacity:1"
         offset="1"
         id="stop3404" />
    </linearGradient>
  </defs>
  <g
     id="g3209"
     transform="translate(0.55761199,0.30529681)">
    <rect
       transform="scale(1,-1)"
       ry="0"
       y="-43.694542"
       x="3.4424012"
       height="39.999989"
       width="39.999989"
       id="rect3211"
       style="fill:url(#linearGradient3217);fill-opacity:1;stroke:none" />
    <path
       sodipodi:nodetypes="cccc"
       inkscape:connector-curvature="0"
       id="path3213"
       d="m 3.4423873,43.694552 40.0000007,3.01e-4 c -20,-0.999999 -20,-0.999999 -40.0000017,0 z"
       style="opacity:0.35;fill:#000000;fill-opacity:1;stroke:none" />
    <path
       style="opacity:0.5;fill:#ffffff;fill-opacity:1;stroke:none"
       d="M 3.4423913,3.6947551 43.442388,3.6945549 c -19.999996,1.0000006 -19.999996,1.0000006 -39.9999977,0 z"
       id="path3215"
       inkscape:connector-curvature="0"
       sodipodi:nodetypes="cccc" />
  </g>
  <g
     id="g44" />
  <g
     id="g46">
    <g
       clip-path="url(#clipPath-720618044)"
       id="g48">
      <g
         transform="translate(1,1)"
         id="g50">
        <g
           opacity="0.1"
           id="g52">
          <!-- color: #51bcb7 -->
          <g
             id="g54">
            <path
               d="m 24 9 c 8.281 0 14.996 6.715 14.996 15 c 0 8.281 -6.715 14.996 -14.996 14.996 c -8.285 0 -15 -6.715 -15 -14.996 c 0 -8.285 6.715 -15 15 -15 m 0 0"
               fill="#000"
               stroke="none"
               fill-rule="evenodd"
               id="path56" />
            <path
               d="m 34.527 34.746 c 0.691 -0.691 1.313 -1.457 1.863 -2.27 c 0.547 -0.809 1.023 -1.688 1.41 -2.602 c 0.387 -0.914 0.68 -1.871 0.883 -2.867 c 0.199 -0.996 0.309 -2.027 0.309 -3.078 l -10.699 0 c 0 0.633 -0.129 1.242 -0.359 1.789 c -0.227 0.547 -0.563 1.039 -0.977 1.453 l 7.574 7.574 m -0.004 0"
               fill="#000"
               stroke="none"
               fill-rule="nonzero"
               fill-opacity="0.498"
               id="path58" />
            <path
               d="m 13.496 13.289 c -0.688 0.688 -1.309 1.449 -1.855 2.262 c -0.547 0.813 -1.02 1.684 -1.402 2.594 c -0.387 0.91 -0.68 1.863 -0.879 2.852 c -0.203 0.992 -0.309 2.02 -0.309 3.07 l 10.664 0 c 0 -0.633 0.125 -1.238 0.359 -1.781 c 0.23 -0.547 0.563 -1.039 0.973 -1.449 l -7.539 -7.543 m -0.012 -0.004"
               fill="#000"
               stroke="none"
               fill-rule="nonzero"
               fill-opacity="0.498"
               id="path60" />
            <path
               d="m 28.29 24 c 0 2.367 -1.918 4.285 -4.285 4.285 c -2.367 0 -4.285 -1.918 -4.285 -4.285 c 0 -2.367 1.918 -4.285 4.285 -4.285 c 2.367 0 4.285 1.918 4.285 4.285 m 0 0"
               fill="#000"
               stroke="none"
               fill-rule="nonzero"
               fill-opacity="0.498"
               id="path62" />
            <path
               d="m 20.12 25.762 l -9.777 4.445 c 0.75 1.652 1.793 3.133 3.059 4.398 l 7.563 -7.566 c -0.359 -0.363 -0.633 -0.801 -0.844 -1.273 m 0 -0.004"
               fill="#000"
               stroke="none"
               fill-rule="nonzero"
               fill-opacity="0.498"
               id="path64" />
            <path
               d="m 34.602 13.398 l -7.566 7.562 c 0.363 0.363 0.633 0.801 0.848 1.273 l 9.777 -4.445 c -0.754 -1.648 -1.793 -3.129 -3.059 -4.395 m 0 0.004"
               fill="#000"
               stroke="none"
               fill-rule="nonzero"
               fill-opacity="0.498"
               id="path66" />
            <path
               d="m 39 24 c 0 1.344 -0.18 2.68 -0.535 3.973 l -14.465 -3.973 m 15 0"
               fill="#000"
               stroke="none"
               fill-rule="nonzero"
               fill-opacity="0.498"
               id="path68" />
            <path
               d="m 9 24 c 0 -1.34 0.18 -2.676 0.535 -3.973 l 14.465 3.973 m -15 0"
               fill="#000"
               stroke="none"
               fill-rule="nonzero"
               fill-opacity="0.498"
               id="path70" />
            <path
               d="m 24 21.859 c 0.59 0 1.129 0.238 1.516 0.621 c 0.387 0.387 0.625 0.926 0.625 1.52 c 0 0.59 -0.238 1.129 -0.625 1.516 c -0.387 0.387 -0.926 0.625 -1.516 0.625 c -0.594 0 -1.133 -0.238 -1.52 -0.625 c -0.383 -0.387 -0.621 -0.926 -0.621 -1.516 c 0 -0.594 0.238 -1.133 0.621 -1.52 c 0.387 -0.383 0.926 -0.621 1.52 -0.621 m 0 0"
               fill="#000"
               stroke="none"
               fill-rule="nonzero"
               fill-opacity="0.498"
               id="path72" />
            <path
               d="m 20.996 14 l 6 0 l 0 13 l 5 0 l -8 7 l -8 -7 l 4.996 0 m 0.004 -13"
               fill="#000"
               stroke="none"
               fill-rule="nonzero"
               fill-opacity="1"
               id="path74" />
          </g>
        </g>
      </g>
    </g>
  </g>
  <g
     id="g76">
    <g
       clip-path="url(#clipPath-730436204)"
       id="g78">
      <!-- color: #51bcb7 -->
      <g
         id="g80">
        <path
           d="m 24 9 c 8.281 0 14.996 6.715 14.996 15 c 0 8.281 -6.715 14.996 -14.996 14.996 c -8.285 0 -15 -6.715 -15 -14.996 c 0 -8.285 6.715 -15 15 -15 m 0 0"
           fill="url(#linear0)"
           stroke="none"
           fill-rule="evenodd"
           id="path82" />
        <path
           d="m 34.527 34.746 c 0.691 -0.691 1.313 -1.457 1.863 -2.27 c 0.547 -0.809 1.023 -1.688 1.41 -2.602 c 0.387 -0.914 0.68 -1.871 0.883 -2.867 c 0.199 -0.996 0.309 -2.027 0.309 -3.078 l -10.699 0 c 0 0.633 -0.129 1.242 -0.359 1.789 c -0.227 0.547 -0.563 1.039 -0.977 1.453 l 7.574 7.574 m -0.004 0"
           fill="#fff"
           stroke="none"
           fill-rule="nonzero"
           fill-opacity="0.498"
           id="path84" />
        <path
           d="m 13.496 13.289 c -0.688 0.688 -1.309 1.449 -1.855 2.262 c -0.547 0.813 -1.02 1.684 -1.402 2.594 c -0.387 0.91 -0.68 1.863 -0.879 2.852 c -0.203 0.992 -0.309 2.02 -0.309 3.07 l 10.664 0 c 0 -0.633 0.125 -1.238 0.359 -1.781 c 0.23 -0.547 0.563 -1.039 0.973 -1.449 l -7.539 -7.543 m -0.012 -0.004"
           fill="#fff"
           stroke="none"
           fill-rule="nonzero"
           fill-opacity="0.498"
           id="path86" />
        <path
           d="m 28.29 24 c 0 2.367 -1.918 4.285 -4.285 4.285 c -2.367 0 -4.285 -1.918 -4.285 -4.285 c 0 -2.367 1.918 -4.285 4.285 -4.285 c 2.367 0 4.285 1.918 4.285 4.285 m 0 0"
           fill="#999"
           stroke="none"
           fill-rule="nonzero"
           fill-opacity="0.498"
           id="path88" />
        <path
           d="m 20.12 25.762 l -9.777 4.445 c 0.75 1.652 1.793 3.133 3.059 4.398 l 7.563 -7.566 c -0.359 -0.363 -0.633 -0.801 -0.844 -1.273 m 0 -0.004"
           fill="#fff"
           stroke="none"
           fill-rule="nonzero"
           fill-opacity="0.498"
           id="path90" />
        <path
           d="m 34.602 13.398 l -7.566 7.562 c 0.363 0.363 0.633 0.801 0.848 1.273 l 9.777 -4.445 c -0.754 -1.648 -1.793 -3.129 -3.059 -4.395 m 0 0.004"
           fill="#fff"
           stroke="none"
           fill-rule="nonzero"
           fill-opacity="0.498"
           id="path92" />
        <path
           d="m 39 24 c 0 1.344 -0.18 2.68 -0.535 3.973 l -14.465 -3.973 m 15 0"
           fill="#999"
           stroke="none"
           fill-rule="nonzero"
           fill-opacity="0.498"
           id="path94" />
        <path
           d="m 9 24 c 0 -1.34 0.18 -2.676 0.535 -3.973 l 14.465 3.973 m -15 0"
           fill="#999"
           stroke="none"
           fill-rule="nonzero"
           fill-opacity="0.498"
           id="path96" />
        <path
           d="m 24 21.859 c 0.59 0 1.129 0.238 1.516 0.621 c 0.387 0.387 0.625 0.926 0.625 1.52 c 0 0.59 -0.238 1.129 -0.625 1.516 c -0.387 0.387 -0.926 0.625 -1.516 0.625 c -0.594 0 -1.133 -0.238 -1.52 -0.625 c -0.383 -0.387 -0.621 -0.926 -0.621 -1.516 c 0 -0.594 0.238 -1.133 0.621 -1.52 c 0.387 -0.383 0.926 -0.621 1.52 -0.621 m 0 0"
           fill="#fff"
           stroke="none"
           fill-rule="nonzero"
           fill-opacity="0.498"
           id="path98" />
        <path
           d="m 20.996 14 l 6 0 l 0 13 l 5 0 l -8 7 l -8 -7 l 4.996 0 m 0.004 -13"
           fill="#e55b42"
           stroke="none"
           fill-rule="nonzero"
           fill-opacity="1"
           id="path100" />
      </g>
    </g>
  </g>
</svg>
