<?xml version="1.0" encoding="UTF-8" standalone="no"?>
<svg
   xmlns:dc="http://purl.org/dc/elements/1.1/"
   xmlns:cc="http://creativecommons.org/ns#"
   xmlns:rdf="http://www.w3.org/1999/02/22-rdf-syntax-ns#"
   xmlns:svg="http://www.w3.org/2000/svg"
   xmlns="http://www.w3.org/2000/svg"
   xmlns:xlink="http://www.w3.org/1999/xlink"
   xmlns:sodipodi="http://sodipodi.sourceforge.net/DTD/sodipodi-0.dtd"
   xmlns:inkscape="http://www.inkscape.org/namespaces/inkscape"
   viewBox="0 0 48 48"
   id="svg2"
   version="1.1"
   inkscape:version="0.48.5 r10040"
   width="100%"
   height="100%"
   sodipodi:docname="grsync.png.svg">
  <metadata
     id="metadata69">
    <rdf:RDF>
      <cc:Work
         rdf:about="">
        <dc:format>image/svg+xml</dc:format>
        <dc:type
           rdf:resource="http://purl.org/dc/dcmitype/StillImage" />
      </cc:Work>
    </rdf:RDF>
  </metadata>
  <sodipodi:namedview
     pagecolor="#ffffff"
     bordercolor="#666666"
     borderopacity="1"
     objecttolerance="10"
     gridtolerance="10"
     guidetolerance="10"
     inkscape:pageopacity="0"
     inkscape:pageshadow="2"
     inkscape:window-width="1301"
     inkscape:window-height="744"
     id="namedview67"
     showgrid="true"
     inkscape:zoom="6.3958333"
     inkscape:cx="17.059863"
     inkscape:cy="23.014803"
     inkscape:window-x="65"
     inkscape:window-y="24"
     inkscape:window-maximized="1"
     inkscape:current-layer="svg2">
    <inkscape:grid
       type="xygrid"
       id="grid3046" />
  </sodipodi:namedview>
  <defs
     id="defs4">
    <linearGradient
       id="linearGradient3764"
       x1="1"
       x2="47"
       gradientUnits="userSpaceOnUse"
       gradientTransform="matrix(0,-1,1,0,-1.5e-6,47.999998)">
      <stop
         stop-color="#5d873f"
         stop-opacity="1"
         id="stop7" />
      <stop
         offset="1"
         stop-color="#679445"
         stop-opacity="1"
         id="stop9"
         style="stop-color:#60ac26;stop-opacity:1;" />
    </linearGradient>
    <clipPath
       id="clipPath-991810507">
      <g
         transform="translate(0,-1004.3622)"
         id="g12">
        <path
           d="m -24 13 c 0 1.105 -0.672 2 -1.5 2 -0.828 0 -1.5 -0.895 -1.5 -2 0 -1.105 0.672 -2 1.5 -2 0.828 0 1.5 0.895 1.5 2 z"
           transform="matrix(15.333333,0,0,11.5,414.99999,878.8622)"
           fill="#1890d0"
           id="path14" />
      </g>
    </clipPath>
    <clipPath
       id="clipPath-999075525">
      <g
         transform="translate(0,-1004.3622)"
         id="g17">
        <path
           d="m -24 13 c 0 1.105 -0.672 2 -1.5 2 -0.828 0 -1.5 -0.895 -1.5 -2 0 -1.105 0.672 -2 1.5 -2 0.828 0 1.5 0.895 1.5 2 z"
           transform="matrix(15.333333,0,0,11.5,414.99999,878.8622)"
           fill="#1890d0"
           id="path19" />
      </g>
    </clipPath>
    <linearGradient
       inkscape:collect="always"
       xlink:href="#linearGradient3764"
       id="linearGradient3832"
       x1="4"
       y1="24"
       x2="44"
       y2="24"
       gradientUnits="userSpaceOnUse" />
  </defs>
  <rect
     style="fill:url(#linearGradient3832);fill-opacity:1.0;stroke:none"
     id="rect3048"
     width="40"
     height="40"
     x="4"
     y="4" />
  <g
     id="g33" />
  <g
     id="g35">
    <g
       clip-path="url(#clipPath-991810507)"
       id="g37">
      <g
         transform="translate(1,1)"
         id="g39">
        <g
           opacity="0.1"
           id="g41">
          <!-- color: #679445 -->
          <g
             id="g43">
            <path
               d="m 23.988 9 c -8.262 0 -14.988 6.699 -14.988 14.984 c 0 8.289 6.727 15.01 14.988 15.01 c 8.262 0 15.01 -6.723 15.01 -15.01 c 0 -8.289 -6.75 -14.984 -15.01 -14.984 m 0 2 c 7.211 0 13.02 5.809 13.02 12.984 c 0 7.176 -5.813 13.02 -13.02 13.02 c -7.211 0 -12.996 -5.84 -12.996 -13.02 c 0 -7.176 5.781 -12.984 12.996 -12.984 m 0 0"
               fill="#000"
               stroke="none"
               fill-rule="nonzero"
               fill-opacity="0.502"
               id="path45" />
            <path
               d="m 23.988 9 c -8.262 0 -14.988 6.699 -14.988 14.984 l 1.992 0 c 0 -7.176 5.781 -12.984 12.996 -12.984 c 7.211 0 13.02 5.809 13.02 12.984 l 0 0.137 c -0.078 7.125 -5.859 12.879 -13.02 12.879 l 0 1.996 c 8.262 0 15.01 -6.723 15.01 -15.01 c 0 -8.289 -6.75 -14.977 -15.01 -14.977 m 0 0"
               fill="#000"
               stroke="none"
               fill-rule="nonzero"
               fill-opacity="1"
               id="path47" />
            <path
               d="m 9.563 20 c -0.352 1.273 -0.563 2.617 -0.563 4 c 0 1.727 0.305 3.395 0.844 4.938 l 0.156 0.063 l 6 -9 m -6.438 0"
               fill="#000"
               stroke="none"
               fill-rule="nonzero"
               fill-opacity="1"
               id="path49" />
          </g>
        </g>
      </g>
    </g>
  </g>
  <g
     id="g51">
    <g
       clip-path="url(#clipPath-999075525)"
       id="g53">
      <!-- color: #679445 -->
      <g
         id="g55">
        <path
           d="m 23.988 9 c -8.262 0 -14.988 6.699 -14.988 14.984 c 0 8.289 6.727 15.01 14.988 15.01 c 8.262 0 15.01 -6.723 15.01 -15.01 c 0 -8.289 -6.75 -14.984 -15.01 -14.984 m 0 2 c 7.211 0 13.02 5.809 13.02 12.984 c 0 7.176 -5.813 13.02 -13.02 13.02 c -7.211 0 -12.996 -5.84 -12.996 -13.02 c 0 -7.176 5.781 -12.984 12.996 -12.984 m 0 0"
           fill="#f9f9f9"
           stroke="none"
           fill-rule="nonzero"
           fill-opacity="0.502"
           id="path57" />
        <path
           d="m 23.988 9 c -8.262 0 -14.988 6.699 -14.988 14.984 l 1.992 0 c 0 -7.176 5.781 -12.984 12.996 -12.984 c 7.211 0 13.02 5.809 13.02 12.984 l 0 0.137 c -0.078 7.125 -5.859 12.879 -13.02 12.879 l 0 1.996 c 8.262 0 15.01 -6.723 15.01 -15.01 c 0 -8.289 -6.75 -14.977 -15.01 -14.977 m 0 0"
           fill="#f9f9f9"
           stroke="none"
           fill-rule="nonzero"
           fill-opacity="1"
           id="path59" />
        <path
           d="m 9.563 20 c -0.352 1.273 -0.563 2.617 -0.563 4 c 0 1.727 0.305 3.395 0.844 4.938 l 0.156 0.063 l 6 -9 m -6.438 0"
           fill="#f9f9f9"
           stroke="none"
           fill-rule="nonzero"
           fill-opacity="1"
           id="path61" />
      </g>
    </g>
  </g>
  <path
     style="opacity:0.35;fill:#000000;fill-opacity:1;stroke:none"
     d="m 4,44 39.999997,3e-4 C 24,43.0003 24,43.0003 3.999999,44.0003 z"
     id="path3800"
     inkscape:connector-curvature="0"
     sodipodi:nodetypes="cccc" />
  <path
     sodipodi:nodetypes="cccc"
     inkscape:connector-curvature="0"
     id="path3804"
     d="M 4.000004,4.0002 44,4 C 24.000004,5 24.000004,5 4.000002,4 z"
     style="opacity:0.75;fill:#ffffff;fill-opacity:1;stroke:none" />
</svg>
