<?xml version="1.0" encoding="UTF-8" standalone="no"?>
<svg
   xmlns:dc="http://purl.org/dc/elements/1.1/"
   xmlns:cc="http://creativecommons.org/ns#"
   xmlns:rdf="http://www.w3.org/1999/02/22-rdf-syntax-ns#"
   xmlns:svg="http://www.w3.org/2000/svg"
   xmlns="http://www.w3.org/2000/svg"
   xmlns:xlink="http://www.w3.org/1999/xlink"
   xmlns:sodipodi="http://sodipodi.sourceforge.net/DTD/sodipodi-0.dtd"
   xmlns:inkscape="http://www.inkscape.org/namespaces/inkscape"
   viewBox="0 0 48 48"
   id="svg2"
   version="1.1"
   inkscape:version="0.48.5 r10040"
   width="100%"
   height="100%"
   sodipodi:docname="gstreamer.svg">
  <metadata
     id="metadata69">
    <rdf:RDF>
      <cc:Work
         rdf:about="">
        <dc:format>image/svg+xml</dc:format>
        <dc:type
           rdf:resource="http://purl.org/dc/dcmitype/StillImage" />
      </cc:Work>
    </rdf:RDF>
  </metadata>
  <sodipodi:namedview
     pagecolor="#ffffff"
     bordercolor="#666666"
     borderopacity="1"
     objecttolerance="10"
     gridtolerance="10"
     guidetolerance="10"
     inkscape:pageopacity="0"
     inkscape:pageshadow="2"
     inkscape:window-width="1301"
     inkscape:window-height="744"
     id="namedview67"
     showgrid="true"
     inkscape:zoom="6.3958333"
     inkscape:cx="-14.202119"
     inkscape:cy="37.903233"
     inkscape:window-x="65"
     inkscape:window-y="24"
     inkscape:window-maximized="1"
     inkscape:current-layer="svg2">
    <inkscape:grid
       type="xygrid"
       id="grid3046" />
  </sodipodi:namedview>
  <defs
     id="defs4">
    <linearGradient
       id="linearGradient3764"
       x1="1"
       x2="47"
       gradientUnits="userSpaceOnUse"
       gradientTransform="matrix(0,-1,1,0,-1.5e-6,47.999998)">
      <stop
         stop-color="#e4e4e4"
         stop-opacity="1"
         id="stop7" />
      <stop
         offset="1"
         stop-color="#eee"
         stop-opacity="1"
         id="stop9"
         style="stop-color:#ffffff;stop-opacity:1;" />
    </linearGradient>
    <clipPath
       id="clipPath-788891256">
      <g
         transform="translate(0,-1004.3622)"
         id="g12">
        <path
           d="m -24 13 c 0 1.105 -0.672 2 -1.5 2 -0.828 0 -1.5 -0.895 -1.5 -2 0 -1.105 0.672 -2 1.5 -2 0.828 0 1.5 0.895 1.5 2 z"
           transform="matrix(15.333333,0,0,11.5,414.99999,878.8622)"
           fill="#1890d0"
           id="path14" />
      </g>
    </clipPath>
    <clipPath
       id="clipPath-795304735">
      <g
         transform="translate(0,-1004.3622)"
         id="g17">
        <path
           d="m -24 13 c 0 1.105 -0.672 2 -1.5 2 -0.828 0 -1.5 -0.895 -1.5 -2 0 -1.105 0.672 -2 1.5 -2 0.828 0 1.5 0.895 1.5 2 z"
           transform="matrix(15.333333,0,0,11.5,414.99999,878.8622)"
           fill="#1890d0"
           id="path19" />
      </g>
    </clipPath>
    <linearGradient
       inkscape:collect="always"
       xlink:href="#linearGradient3764"
       id="linearGradient3824"
       x1="4"
       y1="24"
       x2="44"
       y2="24"
       gradientUnits="userSpaceOnUse" />
  </defs>
  <rect
     style="fill:url(#linearGradient3824);fill-opacity:1.0;stroke:none"
     id="rect3048"
     width="40"
     height="40"
     x="4"
     y="4" />
  <g
     id="g33" />
  <g
     id="g35">
    <g
       clip-path="url(#clipPath-788891256)"
       id="g37">
      <g
         transform="translate(1,1)"
         id="g39">
        <g
           opacity="0.1"
           id="g41">
          <!-- color: #eeeeee -->
          <g
             id="g43">
            <path
               d="m 25.05 18.859 c -1.844 0 -4.535 -1.578 -7.156 -1.578 c -2.625 0 -4.191 1.578 -4.465 1.789 c -0.273 0.215 -0.445 1.039 0.375 0.785 c 0.82 -0.25 1.5 -0.25 2.797 -0.25 c 1.297 0 4.395 1.863 7.531 1.863 c 3.137 0 5.762 -2.539 6.344 -3.438 c 0.582 -0.895 0.035 -1.184 -0.406 -0.965 c -0.445 0.215 -3.309 1.789 -5.01 1.789 m -0.008 0.004"
               fill="#000"
               stroke="none"
               fill-rule="nonzero"
               fill-opacity="1"
               id="path45" />
            <path
               d="m 33.04 23.766 c -1.938 0 -4.766 -1.578 -7.523 -1.578 c -2.758 0 -4.406 1.578 -4.691 1.789 c -0.289 0.219 -0.465 1.039 0.398 0.789 c 0.855 -0.254 1.574 -0.254 2.938 -0.254 c 1.359 0 4.617 1.863 7.914 1.863 c 3.297 0 6.05 -2.539 6.66 -3.438 c 0.609 -0.895 0.035 -1.18 -0.426 -0.965 c -0.465 0.215 -3.473 1.789 -5.27 1.789 m 0 0.004"
               fill="#000"
               stroke="none"
               fill-rule="nonzero"
               fill-opacity="1"
               id="path47" />
            <path
               d="m 21.91 29.18 c -2 0 -4.938 -1.699 -7.797 -1.699 c -2.859 0 -4.566 1.699 -4.867 1.934 c -0.297 0.23 -0.48 1.117 0.41 0.852 c 0.891 -0.27 1.633 -0.27 3.047 -0.27 c 1.41 0 4.789 2.01 8.211 2.01 c 3.414 0 6.277 -2.746 6.906 -3.715 c 0.633 -0.965 0.039 -1.273 -0.445 -1.043 c -0.48 0.23 -3.602 1.934 -5.461 1.934 m -0.004 -0.004"
               fill="#000"
               stroke="none"
               fill-rule="nonzero"
               fill-opacity="1"
               id="path49" />
          </g>
        </g>
      </g>
    </g>
  </g>
  <g
     id="g51">
    <g
       clip-path="url(#clipPath-795304735)"
       id="g53">
      <!-- color: #eeeeee -->
      <g
         id="g55">
        <path
           d="m 25.05 18.859 c -1.844 0 -4.535 -1.578 -7.156 -1.578 c -2.625 0 -4.191 1.578 -4.465 1.789 c -0.273 0.215 -0.445 1.039 0.375 0.785 c 0.82 -0.25 1.5 -0.25 2.797 -0.25 c 1.297 0 4.395 1.863 7.531 1.863 c 3.137 0 5.762 -2.539 6.344 -3.438 c 0.582 -0.895 0.035 -1.184 -0.406 -0.965 c -0.445 0.215 -3.309 1.789 -5.01 1.789 m -0.008 0.004"
           fill="#ff2f2f"
           stroke="none"
           fill-rule="nonzero"
           fill-opacity="1"
           id="path57" />
        <path
           d="m 33.04 23.766 c -1.938 0 -4.766 -1.578 -7.523 -1.578 c -2.758 0 -4.406 1.578 -4.691 1.789 c -0.289 0.219 -0.465 1.039 0.398 0.789 c 0.855 -0.254 1.574 -0.254 2.938 -0.254 c 1.359 0 4.617 1.863 7.914 1.863 c 3.297 0 6.05 -2.539 6.66 -3.438 c 0.609 -0.895 0.035 -1.18 -0.426 -0.965 c -0.465 0.215 -3.473 1.789 -5.27 1.789 m 0 0.004"
           fill="#2f952f"
           stroke="none"
           fill-rule="nonzero"
           fill-opacity="1"
           id="path59" />
        <path
           d="m 21.91 29.18 c -2 0 -4.938 -1.699 -7.797 -1.699 c -2.859 0 -4.566 1.699 -4.867 1.934 c -0.297 0.23 -0.48 1.117 0.41 0.852 c 0.891 -0.27 1.633 -0.27 3.047 -0.27 c 1.41 0 4.789 2.01 8.211 2.01 c 3.414 0 6.277 -2.746 6.906 -3.715 c 0.633 -0.965 0.039 -1.273 -0.445 -1.043 c -0.48 0.23 -3.602 1.934 -5.461 1.934 m -0.004 -0.004"
           fill="#2f2fcc"
           stroke="none"
           fill-rule="nonzero"
           fill-opacity="1"
           id="path61" />
      </g>
    </g>
  </g>
  <path
     style="opacity:0.35;fill:#000000;fill-opacity:1;stroke:none"
     d="M 4.000001,43.9997 43.999998,44 C 24.000001,43 24.000001,43 4,44 z"
     id="path3800"
     inkscape:connector-curvature="0"
     sodipodi:nodetypes="cccc" />
  <path
     sodipodi:nodetypes="cccc"
     inkscape:connector-curvature="0"
     id="path3804"
     d="m 4.000005,3.9999 39.999996,-2e-4 c -19.999996,1 -19.999996,1 -39.999998,0 z"
     style="opacity:0.75;fill:#ffffff;fill-opacity:1;stroke:none" />
</svg>
