<?xml version="1.0" encoding="UTF-8" standalone="no"?>
<svg
   xmlns:dc="http://purl.org/dc/elements/1.1/"
   xmlns:cc="http://creativecommons.org/ns#"
   xmlns:rdf="http://www.w3.org/1999/02/22-rdf-syntax-ns#"
   xmlns:svg="http://www.w3.org/2000/svg"
   xmlns="http://www.w3.org/2000/svg"
   xmlns:xlink="http://www.w3.org/1999/xlink"
   xmlns:sodipodi="http://sodipodi.sourceforge.net/DTD/sodipodi-0.dtd"
   xmlns:inkscape="http://www.inkscape.org/namespaces/inkscape"
   viewBox="0 0 48 48"
   id="svg2"
   version="1.1"
   inkscape:version="0.48.5 r10040"
   width="100%"
   height="100%"
   sodipodi:docname="hammerfight.svg">
  <metadata
     id="metadata65">
    <rdf:RDF>
      <cc:Work
         rdf:about="">
        <dc:format>image/svg+xml</dc:format>
        <dc:type
           rdf:resource="http://purl.org/dc/dcmitype/StillImage" />
      </cc:Work>
    </rdf:RDF>
  </metadata>
  <sodipodi:namedview
     pagecolor="#ffffff"
     bordercolor="#666666"
     borderopacity="1"
     objecttolerance="10"
     gridtolerance="10"
     guidetolerance="10"
     inkscape:pageopacity="0"
     inkscape:pageshadow="2"
     inkscape:window-width="1301"
     inkscape:window-height="744"
     id="namedview63"
     showgrid="true"
     inkscape:zoom="4.5225371"
     inkscape:cx="15.638791"
     inkscape:cy="23.508231"
     inkscape:window-x="65"
     inkscape:window-y="24"
     inkscape:window-maximized="1"
     inkscape:current-layer="svg2">
    <inkscape:grid
       type="xygrid"
       id="grid3042" />
  </sodipodi:namedview>
  <defs
     id="defs4">
    <linearGradient
       id="linearGradient3764"
       x1="1"
       x2="47"
       gradientUnits="userSpaceOnUse"
       gradientTransform="matrix(0,-1,1,0,-1.5e-6,47.999998)">
      <stop
         stop-color="#eaa12e"
         stop-opacity="1"
         id="stop7" />
      <stop
         offset="1"
         stop-color="#eca940"
         stop-opacity="1"
         id="stop9"
         style="stop-color:#f6c476;stop-opacity:1;" />
    </linearGradient>
    <clipPath
       id="clipPath-887099784">
      <g
         transform="translate(0,-1004.3622)"
         id="g12">
        <path
           d="m -24 13 c 0 1.105 -0.672 2 -1.5 2 -0.828 0 -1.5 -0.895 -1.5 -2 0 -1.105 0.672 -2 1.5 -2 0.828 0 1.5 0.895 1.5 2 z"
           transform="matrix(15.333333,0,0,11.5,414.99999,878.8622)"
           fill="#1890d0"
           id="path14" />
      </g>
    </clipPath>
    <clipPath
       id="clipPath-897160027">
      <g
         transform="translate(0,-1004.3622)"
         id="g17">
        <path
           d="m -24 13 c 0 1.105 -0.672 2 -1.5 2 -0.828 0 -1.5 -0.895 -1.5 -2 0 -1.105 0.672 -2 1.5 -2 0.828 0 1.5 0.895 1.5 2 z"
           transform="matrix(15.333333,0,0,11.5,414.99999,878.8622)"
           fill="#1890d0"
           id="path19" />
      </g>
    </clipPath>
    <linearGradient
       inkscape:collect="always"
       xlink:href="#linearGradient3764"
       id="linearGradient3820"
       x1="4"
       y1="24"
       x2="44"
       y2="24"
       gradientUnits="userSpaceOnUse" />
  </defs>
  <rect
     style="fill:url(#linearGradient3820);fill-opacity:1.0;stroke:none"
     id="rect3044"
     width="40"
     height="40"
     x="4"
     y="4" />
  <g
     id="g33" />
  <g
     id="g35">
    <g
       clip-path="url(#clipPath-887099784)"
       id="g37">
      <g
         transform="translate(1,1)"
         id="g39">
        <g
           opacity="0.1"
           id="g41">
          <!-- color: #eca940 -->
          <g
             id="g43">
            <path
               d="m 26.27 12.336 c -0.438 0.465 -1.199 1.715 -1.445 2.348 c -0.152 0.387 -0.246 1.02 -0.336 2.203 l -0.121 1.664 l -0.336 0 c -0.277 0 -0.348 0.039 -0.316 0.176 c 0.02 0.102 0.184 0.23 0.363 0.289 c 0.328 0.094 0.328 0.105 0.328 0.738 c 0 0.855 -0.141 0.977 -1.09 0.977 c -0.906 0 -1.047 -0.133 -1.047 -0.996 c 0 -0.543 0.031 -0.625 0.223 -0.719 c 0.133 -0.063 0.246 -0.188 0.266 -0.289 c 0.031 -0.156 -0.082 -0.176 -1.344 -0.176 c -1.262 0 -1.379 0.02 -1.379 0.188 c 0 0.102 0.09 0.258 0.199 0.363 c 0.285 0.238 0.277 0.988 -0.008 1.359 c -0.188 0.238 -0.285 0.27 -0.816 0.27 c -0.527 0 -0.598 -0.02 -0.598 -0.207 c 0 -0.145 -0.074 -0.211 -0.234 -0.211 c -0.176 0 -0.258 0.082 -0.328 0.336 c -0.082 0.277 -0.172 0.352 -0.508 0.422 c -0.512 0.105 -1.141 0.035 -1.609 -0.195 c -0.336 -0.168 -0.375 -0.168 -0.805 0.043 c -0.348 0.164 -0.664 0.219 -1.508 0.234 c -0.59 0.012 -1.238 -0.02 -1.445 -0.063 l -0.387 -0.074 l 0 0.582 c 0 0.57 0 0.578 0.297 0.578 c 0.164 0 0.352 -0.074 0.43 -0.164 c 0.211 -0.27 2.137 -0.156 2.461 0.133 c 0.121 0.113 0.305 0.238 0.406 0.27 c 0.195 0.074 0.691 -0.082 0.793 -0.246 c 0.035 -0.066 0.348 -0.137 0.684 -0.168 c 0.488 -0.055 0.652 -0.02 0.781 0.113 c 0.094 0.094 0.234 0.168 0.305 0.168 c 0.082 0 0.152 0.133 0.176 0.332 c 0.039 0.402 0.363 0.543 0.457 0.199 c 0.047 -0.199 0.129 -0.219 0.699 -0.219 c 0.512 0 0.664 0.039 0.734 0.176 c 0.051 0.102 0.121 1.164 0.152 2.348 c 0.031 1.195 0.082 2.195 0.113 2.227 c 0.113 0.113 1.027 -0.758 1.273 -1.227 c 0.305 -0.551 0.508 -1.559 0.516 -2.535 c 0 -0.438 0.051 -0.793 0.121 -0.867 c 0.07 -0.074 0.43 -0.121 0.895 -0.121 c 1.039 0 1.121 0.09 1.121 1.203 l 0 0.832 l -0.324 0.094 c -0.469 0.145 -0.5 0.445 -0.063 0.488 l 0.336 0.031 l -0.008 0.945 c -0.012 0.813 -0.051 1.023 -0.316 1.559 c -0.406 0.844 -0.746 1.34 -1.344 2.02 l -0.512 0.559 l 0.215 0.375 c 0.121 0.199 0.375 0.613 0.582 0.934 l 0.352 0.559 l 0.469 -0.523 c 0.844 -0.938 1.293 -1.77 1.719 -3.156 c 0.059 -0.211 0.141 -0.848 0.172 -1.406 c 0.094 -1.746 0.121 -1.91 0.387 -1.91 c 0.121 0 0.273 -0.035 0.297 -0.074 c 0.09 -0.082 -0.227 -0.449 -0.387 -0.449 c -0.195 0 -0.258 -0.621 -0.258 -2.805 c 0 -2.391 0.039 -2.734 0.34 -2.871 c 0.313 -0.133 0.348 -0.434 0.047 -0.477 c -0.578 -0.082 -0.465 -2.07 0.195 -3.121 c 0.141 -0.234 0.551 -0.73 0.906 -1.105 c 0.645 -0.688 0.645 -0.688 0.48 -0.953 c -0.512 -0.813 -0.906 -1.352 -1.01 -1.352 c -0.047 0 -0.242 0.156 -0.418 0.332 m 0.008 0.023"
               fill="#000"
               stroke="none"
               fill-rule="nonzero"
               fill-opacity="1"
               id="path45" />
            <path
               d="m 30.16 16.91 c -0.316 0.113 -0.664 0.352 -1.625 1.109 c -0.387 0.313 -0.715 0.492 -0.996 0.523 c -0.52 0.074 -0.598 0.289 -0.184 0.457 l 0.313 0.113 l 0 8.348 l -0.254 0.113 c -0.324 0.156 -0.324 0.313 0.012 0.445 l 0.277 0.102 l -0.051 1.109 c -0.051 0.898 -0.113 1.23 -0.316 1.715 c -0.336 0.75 -1 1.656 -1.75 2.328 l -0.582 0.523 l 0.176 0.352 c 0.336 0.656 1.098 1.781 1.25 1.84 c 0.293 0.113 1.434 -1.465 2.055 -2.828 c 0.527 -1.176 0.711 -2.105 0.711 -3.707 l 0 -1.34 l 0.258 -0.063 c 0.305 -0.074 0.348 -0.414 0.059 -0.516 c -0.164 -0.055 -0.203 -0.211 -0.266 -0.949 c -0.102 -1.207 -0.012 -3.637 0.141 -3.816 c 0.105 -0.125 0.715 -0.156 3.316 -0.191 c 1.754 -0.012 3.227 -0.07 3.27 -0.109 c 0.152 -0.156 -0.277 -0.758 -0.754 -1.07 c -0.883 -0.582 -1.309 -0.668 -3.609 -0.668 c -2.555 0 -2.41 0.082 -2.41 -1.453 l 0 -1.07 l 0.418 -0.406 c 0.457 -0.445 0.773 -0.602 1.203 -0.602 c 0.445 0 0.621 0.289 0.621 1.012 c 0 0.465 0.039 0.664 0.191 0.789 c 0.266 0.246 0.316 0.133 0.316 -0.594 c 0 -1.309 -0.688 -1.891 -1.77 -1.492 m -0.02 -0.004"
               fill="#000"
               stroke="none"
               fill-rule="nonzero"
               fill-opacity="1"
               id="path47" />
          </g>
        </g>
      </g>
    </g>
  </g>
  <g
     id="g49">
    <g
       clip-path="url(#clipPath-897160027)"
       id="g51">
      <!-- color: #eca940 -->
      <g
         id="g53">
        <path
           d="m 26.27 12.336 c -0.438 0.465 -1.199 1.715 -1.445 2.348 c -0.152 0.387 -0.246 1.02 -0.336 2.203 l -0.121 1.664 l -0.336 0 c -0.277 0 -0.348 0.039 -0.316 0.176 c 0.02 0.102 0.184 0.23 0.363 0.289 c 0.328 0.094 0.328 0.105 0.328 0.738 c 0 0.855 -0.141 0.977 -1.09 0.977 c -0.906 0 -1.047 -0.133 -1.047 -0.996 c 0 -0.543 0.031 -0.625 0.223 -0.719 c 0.133 -0.063 0.246 -0.188 0.266 -0.289 c 0.031 -0.156 -0.082 -0.176 -1.344 -0.176 c -1.262 0 -1.379 0.02 -1.379 0.188 c 0 0.102 0.09 0.258 0.199 0.363 c 0.285 0.238 0.277 0.988 -0.008 1.359 c -0.188 0.238 -0.285 0.27 -0.816 0.27 c -0.527 0 -0.598 -0.02 -0.598 -0.207 c 0 -0.145 -0.074 -0.211 -0.234 -0.211 c -0.176 0 -0.258 0.082 -0.328 0.336 c -0.082 0.277 -0.172 0.352 -0.508 0.422 c -0.512 0.105 -1.141 0.035 -1.609 -0.195 c -0.336 -0.168 -0.375 -0.168 -0.805 0.043 c -0.348 0.164 -0.664 0.219 -1.508 0.234 c -0.59 0.012 -1.238 -0.02 -1.445 -0.063 l -0.387 -0.074 l 0 0.582 c 0 0.57 0 0.578 0.297 0.578 c 0.164 0 0.352 -0.074 0.43 -0.164 c 0.211 -0.27 2.137 -0.156 2.461 0.133 c 0.121 0.113 0.305 0.238 0.406 0.27 c 0.195 0.074 0.691 -0.082 0.793 -0.246 c 0.035 -0.066 0.348 -0.137 0.684 -0.168 c 0.488 -0.055 0.652 -0.02 0.781 0.113 c 0.094 0.094 0.234 0.168 0.305 0.168 c 0.082 0 0.152 0.133 0.176 0.332 c 0.039 0.402 0.363 0.543 0.457 0.199 c 0.047 -0.199 0.129 -0.219 0.699 -0.219 c 0.512 0 0.664 0.039 0.734 0.176 c 0.051 0.102 0.121 1.164 0.152 2.348 c 0.031 1.195 0.082 2.195 0.113 2.227 c 0.113 0.113 1.027 -0.758 1.273 -1.227 c 0.305 -0.551 0.508 -1.559 0.516 -2.535 c 0 -0.438 0.051 -0.793 0.121 -0.867 c 0.07 -0.074 0.43 -0.121 0.895 -0.121 c 1.039 0 1.121 0.09 1.121 1.203 l 0 0.832 l -0.324 0.094 c -0.469 0.145 -0.5 0.445 -0.063 0.488 l 0.336 0.031 l -0.008 0.945 c -0.012 0.813 -0.051 1.023 -0.316 1.559 c -0.406 0.844 -0.746 1.34 -1.344 2.02 l -0.512 0.559 l 0.215 0.375 c 0.121 0.199 0.375 0.613 0.582 0.934 l 0.352 0.559 l 0.469 -0.523 c 0.844 -0.938 1.293 -1.77 1.719 -3.156 c 0.059 -0.211 0.141 -0.848 0.172 -1.406 c 0.094 -1.746 0.121 -1.91 0.387 -1.91 c 0.121 0 0.273 -0.035 0.297 -0.074 c 0.09 -0.082 -0.227 -0.449 -0.387 -0.449 c -0.195 0 -0.258 -0.621 -0.258 -2.805 c 0 -2.391 0.039 -2.734 0.34 -2.871 c 0.313 -0.133 0.348 -0.434 0.047 -0.477 c -0.578 -0.082 -0.465 -2.07 0.195 -3.121 c 0.141 -0.234 0.551 -0.73 0.906 -1.105 c 0.645 -0.688 0.645 -0.688 0.48 -0.953 c -0.512 -0.813 -0.906 -1.352 -1.01 -1.352 c -0.047 0 -0.242 0.156 -0.418 0.332 m 0.008 0.023"
           fill="#f9f9f9"
           stroke="none"
           fill-rule="nonzero"
           fill-opacity="1"
           id="path55" />
        <path
           d="m 30.16 16.91 c -0.316 0.113 -0.664 0.352 -1.625 1.109 c -0.387 0.313 -0.715 0.492 -0.996 0.523 c -0.52 0.074 -0.598 0.289 -0.184 0.457 l 0.313 0.113 l 0 8.348 l -0.254 0.113 c -0.324 0.156 -0.324 0.313 0.012 0.445 l 0.277 0.102 l -0.051 1.109 c -0.051 0.898 -0.113 1.23 -0.316 1.715 c -0.336 0.75 -1 1.656 -1.75 2.328 l -0.582 0.523 l 0.176 0.352 c 0.336 0.656 1.098 1.781 1.25 1.84 c 0.293 0.113 1.434 -1.465 2.055 -2.828 c 0.527 -1.176 0.711 -2.105 0.711 -3.707 l 0 -1.34 l 0.258 -0.063 c 0.305 -0.074 0.348 -0.414 0.059 -0.516 c -0.164 -0.055 -0.203 -0.211 -0.266 -0.949 c -0.102 -1.207 -0.012 -3.637 0.141 -3.816 c 0.105 -0.125 0.715 -0.156 3.316 -0.191 c 1.754 -0.012 3.227 -0.07 3.27 -0.109 c 0.152 -0.156 -0.277 -0.758 -0.754 -1.07 c -0.883 -0.582 -1.309 -0.668 -3.609 -0.668 c -2.555 0 -2.41 0.082 -2.41 -1.453 l 0 -1.07 l 0.418 -0.406 c 0.457 -0.445 0.773 -0.602 1.203 -0.602 c 0.445 0 0.621 0.289 0.621 1.012 c 0 0.465 0.039 0.664 0.191 0.789 c 0.266 0.246 0.316 0.133 0.316 -0.594 c 0 -1.309 -0.688 -1.891 -1.77 -1.492 m -0.02 -0.004"
           fill="#f9f9f9"
           stroke="none"
           fill-rule="nonzero"
           fill-opacity="1"
           id="path57" />
      </g>
    </g>
  </g>
  <path
     style="opacity:0.35;fill:#000000;fill-opacity:1;stroke:none"
     d="M 4.000003,43.9997 44,44 C 24.000003,43 24.000003,43 4.000002,44 z"
     id="path3800"
     inkscape:connector-curvature="0"
     sodipodi:nodetypes="cccc" />
  <path
     sodipodi:nodetypes="cccc"
     inkscape:connector-curvature="0"
     id="path3804"
     d="m 4.000007,3.9999 39.999996,-2e-4 c -19.999996,1 -19.999996,1 -39.999998,0 z"
     style="opacity:0.75;fill:#ffffff;fill-opacity:1;stroke:none" />
</svg>
