<?xml version="1.0" encoding="UTF-8" standalone="no"?>
<svg
   xmlns:dc="http://purl.org/dc/elements/1.1/"
   xmlns:cc="http://creativecommons.org/ns#"
   xmlns:rdf="http://www.w3.org/1999/02/22-rdf-syntax-ns#"
   xmlns:svg="http://www.w3.org/2000/svg"
   xmlns="http://www.w3.org/2000/svg"
   xmlns:xlink="http://www.w3.org/1999/xlink"
   xmlns:sodipodi="http://sodipodi.sourceforge.net/DTD/sodipodi-0.dtd"
   xmlns:inkscape="http://www.inkscape.org/namespaces/inkscape"
   viewBox="0 0 48 48"
   id="svg14100"
   version="1.1"
   inkscape:version="0.48.5 r10040"
   width="100%"
   height="100%"
   sodipodi:docname="hedgewars.svg">
  <metadata
     id="metadata14159">
    <rdf:RDF>
      <cc:Work
         rdf:about="">
        <dc:format>image/svg+xml</dc:format>
        <dc:type
           rdf:resource="http://purl.org/dc/dcmitype/StillImage" />
        <dc:title />
      </cc:Work>
    </rdf:RDF>
  </metadata>
  <sodipodi:namedview
     pagecolor="#ffffff"
     bordercolor="#666666"
     borderopacity="1"
     objecttolerance="10"
     gridtolerance="10"
     guidetolerance="10"
     inkscape:pageopacity="0"
     inkscape:pageshadow="2"
     inkscape:window-width="1301"
     inkscape:window-height="744"
     id="namedview14157"
     showgrid="true"
     inkscape:zoom="8.7259989"
     inkscape:cx="2.6262044"
     inkscape:cy="24.397242"
     inkscape:window-x="65"
     inkscape:window-y="24"
     inkscape:window-maximized="1"
     inkscape:current-layer="svg14100">
    <inkscape:grid
       type="xygrid"
       id="grid3013" />
  </sodipodi:namedview>
  <defs
     id="defs14102">
    <linearGradient
       id="linearGradient3793">
      <stop
         style="stop-color:#366fc4;stop-opacity:1;"
         offset="0"
         id="stop3795" />
      <stop
         style="stop-color:#5a8ad2;stop-opacity:1;"
         offset="1"
         id="stop3797" />
    </linearGradient>
    <linearGradient
       inkscape:collect="always"
       xlink:href="#linearGradient3793"
       id="linearGradient3799"
       x1="24.715517"
       y1="46.865517"
       x2="24.472412"
       y2="1.0810362"
       gradientUnits="userSpaceOnUse" />
  </defs>
  <g
     id="g14131"
     transform="matrix(1.2432432,0,0,1.2432432,-5.9594595,-5.9594595)" />
  <g
     id="g3050"
     transform="matrix(1.2432432,0,0,1.2432432,-4.7162162,-4.7162162)"
     style="opacity:0.1;fill:#000000">
    <path
       style="fill:#000000;stroke:none"
       d="m 16.375,8 3,7.3125 c -0.02505,0.01835 -0.0376,0.04396 -0.0625,0.0625 L 10.125,15.84375 15.15625,20.75 8,23.3125 l 6.46875,2.75 -5.53125,3.03125 6.53125,0.8125 c 0.08945,0.201676 0.181318,0.429247 0.28125,0.625 -0.948604,0.563066 -1.59375,1.578123 -1.59375,2.75 0,1.77795 1.479354,3.21875 3.28125,3.21875 1.054749,0 1.997344,-0.515106 2.59375,-1.28125 0.13894,0.08917 0.263485,0.166459 0.40625,0.25 -0.103151,0.331551 -0.15625,0.696086 -0.15625,1.0625 0,1.915896 1.498026,3.46875 3.375,3.46875 C 24.85238,40 25.894329,39.359661 26.5,38.40625 27.104825,39.364326 28.144133,40 29.34375,40 31.220725,40 32.75,38.447146 32.75,36.53125 c 0,-0.358131 -0.05753,-0.706244 -0.15625,-1.03125 2.160567,-1.253667 3.887884,-3.1565 4.9375,-5.4375 0.112222,0.01993 0.226336,0.0625 0.34375,0.0625 1.171231,0 2.125,-1.040345 2.125,-2.3125 0,-0.97935 -0.581608,-1.823022 -1.375,-2.15625 0.01045,-0.205746 0.03125,-0.41669 0.03125,-0.625 0,-5.693528 -3.961875,-10.441217 -9.28125,-11.71875 L 16.375,8 z m 13.84375,11.9375 c 0.933441,0 1.77097,0.379016 2.375,1.03125 0.364793,-0.204971 0.774415,-0.34375 1.21875,-0.34375 1.42187,0 2.59375,1.185564 2.59375,2.65625 0,1.470686 -1.17188,2.6875 -2.59375,2.6875 -0.395116,0 -0.759169,-0.116731 -1.09375,-0.28125 -0.609968,0.74929 -1.489358,1.25 -2.5,1.25 -1.836803,0 -3.3125,-1.565566 -3.3125,-3.5 0,-1.934434 1.475697,-3.5 3.3125,-3.5 z"
       id="path3052"
       inkscape:connector-curvature="0" />
    <path
       style="fill:#000000;fill-opacity:1;stroke:none"
       d="m 29.764158,26.841805 c -1.003355,-0.131664 -1.980172,-0.886051 -2.455968,-1.896723 -0.964599,-2.048976 0.282126,-4.560438 2.436064,-4.90732 0.893982,-0.143972 1.953655,0.164401 2.566099,0.746754 l 0.250835,0.238511 0.437958,-0.173267 c 0.863323,-0.341553 1.88378,-0.111594 2.575838,0.580463 1.285482,1.285483 0.880172,3.498568 -0.78082,4.263455 -0.521893,0.240331 -1.285498,0.272389 -1.753225,0.0736 l -0.315129,-0.133931 -0.396083,0.37049 c -0.71993,0.67341 -1.608325,0.963577 -2.565569,0.837964 z"
       id="path3054"
       inkscape:connector-curvature="0" />
    <path
       sodipodi:type="arc"
       style="fill:#000000;fill-opacity:1;stroke:none"
       id="path3056"
       sodipodi:cx="23.5"
       sodipodi:cy="22.960344"
       sodipodi:rx="0.97241378"
       sodipodi:ry="1.0534483"
       d="m 24.472414,22.960344 c 0,0.581804 -0.435365,1.053449 -0.972414,1.053449 -0.537049,0 -0.972414,-0.471645 -0.972414,-1.053449 0,-0.581803 0.435365,-1.053448 0.972414,-1.053448 0.537049,0 0.972414,0.471645 0.972414,1.053448 z"
       transform="translate(7.351724,0.24310344)" />
    <path
       sodipodi:type="arc"
       style="fill:#000000;fill-opacity:1;stroke:none"
       id="path3058"
       sodipodi:cx="23.5"
       sodipodi:cy="22.960344"
       sodipodi:rx="0.97241378"
       sodipodi:ry="1.0534483"
       d="m 24.472414,22.960344 c 0,0.581804 -0.435365,1.053449 -0.972414,1.053449 -0.537049,0 -0.972414,-0.471645 -0.972414,-1.053449 0,-0.581803 0.435365,-1.053448 0.972414,-1.053448 0.537049,0 0.972414,0.471645 0.972414,1.053448 z"
       transform="matrix(0.77127661,0,0,0.80687394,16.015374,4.7445861)" />
  </g>
  <g
     id="g3044"
     transform="matrix(1.2432432,0,0,1.2432432,-5.9594595,-5.9594595)">
    <path
       id="path3015"
       d="m 16.375,8 3,7.3125 c -0.02505,0.01835 -0.0376,0.04396 -0.0625,0.0625 L 10.125,15.84375 15.15625,20.75 8,23.3125 l 6.46875,2.75 -5.53125,3.03125 6.53125,0.8125 c 0.08945,0.201676 0.181318,0.429247 0.28125,0.625 -0.948604,0.563066 -1.59375,1.578123 -1.59375,2.75 0,1.77795 1.479354,3.21875 3.28125,3.21875 1.054749,0 1.997344,-0.515106 2.59375,-1.28125 0.13894,0.08917 0.263485,0.166459 0.40625,0.25 -0.103151,0.331551 -0.15625,0.696086 -0.15625,1.0625 0,1.915896 1.498026,3.46875 3.375,3.46875 C 24.85238,40 25.894329,39.359661 26.5,38.40625 27.104825,39.364326 28.144133,40 29.34375,40 31.220725,40 32.75,38.447146 32.75,36.53125 c 0,-0.358131 -0.05753,-0.706244 -0.15625,-1.03125 2.160567,-1.253667 3.887884,-3.1565 4.9375,-5.4375 0.112222,0.01993 0.226336,0.0625 0.34375,0.0625 1.171231,0 2.125,-1.040345 2.125,-2.3125 0,-0.97935 -0.581608,-1.823022 -1.375,-2.15625 0.01045,-0.205746 0.03125,-0.41669 0.03125,-0.625 0,-5.693528 -3.961875,-10.441217 -9.28125,-11.71875 L 16.375,8 z m 13.84375,11.9375 c 0.933441,0 1.77097,0.379016 2.375,1.03125 0.364793,-0.204971 0.774415,-0.34375 1.21875,-0.34375 1.42187,0 2.59375,1.185564 2.59375,2.65625 0,1.470686 -1.17188,2.6875 -2.59375,2.6875 -0.395116,0 -0.759169,-0.116731 -1.09375,-0.28125 -0.609968,0.74929 -1.489358,1.25 -2.5,1.25 -1.836803,0 -3.3125,-1.565566 -3.3125,-3.5 0,-1.934434 1.475697,-3.5 3.3125,-3.5 z"
       style="fill:#ff80e5;stroke:none"
       inkscape:connector-curvature="0" />
    <path
       inkscape:connector-curvature="0"
       id="path3020"
       d="m 29.764158,26.841805 c -1.003355,-0.131664 -1.980172,-0.886051 -2.455968,-1.896723 -0.964599,-2.048976 0.282126,-4.560438 2.436064,-4.90732 0.893982,-0.143972 1.953655,0.164401 2.566099,0.746754 l 0.250835,0.238511 0.437958,-0.173267 c 0.863323,-0.341553 1.88378,-0.111594 2.575838,0.580463 1.285482,1.285483 0.880172,3.498568 -0.78082,4.263455 -0.521893,0.240331 -1.285498,0.272389 -1.753225,0.0736 l -0.315129,-0.133931 -0.396083,0.37049 c -0.71993,0.67341 -1.608325,0.963577 -2.565569,0.837964 z"
       style="fill:#f9f9f9;fill-opacity:1;stroke:none" />
    <path
       transform="translate(7.351724,0.24310344)"
       d="m 24.472414,22.960344 c 0,0.581804 -0.435365,1.053449 -0.972414,1.053449 -0.537049,0 -0.972414,-0.471645 -0.972414,-1.053449 0,-0.581803 0.435365,-1.053448 0.972414,-1.053448 0.537049,0 0.972414,0.471645 0.972414,1.053448 z"
       sodipodi:ry="1.0534483"
       sodipodi:rx="0.97241378"
       sodipodi:cy="22.960344"
       sodipodi:cx="23.5"
       id="path3022"
       style="fill:#4d4d4d;fill-opacity:1;stroke:none"
       sodipodi:type="arc" />
    <path
       transform="matrix(0.77127661,0,0,0.80687394,16.015374,4.7445861)"
       d="m 24.472414,22.960344 c 0,0.581804 -0.435365,1.053449 -0.972414,1.053449 -0.537049,0 -0.972414,-0.471645 -0.972414,-1.053449 0,-0.581803 0.435365,-1.053448 0.972414,-1.053448 0.537049,0 0.972414,0.471645 0.972414,1.053448 z"
       sodipodi:ry="1.0534483"
       sodipodi:rx="0.97241378"
       sodipodi:cy="22.960344"
       sodipodi:cx="23.5"
       id="path3022-6"
       style="fill:#4d4d4d;fill-opacity:1;stroke:none"
       sodipodi:type="arc" />
  </g>
</svg>
