<?xml version="1.0" encoding="UTF-8" standalone="no"?>
<svg
   xmlns:dc="http://purl.org/dc/elements/1.1/"
   xmlns:cc="http://creativecommons.org/ns#"
   xmlns:rdf="http://www.w3.org/1999/02/22-rdf-syntax-ns#"
   xmlns:svg="http://www.w3.org/2000/svg"
   xmlns="http://www.w3.org/2000/svg"
   xmlns:xlink="http://www.w3.org/1999/xlink"
   xmlns:sodipodi="http://sodipodi.sourceforge.net/DTD/sodipodi-0.dtd"
   xmlns:inkscape="http://www.inkscape.org/namespaces/inkscape"
   width="48"
   viewBox="0 0 13.546667 13.546667"
   height="48"
   id="svg2"
   version="1.1"
   inkscape:version="0.48.5 r10040"
   sodipodi:docname="i2prouter.svg">
  <metadata
     id="metadata331">
    <rdf:RDF>
      <cc:Work
         rdf:about="">
        <dc:format>image/svg+xml</dc:format>
        <dc:type
           rdf:resource="http://purl.org/dc/dcmitype/StillImage" />
        <dc:title />
      </cc:Work>
    </rdf:RDF>
  </metadata>
  <sodipodi:namedview
     pagecolor="#ffffff"
     bordercolor="#666666"
     borderopacity="1"
     objecttolerance="10"
     gridtolerance="10"
     guidetolerance="10"
     inkscape:pageopacity="0"
     inkscape:pageshadow="2"
     inkscape:window-width="1301"
     inkscape:window-height="744"
     id="namedview329"
     showgrid="true"
     inkscape:zoom="4.5358086"
     inkscape:cx="-8.0894996"
     inkscape:cy="42.179421"
     inkscape:window-x="65"
     inkscape:window-y="24"
     inkscape:window-maximized="1"
     inkscape:current-layer="layer3">
    <inkscape:grid
       type="xygrid"
       id="grid3308" />
  </sodipodi:namedview>
  <defs
     id="defs4">
    <linearGradient
       id="W">
      <stop
         stop-color="#c7c7c7"
         id="stop307" />
      <stop
         offset="1"
         stop-color="#dedede"
         id="stop309"
         style="stop-color:#f5f5f5;stop-opacity:1;" />
    </linearGradient>
    <linearGradient
       inkscape:collect="always"
       xlink:href="#linearGradient4460-88"
       id="linearGradient4033"
       x1="-27"
       y1="13"
       x2="-24"
       y2="13"
       gradientUnits="userSpaceOnUse" />
    <linearGradient
       id="linearGradient4460-88">
      <stop
         id="stop4039"
         style="stop-color:#e7e7e7"
         offset="0" />
      <stop
         id="stop4041"
         style="stop-color:#f3f3f3"
         offset="1" />
    </linearGradient>
    <linearGradient
       inkscape:collect="always"
       xlink:href="#W"
       id="linearGradient4107"
       x1="4"
       y1="24"
       x2="44"
       y2="24"
       gradientUnits="userSpaceOnUse" />
  </defs>
  <g
     inkscape:groupmode="layer"
     id="layer3"
     inkscape:label="Symbol">
    <rect
       style="fill:url(#linearGradient4107);fill-opacity:1.0;stroke:none"
       id="rect3330"
       width="40"
       height="40"
       x="4"
       y="4"
       transform="scale(0.28222223,0.28222223)" />
    <g
       id="g5029"
       style="opacity:0.1;fill:#000000;fill-opacity:1"
       transform="translate(0.28222272,0.28222227)">
      <path
         transform="matrix(0.37629631,0,0,0.37629631,23.706667,4.1392594)"
         d="m -51,-0.5 c 0,0.82842712 -0.671573,1.5 -1.5,1.5 -0.828427,0 -1.5,-0.67157288 -1.5,-1.5 0,-0.8284271 0.671573,-1.5 1.5,-1.5 0.828427,0 1.5,0.6715729 1.5,1.5 z"
         sodipodi:ry="1.5"
         sodipodi:rx="1.5"
         sodipodi:cy="-0.5"
         sodipodi:cx="-52.5"
         id="path4957"
         style="fill:#000000;fill-opacity:1;stroke:none"
         sodipodi:type="arc" />
      <path
         sodipodi:type="arc"
         style="fill:#000000;fill-opacity:1;stroke:none"
         id="path4959"
         sodipodi:cx="-52.5"
         sodipodi:cy="-0.5"
         sodipodi:rx="1.5"
         sodipodi:ry="1.5"
         d="m -51,-0.5 c 0,0.82842712 -0.671573,1.5 -1.5,1.5 -0.828427,0 -1.5,-0.67157288 -1.5,-1.5 0,-0.8284271 0.671573,-1.5 1.5,-1.5 0.828427,0 1.5,0.6715729 1.5,1.5 z"
         transform="matrix(0.37629631,0,0,0.37629631,23.706667,5.2681483)" />
      <path
         transform="matrix(0.37629631,0,0,0.37629631,23.706667,7.5259261)"
         d="m -51,-0.5 c 0,0.82842712 -0.671573,1.5 -1.5,1.5 -0.828427,0 -1.5,-0.67157288 -1.5,-1.5 0,-0.8284271 0.671573,-1.5 1.5,-1.5 0.828427,0 1.5,0.6715729 1.5,1.5 z"
         sodipodi:ry="1.5"
         sodipodi:rx="1.5"
         sodipodi:cy="-0.5"
         sodipodi:cx="-52.5"
         id="path4961"
         style="fill:#000000;fill-opacity:1;stroke:none"
         sodipodi:type="arc" />
      <path
         sodipodi:type="arc"
         style="fill:#000000;fill-opacity:1;stroke:none"
         id="path4963"
         sodipodi:cx="-52.5"
         sodipodi:cy="-0.5"
         sodipodi:rx="1.5"
         sodipodi:ry="1.5"
         d="m -51,-0.5 c 0,0.82842712 -0.671573,1.5 -1.5,1.5 -0.828427,0 -1.5,-0.67157288 -1.5,-1.5 0,-0.8284271 0.671573,-1.5 1.5,-1.5 0.828427,0 1.5,0.6715729 1.5,1.5 z"
         transform="matrix(0.37629631,0,0,0.37629631,23.706667,6.3970372)" />
      <path
         transform="matrix(0.37629631,0,0,0.37629631,23.706667,8.654815)"
         d="m -51,-0.5 c 0,0.82842712 -0.671573,1.5 -1.5,1.5 -0.828427,0 -1.5,-0.67157288 -1.5,-1.5 0,-0.8284271 0.671573,-1.5 1.5,-1.5 0.828427,0 1.5,0.6715729 1.5,1.5 z"
         sodipodi:ry="1.5"
         sodipodi:rx="1.5"
         sodipodi:cy="-0.5"
         sodipodi:cx="-52.5"
         id="path4965"
         style="fill:#000000;fill-opacity:1;stroke:none"
         sodipodi:type="arc" />
      <path
         sodipodi:type="arc"
         style="fill:#000000;fill-opacity:1;stroke:none"
         id="path4967"
         sodipodi:cx="-52.5"
         sodipodi:cy="-0.5"
         sodipodi:rx="1.5"
         sodipodi:ry="1.5"
         d="m -51,-0.5 c 0,0.82842712 -0.671573,1.5 -1.5,1.5 -0.828427,0 -1.5,-0.67157288 -1.5,-1.5 0,-0.8284271 0.671573,-1.5 1.5,-1.5 0.828427,0 1.5,0.6715729 1.5,1.5 z"
         transform="matrix(0.37629631,0,0,0.37629631,23.706667,9.7837039)" />
      <path
         sodipodi:type="arc"
         style="fill:#000000;fill-opacity:1;stroke:none"
         id="path4969"
         sodipodi:cx="-52.5"
         sodipodi:cy="-0.5"
         sodipodi:rx="1.5"
         sodipodi:ry="1.5"
         d="m -51,-0.5 c 0,0.82842712 -0.671573,1.5 -1.5,1.5 -0.828427,0 -1.5,-0.67157288 -1.5,-1.5 0,-0.8284271 0.671573,-1.5 1.5,-1.5 0.828427,0 1.5,0.6715729 1.5,1.5 z"
         transform="matrix(0.37629631,0,0,0.37629631,24.835556,4.1392594)" />
      <path
         transform="matrix(0.37629631,0,0,0.37629631,24.835556,5.2681483)"
         d="m -51,-0.5 c 0,0.82842712 -0.671573,1.5 -1.5,1.5 -0.828427,0 -1.5,-0.67157288 -1.5,-1.5 0,-0.8284271 0.671573,-1.5 1.5,-1.5 0.828427,0 1.5,0.6715729 1.5,1.5 z"
         sodipodi:ry="1.5"
         sodipodi:rx="1.5"
         sodipodi:cy="-0.5"
         sodipodi:cx="-52.5"
         id="path4971"
         style="fill:#000000;fill-opacity:1;stroke:none"
         sodipodi:type="arc" />
      <path
         sodipodi:type="arc"
         style="fill:#000000;fill-opacity:1;stroke:none"
         id="path4973"
         sodipodi:cx="-52.5"
         sodipodi:cy="-0.5"
         sodipodi:rx="1.5"
         sodipodi:ry="1.5"
         d="m -51,-0.5 c 0,0.82842712 -0.671573,1.5 -1.5,1.5 -0.828427,0 -1.5,-0.67157288 -1.5,-1.5 0,-0.8284271 0.671573,-1.5 1.5,-1.5 0.828427,0 1.5,0.6715729 1.5,1.5 z"
         transform="matrix(0.37629631,0,0,0.37629631,24.835556,7.5259261)" />
      <path
         transform="matrix(0.37629631,0,0,0.37629631,24.835556,6.3970372)"
         d="m -51,-0.5 c 0,0.82842712 -0.671573,1.5 -1.5,1.5 -0.828427,0 -1.5,-0.67157288 -1.5,-1.5 0,-0.8284271 0.671573,-1.5 1.5,-1.5 0.828427,0 1.5,0.6715729 1.5,1.5 z"
         sodipodi:ry="1.5"
         sodipodi:rx="1.5"
         sodipodi:cy="-0.5"
         sodipodi:cx="-52.5"
         id="path4975"
         style="fill:#000000;fill-opacity:1;stroke:none"
         sodipodi:type="arc" />
      <path
         sodipodi:type="arc"
         style="fill:#000000;fill-opacity:1;stroke:none"
         id="path4977"
         sodipodi:cx="-52.5"
         sodipodi:cy="-0.5"
         sodipodi:rx="1.5"
         sodipodi:ry="1.5"
         d="m -51,-0.5 c 0,0.82842712 -0.671573,1.5 -1.5,1.5 -0.828427,0 -1.5,-0.67157288 -1.5,-1.5 0,-0.8284271 0.671573,-1.5 1.5,-1.5 0.828427,0 1.5,0.6715729 1.5,1.5 z"
         transform="matrix(0.37629631,0,0,0.37629631,24.835556,8.654815)" />
      <path
         transform="matrix(0.37629631,0,0,0.37629631,24.835556,9.7837039)"
         d="m -51,-0.5 c 0,0.82842712 -0.671573,1.5 -1.5,1.5 -0.828427,0 -1.5,-0.67157288 -1.5,-1.5 0,-0.8284271 0.671573,-1.5 1.5,-1.5 0.828427,0 1.5,0.6715729 1.5,1.5 z"
         sodipodi:ry="1.5"
         sodipodi:rx="1.5"
         sodipodi:cy="-0.5"
         sodipodi:cx="-52.5"
         id="path4979"
         style="fill:#000000;fill-opacity:1;stroke:none"
         sodipodi:type="arc" />
      <path
         sodipodi:type="arc"
         style="fill:#000000;fill-opacity:1;stroke:none"
         id="path4981"
         sodipodi:cx="-52.5"
         sodipodi:cy="-0.5"
         sodipodi:rx="1.5"
         sodipodi:ry="1.5"
         d="m -51,-0.5 c 0,0.82842712 -0.671573,1.5 -1.5,1.5 -0.828427,0 -1.5,-0.67157288 -1.5,-1.5 0,-0.8284271 0.671573,-1.5 1.5,-1.5 0.828427,0 1.5,0.6715729 1.5,1.5 z"
         transform="matrix(0.37629631,0,0,0.37629631,25.964445,4.1392594)" />
      <path
         transform="matrix(0.37629631,0,0,0.37629631,25.964445,5.2681483)"
         d="m -51,-0.5 c 0,0.82842712 -0.671573,1.5 -1.5,1.5 -0.828427,0 -1.5,-0.67157288 -1.5,-1.5 0,-0.8284271 0.671573,-1.5 1.5,-1.5 0.828427,0 1.5,0.6715729 1.5,1.5 z"
         sodipodi:ry="1.5"
         sodipodi:rx="1.5"
         sodipodi:cy="-0.5"
         sodipodi:cx="-52.5"
         id="path4983"
         style="fill:#000000;fill-opacity:1;stroke:none"
         sodipodi:type="arc" />
      <path
         sodipodi:type="arc"
         style="fill:#000000;fill-opacity:1;stroke:none"
         id="path4985"
         sodipodi:cx="-52.5"
         sodipodi:cy="-0.5"
         sodipodi:rx="1.5"
         sodipodi:ry="1.5"
         d="m -51,-0.5 c 0,0.82842712 -0.671573,1.5 -1.5,1.5 -0.828427,0 -1.5,-0.67157288 -1.5,-1.5 0,-0.8284271 0.671573,-1.5 1.5,-1.5 0.828427,0 1.5,0.6715729 1.5,1.5 z"
         transform="matrix(0.37629631,0,0,0.37629631,25.964445,7.5259261)" />
      <path
         transform="matrix(0.37629631,0,0,0.37629631,25.964445,6.3970372)"
         d="m -51,-0.5 c 0,0.82842712 -0.671573,1.5 -1.5,1.5 -0.828427,0 -1.5,-0.67157288 -1.5,-1.5 0,-0.8284271 0.671573,-1.5 1.5,-1.5 0.828427,0 1.5,0.6715729 1.5,1.5 z"
         sodipodi:ry="1.5"
         sodipodi:rx="1.5"
         sodipodi:cy="-0.5"
         sodipodi:cx="-52.5"
         id="path4987"
         style="fill:#000000;fill-opacity:1;stroke:none"
         sodipodi:type="arc" />
      <path
         sodipodi:type="arc"
         style="fill:#000000;fill-opacity:1;stroke:none"
         id="path4989"
         sodipodi:cx="-52.5"
         sodipodi:cy="-0.5"
         sodipodi:rx="1.5"
         sodipodi:ry="1.5"
         d="m -51,-0.5 c 0,0.82842712 -0.671573,1.5 -1.5,1.5 -0.828427,0 -1.5,-0.67157288 -1.5,-1.5 0,-0.8284271 0.671573,-1.5 1.5,-1.5 0.828427,0 1.5,0.6715729 1.5,1.5 z"
         transform="matrix(0.37629631,0,0,0.37629631,25.964445,8.654815)" />
      <path
         transform="matrix(0.37629631,0,0,0.37629631,25.964445,9.7837039)"
         d="m -51,-0.5 c 0,0.82842712 -0.671573,1.5 -1.5,1.5 -0.828427,0 -1.5,-0.67157288 -1.5,-1.5 0,-0.8284271 0.671573,-1.5 1.5,-1.5 0.828427,0 1.5,0.6715729 1.5,1.5 z"
         sodipodi:ry="1.5"
         sodipodi:rx="1.5"
         sodipodi:cy="-0.5"
         sodipodi:cx="-52.5"
         id="path4991"
         style="fill:#000000;fill-opacity:1;stroke:none"
         sodipodi:type="arc" />
      <path
         transform="matrix(0.37629631,0,0,0.37629631,27.093334,4.1392594)"
         d="m -51,-0.5 c 0,0.82842712 -0.671573,1.5 -1.5,1.5 -0.828427,0 -1.5,-0.67157288 -1.5,-1.5 0,-0.8284271 0.671573,-1.5 1.5,-1.5 0.828427,0 1.5,0.6715729 1.5,1.5 z"
         sodipodi:ry="1.5"
         sodipodi:rx="1.5"
         sodipodi:cy="-0.5"
         sodipodi:cx="-52.5"
         id="path4993"
         style="fill:#000000;fill-opacity:1;stroke:none"
         sodipodi:type="arc" />
      <path
         sodipodi:type="arc"
         style="fill:#000000;fill-opacity:1;stroke:none"
         id="path4995"
         sodipodi:cx="-52.5"
         sodipodi:cy="-0.5"
         sodipodi:rx="1.5"
         sodipodi:ry="1.5"
         d="m -51,-0.5 c 0,0.82842712 -0.671573,1.5 -1.5,1.5 -0.828427,0 -1.5,-0.67157288 -1.5,-1.5 0,-0.8284271 0.671573,-1.5 1.5,-1.5 0.828427,0 1.5,0.6715729 1.5,1.5 z"
         transform="matrix(0.37629631,0,0,0.37629631,27.093334,5.2681483)" />
      <path
         transform="matrix(0.37629631,0,0,0.37629631,27.093334,7.5259261)"
         d="m -51,-0.5 c 0,0.82842712 -0.671573,1.5 -1.5,1.5 -0.828427,0 -1.5,-0.67157288 -1.5,-1.5 0,-0.8284271 0.671573,-1.5 1.5,-1.5 0.828427,0 1.5,0.6715729 1.5,1.5 z"
         sodipodi:ry="1.5"
         sodipodi:rx="1.5"
         sodipodi:cy="-0.5"
         sodipodi:cx="-52.5"
         id="path4997"
         style="fill:#000000;fill-opacity:1;stroke:none"
         sodipodi:type="arc" />
      <path
         sodipodi:type="arc"
         style="fill:#000000;fill-opacity:1;stroke:none"
         id="path4999"
         sodipodi:cx="-52.5"
         sodipodi:cy="-0.5"
         sodipodi:rx="1.5"
         sodipodi:ry="1.5"
         d="m -51,-0.5 c 0,0.82842712 -0.671573,1.5 -1.5,1.5 -0.828427,0 -1.5,-0.67157288 -1.5,-1.5 0,-0.8284271 0.671573,-1.5 1.5,-1.5 0.828427,0 1.5,0.6715729 1.5,1.5 z"
         transform="matrix(0.37629631,0,0,0.37629631,27.093334,6.3970372)" />
      <path
         transform="matrix(0.37629631,0,0,0.37629631,27.093334,8.654815)"
         d="m -51,-0.5 c 0,0.82842712 -0.671573,1.5 -1.5,1.5 -0.828427,0 -1.5,-0.67157288 -1.5,-1.5 0,-0.8284271 0.671573,-1.5 1.5,-1.5 0.828427,0 1.5,0.6715729 1.5,1.5 z"
         sodipodi:ry="1.5"
         sodipodi:rx="1.5"
         sodipodi:cy="-0.5"
         sodipodi:cx="-52.5"
         id="path5001"
         style="fill:#000000;fill-opacity:1;stroke:none"
         sodipodi:type="arc" />
      <path
         sodipodi:type="arc"
         style="fill:#000000;fill-opacity:1;stroke:none"
         id="path5003"
         sodipodi:cx="-52.5"
         sodipodi:cy="-0.5"
         sodipodi:rx="1.5"
         sodipodi:ry="1.5"
         d="m -51,-0.5 c 0,0.82842712 -0.671573,1.5 -1.5,1.5 -0.828427,0 -1.5,-0.67157288 -1.5,-1.5 0,-0.8284271 0.671573,-1.5 1.5,-1.5 0.828427,0 1.5,0.6715729 1.5,1.5 z"
         transform="matrix(0.37629631,0,0,0.37629631,27.093334,9.7837039)" />
      <path
         transform="matrix(0.37629631,0,0,0.37629631,28.222223,4.1392594)"
         d="m -51,-0.5 c 0,0.82842712 -0.671573,1.5 -1.5,1.5 -0.828427,0 -1.5,-0.67157288 -1.5,-1.5 0,-0.8284271 0.671573,-1.5 1.5,-1.5 0.828427,0 1.5,0.6715729 1.5,1.5 z"
         sodipodi:ry="1.5"
         sodipodi:rx="1.5"
         sodipodi:cy="-0.5"
         sodipodi:cx="-52.5"
         id="path5005"
         style="fill:#000000;fill-opacity:1;stroke:none"
         sodipodi:type="arc" />
      <path
         sodipodi:type="arc"
         style="fill:#000000;fill-opacity:1;stroke:none"
         id="path5007"
         sodipodi:cx="-52.5"
         sodipodi:cy="-0.5"
         sodipodi:rx="1.5"
         sodipodi:ry="1.5"
         d="m -51,-0.5 c 0,0.82842712 -0.671573,1.5 -1.5,1.5 -0.828427,0 -1.5,-0.67157288 -1.5,-1.5 0,-0.8284271 0.671573,-1.5 1.5,-1.5 0.828427,0 1.5,0.6715729 1.5,1.5 z"
         transform="matrix(0.37629631,0,0,0.37629631,28.222223,5.2681483)" />
      <path
         transform="matrix(0.37629631,0,0,0.37629631,28.222223,7.5259261)"
         d="m -51,-0.5 c 0,0.82842712 -0.671573,1.5 -1.5,1.5 -0.828427,0 -1.5,-0.67157288 -1.5,-1.5 0,-0.8284271 0.671573,-1.5 1.5,-1.5 0.828427,0 1.5,0.6715729 1.5,1.5 z"
         sodipodi:ry="1.5"
         sodipodi:rx="1.5"
         sodipodi:cy="-0.5"
         sodipodi:cx="-52.5"
         id="path5009"
         style="fill:#000000;fill-opacity:1;stroke:none"
         sodipodi:type="arc" />
      <path
         sodipodi:type="arc"
         style="fill:#000000;fill-opacity:1;stroke:none"
         id="path5011"
         sodipodi:cx="-52.5"
         sodipodi:cy="-0.5"
         sodipodi:rx="1.5"
         sodipodi:ry="1.5"
         d="m -51,-0.5 c 0,0.82842712 -0.671573,1.5 -1.5,1.5 -0.828427,0 -1.5,-0.67157288 -1.5,-1.5 0,-0.8284271 0.671573,-1.5 1.5,-1.5 0.828427,0 1.5,0.6715729 1.5,1.5 z"
         transform="matrix(0.37629631,0,0,0.37629631,28.222223,6.3970372)" />
      <path
         transform="matrix(0.37629631,0,0,0.37629631,28.222223,8.654815)"
         d="m -51,-0.5 c 0,0.82842712 -0.671573,1.5 -1.5,1.5 -0.828427,0 -1.5,-0.67157288 -1.5,-1.5 0,-0.8284271 0.671573,-1.5 1.5,-1.5 0.828427,0 1.5,0.6715729 1.5,1.5 z"
         sodipodi:ry="1.5"
         sodipodi:rx="1.5"
         sodipodi:cy="-0.5"
         sodipodi:cx="-52.5"
         id="path5013"
         style="fill:#000000;fill-opacity:1;stroke:none"
         sodipodi:type="arc" />
      <path
         sodipodi:type="arc"
         style="fill:#000000;fill-opacity:1;stroke:none"
         id="path5015"
         sodipodi:cx="-52.5"
         sodipodi:cy="-0.5"
         sodipodi:rx="1.5"
         sodipodi:ry="1.5"
         d="m -51,-0.5 c 0,0.82842712 -0.671573,1.5 -1.5,1.5 -0.828427,0 -1.5,-0.67157288 -1.5,-1.5 0,-0.8284271 0.671573,-1.5 1.5,-1.5 0.828427,0 1.5,0.6715729 1.5,1.5 z"
         transform="matrix(0.37629631,0,0,0.37629631,28.222223,9.7837039)" />
      <path
         sodipodi:type="arc"
         style="fill:#000000;fill-opacity:1;stroke:none"
         id="path5017"
         sodipodi:cx="-52.5"
         sodipodi:cy="-0.5"
         sodipodi:rx="1.5"
         sodipodi:ry="1.5"
         d="m -51,-0.5 c 0,0.82842712 -0.671573,1.5 -1.5,1.5 -0.828427,0 -1.5,-0.67157288 -1.5,-1.5 0,-0.8284271 0.671573,-1.5 1.5,-1.5 0.828427,0 1.5,0.6715729 1.5,1.5 z"
         transform="matrix(0.37629631,0,0,0.37629631,29.351112,4.1392594)" />
      <path
         transform="matrix(0.37629631,0,0,0.37629631,29.351112,5.2681483)"
         d="m -51,-0.5 c 0,0.82842712 -0.671573,1.5 -1.5,1.5 -0.828427,0 -1.5,-0.67157288 -1.5,-1.5 0,-0.8284271 0.671573,-1.5 1.5,-1.5 0.828427,0 1.5,0.6715729 1.5,1.5 z"
         sodipodi:ry="1.5"
         sodipodi:rx="1.5"
         sodipodi:cy="-0.5"
         sodipodi:cx="-52.5"
         id="path5019"
         style="fill:#000000;fill-opacity:1;stroke:none"
         sodipodi:type="arc" />
      <path
         sodipodi:type="arc"
         style="fill:#000000;fill-opacity:1;stroke:none"
         id="path5021"
         sodipodi:cx="-52.5"
         sodipodi:cy="-0.5"
         sodipodi:rx="1.5"
         sodipodi:ry="1.5"
         d="m -51,-0.5 c 0,0.82842712 -0.671573,1.5 -1.5,1.5 -0.828427,0 -1.5,-0.67157288 -1.5,-1.5 0,-0.8284271 0.671573,-1.5 1.5,-1.5 0.828427,0 1.5,0.6715729 1.5,1.5 z"
         transform="matrix(0.37629631,0,0,0.37629631,29.351112,7.5259261)" />
      <path
         transform="matrix(0.37629631,0,0,0.37629631,29.351112,6.3970372)"
         d="m -51,-0.5 c 0,0.82842712 -0.671573,1.5 -1.5,1.5 -0.828427,0 -1.5,-0.67157288 -1.5,-1.5 0,-0.8284271 0.671573,-1.5 1.5,-1.5 0.828427,0 1.5,0.6715729 1.5,1.5 z"
         sodipodi:ry="1.5"
         sodipodi:rx="1.5"
         sodipodi:cy="-0.5"
         sodipodi:cx="-52.5"
         id="path5023"
         style="fill:#000000;fill-opacity:1;stroke:none"
         sodipodi:type="arc" />
      <path
         sodipodi:type="arc"
         style="fill:#000000;fill-opacity:1;stroke:none"
         id="path5025"
         sodipodi:cx="-52.5"
         sodipodi:cy="-0.5"
         sodipodi:rx="1.5"
         sodipodi:ry="1.5"
         d="m -51,-0.5 c 0,0.82842712 -0.671573,1.5 -1.5,1.5 -0.828427,0 -1.5,-0.67157288 -1.5,-1.5 0,-0.8284271 0.671573,-1.5 1.5,-1.5 0.828427,0 1.5,0.6715729 1.5,1.5 z"
         transform="matrix(0.37629631,0,0,0.37629631,29.351112,8.654815)" />
      <path
         transform="matrix(0.37629631,0,0,0.37629631,29.351112,9.7837039)"
         d="m -51,-0.5 c 0,0.82842712 -0.671573,1.5 -1.5,1.5 -0.828427,0 -1.5,-0.67157288 -1.5,-1.5 0,-0.8284271 0.671573,-1.5 1.5,-1.5 0.828427,0 1.5,0.6715729 1.5,1.5 z"
         sodipodi:ry="1.5"
         sodipodi:rx="1.5"
         sodipodi:cy="-0.5"
         sodipodi:cx="-52.5"
         id="path5027"
         style="fill:#000000;fill-opacity:1;stroke:none"
         sodipodi:type="arc" />
    </g>
    <path
       transform="matrix(0.37629631,0,0,0.37629631,23.706667,4.1392594)"
       d="m -51,-0.5 a 1.5,1.5 0 1 1 -3,0 1.5,1.5 0 1 1 3,0 z"
       sodipodi:ry="1.5"
       sodipodi:rx="1.5"
       sodipodi:cy="-0.5"
       sodipodi:cx="-52.5"
       id="path4874"
       style="fill:#e76a6a;fill-opacity:1;stroke:none"
       sodipodi:type="arc" />
    <path
       sodipodi:type="arc"
       style="fill:#e76a6a;fill-opacity:1;stroke:none"
       id="path4876"
       sodipodi:cx="-52.5"
       sodipodi:cy="-0.5"
       sodipodi:rx="1.5"
       sodipodi:ry="1.5"
       d="m -51,-0.5 a 1.5,1.5 0 1 1 -3,0 1.5,1.5 0 1 1 3,0 z"
       transform="matrix(0.37629631,0,0,0.37629631,23.706667,5.2681483)" />
    <path
       transform="matrix(0.37629631,0,0,0.37629631,23.706667,7.5259261)"
       d="m -51,-0.5 a 1.5,1.5 0 1 1 -3,0 1.5,1.5 0 1 1 3,0 z"
       sodipodi:ry="1.5"
       sodipodi:rx="1.5"
       sodipodi:cy="-0.5"
       sodipodi:cx="-52.5"
       id="path4889"
       style="fill:#e76a6a;fill-opacity:1;stroke:none"
       sodipodi:type="arc" />
    <path
       sodipodi:type="arc"
       style="fill:#e76a6a;fill-opacity:1;stroke:none"
       id="path4891"
       sodipodi:cx="-52.5"
       sodipodi:cy="-0.5"
       sodipodi:rx="1.5"
       sodipodi:ry="1.5"
       d="m -51,-0.5 a 1.5,1.5 0 1 1 -3,0 1.5,1.5 0 1 1 3,0 z"
       transform="matrix(0.37629631,0,0,0.37629631,23.706667,6.3970372)" />
    <path
       transform="matrix(0.37629631,0,0,0.37629631,23.706667,8.654815)"
       d="m -51,-0.5 a 1.5,1.5 0 1 1 -3,0 1.5,1.5 0 1 1 3,0 z"
       sodipodi:ry="1.5"
       sodipodi:rx="1.5"
       sodipodi:cy="-0.5"
       sodipodi:cx="-52.5"
       id="path4893"
       style="fill:#e76a6a;fill-opacity:1;stroke:none"
       sodipodi:type="arc" />
    <path
       sodipodi:type="arc"
       style="fill:#e76a6a;fill-opacity:1;stroke:none"
       id="path4895"
       sodipodi:cx="-52.5"
       sodipodi:cy="-0.5"
       sodipodi:rx="1.5"
       sodipodi:ry="1.5"
       d="m -51,-0.5 a 1.5,1.5 0 1 1 -3,0 1.5,1.5 0 1 1 3,0 z"
       transform="matrix(0.37629631,0,0,0.37629631,23.706667,9.7837039)" />
    <path
       sodipodi:type="arc"
       style="fill:#e76a6a;fill-opacity:1;stroke:none"
       id="path4897"
       sodipodi:cx="-52.5"
       sodipodi:cy="-0.5"
       sodipodi:rx="1.5"
       sodipodi:ry="1.5"
       d="m -51,-0.5 a 1.5,1.5 0 1 1 -3,0 1.5,1.5 0 1 1 3,0 z"
       transform="matrix(0.37629631,0,0,0.37629631,24.835556,4.1392594)" />
    <path
       transform="matrix(0.37629631,0,0,0.37629631,24.835556,5.2681483)"
       d="m -51,-0.5 a 1.5,1.5 0 1 1 -3,0 1.5,1.5 0 1 1 3,0 z"
       sodipodi:ry="1.5"
       sodipodi:rx="1.5"
       sodipodi:cy="-0.5"
       sodipodi:cx="-52.5"
       id="path4899"
       style="fill:#e76a6a;fill-opacity:1;stroke:none"
       sodipodi:type="arc" />
    <path
       sodipodi:type="arc"
       style="fill:#e76a6a;fill-opacity:1;stroke:none"
       id="path4901"
       sodipodi:cx="-52.5"
       sodipodi:cy="-0.5"
       sodipodi:rx="1.5"
       sodipodi:ry="1.5"
       d="m -51,-0.5 a 1.5,1.5 0 1 1 -3,0 1.5,1.5 0 1 1 3,0 z"
       transform="matrix(0.37629631,0,0,0.37629631,24.835556,7.5259261)" />
    <path
       transform="matrix(0.37629631,0,0,0.37629631,24.835556,6.3970372)"
       d="m -51,-0.5 a 1.5,1.5 0 1 1 -3,0 1.5,1.5 0 1 1 3,0 z"
       sodipodi:ry="1.5"
       sodipodi:rx="1.5"
       sodipodi:cy="-0.5"
       sodipodi:cx="-52.5"
       id="path4903"
       style="fill:#e76a6a;fill-opacity:1;stroke:none"
       sodipodi:type="arc" />
    <path
       sodipodi:type="arc"
       style="fill:#e76a6a;fill-opacity:1;stroke:none"
       id="path4905"
       sodipodi:cx="-52.5"
       sodipodi:cy="-0.5"
       sodipodi:rx="1.5"
       sodipodi:ry="1.5"
       d="m -51,-0.5 a 1.5,1.5 0 1 1 -3,0 1.5,1.5 0 1 1 3,0 z"
       transform="matrix(0.37629631,0,0,0.37629631,24.835556,8.654815)" />
    <path
       transform="matrix(0.37629631,0,0,0.37629631,24.835556,9.7837039)"
       d="m -51,-0.5 a 1.5,1.5 0 1 1 -3,0 1.5,1.5 0 1 1 3,0 z"
       sodipodi:ry="1.5"
       sodipodi:rx="1.5"
       sodipodi:cy="-0.5"
       sodipodi:cx="-52.5"
       id="path4907"
       style="fill:#e76a6a;fill-opacity:1;stroke:none"
       sodipodi:type="arc" />
    <path
       sodipodi:type="arc"
       style="fill:#e3c72e;fill-opacity:1;stroke:none"
       id="path4909"
       sodipodi:cx="-52.5"
       sodipodi:cy="-0.5"
       sodipodi:rx="1.5"
       sodipodi:ry="1.5"
       d="m -51,-0.5 a 1.5,1.5 0 1 1 -3,0 1.5,1.5 0 1 1 3,0 z"
       transform="matrix(0.37629631,0,0,0.37629631,25.964445,4.1392594)" />
    <path
       transform="matrix(0.37629631,0,0,0.37629631,25.964445,5.2681483)"
       d="m -51,-0.5 a 1.5,1.5 0 1 1 -3,0 1.5,1.5 0 1 1 3,0 z"
       sodipodi:ry="1.5"
       sodipodi:rx="1.5"
       sodipodi:cy="-0.5"
       sodipodi:cx="-52.5"
       id="path4911"
       style="fill:#e3c72e;fill-opacity:1;stroke:none"
       sodipodi:type="arc" />
    <path
       sodipodi:type="arc"
       style="fill:#e3c72e;fill-opacity:1;stroke:none"
       id="path4913"
       sodipodi:cx="-52.5"
       sodipodi:cy="-0.5"
       sodipodi:rx="1.5"
       sodipodi:ry="1.5"
       d="m -51,-0.5 a 1.5,1.5 0 1 1 -3,0 1.5,1.5 0 1 1 3,0 z"
       transform="matrix(0.37629631,0,0,0.37629631,25.964445,7.5259261)" />
    <path
       transform="matrix(0.37629631,0,0,0.37629631,25.964445,6.3970372)"
       d="m -51,-0.5 a 1.5,1.5 0 1 1 -3,0 1.5,1.5 0 1 1 3,0 z"
       sodipodi:ry="1.5"
       sodipodi:rx="1.5"
       sodipodi:cy="-0.5"
       sodipodi:cx="-52.5"
       id="path4915"
       style="fill:#e3c72e;fill-opacity:1;stroke:none"
       sodipodi:type="arc" />
    <path
       sodipodi:type="arc"
       style="fill:#e3c72e;fill-opacity:1;stroke:none"
       id="path4917"
       sodipodi:cx="-52.5"
       sodipodi:cy="-0.5"
       sodipodi:rx="1.5"
       sodipodi:ry="1.5"
       d="m -51,-0.5 a 1.5,1.5 0 1 1 -3,0 1.5,1.5 0 1 1 3,0 z"
       transform="matrix(0.37629631,0,0,0.37629631,25.964445,8.654815)" />
    <path
       transform="matrix(0.37629631,0,0,0.37629631,25.964445,9.7837039)"
       d="m -51,-0.5 a 1.5,1.5 0 1 1 -3,0 1.5,1.5 0 1 1 3,0 z"
       sodipodi:ry="1.5"
       sodipodi:rx="1.5"
       sodipodi:cy="-0.5"
       sodipodi:cx="-52.5"
       id="path4919"
       style="fill:#e3c72e;fill-opacity:1;stroke:none"
       sodipodi:type="arc" />
    <path
       transform="matrix(0.37629631,0,0,0.37629631,27.093334,4.1392594)"
       d="m -51,-0.5 a 1.5,1.5 0 1 1 -3,0 1.5,1.5 0 1 1 3,0 z"
       sodipodi:ry="1.5"
       sodipodi:rx="1.5"
       sodipodi:cy="-0.5"
       sodipodi:cx="-52.5"
       id="path4921"
       style="fill:#e3c72e;fill-opacity:1;stroke:none"
       sodipodi:type="arc" />
    <path
       sodipodi:type="arc"
       style="fill:#e3c72e;fill-opacity:1;stroke:none"
       id="path4923"
       sodipodi:cx="-52.5"
       sodipodi:cy="-0.5"
       sodipodi:rx="1.5"
       sodipodi:ry="1.5"
       d="m -51,-0.5 a 1.5,1.5 0 1 1 -3,0 1.5,1.5 0 1 1 3,0 z"
       transform="matrix(0.37629631,0,0,0.37629631,27.093334,5.2681483)" />
    <path
       transform="matrix(0.37629631,0,0,0.37629631,27.093334,7.5259261)"
       d="m -51,-0.5 a 1.5,1.5 0 1 1 -3,0 1.5,1.5 0 1 1 3,0 z"
       sodipodi:ry="1.5"
       sodipodi:rx="1.5"
       sodipodi:cy="-0.5"
       sodipodi:cx="-52.5"
       id="path4925"
       style="fill:#e3c72e;fill-opacity:1;stroke:none"
       sodipodi:type="arc" />
    <path
       sodipodi:type="arc"
       style="fill:#e3c72e;fill-opacity:1;stroke:none"
       id="path4927"
       sodipodi:cx="-52.5"
       sodipodi:cy="-0.5"
       sodipodi:rx="1.5"
       sodipodi:ry="1.5"
       d="m -51,-0.5 a 1.5,1.5 0 1 1 -3,0 1.5,1.5 0 1 1 3,0 z"
       transform="matrix(0.37629631,0,0,0.37629631,27.093334,6.3970372)" />
    <path
       transform="matrix(0.37629631,0,0,0.37629631,27.093334,8.654815)"
       d="m -51,-0.5 a 1.5,1.5 0 1 1 -3,0 1.5,1.5 0 1 1 3,0 z"
       sodipodi:ry="1.5"
       sodipodi:rx="1.5"
       sodipodi:cy="-0.5"
       sodipodi:cx="-52.5"
       id="path4929"
       style="fill:#e3c72e;fill-opacity:1;stroke:none"
       sodipodi:type="arc" />
    <path
       sodipodi:type="arc"
       style="fill:#e3c72e;fill-opacity:1;stroke:none"
       id="path4931"
       sodipodi:cx="-52.5"
       sodipodi:cy="-0.5"
       sodipodi:rx="1.5"
       sodipodi:ry="1.5"
       d="m -51,-0.5 a 1.5,1.5 0 1 1 -3,0 1.5,1.5 0 1 1 3,0 z"
       transform="matrix(0.37629631,0,0,0.37629631,27.093334,9.7837039)" />
    <path
       transform="matrix(0.37629631,0,0,0.37629631,28.222223,4.1392594)"
       d="m -51,-0.5 a 1.5,1.5 0 1 1 -3,0 1.5,1.5 0 1 1 3,0 z"
       sodipodi:ry="1.5"
       sodipodi:rx="1.5"
       sodipodi:cy="-0.5"
       sodipodi:cx="-52.5"
       id="path4933"
       style="fill:#5bc548;fill-opacity:1;stroke:none"
       sodipodi:type="arc" />
    <path
       sodipodi:type="arc"
       style="fill:#5bc548;fill-opacity:1;stroke:none"
       id="path4935"
       sodipodi:cx="-52.5"
       sodipodi:cy="-0.5"
       sodipodi:rx="1.5"
       sodipodi:ry="1.5"
       d="m -51,-0.5 a 1.5,1.5 0 1 1 -3,0 1.5,1.5 0 1 1 3,0 z"
       transform="matrix(0.37629631,0,0,0.37629631,28.222223,5.2681483)" />
    <path
       transform="matrix(0.37629631,0,0,0.37629631,28.222223,7.5259261)"
       d="m -51,-0.5 a 1.5,1.5 0 1 1 -3,0 1.5,1.5 0 1 1 3,0 z"
       sodipodi:ry="1.5"
       sodipodi:rx="1.5"
       sodipodi:cy="-0.5"
       sodipodi:cx="-52.5"
       id="path4937"
       style="fill:#5bc548;fill-opacity:1;stroke:none"
       sodipodi:type="arc" />
    <path
       sodipodi:type="arc"
       style="fill:#5bc548;fill-opacity:1;stroke:none"
       id="path4939"
       sodipodi:cx="-52.5"
       sodipodi:cy="-0.5"
       sodipodi:rx="1.5"
       sodipodi:ry="1.5"
       d="m -51,-0.5 a 1.5,1.5 0 1 1 -3,0 1.5,1.5 0 1 1 3,0 z"
       transform="matrix(0.37629631,0,0,0.37629631,28.222223,6.3970372)" />
    <path
       transform="matrix(0.37629631,0,0,0.37629631,28.222223,8.654815)"
       d="m -51,-0.5 a 1.5,1.5 0 1 1 -3,0 1.5,1.5 0 1 1 3,0 z"
       sodipodi:ry="1.5"
       sodipodi:rx="1.5"
       sodipodi:cy="-0.5"
       sodipodi:cx="-52.5"
       id="path4941"
       style="fill:#5bc548;fill-opacity:1;stroke:none"
       sodipodi:type="arc" />
    <path
       sodipodi:type="arc"
       style="fill:#5bc548;fill-opacity:1;stroke:none"
       id="path4943"
       sodipodi:cx="-52.5"
       sodipodi:cy="-0.5"
       sodipodi:rx="1.5"
       sodipodi:ry="1.5"
       d="m -51,-0.5 a 1.5,1.5 0 1 1 -3,0 1.5,1.5 0 1 1 3,0 z"
       transform="matrix(0.37629631,0,0,0.37629631,28.222223,9.7837039)" />
    <path
       sodipodi:type="arc"
       style="fill:#5bc548;fill-opacity:1;stroke:none"
       id="path4945"
       sodipodi:cx="-52.5"
       sodipodi:cy="-0.5"
       sodipodi:rx="1.5"
       sodipodi:ry="1.5"
       d="m -51,-0.5 a 1.5,1.5 0 1 1 -3,0 1.5,1.5 0 1 1 3,0 z"
       transform="matrix(0.37629631,0,0,0.37629631,29.351112,4.1392594)" />
    <path
       transform="matrix(0.37629631,0,0,0.37629631,29.351112,5.2681483)"
       d="m -51,-0.5 a 1.5,1.5 0 1 1 -3,0 1.5,1.5 0 1 1 3,0 z"
       sodipodi:ry="1.5"
       sodipodi:rx="1.5"
       sodipodi:cy="-0.5"
       sodipodi:cx="-52.5"
       id="path4947"
       style="fill:#5bc548;fill-opacity:1;stroke:none"
       sodipodi:type="arc" />
    <path
       sodipodi:type="arc"
       style="fill:#5bc548;fill-opacity:1;stroke:none"
       id="path4949"
       sodipodi:cx="-52.5"
       sodipodi:cy="-0.5"
       sodipodi:rx="1.5"
       sodipodi:ry="1.5"
       d="m -51,-0.5 a 1.5,1.5 0 1 1 -3,0 1.5,1.5 0 1 1 3,0 z"
       transform="matrix(0.37629631,0,0,0.37629631,29.351112,7.5259261)" />
    <path
       transform="matrix(0.37629631,0,0,0.37629631,29.351112,6.3970372)"
       d="m -51,-0.5 a 1.5,1.5 0 1 1 -3,0 1.5,1.5 0 1 1 3,0 z"
       sodipodi:ry="1.5"
       sodipodi:rx="1.5"
       sodipodi:cy="-0.5"
       sodipodi:cx="-52.5"
       id="path4951"
       style="fill:#5bc548;fill-opacity:1;stroke:none"
       sodipodi:type="arc" />
    <path
       sodipodi:type="arc"
       style="fill:#5bc548;fill-opacity:1;stroke:none"
       id="path4953"
       sodipodi:cx="-52.5"
       sodipodi:cy="-0.5"
       sodipodi:rx="1.5"
       sodipodi:ry="1.5"
       d="m -51,-0.5 a 1.5,1.5 0 1 1 -3,0 1.5,1.5 0 1 1 3,0 z"
       transform="matrix(0.37629631,0,0,0.37629631,29.351112,8.654815)" />
    <path
       transform="matrix(0.37629631,0,0,0.37629631,29.351112,9.7837039)"
       d="m -51,-0.5 a 1.5,1.5 0 1 1 -3,0 1.5,1.5 0 1 1 3,0 z"
       sodipodi:ry="1.5"
       sodipodi:rx="1.5"
       sodipodi:cy="-0.5"
       sodipodi:cx="-52.5"
       id="path4955"
       style="fill:#5bc548;fill-opacity:1;stroke:none"
       sodipodi:type="arc" />
    <path
       style="opacity:0.35;fill:#000000;fill-opacity:1;stroke:none"
       d="m 1.1288889,12.417778 11.2888881,8.5e-5 c -5.6444436,-0.282222 -5.6444436,-0.282222 -11.2888885,0 z"
       id="path3800"
       inkscape:connector-curvature="0"
       sodipodi:nodetypes="cccc" />
    <path
       sodipodi:nodetypes="cccc"
       inkscape:connector-curvature="0"
       id="path3804"
       d="m 1.1288899,1.1289451 11.2888871,-5.65e-5 c -5.6444425,0.2822223 -5.6444425,0.2822223 -11.2888875,0 z"
       style="opacity:0.75;fill:#ffffff;fill-opacity:1;stroke:none" />
  </g>
</svg>
