<?xml version="1.0" encoding="UTF-8" standalone="no"?>
<svg
   xmlns:dc="http://purl.org/dc/elements/1.1/"
   xmlns:cc="http://creativecommons.org/ns#"
   xmlns:rdf="http://www.w3.org/1999/02/22-rdf-syntax-ns#"
   xmlns:svg="http://www.w3.org/2000/svg"
   xmlns="http://www.w3.org/2000/svg"
   xmlns:xlink="http://www.w3.org/1999/xlink"
   xmlns:sodipodi="http://sodipodi.sourceforge.net/DTD/sodipodi-0.dtd"
   xmlns:inkscape="http://www.inkscape.org/namespaces/inkscape"
   viewBox="0 0 48 48"
   id="svg2"
   version="1.1"
   inkscape:version="0.48.5 r10040"
   width="100%"
   height="100%"
   sodipodi:docname="icon.svg">
  <metadata
     id="metadata69">
    <rdf:RDF>
      <cc:Work
         rdf:about="">
        <dc:format>image/svg+xml</dc:format>
        <dc:type
           rdf:resource="http://purl.org/dc/dcmitype/StillImage" />
      </cc:Work>
    </rdf:RDF>
  </metadata>
  <sodipodi:namedview
     pagecolor="#ffffff"
     bordercolor="#666666"
     borderopacity="1"
     objecttolerance="10"
     gridtolerance="10"
     guidetolerance="10"
     inkscape:pageopacity="0"
     inkscape:pageshadow="2"
     inkscape:window-width="1301"
     inkscape:window-height="744"
     id="namedview67"
     showgrid="true"
     inkscape:zoom="9.0450742"
     inkscape:cx="23.917701"
     inkscape:cy="22.938289"
     inkscape:window-x="65"
     inkscape:window-y="24"
     inkscape:window-maximized="1"
     inkscape:current-layer="svg2">
    <inkscape:grid
       type="xygrid"
       id="grid3046" />
  </sodipodi:namedview>
  <defs
     id="defs4">
    <linearGradient
       id="linearGradient3764"
       x1="1"
       x2="47"
       gradientUnits="userSpaceOnUse"
       gradientTransform="matrix(0,-1,1,0,-1.5e-6,47.999998)">
      <stop
         stop-color="#3d3d3d"
         stop-opacity="1"
         id="stop7" />
      <stop
         offset="1"
         stop-color="#474747"
         stop-opacity="1"
         id="stop9"
         style="stop-color:#585858;stop-opacity:1;" />
    </linearGradient>
    <clipPath
       id="clipPath-511268767">
      <g
         transform="translate(0,-1004.3622)"
         id="g17">
        <path
           d="m -24 13 c 0 1.105 -0.672 2 -1.5 2 -0.828 0 -1.5 -0.895 -1.5 -2 0 -1.105 0.672 -2 1.5 -2 0.828 0 1.5 0.895 1.5 2 z"
           transform="matrix(15.333333,0,0,11.5,414.99999,878.8622)"
           fill="#1890d0"
           id="path19" />
      </g>
    </clipPath>
    <linearGradient
       inkscape:collect="always"
       xlink:href="#linearGradient3764"
       id="linearGradient3833"
       x1="4"
       y1="24"
       x2="44"
       y2="24"
       gradientUnits="userSpaceOnUse" />
  </defs>
  <rect
     style="fill:url(#linearGradient3833);fill-opacity:1.0;stroke:none"
     id="rect3048"
     width="40"
     height="40"
     x="4"
     y="4" />
  <g
     id="g29" />
  <g
     id="g33" />
  <g
     id="g51">
    <g
       clip-path="url(#clipPath-511268767)"
       id="g53">
      <!-- color: #474747 -->
      <g
         id="g55">
        <path
           d="m 31.13 20.06 c 1.086 0.348 0.133 1.965 1.691 2.754 c 1.777 0.902 2.664 -1.379 3.73 0.25 c 1.066 1.629 -1.477 1.379 -1.406 3.297 c 0.074 1.918 2.59 1.508 1.645 3.203 c -0.941 1.691 -1.988 -0.527 -3.699 0.484 c -1.707 1.016 -0.074 2.887 -2.086 2.953 c -2.01 0.063 -0.516 -1.906 -2.297 -2.813 c -1.777 -0.902 -2.664 1.379 -3.73 -0.25 c -1.066 -1.629 1.473 -1.379 1.402 -3.297 c -0.07 -1.914 -2.586 -1.508 -1.645 -3.203 c 0.945 -1.691 1.992 0.531 3.699 -0.484 c 1.711 -1.012 0.078 -2.887 2.09 -2.949 c 0.25 -0.008 0.449 0.004 0.605 0.055 m -0.023 4.883 c -0.895 -0.184 -1.777 0.363 -1.969 1.23 c -0.191 0.855 0.383 1.707 1.281 1.887 c 0.895 0.184 1.777 -0.363 1.969 -1.23 c 0.191 -0.852 -0.383 -1.707 -1.281 -1.887 m 0 0"
           fill="#4dde5b"
           stroke="none"
           fill-rule="nonzero"
           fill-opacity="1"
           id="path57" />
        <path
           d="m 22.484 12.06 c 1.09 0.348 0.137 1.961 1.691 2.754 c 1.777 0.902 2.664 -1.379 3.73 0.25 c 1.066 1.629 -1.473 1.379 -1.402 3.297 c 0.07 1.914 2.586 1.508 1.645 3.203 c -0.941 1.691 -1.992 -0.531 -3.699 0.484 c -1.707 1.012 -0.074 2.887 -2.086 2.949 c -2.02 0.066 -0.52 -1.906 -2.297 -2.809 c -1.781 -0.902 -2.664 1.379 -3.73 -0.25 c -1.066 -1.629 1.473 -1.379 1.402 -3.297 c -0.07 -1.918 -2.586 -1.508 -1.645 -3.203 c 0.941 -1.691 1.992 0.527 3.699 -0.484 c 1.707 -1.016 0.074 -2.887 2.086 -2.953 c 0.254 -0.008 0.449 0.008 0.605 0.059 m -0.02 4.883 c -0.898 -0.184 -1.777 0.363 -1.977 1.23 c -0.188 0.855 0.391 1.707 1.277 1.887 c 0.898 0.184 1.777 -0.363 1.969 -1.23 c 0.191 -0.852 -0.383 -1.707 -1.27 -1.887 m 0 0"
           fill="#fb5969"
           stroke="none"
           fill-rule="nonzero"
           fill-opacity="1"
           id="path59" />
        <path
           d="m 19.605 23.05 c 1.086 0.348 0.133 1.965 1.691 2.754 c 1.777 0.906 2.664 -1.379 3.73 0.254 c 1.066 1.629 -1.477 1.375 -1.402 3.293 c 0.07 1.918 2.586 1.512 1.641 3.203 c -0.941 1.695 -1.988 -0.527 -3.699 0.484 c -1.707 1.016 -0.074 2.891 -2.086 2.953 c -2.01 0.063 -0.516 -1.906 -2.297 -2.809 c -1.777 -0.906 -2.664 1.379 -3.73 -0.254 c -1.066 -1.629 1.477 -1.375 1.402 -3.293 c -0.07 -1.918 -2.586 -1.52 -1.641 -3.203 c 0.941 -1.695 1.988 0.527 3.699 -0.484 c 1.707 -1.016 0.074 -2.891 2.086 -2.953 c 0.25 -0.008 0.449 0.008 0.605 0.055 m -0.023 4.883 c -0.895 -0.184 -1.777 0.367 -1.969 1.227 c -0.191 0.863 0.383 1.707 1.281 1.891 c 0.895 0.184 1.777 -0.367 1.969 -1.227 c 0.191 -0.863 -0.383 -1.707 -1.281 -1.891 m 0 0"
           fill="#2cb0de"
           stroke="none"
           fill-rule="nonzero"
           fill-opacity="1"
           id="path61" />
      </g>
    </g>
  </g>
  <path
     style="opacity:0.35;fill:#000000;fill-opacity:1;stroke:none"
     d="M 4.0000014,43.9997 43.999998,44 C 24.000001,43 24.000001,43 4,44 z"
     id="path3800"
     inkscape:connector-curvature="0"
     sodipodi:nodetypes="cccc" />
  <path
     sodipodi:nodetypes="cccc"
     inkscape:connector-curvature="0"
     id="path3804"
     d="m 4.0000049,3.9999 39.9999961,-2e-4 c -19.999996,1 -19.999996,1 -39.9999975,0 z"
     style="opacity:0.75;fill:#ffffff;fill-opacity:1;stroke:none" />
</svg>
