<?xml version="1.0" encoding="UTF-8" standalone="no"?>
<svg
   xmlns:dc="http://purl.org/dc/elements/1.1/"
   xmlns:cc="http://creativecommons.org/ns#"
   xmlns:rdf="http://www.w3.org/1999/02/22-rdf-syntax-ns#"
   xmlns:svg="http://www.w3.org/2000/svg"
   xmlns="http://www.w3.org/2000/svg"
   xmlns:xlink="http://www.w3.org/1999/xlink"
   xmlns:sodipodi="http://sodipodi.sourceforge.net/DTD/sodipodi-0.dtd"
   xmlns:inkscape="http://www.inkscape.org/namespaces/inkscape"
   viewBox="0 0 48 48"
   id="svg2"
   version="1.1"
   inkscape:version="0.48.5 r10040"
   width="100%"
   height="100%"
   sodipodi:docname="indicator-remindor.svg">
  <metadata
     id="metadata77">
    <rdf:RDF>
      <cc:Work
         rdf:about="">
        <dc:format>image/svg+xml</dc:format>
        <dc:type
           rdf:resource="http://purl.org/dc/dcmitype/StillImage" />
      </cc:Work>
    </rdf:RDF>
  </metadata>
  <sodipodi:namedview
     pagecolor="#ffffff"
     bordercolor="#666666"
     borderopacity="1"
     objecttolerance="10"
     gridtolerance="10"
     guidetolerance="10"
     inkscape:pageopacity="0"
     inkscape:pageshadow="2"
     inkscape:window-width="1301"
     inkscape:window-height="744"
     id="namedview75"
     showgrid="true"
     inkscape:zoom="12.791667"
     inkscape:cx="33.297562"
     inkscape:cy="25.967988"
     inkscape:window-x="65"
     inkscape:window-y="24"
     inkscape:window-maximized="1"
     inkscape:current-layer="svg2">
    <inkscape:grid
       type="xygrid"
       id="grid3054" />
  </sodipodi:namedview>
  <defs
     id="defs4">
    <linearGradient
       id="linearGradient3764"
       x1="1"
       x2="47"
       gradientUnits="userSpaceOnUse"
       gradientTransform="matrix(0,-1,1,0,-1.5e-6,47.999998)">
      <stop
         stop-color="#446c94"
         stop-opacity="1"
         id="stop7" />
      <stop
         offset="1"
         stop-color="#4a75a2"
         stop-opacity="1"
         id="stop9"
         style="stop-color:#6f95bc;stop-opacity:1;" />
    </linearGradient>
    <clipPath
       id="clipPath-016014403">
      <g
         transform="translate(0,-1004.3622)"
         id="g12">
        <path
           d="m -24 13 c 0 1.105 -0.672 2 -1.5 2 -0.828 0 -1.5 -0.895 -1.5 -2 0 -1.105 0.672 -2 1.5 -2 0.828 0 1.5 0.895 1.5 2 z"
           transform="matrix(15.333333,0,0,11.5,414.99999,878.8622)"
           fill="#1890d0"
           id="path14" />
      </g>
    </clipPath>
    <clipPath
       id="clipPath-021646789">
      <g
         transform="translate(0,-1004.3622)"
         id="g17">
        <path
           d="m -24 13 c 0 1.105 -0.672 2 -1.5 2 -0.828 0 -1.5 -0.895 -1.5 -2 0 -1.105 0.672 -2 1.5 -2 0.828 0 1.5 0.895 1.5 2 z"
           transform="matrix(15.333333,0,0,11.5,414.99999,878.8622)"
           fill="#1890d0"
           id="path19" />
      </g>
    </clipPath>
    <linearGradient
       y2="1028.3622"
       x2="44"
       y1="1028.3622"
       x1="4"
       gradientTransform="translate(1.5636597e-7,-1004.3622)"
       gradientUnits="userSpaceOnUse"
       id="linearGradient3019"
       xlink:href="#linearGradient3764"
       inkscape:collect="always" />
  </defs>
  <rect
     style="fill:url(#linearGradient3019);fill-opacity:1.0;stroke:none"
     id="rect3758"
     width="40"
     height="40"
     x="4"
     y="4"
     ry="0" />
  <path
     style="opacity:0.35;fill:#000000;fill-opacity:1;stroke:none"
     d="m 4.0000016,43.999717 39.9999964,3e-4 c -19.999997,-1 -19.999997,-1 -39.9999978,0 z"
     id="path3800"
     inkscape:connector-curvature="0"
     sodipodi:nodetypes="cccc" />
  <path
     sodipodi:nodetypes="cccc"
     inkscape:connector-curvature="0"
     id="path3804"
     d="m 4.0000051,3.9999172 39.9999959,-2e-4 c -19.999996,1 -19.999996,1 -39.9999973,0 z"
     style="opacity:0.75;fill:#ffffff;fill-opacity:1;stroke:none" />
  <g
     id="g33" />
  <g
     id="g35">
    <g
       clip-path="url(#clipPath-016014403)"
       id="g37">
      <g
         transform="translate(1,1)"
         id="g39">
        <g
           opacity="0.1"
           id="g41">
          <!-- color: #4a75a2 -->
          <g
             id="g43">
            <path
               d="m 34 24 c 0 5.52 -4.477 9.996 -9.996 9.996 c -5.523 0 -10 -4.477 -10 -9.996 c 0 -5.523 4.477 -10 10 -10 c 5.52 0 9.996 4.477 9.996 10 m 0 0"
               fill="#000"
               stroke="none"
               fill-rule="nonzero"
               fill-opacity="0.133"
               id="path45" />
            <path
               d="m 22.438 23.73 l -5.168 -5.168 c -0.359 -0.359 -0.359 -0.938 0 -1.293 c 0.355 -0.359 0.934 -0.359 1.293 0 l 5.168 5.168 c 0.359 0.359 0.359 0.938 0 1.293 c -0.355 0.359 -0.934 0.359 -1.293 0 m 0 0"
               fill="#000"
               stroke="none"
               fill-rule="nonzero"
               fill-opacity="1"
               id="path47" />
            <path
               d="m 23.934 23 l 13.13 0 c 0.516 0 0.941 0.418 0.941 0.934 l 0 0.129 c 0 0.516 -0.426 0.934 -0.941 0.934 l -13.13 0 c -0.516 0 -0.934 -0.418 -0.934 -0.934 l 0 -0.129 c 0 -0.516 0.418 -0.934 0.934 -0.934 m 0 0"
               fill="#000"
               stroke="none"
               fill-rule="nonzero"
               fill-opacity="1"
               id="path49" />
            <path
               d="m 16.555 36.25 l 7.06 -13 c 0.133 -0.238 0.418 -0.32 0.648 -0.18 c 0.227 0.137 0.301 0.441 0.172 0.684 l -7.06 13 c -0.129 0.238 -0.418 0.32 -0.645 0.18 c -0.223 -0.137 -0.301 -0.441 -0.172 -0.68 m 0 0"
               fill="#000"
               stroke="none"
               fill-rule="nonzero"
               fill-opacity="1"
               id="path51" />
            <path
               d="m 26 24 c 0 1.102 -0.895 2 -2 2 c -1.105 0 -2 -0.898 -2 -2 c 0 -1.105 0.895 -2 2 -2 c 1.105 0 2 0.895 2 2 m 0 0"
               fill="#000"
               stroke="none"
               fill-rule="nonzero"
               fill-opacity="1"
               id="path53" />
          </g>
        </g>
      </g>
    </g>
  </g>
  <g
     id="g55">
    <g
       clip-path="url(#clipPath-021646789)"
       id="g57">
      <!-- color: #4a75a2 -->
      <g
         id="g59">
        <path
           d="m 34 24 c 0 5.52 -4.477 9.996 -9.996 9.996 c -5.523 0 -10 -4.477 -10 -9.996 c 0 -5.523 4.477 -10 10 -10 c 5.52 0 9.996 4.477 9.996 10 m 0 0"
           fill="#f9f9f9"
           stroke="none"
           fill-rule="nonzero"
           fill-opacity="0.133"
           id="path61" />
        <path
           d="m 22.438 23.73 l -5.168 -5.168 c -0.359 -0.359 -0.359 -0.938 0 -1.293 c 0.355 -0.359 0.934 -0.359 1.293 0 l 5.168 5.168 c 0.359 0.359 0.359 0.938 0 1.293 c -0.355 0.359 -0.934 0.359 -1.293 0 m 0 0"
           fill="#f9f9f9"
           stroke="none"
           fill-rule="nonzero"
           fill-opacity="1"
           id="path63" />
        <path
           d="m 23.934 23 l 13.13 0 c 0.516 0 0.941 0.418 0.941 0.934 l 0 0.129 c 0 0.516 -0.426 0.934 -0.941 0.934 l -13.13 0 c -0.516 0 -0.934 -0.418 -0.934 -0.934 l 0 -0.129 c 0 -0.516 0.418 -0.934 0.934 -0.934 m 0 0"
           fill="#f9f9f9"
           stroke="none"
           fill-rule="nonzero"
           fill-opacity="1"
           id="path65" />
        <path
           d="m 16.555 36.25 l 7.06 -13 c 0.133 -0.238 0.418 -0.32 0.648 -0.18 c 0.227 0.137 0.301 0.441 0.172 0.684 l -7.06 13 c -0.129 0.238 -0.418 0.32 -0.645 0.18 c -0.223 -0.137 -0.301 -0.441 -0.172 -0.68 m 0 0"
           fill="#e57878"
           stroke="none"
           fill-rule="nonzero"
           fill-opacity="1"
           id="path67" />
        <path
           d="m 26 24 c 0 1.102 -0.895 2 -2 2 c -1.105 0 -2 -0.898 -2 -2 c 0 -1.105 0.895 -2 2 -2 c 1.105 0 2 0.895 2 2 m 0 0"
           fill="#dedede"
           stroke="none"
           fill-rule="nonzero"
           fill-opacity="1"
           id="path69" />
      </g>
    </g>
  </g>
</svg>
