<?xml version="1.0" encoding="UTF-8" standalone="no"?>
<!-- Created with Inkscape (http://www.inkscape.org/) -->

<svg
   xmlns:dc="http://purl.org/dc/elements/1.1/"
   xmlns:cc="http://creativecommons.org/ns#"
   xmlns:rdf="http://www.w3.org/1999/02/22-rdf-syntax-ns#"
   xmlns:svg="http://www.w3.org/2000/svg"
   xmlns="http://www.w3.org/2000/svg"
   xmlns:xlink="http://www.w3.org/1999/xlink"
   xmlns:sodipodi="http://sodipodi.sourceforge.net/DTD/sodipodi-0.dtd"
   xmlns:inkscape="http://www.inkscape.org/namespaces/inkscape"
   width="48"
   height="48"
   id="svg5453"
   version="1.1"
   inkscape:version="0.48.5 r10040"
   sodipodi:docname="intel-installer.svg">
  <defs
     id="defs5455">
    <linearGradient
       id="linearGradient4158">
      <stop
         style="stop-color:#b9ddff;stop-opacity:1"
         offset="0"
         id="stop4160" />
      <stop
         style="stop-color:#f5fcff;stop-opacity:1"
         offset="1"
         id="stop4162" />
    </linearGradient>
    <linearGradient
       id="linearGradient908">
      <stop
         id="stop910"
         offset="0"
         style="stop-color:#0062bf;stop-opacity:1" />
      <stop
         id="stop912"
         offset="1"
         style="stop-color:#0095d4;stop-opacity:1" />
    </linearGradient>
    <linearGradient
       gradientTransform="matrix(0.83333443,0,0,0.83333443,430.24402,320.19163)"
       gradientUnits="userSpaceOnUse"
       y2="-1006.7862"
       x2="-2.0070701"
       y1="-1006.7862"
       x1="-50.007069"
       id="linearGradient848"
       xlink:href="#linearGradient908"
       inkscape:collect="always" />
    <linearGradient
       inkscape:collect="always"
       xlink:href="#linearGradient4158"
       id="linearGradient4156"
       x1="7.9991989"
       y1="26.000326"
       x2="39.999996"
       y2="26.000326"
       gradientUnits="userSpaceOnUse"
       gradientTransform="matrix(0.83331371,0,0,0.83331371,388.57224,503.79824)" />
  </defs>
  <sodipodi:namedview
     id="base"
     pagecolor="#ffffff"
     bordercolor="#666666"
     borderopacity="1.0"
     inkscape:pageopacity="0"
     inkscape:pageshadow="2"
     inkscape:zoom="6.1060715"
     inkscape:cx="30.438299"
     inkscape:cy="25.834695"
     inkscape:document-units="px"
     inkscape:current-layer="layer1"
     showgrid="true"
     fit-margin-top="0"
     fit-margin-left="0"
     fit-margin-right="0"
     fit-margin-bottom="0"
     inkscape:window-width="1301"
     inkscape:window-height="744"
     inkscape:window-x="65"
     inkscape:window-y="24"
     inkscape:window-maximized="1"
     inkscape:showpageshadow="false"
     borderlayer="true">
    <inkscape:grid
       type="xygrid"
       id="grid3000" />
  </sodipodi:namedview>
  <metadata
     id="metadata5458">
    <rdf:RDF>
      <cc:Work
         rdf:about="">
        <dc:format>image/svg+xml</dc:format>
        <dc:type
           rdf:resource="http://purl.org/dc/dcmitype/StillImage" />
        <dc:title />
      </cc:Work>
    </rdf:RDF>
  </metadata>
  <g
     inkscape:label="Capa 1"
     inkscape:groupmode="layer"
     id="layer1"
     transform="translate(-384.57143,-499.798)">
    <rect
       style="fill:url(#linearGradient848);fill-opacity:1;stroke:none"
       id="rect2991-1-8"
       width="40.000053"
       height="40.000053"
       x="388.57141"
       y="-543.79797"
       ry="0"
       transform="scale(1,-1)" />
    <path
       style="fill:url(#linearGradient4156);fill-opacity:1"
       d="m 412.2517,514.97962 c -3.7121,0.0495 -7.85612,1.1223 -11.19603,3.16235 l 0,0.51594 c 7.62407,-3.93536 18.44218,-3.91107 19.42663,1.72685 0.33171,1.86771 -0.71452,3.81058 -2.58784,4.92827 l 0,1.46318 c 2.25507,-0.82741 4.5609,-3.50582 3.89314,-6.78858 -0.70627,-3.44276 -4.76321,-5.07165 -9.5359,-5.00801 z m 3.32837,4.12262 0,6.17987 c 0,0.72566 0.3457,1.35661 1.38017,1.45666 l 0,-7.63653 -1.38017,0 z m 2.63828,0.0212 c -0.0421,0 -0.0817,0.004 -0.12044,0.0147 -0.0387,0.0107 -0.075,0.0263 -0.10905,0.0456 -0.0337,0.0193 -0.065,0.0428 -0.0928,0.07 -0.0278,0.0272 -0.0518,0.0578 -0.0716,0.0912 -0.0197,0.0329 -0.0347,0.0679 -0.0456,0.10579 -0.0109,0.0379 -0.0163,0.0777 -0.0163,0.11881 0,0.0412 0.005,0.0805 0.0163,0.11881 0.0109,0.0379 0.0258,0.0741 0.0456,0.10742 0.0198,0.0329 0.0438,0.0623 0.0716,0.0895 0.0282,0.0267 0.0591,0.0506 0.0928,0.07 0.0337,0.0193 0.0703,0.0348 0.10905,0.0456 0.0392,0.0107 0.0788,0.0147 0.12044,0.0147 0.0421,0 0.0833,-0.004 0.12207,-0.0147 0.0391,-0.0107 0.0754,-0.0263 0.10904,-0.0456 0.0341,-0.0193 0.0654,-0.0432 0.0928,-0.07 0.0278,-0.0272 0.0502,-0.0566 0.07,-0.0895 0.0197,-0.0333 0.0362,-0.0695 0.0472,-0.10742 0.0109,-0.0383 0.0163,-0.0777 0.0163,-0.11881 0,-0.0617 -0.0118,-0.1202 -0.0358,-0.17415 -0.0236,-0.0543 -0.056,-0.10125 -0.0976,-0.1416 -0.0412,-0.0403 -0.0909,-0.0726 -0.14648,-0.096 -0.0551,-0.0235 -0.1143,-0.0342 -0.1774,-0.0342 z m 0,0.0586 c 0.0366,0 0.0721,0.003 0.10579,0.013 0.0341,0.009 0.0666,0.0222 0.096,0.0391 0.0294,0.0169 0.0553,0.038 0.0797,0.0618 0.0244,0.0235 0.0463,0.0493 0.0635,0.0781 0.0172,0.0284 0.0298,0.0594 0.0391,0.0928 0.01,0.0329 0.0147,0.0671 0.0147,0.10254 0,0.0358 -0.005,0.0708 -0.0147,0.10417 -0.009,0.0329 -0.0218,0.0639 -0.0391,0.0928 -0.0172,0.0288 -0.0391,0.0543 -0.0635,0.0781 -0.0244,0.0235 -0.0503,0.0433 -0.0797,0.0602 -0.0294,0.0165 -0.0619,0.0296 -0.096,0.0391 -0.0337,0.009 -0.0692,0.0147 -0.10579,0.0147 -0.0547,0 -0.10502,-0.0107 -0.15299,-0.0309 -0.048,-0.0202 -0.0908,-0.048 -0.12695,-0.083 -0.0357,-0.0354 -0.0636,-0.0767 -0.0846,-0.12369 -0.0206,-0.0473 -0.0309,-0.0974 -0.0309,-0.15137 0,-0.0535 0.0103,-0.10442 0.0309,-0.15137 0.021,-0.0469 0.0488,-0.0871 0.0846,-0.12206 0.0362,-0.0354 0.079,-0.0628 0.12695,-0.083 0.048,-0.0206 0.0983,-0.0309 0.15299,-0.0309 z m -19.09135,0.10904 0,1.31345 1.38018,0 0,-1.31345 -1.38018,0 z m 18.91069,0.0228 0,0.51431 0.0814,0 0,-0.20832 0.10091,0 0.12533,0.20832 0.0928,0 -0.13996,-0.21646 c 0.0358,-0.008 0.0643,-0.0253 0.0863,-0.0504 0.0219,-0.0255 0.0326,-0.0589 0.0326,-0.10092 0,-0.0457 -0.0153,-0.0815 -0.0472,-0.10741 -0.0316,-0.0259 -0.077,-0.0391 -0.13672,-0.0391 l -0.1953,0 z m 0.0814,0.0602 0.10742,0 c 0.0341,0 0.06,0.008 0.0797,0.0227 0.0202,0.0148 0.0309,0.0367 0.0309,0.0651 0,0.0309 -0.008,0.0555 -0.026,0.0733 -0.0177,0.0172 -0.0445,0.026 -0.0781,0.026 l -0.11392,0 0,-0.18718 z m -10.92748,0.50292 0,5.35958 c 0,0.77097 0.47352,1.55107 1.59339,1.55107 l 0.80727,0 0,-1.14581 -0.55662,0 c -0.32634,0 -0.47688,-0.17295 -0.47688,-0.48826 l 0,-2.68061 1.0335,0 0,-1.11162 -1.0335,0 0,-1.48435 -1.36716,0 z m -9.03949,0.16114 c -2.20991,1.94514 -3.41113,4.40436 -2.71804,7.30939 0.8839,3.72792 5.5956,5.83921 12.78778,5.1366 2.84767,-0.27492 6.57521,-1.19625 9.16157,-2.62364 l 0,-2.02794 c -2.35044,1.40756 -6.23795,2.57123 -9.47732,2.87102 -5.26847,0.48762 -10.75789,-0.2793 -11.52641,-4.41233 -0.38166,-2.03516 0.54686,-4.19518 1.77242,-5.53535 l 0,-0.71775 z m 14.3242,1.23043 c -1.44147,0 -2.53737,1.0112 -2.53737,2.80105 0,2.09294 1.2559,2.8108 2.56667,2.8108 1.00448,0 1.57177,-0.32541 2.1142,-0.86098 l -0.84307,-0.81379 c -0.35159,0.34768 -0.65354,0.5192 -1.26136,0.5192 -0.7735,0 -1.21417,-0.5188 -1.21417,-1.2223 l 3.47485,0 0,-0.49478 c 0,-1.55467 -0.83822,-2.7392 -2.29975,-2.7392 z m -13.34929,0.0928 0,4.03473 c 0,0.72593 0.34561,1.35666 1.38017,1.45667 l 0,-5.4914 -1.38017,0 z m 2.60085,0 0,5.43444 1.36553,0 0,-4.32282 1.13603,0 c 0.40172,0 0.56639,0.1979 0.56639,0.52082 l 0,3.802 1.37205,0 0,-3.80688 c 0,-0.77358 -0.41262,-1.62756 -1.61292,-1.62756 l -2.82708,0 z m 10.68822,1.04326 c 0.70317,0 0.96916,0.56865 0.99933,1.16209 l -2.11421,0 c 0.0149,-0.24296 0.0448,-0.39313 0.13509,-0.59081 0.15074,-0.32799 0.51282,-0.57128 0.97979,-0.57128 z"
       id="path6"
       inkscape:connector-curvature="0" />
    <path
       style="opacity:0.35;fill:#000000;fill-opacity:1;stroke:none"
       d="m 388.57143,543.798 40,3e-4 c -20,-1 -20,-1 -40,0 z"
       id="path3800"
       inkscape:connector-curvature="0"
       sodipodi:nodetypes="cccc" />
    <path
       sodipodi:nodetypes="cccc"
       inkscape:connector-curvature="0"
       id="path3804"
       d="m 388.57143,503.7982 40,-2e-4 c -20,1 -20,1 -40,0 z"
       style="opacity:0.75;fill:#ffffff;fill-opacity:1;stroke:none" />
  </g>
</svg>
