<?xml version="1.0" encoding="UTF-8" standalone="no"?>
<svg
   xmlns:dc="http://purl.org/dc/elements/1.1/"
   xmlns:cc="http://creativecommons.org/ns#"
   xmlns:rdf="http://www.w3.org/1999/02/22-rdf-syntax-ns#"
   xmlns:svg="http://www.w3.org/2000/svg"
   xmlns="http://www.w3.org/2000/svg"
   xmlns:xlink="http://www.w3.org/1999/xlink"
   xmlns:sodipodi="http://sodipodi.sourceforge.net/DTD/sodipodi-0.dtd"
   xmlns:inkscape="http://www.inkscape.org/namespaces/inkscape"
   viewBox="0 0 48 48"
   id="svg2"
   version="1.1"
   inkscape:version="0.48.5 r10040"
   width="100%"
   height="100%"
   sodipodi:docname="irssi.svg">
  <metadata
     id="metadata61">
    <rdf:RDF>
      <cc:Work
         rdf:about="">
        <dc:format>image/svg+xml</dc:format>
        <dc:type
           rdf:resource="http://purl.org/dc/dcmitype/StillImage" />
      </cc:Work>
    </rdf:RDF>
  </metadata>
  <sodipodi:namedview
     pagecolor="#ffffff"
     bordercolor="#666666"
     borderopacity="1"
     objecttolerance="10"
     gridtolerance="10"
     guidetolerance="10"
     inkscape:pageopacity="0"
     inkscape:pageshadow="2"
     inkscape:window-width="1301"
     inkscape:window-height="744"
     id="namedview59"
     showgrid="true"
     inkscape:zoom="3.1979167"
     inkscape:cx="40.058557"
     inkscape:cy="40.594058"
     inkscape:window-x="65"
     inkscape:window-y="24"
     inkscape:window-maximized="1"
     inkscape:current-layer="svg2">
    <inkscape:grid
       type="xygrid"
       id="grid3038" />
  </sodipodi:namedview>
  <defs
     id="defs4">
    <linearGradient
       id="linearGradient3764"
       x1="1"
       x2="47"
       gradientUnits="userSpaceOnUse"
       gradientTransform="matrix(0,-1,1,0,-1.5e-6,47.999998)">
      <stop
         stop-color="#6b6b6b"
         stop-opacity="1"
         id="stop7" />
      <stop
         offset="1"
         stop-color="#757575"
         stop-opacity="1"
         id="stop9"
         style="stop-color:#939393;stop-opacity:1;" />
    </linearGradient>
    <clipPath
       id="clipPath-267246273">
      <g
         transform="translate(0,-1004.3622)"
         id="g12">
        <path
           d="m -24 13 c 0 1.105 -0.672 2 -1.5 2 -0.828 0 -1.5 -0.895 -1.5 -2 0 -1.105 0.672 -2 1.5 -2 0.828 0 1.5 0.895 1.5 2 z"
           transform="matrix(15.333333,0,0,11.5,414.99999,878.8622)"
           fill="#1890d0"
           id="path14" />
      </g>
    </clipPath>
    <clipPath
       id="clipPath-277296371">
      <g
         transform="translate(0,-1004.3622)"
         id="g17">
        <path
           d="m -24 13 c 0 1.105 -0.672 2 -1.5 2 -0.828 0 -1.5 -0.895 -1.5 -2 0 -1.105 0.672 -2 1.5 -2 0.828 0 1.5 0.895 1.5 2 z"
           transform="matrix(15.333333,0,0,11.5,414.99999,878.8622)"
           fill="#1890d0"
           id="path19" />
      </g>
    </clipPath>
    <linearGradient
       inkscape:collect="always"
       xlink:href="#linearGradient3764"
       id="linearGradient3816"
       x1="4"
       y1="24"
       x2="44"
       y2="24"
       gradientUnits="userSpaceOnUse" />
  </defs>
  <rect
     style="fill:url(#linearGradient3816);fill-opacity:1.0;stroke:none"
     id="rect3040"
     width="40"
     height="40"
     x="4"
     y="4" />
  <g
     id="g33" />
  <g
     id="g35">
    <g
       clip-path="url(#clipPath-267246273)"
       id="g37">
      <g
         transform="translate(1,1)"
         id="g39">
        <g
           opacity="0.1"
           id="g41">
          <!-- color: #757575 -->
          <g
             id="g43">
            <path
               d="m 22.21 11.996 c 3.176 5.172 -0.891 5.098 -0.281 10.703 c -0.793 -1.285 -0.824 -2.113 -2.617 -2.508 c 2.43 4.254 -2.898 3.777 -2.395 7.48 c -0.652 -0.18 -1.254 -1.398 -0.758 -2.902 c -1.711 2.109 -1.102 3.926 0.113 5.754 c -1.215 -1.215 -1.215 -0.605 -1.82 -2.32 c 0.227 4.27 3.355 7.496 9.246 7.77 c -2.605 -0.297 -4.387 -2.617 -4.387 -5.449 c 0 -3.039 3.109 -4.91 4.652 -7.05 c 0.648 -0.906 1.402 -2.652 0.211 -3.895 c 3.633 2.457 -0.605 7.293 1.813 9.113 c -0.602 -1.215 0 -2.43 1.223 -3.035 c -0.605 1.215 -0.605 2.426 -0.113 2.922 c 2.801 3.297 0.836 7.207 -2.582 7.406 l 0.457 0 c 4.02 0 8 -2.914 8.43 -5.828 c -0.566 0.836 -1.328 1.578 -2.449 1.578 c 2.945 -2.43 3.543 -6.078 0.934 -9.57 c 0.195 2.277 -1.035 3.492 -2.109 4.273 c 1.684 -3.207 1.688 -6.863 -1.613 -10.08 c 0.262 0.789 0.465 1.406 0.285 2.125 c 0.18 -0.883 -2.445 -4.969 -6.23 -6.492 m -0.008 0.004"
               fill="#000"
               stroke="none"
               fill-rule="nonzero"
               fill-opacity="1"
               id="path45" />
          </g>
        </g>
      </g>
    </g>
  </g>
  <g
     id="g47">
    <g
       clip-path="url(#clipPath-277296371)"
       id="g49">
      <!-- color: #757575 -->
      <g
         id="g51">
        <path
           d="m 22.21 11.996 c 3.176 5.172 -0.891 5.098 -0.281 10.703 c -0.793 -1.285 -0.824 -2.113 -2.617 -2.508 c 2.43 4.254 -2.898 3.777 -2.395 7.48 c -0.652 -0.18 -1.254 -1.398 -0.758 -2.902 c -1.711 2.109 -1.102 3.926 0.113 5.754 c -1.215 -1.215 -1.215 -0.605 -1.82 -2.32 c 0.227 4.27 3.355 7.496 9.246 7.77 c -2.605 -0.297 -4.387 -2.617 -4.387 -5.449 c 0 -3.039 3.109 -4.91 4.652 -7.05 c 0.648 -0.906 1.402 -2.652 0.211 -3.895 c 3.633 2.457 -0.605 7.293 1.813 9.113 c -0.602 -1.215 0 -2.43 1.223 -3.035 c -0.605 1.215 -0.605 2.426 -0.113 2.922 c 2.801 3.297 0.836 7.207 -2.582 7.406 l 0.457 0 c 4.02 0 8 -2.914 8.43 -5.828 c -0.566 0.836 -1.328 1.578 -2.449 1.578 c 2.945 -2.43 3.543 -6.078 0.934 -9.57 c 0.195 2.277 -1.035 3.492 -2.109 4.273 c 1.684 -3.207 1.688 -6.863 -1.613 -10.08 c 0.262 0.789 0.465 1.406 0.285 2.125 c 0.18 -0.883 -2.445 -4.969 -6.23 -6.492 m -0.008 0.004"
           fill="#fff"
           stroke="none"
           fill-rule="nonzero"
           fill-opacity="1"
           id="path53" />
      </g>
    </g>
  </g>
  <path
     style="opacity:0.35;fill:#000000;fill-opacity:1;stroke:none"
     d="m 4,44 39.999997,3e-4 C 24,43.0003 24,43.0003 3.999999,44.0003 z"
     id="path3800"
     inkscape:connector-curvature="0"
     sodipodi:nodetypes="cccc" />
  <path
     sodipodi:nodetypes="cccc"
     inkscape:connector-curvature="0"
     id="path3804"
     d="M 4.000004,4.0002 44,4 C 24.000004,5 24.000004,5 4.000002,4 z"
     style="opacity:0.75;fill:#ffffff;fill-opacity:1;stroke:none" />
</svg>
