<?xml version="1.0" encoding="UTF-8" standalone="no"?>
<svg
   xmlns:dc="http://purl.org/dc/elements/1.1/"
   xmlns:cc="http://creativecommons.org/ns#"
   xmlns:rdf="http://www.w3.org/1999/02/22-rdf-syntax-ns#"
   xmlns:svg="http://www.w3.org/2000/svg"
   xmlns="http://www.w3.org/2000/svg"
   xmlns:xlink="http://www.w3.org/1999/xlink"
   xmlns:sodipodi="http://sodipodi.sourceforge.net/DTD/sodipodi-0.dtd"
   xmlns:inkscape="http://www.inkscape.org/namespaces/inkscape"
   viewBox="0 0 48 48"
   id="svg2"
   version="1.1"
   inkscape:version="0.48.5 r10040"
   width="100%"
   height="100%"
   sodipodi:docname="istanbul.svg">
  <metadata
     id="metadata73">
    <rdf:RDF>
      <cc:Work
         rdf:about="">
        <dc:format>image/svg+xml</dc:format>
        <dc:type
           rdf:resource="http://purl.org/dc/dcmitype/StillImage" />
      </cc:Work>
    </rdf:RDF>
  </metadata>
  <sodipodi:namedview
     pagecolor="#ffffff"
     bordercolor="#666666"
     borderopacity="1"
     objecttolerance="10"
     gridtolerance="10"
     guidetolerance="10"
     inkscape:pageopacity="0"
     inkscape:pageshadow="2"
     inkscape:window-width="1301"
     inkscape:window-height="744"
     id="namedview71"
     showgrid="true"
     inkscape:zoom="9.0450742"
     inkscape:cx="31.267589"
     inkscape:cy="23.580448"
     inkscape:window-x="65"
     inkscape:window-y="24"
     inkscape:window-maximized="1"
     inkscape:current-layer="svg2">
    <inkscape:grid
       type="xygrid"
       id="grid3050" />
  </sodipodi:namedview>
  <defs
     id="defs4">
    <linearGradient
       id="linearGradient3764"
       x1="1"
       x2="47"
       gradientUnits="userSpaceOnUse"
       gradientTransform="matrix(0,-1,1,0,-1.5e-6,47.999998)">
      <stop
         stop-color="#984799"
         stop-opacity="1"
         id="stop7"
         offset="0"
         style="stop-color:#751576;stop-opacity:1;" />
      <stop
         offset="1"
         stop-color="#a74ea7"
         stop-opacity="1"
         id="stop9" />
    </linearGradient>
    <clipPath
       id="clipPath-367844041">
      <g
         transform="translate(0,-1004.3622)"
         id="g12">
        <path
           d="m -24 13 c 0 1.105 -0.672 2 -1.5 2 -0.828 0 -1.5 -0.895 -1.5 -2 0 -1.105 0.672 -2 1.5 -2 0.828 0 1.5 0.895 1.5 2 z"
           transform="matrix(15.333333,0,0,11.5,414.99999,878.8622)"
           fill="#1890d0"
           id="path14" />
      </g>
    </clipPath>
    <clipPath
       id="clipPath-377023588">
      <g
         transform="translate(0,-1004.3622)"
         id="g17">
        <path
           d="m -24 13 c 0 1.105 -0.672 2 -1.5 2 -0.828 0 -1.5 -0.895 -1.5 -2 0 -1.105 0.672 -2 1.5 -2 0.828 0 1.5 0.895 1.5 2 z"
           transform="matrix(15.333333,0,0,11.5,414.99999,878.8622)"
           fill="#1890d0"
           id="path19" />
      </g>
    </clipPath>
    <linearGradient
       inkscape:collect="always"
       xlink:href="#linearGradient3764"
       id="linearGradient3851"
       x1="4"
       y1="24"
       x2="44"
       y2="24"
       gradientUnits="userSpaceOnUse" />
  </defs>
  <rect
     style="fill:url(#linearGradient3851);fill-opacity:1.0;stroke:none"
     id="rect3052"
     width="40"
     height="40"
     x="4"
     y="4"
     ry="2" />
  <g
     id="g33"
     transform="matrix(1.5917287,0,0,1.5917287,-14.500016,-14.497353)" />
  <g
     id="g35"
     transform="matrix(1.5917287,0,0,2.0526316,-14.500016,-25.789473)">
    <g
       clip-path="url(#clipPath-367844041)"
       id="g37">
      <g
         transform="translate(1,1)"
         id="g39">
        <g
           id="g41"
           style="opacity:0.1">
          <!-- color: #a74ea7 -->
          <g
             id="g43">
            <path
               d="M 11.891,14 C 11.407,14 11,14.395 11,14.875 11,21.082 11,27.57 11,33.156 11,33.633 11.406,34 11.891,34 l 24.22,0 c 0.484,0 0.898,-0.367 0.898,-0.844 0,-6.223 0,-12.688 0,-18.281 0,-0.48 -0.406,-0.875 -0.898,-0.875 m -24.22,0"
               id="path45"
               inkscape:connector-curvature="0"
               style="fill:#000000;fill-opacity:0.39200003;fill-rule:nonzero;stroke:none" />
            <path
               d="M 11.891,14 C 11.407,14 11,14.395 11,14.875 11,21.082 11,27.57 11,33.156 11,33.633 11.406,34 11.891,34 l 24.22,0 c 0.484,0 0.898,-0.367 0.898,-0.844 0,-6.199 0,-12.637 0,-18.281 0,-0.48 -0.406,-0.875 -0.898,-0.875 m -23.11,1 2,0 0,2 -2,0 m 4,-2 2,0 0,2 -2,0 m 4,-2 2,0 0,2 -2,0 m 4,-2 2,0 0,2 -2,0 m 4,-2 1.996,0 0,2 -1.996,0 m 4,-2 2,0 0,2 -2,0 m -20,1 22,0 0,12 -22,0 m 0,1 1.996,0 0,2 -1.996,0 m 4,-2 2,0 0,2 -2,0 m 4,-2 2,0 0,2 -2,0 m 4,-2 2,0 0,2 -2,0 m 4,-2 2,0 0,2 -2,0 m 4,-2 2,0 0,2 -2,0 m 0,-2"
               id="path47"
               inkscape:connector-curvature="0"
               style="fill:#000000;fill-opacity:1;fill-rule:nonzero;stroke:none" />
            <path
               d="m 28.488,24 c 0,2.484 -2.02,4.5 -4.5,4.5 -2.484,0 -4.5,-2.02 -4.5,-4.5 0,-2.488 2.02,-4.5 4.5,-4.5 2.484,0 4.5,2.01 4.5,4.5 m 0,0"
               id="path49"
               inkscape:connector-curvature="0"
               style="fill:#000000;fill-opacity:0.39200003;fill-rule:nonzero;stroke:none" />
            <path
               d="m 26,24 c 0,1.102 -0.895,2 -2,2 -1.105,0 -2,-0.898 -2,-2 0,-1.105 0.895,-2 2,-2 1.105,0 2,0.895 2,2 m 0,0"
               id="path51"
               inkscape:connector-curvature="0"
               style="fill:#000000;fill-opacity:1;fill-rule:nonzero;stroke:none" />
          </g>
        </g>
      </g>
    </g>
  </g>
  <g
     id="g53"
     transform="matrix(1.5917287,0,0,2.0526316,-14.500016,-25.789473)">
    <g
       clip-path="url(#clipPath-377023588)"
       id="g55">
      <!-- color: #a74ea7 -->
      <g
         id="g57">
        <path
           d="M 11.891,14 C 11.407,14 11,14.395 11,14.875 11,21.082 11,27.57 11,33.156 11,33.633 11.406,34 11.891,34 l 24.22,0 c 0.484,0 0.898,-0.367 0.898,-0.844 0,-6.223 0,-12.688 0,-18.281 0,-0.48 -0.406,-0.875 -0.898,-0.875 m -24.22,0"
           id="path59"
           inkscape:connector-curvature="0"
           style="fill:#f9f9f9;fill-opacity:0.39200003;fill-rule:nonzero;stroke:none" />
        <path
           d="M 11.891,14 C 11.407,14 11,14.395 11,14.875 11,21.082 11,27.57 11,33.156 11,33.633 11.406,34 11.891,34 l 24.22,0 c 0.484,0 0.898,-0.367 0.898,-0.844 0,-6.199 0,-12.637 0,-18.281 0,-0.48 -0.406,-0.875 -0.898,-0.875 m -23.11,1 2,0 0,2 -2,0 m 4,-2 2,0 0,2 -2,0 m 4,-2 2,0 0,2 -2,0 m 4,-2 2,0 0,2 -2,0 m 4,-2 1.996,0 0,2 -1.996,0 m 4,-2 2,0 0,2 -2,0 m -20,1 22,0 0,12 -22,0 m 0,1 1.996,0 0,2 -1.996,0 m 4,-2 2,0 0,2 -2,0 m 4,-2 2,0 0,2 -2,0 m 4,-2 2,0 0,2 -2,0 m 4,-2 2,0 0,2 -2,0 m 4,-2 2,0 0,2 -2,0 m 0,-2"
           id="path61"
           inkscape:connector-curvature="0"
           style="fill:#f9f9f9;fill-opacity:1;fill-rule:nonzero;stroke:none" />
        <path
           d="m 28.488,24 c 0,2.484 -2.02,4.5 -4.5,4.5 -2.484,0 -4.5,-2.02 -4.5,-4.5 0,-2.488 2.02,-4.5 4.5,-4.5 2.484,0 4.5,2.01 4.5,4.5 m 0,0"
           id="path63"
           inkscape:connector-curvature="0"
           style="fill:#f9f9f9;fill-opacity:0.39200003;fill-rule:nonzero;stroke:none" />
        <path
           d="m 26,24 c 0,1.102 -0.895,2 -2,2 -1.105,0 -2,-0.898 -2,-2 0,-1.105 0.895,-2 2,-2 1.105,0 2,0.895 2,2 m 0,0"
           id="path65"
           inkscape:connector-curvature="0"
           style="fill:#f9f9f9;fill-opacity:1;fill-rule:nonzero;stroke:none" />
      </g>
    </g>
  </g>
</svg>
