<?xml version="1.0" encoding="UTF-8" standalone="no"?>
<!-- Created with Inkscape (http://www.inkscape.org/) -->

<svg
   xmlns:dc="http://purl.org/dc/elements/1.1/"
   xmlns:cc="http://creativecommons.org/ns#"
   xmlns:rdf="http://www.w3.org/1999/02/22-rdf-syntax-ns#"
   xmlns:svg="http://www.w3.org/2000/svg"
   xmlns="http://www.w3.org/2000/svg"
   xmlns:xlink="http://www.w3.org/1999/xlink"
   xmlns:sodipodi="http://sodipodi.sourceforge.net/DTD/sodipodi-0.dtd"
   xmlns:inkscape="http://www.inkscape.org/namespaces/inkscape"
   width="48"
   height="48"
   id="svg2"
   version="1.1"
   inkscape:version="0.48.5 r10040"
   sodipodi:docname="im-jabber.svg">
  <defs
     id="defs4">
    <linearGradient
       id="linearGradient3698">
      <stop
         id="stop3700"
         offset="0"
         style="stop-color:#ec4026;stop-opacity:1" />
      <stop
         id="stop3702"
         offset="1"
         style="stop-color:#d62000;stop-opacity:1" />
    </linearGradient>
    <linearGradient
       inkscape:collect="always"
       xlink:href="#linearGradient3698"
       id="linearGradient3801"
       x1="48"
       y1="1024.3622"
       x2="0"
       y2="1024.3622"
       gradientUnits="userSpaceOnUse"
       gradientTransform="matrix(0.83333333,0,0,0.83333333,4,-1885.3307)" />
  </defs>
  <sodipodi:namedview
     id="base"
     pagecolor="#ffffff"
     bordercolor="#666666"
     borderopacity="1.0"
     inkscape:pageopacity="0.0"
     inkscape:pageshadow="2"
     inkscape:zoom="11.015089"
     inkscape:cx="39.410202"
     inkscape:cy="25.948627"
     inkscape:document-units="px"
     inkscape:current-layer="layer1"
     showgrid="true"
     inkscape:window-width="1301"
     inkscape:window-height="744"
     inkscape:window-x="65"
     inkscape:window-y="24"
     inkscape:window-maximized="1">
    <inkscape:grid
       type="xygrid"
       id="grid3850" />
  </sodipodi:namedview>
  <metadata
     id="metadata7">
    <rdf:RDF>
      <cc:Work
         rdf:about="">
        <dc:format>image/svg+xml</dc:format>
        <dc:type
           rdf:resource="http://purl.org/dc/dcmitype/StillImage" />
        <dc:title />
      </cc:Work>
    </rdf:RDF>
  </metadata>
  <g
     inkscape:label="Capa 1"
     inkscape:groupmode="layer"
     id="layer1"
     transform="translate(0,-1004.3622)">
    <rect
       style="fill:url(#linearGradient3801);fill-opacity:1;stroke:none"
       id="rect2991"
       width="40"
       height="40"
       x="4"
       y="-1048.3622"
       ry="0"
       transform="scale(1,-1)" />
    <g
       id="g908"
       transform="matrix(0.72656673,0,0,0.72656673,2.3685157,280.45925)">
      <path
         inkscape:connector-curvature="0"
         id="path906"
         d="m 11.255048,1046.6912 c -2.5158161,-0.6578 -4.1873119,-1.5167 -4.9205724,-2.5286 -0.4307292,-0.5944 -0.4213576,-1.0695 0.031239,-1.585 0.601083,-0.6846 1.0281246,-0.5525 1.9504156,0.6035 0.8943818,1.1209 1.9335828,1.655 4.3147138,2.2177 1.546369,0.3653 2.187949,0.3525 3.447008,-0.069 1.138475,-0.3815 1.47188,-0.3913 1.521444,-0.045 0.07285,0.5093 -0.95347,1.2623 -2.1573,1.5828 -1.010715,0.2691 -2.766065,0.1951 -4.186948,-0.1764 z"
         style="fill:#ffffff" />
      <path
         inkscape:connector-curvature="0"
         id="path904"
         d="m 18.488571,1044.4048 c -0.284418,-0.2095 -0.541763,-1.7416 -0.54419,-3.2396 -0.0026,-1.524 0.215335,-2.6275 0.74819,-3.7906 0.597488,-1.3041 1.161661,-1.943 2.772975,-3.1397 2.5563,-1.8987 3.992743,-3.4529 4.89509,-5.296 0.653864,-1.3356 0.819051,-2.3336 0.63912,-3.8613 -0.638788,-5.4237 -3.299456,-8.8121 -7.847499,-9.9938 -1.630401,-0.4236 -2.927649,-0.5491 -4.910299,-0.4749 -1.939916,0.072 -3.37752,0.2891 -4.3599403,0.6567 -0.6732105,0.2519 -1.6854836,1.156 -2.6599983,2.3758 -0.5175211,0.6478 -0.898401,0.7811 -1.2444277,0.4354 -0.2146715,-0.2144 -0.2478535,-0.3916 -0.2821497,-1.5068 -0.021356,-0.6951 -0.00398,-1.6371 0.038866,-2.0931 l 0.077705,-0.8293 0.8626324,-0.3947 c 1.2543498,-0.5741 2.4076414,-0.9824 3.6233906,-1.2828 0.953331,-0.2356 1.335663,-0.2649 3.493203,-0.2673 2.4608,0 3.347534,0.094 5.295927,0.5786 4.43892,1.1038 7.779995,4.8162 9.667409,10.7416 0.516234,1.6207 0.623262,2.3289 0.557614,3.6897 -0.09137,1.894 -0.806104,3.6169 -2.275603,5.4853 -1.16775,1.4848 -2.205008,2.3918 -4.398084,3.8462 -2.819176,1.8695 -3.505884,3.3928 -3.080109,6.8323 0.16721,1.3507 0.07118,1.6691 -0.503387,1.6691 -0.206421,0 -0.461305,-0.063 -0.566435,-0.1408 z"
         style="fill:#ffffff" />
      <path
         inkscape:connector-curvature="0"
         id="path902"
         d="m 13.171459,1043.5713 c -2.380262,-0.3825 -4.5650878,-1.4462 -6.2151277,-3.0259 -0.7289361,-0.6979 -0.9414388,-0.9706 -0.940948,-1.2074 6.632e-4,-0.3737 0.2737,-0.5392 0.8893146,-0.5392 0.3943571,0 0.5515653,0.088 1.2187602,0.6823 0.857751,0.7639 1.6134887,1.2308 2.6540359,1.6397 1.485397,0.5836 3.296949,0.8184 4.752891,0.6159 1.063768,-0.1479 1.360555,-0.024 1.481225,0.6194 0.09657,0.5148 -0.08676,0.9202 -0.486415,1.0757 -0.330811,0.1287 -2.78543,0.2308 -3.353736,0.1395 z"
         style="fill:#ffffff" />
      <path
         inkscape:connector-curvature="0"
         id="path880"
         d="m 12.558524,1039.9184 c -1.616931,-0.215 -3.2440159,-0.9027 -4.4673724,-1.8883 -0.8471921,-0.6826 -1.281536,-1.3751 -1.312788,-2.0932 -0.020428,-0.4697 0.018836,-0.5801 0.2893857,-0.8128 0.5899869,-0.5075 1.2350229,-0.291 1.9694639,0.661 0.7710586,0.9994 1.9796448,2.0926 2.6555678,2.4021 1.260803,0.5772 2.0696,0.605 4.092276,0.1406 1.025976,-0.2355 1.546375,0.2954 0.892067,0.91 -0.583779,0.5484 -2.603165,0.8822 -4.1186,0.6806 z"
         style="fill:#ffffff" />
      <path
         inkscape:connector-curvature="0"
         id="path876"
         d="m 14.489865,1034.3816 c -0.167323,-0.1673 -0.174267,-0.6482 -0.01545,-1.0688 0.06586,-0.1745 0.392481,-0.6739 0.725773,-1.1099 0.515107,-0.6738 1.17805,-1.9014 1.451803,-2.6882 0.103062,-0.2963 -0.216873,-0.7448 -0.53129,-0.7448 -0.296396,0 -1.123027,0.5005 -1.878049,1.1372 -0.287257,0.2422 -0.605805,0.4404 -0.707885,0.4404 -0.205101,0 -0.351843,-0.4483 -0.479517,-1.4649 -0.155258,-1.2364 -0.547752,-1.6834 -1.138256,-1.2965 -0.59638,0.3908 -0.704263,1.0347 -0.552487,3.2976 0.07251,1.0809 0.0579,1.3101 -0.09891,1.5494 -0.200797,0.3064 -0.586737,0.3677 -0.881296,0.1399 -0.247416,-0.1913 -0.6497188,-2.1331 -0.6497188,-3.1359 0,-1.4587 0.4477748,-2.4048 1.3083978,-2.7644 1.260365,-0.5266 2.657226,0.2771 2.920473,1.6803 l 0.07887,0.4204 0.602283,-0.6169 c 0.73208,-0.7498 1.339563,-1.0769 2.000192,-1.0769 0.949524,0 1.389074,0.8203 1.283128,2.3945 -0.0862,1.2808 -0.567457,2.1777 -2.509496,4.6765 -0.296018,0.3809 -0.682516,0.4771 -0.928565,0.231 z"
         style="fill:#ffcc00" />
    </g>
    <path
       style="opacity:0.35;fill:#000000;fill-opacity:1;stroke:none"
       d="M 4.000004,1048.3619 44,1048.3622 c -19.999996,-1 -19.999996,-1 -39.999997,0 z"
       id="path3800"
       inkscape:connector-curvature="0"
       sodipodi:nodetypes="cccc" />
    <path
       sodipodi:nodetypes="cccc"
       inkscape:connector-curvature="0"
       id="path3804"
       d="M 4.000007,1008.3621 44,1008.3619 c -19.999993,1 -19.999993,1 -39.999994,0 z"
       style="opacity:0.75;fill:#ffffff;fill-opacity:1;stroke:none" />
  </g>
</svg>
