<?xml version="1.0" encoding="UTF-8" standalone="no"?>
<!-- Created with Inkscape (http://www.inkscape.org/) -->

<svg
   xmlns:dc="http://purl.org/dc/elements/1.1/"
   xmlns:cc="http://creativecommons.org/ns#"
   xmlns:rdf="http://www.w3.org/1999/02/22-rdf-syntax-ns#"
   xmlns:svg="http://www.w3.org/2000/svg"
   xmlns="http://www.w3.org/2000/svg"
   xmlns:xlink="http://www.w3.org/1999/xlink"
   xmlns:sodipodi="http://sodipodi.sourceforge.net/DTD/sodipodi-0.dtd"
   xmlns:inkscape="http://www.inkscape.org/namespaces/inkscape"
   width="48"
   height="48"
   id="svg2"
   version="1.1"
   inkscape:version="0.48.5 r10040"
   sodipodi:docname="jabref.svg">
  <defs
     id="defs4">
    <linearGradient
       inkscape:collect="always"
       id="linearGradient4169">
      <stop
         style="stop-color:#c9d5ef;stop-opacity:1"
         offset="0"
         id="stop4171" />
      <stop
         style="stop-color:#f8f9fc;stop-opacity:1"
         offset="1"
         id="stop4173" />
    </linearGradient>
    <linearGradient
       inkscape:collect="always"
       xlink:href="#linearGradient844"
       id="linearGradient843"
       x1="-56.880463"
       y1="-1032.9774"
       x2="-6.8804631"
       y2="-1032.9774"
       gradientUnits="userSpaceOnUse"
       gradientTransform="matrix(0.83333333,0,0,0.83333333,51.400386,-166.71436)" />
    <linearGradient
       id="linearGradient844"
       inkscape:collect="always">
      <stop
         id="stop846"
         offset="0"
         style="stop-color:#2a488d;stop-opacity:1" />
      <stop
         id="stop848"
         offset="1"
         style="stop-color:#4163b2;stop-opacity:1" />
    </linearGradient>
    <linearGradient
       gradientTransform="matrix(0.0471794,0,0,0.04275741,7.7454834,1010.7846)"
       gradientUnits="userSpaceOnUse"
       xlink:href="#linearGradient4169"
       id="linearGradient2974-9"
       y2="391.6105"
       x2="627.13495"
       y1="391.6105"
       x1="8.9272718" />
  </defs>
  <sodipodi:namedview
     id="base"
     pagecolor="#ffffff"
     bordercolor="#666666"
     borderopacity="1.0"
     inkscape:pageopacity="0.0"
     inkscape:pageshadow="2"
     inkscape:zoom="5.6568542"
     inkscape:cx="12.299442"
     inkscape:cy="11.885055"
     inkscape:document-units="px"
     inkscape:current-layer="layer1"
     showgrid="true"
     inkscape:window-width="1301"
     inkscape:window-height="744"
     inkscape:window-x="65"
     inkscape:window-y="24"
     inkscape:window-maximized="1">
    <inkscape:grid
       type="xygrid"
       id="grid3850" />
  </sodipodi:namedview>
  <metadata
     id="metadata7">
    <rdf:RDF>
      <cc:Work
         rdf:about="">
        <dc:format>image/svg+xml</dc:format>
        <dc:type
           rdf:resource="http://purl.org/dc/dcmitype/StillImage" />
        <dc:title />
      </cc:Work>
    </rdf:RDF>
  </metadata>
  <g
     inkscape:label="Capa 1"
     inkscape:groupmode="layer"
     id="layer1"
     transform="translate(0,-1004.3622)">
    <rect
       style="fill:url(#linearGradient843);fill-opacity:1;stroke:none"
       id="rect2991-1"
       width="40"
       height="40"
       x="4"
       y="-1048.3622"
       ry="0"
       transform="scale(1,-1)" />
    <path
       style="fill:url(#linearGradient2974-9);fill-opacity:1;fill-rule:evenodd;stroke:none"
       d="m 13.123967,1015.5289 c 5.467416,6.2805 6.189691,12.7616 5.900741,17.0169 -0.25325,3.7296 -2.527133,5.1266 -2.961625,5.3027 -0.905825,0.3671 -3.033941,0.9165 -6.0678746,-1.0475 0,2.2914 1.9503916,4.2554 5.3455166,4.2554 3.395117,0 6.17375,-2.7496 6.738058,-5.8469 1.959409,-15.9901 -1.767308,-18.2364 -1.767308,-18.2364 0,0 -3.413158,-1.4442 -7.187508,-1.4442 z m 8.73575,0.5955 c 0.949716,4.1671 8.4682,5.8066 8.4682,7.7877 0,1.9811 -5.144242,2.3228 -5.0651,5.5335 0.07917,4.4404 6.252258,10.3153 12.741975,11.7499 -2.849142,-3.4156 -10.051159,-10.8618 -7.676875,-12.7746 8.547425,-6.0116 0.712366,-10.9303 -8.4682,-12.2965 z"
       id="path1972-1"
       inkscape:connector-curvature="0" />
    <path
       style="opacity:0.5;fill:#000000;fill-opacity:1;stroke:none"
       d="m 4,1048.3622 0,0 c 20,-1 20,-1 40,0 z"
       id="path3257"
       inkscape:connector-curvature="0"
       sodipodi:nodetypes="cccc" />
    <path
       sodipodi:nodetypes="cccc"
       inkscape:connector-curvature="0"
       id="path4027"
       d="m 4,1008.3622 0,0 c 20,1 20,1 40,0 z"
       style="opacity:0.75;fill:#ffffff;fill-opacity:1;stroke:none" />
  </g>
</svg>
