<?xml version="1.0" encoding="UTF-8" standalone="no"?>
<svg
   xmlns:dc="http://purl.org/dc/elements/1.1/"
   xmlns:cc="http://creativecommons.org/ns#"
   xmlns:rdf="http://www.w3.org/1999/02/22-rdf-syntax-ns#"
   xmlns:svg="http://www.w3.org/2000/svg"
   xmlns="http://www.w3.org/2000/svg"
   xmlns:xlink="http://www.w3.org/1999/xlink"
   xmlns:sodipodi="http://sodipodi.sourceforge.net/DTD/sodipodi-0.dtd"
   xmlns:inkscape="http://www.inkscape.org/namespaces/inkscape"
   viewBox="0 0 48 48"
   id="svg2"
   version="1.1"
   inkscape:version="0.48.5 r10040"
   width="100%"
   height="100%"
   sodipodi:docname="jitsi.svg">
  <metadata
     id="metadata97">
    <rdf:RDF>
      <cc:Work
         rdf:about="">
        <dc:format>image/svg+xml</dc:format>
        <dc:type
           rdf:resource="http://purl.org/dc/dcmitype/StillImage" />
      </cc:Work>
    </rdf:RDF>
  </metadata>
  <sodipodi:namedview
     pagecolor="#ffffff"
     bordercolor="#666666"
     borderopacity="1"
     objecttolerance="10"
     gridtolerance="10"
     guidetolerance="10"
     inkscape:pageopacity="0"
     inkscape:pageshadow="2"
     inkscape:window-width="1301"
     inkscape:window-height="744"
     id="namedview95"
     showgrid="true"
     inkscape:zoom="9.0450742"
     inkscape:cx="22.374665"
     inkscape:cy="26.401616"
     inkscape:window-x="65"
     inkscape:window-y="24"
     inkscape:window-maximized="1"
     inkscape:current-layer="svg2">
    <inkscape:grid
       type="xygrid"
       id="grid3074" />
  </sodipodi:namedview>
  <defs
     id="defs4">
    <linearGradient
       id="linearGradient3764"
       x1="1"
       x2="47"
       gradientUnits="userSpaceOnUse"
       gradientTransform="matrix(0,-1,1,0,-1.5e-6,47.999998)">
      <stop
         stop-color="#225a86"
         stop-opacity="1"
         id="stop7" />
      <stop
         offset="1"
         stop-color="#266597"
         stop-opacity="1"
         id="stop9"
         style="stop-color:#1e72b4;stop-opacity:1;" />
    </linearGradient>
    <clipPath
       id="clipPath-905053867">
      <g
         transform="translate(0,-1004.3622)"
         id="g12">
        <path
           d="m -24 13 c 0 1.105 -0.672 2 -1.5 2 -0.828 0 -1.5 -0.895 -1.5 -2 0 -1.105 0.672 -2 1.5 -2 0.828 0 1.5 0.895 1.5 2 z"
           transform="matrix(15.333333,0,0,11.5,414.99999,878.8622)"
           fill="#1890d0"
           id="path14" />
      </g>
    </clipPath>
    <clipPath
       id="clipPath-910713076">
      <g
         transform="translate(0,-1004.3622)"
         id="g17">
        <path
           d="m -24 13 c 0 1.105 -0.672 2 -1.5 2 -0.828 0 -1.5 -0.895 -1.5 -2 0 -1.105 0.672 -2 1.5 -2 0.828 0 1.5 0.895 1.5 2 z"
           transform="matrix(15.333333,0,0,11.5,414.99999,878.8622)"
           fill="#1890d0"
           id="path19" />
      </g>
    </clipPath>
    <linearGradient
       inkscape:collect="always"
       xlink:href="#linearGradient3764"
       id="linearGradient3852"
       x1="4"
       y1="24"
       x2="44"
       y2="24"
       gradientUnits="userSpaceOnUse" />
  </defs>
  <rect
     style="fill:url(#linearGradient3852);fill-opacity:1.0;stroke:none"
     id="rect3076"
     width="40"
     height="40"
     x="4"
     y="4"
     ry="0" />
  <g
     id="g33" />
  <g
     id="g35">
    <g
       clip-path="url(#clipPath-905053867)"
       id="g37">
      <g
         transform="translate(1,1)"
         id="g39">
        <g
           opacity="0.1"
           id="g41">
          <!-- color: #266597 -->
          <g
             id="g43">
            <path
               d="m 31.941 18.309 c -0.645 0.152 -1.25 0.461 -1.781 0.844 c -0.871 1.191 -2.078 2.152 -3.684 2.531 c -0.609 -0.445 -1.352 -0.961 -1.859 -1.547 c -2.324 0.266 -5.523 0.781 -6.074 3.02 c -0.574 2.324 0.949 5.359 2.188 5.535 c 1.176 0.164 4.957 -0.887 6.785 -1.379 c -1.531 -1.195 -3.293 -1.719 -4.254 -1.781 c -1.133 -0.09 -2.109 0.113 -3.125 0.375 c 1.484 -0.957 2.828 -1.672 4.156 -1.938 c 0.996 -0.188 2.543 -0.195 4.402 0.5 c 2.305 0.863 2.855 2.094 4.473 2.648 c 1.07 -0.168 0.527 -1.355 0.305 -2.18 c -0.148 -0.449 -0.266 -0.789 -0.313 -0.938 c -0.082 -0.25 -1.238 -3.207 -1.406 -3.969 c -0.113 -0.52 -0.016 -1.195 0.188 -1.723 m 0 0"
               fill="#000"
               stroke="none"
               fill-rule="nonzero"
               fill-opacity="1"
               id="path45" />
            <path
               d="m 26.359 13.656 c -1.613 0.68 -1.668 1.965 -1.758 3.359 c 0.676 -0.613 2.801 -1.063 3.375 -1.559 c 1.695 -1.469 2.352 -4.504 1.996 -4.055 c -1.152 1.457 -3.02 1.926 -3.613 2.254 m 0 0"
               fill="#000"
               stroke="none"
               fill-rule="nonzero"
               fill-opacity="1"
               id="path47" />
            <path
               d="m 17.477 34.05 c 0 0 -1.602 -1.063 -1.57 -1.402 c 1.051 -5.699 -2.574 -1.645 -2.848 0.906 c -0.289 2.449 0.613 5.273 0.746 5.445 c 0.215 -2 0.406 -3.109 3.672 -4.953 m 0 0.004"
               fill="#000"
               stroke="none"
               fill-rule="nonzero"
               fill-opacity="1"
               id="path49" />
            <path
               d="m 34.988 21.492 c -0.082 -2.121 -1.414 -3.586 -2.32 -3.242 c -0.387 0.145 -0.641 1.133 -0.508 1.746 c 0.445 2.18 2.277 4.699 1.824 6.855 c -0.34 1.031 -3.348 1.672 -3.348 1.672 c 0 0 -0.059 0.883 -0.172 1.484 c -0.137 0.73 -0.414 1.309 -0.414 1.309 c 0 0 0.715 0.641 0.742 0.641 c 0.031 0 4.5 -2.32 4.195 -10.465 m 0 0"
               fill="#000"
               stroke="none"
               fill-rule="nonzero"
               fill-opacity="1"
               id="path51" />
            <path
               d="m 33 27.332 c -0.742 -0.301 -1 -0.43 -1.969 -1.148 c -5.355 -4 -10.285 -0.535 -10.188 -0.57 c 0.887 -0.281 1.891 -0.535 3.191 -0.453 c 1.051 0.07 2.449 0.734 4.176 2.168 c 1.16 1.02 2.918 1.148 4.785 0.004 m 0.004 0"
               fill="#000"
               stroke="none"
               fill-rule="nonzero"
               fill-opacity="1"
               id="path53" />
            <path
               d="m 27.973 15.902 c -1.98 0.637 -3.051 1.184 -3.371 1.438 c -0.656 1.672 0.668 2.93 1.875 3.813 c 1.586 -0.375 2.906 -1.551 3.496 -2.844 c -0.309 0.043 -0.637 -0.016 -1 -0.219 c -0.707 -0.398 -1.137 -1.355 -1 -2.188 m 0 0"
               fill="#000"
               stroke="none"
               fill-rule="nonzero"
               fill-opacity="1"
               id="path55" />
            <path
               d="m 30.855 15.586 c -0.129 -0.508 -0.543 -1.16 -0.656 -1.16 c -0.102 0 -1.203 0.82 -1.488 1.102 c -0.645 0.645 -0.332 1.82 0.383 2.219 c 1.211 0.68 2.105 -0.813 1.762 -2.16 m 0 0"
               fill="#000"
               stroke="none"
               fill-rule="nonzero"
               fill-opacity="1"
               id="path57" />
            <path
               d="m 29.914 13.867 c 0.484 -0.465 1.129 -1.227 1.297 -2.387 c 0.098 -1.039 -0.156 -1.68 -0.469 -2.477 c -0.152 1.555 -0.379 3.285 -1.438 5.121 c -0.332 0.578 -0.152 0.473 0.609 -0.258 m 0 0"
               fill="#000"
               stroke="none"
               fill-rule="nonzero"
               fill-opacity="1"
               id="path59" />
            <path
               d="m 16.328 29.969 c 0.168 0.422 0.156 1.223 -0.094 2.594 c -0.004 0.012 0 0.02 0 0.031 c 0.176 0.246 0.539 0.543 0.902 0.813 c 1.25 -0.582 2.82 -1.672 2.719 -1.688 c -0.668 -0.113 -2.734 -0.617 -3.527 -1.75 m 0 0"
               fill="#000"
               stroke="none"
               fill-rule="nonzero"
               fill-opacity="1"
               id="path61" />
            <path
               d="m 27.754 27.527 c -0.055 0 -0.098 0 -0.219 0.031 c -1.555 0.434 -5.527 1.449 -6.148 2.125 c -0.242 0.516 -0.48 2.574 -3.969 3.879 c -0.098 0.035 2.93 1.992 3.094 2 c 9.883 0.414 9.871 -6.676 9.742 -7 c -0.961 0.016 -1.777 -0.32 -2.406 -0.938 c -0.031 -0.031 -0.059 -0.063 -0.094 -0.094 m 0 0"
               fill="#000"
               stroke="none"
               fill-rule="nonzero"
               fill-opacity="1"
               id="path63" />
          </g>
        </g>
      </g>
    </g>
  </g>
  <g
     id="g65">
    <g
       clip-path="url(#clipPath-910713076)"
       id="g67">
      <!-- color: #266597 -->
      <g
         id="g69">
        <path
           d="m 31.941 18.309 c -0.645 0.152 -1.25 0.461 -1.781 0.844 c -0.871 1.191 -2.078 2.152 -3.684 2.531 c -0.609 -0.445 -1.352 -0.961 -1.859 -1.547 c -2.324 0.266 -5.523 0.781 -6.074 3.02 c -0.574 2.324 0.949 5.359 2.188 5.535 c 1.176 0.164 4.957 -0.887 6.785 -1.379 c -1.531 -1.195 -3.293 -1.719 -4.254 -1.781 c -1.133 -0.09 -2.109 0.113 -3.125 0.375 c 1.484 -0.957 2.828 -1.672 4.156 -1.938 c 0.996 -0.188 2.543 -0.195 4.402 0.5 c 2.305 0.863 2.855 2.094 4.473 2.648 c 1.07 -0.168 0.527 -1.355 0.305 -2.18 c -0.148 -0.449 -0.266 -0.789 -0.313 -0.938 c -0.082 -0.25 -1.238 -3.207 -1.406 -3.969 c -0.113 -0.52 -0.016 -1.195 0.188 -1.723 m 0 0"
           fill="#f9f9f9"
           stroke="none"
           fill-rule="nonzero"
           fill-opacity="1"
           id="path71" />
        <path
           d="m 26.359 13.656 c -1.613 0.68 -1.668 1.965 -1.758 3.359 c 0.676 -0.613 2.801 -1.063 3.375 -1.559 c 1.695 -1.469 2.352 -4.504 1.996 -4.055 c -1.152 1.457 -3.02 1.926 -3.613 2.254 m 0 0"
           fill="#f9f9f9"
           stroke="none"
           fill-rule="nonzero"
           fill-opacity="1"
           id="path73" />
        <path
           d="m 17.477 34.05 c 0 0 -1.602 -1.063 -1.57 -1.402 c 1.051 -5.699 -2.574 -1.645 -2.848 0.906 c -0.289 2.449 0.613 5.273 0.746 5.445 c 0.215 -2 0.406 -3.109 3.672 -4.953 m 0 0.004"
           fill="#f9f9f9"
           stroke="none"
           fill-rule="nonzero"
           fill-opacity="1"
           id="path75" />
        <path
           d="m 34.988 21.492 c -0.082 -2.121 -1.414 -3.586 -2.32 -3.242 c -0.387 0.145 -0.641 1.133 -0.508 1.746 c 0.445 2.18 2.277 4.699 1.824 6.855 c -0.34 1.031 -3.348 1.672 -3.348 1.672 c 0 0 -0.059 0.883 -0.172 1.484 c -0.137 0.73 -0.414 1.309 -0.414 1.309 c 0 0 0.715 0.641 0.742 0.641 c 0.031 0 4.5 -2.32 4.195 -10.465 m 0 0"
           fill="#f9f9f9"
           stroke="none"
           fill-rule="nonzero"
           fill-opacity="1"
           id="path77" />
        <path
           d="m 33 27.332 c -0.742 -0.301 -1 -0.43 -1.969 -1.148 c -5.355 -4 -10.285 -0.535 -10.188 -0.57 c 0.887 -0.281 1.891 -0.535 3.191 -0.453 c 1.051 0.07 2.449 0.734 4.176 2.168 c 1.16 1.02 2.918 1.148 4.785 0.004 m 0.004 0"
           fill="#f9f9f9"
           stroke="none"
           fill-rule="nonzero"
           fill-opacity="1"
           id="path79" />
        <path
           d="m 27.973 15.902 c -1.98 0.637 -3.051 1.184 -3.371 1.438 c -0.656 1.672 0.668 2.93 1.875 3.813 c 1.586 -0.375 2.906 -1.551 3.496 -2.844 c -0.309 0.043 -0.637 -0.016 -1 -0.219 c -0.707 -0.398 -1.137 -1.355 -1 -2.188 m 0 0"
           fill="#f9f9f9"
           stroke="none"
           fill-rule="nonzero"
           fill-opacity="1"
           id="path81" />
        <path
           d="m 30.855 15.586 c -0.129 -0.508 -0.543 -1.16 -0.656 -1.16 c -0.102 0 -1.203 0.82 -1.488 1.102 c -0.645 0.645 -0.332 1.82 0.383 2.219 c 1.211 0.68 2.105 -0.813 1.762 -2.16 m 0 0"
           fill="#f9f9f9"
           stroke="none"
           fill-rule="nonzero"
           fill-opacity="1"
           id="path83" />
        <path
           d="m 29.914 13.867 c 0.484 -0.465 1.129 -1.227 1.297 -2.387 c 0.098 -1.039 -0.156 -1.68 -0.469 -2.477 c -0.152 1.555 -0.379 3.285 -1.438 5.121 c -0.332 0.578 -0.152 0.473 0.609 -0.258 m 0 0"
           fill="#f9f9f9"
           stroke="none"
           fill-rule="nonzero"
           fill-opacity="1"
           id="path85" />
        <path
           d="m 16.328 29.969 c 0.168 0.422 0.156 1.223 -0.094 2.594 c -0.004 0.012 0 0.02 0 0.031 c 0.176 0.246 0.539 0.543 0.902 0.813 c 1.25 -0.582 2.82 -1.672 2.719 -1.688 c -0.668 -0.113 -2.734 -0.617 -3.527 -1.75 m 0 0"
           fill="#f9f9f9"
           stroke="none"
           fill-rule="nonzero"
           fill-opacity="1"
           id="path87" />
        <path
           d="m 27.754 27.527 c -0.055 0 -0.098 0 -0.219 0.031 c -1.555 0.434 -5.527 1.449 -6.148 2.125 c -0.242 0.516 -0.48 2.574 -3.969 3.879 c -0.098 0.035 2.93 1.992 3.094 2 c 9.883 0.414 9.871 -6.676 9.742 -7 c -0.961 0.016 -1.777 -0.32 -2.406 -0.938 c -0.031 -0.031 -0.059 -0.063 -0.094 -0.094 m 0 0"
           fill="#f9f9f9"
           stroke="none"
           fill-rule="nonzero"
           fill-opacity="1"
           id="path89" />
      </g>
    </g>
  </g>
  <path
     style="opacity:0.35;fill:#000000;fill-opacity:1;stroke:none"
     d="M 4.0000034,43.9997 44,44 C 24.000003,43 24.000003,43 4.000002,44 z"
     id="path3800"
     inkscape:connector-curvature="0"
     sodipodi:nodetypes="cccc" />
  <path
     sodipodi:nodetypes="cccc"
     inkscape:connector-curvature="0"
     id="path3804"
     d="m 4.0000069,3.9999 39.9999961,-2e-4 c -19.999996,1 -19.999996,1 -39.9999975,0 z"
     style="opacity:0.75;fill:#ffffff;fill-opacity:1;stroke:none" />
</svg>
