<?xml version="1.0" encoding="UTF-8" standalone="no"?>
<svg
   xmlns:dc="http://purl.org/dc/elements/1.1/"
   xmlns:cc="http://creativecommons.org/ns#"
   xmlns:rdf="http://www.w3.org/1999/02/22-rdf-syntax-ns#"
   xmlns:svg="http://www.w3.org/2000/svg"
   xmlns="http://www.w3.org/2000/svg"
   xmlns:xlink="http://www.w3.org/1999/xlink"
   xmlns:sodipodi="http://sodipodi.sourceforge.net/DTD/sodipodi-0.dtd"
   xmlns:inkscape="http://www.inkscape.org/namespaces/inkscape"
   viewBox="0 0 48 48"
   id="svg2"
   version="1.1"
   inkscape:version="0.48.5 r10040"
   width="100%"
   height="100%"
   sodipodi:docname="juffed.svg">
  <metadata
     id="metadata77">
    <rdf:RDF>
      <cc:Work
         rdf:about="">
        <dc:format>image/svg+xml</dc:format>
        <dc:type
           rdf:resource="http://purl.org/dc/dcmitype/StillImage" />
      </cc:Work>
    </rdf:RDF>
  </metadata>
  <sodipodi:namedview
     pagecolor="#ffffff"
     bordercolor="#666666"
     borderopacity="1"
     objecttolerance="10"
     gridtolerance="10"
     guidetolerance="10"
     inkscape:pageopacity="0"
     inkscape:pageshadow="2"
     inkscape:window-width="1301"
     inkscape:window-height="744"
     id="namedview75"
     showgrid="true"
     inkscape:zoom="9.0450742"
     inkscape:cx="13.038663"
     inkscape:cy="25.371031"
     inkscape:window-x="65"
     inkscape:window-y="24"
     inkscape:window-maximized="1"
     inkscape:current-layer="svg2">
    <inkscape:grid
       type="xygrid"
       id="grid3054" />
  </sodipodi:namedview>
  <defs
     id="defs4">
    <linearGradient
       id="linearGradient3764"
       x1="1"
       x2="47"
       gradientUnits="userSpaceOnUse"
       gradientTransform="matrix(0,-1,1,0,-1.5e-6,47.999998)">
      <stop
         stop-color="#f093f1"
         stop-opacity="1"
         id="stop7"
         offset="0"
         style="stop-color:#c84dc9;stop-opacity:1;" />
      <stop
         offset="1"
         stop-color="#f2a4f3"
         stop-opacity="1"
         id="stop9" />
    </linearGradient>
    <clipPath
       id="clipPath-298757077">
      <g
         transform="translate(0,-1004.3622)"
         id="g12">
        <path
           d="m -24 13 c 0 1.105 -0.672 2 -1.5 2 -0.828 0 -1.5 -0.895 -1.5 -2 0 -1.105 0.672 -2 1.5 -2 0.828 0 1.5 0.895 1.5 2 z"
           transform="matrix(15.333333,0,0,11.5,414.99999,878.8622)"
           fill="#1890d0"
           id="path14" />
      </g>
    </clipPath>
    <clipPath
       id="clipPath-308824716">
      <g
         transform="translate(0,-1004.3622)"
         id="g17">
        <path
           d="m -24 13 c 0 1.105 -0.672 2 -1.5 2 -0.828 0 -1.5 -0.895 -1.5 -2 0 -1.105 0.672 -2 1.5 -2 0.828 0 1.5 0.895 1.5 2 z"
           transform="matrix(15.333333,0,0,11.5,414.99999,878.8622)"
           fill="#1890d0"
           id="path19" />
      </g>
    </clipPath>
    <linearGradient
       inkscape:collect="always"
       xlink:href="#linearGradient3764"
       id="linearGradient3832"
       x1="4"
       y1="24"
       x2="44"
       y2="24"
       gradientUnits="userSpaceOnUse" />
  </defs>
  <rect
     style="fill:url(#linearGradient3832);fill-opacity:1.0;stroke:none"
     id="rect3056"
     width="40"
     height="40"
     x="4"
     y="4" />
  <g
     id="g33" />
  <g
     id="g35">
    <g
       clip-path="url(#clipPath-298757077)"
       id="g37">
      <g
         transform="translate(1,1)"
         id="g39">
        <g
           opacity="0.1"
           id="g41">
          <!-- color: #f2a4f3 -->
          <g
             id="g43">
            <path
               d="m 14 33 l 12 0 l 0 -2 l -12 0 m 0 2"
               fill="#000"
               stroke="none"
               fill-rule="nonzero"
               fill-opacity="1"
               id="path45" />
            <path
               d="m 14 29 l 19.996 0 l 0 -1.996 l -19.996 0 m 0 1.996"
               fill="#000"
               stroke="none"
               fill-rule="nonzero"
               fill-opacity="1"
               id="path47" />
            <path
               d="m 14 25 l 19.996 0 l 0 -1.996 l -19.996 0 m 0 1.996"
               fill="#000"
               stroke="none"
               fill-rule="nonzero"
               fill-opacity="1"
               id="path49" />
            <path
               d="m 14 21 l 19.996 0 l 0 -1.996 l -19.996 0 m 0 1.996"
               fill="#000"
               stroke="none"
               fill-rule="nonzero"
               fill-opacity="1"
               id="path51" />
            <path
               d="m 14 17 l 19.996 0 l 0 -2 l -19.996 0 m 0 2"
               fill="#000"
               stroke="none"
               fill-rule="nonzero"
               fill-opacity="1"
               id="path53" />
          </g>
        </g>
      </g>
    </g>
  </g>
  <g
     id="g55">
    <g
       clip-path="url(#clipPath-308824716)"
       id="g57">
      <!-- color: #f2a4f3 -->
      <g
         id="g59">
        <path
           d="m 14 33 l 12 0 l 0 -2 l -12 0 m 0 2"
           fill="#f9f9f9"
           stroke="none"
           fill-rule="nonzero"
           fill-opacity="1"
           id="path61" />
        <path
           d="m 14 29 l 19.996 0 l 0 -1.996 l -19.996 0 m 0 1.996"
           fill="#f9f9f9"
           stroke="none"
           fill-rule="nonzero"
           fill-opacity="1"
           id="path63" />
        <path
           d="m 14 25 l 19.996 0 l 0 -1.996 l -19.996 0 m 0 1.996"
           fill="#f9f9f9"
           stroke="none"
           fill-rule="nonzero"
           fill-opacity="1"
           id="path65" />
        <path
           d="m 14 21 l 19.996 0 l 0 -1.996 l -19.996 0 m 0 1.996"
           fill="#f9f9f9"
           stroke="none"
           fill-rule="nonzero"
           fill-opacity="1"
           id="path67" />
        <path
           d="m 14 17 l 19.996 0 l 0 -2 l -19.996 0 m 0 2"
           fill="#f9f9f9"
           stroke="none"
           fill-rule="nonzero"
           fill-opacity="1"
           id="path69" />
      </g>
    </g>
  </g>
  <path
     style="opacity:0.35;fill:#000000;fill-opacity:1;stroke:none"
     d="M 4.0000014,43.9997 43.999998,44 C 24.000001,43 24.000001,43 4,44 z"
     id="path3800"
     inkscape:connector-curvature="0"
     sodipodi:nodetypes="cccc" />
  <path
     sodipodi:nodetypes="cccc"
     inkscape:connector-curvature="0"
     id="path3804"
     d="m 4.0000049,3.9999 39.9999961,-2e-4 c -19.999996,1 -19.999996,1 -39.9999975,0 z"
     style="opacity:0.75;fill:#ffffff;fill-opacity:1;stroke:none" />
</svg>
