<?xml version="1.0" encoding="UTF-8" standalone="no"?>
<!-- Created with Inkscape (http://www.inkscape.org/) -->

<svg
   xmlns:dc="http://purl.org/dc/elements/1.1/"
   xmlns:cc="http://creativecommons.org/ns#"
   xmlns:rdf="http://www.w3.org/1999/02/22-rdf-syntax-ns#"
   xmlns:svg="http://www.w3.org/2000/svg"
   xmlns="http://www.w3.org/2000/svg"
   xmlns:xlink="http://www.w3.org/1999/xlink"
   xmlns:sodipodi="http://sodipodi.sourceforge.net/DTD/sodipodi-0.dtd"
   xmlns:inkscape="http://www.inkscape.org/namespaces/inkscape"
   width="48px"
   height="48px"
   id="svg3039"
   version="1.1"
   inkscape:version="0.92.2 2405546, 2018-03-11"
   sodipodi:docname="kanagram.svg">
  <defs
     id="defs3041">
    <linearGradient
       id="linearGradient3886">
      <stop
         style="stop-color:#f9f9f9;stop-opacity:1;"
         offset="0"
         id="stop3888" />
      <stop
         style="stop-color:#afafaf;stop-opacity:1;"
         offset="1"
         id="stop3890" />
    </linearGradient>
    <linearGradient
       id="linearGradient3839-2">
      <stop
         style="stop-color:#444444;stop-opacity:1"
         offset="0"
         id="stop3841-2" />
      <stop
         style="stop-color:#575757;stop-opacity:1"
         offset="1"
         id="stop3843-1" />
    </linearGradient>
    <linearGradient
       inkscape:collect="always"
       xlink:href="#linearGradient3886"
       id="linearGradient3987"
       x1="42"
       y1="18"
       x2="36"
       y2="24"
       gradientUnits="userSpaceOnUse" />
    <linearGradient
       inkscape:collect="always"
       xlink:href="#linearGradient3886"
       id="linearGradient3989"
       x1="34"
       y1="21"
       x2="28"
       y2="27"
       gradientUnits="userSpaceOnUse" />
    <linearGradient
       inkscape:collect="always"
       xlink:href="#linearGradient3886"
       id="linearGradient3991"
       x1="26"
       y1="25"
       x2="21"
       y2="31"
       gradientUnits="userSpaceOnUse" />
    <linearGradient
       inkscape:collect="always"
       xlink:href="#linearGradient3886"
       id="linearGradient3993"
       x1="19"
       y1="19"
       x2="15"
       y2="23"
       gradientUnits="userSpaceOnUse" />
    <linearGradient
       inkscape:collect="always"
       xlink:href="#linearGradient3886"
       id="linearGradient3996"
       x1="14"
       y1="20"
       x2="7"
       y2="27"
       gradientUnits="userSpaceOnUse" />
    <linearGradient
       inkscape:collect="always"
       xlink:href="#linearGradient3839-2"
       id="linearGradient1004"
       x1="-24"
       y1="44"
       x2="-24"
       y2="4"
       gradientUnits="userSpaceOnUse" />
  </defs>
  <sodipodi:namedview
     id="base"
     pagecolor="#ffffff"
     bordercolor="#666666"
     borderopacity="1.0"
     inkscape:pageopacity="0.0"
     inkscape:pageshadow="2"
     inkscape:zoom="12.209303"
     inkscape:cx="21.656854"
     inkscape:cy="22.013248"
     inkscape:current-layer="layer1"
     showgrid="true"
     inkscape:grid-bbox="true"
     inkscape:document-units="px"
     showguides="true"
     inkscape:guide-bbox="true"
     inkscape:window-width="1920"
     inkscape:window-height="1006"
     inkscape:window-x="0"
     inkscape:window-y="0"
     inkscape:window-maximized="1"
     inkscape:snap-global="true">
    <inkscape:grid
       type="xygrid"
       id="grid3047" />
    <sodipodi:guide
       orientation="1,0"
       position="3,4"
       id="guide3051"
       inkscape:locked="false" />
    <sodipodi:guide
       orientation="1,0"
       position="45,21"
       id="guide3053"
       inkscape:locked="false" />
    <sodipodi:guide
       orientation="0,1"
       position="-2,45"
       id="guide3055"
       inkscape:locked="false" />
    <sodipodi:guide
       orientation="0,1"
       position="2,3"
       id="guide3057"
       inkscape:locked="false" />
    <sodipodi:guide
       orientation="1,0"
       position="24,31"
       id="guide3059"
       inkscape:locked="false" />
    <sodipodi:guide
       orientation="0,1"
       position="40,25"
       id="guide3061"
       inkscape:locked="false" />
  </sodipodi:namedview>
  <metadata
     id="metadata3044">
    <rdf:RDF>
      <cc:Work
         rdf:about="">
        <dc:format>image/svg+xml</dc:format>
        <dc:type
           rdf:resource="http://purl.org/dc/dcmitype/StillImage" />
        <dc:title />
      </cc:Work>
    </rdf:RDF>
  </metadata>
  <g
     id="layer1"
     inkscape:label="Layer 1"
     inkscape:groupmode="layer">
    <rect
       style="fill:url(#linearGradient1004);fill-opacity:1.0;stroke:none;stroke-width:0;stroke-linecap:round;stroke-linejoin:round;stroke-miterlimit:4;stroke-opacity:1;stroke-dasharray:none"
       id="rect4032"
       width="40"
       height="40"
       x="-44"
       y="4"
       transform="matrix(0,-1,1,0,0,0)"
       ry="0.99999994"
       rx="0.99999994" />
    <g
       id="g4013"
       style="font-size:9px;font-style:normal;font-variant:normal;font-weight:600;font-stretch:normal;text-align:center;line-height:125%;letter-spacing:0px;word-spacing:0px;text-anchor:middle;fill:#000000;fill-opacity:0.18039216;stroke:none;font-family:FreeSans;-inkscape-font-specification:FreeSans Semi-Bold"
       transform="translate(-0.424867,1)">
      <path
         id="path4015"
         style="fill:#000000;fill-opacity:0.18039216"
         d="m 11.314422,27 -2.6370001,-4.536 0,4.536 -1.35,0 0,-6.561 1.386,0 2.6010001,4.464 0,-4.464 1.35,0 0,6.561 -1.35,0"
         inkscape:connector-curvature="0" />
    </g>
    <g
       style="font-size:9px;font-style:normal;font-variant:normal;font-weight:600;font-stretch:normal;text-align:center;line-height:125%;letter-spacing:0px;word-spacing:0px;text-anchor:middle;fill:url(#linearGradient3996);fill-opacity:1;stroke:none;font-family:FreeSans;-inkscape-font-specification:FreeSans Semi-Bold"
       id="text3959">
      <path
         d="m 11.314422,27 -2.6370001,-4.536 0,4.536 -1.35,0 0,-6.561 1.386,0 2.6010001,4.464 0,-4.464 1.35,0 0,6.561 -1.35,0"
         style=""
         id="path4011" />
    </g>
    <g
       id="g4017"
       style="font-size:9px;font-style:normal;font-variant:normal;font-weight:600;font-stretch:normal;text-align:center;line-height:125%;letter-spacing:0px;word-spacing:0px;text-anchor:middle;fill:#000000;fill-opacity:0.18039216;stroke:none;font-family:FreeSans;-inkscape-font-specification:FreeSans Semi-Bold"
       transform="translate(-0.424867,1)">
      <path
         id="path4019"
         style="fill:#000000;fill-opacity:0.18039216"
         d="m 17.672539,17.439 0,6.561 -1.35,0 0,-6.561 1.35,0"
         inkscape:connector-curvature="0" />
    </g>
    <g
       style="font-size:9px;font-style:normal;font-variant:normal;font-weight:600;font-stretch:normal;text-align:center;line-height:125%;letter-spacing:0px;word-spacing:0px;text-anchor:middle;fill:url(#linearGradient3993);fill-opacity:1;stroke:none;font-family:FreeSans;-inkscape-font-specification:FreeSans Semi-Bold"
       id="text3963">
      <path
         d="m 17.672539,17.439 0,6.561 -1.35,0 0,-6.561 1.35,0"
         style=""
         id="path4008" />
    </g>
    <g
       id="g4021"
       style="font-size:9px;font-style:normal;font-variant:normal;font-weight:600;font-stretch:normal;text-align:center;line-height:125%;letter-spacing:0px;word-spacing:0px;text-anchor:middle;fill:#000000;fill-opacity:0.18039216;stroke:none;font-family:FreeSans;-inkscape-font-specification:FreeSans Semi-Bold"
       transform="translate(-0.424867,1)">
      <path
         id="path4023"
         style="fill:#000000;fill-opacity:0.18039216"
         d="m 23.283867,23.439 0,5.436 3.141,0 0,1.125 -4.491,0 0,-6.561 1.35,0"
         inkscape:connector-curvature="0" />
    </g>
    <g
       style="font-size:9px;font-style:normal;font-variant:normal;font-weight:600;font-stretch:normal;text-align:center;line-height:125%;letter-spacing:0px;word-spacing:0px;text-anchor:middle;fill:url(#linearGradient3991);fill-opacity:1;stroke:none;font-family:FreeSans;-inkscape-font-specification:FreeSans Semi-Bold"
       id="text3967">
      <path
         d="m 23.283867,23.439 0,5.436 3.141,0 0,1.125 -4.491,0 0,-6.561 1.35,0"
         style=""
         id="path4005" />
    </g>
    <g
       id="g4025"
       style="font-size:9px;font-style:normal;font-variant:normal;font-weight:600;font-stretch:normal;text-align:center;line-height:125%;letter-spacing:0px;word-spacing:0px;text-anchor:middle;fill:#000000;fill-opacity:0.18039216;stroke:none;font-family:FreeSans;-inkscape-font-specification:FreeSans Semi-Bold"
       transform="translate(-0.424867,1)">
      <path
         id="path4027"
         style="fill:#000000;fill-opacity:0.18039216"
         d="m 31.691734,27.144 c -0.222003,0.042 -0.453003,0.063 -0.693,0.063 -0.240003,0 -0.474002,-0.021 -0.702,-0.063 -0.222002,-0.042 -0.453002,-0.117 -0.693,-0.225 -0.234001,-0.108 -0.438001,-0.246 -0.612,-0.414 -0.174001,-0.167999 -0.318001,-0.389999 -0.432,-0.666 -0.108,-0.281999 -0.162,-0.599998 -0.162,-0.954 l 0,-4.446 1.35,0 0,4.446 c -2e-6,0.780001 0.416998,1.170001 1.251,1.17 0.833996,1e-6 1.250996,-0.389999 1.251,-1.17 l 0,-4.446 1.35,0 0,4.446 c -6e-6,0.354002 -0.057,0.672001 -0.171,0.954 -0.108005,0.276001 -0.249005,0.498001 -0.423,0.666 -0.174005,0.168 -0.381005,0.306 -0.621,0.414 -0.234004,0.108 -0.465004,0.183 -0.693,0.225"
         inkscape:connector-curvature="0" />
    </g>
    <g
       style="font-size:9px;font-style:normal;font-variant:normal;font-weight:600;font-stretch:normal;text-align:center;line-height:125%;letter-spacing:0px;word-spacing:0px;text-anchor:middle;fill:url(#linearGradient3989);fill-opacity:1;stroke:none;font-family:FreeSans;-inkscape-font-specification:FreeSans Semi-Bold"
       id="text3971">
      <path
         d="m 31.691734,27.144 c -0.222003,0.042 -0.453003,0.063 -0.693,0.063 -0.240003,0 -0.474002,-0.021 -0.702,-0.063 -0.222002,-0.042 -0.453002,-0.117 -0.693,-0.225 -0.234001,-0.108 -0.438001,-0.246 -0.612,-0.414 -0.174001,-0.167999 -0.318001,-0.389999 -0.432,-0.666 -0.108,-0.281999 -0.162,-0.599998 -0.162,-0.954 l 0,-4.446 1.35,0 0,4.446 c -2e-6,0.780001 0.416998,1.170001 1.251,1.17 0.833996,1e-6 1.250996,-0.389999 1.251,-1.17 l 0,-4.446 1.35,0 0,4.446 c -6e-6,0.354002 -0.057,0.672001 -0.171,0.954 -0.108005,0.276001 -0.249005,0.498001 -0.423,0.666 -0.174005,0.168 -0.381005,0.306 -0.621,0.414 -0.234004,0.108 -0.465004,0.183 -0.693,0.225"
         style=""
         id="path4002" />
    </g>
    <g
       id="g4029"
       style="font-size:9px;font-style:normal;font-variant:normal;font-weight:600;font-stretch:normal;text-align:center;line-height:125%;letter-spacing:0px;word-spacing:0px;text-anchor:middle;fill:#000000;fill-opacity:0.18039216;stroke:none;font-family:FreeSans;-inkscape-font-specification:FreeSans Semi-Bold"
       transform="translate(-0.424867,1)">
      <path
         id="path4031"
         style="fill:#000000;fill-opacity:0.18039216"
         d="m 39.729984,20.652 2.106,3.348 -1.602,0 -1.26,-2.277 -1.251,2.277 -1.566,0 2.07,-3.303 -1.998,-3.258 1.602,0 1.152,2.16 1.206,-2.16 1.566,0 -2.025,3.213"
         inkscape:connector-curvature="0" />
    </g>
    <g
       style="font-size:9px;font-style:normal;font-variant:normal;font-weight:600;font-stretch:normal;text-align:center;line-height:125%;letter-spacing:0px;word-spacing:0px;text-anchor:middle;fill:url(#linearGradient3987);fill-opacity:1;stroke:none;font-family:FreeSans;-inkscape-font-specification:FreeSans Semi-Bold"
       id="text3975">
      <path
         d="m 39.729984,20.652 2.106,3.348 -1.602,0 -1.26,-2.277 -1.251,2.277 -1.566,0 2.07,-3.303 -1.998,-3.258 1.602,0 1.152,2.16 1.206,-2.16 1.566,0 -2.025,3.213"
         style=""
         id="path3999" />
    </g>
    <path
       style="opacity:0.35;fill:#000000;fill-opacity:1;stroke:none;stroke-width:0.97196412"
       d="m 5.1057142,44 37.7885688,3e-4 C 24,43.0003 24,43.0003 5.1057133,44.0003 Z"
       id="path3800"
       inkscape:connector-curvature="0"
       sodipodi:nodetypes="cccc" />
    <path
       sodipodi:nodetypes="cccc"
       inkscape:connector-curvature="0"
       id="path3804"
       d="M 5.105718,4.0002 42.894286,4 C 24.000004,5 24.000004,5 5.1057161,4 Z"
       style="opacity:0.5;fill:#ffffff;fill-opacity:1;stroke:none;stroke-width:0.97196412" />
  </g>
</svg>
