<?xml version="1.0" encoding="UTF-8" standalone="no"?>
<svg
   xmlns:dc="http://purl.org/dc/elements/1.1/"
   xmlns:cc="http://creativecommons.org/ns#"
   xmlns:rdf="http://www.w3.org/1999/02/22-rdf-syntax-ns#"
   xmlns:svg="http://www.w3.org/2000/svg"
   xmlns="http://www.w3.org/2000/svg"
   xmlns:xlink="http://www.w3.org/1999/xlink"
   xmlns:sodipodi="http://sodipodi.sourceforge.net/DTD/sodipodi-0.dtd"
   xmlns:inkscape="http://www.inkscape.org/namespaces/inkscape"
   viewBox="0 0 48 48"
   id="svg2"
   version="1.1"
   inkscape:version="0.48.5 r10040"
   width="100%"
   height="100%"
   sodipodi:docname="keysync.svg">
  <metadata
     id="metadata73">
    <rdf:RDF>
      <cc:Work
         rdf:about="">
        <dc:format>image/svg+xml</dc:format>
        <dc:type
           rdf:resource="http://purl.org/dc/dcmitype/StillImage" />
      </cc:Work>
    </rdf:RDF>
  </metadata>
  <sodipodi:namedview
     pagecolor="#ffffff"
     bordercolor="#666666"
     borderopacity="1"
     objecttolerance="10"
     gridtolerance="10"
     guidetolerance="10"
     inkscape:pageopacity="0"
     inkscape:pageshadow="2"
     inkscape:window-width="1301"
     inkscape:window-height="744"
     id="namedview71"
     showgrid="true"
     inkscape:zoom="9.0450742"
     inkscape:cx="30.839957"
     inkscape:cy="19.693087"
     inkscape:window-x="65"
     inkscape:window-y="24"
     inkscape:window-maximized="1"
     inkscape:current-layer="svg2">
    <inkscape:grid
       type="xygrid"
       id="grid3050" />
  </sodipodi:namedview>
  <defs
     id="defs4">
    <linearGradient
       id="linearGradient3764"
       x1="1"
       x2="47"
       gradientUnits="userSpaceOnUse"
       gradientTransform="matrix(0,-1,1,0,-1.5e-6,47.999998)">
      <stop
         stop-color="#e4e4e4"
         stop-opacity="1"
         id="stop7" />
      <stop
         offset="1"
         stop-color="#eee"
         stop-opacity="1"
         id="stop9"
         style="stop-color:#ffffff;stop-opacity:1;" />
    </linearGradient>
    <clipPath
       id="clipPath-117139998">
      <g
         transform="translate(0,-1004.3622)"
         id="g12">
        <path
           d="m -24 13 c 0 1.105 -0.672 2 -1.5 2 -0.828 0 -1.5 -0.895 -1.5 -2 0 -1.105 0.672 -2 1.5 -2 0.828 0 1.5 0.895 1.5 2 z"
           transform="matrix(15.333333,0,0,11.5,414.99999,878.8622)"
           fill="#1890d0"
           id="path14" />
      </g>
    </clipPath>
    <clipPath
       id="clipPath-129190063">
      <g
         transform="translate(0,-1004.3622)"
         id="g17">
        <path
           d="m -24 13 c 0 1.105 -0.672 2 -1.5 2 -0.828 0 -1.5 -0.895 -1.5 -2 0 -1.105 0.672 -2 1.5 -2 0.828 0 1.5 0.895 1.5 2 z"
           transform="matrix(15.333333,0,0,11.5,414.99999,878.8622)"
           fill="#1890d0"
           id="path19" />
      </g>
    </clipPath>
    <linearGradient
       inkscape:collect="always"
       xlink:href="#linearGradient3764"
       id="linearGradient3828"
       x1="4"
       y1="24"
       x2="44"
       y2="24"
       gradientUnits="userSpaceOnUse" />
  </defs>
  <rect
     style="fill:url(#linearGradient3828);fill-opacity:1.0;stroke:none"
     id="rect3052"
     width="40"
     height="40"
     x="4"
     y="4" />
  <g
     id="g33" />
  <g
     id="g35">
    <g
       clip-path="url(#clipPath-117139998)"
       id="g37">
      <g
         transform="translate(1,1)"
         id="g39">
        <g
           opacity="0.1"
           id="g41">
          <!-- color: #eeeeee -->
          <g
             id="g43">
            <path
               d="m 23.988 9 c -8.262 0 -14.988 6.699 -14.988 14.984 c 0 8.289 6.727 15.01 14.988 15.01 c 8.262 0 15.01 -6.723 15.01 -15.01 c 0 -8.289 -6.75 -14.984 -15.01 -14.984 m 0 2 c 7.211 0 13.02 5.809 13.02 12.984 c 0 7.176 -5.813 13.02 -13.02 13.02 c -7.211 0 -12.996 -5.84 -12.996 -13.02 c 0 -7.176 5.781 -12.984 12.996 -12.984 m 0 0"
               fill="#000"
               stroke="none"
               fill-rule="nonzero"
               fill-opacity="0.502"
               id="path45" />
            <path
               d="m 23.988 9 c -8.262 0 -14.988 6.699 -14.988 14.984 l 1.992 0 c 0 -7.176 5.781 -12.984 12.996 -12.984 c 7.211 0 13.02 5.809 13.02 12.984 l 0 0.137 c -0.078 7.125 -5.859 12.879 -13.02 12.879 l 0 1.996 c 8.262 0 15.01 -6.723 15.01 -15.01 c 0 -8.289 -6.75 -14.977 -15.01 -14.977 m 0 0"
               fill="#000"
               stroke="none"
               fill-rule="nonzero"
               fill-opacity="1"
               id="path47" />
            <path
               d="m 9.563 20 c -0.352 1.27 -0.563 2.613 -0.563 4 c 0 1.727 0.305 3.391 0.844 4.934 l 0.156 0.066 l 5.996 -9 l -6.438 0 m 0.004 0"
               fill="#000"
               stroke="none"
               fill-rule="nonzero"
               fill-opacity="1"
               id="path49" />
            <path
               d="m 28.18 15 c -2.66 0 -4.82 2.156 -4.82 4.82 c 0 0.832 0.211 1.617 0.578 2.301 c 0 0.004 0 0.008 0 0.012 l -8.938 8.938 l 0 1.93 l 1.926 0 l 0.641 -0.641 l 0 -1.289 l 1.289 0 l 0.641 -0.641 l 1.285 0 l 0.641 -0.641 l 0 -1.285 l 0.641 -0.645 l 1.289 0 l 0 -1.285 l 2.512 -2.512 c 0.004 0 0.008 0 0.02 0 c 0.684 0.371 1.465 0.582 2.297 0.582 c 2.66 0 4.816 -2.16 4.816 -4.824 l 0 -0.02 c -0.012 -2.66 -2.156 -4.801 -4.816 -4.801 m 0.973 2.57 c 0.707 0 1.281 0.578 1.285 1.289 c 0 0.707 -0.574 1.285 -1.285 1.285 c -0.711 0 -1.285 -0.574 -1.285 -1.285 c 0 -0.711 0.57 -1.289 1.285 -1.289 m 0 0"
               fill="#000"
               stroke="none"
               fill-rule="nonzero"
               fill-opacity="1"
               id="path51" />
          </g>
        </g>
      </g>
    </g>
  </g>
  <g
     id="g53">
    <g
       clip-path="url(#clipPath-129190063)"
       id="g55">
      <!-- color: #eeeeee -->
      <g
         id="g57">
        <path
           d="m 23.988 9 c -8.262 0 -14.988 6.699 -14.988 14.984 c 0 8.289 6.727 15.01 14.988 15.01 c 8.262 0 15.01 -6.723 15.01 -15.01 c 0 -8.289 -6.75 -14.984 -15.01 -14.984 m 0 2 c 7.211 0 13.02 5.809 13.02 12.984 c 0 7.176 -5.813 13.02 -13.02 13.02 c -7.211 0 -12.996 -5.84 -12.996 -13.02 c 0 -7.176 5.781 -12.984 12.996 -12.984 m 0 0"
           fill="#36a321"
           stroke="none"
           fill-rule="nonzero"
           fill-opacity="0.502"
           id="path59" />
        <path
           d="m 23.988 9 c -8.262 0 -14.988 6.699 -14.988 14.984 l 1.992 0 c 0 -7.176 5.781 -12.984 12.996 -12.984 c 7.211 0 13.02 5.809 13.02 12.984 l 0 0.137 c -0.078 7.125 -5.859 12.879 -13.02 12.879 l 0 1.996 c 8.262 0 15.01 -6.723 15.01 -15.01 c 0 -8.289 -6.75 -14.977 -15.01 -14.977 m 0 0"
           fill="#36a321"
           stroke="none"
           fill-rule="nonzero"
           fill-opacity="1"
           id="path61" />
        <path
           d="m 9.563 20 c -0.352 1.27 -0.563 2.613 -0.563 4 c 0 1.727 0.305 3.391 0.844 4.934 l 0.156 0.066 l 5.996 -9 l -6.438 0 m 0.004 0"
           fill="#36a321"
           stroke="none"
           fill-rule="nonzero"
           fill-opacity="1"
           id="path63" />
        <path
           d="m 28.18 15 c -2.66 0 -4.82 2.156 -4.82 4.82 c 0 0.832 0.211 1.617 0.578 2.301 c 0 0.004 0 0.008 0 0.012 l -8.938 8.938 l 0 1.93 l 1.926 0 l 0.641 -0.641 l 0 -1.289 l 1.289 0 l 0.641 -0.641 l 1.285 0 l 0.641 -0.641 l 0 -1.285 l 0.641 -0.645 l 1.289 0 l 0 -1.285 l 2.512 -2.512 c 0.004 0 0.008 0 0.02 0 c 0.684 0.371 1.465 0.582 2.297 0.582 c 2.66 0 4.816 -2.16 4.816 -4.824 l 0 -0.02 c -0.012 -2.66 -2.156 -4.801 -4.816 -4.801 m 0.973 2.57 c 0.707 0 1.281 0.578 1.285 1.289 c 0 0.707 -0.574 1.285 -1.285 1.285 c -0.711 0 -1.285 -0.574 -1.285 -1.285 c 0 -0.711 0.57 -1.289 1.285 -1.289 m 0 0"
           fill="#2d2d2d"
           stroke="none"
           fill-rule="nonzero"
           fill-opacity="1"
           id="path65" />
      </g>
    </g>
  </g>
  <path
     style="opacity:0.35;fill:#000000;fill-opacity:1;stroke:none"
     d="M 4.0000014,43.9997 43.999998,44 C 24.000001,43 24.000001,43 4,44 z"
     id="path3800"
     inkscape:connector-curvature="0"
     sodipodi:nodetypes="cccc" />
  <path
     sodipodi:nodetypes="cccc"
     inkscape:connector-curvature="0"
     id="path3804"
     d="m 4.0000049,3.9999 39.9999961,-2e-4 c -19.999996,1 -19.999996,1 -39.9999975,0 z"
     style="opacity:0.75;fill:#ffffff;fill-opacity:1;stroke:none" />
</svg>
