<?xml version="1.0" encoding="UTF-8" standalone="no"?>
<!-- Created with Inkscape (http://www.inkscape.org/) -->

<svg
   xmlns:dc="http://purl.org/dc/elements/1.1/"
   xmlns:cc="http://creativecommons.org/ns#"
   xmlns:rdf="http://www.w3.org/1999/02/22-rdf-syntax-ns#"
   xmlns:svg="http://www.w3.org/2000/svg"
   xmlns="http://www.w3.org/2000/svg"
   xmlns:xlink="http://www.w3.org/1999/xlink"
   xmlns:sodipodi="http://sodipodi.sourceforge.net/DTD/sodipodi-0.dtd"
   xmlns:inkscape="http://www.inkscape.org/namespaces/inkscape"
   width="48"
   height="48"
   id="svg2"
   version="1.1"
   inkscape:version="0.48.5 r10040"
   sodipodi:docname="kformula.svg">
  <defs
     id="defs4">
    <linearGradient
       id="linearGradient4148">
      <stop
         style="stop-color:#d3e4da;stop-opacity:1"
         offset="0"
         id="stop4150" />
      <stop
         style="stop-color:#f8fcfb;stop-opacity:1"
         offset="1"
         id="stop4152" />
    </linearGradient>
    <linearGradient
       id="linearGradient4104">
      <stop
         id="stop4106"
         offset="0"
         style="stop-color:#1f633b;stop-opacity:1;" />
      <stop
         id="stop4108"
         offset="1"
         style="stop-color:#37cb88;stop-opacity:1;" />
    </linearGradient>
    <linearGradient
       gradientTransform="matrix(0.83333333,0,0,0.83333333,4.0000001,-171.39371)"
       y2="-1027.3622"
       x2="48"
       y1="-1027.3622"
       x1="-2.1054834e-08"
       gradientUnits="userSpaceOnUse"
       id="linearGradient5984"
       xlink:href="#linearGradient4104"
       inkscape:collect="always" />
    <linearGradient
       inkscape:collect="always"
       xlink:href="#linearGradient4148"
       id="linearGradient4091"
       x1="2.80498"
       y1="1027.1155"
       x2="45.195019"
       y2="1027.1155"
       gradientUnits="userSpaceOnUse"
       gradientTransform="matrix(0.8020752,0,0,0.8020752,4.7501951,203.5383)" />
  </defs>
  <sodipodi:namedview
     id="base"
     pagecolor="#ffffff"
     bordercolor="#666666"
     borderopacity="1.0"
     inkscape:pageopacity="0.0"
     inkscape:pageshadow="2"
     inkscape:zoom="6.2313785"
     inkscape:cx="63.681815"
     inkscape:cy="28.688654"
     inkscape:document-units="px"
     inkscape:current-layer="layer1"
     showgrid="true"
     inkscape:window-width="1301"
     inkscape:window-height="744"
     inkscape:window-x="65"
     inkscape:window-y="24"
     inkscape:window-maximized="1">
    <inkscape:grid
       type="xygrid"
       id="grid3002" />
  </sodipodi:namedview>
  <metadata
     id="metadata7">
    <rdf:RDF>
      <cc:Work
         rdf:about="">
        <dc:format>image/svg+xml</dc:format>
        <dc:type
           rdf:resource="http://purl.org/dc/dcmitype/StillImage" />
        <dc:title />
      </cc:Work>
    </rdf:RDF>
  </metadata>
  <g
     inkscape:label="Capa 1"
     inkscape:groupmode="layer"
     id="layer1"
     transform="translate(0,-1004.3622)">
    <rect
       style="fill:url(#linearGradient5984);fill-opacity:1;stroke:none"
       id="rect2991-1"
       width="40"
       height="40"
       x="4"
       y="-1048.3622"
       ry="1.9999826"
       transform="scale(1,-1)" />
    <g
       id="g16724"
       transform="matrix(1.0416667,0,0,-1.0416667,-1322.3432,1443.5078)" />
    <g
       id="g16740"
       transform="matrix(1.0416667,0,0,-1.0416667,-1322.3432,1443.5078)" />
    <g
       id="g17256"
       transform="matrix(1.0416667,0,0,-1.0416667,-1322.3432,1443.5078)" />
    <path
       inkscape:connector-curvature="0"
       style="font-size:12.50000000000000000px;font-style:normal;font-variant:normal;font-weight:bold;font-stretch:normal;line-height:125%;letter-spacing:0px;word-spacing:0px;fill:url(#linearGradient4091);fill-opacity:1;stroke:none;font-family:Impact;-inkscape-font-specification:Impact Bold"
       d="m 11.893904,1015.5291 c -0.761021,0 -1.328289,0.059 -1.704377,0.2005 -0.3760889,0.1417 -0.6118296,0.3686 -0.7268675,0.6518 -0.1150378,0.283 -0.1754506,0.877 -0.1754506,1.7795 l 0,5.4891 c 0,0.907 0.060412,1.5008 0.1754506,1.7797 0.1194597,0.2787 0.364052,0.4806 0.7268675,0.6265 0.367236,0.1417 0.925654,0.2256 1.704377,0.2256 l 0.852189,0 0,-1.4035 c -0.389361,0 -0.641316,-0.036 -0.751931,-0.076 -0.106215,-0.04 -0.185781,-0.106 -0.22558,-0.2255 -0.0398,-0.1239 -0.05013,-0.4362 -0.05013,-0.9274 l 0,-5.4891 c 0,-0.5265 0.02655,-0.8668 0.07519,-0.9775 0.0531,-0.115 0.119385,-0.1695 0.225579,-0.2005 0.110615,-0.031 0.35963,-0.05 0.726867,-0.05 l 0,-1.4037 -0.852189,4e-4 z m 2.80721,0 -1.428668,10.7527 2.882402,0 0.175452,-1.93 1.002575,0 0.150386,1.93 2.857339,0 -1.60412,-10.7527 -4.035366,0 z m 13.359315,0 0,10.7527 3.233305,0 c 1.123836,0 1.867915,-0.072 2.23073,-0.2005 0.362815,-0.1284 0.613288,-0.3773 0.776996,-0.7269 0.168131,-0.3495 0.250643,-0.8785 0.250643,-1.6041 l 0,-1.0027 c 0,-0.699 -0.09576,-1.2176 -0.325836,-1.5539 -0.230075,-0.3407 -0.682421,-0.5808 -1.328412,-0.7268 0.579623,-0.1329 0.983349,-0.3288 1.178025,-0.5765 0.199108,-0.2478 0.275709,-0.675 0.275709,-1.3035 0,-0.929 -0.122283,-1.5891 -0.401031,-2.005 -0.278745,-0.4204 -0.647097,-0.715 -1.102831,-0.8523 -0.451307,-0.1371 -1.124664,-0.2005 -2.005151,-0.2005 l -2.782147,0 z m 7.193477,0 0,1.4037 c 0.367237,0 0.59561,0.019 0.701803,0.05 0.110644,0.031 0.19758,0.086 0.250644,0.2006 0.05306,0.1105 0.07519,0.451 0.07519,0.9775 l 0,5.489 c 0,0.4912 -0.0059,0.8035 -0.05013,0.9275 -0.03983,0.1196 -0.119394,0.186 -0.22558,0.2255 -0.106194,0.039 -0.358148,0.076 -0.751932,0.076 l 0,1.4035 0.85219,0 c 0.778716,0 1.337133,-0.084 1.704378,-0.2256 0.367237,-0.1459 0.61183,-0.3478 0.726866,-0.6265 0.115038,-0.2788 0.175451,-0.8726 0.175451,-1.7797 l 0,-5.489 c 0,-0.9026 -0.06042,-1.4965 -0.175451,-1.7796 -0.115036,-0.2832 -0.350778,-0.5101 -0.726866,-0.6518 -0.376089,-0.1415 -0.943357,-0.2004 -1.704378,-0.2004 l -0.852184,-5e-4 z m -4.41133,1.8298 c 0.287597,0.01 0.47911,0.042 0.576481,0.076 0.101727,0.035 0.188663,0.1134 0.250643,0.2506 0.06192,0.1328 0.100258,0.3655 0.100258,0.7017 0,0.6372 -0.05011,1.0159 -0.125322,1.153 -0.07522,0.1329 -0.226971,0.2006 -0.501288,0.2006 -0.06637,0 -0.181312,0.02 -0.300772,0.024 l 0,-2.4059 z m -7.769958,0.3509 0,2.3811 -2.40618,0 0,1.6292 2.40618,0 0,2.3811 1.60412,0 0,-2.3811 2.406181,0 0,-1.6292 -2.406181,0 0,-2.3811 -1.60412,0 z m -6.24103,0.2255 c 0.141584,1.7876 0.28451,3.2949 0.426094,4.5116 l -0.952447,0 c 0.07079,-0.9513 0.243177,-2.4585 0.526353,-4.5116 z m 14.010988,3.4841 c 0.415908,0.013 0.679653,0.077 0.776996,0.1754 0.09733,0.097 0.150386,0.3669 0.150386,0.8271 l 0,1.0025 c 0,0.4336 -0.06484,0.7165 -0.175451,0.8271 -0.106194,0.1105 -0.358148,0.1622 -0.751931,0.1755 l 0,-3.0076 z m -23.660775,7.6696 0,1.9299 33.636398,0 0,-1.9299 -33.636398,0 z m 15.815624,5.5142 0,0.8521 1.679313,0 0,-0.8521 -1.679313,0 z m -2.305924,1.0777 c -0.355768,0 -0.682276,0.042 -0.952445,0.1504 -0.267497,0.1097 -0.439068,0.273 -0.551418,0.4763 -0.112347,0.2005 -0.17545,0.5269 -0.17545,0.9523 0,0.2996 0.04607,0.5578 0.150386,0.777 0.104324,0.2169 0.401113,0.4594 0.877254,0.727 0.567069,0.3155 0.8909,0.4871 0.952446,0.5513 0.05887,0.064 0.07519,0.2221 0.07519,0.4762 0,0.1845 -0.02974,0.3172 -0.07519,0.376 -0.04548,0.057 -0.110556,0.076 -0.225579,0.076 -0.10697,0 -0.188102,-0.04 -0.225579,-0.1254 -0.0348,-0.086 -0.05013,-0.2651 -0.05013,-0.5514 l 0,-0.3258 -1.42867,0 0,0.2507 c 0,0.444 0.04072,0.7832 0.150386,1.0025 0.109673,0.2194 0.309975,0.3729 0.601545,0.5014 0.294245,0.1283 0.665826,0.2004 1.077769,0.2004 0.371819,0 0.6903,-0.057 0.952446,-0.1753 0.264821,-0.1205 0.439069,-0.282 0.551416,-0.5014 0.112349,-0.222 0.175451,-0.5693 0.175451,-1.0026 0,-0.3878 -0.07847,-0.6739 -0.225578,-0.8772 -0.147124,-0.2033 -0.456592,-0.4217 -0.927384,-0.6517 -0.353093,-0.1739 -0.586778,-0.3101 -0.701801,-0.4011 -0.112356,-0.091 -0.176448,-0.1756 -0.200516,-0.2505 -0.02138,-0.078 -0.02507,-0.1878 -0.02507,-0.351 0,-0.1203 0.0047,-0.2168 0.05013,-0.2756 0.04548,-0.062 0.109566,-0.076 0.200515,-0.076 0.112346,0 0.198829,0.033 0.22558,0.1003 0.02942,0.064 0.05013,0.2051 0.05013,0.4512 l 0,0.3007 1.428669,0 0,-0.3257 c 0,-0.2676 -0.0207,-0.4509 -0.05013,-0.5765 -0.02675,-0.1258 -0.09183,-0.279 -0.225579,-0.4262 -0.131074,-0.1471 -0.32771,-0.2627 -0.576481,-0.3508 -0.246093,-0.091 -0.549221,-0.1255 -0.902316,-0.1255 z m 7.193478,0 c -0.222021,0 -0.405284,0.052 -0.576481,0.1504 -0.168521,0.096 -0.33346,0.2308 -0.451159,0.4261 l 0.05013,-0.4762 -1.65425,0 0,5.3136 1.60412,0 0,-3.5842 c 0,-0.4012 0.0207,-0.661 0.05013,-0.7519 0.02942,-0.094 0.110555,-0.1253 0.225579,-0.1253 0.109681,0 0.176447,0.02 0.200515,0.1002 0.02407,0.08 0.02507,0.3103 0.02507,0.6768 l 0,3.6844 1.629185,0 0,-3.7345 c 0,-0.4655 -0.02437,-0.7797 -0.07519,-0.9776 -0.05082,-0.2006 -0.174354,-0.3703 -0.350902,-0.5013 -0.17656,-0.131 -0.398555,-0.2005 -0.67675,-0.2005 z m -4.887554,0.1003 0,5.3136 1.679313,0 0,-5.3136 -1.679313,0 z"
       id="path887" />
    <path
       style="opacity:0.5;fill:#000000;fill-opacity:1;stroke:none"
       d="m 6,1048.3622 0,0 c 18,-1 18,-1 36,0 z"
       id="path3257"
       inkscape:connector-curvature="0"
       sodipodi:nodetypes="cccc" />
    <path
       sodipodi:nodetypes="cccc"
       inkscape:connector-curvature="0"
       id="path4027"
       d="m 6,1008.3622 0,0 c 18,1 18,1 36,0 z"
       style="opacity:0.9;fill:#ffffff;fill-opacity:1;stroke:none" />
  </g>
</svg>
