<?xml version="1.0" encoding="UTF-8" standalone="no"?>
<!-- Created with Inkscape (http://www.inkscape.org/) -->

<svg
   xmlns:dc="http://purl.org/dc/elements/1.1/"
   xmlns:cc="http://creativecommons.org/ns#"
   xmlns:rdf="http://www.w3.org/1999/02/22-rdf-syntax-ns#"
   xmlns:svg="http://www.w3.org/2000/svg"
   xmlns="http://www.w3.org/2000/svg"
   xmlns:xlink="http://www.w3.org/1999/xlink"
   xmlns:sodipodi="http://sodipodi.sourceforge.net/DTD/sodipodi-0.dtd"
   xmlns:inkscape="http://www.inkscape.org/namespaces/inkscape"
   version="1.0"
   width="48"
   height="48"
   id="svg2408"
   inkscape:version="0.48.5 r10040"
   sodipodi:docname="kig.svg">
  <sodipodi:namedview
     pagecolor="#ffffff"
     bordercolor="#666666"
     borderopacity="1"
     objecttolerance="10"
     gridtolerance="10"
     guidetolerance="10"
     inkscape:pageopacity="0"
     inkscape:pageshadow="2"
     inkscape:window-width="1366"
     inkscape:window-height="744"
     id="namedview77"
     showgrid="true"
     inkscape:zoom="6.9567535"
     inkscape:cx="-5.3213079"
     inkscape:cy="37.870111"
     inkscape:window-x="0"
     inkscape:window-y="24"
     inkscape:window-maximized="1"
     inkscape:current-layer="svg2408">
    <inkscape:grid
       type="xygrid"
       id="grid3043"
       empspacing="5"
       visible="true"
       enabled="true"
       snapvisiblegridlinesonly="true" />
  </sodipodi:namedview>
  <defs
     id="defs2410">
    <linearGradient
       id="linearGradient3822">
      <stop
         style="stop-color:#dcdcdc;stop-opacity:1;"
         offset="0"
         id="stop3824" />
      <stop
         style="stop-color:#f7f7f7;stop-opacity:1;"
         offset="1"
         id="stop3826" />
    </linearGradient>
    <linearGradient
       x1="45.447727"
       y1="92.539597"
       x2="45.447727"
       y2="7.0165396"
       id="ButtonShadow"
       gradientUnits="userSpaceOnUse"
       gradientTransform="scale(1.0058652,0.994169)">
      <stop
         id="stop3750"
         style="stop-color:#000000;stop-opacity:1"
         offset="0" />
      <stop
         id="stop3752"
         style="stop-color:#000000;stop-opacity:0.58823532"
         offset="1" />
    </linearGradient>
    <linearGradient
       id="linearGradient3737">
      <stop
         id="stop3739"
         style="stop-color:#ffffff;stop-opacity:1"
         offset="0" />
      <stop
         id="stop3741"
         style="stop-color:#ffffff;stop-opacity:0"
         offset="1" />
    </linearGradient>
    <filter
       color-interpolation-filters="sRGB"
       id="filter3174">
      <feGaussianBlur
         stdDeviation="1.71"
         id="feGaussianBlur3176" />
    </filter>
    <linearGradient
       x1="24.995535"
       y1="-2.75"
       x2="46.020512"
       y2="75.716286"
       id="linearGradient3507"
       xlink:href="#linearGradient3737"
       gradientUnits="userSpaceOnUse" />
    <linearGradient
       x1="24.995535"
       y1="-2.75"
       x2="46.020512"
       y2="75.716286"
       id="linearGradient3519"
       xlink:href="#linearGradient3737"
       gradientUnits="userSpaceOnUse" />
    <filter
       inkscape:collect="always"
       id="filter3812"
       x="-0.11215383"
       width="1.2243077"
       y="-0.12902658"
       height="1.2580531"
       color-interpolation-filters="sRGB">
      <feGaussianBlur
         inkscape:collect="always"
         stdDeviation="1.8150202"
         id="feGaussianBlur3814" />
    </filter>
    <linearGradient
       inkscape:collect="always"
       xlink:href="#linearGradient3822"
       id="linearGradient3828"
       x1="4"
       y1="24"
       x2="44"
       y2="24"
       gradientUnits="userSpaceOnUse" />
  </defs>
  <metadata
     id="metadata2413">
    <rdf:RDF>
      <cc:Work
         rdf:about="">
        <dc:format>image/svg+xml</dc:format>
        <dc:type
           rdf:resource="http://purl.org/dc/dcmitype/StillImage" />
        <dc:title />
      </cc:Work>
    </rdf:RDF>
  </metadata>
  <rect
     style="fill:url(#linearGradient3828);fill-opacity:1;fill-rule:evenodd;stroke:none"
     id="rect3040"
     width="40"
     height="40"
     x="4"
     y="4"
     rx="0" />
  <g
     id="layer2"
     style="display:none"
     transform="translate(0,-48)">
    <rect
       width="86"
       height="85"
       rx="6"
       ry="6"
       x="5"
       y="7"
       id="rect3745"
       style="opacity:0.9;fill:url(#ButtonShadow);fill-opacity:1;fill-rule:nonzero;stroke:none;filter:url(#filter3174)" />
  </g>
  <g
     id="layer3"
     transform="matrix(0.47895032,0,0,0.47895032,1.0395872,1.0500286)">
    <path
       d="m 12.0625,12.0625 0,53.875 71.875,0 0,-53.875 -71.875,0 z"
       transform="matrix(-1.0008688,0,0,-1.1558456,96.010447,88.220854)"
       id="path3215"
       style="fill:#333333;fill-opacity:1;fill-rule:nonzero;stroke:none"
       inkscape:connector-curvature="0" />
    <path
       d="m 12,12 0,62.28125 71.9375,0 L 83.9375,12 12,12 z m 3,3 66,0 0,56 -66,0 0,-56 z"
       inkscape:connector-curvature="0"
       id="path3726"
       style="opacity:0.7;fill:#333333;fill-opacity:1;fill-rule:nonzero;stroke:none" />
  </g>
  <g
     id="layer1"
     style="display:inline"
     transform="matrix(0.47895032,0,0,0.47895032,1.0395872,1.0500286)">
    <path
       d="M 11.3125,8 C 9.42859,8 8,9.4293755 8,11.3125 l 0,63.375 C 8,76.570624 9.42859,78 11.3125,78 l 73.375,0 C 86.57141,78 88,76.570624 88,74.6875 l 0,-63.375 C 88,9.4293754 86.57141,8 84.6875,8 L 11.3125,8 z M 14,14 l 68,0 0,58 -68,0 0,-58 z"
       inkscape:connector-curvature="0"
       id="path3174"
       style="fill:#000000;fill-opacity:1;fill-rule:nonzero;stroke:none" />
    <path
       d="m 33,74 c -1.662,0 -3,1.338 -3,3 l -3,0 0,1 c 1.656,0 3,1.344 3,3 l 0,2 c 0,1.662 1.338,3 3,3 l 30,0 c 1.662,0 3,-1.338 3,-3 l 0,-2 c 0,-1.656 1.344,-3 3,-3 l 0,-1 -3,0 c 0,-1.662 -1.338,-3 -3,-3 l -30,0 z"
       inkscape:connector-curvature="0"
       id="rect3535"
       style="fill:#000000;fill-opacity:1;fill-rule:nonzero;stroke:none" />
    <path
       d="m 14,72 68,0 0,1 -68,0 0,-1 z"
       inkscape:connector-curvature="0"
       id="rect3483"
       style="fill:#7f7f7f;fill-opacity:1;fill-rule:nonzero;stroke:none" />
    <rect
       width="5"
       height="2"
       rx="1"
       ry="1"
       x="55.323669"
       y="81.23436"
       id="rect3485"
       style="fill:#7fff2a;fill-opacity:1;fill-rule:nonzero;stroke:none" />
  </g>
  <g
     id="layer4"
     style="display:none"
     transform="translate(0,-48)">
    <path
       d="m 11.3125,9.15625 c -1.296799,0 -2.15625,0.860159 -2.15625,2.15625 l 0,63.375 c 0,1.296091 0.859451,2.15625 2.15625,2.15625 l 21.40625,0 c 0.426766,-0.0067 0.822797,0.221297 1.03125,0.59375 l 3.28125,6 c 0.294483,0.539885 0.491672,1.007766 0.65625,1.21875 0.164578,0.210984 0.117222,0.1875 0.3125,0.1875 l 7.15625,0 -4.46875,-13.6875 -24.6875,0 C 15.362464,71.153739 14.846261,70.637536 14.84375,70 l 0,-54 c -0.0056,-0.571296 0.405297,-1.061742 0.96875,-1.15625 0.0624,-0.0051 0.125102,-0.0051 0.1875,0 l 6.25,0 -1.875,-5.6875 -9.0625,0 z m 28.6875,0 3.28125,5.6875 36.71875,0 c 0.637536,0.0025 1.153739,0.518714 1.15625,1.15625 l 0,54 C 81.153739,70.637536 80.637536,71.153739 80,71.15625 l -4.21875,0 3.28125,5.6875 5.625,0 c 1.296799,0 2.15625,-0.860159 2.15625,-2.15625 l 0,-63.375 c 0,-1.296091 -0.859451,-2.15625 -2.15625,-2.15625 l -44.6875,0 z"
       inkscape:connector-curvature="0"
       id="path3488"
       style="opacity:0.4;fill:url(#linearGradient3507);fill-opacity:1;fill-rule:evenodd;stroke:none" />
    <path
       d="m 17,17 0,52 22.96875,0 -17,-52 L 17,17 z m 27.53125,0 30,52 L 79,69 79,17 44.53125,17 z"
       inkscape:connector-curvature="0"
       id="path3515"
       style="opacity:0.6;fill:url(#linearGradient3519);fill-opacity:1;fill-rule:evenodd;stroke:none" />
  </g>
  <g
     id="layer5"
     style="display:inline"
     transform="matrix(0.47895032,0,0,0.47895032,1.0395872,1.0500286)">
    <path
       d="M 11.3125,8 C 9.42859,8 8,9.4293755 8,11.3125 l 0,63.375 C 8,76.570624 9.42859,78 11.3125,78 L 27,78 c 1.656,0 3,1.344 3,3 l 0,2 c 0,1.662 1.338,3 3,3 l 30,0 c 1.662,0 3,-1.338 3,-3 l 0,-2 c 0,-1.656 1.344,-3 3,-3 l 15.6875,0 C 86.57141,78 88,76.570624 88,74.6875 l 0,-63.375 C 88,9.4293754 86.57141,8 84.6875,8 L 11.3125,8 z M 14,14 l 68,0 0,58 -68,0 0,-58 z"
       inkscape:connector-curvature="0"
       id="path3691"
       style="fill:#000000;fill-opacity:1;fill-rule:nonzero;stroke:none;display:none" />
  </g>
  <path
     sodipodi:type="star"
     style="fill:none;stroke:#00ffff;stroke-opacity:1"
     id="path3040"
     sodipodi:sides="3"
     sodipodi:cx="42.692329"
     sodipodi:cy="22.258707"
     sodipodi:r1="22.424713"
     sodipodi:r2="11.212357"
     sodipodi:arg1="-1.5643862"
     sodipodi:arg2="-0.51718861"
     inkscape:flatsided="false"
     inkscape:rounded="0"
     inkscape:randomized="0"
     d="M 42.836074,-0.16554538 52.438252,16.714887 62.04043,33.595319 42.620457,33.470833 23.200485,33.346347 33.01828,16.5904 z"
     inkscape:transform-center-x="0.040261421"
     inkscape:transform-center-y="-3.1055823"
     transform="matrix(0.56018824,0,0,0.56018824,0.15372346,14.262195)" />
  <path
     style="opacity:0.5;fill:#000000;fill-opacity:1;stroke:none"
     d="m 4,44 0,0 c 20,-1 20,-1 40,0 z"
     id="path3257"
     inkscape:connector-curvature="0"
     sodipodi:nodetypes="cccc" />
  <path
     sodipodi:nodetypes="cccc"
     inkscape:connector-curvature="0"
     id="path4027"
     d="m 4,3.9999996 0,0 c 20,1 20,1 40,0 z"
     style="opacity:0.75;fill:#ffffff;fill-opacity:1;stroke:none" />
</svg>
