<?xml version="1.0" encoding="UTF-8" standalone="no"?>
<!-- Created with Inkscape (http://www.inkscape.org/) -->

<svg
   xmlns:dc="http://purl.org/dc/elements/1.1/"
   xmlns:cc="http://creativecommons.org/ns#"
   xmlns:rdf="http://www.w3.org/1999/02/22-rdf-syntax-ns#"
   xmlns:svg="http://www.w3.org/2000/svg"
   xmlns="http://www.w3.org/2000/svg"
   xmlns:xlink="http://www.w3.org/1999/xlink"
   xmlns:sodipodi="http://sodipodi.sourceforge.net/DTD/sodipodi-0.dtd"
   xmlns:inkscape="http://www.inkscape.org/namespaces/inkscape"
   version="1.0"
   width="48"
   height="48"
   id="svg2408"
   style="display:inline"
   inkscape:version="0.48.5 r10040"
   sodipodi:docname="kipi-gpsimagetag.svg">
  <sodipodi:namedview
     pagecolor="#ffffff"
     bordercolor="#666666"
     borderopacity="1"
     objecttolerance="10"
     gridtolerance="10"
     guidetolerance="10"
     inkscape:pageopacity="0"
     inkscape:pageshadow="2"
     inkscape:window-width="1366"
     inkscape:window-height="744"
     id="namedview87"
     showgrid="true"
     inkscape:zoom="7.9827498"
     inkscape:cx="-12.266892"
     inkscape:cy="36.222054"
     inkscape:window-x="0"
     inkscape:window-y="24"
     inkscape:window-maximized="1"
     inkscape:current-layer="svg2408">
    <inkscape:grid
       type="xygrid"
       id="grid4389"
       empspacing="5"
       visible="true"
       enabled="true"
       snapvisiblegridlinesonly="true" />
  </sodipodi:namedview>
  <defs
     id="defs2410">
    <linearGradient
       id="linearGradient4400">
      <stop
         style="stop-color:#264de4;stop-opacity:1;"
         offset="0"
         id="stop4402" />
      <stop
         style="stop-color:#496fff;stop-opacity:1;"
         offset="1"
         id="stop4404" />
    </linearGradient>
    <linearGradient
       x1="45.447727"
       y1="92.539597"
       x2="45.447727"
       y2="7.0165396"
       id="ButtonShadow"
       gradientUnits="userSpaceOnUse"
       gradientTransform="matrix(1.0058652,0,0,0.994169,100,0)">
      <stop
         id="stop3750"
         style="stop-color:#000000;stop-opacity:1"
         offset="0" />
      <stop
         id="stop3752"
         style="stop-color:#000000;stop-opacity:0.58823532"
         offset="1" />
    </linearGradient>
    <filter
       color-interpolation-filters="sRGB"
       id="filter3174">
      <feGaussianBlur
         id="feGaussianBlur3176"
         stdDeviation="1.71" />
    </filter>
    <linearGradient
       inkscape:collect="always"
       xlink:href="#linearGradient4400"
       id="linearGradient4406"
       x1="4"
       y1="-24"
       x2="44"
       y2="-24"
       gradientUnits="userSpaceOnUse" />
  </defs>
  <metadata
     id="metadata2413">
    <rdf:RDF>
      <cc:Work
         rdf:about="">
        <dc:format>image/svg+xml</dc:format>
        <dc:type
           rdf:resource="http://purl.org/dc/dcmitype/StillImage" />
        <dc:title />
      </cc:Work>
    </rdf:RDF>
  </metadata>
  <g
     id="layer2"
     style="display:none"
     transform="translate(0,-48)">
    <rect
       width="86"
       height="85"
       rx="6"
       ry="6"
       x="105"
       y="7"
       id="rect3745"
       style="opacity:0.9;fill:url(#ButtonShadow);fill-opacity:1;fill-rule:nonzero;stroke:none;filter:url(#filter3174)" />
  </g>
  <rect
     style="fill:url(#linearGradient4406);fill-opacity:1;fill-rule:nonzero;stroke:none"
     id="rect2419"
     transform="scale(1,-1)"
     y="-44"
     x="4"
     ry="0"
     rx="2.8571427"
     height="40"
     width="40" />
  <g
     inkscape:groupmode="layer"
     id="layer1"
     inkscape:label="Ebene"
     style="display:inline"
     transform="translate(0,-48)" />
  <path
     d="m 18.436937,4.186121 c 0.778896,1.0839395 0.05315,2.8940047 1.227961,2.8760361 0.572046,0.8381357 -1.14015,0.2500186 0.09611,0.8959958 0.710916,0.5802247 -0.752122,0.9117408 0.128287,1.4324337 -1.014701,0.5426142 0.164472,2.8380884 0.918144,3.4125814 1.240456,1.082213 0.548587,-2.291268 1.932703,-2.466754 0.752104,-0.8898127 2.073054,-1.4610069 3.011166,-2.3561374 -0.91681,-0.077132 -1.452166,-0.6685138 -0.583901,-1.03485 1.598013,1.6969863 0.4007,-0.8036676 -0.48389,-1.1996095 0.855948,-0.282169 1.688419,-0.075539 1.569653,-0.8075019 0.90455,-0.6858152 -0.86959,-0.9072433 -1.502895,-0.7521942 -2.104445,0 -4.208884,0 -6.313331,0 z M 5.3137956,4.8940686 C 4.1574498,5.235479 4.0767893,8.0993355 5.2390505,6.5090738 5.5243151,5.8560929 6.8425523,5.0691595 5.3137956,4.8940686 z m 5.4030204,0.099555 c -0.66662,1.0832785 0.09672,1.9518013 0.651352,0.6305161 0.392587,-0.5517476 -0.291679,-0.6103004 -0.651352,-0.6305161 z m 1.665751,0.2433576 c -1.288037,0.6186747 -0.317485,2.0613666 -0.285603,2.382229 1.356867,0.4864606 2.111472,-0.3180572 2.624779,1.0569442 1.291062,0.7711048 -0.0254,2.1109975 -0.51004,2.4599455 0.872932,-0.787854 2.550894,2.14201 2.111014,0.594086 -0.524792,-0.397097 1.409064,0.637917 0.405761,-0.652639 -0.923312,-1.5416156 0.07329,-0.690166 0.46256,-0.330366 C 18.515009,9.5168365 15.693023,9.3681273 16.397458,8.1019561 15.780167,7.5838308 14.97058,6.0142175 13.877476,6.3210255 13.145726,7.3017245 13.776397,4.1841608 12.702793,5.7442308 12.647151,6.6163023 12.682543,7.7229056 12.369681,6.2121084 12.160068,5.9476265 12.730307,5.3327589 12.382571,5.2369813 z M 9.7558042,5.2480429 C 8.8912437,5.5467433 8.9376785,6.757311 10.000764,6.8870915 10.364899,6.45696 10.145437,5.3294952 9.7558042,5.2480429 z M 6.3815857,5.635201 C 5.2586037,5.9109314 5.7169797,6.8492957 6.0608109,7.1135728 4.6707393,7.47441 8.1828852,7.5747519 6.4349752,7.8032899 4.9807684,8.4051553 7.8353119,9.1142414 8.3036085,8.40062 10.099372,8.8557401 8.3682333,6.9108919 8.2106004,5.8566367 7.4493428,5.009961 8.1805528,7.8084547 7.4922424,5.94681 7.2520828,6.4996343 6.48847,6.0282747 6.3815857,5.635201 z M 42.067137,5.756879 c -1.506909,0.61117 0.936581,2.9175241 0.329307,0.8193001 -0.0605,-0.2533582 0.136033,-0.9227752 -0.329307,-0.8193001 z M 10.599358,6.6860595 C 9.5164961,7.7406666 11.975776,8.6127766 10.288345,9.3984379 10.03533,8.4190233 9.6000033,9.8884571 8.6346237,9.0975056 6.9750347,9.813615 6.1263495,8.724491 4.7368689,7.9779304 3.9023166,7.8702729 4.2158576,8.7996937 4.1605821,9.6699285 c 0,2.4049985 0,4.8099995 0,7.2149985 0.8182487,0.892151 0.3192437,0.393625 0,0.147554 0.4491154,1.585128 -0.198048,3.902248 1.572242,4.824285 0.300945,0.578492 1.5637602,3.043019 1.6219782,2.305608 -0.6330852,-0.687062 -1.2826557,-2.746842 -0.2114171,-0.910998 0.9595096,1.745102 2.253798,2.876971 4.1445958,3.292247 1.033761,0.364408 1.883928,1.617071 2.793023,1.341457 0.514057,1.404361 -1.523415,2.752952 0.0684,4.062819 0.831007,1.32604 2.226151,2.195753 1.470808,4.057425 -0.528227,1.818188 -0.302062,3.799319 -0.758915,5.49335 -0.141792,1.031146 1.386826,3.648353 1.254389,1.552594 0.446332,-1.456406 0.434564,-3.058931 1.485738,-4.090315 1.43831,0.01179 0.274894,-1.60278 1.702592,-1.391863 0.871191,-1.183393 1.123526,-2.595128 2.59373,-3.06503 0.175616,-1.436461 2.444529,-3.636416 0.100603,-4.195686 -0.637048,-0.325398 -2.277281,-0.442404 -2.151929,-0.602961 0.253963,-1.425345 -2.121027,-1.83112 -3.131522,-2.414273 -1.326741,-0.975949 -3.320327,1.621291 -3.787763,-0.616628 -0.278909,-0.704119 -1.298693,-0.715538 -0.830021,-1.802028 -0.844635,0.87056 -2.4966958,0.605975 -2.064174,-1.075247 0.656852,-1.415915 3.179384,-1.482908 3.609218,0.220183 -0.596804,-1.878308 1.153598,-3.340497 2.125303,-4.6768 0.197854,-0.638718 1.373467,-1.187475 0.968914,-0.338587 0.689227,-0.02576 1.733877,-1.314715 0.509508,-0.719799 -0.01732,-1.175479 -1.072902,-0.841193 -1.415128,-0.674283 0.634291,-1.043295 3.891828,-0.472915 2.527731,-2.178246 -1.057003,-0.443846 -0.969075,-3.033909 -2.038201,-1.590975 0.08997,-0.889053 -2.176035,-2.629365 -2.126586,-1.138522 0.276602,1.334025 0.05058,2.870792 -0.53807,3.745225 -0.122845,-1.954794 -3.339894,-1.522755 -2.926281,-3.605806 0.599212,-0.992791 1.299412,-2.365687 1.366124,-2.242181 1.073878,-0.424902 1.937465,-1.6608587 0.692851,-2.4733679 -0.06652,0.7081556 -0.936038,2.1692249 -0.813609,0.4021085 C 11.169541,9.5154997 11.353439,6.9519305 10.599357,6.6860595 z M 36.30107,7.3718843 c -1.88618,0.4781523 -2.633928,2.3451121 -3.566997,3.8914567 -1.375412,0.642648 -1.323055,3.402543 0.213549,2.52107 0.411265,0.744377 -0.287703,1.917656 0.910209,0.944344 0.966233,-1.325113 0.168956,-3.468283 1.813241,-4.303847 0.119772,0.649696 -1.516773,3.07568 0.39508,2.676925 1.728346,0.06758 -1.256456,0.178466 -0.415847,1.322584 -0.873373,-0.537013 -0.419555,1.466642 -1.559563,1.000368 -0.987626,0.556731 -1.635248,-0.258493 -1.409007,-1.15155 -0.776932,0.469711 0.244367,1.794812 -1.104338,1.874448 -0.302119,1.111795 -2.786538,0.94422 -1.373684,2.076327 0.627272,1.684743 -2.337247,0.105615 -1.495628,2.127363 0.720049,1.999202 2.229086,-0.662445 2.841316,-1.176679 1.181231,-0.949555 2.931582,1.619087 1.868635,1.714561 1.191899,-0.165724 0.94697,-1.340442 -0.0079,-1.795227 -0.515771,-1.386252 1.632745,0.679853 1.513593,1.374883 0.758048,1.471049 0.445884,-1.50613 1.217279,-0.188048 -0.09006,1.390382 3.103172,0.326916 1.578633,2.098945 -1.310754,0.273595 -2.600914,-0.350186 -3.729382,0.04935 -1.050307,-0.0096 -0.997609,-1.172579 -1.380001,-1.46381 -1.336002,0.112487 -2.98694,0.09977 -3.881345,1.21827 -0.967188,1.375206 -2.361929,3.297645 -1.307758,5.053611 1.054914,2.602139 3.671017,0.134975 5.174792,1.671741 0.446974,0.640763 -0.387344,1.402438 0.612073,2.096504 0.376072,1.478476 -0.426936,2.882264 0.496697,4.295598 0.477613,1.329166 0.774016,3.318591 2.55165,2.104027 1.881379,-1.173306 1.380274,-3.336227 2.932657,-4.534225 -1.228335,-2.463561 1.50275,-3.543758 2.18416,-5.543724 -1.488741,0.225868 -2.815045,-1.31233 -3.174736,-2.860559 -0.625404,-0.752008 -0.46432,-1.860849 0.234279,-0.448143 0.960221,0.96424 0.980966,3.825395 2.757221,2.353515 0.812047,-0.351992 3.029734,-1.694701 1.262717,-2.305741 -1.139014,0.854948 -2.39564,-2.554609 -0.723056,-0.576993 1.215944,0.534612 2.067446,0.853142 2.067446,-0.919373 0,-4.775531 0,-9.615771 0,-14.4236557 -0.378752,0.4011082 -1.351782,1.1419084 -1.842915,0.649657 -0.845097,0.1219555 -1.960735,1.8260247 -1.695156,0.1787442 -0.734582,-0.050407 -0.131496,1.4770095 -1.140712,1.5197255 -0.101618,0.785261 -1.019511,0.145415 -0.674725,0.891119 -0.708343,-0.520713 -1.307823,-2.1647764 0.08786,-1.132856 C 40.604005,9.6081794 37.164539,8.154628 36.899055,7.8032899 37.34533,7.6924781 36.413525,7.2105128 36.30109,7.3718843 z M 19.195069,7.8032899 c -0.689863,0.5956869 1.311537,0.7078665 0,0 z M 9.9800385,8.1240781 c -0.7715923,0.8364186 1.2288115,0.7689107 0,0 z m 4.4740435,0.8296257 c -0.584299,0.9919534 0.863347,0.3662249 0,0 z m 12.792126,1.1725372 c -0.684072,0.816162 -1.586969,-0.2147945 -1.601686,0.486715 0.123976,0.211964 0.620555,1.724808 1.708466,0.608392 0.583885,-0.255111 0.353995,-0.898215 -0.10678,-1.095107 z m -14.564657,0.486715 c -1.297505,1.174297 2.20355,1.282492 0.274869,0.13468 l -0.274869,-0.134681 z m 17.116679,3.252133 c -0.934178,0.631305 0.448154,1.971999 -0.02034,2.601777 -0.585356,1.056933 2.175239,-0.07445 0.700772,-0.917717 -0.105055,-0.724493 -0.863813,-1.60846 -0.680441,-1.68406 z m -0.630002,1.272093 c -1.301554,0.381341 -0.295463,2.350198 0.165525,0.495832 0.02592,-0.107506 0.06107,-0.499429 -0.165525,-0.495832 z m -10.421629,1.426956 c -1.210846,0.85565 -0.188069,1.709724 0.699331,1.324732 -0.182182,-0.516258 -0.691124,-0.84153 -0.699331,-1.324732 z m 22.872068,1.438019 c 0.604167,0.315984 -1.107152,0.85577 -0.02351,1.411886 0.630615,0.76853 0.392871,2.418276 -0.632135,1.25066 0.190433,-1.303641 -1.389431,-2.277212 0.655656,-2.662546 z m -3.107273,0.01106 c -0.08197,0.837539 1.743633,2.139397 -0.224231,1.714561 -1.040695,0.126514 -2.599422,-0.03296 -1.288356,-1.376839 0.414272,-0.257739 1.502008,0.889226 0.935986,-0.182857 0.200671,-0.01327 0.387565,-0.09177 0.576601,-0.154865 z m -6.011657,1.814115 c -0.759067,0.506794 0.524886,0.895398 0,0 z m -19.060053,4.723336 c -0.127972,0.44244 2.400705,0.89082 0.655778,0.181977 l -0.260118,-0.09488 -0.39566,-0.08709 z m 1.964729,0.630516 c -0.766997,0.806937 1.580253,0.24108 0,0 z m 25.648326,7.400261 c -1.666586,0.04457 -1.445022,4.499486 -0.283277,1.863462 0.110171,-0.57202 0.55175,-1.327008 0.283277,-1.863462 z"
     inkscape:connector-curvature="0"
     id="path3522-9"
     style="opacity:0.7;fill:#f2f2f2;fill-opacity:1;stroke:none;display:inline" />
  <path
     sodipodi:nodetypes="cccc"
     inkscape:connector-curvature="0"
     id="path4027"
     d="m 4,3.9999998 0,0 c 20,1 20,1 40,0 z"
     style="opacity:0.75;fill:#ffffff;fill-opacity:1;stroke:none" />
  <g
     transform="matrix(1.6872891,0,0,1.6872891,23.23896,2.8140762)"
     id="g3005">
    <text
       sodipodi:linespacing="125%"
       id="text3025"
       y="6.8416085"
       x="3.7681069"
       style="font-size:14.38723183px;font-style:italic;font-variant:normal;font-weight:bold;font-stretch:normal;line-height:125%;letter-spacing:0px;word-spacing:0px;fill:#000000;fill-opacity:1;stroke:none;font-family:URW Chancery L;-inkscape-font-specification:URW Chancery L Bold Italic"
       xml:space="preserve"><tspan
         y="6.8416085"
         x="3.7681069"
         id="tspan3027"
         sodipodi:role="line" /></text>
    <path
       inkscape:connector-curvature="0"
       id="path4215"
       d="m 6.7733342,1.6136965 -3.9511206,2.1795577 0.010731,0.5046322 0,0.8481992 -0.010731,6.9574134 c -8.63e-5,0.281199 0.2633987,0.504597 0.5905208,0.504632 l 6.7104626,0 c 0.327361,-3.5e-5 0.590499,-0.223433 0.590521,-0.504632 l 0.01073,-6.9574134 0,-0.8481992 -0.01073,-0.5046322 -3.9403838,-2.1795577 z m 0,0.6871342 c 0.3795036,0 0.6871515,0.3076709 0.6871515,0.6871702 0,0.3794992 -0.3076479,0.6871341 -0.6871515,0.6871341 -0.3795035,0 -0.6871514,-0.3076349 -0.6871514,-0.6871341 0,-0.3794993 0.3076479,-0.6871702 0.6871514,-0.6871702 z"
       style="fill:#ececec;fill-opacity:1;stroke:none" />
    <rect
       ry="0.2370088"
       y="-6.2726517e-16"
       x="6.4136534"
       height="2.4530425"
       width="0.7193616"
       id="rect5077"
       style="fill:#353535;fill-opacity:1;stroke:none" />
    <rect
       ry="0.060323458"
       style="fill:#ffffff;fill-opacity:0.05882353;stroke:none"
       id="rect5079"
       width="0.17984028"
       height="2.2802291"
       x="6.5215569"
       y="-8.4930977e-16" />
    <rect
       ry="0.060323458"
       y="-8.4930977e-16"
       x="6.8452706"
       height="2.2802291"
       width="0.17984028"
       id="rect5093"
       style="fill:#ffffff;fill-opacity:0.05882353;stroke:none" />
    <g
       transform="matrix(0.3596808,0,0,0.3596808,-1.8590049,-362.51353)"
       id="g4272">
      <rect
         y="1012.3622"
         x="22"
         height="1"
         width="4"
         id="rect5095"
         style="fill:#353535;fill-opacity:1;stroke:none"
         ry="0.5" />
      <rect
         ry="0.2605111"
         y="-25.700001"
         x="1012.6122"
         height="3.3999996"
         width="0.49999967"
         id="rect5097"
         style="fill:#ffffff;fill-opacity:0.05882353;stroke:none"
         transform="matrix(0,1,-1,0,0,0)" />
    </g>
  </g>
  <path
     style="opacity:0.5;fill:#000000;fill-opacity:1;stroke:none"
     d="m 4,44 0,0 c 20,-1 20,-1 40,0 z"
     id="path3257"
     inkscape:connector-curvature="0"
     sodipodi:nodetypes="cccc" />
</svg>
