<?xml version="1.0" encoding="UTF-8" standalone="no"?>
<!-- Created using Karbon, part of Calligra: http://www.calligra.org/karbon -->

<svg
   xmlns:dc="http://purl.org/dc/elements/1.1/"
   xmlns:cc="http://creativecommons.org/ns#"
   xmlns:rdf="http://www.w3.org/1999/02/22-rdf-syntax-ns#"
   xmlns:svg="http://www.w3.org/2000/svg"
   xmlns="http://www.w3.org/2000/svg"
   xmlns:xlink="http://www.w3.org/1999/xlink"
   xmlns:sodipodi="http://sodipodi.sourceforge.net/DTD/sodipodi-0.dtd"
   xmlns:inkscape="http://www.inkscape.org/namespaces/inkscape"
   width="38.4pt"
   height="38.4pt"
   id="svg2"
   version="1.1"
   inkscape:version="0.48.5 r10040"
   sodipodi:docname="kruler.svg">
  <metadata
     id="metadata31">
    <rdf:RDF>
      <cc:Work
         rdf:about="">
        <dc:format>image/svg+xml</dc:format>
        <dc:type
           rdf:resource="http://purl.org/dc/dcmitype/StillImage" />
        <dc:title />
      </cc:Work>
    </rdf:RDF>
  </metadata>
  <sodipodi:namedview
     pagecolor="#ffffff"
     bordercolor="#666666"
     borderopacity="1"
     objecttolerance="10"
     gridtolerance="10"
     guidetolerance="10"
     inkscape:pageopacity="0"
     inkscape:pageshadow="2"
     inkscape:window-width="1366"
     inkscape:window-height="673"
     id="namedview29"
     showgrid="true"
     inkscape:zoom="3.4766082"
     inkscape:cx="-16.114144"
     inkscape:cy="40.856758"
     inkscape:window-x="0"
     inkscape:window-y="27"
     inkscape:window-maximized="1"
     inkscape:current-layer="svg2"
     inkscape:showpageshadow="false"
     borderlayer="true"
     inkscape:snap-bbox="true"
     inkscape:bbox-paths="true"
     inkscape:snap-global="false">
    <sodipodi:guide
       position="9.5367432e-07,48.000001"
       orientation="47.999999,0"
       id="guide4064" />
    <sodipodi:guide
       position="9.5367432e-07,1.9073486e-06"
       orientation="0,47.999999"
       id="guide4066" />
    <sodipodi:guide
       position="48,1.9073486e-06"
       orientation="-47.999999,0"
       id="guide4068" />
    <sodipodi:guide
       position="48,48.000001"
       orientation="0,-47.999999"
       id="guide4070" />
    <sodipodi:guide
       position="4.000001,44.000001"
       orientation="39.999999,0"
       id="guide4072" />
    <sodipodi:guide
       position="4.000001,4.0000019"
       orientation="0,39.999999"
       id="guide4074" />
    <sodipodi:guide
       position="44,4.0000019"
       orientation="-39.999999,0"
       id="guide4076" />
    <sodipodi:guide
       position="44,44.000001"
       orientation="0,-39.999999"
       id="guide4078" />
    <sodipodi:guide
       position="15.000001,15.000002"
       orientation="0,17.999999"
       id="guide4082" />
    <sodipodi:guide
       position="33,15.000002"
       orientation="-17.999999,0"
       id="guide4084" />
    <sodipodi:guide
       position="33,33.000001"
       orientation="0,-17.999999"
       id="guide4086" />
    <sodipodi:guide
       position="37,44.000001"
       orientation="11,0"
       id="guide4094" />
    <sodipodi:guide
       position="37,33.000001"
       orientation="0,11"
       id="guide4096" />
    <sodipodi:guide
       position="48,33.000001"
       orientation="-11,0"
       id="guide4098" />
    <sodipodi:guide
       position="48,44.000001"
       orientation="0,-11"
       id="guide4100" />
    <inkscape:grid
       type="xygrid"
       id="grid4107"
       empspacing="5"
       visible="true"
       enabled="true"
       snapvisiblegridlinesonly="true" />
  </sodipodi:namedview>
  <defs
     id="defs4">
    <linearGradient
       id="linearGradient3793">
      <stop
         style="stop-color:#3498db;stop-opacity:1;"
         offset="0"
         id="stop3795" />
      <stop
         style="stop-color:#52afee;stop-opacity:1;"
         offset="1"
         id="stop3797" />
    </linearGradient>
    <linearGradient
       inkscape:collect="always"
       xlink:href="#linearGradient3793"
       id="linearGradient3799"
       x1="4.0628841"
       y1="23.999999"
       x2="44.069457"
       y2="23.999999"
       gradientUnits="userSpaceOnUse" />
  </defs>
  <path
     style="fill:url(#linearGradient3799);fill-opacity:1;stroke:none"
     d="m 4.0628841,3.999999 0,40 40.0065729,0 -0.07576,-29 L 33.992043,4 z"
     id="rect4088"
     inkscape:connector-curvature="0"
     sodipodi:nodetypes="cccccc" />
  <path
     style="fill:#68b1e1;fill-opacity:1;fill-rule:evenodd;stroke:none"
     d="m 7.5515999,4.15039 0,1.8426559 -3.4887158,0 0,0.2996502 3.4887158,0 0,5.6777899 -3.4887158,0 0,0.299652 3.4887158,0 0,5.67779 -3.4887158,0 0,0.299651 3.4887158,0 0,5.67779 -3.4887158,0 0,0.299652 3.4887158,0 0,5.67779 -3.4887158,0 0,0.299651 3.4887158,0 0,5.67779 -3.4887158,0 0,0.299652 3.4887158,0 0,5.67779 -3.4887158,0 0,0.299651 3.4887158,0 0,1.842655 0.2725834,0 0,-1.842655 5.1649267,0 0,1.842655 0.272584,0 0,-1.842655 5.164926,0 0,1.842655 0.272585,0 0,-1.842655 5.164925,0 0,1.842655 0.272586,0 0,-1.842655 5.164926,0 0,1.842655 0.272584,0 0,-1.842655 5.164927,0 0,1.842655 0.272583,0 0,-1.842655 5.164927,0 0,1.842655 0.272585,0 0,-1.842655 3.488714,0 0,-0.299651 -3.488714,0 0,-5.67779 3.488714,0 0,-0.299652 -3.488714,0 0,-5.67779 3.488714,0 0,-0.299651 -3.488714,0 0,-5.67779 3.488714,0 0,-0.299652 -3.488714,0 0,-5.67779 3.488714,0 0,-0.299651 -3.488714,0 0,-5.67779 0.906251,0 -0.272585,-0.299652 -0.633666,0 0,-0.696589 -0.272585,-0.299651 0,0.99624 -5.164927,0 0,-5.6777899 0.906253,0 -0.272585,-0.2996502 -0.633668,0 0,-0.6965901 -0.272583,-0.2996501 0,0.9962402 -5.164927,0 0,-1.8426559 -0.272584,0 0,1.8426559 -5.164926,0 0,-1.8426559 -0.272586,0 0,1.8426559 -5.164925,0 0,-1.8426559 -0.272585,0 0,1.8426559 -5.164926,0 0,-1.8426559 -0.272584,0 0,1.8426559 -5.1649267,0 0,-1.8426559 -0.2725834,0 z m 0.2725834,2.1423061 5.1649267,0 0,5.6777899 -5.1649267,0 0,-5.6777899 z m 5.4375107,0 5.164926,0 0,5.6777899 -5.164926,0 0,-5.6777899 z m 5.437511,0 5.164925,0 0,5.6777899 -5.164925,0 0,-5.6777899 z m 5.437511,0 5.164926,0 0,5.6777899 -5.164926,0 0,-5.6777899 z m 5.43751,0 5.164927,0 0,5.6777899 -5.164927,0 0,-5.6777899 z m -21.7500427,5.9774419 5.1649267,0 0,5.67779 -5.1649267,0 0,-5.67779 z m 5.4375107,0 5.164926,0 0,5.67779 -5.164926,0 0,-5.67779 z m 5.437511,0 5.164925,0 0,5.67779 -5.164925,0 0,-5.67779 z m 5.437511,0 5.164926,0 0,5.67779 -5.164926,0 0,-5.67779 z m 5.43751,0 5.164927,0 0,5.67779 -5.164927,0 0,-5.67779 z m 5.43751,0 5.164927,0 0,5.67779 -5.164927,0 0,-5.67779 z m -27.1875527,5.977441 5.1649267,0 0,5.67779 -5.1649267,0 0,-5.67779 z m 5.4375107,0 5.164926,0 0,5.67779 -5.164926,0 0,-5.67779 z m 5.437511,0 5.164925,0 0,5.67779 -5.164925,0 0,-5.67779 z m 5.437511,0 5.164926,0 0,5.67779 -5.164926,0 0,-5.67779 z m 5.43751,0 5.164927,0 0,5.67779 -5.164927,0 0,-5.67779 z m 5.43751,0 5.164927,0 0,5.67779 -5.164927,0 0,-5.67779 z m -27.1875527,5.977442 5.1649267,0 0,5.67779 -5.1649267,0 0,-5.67779 z m 5.4375107,0 5.164926,0 0,5.67779 -5.164926,0 0,-5.67779 z m 5.437511,0 5.164925,0 0,5.67779 -5.164925,0 0,-5.67779 z m 5.437511,0 5.164926,0 0,5.67779 -5.164926,0 0,-5.67779 z m 5.43751,0 5.164927,0 0,5.67779 -5.164927,0 0,-5.67779 z m 5.43751,0 5.164927,0 0,5.67779 -5.164927,0 0,-5.67779 z m -27.1875527,5.977441 5.1649267,0 0,5.67779 -5.1649267,0 0,-5.67779 z m 5.4375107,0 5.164926,0 0,5.67779 -5.164926,0 0,-5.67779 z m 5.437511,0 5.164925,0 0,5.67779 -5.164925,0 0,-5.67779 z m 5.437511,0 5.164926,0 0,5.67779 -5.164926,0 0,-5.67779 z m 5.43751,0 5.164927,0 0,5.67779 -5.164927,0 0,-5.67779 z m 5.43751,0 5.164927,0 0,5.67779 -5.164927,0 0,-5.67779 z m -27.1875527,5.977442 5.1649267,0 0,5.67779 -5.1649267,0 0,-5.67779 z m 5.4375107,0 5.164926,0 0,5.67779 -5.164926,0 0,-5.67779 z m 5.437511,0 5.164925,0 0,5.67779 -5.164925,0 0,-5.67779 z m 5.437511,0 5.164926,0 0,5.67779 -5.164926,0 0,-5.67779 z m 5.43751,0 5.164927,0 0,5.67779 -5.164927,0 0,-5.67779 z m 5.43751,0 5.164927,0 0,5.67779 -5.164927,0 0,-5.67779 z"
     id="rect3300-3"
     inkscape:connector-curvature="0" />
  <g
     id="g4173"
     transform="matrix(0.64524122,-0.70710678,0.64524122,0.70710678,-6.5869531,21.024233)">
    <path
       inkscape:connector-curvature="0"
       id="path4111"
       d="m -3.3930244,29.099617 -0.4414994,-8.842256 46.6690478,0 0,8.485282 z"
       style="fill:#2c3e50;fill-opacity:1;stroke:none"
       sodipodi:nodetypes="ccccc" />
    <rect
       y="20.25736"
       x="19.25"
       height="3"
       width="0.49999991"
       id="rect4113"
       style="fill:#ecf0f1;fill-opacity:1;stroke:none" />
    <rect
       style="fill:#ecf0f1;fill-opacity:1;stroke:none"
       id="rect4117"
       width="0.49999991"
       height="1.5"
       x="17.25"
       y="20.25736" />
    <rect
       y="20.25736"
       x="15.25"
       height="1.5"
       width="0.49999991"
       id="rect4119"
       style="fill:#ecf0f1;fill-opacity:1;stroke:none" />
    <rect
       style="fill:#ecf0f1;fill-opacity:1;stroke:none"
       id="rect4121"
       width="0.49999991"
       height="3"
       x="13.25"
       y="20.25736" />
    <rect
       y="20.25736"
       x="11.25"
       height="1.5"
       width="0.49999991"
       id="rect4133"
       style="fill:#ecf0f1;fill-opacity:1;stroke:none" />
    <rect
       style="fill:#ecf0f1;fill-opacity:1;stroke:none"
       id="rect4135"
       width="0.49999991"
       height="1.5"
       x="9.25"
       y="20.25736" />
    <rect
       style="fill:#ecf0f1;fill-opacity:1;stroke:none"
       id="rect4137"
       width="0.49999991"
       height="1.5"
       x="5.25"
       y="20.25736" />
    <rect
       y="20.25736"
       x="3.25"
       height="1.5"
       width="0.49999991"
       id="rect4139"
       style="fill:#ecf0f1;fill-opacity:1;stroke:none" />
    <rect
       y="20.25736"
       x="-0.75"
       height="1.5"
       width="0.49999991"
       id="rect4141"
       style="fill:#ecf0f1;fill-opacity:1;stroke:none" />
    <rect
       style="fill:#ecf0f1;fill-opacity:1;stroke:none"
       id="rect4143"
       width="0.49999991"
       height="1.5"
       x="-2.75"
       y="20.25736" />
    <rect
       style="fill:#ecf0f1;fill-opacity:1;stroke:none"
       id="rect4145"
       width="0.49999991"
       height="3"
       x="7.25"
       y="20.25736" />
    <rect
       y="20.25736"
       x="1.25"
       height="3"
       width="0.49999991"
       id="rect4147"
       style="fill:#ecf0f1;fill-opacity:1;stroke:none" />
    <rect
       y="20.25736"
       x="41.25"
       height="1.5"
       width="0.49999991"
       id="rect4151"
       style="fill:#ecf0f1;fill-opacity:1;stroke:none" />
    <rect
       style="fill:#ecf0f1;fill-opacity:1;stroke:none"
       id="rect4153"
       width="0.49999991"
       height="1.5"
       x="39.25"
       y="20.25736" />
    <rect
       y="20.25736"
       x="37.25"
       height="3"
       width="0.49999991"
       id="rect4155"
       style="fill:#ecf0f1;fill-opacity:1;stroke:none" />
    <rect
       style="fill:#ecf0f1;fill-opacity:1;stroke:none"
       id="rect4157"
       width="0.49999991"
       height="1.5"
       x="35.25"
       y="20.25736" />
    <rect
       y="20.25736"
       x="33.25"
       height="1.5"
       width="0.49999991"
       id="rect4159"
       style="fill:#ecf0f1;fill-opacity:1;stroke:none" />
    <rect
       y="20.25736"
       x="29.25"
       height="1.5"
       width="0.49999991"
       id="rect4161"
       style="fill:#ecf0f1;fill-opacity:1;stroke:none" />
    <rect
       style="fill:#ecf0f1;fill-opacity:1;stroke:none"
       id="rect4163"
       width="0.49999991"
       height="1.5"
       x="27.25"
       y="20.25736" />
    <rect
       style="fill:#ecf0f1;fill-opacity:1;stroke:none"
       id="rect4165"
       width="0.49999991"
       height="1.5"
       x="23.25"
       y="20.25736" />
    <rect
       y="20.25736"
       x="21.25"
       height="1.5"
       width="0.49999991"
       id="rect4167"
       style="fill:#ecf0f1;fill-opacity:1;stroke:none" />
    <rect
       y="20.25736"
       x="31.25"
       height="3"
       width="0.49999991"
       id="rect4169"
       style="fill:#ecf0f1;fill-opacity:1;stroke:none" />
    <rect
       style="fill:#ecf0f1;fill-opacity:1;stroke:none"
       id="rect4171"
       width="0.49999991"
       height="3"
       x="25.25"
       y="20.25736" />
  </g>
  <path
     style="fill:#ecf0f1;fill-opacity:1;stroke:none"
     d="M 44,14.999999 34,3.9999989 34,14.999999 z"
     id="path4102"
     inkscape:connector-curvature="0"
     sodipodi:nodetypes="cccc" />
  <path
     style="opacity:0.35;fill:#000000;fill-opacity:1;stroke:none"
     d="m 4,44 39.999996,3e-4 c -19.999997,-1 -19.999997,-1 -39.999997,0 z"
     id="path3800"
     inkscape:connector-curvature="0"
     sodipodi:nodetypes="cccc" />
  <path
     sodipodi:nodetypes="cccc"
     inkscape:connector-curvature="0"
     id="path3804"
     d="M 33.964045,4.442704 C 19.999259,4.9787689 12.088507,4.3098988 4.000002,3.999799 9.0000015,3.9999205 34,4 34,4 z"
     style="opacity:0.75;fill:#ffffff;fill-opacity:1;stroke:none" />
</svg>
