<?xml version="1.0" encoding="UTF-8" standalone="no"?>
<!-- Created with Inkscape (http://www.inkscape.org/) -->

<svg
   xmlns:dc="http://purl.org/dc/elements/1.1/"
   xmlns:cc="http://creativecommons.org/ns#"
   xmlns:rdf="http://www.w3.org/1999/02/22-rdf-syntax-ns#"
   xmlns:svg="http://www.w3.org/2000/svg"
   xmlns="http://www.w3.org/2000/svg"
   xmlns:xlink="http://www.w3.org/1999/xlink"
   xmlns:sodipodi="http://sodipodi.sourceforge.net/DTD/sodipodi-0.dtd"
   xmlns:inkscape="http://www.inkscape.org/namespaces/inkscape"
   width="48px"
   height="48px"
   id="svg3000"
   version="1.1"
   inkscape:version="0.48.5 r10040"
   sodipodi:docname="新建文档 1">
  <defs
     id="defs3002">
    <linearGradient
       inkscape:collect="always"
       xlink:href="#linearGradient4181"
       id="linearGradient4168"
       gradientUnits="userSpaceOnUse"
       x1="-20.908819"
       y1="4.4148378"
       x2="-18.380444"
       y2="1.8958093"
       gradientTransform="matrix(8.6620017,-8.694376,8.6941417,8.6622353,173.26831,-174.31854)" />
    <linearGradient
       id="linearGradient4181">
      <stop
         style="stop-color:#58c400;stop-opacity:1;"
         offset="0"
         id="stop4183" />
      <stop
         style="stop-color:#c7ff9c;stop-opacity:1;"
         offset="1"
         id="stop4185" />
    </linearGradient>
  </defs>
  <sodipodi:namedview
     id="base"
     pagecolor="#ffffff"
     bordercolor="#666666"
     borderopacity="1.0"
     inkscape:pageopacity="0.0"
     inkscape:pageshadow="2"
     inkscape:zoom="3.5"
     inkscape:cx="-9.0880629"
     inkscape:cy="57.299513"
     inkscape:current-layer="layer1"
     showgrid="true"
     inkscape:grid-bbox="true"
     inkscape:document-units="px"
     showguides="false"
     inkscape:window-width="1301"
     inkscape:window-height="744"
     inkscape:window-x="65"
     inkscape:window-y="24"
     inkscape:window-maximized="1">
    <inkscape:grid
       type="xygrid"
       id="grid3047" />
  </sodipodi:namedview>
  <metadata
     id="metadata3005">
    <rdf:RDF>
      <cc:Work
         rdf:about="">
        <dc:format>image/svg+xml</dc:format>
        <dc:type
           rdf:resource="http://purl.org/dc/dcmitype/StillImage" />
        <dc:title></dc:title>
      </cc:Work>
    </rdf:RDF>
  </metadata>
  <g
     id="layer1"
     inkscape:label="Layer 1"
     inkscape:groupmode="layer">
    <path
       id="path4193"
       d="M 24.153584,3.7098292 C 23.59955,3.6970586 23.050796,3.8964796 22.637623,4.3111988 l -7.0366,7.0668532 c -0.826346,0.829425 -0.791425,2.19648 0.08031,3.065069 l 11.67595,11.633964 c 0.871795,0.868602 2.238822,0.898727 3.065168,0.06924 l 7.039382,-7.064084 c 0.826345,-0.829426 0.788658,-2.196467 -0.08315,-3.065057 L 25.702735,4.3832118 C 25.26683,3.94891 24.707561,3.7225573 24.153513,3.7097867 z M 11.000481,16.371958 C 10.641427,16.383256 10.279933,16.534996 10,16.820902 L 2.4977964,24.48081 c -0.5598512,0.571826 -0.5739131,1.464623 -0.033204,2.000891 l 4.6033087,4.567125 c 0.5406523,0.536268 1.4272335,0.508073 1.9870992,-0.06371 l 7.5022029,-7.662674 c 0.559852,-0.571827 0.573914,-1.464638 0.03321,-2.000892 l -4.60331,-4.564357 C 11.716773,16.489064 11.35955,16.360379 11.000481,16.371986 z m 30.43561,4.303837 c -0.385703,-0.0237 -0.761812,0.10259 -1.033742,0.379671 L 29.663154,31.999388 c -0.543858,0.554175 -0.469306,1.506922 0.169055,2.133904 l 3.411595,3.350509 c 0.638363,0.626996 1.590144,0.68445 2.13399,0.13026 L 46.119769,26.667386 c 0.543846,-0.554204 0.466526,-1.50417 -0.171821,-2.131152 L 42.53634,21.185726 c -0.319182,-0.313491 -0.714547,-0.486179 -1.100249,-0.509931 z m -22.11861,7.56292 c -0.464241,-0.0113 -0.923162,0.153617 -1.269303,0.498836 l -5.894791,5.877947 c -0.692283,0.690424 -0.661307,1.829141 0.06924,2.552385 l 9.783071,9.685729 c 0.730594,0.723245 1.874035,0.748616 2.566318,0.05818 l 5.89479,-5.877946 c 0.692297,-0.690424 0.661322,-1.829155 -0.06924,-2.552385 l -9.78029,-9.682977 c -0.365311,-0.361621 -0.835555,-0.54908 -1.299796,-0.559793 z"
       style="color:#000000;fill:#000000;fill-opacity:0.05882353;fill-rule:nonzero;stroke:none;enable-background:accumulate"
       inkscape:connector-curvature="0" />
    <path
       inkscape:connector-curvature="0"
       style="color:#000000;fill:#000000;fill-opacity:0.11764706;fill-rule:nonzero;stroke:none;enable-background:accumulate"
       d="m 24.153584,3.1422589 c -0.554034,-0.01277 -1.102788,0.1866644 -1.515961,0.6013842 l -7.0366,7.0668379 c -0.826346,0.829426 -0.791425,2.196481 0.08031,3.065069 l 11.67595,11.633964 c 0.871795,0.868603 2.238822,0.898727 3.065168,0.06924 l 7.039382,-7.06407 c 0.826345,-0.829425 0.788658,-2.196481 -0.08315,-3.06507 L 25.702735,3.8156412 C 25.26683,3.381354 24.707561,3.154987 24.153513,3.1422164 z M 11.000481,15.804387 C 10.641427,15.815685 10.279933,15.96744 10,16.253332 L 2.4977964,23.91324 c -0.5598512,0.571826 -0.5739131,1.464637 -0.033204,2.00089 l 4.6033087,4.567125 c 0.5406523,0.536269 1.4272335,0.508074 1.9870992,-0.06371 l 7.5022029,-7.662674 c 0.559852,-0.571814 0.573914,-1.464624 0.03321,-2.000892 l -4.60331,-4.564358 C 11.716773,15.921494 11.35955,15.792809 11.000481,15.804415 z m 30.43561,4.303851 c -0.385703,-0.0237 -0.761812,0.10259 -1.033742,0.379672 L 29.663154,31.431818 c -0.543858,0.55419 -0.469306,1.506923 0.169055,2.133919 l 3.411595,3.350508 c 0.638363,0.626982 1.590144,0.684436 2.13399,0.13026 L 46.119769,26.099831 c 0.543846,-0.554204 0.466526,-1.504156 -0.171821,-2.131152 L 42.53634,20.61817 c -0.319182,-0.313491 -0.714547,-0.486164 -1.100249,-0.509918 z m -22.11861,7.562907 c -0.464241,-0.0113 -0.923162,0.153632 -1.269303,0.498836 l -5.894791,5.877961 c -0.692283,0.69041 -0.661307,1.829126 0.06924,2.55237 l 9.783071,9.685745 c 0.730594,0.72323 1.874035,0.748601 2.566318,0.05818 l 5.89479,-5.877962 c 0.692297,-0.690409 0.661322,-1.829154 -0.06924,-2.552384 l -9.78029,-9.682962 C 20.251965,27.869304 19.781721,27.681831 19.31748,27.671118 z"
       id="path4191" />
    <path
       id="path4187"
       d="M 24.153584,2.5746887 C 23.59955,2.5619181 23.050796,2.761353 22.637623,3.1760729 l -7.0366,7.0668521 c -0.826346,0.829425 -0.791425,2.196467 0.08031,3.065056 l 11.67595,11.633977 c 0.871795,0.868602 2.238822,0.898727 3.065168,0.06924 l 7.039382,-7.064085 c 0.826345,-0.829426 0.788658,-2.196481 -0.08315,-3.06507 L 25.702735,3.2480851 C 25.26683,2.8137837 24.707561,2.5874167 24.153513,2.5746461 z M 11.000481,15.236831 C 10.641427,15.248129 10.279933,15.39987 10,15.685762 l -7.5022036,7.659921 c -0.5598512,0.571814 -0.5739131,1.464624 -0.033204,2.000891 L 7.0679009,29.9137 c 0.5406523,0.536253 1.4272335,0.508059 1.9870992,-0.06371 l 7.5022029,-7.662674 c 0.559852,-0.571827 0.573914,-1.464637 0.03321,-2.000906 l -4.60331,-4.564344 C 11.716773,15.353924 11.35955,15.225252 11.000481,15.23686 z m 30.43561,4.303837 c -0.385703,-0.02369 -0.761812,0.10259 -1.033742,0.379671 L 29.663154,30.864247 c -0.543858,0.55419 -0.469306,1.506937 0.169055,2.13392 l 3.411595,3.350507 c 0.638363,0.626982 1.590144,0.684436 2.13399,0.13026 L 46.119769,25.532245 c 0.543846,-0.554189 0.466526,-1.504155 -0.171821,-2.131137 L 42.53634,20.050601 c -0.319182,-0.313492 -0.714547,-0.486179 -1.100249,-0.509933 z m -22.11861,7.56292 c -0.464241,-0.0113 -0.923162,0.153618 -1.269303,0.498823 l -5.894791,5.87796 c -0.692283,0.690411 -0.661307,1.829141 0.06924,2.552386 l 9.783071,9.685729 c 0.730594,0.72323 1.874035,0.748602 2.566318,0.05818 l 5.89479,-5.877962 c 0.692297,-0.690409 0.661322,-1.82914 -0.06924,-2.552371 l -9.78029,-9.682976 C 20.251965,27.301734 19.781721,27.114275 19.31748,27.103562 z"
       style="color:#000000;fill:#000000;fill-opacity:0.23529412;fill-rule:nonzero;stroke:none;enable-background:accumulate"
       inkscape:connector-curvature="0" />
    <path
       style="color:#000000;fill:url(#linearGradient4168);fill-opacity:1.0;fill-rule:nonzero;stroke:none;enable-background:accumulate"
       d="m 24.153584,2.0071185 c -0.554034,-0.012771 -1.102788,0.18665 -1.515961,0.6013699 l -7.0366,7.0668381 c -0.826346,0.8294395 -0.791425,2.1964805 0.08031,3.0650695 l 11.67595,11.633963 c 0.871795,0.868589 2.238822,0.898713 3.065168,0.06924 l 7.039382,-7.064057 c 0.826345,-0.829439 0.788658,-2.19648 -0.08315,-3.065069 L 25.702735,2.6805148 C 25.26683,2.2462134 24.707561,2.0198607 24.153513,2.0070901 z M 11.000481,14.669232 C 10.641427,14.68053 10.279933,14.832272 10,15.118177 l -7.5022036,7.659908 c -0.5598512,0.571812 -0.5739131,1.464622 -0.033204,2.000877 l 4.6033087,4.567125 c 0.5406523,0.536254 1.4272335,0.508073 1.9870992,-0.06371 l 7.5022029,-7.662674 c 0.559852,-0.571814 0.573914,-1.464624 0.03321,-2.000878 l -4.60331,-4.564358 C 11.716773,14.786339 11.35955,14.657654 11.000481,14.66926 z m 30.43561,4.303838 c -0.385703,-0.0237 -0.761812,0.102589 -1.033742,0.379671 L 29.663154,30.296649 c -0.543858,0.55419 -0.469306,1.506922 0.169055,2.133904 l 3.411595,3.350509 c 0.638363,0.626996 1.590144,0.68445 2.13399,0.13026 L 46.119769,24.964647 c 0.543846,-0.554189 0.466526,-1.504156 -0.171821,-2.131138 L 42.53634,19.483001 C 42.217158,19.169496 41.821793,18.996823 41.436091,18.97307 z m -22.11861,7.562906 c -0.464241,-0.0113 -0.923162,0.153631 -1.269303,0.498836 l -5.894791,5.877947 c -0.692283,0.69041 -0.661307,1.829141 0.06924,2.552384 l 9.783071,9.685716 c 0.730594,0.723245 1.874035,0.748615 2.566318,0.05818 l 5.89479,-5.877947 c 0.692297,-0.69041 0.661322,-1.82914 -0.06924,-2.552384 l -9.78029,-9.682948 c -0.36531,-0.361624 -0.835554,-0.549097 -1.299795,-0.55981 z"
       id="rect4082"
       inkscape:connector-curvature="0" />
  </g>
</svg>
