<?xml version="1.0" encoding="UTF-8" standalone="no"?>
<svg
   xmlns:dc="http://purl.org/dc/elements/1.1/"
   xmlns:cc="http://creativecommons.org/ns#"
   xmlns:rdf="http://www.w3.org/1999/02/22-rdf-syntax-ns#"
   xmlns:svg="http://www.w3.org/2000/svg"
   xmlns="http://www.w3.org/2000/svg"
   xmlns:xlink="http://www.w3.org/1999/xlink"
   xmlns:sodipodi="http://sodipodi.sourceforge.net/DTD/sodipodi-0.dtd"
   xmlns:inkscape="http://www.inkscape.org/namespaces/inkscape"
   viewBox="0 0 48 48"
   id="svg2"
   version="1.1"
   inkscape:version="0.48.5 r10040"
   width="100%"
   height="100%"
   sodipodi:docname="lazarus.svg">
  <metadata
     id="metadata61">
    <rdf:RDF>
      <cc:Work
         rdf:about="">
        <dc:format>image/svg+xml</dc:format>
        <dc:type
           rdf:resource="http://purl.org/dc/dcmitype/StillImage" />
      </cc:Work>
    </rdf:RDF>
  </metadata>
  <sodipodi:namedview
     pagecolor="#ffffff"
     bordercolor="#666666"
     borderopacity="1"
     objecttolerance="10"
     gridtolerance="10"
     guidetolerance="10"
     inkscape:pageopacity="0"
     inkscape:pageshadow="2"
     inkscape:window-width="1301"
     inkscape:window-height="744"
     id="namedview59"
     showgrid="true"
     inkscape:zoom="6.3958333"
     inkscape:cx="47.247046"
     inkscape:cy="27.643442"
     inkscape:window-x="65"
     inkscape:window-y="24"
     inkscape:window-maximized="1"
     inkscape:current-layer="svg2">
    <inkscape:grid
       type="xygrid"
       id="grid3038" />
  </sodipodi:namedview>
  <defs
     id="defs4">
    <linearGradient
       id="linearGradient3764"
       x1="1"
       x2="47"
       gradientUnits="userSpaceOnUse"
       gradientTransform="matrix(0,-1,1,0,-1.5e-6,47.999998)">
      <stop
         stop-color="#003c80"
         stop-opacity="1"
         id="stop7"
         offset="0"
         style="stop-color:#195aa4;stop-opacity:1;" />
      <stop
         offset="1"
         stop-color="#004694"
         stop-opacity="1"
         id="stop9"
         style="stop-color:#5794d7;stop-opacity:1;" />
    </linearGradient>
    <clipPath
       id="clipPath-479204577">
      <g
         transform="translate(0,-1004.3622)"
         id="g12">
        <path
           d="m -24 13 c 0 1.105 -0.672 2 -1.5 2 -0.828 0 -1.5 -0.895 -1.5 -2 0 -1.105 0.672 -2 1.5 -2 0.828 0 1.5 0.895 1.5 2 z"
           transform="matrix(15.333333,0,0,11.5,414.99999,878.8622)"
           fill="#1890d0"
           id="path14" />
      </g>
    </clipPath>
    <clipPath
       id="clipPath-490640644">
      <g
         transform="translate(0,-1004.3622)"
         id="g17">
        <path
           d="m -24 13 c 0 1.105 -0.672 2 -1.5 2 -0.828 0 -1.5 -0.895 -1.5 -2 0 -1.105 0.672 -2 1.5 -2 0.828 0 1.5 0.895 1.5 2 z"
           transform="matrix(15.333333,0,0,11.5,414.99999,878.8622)"
           fill="#1890d0"
           id="path19" />
      </g>
    </clipPath>
    <linearGradient
       inkscape:collect="always"
       xlink:href="#linearGradient3764"
       id="linearGradient3816"
       x1="4"
       y1="24"
       x2="44"
       y2="24"
       gradientUnits="userSpaceOnUse" />
  </defs>
  <rect
     style="fill:url(#linearGradient3816);fill-opacity:1.0;stroke:none"
     id="rect3040"
     width="40"
     height="40"
     x="4"
     y="4" />
  <g
     id="g33" />
  <g
     id="g35">
    <g
       clip-path="url(#clipPath-479204577)"
       id="g37">
      <g
         transform="translate(1,1)"
         id="g39">
        <g
           opacity="0.1"
           id="g41">
          <!-- color: #004694 -->
          <g
             id="g43">
            <path
               d="m 22.488 35.918 c -1.141 -0.234 -2.051 -0.98 -2.555 -2.094 c -0.238 -0.52 -0.27 -0.688 -0.234 -1.172 c 0.035 -0.523 0.07 -0.594 0.395 -0.875 c 1.027 -0.902 1.25 -1.141 1.441 -1.57 c 0.191 -0.422 0.207 -0.551 0.156 -1.395 c -0.051 -0.836 -0.035 -0.984 0.148 -1.418 c 0.418 -1.012 1.34 -1.59 3.285 -2.078 c 1.379 -0.348 2.391 -0.352 3.121 -0.016 c 0.586 0.27 1.215 0.895 1.52 1.527 c 0.418 0.855 1.438 1.469 2.445 1.473 c 1.293 0.008 2.02 1.01 1.941 2.684 c -0.043 0.875 -0.289 1.426 -0.91 2.023 c -1.184 1.145 -5.324 2.5 -8.926 2.918 c -0.926 0.105 -1.281 0.105 -1.82 -0.004 m -7.129 -6.04 c -1.305 -0.41 -2.453 -1.898 -2.695 -3.48 c -0.055 -0.352 -0.156 -0.727 -0.227 -0.836 c -0.289 -0.449 -0.57 -2.348 -0.379 -2.543 c 0.102 -0.105 0.602 0.441 0.605 0.656 c 0 0.102 0.086 0.332 0.184 0.508 l 0.184 0.316 l 0.293 -0.305 c 0.379 -0.375 0.836 -0.512 1.293 -0.387 c 0.355 0.105 0.492 0.191 1.785 1.066 c 0.438 0.297 1.121 0.734 1.516 0.977 c 0.395 0.238 0.828 0.586 0.973 0.773 c 0.543 0.695 0.398 1.566 -0.41 2.441 c -0.391 0.422 -0.563 0.535 -1.078 0.695 c -0.625 0.199 -1.594 0.25 -2.039 0.109 m 16.684 -4.555 c -1.277 -0.477 -1.809 -1.164 -1.617 -2.078 c 0.035 -0.168 0.344 -0.883 0.684 -1.586 c 0.34 -0.703 0.621 -1.332 0.621 -1.395 c 0.004 -0.297 0.457 -1.094 0.758 -1.332 c 0.254 -0.199 0.43 -0.262 0.797 -0.266 l 0.469 -0.012 l 0.027 -0.348 c 0.016 -0.191 -0.039 -0.492 -0.121 -0.672 c -0.176 -0.387 -0.105 -0.914 0.113 -0.871 c 0.211 0.043 0.898 1.352 1.063 2.02 c 0.082 0.328 0.281 0.789 0.441 1.027 c 0.52 0.758 0.711 1.422 0.719 2.477 c 0.004 0.816 -0.027 0.992 -0.227 1.441 c -0.387 0.848 -1.023 1.367 -2.02 1.641 c -0.609 0.168 -1.172 0.152 -1.711 -0.051 m -13.04 -3.03 c -0.984 -0.25 -1.629 -0.773 -2.02 -1.637 c -0.438 -0.973 -0.348 -2.691 0.195 -3.629 c 0.164 -0.285 0.184 -0.457 0.172 -1.305 c -0.02 -0.898 0.125 -1.855 0.305 -2.035 c 0.137 -0.145 0.402 0.395 0.402 0.813 c 0 0.238 0.082 0.613 0.18 0.84 c 0.164 0.371 0.199 0.398 0.426 0.344 c 0.137 -0.035 0.5 -0.086 0.813 -0.113 c 0.555 -0.051 0.57 -0.047 0.859 0.273 c 0.32 0.352 0.508 0.875 0.508 1.41 c 0 0.438 0.242 0.918 0.758 1.516 c 1.277 1.465 0.969 2.77 -0.805 3.438 c -0.648 0.238 -1.109 0.266 -1.793 0.086 m 5.629 -1.656 c -0.449 -0.156 -0.879 -0.648 -1.035 -1.188 c -0.098 -0.348 -0.121 -0.715 -0.082 -1.438 c 0.055 -0.965 0.051 -0.977 -0.219 -1.422 c -0.77 -1.266 -0.539 -2.102 0.656 -2.355 l 0.5 -0.105 l -0.063 -0.297 c -0.078 -0.379 -0.348 -0.922 -0.527 -1.078 c -0.164 -0.141 -0.195 -0.754 -0.039 -0.754 c 0.176 0 1.656 1.609 1.816 1.977 c 0.117 0.262 0.281 0.418 0.625 0.598 c 0.652 0.348 1.594 1.348 1.953 2.078 c 0.375 0.77 0.461 1.648 0.227 2.281 c -0.199 0.543 -0.914 1.301 -1.465 1.559 c -0.504 0.234 -1.855 0.316 -2.352 0.145 m 0.004 0.004"
               fill="#000"
               stroke="none"
               fill-rule="nonzero"
               fill-opacity="1"
               id="path45" />
          </g>
        </g>
      </g>
    </g>
  </g>
  <g
     id="g47">
    <g
       clip-path="url(#clipPath-490640644)"
       id="g49">
      <!-- color: #004694 -->
      <g
         id="g51">
        <path
           d="m 22.488 35.918 c -1.141 -0.234 -2.051 -0.98 -2.555 -2.094 c -0.238 -0.52 -0.27 -0.688 -0.234 -1.172 c 0.035 -0.523 0.07 -0.594 0.395 -0.875 c 1.027 -0.902 1.25 -1.141 1.441 -1.57 c 0.191 -0.422 0.207 -0.551 0.156 -1.395 c -0.051 -0.836 -0.035 -0.984 0.148 -1.418 c 0.418 -1.012 1.34 -1.59 3.285 -2.078 c 1.379 -0.348 2.391 -0.352 3.121 -0.016 c 0.586 0.27 1.215 0.895 1.52 1.527 c 0.418 0.855 1.438 1.469 2.445 1.473 c 1.293 0.008 2.02 1.01 1.941 2.684 c -0.043 0.875 -0.289 1.426 -0.91 2.023 c -1.184 1.145 -5.324 2.5 -8.926 2.918 c -0.926 0.105 -1.281 0.105 -1.82 -0.004 m -7.129 -6.04 c -1.305 -0.41 -2.453 -1.898 -2.695 -3.48 c -0.055 -0.352 -0.156 -0.727 -0.227 -0.836 c -0.289 -0.449 -0.57 -2.348 -0.379 -2.543 c 0.102 -0.105 0.602 0.441 0.605 0.656 c 0 0.102 0.086 0.332 0.184 0.508 l 0.184 0.316 l 0.293 -0.305 c 0.379 -0.375 0.836 -0.512 1.293 -0.387 c 0.355 0.105 0.492 0.191 1.785 1.066 c 0.438 0.297 1.121 0.734 1.516 0.977 c 0.395 0.238 0.828 0.586 0.973 0.773 c 0.543 0.695 0.398 1.566 -0.41 2.441 c -0.391 0.422 -0.563 0.535 -1.078 0.695 c -0.625 0.199 -1.594 0.25 -2.039 0.109 m 16.684 -4.555 c -1.277 -0.477 -1.809 -1.164 -1.617 -2.078 c 0.035 -0.168 0.344 -0.883 0.684 -1.586 c 0.34 -0.703 0.621 -1.332 0.621 -1.395 c 0.004 -0.297 0.457 -1.094 0.758 -1.332 c 0.254 -0.199 0.43 -0.262 0.797 -0.266 l 0.469 -0.012 l 0.027 -0.348 c 0.016 -0.191 -0.039 -0.492 -0.121 -0.672 c -0.176 -0.387 -0.105 -0.914 0.113 -0.871 c 0.211 0.043 0.898 1.352 1.063 2.02 c 0.082 0.328 0.281 0.789 0.441 1.027 c 0.52 0.758 0.711 1.422 0.719 2.477 c 0.004 0.816 -0.027 0.992 -0.227 1.441 c -0.387 0.848 -1.023 1.367 -2.02 1.641 c -0.609 0.168 -1.172 0.152 -1.711 -0.051 m -13.04 -3.03 c -0.984 -0.25 -1.629 -0.773 -2.02 -1.637 c -0.438 -0.973 -0.348 -2.691 0.195 -3.629 c 0.164 -0.285 0.184 -0.457 0.172 -1.305 c -0.02 -0.898 0.125 -1.855 0.305 -2.035 c 0.137 -0.145 0.402 0.395 0.402 0.813 c 0 0.238 0.082 0.613 0.18 0.84 c 0.164 0.371 0.199 0.398 0.426 0.344 c 0.137 -0.035 0.5 -0.086 0.813 -0.113 c 0.555 -0.051 0.57 -0.047 0.859 0.273 c 0.32 0.352 0.508 0.875 0.508 1.41 c 0 0.438 0.242 0.918 0.758 1.516 c 1.277 1.465 0.969 2.77 -0.805 3.438 c -0.648 0.238 -1.109 0.266 -1.793 0.086 m 5.629 -1.656 c -0.449 -0.156 -0.879 -0.648 -1.035 -1.188 c -0.098 -0.348 -0.121 -0.715 -0.082 -1.438 c 0.055 -0.965 0.051 -0.977 -0.219 -1.422 c -0.77 -1.266 -0.539 -2.102 0.656 -2.355 l 0.5 -0.105 l -0.063 -0.297 c -0.078 -0.379 -0.348 -0.922 -0.527 -1.078 c -0.164 -0.141 -0.195 -0.754 -0.039 -0.754 c 0.176 0 1.656 1.609 1.816 1.977 c 0.117 0.262 0.281 0.418 0.625 0.598 c 0.652 0.348 1.594 1.348 1.953 2.078 c 0.375 0.77 0.461 1.648 0.227 2.281 c -0.199 0.543 -0.914 1.301 -1.465 1.559 c -0.504 0.234 -1.855 0.316 -2.352 0.145 m 0.004 0.004"
           fill="#f9f9f9"
           stroke="none"
           fill-rule="nonzero"
           fill-opacity="1"
           id="path53" />
      </g>
    </g>
  </g>
  <path
     style="opacity:0.35;fill:#000000;fill-opacity:1;stroke:none"
     d="M 4.000003,43.9997 44,44 C 24.000003,43 24.000003,43 4.000002,44 z"
     id="path3800"
     inkscape:connector-curvature="0"
     sodipodi:nodetypes="cccc" />
  <path
     sodipodi:nodetypes="cccc"
     inkscape:connector-curvature="0"
     id="path3804"
     d="m 4.000007,3.9999 39.999996,-2e-4 c -19.999996,1 -19.999996,1 -39.999998,0 z"
     style="opacity:0.75;fill:#ffffff;fill-opacity:1;stroke:none" />
</svg>
