<?xml version="1.0" encoding="UTF-8" standalone="no"?>
<!-- Created with Inkscape (http://www.inkscape.org/) -->

<svg
   xmlns:dc="http://purl.org/dc/elements/1.1/"
   xmlns:cc="http://creativecommons.org/ns#"
   xmlns:rdf="http://www.w3.org/1999/02/22-rdf-syntax-ns#"
   xmlns:svg="http://www.w3.org/2000/svg"
   xmlns="http://www.w3.org/2000/svg"
   xmlns:xlink="http://www.w3.org/1999/xlink"
   xmlns:sodipodi="http://sodipodi.sourceforge.net/DTD/sodipodi-0.dtd"
   xmlns:inkscape="http://www.inkscape.org/namespaces/inkscape"
   width="48"
   height="48"
   id="svg5453"
   version="1.1"
   inkscape:version="0.48.5 r10040"
   sodipodi:docname="drive-harddisk.svg">
  <defs
     id="defs5455">
    <linearGradient
       id="linearGradient4903"
       inkscape:collect="always">
      <stop
         id="stop4905"
         offset="0"
         style="stop-color:#eef1f2;stop-opacity:1" />
      <stop
         id="stop4907"
         offset="1"
         style="stop-color:#f9fafb;stop-opacity:1" />
    </linearGradient>
    <linearGradient
       gradientTransform="matrix(1.1250015,0,0,1,-51.071968,0)"
       gradientUnits="userSpaceOnUse"
       y2="503.798"
       x2="409.57144"
       y1="543.79797"
       x1="409.57144"
       id="linearGradient4158"
       xlink:href="#linearGradient4303"
       inkscape:collect="always" />
    <linearGradient
       id="linearGradient4303">
      <stop
         style="stop-color:#c6cdd1;stop-opacity:1"
         offset="0"
         id="stop4305" />
      <stop
         style="stop-color:#e0e5e7;stop-opacity:1"
         offset="1"
         id="stop4307" />
    </linearGradient>
    <linearGradient
       inkscape:collect="always"
       xlink:href="#linearGradient4903"
       id="linearGradient4901"
       x1="24.000042"
       y1="41"
       x2="24.000042"
       y2="5"
       gradientUnits="userSpaceOnUse" />
    <linearGradient
       inkscape:collect="always"
       xlink:href="#linearGradient4227"
       id="linearGradient4192"
       x1="398.57144"
       y1="513.79797"
       x2="416.57147"
       y2="531.79797"
       gradientUnits="userSpaceOnUse"
       gradientTransform="translate(-384.57143,-499.798)" />
    <linearGradient
       inkscape:collect="always"
       id="linearGradient4227">
      <stop
         style="stop-color:#292c2f;stop-opacity:1"
         offset="0"
         id="stop4229" />
      <stop
         style="stop-color:#000000;stop-opacity:0;"
         offset="1"
         id="stop4231" />
    </linearGradient>
    <clipPath
       id="clipPath-509209228">
      <g
         transform="translate(0,-1004.3622)"
         id="g17">
        <path
           style="fill:#1890d0"
           inkscape:connector-curvature="0"
           d="m -24,13 c 0,1.105 -0.672,2 -1.5,2 -0.828,0 -1.5,-0.895 -1.5,-2 0,-1.105 0.672,-2 1.5,-2 0.828,0 1.5,0.895 1.5,2 z"
           transform="matrix(15.333333,0,0,11.5,414.99999,878.8622)"
           id="path19" />
      </g>
    </clipPath>
  </defs>
  <sodipodi:namedview
     id="base"
     pagecolor="#ffffff"
     bordercolor="#666666"
     borderopacity="1.0"
     inkscape:pageopacity="0"
     inkscape:pageshadow="2"
     inkscape:zoom="4.3671875"
     inkscape:cx="16.105847"
     inkscape:cy="24.025038"
     inkscape:document-units="px"
     inkscape:current-layer="layer1"
     showgrid="true"
     fit-margin-top="0"
     fit-margin-left="0"
     fit-margin-right="0"
     fit-margin-bottom="0"
     inkscape:window-width="1301"
     inkscape:window-height="744"
     inkscape:window-x="65"
     inkscape:window-y="24"
     inkscape:window-maximized="1"
     inkscape:showpageshadow="false"
     borderlayer="true"
     showguides="true">
    <inkscape:grid
       type="xygrid"
       id="grid4063" />
    <sodipodi:guide
       position="1.1650391e-05,47.999996"
       orientation="4,0"
       id="guide4146" />
    <sodipodi:guide
       position="1.1650391e-05,43.999996"
       orientation="0,48"
       id="guide4148" />
    <sodipodi:guide
       position="48.000012,43.999996"
       orientation="-4,0"
       id="guide4150" />
    <sodipodi:guide
       position="48.000012,47.999996"
       orientation="0,-48"
       id="guide4152" />
    <sodipodi:guide
       position="1.1650391e-05,4.0000264"
       orientation="4,0"
       id="guide4154" />
    <sodipodi:guide
       position="1.1650391e-05,2.6367188e-05"
       orientation="0,48"
       id="guide4156" />
    <sodipodi:guide
       position="48.000012,2.6367188e-05"
       orientation="-4,0"
       id="guide4158" />
    <sodipodi:guide
       position="48.000012,4.0000264"
       orientation="0,-48"
       id="guide4160" />
    <sodipodi:guide
       position="48.000012,48.000026"
       orientation="0,-4"
       id="guide4162" />
    <sodipodi:guide
       position="44.000012,48.000026"
       orientation="48,0"
       id="guide4164" />
    <sodipodi:guide
       position="44.000012,2.6367188e-05"
       orientation="0,4"
       id="guide4166" />
    <sodipodi:guide
       position="48.000012,2.6367188e-05"
       orientation="-48,0"
       id="guide4168" />
    <sodipodi:guide
       position="4.0000422,48.000026"
       orientation="0,-4"
       id="guide4170" />
    <sodipodi:guide
       position="4.2167969e-05,48.000026"
       orientation="48,0"
       id="guide4172" />
    <sodipodi:guide
       position="4.2167969e-05,2.6367188e-05"
       orientation="0,4"
       id="guide4174" />
    <sodipodi:guide
       position="4.0000422,2.6367188e-05"
       orientation="-48,0"
       id="guide4176" />
    <sodipodi:guide
       position="4.0000422,43.999996"
       orientation="39.999969,0"
       id="guide4175" />
    <sodipodi:guide
       position="4.0000422,4.0000264"
       orientation="0,20"
       id="guide4177" />
    <sodipodi:guide
       position="24.000042,4.0000264"
       orientation="-39.999969,0"
       id="guide4179" />
    <sodipodi:guide
       position="24.000042,43.999996"
       orientation="0,-20"
       id="guide4181" />
    <sodipodi:guide
       position="4.0000422,23.999843"
       orientation="20,0"
       id="guide4185" />
    <sodipodi:guide
       position="44.000012,3.9998433"
       orientation="-20,0"
       id="guide4189" />
    <sodipodi:guide
       position="44.000012,23.999843"
       orientation="0,-39.999969"
       id="guide4191" />
  </sodipodi:namedview>
  <metadata
     id="metadata5458">
    <rdf:RDF>
      <cc:Work
         rdf:about="">
        <dc:format>image/svg+xml</dc:format>
        <dc:type
           rdf:resource="http://purl.org/dc/dcmitype/StillImage" />
        <dc:title />
      </cc:Work>
    </rdf:RDF>
  </metadata>
  <g
     inkscape:label="Capa 1"
     inkscape:groupmode="layer"
     id="layer1"
     transform="translate(-384.57143,-499.798)">
    <rect
       style="opacity:1;fill:url(#linearGradient4158);fill-opacity:1.0;stroke:none"
       id="rect4139"
       width="35.999992"
       height="39.999969"
       x="390.57144"
       y="503.798"
       ry="0" />
    <rect
       style="opacity:1;fill:#3d4144;fill-opacity:1;stroke:none;stroke-width:0.1;stroke-miterlimit:4;stroke-dasharray:none;stroke-opacity:1"
       id="rect4669"
       width="7.9999886"
       height="2"
       x="390.57144"
       y="541.79797" />
    <rect
       style="opacity:1;fill:#3d4144;fill-opacity:1;stroke:none;stroke-width:0.1;stroke-miterlimit:4;stroke-dasharray:none;stroke-opacity:1"
       id="rect4671"
       width="12"
       height="1.9999737"
       x="405.57144"
       y="541.79797" />
    <rect
       style="opacity:1;fill:#3d4144;fill-opacity:1;stroke:none;stroke-width:0.1;stroke-miterlimit:4;stroke-dasharray:none;stroke-opacity:1"
       id="rect4673"
       width="4"
       height="1.9999737"
       x="422.57144"
       y="541.79797" />
    <path
       style="opacity:1;fill:#99a1a7;fill-opacity:1;stroke:none;stroke-width:0.1;stroke-miterlimit:4;stroke-dasharray:none;stroke-opacity:1"
       d="M 6 43 L 6 44 L 42 44 L 42 43 L 6 43 z "
       id="rect4502"
       transform="translate(384.57143,499.798)" />
    <path
       style="opacity:1;fill:#1c1e20;fill-opacity:1;stroke:none;stroke-width:0.1;stroke-miterlimit:4;stroke-dasharray:none;stroke-opacity:1"
       d="M 6 43 L 6 44 L 14 44 L 14 43 L 6 43 z "
       transform="translate(384.57143,499.798)"
       id="rect4744" />
    <path
       id="path4754"
       d="m 405.57144,542.798 0,1 12,0 0,-1 z"
       style="opacity:1;fill:#1c1e20;fill-opacity:1;stroke:none;stroke-width:0.1;stroke-miterlimit:4;stroke-dasharray:none;stroke-opacity:1"
       inkscape:connector-curvature="0"
       sodipodi:nodetypes="ccccc" />
    <path
       sodipodi:nodetypes="ccccc"
       inkscape:connector-curvature="0"
       style="opacity:1;fill:#1c1e20;fill-opacity:1;stroke:none;stroke-width:0.1;stroke-miterlimit:4;stroke-dasharray:none;stroke-opacity:1"
       d="m 422.57144,542.798 0,1 4,0 0,-1 z"
       id="path4756" />
    <path
       style="opacity:1;fill:url(#linearGradient4901);fill-opacity:1;stroke:none;stroke-width:0.1;stroke-miterlimit:4;stroke-dasharray:none;stroke-opacity:1"
       d="M 8 5 L 8 11 L 8 20.048828 C 9.6982811 20.291944 11 21.732384 11 23.5 C 11 25.267616 9.6982811 26.708056 8 26.951172 L 8 32.685547 C 11.783881 40.999084 24 41 24 41 L 34 41 L 40 34 L 40 30 L 38 30 L 38 20 L 40 20 L 40 11 L 40 10 L 40 9.8183594 L 40 5 L 38 5 L 11 5 L 8 5 z "
       transform="translate(384.57143,499.798)"
       id="rect4768" />
    <path
       style="opacity:1;fill:#4d4d4d;fill-opacity:1;stroke:none"
       d="m 395.57143,506.798 c -0.1385,0 -0.25,0.1115 -0.25,0.25 0,0.1385 0.1115,0.25 0.25,0.25 0.1385,0 0.25,-0.1115 0.25,-0.25 0,-0.1385 -0.1115,-0.25 -0.25,-0.25 z m 1.75,0 -0.5,0.5 0.75,0.75 -0.25,0.25 -0.25,0.25 -0.25,0.25 0.5,0.5 0.25,-0.25 0.25,-0.25 0.25,-0.25 0.5,-0.5 z m -2.375,1.5 c -0.20775,0 -0.375,0.16725 -0.375,0.375 0,0.20775 0.16725,0.375 0.375,0.375 0.20775,0 0.375,-0.16725 0.375,-0.375 0,-0.20775 -0.16725,-0.375 -0.375,-0.375 z m 1.125,1.5 c -0.277,0 -0.5,0.223 -0.5,0.5 0,0.277 0.223,0.5 0.5,0.5 0.277,0 0.5,-0.223 0.5,-0.5 0,-0.277 -0.223,-0.5 -0.5,-0.5 z"
       id="rect4119"
       inkscape:connector-curvature="0"
       sodipodi:nodetypes="sssssccccccccccccssssssssss" />
    <rect
       style="opacity:1;fill:#4d4d4d;fill-opacity:1;stroke:none;stroke-width:0.1;stroke-miterlimit:4;stroke-dasharray:none;stroke-opacity:1"
       id="rect4979"
       width="11"
       height="1"
       x="412.57144"
       y="505.798" />
    <rect
       style="opacity:1;fill:#4d4d4d;fill-opacity:1;stroke:none;stroke-width:0.1;stroke-miterlimit:4;stroke-dasharray:none;stroke-opacity:1"
       id="rect4981"
       width="9"
       height="1"
       x="414.57144"
       y="507.798" />
    <rect
       style="opacity:1;fill:#4d4d4d;fill-opacity:1;stroke:none;stroke-width:0.1;stroke-miterlimit:4;stroke-dasharray:none;stroke-opacity:1"
       id="rect4983"
       width="11"
       height="1"
       x="412.57144"
       y="509.798" />
    <path
       id="path57"
       d="m 409.31053,511.43796 c -5.94707,0 -10.7452,4.57598 -10.7452,10.21458 0,5.64286 4.79247,10.25845 10.7452,10.25845 5.95272,0 10.78905,-4.61559 10.78905,-10.25845 0,-5.63719 -4.83633,-10.21458 -10.78905,-10.21458 m 0.0439,3.80341 c 0.50797,0 1.41496,0.45278 1.41496,0.92821 l 0,4.55475 c 0.017,0.45845 -0.83483,0.89001 -1.32723,0.92821 -0.0326,0 -0.0609,0 -0.0891,0 -0.51929,0.006 -1.43759,-0.44288 -1.41495,-0.92821 l 0,-4.55475 c 0,-0.47543 0.90698,-0.92821 1.41495,-0.92821 m -3.53739,1.06122 c 0.55325,0 0.79096,0.50797 0.70748,1.01735 l 0,3.22752 c 0.0226,0.45279 0,1.0499 -0.70748,0.92821 -0.54759,0.0495 -0.68484,-0.41458 -0.66362,-0.92821 l 0,-3.22752 c -0.0835,-0.50797 0.11037,-1.01735 0.66362,-1.01735 m 7.07479,1.06122 c 0.50797,0 0.70748,0.45278 0.70748,0.92821 l 0,2.25544 c 0,0.3594 0.14857,0.87869 -0.70748,0.92821 -0.55891,0.0113 -0.70748,-0.56881 -0.70748,-0.92821 l 0,-2.25544 c 0,-0.47543 0.19951,-0.92821 0.70748,-0.92821 m -7.82613,5.08536 c 0.35939,-0.017 0.69615,0.0552 0.97349,0.26601 l 3.31666,3.15535 3.13979,-3.00678 c 0.40326,-0.39761 1.09376,-0.52495 1.63569,-0.32544 0.54193,0.21507 0.91265,0.79096 0.88435,1.33147 -0.0113,0.34808 -0.17121,0.67918 -0.44288,0.92822 l -4.24487,4.20101 c -0.24338,0.22073 -0.54193,0.37072 -0.88435,0.3976 -0.42025,0.0325 -0.85181,-0.12735 -1.15036,-0.3976 l -4.28733,-4.33826 c -0.45844,-0.49807 -0.41458,-1.32724 0.0891,-1.797 0.2547,-0.24337 0.61976,-0.38629 0.97774,-0.39761 m -0.006,-0.006"
       inkscape:connector-curvature="0"
       style="fill:#4d4d4d;fill-opacity:1;fill-rule:nonzero;stroke:none" />
    <path
       id="path61"
       d="m 412.98093,533.1703 4.84198,5.73766 2.421,0 0,-2.29365 m -7.26298,-3.44401"
       inkscape:connector-curvature="0"
       style="fill:#4d4d4d;fill-opacity:1;fill-rule:nonzero;stroke:none" />
  </g>
</svg>
