<?xml version="1.0" encoding="UTF-8" standalone="no"?>
<svg
   xmlns:dc="http://purl.org/dc/elements/1.1/"
   xmlns:cc="http://creativecommons.org/ns#"
   xmlns:rdf="http://www.w3.org/1999/02/22-rdf-syntax-ns#"
   xmlns:svg="http://www.w3.org/2000/svg"
   xmlns="http://www.w3.org/2000/svg"
   xmlns:xlink="http://www.w3.org/1999/xlink"
   xmlns:sodipodi="http://sodipodi.sourceforge.net/DTD/sodipodi-0.dtd"
   xmlns:inkscape="http://www.inkscape.org/namespaces/inkscape"
   viewBox="0 0 48 48"
   id="svg2"
   version="1.1"
   inkscape:version="0.91 r13725"
   width="100%"
   height="100%"
   sodipodi:docname="mansa.svg">
  <metadata
     id="metadata65">
    <rdf:RDF>
      <cc:Work
         rdf:about="">
        <dc:format>image/svg+xml</dc:format>
        <dc:type
           rdf:resource="http://purl.org/dc/dcmitype/StillImage" />
      </cc:Work>
    </rdf:RDF>
  </metadata>
  <sodipodi:namedview
     pagecolor="#ffffff"
     bordercolor="#666666"
     borderopacity="1"
     objecttolerance="10"
     gridtolerance="10"
     guidetolerance="10"
     inkscape:pageopacity="0"
     inkscape:pageshadow="2"
     inkscape:window-width="1366"
     inkscape:window-height="705"
     id="namedview63"
     showgrid="true"
     inkscape:zoom="3.1979167"
     inkscape:cx="-54.453903"
     inkscape:cy="39.727163"
     inkscape:window-x="0"
     inkscape:window-y="28"
     inkscape:window-maximized="1"
     inkscape:current-layer="svg2">
    <inkscape:grid
       type="xygrid"
       id="grid3042" />
  </sodipodi:namedview>
  <defs
     id="defs4">
    <linearGradient
       id="linearGradient3764"
       x1="1"
       x2="47"
       gradientUnits="userSpaceOnUse"
       gradientTransform="matrix(0,-1,1,0,-1.5e-6,47.999998)">
      <stop
         stop-color="#b94f33"
         stop-opacity="1"
         id="stop7" />
      <stop
         offset="1"
         stop-color="#c85637"
         stop-opacity="1"
         id="stop9" />
    </linearGradient>
    <clipPath
       id="clipPath-141243315">
      <g
         transform="translate(0,-1004.3622)"
         id="g12">
        <path
           d="m -24 13 c 0 1.105 -0.672 2 -1.5 2 -0.828 0 -1.5 -0.895 -1.5 -2 0 -1.105 0.672 -2 1.5 -2 0.828 0 1.5 0.895 1.5 2 z"
           transform="matrix(15.333333,0,0,11.5,414.99999,878.8622)"
           fill="#1890d0"
           id="path14" />
      </g>
    </clipPath>
    <clipPath
       id="clipPath-149311055">
      <g
         transform="translate(0,-1004.3622)"
         id="g17">
        <path
           d="m -24 13 c 0 1.105 -0.672 2 -1.5 2 -0.828 0 -1.5 -0.895 -1.5 -2 0 -1.105 0.672 -2 1.5 -2 0.828 0 1.5 0.895 1.5 2 z"
           transform="matrix(15.333333,0,0,11.5,414.99999,878.8622)"
           fill="#1890d0"
           id="path19" />
      </g>
    </clipPath>
    <linearGradient
       id="linearGradient3859">
      <stop
         id="stop3861"
         offset="0"
         style="stop-color:#cccccc;stop-opacity:1" />
      <stop
         id="stop3863"
         offset="1"
         style="stop-color:#ececec;stop-opacity:1" />
    </linearGradient>
    <linearGradient
       gradientUnits="userSpaceOnUse"
       y2="-527.79797"
       x2="431.57144"
       y1="-527.79797"
       x1="379.57144"
       id="linearGradient4172"
       xlink:href="#linearGradient5277"
       inkscape:collect="always"
       gradientTransform="matrix(0.83333307,0,0,0.83333307,-317.03371,412.80361)" />
    <linearGradient
       id="linearGradient5277">
      <stop
         id="stop5279"
         offset="0"
         style="stop-color:#333333;stop-opacity:1" />
      <stop
         id="stop5281"
         offset="1"
         style="stop-color:#666666;stop-opacity:1" />
    </linearGradient>
  </defs>
  <g
     id="g3208"
     transform="translate(0.55761199,0.30529681)">
    <rect
       transform="scale(1,-1)"
       ry="0"
       y="-43.694542"
       x="3.4424012"
       height="39.999989"
       width="39.999989"
       id="rect2991-1-7"
       style="fill:url(#linearGradient4172);fill-opacity:1;stroke:none" />
    <path
       sodipodi:nodetypes="cccc"
       inkscape:connector-curvature="0"
       id="path3800"
       d="m 3.4423873,43.694552 40.0000007,3.01e-4 c -20,-0.999999 -20,-0.999999 -40.0000017,0 z"
       style="opacity:0.35;fill:#000000;fill-opacity:1;stroke:none" />
    <path
       style="opacity:0.5;fill:#ffffff;fill-opacity:1;stroke:none"
       d="M 3.4423913,3.6947551 43.442388,3.6945549 c -19.999996,1.0000006 -19.999996,1.0000006 -39.9999977,0 z"
       id="path3804"
       inkscape:connector-curvature="0"
       sodipodi:nodetypes="cccc" />
  </g>
  <g
     id="g33"
     transform="matrix(1.6132568,0,0,1.6132568,-15.025399,-14.439131)" />
  <g
     id="g3199"
     transform="translate(0.11095978,0.14229671)">
    <g
       transform="matrix(1.314162,0,0,1.314162,-8.3092312,-7.084241)"
       id="g35">
      <g
         id="g37"
         clip-path="url(#clipPath-141243315)">
        <g
           id="g39"
           transform="translate(1,1)">
          <g
             style="opacity:0.1"
             id="g41">
            <!-- color: #c85637 -->
            <g
               id="g43">
              <path
                 style="fill:#000000;fill-opacity:1;fill-rule:nonzero;stroke:none"
                 inkscape:connector-curvature="0"
                 id="path45"
                 d="m 14.75,13.09 c -0.395,0 -0.75,0.43 -0.75,0.875 l 0,5.03 3.75,0 0,-2 1.5,0 0,2 4,0 0,-3 1.5,0 0,3 4,0 0,-2 1.5,0 0,2 3.75,0 0,-5.03 C 34,13.516 33.645,13.09 33.25,13.09 m -18.5,0" />
              <path
                 style="fill:#000000;fill-opacity:1;fill-rule:nonzero;stroke:none"
                 inkscape:connector-curvature="0"
                 id="path47"
                 d="M 12.813,15 C 12.372,15.043 11.997,15.449 12,15.875 l 0,16.25 C 12,32.574 12.434,33 12.906,33 l 22.19,0 c 0.469,0 0.906,-0.426 0.906,-0.875 l 0,-14.25 c 0,-0.449 -0.441,-0.844 -0.906,-0.844 l -4.844,0 0,3.063 c 1.01,0.191 1.75,0.738 1.75,1.406 0,0.668 -0.742,1.215 -1.75,1.406 l 0,8.094 -1.5,0 0,-8.094 c -1.02,-0.191 -1.75,-0.738 -1.75,-1.406 0,-0.668 0.73,-1.215 1.75,-1.406 l 0,-3.063 -2.781,0 0,-1.156 C 25.971,15.426 25.53,15 25.065,15 m -1.816,1 1.5,0 0,11.09 c 1.012,0.191 1.75,0.738 1.75,1.406 0,0.668 -0.742,1.215 -1.75,1.406 l 0,2.094 -1.5,0 0,-2.094 c -1.012,-0.191 -1.75,-0.738 -1.75,-1.406 0,-0.668 0.742,-1.215 1.75,-1.406 m -5.5,-10.09 1.5,0 0,3.094 c 1.012,0.191 1.75,0.738 1.75,1.406 0,0.668 -0.742,1.215 -1.75,1.406 l 0,8.094 -1.5,0 0,-8.094 c -1.012,-0.191 -1.75,-0.738 -1.75,-1.406 0,-0.668 0.742,-1.215 1.75,-1.406 m 0,-3.094" />
            </g>
          </g>
        </g>
      </g>
    </g>
    <g
       transform="matrix(1.314162,0,0,1.314162,-8.3092312,-7.084241)"
       id="g49">
      <g
         id="g51"
         clip-path="url(#clipPath-149311055)">
        <!-- color: #c85637 -->
        <g
           id="g53">
          <path
             style="fill:#b9a3a3;fill-opacity:1;fill-rule:nonzero;stroke:none"
             inkscape:connector-curvature="0"
             id="path55"
             d="m 14.75,13.09 c -0.395,0 -0.75,0.43 -0.75,0.875 l 0,5.03 3.75,0 0,-2 1.5,0 0,2 4,0 0,-3 1.5,0 0,3 4,0 0,-2 1.5,0 0,2 3.75,0 0,-5.03 C 34,13.516 33.645,13.09 33.25,13.09 m -18.5,0" />
          <path
             style="fill:#ecedf1;fill-opacity:1;fill-rule:nonzero;stroke:none"
             inkscape:connector-curvature="0"
             id="path57"
             d="M 12.813,15 C 12.372,15.043 11.997,15.449 12,15.875 l 0,16.25 C 12,32.574 12.434,33 12.906,33 l 22.19,0 c 0.469,0 0.906,-0.426 0.906,-0.875 l 0,-14.25 c 0,-0.449 -0.441,-0.844 -0.906,-0.844 l -4.844,0 0,3.063 c 1.01,0.191 1.75,0.738 1.75,1.406 0,0.668 -0.742,1.215 -1.75,1.406 l 0,8.094 -1.5,0 0,-8.094 c -1.02,-0.191 -1.75,-0.738 -1.75,-1.406 0,-0.668 0.73,-1.215 1.75,-1.406 l 0,-3.063 -2.781,0 0,-1.156 C 25.971,15.426 25.53,15 25.065,15 m -1.816,1 1.5,0 0,11.09 c 1.012,0.191 1.75,0.738 1.75,1.406 0,0.668 -0.742,1.215 -1.75,1.406 l 0,2.094 -1.5,0 0,-2.094 c -1.012,-0.191 -1.75,-0.738 -1.75,-1.406 0,-0.668 0.742,-1.215 1.75,-1.406 m -5.5,-10.09 1.5,0 0,3.094 c 1.012,0.191 1.75,0.738 1.75,1.406 0,0.668 -0.742,1.215 -1.75,1.406 l 0,8.094 -1.5,0 0,-8.094 c -1.012,-0.191 -1.75,-0.738 -1.75,-1.406 0,-0.668 0.742,-1.215 1.75,-1.406 m 0,-3.094" />
        </g>
      </g>
    </g>
  </g>
</svg>
