<?xml version="1.0" encoding="UTF-8" standalone="no"?>
<!-- Created with Inkscape (http://www.inkscape.org/) -->

<svg
   xmlns:dc="http://purl.org/dc/elements/1.1/"
   xmlns:cc="http://creativecommons.org/ns#"
   xmlns:rdf="http://www.w3.org/1999/02/22-rdf-syntax-ns#"
   xmlns:svg="http://www.w3.org/2000/svg"
   xmlns="http://www.w3.org/2000/svg"
   xmlns:xlink="http://www.w3.org/1999/xlink"
   xmlns:sodipodi="http://sodipodi.sourceforge.net/DTD/sodipodi-0.dtd"
   xmlns:inkscape="http://www.inkscape.org/namespaces/inkscape"
   version="1.0"
   width="48"
   height="48"
   id="svg2408"
   inkscape:version="0.48.4 r9939"
   sodipodi:docname="mendeley.svg">
  <sodipodi:namedview
     pagecolor="#ffffff"
     bordercolor="#666666"
     borderopacity="1"
     objecttolerance="10"
     gridtolerance="10"
     guidetolerance="10"
     inkscape:pageopacity="0"
     inkscape:pageshadow="2"
     inkscape:window-width="1301"
     inkscape:window-height="744"
     id="namedview60"
     showgrid="true"
     inkscape:snap-bbox="true"
     inkscape:bbox-paths="true"
     inkscape:zoom="4.9166667"
     inkscape:cx="2.7149275"
     inkscape:cy="37.471162"
     inkscape:window-x="65"
     inkscape:window-y="24"
     inkscape:window-maximized="1"
     inkscape:current-layer="svg2408">
    <inkscape:grid
       type="xygrid"
       id="grid3817"
       empspacing="5"
       visible="true"
       enabled="true"
       snapvisiblegridlinesonly="true" />
  </sodipodi:namedview>
  <defs
     id="defs2410">
    <linearGradient
       id="linearGradient3866">
      <stop
         id="stop3868"
         style="stop-color:#ffffff;stop-opacity:1"
         offset="0" />
      <stop
         id="stop3870"
         style="stop-color:#ffffff;stop-opacity:0"
         offset="1" />
    </linearGradient>
    <linearGradient
       x1="45.447727"
       y1="92.539597"
       x2="45.447727"
       y2="7.0165396"
       id="ButtonShadow"
       gradientUnits="userSpaceOnUse"
       gradientTransform="scale(1.0058652,0.994169)">
      <stop
         id="stop3750"
         style="stop-color:#000000;stop-opacity:1"
         offset="0" />
      <stop
         id="stop3752"
         style="stop-color:#000000;stop-opacity:0.58823532"
         offset="1" />
    </linearGradient>
    <linearGradient
       id="linearGradient3737">
      <stop
         id="stop3739"
         style="stop-color:#ffffff;stop-opacity:1"
         offset="0" />
      <stop
         id="stop3741"
         style="stop-color:#ffffff;stop-opacity:0"
         offset="1" />
    </linearGradient>
    <linearGradient
       id="linearGradient3700">
      <stop
         id="stop3702"
         style="stop-color:#730a13;stop-opacity:1"
         offset="0" />
      <stop
         id="stop3704"
         style="stop-color:#be212e;stop-opacity:1"
         offset="1" />
    </linearGradient>
    <filter
       color-interpolation-filters="sRGB"
       id="filter3174">
      <feGaussianBlur
         id="feGaussianBlur3176"
         stdDeviation="1.71" />
    </filter>
    <linearGradient
       x1="36.357143"
       y1="6"
       x2="36.357143"
       y2="63.893143"
       id="linearGradient3188"
       xlink:href="#linearGradient3737"
       gradientUnits="userSpaceOnUse" />
    <filter
       x="-0.192"
       y="-0.192"
       width="1.3839999"
       height="1.3839999"
       color-interpolation-filters="sRGB"
       id="filter3794">
      <feGaussianBlur
         id="feGaussianBlur3796"
         stdDeviation="5.28" />
    </filter>
    <linearGradient
       x1="48"
       y1="20.220806"
       x2="48"
       y2="138.66119"
       id="linearGradient3613"
       xlink:href="#linearGradient3737"
       gradientUnits="userSpaceOnUse" />
    <radialGradient
       cx="48"
       cy="90.171875"
       r="42"
       fx="48"
       fy="90.171875"
       id="radialGradient3619"
       xlink:href="#linearGradient3737"
       gradientUnits="userSpaceOnUse"
       gradientTransform="matrix(1.1573129,0,0,0.99590774,-7.5510206,0.19713193)" />
    <clipPath
       id="clipPath3613">
      <rect
         width="84"
         height="84"
         rx="6"
         ry="6"
         x="6"
         y="6"
         id="rect3615"
         style="fill:#ffffff;fill-opacity:1;fill-rule:nonzero;stroke:none" />
    </clipPath>
    <linearGradient
       x1="45.447727"
       y1="92.539597"
       x2="45.447727"
       y2="7.0165396"
       id="ButtonShadow-0"
       gradientUnits="userSpaceOnUse"
       gradientTransform="matrix(1.0058652,0,0,0.994169,100,0)">
      <stop
         id="stop3750-8"
         style="stop-color:#000000;stop-opacity:1"
         offset="0" />
      <stop
         id="stop3752-5"
         style="stop-color:#000000;stop-opacity:0.58823532"
         offset="1" />
    </linearGradient>
    <linearGradient
       x1="32.251034"
       y1="6.1317081"
       x2="32.251034"
       y2="90.238609"
       id="linearGradient3780"
       xlink:href="#ButtonShadow-0"
       gradientUnits="userSpaceOnUse"
       gradientTransform="matrix(1.0238095,0,0,1.0119048,-1.1428571,-98.071429)" />
    <linearGradient
       x1="32.251034"
       y1="6.1317081"
       x2="32.251034"
       y2="90.238609"
       id="linearGradient3772"
       xlink:href="#ButtonShadow-0"
       gradientUnits="userSpaceOnUse"
       gradientTransform="matrix(1.0238095,0,0,1.0119048,-1.1428571,-98.071429)" />
    <linearGradient
       x1="32.251034"
       y1="6.1317081"
       x2="32.251034"
       y2="90.238609"
       id="linearGradient3725"
       xlink:href="#ButtonShadow-0"
       gradientUnits="userSpaceOnUse"
       gradientTransform="matrix(1.0238095,0,0,1.0119048,-1.1428571,-98.071429)" />
    <linearGradient
       x1="32.251034"
       y1="6.1317081"
       x2="32.251034"
       y2="90.238609"
       id="linearGradient3721"
       xlink:href="#ButtonShadow-0"
       gradientUnits="userSpaceOnUse"
       gradientTransform="translate(0,-97)" />
    <linearGradient
       x1="32.251034"
       y1="6.1317081"
       x2="32.251034"
       y2="90.238609"
       id="linearGradient3026"
       xlink:href="#ButtonShadow-0"
       gradientUnits="userSpaceOnUse"
       gradientTransform="matrix(1.0238095,0,0,1.0119048,-1.1428571,-98.071429)" />
    <radialGradient
       cx="88"
       cy="88"
       r="42"
       fx="88"
       fy="88"
       id="radialGradient3833"
       xlink:href="#linearGradient3700"
       gradientUnits="userSpaceOnUse"
       gradientTransform="matrix(2.2695651,-0.00686696,0.00580377,1.9181687,-112.23246,-80.194551)" />
    <linearGradient
       x1="72"
       y1="8"
       x2="48"
       y2="64"
       id="linearGradient3872"
       xlink:href="#linearGradient3866"
       gradientUnits="userSpaceOnUse" />
    <clipPath
       id="clipPath3888">
      <path
         d="m 34.405054,29.694011 c -1.445208,0.02254 -2.919206,0.387911 -4.351152,1.095614 -4.269072,2.10989 -6.01981,6.646131 -4.695487,12.051752 0.633127,2.584343 0.852059,6.07656 0.469548,7.481477 -0.542122,1.991087 -2.205522,3.033727 -4.883307,3.036415 -2.64526,0.0027 -5.246275,2.034052 -5.759799,4.507669 -0.525313,2.530457 0.07523,4.823108 1.721679,6.479773 1.935984,1.947973 4.622113,2.497148 6.949322,1.408646 3.369412,-1.575968 4.47335,-4.868513 3.036416,-8.984033 -0.692688,-1.983911 -0.724332,-2.250242 -0.375639,-3.505964 1.476071,-5.315659 13.601639,-5.704733 15.58902,-0.500852 0.469799,1.23015 0.392247,2.071774 -0.469549,4.225939 -0.527538,1.318622 -0.591657,1.777958 -0.500852,3.192931 0.165882,2.584715 1.40482,4.395911 3.8503,5.509373 1.488081,0.677544 4.581704,0.674543 6.041528,0 3.587923,-1.657947 4.934784,-5.252995 3.349448,-8.890124 -1.361707,-3.124041 -0.673576,-5.199696 2.191227,-6.636289 3.603721,-1.807133 8.809857,-1.394756 11.425687,0.907794 1.871634,1.64748 2.1514,3.073633 1.158221,5.916315 -1.318183,3.772926 -0.261956,7.036495 2.785989,8.671001 1.315819,0.70563 4.226039,0.70597 5.540676,0 1.190565,-0.639324 2.534692,-2.044816 2.973809,-3.099022 1.280899,-3.075078 0.233517,-6.944545 -2.285138,-8.420575 -0.87,-0.509852 -1.526557,-0.665364 -3.286841,-0.813885 -1.431395,-0.120772 -2.433179,-0.346881 -2.911203,-0.626065 -0.955475,-0.558027 -1.717812,-1.940421 -1.909498,-3.474661 -0.174487,-1.396503 0.214725,-4.87797 0.751278,-6.730199 0.554674,-1.914755 0.333157,-5.505878 -0.438245,-7.199747 -2.363621,-5.190107 -9.04051,-7.222371 -13.773432,-4.163333 -0.742332,0.479792 -1.694552,1.331941 -2.128621,1.878195 -1.521738,1.915054 -3.972708,4.36896 -4.726791,4.726791 -1.897458,0.900406 -3.845211,0.162547 -5.978921,-2.253834 -3.225307,-3.652591 -3.69738,-4.113581 -5.133733,-4.820702 -1.349446,-0.664331 -2.780731,-0.992937 -4.22594,-0.9704 z m 13.648219,10.643105 c 4.368792,-0.0072 7.338474,3.986758 6.104134,8.232756 -0.538316,1.851711 -2.30439,3.645287 -4.069423,4.163332 -1.510099,0.443218 -2.756009,0.465145 -4.163333,0.0313 -2.446752,-0.75425 -4.274141,-3.361467 -4.257242,-6.104135 0.01132,-1.835692 0.421587,-2.880766 1.690376,-4.257242 1.325034,-1.437485 2.759254,-2.062831 4.695488,-2.066015 z"
         inkscape:connector-curvature="0"
         id="path3890"
         style="color:#000000;fill:#ff00ff;fill-opacity:1;fill-rule:nonzero;stroke:none;stroke-width:1;marker:none;visibility:visible;display:inline;overflow:visible;enable-background:accumulate" />
    </clipPath>
    <filter
       color-interpolation-filters="sRGB"
       id="filter3892">
      <feGaussianBlur
         id="feGaussianBlur3894"
         stdDeviation="0.76960612" />
    </filter>
    <linearGradient
       inkscape:collect="always"
       xlink:href="#linearGradient3700"
       id="linearGradient3815"
       x1="15"
       y1="48"
       x2="81"
       y2="48"
       gradientUnits="userSpaceOnUse"
       gradientTransform="matrix(0.6669315,0,0,0.6669315,-8.0156299,-8.7032661)" />
  </defs>
  <metadata
     id="metadata2413">
    <rdf:RDF>
      <cc:Work
         rdf:about="">
        <dc:format>image/svg+xml</dc:format>
        <dc:type
           rdf:resource="http://purl.org/dc/dcmitype/StillImage" />
        <dc:title />
      </cc:Work>
    </rdf:RDF>
  </metadata>
  <g
     id="layer2"
     style="display:none"
     transform="translate(0,-48)">
    <rect
       width="86"
       height="85"
       rx="6"
       ry="6"
       x="5"
       y="7"
       id="rect3745"
       style="opacity:0.9;fill:url(#ButtonShadow);fill-opacity:1;fill-rule:nonzero;stroke:none;filter:url(#filter3174)" />
  </g>
  <g
     id="layer5"
     style="display:none"
     transform="translate(0,-48)">
    <rect
       width="66"
       height="66"
       rx="12"
       ry="12"
       x="15"
       y="15"
       clip-path="url(#clipPath3613)"
       id="rect3171"
       style="opacity:0.1;fill:url(#linearGradient3613);fill-opacity:1;fill-rule:nonzero;stroke:#ffffff;stroke-width:0.5;stroke-linecap:round;stroke-linejoin:miter;stroke-miterlimit:4;stroke-opacity:1;stroke-dasharray:none;stroke-dashoffset:0;filter:url(#filter3794)" />
  </g>
  <path
     style="color:#000000;fill:url(#linearGradient3815);fill-opacity:1;fill-rule:nonzero;stroke:none;stroke-width:12;marker:none;visibility:visible;display:inline;overflow:visible;enable-background:accumulate"
     id="rect3837"
     inkscape:connector-curvature="0"
     d="m 14.930185,11.100605 c -0.963855,0.01503 -1.94691,0.25871 -2.901921,0.7307 -2.8471785,1.407152 -4.0148007,4.432514 -3.131568,8.037693 0.4222523,1.72358 0.568265,4.052649 0.3131563,4.989633 -0.3615582,1.327919 -1.4709321,2.023287 -3.2568316,2.02508 -1.7642071,0.0018 -3.4989059,1.356574 -3.8413911,3.006307 -0.3503478,1.687641 0.050173,3.216682 1.1482419,4.321564 1.2911687,1.299165 3.0826326,1.665427 4.6347219,0.939471 C 10.141761,34.09999 10.878012,31.904088 9.9196749,29.159319 9.4576994,27.836185 9.436595,27.658561 9.6691494,26.82108 10.653588,23.2759 18.740511,23.016415 20.065958,26.487046 c 0.313324,0.820426 0.261602,1.381732 -0.313157,2.818413 -0.351832,0.87943 -0.394594,1.185776 -0.334034,2.129466 0.110632,1.723828 0.936919,2.931771 2.567887,3.674374 0.992447,0.451876 3.055682,0.449874 4.029285,0 2.392898,-1.105737 3.291162,-3.503388 2.233852,-5.929104 -0.908165,-2.083521 -0.449229,-3.467841 1.461398,-4.42595 2.403435,-1.205234 5.875572,-0.930206 7.620151,0.605437 1.248252,1.098755 1.434837,2.049902 0.772454,3.945777 -0.879138,2.516282 -0.174706,4.692859 1.858064,5.782964 0.877561,0.470606 2.818479,0.470833 3.695251,0 0.794026,-0.426386 1.690467,-1.363753 1.983327,-2.066836 0.854273,-2.050866 0.15574,-4.631536 -1.52403,-5.615947 -0.580231,-0.340037 -1.018109,-0.443752 -2.192098,-0.542805 -0.954643,-0.08055 -1.622763,-0.231346 -1.941573,-0.417543 -0.637236,-0.372166 -1.145662,-1.294127 -1.273505,-2.317361 -0.116371,-0.931372 0.143208,-3.253272 0.501051,-4.488581 0.36993,-1.277011 0.222193,-3.672044 -0.292279,-4.801738 -1.576373,-3.461446 -6.0294,-4.816827 -9.185935,-2.776659 -0.495085,0.319988 -1.13015,0.888314 -1.419645,1.252627 -1.014895,1.27721 -2.649524,2.913798 -3.152446,3.152446 -1.265474,0.60051 -2.564492,0.108408 -3.987531,-1.503153 -2.151058,-2.436027 -2.465899,-2.743477 -3.423848,-3.215078 -0.899988,-0.443063 -1.854557,-0.66222 -2.818412,-0.64719 z m 9.102427,7.098223 c 2.913685,-0.0048 4.894259,2.658894 4.071039,5.490683 -0.359019,1.234966 -1.53687,2.431157 -2.714026,2.776658 -1.007133,0.295596 -1.83807,0.31022 -2.776658,0.02087 -1.631816,-0.503034 -2.850559,-2.241868 -2.839289,-4.071041 0.0076,-1.22428 0.281169,-1.921273 1.127365,-2.839288 0.883707,-0.958704 1.840233,-1.375767 3.131569,-1.37789 z" />
  <path
     style="color:#000000;fill:#650009;fill-opacity:1;fill-rule:nonzero;stroke:none;stroke-width:12;marker:none;visibility:visible;display:inline;overflow:visible;enable-background:accumulate"
     id="path3874"
     inkscape:connector-curvature="0"
     d="m 14.930982,10.429331 c -0.963854,0.01503 -1.941973,0.257467 -2.896983,0.729456 -2.3133332,1.143312 -3.5213869,3.362867 -3.4180245,6.085751 0.1012533,-2.41845 1.2948542,-4.369491 3.4180245,-5.418819 0.95501,-0.471989 1.933129,-0.714424 2.896983,-0.729456 0.963856,-0.01503 1.913629,0.203026 2.813618,0.64609 0.957948,0.471601 1.266965,0.794422 3.418024,3.230449 1.423038,1.611561 2.736114,2.101105 4.001588,1.500596 0.502923,-0.238649 2.132189,-1.890715 3.147083,-3.167925 0.289495,-0.364313 0.922146,-0.930507 1.41723,-1.250496 3.156535,-2.040169 7.614777,-0.66867 9.19115,2.792776 0.289422,0.635522 0.469774,1.655633 0.500199,2.667726 0.04198,-1.198255 -0.146531,-2.558062 -0.500199,-3.334657 -1.576373,-3.461446 -6.034615,-4.832945 -9.19115,-2.792776 -0.495084,0.319988 -1.127735,0.886182 -1.41723,1.250496 -1.014894,1.27721 -2.64416,2.929276 -3.147083,3.167924 -1.265474,0.60051 -2.57855,0.110965 -4.001588,-1.500596 -2.151059,-2.436027 -2.460076,-2.758848 -3.418024,-3.230449 -0.899989,-0.443063 -1.849762,-0.66112 -2.813618,-0.64609 z m 4.856095,11.608777 c -0.008,0.125285 -0.01999,0.237617 -0.02084,0.375149 -0.01128,1.829172 1.223484,3.561081 2.8553,4.064114 0.938589,0.289345 1.764802,0.274755 2.771934,-0.02084 1.177156,-0.3455 2.350389,-1.536969 2.709409,-2.771934 0.160953,-0.55366 0.226999,-1.103525 0.187575,-1.625645 -0.0233,0.317783 -0.09279,0.632656 -0.187575,0.958713 -0.35902,1.234965 -1.532253,2.426434 -2.709409,2.771935 -1.007132,0.295596 -1.833345,0.310186 -2.771934,0.02084 -1.545433,-0.476404 -2.723968,-2.052089 -2.834459,-3.772331 z m 18.90334,1.16713 c -0.01357,0.367954 -0.0083,0.684188 0.02084,0.917031 0.127842,1.023233 0.634102,1.941253 1.271338,2.313419 0.31881,0.186196 0.983627,0.336285 1.93827,0.416831 1.173989,0.09905 1.608138,0.222687 2.188369,0.562724 1.125181,0.6594 1.802889,2.027692 1.875744,3.480549 0.135723,-1.684386 -0.579016,-3.387547 -1.875744,-4.14748 -0.580231,-0.340037 -1.01438,-0.463671 -2.188369,-0.562724 -0.954643,-0.08055 -1.61946,-0.230636 -1.93827,-0.416832 -0.637236,-0.372166 -1.143496,-1.290186 -1.271338,-2.313419 -0.0092,-0.07364 -0.01621,-0.160287 -0.02084,-0.250099 z M 9.3245892,23.371971 c -0.018194,0.329316 -0.067609,0.601852 -0.1250496,0.812822 -0.3615583,1.327919 -1.465392,2.019845 -3.2512914,2.021636 -1.7642071,0.0018 -3.4923706,1.372302 -3.8348559,3.022035 -0.103259,0.497404 -0.1300364,0.975019 -0.1042081,1.43807 0.018407,-0.253189 0.049854,-0.509325 0.1042081,-0.771139 0.3424853,-1.649734 2.0706488,-3.020233 3.8348559,-3.022034 1.7858994,-0.0018 2.8897331,-0.693717 3.2512914,-2.021636 0.091998,-0.337901 0.1315262,-0.873455 0.1250496,-1.479754 z m 18.5073488,3.62644 c -0.0821,0.629187 0.05186,1.351053 0.416833,2.188369 0.24532,0.562821 0.376309,1.123316 0.416832,1.667328 0.0581,-0.745551 -0.06973,-1.537946 -0.416832,-2.33426 -0.242161,-0.555566 -0.37068,-1.060123 -0.416833,-1.521437 z m -7.607187,0.104208 c -0.05817,0.401305 -0.214479,0.880186 -0.479357,1.542279 -0.333655,0.833997 -0.380253,1.165246 -0.333466,2.000795 0.02366,-0.421612 0.104083,-0.760501 0.333466,-1.333863 0.425671,-1.064016 0.563277,-1.644622 0.479357,-2.209211 z m 18.236408,0.104208 c -0.04405,0.417695 -0.162122,0.887996 -0.354307,1.438071 -0.291323,0.83383 -0.401476,1.62305 -0.354307,2.355102 0.03666,-0.537931 0.150327,-1.104336 0.354307,-1.68817 0.302298,-0.865237 0.425877,-1.529472 0.354307,-2.105003 z m -28.8864705,0.08336 c -0.08698,0.494401 -0.0058,0.844371 0.3543074,1.875745 0.2260831,0.647524 0.3561191,1.255457 0.3959911,1.834062 0.04377,-0.761101 -0.08169,-1.60079 -0.3959911,-2.500993 C 9.7294773,27.92757 9.6248238,27.579737 9.5746885,27.290193 z" />
  <path
     style="opacity:0.15;color:#000000;fill:#ffffff;fill-opacity:1;fill-rule:nonzero;stroke:none;stroke-width:12;marker:none;visibility:visible;display:inline;overflow:visible;enable-background:accumulate"
     id="path3879"
     inkscape:connector-curvature="0"
     d="m 8.6159745,17.953152 c -0.029745,0.812593 0.050133,1.683066 0.2709409,2.58436 0.2699772,1.102012 0.4261906,2.426448 0.4376738,3.501391 C 9.3872008,22.905625 9.214094,21.206081 8.8869154,19.870581 8.7249731,19.209565 8.642315,18.568783 8.6159745,17.953152 z M 39.419874,18.18241 c -0.01908,0.544816 -0.09279,1.059769 -0.208416,1.458913 -0.313114,1.080896 -0.544422,2.999693 -0.521041,4.084956 0.05213,-1.091406 0.263404,-2.528639 0.521041,-3.418025 0.161821,-0.558615 0.232074,-1.338856 0.208416,-2.125844 z m -15.381108,0.02084 c -1.291336,0.0021 -2.263376,0.416842 -3.147083,1.375546 -0.846195,0.918015 -1.117898,1.610178 -1.125447,2.834459 -5.97e-4,0.09683 0.01466,0.195627 0.02084,0.291783 0.0632,-0.989973 0.353469,-1.644423 1.104606,-2.45931 0.883707,-0.958704 1.855747,-1.373423 3.147083,-1.375546 2.344013,-0.0039 4.08947,1.707339 4.251688,3.855697 0.179054,-2.442147 -1.673491,-4.526878 -4.251688,-4.522629 z m -9.295358,5.814808 c -2.310466,0.07419 -4.572292,1.020186 -5.0645114,2.792776 -0.1321185,0.475788 -0.1701589,0.765409 -0.1042081,1.146289 0.024603,-0.139857 0.052927,-0.294688 0.1042081,-0.479357 0.9844384,-3.54518 9.0536754,-3.804098 10.3791214,-0.333466 0.07833,0.205107 0.136501,0.413964 0.166733,0.604407 0.0635,-0.460123 -1.69e-4,-0.835197 -0.166733,-1.271338 -0.662723,-1.735316 -3.004144,-2.5335 -5.31461,-2.459311 z m 17.965468,0 c -1.054403,0.04722 -2.099904,0.277495 -3.001192,0.729457 -1.401163,0.702631 -2.002674,1.649091 -1.875746,2.917825 0.122199,-0.93644 0.732952,-1.677824 1.875746,-2.250893 2.403435,-1.205234 5.883449,-0.931237 7.628028,0.604406 0.678576,0.597308 1.040197,1.169354 1.125447,1.854903 0.10778,-1.021922 -0.239367,-1.741874 -1.125447,-2.521835 -1.090362,-0.959776 -2.869501,-1.412566 -4.626836,-1.333863 z m -13.296948,7.294564 c -0.01263,0.225061 -0.02108,0.463549 0,0.791982 0.110633,1.723827 0.953393,2.925519 2.58436,3.668123 0.992448,0.451875 3.048828,0.449873 4.022431,0 1.837692,-0.849182 2.781012,-2.451047 2.646884,-4.251689 -0.118872,1.525536 -1.039526,2.84201 -2.646884,3.584757 -0.973603,0.449874 -3.029983,0.451875 -4.022431,0 -1.630967,-0.742603 -2.473727,-1.944296 -2.58436,-3.668123 -0.0032,-0.04876 0.0026,-0.07954 0,-0.12505 z m -17.4027438,0.02084 c -0.1002485,1.378852 0.3227781,2.609599 1.2504965,3.543073 1.2911688,1.299165 3.0747482,1.663829 4.6268374,0.937873 1.7170339,-0.803107 2.5676089,-2.273456 2.4384689,-4.147484 -0.08969,1.559539 -0.9283058,2.774204 -2.4384689,3.480549 C 6.3344289,35.873437 4.5508495,35.508772 3.2596807,34.209607 2.4852499,33.430372 2.0709888,32.441498 2.0091842,31.333466 z M 45.98498,31.562727 c -0.04009,0.497551 -0.159505,0.991248 -0.354307,1.458912 -0.292861,0.703084 -1.185928,1.636934 -1.979953,2.06332 -0.876773,0.470833 -2.811404,0.470606 -3.688965,0 -1.359163,-0.728873 -2.114037,-1.940934 -2.20921,-3.418025 -0.121364,1.780512 0.648088,3.247781 2.20921,4.084956 0.877561,0.470607 2.812192,0.470834 3.688965,0 0.794025,-0.426385 1.687092,-1.360236 1.979953,-2.06332 0.282045,-0.677109 0.390217,-1.409747 0.354307,-2.125843 z" />
  <path
     style="opacity:0.15;color:#000000;fill:none;stroke:#000000;stroke-width:1;stroke-miterlimit:4;stroke-dasharray:none;marker:none;visibility:visible;display:inline;overflow:visible;filter:url(#filter3892);enable-background:accumulate"
     id="path3884"
     clip-path="url(#clipPath3888)"
     inkscape:connector-curvature="0"
     d="m 34.405054,29.694011 c -1.445208,0.02254 -2.919206,0.387911 -4.351152,1.095614 -4.269072,2.10989 -6.01981,6.646131 -4.695487,12.051752 0.633127,2.584343 0.852059,6.07656 0.469548,7.481477 -0.542122,1.991087 -2.205522,3.033727 -4.883307,3.036415 -2.64526,0.0027 -5.246275,2.034052 -5.759799,4.507669 -0.525313,2.530457 0.07523,4.823108 1.721679,6.479773 1.935984,1.947973 4.622113,2.497148 6.949322,1.408646 3.369412,-1.575968 4.47335,-4.868513 3.036416,-8.984033 -0.692688,-1.983911 -0.724332,-2.250242 -0.375639,-3.505964 1.476071,-5.315659 13.601639,-5.704733 15.58902,-0.500852 0.469799,1.23015 0.392247,2.071774 -0.469549,4.225939 -0.527538,1.318622 -0.591657,1.777958 -0.500852,3.192931 0.165882,2.584715 1.40482,4.395911 3.8503,5.509373 1.488081,0.677544 4.581704,0.674543 6.041528,0 3.587923,-1.657947 4.934784,-5.252995 3.349448,-8.890124 -1.361707,-3.124041 -0.673576,-5.199696 2.191227,-6.636289 3.603721,-1.807133 8.809857,-1.394756 11.425687,0.907794 1.871634,1.64748 2.1514,3.073633 1.158221,5.916315 -1.318183,3.772926 -0.261956,7.036495 2.785989,8.671001 1.315819,0.70563 4.226039,0.70597 5.540676,0 1.190565,-0.639324 2.534692,-2.044816 2.973809,-3.099022 1.280899,-3.075078 0.233517,-6.944545 -2.285138,-8.420575 -0.87,-0.509852 -1.526557,-0.665364 -3.286841,-0.813885 -1.431395,-0.120772 -2.433179,-0.346881 -2.911203,-0.626065 -0.955475,-0.558027 -1.717812,-1.940421 -1.909498,-3.474661 -0.174487,-1.396503 0.214725,-4.87797 0.751278,-6.730199 0.554674,-1.914755 0.333157,-5.505878 -0.438245,-7.199747 -2.363621,-5.190107 -9.04051,-7.222371 -13.773432,-4.163333 -0.742332,0.479792 -1.694552,1.331941 -2.128621,1.878195 -1.521738,1.915054 -3.972708,4.36896 -4.726791,4.726791 -1.897458,0.900406 -3.845211,0.162547 -5.978921,-2.253834 -3.225307,-3.652591 -3.69738,-4.113581 -5.133733,-4.820702 -1.349446,-0.664331 -2.780731,-0.992937 -4.22594,-0.9704 z m 13.648219,10.643105 c 4.368792,-0.0072 7.338474,3.986758 6.104134,8.232756 -0.538316,1.851711 -2.30439,3.645287 -4.069423,4.163332 -1.510099,0.443218 -2.756009,0.465145 -4.163333,0.0313 -2.446752,-0.75425 -4.274141,-3.361467 -4.257242,-6.104135 0.01132,-1.835692 0.421587,-2.880766 1.690376,-4.257242 1.325034,-1.437485 2.759254,-2.062831 4.695488,-2.066015 z"
     transform="matrix(0.6669315,0,0,0.6669315,-8.0156299,-8.7032661)" />
</svg>
