<?xml version="1.0" encoding="UTF-8" standalone="no"?>
<!-- Created with Inkscape (http://www.inkscape.org/) -->

<svg
   xmlns:dc="http://purl.org/dc/elements/1.1/"
   xmlns:cc="http://creativecommons.org/ns#"
   xmlns:rdf="http://www.w3.org/1999/02/22-rdf-syntax-ns#"
   xmlns:svg="http://www.w3.org/2000/svg"
   xmlns="http://www.w3.org/2000/svg"
   xmlns:xlink="http://www.w3.org/1999/xlink"
   xmlns:sodipodi="http://sodipodi.sourceforge.net/DTD/sodipodi-0.dtd"
   xmlns:inkscape="http://www.inkscape.org/namespaces/inkscape"
   width="48"
   height="48"
   id="svg2"
   version="1.1"
   inkscape:version="0.48.5 r10040"
   sodipodi:docname="midori.svg"
   inkscape:export-filename="/home/uri/workspace/NitruxforAndroid/res/drawable-xhdpi/web_browser.png"
   inkscape:export-xdpi="180"
   inkscape:export-ydpi="180">
  <defs
     id="defs4">
    <linearGradient
       id="linearGradient5160"
       inkscape:collect="always">
      <stop
         id="stop5162"
         offset="0"
         style="stop-color:#b1d593;stop-opacity:1" />
      <stop
         id="stop5164"
         offset="1"
         style="stop-color:#fbfdf7;stop-opacity:1" />
    </linearGradient>
    <linearGradient
       inkscape:collect="always"
       id="linearGradient990">
      <stop
         style="stop-color:#000000;stop-opacity:1;"
         offset="0"
         id="stop992" />
      <stop
         style="stop-color:#000000;stop-opacity:0;"
         offset="1"
         id="stop994" />
    </linearGradient>
    <linearGradient
       inkscape:collect="always"
       xlink:href="#linearGradient4708"
       id="linearGradient876"
       x1="-1.2120006e-05"
       y1="-1027.1622"
       x2="48.000011"
       y2="-1027.1622"
       gradientUnits="userSpaceOnUse"
       gradientTransform="matrix(0.83333291,0,0,0.83333291,4.0000101,-171.39413)" />
    <linearGradient
       inkscape:collect="always"
       xlink:href="#linearGradient990"
       id="linearGradient1007"
       gradientUnits="userSpaceOnUse"
       gradientTransform="matrix(0.6778241,-0.6778241,-0.6778241,-0.6778241,704.79658,1741.6941)"
       x1="15.474073"
       y1="1030.0046"
       x2="15.474073"
       y2="1027.0267" />
    <linearGradient
       inkscape:collect="always"
       xlink:href="#linearGradient990"
       id="linearGradient1015"
       gradientUnits="userSpaceOnUse"
       gradientTransform="matrix(-0.6778241,0.6778241,-0.6778241,-0.6778241,737.33189,1709.1589)"
       x1="15.767473"
       y1="1029.8597"
       x2="15.767473"
       y2="1027.0593" />
    <linearGradient
       inkscape:collect="always"
       xlink:href="#linearGradient3698-2"
       id="linearGradient975"
       gradientUnits="userSpaceOnUse"
       x1="15.455017"
       y1="24.457449"
       x2="15.455017"
       y2="20.531212" />
    <linearGradient
       id="linearGradient3698-2">
      <stop
         id="stop3700-0"
         offset="0"
         style="stop-color:#b3b3b3;stop-opacity:1" />
      <stop
         id="stop3702-6"
         offset="1"
         style="stop-color:#e6e6e6;stop-opacity:1" />
    </linearGradient>
    <linearGradient
       inkscape:collect="always"
       id="linearGradient4708">
      <stop
         style="stop-color:#7db951;stop-opacity:1"
         offset="0"
         id="stop4710" />
      <stop
         style="stop-color:#aad76b;stop-opacity:1"
         offset="1"
         id="stop4712" />
    </linearGradient>
    <linearGradient
       inkscape:collect="always"
       xlink:href="#linearGradient5160"
       id="linearGradient5156"
       x1="28.1875"
       y1="1043.8622"
       x2="28.1875"
       y2="1013.0497"
       gradientUnits="userSpaceOnUse"
       gradientTransform="matrix(0.83333291,0,0,0.83333291,4.0000101,171.39413)" />
    <linearGradient
       inkscape:collect="always"
       xlink:href="#linearGradient990"
       id="linearGradient3025"
       gradientUnits="userSpaceOnUse"
       gradientTransform="matrix(0.6778241,-0.6778241,-0.6778241,-0.6778241,704.79658,1741.6941)"
       x1="15.474073"
       y1="1030.0046"
       x2="15.474073"
       y2="1027.0267" />
    <linearGradient
       inkscape:collect="always"
       xlink:href="#linearGradient990"
       id="linearGradient3027"
       gradientUnits="userSpaceOnUse"
       gradientTransform="matrix(-0.6778241,0.6778241,-0.6778241,-0.6778241,737.33189,1709.1589)"
       x1="15.767473"
       y1="1029.8597"
       x2="15.767473"
       y2="1027.0593" />
    <linearGradient
       inkscape:collect="always"
       xlink:href="#linearGradient3698-2"
       id="linearGradient3029"
       gradientUnits="userSpaceOnUse"
       x1="15.455017"
       y1="24.457449"
       x2="15.455017"
       y2="20.531212" />
    <linearGradient
       inkscape:collect="always"
       xlink:href="#linearGradient990"
       id="linearGradient3037"
       gradientUnits="userSpaceOnUse"
       gradientTransform="matrix(-0.56525751,0.56525751,-0.56525751,-0.56525751,618.86092,1596.0909)"
       x1="15.767473"
       y1="1029.8597"
       x2="15.767473"
       y2="1027.0593" />
    <linearGradient
       inkscape:collect="always"
       xlink:href="#linearGradient990"
       id="linearGradient3041"
       gradientUnits="userSpaceOnUse"
       gradientTransform="matrix(0.56525751,-0.56525751,-0.56525751,-0.56525751,591.72876,1623.223)"
       x1="15.474073"
       y1="1030.0046"
       x2="15.474073"
       y2="1027.0267" />
    <linearGradient
       inkscape:collect="always"
       xlink:href="#linearGradient3698-2"
       id="linearGradient3047"
       gradientUnits="userSpaceOnUse"
       x1="15.455017"
       y1="24.457449"
       x2="15.455017"
       y2="20.531212" />
  </defs>
  <sodipodi:namedview
     id="base"
     pagecolor="#ffffff"
     bordercolor="#666666"
     borderopacity="1.0"
     inkscape:pageopacity="0.0"
     inkscape:pageshadow="2"
     inkscape:zoom="11.571816"
     inkscape:cx="13.835072"
     inkscape:cy="23.264807"
     inkscape:document-units="px"
     inkscape:current-layer="layer1"
     showgrid="true"
     inkscape:window-width="1301"
     inkscape:window-height="744"
     inkscape:window-x="65"
     inkscape:window-y="24"
     inkscape:window-maximized="1"
     showguides="true"
     inkscape:snap-bbox="true">
    <inkscape:grid
       type="xygrid"
       id="grid3045" />
  </sodipodi:namedview>
  <metadata
     id="metadata7">
    <rdf:RDF>
      <cc:Work
         rdf:about="">
        <dc:format>image/svg+xml</dc:format>
        <dc:type
           rdf:resource="http://purl.org/dc/dcmitype/StillImage" />
        <dc:title />
      </cc:Work>
    </rdf:RDF>
  </metadata>
  <g
     inkscape:label="Capa 1"
     inkscape:groupmode="layer"
     id="layer1"
     transform="translate(0,-1004.3622)">
    <path
       style="color:#000000;fill:#000000;fill-opacity:0.23529412;fill-rule:nonzero;stroke:none;stroke-width:0.80000001;marker:none;visibility:visible;display:inline;overflow:visible;enable-background:accumulate"
       id="path4927"
       inkscape:connector-curvature="0"
       d="m 20.56127,1015.8625 -0.06162,7.1894 c -0.645039,0.4002 -1.207281,0.904 -1.671469,1.4821 l -3.456949,-0.8199 2.438577,2.5838 c -0.268637,0.6912 -0.42383,1.43 -0.447875,2.1886 l -6.195469,3.6483 7.189486,0.061 c 0.400177,0.6451 0.903973,1.2072 1.482168,1.6715 l -0.819939,3.4569 2.583837,-2.4386 c 0.691083,0.2687 1.429897,0.4238 2.188618,0.4479 l 3.648098,6.1956 0.06159,-7.1896 c 0.64504,-0.4001 1.207282,-0.904 1.671471,-1.4821 l 3.456948,0.8199 -2.438577,-2.5838 c 0.268637,-0.6912 0.423828,-1.4299 0.447874,-2.1886 l 6.195489,-3.6482 -7.189505,-0.062 c -0.400179,-0.645 -0.903972,-1.2074 -1.482169,-1.6714 l 0.819939,-3.4571 -2.583837,2.4386 c -0.691081,-0.2686 -1.429896,-0.4239 -2.188616,-0.4479 l -3.648074,-6.1946 z m 2.149196,8.0209 c 2.657912,-0.7123 5.38991,0.8651 6.102114,3.523 0.712182,2.658 -0.865145,5.39 -3.523057,6.1021 -2.657913,0.7122 -5.389911,-0.8651 -6.102095,-3.523 -0.712201,-2.658 0.865126,-5.3899 3.523038,-6.1021 z" />
    <rect
       style="fill:url(#linearGradient876);fill-opacity:1;stroke:none"
       id="rect2991-1"
       width="39.999981"
       height="39.999981"
       x="4.0000105"
       y="-1048.3622"
       ry="0"
       transform="scale(1,-1)" />
    <path
       style="fill:#000000;fill-opacity:0.11764706;fill-rule:nonzero;stroke:none"
       d="m 5.6153223,1008.366 c -0.8977133,0 -1.6145518,0.7168 -1.6145518,1.6145 l 0,0.2865 c 0.081015,0.1273 0.1499262,0.2639 0.2083292,0.3385 0.046549,0.055 -0.1181235,0.1975 -0.1302057,0.2865 -0.00944,0.057 0.031199,0.149 0.026041,0.2343 -0.00892,0.1563 -0.1148911,0.2683 -0.1041646,0.3646 0.00358,0.032 0.044299,0.076 0.078124,0.1041 0.1473887,0.1161 0.3615762,-0.177 0.494782,0 0.1343165,0.1924 -0.1234826,0.267 -0.156247,0.4427 -0.038891,0.2053 0.081198,0.4059 0.078123,0.5989 -7.084e-4,0.095 -0.047466,0.2925 -0.078123,0.3645 -0.060157,0.1422 -0.2422011,0.1483 -0.2604116,0.2865 -0.028608,0.2286 0.3122856,0.3808 0.3385351,0.5729 0.018658,0.1415 -0.1078229,0.3823 -0.156247,0.4947 -0.088683,0.2078 -0.2000677,0.392 -0.338535,0.5729 l 0,7.0048 c 0.1447205,0.07 0.2797487,0.1518 0.3124939,0.2864 0.034774,0.1455 -0.056216,0.2992 -0.026041,0.4167 0.036333,0.1446 0.2729347,0.2513 0.3385351,0.3125 0.1176993,0.1073 0.201351,0.2986 0.3906173,0.2603 0.1417681,-0.1847 -0.1136027,-0.317 -0.1822881,-0.4687 -0.077782,-0.1697 -0.07144,-0.4819 -0.1562469,-0.7551 -0.053466,-0.172 -0.2089351,-0.2885 -0.2604116,-0.4427 -0.053466,-0.1597 -0.046799,-0.336 -0.1041646,-0.4688 -0.056024,-0.137 -0.2422011,-0.3112 -0.2604116,-0.4426 -0.064415,-0.4787 0.4305857,-0.6489 0.5729055,-0.2864 0.085217,0.2182 -0.036824,0.4268 0,0.651 0.029716,0.1836 0.271958,0.359 0.3906173,0.5208 0.1312175,0.1808 0.2143733,0.348 0.338535,0.4687 0.00977,0.1242 0.00977,0.158 0,0.2864 0.1640369,0.1933 0.3572956,0.3647 0.5208232,0.5729 0.220604,0.2815 0.5723622,0.6168 0.5208231,1.0937 -0.016092,0.1509 -0.1628517,0.2861 -0.1562469,0.4427 0.0055,0.14 0.161581,0.3121 0.3124939,0.4166 0.1589786,0.1075 0.3150147,0.2257 0.4426997,0.2864 0.089835,0.048 0.2289872,0.054 0.338535,0.1042 0.1427873,0.057 0.2791729,0.2293 0.4426997,0.3125 0.2023911,0.1035 0.4578527,0.1454 0.7031113,0.2604 0.2362237,0.1076 0.5669256,0.2599 0.7551936,0.2603 0.1892671,0 0.3900299,-0.176 0.5989466,-0.1822 0.4900812,-0.01 0.6979872,0.6115 1.0937282,0.8072 0.09929,0.051 0.236394,0.066 0.364577,0.1042 0.103882,0.012 0.160981,0.06 0.260411,0.1041 0.2115,0.062 0.481969,0.045 0.651029,0.1303 0.254862,0.1097 0.431947,0.6001 0.65103,0.7291 0.01051,0.1199 -0.01698,0.2934 0.02604,0.3906 0.103379,0.1432 0.246102,0.1163 0.416659,0.2083 0.203894,0.1078 0.275384,0.3822 0.468741,0.4687 0.06597,0.042 0.233077,0.01 0.338535,0.052 0.264976,0.08 0.345779,0.4058 0.572905,0.3386 0.148907,-0.048 0.132504,-0.1958 0.156247,-0.3386 0.09851,-0.1055 0.211145,-0.2831 0.364576,-0.2864 0.24834,-0.01 0.274241,0.2531 0.364577,0.4948 0.05091,0.1402 0.173559,0.2463 0.208329,0.3906 0.06117,0.2482 0.05089,0.9981 0,1.1458 -0.06271,0.1816 -0.316755,0.2667 -0.468741,0.4686 -0.07111,0.098 -0.101668,0.2206 -0.156247,0.2865 -0.09745,0.1136 -0.265335,0.1517 -0.338535,0.2604 -0.04146,0.057 -0.06448,0.2031 -0.104165,0.2865 -0.120732,0.2542 -0.283166,0.4236 -0.182287,0.7291 0.04148,0.1176 0.233854,0.2171 0.23437,0.3645 4.55e-4,0.1744 -0.361869,0.3301 -0.390618,0.5209 -0.02176,0.1437 0.111421,0.3883 0.156248,0.5728 0.03378,0.1432 0.308311,0.2456 0.390617,0.3385 0.140259,0.1573 0.236388,0.3744 0.364576,0.5728 0.253356,0.3889 0.456347,0.873 0.703111,1.25 0.129753,0.1973 0.303797,0.3685 0.390617,0.5729 0.04424,0.1031 0.03695,0.2198 0.07813,0.3125 0.142851,0.3225 0.794221,0.6736 1.11977,0.8332 0.152454,0.078 0.302897,0.078 0.4427,0.1563 0.211929,0.1124 0.64823,0.4396 0.755193,0.6249 0.09596,0.1666 0.135869,0.5937 0.182288,0.8594 0.06168,0.3512 0.01108,0.6098 0.02604,0.9895 0.0098,0.2049 0.07583,0.4199 0.07813,0.625 7.1e-4,0.062 -0.02375,0.1 -0.02604,0.1822 -0.0098,0.2492 0.04728,0.5306 0.02604,0.7812 -0.01107,0.1417 -0.03629,0.2504 -0.02604,0.3646 0.01053,0.1174 0.06863,0.2298 0.07813,0.3385 0.01022,0.1126 -0.03547,0.2742 -0.02604,0.3646 0.02741,0.2529 0.210942,0.4461 0.260412,0.677 0.0394,0.1832 0.0498,0.5612 0.02604,0.7812 -0.01147,0.111 -0.06048,0.2375 -0.07813,0.3646 -0.01384,0.1013 0.01447,0.1925 0,0.2864 -0.02022,0.1432 -0.112298,0.2601 -0.104165,0.3906 0.01772,0.2694 0.3222,0.4855 0.364577,0.7551 0.01492,0.096 -0.03017,0.1988 -0.02604,0.2865 0.0063,0.1663 0.06882,0.2882 0.104165,0.4427 0.05398,0.2336 0.01953,0.5694 0.260411,0.677 0.250347,-0.067 -0.06927,-0.3704 0.07813,-0.4947 0.286708,0.096 0.201632,0.5705 0.286454,0.8593 -0.11309,0.061 -0.240803,-0.076 -0.312494,0.052 -0.01088,0.02 -0.02665,0.032 -0.02604,0.052 l 2.968693,0 c 0.004,-0.011 0.02354,-0.013 0.02604,-0.026 0.02432,-0.1139 -0.04675,-0.1482 -0.05208,-0.3387 0.04506,-0.1958 0.271633,-0.2445 0.312494,-0.4425 -0.08343,-0.1457 -0.290989,-0.039 -0.416658,-0.1042 -0.122043,-0.062 -0.173877,-0.2398 -0.156248,-0.3907 0.208477,-0.096 0.605858,0.2203 0.755194,-0.078 0.07424,-0.1417 -0.07679,-0.4857 0.02604,-0.6249 0.07012,-0.098 0.451046,-0.09 0.598947,-0.1041 0.211995,-0.044 0.453246,-0.087 0.572905,-0.1563 0.13071,-0.094 0.335146,-0.3262 0.312494,-0.5729 -0.01087,-0.1126 -0.09254,-0.1566 -0.182288,-0.2604 -0.07523,-0.096 -0.10167,-0.2036 -0.156247,-0.2864 -0.09338,-0.144 -0.245018,-0.1066 -0.286452,-0.3125 0.286691,-0.054 0.730924,0.2267 1.14581,0.1041 0.196796,-0.053 0.455528,-0.4665 0.546865,-0.6509 0.02915,-0.055 0.01984,-0.1637 0.05208,-0.2345 0.03481,-0.068 0.118695,-0.1451 0.130206,-0.1821 0.03073,-0.1067 0.02766,-0.1913 0.05208,-0.2604 0.07268,-0.2029 0.24442,-0.2667 0.364576,-0.4167 0.09082,-0.1103 0.148044,-0.2516 0.23437,-0.3645 0.09392,-0.1159 0.172281,-0.2301 0.234371,-0.3385 0.05912,-0.3649 -0.13749,-0.6182 -0.05208,-0.9375 0.09596,-0.3588 0.589774,-0.5667 0.937481,-0.7291 0.119726,-0.053 0.241105,-0.1499 0.338536,-0.1823 0.240669,-0.094 0.535099,-0.037 0.755192,-0.1041 0.374526,-0.1417 0.414268,-0.5445 0.598948,-0.8854 0.08776,-0.1609 0.191128,-0.3276 0.208329,-0.4427 0.01558,-0.1032 -0.01765,-0.1904 0,-0.3125 0.0176,-0.1136 0.12342,-0.2319 0.156246,-0.3645 0.04347,-0.1719 0.05208,-0.4321 0.05208,-0.625 0,-0.1575 -0.07093,-0.3002 -0.07813,-0.4426 -0.02582,-0.5188 0.198838,-0.5771 0.390617,-0.8594 0.09546,-0.1443 0.115185,-0.2901 0.182288,-0.3905 0.322048,-0.4804 0.873756,-0.7061 0.833317,-1.4323 -0.01358,-0.2401 -0.161373,-0.783 -0.338535,-0.8593 -0.101048,-0.048 -0.322414,-0.022 -0.468741,-0.078 -0.472454,-0.1756 -0.760451,-0.7442 -1.249975,-0.7812 -0.104443,0 -0.194849,0.053 -0.312494,0.052 -0.193783,0 -0.488612,-0.1626 -0.703111,-0.1823 -0.136339,-0.01 -0.308818,0.047 -0.390618,0 -0.125136,-0.056 -0.13289,-0.2697 -0.234371,-0.3386 -0.08132,-0.053 -0.242489,-0.08 -0.364575,-0.1301 -0.196876,-0.068 -0.345785,-0.1646 -0.572906,-0.1823 -0.07009,0 -0.179163,0.059 -0.260411,0.026 -0.125654,-0.01 -0.222469,-0.1885 -0.338536,-0.2604 -0.144873,-0.095 -0.278524,-0.1396 -0.338535,-0.2604 0.131219,-0.4307 -0.224167,-0.5323 -0.312494,-0.7812 -0.04145,-0.1125 -0.01572,-0.2605 -0.05208,-0.3645 -0.05193,-0.1501 -0.203053,-0.2405 -0.364576,-0.3646 -0.289208,-0.2223 -0.550141,-0.4174 -0.963523,-0.4687 -0.181655,-0.012 -0.353386,0.058 -0.572905,0.052 -0.232645,-0.01 -0.529041,-0.2434 -0.703111,-0.4427 -0.169129,-0.1945 -0.243223,-0.35 -0.390618,-0.4427 -0.139755,-0.096 -0.34735,-0.098 -0.442699,-0.1823 -0.04247,-0.047 -0.03281,-0.114 -0.07813,-0.2083 -0.07008,-0.1471 -0.165595,-0.2164 -0.07813,-0.3905 -0.159485,-0.093 -0.164322,0.142 -0.338536,0.1041 -0.155472,-0.2204 -0.298233,-0.3251 -0.651029,-0.2604 -0.161002,0.042 -0.254442,0.2293 -0.4427,0.2344 -0.154457,0 -0.264845,-0.1512 -0.46874,-0.1823 -0.153959,-0.011 -0.333151,0.037 -0.4427,0 -0.170567,-0.043 -0.234689,-0.1822 -0.390617,-0.2865 -0.114104,-0.066 -0.326527,-0.1844 -0.390618,-0.1822 -0.200811,0.01 -0.347896,0.4075 -0.624988,0.2604 -0.135259,-0.1695 0.211589,-0.2573 0.05208,-0.4167 -0.121084,-0.1148 -0.215643,0.069 -0.312494,0.1302 -0.110542,0.067 -0.215947,0.1371 -0.338535,0.1823 -0.274585,0.1033 -0.436451,0.072 -0.651029,0.1823 -0.198799,0.1033 -0.225981,0.2645 -0.338535,0.4687 -0.09235,0.1663 -0.278366,0.4063 -0.416659,0.4166 -0.167551,0.01 -0.342861,-0.2203 -0.494782,-0.2864 -0.457754,-0.1981 -0.687567,0.1502 -1.067687,0.1562 -0.352798,0.01 -0.851021,-0.554 -0.833317,-0.8853 0.01088,-0.2024 0.132121,-0.5048 0.156246,-0.7552 0.01968,-0.199 0.154369,-0.3131 0.156248,-0.4947 0.0044,-0.2426 -0.337274,-0.4404 -0.494782,-0.4688 -0.373442,-0.059 -0.874057,0.1609 -1.302059,0 -0.08191,-0.1401 0.08437,-0.2332 0.130206,-0.3645 0.02587,-0.066 0.02114,-0.1776 0.05208,-0.2604 0.04736,-0.1187 0.174715,-0.2297 0.234369,-0.3646 0.04477,-0.103 0.05888,-0.2632 0.104165,-0.3906 0.05193,-0.1469 0.145173,-0.2366 0.156247,-0.3384 0.01492,-0.1404 -0.05077,-0.2759 -0.156247,-0.3646 -0.332079,0.01 -0.540393,0.034 -0.729152,0.1041 -0.432526,0.1965 -0.349144,0.773 -0.781235,0.9114 -0.149423,0.05 -0.356288,0.064 -0.520823,0.1041 -0.141785,0.012 -0.322412,0.1051 -0.468741,0.1042 -0.1731315,0 -0.4699524,-0.1748 -0.5729054,-0.2864 -0.091847,-0.1013 -0.3133014,-0.5891 -0.338535,-0.677 -0.1701233,-0.5889 0.010192,-1.1269 0.2343704,-1.5364 0.047332,-0.096 0.1209368,-0.1685 0.156247,-0.2604 0.053466,-0.1428 0.036132,-0.3445 0.078123,-0.4947 0.076732,-0.2786 0.4451657,-0.4646 0.7031107,-0.599 0.292216,-0.1526 0.519099,-0.3939 0.859359,-0.4167 0.169553,-0.01 0.435986,0.065 0.598946,0.1042 0.150483,0.042 0.260421,0.1193 0.390618,0.1302 0.369425,0.039 0.453799,-0.2554 0.755194,-0.4166 0.311356,0.048 0.52609,-0.043 0.807275,0 0.191774,0.012 0.31934,0.2231 0.468741,0.2343 0.125656,0.01 0.242986,-0.1157 0.364576,-0.1042 0.118119,0.01 0.319321,0.2726 0.338535,0.4167 0.0238,0.1799 -0.129762,0.349 -0.07813,0.5469 0.188263,0.1913 0.53829,0.2284 0.807277,0.3384 0.175154,-0.1468 0.0238,-0.4159 0,-0.6249 -0.01024,-0.097 0.0099,-0.174 0,-0.2604 -0.01558,-0.1454 -0.0776,-0.2678 -0.07813,-0.3906 -0.0042,-0.5687 0.451768,-0.8425 0.833317,-1.0676 0.165032,-0.1 0.299387,-0.2665 0.442699,-0.3385 0.202388,-0.1022 0.353278,-0.1069 0.520824,-0.2083 0.302827,-0.1697 0.544509,-0.3281 0.781234,-0.5208 0.109487,-0.2574 0.01215,-0.6044 0.02604,-0.8594 0.109531,-0.058 0.196426,0.054 0.312494,0.026 0.182744,-0.047 0.208965,-0.2877 0.312494,-0.3907 0.05959,-0.055 0.237796,-0.1245 0.312493,-0.1822 0.18225,-0.1457 0.231602,-0.3551 0.390618,-0.4167 0.05705,-0.011 0.196622,0.012 0.286452,-0.026 0.118996,-0.043 0.275958,-0.1939 0.468741,-0.2604 0.125137,-0.048 0.420782,-0.055 0.468742,-0.1041 0.05909,-0.056 -0.01926,-0.2221 0,-0.3125 0.09698,-0.4515 0.796128,-0.551 1.197892,-0.703 0.281609,-0.1053 0.575977,-0.294 0.8854,-0.2345 -0.06066,0.2145 -0.361388,0.1341 -0.312494,0.3906 0.06808,0.3619 0.549381,-0.1022 0.67707,-0.1561 0.243824,-0.103 0.669603,-0.1439 0.989564,-0.2605 0.28061,-0.1033 0.78529,-0.2784 0.520823,-0.599 -0.2206,-0.01 -0.328539,0.256 -0.520823,0.3386 -0.132787,0.01 -0.121367,-0.098 -0.234371,-0.1041 -0.106981,-0.01 -0.149872,0.1143 -0.260411,0.1041 -0.109992,-0.01 -0.269245,-0.2096 -0.286453,-0.3386 -0.044,-0.333 0.278435,-0.4544 0.416658,-0.703 -0.09134,-0.302 -0.502838,-0.057 -0.755192,-0.1823 0.02431,-0.18 0.206673,-0.3039 0.416658,-0.3385 0.172052,-0.035 0.548583,-0.016 0.651028,0.052 0.06015,0.052 0.01021,0.1759 0.104165,0.2604 0.101858,0.097 0.232373,0.088 0.364577,0.052 0.04785,-0.2276 -0.297768,-0.1612 -0.260412,-0.3125 0.269994,-0.1755 0.711075,-0.027 1.041647,-0.078 0.190276,-0.039 0.378242,-0.1651 0.546863,-0.2604 0.160433,-0.097 0.376744,-0.2512 0.546865,-0.1042 0.04638,0.1629 -0.143507,0.2053 -0.234371,0.2865 -0.305839,0.2722 -0.621624,0.5955 -0.859357,0.9115 0.145878,0.144 0.404263,0.062 0.651028,0.104 0.09647,0.01 0.210479,0.044 0.312494,0.052 0.119007,0.013 0.245194,0.013 0.338535,0.052 0.168119,0.047 0.224503,0.2083 0.390617,0.2083 0.273503,-4e-4 0.285198,-0.2843 0.130206,-0.4687 0.04887,-0.1892 0.118629,-0.3109 0.05208,-0.4426 -0.123114,-0.247 -0.575725,0.01 -0.598947,-0.3125 -0.01492,-0.1989 0.162178,-0.1897 0.23437,-0.3386 -0.03276,-0.3857 0.323739,-0.4098 0.286453,-0.7551 -0.01558,-0.1473 -0.132891,-0.1545 -0.23437,-0.2865 -0.05245,-0.06 -0.09329,-0.2067 -0.156247,-0.2604 -0.208984,-0.1753 -0.625292,-0.1338 -0.65103,-0.4687 -0.0099,-0.1987 0.05371,-0.3566 0.02604,-0.5729 -0.02585,-0.2017 -0.1624,-0.7691 -0.338535,-0.8072 -0.223105,-0.051 -0.461672,0.3413 -0.729153,0.4687 -0.145378,0.061 -0.348891,0.1386 -0.494781,0.1042 -0.09491,-0.01 -0.297868,-0.1551 -0.312494,-0.3385 -0.01609,-0.2097 0.14343,-0.2187 0.182287,-0.4427 -0.03327,-0.1342 -0.156759,-0.1099 -0.286452,-0.2083 -0.146893,-0.1087 -0.27338,-0.3378 -0.468741,-0.3646 -0.09746,-0.01 -0.215562,0.044 -0.312494,0.052 -0.297311,0.01 -0.555116,-0.179 -0.781234,-0.1302 -0.269997,0.056 -0.259868,0.4672 -0.520824,0.5468 0.03532,0.1958 -0.231158,0.3399 -0.260411,0.4948 -0.01971,0.1044 0.02014,0.2182 0.02604,0.3124 0.06015,0.957 -0.709379,1.4057 -1.640594,1.3802 -0.18267,0.1744 -0.13491,0.5147 -0.23437,0.7551 -0.08365,0.2009 -0.397564,0.4075 -0.598946,0.3907 -0.148907,-0.01 -0.311976,-0.2268 -0.312494,-0.3646 -4.61e-4,-0.1699 0.252143,-0.2734 0.104164,-0.4687 0.02125,-0.1381 0.322804,-0.2049 0.286453,-0.4167 -0.03736,-0.2197 -0.350403,-0.092 -0.624988,-0.1302 -0.199869,-0.012 -0.473889,-0.138 -0.651029,-0.2343 -0.234152,-0.1363 -0.423811,-0.4042 -0.729152,-0.4428 -0.173645,-0.01 -0.33485,0.075 -0.416659,-0.026 -0.08976,-0.106 0.02089,-0.2647 0.02604,-0.3386 -0.0054,-0.1146 -0.224178,-0.1658 -0.23437,-0.2863 -0.0064,-0.093 0.227183,-0.343 0.312494,-0.4167 0.157924,-0.1423 0.422697,-0.2797 0.67707,-0.4166 0.248842,-0.1393 0.540003,-0.2832 0.781234,-0.3645 0.10309,-0.043 0.239598,-0.01 0.338536,-0.052 0.252849,-0.098 0.411802,-0.2693 0.651029,-0.3386 0.124639,-0.044 0.251322,-0.033 0.390617,-0.052 0.124338,-0.027 0.231735,-0.1009 0.338535,-0.1562 l -14.7913797,0 z m 15.1559547,0 c -0.08883,0.077 -0.174538,0.1551 -0.208329,0.2865 0.241737,0.4405 0.653869,-0.1053 0.937481,-0.1042 0.25745,0 0.514549,0.3571 0.67707,0 -0.02127,-0.067 -0.05875,-0.1322 -0.104165,-0.1823 l -1.302057,0 z m 2.447868,0 c 0.126578,0.1125 0.301941,0.058 0.468741,0 l -0.468741,0 z m 0.963523,0 c 0.115232,0.058 0.218973,0.1359 0.286453,0.2084 0.09341,0.1011 0.120743,0.2986 0.23437,0.3646 0.07574,0.048 0.220658,0.038 0.312494,0.052 0.293223,0.096 0.538396,0.2499 0.859358,0.1823 0.11004,-0.1935 -0.231933,-0.2393 -0.104164,-0.3906 0.215077,0.01 0.35528,0.1123 0.520823,0.1823 0.231209,-0.1676 0.398715,-0.1978 0.390617,-0.4687 -0.0014,-0.057 -0.02345,-0.093 -0.05208,-0.1303 l -2.447868,4e-4 z m 19.270456,0.3906 c -0.06935,0.051 -0.137807,0.1201 -0.208329,0.1563 -0.253867,0.1401 -0.602282,0.154 -0.755193,0.4166 -0.04251,0.2261 0.0538,0.4095 0.07813,0.573 0.01662,0.1087 -0.01102,0.2052 0.02604,0.3125 0.06551,0.1871 0.323561,0.3905 0.572905,0.3905 0.319689,0 0.577149,-0.3183 0.833318,-0.3905 l 0,-0.2345 c -3e-6,-0.4903 -0.204948,-0.9272 -0.546868,-1.2238 z m -22.239148,0.1303 c -0.05967,0 -0.116245,0.01 -0.156247,0.052 -0.07829,0.05 -0.08527,0.1128 -0.07813,0.1562 0.04298,0.2124 0.446707,0.055 0.4427,-0.078 -0.0026,-0.06 -0.108928,-0.1 -0.208329,-0.1041 l 10e-7,-0.025 z m -9.088364,0.2343 c 0.0094,0 0.0168,-3e-4 0.02604,0 0.11054,0 0.193041,0.1068 0.286454,0.1823 -0.02893,0.115 -0.172892,0.09 -0.286454,0.1302 -0.191278,0.058 -0.471814,0.2133 -0.781234,0.1563 0.01609,-0.1502 0.247538,-0.1703 0.416658,-0.2605 0.136185,-0.072 0.211022,-0.1981 0.338536,-0.2083 z m 27.864039,1.1458 c -0.102352,0.1393 -0.268129,0.099 -0.4427,0.1562 -0.140836,0.051 -0.406349,0.278 -0.442699,0.3646 -0.06015,0.1456 0.01492,0.3022 0,0.5208 0.114098,0.051 0.195752,0.2839 0.390617,0.3905 0.07369,0.047 0.168688,0.01 0.234371,0.052 0.114089,0.058 0.205514,0.1988 0.182287,0.3125 -0.03375,0.1621 -0.253098,0.1081 -0.364576,0.2344 0.01917,0.2329 -0.176376,0.2611 -0.23437,0.4167 0.03481,0.1011 0.1927,0.1015 0.208329,0.2082 -0.02228,0.1185 -0.257795,0.1548 -0.208329,0.2864 0.214005,0.1662 0.448641,-0.04 0.651028,-0.052 0.447143,-0.053 0.897272,0.056 1.171852,-0.1563 -0.03737,-0.2141 0.231568,-0.3035 0.20833,-0.4946 -0.01772,-0.1456 -0.259545,-0.1598 -0.364576,-0.2605 -0.05603,-0.053 -0.06156,-0.1825 -0.130206,-0.2865 -0.07881,-0.1133 -0.250717,-0.197 -0.338535,-0.3125 -0.117651,-0.1558 -0.338947,-0.3755 -0.338535,-0.4946 7.05e-4,-0.1402 0.152049,-0.1783 0.182288,-0.3646 -0.03478,-0.1698 -0.339901,-0.05 -0.364576,-0.2344 0.01358,-0.1098 0.103131,-0.1397 0.104164,-0.2604 -0.01744,-0.01 -0.02297,-0.025 -0.05208,-0.026 -0.01001,-2e-4 -0.04064,-2e-4 -0.05208,-2e-4 z m 4.010338,0.4947 c -0.302322,0.1457 -0.515215,0.1016 -0.598946,0.3386 -0.105965,0.3005 0.17312,0.5281 0.130205,0.8072 -0.04557,0.2935 -0.643455,0.185 -0.91144,0.2344 -0.200379,0.044 -0.27766,0.2705 -0.4427,0.4687 -0.114608,0.1412 -0.324655,0.2915 -0.494782,0.3645 -0.08314,0.044 -0.184205,0.055 -0.260411,0.1042 -0.11258,0.062 -0.158785,0.2526 -0.286454,0.3385 -0.09189,0.057 -0.423895,0.2321 -0.520823,0.2344 -0.113599,0 -0.230765,-0.1182 -0.312494,-0.1042 -0.120016,0.046 -0.09906,0.2903 -0.23437,0.3385 -0.264976,0.099 -0.714941,-0.238 -0.807276,0.1563 0.1136,0.2286 0.400648,0.1596 0.598947,0.2864 0.124637,0.087 0.383824,0.439 0.416658,0.5729 0.02766,0.1097 -0.0048,0.5568 -0.05208,0.677 -0.123616,0.3189 -0.414315,0.2173 -0.781234,0.2084 -0.10054,0 -0.19361,0 -0.286453,0 -0.618775,-0.048 -1.256828,-0.2595 -1.536428,0.1822 0.02276,0.3383 0.100755,0.5643 0.02604,0.8593 -0.055,0.2167 -0.243906,0.4112 -0.234369,0.599 0.0049,0.1 0.107048,0.1818 0.130205,0.3125 0.01147,0.06 -0.03225,0.2234 0,0.2865 0.101392,0.1967 0.392169,0.037 0.572905,0.052 0.176639,0.039 0.366589,0.271 0.364577,0.4688 -7.1e-4,0.1416 -0.120999,0.3878 -0.20833,0.5208 -0.174566,0.2651 -0.427223,0.2746 -0.67707,0.4166 -0.20841,0.1119 -0.294495,0.3152 -0.416658,0.5208 -0.132285,0.2222 -0.210768,0.3554 -0.156248,0.677 -0.178656,0.3544 -0.437274,0.5609 -0.807275,0.7292 -0.109487,0.051 -0.264137,0.072 -0.364576,0.1562 -0.07983,0.055 -0.12082,0.2109 -0.23437,0.3385 -0.139754,0.156 -0.290879,0.2194 -0.364577,0.3385 -0.05705,0.098 -0.09377,0.2671 -0.156246,0.3906 -0.08521,0.1662 -0.252518,0.2463 -0.364577,0.4167 -0.05142,0.089 -0.09918,0.2353 -0.156247,0.3385 -0.12666,0.2308 -0.335716,0.3966 -0.312494,0.5989 0.02324,0.1958 0.24529,0.246 0.260412,0.4167 0.0098,0.1 -0.05618,0.1549 -0.05208,0.2603 0.0057,0.1543 0.09211,0.2462 0.104164,0.3646 0.03017,0.2965 -0.100214,0.4221 -0.156247,0.625 -0.02691,0.1004 -0.0011,0.2112 -0.02604,0.2864 -0.04887,0.1502 -0.256329,0.2667 -0.260412,0.4427 -0.0014,0.1176 0.119649,0.2409 0.130206,0.4166 0.0064,0.1147 -0.04725,0.254 -0.02604,0.3645 0.04251,0.2175 0.429885,0.4564 0.598947,0.625 0.226114,0.2269 0.527547,0.4128 0.624988,0.651 0.08242,0.2025 0.07695,0.4727 0.23437,0.625 0.11665,0.1089 0.293293,0.1683 0.4427,0.2864 0.13919,0.106 0.293884,0.196 0.4427,0.3125 0.243328,0.1896 0.627955,0.5754 1.015604,0.5469 0.20239,-0.01 0.395356,-0.1675 0.624988,-0.2084 0.236228,-0.047 0.542993,-0.063 0.781235,-0.052 0.182735,0.01 0.383134,0.1135 0.572905,0.1041 0.200295,-0.01 0.423409,-0.1601 0.651029,-0.2604 0.394158,-0.1716 0.986636,-0.3963 1.56247,-0.3124 0.438617,0.057 0.399291,0.5628 0.703112,0.7551 0.352794,0.038 0.658382,-0.1232 0.937481,-0.052 0.210977,0.053 0.448596,0.3799 0.46874,0.5469 0.02074,0.172 -0.07907,0.4145 -0.104164,0.5208 -0.05503,0.2332 -0.06246,0.5296 -0.104165,0.6771 -0.03225,0.1101 -0.132231,0.1715 -0.130205,0.2864 9.16e-4,0.104 0.126935,0.3577 0.23437,0.4947 0.05186,0.067 0.140007,0.1222 0.208329,0.1823 l 0,-14.8429 c -0.05594,-0.027 -0.120593,-0.051 -0.182288,-0.052 -0.142344,0 -0.268961,0.1278 -0.390617,0.1302 -0.175655,0 -0.459558,-0.1128 -0.67707,-0.1041 -0.133307,0.01 -0.266445,0.099 -0.390618,0.1041 -0.348281,0.038 -0.615909,-0.01 -0.885399,0 -0.196289,0.01 -0.54648,0.084 -0.729153,0.1562 -0.09286,0.048 -0.16685,0.1524 -0.286452,0.2084 -0.05398,0.013 -0.136732,0.034 -0.208329,0.052 -0.1136,0.052 -0.230574,0.1798 -0.338536,0.2084 -0.156524,0.047 -0.394455,-0.058 -0.677069,-0.026 -0.202896,0 -0.517813,0.01 -0.520823,-0.2344 -0.0051,-0.3701 0.614233,-0.2217 0.963522,-0.2864 0.131732,-0.015 0.207133,-0.1687 0.364576,-0.2604 0.07526,-0.048 0.163685,-0.028 0.234371,-0.078 0.121045,-0.093 0.320833,-0.2939 0.338535,-0.3907 0.01558,-0.096 -0.06282,-0.2207 -0.05208,-0.2864 0.0141,-0.094 0.09991,-0.1787 0.208329,-0.2865 0.168567,-0.1662 0.366004,-0.3857 0.572906,-0.4947 0.141325,-0.062 0.325514,-0.061 0.390617,-0.1823 0.01492,-0.1204 -0.02911,-0.1959 -0.02604,-0.3125 0.08674,-0.067 0.1617,-0.1429 0.23437,-0.1563 0.215505,-0.05 0.42622,0.1385 0.677071,0.1303 0.108465,0 0.195921,-0.089 0.312493,-0.1563 0.098,-0.058 0.216569,-0.1046 0.312494,-0.1562 0.105411,-0.053 0.210351,-0.1724 0.338536,-0.1823 0.206902,-0.01 0.315211,0.1325 0.416658,0.2864 l 3e-6,-4.9218 z m -5.468643,0.7553 c -0.04931,0.01 -0.08849,0.027 -0.130206,0.052 -0.15194,0.098 -0.194846,0.2422 -0.312494,0.2864 -0.162002,0.057 -0.288329,0 -0.312494,0.1562 -0.01972,0.1155 0.107717,0.1962 0.104165,0.3125 -0.05912,0.1477 -0.231159,0.162 -0.260411,0.3386 0.202387,0.3307 0.686129,0.065 0.937481,-0.026 0.113085,-0.044 0.277454,-0.054 0.338535,-0.1302 0.06961,-0.1051 0.02506,-0.2901 0.07813,-0.4428 0.05807,-0.1662 0.201935,-0.1888 0.182289,-0.3385 -0.01762,-0.1128 -0.242496,-0.2114 -0.468742,-0.2082 -0.0514,2e-4 -0.106939,-0.01 -0.156248,2e-4 z m -24.400564,0.5728 c 0.02327,0 0.05875,-2e-4 0.07813,0 0.290723,2e-4 0.130912,0.5657 -0.07813,0.5729 -0.310933,0.01 -0.250424,-0.5144 0,-0.5729 z m 2.395786,1.7447 c 0.04422,0 0.0897,-0.01 0.130206,0 0.181166,0.05 0.658662,0.586 0.260411,0.7551 -0.03783,0.01 -0.58266,0.062 -0.67707,0.052 -0.138184,-0.013 -0.224772,-0.2098 -0.364576,-0.2344 -0.276086,-0.051 -0.644051,0.3232 -0.833317,0 0.04782,-0.1777 0.257834,-0.1774 0.468741,-0.2344 0.327756,-0.059 0.705208,-0.3315 1.015605,-0.338 z m 0.833317,0.9635 0.05208,0 c 0.09338,0 0.225474,0.099 0.338535,0.1041 0.106932,0 0.168758,-0.033 0.23437,-0.026 0.167055,0.048 0.261157,0.2927 0.104165,0.4167 -0.13071,0.01 -0.188029,-0.06 -0.286452,-0.052 -0.271505,0.049 -0.370007,0.5903 -0.572906,0.5728 -0.19134,-0.01 -0.29854,-0.4862 -0.104165,-0.6249 0.0063,-0.1153 -0.08427,-0.1437 -0.07813,-0.2604 0.05105,-0.033 0.173872,-0.098 0.312494,-0.1042 l 10e-7,-0.027 z m -0.8854,0.052 c 0.07631,0 0.130462,0.01 0.156247,0.052 -0.0268,0.2128 -0.200049,0.2126 -0.364576,0.3125 -0.284189,0.1727 -0.43042,0.4143 -0.520823,0.7812 -0.02637,0.1066 -0.307417,0.3925 -0.442699,0.3645 -0.316959,-0.058 0.084,-0.6404 0.156246,-0.7291 0.07982,-0.1009 0.192108,-0.1996 0.286453,-0.3124 0.09134,-0.108 0.146055,-0.251 0.23437,-0.3125 0.08851,-0.049 0.32685,-0.1238 0.494782,-0.1303 l 0,-0.025 z m 2.109334,0.7291 c 0.09263,0.017 0.211047,0.023 0.312494,0.026 l 0,-0.026 c 0.101361,0 0.166679,0.01 0.208329,0.052 -0.06499,0.2634 -0.62534,0.1976 -0.833317,0.1041 0.01402,-0.1003 0.181743,-0.1329 0.312494,-0.1554 z m 25.077635,0.4688 c -0.150925,3e-4 -0.240184,0.3267 -0.02604,0.3645 0.09184,-0.053 0.179005,-0.1458 0.156247,-0.3125 -0.03807,-0.019 -0.09538,-0.027 -0.130206,-0.026 l 0,-0.026 z m -26.067199,0.026 c 0.06808,0 0.13728,-0.015 0.20833,0.026 -0.184178,0.1547 -0.387164,0.238 -0.703112,0.3385 -0.151937,0.05 -0.416963,0.1099 -0.442699,-0.052 -0.0317,-0.2079 0.225778,-0.1617 0.364575,-0.1823 0.174534,-0.016 0.368329,-0.1231 0.572906,-0.1298 z m 26.041158,0.5469 c -0.07621,0.01 -0.174609,0.039 -0.260412,0.1301 0.0052,0.2232 0.01772,0.3797 -0.02604,0.5729 0.12875,0.2465 0.429112,0 0.494783,-0.1562 0.07066,-0.3678 -0.04088,-0.5575 -0.208329,-0.5462 z m -25.676582,11.4836 c 0.02367,0 0.03278,0 0.05208,0 0.135049,0.01 0.164075,0.2901 0.02604,0.3124 -0.149416,0.012 -0.223108,-0.2448 -0.07813,-0.3118 z"
       id="path34"
       inkscape:connector-curvature="0" />
    <path
       style="fill:#000000;fill-opacity:0.07843137;fill-rule:nonzero;stroke:none"
       d="m 19.416746,1008.3622 c -0.118163,0.072 -0.243116,0.1511 -0.390609,0.2083 -0.09893,0.042 -0.23544,0.01 -0.338527,0.052 -0.241226,0.082 -0.532381,0.2253 -0.781218,0.3646 -0.254367,0.1369 -0.519135,0.2743 -0.677055,0.4167 -0.08531,0.073 -0.318904,0.3237 -0.312488,0.4166 0.0047,0.055 0.07853,0.091 0.130204,0.1303 0.06826,-0.083 0.139629,-0.1715 0.182284,-0.2084 0.15792,-0.1423 0.422688,-0.2797 0.677055,-0.4166 0.248837,-0.1393 0.539992,-0.2832 0.781218,-0.3646 0.103087,-0.043 0.239592,-0.011 0.338527,-0.052 0.252845,-0.098 0.411794,-0.2693 0.651016,-0.3386 0.124637,-0.044 0.251317,-0.033 0.390609,-0.052 0.124336,-0.027 0.231729,-0.1009 0.338527,-0.1563 l -0.989543,-4e-4 z m 1.71868,0 c -0.16053,0.092 -0.30678,0.1632 -0.44269,0.078 -0.05779,0.058 -0.106549,0.1164 -0.130203,0.2084 0.114823,0.2091 0.256973,0.1756 0.416649,0.1041 -0.0072,-0.043 -1.66e-4,-0.1063 0.07813,-0.1562 0.04,-0.042 0.09658,-0.052 0.156244,-0.052 l 0,0.026 c 0.0497,0 0.09087,0.01 0.130203,0.026 0.05302,-0.023 0.108975,-0.053 0.156243,-0.052 0.257445,0 0.514539,0.3571 0.677056,0 -0.02127,-0.067 -0.05875,-0.1322 -0.104163,-0.1823 l -0.02604,0 -0.911422,-6e-4 z m 2.083248,0 c 0.126575,0.1126 0.301935,0.058 0.46873,0 l -0.46873,0 z m 0.963502,0 c 0.11523,0.058 0.218968,0.1359 0.286446,0.2083 0.09341,0.1011 0.120741,0.2987 0.234366,0.3646 0.07574,0.048 0.220652,0.038 0.312487,0.052 0.293217,0.096 0.538385,0.2499 0.85934,0.1823 0.089,-0.1566 -0.115523,-0.2153 -0.130203,-0.3125 -0.259761,0.01 -0.477042,-0.1261 -0.729137,-0.2083 -0.09183,-0.013 -0.236749,0 -0.312487,-0.052 -0.07954,-0.046 -0.135051,-0.1375 -0.182284,-0.2344 l -0.338528,0 z m 2.447816,0 c -0.06538,0.098 -0.187225,0.1508 -0.338527,0.2604 -0.165539,-0.07 -0.305739,-0.1739 -0.520813,-0.1822 -0.11978,0.1418 0.157729,0.1994 0.104163,0.3646 0.156701,0.032 0.281035,0.099 0.41665,0.1562 0.231204,-0.1676 0.398705,-0.1978 0.390609,-0.4687 -0.0014,-0.057 -0.02345,-0.093 -0.05208,-0.1303 z m -14.504612,0.4167 c -0.127511,0.01 -0.202346,0.1359 -0.338528,0.2083 -0.169116,0.09 -0.400558,0.1103 -0.416649,0.2604 0.295058,0.054 0.565002,-0.067 0.755177,-0.1301 0.0067,0 0.01956,0 0.02604,0 0.0025,0 -0.0025,-0.025 0,-0.026 0.113559,-0.041 0.257514,-0.015 0.286446,-0.1301 -0.09341,-0.076 -0.175909,-0.1824 -0.286446,-0.1824 -0.0092,-6e-4 -0.01661,-2e-4 -0.02604,-2e-4 z m 9.088168,0.1041 c -0.05967,0 -0.116242,0.01 -0.156243,0.052 -0.07829,0.05 -0.08527,0.1128 -0.07813,0.1563 0.04298,0.2124 0.446698,0.055 0.44269,-0.078 -0.0026,-0.06 -0.108924,-0.1 -0.208324,-0.1041 l 2e-6,-0.025 z m 21.301208,0.4167 c -0.007,0.01 -0.01967,0.015 -0.02604,0.026 -0.04251,0.2261 0.0538,0.4095 0.07813,0.573 0.01662,0.1087 -0.01102,0.2052 0.02604,0.3125 0.06551,0.1873 0.323554,0.3906 0.572893,0.3906 0.319683,0 0.577136,-0.3185 0.8333,-0.3906 l 0,-0.2345 c 0,-0.035 0.0021,-0.07 0,-0.1041 -0.256164,0.072 -0.513617,0.3906 -0.8333,0.3906 -0.249339,0 -0.507387,-0.2034 -0.572893,-0.3906 -0.03707,-0.1073 -0.0094,-0.2038 -0.02604,-0.3125 -0.01216,-0.081 -0.03028,-0.1656 -0.05208,-0.2602 z m -18.072174,0.2344 c -0.04273,0.057 -0.08617,0.1034 -0.07813,0.2084 0.0047,0.058 0.04458,0.1083 0.07813,0.1562 0.04533,-0.063 0.08249,-0.1355 0.104163,-0.2604 -0.01455,-0.059 -0.06211,-0.083 -0.104163,-0.1042 z m -20.4418685,0.3906 c -5.202e-4,0.017 0,0.035 0,0.052 l 0,0.2865 c 0.050068,0.079 0.089004,0.1398 0.130203,0.2088 0.049567,-0.079 0.112257,-0.1681 0.078122,-0.2084 -0.058402,-0.075 -0.1273115,-0.2112 -0.2083248,-0.3386 z m 17.9419705,0.078 c -0.0033,0.01 -0.02427,0.017 -0.02604,0.026 -0.0099,0.053 -0.0083,0.103 0,0.1563 0.0033,-0.06 0.03011,-0.1175 0.02604,-0.1821 z m 18.072175,0.2604 c 0.01492,0.02 0.02734,0.043 0.05208,0.052 0.0024,-0.013 0.02592,-0.012 0.02604,-0.026 -0.01744,-0.01 -0.02297,-0.025 -0.05208,-0.026 -0.005,-2e-4 -0.0157,0 -0.02604,0 z m -22.915726,0.1042 c 0.0022,0.031 0.0036,0.052 0.02604,0.078 0.0048,0.01 0.02081,-0.01 0.02604,0 -0.0016,-0.034 -0.02467,-0.052 -0.05208,-0.078 z m 9.14025,0.2865 c -0.0093,0.074 -0.0301,0.1529 -0.02604,0.2344 0.0019,0.024 0.0202,0.032 0.02604,0.052 0.01121,-0.091 0.01383,-0.1779 0,-0.286 z m 13.9838,0.052 c -0.02508,0.034 -0.05183,0.056 -0.05208,0.1042 -1.61e-4,0.047 0.03009,0.1149 0.07813,0.1823 0.0417,-0.05 0.08904,-0.1151 0.104163,-0.2083 -0.01279,-0.062 -0.07171,-0.064 -0.130205,-0.078 z m -1.119745,0.1563 c -0.01815,0.1258 0.01247,0.2601 0,0.4427 0.02709,0.025 0.04768,0.05 0.05208,0.078 0.08622,0.089 0.181494,0.2265 0.338528,0.3125 0.07369,0.047 0.168685,0.01 0.234365,0.052 0.03422,0.017 0.05046,0.049 0.07813,0.078 0.04799,-0.021 0.09175,-0.044 0.104162,-0.1042 0.02322,-0.1137 -0.0682,-0.2551 -0.182285,-0.3125 -0.06568,-0.043 -0.160677,-0.01 -0.234365,-0.052 -0.194861,-0.1066 -0.276513,-0.3398 -0.390609,-0.3906 0.0027,-0.039 0.0018,-0.068 -5e-6,-0.1042 z m 4.322739,0.2083 c -0.0058,0.012 -0.02112,0.012 -0.02604,0.026 -0.07147,0.2027 0.01621,0.3723 0.07813,0.5469 0.01472,-0.022 0.04753,-0.048 0.05208,-0.078 0.0266,-0.172 -0.05172,-0.3308 -0.104166,-0.4939 z m -38.9567328,0.1303 c -0.1233425,0 -0.2800697,0.1391 -0.3906089,0.052 -0.033506,0.091 -0.085535,0.1679 -0.078122,0.2344 0.00358,0.033 0.044298,0.077 0.078122,0.105 0.1215931,0.096 0.2871079,-0.058 0.4166495,-0.026 0.07724,-0.091 0.1694551,-0.1816 0.078122,-0.3125 -0.033301,-0.044 -0.063048,-0.053 -0.1041624,-0.052 z m 14.9473018,0.3125 c -0.0735,0.06 -0.145619,0.1132 -0.156243,0.1822 0.147976,0.1953 -0.104623,0.2988 -0.104162,0.4688 1.76e-4,0.047 0.04727,0.1021 0.07813,0.1562 0.05948,-0.087 0.116306,-0.1673 0.02604,-0.2864 0.02125,-0.1381 0.322797,-0.2049 0.286447,-0.4167 -0.01237,-0.072 -0.0688,-0.089 -0.130208,-0.1037 z m 19.634611,0.1041 c -0.02524,0.031 -0.06125,0.056 -0.07813,0.1042 -0.05307,0.1527 -0.0085,0.3376 -0.07813,0.4427 -0.06108,0.076 -0.225446,0.086 -0.338528,0.1302 -0.20151,0.072 -0.545707,0.2561 -0.781218,0.1563 -0.06417,0.052 -0.13898,0.104 -0.156244,0.2083 0.202384,0.3308 0.686116,0.065 0.937462,-0.026 0.113082,-0.044 0.277448,-0.054 0.338528,-0.1302 0.06961,-0.1051 0.02506,-0.2901 0.07813,-0.4428 0.05807,-0.1662 0.20193,-0.1888 0.182284,-0.3385 -0.0063,-0.04 -0.0537,-0.071 -0.104159,-0.104 z m -24.920851,0.1302 c -0.171277,0.04 -0.220729,0.2868 -0.156244,0.4427 0.03603,-0.058 0.09364,-0.09 0.156244,-0.1041 0.02327,0 0.05875,-2e-4 0.07813,0 0.05451,0 0.07868,0.02 0.104162,0.052 0.0723,-0.1675 0.07753,-0.3905 -0.104162,-0.3906 -0.01938,6e-4 -0.05485,8e-4 -0.07813,8e-4 z m 23.722984,0.1562 c -0.04208,0.014 -0.06785,0.038 -0.07813,0.1042 -0.0049,0.029 0.01693,0.053 0.02604,0.078 0.03363,-0.03 0.05922,-0.057 0.07813,-0.1041 8.86e-4,-0.029 -0.0149,-0.052 -0.02604,-0.078 z m -33.4100864,0.1042 c -0.00473,0.013 -0.023583,0.013 -0.02604,0.026 -0.026601,0.1405 0.020213,0.2815 0.052081,0.4167 0.012137,-0.06 0.02574,-0.1162 0.026041,-0.1562 0.00154,-0.096 -0.027305,-0.186 -0.052081,-0.2859 z m 22.7855224,0.1303 c -0.08757,0.158 -0.284029,0.2425 -0.260406,0.5208 -0.07219,0.1489 -0.24929,0.1397 -0.234366,0.3385 0.0058,0.08 0.0305,0.1312 0.07813,0.1562 0.05143,-0.041 0.120148,-0.082 0.156244,-0.1562 -0.03276,-0.3858 0.323732,-0.4099 0.286447,-0.7552 -0.0039,-0.037 -0.01127,-0.08 -0.02604,-0.1037 z m 14.009841,0.2604 c -0.05966,0.073 -0.122845,0.1532 -0.104162,0.2604 -0.274575,0.2121 -0.724695,0.1029 -1.171827,0.1562 -0.144704,0.01 -0.310383,0.1302 -0.468731,0.1302 -0.05303,0.094 -0.226992,0.1414 -0.182284,0.2604 0.214001,0.1662 0.448632,-0.04 0.651015,-0.052 0.447132,-0.053 0.897252,0.056 1.171827,-0.1563 -0.03737,-0.2142 0.231562,-0.3036 0.208325,-0.4947 -0.0064,-0.053 -0.05654,-0.076 -0.104163,-0.1042 z m -1.770761,0.1301 c -0.05374,0.056 -0.127247,0.1045 -0.156243,0.1824 0.0065,0.019 0.03865,0.012 0.05208,0.026 0.05922,-0.048 0.143251,-0.087 0.156244,-0.1562 -0.0048,-0.032 -0.02807,-0.033 -0.05208,-0.052 z m -13.046339,0.026 c -0.140124,-0.014 -0.296327,0.084 -0.416649,0.1562 -0.168618,0.095 -0.35658,0.2212 -0.546853,0.2604 -0.330564,0.052 -0.771635,-0.097 -1.041624,0.078 -0.03377,0.1367 0.241752,0.1016 0.260406,0.2604 0.248522,-0.027 0.54156,0.038 0.781218,0 0.190273,-0.039 0.378235,-0.1652 0.546853,-0.2604 0.09358,-0.057 0.201136,-0.1319 0.312487,-0.1563 0.09086,-0.082 0.280747,-0.1236 0.234365,-0.2864 -0.04253,-0.036 -0.08349,-0.047 -0.130203,-0.052 z m -2.864465,0.4426 c -0.209981,0.034 -0.392342,0.1586 -0.41665,0.3386 0.09078,0.045 0.202826,0.06 0.312487,0.052 0.03697,-0.012 0.06432,-0.046 0.104163,-0.052 0.172048,-0.035 0.54857,-0.016 0.651015,0.052 0.06015,0.052 0.01021,0.1759 0.104162,0.2604 0.101855,0.097 0.232367,0.089 0.364568,0.052 0.04785,-0.2276 -0.297761,-0.1612 -0.260406,-0.3125 0.01575,-0.01 0.03523,-0.018 0.05208,-0.026 -0.05005,-0.01 -0.114097,-0.012 -0.156244,-0.052 -0.09395,-0.084 -0.04402,-0.2088 -0.104162,-0.2604 -0.102447,-0.067 -0.478969,-0.086 -0.651017,-0.051 z m -19.3221231,0.1824 c -0.037839,0.028 -0.071293,0.053 -0.078122,0.1041 -0.02419,0.1933 0.1958802,0.3404 0.2864465,0.4948 0.03534,-0.092 0.06141,-0.1898 0.052081,-0.2604 -0.016675,-0.1214 -0.1651696,-0.2183 -0.260406,-0.3379 z m 12.2911611,0.3125 c -0.31039,0.01 -0.687833,0.2791 -1.015582,0.3385 -0.210903,0.057 -0.420917,0.057 -0.468732,0.2344 0.165241,0.2822 0.471541,0.06 0.729137,0.026 0.01929,0 0.03336,-0.027 0.05208,-0.026 0.01497,-0.01 0.03707,0.01 0.05208,0 0.228091,-0.098 0.447656,-0.2302 0.651015,-0.2344 0.04422,0 0.08969,-0.01 0.130203,0 0.09511,0.026 0.249669,0.1938 0.338527,0.3646 0.227596,-0.2077 -0.173669,-0.6576 -0.338527,-0.7031 -0.04051,-0.01 -0.08599,6e-4 -0.130208,6e-4 z m 10.806848,0.1562 c -0.01168,0.038 -0.04068,0.06 -0.05208,0.1042 0.03358,0.04 0.06116,0.085 0.07813,0.1302 0.01971,-0.079 0.01056,-0.1613 -0.02604,-0.2337 z m -3.593602,0.078 c -0.14027,0.143 -0.291422,0.26 -0.260406,0.4948 0.0043,0.032 0.03302,0.067 0.05208,0.1042 0.08717,-0.1687 0.26675,-0.2929 0.364568,-0.4688 -0.02283,-0.076 -0.07484,-0.1087 -0.130203,-0.1302 -0.0078,-0 -0.01782,0 -0.02604,4e-4 z m 15.650399,0.1302 c -0.05931,0.025 -0.10712,0.084 -0.130204,0.1823 0.113598,0.2286 0.40064,0.1596 0.598934,0.2865 0.124634,0.087 0.383816,0.439 0.41665,0.573 0.01058,-0.1406 0.01383,-0.2838 0,-0.3386 -0.03283,-0.1339 -0.292016,-0.4855 -0.41665,-0.573 -0.123934,-0.079 -0.287393,-0.083 -0.416649,-0.1302 -0.01551,-0.01 -0.03753,0.01 -0.05208,4e-4 z m -13.723395,0.052 c -0.06782,0.079 -0.148893,0.1553 -0.208325,0.2343 0.145876,0.1442 0.404257,0.062 0.651016,0.1042 0.09647,0.01 0.210473,0.044 0.312486,0.052 0.119005,0.013 0.245189,0.013 0.338528,0.052 0.168116,0.047 0.224498,0.2084 0.390609,0.2084 0.241588,-3e-4 0.257651,-0.2119 0.156243,-0.3906 -0.03713,0.029 -0.08787,0.052 -0.156243,0.052 -0.166111,0 -0.222493,-0.1616 -0.390609,-0.2083 -0.09334,-0.038 -0.219523,-0.039 -0.338528,-0.052 -0.102013,-0.01 -0.216015,-0.044 -0.312486,-0.052 -0.153391,-0.025 -0.310134,0.016 -0.442691,0 z m -8.30695,0.5469 0,0.026 c -0.13862,0.01 -0.26144,0.072 -0.312487,0.1042 -0.0062,0.1167 0.08446,0.145 0.07813,0.2604 -0.01869,0.013 -0.03877,0.033 -0.05208,0.052 0.0594,-0.034 0.164558,-0.072 0.286448,-0.078 l 0,-0.026 0.05208,0 c 0.09337,0 0.22547,0.099 0.338528,0.1042 0.02347,0 0.03244,0 0.05208,0 0.06984,-0.01 0.131076,-0.032 0.182285,-0.026 0.04177,0.012 0.0743,0.047 0.104162,0.078 0.156989,-0.1241 0.06289,-0.3684 -0.104162,-0.4167 -0.06561,-0.01 -0.127436,0.026 -0.234365,0.026 -0.113059,-0.01 -0.245154,-0.1041 -0.338529,-0.1041 l -0.05209,0 z m 7.395529,0.1042 c -0.08638,0.083 -0.208258,0.1569 -0.338528,0.2083 -0.01093,0.01 -0.01528,0.022 -0.02604,0.026 -0.04061,0.036 -0.08213,0.083 -0.130203,0.1042 -0.06639,0 -0.102335,-0.026 -0.130203,-0.052 -0.299495,0.088 -0.64564,0.1441 -0.859339,0.2344 -0.09577,0.041 -0.402825,0.306 -0.572894,0.2865 -0.07665,0.039 -0.128609,0.08 -0.104162,0.2083 0.06808,0.3619 0.549369,-0.1023 0.677056,-0.1563 0.243819,-0.103 0.669588,-0.1438 0.989542,-0.2604 0.280604,-0.1034 0.785273,-0.2784 0.520812,-0.599 -0.0035,0 -0.02237,-0 -0.02604,7e-4 z m -8.593397,0.026 c -0.07937,0.023 -0.142878,0.056 -0.182284,0.078 -0.08831,0.062 -0.143027,0.2046 -0.234366,0.3125 -0.09434,0.1129 -0.206624,0.2116 -0.286446,0.3125 -0.06321,0.077 -0.368965,0.5254 -0.234365,0.6771 0.07048,-0.1557 0.20007,-0.2964 0.234365,-0.3385 0.07982,-0.1009 0.192104,-0.1997 0.286446,-0.3125 0.09134,-0.1079 0.146053,-0.251 0.234366,-0.3125 0.04815,-0.027 0.132994,-0.052 0.234365,-0.078 0.02016,-0.014 0.03035,-0.039 0.05208,-0.052 0.147504,-0.09 0.288825,-0.1061 0.338528,-0.2604 -0.162496,0.014 -0.313754,0.032 -0.364568,0.026 -0.02764,-0 -0.05378,-0.037 -0.07812,-0.051 z m 6.510149,0.2604 c -0.226524,0.033 -0.439813,0.1554 -0.651014,0.2343 -0.401756,0.1522 -1.10089,0.2517 -1.197868,0.7032 -0.01926,0.09 0.05909,0.2567 0,0.3125 0.117008,-0.4302 0.803646,-0.5278 1.197868,-0.6771 0.184284,-0.069 0.377037,-0.161 0.572893,-0.2083 -0.01584,-0.2148 0.254747,-0.1604 0.312486,-0.3646 -0.07735,-0.014 -0.158857,-0.01 -0.234365,0 z m -1.848882,1.25 c -0.04796,0.049 -0.343596,0.056 -0.468731,0.1042 -0.192779,0.067 -0.349737,0.2178 -0.46873,0.2604 -0.08983,0.038 -0.229399,0.015 -0.286447,0.026 -0.159013,0.062 -0.208363,0.271 -0.390609,0.4167 -0.0747,0.058 -0.252898,0.1272 -0.312487,0.1823 -0.103527,0.103 -0.129747,0.3439 -0.312487,0.3906 -0.116065,0.028 -0.202959,-0.084 -0.312488,-0.026 -0.0053,0.098 0.0166,0.2241 0.02604,0.3385 0.09844,-0.032 0.179086,0.053 0.286447,0.026 0.182739,-0.047 0.20896,-0.2877 0.312487,-0.3907 0.05959,-0.055 0.237791,-0.1245 0.312487,-0.1822 0.182246,-0.1457 0.231596,-0.3552 0.390609,-0.4167 0.05705,-0.011 0.196618,0.012 0.286447,-0.026 0.118993,-0.043 0.27595,-0.1939 0.46873,-0.2604 0.125134,-0.048 0.420772,-0.055 0.468731,-0.1042 0.05909,-0.056 -0.01926,-0.2221 0,-0.3125 0.0018,-0.01 -0.0022,-0.017 -10e-7,-0.025 z m -3.775886,-1.1458 c -0.04152,0.1 -0.03891,0.2293 0,0.3385 0.0167,-0.04 0.04448,-0.08 0.07813,-0.1042 0.0058,-0.1043 -0.06981,-0.1394 -0.07813,-0.2332 z m 26.535368,0.1041 c -0.128182,0.01 -0.23312,0.1298 -0.338528,0.1823 -0.09592,0.052 -0.214488,0.098 -0.312487,0.1562 -0.11657,0.067 -0.204025,0.1563 -0.312487,0.1563 -0.250845,0.01 -0.461556,-0.1802 -0.677056,-0.1302 -0.07267,0.013 -0.147627,0.09 -0.234365,0.1563 -0.0031,0.1166 0.04096,0.1921 0.02604,0.3125 0.07502,-0.061 0.143632,-0.1184 0.208325,-0.1303 0.2155,-0.05 0.426211,0.1385 0.677056,0.1303 0.108462,0 0.195917,-0.089 0.312487,-0.1563 0.098,-0.058 0.216564,-0.1046 0.312487,-0.1562 0.105408,-0.053 0.210346,-0.1724 0.338528,-0.1824 0.206898,-0.01 0.315205,0.1325 0.41665,0.2865 l 0,-0.3385 c -0.101446,-0.1529 -0.209753,-0.2937 -0.416651,-0.2854 z m -24.998973,0.1823 c -0.130749,0.022 -0.298472,0.056 -0.312488,0.1562 0.207973,0.093 0.768311,0.1593 0.8333,-0.1041 -0.04165,-0.043 -0.106966,-0.052 -0.208325,-0.052 l 0,0.026 c -0.101445,-0 -0.219861,-0.01 -0.312487,-0.025 z m -0.989543,0.4948 c -0.12929,0.01 -0.246032,0.042 -0.364568,0.078 -0.06902,0.021 -0.144098,0.046 -0.208325,0.052 -0.138795,0.021 -0.396267,-0.026 -0.364568,0.1824 0.02573,0.1615 0.290756,0.102 0.442689,0.052 0.315942,-0.1005 0.518923,-0.1839 0.703097,-0.3386 -0.07105,-0.039 -0.140244,-0.024 -0.208325,-0.024 z m 24.113593,0.1823 c -0.07684,0.094 -0.235023,0.1 -0.364568,0.1562 -0.206898,0.109 -0.40433,0.3286 -0.572893,0.4949 -0.108421,0.1078 -0.194226,0.1924 -0.208325,0.2864 -0.0099,0.06 0.0535,0.1686 0.05208,0.2604 0.03712,-0.063 0.08131,-0.1338 0.156244,-0.2083 0.168563,-0.1663 0.365996,-0.3858 0.572893,-0.4948 0.141323,-0.062 0.325507,-0.061 0.390609,-0.1823 0.01491,-0.1193 -0.02911,-0.1949 -0.02604,-0.3114 z m -4.062333,0.026 c -0.0074,0.01 -0.01905,0.015 -0.02604,0.026 0.0094,0.1398 0.03849,0.2505 0.05208,0.3646 0.01129,-0.1252 -0.0095,-0.2595 -0.02604,-0.3891 z m 5.989337,0.1302 c -0.08796,0.028 -0.138484,0.137 -0.104163,0.2344 0.03572,-0.013 0.07339,-0.023 0.104163,-0.026 0.04856,0 0.06808,0.022 0.104162,0.052 0.044,-0.054 0.06596,-0.1327 0.05208,-0.2343 -0.03807,-0.019 -0.09538,-0.027 -0.130204,-0.026 -0.0074,0 -0.01903,-10e-4 -0.02604,0 z m 0.208325,0.7552 c -0.06207,0.1477 -0.330405,0.3658 -0.468731,0.1823 -6.98e-4,0.1003 -0.0022,0.2071 -0.02604,0.3125 0.128747,0.2465 0.429103,0 0.494772,-0.1563 0.02766,-0.1426 0.02061,-0.2491 10e-7,-0.3371 z m -3.281115,0.3906 c -0.06289,0.1043 -0.188525,0.2373 -0.286447,0.3125 -0.07068,0.05 -0.15911,0.03 -0.234366,0.078 -0.15744,0.092 -0.232839,0.2454 -0.364568,0.2605 -0.349281,0.065 -0.968585,-0.084 -0.963502,0.2864 9.17e-4,0.075 0.02978,0.1476 0.07813,0.1823 0.171205,-0.1472 0.608866,-0.079 0.885381,-0.1302 0.131729,-0.015 0.207128,-0.1688 0.364568,-0.2605 0.07526,-0.048 0.16368,-0.028 0.234365,-0.078 0.121043,-0.093 0.320826,-0.2938 0.338528,-0.3907 0.01408,-0.085 -0.04782,-0.19 -0.05208,-0.259 z m -3.098831,0.026 c -0.02861,0.064 -0.05526,0.1197 -0.05208,0.1823 0.0049,0.1 0.107047,0.1818 0.130204,0.3125 0.01147,0.06 -0.03225,0.2234 0,0.2865 0.10139,0.1968 0.39216,0.037 0.572893,0.052 0.122085,0.027 0.245461,0.1501 0.312487,0.2864 0.0179,-0.056 0.05187,-0.1134 0.05208,-0.1563 0.002,-0.1977 -0.187933,-0.4296 -0.364568,-0.4687 -0.180732,-0.015 -0.471503,0.1447 -0.572893,-0.052 -0.03225,-0.063 0.01147,-0.2264 0,-0.2864 -0.01158,-0.064 -0.04908,-0.1054 -0.07812,-0.1547 z m -19.16588,0.8855 c -0.0074,0.063 -0.02793,0.1255 -0.05208,0.1822 -0.23672,0.1928 -0.478397,0.3512 -0.781218,0.5209 -0.167542,0.1014 -0.318429,0.1061 -0.520811,0.2084 -0.14331,0.072 -0.277663,0.2385 -0.442691,0.3385 -0.381541,0.2252 -0.837465,0.4989 -0.833299,1.0677 1.75e-4,0.041 0.0162,0.088 0.02604,0.1303 0.08969,-0.4366 0.47341,-0.6625 0.807258,-0.8595 0.165028,-0.1 0.29938,-0.2665 0.44269,-0.3385 0.202383,-0.1022 0.35327,-0.1069 0.520812,-0.2083 0.302821,-0.1698 0.544498,-0.3281 0.781218,-0.5208 0.06497,-0.1512 0.06631,-0.3415 0.05208,-0.5194 z m -13.9317191,1.6927 c -0.1741007,0 -0.352746,0.1695 -0.3124872,0.4688 0.00291,0.021 0.01577,0.055 0.026041,0.078 0.1072391,-0.2593 0.435821,-0.3088 0.5468525,-0.026 0.014395,0.037 0.021709,0.067 0.026041,0.1041 0.01896,-0.1441 0.030672,-0.2975 -0.026041,-0.4426 -0.053369,-0.1348 -0.1559456,-0.1833 -0.2604059,-0.1812 z m 8.6715191,0.4688 c -0.301388,0.1612 -0.38576,0.4558 -0.755178,0.4166 -0.130193,-0.011 -0.240129,-0.089 -0.390609,-0.1301 -0.162956,-0.039 -0.429384,-0.1125 -0.598933,-0.1042 -0.340253,0.023 -0.56713,0.2641 -0.85934,0.4167 -0.25794,0.1344 -0.6263659,0.3203 -0.7030962,0.5989 -0.04199,0.1502 -0.024657,0.3521 -0.078122,0.4948 -0.035309,0.092 -0.1089122,0.1649 -0.1562436,0.2604 -0.1856838,0.3393 -0.3351679,0.7786 -0.2864465,1.2501 0.028947,-0.3427 0.1445023,-0.6522 0.2864465,-0.9115 0.047332,-0.096 0.1209343,-0.1685 0.1562436,-0.2605 0.053464,-0.1427 0.036132,-0.3445 0.078122,-0.4947 0.07673,-0.2786 0.4451562,-0.4646 0.7030962,-0.599 0.29221,-0.1526 0.519087,-0.394 0.85934,-0.4167 0.169549,-0.01 0.435977,0.065 0.598933,0.1042 0.15048,0.042 0.260416,0.1193 0.390609,0.1302 0.369418,0.039 0.45379,-0.2555 0.755178,-0.4167 0.311349,0.048 0.526079,-0.043 0.807258,0 0.191769,0.012 0.319333,0.2231 0.468731,0.2344 0.125653,0.01 0.24298,-0.1158 0.364568,-0.1042 0.09449,0.01 0.221322,0.1708 0.286447,0.3125 0.02669,-0.082 0.06296,-0.1522 0.05208,-0.2343 -0.01922,-0.1442 -0.220413,-0.4084 -0.338528,-0.4167 -0.121589,-0.012 -0.238915,0.1125 -0.364568,0.1042 -0.149399,-0.012 -0.276962,-0.2228 -0.468731,-0.2344 -0.281181,-0.042 -0.495911,0.05 -0.80726,0 z m -8.3850726,0.4166 c -0.013582,0.091 -0.041636,0.1915 -0.02604,0.2865 0.029715,0.1837 0.2719521,0.3589 0.3906089,0.5209 0.1312146,0.1808 0.2143687,0.348 0.3385278,0.4687 0.00977,0.1242 0.00977,0.1581 0,0.2864 0.1640332,0.1934 0.3572878,0.3649 0.5208119,0.573 0.1738841,0.2219 0.4196525,0.4756 0.4947714,0.8074 0.00498,-0.018 0.024163,-0.034 0.026041,-0.052 0.051538,-0.4768 -0.3002127,-0.8123 -0.5208119,-1.0938 -0.1635242,-0.2083 -0.3567787,-0.3797 -0.520812,-0.573 0.00977,-0.1283 0.00977,-0.1622 0,-0.2865 -0.124159,-0.1207 -0.2073131,-0.2879 -0.3385277,-0.4687 -0.1063822,-0.1439 -0.3017307,-0.3045 -0.3645687,-0.4676 z m 10.3120766,0.7032 c -0.03173,0.097 -0.05408,0.205 -0.02604,0.3125 0.188258,0.1913 0.538278,0.2284 0.807259,0.3385 0.12103,-0.1015 0.09304,-0.2586 0.05208,-0.4167 -0.01315,0.027 -0.02503,0.056 -0.05208,0.078 -0.256854,-0.1038 -0.58799,-0.1413 -0.781217,-0.3111 z m -10.9630915,0.1838 0,0.3386 c 0.1363683,0.066 0.2708014,0.1392 0.3124872,0.2604 0.013727,-0.096 0.024689,-0.2092 0,-0.3125 -0.032745,-0.1346 -0.1677698,-0.2165 -0.3124872,-0.2865 z m 0.3124872,0.7553 c -0.013553,0.1006 -0.046785,0.2057 -0.026041,0.2865 0.036332,0.1446 0.2729288,0.2513 0.3385278,0.3125 0.1176968,0.1073 0.2013467,0.2987 0.3906089,0.2604 0.1019618,-0.1329 0.013573,-0.2332 -0.078122,-0.3385 -0.1366128,-0.02 -0.2124449,-0.1693 -0.3124872,-0.2604 -0.057399,-0.054 -0.2419649,-0.1423 -0.3124873,-0.2605 z m 29.9987673,1.4323 c -0.03447,0.065 -0.06011,0.1384 -0.05208,0.2083 0.01743,0.1469 0.138406,0.2172 0.208325,0.3125 0.0072,-0.087 0.0609,-0.144 0.05208,-0.2343 -0.01134,-0.128 -0.135362,-0.1817 -0.208325,-0.2865 z m -21.509533,0.2344 c -0.03423,0.062 -0.09905,0.1201 -0.130203,0.2084 -0.04529,0.1274 -0.0594,0.2875 -0.104162,0.3905 -0.05965,0.1349 -0.187009,0.2458 -0.234366,0.3646 -0.03094,0.082 -0.02621,0.1946 -0.05208,0.2604 -0.04583,0.1313 -0.212108,0.2245 -0.130203,0.3646 0.0334,0.013 0.06997,0.017 0.104163,0.026 0.01,-0.017 0.0197,-0.034 0.02604,-0.052 0.02587,-0.066 0.02114,-0.1778 0.05208,-0.2604 0.04736,-0.1189 0.174712,-0.2298 0.234365,-0.3646 0.04477,-0.1031 0.05888,-0.2633 0.104163,-0.3907 0.05193,-0.147 0.145169,-0.2366 0.156243,-0.3385 0.0075,-0.07 0.0017,-0.146 -0.02604,-0.2085 z m -6.5101489,0.1823 c -0.026541,0.056 -0.054613,0.1222 -0.052082,0.1823 0.0055,0.14 0.1615776,0.3122 0.3124872,0.4167 0.1589752,0.1075 0.3150079,0.2257 0.4426902,0.2864 0.089833,0.047 0.2289822,0.054 0.3385278,0.1042 0.142784,0.057 0.2791668,0.2293 0.4426901,0.3124 0.2023867,0.1035 0.4578428,0.1455 0.7030961,0.2605 0.2362186,0.1076 0.5669134,0.26 0.7551773,0.2604 0.1892631,0 0.3900215,-0.176 0.5989338,-0.1823 0.4900711,-0.01 0.6979721,0.6116 1.0937051,0.8074 0.09928,0.051 0.236389,0.066 0.364568,0.1041 0.10388,0.012 0.160979,0.06 0.260406,0.1042 0.211496,0.062 0.481959,0.045 0.651015,0.1302 0.254856,0.1099 0.431937,0.6002 0.651015,0.7292 0.01051,0.1199 -0.01698,0.2934 0.02604,0.3906 0.103376,0.1432 0.246097,0.1163 0.416649,0.2083 0.20389,0.1079 0.275378,0.3823 0.468731,0.4688 0.06597,0.042 0.233072,0.011 0.338528,0.052 0.26497,0.08 0.345771,0.4058 0.572893,0.3386 0.148903,-0.048 0.132501,-0.1958 0.156244,-0.3386 0.09851,-0.1055 0.211139,-0.283 0.364568,-0.2864 0.248335,-0.01 0.274234,0.2531 0.364568,0.4948 0.05091,0.1402 0.173556,0.2463 0.208325,0.3906 0.02255,0.091 0.02137,0.2701 0.02604,0.4427 0.01223,-0.2822 0.01378,-0.6197 -0.02604,-0.7812 -0.03477,-0.1444 -0.157418,-0.2504 -0.208325,-0.3906 -0.04517,-0.1209 -0.08139,-0.2441 -0.130203,-0.3386 -0.209044,-0.056 -0.388025,-0.016 -0.546852,0.052 -0.02038,0.024 -0.03296,0.057 -0.05208,0.078 -0.02374,0.1427 -0.0073,0.2902 -0.156244,0.3385 -0.227121,0.068 -0.307923,-0.2585 -0.572893,-0.3385 -0.105455,-0.042 -0.272564,-0.01 -0.338527,-0.052 -0.193353,-0.086 -0.264842,-0.3608 -0.468731,-0.4687 -0.170553,-0.092 -0.313274,-0.065 -0.416649,-0.2084 -0.04303,-0.097 -0.01553,-0.2707 -0.02604,-0.3906 -0.219078,-0.129 -0.396159,-0.6194 -0.651015,-0.7292 -0.169057,-0.085 -0.43952,-0.068 -0.651015,-0.1302 -0.09943,-0.044 -0.156526,-0.092 -0.260406,-0.1041 -0.12818,-0.038 -0.265285,-0.053 -0.364569,-0.1043 -0.395732,-0.1957 -0.603634,-0.8156 -1.0937046,-0.8073 -0.2089123,0.01 -0.4096707,0.1823 -0.5989338,0.1823 -0.1882639,-4e-4 -0.5189587,-0.1527 -0.7551773,-0.2604 -0.2452533,-0.115 -0.5007094,-0.1569 -0.7030961,-0.2604 -0.1635233,-0.083 -0.2999061,-0.2558 -0.4426901,-0.3125 -0.1095456,-0.05 -0.2486948,-0.057 -0.3385278,-0.1042 -0.1276823,-0.061 -0.283715,-0.179 -0.4426902,-0.2865 -0.1026779,-0.071 -0.2019977,-0.1578 -0.260403,-0.2601 z m 28.2019659,0.2865 c -0.01594,0.056 -0.02888,0.1092 -0.02604,0.1822 0.0048,0.1274 0.05063,0.2203 0.07813,0.3125 0.02146,-0.076 0.03736,-0.1752 0.02604,-0.2864 -0.0076,-0.075 -0.05025,-0.1322 -0.07813,-0.2083 z m -20.598112,1.7447 c -0.04192,0.1023 -0.09104,0.206 -0.104162,0.3387 -0.02412,0.2505 -0.145369,0.5527 -0.156244,0.7551 -0.0024,0.046 0.03651,0.1036 0.05208,0.1563 0.03994,-0.1816 0.08616,-0.3859 0.104162,-0.5729 0.01968,-0.199 0.154365,-0.3131 0.156244,-0.4948 0.0011,-0.061 -0.01821,-0.1293 -0.05208,-0.1824 z m 20.285626,0 c -0.0311,0.047 -0.05078,0.1 -0.05208,0.1563 -0.0012,0.098 0.07006,0.2056 0.104163,0.3386 0.0076,-0.088 0.03063,-0.1786 0.02604,-0.2604 -0.0053,-0.088 -0.04671,-0.167 -0.07812,-0.2345 z m 0.07813,0.6251 c -0.0067,0.1037 -0.04428,0.2174 -0.02604,0.3125 0.04251,0.2175 0.429876,0.4564 0.598934,0.625 0.22611,0.2268 0.527535,0.4127 0.624974,0.6511 0.08242,0.2025 0.07695,0.4726 0.234365,0.625 0.116648,0.1088 0.293287,0.1682 0.44269,0.2864 0.139188,0.106 0.293878,0.1959 0.442691,0.3125 0.243323,0.1897 0.627942,0.5755 1.015583,0.5469 0.202385,-0.01 0.395347,-0.1675 0.624974,-0.2083 0.236222,-0.048 0.542981,-0.063 0.781218,-0.052 0.182731,0.01 0.383126,0.1135 0.572893,0.1042 0.20029,-0.01 0.4234,-0.1602 0.651015,-0.2604 0.394149,-0.1717 0.986614,-0.3965 1.562436,-0.3125 0.438607,0.058 0.399283,0.5628 0.703096,0.7551 0.352788,0.038 0.658369,-0.1236 0.937461,-0.052 0.184602,0.046 0.380831,0.2935 0.442691,0.4688 0.02208,-0.088 0.03547,-0.1822 0.02604,-0.2604 -0.02014,-0.1671 -0.257759,-0.4944 -0.468732,-0.5469 -0.279092,-0.072 -0.584673,0.09 -0.937461,0.052 -0.303813,-0.1923 -0.264489,-0.6977 -0.703096,-0.7552 -0.575822,-0.084 -1.168287,0.1408 -1.562436,0.3125 -0.227615,0.1002 -0.450725,0.2512 -0.651015,0.2604 -0.189767,0.01 -0.390162,-0.095 -0.572893,-0.1042 -0.238237,-0.012 -0.544996,0.01 -0.781218,0.052 -0.229627,0.041 -0.422589,0.1992 -0.624975,0.2083 -0.38764,0.028 -0.772259,-0.3571 -1.015582,-0.5468 -0.148813,-0.1166 -0.303504,-0.2065 -0.442691,-0.3125 -0.149403,-0.1182 -0.326042,-0.1777 -0.44269,-0.2865 -0.157418,-0.1523 -0.151952,-0.4225 -0.234365,-0.625 -0.09744,-0.2383 -0.398864,-0.4242 -0.624974,-0.651 -0.161774,-0.1613 -0.504776,-0.3893 -0.572897,-0.599 z m -16.249333,0.3907 c -0.01951,0.04 -0.01453,0.079 0.02604,0.1301 0.03463,0.018 0.07323,0.023 0.104162,0.026 0.008,-0.033 -0.01221,-0.064 -0.05208,-0.1042 -0.03027,-0.028 -0.05072,-0.054 -0.07812,-0.052 z m -0.05208,0.5208 c -0.14498,0.068 -0.07129,0.3247 0.07813,0.3125 0.138031,-0.023 0.109005,-0.3042 -0.02604,-0.3125 l -0.05208,0 z m 25.649988,4.2969 c -0.02878,0.043 -0.05309,0.099 -0.05208,0.1563 9.17e-4,0.104 0.126933,0.3577 0.234366,0.4948 0.05186,0.067 0.140003,0.1222 0.208325,0.1822 l 0,-0.3385 c -0.06833,-0.06 -0.156469,-0.1156 -0.208325,-0.1823 -0.06625,-0.084 -0.135595,-0.2017 -0.182284,-0.3125 z m -29.087347,0.2083 c -0.02974,0.099 -0.04337,0.2073 0,0.3386 0.02247,0.063 0.0997,0.1187 0.156244,0.1823 0.04636,-0.051 0.07826,-0.1039 0.07813,-0.1563 -5.21e-4,-0.1474 -0.192889,-0.2469 -0.23437,-0.3646 z m -0.104162,1.172 c -0.01148,0.022 -0.0487,0.03 -0.05208,0.052 -0.02176,0.1439 0.111418,0.3884 0.156244,0.5729 0.03378,0.1432 0.308305,0.2456 0.390609,0.3386 0.140256,0.1573 0.236383,0.3744 0.364568,0.5729 0.253351,0.3889 0.456337,0.873 0.703096,1.25 0.12975,0.1974 0.30379,0.3685 0.390609,0.573 0.04424,0.1031 0.03695,0.2198 0.07813,0.3125 0.142848,0.3225 0.794204,0.6737 1.119745,0.8333 0.152452,0.078 0.302892,0.078 0.442691,0.1562 0.211925,0.1125 0.648216,0.4398 0.755177,0.6251 0.09596,0.1666 0.135866,0.5938 0.182284,0.8594 0.03083,0.1756 0.02911,0.3388 0.02604,0.4948 0.0011,-0.2921 0.02589,-0.5376 -0.02604,-0.8333 -0.04642,-0.2657 -0.08633,-0.6928 -0.182284,-0.8594 -0.106961,-0.1854 -0.543252,-0.5126 -0.755177,-0.6251 -0.139799,-0.078 -0.290239,-0.078 -0.442691,-0.1562 -0.325541,-0.1596 -0.976897,-0.5108 -1.119745,-0.8333 -0.04118,-0.093 -0.03388,-0.2094 -0.07813,-0.3125 -0.08682,-0.2045 -0.260859,-0.3756 -0.390609,-0.573 -0.246759,-0.377 -0.449745,-0.8611 -0.703096,-1.25 -0.128185,-0.1985 -0.224312,-0.4157 -0.364568,-0.573 -0.08231,-0.093 -0.356836,-0.1954 -0.390609,-0.3385 -0.02241,-0.092 -0.06799,-0.1839 -0.104163,-0.286 z m 16.900347,1.1198 c -0.09303,0.5184 -0.555924,0.7321 -0.833298,1.1458 -0.0671,0.1005 -0.08683,0.2464 -0.182285,0.3907 -0.191774,0.2823 -0.416424,0.3405 -0.390609,0.8593 0.0018,0.034 0.01892,0.07 0.02604,0.1042 0.04736,-0.3004 0.208834,-0.3958 0.364568,-0.625 0.09545,-0.1443 0.115184,-0.2901 0.182285,-0.3906 0.322041,-0.4804 0.873737,-0.7061 0.833299,-1.4323 -6.87e-4,-0.012 0.0014,-0.039 -2e-6,-0.052 z m -1.32807,3.1771 c -0.0078,0.1011 -0.03211,0.2075 -0.05208,0.2865 -0.03282,0.1326 -0.138644,0.2509 -0.156243,0.3646 -0.01765,0.1222 0.01558,0.2094 0,0.3125 0.02599,-0.1074 0.125398,-0.2139 0.156243,-0.3385 0.04347,-0.172 0.05208,-0.4322 0.05208,-0.6251 z m -0.208325,0.9896 c -0.02489,0.114 -0.125375,0.2646 -0.208325,0.4167 -0.184675,0.3409 -0.224416,0.7438 -0.598934,0.8854 -0.220088,0.067 -0.514512,0.01 -0.755177,0.1042 -0.09743,0.032 -0.218805,0.129 -0.338528,0.1823 -0.3477,0.1624 -0.841506,0.3704 -0.937461,0.7292 -0.03203,0.1197 -0.01893,0.2279 0,0.3385 0.09596,-0.3588 0.589761,-0.5668 0.937461,-0.7292 0.119723,-0.053 0.2411,-0.1499 0.338528,-0.1822 0.240665,-0.094 0.535089,-0.037 0.755177,-0.1042 0.374518,-0.1417 0.414259,-0.5445 0.598934,-0.8854 0.08776,-0.1609 0.191125,-0.3277 0.208325,-0.4428 0.01558,-0.1031 -0.01765,-0.1903 -1e-6,-0.3125 z m -10.806848,1.5105 c -0.0031,0.11 -0.0051,0.2086 0,0.3385 0.0069,0.145 0.03133,0.2947 0.05208,0.4427 0.0065,-0.062 0.02665,-0.1032 0.02604,-0.1562 -0.0023,-0.2051 -0.06837,-0.4201 -0.07813,-0.625 z m 0.07813,1.0416 c -0.007,0.031 -0.02471,0.057 -0.02604,0.1042 -0.0049,0.1247 0.01566,0.2578 0.02604,0.3907 0.0072,-0.161 0.01094,-0.3286 -5e-6,-0.4949 z m 7.942382,0.7032 c -0.06209,0.1084 -0.140445,0.2226 -0.234365,0.3385 -0.08632,0.113 -0.143543,0.2543 -0.234365,0.3647 -0.120154,0.1499 -0.291897,0.2138 -0.364569,0.4166 -0.02443,0.069 -0.02135,0.1537 -0.05208,0.2604 -0.01151,0.037 -0.0954,0.1149 -0.130203,0.1824 -0.03224,0.071 -0.02293,0.1793 -0.05208,0.2343 -0.09134,0.1845 -0.350061,0.5978 -0.546853,0.6511 -0.414877,0.1226 -0.8591,-0.1583 -1.145786,-0.1042 0.04143,0.2059 0.193068,0.1686 0.286447,0.3125 0.0097,0.015 0.01766,0.036 0.02604,0.052 0.250674,0.057 0.550863,0.1615 0.833299,0.078 0.196792,-0.053 0.455518,-0.4665 0.546852,-0.651 0.02915,-0.055 0.01984,-0.1637 0.05208,-0.2344 0.03481,-0.067 0.118692,-0.1452 0.130203,-0.1822 0.03073,-0.1068 0.02766,-0.1914 0.05208,-0.2605 0.07268,-0.2028 0.244415,-0.2667 0.364568,-0.4166 0.09082,-0.1104 0.148042,-0.2517 0.234366,-0.3646 0.09392,-0.1159 0.172277,-0.2302 0.234365,-0.3387 0.01964,-0.1211 0.0171,-0.2352 -6e-6,-0.3383 z m -7.942382,0.2864 c -0.01081,0.09 -0.03337,0.1788 -0.02604,0.2605 0.0081,0.09 0.03139,0.176 0.05208,0.2604 0.0093,-0.087 0.03336,-0.1798 0.02604,-0.2604 -0.0073,-0.083 -0.03099,-0.1725 -0.05209,-0.2605 z m 0.05208,0.7033 c -0.009,0.093 -0.03278,0.1956 -0.02604,0.2604 0.02741,0.2529 0.210937,0.4461 0.260406,0.6771 0.0197,0.091 0.02148,0.2196 0.02604,0.3645 0.01528,-0.2233 0.0094,-0.5382 -0.02604,-0.7031 -0.04411,-0.2059 -0.182782,-0.384 -0.234371,-0.5989 z m 5.70289,2.4479 c -0.06354,0.1488 -0.173268,0.2757 -0.260406,0.3385 -0.119656,0.069 -0.360903,0.1121 -0.572893,0.1562 -0.147897,0.014 -0.52882,0.01 -0.598934,0.1042 -0.06632,0.09 -0.01633,0.2657 0,0.4167 0.0057,-0.027 -0.01483,-0.058 0,-0.078 0.07012,-0.098 0.451037,-0.09 0.598934,-0.1042 0.21199,-0.044 0.453237,-0.087 0.572893,-0.1562 0.130707,-0.094 0.335139,-0.3263 0.312487,-0.5729 -0.0045,-0.047 -0.02779,-0.072 -0.05209,-0.104 z m -5.572688,0.1822 c -0.01557,0.047 -0.05508,0.082 -0.05208,0.1303 0.01642,0.2496 0.266391,0.4599 0.338527,0.7031 -0.0041,-0.088 0.04096,-0.19 0.02604,-0.2865 -0.03179,-0.2022 -0.217398,-0.3598 -0.312493,-0.5469 z m 0.312487,0.9376 c -0.0026,0.08 -0.02942,0.1625 -0.02604,0.2344 0.0063,0.1663 0.06882,0.2882 0.104162,0.4427 0.05398,0.2337 0.01953,0.5695 0.260407,0.6771 0.187755,-0.051 0.06806,-0.2238 0.05208,-0.3646 -0.01388,0.01 -0.03017,0.02 -0.05208,0.026 -0.240874,-0.1076 -0.206425,-0.4434 -0.260407,-0.6771 -0.02745,-0.1197 -0.05695,-0.2216 -0.07813,-0.3383 z m 3.801928,0.1303 c -0.156156,0.2676 -0.551048,-0.042 -0.755177,0.052 -0.01322,0.1132 0.01288,0.2554 0.07812,0.3385 0.2178,-0.018 0.543723,0.1885 0.677056,-0.078 0.03711,-0.07 0.01561,-0.1908 -10e-6,-0.3118 z m -3.385278,0.3905 c -0.09261,0.078 0.0072,0.2221 0.02604,0.3386 0.176851,0.075 0.187549,0.3164 0.208325,0.5469 0.02031,0 0.03229,-0.016 0.05208,-0.026 -0.08483,-0.2889 2.44e-4,-0.7638 -0.286456,-0.8596 z m 3.020709,0.4167 c -0.0573,0.053 -0.110829,0.098 -0.130203,0.1823 0.0037,0.1318 0.0128,0.2 0.02604,0.2605 0.07712,-0.1359 0.251575,-0.1955 0.286446,-0.3646 -0.04172,-0.073 -0.104265,-0.078 -0.182291,-0.078 z m -2.760303,0.5469 c 0.0082,0.081 0.0061,0.1664 0.02604,0.2344 -0.113087,0.061 -0.240797,-0.076 -0.312488,0.052 -0.01088,0.02 -0.02665,0.032 -0.02604,0.052 l 2.968628,0 c 0.004,-0.011 0.02354,-0.013 0.02604,-0.026 0.02282,-0.1069 -0.04006,-0.151 -0.05208,-0.3125 l -2.630106,6e-4 z"
       id="path5091"
       inkscape:connector-curvature="0" />
    <path
       style="color:#000000;fill:url(#linearGradient5156);fill-opacity:1;fill-rule:nonzero;stroke:none;stroke-width:0.80000001;marker:none;visibility:visible;display:inline;overflow:visible;enable-background:accumulate"
       id="path4588"
       inkscape:connector-curvature="0"
       d="m 20.56127,1015.529 -0.06162,7.1895 c -0.645039,0.4002 -1.207281,0.904 -1.671469,1.4821 l -3.456949,-0.8199 2.438577,2.5838 c -0.268637,0.6912 -0.42383,1.4299 -0.447875,2.1886 l -6.195469,3.6483 7.189486,0.061 c 0.400177,0.6451 0.903973,1.2072 1.482168,1.6715 l -0.819939,3.4569 2.583837,-2.4386 c 0.691083,0.2687 1.429897,0.4238 2.188618,0.4479 l 3.648098,6.1955 0.06159,-7.1895 c 0.64504,-0.4001 1.207282,-0.904 1.671471,-1.4821 l 3.456948,0.8199 -2.438577,-2.5838 c 0.268637,-0.6912 0.423828,-1.43 0.447874,-2.1886 l 6.195489,-3.6482 -7.189505,-0.062 c -0.400179,-0.645 -0.903972,-1.2074 -1.482169,-1.6715 l 0.819939,-3.457 -2.583837,2.4385 c -0.691081,-0.2686 -1.429896,-0.4238 -2.188616,-0.4479 l -3.648074,-6.1946 z m 2.149196,8.021 c 2.657912,-0.7123 5.38991,0.8651 6.102114,3.523 0.712182,2.6579 -0.865145,5.3899 -3.523057,6.1021 -2.657913,0.7122 -5.389911,-0.8652 -6.102095,-3.523 -0.712201,-2.658 0.865126,-5.3899 3.523038,-6.1021 z" />
    <path
       style="fill:#e13463;fill-opacity:1;fill-rule:evenodd;stroke:none"
       id="path5923-0-5"
       inkscape:connector-curvature="0"
       d="m 25.436063,1029.7984 -2.896324,-2.8965 12.269614,-9.373 -9.37329,12.2695 z" />
    <path
       style="fill:#f2f2f2;fill-opacity:1;fill-rule:evenodd;stroke:none"
       id="path5926-8-6"
       inkscape:connector-curvature="0"
       d="m 25.436063,1029.7984 -2.896324,-2.8965 -9.373235,12.2698 12.269559,-9.3733 z" />
    <path
       id="path1005"
       d="m 25.436268,1029.7981 -12.258993,9.3974 10.763328,-10.8281 z"
       style="opacity:0.46700003;fill:url(#linearGradient3041);fill-opacity:1;stroke:none"
       inkscape:connector-curvature="0"
       sodipodi:nodetypes="cccc" />
    <path
       inkscape:connector-curvature="0"
       style="opacity:0.46700003;fill:url(#linearGradient3037);fill-opacity:1;stroke:none"
       d="m 25.436063,1029.7984 9.397433,-12.2591 -10.893099,10.8283 z"
       id="path1011"
       sodipodi:nodetypes="cccc" />
    <path
       transform="matrix(0.83865208,0,0,0.83865208,11.057239,1009.4848)"
       d="m 17.412505,22.499962 a 1.9887378,1.9887378 0 1 1 -3.977476,0 1.9887378,1.9887378 0 1 1 3.977476,0 z"
       sodipodi:ry="1.9887378"
       sodipodi:rx="1.9887378"
       sodipodi:cy="22.499962"
       sodipodi:cx="15.423767"
       id="path963"
       style="fill:url(#linearGradient3047);fill-opacity:1;stroke:none"
       sodipodi:type="arc" />
    <path
       sodipodi:type="arc"
       style="fill:#1a1a1a;fill-opacity:0.54811719;stroke:none"
       id="path1066"
       sodipodi:cx="19.091883"
       sodipodi:cy="88.658638"
       sodipodi:rx="37.476658"
       sodipodi:ry="37.476658"
       d="m 56.568541,88.658638 a 37.476658,37.476658 0 1 1 -74.953316,0 37.476658,37.476658 0 1 1 74.953316,0 z"
       transform="matrix(0.01249055,0,0,0.01249055,23.753945,1027.247)" />
    <path
       style="opacity:0.35;fill:#000000;fill-opacity:1;stroke:none"
       d="M 4.0000039,1048.3619 44,1048.3622 c -19.999997,-1 -19.999997,-1 -39.9999975,0 z"
       id="path3800"
       inkscape:connector-curvature="0"
       sodipodi:nodetypes="cccc" />
    <path
       sodipodi:nodetypes="cccc"
       inkscape:connector-curvature="0"
       id="path3804"
       d="M 4.0000075,1008.3621 44,1008.3619 c -19.999993,1 -19.999993,1 -39.999994,0 z"
       style="opacity:0.75;fill:#ffffff;fill-opacity:1;stroke:none" />
  </g>
</svg>
