<?xml version="1.0" encoding="UTF-8" standalone="no"?>
<svg
   xmlns:dc="http://purl.org/dc/elements/1.1/"
   xmlns:cc="http://creativecommons.org/ns#"
   xmlns:rdf="http://www.w3.org/1999/02/22-rdf-syntax-ns#"
   xmlns:svg="http://www.w3.org/2000/svg"
   xmlns="http://www.w3.org/2000/svg"
   xmlns:xlink="http://www.w3.org/1999/xlink"
   xmlns:sodipodi="http://sodipodi.sourceforge.net/DTD/sodipodi-0.dtd"
   xmlns:inkscape="http://www.inkscape.org/namespaces/inkscape"
   width="48"
   viewBox="0 0 13.546667 13.546667"
   height="48"
   id="svg2"
   version="1.1"
   inkscape:version="0.48.5 r10040"
   sodipodi:docname="ms-excel.svg">
  <metadata
     id="metadata20">
    <rdf:RDF>
      <cc:Work
         rdf:about="">
        <dc:format>image/svg+xml</dc:format>
        <dc:type
           rdf:resource="http://purl.org/dc/dcmitype/StillImage" />
        <dc:title />
      </cc:Work>
    </rdf:RDF>
  </metadata>
  <sodipodi:namedview
     pagecolor="#ffffff"
     bordercolor="#666666"
     borderopacity="1"
     objecttolerance="10"
     gridtolerance="10"
     guidetolerance="10"
     inkscape:pageopacity="0"
     inkscape:pageshadow="2"
     inkscape:window-width="1301"
     inkscape:window-height="744"
     id="namedview18"
     showgrid="true"
     inkscape:showpageshadow="false"
     borderlayer="true"
     inkscape:zoom="5.6568543"
     inkscape:cx="17.226894"
     inkscape:cy="39.255889"
     inkscape:window-x="65"
     inkscape:window-y="24"
     inkscape:window-maximized="1"
     inkscape:current-layer="svg2">
    <inkscape:grid
       type="xygrid"
       id="grid2999" />
  </sodipodi:namedview>
  <defs
     id="defs4">
    <linearGradient
       id="linearGradient4294"
       inkscape:collect="always">
      <stop
         id="stop4296"
         offset="0"
         style="stop-color:#d0f3c5;stop-opacity:1" />
      <stop
         id="stop4298"
         offset="1"
         style="stop-color:#f9fdf7;stop-opacity:1" />
    </linearGradient>
    <linearGradient
       gradientTransform="matrix(0.23518527,0,0,0.23518527,-89.31665,116.41623)"
       inkscape:collect="always"
       xlink:href="#linearGradient947"
       id="linearGradient4644"
       x1="384.57144"
       y1="-517.79797"
       x2="433.16791"
       y2="-517.79797"
       gradientUnits="userSpaceOnUse" />
    <linearGradient
       gradientUnits="userSpaceOnUse"
       y2="6.4911122"
       x2="11.288887"
       y1="6.4911122"
       x1="2.2408831"
       id="linearGradient4400"
       xlink:href="#linearGradient4294"
       inkscape:collect="always"
       gradientTransform="matrix(0.8333336,0,0,0.8333336,1.1288888,1.1288859)" />
    <linearGradient
       inkscape:collect="always"
       id="linearGradient947">
      <stop
         style="stop-color:#3a931d;stop-opacity:1"
         offset="0"
         id="stop949" />
      <stop
         style="stop-color:#57ae30;stop-opacity:1"
         offset="1"
         id="stop951" />
    </linearGradient>
  </defs>
  <rect
     style="fill:url(#linearGradient4644);fill-opacity:1;stroke:none"
     id="rect2991-1-7"
     width="11.288893"
     height="11.288893"
     x="1.1288887"
     y="-12.417778"
     ry="0"
     transform="scale(1,-1)" />
  <path
     style="fill:url(#linearGradient4400);fill-opacity:1;fill-rule:evenodd;stroke:none"
     d="m 7.3594597,3.1513882 -4.3054523,0.7597586 0,5.7335596 4.3054523,0.7505716 0,-7.2438898 z m 0.1800635,0.833254 c -0.00904,0 -0.016077,0.00704 -0.016077,0.016077 l 0,0.4267326 c 0,-0.00255 0.00207,-0.00459 0.00459,-0.00459 l 1.1203454,0 c 0.00252,0 0.00459,0.00205 0.00459,0.00459 l 0,0.7491937 c 0,0.00255 -0.00216,0.00459 -0.00459,0.00459 l -1.1203454,0 c -0.00253,0 -0.00459,-0.00204 -0.00459,-0.00459 l 0,0.2319699 c 0,-0.00254 0.00207,-0.00459 0.00459,-0.00459 l 1.1203454,0 c 0.00252,0 0.00459,0.00205 0.00459,0.00459 l 0,0.7491934 c 0,0.00255 -0.00216,0.00459 -0.00459,0.00459 l -1.1203454,0 c -0.00253,0 -0.00459,-0.00205 -0.00459,-0.00459 l 0,0.2319701 c 0,-0.00255 0.00207,-0.00459 0.00459,-0.00459 l 1.1203454,0 c 0.00252,0 0.00459,0.00205 0.00459,0.00459 l 0,0.7491937 c 0,0.00255 -0.00216,0.00459 -0.00459,0.00459 l -1.1203454,0 c -0.00253,0 -0.00459,-0.00205 -0.00459,-0.00459 l 0,0.2319698 c 0,-0.00255 0.00207,-0.00459 0.00459,-0.00459 l 1.1203454,0 c 0.00252,0 0.00459,0.00205 0.00459,0.00459 l 0,0.7487342 c 0,0.00255 -0.00216,0.00459 -0.00459,0.00459 l -1.1203454,0 c -0.00253,0 -0.00459,-0.00206 -0.00459,-0.00459 l 0,0.2324294 c 0,-0.00255 0.00207,-0.00459 0.00459,-0.00459 l 1.1203454,0 c 0.00252,0 0.00459,0.00206 0.00459,0.00459 l 0,0.7487341 c 0,0.00257 -0.00216,0.00459 -0.00459,0.00459 l -1.1203454,0 c -0.00253,0 -0.00459,-0.00204 -0.00459,-0.00459 l 0,0.4267329 c 0,0.00903 0.00701,0.016536 0.016077,0.016536 l 2.9701328,0 c 0.009,0 0.01654,-0.00747 0.01654,-0.016536 l 0,-5.5268538 c 0,-0.00904 -0.0075,-0.016077 -0.01654,-0.016077 l -2.9701328,0 z m 1.3114335,0.4382163 1.2099183,0 c 0.0026,0 0.0046,0.00205 0.0046,0.00459 l 0,0.7491937 c 0,0.00255 -0.002,0.00459 -0.0046,0.00459 l -1.2099183,0 c -0.00252,0 -0.00459,-0.00204 -0.00459,-0.00459 l 0,-0.7491937 c 0,-0.00255 0.00207,-0.00459 0.00459,-0.00459 z m 0,0.9811635 1.2099183,0 c 0.0026,0 0.0046,0.00204 0.0046,0.00459 l 0,0.7491934 c 0,0.00255 -0.002,0.00459 -0.0046,0.00459 l -1.2099183,0 c -0.00252,0 -0.00459,-0.00205 -0.00459,-0.00459 l 0,-0.7491934 c 0,-0.00255 0.00207,-0.00459 0.00459,-0.00459 z m -4.571873,0.1327513 0.3555341,0 0.5048214,0.8690829 c 0.033337,0.057478 0.062904,0.1152363 0.088195,0.1727142 l 0.00689,0 c 0.036785,-0.075871 0.068873,-0.1359211 0.096463,-0.1796044 l 0.5259514,-0.8621927 0.3330258,0 -0.777673,1.2259949 0.7877787,1.2471249 -0.3532372,0 -0.56913,-0.9467124 C 5.2604592,7.0344418 5.2414355,6.9934149 5.2207437,6.9405354 l -0.00689,0 c -0.011496,0.02644 -0.031207,0.067467 -0.058796,0.1226453 l -0.5861259,0.9467124 -0.3550745,0 L 5.0411393,6.766443 4.2790837,5.5367733 z m 4.571873,0.8484123 1.2099183,0 c 0.0026,0 0.0046,0.00205 0.0046,0.00459 l 0,0.7491937 c 0,0.00255 -0.002,0.00459 -0.0046,0.00459 l -1.2099183,0 c -0.00252,0 -0.00459,-0.00205 -0.00459,-0.00459 l 0,-0.7491937 c 0,-0.00255 0.00207,-0.00459 0.00459,-0.00459 z m 0,0.9811635 1.2099183,0 c 0.0026,0 0.0046,0.00205 0.0046,0.00459 l 0,0.7487342 c 0,0.00255 -0.002,0.00459 -0.0046,0.00459 l -1.2099183,0 c -0.00252,0 -0.00459,-0.00206 -0.00459,-0.00459 l 0,-0.7487342 c 0,-0.00255 0.00207,-0.00459 0.00459,-0.00459 z m 0,0.9811635 1.2099183,0 c 0.0026,0 0.0046,0.00205 0.0046,0.00459 l 0,0.7487341 c 0,0.00257 -0.002,0.00459 -0.0046,0.00459 l -1.2099183,0 c -0.00252,0 -0.00459,-0.00208 -0.00459,-0.00459 l 0,-0.7487341 c 0,-0.00255 0.00207,-0.00459 0.00459,-0.00459 z"
     id="path4281"
     inkscape:connector-curvature="0" />
  <path
     style="opacity:0.5;fill:#000000;fill-opacity:1;stroke:none"
     d="m 1.1288886,12.417778 0,0 c 5.6444446,-0.282222 5.6444446,-0.282222 11.2888894,0 z"
     id="path3257"
     inkscape:connector-curvature="0"
     sodipodi:nodetypes="cccc" />
  <path
     sodipodi:nodetypes="cccc"
     inkscape:connector-curvature="0"
     id="path4027"
     d="m 1.1288886,1.1288893 0,0 c 5.6444446,0.2822222 5.6444446,0.2822222 11.2888894,0 z"
     style="opacity:0.75;fill:#ffffff;fill-opacity:1;stroke:none" />
</svg>
