<?xml version="1.0" encoding="UTF-8" standalone="no"?>
<svg
   xmlns:dc="http://purl.org/dc/elements/1.1/"
   xmlns:cc="http://creativecommons.org/ns#"
   xmlns:rdf="http://www.w3.org/1999/02/22-rdf-syntax-ns#"
   xmlns:svg="http://www.w3.org/2000/svg"
   xmlns="http://www.w3.org/2000/svg"
   xmlns:xlink="http://www.w3.org/1999/xlink"
   xmlns:sodipodi="http://sodipodi.sourceforge.net/DTD/sodipodi-0.dtd"
   xmlns:inkscape="http://www.inkscape.org/namespaces/inkscape"
   width="48"
   viewBox="0 0 13.546667 13.546667"
   height="48"
   id="svg2"
   version="1.1"
   inkscape:version="0.48.5 r10040"
   sodipodi:docname="ms-powerpoint.svg">
  <metadata
     id="metadata94">
    <rdf:RDF>
      <cc:Work
         rdf:about="">
        <dc:format>image/svg+xml</dc:format>
        <dc:type
           rdf:resource="http://purl.org/dc/dcmitype/StillImage" />
        <dc:title />
      </cc:Work>
    </rdf:RDF>
  </metadata>
  <sodipodi:namedview
     pagecolor="#ffffff"
     bordercolor="#666666"
     borderopacity="1"
     objecttolerance="10"
     gridtolerance="10"
     guidetolerance="10"
     inkscape:pageopacity="0"
     inkscape:pageshadow="2"
     inkscape:window-width="1301"
     inkscape:window-height="744"
     id="namedview92"
     showgrid="true"
     inkscape:showpageshadow="false"
     borderlayer="true"
     inkscape:zoom="4.6787414"
     inkscape:cx="51.970002"
     inkscape:cy="4.0412034"
     inkscape:window-x="65"
     inkscape:window-y="24"
     inkscape:window-maximized="1"
     inkscape:current-layer="svg2">
    <inkscape:grid
       type="xygrid"
       id="grid2999" />
  </sodipodi:namedview>
  <defs
     id="defs4">
    <linearGradient
       id="linearGradient4423"
       inkscape:collect="always">
      <stop
         id="stop4425"
         offset="0"
         style="stop-color:#f9d3bf;stop-opacity:1" />
      <stop
         id="stop4427"
         offset="1"
         style="stop-color:#fffbf5;stop-opacity:1" />
    </linearGradient>
    <linearGradient
       gradientUnits="userSpaceOnUse"
       y2="-517.79797"
       x2="432.71967"
       y1="-517.79797"
       x1="384.57144"
       id="linearGradient4644"
       xlink:href="#linearGradient4100"
       inkscape:collect="always"
       gradientTransform="matrix(0.23518511,0,0,0.23518511,-89.316586,116.41615)" />
    <linearGradient
       inkscape:collect="always"
       id="linearGradient4100">
      <stop
         style="stop-color:#eb641e;stop-opacity:1"
         offset="0"
         id="stop4102" />
      <stop
         style="stop-color:#f5a41d;stop-opacity:1"
         offset="1"
         id="stop4104" />
    </linearGradient>
    <linearGradient
       inkscape:collect="always"
       xlink:href="#linearGradient4423"
       id="linearGradient4391"
       gradientUnits="userSpaceOnUse"
       gradientTransform="matrix(0.83333305,0,0,0.83333305,1.1288926,1.1288897)"
       x1="2.257776"
       y1="6.20889"
       x2="11.288887"
       y2="6.20889" />
  </defs>
  <rect
     style="fill:url(#linearGradient4644);fill-opacity:1;stroke:none"
     id="rect2991-1-7"
     width="11.288885"
     height="11.288885"
     x="1.1288924"
     y="-12.417774"
     ry="0"
     transform="scale(1,-1)" />
  <path
     style="fill:url(#linearGradient4391);fill-opacity:1;fill-rule:evenodd;stroke:none"
     d="m 7.3594593,3.1513906 -4.3054494,0.7597582 0,5.7335557 4.3054494,0.7505715 z m 0.1639863,0.8332535 0,0.016077 0,0.4267323 0,0.3509402 C 7.7393844,4.5924925 8.0148038,4.4901475 8.2997402,4.4899247 l 0,1.1915433 1.1910842,0 C 9.4908197,6.1632976 9.2005667,6.5976796 8.7554113,6.7820607 8.3401036,6.953362 7.8637465,6.8764558 7.5234456,6.5831639 l 0,0.5558088 0,0.2319696 0,0.2999528 2.4676064,0 0,0.2342665 -2.4676064,0 0,0.2145144 0,0.2324292 0,0.1129989 2.4676064,0 0,0.2342665 -2.4676064,0 0,0.4014683 0,0.4267326 0,0.016536 0.016077,0 1.188328,0 0.5773978,0 1.2044053,0 c 0.009,0 0.01654,-0.0075 0.01654,-0.016536 l 0,-5.5268501 c 0,-0.00904 -0.0075,-0.016077 -0.01654,-0.016077 l -1.2044053,0 -0.5773978,0 -1.188328,0 z M 8.4839381,4.5060018 C 9.0038298,4.5879908 9.4083054,5.00143 9.4788812,5.5229937 l -0.9949431,0 z m -4.1372165,0.8671458 0.7728291,0 c 0.3006886,0 0.5331465,0.073241 0.6978713,0.2196629 0.1660322,0.1464222 0.2493256,0.3530091 0.2493256,0.6197064 0,0.2666978 -0.092248,0.4850265 -0.2765831,0.6549811 C 5.6071369,7.0374522 5.3594522,7.1224354 5.0469977,7.1224354 l -0.3707816,0 0,1.0630409 -0.3294945,0 z m 0.3294945,0.2982286 0,1.1532311 0.3451276,0 c 0.2274772,0 0.4009281,-0.051847 0.519896,-0.1551269 0.1202755,-0.1045873 0.1803804,-0.2517661 0.1803804,-0.4413305 0,-0.3712846 -0.2197231,-0.5567737 -0.6589894,-0.5567737 z"
     id="path4381"
     inkscape:connector-curvature="0"
     sodipodi:nodetypes="ccccccccccccccccccccccccccccccccsssscccccccccscscsccccccscssc" />
  <path
     style="opacity:0.5;fill:#000000;fill-opacity:1;stroke:none"
     d="m 1.1288895,12.417778 0,0 c 5.6444446,-0.282222 5.6444446,-0.282222 11.2888885,0 z"
     id="path3257"
     inkscape:connector-curvature="0"
     sodipodi:nodetypes="cccc" />
  <path
     sodipodi:nodetypes="cccc"
     inkscape:connector-curvature="0"
     id="path4027"
     d="m 1.1288895,1.1288894 0,0 c 5.6444446,0.2822223 5.6444446,0.2822223 11.2888885,0 z"
     style="opacity:0.75;fill:#ffffff;fill-opacity:1;stroke:none" />
</svg>
