<?xml version="1.0" encoding="UTF-8" standalone="no"?>
<!-- Created with Inkscape (http://www.inkscape.org/) -->

<svg
   xmlns:dc="http://purl.org/dc/elements/1.1/"
   xmlns:cc="http://creativecommons.org/ns#"
   xmlns:rdf="http://www.w3.org/1999/02/22-rdf-syntax-ns#"
   xmlns:svg="http://www.w3.org/2000/svg"
   xmlns="http://www.w3.org/2000/svg"
   xmlns:xlink="http://www.w3.org/1999/xlink"
   xmlns:sodipodi="http://sodipodi.sourceforge.net/DTD/sodipodi-0.dtd"
   xmlns:inkscape="http://www.inkscape.org/namespaces/inkscape"
   width="48"
   height="48"
   id="svg5453"
   version="1.1"
   inkscape:version="0.48.5 r10040"
   sodipodi:docname="musicbrainz.svg">
  <defs
     id="defs5455">
    <linearGradient
       id="linearGradient4225"
       inkscape:collect="always">
      <stop
         id="stop4227"
         offset="0"
         style="stop-color:#febac5;stop-opacity:1" />
      <stop
         id="stop4229"
         offset="1"
         style="stop-color:#fff8f5;stop-opacity:1" />
    </linearGradient>
    <linearGradient
       inkscape:collect="always"
       id="linearGradient4074">
      <stop
         style="stop-color:#fa183c;stop-opacity:1"
         offset="0"
         id="stop4076" />
      <stop
         style="stop-color:#fe590a;stop-opacity:1"
         offset="1"
         id="stop4078" />
    </linearGradient>
    <linearGradient
       inkscape:collect="always"
       xlink:href="#linearGradient4074"
       id="linearGradient4080"
       x1="384.57144"
       y1="-522.79797"
       x2="432.57144"
       y2="-522.79797"
       gradientUnits="userSpaceOnUse"
       gradientTransform="matrix(0.83333443,0,0,0.83333443,68.094791,-87.299087)" />
    <linearGradient
       inkscape:collect="always"
       id="linearGradient4111">
      <stop
         style="stop-color:#202428;stop-opacity:1"
         offset="0"
         id="stop4113" />
      <stop
         style="stop-color:#384046;stop-opacity:1"
         offset="1"
         id="stop4115" />
    </linearGradient>
    <linearGradient
       gradientUnits="userSpaceOnUse"
       y2="1026.9622"
       x2="39.000229"
       y1="1026.9622"
       x1="8.0002298"
       id="linearGradient4070"
       xlink:href="#linearGradient4225"
       inkscape:collect="always"
       gradientTransform="matrix(0.83333443,0,0,0.83333443,388.57121,-333.67163)" />
    <linearGradient
       gradientUnits="userSpaceOnUse"
       y2="1013.1159"
       x2="36.57663"
       y1="1043.6891"
       x1="36.57663"
       id="linearGradient4078"
       xlink:href="#linearGradient4111"
       inkscape:collect="always"
       gradientTransform="translate(384.5712,-505.1642)" />
    <linearGradient
       inkscape:collect="always"
       xlink:href="#linearGradient4225"
       id="linearGradient4223"
       x1="409.87411"
       y1="529.78314"
       x2="409.87411"
       y2="517.74597"
       gradientUnits="userSpaceOnUse"
       gradientTransform="matrix(0.83333443,0,0,0.83333443,68.094791,87.299087)" />
    <linearGradient
       inkscape:collect="always"
       xlink:href="#linearGradient4111"
       id="linearGradient3014"
       gradientUnits="userSpaceOnUse"
       gradientTransform="matrix(0.83333443,0,0,0.83333443,388.57121,-333.67163)"
       x1="36.57663"
       y1="1043.6891"
       x2="36.57663"
       y2="1013.1159" />
  </defs>
  <sodipodi:namedview
     id="base"
     pagecolor="#ffffff"
     bordercolor="#666666"
     borderopacity="1.0"
     inkscape:pageopacity="0"
     inkscape:pageshadow="2"
     inkscape:zoom="5.75"
     inkscape:cx="-2.7408031"
     inkscape:cy="36.294459"
     inkscape:document-units="px"
     inkscape:current-layer="layer1"
     showgrid="true"
     fit-margin-top="0"
     fit-margin-left="0"
     fit-margin-right="0"
     fit-margin-bottom="0"
     inkscape:window-width="1301"
     inkscape:window-height="744"
     inkscape:window-x="65"
     inkscape:window-y="24"
     inkscape:window-maximized="1"
     inkscape:showpageshadow="false"
     borderlayer="true">
    <inkscape:grid
       type="xygrid"
       id="grid3012" />
  </sodipodi:namedview>
  <metadata
     id="metadata5458">
    <rdf:RDF>
      <cc:Work
         rdf:about="">
        <dc:format>image/svg+xml</dc:format>
        <dc:type
           rdf:resource="http://purl.org/dc/dcmitype/StillImage" />
        <dc:title />
      </cc:Work>
    </rdf:RDF>
  </metadata>
  <g
     inkscape:label="Capa 1"
     inkscape:groupmode="layer"
     id="layer1"
     transform="translate(-384.57143,-499.798)">
    <rect
       style="fill:url(#linearGradient4080);fill-opacity:1;stroke:none"
       id="rect2991-1-7"
       width="40.000053"
       height="40.000053"
       x="388.57141"
       y="-543.79797"
       ry="0"
       transform="scale(1,-1)" />
    <path
       style="opacity:0.3;fill:url(#linearGradient3014);fill-opacity:1;stroke:none"
       d="m 408.57124,536.13135 c 7.08768,0 12.83337,-5.74568 12.83337,-12.83336 0,-7.08767 -5.74569,-12.83335 -12.83337,-12.83335 l 0,2.40626 c 5.75873,0 10.42711,4.66842 10.42711,10.42709 0,5.75876 -4.66838,10.4271 -10.42711,10.4271 l 0,2.40626 z"
       id="path863"
       inkscape:connector-curvature="0" />
    <path
       style="fill:url(#linearGradient4070);fill-opacity:1;stroke:none"
       d="m 395.73787,523.29799 c 0,7.08768 5.7457,12.83336 12.83336,12.83336 l 0,-2.40626 c -5.75872,0 -10.4271,-4.66834 -10.4271,-10.4271 0,-5.75868 4.66837,-10.4271 10.4271,-10.4271 l 0,-2.40625 c -7.08767,0 -12.83336,5.74567 -12.83336,12.83335 z"
       id="path858"
       inkscape:connector-curvature="0" />
    <path
       style="fill:url(#linearGradient4223);fill-opacity:1;stroke:none"
       d="m 406.15607,518.79799 0,0.99935 7.41537,0 0,-0.99935 -7.41537,0 z m 0,2.00033 0,1.33301 0,3.26986 c -0.24478,-0.12164 -0.51768,-0.18622 -0.79102,-0.18718 -0.93838,-1.7e-4 -1.79379,0.85366 -1.79362,1.792 -1.7e-4,0.93833 0.85524,1.79217 1.79362,1.79199 0.93784,-6.8e-4 1.79054,-0.8542 1.79037,-1.79199 -3.9e-4,-0.0136 -8e-4,-0.0272 -0.002,-0.0407 l 0.002,0 0,-4.83399 5.41668,0 0,3.26986 c -0.24528,-0.12187 -0.51876,-0.18646 -0.79266,-0.18717 -0.93837,-1.8e-4 -1.79216,0.85366 -1.79199,1.79199 -1.7e-4,0.93834 0.85362,1.79216 1.79199,1.792 0.93839,1.7e-4 1.79217,-0.85366 1.792,-1.792 -4e-4,-0.0136 -7.9e-4,-0.0272 -0.002,-0.0407 l 0.002,0 0,-6.167 -7.41537,0 z"
       id="path4094"
       inkscape:connector-curvature="0" />
    <path
       style="opacity:0.5;fill:#000000;fill-opacity:1;stroke:none"
       d="m 388.57143,543.798 0,0 c 20,-1 20,-1 40,0 z"
       id="path3257"
       inkscape:connector-curvature="0"
       sodipodi:nodetypes="cccc" />
    <path
       sodipodi:nodetypes="cccc"
       inkscape:connector-curvature="0"
       id="path4027"
       d="m 388.57143,503.798 0,0 c 20,1 20,1 40,0 z"
       style="opacity:0.75;fill:#ffffff;fill-opacity:1;stroke:none" />
  </g>
</svg>
