<?xml version="1.0" encoding="UTF-8" standalone="no"?>
<svg
   xmlns:dc="http://purl.org/dc/elements/1.1/"
   xmlns:cc="http://creativecommons.org/ns#"
   xmlns:rdf="http://www.w3.org/1999/02/22-rdf-syntax-ns#"
   xmlns:svg="http://www.w3.org/2000/svg"
   xmlns="http://www.w3.org/2000/svg"
   xmlns:xlink="http://www.w3.org/1999/xlink"
   xmlns:sodipodi="http://sodipodi.sourceforge.net/DTD/sodipodi-0.dtd"
   xmlns:inkscape="http://www.inkscape.org/namespaces/inkscape"
   viewBox="0 0 48 48"
   id="svg2"
   version="1.1"
   inkscape:version="0.48.5 r10040"
   width="100%"
   height="100%"
   sodipodi:docname="mysms.svg">
  <metadata
     id="metadata61">
    <rdf:RDF>
      <cc:Work
         rdf:about="">
        <dc:format>image/svg+xml</dc:format>
        <dc:type
           rdf:resource="http://purl.org/dc/dcmitype/StillImage" />
      </cc:Work>
    </rdf:RDF>
  </metadata>
  <sodipodi:namedview
     pagecolor="#ffffff"
     bordercolor="#666666"
     borderopacity="1"
     objecttolerance="10"
     gridtolerance="10"
     guidetolerance="10"
     inkscape:pageopacity="0"
     inkscape:pageshadow="2"
     inkscape:window-width="1301"
     inkscape:window-height="744"
     id="namedview59"
     showgrid="true"
     inkscape:zoom="6.3958333"
     inkscape:cx="1.1059293"
     inkscape:cy="29.102624"
     inkscape:window-x="65"
     inkscape:window-y="24"
     inkscape:window-maximized="1"
     inkscape:current-layer="svg2">
    <inkscape:grid
       type="xygrid"
       id="grid3059" />
  </sodipodi:namedview>
  <defs
     id="defs4">
    <linearGradient
       id="linearGradient3764"
       x1="1"
       x2="47"
       gradientUnits="userSpaceOnUse"
       gradientTransform="matrix(0,-1,1,0,-1.5e-6,47.999998)">
      <stop
         stop-color="#6bc6e1"
         stop-opacity="1"
         id="stop7"
         offset="0"
         style="stop-color:#51acc7;stop-opacity:1;" />
      <stop
         offset="1"
         stop-color="#7ccde4"
         stop-opacity="1"
         id="stop9" />
    </linearGradient>
    <clipPath
       id="clipPath-469940323">
      <g
         transform="translate(0,-1004.3622)"
         id="g12">
        <path
           d="m -24 13 c 0 1.105 -0.672 2 -1.5 2 -0.828 0 -1.5 -0.895 -1.5 -2 0 -1.105 0.672 -2 1.5 -2 0.828 0 1.5 0.895 1.5 2 z"
           transform="matrix(15.333333,0,0,11.5,414.99999,878.8622)"
           fill="#1890d0"
           id="path14" />
      </g>
    </clipPath>
    <clipPath
       id="clipPath-475805183">
      <g
         transform="translate(0,-1004.3622)"
         id="g17">
        <path
           d="m -24 13 c 0 1.105 -0.672 2 -1.5 2 -0.828 0 -1.5 -0.895 -1.5 -2 0 -1.105 0.672 -2 1.5 -2 0.828 0 1.5 0.895 1.5 2 z"
           transform="matrix(15.333333,0,0,11.5,414.99999,878.8622)"
           fill="#1890d0"
           id="path19" />
      </g>
    </clipPath>
    <linearGradient
       y2="1028.3622"
       x2="44"
       y1="1028.3622"
       x1="4"
       gradientTransform="translate(-3.45e-6,-1004.3619)"
       gradientUnits="userSpaceOnUse"
       id="linearGradient3019"
       xlink:href="#linearGradient3764"
       inkscape:collect="always" />
  </defs>
  <rect
     style="fill:url(#linearGradient3019);fill-opacity:1.0;stroke:none"
     id="rect3758"
     width="40"
     height="40"
     x="3.9999967"
     y="4.0002828"
     ry="0" />
  <path
     style="opacity:0.35;fill:#000000;fill-opacity:1;stroke:none"
     d="m 3.9999979,44 39.9999971,3e-4 c -19.999997,-1 -19.999997,-1 -39.9999985,0 z"
     id="path3800"
     inkscape:connector-curvature="0"
     sodipodi:nodetypes="cccc" />
  <path
     sodipodi:nodetypes="cccc"
     inkscape:connector-curvature="0"
     id="path3804"
     d="M 4.0000014,4.0002 43.999997,4 C 24.000001,5 24.000001,5 4,4 z"
     style="opacity:0.75;fill:#ffffff;fill-opacity:1;stroke:none" />
  <g
     id="g33" />
  <g
     id="g35">
    <g
       clip-path="url(#clipPath-469940323)"
       id="g37">
      <g
         transform="translate(1,1)"
         id="g39">
        <g
           opacity="0.1"
           id="g41">
          <!-- color: #7ccde4 -->
          <g
             id="g43">
            <path
               d="m 13 13 c -2.77 0 -5 2.23 -5 5 l 0 8 c 0 2.773 2.23 5 5 5 l 12 0 l 0 6 l 5 -6 l 5 0 c 2.773 0 5 -2.227 5 -5 l 0 -8 c 0 -2.77 -2.227 -5 -5 -5 m -4.625 2 c 0.883 0 1.105 0.441 1.375 2.969 c 0.238 2.211 0.652 4.68 0.844 4.875 c 0.145 0.145 0.23 0.145 0.344 0 c 0.223 -0.281 1.453 -3.418 1.938 -4.938 c 0.5 -1.566 0.996 -2.27 1.844 -2.656 c 0.68 -0.309 1.082 -0.313 1.313 -0.031 c 0.242 0.293 -0.219 1.695 -1.25 4.03 c -2.203 4.969 -4.477 7.949 -7.125 9.281 c -0.977 0.492 -1.969 0.629 -1.969 0.281 c 0 -0.441 0.449 -1.445 0.816 -1.816 c 0.219 -0.223 0.73 -0.605 1.188 -0.844 c 0.449 -0.238 0.859 -0.488 0.906 -0.563 c 0.047 -0.074 -0.191 -0.66 -0.566 -1.316 c -0.758 -1.328 -1.25 -2.371 -1.688 -3.781 c -0.34 -1.07 -0.414 -3.01 -0.156 -3.934 c 0.262 -0.945 1.129 -1.566 2.191 -1.566 m -10.699 0.066 c 0.41 -0.055 0.766 0.102 1.063 0.438 c 0.609 0.684 0.613 1.105 0.066 2.816 c -0.273 0.824 -0.5 1.602 -0.5 1.688 c 0 0.391 0.488 0.031 2.125 -1.598 c 1.914 -1.898 2.32 -2.133 3.063 -1.75 c 0.723 0.375 0.746 0.867 0.406 3.938 c -0.293 2.652 -0.297 2.695 -0.063 4.066 c 0.313 1.852 0.324 1.867 -0.066 2.156 c -0.758 0.551 -1.793 0.426 -2.563 -0.316 c -0.902 -0.863 -0.984 -1.191 -0.996 -5.152 c 0 -0.332 -0.527 0.105 -2.16 1.75 c -1.012 1.016 -2.023 1.926 -2.219 2.027 c -0.574 0.309 -1.113 0.238 -1.598 -0.188 c -0.629 -0.566 -0.676 -1.23 -0.152 -2.844 c 0.227 -0.711 0.41 -1.367 0.375 -1.406 c -0.145 -0.148 -0.59 0.27 -2.25 2.094 c -1.887 2.066 -2.289 2.406 -3 2.406 c -0.902 0 -1.469 -1.039 -1.281 -2.375 c 0.188 -1.398 1.676 -5.297 2.5 -6.594 c 0.672 -1.066 2.039 -1.41 2.656 -0.656 c 0.328 0.402 0.215 1.059 -0.406 2.844 c -0.586 1.699 -0.457 1.855 0.598 0.656 c 0.418 -0.48 1.254 -1.398 1.816 -2.031 c 1.063 -1.207 1.902 -1.871 2.594 -1.969 m -0.004 0"
               fill="#000"
               stroke="none"
               fill-rule="nonzero"
               fill-opacity="1"
               id="path45" />
          </g>
        </g>
      </g>
    </g>
  </g>
  <g
     id="g47">
    <g
       clip-path="url(#clipPath-475805183)"
       id="g49">
      <!-- color: #7ccde4 -->
      <g
         id="g51">
        <path
           d="m 13 13 c -2.77 0 -5 2.23 -5 5 l 0 8 c 0 2.773 2.23 5 5 5 l 12 0 l 0 6 l 5 -6 l 5 0 c 2.773 0 5 -2.227 5 -5 l 0 -8 c 0 -2.77 -2.227 -5 -5 -5 m -4.625 2 c 0.883 0 1.105 0.441 1.375 2.969 c 0.238 2.211 0.652 4.68 0.844 4.875 c 0.145 0.145 0.23 0.145 0.344 0 c 0.223 -0.281 1.453 -3.418 1.938 -4.938 c 0.5 -1.566 0.996 -2.27 1.844 -2.656 c 0.68 -0.309 1.082 -0.313 1.313 -0.031 c 0.242 0.293 -0.219 1.695 -1.25 4.03 c -2.203 4.969 -4.477 7.949 -7.125 9.281 c -0.977 0.492 -1.969 0.629 -1.969 0.281 c 0 -0.441 0.449 -1.445 0.816 -1.816 c 0.219 -0.223 0.73 -0.605 1.188 -0.844 c 0.449 -0.238 0.859 -0.488 0.906 -0.563 c 0.047 -0.074 -0.191 -0.66 -0.566 -1.316 c -0.758 -1.328 -1.25 -2.371 -1.688 -3.781 c -0.34 -1.07 -0.414 -3.01 -0.156 -3.934 c 0.262 -0.945 1.129 -1.566 2.191 -1.566 m -10.699 0.066 c 0.41 -0.055 0.766 0.102 1.063 0.438 c 0.609 0.684 0.613 1.105 0.066 2.816 c -0.273 0.824 -0.5 1.602 -0.5 1.688 c 0 0.391 0.488 0.031 2.125 -1.598 c 1.914 -1.898 2.32 -2.133 3.063 -1.75 c 0.723 0.375 0.746 0.867 0.406 3.938 c -0.293 2.652 -0.297 2.695 -0.063 4.066 c 0.313 1.852 0.324 1.867 -0.066 2.156 c -0.758 0.551 -1.793 0.426 -2.563 -0.316 c -0.902 -0.863 -0.984 -1.191 -0.996 -5.152 c 0 -0.332 -0.527 0.105 -2.16 1.75 c -1.012 1.016 -2.023 1.926 -2.219 2.027 c -0.574 0.309 -1.113 0.238 -1.598 -0.188 c -0.629 -0.566 -0.676 -1.23 -0.152 -2.844 c 0.227 -0.711 0.41 -1.367 0.375 -1.406 c -0.145 -0.148 -0.59 0.27 -2.25 2.094 c -1.887 2.066 -2.289 2.406 -3 2.406 c -0.902 0 -1.469 -1.039 -1.281 -2.375 c 0.188 -1.398 1.676 -5.297 2.5 -6.594 c 0.672 -1.066 2.039 -1.41 2.656 -0.656 c 0.328 0.402 0.215 1.059 -0.406 2.844 c -0.586 1.699 -0.457 1.855 0.598 0.656 c 0.418 -0.48 1.254 -1.398 1.816 -2.031 c 1.063 -1.207 1.902 -1.871 2.594 -1.969 m -0.004 0"
           fill="#fff"
           stroke="none"
           fill-rule="nonzero"
           fill-opacity="1"
           id="path53" />
      </g>
    </g>
  </g>
</svg>
