<?xml version="1.0" encoding="UTF-8" standalone="no"?>
<!-- Created with Inkscape (http://www.inkscape.org/) -->

<svg
   xmlns:dc="http://purl.org/dc/elements/1.1/"
   xmlns:cc="http://creativecommons.org/ns#"
   xmlns:rdf="http://www.w3.org/1999/02/22-rdf-syntax-ns#"
   xmlns:svg="http://www.w3.org/2000/svg"
   xmlns="http://www.w3.org/2000/svg"
   xmlns:xlink="http://www.w3.org/1999/xlink"
   xmlns:sodipodi="http://sodipodi.sourceforge.net/DTD/sodipodi-0.dtd"
   xmlns:inkscape="http://www.inkscape.org/namespaces/inkscape"
   width="48"
   height="48"
   id="svg5453"
   version="1.1"
   inkscape:version="0.48.5 r10040"
   sodipodi:docname="mysql-workbench.svg">
  <defs
     id="defs5455">
    <linearGradient
       id="linearGradient4100"
       inkscape:collect="always">
      <stop
         id="stop4102"
         offset="0"
         style="stop-color:#b9eaff;stop-opacity:1" />
      <stop
         id="stop4104"
         offset="1"
         style="stop-color:#f5fcff;stop-opacity:1" />
    </linearGradient>
    <linearGradient
       id="linearGradient4084">
      <stop
         style="stop-color:#469fff;stop-opacity:1;"
         offset="0"
         id="stop4086" />
      <stop
         style="stop-color:#58d7ff;stop-opacity:1;"
         offset="1"
         id="stop4088" />
    </linearGradient>
    <linearGradient
       inkscape:collect="always"
       xlink:href="#linearGradient4084"
       id="linearGradient4090"
       x1="384.57144"
       y1="-517.67889"
       x2="432.57144"
       y2="-517.67889"
       gradientUnits="userSpaceOnUse"
       gradientTransform="matrix(0.83333269,0,0,0.83333269,68.095502,-87.399252)" />
    <linearGradient
       inkscape:collect="always"
       xlink:href="#linearGradient4100"
       id="linearGradient4098"
       x1="392.5752"
       y1="521.79803"
       x2="425.56747"
       y2="521.79803"
       gradientUnits="userSpaceOnUse"
       gradientTransform="matrix(0.83352727,0,0,0.83335444,68.015988,87.288632)" />
  </defs>
  <sodipodi:namedview
     id="base"
     pagecolor="#ffffff"
     bordercolor="#666666"
     borderopacity="1.0"
     inkscape:pageopacity="0"
     inkscape:pageshadow="2"
     inkscape:zoom="8.0000001"
     inkscape:cx="34.030228"
     inkscape:cy="16.14587"
     inkscape:document-units="px"
     inkscape:current-layer="layer1"
     showgrid="true"
     fit-margin-top="0"
     fit-margin-left="0"
     fit-margin-right="0"
     fit-margin-bottom="0"
     inkscape:window-width="1301"
     inkscape:window-height="744"
     inkscape:window-x="65"
     inkscape:window-y="24"
     inkscape:window-maximized="1"
     inkscape:showpageshadow="false"
     borderlayer="true">
    <inkscape:grid
       type="xygrid"
       id="grid3000" />
  </sodipodi:namedview>
  <metadata
     id="metadata5458">
    <rdf:RDF>
      <cc:Work
         rdf:about="">
        <dc:format>image/svg+xml</dc:format>
        <dc:type
           rdf:resource="http://purl.org/dc/dcmitype/StillImage" />
        <dc:title />
      </cc:Work>
    </rdf:RDF>
  </metadata>
  <g
     inkscape:label="Capa 1"
     inkscape:groupmode="layer"
     id="layer1"
     transform="translate(-384.57143,-499.798)">
    <rect
       style="fill:url(#linearGradient4090);fill-opacity:1;stroke:none"
       id="rect2991-1-7"
       width="39.999969"
       height="39.999969"
       x="388.57144"
       y="-543.79791"
       ry="0"
       transform="scale(1,-1)" />
    <path
       style="fill:url(#linearGradient4098);fill-opacity:1;fill-rule:nonzero;stroke:none"
       d="m 397.0477,510.965 c -0.62314,-0.0104 -1.16615,0.22358 -1.44891,0.91311 -0.47609,1.16059 0.71159,2.29287 1.13633,2.88094 0.29817,0.41257 0.67913,0.87558 0.89213,1.33955 0.14015,0.30491 0.16502,0.61155 0.28491,0.93427 0.2951,0.7948 0.55112,1.65802 0.93283,2.39263 0.19294,0.37162 0.40564,0.76461 0.64956,1.09704 0.14954,0.20391 0.40557,0.29378 0.44607,0.60874 -0.25061,0.35063 -0.26451,0.89372 -0.40536,1.33792 -0.63432,1.99973 -0.39527,4.48533 0.52746,5.96531 0.28316,0.45432 0.95035,1.42841 1.8673,1.05473 0.80212,-0.32666 0.6236,-1.33848 0.85307,-2.23151 0.0519,-0.20251 0.0189,-0.35107 0.12047,-0.48666 l 0,0.0407 c 0.24356,0.48693 0.4874,0.97317 0.73095,1.46 0.54065,0.87065 1.50021,1.78195 2.31336,2.39589 0.42167,0.31836 0.75396,0.86851 1.29914,1.05471 l 0,-0.0407 -0.0407,0 c -0.10561,-0.1647 -0.27049,-0.23389 -0.40538,-0.36623 -0.3177,-0.3113 -0.67172,-0.69803 -0.93446,-1.05471 -0.73954,-1.00388 -1.39233,-2.10181 -1.98777,-3.24552 -0.28442,-0.54606 -0.53189,-1.14837 -0.77165,-1.70414 -0.0924,-0.21432 -0.0907,-0.5384 -0.28327,-0.64944 -0.26255,0.40729 -0.65001,0.73659 -0.85307,1.21748 -0.32475,0.76869 -0.36653,1.70538 -0.48677,2.67748 -0.0712,0.0255 -0.0396,0.009 -0.0813,0.0407 -0.56522,-0.13631 -0.76359,-0.71838 -0.97353,-1.21747 -0.53142,-1.26229 -0.6304,-3.29488 -0.16279,-4.74785 0.12096,-0.37586 0.66739,-1.56034 0.44606,-1.90759 -0.10559,-0.34656 -0.45445,-0.54575 -0.64956,-0.81056 -0.2414,-0.32733 -0.48249,-0.75814 -0.64956,-1.13611 -0.43487,-0.98423 -0.6378,-2.08955 -1.09565,-3.08438 -0.21879,-0.47562 -0.58816,-0.95743 -0.89213,-1.38024 -0.33649,-0.46838 -0.71443,-0.81373 -0.97516,-1.38025 -0.0928,-0.20128 -0.21737,-0.52228 -0.0797,-0.72918 0.0437,-0.13966 0.10442,-0.19859 0.24256,-0.24415 0.23543,-0.18149 0.89113,0.0609 1.13632,0.16276 0.65095,0.27029 1.19389,0.52686 1.74521,0.89195 0.26471,0.1755 0.53319,0.51481 0.85306,0.60874 l 0.36467,0 c 0.57139,0.13134 1.21142,0.0413 1.74519,0.20346 0.94353,0.28673 1.78963,0.73269 2.55757,1.21747 2.33943,1.47682 4.25114,3.57959 5.55955,6.0874 0.21049,0.40375 0.30144,0.78919 0.48678,1.21747 0.37411,0.86368 0.84561,1.75153 1.21773,2.59609 0.37141,0.84268 0.73351,1.69305 1.25843,2.39429 0.27611,0.3686 1.34219,0.56689 1.8266,0.77149 0.33957,0.14355 0.89605,0.29286 1.21772,0.48666 0.61443,0.3706 1.20963,0.81162 1.78591,1.21749 0.28802,0.20283 1.17361,0.6474 1.21773,1.01402 -1.42739,-0.0387 -2.51758,0.0936 -3.44969,0.48666 -0.26491,0.11173 -0.68776,0.1157 -0.73098,0.44761 0.14557,0.15257 0.16918,0.3804 0.2849,0.56805 0.22258,0.36012 0.5976,0.84232 0.93283,1.0954 0.36634,0.27642 0.7436,0.57285 1.13634,0.81221 0.69851,0.42591 1.47791,0.66875 2.15056,1.0954 0.39637,0.25146 0.79026,0.56743 1.17703,0.85125 0.19113,0.14029 0.31972,0.35812 0.56817,0.44597 l 0,-0.039 c -0.13056,-0.16615 -0.1634,-0.39614 -0.28326,-0.56968 l -0.52747,-0.52736 c -0.51587,-0.68463 -1.17114,-1.28603 -1.86731,-1.78552 -0.5551,-0.39845 -1.79845,-0.93614 -2.03009,-1.58207 -0.0136,-0.0136 -0.0269,-0.0271 -0.0407,-0.0407 0.39365,-0.0443 0.8561,-0.18595 1.21936,-0.28321 0.61027,-0.16361 1.15411,-0.12213 1.78427,-0.28484 0.28406,-0.0811 0.56881,-0.16152 0.85306,-0.24252 l 0,-0.16276 c -0.3186,-0.32686 -0.54642,-0.75895 -0.89376,-1.05472 -0.90881,-0.77374 -1.90079,-1.54784 -2.92223,-2.19244 -0.56651,-0.35752 -1.26535,-0.58899 -1.86567,-0.89195 -0.20197,-0.10187 -0.55681,-0.15571 -0.69027,-0.32553 -0.31534,-0.40201 -0.48776,-0.91041 -0.73095,-1.37862 -0.50957,-0.98087 -1.00899,-2.05249 -1.46031,-3.08437 -0.30794,-0.70372 -0.50988,-1.39836 -0.89376,-2.02968 -1.8429,-3.02934 -3.82636,-4.85822 -6.8994,-6.65544 -0.65383,-0.38221 -1.44071,-0.53199 -2.27266,-0.72919 -0.44626,-0.0271 -0.89339,-0.0544 -1.33982,-0.0814 -0.2725,-0.11387 -0.55669,-0.4472 -0.81236,-0.60873 -0.63627,-0.40187 -1.89507,-1.09922 -2.93363,-1.11656 z m 4.39554,4.40278 c -0.29761,-0.006 -0.50836,0.0328 -0.73097,0.0814 l 0,0.0407 0.0407,0 c 0.14196,0.29164 0.39261,0.47957 0.56817,0.73081 0.13526,0.28407 0.26994,0.56738 0.40537,0.85126 0.0134,-0.0134 0.0272,-0.0257 0.0407,-0.039 0.25133,-0.17708 0.36756,-0.46122 0.36629,-0.89357 -0.10071,-0.10594 -0.11616,-0.23818 -0.20349,-0.3646 -0.11609,-0.16842 -0.34049,-0.26533 -0.48677,-0.40692 z"
       id="path26-3"
       inkscape:connector-curvature="0" />
    <path
       style="fill:#ffffff;fill-opacity:0.23529412;fill-rule:nonzero;stroke:none"
       d="m 397.04801,510.96435 c -0.62315,-0.0104 -1.16581,0.22356 -1.44857,0.91308 -0.0978,0.23846 -0.11275,0.47479 -0.0912,0.70638 0.0157,-0.1236 0.0399,-0.24782 0.0912,-0.37272 0.28276,-0.68952 0.82542,-0.92351 1.44857,-0.91309 1.03856,0.0173 2.29668,0.71467 2.93293,1.11654 0.25569,0.16154 0.53968,0.49486 0.81218,0.60873 0.44643,0.027 0.89488,0.0544 1.34114,0.0814 0.83195,0.19719 1.61829,0.34694 2.27213,0.72916 3.07303,1.79722 5.05651,3.62593 6.89942,6.65527 0.38388,0.63132 0.5856,1.3259 0.89355,2.02961 0.45132,1.0319 0.95039,2.10344 1.45996,3.08431 0.24319,0.46821 0.41545,0.97658 0.73079,1.37858 0.13345,0.16982 0.48813,0.22364 0.69011,0.32552 0.60031,0.30295 1.30035,0.5344 1.86686,0.89193 1.02145,0.6446 2.01274,1.41864 2.92155,2.19238 0.30278,0.25782 0.5208,0.61297 0.78124,0.91797 0.0375,-0.0107 0.0749,-0.0219 0.11231,-0.0326 l 0,-0.16276 c -0.3186,-0.32686 -0.5462,-0.75893 -0.89355,-1.05469 -0.90881,-0.77374 -1.9001,-1.54778 -2.92155,-2.19238 -0.56651,-0.35753 -1.26655,-0.58897 -1.86686,-0.89192 -0.20198,-0.10189 -0.55666,-0.15571 -0.69011,-0.32553 -0.31534,-0.40201 -0.4876,-0.91037 -0.73079,-1.37858 -0.50957,-0.98087 -1.00864,-2.05241 -1.45996,-3.0843 -0.30795,-0.70372 -0.50967,-1.3983 -0.89355,-2.02963 -1.84291,-3.02933 -3.82639,-4.85966 -6.89942,-6.65689 -0.65384,-0.38222 -1.44018,-0.53197 -2.27213,-0.72917 -0.44626,-0.027 -0.89471,-0.0544 -1.34114,-0.0814 -0.2725,-0.11386 -0.55649,-0.44719 -0.81218,-0.60872 -0.63625,-0.40187 -1.89437,-1.09918 -2.93293,-1.11653 z m -0.70638,1.65853 c -0.067,0.2028 0.0279,0.46678 0.10904,0.64289 0.26074,0.56652 0.63844,0.91185 0.97494,1.38022 0.30397,0.42282 0.67314,0.90458 0.89193,1.3802 0.45783,0.99482 0.6605,2.10008 1.09537,3.08431 0.16708,0.37797 0.40801,0.80874 0.64941,1.13607 0.19511,0.26482 0.54382,0.46399 0.64942,0.81054 0.0169,0.0264 0.0225,0.0655 0.0309,0.10091 0.0284,-0.18264 0.0287,-0.33949 -0.0309,-0.43294 -0.1056,-0.34656 -0.45431,-0.54573 -0.64942,-0.81054 -0.2414,-0.32732 -0.48233,-0.7581 -0.64941,-1.13608 -0.43487,-0.98422 -0.63754,-2.09111 -1.09537,-3.08593 -0.21879,-0.47562 -0.58796,-0.95738 -0.89193,-1.38021 -0.3365,-0.46836 -0.7142,-0.81368 -0.97494,-1.38021 -0.0397,-0.0862 -0.0808,-0.19753 -0.10904,-0.30923 z m 5.1009,2.74413 c -0.29762,-0.006 -0.50819,0.0328 -0.73079,0.0813 l 0,0.0407 0.0407,0 c 0.0472,0.0971 0.11607,0.17363 0.18066,0.25391 0.15173,-0.0258 0.3091,-0.0463 0.50944,-0.0423 0.14629,0.14159 0.37057,0.23848 0.48666,0.40691 0.0784,0.11351 0.10601,0.22912 0.18228,0.32877 0.0147,-0.0902 0.0215,-0.18976 0.0212,-0.29785 -0.10072,-0.10593 -0.11612,-0.23817 -0.20345,-0.36459 -0.11609,-0.16842 -0.34037,-0.2653 -0.48666,-0.40689 z m -1.56901,5.8968 c -0.17949,0.3464 -0.21347,0.81163 -0.33854,1.20606 -0.25572,0.80619 -0.36242,1.68895 -0.34668,2.55533 0.0155,-0.75777 0.12384,-1.52078 0.34668,-2.2233 0.14085,-0.44419 0.15467,-0.98726 0.40528,-1.33789 -0.0103,-0.0797 -0.0341,-0.14383 -0.0668,-0.2002 z m 2.95085,3.39844 c -0.26256,0.40729 -0.6498,0.73655 -0.85287,1.21745 -0.32475,0.76869 -0.36804,1.70531 -0.48827,2.6774 -0.0712,0.0255 -0.0396,0.009 -0.0814,0.0407 -0.56524,-0.13632 -0.76338,-0.71836 -0.97332,-1.21745 -0.26571,-0.63115 -0.423,-1.45551 -0.45572,-2.30306 -2.5e-4,0.96215 0.15528,1.92143 0.45572,2.63509 0.20994,0.4991 0.40808,1.08113 0.97332,1.21745 0.0417,-0.0322 0.0101,-0.0151 0.0814,-0.0407 0.12023,-0.9721 0.16352,-1.90872 0.48827,-2.67741 0.20307,-0.48089 0.59031,-0.81016 0.85287,-1.21745 0.19257,0.11104 0.1908,0.4351 0.2832,0.64942 0.23977,0.55577 0.48706,1.15803 0.77148,1.7041 0.59545,1.14371 1.24777,2.24319 1.98731,3.24706 0.005,0.007 0.0127,0.0141 0.0179,0.0211 0.0208,0.0159 0.0429,0.0365 0.0634,0.0521 0.42168,0.31836 0.75365,0.86847 1.29884,1.05468 l 0,-0.0407 -0.0407,0 c -0.10561,-0.16471 -0.27037,-0.23388 -0.40527,-0.36621 -0.31769,-0.31131 -0.67151,-0.69801 -0.93424,-1.0547 -0.73954,-1.00388 -1.39186,-2.10172 -1.98731,-3.24544 -0.28442,-0.54605 -0.53171,-1.14832 -0.77148,-1.7041 -0.0924,-0.21432 -0.0907,-0.53838 -0.2832,-0.64941 z m 16.53481,6.16699 c -1.31242,-0.0182 -2.34269,0.11563 -3.22265,0.48666 -0.2649,0.11173 -0.68758,0.11566 -0.73079,0.44759 0.0411,0.0431 0.0597,0.10041 0.0863,0.15299 0.146,-0.15677 0.44075,-0.18097 0.64453,-0.26693 0.93211,-0.39302 2.0215,-0.52532 3.44889,-0.48665 -0.0129,-0.10716 -0.10552,-0.22117 -0.22624,-0.33366 z m -2.264,1.55436 c -0.0626,0.0108 -0.12885,0.0307 -0.1888,0.0374 0.0137,0.0136 0.0272,0.0271 0.0407,0.0407 0.23164,0.64595 1.47452,1.18359 2.02962,1.58204 0.69618,0.49948 1.35098,1.10085 1.86686,1.78548 l 0.52734,0.52734 c 0.0312,0.0452 0.0489,0.0989 0.0716,0.14974 0.0627,0.0502 0.12915,0.0962 0.21159,0.12533 l 0,-0.039 c -0.13056,-0.16614 -0.16333,-0.39611 -0.28321,-0.56966 l -0.52734,-0.52735 c -0.51588,-0.68461 -1.17068,-1.28598 -1.86686,-1.78548 -0.47974,-0.34434 -1.47098,-0.79414 -1.88151,-1.32649 z"
       id="path4119"
       inkscape:connector-curvature="0" />
    <path
       style="opacity:0.35;fill:#000000;fill-opacity:1;stroke:none"
       d="m 388.57143,543.7977 40,3e-4 c -20,-1 -20,-1 -40,0 z"
       id="path3800"
       inkscape:connector-curvature="0"
       sodipodi:nodetypes="cccc" />
    <path
       sodipodi:nodetypes="cccc"
       inkscape:connector-curvature="0"
       id="path3804"
       d="m 388.57143,503.7979 40,-2e-4 c -20,1 -20,1 -40,0 z"
       style="opacity:0.75;fill:#ffffff;fill-opacity:1;stroke:none" />
  </g>
</svg>
