<?xml version="1.0" encoding="UTF-8" standalone="no"?>
<svg
   xmlns:dc="http://purl.org/dc/elements/1.1/"
   xmlns:cc="http://creativecommons.org/ns#"
   xmlns:rdf="http://www.w3.org/1999/02/22-rdf-syntax-ns#"
   xmlns:svg="http://www.w3.org/2000/svg"
   xmlns="http://www.w3.org/2000/svg"
   xmlns:xlink="http://www.w3.org/1999/xlink"
   xmlns:sodipodi="http://sodipodi.sourceforge.net/DTD/sodipodi-0.dtd"
   xmlns:inkscape="http://www.inkscape.org/namespaces/inkscape"
   viewBox="0 0 48 48"
   id="svg2"
   version="1.1"
   inkscape:version="0.48.5 r10040"
   width="100%"
   height="100%"
   sodipodi:docname="nitrogen.svg">
  <metadata
     id="metadata97">
    <rdf:RDF>
      <cc:Work
         rdf:about="">
        <dc:format>image/svg+xml</dc:format>
        <dc:type
           rdf:resource="http://purl.org/dc/dcmitype/StillImage" />
      </cc:Work>
    </rdf:RDF>
  </metadata>
  <sodipodi:namedview
     pagecolor="#ffffff"
     bordercolor="#666666"
     borderopacity="1"
     objecttolerance="10"
     gridtolerance="10"
     guidetolerance="10"
     inkscape:pageopacity="0"
     inkscape:pageshadow="2"
     inkscape:window-width="1301"
     inkscape:window-height="744"
     id="namedview95"
     showgrid="true"
     inkscape:zoom="9.0450742"
     inkscape:cx="43.077635"
     inkscape:cy="33.26511"
     inkscape:window-x="65"
     inkscape:window-y="24"
     inkscape:window-maximized="1"
     inkscape:current-layer="svg2">
    <inkscape:grid
       type="xygrid"
       id="grid3095" />
  </sodipodi:namedview>
  <defs
     id="defs4">
    <linearGradient
       id="linearGradient3764"
       x1="1"
       x2="47"
       gradientUnits="userSpaceOnUse"
       gradientTransform="matrix(0,-1,1,0,-1.5e-6,47.999998)">
      <stop
         stop-color="#3d3d3d"
         stop-opacity="1"
         id="stop7" />
      <stop
         offset="1"
         stop-color="#474747"
         stop-opacity="1"
         id="stop9"
         style="stop-color:#585858;stop-opacity:1;" />
    </linearGradient>
    <clipPath
       id="clipPath-570716543">
      <g
         transform="translate(0,-1004.3622)"
         id="g12">
        <path
           d="m -24 13 c 0 1.105 -0.672 2 -1.5 2 -0.828 0 -1.5 -0.895 -1.5 -2 0 -1.105 0.672 -2 1.5 -2 0.828 0 1.5 0.895 1.5 2 z"
           transform="matrix(15.333333,0,0,11.5,414.99999,878.8622)"
           fill="#1890d0"
           id="path14" />
      </g>
    </clipPath>
    <clipPath
       id="clipPath-584418093">
      <g
         transform="translate(0,-1004.3622)"
         id="g17">
        <path
           d="m -24 13 c 0 1.105 -0.672 2 -1.5 2 -0.828 0 -1.5 -0.895 -1.5 -2 0 -1.105 0.672 -2 1.5 -2 0.828 0 1.5 0.895 1.5 2 z"
           transform="matrix(15.333333,0,0,11.5,414.99999,878.8622)"
           fill="#1890d0"
           id="path19" />
      </g>
    </clipPath>
    <linearGradient
       y2="1028.3622"
       x2="44"
       y1="1028.3622"
       x1="4"
       gradientTransform="translate(-6.6839966e-7,-1004.3622)"
       gradientUnits="userSpaceOnUse"
       id="linearGradient3019"
       xlink:href="#linearGradient3764"
       inkscape:collect="always" />
  </defs>
  <rect
     style="fill:url(#linearGradient3019);fill-opacity:1.0;stroke:none"
     id="rect3758"
     width="40"
     height="40"
     x="4"
     y="4"
     ry="0" />
  <path
     style="opacity:0.35;fill:#000000;fill-opacity:1;stroke:none"
     d="m 4.0000014,43.999717 39.9999956,3e-4 c -19.999997,-1 -19.999997,-1 -39.9999976,0 z"
     id="path3800"
     inkscape:connector-curvature="0"
     sodipodi:nodetypes="cccc" />
  <path
     sodipodi:nodetypes="cccc"
     inkscape:connector-curvature="0"
     id="path3804"
     d="M 4.0000044,3.9999172 44,3.9997172 c -19.999996,1 -19.999996,1 -39.9999966,0 z"
     style="opacity:0.75;fill:#ffffff;fill-opacity:1;stroke:none" />
  <g
     id="g33" />
  <g
     id="g35">
    <g
       clip-path="url(#clipPath-570716543)"
       id="g37">
      <g
         transform="translate(1,1)"
         id="g39">
        <g
           opacity="0.1"
           id="g41">
          <!-- color: #474747 -->
          <g
             id="g43">
            <path
               d="m 31 24 c 0 3.867 -3.133 7 -7 7 c -3.867 0 -7 -3.133 -7 -7 c 0 -3.867 3.133 -7 7 -7 c 3.867 0 7 3.133 7 7 m 0 0"
               fill="#000"
               stroke="none"
               fill-rule="nonzero"
               fill-opacity="1"
               id="path45" />
            <path
               d="m 400 0 c 0 220.91 -179.09 400 -400 400 c -220.91 0 -400 -179.09 -400 -400 c 0 -220.91 179.09 -400 400 -400 c 220.91 0 400 179.09 400 400 m 0 0"
               transform="matrix(0.03625,0,0,0.03625,24.000006,23.999994)"
               stroke-opacity="1"
               fill="#000"
               stroke="#f9f9f9"
               stroke-linejoin="miter"
               stroke-linecap="butt"
               stroke-width="27.586"
               stroke-miterlimit="4"
               id="path47" />
            <path
               d="m 25.1 9.727 c 0 0.594 -0.492 1.074 -1.098 1.074 c -0.605 0 -1.105 -0.48 -1.105 -1.074 c 0 -0.594 0.492 -1.074 1.105 -1.074 c 0.602 0 1.098 0.48 1.098 1.074 m 0 0"
               fill="#000"
               stroke="none"
               fill-rule="nonzero"
               fill-opacity="1"
               id="path49" />
            <path
               d="m 11.191 19.961 c 0 0.59 -0.488 1.07 -1.094 1.07 c -0.605 0 -1.098 -0.48 -1.098 -1.07 c 0 -0.594 0.492 -1.074 1.098 -1.074 c 0.605 0 1.094 0.48 1.094 1.074 m 0 0"
               fill="#000"
               stroke="none"
               fill-rule="nonzero"
               fill-opacity="1"
               id="path51" />
            <path
               d="m 39 19.961 c 0 0.59 -0.492 1.07 -1.098 1.07 c -0.605 0 -1.098 -0.48 -1.098 -1.07 c 0 -0.594 0.492 -1.074 1.098 -1.074 c 0.605 0 1.098 0.48 1.098 1.074 m 0 0"
               fill="#000"
               stroke="none"
               fill-rule="nonzero"
               fill-opacity="1"
               id="path53" />
            <path
               d="m 33.688 35.953 c 0 0.594 -0.488 1.074 -1.094 1.074 c -0.605 0 -1.098 -0.48 -1.098 -1.074 c 0 -0.59 0.492 -1.07 1.098 -1.07 c 0.605 0 1.094 0.48 1.094 1.07 m 0 0"
               fill="#000"
               stroke="none"
               fill-rule="nonzero"
               fill-opacity="1"
               id="path55" />
            <path
               d="m 16.504 35.953 c 0 0.594 -0.492 1.074 -1.098 1.074 c -0.605 0 -1.094 -0.48 -1.094 -1.074 c 0 -0.59 0.488 -1.07 1.094 -1.07 c 0.605 0 1.098 0.48 1.098 1.07 m 0 0"
               fill="#000"
               stroke="none"
               fill-rule="nonzero"
               fill-opacity="1"
               id="path57" />
            <path
               d="m 400 0 c 0 220.98 -179.02 400 -400 400 c -220.98 0 -400 -179.02 -400 -400 c 0 -220.98 179.02 -400 400 -400 c 220.98 0 400 179.02 400 400 m 0 0"
               transform="matrix(0.02625,0,0,0.02625,23.999995,24.000005)"
               stroke-opacity="1"
               fill="#000"
               stroke="#f9f9f9"
               stroke-linejoin="miter"
               stroke-linecap="butt"
               stroke-width="38.1"
               stroke-miterlimit="4"
               id="path59" />
            <path
               d="m 25.1 13.648 c 0 0.594 -0.492 1.074 -1.098 1.074 c -0.605 0 -1.105 -0.48 -1.105 -1.074 c 0 -0.59 0.492 -1.07 1.105 -1.07 c 0.602 0 1.098 0.48 1.098 1.07 m 0 0"
               fill="#000"
               stroke="none"
               fill-rule="nonzero"
               fill-opacity="1"
               id="path61" />
            <path
               d="m 25.1 34.527 c 0 0.594 -0.492 1.074 -1.098 1.074 c -0.605 0 -1.105 -0.48 -1.105 -1.074 c 0 -0.594 0.492 -1.074 1.105 -1.074 c 0.602 0 1.098 0.48 1.098 1.074 m 0 0"
               fill="#000"
               stroke="none"
               fill-rule="nonzero"
               fill-opacity="1"
               id="path63" />
          </g>
        </g>
      </g>
    </g>
  </g>
  <g
     id="g65">
    <g
       clip-path="url(#clipPath-584418093)"
       id="g67">
      <!-- color: #474747 -->
      <g
         id="g69">
        <path
           d="m 31 24 c 0 3.867 -3.133 7 -7 7 c -3.867 0 -7 -3.133 -7 -7 c 0 -3.867 3.133 -7 7 -7 c 3.867 0 7 3.133 7 7 m 0 0"
           fill="#7095c1"
           stroke="none"
           fill-rule="nonzero"
           fill-opacity="1"
           id="path71" />
        <path
           d="m 400 0 c 0 220.91 -179.09 400 -400 400 c -220.91 0 -400 -179.09 -400 -400 c 0 -220.91 179.09 -400 400 -400 c 220.91 0 400 179.09 400 400 m 0 0"
           transform="matrix(0.03625,0,0,0.03625,24.000006,23.999994)"
           stroke-opacity="1"
           fill="none"
           stroke="#f9f9f9"
           stroke-linejoin="miter"
           stroke-linecap="butt"
           stroke-width="27.586"
           stroke-miterlimit="4"
           id="path73" />
        <path
           d="m 25.1 9.727 c 0 0.594 -0.492 1.074 -1.098 1.074 c -0.605 0 -1.105 -0.48 -1.105 -1.074 c 0 -0.594 0.492 -1.074 1.105 -1.074 c 0.602 0 1.098 0.48 1.098 1.074 m 0 0"
           fill="#93b1d6"
           stroke="none"
           fill-rule="nonzero"
           fill-opacity="1"
           id="path75" />
        <path
           d="m 11.191 19.961 c 0 0.59 -0.488 1.07 -1.094 1.07 c -0.605 0 -1.098 -0.48 -1.098 -1.07 c 0 -0.594 0.492 -1.074 1.098 -1.074 c 0.605 0 1.094 0.48 1.094 1.074 m 0 0"
           fill="#93b1d6"
           stroke="none"
           fill-rule="nonzero"
           fill-opacity="1"
           id="path77" />
        <path
           d="m 39 19.961 c 0 0.59 -0.492 1.07 -1.098 1.07 c -0.605 0 -1.098 -0.48 -1.098 -1.07 c 0 -0.594 0.492 -1.074 1.098 -1.074 c 0.605 0 1.098 0.48 1.098 1.074 m 0 0"
           fill="#93b1d6"
           stroke="none"
           fill-rule="nonzero"
           fill-opacity="1"
           id="path79" />
        <path
           d="m 33.688 35.953 c 0 0.594 -0.488 1.074 -1.094 1.074 c -0.605 0 -1.098 -0.48 -1.098 -1.074 c 0 -0.59 0.492 -1.07 1.098 -1.07 c 0.605 0 1.094 0.48 1.094 1.07 m 0 0"
           fill="#93b1d6"
           stroke="none"
           fill-rule="nonzero"
           fill-opacity="1"
           id="path81" />
        <path
           d="m 16.504 35.953 c 0 0.594 -0.492 1.074 -1.098 1.074 c -0.605 0 -1.094 -0.48 -1.094 -1.074 c 0 -0.59 0.488 -1.07 1.094 -1.07 c 0.605 0 1.098 0.48 1.098 1.07 m 0 0"
           fill="#93b1d6"
           stroke="none"
           fill-rule="nonzero"
           fill-opacity="1"
           id="path83" />
        <path
           d="m 400 0 c 0 220.98 -179.02 400 -400 400 c -220.98 0 -400 -179.02 -400 -400 c 0 -220.98 179.02 -400 400 -400 c 220.98 0 400 179.02 400 400 m 0 0"
           transform="matrix(0.02625,0,0,0.02625,23.999995,24.000005)"
           stroke-opacity="1"
           fill="none"
           stroke="#f9f9f9"
           stroke-linejoin="miter"
           stroke-linecap="butt"
           stroke-width="38.1"
           stroke-miterlimit="4"
           id="path85" />
        <path
           d="m 25.1 13.648 c 0 0.594 -0.492 1.074 -1.098 1.074 c -0.605 0 -1.105 -0.48 -1.105 -1.074 c 0 -0.59 0.492 -1.07 1.105 -1.07 c 0.602 0 1.098 0.48 1.098 1.07 m 0 0"
           fill="#93b1d6"
           stroke="none"
           fill-rule="nonzero"
           fill-opacity="1"
           id="path87" />
        <path
           d="m 25.1 34.527 c 0 0.594 -0.492 1.074 -1.098 1.074 c -0.605 0 -1.105 -0.48 -1.105 -1.074 c 0 -0.594 0.492 -1.074 1.105 -1.074 c 0.602 0 1.098 0.48 1.098 1.074 m 0 0"
           fill="#93b1d6"
           stroke="none"
           fill-rule="nonzero"
           fill-opacity="1"
           id="path89" />
      </g>
    </g>
  </g>
</svg>
