<?xml version="1.0" encoding="UTF-8" standalone="no"?>
<!-- Created with Inkscape (http://www.inkscape.org/) -->

<svg
   xmlns:dc="http://purl.org/dc/elements/1.1/"
   xmlns:cc="http://creativecommons.org/ns#"
   xmlns:rdf="http://www.w3.org/1999/02/22-rdf-syntax-ns#"
   xmlns:svg="http://www.w3.org/2000/svg"
   xmlns="http://www.w3.org/2000/svg"
   xmlns:xlink="http://www.w3.org/1999/xlink"
   xmlns:sodipodi="http://sodipodi.sourceforge.net/DTD/sodipodi-0.dtd"
   xmlns:inkscape="http://www.inkscape.org/namespaces/inkscape"
   version="1.0"
   width="48"
   height="48"
   id="svg2408"
   inkscape:version="0.48.4 r9939"
   sodipodi:docname="openbravo-erp.svg">
  <sodipodi:namedview
     pagecolor="#ffffff"
     bordercolor="#666666"
     borderopacity="1"
     objecttolerance="10"
     gridtolerance="10"
     guidetolerance="10"
     inkscape:pageopacity="0"
     inkscape:pageshadow="2"
     inkscape:window-width="1301"
     inkscape:window-height="744"
     id="namedview64"
     showgrid="true"
     inkscape:snap-bbox="true"
     inkscape:zoom="4.9166667"
     inkscape:cx="0.69349949"
     inkscape:cy="28.499775"
     inkscape:window-x="65"
     inkscape:window-y="24"
     inkscape:window-maximized="1"
     inkscape:current-layer="svg2408">
    <inkscape:grid
       type="xygrid"
       id="grid3124"
       empspacing="5"
       visible="true"
       enabled="true"
       snapvisiblegridlinesonly="true" />
  </sodipodi:namedview>
  <defs
     id="defs2410">
    <linearGradient
       id="linearGradient4018">
      <stop
         id="stop4020"
         style="stop-color:#ffffff;stop-opacity:1"
         offset="0" />
      <stop
         id="stop4026"
         style="stop-color:#ffffff;stop-opacity:0.49803922"
         offset="0.69999999" />
      <stop
         id="stop4022"
         style="stop-color:#ffffff;stop-opacity:0"
         offset="1" />
    </linearGradient>
    <linearGradient
       id="linearGradient3940">
      <stop
         id="stop3942"
         style="stop-color:#34870c;stop-opacity:1"
         offset="0" />
      <stop
         id="stop3944"
         style="stop-color:#a0ce72;stop-opacity:1"
         offset="1" />
    </linearGradient>
    <linearGradient
       x1="45.447727"
       y1="92.539597"
       x2="45.447727"
       y2="7.0165396"
       id="ButtonShadow"
       gradientUnits="userSpaceOnUse"
       gradientTransform="scale(1.0058652,0.994169)">
      <stop
         id="stop3750"
         style="stop-color:#000000;stop-opacity:1"
         offset="0" />
      <stop
         id="stop3752"
         style="stop-color:#000000;stop-opacity:0.58823532"
         offset="1" />
    </linearGradient>
    <linearGradient
       id="linearGradient3737">
      <stop
         id="stop3739"
         style="stop-color:#ffffff;stop-opacity:1"
         offset="0" />
      <stop
         id="stop3741"
         style="stop-color:#ffffff;stop-opacity:0"
         offset="1" />
    </linearGradient>
    <linearGradient
       id="linearGradient3700">
      <stop
         id="stop3702"
         style="stop-color:#e7e7e7;stop-opacity:1;"
         offset="0" />
      <stop
         id="stop3704"
         style="stop-color:#fafafa;stop-opacity:1;"
         offset="1" />
    </linearGradient>
    <filter
       color-interpolation-filters="sRGB"
       id="filter3174">
      <feGaussianBlur
         id="feGaussianBlur3176"
         stdDeviation="1.71" />
    </filter>
    <linearGradient
       x1="36.357143"
       y1="6"
       x2="36.357143"
       y2="63.893143"
       id="linearGradient3188"
       xlink:href="#linearGradient3737"
       gradientUnits="userSpaceOnUse" />
    <filter
       x="-0.192"
       y="-0.192"
       width="1.3839999"
       height="1.3839999"
       color-interpolation-filters="sRGB"
       id="filter3794">
      <feGaussianBlur
         id="feGaussianBlur3796"
         stdDeviation="5.28" />
    </filter>
    <linearGradient
       x1="48"
       y1="20.220806"
       x2="48"
       y2="138.66119"
       id="linearGradient3613"
       xlink:href="#linearGradient3737"
       gradientUnits="userSpaceOnUse" />
    <radialGradient
       cx="48"
       cy="90.171875"
       r="42"
       fx="48"
       fy="90.171875"
       id="radialGradient3619"
       xlink:href="#linearGradient3737"
       gradientUnits="userSpaceOnUse"
       gradientTransform="matrix(1.1573129,0,0,0.99590774,-7.5510206,0.19713193)" />
    <clipPath
       id="clipPath3613">
      <rect
         width="84"
         height="84"
         rx="6"
         ry="6"
         x="6"
         y="6"
         id="rect3615"
         style="fill:#ffffff;fill-opacity:1;fill-rule:nonzero;stroke:none" />
    </clipPath>
    <linearGradient
       x1="48"
       y1="90"
       x2="48"
       y2="5.9877172"
       id="linearGradient3617"
       xlink:href="#linearGradient3700"
       gradientUnits="userSpaceOnUse" />
    <linearGradient
       x1="45.447727"
       y1="92.539597"
       x2="45.447727"
       y2="7.0165396"
       id="ButtonShadow-0"
       gradientUnits="userSpaceOnUse"
       gradientTransform="matrix(1.0058652,0,0,0.994169,100,0)">
      <stop
         id="stop3750-8"
         style="stop-color:#000000;stop-opacity:1"
         offset="0" />
      <stop
         id="stop3752-5"
         style="stop-color:#000000;stop-opacity:0.58823532"
         offset="1" />
    </linearGradient>
    <linearGradient
       x1="32.251034"
       y1="6.1317081"
       x2="32.251034"
       y2="90.238609"
       id="linearGradient3780"
       xlink:href="#ButtonShadow-0"
       gradientUnits="userSpaceOnUse"
       gradientTransform="matrix(1.0238095,0,0,1.0119048,-1.1428571,-98.071429)" />
    <linearGradient
       x1="32.251034"
       y1="6.1317081"
       x2="32.251034"
       y2="90.238609"
       id="linearGradient3772"
       xlink:href="#ButtonShadow-0"
       gradientUnits="userSpaceOnUse"
       gradientTransform="matrix(1.0238095,0,0,1.0119048,-1.1428571,-98.071429)" />
    <linearGradient
       x1="32.251034"
       y1="6.1317081"
       x2="32.251034"
       y2="90.238609"
       id="linearGradient3725"
       xlink:href="#ButtonShadow-0"
       gradientUnits="userSpaceOnUse"
       gradientTransform="matrix(1.0238095,0,0,1.0119048,-1.1428571,-98.071429)" />
    <linearGradient
       x1="32.251034"
       y1="6.1317081"
       x2="32.251034"
       y2="90.238609"
       id="linearGradient3721"
       xlink:href="#ButtonShadow-0"
       gradientUnits="userSpaceOnUse"
       gradientTransform="translate(0,-97)" />
    <linearGradient
       x1="32.251034"
       y1="6.1317081"
       x2="32.251034"
       y2="90.238609"
       id="linearGradient3026"
       xlink:href="#ButtonShadow-0"
       gradientUnits="userSpaceOnUse"
       gradientTransform="matrix(1.0238095,0,0,1.0119048,-1.1428571,-98.071429)" />
    <linearGradient
       x1="40"
       y1="64"
       x2="88"
       y2="40"
       id="linearGradient3977"
       xlink:href="#linearGradient3940"
       gradientUnits="userSpaceOnUse" />
    <linearGradient
       x1="40"
       y1="64"
       x2="88"
       y2="40"
       id="linearGradient3979"
       xlink:href="#linearGradient3940"
       gradientUnits="userSpaceOnUse"
       gradientTransform="matrix(0,-1,1,0,-8,104)" />
    <radialGradient
       cx="48"
       cy="48"
       r="32"
       fx="48"
       fy="48"
       id="radialGradient4024"
       xlink:href="#linearGradient4018"
       gradientUnits="userSpaceOnUse" />
    <linearGradient
       inkscape:collect="always"
       xlink:href="#linearGradient3940"
       id="linearGradient3085"
       gradientUnits="userSpaceOnUse"
       gradientTransform="matrix(0,-0.47619047,0.47619047,0,-2.6666667,50.666667)"
       x1="40"
       y1="64"
       x2="88"
       y2="40" />
    <radialGradient
       inkscape:collect="always"
       xlink:href="#linearGradient4018"
       id="radialGradient3088"
       gradientUnits="userSpaceOnUse"
       cx="48"
       cy="48"
       fx="48"
       fy="48"
       r="32"
       gradientTransform="matrix(0.47619047,0,0,0.47619047,1.1428572,1.1428573)" />
    <linearGradient
       inkscape:collect="always"
       xlink:href="#linearGradient3700"
       id="linearGradient3097"
       gradientUnits="userSpaceOnUse"
       x1="5"
       y1="41"
       x2="90"
       y2="41"
       gradientTransform="matrix(0.47619047,0,0,0.47619047,1.1428572,1.1428573)" />
  </defs>
  <metadata
     id="metadata2413">
    <rdf:RDF>
      <cc:Work
         rdf:about="">
        <dc:format>image/svg+xml</dc:format>
        <dc:type
           rdf:resource="http://purl.org/dc/dcmitype/StillImage" />
        <dc:title />
      </cc:Work>
    </rdf:RDF>
  </metadata>
  <g
     id="layer2"
     style="display:none"
     transform="translate(0,-48)">
    <rect
       width="86"
       height="85"
       rx="6"
       ry="6"
       x="5"
       y="7"
       id="rect3745"
       style="opacity:0.9;fill:url(#ButtonShadow);fill-opacity:1;fill-rule:nonzero;stroke:none;filter:url(#filter3174)" />
  </g>
  <rect
     style="fill:url(#linearGradient3097);fill-opacity:1;fill-rule:nonzero;stroke:none"
     id="rect2419"
     y="4"
     x="4"
     ry="0"
     rx="0"
     height="40"
     width="40" />
  <path
     inkscape:connector-curvature="0"
     style="color:#000000;fill:url(#radialGradient3088);fill-opacity:1;fill-rule:nonzero;stroke:none;stroke-width:3;marker:none;visibility:visible;display:inline;overflow:visible;enable-background:accumulate"
     id="path4016"
     d="M 39.238096,24 A 15.238096,15.238096 0 0 1 8.7619053,24 15.238096,15.238096 0 1 1 39.238096,24 z" />
  <path
     style="color:#000000;fill:url(#linearGradient3085);fill-opacity:1;fill-rule:nonzero;stroke:none;stroke-width:3;marker:none;visibility:visible;display:inline;overflow:visible;enable-background:accumulate"
     id="path3938"
     inkscape:connector-curvature="0"
     d="m 24,8.7619048 c -1.661708,0 -3.264696,0.2672138 -4.761904,0.7589286 l 0,14.4791666 c 0,2.629927 2.131977,4.761904 4.761904,4.761904 2.629927,0 4.761905,-2.131977 4.761905,-4.761904 0,-2.629927 -2.131978,-4.761905 -4.761905,-4.761905 l 0,-4.761904 c 5.259855,0 9.523809,4.263954 9.523809,9.523809 0,5.259855 -4.263954,9.523809 -9.523809,9.523809 -5.259855,0 -9.523809,-4.263954 -9.523809,-9.523809 l 0,-11.88988 C 10.995103,14.902818 8.7619053,19.189912 8.7619053,24 8.7619053,32.415767 15.584233,39.238095 24,39.238095 32.415767,39.238095 39.238096,32.415767 39.238096,24 39.238096,15.584233 32.415767,8.7619048 24,8.7619048 z" />
  <path
     style="opacity:0.7;color:#000000;fill:#ffffff;fill-opacity:1;fill-rule:nonzero;stroke:none;stroke-width:3;marker:none;visibility:visible;display:inline;overflow:visible;enable-background:accumulate"
     id="path3982"
     inkscape:connector-curvature="0"
     d="m 24,14.476191 0,0.47619 c 5.180233,0 9.397408,4.135914 9.523809,9.285715 0.002,-0.07915 0,-0.158474 0,-0.238096 0,-5.259855 -4.263954,-9.523809 -9.523809,-9.523809 z M 19.238096,24 l 0,0.476191 c 0,2.629927 2.131977,4.761904 4.761904,4.761904 2.629927,0 4.761905,-2.131977 4.761905,-4.761904 0,-0.07971 -0.01101,-0.159352 -0.01488,-0.238095 -0.123854,2.5195 -2.196801,4.523808 -4.747024,4.523808 -2.629928,0 -4.761904,-2.131977 -4.761904,-4.761904 z m 20,0.238096 C 39.111093,32.544265 32.336402,39.238095 24,39.238095 c -8.31656,0 -15.0798632,-6.661758 -15.2380947,-14.940476 -7.148e-4,0.05989 0,0.118513 0,0.178572 0,8.415767 6.8223277,15.238095 15.2380947,15.238095 8.415767,0 15.238096,-6.822328 15.238096,-15.238095 0,-0.07937 0.0012,-0.159018 0,-0.238095 z" />
  <path
     style="opacity:0.3;color:#000000;fill:#000000;fill-opacity:1;fill-rule:nonzero;stroke:none;stroke-width:3;marker:none;visibility:visible;display:inline;overflow:visible;enable-background:accumulate"
     id="path4000"
     inkscape:connector-curvature="0"
     d="m 24,8.7619048 c -1.661708,0 -3.264696,0.2672138 -4.761904,0.7589286 l 0,0.4761905 C 20.735304,9.5053092 22.338292,9.2380954 24,9.2380954 c 8.336402,0 15.111093,6.6938286 15.238096,15.0000006 0.0013,-0.07907 0,-0.158731 0,-0.238096 C 39.238096,15.584233 32.415767,8.7619048 24,8.7619048 z M 14.476191,12.11012 C 10.995103,14.902818 8.7619053,19.189912 8.7619053,24 c 0,0.09921 -0.00189,0.198863 0,0.297619 0.054926,-4.736982 2.2766637,-8.95348 5.7142857,-11.71131 l 0,-0.476189 z M 24,19.238095 l 0,0.47619 c 2.550223,0 4.623169,2.00431 4.747024,4.523811 0.0039,-0.07875 0.01488,-0.158393 0.01488,-0.238096 0,-2.629927 -2.131977,-4.761905 -4.761905,-4.761905 z M 14.476191,24 l 0,0.476191 C 14.476191,29.736045 18.740145,34 24,34 c 5.259855,0 9.523809,-4.263955 9.523809,-9.523809 0,-0.07962 0.002,-0.158942 0,-0.238095 -0.126401,5.1498 -4.343576,9.285713 -9.523809,9.285713 -5.259855,0 -9.523809,-4.263954 -9.523809,-9.523809 z" />
  <g
     id="layer5"
     style="display:none"
     transform="translate(0,-48)">
    <rect
       width="66"
       height="66"
       rx="12"
       ry="12"
       x="15"
       y="15"
       clip-path="url(#clipPath3613)"
       id="rect3171"
       style="opacity:0.1;fill:url(#linearGradient3613);fill-opacity:1;fill-rule:nonzero;stroke:#ffffff;stroke-width:0.5;stroke-linecap:round;stroke-linejoin:miter;stroke-miterlimit:4;stroke-opacity:1;stroke-dasharray:none;stroke-dashoffset:0;filter:url(#filter3794)" />
  </g>
  <path
     style="opacity:0.5;fill:#000000;fill-opacity:1;stroke:none"
     d="m 4,44 0,0 c 20,-1 20,-1 40,0 z"
     id="path3257"
     inkscape:connector-curvature="0"
     sodipodi:nodetypes="cccc" />
  <path
     sodipodi:nodetypes="cccc"
     inkscape:connector-curvature="0"
     id="path4027"
     d="M 4,4 4,4 C 24,5 24,5 44,4 z"
     style="opacity:0.75;fill:#ffffff;fill-opacity:1;stroke:none" />
</svg>
