<?xml version="1.0" encoding="UTF-8" standalone="no"?>
<svg
   xmlns:dc="http://purl.org/dc/elements/1.1/"
   xmlns:cc="http://creativecommons.org/ns#"
   xmlns:rdf="http://www.w3.org/1999/02/22-rdf-syntax-ns#"
   xmlns:svg="http://www.w3.org/2000/svg"
   xmlns="http://www.w3.org/2000/svg"
   xmlns:xlink="http://www.w3.org/1999/xlink"
   xmlns:sodipodi="http://sodipodi.sourceforge.net/DTD/sodipodi-0.dtd"
   xmlns:inkscape="http://www.inkscape.org/namespaces/inkscape"
   width="48"
   viewBox="0 0 13.546667 13.546667"
   height="48"
   id="svg2"
   version="1.1"
   inkscape:version="0.48.5 r10040"
   sodipodi:docname="openscad.svg">
  <metadata
     id="metadata331">
    <rdf:RDF>
      <cc:Work
         rdf:about="">
        <dc:format>image/svg+xml</dc:format>
        <dc:type
           rdf:resource="http://purl.org/dc/dcmitype/StillImage" />
        <dc:title />
      </cc:Work>
    </rdf:RDF>
  </metadata>
  <sodipodi:namedview
     pagecolor="#ffffff"
     bordercolor="#666666"
     borderopacity="1"
     objecttolerance="10"
     gridtolerance="10"
     guidetolerance="10"
     inkscape:pageopacity="0"
     inkscape:pageshadow="2"
     inkscape:window-width="1301"
     inkscape:window-height="744"
     id="namedview329"
     showgrid="true"
     inkscape:zoom="5.9575001"
     inkscape:cx="35.805103"
     inkscape:cy="46.714505"
     inkscape:window-x="65"
     inkscape:window-y="24"
     inkscape:window-maximized="1"
     inkscape:current-layer="layer3"
     showguides="true"
     inkscape:guide-bbox="true">
    <inkscape:grid
       type="xygrid"
       id="grid3308" />
  </sodipodi:namedview>
  <defs
     id="defs4">
    <linearGradient
       id="linearGradient4085">
      <stop
         id="stop4087"
         offset="0"
         style="stop-color:#ffddbc;stop-opacity:1;" />
      <stop
         id="stop4089"
         offset="1"
         style="stop-color:#fff3e9;stop-opacity:1;" />
    </linearGradient>
    <linearGradient
       inkscape:collect="always"
       xlink:href="#linearGradient3200"
       id="linearGradient4033"
       x1="-27"
       y1="13"
       x2="-24"
       y2="13"
       gradientUnits="userSpaceOnUse" />
    <linearGradient
       id="linearGradient3200">
      <stop
         id="stop3202"
         offset="0"
         style="stop-color:#fefefe;stop-opacity:1;" />
      <stop
         id="stop3204"
         offset="1"
         style="stop-color:#e2e2e2;stop-opacity:1;" />
    </linearGradient>
    <linearGradient
       y2="1028.3622"
       x2="44"
       y1="1028.3622"
       x1="4"
       gradientTransform="matrix(0.28222223,0,0,0.28222223,0,-283.45333)"
       gradientUnits="userSpaceOnUse"
       id="linearGradient3019-5"
       xlink:href="#linearGradient4085"
       inkscape:collect="always" />
  </defs>
  <g
     inkscape:groupmode="layer"
     id="layer3"
     inkscape:label="Symbol">
    <rect
       style="fill:url(#linearGradient3019-5);fill-opacity:1.0;stroke:none"
       id="rect3758"
       width="11.288889"
       height="11.288889"
       x="1.128889"
       y="1.128889"
       ry="0" />
    <path
       style="opacity:0.35;fill:#000000;fill-opacity:1;stroke:none"
       d="m 1.1288892,12.417698 11.2888878,8.5e-5 c -5.6444432,-0.282222 -5.6444432,-0.282222 -11.2888881,0 z"
       id="path3800"
       inkscape:connector-curvature="0"
       sodipodi:nodetypes="cccc" />
    <path
       sodipodi:nodetypes="cccc"
       inkscape:connector-curvature="0"
       id="path3804"
       d="m 1.1288902,1.1288658 11.2888868,-5.65e-5 c -5.6444421,0.2822223 -5.6444421,0.2822223 -11.2888872,0 z"
       style="opacity:0.75;fill:#ffffff;fill-opacity:1;stroke:none" />
    <g
       id="g4772"
       transform="matrix(0.28222223,0,0,0.28222223,0.28222216,0.56444443)"
       style="opacity:0.1">
      <path
         style="fill:#000000;fill-opacity:1;stroke:none"
         d="m 13,20 0,6 11,0 c -1.656854,0 -3,-1.343146 -3,-3 0,-1.656854 1.343146,-3 3,-3 l -11,0 z m 11,0 c 1.656854,0 3,1.343146 3,3 0,1.656854 -1.343146,3 -3,3 l 11,0 0,-6 -11,0 z"
         id="path4764"
         inkscape:connector-curvature="0" />
      <path
         sodipodi:type="arc"
         style="fill:#000000;fill-opacity:1;stroke:none"
         id="path4766"
         sodipodi:cx="-31"
         sodipodi:cy="7.5"
         sodipodi:rx="3"
         sodipodi:ry="4.5"
         d="m -28,7.5 c 0,2.4852814 -1.343146,4.5 -3,4.5 -1.656854,0 -3,-2.0147186 -3,-4.5 0,-2.4852814 1.343146,-4.5 3,-4.5 1.656854,0 3,2.0147186 3,4.5 z"
         transform="matrix(0.66666667,0,0,0.66666667,33.666667,18)" />
      <path
         transform="matrix(0.66666667,0,0,0.66666667,55.666667,18)"
         d="m -28,7.5 c 0,2.4852814 -1.343146,4.5 -3,4.5 -1.656854,0 -3,-2.0147186 -3,-4.5 0,-2.4852814 1.343146,-4.5 3,-4.5 1.656854,0 3,2.0147186 3,4.5 z"
         sodipodi:ry="4.5"
         sodipodi:rx="3"
         sodipodi:cy="7.5"
         sodipodi:cx="-31"
         id="path4768"
         style="fill:#000000;fill-opacity:1;stroke:none"
         sodipodi:type="arc" />
      <path
         style="fill:#000000;fill-opacity:1;stroke:none"
         d="m 24,15 c -4.418278,0 -8,3.581722 -8,8 0,4.418278 3.581722,8 8,8 4.418278,0 8,-3.581722 8,-8 0,-4.418278 -3.581722,-8 -8,-8 z m 0,5 c 1.656854,0 3,1.343146 3,3 0,1.656854 -1.343146,3 -3,3 -1.656854,0 -3,-1.343146 -3,-3 0,-1.656854 1.343146,-3 3,-3 z"
         id="path4770"
         inkscape:connector-curvature="0" />
    </g>
    <path
       inkscape:connector-curvature="0"
       style="fill:#fc5c74;fill-opacity:1;stroke:none"
       d="m 3.6688888,5.9266667 0,1.6933334 3.1044446,0 c -0.4676011,0 -0.8466668,-0.3790656 -0.8466668,-0.8466667 0,-0.467601 0.3790657,-0.8466667 0.8466668,-0.8466667 l -3.1044446,0 z m 3.1044446,0 c 0.467601,0 0.8466667,0.3790657 0.8466667,0.8466667 0,0.4676011 -0.3790657,0.8466667 -0.8466667,0.8466667 l 3.1044445,0 0,-1.6933334 -3.1044445,0 z"
       id="rect4724" />
    <path
       sodipodi:type="arc"
       style="fill:#d94c47;fill-opacity:1;stroke:none"
       id="path4726"
       sodipodi:cx="-31"
       sodipodi:cy="7.5"
       sodipodi:rx="3"
       sodipodi:ry="4.5"
       d="m -28,7.5 a 3,4.5 0 1 1 -6,0 3,4.5 0 1 1 6,0 z"
       transform="matrix(0.18814815,0,0,0.18814815,9.5014817,5.3622223)" />
    <path
       transform="matrix(0.18814815,0,0,0.18814815,15.71037,5.3622223)"
       d="m -28,7.5 a 3,4.5 0 1 1 -6,0 3,4.5 0 1 1 6,0 z"
       sodipodi:ry="4.5"
       sodipodi:rx="3"
       sodipodi:cy="7.5"
       sodipodi:cx="-31"
       id="path4728"
       style="fill:#d94c47;fill-opacity:1;stroke:none"
       sodipodi:type="arc" />
    <path
       inkscape:connector-curvature="0"
       style="fill:#ffc100;fill-opacity:1;stroke:none"
       d="m 6.7733334,4.5155556 c -1.2469363,0 -2.2577779,1.0108416 -2.2577779,2.2577778 0,1.2469363 1.0108416,2.2577784 2.2577779,2.2577784 1.2469362,0 2.2577778,-1.0108421 2.2577778,-2.2577784 0,-1.2469362 -1.0108416,-2.2577778 -2.2577778,-2.2577778 z m 0,1.4111111 c 0.467601,0 0.8466667,0.3790657 0.8466667,0.8466667 0,0.4676011 -0.3790657,0.8466667 -0.8466667,0.8466667 -0.4676011,0 -0.8466668,-0.3790656 -0.8466668,-0.8466667 0,-0.467601 0.3790657,-0.8466667 0.8466668,-0.8466667 z"
       id="path4730" />
  </g>
</svg>
