<?xml version="1.0" encoding="UTF-8" standalone="no"?>
<svg
   xmlns:dc="http://purl.org/dc/elements/1.1/"
   xmlns:cc="http://creativecommons.org/ns#"
   xmlns:rdf="http://www.w3.org/1999/02/22-rdf-syntax-ns#"
   xmlns:svg="http://www.w3.org/2000/svg"
   xmlns="http://www.w3.org/2000/svg"
   xmlns:xlink="http://www.w3.org/1999/xlink"
   xmlns:sodipodi="http://sodipodi.sourceforge.net/DTD/sodipodi-0.dtd"
   xmlns:inkscape="http://www.inkscape.org/namespaces/inkscape"
   viewBox="0 0 48 48"
   id="svg2"
   version="1.1"
   inkscape:version="0.48.5 r10040"
   width="100%"
   height="100%"
   sodipodi:docname="patchage.svg">
  <metadata
     id="metadata105">
    <rdf:RDF>
      <cc:Work
         rdf:about="">
        <dc:format>image/svg+xml</dc:format>
        <dc:type
           rdf:resource="http://purl.org/dc/dcmitype/StillImage" />
      </cc:Work>
    </rdf:RDF>
  </metadata>
  <sodipodi:namedview
     pagecolor="#ffffff"
     bordercolor="#666666"
     borderopacity="1"
     objecttolerance="10"
     gridtolerance="10"
     guidetolerance="10"
     inkscape:pageopacity="0"
     inkscape:pageshadow="2"
     inkscape:window-width="1301"
     inkscape:window-height="744"
     id="namedview103"
     showgrid="true"
     inkscape:zoom="8.1611908"
     inkscape:cx="15.826581"
     inkscape:cy="25.739575"
     inkscape:window-x="65"
     inkscape:window-y="24"
     inkscape:window-maximized="1"
     inkscape:current-layer="svg2">
    <inkscape:grid
       type="xygrid"
       id="grid3103" />
  </sodipodi:namedview>
  <defs
     id="defs4">
    <linearGradient
       id="linearGradient3764"
       x1="1"
       x2="47"
       gradientUnits="userSpaceOnUse"
       gradientTransform="matrix(0,-1,1,0,-1.5e-6,47.999998)">
      <stop
         stop-color="#3d3d3d"
         stop-opacity="1"
         id="stop7" />
      <stop
         offset="1"
         stop-color="#474747"
         stop-opacity="1"
         id="stop9"
         style="stop-color:#676767;stop-opacity:1;" />
    </linearGradient>
    <clipPath
       id="clipPath-943541846">
      <g
         transform="translate(0,-1004.3622)"
         id="g12">
        <path
           d="m -24 13 c 0 1.105 -0.672 2 -1.5 2 -0.828 0 -1.5 -0.895 -1.5 -2 0 -1.105 0.672 -2 1.5 -2 0.828 0 1.5 0.895 1.5 2 z"
           transform="matrix(15.333333,0,0,11.5,414.99999,878.8622)"
           fill="#1890d0"
           id="path14" />
      </g>
    </clipPath>
    <clipPath
       id="clipPath-955348615">
      <g
         transform="translate(0,-1004.3622)"
         id="g17">
        <path
           d="m -24 13 c 0 1.105 -0.672 2 -1.5 2 -0.828 0 -1.5 -0.895 -1.5 -2 0 -1.105 0.672 -2 1.5 -2 0.828 0 1.5 0.895 1.5 2 z"
           transform="matrix(15.333333,0,0,11.5,414.99999,878.8622)"
           fill="#1890d0"
           id="path19" />
      </g>
    </clipPath>
    <linearGradient
       y2="1028.3622"
       x2="44"
       y1="1028.3622"
       x1="4"
       gradientTransform="translate(-2.4963379e-7,-1004.3621)"
       gradientUnits="userSpaceOnUse"
       id="linearGradient3019"
       xlink:href="#linearGradient3764"
       inkscape:collect="always" />
  </defs>
  <rect
     style="fill:url(#linearGradient3019);fill-opacity:1.0;stroke:none"
     id="rect3758"
     width="40"
     height="40"
     x="4"
     y="4"
     ry="0" />
  <path
     style="opacity:0.35;fill:#000000;fill-opacity:1;stroke:none"
     d="m 4.000001,43.999718 39.999996,3e-4 c -19.999997,-1 -19.999997,-1 -39.9999974,0 z"
     id="path3800"
     inkscape:connector-curvature="0"
     sodipodi:nodetypes="cccc" />
  <path
     sodipodi:nodetypes="cccc"
     inkscape:connector-curvature="0"
     id="path3804"
     d="M 4.0000045,3.9999175 44,3.9997175 c -19.999996,1 -19.999996,1 -39.9999969,0 z"
     style="opacity:0.75;fill:#ffffff;fill-opacity:1;stroke:none" />
  <g
     id="g33" />
  <g
     id="g35">
    <g
       clip-path="url(#clipPath-943541846)"
       id="g37">
      <g
         transform="translate(1,1)"
         id="g39">
        <g
           opacity="0.1"
           id="g41">
          <!-- color: #474747 -->
          <g
             id="g43">
            <path
               d="m 23 33 l 1 0 l 0 3 l -1 0 m 0 -3"
               fill="#000"
               stroke="none"
               fill-rule="nonzero"
               fill-opacity="1"
               id="path45" />
            <path
               d="m 25 33 l 1 0 l 0 3 l -1 0 m 0 -3"
               fill="#000"
               stroke="none"
               fill-rule="nonzero"
               fill-opacity="1"
               id="path47" />
            <path
               d="m 23 27 l 0 2 l -1 0 l 0 4 l 5 0 l 0 -4 l -1 0 l 0 -2 l -1 0 l 0 2 l -1 0 l 0 -2 m -1 0"
               fill="#000"
               stroke="none"
               fill-rule="nonzero"
               fill-opacity="1"
               id="path49" />
            <path
               d="m 23 34 l 1 0 l 0 1 l -1 0 m 0 -1"
               fill="#000"
               stroke="none"
               fill-rule="nonzero"
               fill-opacity="1"
               id="path51" />
            <path
               d="m 25 34 l 1 0 l 0 1 l -1 0 m 0 -1"
               fill="#000"
               stroke="none"
               fill-rule="nonzero"
               fill-opacity="1"
               id="path53" />
            <path
               d="m 15 22 l 0 1 l -3 0 l 0 -1 m 3 0"
               fill="#000"
               stroke="none"
               fill-rule="nonzero"
               fill-opacity="1"
               id="path55" />
            <path
               d="m 15 24 l 0 0.996 l -3 0 l 0 -0.996 m 3 0"
               fill="#000"
               stroke="none"
               fill-rule="nonzero"
               fill-opacity="1"
               id="path57" />
            <path
               d="m 15 21 l 0 5 l 4 0 l 0 -1 l 2 0 l 0 -1 l -2 0 l 0 -1 l 2 0 l 0 -1 l -2 0 l 0 -1 m -4 0"
               fill="#000"
               stroke="none"
               fill-rule="nonzero"
               fill-opacity="1"
               id="path59" />
            <path
               d="m 14 22 l 0 1 l -1 0 l 0 -1 m 1 0"
               fill="#000"
               stroke="none"
               fill-rule="nonzero"
               fill-opacity="1"
               id="path61" />
            <path
               d="m 14 24 l 0 0.996 l -1 0 l 0 -0.996 m 1 0"
               fill="#000"
               stroke="none"
               fill-rule="nonzero"
               fill-opacity="1"
               id="path63" />
            <path
               d="m 29.5 12 c -4.719 -0.008 -6.5 3.383 -6.5 6 l 0 6 l -2 0 l 0 1 l 2 0 l 0 2 l 1 0 l 0 -2 l 6 0 c 2.867 -0.07 6.04 -1.527 6 -6.438 c 0 -2.563 -2.098 -6.578 -6.5 -6.563 m 0 1 c 2.5 0 5.5 2.27 5.5 5.531 c -0.055 3.59 -1.914 5.379 -5.469 5.469 l -5.531 0 l 0 -5.5 c -0.039 -3.707 2.699 -5.523 5.5 -5.5 m 0 0"
               fill="#000"
               stroke="none"
               fill-rule="nonzero"
               fill-opacity="1"
               id="path65" />
            <path
               d="m 29.406 14 c -2.246 0.016 -4.406 2 -4.406 4 l 0 4 l -4 0 l 0 1 l 4 0 l 0 4 l 1 0 l 0 -4 l 3 0 c 1.574 0.066 5 -0.547 5 -4.469 c 0 -1.754 -1.777 -4.531 -4.594 -4.531 m 0.031 1 c 1.727 0 3.563 1.867 3.563 3.469 c 0.043 3.188 -2.203 3.531 -4.438 3.531 l -2.563 0 l 0 -3.438 c 0 -2.227 1.734 -3.563 3.438 -3.563 m 0 0"
               fill="#000"
               stroke="none"
               fill-rule="nonzero"
               fill-opacity="1"
               id="path67" />
          </g>
        </g>
      </g>
    </g>
  </g>
  <g
     id="g69">
    <g
       clip-path="url(#clipPath-955348615)"
       id="g71">
      <!-- color: #474747 -->
      <g
         id="g73">
        <path
           d="m 23 33 l 1 0 l 0 3 l -1 0 m 0 -3"
           fill="#9c9c9c"
           stroke="none"
           fill-rule="nonzero"
           fill-opacity="1"
           id="path75" />
        <path
           d="m 25 33 l 1 0 l 0 3 l -1 0 m 0 -3"
           fill="#9c9c9c"
           stroke="none"
           fill-rule="nonzero"
           fill-opacity="1"
           id="path77" />
        <path
           d="m 23 27 l 0 2 l -1 0 l 0 4 l 5 0 l 0 -4 l -1 0 l 0 -2 l -1 0 l 0 2 l -1 0 l 0 -2 m -1 0"
           fill="#121212"
           stroke="none"
           fill-rule="nonzero"
           fill-opacity="1"
           id="path79" />
        <path
           d="m 23 34 l 1 0 l 0 1 l -1 0 m 0 -1"
           fill="#868686"
           stroke="none"
           fill-rule="nonzero"
           fill-opacity="1"
           id="path81" />
        <path
           d="m 25 34 l 1 0 l 0 1 l -1 0 m 0 -1"
           fill="#868686"
           stroke="none"
           fill-rule="nonzero"
           fill-opacity="1"
           id="path83" />
        <path
           d="m 15 22 l 0 1 l -3 0 l 0 -1 m 3 0"
           fill="#9c9c9c"
           stroke="none"
           fill-rule="nonzero"
           fill-opacity="1"
           id="path85" />
        <path
           d="m 15 24 l 0 0.996 l -3 0 l 0 -0.996 m 3 0"
           fill="#9c9c9c"
           stroke="none"
           fill-rule="nonzero"
           fill-opacity="1"
           id="path87" />
        <path
           d="m 15 21 l 0 5 l 4 0 l 0 -1 l 2 0 l 0 -1 l -2 0 l 0 -1 l 2 0 l 0 -1 l -2 0 l 0 -1 m -4 0"
           fill="#121212"
           stroke="none"
           fill-rule="nonzero"
           fill-opacity="1"
           id="path89" />
        <path
           d="m 14 22 l 0 1 l -1 0 l 0 -1 m 1 0"
           fill="#868686"
           stroke="none"
           fill-rule="nonzero"
           fill-opacity="1"
           id="path91" />
        <path
           d="m 14 24 l 0 0.996 l -1 0 l 0 -0.996 m 1 0"
           fill="#868686"
           stroke="none"
           fill-rule="nonzero"
           fill-opacity="1"
           id="path93" />
        <path
           d="m 29.5 12 c -4.719 -0.008 -6.5 3.383 -6.5 6 l 0 6 l -2 0 l 0 1 l 2 0 l 0 2 l 1 0 l 0 -2 l 6 0 c 2.867 -0.07 6.04 -1.527 6 -6.438 c 0 -2.563 -2.098 -6.578 -6.5 -6.563 m 0 1 c 2.5 0 5.5 2.27 5.5 5.531 c -0.055 3.59 -1.914 5.379 -5.469 5.469 l -5.531 0 l 0 -5.5 c -0.039 -3.707 2.699 -5.523 5.5 -5.5 m 0 0"
           fill="#70c126"
           stroke="none"
           fill-rule="nonzero"
           fill-opacity="1"
           id="path95" />
        <path
           d="m 29.406 14 c -2.246 0.016 -4.406 2 -4.406 4 l 0 4 l -4 0 l 0 1 l 4 0 l 0 4 l 1 0 l 0 -4 l 3 0 c 1.574 0.066 5 -0.547 5 -4.469 c 0 -1.754 -1.777 -4.531 -4.594 -4.531 m 0.031 1 c 1.727 0 3.563 1.867 3.563 3.469 c 0.043 3.188 -2.203 3.531 -4.438 3.531 l -2.563 0 l 0 -3.438 c 0 -2.227 1.734 -3.563 3.438 -3.563 m 0 0"
           fill="#f9f9f9"
           stroke="none"
           fill-rule="nonzero"
           fill-opacity="1"
           id="path97" />
      </g>
    </g>
  </g>
</svg>
