<?xml version="1.0" encoding="UTF-8" standalone="no"?>
<svg
   xmlns:dc="http://purl.org/dc/elements/1.1/"
   xmlns:cc="http://creativecommons.org/ns#"
   xmlns:rdf="http://www.w3.org/1999/02/22-rdf-syntax-ns#"
   xmlns:svg="http://www.w3.org/2000/svg"
   xmlns="http://www.w3.org/2000/svg"
   xmlns:xlink="http://www.w3.org/1999/xlink"
   xmlns:sodipodi="http://sodipodi.sourceforge.net/DTD/sodipodi-0.dtd"
   xmlns:inkscape="http://www.inkscape.org/namespaces/inkscape"
   viewBox="0 0 48 48"
   id="svg2"
   version="1.1"
   inkscape:version="0.48.5 r10040"
   width="100%"
   height="100%"
   sodipodi:docname="pcsx-icon.svg">
  <metadata
     id="metadata61">
    <rdf:RDF>
      <cc:Work
         rdf:about="">
        <dc:format>image/svg+xml</dc:format>
        <dc:type
           rdf:resource="http://purl.org/dc/dcmitype/StillImage" />
      </cc:Work>
    </rdf:RDF>
  </metadata>
  <sodipodi:namedview
     pagecolor="#ffffff"
     bordercolor="#666666"
     borderopacity="1"
     objecttolerance="10"
     gridtolerance="10"
     guidetolerance="10"
     inkscape:pageopacity="0"
     inkscape:pageshadow="2"
     inkscape:window-width="1301"
     inkscape:window-height="744"
     id="namedview59"
     showgrid="true"
     inkscape:zoom="8.1611908"
     inkscape:cx="46.273778"
     inkscape:cy="23.033007"
     inkscape:window-x="65"
     inkscape:window-y="24"
     inkscape:window-maximized="1"
     inkscape:current-layer="svg2">
    <inkscape:grid
       type="xygrid"
       id="grid3059" />
  </sodipodi:namedview>
  <defs
     id="defs4">
    <linearGradient
       id="linearGradient3764"
       x1="1"
       x2="47"
       gradientUnits="userSpaceOnUse"
       gradientTransform="matrix(0,-1,1,0,-1.5e-6,47.999998)">
      <stop
         stop-color="#3e4d8e"
         stop-opacity="1"
         id="stop7" />
      <stop
         offset="1"
         stop-color="#44549c"
         stop-opacity="1"
         id="stop9"
         style="stop-color:#6f7ec1;stop-opacity:1;" />
    </linearGradient>
    <clipPath
       id="clipPath-169917606">
      <g
         transform="translate(0,-1004.3622)"
         id="g12">
        <path
           d="m -24 13 c 0 1.105 -0.672 2 -1.5 2 -0.828 0 -1.5 -0.895 -1.5 -2 0 -1.105 0.672 -2 1.5 -2 0.828 0 1.5 0.895 1.5 2 z"
           transform="matrix(15.333333,0,0,11.5,414.99999,878.8622)"
           fill="#1890d0"
           id="path14" />
      </g>
    </clipPath>
    <clipPath
       id="clipPath-182097568">
      <g
         transform="translate(0,-1004.3622)"
         id="g17">
        <path
           d="m -24 13 c 0 1.105 -0.672 2 -1.5 2 -0.828 0 -1.5 -0.895 -1.5 -2 0 -1.105 0.672 -2 1.5 -2 0.828 0 1.5 0.895 1.5 2 z"
           transform="matrix(15.333333,0,0,11.5,414.99999,878.8622)"
           fill="#1890d0"
           id="path19" />
      </g>
    </clipPath>
    <linearGradient
       y2="1028.3622"
       x2="44"
       y1="1028.3622"
       x1="4"
       gradientTransform="translate(-1.0732422e-7,-1004.3621)"
       gradientUnits="userSpaceOnUse"
       id="linearGradient3019"
       xlink:href="#linearGradient3764"
       inkscape:collect="always" />
  </defs>
  <rect
     style="fill:url(#linearGradient3019);fill-opacity:1.0;stroke:none"
     id="rect3758"
     width="40"
     height="40"
     x="4"
     y="4"
     ry="0" />
  <path
     style="opacity:0.35;fill:#000000;fill-opacity:1;stroke:none"
     d="m 4.0000017,43.999718 39.9999963,3e-4 c -19.999997,-1 -19.999997,-1 -39.9999977,0 z"
     id="path3800"
     inkscape:connector-curvature="0"
     sodipodi:nodetypes="cccc" />
  <path
     sodipodi:nodetypes="cccc"
     inkscape:connector-curvature="0"
     id="path3804"
     d="m 4.0000052,3.9999173 39.9999958,-2e-4 c -19.999996,1 -19.999996,1 -39.9999972,0 z"
     style="opacity:0.75;fill:#ffffff;fill-opacity:1;stroke:none" />
  <g
     id="g33" />
  <g
     id="g35">
    <g
       clip-path="url(#clipPath-169917606)"
       id="g37">
      <g
         transform="translate(1,1)"
         id="g39">
        <g
           opacity="0.1"
           id="g41">
          <!-- color: #44549c -->
          <g
             id="g43">
            <path
               d="m 20.602 16 c -0.367 0 -0.723 0.055 -1.063 0.125 c -1.137 0.168 -2.512 0.563 -3.934 1.504 c -3.535 2.324 -5.04 13.11 -4.492 14.12 c 0.547 1.01 5.496 -1.012 8.09 -4.879 c 0.195 -0.289 0.387 -0.586 0.559 -0.906 c 0.27 0.043 0.551 0.051 0.84 0.051 l 7.156 0 c 0.18 0 0.328 -0.008 0.508 -0.023 c 0.164 0.301 0.348 0.598 0.535 0.875 c 2.594 3.871 7.543 5.887 8.094 4.879 c 0.547 -1.012 -0.953 -11.789 -4.496 -14.12 c -1.016 -0.668 -1.996 -1.063 -2.895 -1.301 c -0.078 -0.02 -0.148 -0.031 -0.227 -0.051 c -0.484 -0.148 -0.988 -0.277 -1.523 -0.277 m 1.801 2.406 c 0.098 -0.016 0.211 -0.012 0.305 0 c 0.133 0.016 0.258 0.055 0.383 0.125 c 0.48 0.281 0.633 0.902 0.352 1.379 c -0.281 0.477 -0.883 0.652 -1.367 0.371 c -0.488 -0.273 -0.66 -0.895 -0.379 -1.375 c 0.156 -0.27 0.418 -0.449 0.707 -0.5 m -11.555 -0.402 l 1 0 l 0 3 l 3 0 l 0 1 l -3 0 l 0 3 l -1 0 l 0 -3 l -3 0 l 0 -1 l 3 0 m 14.207 -1.246 c 0.133 0.016 0.262 0.055 0.379 0.125 c 0.488 0.277 0.66 0.898 0.383 1.379 c -0.277 0.477 -0.914 0.652 -1.395 0.371 c -0.484 -0.277 -0.637 -0.898 -0.355 -1.375 c 0.211 -0.363 0.598 -0.551 0.988 -0.5 m -4 0.949 c 0.098 -0.016 0.203 -0.016 0.305 0 c 0.129 0.016 0.258 0.055 0.379 0.125 c 0.484 0.281 0.637 0.898 0.352 1.379 c -0.27 0.477 -0.883 0.652 -1.359 0.371 c -0.484 -0.277 -0.66 -0.898 -0.387 -1.375 c 0.156 -0.27 0.418 -0.449 0.719 -0.5 m 2.383 1.352 c 0.094 -0.02 0.18 -0.016 0.273 0 c 0.137 0.012 0.266 0.051 0.387 0.121 c 0.477 0.277 0.648 0.898 0.379 1.375 c -0.277 0.48 -0.91 0.652 -1.398 0.375 c -0.48 -0.277 -0.637 -0.898 -0.352 -1.375 c 0.148 -0.27 0.422 -0.453 0.707 -0.5 m 0 0.004"
               fill="#000"
               stroke="none"
               fill-rule="nonzero"
               fill-opacity="1"
               id="path45" />
          </g>
        </g>
      </g>
    </g>
  </g>
  <g
     id="g47">
    <g
       clip-path="url(#clipPath-182097568)"
       id="g49">
      <!-- color: #44549c -->
      <g
         id="g51">
        <path
           d="m 20.602 16 c -0.367 0 -0.723 0.055 -1.063 0.125 c -1.137 0.168 -2.512 0.563 -3.934 1.504 c -3.535 2.324 -5.04 13.11 -4.492 14.12 c 0.547 1.01 5.496 -1.012 8.09 -4.879 c 0.195 -0.289 0.387 -0.586 0.559 -0.906 c 0.27 0.043 0.551 0.051 0.84 0.051 l 7.156 0 c 0.18 0 0.328 -0.008 0.508 -0.023 c 0.164 0.301 0.348 0.598 0.535 0.875 c 2.594 3.871 7.543 5.887 8.094 4.879 c 0.547 -1.012 -0.953 -11.789 -4.496 -14.12 c -1.016 -0.668 -1.996 -1.063 -2.895 -1.301 c -0.078 -0.02 -0.148 -0.031 -0.227 -0.051 c -0.484 -0.148 -0.988 -0.277 -1.523 -0.277 m 1.801 2.406 c 0.098 -0.016 0.211 -0.012 0.305 0 c 0.133 0.016 0.258 0.055 0.383 0.125 c 0.48 0.281 0.633 0.902 0.352 1.379 c -0.281 0.477 -0.883 0.652 -1.367 0.371 c -0.488 -0.273 -0.66 -0.895 -0.379 -1.375 c 0.156 -0.27 0.418 -0.449 0.707 -0.5 m -11.555 -0.402 l 1 0 l 0 3 l 3 0 l 0 1 l -3 0 l 0 3 l -1 0 l 0 -3 l -3 0 l 0 -1 l 3 0 m 14.207 -1.246 c 0.133 0.016 0.262 0.055 0.379 0.125 c 0.488 0.277 0.66 0.898 0.383 1.379 c -0.277 0.477 -0.914 0.652 -1.395 0.371 c -0.484 -0.277 -0.637 -0.898 -0.355 -1.375 c 0.211 -0.363 0.598 -0.551 0.988 -0.5 m -4 0.949 c 0.098 -0.016 0.203 -0.016 0.305 0 c 0.129 0.016 0.258 0.055 0.379 0.125 c 0.484 0.281 0.637 0.898 0.352 1.379 c -0.27 0.477 -0.883 0.652 -1.359 0.371 c -0.484 -0.277 -0.66 -0.898 -0.387 -1.375 c 0.156 -0.27 0.418 -0.449 0.719 -0.5 m 2.383 1.352 c 0.094 -0.02 0.18 -0.016 0.273 0 c 0.137 0.012 0.266 0.051 0.387 0.121 c 0.477 0.277 0.648 0.898 0.379 1.375 c -0.277 0.48 -0.91 0.652 -1.398 0.375 c -0.48 -0.277 -0.637 -0.898 -0.352 -1.375 c 0.148 -0.27 0.422 -0.453 0.707 -0.5 m 0 0.004"
           fill="#eaeaea"
           stroke="none"
           fill-rule="nonzero"
           fill-opacity="1"
           id="path53" />
      </g>
    </g>
  </g>
</svg>
