<?xml version="1.0" encoding="UTF-8" standalone="no"?>
<svg
   xmlns:dc="http://purl.org/dc/elements/1.1/"
   xmlns:cc="http://creativecommons.org/ns#"
   xmlns:rdf="http://www.w3.org/1999/02/22-rdf-syntax-ns#"
   xmlns:svg="http://www.w3.org/2000/svg"
   xmlns="http://www.w3.org/2000/svg"
   xmlns:xlink="http://www.w3.org/1999/xlink"
   xmlns:sodipodi="http://sodipodi.sourceforge.net/DTD/sodipodi-0.dtd"
   xmlns:inkscape="http://www.inkscape.org/namespaces/inkscape"
   viewBox="0 0 48 48"
   id="svg2"
   version="1.1"
   inkscape:version="0.48.5 r10040"
   width="100%"
   height="100%"
   sodipodi:docname="pioneers-editor.svg">
  <metadata
     id="metadata65">
    <rdf:RDF>
      <cc:Work
         rdf:about="">
        <dc:format>image/svg+xml</dc:format>
        <dc:type
           rdf:resource="http://purl.org/dc/dcmitype/StillImage" />
      </cc:Work>
    </rdf:RDF>
  </metadata>
  <sodipodi:namedview
     pagecolor="#ffffff"
     bordercolor="#666666"
     borderopacity="1"
     objecttolerance="10"
     gridtolerance="10"
     guidetolerance="10"
     inkscape:pageopacity="0"
     inkscape:pageshadow="2"
     inkscape:window-width="1301"
     inkscape:window-height="744"
     id="namedview63"
     showgrid="true"
     inkscape:zoom="5.7708333"
     inkscape:cx="20.679088"
     inkscape:cy="26.195721"
     inkscape:window-x="65"
     inkscape:window-y="24"
     inkscape:window-maximized="1"
     inkscape:current-layer="svg2">
    <inkscape:grid
       type="xygrid"
       id="grid3063" />
  </sodipodi:namedview>
  <defs
     id="defs4">
    <linearGradient
       id="linearGradient3764"
       x1="1"
       x2="47"
       gradientUnits="userSpaceOnUse"
       gradientTransform="matrix(0,-1,1,0,-1.5e-6,47.999998)">
      <stop
         stop-color="#e4e4e4"
         stop-opacity="1"
         id="stop7" />
      <stop
         offset="1"
         stop-color="#eee"
         stop-opacity="1"
         id="stop9"
         style="stop-color:#fdfdfd;stop-opacity:1;" />
    </linearGradient>
    <clipPath
       id="clipPath-843500132">
      <g
         transform="translate(0,-1004.3622)"
         id="g12">
        <path
           d="m -24 13 c 0 1.105 -0.672 2 -1.5 2 -0.828 0 -1.5 -0.895 -1.5 -2 0 -1.105 0.672 -2 1.5 -2 0.828 0 1.5 0.895 1.5 2 z"
           transform="matrix(15.333333,0,0,11.5,414.99999,878.8622)"
           fill="#1890d0"
           id="path14" />
      </g>
    </clipPath>
    <clipPath
       id="clipPath-854401760">
      <g
         transform="translate(0,-1004.3622)"
         id="g17">
        <path
           d="m -24 13 c 0 1.105 -0.672 2 -1.5 2 -0.828 0 -1.5 -0.895 -1.5 -2 0 -1.105 0.672 -2 1.5 -2 0.828 0 1.5 0.895 1.5 2 z"
           transform="matrix(15.333333,0,0,11.5,414.99999,878.8622)"
           fill="#1890d0"
           id="path19" />
      </g>
    </clipPath>
    <linearGradient
       y2="1028.3622"
       x2="44"
       y1="1028.3622"
       x1="4"
       gradientTransform="translate(-2.1621704e-8,-1004.3622)"
       gradientUnits="userSpaceOnUse"
       id="linearGradient3019"
       xlink:href="#linearGradient3764"
       inkscape:collect="always" />
  </defs>
  <rect
     style="fill:url(#linearGradient3019);fill-opacity:1.0;stroke:none"
     id="rect3758"
     width="40"
     height="40"
     x="4"
     y="4"
     ry="0" />
  <path
     style="opacity:0.35;fill:#000000;fill-opacity:1;stroke:none"
     d="m 4.000001,43.999718 39.999996,3e-4 C 24,43.000018 24,43.000018 4,44.000018 z"
     id="path3800"
     inkscape:connector-curvature="0"
     sodipodi:nodetypes="cccc" />
  <path
     sodipodi:nodetypes="cccc"
     inkscape:connector-curvature="0"
     id="path3804"
     d="M 4.000005,3.9999176 44,3.9997176 c -19.999996,1 -19.999996,1 -39.999997,0 z"
     style="opacity:0.75;fill:#ffffff;fill-opacity:1;stroke:none" />
  <g
     id="g33" />
  <g
     id="g35">
    <g
       clip-path="url(#clipPath-843500132)"
       id="g37">
      <g
         transform="translate(1,1)"
         id="g39">
        <g
           opacity="0.1"
           id="g41">
          <!-- color: #eeeeee -->
          <g
             id="g43">
            <path
               d="m 34 17.996 l 0 12 l -9.992 6 l -10 -5.996 l -0.004 -12 l 9.996 -6 m 10 5.996"
               fill="#000"
               stroke="none"
               fill-rule="nonzero"
               fill-opacity="1"
               id="path45" />
            <path
               d="m 27.457 18 c -0.105 0.012 -0.238 0.051 -0.313 0.125 l -7.852 7.852 c -0.051 0.047 -0.07 0.109 -0.094 0.172 l -1.176 3.25 c -0.121 0.324 0.277 0.699 0.602 0.574 l 3.23 -1.152 c 0.063 -0.023 0.145 -0.047 0.191 -0.098 l 7.852 -7.879 c 0.094 -0.098 0.117 -0.238 0.094 -0.375 c 0 0 0.004 -0.074 -0.023 -0.148 c -0.027 -0.078 -0.094 -0.18 -0.164 -0.301 c -0.145 -0.238 -0.371 -0.555 -0.816 -1 c -0.461 -0.457 -0.77 -0.711 -1.012 -0.848 c -0.121 -0.074 -0.23 -0.125 -0.313 -0.152 c -0.078 -0.027 -0.191 -0.023 -0.191 -0.023 l -0.023 0 m 0.004 0.004"
               fill="#000"
               stroke="none"
               fill-rule="nonzero"
               fill-opacity="1"
               id="path47" />
          </g>
        </g>
      </g>
    </g>
  </g>
  <g
     id="g49">
    <g
       clip-path="url(#clipPath-854401760)"
       id="g51">
      <!-- color: #eeeeee -->
      <g
         id="g53">
        <path
           d="m 34 17.996 l 0 12 l -9.992 6 l -10 -5.996 l -0.004 -12 l 9.996 -6 m 10 5.996"
           fill="#c17f3e"
           stroke="none"
           fill-rule="nonzero"
           fill-opacity="1"
           id="path55" />
        <path
           d="m 27.457 18 c -0.105 0.012 -0.238 0.051 -0.313 0.125 l -7.852 7.852 c -0.051 0.047 -0.07 0.109 -0.094 0.172 l -1.176 3.25 c -0.121 0.324 0.277 0.699 0.602 0.574 l 3.23 -1.152 c 0.063 -0.023 0.145 -0.047 0.191 -0.098 l 7.852 -7.879 c 0.094 -0.098 0.117 -0.238 0.094 -0.375 c 0 0 0.004 -0.074 -0.023 -0.148 c -0.027 -0.078 -0.094 -0.18 -0.164 -0.301 c -0.145 -0.238 -0.371 -0.555 -0.816 -1 c -0.461 -0.457 -0.77 -0.711 -1.012 -0.848 c -0.121 -0.074 -0.23 -0.125 -0.313 -0.152 c -0.078 -0.027 -0.191 -0.023 -0.191 -0.023 l -0.023 0 m 0.004 0.004"
           fill="#ffd7b9"
           stroke="none"
           fill-rule="nonzero"
           fill-opacity="1"
           id="path57" />
      </g>
    </g>
  </g>
</svg>
