<?xml version="1.0" encoding="UTF-8" standalone="no"?>
<svg
   xmlns:dc="http://purl.org/dc/elements/1.1/"
   xmlns:cc="http://creativecommons.org/ns#"
   xmlns:rdf="http://www.w3.org/1999/02/22-rdf-syntax-ns#"
   xmlns:svg="http://www.w3.org/2000/svg"
   xmlns="http://www.w3.org/2000/svg"
   xmlns:xlink="http://www.w3.org/1999/xlink"
   xmlns:sodipodi="http://sodipodi.sourceforge.net/DTD/sodipodi-0.dtd"
   xmlns:inkscape="http://www.inkscape.org/namespaces/inkscape"
   viewBox="0 0 48 48"
   id="svg2"
   version="1.1"
   inkscape:version="0.48.5 r10040"
   width="100%"
   height="100%"
   sodipodi:docname="pragha.svg">
  <metadata
     id="metadata61">
    <rdf:RDF>
      <cc:Work
         rdf:about="">
        <dc:format>image/svg+xml</dc:format>
        <dc:type
           rdf:resource="http://purl.org/dc/dcmitype/StillImage" />
      </cc:Work>
    </rdf:RDF>
  </metadata>
  <sodipodi:namedview
     pagecolor="#ffffff"
     bordercolor="#666666"
     borderopacity="1"
     objecttolerance="10"
     gridtolerance="10"
     guidetolerance="10"
     inkscape:pageopacity="0"
     inkscape:pageshadow="2"
     inkscape:window-width="1301"
     inkscape:window-height="744"
     id="namedview59"
     showgrid="true"
     inkscape:zoom="5.7708333"
     inkscape:cx="40.405019"
     inkscape:cy="30.199484"
     inkscape:window-x="65"
     inkscape:window-y="24"
     inkscape:window-maximized="1"
     inkscape:current-layer="svg2">
    <inkscape:grid
       type="xygrid"
       id="grid3059" />
  </sodipodi:namedview>
  <defs
     id="defs4">
    <linearGradient
       id="linearGradient3764"
       x1="1"
       x2="47"
       gradientUnits="userSpaceOnUse"
       gradientTransform="matrix(0,-1,1,0,-1.5e-6,47.999998)">
      <stop
         stop-color="#426d96"
         stop-opacity="1"
         id="stop7" />
      <stop
         offset="1"
         stop-color="#4879a5"
         stop-opacity="1"
         id="stop9"
         style="stop-color:#729cc2;stop-opacity:1;" />
    </linearGradient>
    <clipPath
       id="clipPath-718070241">
      <g
         transform="translate(0,-1004.3622)"
         id="g12">
        <path
           d="m -24 13 c 0 1.105 -0.672 2 -1.5 2 -0.828 0 -1.5 -0.895 -1.5 -2 0 -1.105 0.672 -2 1.5 -2 0.828 0 1.5 0.895 1.5 2 z"
           transform="matrix(15.333333,0,0,11.5,414.99999,878.8622)"
           fill="#1890d0"
           id="path14" />
      </g>
    </clipPath>
    <clipPath
       id="clipPath-729483545">
      <g
         transform="translate(0,-1004.3622)"
         id="g17">
        <path
           d="m -24 13 c 0 1.105 -0.672 2 -1.5 2 -0.828 0 -1.5 -0.895 -1.5 -2 0 -1.105 0.672 -2 1.5 -2 0.828 0 1.5 0.895 1.5 2 z"
           transform="matrix(15.333333,0,0,11.5,414.99999,878.8622)"
           fill="#1890d0"
           id="path19" />
      </g>
    </clipPath>
    <linearGradient
       y2="1028.3622"
       x2="44"
       y1="1028.3622"
       x1="4"
       gradientTransform="translate(-8.4695435e-8,-1004.3623)"
       gradientUnits="userSpaceOnUse"
       id="linearGradient3019"
       xlink:href="#linearGradient3764"
       inkscape:collect="always" />
  </defs>
  <rect
     style="fill:url(#linearGradient3019);fill-opacity:1.0;stroke:none"
     id="rect3758"
     width="40"
     height="40"
     x="4"
     y="4"
     ry="0" />
  <path
     style="opacity:0.35;fill:#000000;fill-opacity:1;stroke:none"
     d="m 4.0000013,43.999718 39.9999967,3e-4 c -19.999997,-1 -19.999997,-1 -39.9999981,0 z"
     id="path3800"
     inkscape:connector-curvature="0"
     sodipodi:nodetypes="cccc" />
  <path
     sodipodi:nodetypes="cccc"
     inkscape:connector-curvature="0"
     id="path3804"
     d="m 4.0000048,3.9999176 39.9999962,-2e-4 c -19.999996,1 -19.999996,1 -39.9999976,0 z"
     style="opacity:0.75;fill:#ffffff;fill-opacity:1;stroke:none" />
  <g
     id="g33" />
  <g
     id="g35">
    <g
       clip-path="url(#clipPath-718070241)"
       id="g37">
      <g
         transform="translate(1,1)"
         id="g39">
        <g
           opacity="0.1"
           id="g41">
          <!-- color: #4879a5 -->
          <g
             id="g43">
            <path
               d="m 27.797 12 l -3.625 1.344 c -7.121 2.098 -12.172 6.656 -10.172 13.656 l 3 -4 c -1.992 -5.094 3 -7 7.172 -8.5 c -1.398 6.277 -3.445 14.563 -4.969 19.84 l -5.719 0 l -1.652 1.656 l 2.813 0 c 5.402 0.094 11.215 -0.039 14.406 -1.969 c -2.238 0.238 -3.199 0.273 -6.719 0.313 c 0.605 -2.684 1.348 -5.926 1.875 -7.906 c 2.641 -0.16 4.84 -0.805 7.281 -2.125 c 7.516 -4.313 4.945 -11.297 -2.156 -11.375 c -0.402 0 -0.863 0.02 -1.781 0.063 m -0.598 2.41 l 7.01 4 l -9.01 4 m 1.996 -8"
               fill="#000"
               stroke="none"
               fill-rule="nonzero"
               fill-opacity="1"
               id="path45" />
          </g>
        </g>
      </g>
    </g>
  </g>
  <g
     id="g47">
    <g
       clip-path="url(#clipPath-729483545)"
       id="g49">
      <!-- color: #4879a5 -->
      <g
         id="g51">
        <path
           d="m 27.797 12 l -3.625 1.344 c -7.121 2.098 -12.172 6.656 -10.172 13.656 l 3 -4 c -1.992 -5.094 3 -7 7.172 -8.5 c -1.398 6.277 -3.445 14.563 -4.969 19.84 l -5.719 0 l -1.652 1.656 l 2.813 0 c 5.402 0.094 11.215 -0.039 14.406 -1.969 c -2.238 0.238 -3.199 0.273 -6.719 0.313 c 0.605 -2.684 1.348 -5.926 1.875 -7.906 c 2.641 -0.16 4.84 -0.805 7.281 -2.125 c 7.516 -4.313 4.945 -11.297 -2.156 -11.375 c -0.402 0 -0.863 0.02 -1.781 0.063 m -0.598 2.41 l 7.01 4 l -9.01 4 m 1.996 -8"
           fill="#f9f9f9"
           stroke="none"
           fill-rule="nonzero"
           fill-opacity="1"
           id="path53" />
      </g>
    </g>
  </g>
</svg>
