<?xml version="1.0" encoding="UTF-8" standalone="no"?>
<!-- Created with Inkscape (http://www.inkscape.org/) -->

<svg
   xmlns:dc="http://purl.org/dc/elements/1.1/"
   xmlns:cc="http://creativecommons.org/ns#"
   xmlns:rdf="http://www.w3.org/1999/02/22-rdf-syntax-ns#"
   xmlns:svg="http://www.w3.org/2000/svg"
   xmlns="http://www.w3.org/2000/svg"
   xmlns:xlink="http://www.w3.org/1999/xlink"
   xmlns:sodipodi="http://sodipodi.sourceforge.net/DTD/sodipodi-0.dtd"
   xmlns:inkscape="http://www.inkscape.org/namespaces/inkscape"
   width="48"
   height="48"
   id="svg2"
   version="1.1"
   inkscape:version="0.92.2 2405546, 2018-03-11"
   viewBox="0 0 13.546667 13.546667"
   sodipodi:docname="preferences-desktop-screensaver.svg">
  <defs
     id="defs4">
    <linearGradient
       id="linearGradient3769">
      <stop
         style="stop-color:#34495e;stop-opacity:1;"
         offset="0"
         id="stop3771" />
      <stop
         style="stop-color:#5699da;stop-opacity:1;"
         offset="1"
         id="stop3773" />
    </linearGradient>
    <linearGradient
       inkscape:collect="always"
       xlink:href="#linearGradient3769"
       id="linearGradient3775"
       x1="1.1465281"
       y1="290.22668"
       x2="12.435417"
       y2="290.22668"
       gradientUnits="userSpaceOnUse" />
  </defs>
  <sodipodi:namedview
     id="base"
     pagecolor="#ffffff"
     bordercolor="#666666"
     borderopacity="1.0"
     inkscape:pageopacity="0.0"
     inkscape:pageshadow="2"
     inkscape:zoom="32.884676"
     inkscape:cx="27.013146"
     inkscape:cy="10.670969"
     inkscape:document-units="px"
     inkscape:current-layer="layer1"
     showgrid="false"
     units="px"
     borderlayer="true"
     inkscape:showpageshadow="false"
     inkscape:window-width="1920"
     inkscape:window-height="1006"
     inkscape:window-x="0"
     inkscape:window-y="0"
     inkscape:window-maximized="1"
     inkscape:snap-nodes="false">
    <sodipodi:guide
       position="8.9999996,38.999975"
       orientation="30.000028,0"
       id="guide3274"
       inkscape:locked="false" />
    <sodipodi:guide
       position="8.9999996,8.9999467"
       orientation="0,30.000001"
       id="guide3276"
       inkscape:locked="false" />
    <sodipodi:guide
       position="39.000001,8.9999467"
       orientation="-30.000028,0"
       id="guide3278"
       inkscape:locked="false" />
    <sodipodi:guide
       position="39.000001,38.999975"
       orientation="0,-30.000001"
       id="guide3280"
       inkscape:locked="false" />
    <sodipodi:guide
       position="3.9999989,44.000052"
       orientation="39.999965,0"
       id="guide3284"
       inkscape:locked="false" />
    <sodipodi:guide
       position="3.9999989,4.0000862"
       orientation="0,40.000001"
       id="guide3286"
       inkscape:locked="false" />
    <sodipodi:guide
       position="44,4.0000862"
       orientation="-39.999965,0"
       id="guide3288"
       inkscape:locked="false" />
    <sodipodi:guide
       position="44,44.000052"
       orientation="0,-40.000001"
       id="guide3290"
       inkscape:locked="false" />
  </sodipodi:namedview>
  <metadata
     id="metadata7">
    <rdf:RDF>
      <cc:Work
         rdf:about="">
        <dc:format>image/svg+xml</dc:format>
        <dc:type
           rdf:resource="http://purl.org/dc/dcmitype/StillImage" />
        <dc:title />
      </cc:Work>
    </rdf:RDF>
  </metadata>
  <g
     inkscape:label="Capa 1"
     inkscape:groupmode="layer"
     id="layer1"
     transform="translate(0,-283.45334)">
    <path
       inkscape:connector-curvature="0"
       style="fill:url(#linearGradient3775);fill-opacity:1.0;fill-rule:evenodd;stroke:none"
       d="m 6.7909724,284.58223 c -0.1563511,0 -0.2822222,0.12587 -0.2822222,0.28222 l 0,0.84667 c 0,0.15635 0.1258711,0.28222 0.2822222,0.28222 0.1563511,0 0.2822222,-0.12587 0.2822222,-0.28222 l 0,-0.84667 c 0,-0.15635 -0.1258711,-0.28222 -0.2822222,-0.28222 z m -0.017639,1.41111 c -1.1445898,0 -2.1786176,0.45147 -2.9390798,1.18456 0.066269,-0.10868 0.057796,-0.24978 -0.03638,-0.34396 l -0.5991711,-0.59862 c -0.1105569,-0.11055 -0.2885228,-0.11055 -0.3990797,0 -0.110557,0.11056 -0.110557,0.28853 0,0.39908 l 0.5986199,0.59917 c 0.093009,0.093 0.2319361,0.10263 0.3400998,0.0391 -0.7260839,0.74602 -1.1766463,1.75987 -1.1950348,2.88341 -0.031797,-0.12107 -0.1365707,-0.21167 -0.2678907,-0.21167 l -0.8466667,0 c -0.1563511,0 -0.2822222,0.12587 -0.2822222,0.28222 0,0.15635 0.1258711,0.28223 0.2822222,0.28223 l 0.8466667,0 c 0.13132,0 0.2360936,-0.0906 0.2678907,-0.21167 0.018393,1.12382 0.4691843,2.13789 1.195586,2.88396 -0.1082373,-0.0639 -0.2474813,-0.054 -0.340651,0.0391 l -0.5986199,0.59862 c -0.110557,0.11056 -0.110557,0.28853 0,0.39908 0.1105569,0.11056 0.2885228,0.11056 0.3990797,0 l 0.5991711,-0.59862 c 0.094336,-0.0943 0.1030354,-0.23576 0.03638,-0.34451 0.7604868,0.73325 1.794356,1.18512 2.9390798,1.18512 2.3452668,0 4.2333335,-1.88807 4.2333335,-4.23334 0,-2.34526 -1.8880667,-4.23333 -4.2333335,-4.23333 z m 3.8094485,0.1593 c -0.07214,0 -0.144261,0.0274 -0.199539,0.0827 l -0.5986203,0.59862 c -0.1105569,0.11056 -0.1105569,0.28853 0,0.39908 0.1105569,0.11056 0.2885233,0.11056 0.3990793,0 l 0.59862,-0.59862 c 0.110557,-0.11055 0.110557,-0.28852 0,-0.39908 -0.05528,-0.0553 -0.127398,-0.0827 -0.19954,-0.0827 z m 0.723746,3.79181 c -0.156351,0 -0.282222,0.12587 -0.282222,0.28222 0,0.15635 0.125871,0.28223 0.282222,0.28223 l 0.846667,0 c 0.156351,0 0.282222,-0.12588 0.282222,-0.28223 0,-0.15635 -0.125871,-0.28222 -0.282222,-0.28222 l -0.846667,0 z m -1.3223654,3.19264 c -0.072141,0 -0.1442616,0.0279 -0.1995399,0.0832 -0.1105569,0.11056 -0.1105569,0.28853 0,0.39908 l 0.5986203,0.59862 c 0.110556,0.11056 0.288522,0.11056 0.399079,0 0.110557,-0.11055 0.110557,-0.28852 0,-0.39908 l -0.59862,-0.59862 c -0.05528,-0.0553 -0.127398,-0.0832 -0.1995394,-0.0832 z m -3.1931902,1.32292 c -0.1563511,0 -0.2822222,0.12587 -0.2822222,0.28222 l 0,0.84667 c 0,0.15635 0.1258711,0.28222 0.2822222,0.28222 0.1563511,0 0.2822222,-0.12587 0.2822222,-0.28222 l 0,-0.84667 c 0,-0.15635 -0.1258711,-0.28222 -0.2822222,-0.28222 z"
       id="rect3270" />
    <path
       id="path2999"
       d="m 6.6931252,286.71986 0.1544793,6.87632 c 1.8762134,0 3.2321865,-1.61344 3.2321865,-3.48966 0,-1.87621 -1.5104524,-3.38666 -3.3866658,-3.38666 z"
       style="fill:#cccccc;fill-opacity:1;fill-rule:evenodd;stroke:none"
       inkscape:connector-curvature="0"
       sodipodi:nodetypes="ccsc" />
    <path
       inkscape:connector-curvature="0"
       style="fill:#ecf0f1;fill-opacity:1;fill-rule:evenodd;stroke:none"
       d="m 6.7733335,286.84001 0,6.77333 c 1.8762134,0 3.3866665,-1.51045 3.3866665,-3.38667 0,-1.87621 -1.5104531,-3.38666 -3.3866665,-3.38666 z"
       id="rect3280" />
  </g>
</svg>
