<?xml version="1.0" encoding="UTF-8" standalone="no"?>
<!-- Created with Inkscape (http://www.inkscape.org/) -->

<svg
   xmlns:dc="http://purl.org/dc/elements/1.1/"
   xmlns:cc="http://creativecommons.org/ns#"
   xmlns:rdf="http://www.w3.org/1999/02/22-rdf-syntax-ns#"
   xmlns:svg="http://www.w3.org/2000/svg"
   xmlns="http://www.w3.org/2000/svg"
   xmlns:xlink="http://www.w3.org/1999/xlink"
   xmlns:sodipodi="http://sodipodi.sourceforge.net/DTD/sodipodi-0.dtd"
   xmlns:inkscape="http://www.inkscape.org/namespaces/inkscape"
   width="48"
   height="48"
   id="svg2"
   version="1.1"
   inkscape:version="0.92.4 (5da689c313, 2019-01-14)"
   sodipodi:docname="preferences-system-parental-controls.svg">
  <defs
     id="defs4">
    <linearGradient
       inkscape:collect="always"
       id="linearGradient859">
      <stop
         style="stop-color:#ffae00;stop-opacity:1"
         offset="0"
         id="stop861" />
      <stop
         style="stop-color:#fcdb00;stop-opacity:1"
         offset="1"
         id="stop863" />
    </linearGradient>
    <linearGradient
       gradientTransform="scale(1.0058652,0.994169)"
       gradientUnits="userSpaceOnUse"
       id="ButtonShadow"
       y2="7.0165396"
       x2="45.447727"
       y1="92.539597"
       x1="45.447727">
      <stop
         offset="0"
         style="stop-color:#000000;stop-opacity:1"
         id="stop3750" />
      <stop
         offset="1"
         style="stop-color:#000000;stop-opacity:0.58823532"
         id="stop3752" />
    </linearGradient>
    <linearGradient
       id="linearGradient3737">
      <stop
         offset="0"
         style="stop-color:#ffffff;stop-opacity:1"
         id="stop3739" />
      <stop
         offset="1"
         style="stop-color:#ffffff;stop-opacity:0"
         id="stop3741" />
    </linearGradient>
    <filter
       style="color-interpolation-filters:sRGB"
       id="filter3174">
      <feGaussianBlur
         stdDeviation="1.71"
         id="feGaussianBlur3176" />
    </filter>
    <filter
       style="color-interpolation-filters:sRGB"
       id="filter3794"
       height="1.3839999"
       width="1.3839999"
       y="-0.192"
       x="-0.192">
      <feGaussianBlur
         stdDeviation="5.28"
         id="feGaussianBlur3796" />
    </filter>
    <linearGradient
       gradientUnits="userSpaceOnUse"
       xlink:href="#linearGradient3737"
       id="linearGradient3613"
       y2="138.66119"
       x2="48"
       y1="20.220806"
       x1="48" />
    <clipPath
       id="clipPath3613">
      <rect
         style="fill:#ffffff;fill-opacity:1;fill-rule:nonzero;stroke:none"
         id="rect3615"
         y="6"
         x="6"
         ry="6"
         rx="6"
         height="84"
         width="84" />
    </clipPath>
    <linearGradient
       inkscape:collect="always"
       xlink:href="#linearGradient859"
       id="linearGradient865"
       x1="0"
       y1="-1027.3622"
       x2="48"
       y2="-1027.3622"
       gradientUnits="userSpaceOnUse"
       gradientTransform="matrix(0.83333406,0,0,0.83333406,3.9999826,-171.39295)" />
  </defs>
  <sodipodi:namedview
     id="base"
     pagecolor="#ffffff"
     bordercolor="#666666"
     borderopacity="1.0"
     inkscape:pageopacity="0.0"
     inkscape:pageshadow="2"
     inkscape:zoom="6.1982332"
     inkscape:cx="7.0187563"
     inkscape:cy="28.26491"
     inkscape:document-units="px"
     inkscape:current-layer="layer1"
     showgrid="true"
     inkscape:window-width="723"
     inkscape:window-height="456"
     inkscape:window-x="-131"
     inkscape:window-y="332"
     inkscape:window-maximized="0">
    <inkscape:grid
       type="xygrid"
       id="grid3017" />
  </sodipodi:namedview>
  <metadata
     id="metadata7">
    <rdf:RDF>
      <cc:Work
         rdf:about="">
        <dc:format>image/svg+xml</dc:format>
        <dc:type
           rdf:resource="http://purl.org/dc/dcmitype/StillImage" />
        <dc:title></dc:title>
      </cc:Work>
    </rdf:RDF>
  </metadata>
  <g
     inkscape:label="Capa 1"
     inkscape:groupmode="layer"
     id="layer1"
     transform="translate(0,-1004.3622)">
    <g
       id="layer2"
       style="display:none"
       transform="translate(-126.31865,964.9772)">
      <rect
         width="86"
         height="85"
         rx="6"
         ry="6"
         x="5"
         y="7"
         id="rect3745"
         style="opacity:0.9;fill:url(#ButtonShadow);fill-opacity:1;fill-rule:nonzero;stroke:none;filter:url(#filter3174)" />
    </g>
    <g
       id="layer5"
       style="display:none"
       transform="translate(-126.31865,964.9772)">
      <rect
         width="66"
         height="66"
         rx="12"
         ry="12"
         x="15"
         y="15"
         clip-path="url(#clipPath3613)"
         id="rect3171"
         style="opacity:0.1;fill:url(#linearGradient3613);fill-opacity:1;fill-rule:nonzero;stroke:#ffffff;stroke-width:0.5;stroke-linecap:round;stroke-linejoin:miter;stroke-miterlimit:4;stroke-opacity:1;stroke-dasharray:none;stroke-dashoffset:0;filter:url(#filter3794)" />
    </g>
    <rect
       style="fill:url(#linearGradient865);fill-opacity:1;stroke:none"
       id="rect2991-1"
       width="40.000034"
       height="40.000034"
       x="3.9999826"
       y="-1048.3622"
       ry="0"
       transform="scale(1,-1)" />
    <path
       style="opacity:0.5;fill:#000000;fill-opacity:1;stroke:none"
       d="m 4,1048.3622 0,0 c 20,-1 20,-1 40,0 z"
       id="path3257"
       inkscape:connector-curvature="0"
       sodipodi:nodetypes="cccc" />
    <path
       sodipodi:nodetypes="cccc"
       inkscape:connector-curvature="0"
       id="path4027"
       d="m 4,1008.3622 0,0 c 20,1 20,1 40,0 z"
       style="opacity:0.5;fill:#ffffff;fill-opacity:1;stroke:none" />
    <g
       id="g865">
      <path
         id="path8"
         d="m 19.5,1014.3622 c -1.933,0 -3.5,1.567 -3.5,3.5 0,1.933 1.567,3.5 3.5,3.5 1.933,0 3.5,-1.567 3.5,-3.5 0,-1.933 -1.567,-3.5 -3.5,-3.5 z"
         style="fill:#333333"
         inkscape:connector-curvature="0" />
      <path
         id="path10"
         d="m 16.733,1022.3622 c -0.565,0 -0.875,0.34 -1.093,0.862 l -3.5,7.1997 c -0.77388,1.7452 1.8889,2.8554 2.584,1.0774 0.405,-1.058 0.827,-2.111 1.304,-3.139 v 12.6 c 0,0.7756 0.6244,1.4 1.4,1.4 h 0.0056 c 0.7756,0 1.6122,-0.6245 1.6005,-1.4 l -0.0056,-6.6 h 0.969 l 0.0056,6.6 c 6.58e-4,0.7756 0.85493,1.4 1.6305,1.4 0.7756,0 1.4,-0.6244 1.4,-1.4 l -0.0056,-12.6 h -0.05194 l 1.5641,3.1383 c 0.31228,0.7966 1.2598,1.1293 2.0016,0.7027 l 2.5408,1.4855 c -0.01862,0.091 -0.05474,0.1765 -0.05474,0.2735 v 7.7 c 0,0.3878 0.58466,0.7 0.97246,0.7 0.3878,0 1.0626,-0.3173 1,-0.7 v -3.3 h 1 v 3.3 c 0,0.3878 0.6122,0.7 1,0.7 0.3878,0 1.0333,-0.3122 1.0333,-0.7 v -7 l 1.7998,1.4949 c 0.65976,0.687 1.6769,-0.3301 0.98986,-0.9899 l -2.9947,-2.5995 c -0.13132,-0.1313 -0.30927,-0.205 -0.49491,-0.2051 h -3.4116 l -2.6776,-1.3708 c 1.27e-4,-0.1959 -0.04088,-0.3896 -0.12026,-0.5687 l -3.502,-7.197 c -0.217,-0.521 -0.726,-0.861 -1.291,-0.862 z"
         style="fill:#333333"
         inkscape:connector-curvature="0" />
      <path
         id="path12"
         d="m 31.5,1026.3622 c -1.376,0 -2.5,1.124 -2.5,2.5 0,1.376 1.124,2.5 2.5,2.5 1.376,0 2.5,-1.124 2.5,-2.5 0,-1.376 -1.124,-2.5 -2.5,-2.5 z"
         style="fill:#333333"
         inkscape:connector-curvature="0" />
    </g>
  </g>
</svg>
