<?xml version="1.0" encoding="UTF-8" standalone="no"?>
<!-- Created with Inkscape (http://www.inkscape.org/) -->

<svg
   xmlns:dc="http://purl.org/dc/elements/1.1/"
   xmlns:cc="http://creativecommons.org/ns#"
   xmlns:rdf="http://www.w3.org/1999/02/22-rdf-syntax-ns#"
   xmlns:svg="http://www.w3.org/2000/svg"
   xmlns="http://www.w3.org/2000/svg"
   xmlns:xlink="http://www.w3.org/1999/xlink"
   xmlns:sodipodi="http://sodipodi.sourceforge.net/DTD/sodipodi-0.dtd"
   xmlns:inkscape="http://www.inkscape.org/namespaces/inkscape"
   width="48"
   height="48"
   viewBox="0 0 12.7 12.7"
   version="1.1"
   id="svg4522"
   inkscape:version="0.92.1 r15371"
   sodipodi:docname="preferences-activities.svg">
  <defs
     id="defs4516">
    <linearGradient
       inkscape:collect="always"
       id="linearGradient5254">
      <stop
         style="stop-color:#79b83c;stop-opacity:1"
         offset="0"
         id="stop5250" />
      <stop
         style="stop-color:#217537;stop-opacity:1"
         offset="1"
         id="stop5252" />
    </linearGradient>
    <linearGradient
       inkscape:collect="always"
       xlink:href="#linearGradient5254"
       id="linearGradient4520"
       x1="24.001953"
       y1="4.0078125"
       x2="24.001953"
       y2="45.306507"
       gradientUnits="userSpaceOnUse" />
  </defs>
  <sodipodi:namedview
     id="base"
     pagecolor="#ffffff"
     bordercolor="#666666"
     borderopacity="1.0"
     inkscape:pageopacity="0.0"
     inkscape:pageshadow="2"
     inkscape:zoom="9.95"
     inkscape:cx="19.227882"
     inkscape:cy="24.555962"
     inkscape:document-units="px"
     inkscape:current-layer="layer1"
     showgrid="false"
     units="px"
     inkscape:window-width="1600"
     inkscape:window-height="808"
     inkscape:window-x="0"
     inkscape:window-y="0"
     inkscape:window-maximized="1" />
  <metadata
     id="metadata4519">
    <rdf:RDF>
      <cc:Work
         rdf:about="">
        <dc:format>image/svg+xml</dc:format>
        <dc:type
           rdf:resource="http://purl.org/dc/dcmitype/StillImage" />
        <dc:title></dc:title>
      </cc:Work>
    </rdf:RDF>
  </metadata>
  <g
     inkscape:label="Layer 1"
     inkscape:groupmode="layer"
     id="layer1"
     transform="translate(0,-284.29999)">
    <path
       style="color:#000000;fill:url(#linearGradient4520);fill-opacity:1;stroke-width:3;stroke-linejoin:round"
       d="M 24.001953 4.0078125 C 23.31821 4.0065842 22.634268 4.0409656 21.953125 4.109375 L 21.476562 7.2089844 C 20.214446 7.3979608 18.977179 7.7274192 17.789062 8.1933594 L 15.832031 5.7539062 C 14.581802 6.3150905 13.392706 7.0022816 12.283203 7.8066406 L 13.417969 10.71875 C 12.416259 11.512413 11.508077 12.416683 10.708984 13.414062 L 7.8164062 12.285156 C 7.0130548 13.396186 6.3253813 14.588253 5.765625 15.839844 L 8.1875 17.779297 C 7.9505803 18.373552 7.746611 18.980535 7.578125 19.597656 C 7.4198875 20.21576 7.2967941 20.842672 7.2089844 21.474609 L 4.1152344 21.951172 C 3.9730183 23.313049 3.9710745 24.686573 4.109375 26.048828 L 7.2089844 26.523438 C 7.3980174 27.785649 7.7294472 29.02273 8.1953125 30.210938 L 5.7539062 32.166016 C 6.3151045 33.416246 7.0042188 34.607317 7.8085938 35.716797 L 10.71875 34.580078 C 11.512425 35.581804 12.416669 36.49191 13.414062 37.291016 L 12.287109 40.183594 C 13.398164 40.986932 14.588249 41.674627 15.839844 42.234375 L 17.78125 39.8125 C 18.375487 40.049476 18.982471 40.251468 19.599609 40.419922 C 20.217697 40.578284 20.844612 40.701377 21.476562 40.789062 L 21.951172 43.884766 C 23.313056 44.026876 24.686541 44.027066 26.048828 43.890625 L 26.523438 40.791016 C 27.785647 40.602039 29.022712 40.272505 30.210938 39.806641 L 32.166016 42.246094 C 33.416244 41.683247 34.607294 40.995765 35.716797 40.191406 L 34.580078 37.28125 C 35.581788 36.487587 36.491923 35.583317 37.291016 34.585938 L 40.183594 35.712891 C 40.986947 34.601823 41.674619 33.409794 42.234375 32.158203 L 39.8125 30.21875 C 40.049401 29.624533 40.251434 29.017512 40.419922 28.400391 C 40.578171 27.782287 40.701226 27.155412 40.789062 26.523438 L 43.882812 26.048828 C 44.025036 24.686913 44.028767 23.313465 43.890625 21.951172 L 40.789062 21.476562 C 40.600011 20.214389 40.270556 18.97727 39.804688 17.789062 L 42.246094 15.832031 C 41.684898 14.581801 40.99578 13.392721 40.191406 12.283203 L 37.28125 13.417969 C 36.487497 12.416356 35.583221 11.508052 34.585938 10.708984 L 35.712891 7.8164062 C 34.601785 7.0130677 33.409854 6.325373 32.158203 5.765625 L 30.21875 8.1875 C 29.624005 7.9505236 29.018062 7.7485317 28.400391 7.5800781 C 27.782303 7.4217159 27.155388 7.2986225 26.523438 7.2109375 L 26.048828 4.1152344 C 25.367887 4.0441793 24.685696 4.0090408 24.001953 4.0078125 z M 24 14 A 9.9999997 9.9999997 0 0 1 34 24 A 9.9999997 9.9999997 0 0 1 24 34 A 9.9999997 9.9999997 0 0 1 14 24 A 9.9999997 9.9999997 0 0 1 24 14 z "
       transform="matrix(0.26458333,0,0,0.26458333,0,284.29999)"
       id="path32" />
    <path
       style="color:#000000;fill:#080808;fill-opacity:1;stroke-width:3;stroke-linejoin:round;opacity:0.2"
       d="M 12.587891 7.5976562 C 12.486952 7.6680151 12.382871 7.7343844 12.283203 7.8066406 L 13.126953 9.9707031 C 13.224395 9.8898738 13.318674 9.8052349 13.417969 9.7265625 L 12.587891 7.5976562 z M 35.408203 7.6074219 L 34.585938 9.7167969 C 34.68517 9.7963064 34.779579 9.881232 34.876953 9.9628906 L 35.712891 7.8164062 C 35.612972 7.7441642 35.509414 7.6777846 35.408203 7.6074219 z M 24 13.007812 A 9.9999995 9.9999995 0 0 0 14 23.007812 A 9.9999995 9.9999995 0 0 0 14.021484 23.589844 A 9.9999996 9.9999996 0 0 1 24 14 A 9.9999996 9.9999996 0 0 1 33.978516 23.417969 A 9.9999995 9.9999995 0 0 0 34 23.007812 A 9.9999995 9.9999995 0 0 0 24 13.007812 z M 41.902344 15.117188 L 39.804688 16.798828 C 39.904014 17.052163 39.995145 17.308856 40.082031 17.566406 L 42.246094 15.832031 C 42.137767 15.590702 42.020112 15.353827 41.902344 15.117188 z M 6.109375 15.123047 C 5.9917142 15.360356 5.8738166 15.597932 5.765625 15.839844 L 7.90625 17.554688 C 7.9950624 17.296985 8.0865196 17.040394 8.1875 16.787109 L 6.109375 15.123047 z M 43.978516 23.46875 C 43.965227 23.999451 43.938008 24.530046 43.882812 25.058594 L 40.789062 25.533203 C 40.701226 26.165178 40.578171 26.792052 40.419922 27.410156 C 40.251431 28.027278 40.049401 28.634298 39.8125 29.228516 L 40.09375 29.453125 C 40.212998 29.10563 40.323086 28.755071 40.419922 28.400391 C 40.578171 27.782287 40.701227 27.155411 40.789062 26.523438 L 43.882812 26.048828 C 43.972346 25.191466 43.999596 24.329593 43.978516 23.46875 z M 4.0195312 23.542969 C 3.9992271 24.379074 4.0248145 25.215911 4.109375 26.048828 L 7.2089844 26.523438 C 7.3576233 27.51593 7.5971161 28.491532 7.9179688 29.441406 L 8.1953125 29.21875 C 7.7294472 28.030542 7.3980174 26.793461 7.2089844 25.53125 L 4.109375 25.056641 C 4.0582693 24.553251 4.032335 24.048285 4.0195312 23.542969 z M 41.892578 31.884766 C 41.401407 32.875506 40.831837 33.826112 40.183594 34.722656 L 37.291016 33.595703 C 36.491923 34.593083 35.581788 35.497353 34.580078 36.291016 L 34.871094 37.037109 C 35.756981 36.302519 36.571133 35.484451 37.291016 34.585938 L 40.183594 35.712891 C 40.986947 34.601823 41.674619 33.409794 42.234375 32.158203 L 41.892578 31.884766 z M 6.0976562 31.890625 L 5.7539062 32.166016 C 6.3151045 33.416246 7.0042188 34.607317 7.8085938 35.716797 L 10.71875 34.580078 C 11.433452 35.48213 12.241745 36.30561 13.123047 37.044922 L 13.414062 36.298828 C 12.416669 35.499723 11.512425 34.589617 10.71875 33.587891 L 7.8085938 34.724609 C 7.1598296 33.829765 6.589823 32.879855 6.0976562 31.890625 z M 30.210938 38.816406 C 29.022711 39.282271 27.785647 39.611805 26.523438 39.800781 L 26.048828 42.900391 C 24.686541 43.034942 23.313056 43.034688 21.951172 42.892578 L 21.476562 39.796875 C 20.844613 39.70919 20.217697 39.586097 19.599609 39.427734 C 18.982471 39.259281 18.375487 39.057289 17.78125 38.820312 L 15.839844 41.242188 C 14.700801 40.732776 13.615744 40.112466 12.591797 39.400391 L 12.287109 40.183594 C 13.398164 40.986932 14.588249 41.674627 15.839844 42.234375 L 17.78125 39.8125 C 18.375487 40.049476 18.982471 40.251468 19.599609 40.419922 C 20.217697 40.578284 20.844613 40.701378 21.476562 40.789062 L 21.951172 43.884766 C 23.313056 44.026876 24.686541 44.027066 26.048828 43.890625 L 26.523438 40.791016 C 27.785646 40.602039 29.022712 40.272505 30.210938 39.806641 L 32.166016 42.246094 C 33.416244 41.683247 34.607294 40.995765 35.716797 40.191406 L 35.412109 39.410156 C 34.389103 40.123087 33.303935 40.743573 32.166016 41.255859 L 30.210938 38.816406 z "
       transform="matrix(0.26458333,0,0,0.26458333,0,284.29999)"
       id="path4509" />
  </g>
</svg>
