<?xml version="1.0" encoding="UTF-8" standalone="no"?>
<svg
   xmlns:dc="http://purl.org/dc/elements/1.1/"
   xmlns:cc="http://creativecommons.org/ns#"
   xmlns:rdf="http://www.w3.org/1999/02/22-rdf-syntax-ns#"
   xmlns:svg="http://www.w3.org/2000/svg"
   xmlns="http://www.w3.org/2000/svg"
   xmlns:xlink="http://www.w3.org/1999/xlink"
   xmlns:sodipodi="http://sodipodi.sourceforge.net/DTD/sodipodi-0.dtd"
   xmlns:inkscape="http://www.inkscape.org/namespaces/inkscape"
   viewBox="0 0 48 48"
   id="svg2"
   version="1.1"
   inkscape:version="0.48.5 r10040"
   width="100%"
   height="100%"
   sodipodi:docname="ptbatcher.svg">
  <metadata
     id="metadata69">
    <rdf:RDF>
      <cc:Work
         rdf:about="">
        <dc:format>image/svg+xml</dc:format>
        <dc:type
           rdf:resource="http://purl.org/dc/dcmitype/StillImage" />
      </cc:Work>
    </rdf:RDF>
  </metadata>
  <sodipodi:namedview
     pagecolor="#ffffff"
     bordercolor="#666666"
     borderopacity="1"
     objecttolerance="10"
     gridtolerance="10"
     guidetolerance="10"
     inkscape:pageopacity="0"
     inkscape:pageshadow="2"
     inkscape:window-width="1301"
     inkscape:window-height="744"
     id="namedview67"
     showgrid="true"
     inkscape:zoom="8.3079731"
     inkscape:cx="24.795853"
     inkscape:cy="25.803464"
     inkscape:window-x="65"
     inkscape:window-y="24"
     inkscape:window-maximized="1"
     inkscape:current-layer="svg2">
    <inkscape:grid
       type="xygrid"
       id="grid3046" />
  </sodipodi:namedview>
  <defs
     id="defs4">
    <linearGradient
       id="linearGradient3791">
      <stop
         style="stop-color:#2483cc;stop-opacity:1;"
         offset="0"
         id="stop3793" />
      <stop
         style="stop-color:#7bafd7;stop-opacity:1;"
         offset="1"
         id="stop3795" />
    </linearGradient>
    <linearGradient
       y2="1"
       x2="25"
       y1="47"
       x1="25"
       gradientUnits="userSpaceOnUse"
       id="linearGradient3870"
       xlink:href="#linearGradient3791"
       inkscape:collect="always" />
    <linearGradient
       y2="1028.3622"
       x2="44"
       y1="1028.3622"
       x1="4"
       gradientTransform="translate(-3.5e-6,-1004.3619)"
       gradientUnits="userSpaceOnUse"
       id="linearGradient3019"
       xlink:href="#linearGradient3791"
       inkscape:collect="always" />
  </defs>
  <rect
     style="fill:url(#linearGradient3019);fill-opacity:1.0;stroke:none"
     id="rect3758"
     width="40"
     height="40"
     x="3.9999964"
     y="4.0002828"
     ry="0" />
  <path
     style="opacity:0.35;fill:#000000;fill-opacity:1;stroke:none"
     d="m 3.9999979,44 39.9999961,3e-4 c -19.999997,-1 -19.999997,-1 -39.9999975,0 z"
     id="path3800"
     inkscape:connector-curvature="0"
     sodipodi:nodetypes="cccc" />
  <path
     sodipodi:nodetypes="cccc"
     inkscape:connector-curvature="0"
     id="path3804"
     d="M 4.0000014,4.0002 43.999997,4 C 24.000001,5 24.000001,5 4,4 z"
     style="opacity:0.75;fill:#ffffff;fill-opacity:1;stroke:none" />
  <g
     id="g33" />
  <g
     id="g3057"
     transform="translate(0.99999996,1.5384611)"
     style="fill:#000000;opacity:0.1">
    <g
       transform="matrix(0.76923077,0,0,0.76923077,7.7692308,5.5384615)"
       id="g3059"
       style="opacity:0.80000000000000004;fill:#000000">
      <path
         style="fill:#000000;stroke:none"
         d="m 12,16 26,2 -10,0 -4,0 z"
         id="path3061"
         inkscape:connector-curvature="0"
         sodipodi:nodetypes="ccccc" />
      <path
         style="fill:#000000;stroke:none"
         d="m 24,21 -2,5 -3,6 3,2 -1,-2 3,-6 -1,7 3,2 -1,-2 0,-4 2,-8 1,-2 -4,0 z"
         id="path3063"
         inkscape:connector-curvature="0"
         sodipodi:nodetypes="cccccccccccccc" />
      <path
         sodipodi:type="arc"
         style="fill:#000000;fill-opacity:1;stroke:none"
         id="path3065"
         sodipodi:cx="24.5"
         sodipodi:cy="12.5"
         sodipodi:rx="1.5"
         sodipodi:ry="1.5"
         d="M 26,12.5 C 26,13.328427 25.328427,14 24.5,14 23.671573,14 23,13.328427 23,12.5 23,11.671573 23.671573,11 24.5,11 c 0.828427,0 1.5,0.671573 1.5,1.5 z"
         transform="matrix(1.3333333,0,0,1.3333333,-6.6666659,-1.6666662)" />
      <path
         transform="translate(2,2.5)"
         d="M 26,12.5 C 26,13.328427 25.328427,14 24.5,14 23.671573,14 23,13.328427 23,12.5 23,11.671573 23.671573,11 24.5,11 c 0.828427,0 1.5,0.671573 1.5,1.5 z"
         sodipodi:ry="1.5"
         sodipodi:rx="1.5"
         sodipodi:cy="12.5"
         sodipodi:cx="24.5"
         id="path3067"
         style="fill:#000000;fill-opacity:1;stroke:none"
         sodipodi:type="arc" />
    </g>
    <g
       id="g3069"
       transform="matrix(0.92307692,0,0,0.92307692,-0.076923,0.1538462)"
       style="fill:#000000">
      <path
         sodipodi:nodetypes="ccccc"
         inkscape:connector-curvature="0"
         id="path3071"
         d="m 12,16 26,2 -10,0 -4,0 z"
         style="fill:#000000;stroke:none" />
      <path
         sodipodi:nodetypes="cccccccccccccc"
         inkscape:connector-curvature="0"
         id="path3073"
         d="m 24,21 -2,5 -3,6 3,2 -1,-2 3,-6 -1,7 3,2 -1,-2 0,-4 2,-8 1,-2 -4,0 z"
         style="fill:#000000;stroke:none" />
      <path
         transform="matrix(1.3333333,0,0,1.3333333,-6.6666659,-1.6666662)"
         d="M 26,12.5 C 26,13.328427 25.328427,14 24.5,14 23.671573,14 23,13.328427 23,12.5 23,11.671573 23.671573,11 24.5,11 c 0.828427,0 1.5,0.671573 1.5,1.5 z"
         sodipodi:ry="1.5"
         sodipodi:rx="1.5"
         sodipodi:cy="12.5"
         sodipodi:cx="24.5"
         id="path3075"
         style="fill:#000000;fill-opacity:1;stroke:none"
         sodipodi:type="arc" />
      <path
         sodipodi:type="arc"
         style="fill:#000000;fill-opacity:1;stroke:none"
         id="path3077"
         sodipodi:cx="24.5"
         sodipodi:cy="12.5"
         sodipodi:rx="1.5"
         sodipodi:ry="1.5"
         d="M 26,12.5 C 26,13.328427 25.328427,14 24.5,14 23.671573,14 23,13.328427 23,12.5 23,11.671573 23.671573,11 24.5,11 c 0.828427,0 1.5,0.671573 1.5,1.5 z"
         transform="translate(2,2.5)" />
    </g>
    <g
       id="g3079"
       transform="matrix(0.53846154,0,0,0.53846154,16.538462,13.615385)"
       style="opacity:0.59999999999999998;fill:#000000">
      <path
         sodipodi:nodetypes="ccccc"
         inkscape:connector-curvature="0"
         id="path3081"
         d="m 12,16 26,2 -10,0 -4,0 z"
         style="fill:#000000;stroke:none" />
      <path
         sodipodi:nodetypes="cccccccccccccc"
         inkscape:connector-curvature="0"
         id="path3083"
         d="m 24,21 -2,5 -3,6 3,2 -1,-2 3,-6 -1,7 3,2 -1,-2 0,-4 2,-8 1,-2 -4,0 z"
         style="fill:#000000;stroke:none" />
      <path
         transform="matrix(1.3333333,0,0,1.3333333,-6.6666659,-1.6666662)"
         d="M 26,12.5 C 26,13.328427 25.328427,14 24.5,14 23.671573,14 23,13.328427 23,12.5 23,11.671573 23.671573,11 24.5,11 c 0.828427,0 1.5,0.671573 1.5,1.5 z"
         sodipodi:ry="1.5"
         sodipodi:rx="1.5"
         sodipodi:cy="12.5"
         sodipodi:cx="24.5"
         id="path3085"
         style="fill:#000000;fill-opacity:1;stroke:none"
         sodipodi:type="arc" />
      <path
         sodipodi:type="arc"
         style="fill:#000000;fill-opacity:1;stroke:none"
         id="path3087"
         sodipodi:cx="24.5"
         sodipodi:cy="12.5"
         sodipodi:rx="1.5"
         sodipodi:ry="1.5"
         d="M 26,12.5 C 26,13.328427 25.328427,14 24.5,14 23.671573,14 23,13.328427 23,12.5 23,11.671573 23.671573,11 24.5,11 c 0.828427,0 1.5,0.671573 1.5,1.5 z"
         transform="translate(2,2.5)" />
    </g>
  </g>
  <g
     id="g3040"
     transform="translate(0,0.5384611)">
    <g
       style="opacity:0.8"
       id="g3020"
       transform="matrix(0.76923077,0,0,0.76923077,7.7692308,5.5384615)">
      <path
         sodipodi:nodetypes="ccccc"
         inkscape:connector-curvature="0"
         id="path3022"
         d="m 12,16 26,2 -10,0 -4,0 z"
         style="fill:#333333;stroke:none" />
      <path
         sodipodi:nodetypes="cccccccccccccc"
         inkscape:connector-curvature="0"
         id="path3024"
         d="m 24,21 -2,5 -3,6 3,2 -1,-2 3,-6 -1,7 3,2 -1,-2 0,-4 2,-8 1,-2 -4,0 z"
         style="fill:#333333;stroke:none" />
      <path
         transform="matrix(1.3333333,0,0,1.3333333,-6.6666659,-1.6666662)"
         d="M 26,12.5 C 26,13.328427 25.328427,14 24.5,14 23.671573,14 23,13.328427 23,12.5 23,11.671573 23.671573,11 24.5,11 c 0.828427,0 1.5,0.671573 1.5,1.5 z"
         sodipodi:ry="1.5"
         sodipodi:rx="1.5"
         sodipodi:cy="12.5"
         sodipodi:cx="24.5"
         id="path3026"
         style="fill:#333333;fill-opacity:1;stroke:none"
         sodipodi:type="arc" />
      <path
         sodipodi:type="arc"
         style="fill:#d6d610;fill-opacity:1;stroke:none"
         id="path3028"
         sodipodi:cx="24.5"
         sodipodi:cy="12.5"
         sodipodi:rx="1.5"
         sodipodi:ry="1.5"
         d="M 26,12.5 C 26,13.328427 25.328427,14 24.5,14 23.671573,14 23,13.328427 23,12.5 23,11.671573 23.671573,11 24.5,11 c 0.828427,0 1.5,0.671573 1.5,1.5 z"
         transform="translate(2,2.5)" />
    </g>
    <g
       transform="matrix(0.92307692,0,0,0.92307692,-0.076923,0.1538462)"
       id="g3848">
      <path
         style="fill:#333333;stroke:none"
         d="m 12,16 26,2 -10,0 -4,0 z"
         id="path3052"
         inkscape:connector-curvature="0"
         sodipodi:nodetypes="ccccc" />
      <path
         style="fill:#333333;stroke:none"
         d="m 24,21 -2,5 -3,6 3,2 -1,-2 3,-6 -1,7 3,2 -1,-2 0,-4 2,-8 1,-2 -4,0 z"
         id="path3054"
         inkscape:connector-curvature="0"
         sodipodi:nodetypes="cccccccccccccc" />
      <path
         sodipodi:type="arc"
         style="fill:#333333;fill-opacity:1;stroke:none"
         id="path3056"
         sodipodi:cx="24.5"
         sodipodi:cy="12.5"
         sodipodi:rx="1.5"
         sodipodi:ry="1.5"
         d="M 26,12.5 C 26,13.328427 25.328427,14 24.5,14 23.671573,14 23,13.328427 23,12.5 23,11.671573 23.671573,11 24.5,11 c 0.828427,0 1.5,0.671573 1.5,1.5 z"
         transform="matrix(1.3333333,0,0,1.3333333,-6.6666659,-1.6666662)" />
      <path
         transform="translate(2,2.5)"
         d="M 26,12.5 C 26,13.328427 25.328427,14 24.5,14 23.671573,14 23,13.328427 23,12.5 23,11.671573 23.671573,11 24.5,11 c 0.828427,0 1.5,0.671573 1.5,1.5 z"
         sodipodi:ry="1.5"
         sodipodi:rx="1.5"
         sodipodi:cy="12.5"
         sodipodi:cx="24.5"
         id="path3058"
         style="fill:#d6d610;fill-opacity:1;stroke:none"
         sodipodi:type="arc" />
    </g>
    <g
       style="opacity:0.6"
       transform="matrix(0.53846154,0,0,0.53846154,16.538462,13.615385)"
       id="g3030">
      <path
         style="fill:#333333;stroke:none"
         d="m 12,16 26,2 -10,0 -4,0 z"
         id="path3032"
         inkscape:connector-curvature="0"
         sodipodi:nodetypes="ccccc" />
      <path
         style="fill:#333333;stroke:none"
         d="m 24,21 -2,5 -3,6 3,2 -1,-2 3,-6 -1,7 3,2 -1,-2 0,-4 2,-8 1,-2 -4,0 z"
         id="path3034"
         inkscape:connector-curvature="0"
         sodipodi:nodetypes="cccccccccccccc" />
      <path
         sodipodi:type="arc"
         style="fill:#333333;fill-opacity:1;stroke:none"
         id="path3036"
         sodipodi:cx="24.5"
         sodipodi:cy="12.5"
         sodipodi:rx="1.5"
         sodipodi:ry="1.5"
         d="M 26,12.5 C 26,13.328427 25.328427,14 24.5,14 23.671573,14 23,13.328427 23,12.5 23,11.671573 23.671573,11 24.5,11 c 0.828427,0 1.5,0.671573 1.5,1.5 z"
         transform="matrix(1.3333333,0,0,1.3333333,-6.6666659,-1.6666662)" />
      <path
         transform="translate(2,2.5)"
         d="M 26,12.5 C 26,13.328427 25.328427,14 24.5,14 23.671573,14 23,13.328427 23,12.5 23,11.671573 23.671573,11 24.5,11 c 0.828427,0 1.5,0.671573 1.5,1.5 z"
         sodipodi:ry="1.5"
         sodipodi:rx="1.5"
         sodipodi:cy="12.5"
         sodipodi:cx="24.5"
         id="path3038"
         style="fill:#d6d610;fill-opacity:1;stroke:none"
         sodipodi:type="arc" />
    </g>
  </g>
</svg>
