<?xml version="1.0" encoding="UTF-8" standalone="no"?>
<svg
   xmlns:dc="http://purl.org/dc/elements/1.1/"
   xmlns:cc="http://creativecommons.org/ns#"
   xmlns:rdf="http://www.w3.org/1999/02/22-rdf-syntax-ns#"
   xmlns:svg="http://www.w3.org/2000/svg"
   xmlns="http://www.w3.org/2000/svg"
   xmlns:xlink="http://www.w3.org/1999/xlink"
   xmlns:sodipodi="http://sodipodi.sourceforge.net/DTD/sodipodi-0.dtd"
   xmlns:inkscape="http://www.inkscape.org/namespaces/inkscape"
   viewBox="0 0 48 48"
   id="svg2"
   version="1.1"
   inkscape:version="0.48.5 r10040"
   width="100%"
   height="100%"
   sodipodi:docname="putty.svg">
  <metadata
     id="metadata69">
    <rdf:RDF>
      <cc:Work
         rdf:about="">
        <dc:format>image/svg+xml</dc:format>
        <dc:type
           rdf:resource="http://purl.org/dc/dcmitype/StillImage" />
      </cc:Work>
    </rdf:RDF>
  </metadata>
  <sodipodi:namedview
     pagecolor="#ffffff"
     bordercolor="#666666"
     borderopacity="1"
     objecttolerance="10"
     gridtolerance="10"
     guidetolerance="10"
     inkscape:pageopacity="0"
     inkscape:pageshadow="2"
     inkscape:window-width="1301"
     inkscape:window-height="744"
     id="namedview67"
     showgrid="true"
     inkscape:zoom="5.7708333"
     inkscape:cx="11.94375"
     inkscape:cy="24.720158"
     inkscape:window-x="65"
     inkscape:window-y="24"
     inkscape:window-maximized="1"
     inkscape:current-layer="svg2">
    <inkscape:grid
       type="xygrid"
       id="grid3067" />
  </sodipodi:namedview>
  <defs
     id="defs4">
    <linearGradient
       id="linearGradient3764"
       x1="1"
       x2="47"
       gradientUnits="userSpaceOnUse"
       gradientTransform="matrix(0,-1,1,0,-1.5e-6,47.999998)">
      <stop
         stop-color="#e4e4e4"
         stop-opacity="1"
         id="stop7" />
      <stop
         offset="1"
         stop-color="#eee"
         stop-opacity="1"
         id="stop9"
         style="stop-color:#fff4f4;stop-opacity:1;" />
    </linearGradient>
    <clipPath
       id="clipPath-439865942">
      <g
         transform="translate(0,-1004.3622)"
         id="g12">
        <path
           d="m -24 13 c 0 1.105 -0.672 2 -1.5 2 -0.828 0 -1.5 -0.895 -1.5 -2 0 -1.105 0.672 -2 1.5 -2 0.828 0 1.5 0.895 1.5 2 z"
           transform="matrix(15.333333,0,0,11.5,414.99999,878.8622)"
           fill="#1890d0"
           id="path14" />
      </g>
    </clipPath>
    <clipPath
       id="clipPath-445363359">
      <g
         transform="translate(0,-1004.3622)"
         id="g17">
        <path
           d="m -24 13 c 0 1.105 -0.672 2 -1.5 2 -0.828 0 -1.5 -0.895 -1.5 -2 0 -1.105 0.672 -2 1.5 -2 0.828 0 1.5 0.895 1.5 2 z"
           transform="matrix(15.333333,0,0,11.5,414.99999,878.8622)"
           fill="#1890d0"
           id="path19" />
      </g>
    </clipPath>
    <linearGradient
       y2="1028.3622"
       x2="44"
       y1="1028.3622"
       x1="4"
       gradientTransform="translate(-3.82e-6,-1004.362)"
       gradientUnits="userSpaceOnUse"
       id="linearGradient3019"
       xlink:href="#linearGradient3764"
       inkscape:collect="always" />
  </defs>
  <rect
     style="fill:url(#linearGradient3019);fill-opacity:1.0;stroke:none"
     id="rect3758"
     width="40"
     height="40"
     x="3.9999964"
     y="4.0002828"
     ry="0" />
  <path
     style="opacity:0.35;fill:#000000;fill-opacity:1;stroke:none"
     d="m 3.9999979,44 39.9999961,3e-4 c -19.999997,-1 -19.999997,-1 -39.9999975,0 z"
     id="path3800"
     inkscape:connector-curvature="0"
     sodipodi:nodetypes="cccc" />
  <path
     sodipodi:nodetypes="cccc"
     inkscape:connector-curvature="0"
     id="path3804"
     d="M 4.0000014,4.0002 43.999997,4 C 24.000001,5 24.000001,5 4,4 z"
     style="opacity:0.75;fill:#ffffff;fill-opacity:1;stroke:none" />
  <g
     id="g33" />
  <g
     id="g35">
    <g
       clip-path="url(#clipPath-439865942)"
       id="g37">
      <g
         transform="translate(1,1)"
         id="g39">
        <g
           opacity="0.1"
           id="g41">
          <!-- color: #eeeeee -->
          <g
             id="g43">
            <path
               d="m 11.531 13 c -0.293 0.031 -0.535 0.301 -0.531 0.594 l 0 10.813 c 0 0.316 0.281 0.594 0.594 0.594 l 5.406 0 l 0 2 l -4 0 l 0 2 l 7.281 0 l 0 -3.969 l -2.313 -2.031 l -4.531 0 c -0.211 0 -0.406 -0.195 -0.406 -0.406 l 0 -7.188 c -0.004 -0.188 0.129 -0.371 0.313 -0.406 c 0.023 -0.004 0.07 -0.004 0.094 0 l 11.125 0 c 0.211 0 0.406 0.199 0.406 0.406 l 0 2.875 l 2.031 0 l 0 -4.688 c 0 -0.313 -0.281 -0.594 -0.594 -0.594 m -14.875 0"
               fill="#000"
               stroke="none"
               fill-rule="nonzero"
               fill-opacity="1"
               id="path45" />
            <path
               d="m 25.13 19 l 2.469 2 l 6.969 0 c 0.211 0 0.406 0.195 0.406 0.406 l 0 7.188 c 0 0.211 -0.195 0.406 -0.406 0.406 l -11.125 0 c -0.207 0 -0.406 -0.195 -0.406 -0.406 l 0 -1.125 l -2.02 -1.781 l 0 4.719 c 0 0.316 0.27 0.594 0.594 0.594 l 5.406 0 l 0 2 l -4 0 l 0 2 l 12 0 l 0 -2 l -4 0 l 0 -2 l 5.395 0 c 0.316 0 0.605 -0.277 0.605 -0.594 l 0 -10.813 c 0 -0.313 -0.281 -0.594 -0.605 -0.594 m -11.273 0"
               fill="#000"
               stroke="none"
               fill-rule="nonzero"
               fill-opacity="1"
               id="path47" />
            <path
               d="m 15 19 l 9 8 l 0 -5 l 7 3 l -10 -8 l 0 3.75 l -5.996 -1.75 m -0.004 0"
               fill="#000"
               stroke="none"
               fill-rule="evenodd"
               fill-opacity="1"
               id="path49" />
          </g>
        </g>
      </g>
    </g>
  </g>
  <g
     id="g51">
    <g
       clip-path="url(#clipPath-445363359)"
       id="g53">
      <!-- color: #eeeeee -->
      <g
         id="g55">
        <path
           d="m 11.531 13 c -0.293 0.031 -0.535 0.301 -0.531 0.594 l 0 10.813 c 0 0.316 0.281 0.594 0.594 0.594 l 5.406 0 l 0 2 l -4 0 l 0 2 l 7.281 0 l 0 -3.969 l -2.313 -2.031 l -4.531 0 c -0.211 0 -0.406 -0.195 -0.406 -0.406 l 0 -7.188 c -0.004 -0.188 0.129 -0.371 0.313 -0.406 c 0.023 -0.004 0.07 -0.004 0.094 0 l 11.125 0 c 0.211 0 0.406 0.199 0.406 0.406 l 0 2.875 l 2.031 0 l 0 -4.688 c 0 -0.313 -0.281 -0.594 -0.594 -0.594 m -14.875 0"
           fill="#c0274b"
           stroke="none"
           fill-rule="nonzero"
           fill-opacity="1"
           id="path57" />
        <path
           d="m 25.13 19 l 2.469 2 l 6.969 0 c 0.211 0 0.406 0.195 0.406 0.406 l 0 7.188 c 0 0.211 -0.195 0.406 -0.406 0.406 l -11.125 0 c -0.207 0 -0.406 -0.195 -0.406 -0.406 l 0 -1.125 l -2.02 -1.781 l 0 4.719 c 0 0.316 0.27 0.594 0.594 0.594 l 5.406 0 l 0 2 l -4 0 l 0 2 l 12 0 l 0 -2 l -4 0 l 0 -2 l 5.395 0 c 0.316 0 0.605 -0.277 0.605 -0.594 l 0 -10.813 c 0 -0.313 -0.281 -0.594 -0.605 -0.594 m -11.273 0"
           fill="#283751"
           stroke="none"
           fill-rule="nonzero"
           fill-opacity="1"
           id="path59" />
        <path
           d="m 15 19 l 9 8 l 0 -5 l 7 3 l -10 -8 l 0 3.75 l -5.996 -1.75 m -0.004 0"
           fill="#ea8e00"
           stroke="none"
           fill-rule="evenodd"
           fill-opacity="1"
           id="path61" />
      </g>
    </g>
  </g>
</svg>
