<?xml version="1.0" encoding="UTF-8" standalone="no"?>
<!-- Created with Inkscape (http://www.inkscape.org/) -->

<svg
   xmlns:dc="http://purl.org/dc/elements/1.1/"
   xmlns:cc="http://creativecommons.org/ns#"
   xmlns:rdf="http://www.w3.org/1999/02/22-rdf-syntax-ns#"
   xmlns:svg="http://www.w3.org/2000/svg"
   xmlns="http://www.w3.org/2000/svg"
   xmlns:xlink="http://www.w3.org/1999/xlink"
   xmlns:sodipodi="http://sodipodi.sourceforge.net/DTD/sodipodi-0.dtd"
   xmlns:inkscape="http://www.inkscape.org/namespaces/inkscape"
   width="48"
   height="48"
   id="svg5453"
   version="1.1"
   inkscape:version="0.48.5 r10040"
   sodipodi:docname="qcomicbook.svg"
   viewBox="0 0 48 48">
  <defs
     id="defs5455">
    <linearGradient
       id="linearGradient4764">
      <stop
         id="stop4766"
         offset="0"
         style="stop-color:#bcdffc;stop-opacity:0.99607843" />
      <stop
         id="stop4768"
         offset="1"
         style="stop-color:#f6fafe;stop-opacity:1" />
    </linearGradient>
    <linearGradient
       inkscape:collect="always"
       xlink:href="#linearGradient4172"
       id="linearGradient4685"
       x1="419.61597"
       y1="-547.83783"
       x2="419.61597"
       y2="-499.81088"
       gradientUnits="userSpaceOnUse" />
    <linearGradient
       id="linearGradient4142">
      <stop
         style="stop-color:#0a79d6;stop-opacity:0.99803919"
         offset="0"
         id="stop4144" />
      <stop
         style="stop-color:#2995ed;stop-opacity:1"
         offset="1"
         id="stop4146" />
    </linearGradient>
    <linearGradient
       id="linearGradient4172"
       inkscape:collect="always">
      <stop
         id="stop4174"
         offset="0"
         style="stop-color:#1c8eff;stop-opacity:1;" />
      <stop
         id="stop4176"
         offset="1"
         style="stop-color:#44d2ff;stop-opacity:1" />
    </linearGradient>
    <linearGradient
       id="linearGradient827">
      <stop
         style="stop-color:#a5e1ff;stop-opacity:1"
         offset="0"
         id="stop829" />
      <stop
         style="stop-color:#f5fcff;stop-opacity:1"
         offset="1"
         id="stop831" />
    </linearGradient>
    <linearGradient
       inkscape:collect="always"
       xlink:href="#linearGradient827"
       id="linearGradient4933"
       gradientUnits="userSpaceOnUse"
       x1="6.7842002"
       y1="32.032539"
       x2="6.7842002"
       y2="-0.059724379"
       gradientTransform="matrix(-1.2445699,0,0,1.2216314,425.99541,504.19811)" />
    <linearGradient
       inkscape:collect="always"
       xlink:href="#linearGradient4142"
       id="linearGradient3793"
       x1="-2.3169935"
       y1="16"
       x2="30.316994"
       y2="16"
       gradientUnits="userSpaceOnUse" />
    <linearGradient
       inkscape:collect="always"
       xlink:href="#linearGradient4142"
       id="linearGradient3797"
       gradientUnits="userSpaceOnUse"
       x1="-2.3169935"
       y1="16"
       x2="30.316994"
       y2="16" />
    <linearGradient
       inkscape:collect="always"
       xlink:href="#linearGradient4142"
       id="linearGradient3799"
       gradientUnits="userSpaceOnUse"
       x1="-2.3169935"
       y1="16"
       x2="30.316994"
       y2="16" />
    <linearGradient
       inkscape:collect="always"
       xlink:href="#linearGradient4142"
       id="linearGradient3801"
       gradientUnits="userSpaceOnUse"
       x1="-2.3169935"
       y1="16"
       x2="30.316994"
       y2="16" />
    <linearGradient
       inkscape:collect="always"
       xlink:href="#linearGradient4142"
       id="linearGradient3803"
       gradientUnits="userSpaceOnUse"
       x1="-2.3169935"
       y1="16"
       x2="30.316994"
       y2="16" />
  </defs>
  <sodipodi:namedview
     id="base"
     pagecolor="#ffffff"
     bordercolor="#666666"
     borderopacity="1.0"
     inkscape:pageopacity="0"
     inkscape:pageshadow="2"
     inkscape:zoom="8.8780484"
     inkscape:cx="0.98315026"
     inkscape:cy="19.858146"
     inkscape:document-units="px"
     inkscape:current-layer="layer1"
     showgrid="true"
     fit-margin-top="0"
     fit-margin-left="0"
     fit-margin-right="0"
     fit-margin-bottom="0"
     inkscape:window-width="1301"
     inkscape:window-height="744"
     inkscape:window-x="65"
     inkscape:window-y="24"
     inkscape:window-maximized="1">
    <inkscape:grid
       type="xygrid"
       id="grid3795" />
  </sodipodi:namedview>
  <metadata
     id="metadata5458">
    <rdf:RDF>
      <cc:Work
         rdf:about="">
        <dc:format>image/svg+xml</dc:format>
        <dc:type
           rdf:resource="http://purl.org/dc/dcmitype/StillImage" />
        <dc:title />
      </cc:Work>
    </rdf:RDF>
  </metadata>
  <g
     inkscape:label="Capa 1"
     inkscape:groupmode="layer"
     id="layer1"
     transform="translate(-384.57143,-499.798)">
    <g
       style="fill:url(#linearGradient3793);fill-opacity:1"
       transform="matrix(-1.2445699,0,0,1.2216314,425.99541,504.7058)"
       id="g4770">
      <g
         style="fill:url(#linearGradient3797);fill-opacity:1"
         id="g4772" />
      <g
         style="fill:url(#linearGradient3803);fill-opacity:1"
         id="g4774">
        <g
           style="fill:url(#linearGradient3801);fill-opacity:1"
           id="g4776">
          <path
             inkscape:connector-curvature="0"
             style="fill:url(#linearGradient3799);fill-opacity:1"
             d="M 14,0 C 4.9906887,0 -2.3169934,6.27 -2.3169934,14 c 0,3.832 1.80302781,7.297 4.7121146,9.828 L 2.3450047,32 10.157348,27.566 C 11.396274,27.828 12.670165,28 14,28 23.009311,28 30.316993,21.73 30.316993,14 30.316993,6.27 23.009311,0 14,0 z"
             id="path4778" />
        </g>
      </g>
    </g>
    <path
       style="fill:#000000"
       d=""
       id="path906"
       inkscape:connector-curvature="0" />
    <path
       style="fill:url(#linearGradient4933);fill-opacity:1"
       d="m 408.57143,504.19761 c -11.21271,0 -20.30764,7.65913 -20.30764,17.10234 0,9.44322 9.09493,17.10482 20.30764,17.10482 1.65507,0 3.23998,-0.21043 4.78191,-0.53049 l 9.72248,5.41653 -0.062,-9.98278 c 3.62056,-3.09195 5.86522,-7.32679 5.86522,-12.00808 0,-9.44321 -9.09492,-17.10234 -20.30764,-17.10234 z m 0,4.0407 c 4.18753,3e-5 8.34925,1.39762 11.31014,3.79818 2.96089,2.40056 4.68448,5.77452 4.68411,9.16926 -0.006,3.34405 -1.68211,6.66681 -4.56872,9.05564 l 0,7.57124 -7.31294,-4.10317 c -1.33939,0.29162 -2.72573,0.4412 -4.11259,0.44373 -4.18753,-2e-5 -8.34925,-1.39761 -11.31015,-3.79817 -2.96088,-2.40057 -4.68447,-5.77452 -4.6841,-9.16927 -3.7e-4,-3.39474 1.72322,-6.7687 4.6841,-9.16926 2.9609,-2.40056 7.12262,-3.79815 11.31015,-3.79818 z"
       id="path78"
       inkscape:connector-curvature="0"
       sodipodi:nodetypes="ssscccsscscccccscsc" />
    <path
       style="fill:#1d8fff;fill-opacity:0.31372549"
       d="m 428.84932,520.79177 c -0.15663,4.47812 -2.34698,8.52073 -5.83547,11.49989 l 0.007,1.01142 c 3.61659,-3.09145 5.85778,-7.32475 5.85778,-12.00313 0,-0.17161 -0.0238,-0.33779 -0.0298,-0.50818 z m -40.55578,0.002 c -0.006,0.16958 -0.0298,0.33494 -0.0298,0.50571 0,9.44322 9.09493,17.10482 20.30764,17.10482 1.65507,0 3.23998,-0.21043 4.78191,-0.53049 l 9.72248,5.41653 -0.007,-1.01886 -9.71505,-5.41405 c -1.54193,0.32008 -3.12684,0.5305 -4.78191,0.5305 -11.00895,0 -19.9556,-7.3881 -20.27789,-16.59416 z"
       id="path4818"
       inkscape:connector-curvature="0" />
    <path
       style="fill:#ffffff;fill-opacity:0.31372549"
       d="m 408.57143,504.19761 c -11.21271,0 -20.30764,7.65913 -20.30764,17.10234 0,0.0861 0.0134,0.16954 0.0149,0.25534 0.16242,-9.32538 9.18144,-16.84949 20.29276,-16.84949 11.11035,0 20.12877,7.52278 20.29276,16.84701 0.001,-0.085 0.0149,-0.1676 0.0149,-0.25286 0,-9.44321 -9.09492,-17.10234 -20.30764,-17.10234 z m 14.4449,29.61365 c -9e-4,7.7e-4 -0.002,0.002 -0.002,0.002 l 0.0595,9.47459 0.002,0.002 -0.0595,-9.47955 z"
       id="path4853"
       inkscape:connector-curvature="0" />
  </g>
</svg>
