<?xml version="1.0" encoding="UTF-8" standalone="no"?>
<svg
   xmlns:dc="http://purl.org/dc/elements/1.1/"
   xmlns:cc="http://creativecommons.org/ns#"
   xmlns:rdf="http://www.w3.org/1999/02/22-rdf-syntax-ns#"
   xmlns:svg="http://www.w3.org/2000/svg"
   xmlns="http://www.w3.org/2000/svg"
   xmlns:xlink="http://www.w3.org/1999/xlink"
   xmlns:sodipodi="http://sodipodi.sourceforge.net/DTD/sodipodi-0.dtd"
   xmlns:inkscape="http://www.inkscape.org/namespaces/inkscape"
   viewBox="0 0 48 48"
   id="svg2"
   version="1.1"
   inkscape:version="0.48.5 r10040"
   width="100%"
   height="100%"
   sodipodi:docname="qgo.svg">
  <metadata
     id="metadata73">
    <rdf:RDF>
      <cc:Work
         rdf:about="">
        <dc:format>image/svg+xml</dc:format>
        <dc:type
           rdf:resource="http://purl.org/dc/dcmitype/StillImage" />
      </cc:Work>
    </rdf:RDF>
  </metadata>
  <sodipodi:namedview
     pagecolor="#ffffff"
     bordercolor="#666666"
     borderopacity="1"
     objecttolerance="10"
     gridtolerance="10"
     guidetolerance="10"
     inkscape:pageopacity="0"
     inkscape:pageshadow="2"
     inkscape:window-width="1301"
     inkscape:window-height="744"
     id="namedview71"
     showgrid="true"
     inkscape:zoom="2.8854167"
     inkscape:cx="-6.9385597"
     inkscape:cy="64.762828"
     inkscape:window-x="65"
     inkscape:window-y="24"
     inkscape:window-maximized="1"
     inkscape:current-layer="svg2">
    <inkscape:grid
       type="xygrid"
       id="grid3071" />
  </sodipodi:namedview>
  <defs
     id="defs4">
    <linearGradient
       id="linearGradient3764"
       x1="1"
       x2="47"
       gradientUnits="userSpaceOnUse"
       gradientTransform="matrix(0,-1,1,0,-1.5e-6,47.999998)">
      <stop
         stop-color="#7dbdff"
         stop-opacity="1"
         id="stop7" />
      <stop
         offset="1"
         stop-color="#91c8ff"
         stop-opacity="1"
         id="stop9"
         style="stop-color:#cfe7ff;stop-opacity:1;" />
    </linearGradient>
    <clipPath
       id="clipPath-489686994">
      <g
         transform="translate(0,-1004.3622)"
         id="g12">
        <path
           d="m -24 13 c 0 1.105 -0.672 2 -1.5 2 -0.828 0 -1.5 -0.895 -1.5 -2 0 -1.105 0.672 -2 1.5 -2 0.828 0 1.5 0.895 1.5 2 z"
           transform="matrix(15.333333,0,0,11.5,414.99999,878.8622)"
           fill="#1890d0"
           id="path14" />
      </g>
    </clipPath>
    <clipPath
       id="clipPath-497882810">
      <g
         transform="translate(0,-1004.3622)"
         id="g17">
        <path
           d="m -24 13 c 0 1.105 -0.672 2 -1.5 2 -0.828 0 -1.5 -0.895 -1.5 -2 0 -1.105 0.672 -2 1.5 -2 0.828 0 1.5 0.895 1.5 2 z"
           transform="matrix(15.333333,0,0,11.5,414.99999,878.8622)"
           fill="#1890d0"
           id="path19" />
      </g>
    </clipPath>
    <linearGradient
       y2="1028.3622"
       x2="44"
       y1="1028.3622"
       x1="4"
       gradientTransform="translate(-1.0118408e-7,-1004.3622)"
       gradientUnits="userSpaceOnUse"
       id="linearGradient3019"
       xlink:href="#linearGradient3764"
       inkscape:collect="always" />
  </defs>
  <rect
     style="fill:url(#linearGradient3019);fill-opacity:1.0;stroke:none"
     id="rect3758"
     width="40"
     height="40"
     x="4"
     y="4"
     ry="0" />
  <path
     style="opacity:0.35;fill:#000000;fill-opacity:1;stroke:none"
     d="m 4.0000013,43.999717 39.9999967,3e-4 c -19.999997,-1 -19.999997,-1 -39.9999981,0 z"
     id="path3800"
     inkscape:connector-curvature="0"
     sodipodi:nodetypes="cccc" />
  <path
     sodipodi:nodetypes="cccc"
     inkscape:connector-curvature="0"
     id="path3804"
     d="m 4.0000048,3.9999174 39.9999962,-2e-4 c -19.999996,1 -19.999996,1 -39.9999976,0 z"
     style="opacity:0.75;fill:#ffffff;fill-opacity:1;stroke:none" />
  <g
     id="g33" />
  <g
     id="g35">
    <g
       clip-path="url(#clipPath-489686994)"
       id="g37">
      <g
         transform="translate(1,1)"
         id="g39">
        <g
           opacity="0.1"
           id="g41">
          <!-- color: #91c8ff -->
          <g
             id="g43">
            <path
               d="m 23 30.5 c 0 3.039 -2.461 5.5 -5.5 5.5 c -3.039 0 -5.5 -2.461 -5.5 -5.5 c 0 -3.039 2.461 -5.5 5.5 -5.5 c 3.039 0 5.5 2.461 5.5 5.5 m 0 0"
               fill="#000"
               stroke="none"
               fill-rule="nonzero"
               fill-opacity="1"
               id="path45" />
            <path
               d="m 36 30.5 c 0 3.039 -2.461 5.5 -5.5 5.5 c -3.039 0 -5.5 -2.461 -5.5 -5.5 c 0 -3.039 2.461 -5.5 5.5 -5.5 c 3.039 0 5.5 2.461 5.5 5.5 m 0 0"
               fill="#000"
               stroke="none"
               fill-rule="nonzero"
               fill-opacity="1"
               id="path47" />
            <path
               d="m 23 17.5 c 0 3.039 -2.461 5.5 -5.5 5.5 c -3.039 0 -5.5 -2.461 -5.5 -5.5 c 0 -3.039 2.461 -5.5 5.5 -5.5 c 3.039 0 5.5 2.461 5.5 5.5 m 0 0"
               fill="#000"
               stroke="none"
               fill-rule="nonzero"
               fill-opacity="1"
               id="path49" />
            <path
               d="m 36 17.5 c 0 3.039 -2.461 5.5 -5.5 5.5 c -3.039 0 -5.5 -2.461 -5.5 -5.5 c 0 -3.039 2.461 -5.5 5.5 -5.5 c 3.039 0 5.5 2.461 5.5 5.5 m 0 0"
               fill="#000"
               stroke="none"
               fill-rule="nonzero"
               fill-opacity="1"
               id="path51" />
          </g>
        </g>
      </g>
    </g>
  </g>
  <g
     id="g53">
    <g
       clip-path="url(#clipPath-497882810)"
       id="g55">
      <!-- color: #91c8ff -->
      <g
         id="g57">
        <path
           d="m 23 30.5 c 0 3.039 -2.461 5.5 -5.5 5.5 c -3.039 0 -5.5 -2.461 -5.5 -5.5 c 0 -3.039 2.461 -5.5 5.5 -5.5 c 3.039 0 5.5 2.461 5.5 5.5 m 0 0"
           fill="#2d2d2d"
           stroke="none"
           fill-rule="nonzero"
           fill-opacity="1"
           id="path59" />
        <path
           d="m 36 30.5 c 0 3.039 -2.461 5.5 -5.5 5.5 c -3.039 0 -5.5 -2.461 -5.5 -5.5 c 0 -3.039 2.461 -5.5 5.5 -5.5 c 3.039 0 5.5 2.461 5.5 5.5 m 0 0"
           fill="#f9f9f9"
           stroke="none"
           fill-rule="nonzero"
           fill-opacity="1"
           id="path61" />
        <path
           d="m 23 17.5 c 0 3.039 -2.461 5.5 -5.5 5.5 c -3.039 0 -5.5 -2.461 -5.5 -5.5 c 0 -3.039 2.461 -5.5 5.5 -5.5 c 3.039 0 5.5 2.461 5.5 5.5 m 0 0"
           fill="#f9f9f9"
           stroke="none"
           fill-rule="nonzero"
           fill-opacity="1"
           id="path63" />
        <path
           d="m 36 17.5 c 0 3.039 -2.461 5.5 -5.5 5.5 c -3.039 0 -5.5 -2.461 -5.5 -5.5 c 0 -3.039 2.461 -5.5 5.5 -5.5 c 3.039 0 5.5 2.461 5.5 5.5 m 0 0"
           fill="#2d2d2d"
           stroke="none"
           fill-rule="nonzero"
           fill-opacity="1"
           id="path65" />
      </g>
    </g>
  </g>
</svg>
