<?xml version="1.0" encoding="UTF-8" standalone="no"?>
<!-- Created with Inkscape (http://www.inkscape.org/) -->

<svg
   xmlns:dc="http://purl.org/dc/elements/1.1/"
   xmlns:cc="http://creativecommons.org/ns#"
   xmlns:rdf="http://www.w3.org/1999/02/22-rdf-syntax-ns#"
   xmlns:svg="http://www.w3.org/2000/svg"
   xmlns="http://www.w3.org/2000/svg"
   xmlns:xlink="http://www.w3.org/1999/xlink"
   xmlns:sodipodi="http://sodipodi.sourceforge.net/DTD/sodipodi-0.dtd"
   xmlns:inkscape="http://www.inkscape.org/namespaces/inkscape"
   width="48"
   height="48"
   id="svg2"
   version="1.1"
   inkscape:version="0.48.5 r10040"
   sodipodi:docname="qmkvextractor.svg">
  <defs
     id="defs4">
    <linearGradient
       inkscape:collect="always"
       id="linearGradient4166">
      <stop
         style="stop-color:#efefef;stop-opacity:1"
         offset="0"
         id="stop4168" />
      <stop
         style="stop-color:#fbfbfb;stop-opacity:1"
         offset="1"
         id="stop4170" />
    </linearGradient>
    <linearGradient
       inkscape:collect="always"
       id="linearGradient1479">
      <stop
         style="stop-color:#1b9bf9;stop-opacity:1"
         offset="0"
         id="stop1481" />
      <stop
         style="stop-color:#6bc0f7;stop-opacity:1"
         offset="1"
         id="stop1483" />
    </linearGradient>
    <linearGradient
       gradientUnits="userSpaceOnUse"
       y2="-1004.3624"
       x2="23.646446"
       y1="-1052.3719"
       x1="23.646446"
       id="linearGradient5063"
       xlink:href="#linearGradient4166"
       inkscape:collect="always"
       gradientTransform="translate(2.0727539e-7,2.5507812e-5)" />
    <linearGradient
       gradientUnits="userSpaceOnUse"
       y2="6.936377"
       x2="36.801556"
       y1="41.361221"
       x1="36.801556"
       id="linearGradient4180"
       xlink:href="#linearGradient1479"
       inkscape:collect="always"
       gradientTransform="matrix(0.8912077,0,0,0.8912077,0.48644521,1006.7346)" />
  </defs>
  <sodipodi:namedview
     id="base"
     pagecolor="#ffffff"
     bordercolor="#666666"
     borderopacity="1.0"
     inkscape:pageopacity="0.0"
     inkscape:pageshadow="2"
     inkscape:zoom="4"
     inkscape:cx="-40.435626"
     inkscape:cy="51.14424"
     inkscape:document-units="px"
     inkscape:current-layer="layer1"
     showgrid="true"
     inkscape:window-width="1301"
     inkscape:window-height="744"
     inkscape:window-x="65"
     inkscape:window-y="24"
     inkscape:window-maximized="1"
     width="0px"
     height="0px"
     fit-margin-top="0"
     fit-margin-left="0"
     fit-margin-right="0"
     fit-margin-bottom="0">
    <inkscape:grid
       type="xygrid"
       id="grid3850"
       empspacing="5"
       visible="true"
       enabled="true"
       snapvisiblegridlinesonly="true" />
  </sodipodi:namedview>
  <metadata
     id="metadata7">
    <rdf:RDF>
      <cc:Work
         rdf:about="">
        <dc:format>image/svg+xml</dc:format>
        <dc:type
           rdf:resource="http://purl.org/dc/dcmitype/StillImage" />
        <dc:title />
      </cc:Work>
    </rdf:RDF>
  </metadata>
  <g
     inkscape:label="Capa 1"
     inkscape:groupmode="layer"
     id="layer1"
     transform="translate(0,-1004.3622)">
    <circle
       r="15.4"
       cy="1028.7622"
       cx="24.000004"
       id="path4186"
       style="fill:#000000;fill-opacity:0.23529412;stroke:none"
       d="m 39.400003,1028.7622 c 0,8.5052 -6.894814,15.4 -15.399999,15.4 -8.505185,0 -15.3999998,-6.8948 -15.3999998,-15.4 0,-8.5052 6.8948148,-15.4 15.3999998,-15.4 8.505185,0 15.399999,6.8948 15.399999,15.4 z"
       sodipodi:cx="24.000004"
       sodipodi:cy="1028.7622"
       sodipodi:rx="15.4"
       sodipodi:ry="15.4"
       transform="matrix(1.3563216,0,0,1.3563216,-8.5517198,-366.49895)" />
    <circle
       r="15.4"
       cy="1028.3622"
       cx="24.000004"
       style="fill:url(#linearGradient4180);fill-opacity:1;stroke:none"
       id="path4172"
       d="m 39.400003,1028.3622 c 0,8.5052 -6.894814,15.4 -15.399999,15.4 -8.505185,0 -15.3999998,-6.8948 -15.3999998,-15.4 0,-8.5052 6.8948148,-15.4 15.3999998,-15.4 8.505185,0 15.399999,6.8948 15.399999,15.4 z"
       sodipodi:cx="24.000004"
       sodipodi:cy="1028.3622"
       sodipodi:rx="15.4"
       sodipodi:ry="15.4"
       transform="matrix(1.3563216,0,0,1.3563216,-8.5517198,-366.49895)" />
    <path
       inkscape:connector-curvature="0"
       style="fill:#055d9b;fill-opacity:0.31372549;stroke:none"
       d="m 3.1386078,1027.7479 c -0.00475,0.1823 -0.026489,0.3597 -0.026489,0.543 0,11.5358 9.3521171,20.8879 20.8878831,20.8879 11.535766,0 20.887883,-9.3521 20.887883,-20.8879 0,-0.1833 -0.0218,-0.3607 -0.02649,-0.543 -0.290422,11.2825 -9.508756,20.3448 -20.861391,20.3448 -11.352636,0 -20.5709694,-9.0623 -20.8613918,-20.3448 z"
       id="path4195" />
    <path
       id="path4160"
       d="m 12.471265,1028.8219 4.086937,4.0812 c 0,0 2.292777,-2.2912 4.549525,-4.548 l 0,12.0071 5.779499,0 0,-12.0071 4.553849,4.5538 4.087658,-4.087 -11.527292,-11.5172 -11.530176,11.5172 z"
       style="fill:#000000;fill-opacity:0.23529412"
       inkscape:connector-curvature="0" />
    <path
       inkscape:connector-curvature="0"
       style="fill:#ffffff;fill-opacity:1"
       d="m 12.471265,1028.2794 4.086937,4.0812 c 0,0 2.292777,-2.2913 4.549525,-4.548 l 0,12.0071 5.779499,0 0,-12.0071 4.553849,4.5538 4.087658,-4.087 -11.527292,-11.5172 -11.530176,11.5172 z"
       id="path4099-3" />
  </g>
</svg>
