<?xml version="1.0" encoding="UTF-8" standalone="no"?>
<!-- Created with Inkscape (http://www.inkscape.org/) -->

<svg
   xmlns:dc="http://purl.org/dc/elements/1.1/"
   xmlns:cc="http://creativecommons.org/ns#"
   xmlns:rdf="http://www.w3.org/1999/02/22-rdf-syntax-ns#"
   xmlns:svg="http://www.w3.org/2000/svg"
   xmlns="http://www.w3.org/2000/svg"
   xmlns:xlink="http://www.w3.org/1999/xlink"
   xmlns:sodipodi="http://sodipodi.sourceforge.net/DTD/sodipodi-0.dtd"
   xmlns:inkscape="http://www.inkscape.org/namespaces/inkscape"
   version="1.0"
   width="48"
   height="48"
   id="svg2408"
   inkscape:version="0.48.5 r10040"
   sodipodi:docname="qtox.svg"
   inkscape:export-filename="/home/tago/.kde4/share/icons/KFaenza/apps/256/libreoffice-base.png"
   inkscape:export-xdpi="240"
   inkscape:export-ydpi="240">
  <sodipodi:namedview
     pagecolor="#ffffff"
     bordercolor="#666666"
     borderopacity="1"
     objecttolerance="10"
     gridtolerance="10"
     guidetolerance="10"
     inkscape:pageopacity="0"
     inkscape:pageshadow="2"
     inkscape:window-width="1366"
     inkscape:window-height="744"
     id="namedview200"
     showgrid="true"
     inkscape:zoom="8"
     inkscape:cx="3.1143828"
     inkscape:cy="28.788417"
     inkscape:window-x="0"
     inkscape:window-y="24"
     inkscape:window-maximized="1"
     inkscape:current-layer="svg2408"
     showguides="true"
     inkscape:guide-bbox="true">
    <sodipodi:guide
       orientation="1,0"
       position="89.915489,26.734872"
       id="guide3156" />
    <sodipodi:guide
       orientation="0,1"
       position="74.569912,91.953573"
       id="guide3158" />
    <inkscape:grid
       type="xygrid"
       id="grid3231"
       empspacing="5"
       visible="true"
       enabled="true"
       snapvisiblegridlinesonly="true" />
  </sodipodi:namedview>
  <defs
     id="defs2410">
    <linearGradient
       id="linearGradient4010">
      <stop
         style="stop-color:#e4e4e4;stop-opacity:1;"
         offset="0"
         id="stop4012" />
      <stop
         style="stop-color:#ffffff;stop-opacity:1;"
         offset="1"
         id="stop4014" />
    </linearGradient>
    <linearGradient
       id="linearGradient4036">
      <stop
         id="stop4038"
         style="stop-color:#b1d5ac;stop-opacity:1"
         offset="0" />
      <stop
         id="stop4040"
         style="stop-color:#f1faef;stop-opacity:1"
         offset="1" />
    </linearGradient>
    <linearGradient
       id="linearGradient4030">
      <stop
         id="stop4032"
         style="stop-color:#97c08f;stop-opacity:1"
         offset="0" />
      <stop
         id="stop4034"
         style="stop-color:#b4d6af;stop-opacity:1"
         offset="1" />
    </linearGradient>
    <linearGradient
       id="linearGradient3914">
      <stop
         id="stop3916"
         style="stop-color:#000000;stop-opacity:1"
         offset="0" />
      <stop
         id="stop3918"
         style="stop-color:#000000;stop-opacity:0"
         offset="1" />
    </linearGradient>
    <linearGradient
       x1="45.447727"
       y1="92.539597"
       x2="45.447727"
       y2="7.0165396"
       id="ButtonShadow"
       gradientUnits="userSpaceOnUse"
       gradientTransform="scale(1.0058652,0.994169)">
      <stop
         id="stop3750"
         style="stop-color:#000000;stop-opacity:1"
         offset="0" />
      <stop
         id="stop3752"
         style="stop-color:#000000;stop-opacity:0.58823532"
         offset="1" />
    </linearGradient>
    <linearGradient
       id="linearGradient3737">
      <stop
         id="stop3739"
         style="stop-color:#ffffff;stop-opacity:1"
         offset="0" />
      <stop
         id="stop3741"
         style="stop-color:#ffffff;stop-opacity:0"
         offset="1" />
    </linearGradient>
    <filter
       color-interpolation-filters="sRGB"
       id="filter3174">
      <feGaussianBlur
         id="feGaussianBlur3176"
         stdDeviation="1.71" />
    </filter>
    <filter
       x="-0.192"
       y="-0.192"
       width="1.3839999"
       height="1.3839999"
       color-interpolation-filters="sRGB"
       id="filter3794">
      <feGaussianBlur
         id="feGaussianBlur3796"
         stdDeviation="5.28" />
    </filter>
    <linearGradient
       x1="48"
       y1="20.220806"
       x2="48"
       y2="138.66119"
       id="linearGradient3613"
       xlink:href="#linearGradient3737"
       gradientUnits="userSpaceOnUse" />
    <clipPath
       id="clipPath3613">
      <rect
         width="84"
         height="84"
         rx="6"
         ry="6"
         x="6"
         y="6"
         id="rect3615"
         style="fill:#ffffff;fill-opacity:1;fill-rule:nonzero;stroke:none" />
    </clipPath>
    <linearGradient
       x1="48"
       y1="80"
       x2="48"
       y2="16"
       id="linearGradient4018"
       xlink:href="#linearGradient4036"
       gradientUnits="userSpaceOnUse" />
    <radialGradient
       cx="47.999981"
       cy="47.999424"
       r="34.937546"
       fx="47.999981"
       fy="47.999424"
       id="radialGradient4020"
       xlink:href="#linearGradient3914"
       gradientUnits="userSpaceOnUse"
       gradientTransform="matrix(1.3452582,-3.8835319e-8,3.3050848e-8,1.1448837,-16.572388,-6.9543292)" />
    <linearGradient
       x1="32"
       y1="88"
       x2="32"
       y2="8"
       id="linearGradient4022"
       xlink:href="#linearGradient4030"
       gradientUnits="userSpaceOnUse" />
    <linearGradient
       id="linearGradient8074-2">
      <stop
         id="stop8076-1"
         style="stop-color:#000000;stop-opacity:0"
         offset="0" />
      <stop
         id="stop8078-94"
         style="stop-color:#000000;stop-opacity:1"
         offset="0.49305555" />
      <stop
         id="stop8080-0"
         style="stop-color:#000000;stop-opacity:0"
         offset="1" />
    </linearGradient>
    <linearGradient
       inkscape:collect="always"
       xlink:href="#linearGradient8074-2"
       id="linearGradient3960"
       gradientUnits="userSpaceOnUse"
       gradientTransform="matrix(0.0458673,0,0,1,-319.91178,3045.2778)"
       x1="-17"
       y1="-1194.6378"
       x2="144"
       y2="-1194.6378" />
    <linearGradient
       inkscape:collect="always"
       xlink:href="#linearGradient8074-2"
       id="linearGradient3963"
       gradientUnits="userSpaceOnUse"
       gradientTransform="matrix(0.07453431,0,0,1,-655.73308,2890.2756)"
       x1="-17"
       y1="-1194.6378"
       x2="144"
       y2="-1194.6378" />
    <linearGradient
       inkscape:collect="always"
       xlink:href="#linearGradient4010"
       id="linearGradient4016"
       x1="3.9839289"
       y1="24"
       x2="44.000004"
       y2="24"
       gradientUnits="userSpaceOnUse" />
  </defs>
  <metadata
     id="metadata2413">
    <rdf:RDF>
      <cc:Work
         rdf:about="">
        <dc:format>image/svg+xml</dc:format>
        <dc:type
           rdf:resource="http://purl.org/dc/dcmitype/StillImage" />
        <dc:title />
      </cc:Work>
    </rdf:RDF>
  </metadata>
  <rect
     style="fill:url(#linearGradient4016);fill-opacity:1;fill-rule:evenodd;stroke:none"
     id="rect3160"
     width="40.016075"
     height="40"
     x="3.9839289"
     y="4"
     rx="9.2769049e-08" />
  <g
     id="layer2"
     style="display:none"
     transform="translate(0,-48)">
    <rect
       width="86"
       height="85"
       rx="6"
       ry="6"
       x="5"
       y="7"
       id="rect3745"
       style="opacity:0.9;fill:url(#ButtonShadow);fill-opacity:1;fill-rule:nonzero;stroke:none;filter:url(#filter3174)" />
  </g>
  <g
     id="layer7"
     style="display:none"
     transform="translate(0,-48)">
    <path
       d="m 14,12.03125 c -1.155927,0 -1.96875,0.812823 -1.96875,1.96875 l 0,9 0,33 0,17 0,8.28125 0,0.71875 c 0,1.077732 0.717552,1.836973 1.75,1.9375 0.07491,0.0073 0.140555,0.03125 0.21875,0.03125 l 5,0 58,0 5,0 c 0.07224,0 0.1493,-0.0086 0.21875,-0.03125 1.032448,-0.100527 1.75,-0.859768 1.75,-1.9375 l 0,-0.71875 0,-8.28125 0,-17 0,-16.0625 C 74.652678,30.64918 65.364507,21.333257 56.0625,12.03125 l -41.34375,0 -0.71875,0 z"
       inkscape:connector-curvature="0"
       id="path4006"
       style="fill:url(#linearGradient4022);fill-opacity:1;fill-rule:nonzero;stroke:none;display:inline" />
    <path
       d="M 17.90625,17.0625 C 17.446299,17.10552 17.057,17.538075 17.0625,18 l 0,9 0,42 0,9 c -0.0037,0.491884 0.445616,0.941233 0.9375,0.9375 l 5,0 55,0 C 78.491884,78.9412 78.941233,78.491884 78.9375,78 l 0,-9 0,-27.40625 C 78.9348,41.349509 78.83124,41.10791 78.65625,40.9375 L 55.0625,17.34375 C 54.89209,17.16876 54.650491,17.065218 54.40625,17.0625 L 18,17.0625 c -0.03122,-0.0016 -0.06253,-0.0016 -0.09375,0 z"
       inkscape:connector-curvature="0"
       id="path4008"
       style="opacity:0.6;fill:url(#radialGradient4020);fill-opacity:1;fill-rule:nonzero;stroke:none;display:inline" />
    <path
       d="m 18,18 0,9 0,42 0,9 5,0 55,0 0,-9 L 78,41.59375 54.40625,18 z"
       inkscape:connector-curvature="0"
       id="path4010"
       style="fill:url(#linearGradient4018);fill-opacity:1;fill-rule:nonzero;stroke:none;display:inline" />
    <path
       d="m 18,18 0,9 0,42 0,9 5,0 55,0 0,-9 L 78,41.59375 54.40625,18 z m 1,1 35.03125,0 L 77,41.96875 77,69 l 0,8 -54,0 -4,0 0,-8 0,-42 z"
       inkscape:connector-curvature="0"
       id="path4012"
       style="opacity:0.5;fill:#ffffff;fill-opacity:1;fill-rule:nonzero;stroke:none;display:inline" />
    <path
       d="m 14,12.03125 c -1.155927,0 -1.96875,0.812823 -1.96875,1.96875 l 0,9 0,33 0,17 0,8.28125 0,0.71875 c 0,1.077732 0.717552,1.836973 1.75,1.9375 0.07491,0.0073 0.140555,0.03125 0.21875,0.03125 l 5,0 58,0 5,0 c 0.07224,0 0.1493,-0.0086 0.21875,-0.03125 1.032448,-0.100527 1.75,-0.859768 1.75,-1.9375 l 0,-0.71875 0,-8.28125 0,-17 0,-16.0625 C 74.652678,30.64918 65.364507,21.333257 56.0625,12.03125 l -41.34375,0 -0.71875,0 z M 14,13 l 0.71875,0 40.9375,0 C 64.769843,22.114133 73.870942,31.240801 83,40.34375 L 83,56 83,73 83,81.28125 83,82 c 0,0.648416 -0.267049,0.909555 -0.875,0.96875 A 0.96731774,0.96731774 0 0 0 82,83 l -5,0 -58,0 -5,0 c 0.119302,0 0.09888,-0.0094 -0.125,-0.03125 C 13.267049,82.909555 13,82.648416 13,82 L 13,81.28125 13,73 13,56 13,23 13,14 c 0,-0.702508 0.297492,-1 1,-1 z"
       inkscape:connector-curvature="0"
       id="path4014"
       style="opacity:0.1;fill:#000000;fill-opacity:1;fill-rule:nonzero;stroke:none;display:inline" />
    <path
       d="m 14,12.03125 c -1.155927,0 -1.96875,0.812823 -1.96875,1.96875 l 0,1 c 0,-1.155927 0.812823,-1.96875 1.96875,-1.96875 l 0.71875,0 41.34375,0 c 9.302007,9.302007 18.590178,18.61793 27.90625,27.90625 l 0,-1 C 74.652678,30.64918 65.364507,21.333257 56.0625,12.03125 l -41.34375,0 -0.71875,0 z"
       inkscape:connector-curvature="0"
       id="path4016"
       style="opacity:0.2;fill:#117002;fill-opacity:1;fill-rule:nonzero;stroke:none;display:inline" />
  </g>
  <g
     id="layer5"
     style="display:none"
     transform="translate(0,-48)">
    <rect
       width="66"
       height="66"
       rx="12"
       ry="12"
       x="15"
       y="15"
       clip-path="url(#clipPath3613)"
       id="rect3171"
       style="opacity:0.1;fill:url(#linearGradient3613);fill-opacity:1;fill-rule:nonzero;stroke:#ffffff;stroke-width:0.5;stroke-linecap:round;stroke-linejoin:miter;stroke-miterlimit:4;stroke-opacity:1;stroke-dasharray:none;stroke-dashoffset:0;filter:url(#filter3794)" />
  </g>
  <rect
     style="opacity:0.5;color:#000000;fill:url(#linearGradient3963);fill-opacity:1;fill-rule:nonzero;stroke:none;stroke-width:1;marker:none;visibility:visible;display:inline;overflow:visible"
     id="use9342"
     y="1695.6378"
     x="-657"
     height="1.0000159"
     width="12" />
  <rect
     style="opacity:0.5;color:#000000;fill:url(#linearGradient3960);fill-opacity:1;fill-rule:nonzero;stroke:none;stroke-width:1;marker:none;visibility:visible;display:inline;overflow:visible"
     id="use9314"
     transform="matrix(0,1,-1,0,0,0)"
     y="1850.64"
     x="-320.69141"
     height="1.0000159"
     width="7.3846202" />
  <use
     xlink:href="#use9311"
     height="1085"
     width="5033"
     y="0"
     x="0"
     id="use14790"
     transform="translate(-230,1468.64)" />
  <use
     xlink:href="#path6866"
     height="1085"
     width="5033"
     y="0"
     x="0"
     id="use14792"
     transform="translate(-230,1468.64)" />
  <use
     xlink:href="#path6868"
     height="1085"
     width="5033"
     y="0"
     x="0"
     id="use14794"
     transform="translate(-230,1468.64)" />
  <use
     xlink:href="#path6960"
     height="1085"
     width="5033"
     y="0"
     x="0"
     id="use14796"
     transform="translate(-230,1468.64)" />
  <use
     xlink:href="#rect7927"
     height="1085"
     width="5033"
     y="0"
     x="0"
     id="use14798"
     transform="translate(-230,1468.64)" />
  <use
     xlink:href="#rect8070"
     height="1085"
     width="5033"
     y="0"
     x="0"
     id="use14800"
     transform="translate(-230,1468.64)" />
  <use
     xlink:href="#rect8098"
     height="1085"
     width="5033"
     y="0"
     x="0"
     id="use14802"
     transform="translate(-230,1468.64)" />
  <use
     xlink:href="#rect7221"
     height="1085"
     width="5033"
     y="0"
     x="0"
     id="use14804"
     transform="translate(-230,1468.64)" />
  <use
     xlink:href="#rect7225"
     height="1085"
     width="5033"
     y="0"
     x="0"
     id="use14806"
     transform="translate(-230,1468.64)" />
  <use
     xlink:href="#path7319"
     height="1085"
     width="5033"
     y="0"
     x="0"
     id="use14808"
     transform="translate(-230,1468.64)" />
  <use
     xlink:href="#path7323"
     height="1085"
     width="5033"
     y="0"
     x="0"
     id="use14810"
     transform="translate(-230,1468.64)" />
  <use
     xlink:href="#rect7436"
     height="1085"
     width="5033"
     y="0"
     x="0"
     id="use14812"
     transform="translate(-230,1468.64)" />
  <use
     xlink:href="#rect7438"
     height="1085"
     width="5033"
     y="0"
     x="0"
     id="use14814"
     transform="translate(-230,1468.64)" />
  <use
     xlink:href="#rect7440"
     height="1085"
     width="5033"
     y="0"
     x="0"
     id="use14816"
     transform="translate(-230,1468.64)" />
  <use
     xlink:href="#rect9509"
     height="1085"
     width="5033"
     y="0"
     x="0"
     id="use14818"
     transform="translate(-230,1468.64)" />
  <use
     xlink:href="#rect9521"
     height="1085"
     width="5033"
     y="0"
     x="0"
     id="use14820"
     transform="translate(-230,1468.64)" />
  <use
     xlink:href="#use14642"
     height="1085"
     width="5033"
     y="0"
     x="0"
     id="use14822"
     transform="translate(-230,1468.64)" />
  <use
     xlink:href="#use14644"
     height="1085"
     width="5033"
     y="0"
     x="0"
     id="use14824"
     transform="translate(-230,1468.64)" />
  <rect
     style="color:#000000;fill:#1a1a1a;fill-opacity:1;fill-rule:nonzero;stroke:none;stroke-width:3.79999995;marker:none;visibility:visible;display:inline;overflow:visible;enable-background:accumulate"
     id="rect3217"
     width="22.292488"
     height="16.663149"
     x="13.204068"
     y="16.028851"
     ry="1.4270707" />
  <rect
     style="color:#000000;fill:#1a1a1a;fill-opacity:1;fill-rule:nonzero;stroke:none;stroke-width:3.79999995;marker:none;visibility:visible;display:inline;overflow:visible;enable-background:accumulate"
     id="rect3221"
     width="13.963882"
     height="16.621902"
     x="17.368368"
     y="6.9961028"
     ry="7.6953263"
     rx="6.9819412" />
  <path
     sodipodi:type="arc"
     style="color:#000000;fill:#ffffff;fill-opacity:1;fill-rule:nonzero;stroke:none;stroke-width:3.79999995;marker:none;visibility:visible;display:inline;overflow:visible;enable-background:accumulate"
     id="path3225"
     sodipodi:cx="74.864929"
     sodipodi:cy="47.91674"
     sodipodi:rx="9.6343298"
     sodipodi:ry="9.6343298"
     d="m 84.499259,47.91674 a 9.6343298,9.6343298 0 1 1 -19.26866,0 9.6343298,9.6343298 0 1 1 19.26866,0 z"
     transform="matrix(0.47739484,0,0,0.46663867,-11.389821,-9.1768882)" />
  <path
     style="fill:#ffffff;fill-opacity:1;stroke:none"
     d="m 24.324311,19.658445 c 0,0 1.160204,-2.06227 0.91159,-2.350988 -0.248616,-0.288718 3.439176,-2.598462 3.439176,-2.598462 0,0 -1.243077,3.258388 -4.350766,4.94945 z"
     id="path3231"
     inkscape:connector-curvature="0"
     sodipodi:nodetypes="cscc" />
  <path
     sodipodi:type="arc"
     style="color:#000000;fill:#ffffff;fill-opacity:1;fill-rule:nonzero;stroke:none;stroke-width:3.79999995;marker:none;visibility:visible;display:inline;overflow:visible;enable-background:accumulate"
     id="path4001"
     sodipodi:cx="30.317204"
     sodipodi:cy="68.378639"
     sodipodi:rx="4.5078058"
     sodipodi:ry="4.4636116"
     d="m 34.825009,68.378639 a 4.5078058,4.4636116 0 1 1 -9.015611,0 4.5078058,4.4636116 0 1 1 9.015611,0 z"
     transform="matrix(0.46879315,0,0,0.46663867,10.137812,-8.3107346)" />
  <path
     style="color:#000000;fill:#ffffff;fill-opacity:1;fill-rule:nonzero;stroke:none;stroke-width:3.79999995;marker:none;visibility:visible;display:inline;overflow:visible;enable-background:accumulate"
     d="m 24.357141,25.435931 c -1.579131,0 -2.868783,1.57526 -2.868783,3.518223 0,0.20635 0.02695,0.407534 0.05464,0.604139 0.0047,-5.9e-5 0.009,0 0.01366,0 l 5.478008,0 c 0.04628,0 0.09156,0.01186 0.136609,0.01777 0.02929,-0.20193 0.04099,-0.409619 0.04099,-0.621908 0,-1.942962 -1.27599,-3.518223 -2.85512,-3.518223 z"
     id="path4003"
     inkscape:connector-curvature="0" />
  <g
     transform="matrix(0.47642285,0,0,0.45916566,1.8482395,24.510437)"
     style="font-size:20.74904442px;font-style:normal;font-variant:normal;font-stretch:normal;line-height:125%;letter-spacing:0px;word-spacing:0px;fill:#000000;fill-opacity:1;stroke:none;font-family:URW Gothic L;-inkscape-font-specification:URW Gothic L Book"
     id="text4016">
    <path
       d="m 37.357021,24.256478 -1.535429,0 0,1.95041 c -0.954455,-1.452432 -2.531385,-2.220148 -4.461044,-2.220148 -3.382091,0 -5.975725,2.593634 -5.975725,5.954976 0,3.340593 2.635132,5.934227 6.017223,5.934227 1.888161,0 3.423593,-0.767717 4.419546,-2.220148 l 0,5.934227 1.535429,0 0,-15.333544 m -5.934226,1.141197 c 2.572879,0 4.502542,1.971162 4.502542,4.606288 0,2.489883 -1.99191,4.461045 -4.502542,4.461045 -2.55213,0 -4.481794,-1.950413 -4.481794,-4.502543 0,-2.614377 1.929664,-4.56479 4.481794,-4.56479"
       id="path3234"
       inkscape:connector-curvature="0" />
    <path
       d="m 41.35413,35.606205 1.53543,0 0,-9.959541 2.552132,0 0,-1.390186 -2.552132,0 0,-3.983817 -1.53543,0 0,3.983817 -2.448387,0 0,1.390186 2.448387,0 0,9.959541"
       id="path3236"
       inkscape:connector-curvature="0" />
    <path
       d="m 52.534623,23.98674 c -3.361342,0 -5.954976,2.552136 -5.954976,5.87198 0,3.485836 2.552136,6.017223 6.07947,6.017223 3.319844,0 5.768234,-2.510638 5.768234,-5.913478 0,-3.465087 -2.489888,-5.975725 -5.892728,-5.975725 m 0,1.410935 c 2.489883,0 4.33655,1.950413 4.33655,4.585539 0,2.593628 -1.78442,4.481794 -4.253554,4.481794 -2.614377,0 -4.481794,-1.908915 -4.481794,-4.56479 0,-2.572879 1.888166,-4.502543 4.398798,-4.502543"
       id="path3238"
       inkscape:connector-curvature="0" />
    <path
       d="m 59.450214,35.606205 1.74292,0 3.070858,-4.544041 3.05011,4.544041 1.763669,0 -3.963068,-5.788983 3.963068,-5.560744 -1.763669,0 -3.05011,4.378048 -3.070858,-4.378048 -1.74292,0 3.942318,5.560744 -3.942318,5.788983"
       id="path3240"
       inkscape:connector-curvature="0" />
  </g>
  <path
     style="opacity:0.5;fill:#000000;fill-opacity:1;stroke:none"
     d="m 4,44 0,0 c 20,-1 20,-1 40,0 z"
     id="path3257"
     inkscape:connector-curvature="0"
     sodipodi:nodetypes="cccc" />
  <path
     sodipodi:nodetypes="cccc"
     inkscape:connector-curvature="0"
     id="path4027"
     d="M 4,4 4,4 C 24,5 24,5 44,4 z"
     style="opacity:0.75;fill:#ffffff;fill-opacity:1;stroke:none" />
</svg>
