<?xml version="1.0" encoding="UTF-8" standalone="no"?>
<svg
   xmlns:dc="http://purl.org/dc/elements/1.1/"
   xmlns:cc="http://creativecommons.org/ns#"
   xmlns:rdf="http://www.w3.org/1999/02/22-rdf-syntax-ns#"
   xmlns:svg="http://www.w3.org/2000/svg"
   xmlns="http://www.w3.org/2000/svg"
   xmlns:xlink="http://www.w3.org/1999/xlink"
   xmlns:sodipodi="http://sodipodi.sourceforge.net/DTD/sodipodi-0.dtd"
   xmlns:inkscape="http://www.inkscape.org/namespaces/inkscape"
   height="48"
   viewBox="0 0 48 48"
   width="48"
   version="1.1"
   id="svg41"
   sodipodi:docname="recipes.svg"
   inkscape:version="0.92.1 r15371">
  <metadata
     id="metadata45">
    <rdf:RDF>
      <cc:Work
         rdf:about="">
        <dc:format>image/svg+xml</dc:format>
        <dc:type
           rdf:resource="http://purl.org/dc/dcmitype/StillImage" />
        <dc:title />
      </cc:Work>
    </rdf:RDF>
  </metadata>
  <sodipodi:namedview
     pagecolor="#353535"
     bordercolor="#666666"
     borderopacity="1"
     objecttolerance="10"
     gridtolerance="10"
     guidetolerance="10"
     inkscape:pageopacity="0"
     inkscape:pageshadow="2"
     inkscape:window-width="1600"
     inkscape:window-height="808"
     id="namedview43"
     showgrid="true"
     showguides="false"
     inkscape:zoom="13.12"
     inkscape:cx="17.92368"
     inkscape:cy="29.639601"
     inkscape:window-x="0"
     inkscape:window-y="0"
     inkscape:window-maximized="1"
     inkscape:current-layer="svg41">
    <inkscape:grid
       type="xygrid"
       id="grid4552" />
  </sodipodi:namedview>
  <defs
     id="defs5">
    <linearGradient
       inkscape:collect="always"
       id="linearGradient4777">
      <stop
         style="stop-color:#020301;stop-opacity:1;"
         offset="0"
         id="stop4773" />
      <stop
         style="stop-color:#020301;stop-opacity:0;"
         offset="1"
         id="stop4775" />
    </linearGradient>
    <linearGradient
       inkscape:collect="always"
       id="linearGradient4739">
      <stop
         style="stop-color:#b82c1e;stop-opacity:1;"
         offset="0"
         id="stop4735" />
      <stop
         style="stop-color:#e15749;stop-opacity:1"
         offset="1"
         id="stop4737" />
    </linearGradient>
    <linearGradient
       inkscape:collect="always"
       id="linearGradient4731">
      <stop
         style="stop-color:#cccccc;stop-opacity:1;"
         offset="0"
         id="stop4727" />
      <stop
         style="stop-color:#f3f3f3;stop-opacity:1"
         offset="1"
         id="stop4729" />
    </linearGradient>
    <linearGradient
       inkscape:collect="always"
       id="linearGradient4723">
      <stop
         style="stop-color:#3f3f3f;stop-opacity:1;"
         offset="0"
         id="stop4719" />
      <stop
         style="stop-color:#242424;stop-opacity:1"
         offset="1"
         id="stop4721" />
    </linearGradient>
    <linearGradient
       inkscape:collect="always"
       id="linearGradient4711">
      <stop
         style="stop-color:#000000;stop-opacity:1;"
         offset="0"
         id="stop4707" />
      <stop
         style="stop-color:#000000;stop-opacity:0;"
         offset="1"
         id="stop4709" />
    </linearGradient>
    <linearGradient
       inkscape:collect="always"
       id="linearGradient4700">
      <stop
         style="stop-color:#ca8e5a;stop-opacity:1"
         offset="0"
         id="stop4696" />
      <stop
         style="stop-color:#dcc2aa;stop-opacity:1"
         offset="1"
         id="stop4698" />
    </linearGradient>
    <linearGradient
       inkscape:collect="always"
       id="linearGradient4659">
      <stop
         style="stop-color:#ffffff;stop-opacity:1;"
         offset="0"
         id="stop4655" />
      <stop
         style="stop-color:#ffffff;stop-opacity:0;"
         offset="1"
         id="stop4657" />
    </linearGradient>
    <linearGradient
       inkscape:collect="always"
       id="linearGradient4618">
      <stop
         id="stop4614"
         offset="0"
         style="stop-color:#623800;stop-opacity:0.39607844" />
      <stop
         id="stop4616"
         offset="1"
         style="stop-color:#623800;stop-opacity:1;" />
    </linearGradient>
    <linearGradient
       inkscape:collect="always"
       id="linearGradient4580">
      <stop
         style="stop-color:#ffdf49;stop-opacity:1"
         offset="0"
         id="stop4576" />
      <stop
         style="stop-color:#ffe879;stop-opacity:1"
         offset="1"
         id="stop4578" />
    </linearGradient>
    <clipPath
       id="clipPath4186"
       clipPathUnits="userSpaceOnUse">
      <circle
         style="fill:url(#linearGradient4190)"
         cx="286"
         cy="26"
         r="10"
         id="circle2" />
    </clipPath>
    <linearGradient
       inkscape:collect="always"
       xlink:href="#linearGradient4580"
       id="linearGradient4582"
       x1="14"
       y1="22"
       x2="11"
       y2="14"
       gradientUnits="userSpaceOnUse"
       gradientTransform="translate(0,2)" />
    <radialGradient
       inkscape:collect="always"
       xlink:href="#linearGradient4618"
       id="radialGradient4590"
       cx="16"
       cy="19"
       fx="16"
       fy="19"
       r="1"
       gradientUnits="userSpaceOnUse"
       gradientTransform="translate(-2.0000001,2)" />
    <radialGradient
       inkscape:collect="always"
       xlink:href="#linearGradient4618"
       id="radialGradient4592"
       cx="12"
       cy="17"
       fx="12"
       fy="17"
       r="2"
       gradientUnits="userSpaceOnUse"
       gradientTransform="translate(-2.0000001,2)" />
    <radialGradient
       inkscape:collect="always"
       xlink:href="#linearGradient4618"
       id="radialGradient4594"
       cx="8"
       cy="20.5"
       fx="8"
       fy="20.5"
       r="1"
       gradientTransform="matrix(1,0,0,1.5,-2.0000001,-9.25)"
       gradientUnits="userSpaceOnUse" />
    <linearGradient
       inkscape:collect="always"
       xlink:href="#linearGradient4659"
       id="linearGradient4667"
       x1="7"
       y1="20.5"
       x2="9"
       y2="20.5"
       gradientUnits="userSpaceOnUse"
       gradientTransform="translate(-2.0000001,1)" />
    <linearGradient
       inkscape:collect="always"
       xlink:href="#linearGradient4659"
       id="linearGradient4669"
       x1="10"
       y1="17"
       x2="14"
       y2="17"
       gradientUnits="userSpaceOnUse"
       gradientTransform="translate(-2.0000001,2)" />
    <linearGradient
       inkscape:collect="always"
       xlink:href="#linearGradient4659"
       id="linearGradient4671"
       x1="15"
       y1="19"
       x2="17"
       y2="19"
       gradientUnits="userSpaceOnUse"
       gradientTransform="translate(-2.0000001,2)" />
    <linearGradient
       inkscape:collect="always"
       xlink:href="#linearGradient4700"
       id="linearGradient4702"
       x1="29.332317"
       y1="44.027439"
       x2="25.908537"
       y2="0.048780486"
       gradientUnits="userSpaceOnUse"
       gradientTransform="translate(0,2)" />
    <linearGradient
       inkscape:collect="always"
       xlink:href="#linearGradient4711"
       id="linearGradient4713"
       x1="12.045362"
       y1="16.117229"
       x2="23.022429"
       y2="27.094296"
       gradientUnits="userSpaceOnUse"
       gradientTransform="translate(-0.0085345,1.985406)" />
    <linearGradient
       inkscape:collect="always"
       xlink:href="#linearGradient4723"
       id="linearGradient4725"
       x1="10.115586"
       y1="37.210464"
       x2="13.483056"
       y2="40.928196"
       gradientUnits="userSpaceOnUse" />
    <linearGradient
       inkscape:collect="always"
       xlink:href="#linearGradient4731"
       id="linearGradient4733"
       x1="18.185762"
       y1="24.961006"
       x2="24.020035"
       y2="30.795279"
       gradientUnits="userSpaceOnUse" />
    <linearGradient
       inkscape:collect="always"
       xlink:href="#linearGradient4739"
       id="linearGradient4741"
       x1="33.634674"
       y1="41.0774"
       x2="32.241486"
       y2="30.9226"
       gradientUnits="userSpaceOnUse" />
    <linearGradient
       inkscape:collect="always"
       xlink:href="#linearGradient4777"
       id="linearGradient4779"
       x1="28.576008"
       y1="33.576294"
       x2="36.91143"
       y2="41.911716"
       gradientUnits="userSpaceOnUse"
       gradientTransform="translate(-17,-1.0000005)" />
  </defs>
  <path
     inkscape:connector-curvature="0"
     style="opacity:1;vector-effect:none;fill:url(#linearGradient4702);fill-opacity:1;stroke:none;stroke-width:1.84816813;stroke-linecap:round;stroke-linejoin:round;stroke-miterlimit:4;stroke-dasharray:none;stroke-dashoffset:0;stroke-opacity:1"
     d="m 23,2 c -1.662,0 -3,1.338 -3,3 v 7.984375 C 20.075665,14.063432 18.999884,14 18.998047,14 H 9 C 7.892,14 7,14.945101 7,16.119141 V 43.880859 C 7,45.054899 7.892,46 9,46 h 30 c 1.108,0 2,-0.945101 2,-2.119141 V 16.119141 C 41,14.945101 40.108,14 39,14 H 29.068359 C 29.068359,14 28,14.003255 28,12.929688 V 5 C 28,3.338 26.662,2 25,2 Z m 1,2 a 2,2 0 0 1 2,2 2,2 0 0 1 -2,2 2,2 0 0 1 -2,-2 2,2 0 0 1 2,-2 z"
     id="rect4522" />
  <g
     id="g4785"
     transform="translate(12)">
    <path
       id="path15"
       d="m 17.901314,37.341326 -7.071068,7.071068 c -0.783474,0.783474 -2.0449525,0.783474 -2.8284268,0 L 6.5876057,42.99818 c -0.7834743,-0.783474 -0.7834743,-2.044952 0,-2.828427 l 7.0710673,-7.071067 z"
       style="opacity:1;fill:url(#linearGradient4725);fill-opacity:1"
       inkscape:connector-curvature="0" />
    <path
       id="path17"
       d="m 32.04345,23.199191 c 0,0 -10.98165,-3.160486 -21.213204,7.071067 l 7.071068,7.071068 z"
       style="opacity:1;fill:url(#linearGradient4733);fill-opacity:1"
       inkscape:connector-curvature="0" />
    <circle
       transform="matrix(-0.70710678,-0.70710678,-0.70710678,0.70710678,0,0)"
       id="circle21"
       r="1"
       cy="16.746164"
       cx="-36.062443"
       style="opacity:1;fill:#cccccc;fill-opacity:1" />
    <circle
       transform="matrix(-0.70710678,-0.70710678,-0.70710678,0.70710678,0,0)"
       id="circle25"
       style="opacity:1;fill:#cccccc;fill-opacity:1"
       cx="-36.062443"
       cy="22.746164"
       r="1" />
  </g>
  <circle
     style="color:#000000;opacity:0;stroke-width:0.45500001"
     clip-path="url(#clipPath4186)"
     r="10"
     transform="matrix(0.49999995,0,0,0.49999995,-109.99999,25.000002)"
     cy="26"
     cx="286"
     id="circle27" />
  <circle
     style="color:#000000;opacity:0;stroke-width:0.90899998"
     clip-path="url(#clipPath4186)"
     r="10"
     transform="matrix(0.49999995,0,0,0.49999995,-109.99999,25.000002)"
     cy="26"
     cx="286"
     id="circle29" />
  <g
     id="g4571"
     transform="translate(-1)">
    <path
       sodipodi:nodetypes="ccccccc"
       inkscape:connector-curvature="0"
       id="rect4704"
       d="M 14.333134,15.84561 19,15 33.640696,29.640693 22.691108,40.53 6.502427,24.341318 l 0.6296767,-2 z"
       style="opacity:0.2;vector-effect:none;fill:url(#linearGradient4713);fill-opacity:1;stroke:none;stroke-width:0.68842751;stroke-linecap:round;stroke-linejoin:round;stroke-miterlimit:4;stroke-dasharray:none;stroke-dashoffset:0;stroke-opacity:0.8745098" />
    <g
       id="g4560">
      <path
         style="opacity:1;vector-effect:none;fill:url(#linearGradient4582);fill-opacity:1;stroke:none;stroke-width:2;stroke-linecap:round;stroke-linejoin:round;stroke-miterlimit:4;stroke-dasharray:none;stroke-dashoffset:0;stroke-opacity:1"
         d="m 8,15 h 11 c 0,0 0,0.892 0,2 v 6 c 0,1.108 0,2 0,2 H 8 C 6.892,25 6,24.108 6,23 v -6 c 0,-1.108 0.892,-2 2,-2 z"
         id="rect4564"
         inkscape:connector-curvature="0"
         sodipodi:nodetypes="scsscssss" />
      <path
         style="opacity:0.13800001;vector-effect:none;fill:url(#radialGradient4594);fill-opacity:1;stroke:none;stroke-width:2.82842708;stroke-linecap:round;stroke-linejoin:round;stroke-miterlimit:4;stroke-dasharray:none;stroke-dashoffset:0;stroke-opacity:1"
         d="M 7,21.5 C 7,22.328427 6.5522847,23 6,23 v -3 c 0.5522847,0 1,0.671573 1,1.5 z"
         id="path4567"
         inkscape:connector-curvature="0"
         sodipodi:nodetypes="sccs" />
      <path
         style="opacity:0.13800001;vector-effect:none;fill:url(#radialGradient4592);fill-opacity:1;stroke:none;stroke-width:3.36644554;stroke-linecap:round;stroke-linejoin:round;stroke-miterlimit:4;stroke-dasharray:none;stroke-dashoffset:0;stroke-opacity:1"
         d="M 10.555715,17 A 1.4442881,1.4712644 0 0 0 9.162203,18.086207 1.4442881,1.4712644 0 0 0 8.0000019,19.528736 1.4442881,1.4712644 0 0 0 9.44429,21 1.4442881,1.4712644 0 0 0 10.837802,19.913793 1.4442881,1.4712644 0 0 0 12.000004,18.471264 1.4442881,1.4712644 0 0 0 10.555715,17 Z"
         id="ellipse4569"
         inkscape:connector-curvature="0" />
      <circle
         cy="21"
         cx="13.999998"
         id="ellipse4574"
         style="opacity:0.13800001;vector-effect:none;fill:url(#radialGradient4590);fill-opacity:1;stroke:none;stroke-width:2.30940104;stroke-linecap:round;stroke-linejoin:round;stroke-miterlimit:4;stroke-dasharray:none;stroke-dashoffset:0;stroke-opacity:1"
         r="1" />
      <path
         style="opacity:0.56000001;vector-effect:none;fill:url(#linearGradient4667);fill-opacity:1;stroke:none;stroke-width:2.82842708;stroke-linecap:round;stroke-linejoin:round;stroke-miterlimit:4;stroke-dasharray:none;stroke-dashoffset:0;stroke-opacity:1"
         d="m 6,20 v 3 A 1,1.5 0 0 0 7,21.5 1,1.5 0 0 0 6,20 Z"
         id="ellipse4649"
         inkscape:connector-curvature="0" />
      <path
         inkscape:connector-curvature="0"
         id="path4651"
         d="M 10.555715,17 A 1.4442881,1.4712644 0 0 0 9.162203,18.086207 1.4442881,1.4712644 0 0 0 8.0000019,19.528736 1.4442881,1.4712644 0 0 0 9.44429,21 1.4442881,1.4712644 0 0 0 10.837802,19.913793 1.4442881,1.4712644 0 0 0 12.000004,18.471264 1.4442881,1.4712644 0 0 0 10.555715,17 Z"
         style="opacity:0.56000001;vector-effect:none;fill:url(#linearGradient4669);fill-opacity:1;stroke:none;stroke-width:3.36644554;stroke-linecap:round;stroke-linejoin:round;stroke-miterlimit:4;stroke-dasharray:none;stroke-dashoffset:0;stroke-opacity:1" />
      <circle
         style="opacity:0.56000001;vector-effect:none;fill:url(#linearGradient4671);fill-opacity:1;stroke:none;stroke-width:2.30940104;stroke-linecap:round;stroke-linejoin:round;stroke-miterlimit:4;stroke-dasharray:none;stroke-dashoffset:0;stroke-opacity:1"
         id="circle4653"
         cx="13.999998"
         cy="21"
         r="1" />
    </g>
  </g>
  <path
     inkscape:connector-curvature="0"
     style="opacity:0.3;vector-effect:none;fill:url(#linearGradient4779);fill-opacity:1;stroke:none;stroke-width:0.92278171;stroke-linecap:round;stroke-linejoin:round;stroke-miterlimit:4;stroke-dasharray:none;stroke-dashoffset:0;stroke-opacity:0.8745098"
     d="m 16.439453,30.380859 -3.71875,0.798828 -3.998047,3.074219 0.607422,3.130859 L 14.945312,43 H 22 c 1.108,0 2,-0.945102 2,-2.119141 v -2.9375 z"
     id="rect4763" />
  <g
     id="g4767"
     transform="translate(-20,-2)">
    <circle
       id="circle33"
       r="4.9999995"
       cy="36"
       cx="33"
       style="fill:url(#linearGradient4741);fill-opacity:1;stroke-width:0.55555552" />
    <path
       id="path4749"
       d="m 33,34 -0.166016,1.136719 a 1,1 0 0 0 -0.501953,0.253906 L 31,35 l 1.158203,0.607422 a 1,1 0 0 0 -0.140625,0.509766 1,1 0 0 0 0.03906,0.279296 L 31,37 32.302734,36.816406 a 1,1 0 0 0 0.503907,0.277344 L 33,38 33.185547,37.103516 a 1,1 0 0 0 0.570312,-0.314454 L 35,37 33.986328,36.363281 a 1,1 0 0 0 0.03125,-0.246093 1,1 0 0 0 -0.0918,-0.41211 L 35,35 33.753906,35.441406 a 1,1 0 0 0 -0.453125,-0.283203 z"
       style="opacity:1;vector-effect:none;fill:#3e652f;fill-opacity:1;stroke:none;stroke-width:1.23880327;stroke-linecap:round;stroke-linejoin:round;stroke-miterlimit:4;stroke-dasharray:none;stroke-dashoffset:0;stroke-opacity:0.8745098"
       inkscape:connector-curvature="0" />
  </g>
  <path
     style="opacity:0.2;vector-effect:none;fill:#000000;fill-opacity:1;stroke:none;stroke-width:1.84816813;stroke-linecap:round;stroke-linejoin:round;stroke-miterlimit:4;stroke-dasharray:none;stroke-dashoffset:0;stroke-opacity:1"
     d="M 24 3 A 2 2 0 0 0 22 5 A 2 2 0 0 0 22.064453 5.5039062 A 2 2 0 0 1 24 4 A 2 2 0 0 1 25.935547 5.4960938 A 2 2 0 0 0 26 5 A 2 2 0 0 0 24 3 z M 7 42.880859 L 7 43.880859 C 7 45.054899 7.892 46 9 46 L 39 46 C 40.108 46 41 45.054899 41 43.880859 L 41 42.880859 C 41 44.054899 40.108 45 39 45 L 9 45 C 7.892 45 7 44.054899 7 42.880859 z "
     id="path4835" />
</svg>
