<?xml version="1.0" encoding="UTF-8" standalone="no"?>
<svg
   xmlns:dc="http://purl.org/dc/elements/1.1/"
   xmlns:cc="http://creativecommons.org/ns#"
   xmlns:rdf="http://www.w3.org/1999/02/22-rdf-syntax-ns#"
   xmlns:svg="http://www.w3.org/2000/svg"
   xmlns="http://www.w3.org/2000/svg"
   xmlns:xlink="http://www.w3.org/1999/xlink"
   xmlns:sodipodi="http://sodipodi.sourceforge.net/DTD/sodipodi-0.dtd"
   xmlns:inkscape="http://www.inkscape.org/namespaces/inkscape"
   viewBox="0 0 48 48"
   id="svg2"
   version="1.1"
   inkscape:version="0.48.5 r10040"
   width="100%"
   height="100%"
   sodipodi:docname="reditr.svg">
  <metadata
     id="metadata65">
    <rdf:RDF>
      <cc:Work
         rdf:about="">
        <dc:format>image/svg+xml</dc:format>
        <dc:type
           rdf:resource="http://purl.org/dc/dcmitype/StillImage" />
      </cc:Work>
    </rdf:RDF>
  </metadata>
  <sodipodi:namedview
     pagecolor="#ffffff"
     bordercolor="#666666"
     borderopacity="1"
     objecttolerance="10"
     gridtolerance="10"
     guidetolerance="10"
     inkscape:pageopacity="0"
     inkscape:pageshadow="2"
     inkscape:window-width="1301"
     inkscape:window-height="744"
     id="namedview63"
     showgrid="true"
     inkscape:zoom="5.7708333"
     inkscape:cx="28.557894"
     inkscape:cy="23.282442"
     inkscape:window-x="65"
     inkscape:window-y="24"
     inkscape:window-maximized="1"
     inkscape:current-layer="svg2">
    <inkscape:grid
       type="xygrid"
       id="grid3063" />
  </sodipodi:namedview>
  <defs
     id="defs4">
    <linearGradient
       id="linearGradient3764"
       x1="1"
       x2="47"
       gradientUnits="userSpaceOnUse"
       gradientTransform="matrix(0,-1,1,0,-1.5e-6,47.999998)">
      <stop
         stop-color="#1c8dec"
         stop-opacity="1"
         id="stop7"
         offset="0"
         style="stop-color:#2ea0ff;stop-opacity:1;" />
      <stop
         offset="1"
         stop-color="#2f95ee"
         stop-opacity="1"
         id="stop9"
         style="stop-color:#75b5ed;stop-opacity:1;" />
    </linearGradient>
    <clipPath
       id="clipPath-770126059">
      <g
         transform="translate(0,-1004.3622)"
         id="g12">
        <path
           d="m -24 13 c 0 1.105 -0.672 2 -1.5 2 -0.828 0 -1.5 -0.895 -1.5 -2 0 -1.105 0.672 -2 1.5 -2 0.828 0 1.5 0.895 1.5 2 z"
           transform="matrix(15.333333,0,0,11.5,414.99999,878.8622)"
           fill="#1890d0"
           id="path14" />
      </g>
    </clipPath>
    <clipPath
       id="clipPath-780229476">
      <g
         transform="translate(0,-1004.3622)"
         id="g17">
        <path
           d="m -24 13 c 0 1.105 -0.672 2 -1.5 2 -0.828 0 -1.5 -0.895 -1.5 -2 0 -1.105 0.672 -2 1.5 -2 0.828 0 1.5 0.895 1.5 2 z"
           transform="matrix(15.333333,0,0,11.5,414.99999,878.8622)"
           fill="#1890d0"
           id="path19" />
      </g>
    </clipPath>
    <linearGradient
       y2="1028.3622"
       x2="44"
       y1="1028.3622"
       x1="4"
       gradientTransform="translate(1.8968811e-7,-1004.3621)"
       gradientUnits="userSpaceOnUse"
       id="linearGradient3019"
       xlink:href="#linearGradient3764"
       inkscape:collect="always" />
  </defs>
  <rect
     style="fill:url(#linearGradient3019);fill-opacity:1.0;stroke:none"
     id="rect3758"
     width="40"
     height="40"
     x="4"
     y="4"
     ry="0" />
  <path
     style="opacity:0.35;fill:#000000;fill-opacity:1;stroke:none"
     d="m 4.0000017,43.999718 39.9999963,3e-4 c -19.999997,-1 -19.999997,-1 -39.9999977,0 z"
     id="path3800"
     inkscape:connector-curvature="0"
     sodipodi:nodetypes="cccc" />
  <path
     sodipodi:nodetypes="cccc"
     inkscape:connector-curvature="0"
     id="path3804"
     d="m 4.0000052,3.9999173 39.9999958,-2e-4 c -19.999996,1 -19.999996,1 -39.9999972,0 z"
     style="opacity:0.75;fill:#ffffff;fill-opacity:1;stroke:none" />
  <g
     id="g33" />
  <g
     id="g35">
    <g
       clip-path="url(#clipPath-770126059)"
       id="g37">
      <g
         transform="translate(1,1)"
         id="g39">
        <g
           opacity="0.1"
           id="g41">
          <!-- color: #2f95ee -->
          <g
             id="g43">
            <path
               d="m -24 24 c 0 1.101 -1.123 2 -2.5 2 c -1.377 0 -2.5 -0.898 -2.5 -2 c 0 -1.101 1.123 -2 2.5 -2 c 1.377 0 2.5 0.898 2.5 2 m 0 0"
               transform="matrix(0.400055,0,0,0.500069,24.101465,18.498343)"
               stroke-opacity="1"
               fill="#000"
               stroke="#e5ecf4"
               stroke-linejoin="miter"
               stroke-linecap="butt"
               stroke-width="2.235"
               stroke-miterlimit="4"
               id="path45" />
            <path
               d="m 9.387 31.867 c -1.684 -0.395 -1.832 -1.48 -0.445 -3.266 c 0.629 -0.816 3.848 -3.262 4.281 -3.262 c 0.094 0 -0.285 0.586 -0.84 1.297 c -1.203 1.551 -1.242 1.945 -0.273 2.566 c 0.59 0.379 1.141 0.441 2.816 0.293 c 5.477 -0.465 13.949 -3.813 18.887 -7.453 l 1.398 -1.027 l -1.156 1.191 c -3.094 3.184 -11.133 7.121 -18.203 8.883 c -3.504 0.879 -5.176 1.078 -6.465 0.773 m 8.777 -0.535 c 0.316 -0.145 2.656 -0.914 5.199 -1.715 c 6.945 -2.184 11.469 -4.484 13.676 -6.953 c 1.25 -1.398 1.207 -2.25 -0.145 -2.949 c -0.348 -0.18 -0.996 -0.328 -1.449 -0.332 c -0.742 -0.008 -0.762 -0.035 -0.254 -0.328 c 0.309 -0.176 1.695 -0.328 3.078 -0.344 c 2.895 -0.035 3.73 0.398 3.73 1.914 c 0 2.676 -9.121 7.535 -18.391 9.801 c -3.629 0.887 -6.469 1.363 -5.449 0.91 m -3.23 -5.34 c -0.84 -0.156 -1.074 -1.313 -0.684 -3.398 c 0.645 -3.441 2.617 -6.02 5.84 -7.637 c 2.18 -1.094 5.477 -1.27 8.277 -0.434 c 2.309 0.688 4.488 2.391 5.734 4.48 l 0.75 1.258 l -0.66 0.688 c -0.875 0.91 -5.301 3.01 -8.273 3.918 c -3.465 1.063 -8.563 1.578 -10.984 1.117 m 0 0.004"
               fill="#000"
               stroke="none"
               fill-rule="nonzero"
               fill-opacity="1"
               id="path47" />
          </g>
        </g>
      </g>
    </g>
  </g>
  <g
     id="g49">
    <g
       clip-path="url(#clipPath-780229476)"
       id="g51">
      <!-- color: #2f95ee -->
      <g
         id="g53">
        <path
           d="m -24 24 c 0 1.101 -1.123 2 -2.5 2 c -1.377 0 -2.5 -0.898 -2.5 -2 c 0 -1.101 1.123 -2 2.5 -2 c 1.377 0 2.5 0.898 2.5 2 m 0 0"
           transform="matrix(0.400055,0,0,0.500069,24.101465,18.498343)"
           stroke-opacity="1"
           fill="none"
           stroke="#e5ecf4"
           stroke-linejoin="miter"
           stroke-linecap="butt"
           stroke-width="2.235"
           stroke-miterlimit="4"
           id="path55" />
        <path
           d="m 9.387 31.867 c -1.684 -0.395 -1.832 -1.48 -0.445 -3.266 c 0.629 -0.816 3.848 -3.262 4.281 -3.262 c 0.094 0 -0.285 0.586 -0.84 1.297 c -1.203 1.551 -1.242 1.945 -0.273 2.566 c 0.59 0.379 1.141 0.441 2.816 0.293 c 5.477 -0.465 13.949 -3.813 18.887 -7.453 l 1.398 -1.027 l -1.156 1.191 c -3.094 3.184 -11.133 7.121 -18.203 8.883 c -3.504 0.879 -5.176 1.078 -6.465 0.773 m 8.777 -0.535 c 0.316 -0.145 2.656 -0.914 5.199 -1.715 c 6.945 -2.184 11.469 -4.484 13.676 -6.953 c 1.25 -1.398 1.207 -2.25 -0.145 -2.949 c -0.348 -0.18 -0.996 -0.328 -1.449 -0.332 c -0.742 -0.008 -0.762 -0.035 -0.254 -0.328 c 0.309 -0.176 1.695 -0.328 3.078 -0.344 c 2.895 -0.035 3.73 0.398 3.73 1.914 c 0 2.676 -9.121 7.535 -18.391 9.801 c -3.629 0.887 -6.469 1.363 -5.449 0.91 m -3.23 -5.34 c -0.84 -0.156 -1.074 -1.313 -0.684 -3.398 c 0.645 -3.441 2.617 -6.02 5.84 -7.637 c 2.18 -1.094 5.477 -1.27 8.277 -0.434 c 2.309 0.688 4.488 2.391 5.734 4.48 l 0.75 1.258 l -0.66 0.688 c -0.875 0.91 -5.301 3.01 -8.273 3.918 c -3.465 1.063 -8.563 1.578 -10.984 1.117 m 0 0.004"
           fill="#fff"
           stroke="none"
           fill-rule="nonzero"
           fill-opacity="1"
           id="path57" />
      </g>
    </g>
  </g>
</svg>
