<?xml version="1.0" encoding="UTF-8" standalone="no"?>
<!-- Created with Inkscape (http://www.inkscape.org/) -->

<svg
   xmlns:dc="http://purl.org/dc/elements/1.1/"
   xmlns:cc="http://creativecommons.org/ns#"
   xmlns:rdf="http://www.w3.org/1999/02/22-rdf-syntax-ns#"
   xmlns:svg="http://www.w3.org/2000/svg"
   xmlns="http://www.w3.org/2000/svg"
   xmlns:xlink="http://www.w3.org/1999/xlink"
   xmlns:sodipodi="http://sodipodi.sourceforge.net/DTD/sodipodi-0.dtd"
   xmlns:inkscape="http://www.inkscape.org/namespaces/inkscape"
   width="48"
   height="48"
   id="svg2"
   version="1.1"
   inkscape:version="0.48.5 r10040"
   sodipodi:docname="gtk-redshift.svg"
   inkscape:export-filename="/home/uri/Iconos/NITRUX/apps/16/redshift.png"
   inkscape:export-xdpi="30"
   inkscape:export-ydpi="30">
  <defs
     id="defs4">
    <linearGradient
       id="linearGradient4557"
       inkscape:collect="always">
      <stop
         id="stop4559"
         offset="0"
         style="stop-color:#ffb600;stop-opacity:1" />
      <stop
         id="stop4561"
         offset="1"
         style="stop-color:#ffd96a;stop-opacity:1" />
    </linearGradient>
    <linearGradient
       inkscape:collect="always"
       xlink:href="#linearGradient4056"
       id="linearGradient1616-9"
       x1="110.26778"
       y1="54.660358"
       x2="110.26778"
       y2="-18.876663"
       gradientUnits="userSpaceOnUse"
       gradientTransform="matrix(0.55502675,0,0,0.55502675,-26.103746,1018.3814)" />
    <linearGradient
       inkscape:collect="always"
       id="linearGradient4056">
      <stop
         style="stop-color:#ffecb8;stop-opacity:1"
         offset="0"
         id="stop4058" />
      <stop
         style="stop-color:#fffcf5;stop-opacity:1"
         offset="1"
         id="stop4060" />
    </linearGradient>
    <linearGradient
       y2="1004.8474"
       x2="23.204165"
       y1="1052.4241"
       x1="23.204165"
       gradientTransform="matrix(0.92447917,0,0,0.99835625,3.625,1.6616)"
       gradientUnits="userSpaceOnUse"
       id="linearGradient4167"
       xlink:href="#linearGradient4557"
       inkscape:collect="always" />
  </defs>
  <sodipodi:namedview
     id="base"
     pagecolor="#ffffff"
     bordercolor="#666666"
     borderopacity="1.0"
     inkscape:pageopacity="0.0"
     inkscape:pageshadow="2"
     inkscape:zoom="6.5105494"
     inkscape:cx="-32.939241"
     inkscape:cy="27.111849"
     inkscape:document-units="px"
     inkscape:current-layer="layer1"
     showgrid="true"
     inkscape:window-width="1301"
     inkscape:window-height="744"
     inkscape:window-x="65"
     inkscape:window-y="24"
     inkscape:window-maximized="1">
    <inkscape:grid
       type="xygrid"
       id="grid3850" />
  </sodipodi:namedview>
  <metadata
     id="metadata7">
    <rdf:RDF>
      <cc:Work
         rdf:about="">
        <dc:format>image/svg+xml</dc:format>
        <dc:type
           rdf:resource="http://purl.org/dc/dcmitype/StillImage" />
        <dc:title />
      </cc:Work>
    </rdf:RDF>
  </metadata>
  <g
     inkscape:label="Capa 1"
     inkscape:groupmode="layer"
     id="layer1"
     transform="translate(0,-1004.3622)">
    <path
       style="fill:#f09f3b;fill-opacity:1;stroke:none"
       d="m 17.610899,1036.2197 c -1.066155,-2.0669 -2.632316,-3.8572 -3.632283,-5.9569 -0.83975,-1.7633 -1.812542,-3.5737 -1.961433,-5.5211 -0.167269,-2.1877 0.423593,-4.4269 1.234976,-6.4655 0.648341,-1.6289 1.440403,-3.3665 2.833181,-4.4313 1.673162,-1.2793 3.931375,-1.706 6.02959,-1.8888 2.797734,-0.2439 5.847841,-0.1771 8.35425,1.0897 1.467374,0.7416 2.486047,2.2026 3.414345,3.5596 1.296765,1.8956 2.52091,3.9833 2.905827,6.2475 0.371104,2.183 0.116637,4.5348 -0.653811,6.6108 -0.483849,1.3037 -1.601146,2.2741 -2.397307,3.4143 -0.60763,0.8702 -1.07476,1.8558 -1.816142,2.6153 -0.544714,0.558 -1.316431,0.8506 -1.888787,1.3802 -0.163864,0.1517 -0.351921,0.3017 -0.435874,0.5086 -0.58392,1.4388 -0.156375,3.1023 -0.290582,4.6493 -0.07581,0.8738 -0.02253,1.7801 -0.290582,2.6152 -0.21204,0.6607 -0.619007,1.2478 -1.01704,1.8162 -0.53188,0.7594 -1.098078,1.5202 -1.81614,2.1067 -0.537363,0.4389 -1.126972,0.9367 -1.816143,1.017 -0.525308,0.061 -1.058543,-0.1877 -1.525558,-0.4358 -0.698154,-0.3711 -1.243366,-0.9806 -1.816142,-1.5256 -0.335159,-0.3189 -0.707049,-0.6199 -0.944393,-1.017 -0.538227,-0.9006 -0.824139,-1.9473 -1.017039,-2.9785 -0.218351,-1.1673 0.01826,-2.3834 -0.145292,-3.5597 -0.08575,-0.6166 -0.239905,-1.2252 -0.435873,-1.8161 -0.2322,-0.7002 -0.533579,-1.3785 -0.871748,-2.0341 z"
       id="path3002"
       inkscape:connector-curvature="0"
       sodipodi:nodetypes="aaaaaaaaaaaaaaaaaaaaaaaaaa" />
    <path
       inkscape:connector-curvature="0"
       id="path4126"
       d="m 24.212898,1009.1637 -1.439601,1.6996 c -1.888595,2.2446 -4.474365,3.0949 -7.440827,2.4283 l -2.289484,-0.5203 0,2.4976 c 0,3.1521 -1.25487,5.2775 -4.0239444,6.8337 l -2.1680739,1.2143 1.4222562,1.4914 c 2.2509781,2.3496 2.7513841,4.4663 1.7518031,7.3369 -1.1146434,3.2008 -1.1041368,3.2607 0.537683,3.2607 1.945989,0 5.205293,1.4458 5.602299,2.4803 0.36774,0.9585 1.621978,1.1395 2.133385,0.3122 0.402979,-0.652 -1.053141,-3.5979 -2.827167,-5.7236 -2.91373,-3.4914 -2.967834,-8.4362 -0.156101,-12.8698 5.596845,-8.8253 19.928924,-4.4451 19.928924,6.0878 0,3.0557 -1.047525,5.7335 -3.31281,8.4816 -1.691085,2.0515 -2.256756,4.5617 -1.023333,4.5617 0.364881,0 1.329523,-0.6174 2.133387,-1.3877 0.831683,-0.7966 2.506112,-1.6034 3.902525,-1.8557 1.729263,-0.3125 2.392178,-0.6729 2.237458,-1.2316 -0.120772,-0.4359 -0.472083,-1.6881 -0.780512,-2.775 -0.711133,-2.506 -0.235521,-4.3983 1.68243,-6.6778 0.834593,-0.9916 1.271577,-1.8759 0.971297,-1.9772 -3.519102,-1.1872 -6.041711,-4.8136 -5.706372,-8.1693 0.164498,-1.6461 0.08527,-1.715 -1.491632,-1.4743 -3.941826,0.6021 -5.25094,0.2642 -7.475516,-1.9078 l -2.168074,-2.116 z m -0.05204,17.6393 -1.075364,1.3703 -1.075365,1.3701 -1.110053,-1.3701 c -0.837042,-1.0247 -1.271072,-1.2005 -1.751803,-0.7286 -0.627406,0.6161 0.266724,3.1211 1.803839,5.0475 0.829099,1.0389 1.970588,0.8403 2.671065,-0.4684 l 0.624404,-1.1622 0.815194,1.1622 c 0.448513,0.6404 1.168495,1.162 1.613048,1.162 1.151187,0 3.419126,-4.8021 2.636377,-5.5849 -0.431351,-0.4315 -0.922093,-0.2663 -1.751803,0.6244 l -1.162087,1.2488 -1.127398,-1.3356 -1.110054,-1.3355 z m 4.353492,11.7251 c -0.139289,0 -0.277782,0.013 -0.45096,0.017 -0.831252,0.048 -2.071787,0.2541 -3.919876,0.5724 -4.86531,0.8381 -5.949954,1.3019 -5.307445,2.3414 0.465585,0.7533 1.466204,0.7564 5.619647,0.017 4.608471,-0.82 5.238064,-1.0411 5.238064,-1.9077 0,-0.6875 -0.204421,-1.0239 -1.179432,-1.0412 z m -0.537683,3.278 c -0.840555,0.039 -2.07293,0.2394 -3.867842,0.555 -4.732585,0.8322 -5.926798,1.3701 -5.272756,2.4283 0.460306,0.7447 0.93585,0.7491 5.064621,0.033 5.315369,-0.9198 5.79309,-1.0611 5.79309,-1.8906 0,-0.8313 -0.316192,-1.1909 -1.717113,-1.1264 z m -0.711127,3.2435 c -0.85009,0.02 -2.004557,0.1733 -3.486261,0.4682 -2.757694,0.5488 -3.838706,1.0082 -3.97191,1.6997 -0.144795,0.7519 0.206924,0.9439 1.665079,0.9019 2.895641,-0.083 7.274352,-1.2654 7.52755,-2.0292 0.244233,-0.7367 -0.317636,-1.0754 -1.73446,-1.0406 z m -1.855872,3.3303 c -0.36172,0.015 -0.83954,0.059 -1.4396,0.1559 -1.661423,0.2696 -1.947762,0.4978 -1.4396,1.11 l 0.01735,0 c 0.834429,1.0056 2.406088,0.9467 3.278127,-0.1044 0.72662,-0.8758 0.668896,-1.208 -0.416276,-1.1622 z"
       style="fill:#000000;fill-opacity:0.05882353" />
    <path
       style="fill:#000000;fill-opacity:0.11764706"
       d="m 24.212898,1008.6286 -1.439601,1.6996 c -1.888595,2.2446 -4.474365,3.0949 -7.440827,2.4283 l -2.289484,-0.5203 0,2.4976 c 0,3.1521 -1.25487,5.2775 -4.0239444,6.8337 l -2.1680739,1.2143 1.4222562,1.4914 c 2.2509781,2.3496 2.7513841,4.4663 1.7518031,7.3369 -1.1146434,3.2008 -1.1041368,3.2607 0.537683,3.2607 1.945989,0 5.205293,1.4458 5.602299,2.4803 0.36774,0.9585 1.621978,1.1395 2.133385,0.3123 0.402979,-0.6521 -1.053141,-3.598 -2.827167,-5.7237 -2.91373,-3.4914 -2.967834,-8.4362 -0.156101,-12.8698 5.596845,-8.8253 19.928924,-4.4451 19.928924,6.0878 0,3.0557 -1.047525,5.7335 -3.31281,8.4816 -1.691085,2.0516 -2.256756,4.5617 -1.023333,4.5617 0.364881,0 1.329523,-0.6174 2.133387,-1.3876 0.831683,-0.7967 2.506112,-1.6035 3.902525,-1.8558 1.729263,-0.3125 2.392178,-0.6728 2.237458,-1.2316 -0.120772,-0.4359 -0.472083,-1.6881 -0.780512,-2.775 -0.711133,-2.506 -0.235521,-4.3983 1.68243,-6.6778 0.834593,-0.9916 1.271577,-1.8759 0.971297,-1.9772 -3.519102,-1.1872 -6.041711,-4.8136 -5.706372,-8.1693 0.164498,-1.6461 0.08527,-1.715 -1.491632,-1.4743 -3.941826,0.6021 -5.25094,0.2642 -7.475516,-1.9078 l -2.168074,-2.116 z m -0.05204,17.6393 -1.075364,1.3703 -1.075365,1.3701 -1.110053,-1.3701 c -0.837042,-1.0247 -1.271072,-1.2005 -1.751803,-0.7286 -0.627406,0.6161 0.266724,3.1211 1.803839,5.0475 0.829099,1.0389 1.970588,0.8404 2.671065,-0.4684 l 0.624404,-1.1622 0.815194,1.1622 c 0.448513,0.6404 1.168495,1.162 1.613048,1.162 1.151187,0 3.419126,-4.8021 2.636377,-5.5849 -0.431351,-0.4315 -0.922093,-0.2662 -1.751803,0.6244 l -1.162087,1.2488 -1.127398,-1.3356 -1.110054,-1.3355 z m 4.353492,11.7251 c -0.139289,0 -0.277782,0.013 -0.45096,0.017 -0.831252,0.048 -2.071787,0.2541 -3.919876,0.5724 -4.86531,0.8381 -5.949954,1.3019 -5.307445,2.3414 0.465585,0.7533 1.466204,0.7564 5.619647,0.017 4.608471,-0.82 5.238064,-1.0411 5.238064,-1.9077 0,-0.6875 -0.204421,-1.0239 -1.179432,-1.0412 z m -0.537683,3.278 c -0.840555,0.039 -2.07293,0.2394 -3.867842,0.555 -4.732585,0.8322 -5.926798,1.3701 -5.272756,2.4283 0.460306,0.7447 0.93585,0.7491 5.064621,0.033 5.315369,-0.9198 5.79309,-1.0611 5.79309,-1.8906 0,-0.8313 -0.316192,-1.1909 -1.717113,-1.1264 z m -0.711127,3.2435 c -0.85009,0.02 -2.004557,0.1733 -3.486261,0.4682 -2.757694,0.5488 -3.838706,1.0082 -3.97191,1.6997 -0.144795,0.752 0.206924,0.9439 1.665079,0.9019 2.895641,-0.083 7.274352,-1.2654 7.52755,-2.0292 0.244233,-0.7367 -0.317636,-1.0754 -1.73446,-1.0406 z m -1.855872,3.3303 c -0.36172,0.015 -0.83954,0.059 -1.4396,0.156 -1.661423,0.2695 -1.947762,0.4977 -1.4396,1.1099 l 0.01735,0 c 0.834429,1.0056 2.406088,0.9467 3.278127,-0.1044 0.72662,-0.8758 0.668896,-1.2079 -0.416276,-1.1622 z"
       id="path4124"
       inkscape:connector-curvature="0" />
    <path
       inkscape:connector-curvature="0"
       id="path4120"
       d="m 24.212898,1008.0935 -1.439601,1.6996 c -1.888595,2.2446 -4.474365,3.0949 -7.440827,2.4283 l -2.289484,-0.5203 0,2.4976 c 0,3.1521 -1.25487,5.2775 -4.0239444,6.8337 l -2.1680739,1.2143 1.4222562,1.4914 c 2.2509781,2.3496 2.7513841,4.4663 1.7518031,7.3369 -1.1146434,3.2008 -1.1041368,3.2607 0.537683,3.2607 1.945989,0 5.205293,1.4459 5.602299,2.4803 0.36774,0.9585 1.621978,1.1395 2.133385,0.3123 0.402979,-0.6521 -1.053141,-3.598 -2.827167,-5.7237 -2.91373,-3.4914 -2.967834,-8.4362 -0.156101,-12.8698 5.596845,-8.8253 19.928924,-4.4451 19.928924,6.0878 0,3.0557 -1.047525,5.7335 -3.31281,8.4816 -1.691085,2.0516 -2.256756,4.5617 -1.023333,4.5617 0.364881,0 1.329523,-0.6174 2.133387,-1.3876 0.831683,-0.7967 2.506112,-1.6035 3.902525,-1.8558 1.729263,-0.3125 2.392178,-0.6728 2.237458,-1.2316 -0.120772,-0.4359 -0.472083,-1.6881 -0.780512,-2.775 -0.711133,-2.506 -0.235521,-4.3983 1.68243,-6.6778 0.834593,-0.9916 1.271577,-1.8759 0.971297,-1.9772 -3.519102,-1.1872 -6.041711,-4.8135 -5.706372,-8.1693 0.164498,-1.6461 0.08527,-1.715 -1.491632,-1.4743 -3.941826,0.6021 -5.25094,0.2642 -7.475516,-1.9078 l -2.168074,-2.116 z m -0.05204,17.6393 -1.075364,1.3703 -1.075365,1.3701 -1.110053,-1.3701 c -0.837042,-1.0247 -1.271072,-1.2005 -1.751803,-0.7285 -0.627406,0.616 0.266724,3.121 1.803839,5.0474 0.829099,1.0389 1.970588,0.8404 2.671065,-0.4684 l 0.624404,-1.1622 0.815194,1.1622 c 0.448513,0.6404 1.168495,1.162 1.613048,1.162 1.151187,0 3.419126,-4.8021 2.636377,-5.5849 -0.431351,-0.4315 -0.922093,-0.2662 -1.751803,0.6244 l -1.162087,1.2488 -1.127398,-1.3356 -1.110054,-1.3355 z m 4.353492,11.7251 c -0.139289,0 -0.277782,0.013 -0.45096,0.017 -0.831252,0.048 -2.071787,0.2541 -3.919876,0.5724 -4.86531,0.8381 -5.949954,1.3019 -5.307445,2.3414 0.465585,0.7533 1.466204,0.7564 5.619647,0.017 4.608471,-0.82 5.238064,-1.0411 5.238064,-1.9077 0,-0.6875 -0.204421,-1.0239 -1.179432,-1.0412 z m -0.537683,3.278 c -0.840555,0.039 -2.07293,0.2394 -3.867842,0.555 -4.732585,0.8322 -5.926798,1.3701 -5.272756,2.4283 0.460306,0.7447 0.93585,0.7491 5.064621,0.033 5.315369,-0.9198 5.79309,-1.0611 5.79309,-1.8906 0,-0.8313 -0.316192,-1.1909 -1.717113,-1.1264 z m -0.711127,3.2435 c -0.85009,0.02 -2.004557,0.1733 -3.486261,0.4682 -2.757694,0.5489 -3.838706,1.0082 -3.97191,1.6997 -0.144795,0.752 0.206924,0.9439 1.665079,0.9019 2.895641,-0.083 7.274352,-1.2654 7.52755,-2.0292 0.244233,-0.7367 -0.317636,-1.0754 -1.73446,-1.0406 z m -1.855872,3.3303 c -0.36172,0.015 -0.83954,0.059 -1.4396,0.156 -1.661423,0.2695 -1.947762,0.4977 -1.4396,1.1099 l 0.01735,0 c 0.834429,1.0056 2.406088,0.9467 3.278127,-0.1044 0.72662,-0.8758 0.668896,-1.2079 -0.416276,-1.1622 z"
       style="fill:#000000;fill-opacity:0.23529412" />
    <path
       style="fill:url(#linearGradient1616-9);fill-opacity:1"
       d="m 24.212898,1007.5584 -1.439601,1.6996 c -1.888595,2.2446 -4.474365,3.0949 -7.440827,2.4283 l -2.289484,-0.5203 0,2.4976 c 0,3.1521 -1.25487,5.2775 -4.0239444,6.8337 l -2.1680739,1.2143 1.4222562,1.4914 c 2.2509781,2.3496 2.7513841,4.4664 1.7518031,7.3369 -1.1146434,3.2008 -1.1041368,3.2607 0.537683,3.2607 1.945989,0 5.205293,1.4459 5.602299,2.4803 0.36774,0.9585 1.621978,1.1395 2.133385,0.3123 0.402979,-0.6521 -1.053141,-3.598 -2.827167,-5.7237 -2.91373,-3.4914 -2.967834,-8.4362 -0.156101,-12.8697 5.596845,-8.8254 19.928924,-4.4452 19.928924,6.0877 0,3.0557 -1.047525,5.7335 -3.31281,8.4816 -1.691085,2.0516 -2.256756,4.5617 -1.023333,4.5617 0.364881,0 1.329523,-0.6174 2.133387,-1.3876 0.831683,-0.7967 2.506112,-1.6035 3.902525,-1.8558 1.729263,-0.3125 2.392178,-0.6728 2.237458,-1.2316 -0.120772,-0.4359 -0.472083,-1.6881 -0.780512,-2.775 -0.711133,-2.506 -0.235521,-4.3983 1.68243,-6.6778 0.834593,-0.9916 1.271577,-1.8759 0.971297,-1.9771 -3.519102,-1.1873 -6.041711,-4.8136 -5.706372,-8.1694 0.164498,-1.6461 0.08527,-1.715 -1.491632,-1.4743 -3.941826,0.6021 -5.25094,0.2642 -7.475516,-1.9077 l -2.168074,-2.1161 z m -0.05204,17.6393 -1.075364,1.3703 -1.075365,1.3701 -1.110053,-1.3701 c -0.837042,-1.0247 -1.271072,-1.2005 -1.751803,-0.7285 -0.627406,0.616 0.266724,3.121 1.803839,5.0474 0.829099,1.0389 1.970588,0.8404 2.671065,-0.4684 l 0.624404,-1.1622 0.815194,1.1622 c 0.448513,0.6404 1.168495,1.162 1.613048,1.162 1.151187,0 3.419126,-4.8021 2.636377,-5.5849 -0.431351,-0.4315 -0.922093,-0.2662 -1.751803,0.6244 l -1.162087,1.2488 -1.127398,-1.3356 -1.110054,-1.3355 z m 4.353492,11.7251 c -0.139289,0 -0.277782,0.013 -0.45096,0.017 -0.831252,0.048 -2.071787,0.2541 -3.919876,0.5724 -4.86531,0.8381 -5.949954,1.3019 -5.307445,2.3414 0.465585,0.7533 1.466204,0.7564 5.619647,0.017 4.608471,-0.82 5.238064,-1.0411 5.238064,-1.9077 0,-0.6875 -0.204421,-1.0239 -1.179432,-1.0412 z m -0.537683,3.278 c -0.840555,0.039 -2.07293,0.2394 -3.867842,0.555 -4.732585,0.8322 -5.926798,1.3701 -5.272756,2.4283 0.460306,0.7447 0.93585,0.7491 5.064621,0.033 5.315369,-0.9198 5.79309,-1.0611 5.79309,-1.8906 0,-0.8313 -0.316192,-1.1909 -1.717113,-1.1264 z m -0.711127,3.2435 c -0.85009,0.02 -2.004557,0.1733 -3.486261,0.4682 -2.757694,0.5489 -3.838706,1.0082 -3.97191,1.6997 -0.144795,0.752 0.206924,0.9439 1.665079,0.9019 2.895641,-0.083 7.274352,-1.2654 7.52755,-2.0292 0.244233,-0.7367 -0.317636,-1.0754 -1.73446,-1.0406 z m -1.855872,3.3303 c -0.36172,0.015 -0.83954,0.059 -1.4396,0.156 -1.661423,0.2695 -1.947762,0.4977 -1.4396,1.1099 l 0.01735,0 c 0.834429,1.0056 2.406088,0.9467 3.278127,-0.1044 0.72662,-0.8758 0.668896,-1.2079 -0.416276,-1.1622 z"
       id="path1593-1"
       inkscape:connector-curvature="0" />
    <path
       inkscape:connector-curvature="0"
       style="fill:#ffb602;fill-opacity:0.31372549"
       d="m 35.357878,1011.7958 c -0.0068,0.074 -0.0023,0.1084 -0.01043,0.1908 -0.03326,0.3327 -0.01592,0.6678 0.0052,1.0033 0.05637,-0.5768 0.07861,-0.9657 0.0052,-1.1941 z m -11.276744,0.405 c -3.339161,-0.032 -6.667049,1.4196 -8.765867,4.7292 -1.532805,2.4169 -2.207518,4.9837 -2.037963,7.3863 0.06867,-2.0854 0.730412,-4.256 2.037963,-6.3178 5.499003,-8.6711 19.421335,-4.5884 19.906748,5.547 0.0072,-0.1762 0.02091,-0.3493 0.02091,-0.5277 0,-6.5832 -5.596514,-10.7626 -11.161783,-10.817 z m 16.726997,8.9174 c -0.183049,0.305 -0.412348,0.6438 -0.723738,1.0137 -1.498381,1.7809 -2.107792,3.3304 -1.967422,5.1159 0.138697,-1.3586 0.77482,-2.6272 1.967422,-4.0446 0.834593,-0.9917 1.26962,-1.8766 0.969339,-1.9779 -0.08508,-0.028 -0.161713,-0.075 -0.245601,-0.107 z m -33.2920007,0.2195 -0.6662569,0.3736 1.4239632,1.4919 c 1.3718327,1.4319 2.0848464,2.7791 2.2130224,4.2615 0.182279,-1.9253 -0.5188381,-3.5643 -2.2130224,-5.3328 l -0.7577063,-0.7942 z m 11.5118937,4.729 c -0.325909,0.8535 0.525406,3.0692 1.923004,4.8207 0.829098,1.0389 1.972393,0.8411 2.67287,-0.4677 l 0.624454,-1.1627 0.815186,1.1627 c 0.448513,0.6404 1.167531,1.16 1.612084,1.16 1.099776,0 3.212707,-4.3736 2.717287,-5.4475 -0.362435,1.681 -1.854279,4.3789 -2.717287,4.3789 -0.444553,0 -1.163571,-0.5222 -1.612084,-1.1626 l -0.815186,-1.1628 -0.624454,1.1628 c -0.700477,1.3087 -1.843772,1.5065 -2.67287,0.4677 -0.981419,-1.23 -1.694493,-2.69 -1.923004,-3.7495 z m 19.990354,6.0094 c -0.27818,0.2959 -0.920623,0.5335 -2.074544,0.7421 -1.396412,0.2523 -3.071804,1.0584 -3.903489,1.855 -0.803862,0.7703 -1.767143,1.3875 -2.132026,1.3875 -0.3022,0 -0.494376,-0.1525 -0.590487,-0.4102 -0.186704,0.8659 -0.01825,1.4814 0.590487,1.4814 0.364884,0 1.328164,-0.6197 2.132026,-1.3899 0.831686,-0.7967 2.507077,-1.6028 3.903489,-1.8551 1.729263,-0.3125 2.391256,-0.6719 2.236537,-1.2307 -0.02523,-0.091 -0.119113,-0.4266 -0.161993,-0.5801 z m -29.6445632,0.4652 c -0.3189953,1.2092 0.00763,1.2593 1.1888132,1.2593 1.94599,0 5.204787,1.4451 5.601792,2.4795 0.36774,0.9585 1.623232,1.1409 2.134639,0.3136 0.110029,-0.1781 0.07047,-0.5362 -0.06532,-0.9929 -0.543118,0.7256 -1.715111,0.5339 -2.069319,-0.3893 -0.397006,-1.0344 -3.655802,-2.4821 -5.601792,-2.4821 -0.618338,0 -1.0062108,0 -1.1888139,-0.1881 z m 20.1915372,4.8232 c -0.32765,0.5122 -1.475521,0.7902 -5.11059,1.437 -3.91332,0.6962 -5.018212,0.7247 -5.52341,0.096 -0.327669,0.2728 -0.329082,0.5761 -0.09406,0.9564 0.270534,0.4377 0.808951,0.5898 1.954357,0.5225 0.828672,-0.2187 1.897594,-0.4425 3.318226,-0.6924 1.794913,-0.3156 3.026355,-0.5151 3.86691,-0.5538 0.02768,-0 0.0411,0 0.06793,0 1.280241,-0.3374 1.648661,-0.6336 1.648661,-1.1706 0,-0.2512 -0.04581,-0.4393 -0.128022,-0.5983 z m 0.01043,3.3338 c -0.311732,0.4773 -1.47971,0.7241 -5.674952,1.4501 -3.889889,0.6744 -4.533143,0.6994 -4.979952,0.079 -0.300021,0.2788 -0.313456,0.5845 -0.08361,0.9564 0.288219,0.4662 0.687959,0.6082 1.881199,0.499 0.628592,-0.2869 1.605171,-0.5493 3.059561,-0.8387 1.481722,-0.2948 2.637984,-0.4503 3.488075,-0.4703 0.30904,-0.013 0.558251,0.013 0.786446,0.039 1.320343,-0.3235 1.640823,-0.5818 1.640823,-1.0843 0,-0.2557 -0.03532,-0.4619 -0.117574,-0.6296 z m -0.815187,2.9786 c -0.960439,0.7463 -4.703047,1.6922 -7.287035,1.7662 -0.784174,0.023 -1.242395,-0.024 -1.481444,-0.1881 -0.09224,0.1124 -0.161143,0.2315 -0.185507,0.358 -0.144795,0.752 0.208798,0.9434 1.666951,0.9014 0.267752,-0.013 0.557862,-0.035 0.846541,-0.06 0.07482,-0.2586 0.565082,-0.4174 1.648661,-0.5932 0.600061,-0.098 1.077919,-0.142 1.43964,-0.1567 0.332042,-0.013 0.558832,0.013 0.70545,0.073 1.538683,-0.4066 2.757549,-0.9024 2.887118,-1.2933 0.121374,-0.366 0.04238,-0.6348 -0.240375,-0.8073 z m -2.887118,3.1248 c -0.02,0.025 -0.02567,0.04 -0.04703,0.066 -0.793457,0.9563 -2.161306,1.0806 -3.030821,0.3396 -0.540294,0.1929 -0.602838,0.4252 -0.263889,0.8334 l 0.01568,0 c 0.834428,1.0056 2.406996,0.9466 3.279035,-0.1043 0.591898,-0.7134 0.627454,-1.0524 0.04703,-1.134 z"
       id="path4128" />
    <path
       inkscape:connector-curvature="0"
       style="fill:#ffffff;fill-opacity:0.23529412"
       d="m 24.211773,1007.5579 -1.43964,1.7009 c -1.888595,2.2446 -4.472114,3.0938 -7.438576,2.4272 l -2.291403,-0.5198 0,0.5356 2.291403,0.5198 c 2.966462,0.6666 5.549981,-0.1852 7.438576,-2.4298 l 1.43964,-1.6983 2.168605,2.1163 c 2.224575,2.172 3.533329,2.5095 7.475155,1.9074 1.076972,-0.1644 1.446587,-0.1703 1.52586,0.3579 0.05218,-1.0145 -0.188481,-1.0977 -1.52586,-0.8936 -3.941825,0.6022 -5.25058,0.2646 -7.475154,-1.9073 l -2.168606,-2.1163 z m 11.138268,5.9989 c -0.0015,0.015 -0.0012,0.019 -0.0027,0.034 -0.334807,3.3504 2.180229,6.9692 5.690628,8.1622 0.114912,-0.2772 0.14418,-0.4844 0.01568,-0.5277 -3.34551,-1.1287 -5.758744,-4.4592 -5.703692,-7.6685 z m -22.307887,0.1071 c 0,3.1521 -1.254602,5.2762 -4.0236782,6.8323 l -2.1686038,1.215 0.3318229,0.3501 1.8367809,-1.0294 c 2.7690762,-1.5562 4.0236782,-3.6803 4.0236782,-6.8324 l 0,-0.5356 z m 22.190311,10.6861 c -0.05944,2.9456 -1.100694,5.5519 -3.299936,8.2199 -1.171357,1.4211 -1.783721,3.042 -1.651276,3.9165 0.110752,-0.9171 0.690554,-2.218 1.651276,-3.3835 2.265285,-2.7482 3.310388,-5.4254 3.310388,-8.4811 0,-0.092 -0.0083,-0.1804 -0.01044,-0.2718 z m -21.970838,0.7368 c -0.0244,2.3126 0.702805,4.5113 2.210408,6.3178 1.433171,1.7173 2.639689,3.9489 2.845314,5.0949 0.269351,-0.7767 -1.131382,-3.5768 -2.845314,-5.6305 -1.391379,-1.6673 -2.123869,-3.666 -2.210408,-5.7822 z m 10.900504,0.1097 -1.076465,1.3716 -1.076463,1.3692 -1.11043,-1.3692 c -0.837043,-1.0247 -1.26983,-1.2009 -1.750561,-0.7289 -0.180162,0.177 -0.222402,0.521 -0.172443,0.9511 0.02801,-0.1732 0.07673,-0.3214 0.172443,-0.4155 0.480731,-0.4719 0.913518,-0.2958 1.750561,0.729 l 1.11043,1.3691 1.076463,-1.3691 1.076465,-1.3718 1.107817,1.3352 1.12872,1.3351 1.162684,-1.2462 c 0.829711,-0.8907 1.31921,-1.0559 1.750561,-0.6245 0.06119,0.062 0.09952,0.1525 0.125413,0.2587 0.03332,-0.3523 0.01613,-0.6528 -0.125413,-0.7943 -0.431351,-0.4315 -0.92085,-0.2662 -1.750561,0.6244 l -1.162684,1.2489 -1.12872,-1.335 -1.107817,-1.3378 z m -13.667435,2.8688 c -0.01438,0.7738 -0.160725,1.5852 -0.4703,2.4743 -0.5930731,1.7031 -0.8544263,2.5036 -0.7341914,2.8923 0.087756,-0.4822 0.3357022,-1.2124 0.7341914,-2.3567 0.381379,-1.0952 0.539551,-2.0793 0.4703,-3.0099 z m 27.609212,0.1338 c -0.01987,0.6998 0.07353,1.4278 0.297856,2.2182 0.291875,1.0286 0.599839,2.1332 0.736803,2.6259 0.06875,-0.1177 0.08077,-0.246 0.0418,-0.3867 -0.120771,-0.4359 -0.470176,-1.6879 -0.778607,-2.7748 -0.167617,-0.5906 -0.265448,-1.147 -0.297856,-1.6826 z m -9.588892,8.7238 c -0.139288,0 -0.278833,0.015 -0.45201,0.019 -0.831253,0.048 -2.071076,0.2539 -3.919165,0.5722 -4.53082,0.7804 -5.760912,1.2413 -5.392771,2.1398 0.325527,-0.5805 1.848568,-0.9963 5.392771,-1.6069 1.848089,-0.3182 3.087912,-0.5239 3.919165,-0.5721 0.173177,0 0.312722,-0.016 0.45201,-0.016 0.81765,0.015 1.079307,0.2677 1.14701,0.7498 0.01707,-0.078 0.03136,-0.1562 0.03136,-0.2456 0,-0.6874 -0.203351,-1.0225 -1.178362,-1.0398 z m -0.538232,3.2764 0,0 c -0.840555,0.039 -2.071997,0.2384 -3.86691,0.554 -4.400996,0.7739 -5.721067,1.2982 -5.361417,2.2182 0.325814,-0.6175 1.881855,-1.0709 5.361417,-1.6826 1.794913,-0.3156 3.026355,-0.5178 3.86691,-0.5566 1.236832,-0.058 1.607924,0.2384 1.682629,0.8753 0.02419,-0.086 0.03396,-0.1772 0.03396,-0.2822 0,-0.8313 -0.315673,-1.1932 -1.716594,-1.1288 z m -0.710675,3.2451 c -0.850091,0.02 -2.006353,0.1728 -3.488057,0.4677 -2.757695,0.5489 -3.838215,1.0094 -3.971421,1.7009 -0.04021,0.2088 -0.03636,0.3696 0.01311,0.499 0.164644,-0.6709 1.250455,-1.1253 3.958356,-1.6643 1.481704,-0.2948 2.637967,-0.4476 3.488057,-0.4677 1.006896,-0.024 1.57405,0.1429 1.734884,0.5042 0.244233,-0.7367 -0.318061,-1.0746 -1.734884,-1.0398 z m -1.857685,3.3287 0,0 c -0.361721,0.015 -0.839578,0.057 -1.43964,0.1541 -1.501921,0.2438 -1.839882,0.4686 -1.523246,0.9589 0.218034,-0.1655 0.698428,-0.2895 1.523246,-0.4233 0.600062,-0.098 1.077919,-0.142 1.43964,-0.1567 0.39287,-0.016 0.648761,0.019 0.783834,0.1097 0.268178,-0.4855 0.04938,-0.6806 -0.783834,-0.6454 z"
       id="path4133" />
  </g>
</svg>
