<?xml version="1.0" encoding="UTF-8" standalone="no"?>
<svg
   xmlns:dc="http://purl.org/dc/elements/1.1/"
   xmlns:cc="http://creativecommons.org/ns#"
   xmlns:rdf="http://www.w3.org/1999/02/22-rdf-syntax-ns#"
   xmlns:svg="http://www.w3.org/2000/svg"
   xmlns="http://www.w3.org/2000/svg"
   xmlns:xlink="http://www.w3.org/1999/xlink"
   xmlns:sodipodi="http://sodipodi.sourceforge.net/DTD/sodipodi-0.dtd"
   xmlns:inkscape="http://www.inkscape.org/namespaces/inkscape"
   style="isolation:isolate"
   width="48"
   height="48"
   viewBox="0 0 48 48"
   version="1.1"
   id="svg51"
   sodipodi:docname="remmina.svg"
   inkscape:version="0.92.4 (5da689c313, 2019-01-14)">
  <metadata
     id="metadata55">
    <rdf:RDF>
      <cc:Work
         rdf:about="">
        <dc:format>image/svg+xml</dc:format>
        <dc:type
           rdf:resource="http://purl.org/dc/dcmitype/StillImage" />
        <dc:title></dc:title>
      </cc:Work>
    </rdf:RDF>
  </metadata>
  <sodipodi:namedview
     pagecolor="#ffffff"
     bordercolor="#666666"
     borderopacity="1"
     objecttolerance="10"
     gridtolerance="10"
     guidetolerance="10"
     inkscape:pageopacity="0"
     inkscape:pageshadow="2"
     inkscape:window-width="1366"
     inkscape:window-height="705"
     id="namedview53"
     showgrid="false"
     inkscape:zoom="7.375"
     inkscape:cx="14.312421"
     inkscape:cy="32.680485"
     inkscape:window-x="0"
     inkscape:window-y="0"
     inkscape:window-maximized="1"
     inkscape:current-layer="svg51" />
  <defs
     id="defs13">
    <linearGradient
       y2="1028.3622"
       x2="44"
       y1="1028.3622"
       x1="4"
       gradientTransform="translate(-2e-7,-1004.3622)"
       gradientUnits="userSpaceOnUse"
       id="linearGradient3019"
       xlink:href="#linearGradient3764"
       inkscape:collect="always" />
    <linearGradient
       id="linearGradient3764"
       x1="1"
       x2="47"
       gradientUnits="userSpaceOnUse"
       gradientTransform="rotate(-90,23.999998,24)">
      <stop
         stop-color="#3d3d3d"
         stop-opacity="1"
         id="stop7" />
      <stop
         offset="1"
         stop-color="#474747"
         stop-opacity="1"
         id="stop9"
         style="stop-color:#6c6c6c;stop-opacity:1;" />
    </linearGradient>
  </defs>
  <linearGradient
     id="_lgradient_135"
     x1="0.12800001"
     x2="0.54900002"
     y1="0.236"
     y2="0.639"
     gradientTransform="matrix(133.789,0,0,137.366,211.17872,-55.734651)"
     gradientUnits="userSpaceOnUse">
    <stop
       offset="0%"
       style="stop-color:rgb(7,179,255)"
       id="stop37" />
    <stop
       offset="100%"
       style="stop-color:rgb(0,125,232)"
       id="stop39" />
  </linearGradient>
  <linearGradient
     id="_lgradient_136"
     x1="0.824"
     x2="0.336"
     y1="0.80000001"
     y2="0.49000001"
     gradientTransform="matrix(133.786,0,0,137.367,242.39272,-26.863651)"
     gradientUnits="userSpaceOnUse">
    <stop
       offset="0%"
       style="stop-color:rgb(26,214,171)"
       id="stop44" />
    <stop
       offset="100%"
       style="stop-color:rgb(50,157,182)"
       id="stop46" />
  </linearGradient>
  <rect
     style="fill:url(#linearGradient3019);fill-opacity:1;stroke:none"
     id="rect3758"
     width="40"
     height="40"
     x="4"
     y="3.9999998"
     ry="0" />
  <path
     style="opacity:0.35;fill:#000000;fill-opacity:1;stroke:none"
     d="m 4.0000012,43.999718 39.9999958,3e-4 c -19.999997,-1 -19.999997,-1 -39.9999972,0 z"
     id="path3800"
     inkscape:connector-curvature="0"
     sodipodi:nodetypes="cccc" />
  <path
     sodipodi:nodetypes="cccc"
     inkscape:connector-curvature="0"
     id="path3804"
     d="M 4.0000047,3.999917 44,3.999717 c -19.999996,1 -19.999996,1 -39.9999967,0 z"
     style="opacity:0.35;fill:#ffffff;fill-opacity:1;stroke:none" />
  <g
     id="g77"
     transform="matrix(0.16969707,0,0,0.16843324,-25.836417,19.387565)"
     style="stroke-width:5.91492081">
    <path
       style="fill:url(#_lgradient_135);stroke-width:5.91492081"
       inkscape:connector-curvature="0"
       id="path42"
       d="m 273.95572,-53.533651 c -37.596,8.925 -64.549,43.979 -62.686,83.279 0.366,7.697 3.422,21.055 6.425,28.077 4.149,9.703 14.913,25.191 16.477,23.71 0.77,-0.728 10.086,-10.516 10.382,-10.906 0.11,-0.146 -1.286,-2.221 -3.103,-4.611 -6.049,-7.952 -10.227,-16.607 -12.225,-25.322 -8.895,-38.821 18.485,-76.358 58.301,-79.926 14.347,-1.286 31.96,3.589 43.255,11.973 l 3.76,2.793 5.548,-5.901 c 4.931,-5.244 5.429,-5.993 4.489,-6.76 -17.854,-14.582 -40.316,-20.945 -62.968,-17.836 -2.595,0.356 -5.149,0.835 -7.655,1.43 z m -25.176,48.675 c -0.536,0.055 -0.201,2.19 1.362,8.963 l 2.132,9.237 10.759,4.031 c 5.918,2.217 10.773,4.091 10.789,4.163 0.017,0.073 -3.537,3.876 -7.899,8.449 l -7.931,8.314 2.103,9.241 c 1.645,7.229 2.251,9.103 2.777,8.599 2.705,-2.589 38.457,-40.653 38.404,-40.887 -0.054,-0.233 -48.774,-18.925 -52.378,-20.095 -0.043,-0.014 -0.082,-0.02 -0.118,-0.017 z m 104.582,-21.996" />
    <path
       style="fill:url(#_lgradient_136);stroke-width:5.91492081"
       inkscape:connector-curvature="0"
       id="path49"
       d="m 353.36172,-26.854651 c -0.067,0.014 -0.125,0.042 -0.174,0.089 -0.77,0.728 -10.086,10.518 -10.381,10.908 -0.111,0.146 1.285,2.221 3.103,4.611 6.049,7.952 10.227,16.605 12.224,25.32 8.895,38.821 -18.485,76.36 -58.301,79.928 -14.347,1.286 -31.957,-3.59 -43.252,-11.974 l -3.763,-2.792 -5.548,5.899 c -4.931,5.244 -5.428,5.995 -4.489,6.762 17.855,14.582001 40.317,20.945001 62.968,17.836001 41.53,-5.7 72.326,-42.791001 70.339,-84.711001 -0.365,-7.697 -3.42,-21.053 -6.422,-28.075 -4.02,-9.4 -14.247,-24.229 -16.304,-23.801 z m -28.774,25.42 c -0.034,0.01 -0.067,0.034 -0.1,0.065 -2.704,2.589 -38.457,40.651 -38.404,40.885 0.054,0.233 48.774,18.925 52.378,20.095 0.694,0.225 0.421,-1.721 -1.243,-8.946 l -2.13,-9.237 -10.759,-4.032 c -5.918,-2.217 -10.773,-4.09 -10.79,-4.163 -0.016,-0.073 3.538,-3.875 7.9,-8.448 l 7.93,-8.314 -2.104,-9.241 c -1.543,-6.77699997 -2.171,-8.847 -2.678,-8.664 z" />
  </g>
</svg>
