<?xml version="1.0" encoding="UTF-8" standalone="no"?>
<svg
   xmlns:dc="http://purl.org/dc/elements/1.1/"
   xmlns:cc="http://creativecommons.org/ns#"
   xmlns:rdf="http://www.w3.org/1999/02/22-rdf-syntax-ns#"
   xmlns:svg="http://www.w3.org/2000/svg"
   xmlns="http://www.w3.org/2000/svg"
   xmlns:xlink="http://www.w3.org/1999/xlink"
   xmlns:sodipodi="http://sodipodi.sourceforge.net/DTD/sodipodi-0.dtd"
   xmlns:inkscape="http://www.inkscape.org/namespaces/inkscape"
   viewBox="0 0 48 48"
   id="svg2"
   version="1.1"
   inkscape:version="0.48.5 r10040"
   width="100%"
   height="100%"
   sodipodi:docname="Runner.svg">
  <metadata
     id="metadata85">
    <rdf:RDF>
      <cc:Work
         rdf:about="">
        <dc:format>image/svg+xml</dc:format>
        <dc:type
           rdf:resource="http://purl.org/dc/dcmitype/StillImage" />
      </cc:Work>
    </rdf:RDF>
  </metadata>
  <sodipodi:namedview
     pagecolor="#ffffff"
     bordercolor="#666666"
     borderopacity="1"
     objecttolerance="10"
     gridtolerance="10"
     guidetolerance="10"
     inkscape:pageopacity="0"
     inkscape:pageshadow="2"
     inkscape:window-width="1301"
     inkscape:window-height="744"
     id="namedview83"
     showgrid="true"
     showguides="true"
     inkscape:zoom="2.8854167"
     inkscape:cx="7.785302"
     inkscape:cy="57.229658"
     inkscape:window-x="65"
     inkscape:window-y="24"
     inkscape:window-maximized="1"
     inkscape:current-layer="svg2">
    <inkscape:grid
       type="xygrid"
       id="grid3062" />
  </sodipodi:namedview>
  <defs
     id="defs4">
    <linearGradient
       id="linearGradient3764"
       y1="47"
       x2="0"
       y2="1"
       gradientUnits="userSpaceOnUse">
      <stop
         stop-color="#316350"
         stop-opacity="1"
         id="stop7" />
      <stop
         offset="1"
         stop-color="#38715b"
         stop-opacity="1"
         id="stop9"
         style="stop-color:#65a88e;stop-opacity:1;" />
    </linearGradient>
    <linearGradient
       y2="1028.3622"
       x2="44"
       y1="1028.3622"
       x1="4"
       gradientTransform="translate(3.0511475e-8,-1004.3622)"
       gradientUnits="userSpaceOnUse"
       id="linearGradient3019"
       xlink:href="#linearGradient3764"
       inkscape:collect="always" />
  </defs>
  <rect
     style="fill:url(#linearGradient3019);fill-opacity:1.0;stroke:none"
     id="rect3758"
     width="40"
     height="40"
     x="4"
     y="4"
     ry="0" />
  <path
     style="opacity:0.35;fill:#000000;fill-opacity:1;stroke:none"
     d="m 4.0000014,43.999717 39.9999966,3e-4 c -19.999997,-1 -19.999997,-1 -39.999998,0 z"
     id="path3800"
     inkscape:connector-curvature="0"
     sodipodi:nodetypes="cccc" />
  <path
     sodipodi:nodetypes="cccc"
     inkscape:connector-curvature="0"
     id="path3804"
     d="m 4.0000049,3.9999175 39.9999961,-2e-4 c -19.999996,1 -19.999996,1 -39.9999975,0 z"
     style="opacity:0.75;fill:#ffffff;fill-opacity:1;stroke:none" />
  <g
     id="g33" />
  <g
     transform="matrix(0.88797201,0,0,0.88797201,3.999888,1.3786798)"
     id="g39">
    <g
       id="g41"
       style="opacity:0.1">
      <!-- color: #38715b -->
      <g
         id="g43">
        <path
           d="m 22.516,15.734 c -0.066,-0.348 -0.199,-1.031 -0.297,-1.516 -0.191,-0.996 -0.164,-1.172 0.203,-1.266 0.492,-0.121 4.664,-0.23 4.727,-0.125 0.035,0.063 0.086,0.371 0.105,0.688 l 0.043,0.578 -0.887,0.465 c -0.855,0.445 -3.668,1.805 -3.738,1.805 -0.02,0 -0.09,-0.281 -0.156,-0.629 m 0,0"
           id="path45"
           inkscape:connector-curvature="0"
           style="fill:#000000;fill-opacity:1;fill-rule:nonzero;stroke:none" />
        <path
           d="M 0,28 C 7.547,22.398 12.41,17.125 18.992,11.543 l 0.738,-0.621 0.184,0.883 c 0.098,0.484 0.211,1.039 0.246,1.234 0.305,1.613 0.426,2.09 0.668,2.645 0.195,0.441 -0.438,1.078 -6.898,6.973 -4.953,4.047 -8.824,10.1 -13.93,11.344 0,-1.832 0,-4.094 0,-6 m 0,0"
           id="path47"
           inkscape:connector-curvature="0"
           style="fill:#000000;fill-opacity:1;fill-rule:nonzero;stroke:none" />
        <path
           d="M 0,40 C 0,38.246 0,35.906 0,34 8,29 12.832,22.84 20.12,16.687 l 0.738,-0.621 0.18,0.879 c 0.102,0.484 0.211,1.043 0.25,1.234 0.301,1.617 0.422,2.09 0.664,2.645 C 16.55,26.012 9.46,37.086 -0.001,40.004 m 0,0"
           id="path49"
           inkscape:connector-curvature="0"
           style="fill:#000000;fill-opacity:1;fill-rule:nonzero;stroke:none" />
        <path
           d="m 0,39 c 0,0 6.457,-4.125 10.152,-7.352 0.875,-0.766 1.898,-1.676 2.273,-2.027 0.375,-0.348 1.281,-1.152 2.02,-1.785 0.734,-0.633 1.734,-1.52 2.223,-1.973 1.043,-0.973 3.563,-3.203 4.613,-4.086 l 0.742,-0.621 0.18,0.883 c 0.102,0.484 0.211,1.039 0.246,1.234 0.305,1.613 0.426,2.09 0.668,2.645 0.164,2.391 -23.11,22.08 -23.11,22.08 m 0,-9"
           id="path51"
           inkscape:connector-curvature="0"
           style="fill:#000000;fill-opacity:1;fill-rule:nonzero;stroke:none" />
        <path
           d="M 0,46 C 6,43 16.645,31.758 23.273,26.047 l 0.738,-0.621 0.184,0.883 c 0.098,0.484 0.211,1.043 0.246,1.234 0.305,1.613 0.426,2.09 0.668,2.645 0.195,0.441 -0.438,1.078 -6.898,6.973 -1.086,0.988 -2.461,2.262 -3.059,2.828 C 14.476,40.626 8,47.999 8,47.999 l -8,0 m 0,-2"
           id="path53"
           inkscape:connector-curvature="0"
           style="fill:#000000;fill-opacity:1;fill-rule:nonzero;stroke:none" />
        <path
           d="m 24.05,31.539 0.742,-0.621 0.18,0.879 c 0.102,0.488 0.402,1.113 0.25,1.234 -3.938,3.195 -4.148,3.23 -3.035,5.922 0.332,0.805 -8.727,9.05 -9.184,9.05 l -8,0 c 4.73,-4.121 14.453,-12.582 19.05,-16.461 m 0,0"
           id="path55"
           inkscape:connector-curvature="0"
           style="fill:#000000;fill-opacity:1;fill-rule:nonzero;stroke:none" />
        <path
           d="m 21.508,38.84 c -0.25,-0.105 -0.57,-0.211 -0.707,-0.234 -0.41,-0.078 -0.465,-0.219 -0.352,-0.949 0.055,-0.355 0.098,-0.875 0.098,-1.152 0,-0.344 0.051,-0.563 0.16,-0.695 0.328,-0.391 0.445,-0.543 0.711,-0.906 0.148,-0.203 0.336,-0.434 0.41,-0.512 0.078,-0.074 0.25,-0.285 0.379,-0.465 0.223,-0.297 0.434,-0.563 0.742,-0.926 0.063,-0.074 0.273,-0.344 0.469,-0.594 0.195,-0.25 0.422,-0.531 0.504,-0.621 0.082,-0.094 0.191,-0.227 0.242,-0.293 0.051,-0.07 0.203,-0.262 0.344,-0.434 0.242,-0.297 0.25,-0.352 0.246,-1.301 -0.004,-0.547 -0.035,-0.93 -0.07,-0.855 -0.035,0.078 -0.176,0.32 -0.316,0.539 -0.141,0.223 -0.297,0.492 -0.348,0.605 -0.238,0.531 -0.801,1.184 -1.02,1.184 -0.074,0 -0.137,0.043 -0.465,0.328 -0.063,0.051 -0.277,0.199 -0.477,0.32 -0.203,0.125 -0.418,0.27 -0.477,0.324 -0.063,0.051 -0.77,0.555 -1.574,1.117 l -1.465,1.023 0.051,0.418 c 0.027,0.23 0.105,0.652 0.172,0.934 0.105,0.441 0.172,1.023 0.145,1.227 -0.012,0.066 -0.156,0.023 -1.137,-0.324 -0.34,-0.121 -0.656,-0.262 -0.703,-0.309 -0.047,-0.047 -0.027,-0.289 0.047,-0.574 0.066,-0.273 0.152,-0.754 0.188,-1.07 l 0.066,-0.578 1.105,-1.094 c 0.609,-0.598 1.133,-1.09 1.164,-1.09 0.027,-0.004 0.105,-0.105 0.176,-0.234 0.066,-0.129 0.152,-0.234 0.195,-0.234 0.039,0 0.465,-0.391 0.945,-0.867 0.551,-0.551 0.871,-0.941 0.871,-1.066 0,-0.105 0.039,-0.219 0.086,-0.246 0.047,-0.031 0.113,-0.188 0.148,-0.352 0.035,-0.164 0.098,-0.363 0.137,-0.441 0.039,-0.078 0.121,-0.332 0.184,-0.563 0.059,-0.23 0.164,-0.543 0.227,-0.695 0.063,-0.156 0.145,-0.426 0.184,-0.605 0.035,-0.18 0.105,-0.379 0.156,-0.441 0.059,-0.078 0.063,-0.156 0.004,-0.234 -0.051,-0.063 -0.141,-0.426 -0.199,-0.809 -0.059,-0.383 -0.141,-0.738 -0.18,-0.789 -0.039,-0.055 -0.125,-0.395 -0.188,-0.75 -0.141,-0.813 -0.27,-1.164 -0.426,-1.164 -0.063,0 -0.129,0.035 -0.148,0.078 -0.023,0.063 -0.645,0.508 -1.484,1.063 -0.094,0.066 -0.223,0.168 -0.289,0.23 -0.066,0.066 -0.148,0.117 -0.18,0.117 -0.105,0 -0.281,0.23 -0.391,0.512 -0.117,0.305 -0.215,0.699 -0.477,1.906 -0.094,0.438 -0.215,0.938 -0.27,1.117 -0.055,0.18 -0.098,0.609 -0.098,0.957 0,0.547 -0.031,0.664 -0.227,0.863 -0.234,0.234 -0.414,0.297 -0.414,0.133 0,-0.191 -0.391,-0.93 -0.492,-0.93 -0.059,0 -0.215,0.094 -0.348,0.211 -0.137,0.113 -0.352,0.285 -0.48,0.383 -0.129,0.098 -0.305,0.227 -0.391,0.293 -0.137,0.102 -0.227,0.043 -0.668,-0.441 -0.609,-0.668 -0.695,-0.805 -0.535,-0.855 0.066,-0.02 0.367,-0.109 0.668,-0.195 0.305,-0.09 0.594,-0.191 0.641,-0.227 0.051,-0.039 0.34,-0.121 0.645,-0.191 0.301,-0.066 0.594,-0.16 0.648,-0.199 0.055,-0.043 0.129,-0.445 0.164,-0.895 0.035,-0.445 0.098,-1.262 0.141,-1.813 l 0.074,-0.996 0.629,-0.629 c 0.348,-0.348 0.816,-0.793 1.043,-0.988 1.246,-1.074 1.93,-1.773 1.871,-1.914 -0.09,-0.227 -0.305,-1.176 -0.461,-2.055 -0.074,-0.434 -0.164,-0.855 -0.195,-0.93 C 20.905,16.92 20.827,16.607 20.764,16.299 20.701,15.994 20.565,15.322 20.455,14.811 20.35,14.299 20.221,13.67 20.17,13.416 20.123,13.158 20.045,12.865 20.002,12.764 19.897,12.518 19.721,11.549 19.721,11.205 l 0,-0.273 0.574,0.059 c 0.313,0.031 1.023,0.098 1.578,0.148 0.555,0.055 1.563,0.156 2.242,0.23 0.68,0.074 1.793,0.191 2.473,0.254 l 1.238,0.121 0.016,0.371 c 0.008,0.203 0.016,1.664 0.02,3.246 l 0.008,2.871 0.207,-0.23 c 0.113,-0.129 0.27,-0.328 0.344,-0.445 0.141,-0.219 0.59,-0.855 1.09,-1.555 0.156,-0.215 0.285,-0.457 0.285,-0.535 0,-0.168 0.328,-1.277 0.5,-1.684 0.066,-0.156 0.168,-0.531 0.23,-0.836 0.063,-0.305 0.148,-0.602 0.191,-0.656 0.051,-0.063 -0.039,-0.219 -0.234,-0.418 -0.285,-0.289 -0.316,-0.371 -0.32,-0.852 -0.004,-0.508 0.008,-0.535 0.25,-0.59 0.453,-0.102 0.48,-0.125 0.48,-0.449 0,-0.18 0.039,-0.348 0.09,-0.383 0.051,-0.031 0.094,-0.18 0.094,-0.328 0,-0.313 0.156,-0.359 0.379,-0.113 0.242,0.266 0.566,0.492 0.789,0.551 0.113,0.027 0.203,0.086 0.203,0.129 0,0.039 0.125,0.102 0.277,0.137 l 0.273,0.059 0,1.465 -0.496,0.336 c -0.57,0.383 -0.582,0.402 -0.754,1.395 -0.07,0.41 -0.168,0.871 -0.211,1.023 -0.18,0.602 -0.371,1.418 -0.453,1.91 -0.082,0.48 -0.258,0.832 -1.266,2.496 -0.113,0.188 -0.23,0.414 -0.262,0.504 -0.031,0.086 -0.09,0.16 -0.129,0.16 -0.039,0 -0.125,0.137 -0.191,0.305 -0.066,0.164 -0.145,0.32 -0.172,0.348 -0.031,0.023 -0.234,0.359 -0.457,0.742 -0.223,0.387 -0.445,0.73 -0.5,0.766 -0.066,0.043 -0.117,0.887 -0.152,2.418 -0.035,1.723 -0.09,2.504 -0.195,2.91 -0.223,0.855 -0.426,1.813 -0.488,2.328 -0.031,0.254 -0.113,0.695 -0.18,0.977 -0.066,0.281 -0.168,0.75 -0.227,1.039 -0.094,0.477 -0.156,0.574 -0.656,1.023 -0.742,0.66 -1.164,1.051 -1.785,1.633 -0.285,0.27 -0.535,0.492 -0.555,0.492 -0.023,0 -0.211,0.164 -0.422,0.363 -0.434,0.41 -0.773,0.719 -1.277,1.148 -0.293,0.25 -0.344,0.348 -0.344,0.668 0,0.207 0.043,0.523 0.09,0.703 0.051,0.18 0.129,0.598 0.176,0.93 0.047,0.332 0.098,0.664 0.117,0.738 0.047,0.203 -0.191,0.199 -0.703,-0.012 m 3.09,-23.465 c 0.914,-0.398 1.68,-0.801 2.492,-1.316 -0.004,-0.047 -0.039,-0.328 -0.078,-0.625 l -0.078,-0.539 -1.98,0.059 c -2.469,0.078 -2.609,0.102 -2.652,0.457 0.148,0.93 0.262,2.828 0.551,2.82 0.375,-0.07 1.16,-0.578 1.746,-0.855 m 0,0"
           id="path57"
           inkscape:connector-curvature="0"
           style="fill:#000000;fill-opacity:1;fill-rule:nonzero;stroke:none" />
      </g>
    </g>
  </g>
  <g
     id="g63"
     transform="matrix(0.88797201,0,0,0.88797201,3.999888,0.48981982)">
    <path
       d="m 22.516,15.734 c -0.066,-0.348 -0.199,-1.031 -0.297,-1.516 -0.191,-0.996 -0.164,-1.172 0.203,-1.266 0.492,-0.121 4.664,-0.23 4.727,-0.125 0.035,0.063 0.086,0.371 0.105,0.688 l 0.043,0.578 -0.887,0.465 c -0.855,0.445 -3.668,1.805 -3.738,1.805 -0.02,0 -0.09,-0.281 -0.156,-0.629 m 0,0"
       id="path65"
       inkscape:connector-curvature="0"
       style="fill:#f4e09f;fill-opacity:1;fill-rule:nonzero;stroke:none" />
    <path
       d="M 0,28 C 7.547,22.398 12.41,17.125 18.992,11.543 l 0.738,-0.621 0.184,0.883 c 0.098,0.484 0.211,1.039 0.246,1.234 0.305,1.613 0.426,2.09 0.668,2.645 0.195,0.441 -0.438,1.078 -6.898,6.973 -4.953,4.047 -8.824,10.1 -13.93,11.344 0,-1.832 0,-4.094 0,-6 m 0,0"
       id="path67"
       inkscape:connector-curvature="0"
       style="fill:#e6c819;fill-opacity:1;fill-rule:nonzero;stroke:none" />
    <path
       d="M 0,40 C 0,38.246 0,35.906 0,34 8,29 12.832,22.84 20.12,16.687 l 0.738,-0.621 0.18,0.879 c 0.102,0.484 0.211,1.043 0.25,1.234 0.301,1.617 0.422,2.09 0.664,2.645 C 16.55,26.012 9.46,37.086 -0.001,40.004 m 0,0"
       id="path69"
       inkscape:connector-curvature="0"
       style="fill:#eb9519;fill-opacity:1;fill-rule:nonzero;stroke:none" />
    <path
       d="m 0,39 c 0,0 6.457,-4.125 10.152,-7.352 0.875,-0.766 1.898,-1.676 2.273,-2.027 0.375,-0.348 1.281,-1.152 2.02,-1.785 0.734,-0.633 1.734,-1.52 2.223,-1.973 1.043,-0.973 3.563,-3.203 4.613,-4.086 l 0.742,-0.621 0.18,0.883 c 0.102,0.484 0.211,1.039 0.246,1.234 0.305,1.613 0.426,2.09 0.668,2.645 0.164,2.391 -23.11,22.08 -23.11,22.08 m 0,-9"
       id="path71"
       inkscape:connector-curvature="0"
       style="fill:#469c7c;fill-opacity:1;fill-rule:nonzero;stroke:none" />
    <path
       d="M 0,46 C 6,43 16.645,31.758 23.273,26.047 l 0.738,-0.621 0.184,0.883 c 0.098,0.484 0.211,1.043 0.246,1.234 0.305,1.613 0.426,2.09 0.668,2.645 0.195,0.441 -0.438,1.078 -6.898,6.973 -1.086,0.988 -2.461,2.262 -3.059,2.828 C 14.476,40.626 8,47.999 8,47.999 l -8,0 m 0,-2"
       id="path73"
       inkscape:connector-curvature="0"
       style="fill:#c65f6a;fill-opacity:1;fill-rule:nonzero;stroke:none" />
    <path
       d="m 24.05,31.539 0.742,-0.621 0.18,0.879 c 0.102,0.488 0.402,1.113 0.25,1.234 -3.938,3.195 -4.148,3.23 -3.035,5.922 0.332,0.805 -8.727,9.05 -9.184,9.05 l -8,0 c 4.73,-4.121 14.453,-12.582 19.05,-16.461 m 0,0"
       id="path75"
       inkscape:connector-curvature="0"
       style="fill:#432142;fill-opacity:1;fill-rule:nonzero;stroke:none" />
    <path
       d="m 21.508,38.84 c -0.25,-0.105 -0.57,-0.211 -0.707,-0.234 -0.41,-0.078 -0.465,-0.219 -0.352,-0.949 0.055,-0.355 0.098,-0.875 0.098,-1.152 0,-0.344 0.051,-0.563 0.16,-0.695 0.328,-0.391 0.445,-0.543 0.711,-0.906 0.148,-0.203 0.336,-0.434 0.41,-0.512 0.078,-0.074 0.25,-0.285 0.379,-0.465 0.223,-0.297 0.434,-0.563 0.742,-0.926 0.063,-0.074 0.273,-0.344 0.469,-0.594 0.195,-0.25 0.422,-0.531 0.504,-0.621 0.082,-0.094 0.191,-0.227 0.242,-0.293 0.051,-0.07 0.203,-0.262 0.344,-0.434 0.242,-0.297 0.25,-0.352 0.246,-1.301 -0.004,-0.547 -0.035,-0.93 -0.07,-0.855 -0.035,0.078 -0.176,0.32 -0.316,0.539 -0.141,0.223 -0.297,0.492 -0.348,0.605 -0.238,0.531 -0.801,1.184 -1.02,1.184 -0.074,0 -0.137,0.043 -0.465,0.328 -0.063,0.051 -0.277,0.199 -0.477,0.32 -0.203,0.125 -0.418,0.27 -0.477,0.324 -0.063,0.051 -0.77,0.555 -1.574,1.117 l -1.465,1.023 0.051,0.418 c 0.027,0.23 0.105,0.652 0.172,0.934 0.105,0.441 0.172,1.023 0.145,1.227 -0.012,0.066 -0.156,0.023 -1.137,-0.324 -0.34,-0.121 -0.656,-0.262 -0.703,-0.309 -0.047,-0.047 -0.027,-0.289 0.047,-0.574 0.066,-0.273 0.152,-0.754 0.188,-1.07 l 0.066,-0.578 1.105,-1.094 c 0.609,-0.598 1.133,-1.09 1.164,-1.09 0.027,-0.004 0.105,-0.105 0.176,-0.234 0.066,-0.129 0.152,-0.234 0.195,-0.234 0.039,0 0.465,-0.391 0.945,-0.867 0.551,-0.551 0.871,-0.941 0.871,-1.066 0,-0.105 0.039,-0.219 0.086,-0.246 0.047,-0.031 0.113,-0.188 0.148,-0.352 0.035,-0.164 0.098,-0.363 0.137,-0.441 0.039,-0.078 0.121,-0.332 0.184,-0.563 0.059,-0.23 0.164,-0.543 0.227,-0.695 0.063,-0.156 0.145,-0.426 0.184,-0.605 0.035,-0.18 0.105,-0.379 0.156,-0.441 0.059,-0.078 0.063,-0.156 0.004,-0.234 -0.051,-0.063 -0.141,-0.426 -0.199,-0.809 -0.059,-0.383 -0.141,-0.738 -0.18,-0.789 -0.039,-0.055 -0.125,-0.395 -0.188,-0.75 -0.141,-0.813 -0.27,-1.164 -0.426,-1.164 -0.063,0 -0.129,0.035 -0.148,0.078 -0.023,0.063 -0.645,0.508 -1.484,1.063 -0.094,0.066 -0.223,0.168 -0.289,0.23 -0.066,0.066 -0.148,0.117 -0.18,0.117 -0.105,0 -0.281,0.23 -0.391,0.512 -0.117,0.305 -0.215,0.699 -0.477,1.906 -0.094,0.438 -0.215,0.938 -0.27,1.117 -0.055,0.18 -0.098,0.609 -0.098,0.957 0,0.547 -0.031,0.664 -0.227,0.863 -0.234,0.234 -0.414,0.297 -0.414,0.133 0,-0.191 -0.391,-0.93 -0.492,-0.93 -0.059,0 -0.215,0.094 -0.348,0.211 -0.137,0.113 -0.352,0.285 -0.48,0.383 -0.129,0.098 -0.305,0.227 -0.391,0.293 -0.137,0.102 -0.227,0.043 -0.668,-0.441 -0.609,-0.668 -0.695,-0.805 -0.535,-0.855 0.066,-0.02 0.367,-0.109 0.668,-0.195 0.305,-0.09 0.594,-0.191 0.641,-0.227 0.051,-0.039 0.34,-0.121 0.645,-0.191 0.301,-0.066 0.594,-0.16 0.648,-0.199 0.055,-0.043 0.129,-0.445 0.164,-0.895 0.035,-0.445 0.098,-1.262 0.141,-1.813 l 0.074,-0.996 0.629,-0.629 c 0.348,-0.348 0.816,-0.793 1.043,-0.988 1.246,-1.074 1.93,-1.773 1.871,-1.914 -0.09,-0.227 -0.305,-1.176 -0.461,-2.055 -0.074,-0.434 -0.164,-0.855 -0.195,-0.93 C 20.905,16.92 20.827,16.607 20.764,16.299 20.701,15.994 20.565,15.322 20.455,14.811 20.35,14.299 20.221,13.67 20.17,13.416 20.123,13.158 20.045,12.865 20.002,12.764 19.897,12.518 19.721,11.549 19.721,11.205 l 0,-0.273 0.574,0.059 c 0.313,0.031 1.023,0.098 1.578,0.148 0.555,0.055 1.563,0.156 2.242,0.23 0.68,0.074 1.793,0.191 2.473,0.254 l 1.238,0.121 0.016,0.371 c 0.008,0.203 0.016,1.664 0.02,3.246 l 0.008,2.871 0.207,-0.23 c 0.113,-0.129 0.27,-0.328 0.344,-0.445 0.141,-0.219 0.59,-0.855 1.09,-1.555 0.156,-0.215 0.285,-0.457 0.285,-0.535 0,-0.168 0.328,-1.277 0.5,-1.684 0.066,-0.156 0.168,-0.531 0.23,-0.836 0.063,-0.305 0.148,-0.602 0.191,-0.656 0.051,-0.063 -0.039,-0.219 -0.234,-0.418 -0.285,-0.289 -0.316,-0.371 -0.32,-0.852 -0.004,-0.508 0.008,-0.535 0.25,-0.59 0.453,-0.102 0.48,-0.125 0.48,-0.449 0,-0.18 0.039,-0.348 0.09,-0.383 0.051,-0.031 0.094,-0.18 0.094,-0.328 0,-0.313 0.156,-0.359 0.379,-0.113 0.242,0.266 0.566,0.492 0.789,0.551 0.113,0.027 0.203,0.086 0.203,0.129 0,0.039 0.125,0.102 0.277,0.137 l 0.273,0.059 0,1.465 -0.496,0.336 c -0.57,0.383 -0.582,0.402 -0.754,1.395 -0.07,0.41 -0.168,0.871 -0.211,1.023 -0.18,0.602 -0.371,1.418 -0.453,1.91 -0.082,0.48 -0.258,0.832 -1.266,2.496 -0.113,0.188 -0.23,0.414 -0.262,0.504 -0.031,0.086 -0.09,0.16 -0.129,0.16 -0.039,0 -0.125,0.137 -0.191,0.305 -0.066,0.164 -0.145,0.32 -0.172,0.348 -0.031,0.023 -0.234,0.359 -0.457,0.742 -0.223,0.387 -0.445,0.73 -0.5,0.766 -0.066,0.043 -0.117,0.887 -0.152,2.418 -0.035,1.723 -0.09,2.504 -0.195,2.91 -0.223,0.855 -0.426,1.813 -0.488,2.328 -0.031,0.254 -0.113,0.695 -0.18,0.977 -0.066,0.281 -0.168,0.75 -0.227,1.039 -0.094,0.477 -0.156,0.574 -0.656,1.023 -0.742,0.66 -1.164,1.051 -1.785,1.633 -0.285,0.27 -0.535,0.492 -0.555,0.492 -0.023,0 -0.211,0.164 -0.422,0.363 -0.434,0.41 -0.773,0.719 -1.277,1.148 -0.293,0.25 -0.344,0.348 -0.344,0.668 0,0.207 0.043,0.523 0.09,0.703 0.051,0.18 0.129,0.598 0.176,0.93 0.047,0.332 0.098,0.664 0.117,0.738 0.047,0.203 -0.191,0.199 -0.703,-0.012 m 3.09,-23.465 c 0.914,-0.398 1.68,-0.801 2.492,-1.316 -0.004,-0.047 -0.039,-0.328 -0.078,-0.625 l -0.078,-0.539 -1.98,0.059 c -2.469,0.078 -2.609,0.102 -2.652,0.457 0.148,0.93 0.262,2.828 0.551,2.82 0.375,-0.07 1.16,-0.578 1.746,-0.855 m 0,0"
       id="path77"
       inkscape:connector-curvature="0"
       style="fill:#2d2d2d;fill-opacity:1;fill-rule:nonzero;stroke:none" />
  </g>
</svg>
