<?xml version="1.0" encoding="UTF-8" standalone="no"?>
<svg
   xmlns:dc="http://purl.org/dc/elements/1.1/"
   xmlns:cc="http://creativecommons.org/ns#"
   xmlns:rdf="http://www.w3.org/1999/02/22-rdf-syntax-ns#"
   xmlns:svg="http://www.w3.org/2000/svg"
   xmlns="http://www.w3.org/2000/svg"
   xmlns:sodipodi="http://sodipodi.sourceforge.net/DTD/sodipodi-0.dtd"
   xmlns:inkscape="http://www.inkscape.org/namespaces/inkscape"
   viewBox="0 0 48 48"
   id="svg2"
   version="1.1"
   inkscape:version="0.48.5 r10040"
   width="100%"
   height="100%"
   sodipodi:docname="sauerbraten.svg">
  <metadata
     id="metadata101">
    <rdf:RDF>
      <cc:Work
         rdf:about="">
        <dc:format>image/svg+xml</dc:format>
        <dc:type
           rdf:resource="http://purl.org/dc/dcmitype/StillImage" />
      </cc:Work>
    </rdf:RDF>
  </metadata>
  <sodipodi:namedview
     pagecolor="#ffffff"
     bordercolor="#666666"
     borderopacity="1"
     objecttolerance="10"
     gridtolerance="10"
     guidetolerance="10"
     inkscape:pageopacity="0"
     inkscape:pageshadow="2"
     inkscape:window-width="1301"
     inkscape:window-height="744"
     id="namedview99"
     showgrid="true"
     inkscape:zoom="5.7708333"
     inkscape:cx="33.989197"
     inkscape:cy="30.556707"
     inkscape:window-x="65"
     inkscape:window-y="24"
     inkscape:window-maximized="1"
     inkscape:current-layer="svg2">
    <inkscape:grid
       type="xygrid"
       id="grid3078" />
  </sodipodi:namedview>
  <defs
     id="defs4">
    <linearGradient
       id="linearGradient3764"
       x1="1"
       x2="47"
       gradientUnits="userSpaceOnUse"
       gradientTransform="matrix(0,-1,1,0,-1.5e-6,47.999998)">
      <stop
         stop-color="#e4e4e4"
         stop-opacity="1"
         id="stop7" />
      <stop
         offset="1"
         stop-color="#eee"
         stop-opacity="1"
         id="stop9" />
    </linearGradient>
    <clipPath
       id="clipPath-471187901">
      <g
         transform="translate(0,-1004.3622)"
         id="g12">
        <path
           d="m -24 13 c 0 1.105 -0.672 2 -1.5 2 -0.828 0 -1.5 -0.895 -1.5 -2 0 -1.105 0.672 -2 1.5 -2 0.828 0 1.5 0.895 1.5 2 z"
           transform="matrix(15.333333,0,0,11.5,414.99999,878.8622)"
           fill="#1890d0"
           id="path14" />
      </g>
    </clipPath>
    <clipPath
       id="clipPath-476515524">
      <g
         transform="translate(0,-1004.3622)"
         id="g17">
        <path
           d="m -24 13 c 0 1.105 -0.672 2 -1.5 2 -0.828 0 -1.5 -0.895 -1.5 -2 0 -1.105 0.672 -2 1.5 -2 0.828 0 1.5 0.895 1.5 2 z"
           transform="matrix(15.333333,0,0,11.5,414.99999,878.8622)"
           fill="#1890d0"
           id="path19" />
      </g>
    </clipPath>
  </defs>
  <g
     id="g33"
     transform="matrix(1.7665615,0,0,1.7665615,-18.780757,-18.780757)" />
  <g
     id="g35"
     transform="matrix(1.7665615,0,0,1.7665615,-18.780757,-18.780757)">
    <g
       clip-path="url(#clipPath-471187901)"
       id="g37">
      <g
         transform="translate(1,1)"
         id="g39">
        <g
           id="g41"
           style="opacity:0.1">
          <!-- color: #eeeeee -->
          <g
             id="g43">
            <path
               d="m 24,36 0,-12 -10.406,-6 0,12 M 24,36"
               id="path45"
               inkscape:connector-curvature="0"
               style="fill:#000000;fill-opacity:1;fill-rule:nonzero;stroke:none" />
            <path
               d="M 34.406,18 24,24 24,36 34.406,30 m 0,-12"
               id="path47"
               inkscape:connector-curvature="0"
               style="fill:#000000;fill-opacity:1;fill-rule:nonzero;stroke:none" />
            <path
               d="M 24,12 13.59375,18 24,24 34.40625,18 M 24,12"
               id="path49"
               inkscape:connector-curvature="0"
               style="fill:#000000;fill-opacity:1;fill-rule:nonzero;stroke:none" />
            <path
               d="m 24,16 0,8 -6.938,4 0,-8 M 24,16"
               id="path51"
               inkscape:connector-curvature="0"
               style="fill:#000000;fill-opacity:1;fill-rule:nonzero;stroke:none" />
            <path
               d="M 30.938,28 24,24 l 0,-8 6.938,4 m 0,8"
               id="path53"
               inkscape:connector-curvature="0"
               style="fill:#000000;fill-opacity:1;fill-rule:nonzero;stroke:none" />
            <path
               d="M 24,32 17.0625,28 24,24 30.9375,28 M 24,32"
               id="path55"
               inkscape:connector-curvature="0"
               style="fill:#000000;fill-opacity:1;fill-rule:nonzero;stroke:none" />
            <path
               d="m 24,30 0,-6 -5.188,-3 0,6 M 24,30"
               id="path57"
               inkscape:connector-curvature="0"
               style="fill:#000000;fill-opacity:1;fill-rule:nonzero;stroke:none" />
            <path
               d="m 26,22.848 -2,1.156 0,6 5.188,-3 0,-1.844 L 26,27.004 m 0,-4.156"
               id="path59"
               inkscape:connector-curvature="0"
               style="fill:#000000;fill-opacity:1;fill-rule:nonzero;stroke:none" />
            <path
               d="m 26,23.316 0,3.688 3.188,-1.844 M 26,23.316"
               id="path61"
               inkscape:connector-curvature="0"
               style="fill:#000000;fill-opacity:1;fill-rule:nonzero;stroke:none" />
            <path
               d="m 25.594,22.629 0,-3.691 -3.188,1.848 m 3.188,1.844"
               id="path63"
               inkscape:connector-curvature="0"
               style="fill:#000000;fill-opacity:1;fill-rule:nonzero;stroke:none" />
            <path
               d="m 26.01,22.848 -2,1.156 -5.195,-3 5.191,-2.996 1.598,0.922 -3.191,1.84 3.602,2.074 m -0.004,0.004"
               id="path65"
               inkscape:connector-curvature="0"
               style="fill:#000000;fill-opacity:1;fill-rule:nonzero;stroke:none" />
          </g>
        </g>
      </g>
    </g>
  </g>
  <g
     id="g67"
     transform="matrix(1.7665615,0,0,1.7665615,-18.780757,-18.780757)">
    <g
       clip-path="url(#clipPath-476515524)"
       id="g69">
      <!-- color: #eeeeee -->
      <g
         id="g71">
        <path
           d="m 24,36 0,-12 -10.406,-6 0,12 M 24,36"
           id="path73"
           inkscape:connector-curvature="0"
           style="fill:#a92819;fill-opacity:1;fill-rule:nonzero;stroke:none" />
        <path
           d="M 34.406,18 24,24 24,36 34.406,30 m 0,-12"
           id="path75"
           inkscape:connector-curvature="0"
           style="fill:#dd3d28;fill-opacity:1;fill-rule:nonzero;stroke:none" />
        <path
           d="M 24,12 13.59375,18 24,24 34.40625,18 M 24,12"
           id="path77"
           inkscape:connector-curvature="0"
           style="fill:#e57f75;fill-opacity:1;fill-rule:nonzero;stroke:none" />
        <path
           d="m 24,16 0,8 -6.938,4 0,-8 M 24,16"
           id="path79"
           inkscape:connector-curvature="0"
           style="fill:#dd3d28;fill-opacity:1;fill-rule:nonzero;stroke:none" />
        <path
           d="M 30.938,28 24,24 l 0,-8 6.938,4 m 0,8"
           id="path81"
           inkscape:connector-curvature="0"
           style="fill:#a92819;fill-opacity:1;fill-rule:nonzero;stroke:none" />
        <path
           d="M 24,32 17.0625,28 24,24 30.9375,28 M 24,32"
           id="path83"
           inkscape:connector-curvature="0"
           style="fill:#d64936;fill-opacity:1;fill-rule:nonzero;stroke:none" />
        <path
           d="m 24,30 0,-6 -5.188,-3 0,6 M 24,30"
           id="path85"
           inkscape:connector-curvature="0"
           style="fill:#a92819;fill-opacity:1;fill-rule:nonzero;stroke:none" />
        <path
           d="m 26,22.848 -2,1.156 0,6 5.188,-3 0,-1.844 L 26,27.004 m 0,-4.156"
           id="path87"
           inkscape:connector-curvature="0"
           style="fill:#dd3d28;fill-opacity:1;fill-rule:nonzero;stroke:none" />
        <path
           d="m 26,23.316 0,3.688 3.188,-1.844 M 26,23.316"
           id="path89"
           inkscape:connector-curvature="0"
           style="fill:#d64936;fill-opacity:1;fill-rule:nonzero;stroke:none" />
        <path
           d="m 25.594,22.629 0,-3.691 -3.188,1.848 m 3.188,1.844"
           id="path91"
           inkscape:connector-curvature="0"
           style="fill:#dd3d28;fill-opacity:1;fill-rule:nonzero;stroke:none" />
        <path
           d="m 26.01,22.848 -2,1.156 -5.195,-3 5.191,-2.996 1.598,0.922 -3.191,1.84 3.602,2.074 m -0.004,0.004"
           id="path93"
           inkscape:connector-curvature="0"
           style="fill:#e57f75;fill-opacity:1;fill-rule:nonzero;stroke:none" />
      </g>
    </g>
  </g>
</svg>
