<?xml version="1.0" encoding="UTF-8" standalone="no"?>
<!-- Created with Inkscape (http://www.inkscape.org/) -->

<svg
   xmlns:dc="http://purl.org/dc/elements/1.1/"
   xmlns:cc="http://creativecommons.org/ns#"
   xmlns:rdf="http://www.w3.org/1999/02/22-rdf-syntax-ns#"
   xmlns:svg="http://www.w3.org/2000/svg"
   xmlns="http://www.w3.org/2000/svg"
   xmlns:xlink="http://www.w3.org/1999/xlink"
   xmlns:sodipodi="http://sodipodi.sourceforge.net/DTD/sodipodi-0.dtd"
   xmlns:inkscape="http://www.inkscape.org/namespaces/inkscape"
   width="48"
   height="48"
   id="svg5453"
   version="1.1"
   inkscape:version="0.48.5 r10040"
   sodipodi:docname="secondlife_icon.svg">
  <defs
     id="defs5455">
    <linearGradient
       inkscape:collect="always"
       id="linearGradient4175">
      <stop
         style="stop-color:#47836d;stop-opacity:1"
         offset="0"
         id="stop4177" />
      <stop
         style="stop-color:#bbefdd;stop-opacity:1"
         offset="1"
         id="stop4179" />
    </linearGradient>
    <linearGradient
       gradientTransform="translate(384.57142,504.56412)"
       gradientUnits="userSpaceOnUse"
       y2="-1004.6325"
       x2="24.04163"
       y1="-1053.0693"
       x1="24.04163"
       id="linearGradient848-6"
       xlink:href="#linearGradient1373"
       inkscape:collect="always" />
    <linearGradient
       inkscape:collect="always"
       id="linearGradient1373">
      <stop
         style="stop-color:#282827;stop-opacity:1"
         offset="0"
         id="stop1375" />
      <stop
         style="stop-color:#292929;stop-opacity:1"
         offset="1"
         id="stop1377" />
    </linearGradient>
    <linearGradient
       inkscape:collect="always"
       xlink:href="#linearGradient4175"
       id="linearGradient4181"
       x1="412.91788"
       y1="539.17804"
       x2="412.91788"
       y2="508.34506"
       gradientUnits="userSpaceOnUse"
       gradientTransform="matrix(1.4311506,0,0,1.4311506,-176.15582,-225.92206)" />
  </defs>
  <sodipodi:namedview
     id="base"
     pagecolor="#ffffff"
     bordercolor="#666666"
     borderopacity="1.0"
     inkscape:pageopacity="0"
     inkscape:pageshadow="2"
     inkscape:zoom="6.0325047"
     inkscape:cx="43.672338"
     inkscape:cy="8.2785655"
     inkscape:document-units="px"
     inkscape:current-layer="layer1"
     showgrid="true"
     fit-margin-top="0"
     fit-margin-left="0"
     fit-margin-right="0"
     fit-margin-bottom="0"
     inkscape:window-width="1301"
     inkscape:window-height="744"
     inkscape:window-x="65"
     inkscape:window-y="24"
     inkscape:window-maximized="1"
     inkscape:showpageshadow="false"
     borderlayer="true"
     showguides="false">
    <inkscape:grid
       type="xygrid"
       id="grid3000" />
  </sodipodi:namedview>
  <metadata
     id="metadata5458">
    <rdf:RDF>
      <cc:Work
         rdf:about="">
        <dc:format>image/svg+xml</dc:format>
        <dc:type
           rdf:resource="http://purl.org/dc/dcmitype/StillImage" />
        <dc:title />
      </cc:Work>
    </rdf:RDF>
  </metadata>
  <g
     inkscape:label="Capa 1"
     inkscape:groupmode="layer"
     id="layer1"
     transform="translate(-384.57143,-499.798)">
    <path
       sodipodi:nodetypes="csssssscsssssssssssssssssssccssssssssssscsssssssssssssssssss"
       inkscape:connector-curvature="0"
       id="path4183"
       d="m 414.89341,545.798 c 5.0771,-1.45106 8.20923,-5.26935 8.22156,-10.02272 0.0114,-4.56111 -2.60682,-7.52542 -7.78459,-8.81218 -2.48078,-0.61651 -7.41273,-0.61089 -9.91945,0.0114 -2.1821,0.54163 -4.23855,1.51679 -5.45298,2.58576 -1.56199,1.37493 -1.79236,2.25065 -0.85999,3.2693 0.63475,0.69353 1.33321,0.56522 2.521,-0.46309 1.06652,-0.92333 2.33954,-1.62916 2.95214,-1.63686 0.4187,-0.006 0.4199,0.0537 0.0319,1.56805 -0.7217,2.81707 0.73215,5.89069 3.34466,7.07105 1.4626,0.66082 3.75101,0.62665 5.10696,-0.0763 1.89773,-0.98375 3.03292,-2.76338 3.15487,-4.94587 0.0841,-1.50505 -0.11378,-2.07503 -0.93112,-2.68154 -0.70333,-0.52192 -1.16477,-0.29104 -1.16477,0.58281 0,1.23352 -0.95007,1.78399 -1.9139,1.1089 -0.3216,-0.22525 -0.43504,-0.50142 -0.43504,-1.05918 0,-2.60663 4.91591,-2.45088 6.8485,0.21699 2.05844,2.84158 0.53276,7.21326 -3.17455,9.09634 -2.47793,1.25865 -6.70072,1.39892 -10.81861,0.35937 -2.78118,-0.70211 -5.29239,-2.47692 -6.28993,-4.44545 -0.78775,-1.55456 -1.00924,-2.95149 -1.13894,-7.18356 -0.16016,-5.22589 -0.36477,-6.73603 -1.0462,-7.72189 -0.59453,-0.86014 -1.6298,-1.47348 -2.73794,-1.62211 -1.09106,-0.14635 -1.23388,0.13424 -0.91619,1.80042 0.14369,0.75361 0.35897,3.83658 0.4784,6.85104 0.13124,3.31143 0.33529,6.04284 0.51559,6.90068 1.11591,5.30921 5.63503,8.76171 12.6033,9.62857 2.4653,0.30668 7.1031,0.10662 8.80528,-0.3799 z m 5.45603,-19.13444 c 0.73842,-0.62171 1.92918,-4.10086 4.27094,-12.47869 0.33299,-1.19129 0.20478,-2.05004 -0.3894,-2.60823 -1.01004,-0.94888 -2.26579,-0.61834 -2.99292,0.78778 -0.16831,0.32548 -0.70467,2.32163 -1.19191,4.43589 -2.06529,8.96198 -2.09071,9.12797 -1.47934,9.66056 0.69486,0.60531 1.23189,0.66637 1.78263,0.20269 z m -17.1136,-1.13953 c 0.39634,-0.39632 0.40304,-1.99575 0.019,-4.55216 -0.49312,-3.28311 -2.45922,-13.15911 -2.77864,-13.95738 -0.61448,-1.53575 -2.04149,-2.14094 -3.39631,-1.44034 -0.77605,0.40131 -0.97493,0.84784 -0.97411,2.18723 0.001,1.90719 3.05572,14.20613 4.22076,16.99447 0.15231,0.36451 0.43191,0.753 0.62135,0.86331 0.53651,0.31244 1.93862,0.25413 2.28788,-0.0952 z m 11.9677,-0.8926 c 0.44882,-0.86794 1.15312,-4.57731 2.1279,-11.20726 0.55802,-3.79528 0.84401,-6.32659 0.7683,-6.80013 -0.18009,-1.12618 -0.89086,-1.73703 -2.02124,-1.73703 -1.00836,0 -1.564,0.40831 -1.95309,1.43519 -0.28147,0.74287 -1.52665,12.12643 -1.66298,15.20307 -0.12451,2.80938 0.0192,3.30504 1.0556,3.64261 0.88396,0.28789 1.33316,0.14492 1.68551,-0.53645 z m -5.61403,-0.2602 c 0.70193,-0.7027 0.13553,-19.31002 -0.63303,-20.79627 -0.50651,-0.9795 -1.06088,-1.33049 -2.10149,-1.33049 -1.2311,0 -1.90589,0.61635 -2.15919,1.97222 -0.20378,1.09078 0.9585,13.92643 1.59349,17.59774 0.32138,1.85814 0.44692,2.22169 0.90436,2.6191 0.42878,0.37251 0.68044,0.44142 1.30569,0.35757 0.426,-0.0571 0.91658,-0.24609 1.09017,-0.41987 z"
       style="fill:#000000;fill-opacity:0.23529412" />
    <path
       style="fill:url(#linearGradient4181);fill-opacity:1"
       d="m 414.89341,545.22554 c 5.0771,-1.45106 8.20923,-5.26935 8.22156,-10.02272 0.0114,-4.56111 -2.60682,-7.52542 -7.78459,-8.81218 -2.48078,-0.61651 -7.41273,-0.61089 -9.91945,0.0115 -2.1821,0.54163 -4.23855,1.51679 -5.45298,2.58576 -1.56199,1.37493 -1.79236,2.25065 -0.85999,3.2693 0.63475,0.69353 1.33321,0.56522 2.521,-0.46309 1.06652,-0.92333 2.33954,-1.62916 2.95214,-1.63686 0.4187,-0.006 0.4199,0.0537 0.0319,1.56805 -0.7217,2.81707 0.73215,5.89069 3.34466,7.07105 1.4626,0.66082 3.75101,0.62665 5.10696,-0.0763 1.89773,-0.98375 3.03292,-2.76338 3.15487,-4.94587 0.0841,-1.50505 -0.11378,-2.07503 -0.93112,-2.68154 -0.70333,-0.52192 -1.16477,-0.29104 -1.16477,0.58281 0,1.23352 -0.95007,1.78399 -1.9139,1.1089 -0.3216,-0.22525 -0.43504,-0.50142 -0.43504,-1.05918 0,-2.60663 4.91591,-2.45088 6.8485,0.21699 2.05844,2.84158 0.53276,7.21326 -3.17455,9.09634 -2.47793,1.25865 -6.70072,1.39892 -10.81861,0.35937 -2.78118,-0.70211 -5.29239,-2.47692 -6.28993,-4.44545 -0.78775,-1.55456 -1.00924,-2.95149 -1.13894,-7.18356 -0.16016,-5.22589 -0.36477,-6.73603 -1.0462,-7.72189 -0.59453,-0.86014 -1.6298,-1.47348 -2.73794,-1.62211 -1.09106,-0.14635 -1.23388,0.13424 -0.91619,1.80042 0.14369,0.75361 0.35897,3.83658 0.4784,6.85104 0.13124,3.31143 0.33529,6.04284 0.51559,6.90068 1.11591,5.30921 5.63503,8.76171 12.6033,9.62857 2.4653,0.30668 7.1031,0.10662 8.80528,-0.3799 z m 5.45603,-19.13444 c 0.73842,-0.62171 1.92918,-4.10086 4.27094,-12.47869 0.33299,-1.19129 0.20478,-2.05004 -0.3894,-2.60823 -1.01004,-0.94888 -2.26579,-0.61834 -2.99292,0.78778 -0.16831,0.32548 -0.70467,2.32162 -1.19191,4.43589 -2.06529,8.96198 -2.09071,9.12797 -1.47934,9.66056 0.69486,0.60531 1.23189,0.66637 1.78263,0.20269 z m -17.1136,-1.13953 c 0.39634,-0.39632 0.40304,-1.99575 0.019,-4.55216 -0.49312,-3.28311 -2.45922,-13.15911 -2.77864,-13.95738 -0.61448,-1.53575 -2.04149,-2.14094 -3.39631,-1.44034 -0.77605,0.40131 -0.97493,0.84784 -0.97411,2.18723 0.001,1.90719 3.05572,14.20613 4.22076,16.99447 0.15231,0.36451 0.43191,0.753 0.62135,0.86331 0.53651,0.31244 1.93862,0.25413 2.28788,-0.0952 z m 11.9677,-0.8926 c 0.44882,-0.86794 1.15312,-4.57731 2.1279,-11.20726 0.55802,-3.79528 0.84401,-6.32659 0.7683,-6.80013 -0.18009,-1.12618 -0.89086,-1.73703 -2.02124,-1.73703 -1.00836,0 -1.564,0.40831 -1.95309,1.43519 -0.28147,0.74287 -1.52665,12.12643 -1.66298,15.20307 -0.12451,2.80938 0.0192,3.30504 1.0556,3.64261 0.88396,0.28789 1.33316,0.14492 1.68551,-0.53645 z m -5.61403,-0.2602 c 0.70193,-0.7027 0.13553,-19.31002 -0.63303,-20.79627 -0.50651,-0.9795 -1.06088,-1.33049 -2.10149,-1.33049 -1.2311,0 -1.90589,0.61635 -2.15919,1.97222 -0.20378,1.09078 0.9585,13.92643 1.59349,17.59774 0.32138,1.85814 0.44692,2.22169 0.90436,2.6191 0.42878,0.37251 0.68044,0.44142 1.30569,0.35757 0.426,-0.0571 0.91658,-0.24609 1.09017,-0.41987 z"
       id="path4173"
       inkscape:connector-curvature="0"
       sodipodi:nodetypes="csssssscsssssssssssssssssssccssssssssssscsssssssssssssssssss" />
    <path
       style="fill:#282827;fill-opacity:0.31372549"
       d="m 404.69446,503.68404 c -0.18825,1.209 0.96447,13.90502 1.59607,17.55676 0.32138,1.85813 0.44542,2.22171 0.90286,2.61912 0.42878,0.37251 0.68011,0.44163 1.30536,0.35778 0.426,-0.0571 0.91655,-0.2455 1.09014,-0.41928 0.2654,-0.26569 0.34708,-3.09382 0.30747,-6.58553 0.008,2.91436 -0.0736,5.20813 -0.30747,5.44229 -0.17359,0.17378 -0.66414,0.36218 -1.09014,0.41928 -0.62525,0.0838 -0.87658,0.0147 -1.30536,-0.35779 -0.45744,-0.3974 -0.58148,-0.76098 -0.90286,-2.61912 -0.54374,-3.14373 -1.46785,-12.95874 -1.59607,-16.41351 z m 13.36673,2.24177 c -0.0936,1.14662 -0.33949,3.12753 -0.72955,5.78051 -0.97479,6.62994 -1.67834,10.34088 -2.12716,11.20881 -0.35235,0.68137 -0.80156,0.82457 -1.68552,0.53668 -0.73771,-0.24027 -1.01223,-0.59992 -1.07057,-1.77775 -0.0545,2.09737 0.14356,2.61907 1.07057,2.921 0.88396,0.28789 1.33317,0.14469 1.68552,-0.53668 0.44882,-0.86794 1.15237,-4.57608 2.12716,-11.20603 0.55802,-3.79528 0.84439,-6.32722 0.76868,-6.80076 -0.008,-0.0474 -0.0297,-0.0802 -0.0391,-0.12578 z m -21.9145,0.47519 c -0.026,0.22515 -0.0421,0.47762 -0.0419,0.78825 0.001,1.90719 3.05574,14.20657 4.22078,16.99491 0.1523,0.36451 0.43389,0.75341 0.62333,0.86372 0.53651,0.31244 1.93723,0.25426 2.28649,-0.095 0.25058,-0.25057 0.32673,-1.03287 0.26555,-2.18306 -0.0367,0.49823 -0.1124,0.88388 -0.26555,1.03703 -0.34926,0.3493 -1.74998,0.40747 -2.28649,0.095 -0.18944,-0.11031 -0.47103,-0.4992 -0.62333,-0.86372 -1.12022,-2.68107 -3.95887,-14.06285 -4.17885,-16.63712 z m 28.58109,5.52334 c -0.0298,0.17696 -0.0518,0.34771 -0.10622,0.54227 -2.34176,8.37783 -3.53267,11.85894 -4.27109,12.48064 -0.55074,0.46368 -1.0885,0.40127 -1.78335,-0.20405 -0.12909,-0.11245 -0.22042,-0.22251 -0.27952,-0.38853 -0.15101,1.08391 -0.0123,1.28033 0.27952,1.53457 0.69485,0.60532 1.23261,0.66493 1.78335,0.20126 0.73842,-0.62171 1.92933,-4.10002 4.27109,-12.47785 0.18698,-0.66893 0.21092,-1.22342 0.10622,-1.68831 z m -32.30152,8.71549 c -0.1371,0.25823 -0.0961,0.74375 0.0643,1.58488 0.14369,0.75362 0.35855,3.83662 0.47798,6.85108 0.13124,3.31142 0.33682,6.04354 0.51712,6.90139 1.11591,5.30921 5.63535,8.76265 12.60363,9.62952 2.4653,0.30668 7.10275,0.10637 8.80493,-0.38015 5.0771,-1.45106 8.2084,-5.27028 8.22073,-10.02365 3.7e-4,-0.15006 -0.0254,-0.28386 -0.0308,-0.43046 -0.30964,4.41827 -3.37074,7.93071 -8.18998,9.30807 -1.70218,0.48652 -6.33963,0.68683 -8.80493,0.38015 -6.96828,-0.86687 -11.48772,-4.32031 -12.60363,-9.62952 -0.1803,-0.85785 -0.38588,-3.58717 -0.51712,-6.8986 -0.11943,-3.01446 -0.33429,-6.09746 -0.47798,-6.85107 -0.0349,-0.18285 -0.0412,-0.2909 -0.0643,-0.44164 z m 22.03748,8.06979 c -1.47055,-0.0466 -2.70017,0.56668 -2.70017,1.86999 0,0.25738 0.0318,0.44365 0.0894,0.60377 0.28452,-0.88528 1.27715,-1.31064 2.45141,-1.31375 0.19518,-0.24855 0.52557,-0.25357 0.97273,0.0783 0.0112,0.008 0.017,0.0168 0.0279,0.0251 1.2427,0.23652 2.51996,0.88171 3.30674,1.96783 0.50822,0.70158 0.79651,1.49799 0.88888,2.32562 0.12061,-1.22944 -0.14939,-2.44804 -0.88888,-3.46886 -0.96629,-1.33393 -2.67755,-2.04143 -4.1481,-2.08802 z m -9.89227,0.30188 c -0.6126,0.008 -1.88522,0.71466 -2.95174,1.63799 -1.18779,1.02831 -1.88653,1.15753 -2.52129,0.46401 -0.18661,-0.20388 -0.31321,-0.40339 -0.40531,-0.60097 -0.26816,0.61558 -0.13241,1.15673 0.40531,1.74421 0.63476,0.69352 1.3335,0.56431 2.52129,-0.464 1.06652,-0.92334 2.33914,-1.6275 2.95174,-1.6352 0.0523,-7.2e-4 0.0781,0.01 0.1174,0.014 0.22924,-0.94017 0.23816,-1.16487 -0.1174,-1.16001 z m -0.11739,3.64496 c -0.2303,2.53642 1.16689,5.08967 3.49401,6.14109 1.46261,0.66082 3.75092,0.62467 5.10686,-0.0783 1.89774,-0.98374 3.03386,-2.76224 3.1558,-4.94473 0.0234,-0.41785 0.0162,-0.75372 -0.0112,-1.04821 -0.15053,2.1369 -1.2759,3.881 -3.14462,4.8497 -1.35594,0.70294 -3.64425,0.73629 -5.10686,0.0755 -1.97484,-0.89225 -3.28255,-2.86772 -3.49401,-4.99505 z"
       id="path4191"
       inkscape:connector-curvature="0" />
  </g>
</svg>
