<?xml version="1.0" encoding="UTF-8" standalone="no"?>
<svg
   xmlns:dc="http://purl.org/dc/elements/1.1/"
   xmlns:cc="http://creativecommons.org/ns#"
   xmlns:rdf="http://www.w3.org/1999/02/22-rdf-syntax-ns#"
   xmlns:svg="http://www.w3.org/2000/svg"
   xmlns="http://www.w3.org/2000/svg"
   xmlns:xlink="http://www.w3.org/1999/xlink"
   xmlns:sodipodi="http://sodipodi.sourceforge.net/DTD/sodipodi-0.dtd"
   xmlns:inkscape="http://www.inkscape.org/namespaces/inkscape"
   viewBox="0 0 48 48"
   id="svg2"
   version="1.1"
   inkscape:version="0.91 r13725"
   sodipodi:docname="chrome-eifdbcbnlahelniokpkpdlhaocgjdcje-Default.svg">
  <metadata
     id="metadata28">
    <rdf:RDF>
      <cc:Work
         rdf:about="">
        <dc:format>image/svg+xml</dc:format>
        <dc:type
           rdf:resource="http://purl.org/dc/dcmitype/StillImage" />
      </cc:Work>
    </rdf:RDF>
  </metadata>
  <defs
     id="defs26">
    <linearGradient
       inkscape:collect="always"
       xlink:href="#linearGradient3418"
       id="linearGradient3279"
       gradientUnits="userSpaceOnUse"
       gradientTransform="matrix(0.83333307,0,0,0.83333307,-317.03371,412.80361)"
       x1="379.57144"
       y1="-527.79797"
       x2="431.57144"
       y2="-527.79797" />
    <linearGradient
       id="linearGradient3418">
      <stop
         style="stop-color:#3949ab;stop-opacity:1"
         offset="0"
         id="stop3420" />
      <stop
         style="stop-color:#7986cb;stop-opacity:1"
         offset="1"
         id="stop3422" />
    </linearGradient>
  </defs>
  <sodipodi:namedview
     pagecolor="#ffffff"
     bordercolor="#666666"
     borderopacity="1"
     objecttolerance="10"
     gridtolerance="10"
     guidetolerance="10"
     inkscape:pageopacity="0"
     inkscape:pageshadow="2"
     inkscape:window-width="686"
     inkscape:window-height="485"
     id="namedview24"
     showgrid="false"
     inkscape:zoom="4.9166667"
     inkscape:cx="24"
     inkscape:cy="24"
     inkscape:window-x="603"
     inkscape:window-y="105"
     inkscape:window-maximized="0"
     inkscape:current-layer="svg2" />
  <g
     transform="translate(0.55761199,0.30529681)"
     id="g3239">
    <rect
       style="fill:url(#linearGradient3279);fill-opacity:1;stroke:none"
       id="rect3241"
       width="39.999989"
       height="39.999989"
       x="3.4424012"
       y="-43.694542"
       ry="0"
       transform="scale(1,-1)" />
    <path
       style="opacity:0.35;fill:#000000;fill-opacity:1;stroke:none"
       d="m 3.4423873,43.694552 40.0000007,3.01e-4 c -20,-0.999999 -20,-0.999999 -40.0000017,0 z"
       id="path3243"
       inkscape:connector-curvature="0"
       sodipodi:nodetypes="cccc" />
    <path
       sodipodi:nodetypes="cccc"
       inkscape:connector-curvature="0"
       id="path3245"
       d="M 3.4423913,3.6947551 43.442388,3.6945549 c -19.999996,1.0000006 -19.999996,1.0000006 -39.9999977,0 z"
       style="opacity:0.5;fill:#ffffff;fill-opacity:1;stroke:none" />
  </g>
  <path
     d="m 26.845 12.01 c -0.133 0.011 -0.274 0.055 -0.407 0.094 -1.061 0.309 -1.654 1.409 -1.345 2.469 l 0.845 2.876 -0.031 0 -5.755 1.688 -0.845 -2.876 c -0.309 -1.061 -1.41 -1.684 -2.471 -1.375 -1.061 0.309 -1.686 1.409 -1.376 2.469 l 0.845 2.907 -2.878 0.844 c -1.061 0.309 -1.654 1.409 -1.345 2.469 0.309 1.061 1.41 1.653 2.471 1.344 l 2.878 -0.844 1.689 5.782 -2.878 0.844 c -1.061 0.309 -1.686 1.409 -1.376 2.469 0.309 1.061 1.41 1.684 2.471 1.375 l 2.909 -0.844 0.845 2.876 c 0.309 1.061 1.41 1.653 2.471 1.344 1.061 -0.309 1.654 -1.409 1.345 -2.469 l -0.845 -2.876 5.787 -1.688 0.845 2.876 c 0.309 1.061 1.41 1.684 2.471 1.375 1.061 -0.309 1.686 -1.409 1.376 -2.469 l -0.845 -2.907 2.878 -0.844 c 1.061 -0.309 1.654 -1.409 1.345 -2.469 -0.309 -1.061 -1.41 -1.653 -2.471 -1.344 l -2.878 0.844 0 -0.031 -1.689 -5.751 2.878 -0.844 c 1.061 -0.309 1.686 -1.409 1.376 -2.469 c -0.309 -1.061 -1.41 -1.684 -2.471 -1.375 l -2.909 0.844 -0.845 -2.876 c -0.271 -0.928 -1.136 -1.514 -2.064 -1.438 z m 0.188 9.252 1.689 5.782 0 0.031 -5.755 1.657 -1.689 -5.751 0 -0.031 5.755 -1.688 z"
     style="fill:#000;opacity:0.1;fill-opacity:1;stroke:none;fill-rule:nonzero"
     id="path16" />
  <path
     d="m 25.844 11 c -0.132 0.011 -0.274 0.055 -0.406 0.094 c -1.06 0.309 -1.653 1.408 -1.344 2.469 l 0.844 2.875 l -0.031 0 l -5.75 1.688 l -0.844 -2.875 c -0.309 -1.06 -1.408 -1.684 -2.469 -1.375 c -1.06 0.309 -1.684 1.408 -1.375 2.469 l 0.844 2.906 l -2.875 0.844 c -1.06 0.309 -1.653 1.408 -1.344 2.469 c 0.309 1.06 1.408 1.653 2.469 1.344 l 2.875 -0.844 l 1.688 5.781 l -2.875 0.844 c -1.06 0.309 -1.684 1.408 -1.375 2.469 c 0.309 1.06 1.408 1.684 2.469 1.375 l 2.906 -0.844 l 0.844 2.875 c 0.309 1.06 1.408 1.653 2.469 1.344 c 1.06 -0.309 1.653 -1.408 1.344 -2.469 l -0.844 -2.875 l 5.781 -1.688 l 0.844 2.875 c 0.309 1.06 1.408 1.684 2.469 1.375 c 1.06 -0.309 1.684 -1.408 1.375 -2.469 l -0.844 -2.906 l 2.875 -0.844 c 1.06 -0.309 1.653 -1.408 1.344 -2.469 c -0.309 -1.06 -1.408 -1.653 -2.469 -1.344 l -2.875 0.844 l -1.688 -5.781 l 2.875 -0.844 c 1.06 -0.309 1.684 -1.408 1.375 -2.469 c -0.309 -1.06 -1.408 -1.684 -2.469 -1.375 l -2.906 0.844 l -0.844 -2.875 c -0.27 -0.928 -1.135 -1.514 -2.063 -1.438 z m 0.188 9.281 l 0.031 0 l 1.656 5.75 l 0 0.031 l -5.75 1.656 l -0.031 0 l -1.656 -5.75 l 0 -0.031 l 5.75 -1.656 z"
     style="fill:#f8f8fb;opacity:1;fill-opacity:1;stroke:none;fill-rule:nonzero"
     id="path22" />
</svg>
