<?xml version="1.0" encoding="UTF-8" standalone="no"?>
<svg
   xmlns:dc="http://purl.org/dc/elements/1.1/"
   xmlns:cc="http://creativecommons.org/ns#"
   xmlns:rdf="http://www.w3.org/1999/02/22-rdf-syntax-ns#"
   xmlns:svg="http://www.w3.org/2000/svg"
   xmlns="http://www.w3.org/2000/svg"
   xmlns:xlink="http://www.w3.org/1999/xlink"
   xmlns:sodipodi="http://sodipodi.sourceforge.net/DTD/sodipodi-0.dtd"
   xmlns:inkscape="http://www.inkscape.org/namespaces/inkscape"
   viewBox="0 0 48 48"
   id="svg2"
   version="1.1"
   inkscape:version="0.48.5 r10040"
   width="100%"
   height="100%"
   sodipodi:docname="soulseek.svg">
  <metadata
     id="metadata61">
    <rdf:RDF>
      <cc:Work
         rdf:about="">
        <dc:format>image/svg+xml</dc:format>
        <dc:type
           rdf:resource="http://purl.org/dc/dcmitype/StillImage" />
      </cc:Work>
    </rdf:RDF>
  </metadata>
  <sodipodi:namedview
     pagecolor="#ffffff"
     bordercolor="#666666"
     borderopacity="1"
     objecttolerance="10"
     gridtolerance="10"
     guidetolerance="10"
     inkscape:pageopacity="0"
     inkscape:pageshadow="2"
     inkscape:window-width="1301"
     inkscape:window-height="744"
     id="namedview59"
     showgrid="true"
     inkscape:zoom="5.7708333"
     inkscape:cx="15.810455"
     inkscape:cy="39.077581"
     inkscape:window-x="65"
     inkscape:window-y="24"
     inkscape:window-maximized="1"
     inkscape:current-layer="svg2">
    <inkscape:grid
       type="xygrid"
       id="grid3059" />
  </sodipodi:namedview>
  <defs
     id="defs4">
    <linearGradient
       id="linearGradient3764"
       x1="1"
       x2="47"
       gradientUnits="userSpaceOnUse"
       gradientTransform="matrix(0,-1,1,0,-1.5e-6,47.999998)">
      <stop
         stop-color="#7eb3c6"
         stop-opacity="1"
         id="stop7" />
      <stop
         offset="1"
         stop-color="#8cbbcd"
         stop-opacity="1"
         id="stop9"
         style="stop-color:#c4dae2;stop-opacity:1;" />
    </linearGradient>
    <clipPath
       id="clipPath-446698242">
      <g
         transform="translate(0,-1004.3622)"
         id="g12">
        <path
           d="m -24 13 c 0 1.105 -0.672 2 -1.5 2 -0.828 0 -1.5 -0.895 -1.5 -2 0 -1.105 0.672 -2 1.5 -2 0.828 0 1.5 0.895 1.5 2 z"
           transform="matrix(15.333333,0,0,11.5,414.99999,878.8622)"
           fill="#1890d0"
           id="path14" />
      </g>
    </clipPath>
    <clipPath
       id="clipPath-451953302">
      <g
         transform="translate(0,-1004.3622)"
         id="g17">
        <path
           d="m -24 13 c 0 1.105 -0.672 2 -1.5 2 -0.828 0 -1.5 -0.895 -1.5 -2 0 -1.105 0.672 -2 1.5 -2 0.828 0 1.5 0.895 1.5 2 z"
           transform="matrix(15.333333,0,0,11.5,414.99999,878.8622)"
           fill="#1890d0"
           id="path19" />
      </g>
    </clipPath>
    <linearGradient
       y2="1028.3622"
       x2="44"
       y1="1028.3622"
       x1="4"
       gradientTransform="translate(-3.51e-6,-1004.3619)"
       gradientUnits="userSpaceOnUse"
       id="linearGradient3019"
       xlink:href="#linearGradient3764"
       inkscape:collect="always" />
  </defs>
  <rect
     style="fill:url(#linearGradient3019);fill-opacity:1.0;stroke:none"
     id="rect3758"
     width="40"
     height="40"
     x="3.9999964"
     y="4.0002823"
     ry="0" />
  <path
     style="opacity:0.35;fill:#000000;fill-opacity:1;stroke:none"
     d="m 3.9999979,43.999999 39.9999961,3e-4 c -19.999997,-1 -19.999997,-1 -39.9999975,0 z"
     id="path3800"
     inkscape:connector-curvature="0"
     sodipodi:nodetypes="cccc" />
  <path
     sodipodi:nodetypes="cccc"
     inkscape:connector-curvature="0"
     id="path3804"
     d="M 4.0000014,4.0002 43.999997,4 C 24.000001,5 24.000001,5 4,4 z"
     style="opacity:0.75;fill:#ffffff;fill-opacity:1;stroke:none" />
  <g
     id="g33" />
  <g
     id="g35">
    <g
       clip-path="url(#clipPath-446698242)"
       id="g37">
      <g
         transform="translate(1,1)"
         id="g39">
        <g
           opacity="0.1"
           id="g41">
          <!-- color: #8cbbcd -->
          <g
             id="g43">
            <path
               d="m 19.379 34.32 c -0.254 -0.422 -0.469 -0.836 -0.469 -0.93 c 0 -0.09 -0.52 -0.23 -1.156 -0.313 c -0.727 -0.098 -1.148 -0.266 -1.148 -0.461 c 0 -0.172 0.613 -0.719 1.359 -1.227 c 1.703 -1.156 2.84 -2.48 2.57 -2.984 c -0.109 -0.203 -1.066 -0.871 -2.121 -1.492 c -2.18 -1.273 -3.699 -2.402 -4.648 -3.441 c -1.32 -1.453 -2.285 -4.273 -1.457 -4.273 c 0.176 0 1.184 0.402 2.246 0.898 c 2.02 0.938 5.184 1.855 6.414 1.855 c 1.344 0 1.492 -1.797 0.227 -2.73 c -0.582 -0.434 -0.672 -0.645 -0.672 -1.617 c 0 -1.012 -0.082 -1.184 -0.844 -1.793 l -1.68 -1.309 l 1.832 0.082 c 0.629 0.027 1.031 -0.762 1.168 -1.016 c 0.141 -0.25 -0.031 -1.512 0 -1.566 c 0.031 -0.051 0.777 0.805 1 1 c 0.223 0.199 0.625 0.789 1.082 0.977 c 1.043 0.43 1.66 1.09 2.297 2.438 c 0.27 0.578 0.855 1.563 1.297 2.172 c 0.961 1.344 0.793 1.648 -0.676 1.211 c -1.273 -0.383 -1.559 -0.195 -1.559 1.035 c 0 1.043 0.262 1.254 0.813 0.652 c 0.234 -0.262 0.707 -0.457 1.098 -0.457 c 1.063 0 5.148 -1.332 7.121 -2.324 c 7.582 -1.102 -4.086 7.883 -7.03 9.04 c -1.672 0.609 -3.195 2.203 -4.895 5.145 c -0.641 1.109 -1.289 2.059 -1.438 2.105 c -0.148 0.051 -0.484 -0.254 -0.738 -0.672 m 5.688 -16.867 c 0.168 -0.43 -0.465 -1.137 -0.824 -0.914 c -0.27 0.172 -0.34 0.883 -0.098 1.125 c 0.277 0.277 0.781 0.16 0.922 -0.211 m 0 0"
               fill="#000"
               stroke="none"
               fill-rule="nonzero"
               fill-opacity="1"
               id="path45" />
          </g>
        </g>
      </g>
    </g>
  </g>
  <g
     id="g47">
    <g
       clip-path="url(#clipPath-451953302)"
       id="g49">
      <!-- color: #8cbbcd -->
      <g
         id="g51">
        <path
           d="m 19.379 34.32 c -0.254 -0.422 -0.469 -0.836 -0.469 -0.93 c 0 -0.09 -0.52 -0.23 -1.156 -0.313 c -0.727 -0.098 -1.148 -0.266 -1.148 -0.461 c 0 -0.172 0.613 -0.719 1.359 -1.227 c 1.703 -1.156 2.84 -2.48 2.57 -2.984 c -0.109 -0.203 -1.066 -0.871 -2.121 -1.492 c -2.18 -1.273 -3.699 -2.402 -4.648 -3.441 c -1.32 -1.453 -2.285 -4.273 -1.457 -4.273 c 0.176 0 1.184 0.402 2.246 0.898 c 2.02 0.938 5.184 1.855 6.414 1.855 c 1.344 0 1.492 -1.797 0.227 -2.73 c -0.582 -0.434 -0.672 -0.645 -0.672 -1.617 c 0 -1.012 -0.082 -1.184 -0.844 -1.793 l -1.68 -1.309 l 1.832 0.082 c 0.629 0.027 1.031 -0.762 1.168 -1.016 c 0.141 -0.25 -0.031 -1.512 0 -1.566 c 0.031 -0.051 0.777 0.805 1 1 c 0.223 0.199 0.625 0.789 1.082 0.977 c 1.043 0.43 1.66 1.09 2.297 2.438 c 0.27 0.578 0.855 1.563 1.297 2.172 c 0.961 1.344 0.793 1.648 -0.676 1.211 c -1.273 -0.383 -1.559 -0.195 -1.559 1.035 c 0 1.043 0.262 1.254 0.813 0.652 c 0.234 -0.262 0.707 -0.457 1.098 -0.457 c 1.063 0 5.148 -1.332 7.121 -2.324 c 7.582 -1.102 -4.086 7.883 -7.03 9.04 c -1.672 0.609 -3.195 2.203 -4.895 5.145 c -0.641 1.109 -1.289 2.059 -1.438 2.105 c -0.148 0.051 -0.484 -0.254 -0.738 -0.672 m 5.688 -16.867 c 0.168 -0.43 -0.465 -1.137 -0.824 -0.914 c -0.27 0.172 -0.34 0.883 -0.098 1.125 c 0.277 0.277 0.781 0.16 0.922 -0.211 m 0 0"
           fill="#2d2d2d"
           stroke="none"
           fill-rule="nonzero"
           fill-opacity="1"
           id="path53" />
      </g>
    </g>
  </g>
</svg>
