<?xml version="1.0" encoding="UTF-8" standalone="no"?>
<svg
   xmlns:dc="http://purl.org/dc/elements/1.1/"
   xmlns:cc="http://creativecommons.org/ns#"
   xmlns:rdf="http://www.w3.org/1999/02/22-rdf-syntax-ns#"
   xmlns:svg="http://www.w3.org/2000/svg"
   xmlns="http://www.w3.org/2000/svg"
   xmlns:xlink="http://www.w3.org/1999/xlink"
   xmlns:sodipodi="http://sodipodi.sourceforge.net/DTD/sodipodi-0.dtd"
   xmlns:inkscape="http://www.inkscape.org/namespaces/inkscape"
   id="svg2"
   viewBox="0 0 48 48"
   version="1.1"
   inkscape:version="0.91 r13725"
   sodipodi:docname="com.github.philip-scott.spice-up.svg">
  <sodipodi:namedview
     pagecolor="#ffffff"
     bordercolor="#666666"
     borderopacity="1"
     objecttolerance="10"
     gridtolerance="10"
     guidetolerance="10"
     inkscape:pageopacity="0"
     inkscape:pageshadow="2"
     inkscape:window-width="1366"
     inkscape:window-height="705"
     id="namedview26"
     showgrid="false"
     inkscape:zoom="4.9166667"
     inkscape:cx="24"
     inkscape:cy="24"
     inkscape:window-x="0"
     inkscape:window-y="28"
     inkscape:window-maximized="1"
     inkscape:current-layer="svg2" />
  <metadata
     id="metadata54">
    <rdf:RDF>
      <cc:Work
         rdf:about="">
        <dc:format>image/svg+xml</dc:format>
        <dc:type
           rdf:resource="http://purl.org/dc/dcmitype/StillImage" />
        <dc:title />
      </cc:Work>
    </rdf:RDF>
  </metadata>
  <defs
     id="defs4">
    <linearGradient
       id="linearGradient3958"
       x2="0"
       gradientUnits="userSpaceOnUse"
       y1="48"
       y2=".135">
      <stop
         id="stop12"
         offset="0"
         style="stop-color:#e1e0c7" />
      <stop
         id="stop14"
         offset="1"
         style="stop-color:#e8e8d4" />
    </linearGradient>
    <linearGradient
       id="linearGradient5277">
      <stop
         id="stop5279"
         offset="0"
         style="stop-color:#333333;stop-opacity:1" />
      <stop
         id="stop5281"
         offset="1"
         style="stop-color:#666666;stop-opacity:1" />
    </linearGradient>
    <linearGradient
       inkscape:collect="always"
       xlink:href="#linearGradient3859"
       id="linearGradient3739"
       gradientUnits="userSpaceOnUse"
       gradientTransform="matrix(0.83333307,0,0,0.83333307,-317.03371,412.80361)"
       x1="379.57144"
       y1="-527.79797"
       x2="431.57144"
       y2="-527.79797" />
    <linearGradient
       id="linearGradient3859">
      <stop
         id="stop3861"
         offset="0"
         style="stop-color:#cccccc;stop-opacity:1" />
      <stop
         id="stop3863"
         offset="1"
         style="stop-color:#ececec;stop-opacity:1" />
    </linearGradient>
  </defs>
  <g
     id="g3665"
     transform="translate(0.55761199,0.30529681)">
    <rect
       transform="scale(1,-1)"
       ry="0"
       y="-43.694542"
       x="3.4424012"
       height="39.999989"
       width="39.999989"
       id="rect3667"
       style="fill:url(#linearGradient3739);fill-opacity:1;stroke:none" />
    <path
       sodipodi:nodetypes="cccc"
       inkscape:connector-curvature="0"
       id="path3669"
       d="m 3.4423873,43.694552 40.0000007,3.01e-4 c -20,-0.999999 -20,-0.999999 -40.0000017,0 z"
       style="opacity:0.35;fill:#000000;fill-opacity:1;stroke:none" />
    <path
       style="opacity:0.5;fill:#ffffff;fill-opacity:1;stroke:none"
       d="M 3.4423913,3.6947551 43.442388,3.6945549 c -19.999996,1.0000006 -19.999996,1.0000006 -39.9999977,0 z"
       id="path3671"
       inkscape:connector-curvature="0"
       sodipodi:nodetypes="cccc" />
  </g>
  <g
     id="g32"
     transform="matrix(.99975 0 0 1 .0012772 0)">
    <g
       id="g34">
      <path
         id="path4200"
         style="opacity:.1"
         d="m14.061 14c-0.58674 0-1.0589 0.472-1.0589 1.0586v15.883c0 0.586 0.472 1.058 1.059 1.058h8.129l-1.5102 2.0293-0.24811-0.17383s-0.92363 1.3183-1.3636 1.9453c-0.199 0.284-0.13062 0.67309 0.15238 0.87109l1.0257 0.7168c0.284 0.199 0.67036 0.1297 0.86936-0.1543 0.416-0.594 1.3636-1.9453 1.3636-1.9453l-0.25202-0.17578 1.7798-2.3926v2.2793h-0.25202v2.375c0 0.346 0.27916 0.625 0.62516 0.625h1.2503c0.346 0 0.62516-0.279 0.62516-0.625v-2.375h-0.24811v-2.2793l1.7758 2.3906-0.25202 0.17773s0.94568 1.3513 1.3617 1.9453c0.199 0.284 0.58732 0.3533 0.87131 0.1543l1.0237-0.7168c0.283-0.198 0.35334-0.58709 0.15434-0.87109-0.44-0.627-1.3636-1.9453-1.3636-1.9453l-0.25 0.173-1.51-2.029h8.129c0.58674 0 1.0589-0.472 1.0589-1.0586v-15.883c0-0.586-0.472-1.058-1.059-1.058h-21.888z" />
      <path
         id="path38"
         style="fill:#999"
         d="m23 28.563-3.906 5.25 1.469 1.188 2.438-3.281v4.281h2v-4.281l2.438 3.281 1.469-1.188-3.906-5.25z"
         transform="matrix(1.0003 0 0 1 -.0012776 0)" />
      <path
         id="path40"
         style="fill:#333"
         d="m22.755 34h2.5v2.375c0 0.346-0.279 0.625-0.625 0.625h-1.25c-0.346 0-0.625-0.279-0.625-0.625v-2.375z" />
      <path
         id="path42"
         style="fill:#333"
         d="m26.53 34.29 2.048-1.434s0.923 1.318 1.363 1.945c0.199 0.284 0.13 0.672-0.153 0.87l-1.024 0.717c-0.284 0.199-0.672 0.13-0.871-0.154-0.416-0.594-1.363-1.945-1.363-1.945z" />
      <path
         id="path44"
         style="fill:#333"
         d="m21.479 34.29-2.048-1.434s-0.923 1.318-1.363 1.945c-0.199 0.284-0.13 0.672 0.153 0.87l1.024 0.717c0.284 0.199 0.672 0.13 0.871-0.154 0.416-0.594 1.363-1.945 1.363-1.945z" />
    </g>
  </g>
  <rect
     id="rect4184"
     y="13"
     ry="1.0588"
     width="24"
     height="18"
     x="12"
     style="fill:#3771c8" />
  <path
     id="rect4186"
     style="image-rendering:auto;solid-color:#000000;text-transform:none;color-rendering:auto;text-decoration-style:solid;white-space:normal;isolation:auto;text-decoration-color:#000000;block-progression:tb;fill:#fff;color:#000000;text-indent:0;shape-rendering:auto;text-decoration-line:none;mix-blend-mode:normal"
     d="m22.041 18.999c-0.568-0.024-1.041 0.431-1.041 1v6c0 0.77653 0.8478 1.2569 1.5137 0.85742l5-3c0.64717-0.3883 0.64717-1.3265 0-1.7148l-5-3c-0.14333-0.086-0.30565-0.13564-0.47266-0.14258z" />
  <path
     id="rect4195"
     style="fill:#353e43"
     d="m13.059 13c-0.587 0-1.059 0.472-1.059 1.059v0.941h24v-0.941c0-0.587-0.472-1.059-1.059-1.059h-21.882z" />
</svg>
