<?xml version="1.0" encoding="UTF-8" standalone="no"?>
<!-- Created with Inkscape (http://www.inkscape.org/) -->

<svg
   xmlns:dc="http://purl.org/dc/elements/1.1/"
   xmlns:cc="http://creativecommons.org/ns#"
   xmlns:rdf="http://www.w3.org/1999/02/22-rdf-syntax-ns#"
   xmlns:svg="http://www.w3.org/2000/svg"
   xmlns="http://www.w3.org/2000/svg"
   xmlns:xlink="http://www.w3.org/1999/xlink"
   xmlns:sodipodi="http://sodipodi.sourceforge.net/DTD/sodipodi-0.dtd"
   xmlns:inkscape="http://www.inkscape.org/namespaces/inkscape"
   width="48"
   height="48"
   id="svg2"
   version="1.1"
   inkscape:version="0.48.5 r10040"
   sodipodi:docname="web-spotify.svg"
   inkscape:export-filename="/home/uri/workspace/Nitrux/res/drawable-xhdpi/spotify.png"
   inkscape:export-xdpi="180"
   inkscape:export-ydpi="180">
  <defs
     id="defs4">
    <linearGradient
       id="linearGradient4767"
       inkscape:collect="always">
      <stop
         id="stop4769"
         offset="0"
         style="stop-color:#d9f3c4;stop-opacity:1" />
      <stop
         id="stop4771"
         offset="1"
         style="stop-color:#fbfdf7;stop-opacity:1" />
    </linearGradient>
    <linearGradient
       inkscape:collect="always"
       id="linearGradient868">
      <stop
         style="stop-color:#5da821;stop-opacity:1"
         offset="0"
         id="stop870" />
      <stop
         style="stop-color:#b0d75d;stop-opacity:1"
         offset="1"
         id="stop872" />
    </linearGradient>
    <linearGradient
       inkscape:collect="always"
       xlink:href="#linearGradient868"
       id="linearGradient874"
       x1="-71.808121"
       y1="-1028.1184"
       x2="-23.808121"
       y2="-1028.1184"
       gradientUnits="userSpaceOnUse"
       gradientTransform="matrix(0.83333406,0,0,0.83333406,63.840136,-170.76274)" />
    <linearGradient
       inkscape:collect="always"
       xlink:href="#linearGradient4767"
       id="linearGradient4765"
       x1="7.8057761"
       y1="1021.2762"
       x2="41.206356"
       y2="1021.2762"
       gradientUnits="userSpaceOnUse"
       gradientTransform="matrix(0.82333974,0,0,0.82333974,4.2398495,181.6716)" />
  </defs>
  <sodipodi:namedview
     id="base"
     pagecolor="#ffffff"
     bordercolor="#666666"
     borderopacity="1.0"
     inkscape:pageopacity="0.0"
     inkscape:pageshadow="2"
     inkscape:zoom="8.031946"
     inkscape:cx="50.686734"
     inkscape:cy="22.882717"
     inkscape:document-units="px"
     inkscape:current-layer="layer1"
     showgrid="true"
     inkscape:window-width="1301"
     inkscape:window-height="744"
     inkscape:window-x="65"
     inkscape:window-y="24"
     inkscape:window-maximized="1">
    <inkscape:grid
       type="xygrid"
       id="grid3850"
       empspacing="5"
       visible="true"
       enabled="true"
       snapvisiblegridlinesonly="true" />
  </sodipodi:namedview>
  <metadata
     id="metadata7">
    <rdf:RDF>
      <cc:Work
         rdf:about="">
        <dc:format>image/svg+xml</dc:format>
        <dc:type
           rdf:resource="http://purl.org/dc/dcmitype/StillImage" />
        <dc:title />
      </cc:Work>
    </rdf:RDF>
  </metadata>
  <g
     inkscape:label="Capa 1"
     inkscape:groupmode="layer"
     id="layer1"
     transform="translate(0,-1004.3622)">
    <rect
       style="fill:url(#linearGradient874);fill-opacity:1;stroke:none"
       id="rect2991-1"
       width="40.000034"
       height="40.000034"
       x="3.9999833"
       y="-1048.3622"
       ry="0"
       transform="scale(1,-1)" />
    <path
       style="fill:url(#linearGradient4765);fill-opacity:1"
       d="m 21.651299,1019.5139 0,0 c -1.47355,-0.019 -3.149554,0.037 -4.394897,0.161 -2.450185,0.2411 -5.224936,0.8339 -5.819661,1.2429 -0.541243,0.3726 -0.859737,1.0974 -0.747759,1.7031 0.157057,0.8497 0.811997,1.4509 1.624166,1.5003 0.306367,0.017 0.439926,-0.01 1.117619,-0.1882 5.067116,-1.3638 12.003275,-1.1471 17.272444,0.5404 1.304505,0.4177 2.924592,1.1223 3.869051,1.6836 0.513033,0.3058 0.980086,0.393 1.447277,0.267 0.523827,-0.14 0.949256,-0.4876 1.18516,-0.9681 0.11576,-0.2364 0.128646,-0.3063 0.128646,-0.7365 0,-0.4201 -0.01418,-0.5045 -0.120608,-0.7316 -0.258782,-0.5519 -0.656678,-0.8384 -2.225587,-1.6001 -3.295017,-1.5997 -7.380252,-2.567 -11.952898,-2.8288 -0.422417,-0.026 -0.891775,-0.048 -1.382953,-0.048 z m -0.828163,6.4485 c -0.447772,-0.01 -0.893324,0 -1.337928,0.013 l 0,0 c -2.134104,0.071 -4.219553,0.3806 -6.13163,0.9325 -0.629709,0.1819 -0.918655,0.3534 -1.140132,0.6772 -0.43887,0.6409 -0.350709,1.4014 0.223524,1.9264 0.479815,0.439 0.871511,0.479 1.899148,0.1945 2.907724,-0.8039 6.409722,-0.9915 9.801279,-0.5258 2.898782,0.3983 5.941331,1.4058 8.050075,2.6647 0.232945,0.139 0.509495,0.2837 0.612682,0.3216 0.26158,0.097 0.801579,0.07 1.082241,-0.056 0.30393,-0.1351 0.636698,-0.4937 0.757407,-0.8136 0.195093,-0.517 0.05839,-1.1754 -0.323225,-1.5569 -0.459478,-0.4593 -2.648228,-1.5521 -4.320924,-2.1578 -2.852083,-1.0328 -6.038127,-1.577 -9.172517,-1.6179 z m -0.22835,6.1108 c -1.336209,0.01 -2.721045,0.1158 -4.153683,0.3231 -1.028641,0.149 -2.774802,0.4953 -3.008729,0.6014 -0.76944,0.3418 -0.946651,1.3078 -0.352169,1.9186 0.171635,0.1763 0.55438,0.3507 0.770271,0.3507 0.06752,0 0.509477,-0.082 0.98254,-0.1788 3.122049,-0.6471 5.985811,-0.8037 8.693311,-0.4743 2.386476,0.2901 4.708279,1.0548 6.721794,2.2127 0.689589,0.3949 0.887293,0.4482 1.289685,0.3361 0.612686,-0.1702 0.997049,-0.8492 0.821731,-1.452 -0.113522,-0.3904 -0.331863,-0.5963 -1.079025,-1.0212 -3.10746,-1.7661 -6.677086,-2.6402 -10.685726,-2.6163 z"
       id="path4739"
       inkscape:connector-curvature="0" />
    <path
       style="opacity:0.35;fill:#000000;fill-opacity:1;stroke:none"
       d="M 4.0000039,1048.3619 44,1048.3622 c -19.999997,-1 -19.999997,-1 -39.9999975,0 z"
       id="path3800"
       inkscape:connector-curvature="0"
       sodipodi:nodetypes="cccc" />
    <path
       sodipodi:nodetypes="cccc"
       inkscape:connector-curvature="0"
       id="path3804"
       d="M 4.0000075,1008.3621 44,1008.3619 c -19.999993,1 -19.999993,1 -39.999994,0 z"
       style="opacity:0.75;fill:#ffffff;fill-opacity:1;stroke:none" />
  </g>
</svg>
