<?xml version="1.0" encoding="UTF-8" standalone="no"?>
<svg
   xmlns:dc="http://purl.org/dc/elements/1.1/"
   xmlns:cc="http://creativecommons.org/ns#"
   xmlns:rdf="http://www.w3.org/1999/02/22-rdf-syntax-ns#"
   xmlns:svg="http://www.w3.org/2000/svg"
   xmlns="http://www.w3.org/2000/svg"
   xmlns:xlink="http://www.w3.org/1999/xlink"
   xmlns:sodipodi="http://sodipodi.sourceforge.net/DTD/sodipodi-0.dtd"
   xmlns:inkscape="http://www.inkscape.org/namespaces/inkscape"
   viewBox="0 0 48 48"
   id="svg2"
   version="1.1"
   inkscape:version="0.48.5 r10040"
   width="100%"
   height="100%"
   sodipodi:docname="springlobby.svg">
  <metadata
     id="metadata97">
    <rdf:RDF>
      <cc:Work
         rdf:about="">
        <dc:format>image/svg+xml</dc:format>
        <dc:type
           rdf:resource="http://purl.org/dc/dcmitype/StillImage" />
      </cc:Work>
    </rdf:RDF>
  </metadata>
  <sodipodi:namedview
     pagecolor="#ffffff"
     bordercolor="#666666"
     borderopacity="1"
     objecttolerance="10"
     gridtolerance="10"
     guidetolerance="10"
     inkscape:pageopacity="0"
     inkscape:pageshadow="2"
     inkscape:window-width="1301"
     inkscape:window-height="744"
     id="namedview95"
     showgrid="true"
     inkscape:zoom="9.0450742"
     inkscape:cx="26.634361"
     inkscape:cy="16.654182"
     inkscape:window-x="65"
     inkscape:window-y="24"
     inkscape:window-maximized="1"
     inkscape:current-layer="svg2">
    <inkscape:grid
       type="xygrid"
       id="grid3095" />
  </sodipodi:namedview>
  <defs
     id="defs4">
    <linearGradient
       id="linearGradient3764"
       x1="1"
       x2="47"
       gradientUnits="userSpaceOnUse"
       gradientTransform="matrix(0,-1,1,0,-1.5e-6,47.999998)">
      <stop
         stop-color="#e4e4e4"
         stop-opacity="1"
         id="stop7" />
      <stop
         offset="1"
         stop-color="#eee"
         stop-opacity="1"
         id="stop9"
         style="stop-color:#ffffff;stop-opacity:1;" />
    </linearGradient>
    <clipPath
       id="clipPath-711172767">
      <g
         transform="translate(0,-1004.3622)"
         id="g12">
        <path
           d="m -24 13 c 0 1.105 -0.672 2 -1.5 2 -0.828 0 -1.5 -0.895 -1.5 -2 0 -1.105 0.672 -2 1.5 -2 0.828 0 1.5 0.895 1.5 2 z"
           transform="matrix(15.333333,0,0,11.5,414.99999,878.8622)"
           fill="#1890d0"
           id="path14" />
      </g>
    </clipPath>
    <clipPath
       id="clipPath-717644577">
      <g
         transform="translate(0,-1004.3622)"
         id="g17">
        <path
           d="m -24 13 c 0 1.105 -0.672 2 -1.5 2 -0.828 0 -1.5 -0.895 -1.5 -2 0 -1.105 0.672 -2 1.5 -2 0.828 0 1.5 0.895 1.5 2 z"
           transform="matrix(15.333333,0,0,11.5,414.99999,878.8622)"
           fill="#1890d0"
           id="path19" />
      </g>
    </clipPath>
    <linearGradient
       y2="1028.3622"
       x2="44"
       y1="1028.3622"
       x1="4"
       gradientTransform="translate(1.9714355e-8,-1004.3621)"
       gradientUnits="userSpaceOnUse"
       id="linearGradient3121"
       xlink:href="#linearGradient3764"
       inkscape:collect="always" />
  </defs>
  <rect
     style="fill:url(#linearGradient3121);fill-opacity:1.0;stroke:none"
     id="rect3758"
     width="40"
     height="40"
     x="4"
     y="4"
     ry="0" />
  <path
     style="opacity:0.35;fill:#000000;fill-opacity:1;stroke:none"
     d="m 4.0000013,43.999717 39.9999967,3e-4 c -19.999997,-1 -19.999997,-1 -39.9999981,0 z"
     id="path3800"
     inkscape:connector-curvature="0"
     sodipodi:nodetypes="cccc" />
  <path
     sodipodi:nodetypes="cccc"
     inkscape:connector-curvature="0"
     id="path3804"
     d="m 4.0000048,3.9999173 39.9999962,-2e-4 c -19.999996,1 -19.999996,1 -39.9999976,0 z"
     style="opacity:0.75;fill:#ffffff;fill-opacity:1;stroke:none" />
  <g
     id="g33" />
  <g
     id="g35">
    <g
       clip-path="url(#clipPath-711172767)"
       id="g37">
      <g
         transform="translate(1,1)"
         id="g39">
        <g
           opacity="0.1"
           id="g41">
          <!-- color: #eeeeee -->
          <g
             id="g43">
            <path
               d="m 17 28 l -6 -5 l 8 -2 l -2 7"
               fill="#000"
               stroke="none"
               fill-rule="nonzero"
               fill-opacity="1"
               id="path45" />
            <path
               d="m 31 28 l 6 -5 l -8 -2 l 1.996 7"
               fill="#000"
               stroke="none"
               fill-rule="nonzero"
               fill-opacity="1"
               id="path47" />
            <path
               d="m 15 16 l 1.234 7 l 5.766 -3 l -7 -4"
               fill="#000"
               stroke="none"
               fill-rule="nonzero"
               fill-opacity="1"
               id="path49" />
            <path
               d="m 33 16 l -1.234 7 l -5.766 -3 l 7 -4"
               fill="#000"
               stroke="none"
               fill-rule="nonzero"
               fill-opacity="1"
               id="path51" />
            <path
               d="m 24 13 l -5 8 l 10 0 l -5 -8"
               fill="#000"
               stroke="none"
               fill-rule="nonzero"
               fill-opacity="1"
               id="path53" />
            <path
               d="m 33 27 c 0 4.969 -4.03 9 -9 9 c -4.969 0 -9 -4.03 -9 -9 c 0 -4.969 4.03 -9 9 -9 c 4.969 0 9 4.03 9 9 m 0 0"
               fill="#000"
               stroke="none"
               fill-rule="nonzero"
               fill-opacity="1"
               id="path55" />
            <path
               d="m 21.992 25 c 0 0.551 -0.445 1 -0.996 1 c -0.551 0 -0.996 -0.449 -0.996 -1 c 0 -0.551 0.445 -1 0.996 -1 c 0.551 0 0.996 0.449 0.996 1 m 0 0"
               fill="#000"
               stroke="none"
               fill-rule="nonzero"
               fill-opacity="1"
               id="path57" />
            <path
               d="m 27 24 c -0.551 0 -1 0.449 -1 1 l 2 0 c 0 -0.551 -0.449 -1 -1 -1 m 0 0"
               fill="#000"
               stroke="none"
               fill-rule="nonzero"
               fill-opacity="1"
               id="path59" />
            <path
               d="m 5.672 8.382 c 0.114 0.219 0.298 0.4 0.519 0.509 c 0.218 0.109 0.476 0.147 0.719 0.105 c 0.245 -0.042 0.477 -0.165 0.639 -0.355 c 0.139 -0.161 0.223 -0.365 0.261 -0.573 c 0.021 -0.105 0.031 -0.212 0.03 -0.32"
               transform="matrix(3.543307,0,0,3.543307,0,0)"
               stroke-opacity="1"
               fill="#000"
               stroke="#2d2d2d"
               stroke-linejoin="miter"
               stroke-linecap="butt"
               stroke-width="0.282"
               stroke-miterlimit="4"
               id="path61" />
            <path
               d="m 21 21.25 c -0.359 0.074 -0.703 0.238 -0.98 0.477 c -0.102 0.086 -0.195 0.18 -0.281 0.277 c -0.473 0.551 -0.742 1.273 -0.738 1.996"
               stroke-opacity="1"
               fill="#000"
               stroke="#2d2d2d"
               stroke-linejoin="miter"
               stroke-linecap="butt"
               stroke-width="1"
               stroke-miterlimit="4"
               id="path63" />
          </g>
        </g>
      </g>
    </g>
  </g>
  <g
     id="g65">
    <g
       clip-path="url(#clipPath-717644577)"
       id="g67">
      <!-- color: #eeeeee -->
      <g
         id="g69">
        <path
           d="m 17 28 l -6 -5 l 8 -2 l -2 7"
           fill="#eb805f"
           stroke="none"
           fill-rule="nonzero"
           fill-opacity="1"
           id="path71" />
        <path
           d="m 31 28 l 6 -5 l -8 -2 l 1.996 7"
           fill="#eb805f"
           stroke="none"
           fill-rule="nonzero"
           fill-opacity="1"
           id="path73" />
        <path
           d="m 15 16 l 1.234 7 l 5.766 -3 l -7 -4"
           fill="#eb805f"
           stroke="none"
           fill-rule="nonzero"
           fill-opacity="1"
           id="path75" />
        <path
           d="m 33 16 l -1.234 7 l -5.766 -3 l 7 -4"
           fill="#eb805f"
           stroke="none"
           fill-rule="nonzero"
           fill-opacity="1"
           id="path77" />
        <path
           d="m 24 13 l -5 8 l 10 0 l -5 -8"
           fill="#eb805f"
           stroke="none"
           fill-rule="nonzero"
           fill-opacity="1"
           id="path79" />
        <path
           d="m 33 27 c 0 4.969 -4.03 9 -9 9 c -4.969 0 -9 -4.03 -9 -9 c 0 -4.969 4.03 -9 9 -9 c 4.969 0 9 4.03 9 9 m 0 0"
           fill="#fc0"
           stroke="none"
           fill-rule="nonzero"
           fill-opacity="1"
           id="path81" />
        <path
           d="m 21.992 25 c 0 0.551 -0.445 1 -0.996 1 c -0.551 0 -0.996 -0.449 -0.996 -1 c 0 -0.551 0.445 -1 0.996 -1 c 0.551 0 0.996 0.449 0.996 1 m 0 0"
           fill="#2d2d2d"
           stroke="none"
           fill-rule="nonzero"
           fill-opacity="1"
           id="path83" />
        <path
           d="m 27 24 c -0.551 0 -1 0.449 -1 1 l 2 0 c 0 -0.551 -0.449 -1 -1 -1 m 0 0"
           fill="#2d2d2d"
           stroke="none"
           fill-rule="nonzero"
           fill-opacity="1"
           id="path85" />
        <path
           d="m 5.672 8.382 c 0.114 0.219 0.298 0.4 0.519 0.509 c 0.218 0.109 0.476 0.147 0.719 0.105 c 0.245 -0.042 0.477 -0.165 0.639 -0.355 c 0.139 -0.161 0.223 -0.365 0.261 -0.573 c 0.021 -0.105 0.031 -0.212 0.03 -0.32"
           transform="matrix(3.543307,0,0,3.543307,0,0)"
           stroke-opacity="1"
           fill="none"
           stroke="#2d2d2d"
           stroke-linejoin="miter"
           stroke-linecap="butt"
           stroke-width="0.282"
           stroke-miterlimit="4"
           id="path87" />
        <path
           d="m 21 21.25 c -0.359 0.074 -0.703 0.238 -0.98 0.477 c -0.102 0.086 -0.195 0.18 -0.281 0.277 c -0.473 0.551 -0.742 1.273 -0.738 1.996"
           stroke-opacity="1"
           fill="none"
           stroke="#2d2d2d"
           stroke-linejoin="miter"
           stroke-linecap="butt"
           stroke-width="1"
           stroke-miterlimit="4"
           id="path89" />
      </g>
    </g>
  </g>
</svg>
