<?xml version="1.0" encoding="UTF-8" standalone="no"?>
<svg
   xmlns:dc="http://purl.org/dc/elements/1.1/"
   xmlns:cc="http://creativecommons.org/ns#"
   xmlns:rdf="http://www.w3.org/1999/02/22-rdf-syntax-ns#"
   xmlns:svg="http://www.w3.org/2000/svg"
   xmlns="http://www.w3.org/2000/svg"
   xmlns:xlink="http://www.w3.org/1999/xlink"
   xmlns:sodipodi="http://sodipodi.sourceforge.net/DTD/sodipodi-0.dtd"
   xmlns:inkscape="http://www.inkscape.org/namespaces/inkscape"
   viewBox="0 0 48 48"
   id="svg2"
   version="1.1"
   inkscape:version="0.48.5 r10040"
   width="100%"
   height="100%"
   sodipodi:docname="sqliteman.svg">
  <metadata
     id="metadata64">
    <rdf:RDF>
      <cc:Work
         rdf:about="">
        <dc:format>image/svg+xml</dc:format>
        <dc:type
           rdf:resource="http://purl.org/dc/dcmitype/StillImage" />
      </cc:Work>
    </rdf:RDF>
  </metadata>
  <sodipodi:namedview
     pagecolor="#ffffff"
     bordercolor="#666666"
     borderopacity="1"
     objecttolerance="10"
     gridtolerance="10"
     guidetolerance="10"
     inkscape:pageopacity="0"
     inkscape:pageshadow="2"
     inkscape:window-width="1301"
     inkscape:window-height="744"
     id="namedview62"
     showgrid="true"
     inkscape:zoom="9.0450742"
     inkscape:cx="23.090286"
     inkscape:cy="15.729823"
     inkscape:window-x="65"
     inkscape:window-y="24"
     inkscape:window-maximized="1"
     inkscape:current-layer="svg2">
    <inkscape:grid
       type="xygrid"
       id="grid3062" />
  </sodipodi:namedview>
  <defs
     id="defs4">
    <linearGradient
       id="linearGradient3764"
       x1="1"
       x2="47"
       gradientUnits="userSpaceOnUse"
       gradientTransform="matrix(0,-1,1,0,-1.5e-6,47.999998)">
      <stop
         stop-color="#e4e4e4"
         stop-opacity="1"
         id="stop7" />
      <stop
         offset="1"
         stop-color="#eee"
         stop-opacity="1"
         id="stop9"
         style="stop-color:#ffffff;stop-opacity:1;" />
    </linearGradient>
    <clipPath
       id="clipPath-991669671">
      <g
         transform="translate(0,-1004.3622)"
         id="g12">
        <path
           d="m -24 13 c 0 1.105 -0.672 2 -1.5 2 -0.828 0 -1.5 -0.895 -1.5 -2 0 -1.105 0.672 -2 1.5 -2 0.828 0 1.5 0.895 1.5 2 z"
           transform="matrix(15.333333,0,0,11.5,414.99999,878.8622)"
           fill="#1890d0"
           id="path14" />
      </g>
    </clipPath>
    <clipPath
       id="clipPath-998309106">
      <g
         transform="translate(0,-1004.3622)"
         id="g17">
        <path
           d="m -24 13 c 0 1.105 -0.672 2 -1.5 2 -0.828 0 -1.5 -0.895 -1.5 -2 0 -1.105 0.672 -2 1.5 -2 0.828 0 1.5 0.895 1.5 2 z"
           transform="matrix(15.333333,0,0,11.5,414.99999,878.8622)"
           fill="#1890d0"
           id="path19" />
      </g>
    </clipPath>
    <linearGradient
       y2="1028.3622"
       x2="44"
       y1="1028.3622"
       x1="4"
       gradientTransform="translate(1.9423218e-7,-1004.3621)"
       gradientUnits="userSpaceOnUse"
       id="linearGradient3121"
       xlink:href="#linearGradient3764"
       inkscape:collect="always" />
  </defs>
  <rect
     style="fill:url(#linearGradient3121);fill-opacity:1.0;stroke:none"
     id="rect3758"
     width="40"
     height="40"
     x="4"
     y="4"
     ry="0" />
  <path
     style="opacity:0.35;fill:#000000;fill-opacity:1;stroke:none"
     d="m 4.0000016,43.999717 39.9999954,3e-4 c -19.999997,-1 -19.999997,-1 -39.9999968,0 z"
     id="path3800"
     inkscape:connector-curvature="0"
     sodipodi:nodetypes="cccc" />
  <path
     sodipodi:nodetypes="cccc"
     inkscape:connector-curvature="0"
     id="path3804"
     d="M 4.0000051,3.9999172 44,3.9997172 c -19.999996,1 -19.999996,1 -39.9999963,0 z"
     style="opacity:0.75;fill:#ffffff;fill-opacity:1;stroke:none" />
  <g
     id="g33" />
  <g
     id="g35">
    <g
       clip-path="url(#clipPath-991669671)"
       id="g37">
      <g
         transform="translate(1,1)"
         id="g39">
        <g
           opacity="0.1"
           id="g41">
          <!-- color: #eeeeee -->
          <g
             id="g43">
            <path
               d="m 21.14 36.816 c -6.203 -0.98 -9.141 -3.527 -9.141 -4.32 l 0 -4.242 l 0.684 1.141 c 2.145 3.559 11.402 5.277 17.453 3.234 c 2.965 -0.996 4.719 -2.359 4.719 -3.66 c -1.711 -3.953 -8.109 -3.66 -10.02 -4.805 l 0.137 -3.035 c 0.035 -0.777 5.301 0.797 7.219 1.789 c 2.824 1.457 3.539 2.496 3.727 5.371 c 0.207 3.254 -0.609 5.172 -2.719 6.41 c -3.055 1.797 -8.289 2.711 -12.05 2.113 m -3.148 -7.824 c -4.473 -1.434 -5.992 -3.27 -5.992 -7.23 c 0 -2.984 0.953 -4.496 3.754 -5.934 c 3.582 -1.836 8.08 -2.27 12.867 -1.246 c 4.871 1.047 7.387 2.398 7.328 3.59 c -0.016 0.938 0.113 4.531 0 4.238 c -1.953 -4.992 -14.668 -6.66 -20.953 -2.766 c -3.586 2.219 -1.535 5.102 4.41 6.207 c 1.184 0.219 3.582 0.469 4.055 0.559 l 0 3.148 c -0.973 -0.016 -4.539 -0.27 -5.465 -0.566 m -0.004 0"
               fill="#000"
               stroke="none"
               fill-rule="nonzero"
               fill-opacity="1"
               id="path45" />
            <use
               xlink:href="#SVGCleanerId_0"
               id="use47" />
          </g>
        </g>
      </g>
    </g>
  </g>
  <g
     id="g49">
    <g
       clip-path="url(#clipPath-998309106)"
       id="g51">
      <!-- color: #eeeeee -->
      <g
         id="g53">
        <path
           d="m 21.14 36.816 c -6.203 -0.98 -9.141 -3.527 -9.141 -4.32 l 0 -4.242 l 0.684 1.141 c 2.145 3.559 11.402 5.277 17.453 3.234 c 2.965 -0.996 4.719 -2.359 4.719 -3.66 c -1.711 -3.953 -8.109 -3.66 -10.02 -4.805 l 0.137 -3.035 c 0.035 -0.777 5.301 0.797 7.219 1.789 c 2.824 1.457 3.539 2.496 3.727 5.371 c 0.207 3.254 -0.609 5.172 -2.719 6.41 c -3.055 1.797 -8.289 2.711 -12.05 2.113 m -3.148 -7.824 c -4.473 -1.434 -5.992 -3.27 -5.992 -7.23 c 0 -2.984 0.953 -4.496 3.754 -5.934 c 3.582 -1.836 8.08 -2.27 12.867 -1.246 c 4.871 1.047 7.387 2.398 7.328 3.59 c -0.016 0.938 0.113 4.531 0 4.238 c -1.953 -4.992 -14.668 -6.66 -20.953 -2.766 c -3.586 2.219 -1.535 5.102 4.41 6.207 c 1.184 0.219 3.582 0.469 4.055 0.559 l 0 3.148 c -0.973 -0.016 -4.539 -0.27 -5.465 -0.566 m -0.004 0"
           fill="#0aa3ec"
           stroke="none"
           fill-rule="nonzero"
           fill-opacity="1"
           id="path55" />
        <path
           d="m 21.14 33.781 c -6.203 -0.984 -9.141 -3.531 -9.141 -4.324 l 0 -4.242 l 0.684 1.141 c 2.145 3.563 11.402 5.281 17.453 3.238 c 2.965 -1 4.719 -2.359 4.719 -3.66 c -1.711 -3.953 -7.977 -3.664 -9.887 -4.805 l 0 -2.82 c 0 -0.777 5.301 0.582 7.219 1.57 c 2.824 1.457 3.539 2.496 3.727 5.375 c 0.207 3.254 -0.609 5.172 -2.719 6.41 c -3.055 1.793 -8.289 2.711 -12.05 2.113 m -3.148 -7.824 c -4.473 -1.438 -5.992 -3.27 -5.992 -7.23 c 0 -2.988 0.953 -4.5 3.754 -5.938 c 3.582 -1.836 8.08 -2.27 12.867 -1.242 c 4.871 1.043 7.387 2.398 7.328 3.586 c -0.016 0.941 0.113 4.531 0 4.242 c -1.953 -4.996 -14.668 -6.66 -20.953 -2.77 c -3.586 2.219 -1.535 5.102 4.41 6.207 c 1.184 0.219 3.582 0.473 4.055 0.559 l 0 3.148 c -0.973 -0.012 -4.539 -0.27 -5.465 -0.566 m -0.004 0.004"
           fill="#000"
           stroke="none"
           fill-rule="nonzero"
           fill-opacity="1"
           id="SVGCleanerId_0" />
      </g>
    </g>
  </g>
</svg>
