<?xml version="1.0" encoding="UTF-8" standalone="no"?>
<!-- Created with Inkscape (http://www.inkscape.org/) -->

<svg
   xmlns:dc="http://purl.org/dc/elements/1.1/"
   xmlns:cc="http://creativecommons.org/ns#"
   xmlns:rdf="http://www.w3.org/1999/02/22-rdf-syntax-ns#"
   xmlns:svg="http://www.w3.org/2000/svg"
   xmlns="http://www.w3.org/2000/svg"
   xmlns:xlink="http://www.w3.org/1999/xlink"
   xmlns:sodipodi="http://sodipodi.sourceforge.net/DTD/sodipodi-0.dtd"
   xmlns:inkscape="http://www.inkscape.org/namespaces/inkscape"
   width="48"
   height="48"
   id="svg5453"
   version="1.1"
   inkscape:version="0.48.5 r10040"
   sodipodi:docname="distributor-logo-chakra.svg">
  <defs
     id="defs5455">
    <linearGradient
       inkscape:collect="always"
       id="linearGradient4606">
      <stop
         style="stop-color:#2b5b83;stop-opacity:1"
         offset="0"
         id="stop4608" />
      <stop
         style="stop-color:#5783a7;stop-opacity:1"
         offset="1"
         id="stop4610" />
    </linearGradient>
    <linearGradient
       inkscape:collect="always"
       xlink:href="#linearGradient4606"
       id="linearGradient4612"
       x1="408.72192"
       y1="-547.79987"
       x2="408.72192"
       y2="-499.80991"
       gradientUnits="userSpaceOnUse" />
    <linearGradient
       inkscape:collect="always"
       xlink:href="#linearGradient4606"
       id="linearGradient4091"
       x1="415.82227"
       y1="539.14447"
       x2="415.82227"
       y2="508.45151"
       gradientUnits="userSpaceOnUse"
       gradientTransform="matrix(1.2763395,0,0,1.2763395,-112.90444,-144.80137)" />
  </defs>
  <sodipodi:namedview
     id="base"
     pagecolor="#ffffff"
     bordercolor="#666666"
     borderopacity="1.0"
     inkscape:pageopacity="0"
     inkscape:pageshadow="2"
     inkscape:zoom="8.0148699"
     inkscape:cx="6.3576166"
     inkscape:cy="12.631474"
     inkscape:document-units="px"
     inkscape:current-layer="layer1"
     showgrid="true"
     fit-margin-top="0"
     fit-margin-left="0"
     fit-margin-right="0"
     fit-margin-bottom="0"
     inkscape:window-width="1301"
     inkscape:window-height="744"
     inkscape:window-x="65"
     inkscape:window-y="24"
     inkscape:window-maximized="1">
    <inkscape:grid
       type="xygrid"
       id="grid3768" />
  </sodipodi:namedview>
  <metadata
     id="metadata5458">
    <rdf:RDF>
      <cc:Work
         rdf:about="">
        <dc:format>image/svg+xml</dc:format>
        <dc:type
           rdf:resource="http://purl.org/dc/dcmitype/StillImage" />
        <dc:title />
      </cc:Work>
    </rdf:RDF>
  </metadata>
  <g
     inkscape:label="Capa 1"
     inkscape:groupmode="layer"
     id="layer1"
     transform="translate(-384.57143,-499.798)">
    <path
       id="path4099"
       d="m 409.51794,504.59832 c -4.5111,0.14204 12.01884,22.28533 -0.71017,20.87138 10.6145,2.85535 13.04549,-10.44999 10.87772,-16.95822 -2.14737,-6.44694 -3.26424,-2.42476 -9.66384,-3.85662 -0.191,-0.0428 -0.3582,-0.0611 -0.50371,-0.0565 z m -12.64841,3.08565 c -6.97776,-0.009 -3.38242,2.26606 -6.76238,7.73383 -3.22802,5.22194 25.50031,-4.13074 20.01044,7.55305 6.0766,-8.92043 -6.20401,-15.27773 -13.24806,-15.28688 z m 4.91031,9.99708 c -5.58299,-0.0129 -11.20167,6.14576 -12.77264,10.81947 -2.16511,6.44135 1.17359,3.82475 5.48427,8.63588 4.11688,4.59482 3.83459,-24.82666 13.58129,-16.14612 -1.92907,-2.35363 -4.10828,-3.30419 -6.29292,-3.30923 z m 24.18746,1.04254 c -3.46661,-0.26217 -17.66819,17.52021 -20.01131,6.31093 0.48352,10.68514 14.26675,8.81894 19.97104,4.8058 5.65061,-3.97538 1.36505,-3.76347 0.78983,-10.11615 -0.0601,-0.6636 -0.32384,-0.96838 -0.74956,-1.00058 z m -20.46533,3.54224 c -10.31567,3.74843 -4.22834,15.90026 1.46487,19.92822 5.63964,3.99003 4.10803,0.0983 10.15213,-2.39605 5.77239,-2.38217 -23.13066,-11.21324 -11.617,-17.53217 z"
       style="fill:#000000;fill-opacity:0.23529412;fill-rule:evenodd;stroke:none"
       inkscape:connector-curvature="0" />
    <path
       inkscape:connector-curvature="0"
       style="fill:url(#linearGradient4091);fill-opacity:1;fill-rule:evenodd;stroke:none"
       d="m 409.51794,504.08778 c -4.5111,0.14204 12.01884,22.28534 -0.71017,20.87138 10.6145,2.85535 13.04549,-10.44999 10.87772,-16.95821 -2.14737,-6.44695 -3.26424,-2.42477 -9.66384,-3.85663 -0.191,-0.0428 -0.3582,-0.0611 -0.50371,-0.0565 z m -12.64841,3.08565 c -6.97776,-0.009 -3.38242,2.26607 -6.76238,7.73383 -3.22802,5.22194 25.50031,-4.13073 20.01044,7.55306 6.0766,-8.92044 -6.20401,-15.27773 -13.24806,-15.28689 z m 4.91031,9.99709 c -5.58299,-0.0129 -11.20167,6.14575 -12.77264,10.81946 -2.16511,6.44136 1.17359,3.82476 5.48427,8.63588 4.11688,4.59482 3.83459,-24.82665 13.58129,-16.14611 -1.92907,-2.35364 -4.10828,-3.30419 -6.29292,-3.30923 z m 24.18746,1.04254 c -3.46661,-0.26218 -17.66819,17.52021 -20.01131,6.31092 0.48352,10.68515 14.26675,8.81895 19.97104,4.8058 5.65061,-3.97537 1.36505,-3.76346 0.78983,-10.11615 -0.0601,-0.66359 -0.32384,-0.96837 -0.74956,-1.00057 z m -20.46533,3.54223 c -10.31567,3.74843 -4.22834,15.90026 1.46487,19.92822 5.63964,3.99003 4.10803,0.0983 10.15213,-2.39605 5.77239,-2.38217 -23.13066,-11.21324 -11.617,-17.53217 z"
       id="path7241" />
    <path
       style="fill:#2c5b83;fill-opacity:0.31372549;fill-rule:evenodd;stroke:none"
       d="m 408.77086,504.65462 c -0.62976,2.26873 4.54619,10.839 4.93334,16.11378 0.29955,-4.55649 -4.39304,-12.69013 -4.93334,-16.11378 z m 11.62167,7.55334 c -0.0699,5.39721 -2.35642,11.433 -7.83005,12.06539 -0.77284,0.60422 -1.96693,0.88407 -3.75422,0.68553 8.63304,2.32234 11.84935,-6.04432 11.58427,-12.75092 z m -30.35046,2.83685 c -1.23841,2.33683 4.50903,1.51326 10.27553,1.25141 0.4861,-0.0882 0.97502,-0.1482 1.46331,-0.14707 0.33654,7.7e-4 0.67171,0.0324 1.00711,0.0798 4.0792,-0.0102 7.6184,0.57467 7.97961,3.18087 1.07817,-7.57943 -18.64286,-2.14001 -20.72556,-4.36498 z m 21.68531,2.15631 c -0.075,0.99722 -0.38063,2.0434 -0.95476,3.13352 -0.0743,0.61854 -0.27598,1.31844 -0.65562,2.12641 1.28014,-1.87925 1.73906,-3.64357 1.61038,-5.25993 z m -6.91767,0.65313 c -6.48144,-0.12906 -6.72513,21.75896 -10.3179,17.7491 -3.15344,-3.51953 -5.77599,-3.07435 -6.11497,-5.09788 -0.38734,3.24539 2.51914,2.10665 6.11497,6.11995 4.11688,4.59482 3.83434,-24.82674 13.58106,-16.1462 -1.02825,-1.25454 -2.12983,-2.0984 -3.26316,-2.62497 z m 0.69302,3.90131 c -0.95964,0.34871 -1.77617,0.77057 -2.46543,1.25141 -0.25362,0.53829 -0.3137,1.08537 -0.20441,1.63782 0.19591,-0.99755 0.9956,-1.97037 2.66984,-2.88923 z m 0.4537,2.76707 c 0.48351,10.68514 14.26594,8.81936 19.97023,4.80622 2.60015,-1.82929 3.08745,-2.77276 2.80944,-3.87638 -0.2308,0.75993 -1.0218,1.59914 -2.80944,2.8568 -5.27824,3.7134 -17.46327,5.57837 -19.63868,-2.62746 -0.12482,-0.34966 -0.24088,-0.72543 -0.33155,-1.15918 z m -6.00278,3.86392 c -0.38535,4.88343 3.38989,10.73396 7.01239,13.29687 5.63963,3.99003 4.10927,0.0987 10.15338,-2.39564 0.82173,-0.33911 0.92296,-0.81387 0.5559,-1.38851 -0.1261,0.13388 -0.29385,0.2583 -0.5559,0.36645 -6.04411,2.49432 -4.51375,6.38565 -10.15338,2.39562 -3.37373,-2.38691 -6.85721,-7.62153 -7.01239,-12.27479 z"
       id="path4107"
       inkscape:connector-curvature="0" />
  </g>
</svg>
