<?xml version="1.0" encoding="UTF-8" standalone="no"?>
<!-- Created with Inkscape (http://www.inkscape.org/) -->

<svg
   xmlns:dc="http://purl.org/dc/elements/1.1/"
   xmlns:cc="http://creativecommons.org/ns#"
   xmlns:rdf="http://www.w3.org/1999/02/22-rdf-syntax-ns#"
   xmlns:svg="http://www.w3.org/2000/svg"
   xmlns="http://www.w3.org/2000/svg"
   xmlns:xlink="http://www.w3.org/1999/xlink"
   xmlns:sodipodi="http://sodipodi.sourceforge.net/DTD/sodipodi-0.dtd"
   xmlns:inkscape="http://www.inkscape.org/namespaces/inkscape"
   width="48"
   height="48"
   id="svg5453"
   version="1.1"
   inkscape:version="0.48.5 r10040"
   sodipodi:docname="distributor-logo-ubuntu.svg">
  <defs
     id="defs5455">
    <linearGradient
       inkscape:collect="always"
       id="linearGradient5352">
      <stop
         style="stop-color:#f41735;stop-opacity:1"
         offset="0"
         id="stop5354" />
      <stop
         style="stop-color:#f86a31;stop-opacity:1"
         offset="1"
         id="stop5356" />
    </linearGradient>
    <linearGradient
       inkscape:collect="always"
       xlink:href="#linearGradient5352"
       id="linearGradient5358"
       x1="415.00262"
       y1="-547.82861"
       x2="415.00262"
       y2="-499.79703"
       gradientUnits="userSpaceOnUse" />
    <linearGradient
       inkscape:collect="always"
       xlink:href="#linearGradient5352"
       id="linearGradient5386"
       x1="421.57144"
       y1="539.17297"
       x2="421.57144"
       y2="508.423"
       gradientUnits="userSpaceOnUse"
       gradientTransform="matrix(1.2771874,0,0,1.2771874,-113.25087,-145.24566)" />
  </defs>
  <sodipodi:namedview
     id="base"
     pagecolor="#ffffff"
     bordercolor="#666666"
     borderopacity="1.0"
     inkscape:pageopacity="0"
     inkscape:pageshadow="2"
     inkscape:zoom="5.6568542"
     inkscape:cx="12.877503"
     inkscape:cy="19.141561"
     inkscape:document-units="px"
     inkscape:current-layer="layer1"
     showgrid="true"
     fit-margin-top="0"
     fit-margin-left="0"
     fit-margin-right="0"
     fit-margin-bottom="0"
     inkscape:window-width="1301"
     inkscape:window-height="744"
     inkscape:window-x="65"
     inkscape:window-y="24"
     inkscape:window-maximized="1">
    <inkscape:grid
       type="xygrid"
       id="grid3768" />
  </sodipodi:namedview>
  <metadata
     id="metadata5458">
    <rdf:RDF>
      <cc:Work
         rdf:about="">
        <dc:format>image/svg+xml</dc:format>
        <dc:type
           rdf:resource="http://purl.org/dc/dcmitype/StillImage" />
        <dc:title />
      </cc:Work>
    </rdf:RDF>
  </metadata>
  <g
     inkscape:label="Capa 1"
     inkscape:groupmode="layer"
     id="layer1"
     transform="translate(-384.57143,-499.798)">
    <path
       inkscape:connector-curvature="0"
       id="path5364"
       d="m 408.57142,504.58475 c -10.86284,0 -19.66868,8.80584 -19.66868,19.66869 0,10.8624 8.80584,19.66868 19.66868,19.66868 10.86283,0 19.66869,-8.80628 19.66869,-19.66868 0,-10.86285 -8.80586,-19.66869 -19.66869,-19.66869 z m 7.01082,5.47899 c 0.33845,0.0419 0.67518,0.15019 0.98919,0.33133 1.25605,0.72553 1.68589,2.331 0.96039,3.58705 -0.72462,1.25609 -2.33095,1.68588 -3.58704,0.96038 -1.25516,-0.72464 -1.68503,-2.33183 -0.96038,-3.58703 0.54413,-0.94204 1.58246,-1.41745 2.59784,-1.29173 z m -7.01082,2.78031 c 1.05604,0 2.0788,0.14516 3.04924,0.41297 0.17118,1.05519 0.7975,2.03114 1.79591,2.60745 0.99671,0.57462 2.14688,0.63162 3.14526,0.2545 1.94174,1.90976 3.20626,4.50711 3.39016,7.39977 l -3.7407,0.0529 c -0.345,-3.91805 -3.63274,-6.9916 -7.63987,-6.9916 -1.15437,0 -2.25025,0.25868 -3.23169,0.71549 l -1.82473,-3.27011 c 1.52371,-0.75432 3.24098,-1.18134 5.05642,-1.18134 z m -6.32893,1.91598 1.92077,3.21728 c -1.97223,1.38818 -3.26051,3.68093 -3.26051,6.27613 0,2.59518 1.28828,4.88873 3.26051,6.27611 l -1.92077,3.21248 c -2.29851,-1.53573 -4.00609,-3.88202 -4.7155,-6.63145 0.82887,-0.67636 1.35896,-1.70348 1.35896,-2.85714 0,-1.15439 -0.53009,-2.1856 -1.35896,-2.86195 0.7102,-2.74843 2.41782,-5.09571 4.7155,-6.63146 z m -7.04442,6.86676 c 1.45014,0 2.62665,1.17563 2.62665,2.62665 0,1.45031 -1.17651,2.62665 -2.62665,2.62665 -1.45101,0 -2.62666,-1.17634 -2.62666,-2.62665 0,-1.45102 1.17565,-2.62665 2.62666,-2.62665 z m 21.01322,3.30371 3.7407,0.0576 c -0.1839,2.89265 -1.44842,5.49026 -3.39016,7.39977 -0.99838,-0.37713 -2.14771,-0.32101 -3.14526,0.2545 -0.99841,0.57718 -1.62481,1.54747 -1.79591,2.60264 -0.97044,0.26875 -1.9932,0.41777 -3.04924,0.41777 -1.81526,0 -3.53255,-0.42614 -5.05642,-1.18127 l 1.82473,-3.27011 c 0.98144,0.45685 2.07732,0.71068 3.23169,0.71068 4.00701,3e-5 7.29574,-3.07265 7.63987,-6.99158 z m -1.27732,8.29773 c 1.01523,-0.1258 2.05433,0.3551 2.59785,1.29651 0.72545,1.25605 0.29566,2.85758 -0.96039,3.58225 -1.25604,0.72545 -2.86234,0.2957 -3.58703,-0.96038 -0.72546,-1.25521 -0.29563,-2.86159 0.96038,-3.58705 0.3138,-0.18117 0.65079,-0.2894 0.98919,-0.33133 z"
       style="fill:#000000;fill-opacity:0.23529412" />
    <path
       style="fill:url(#linearGradient5386);fill-opacity:1"
       d="m 408.57142,504.07388 c -10.86284,0 -19.66868,8.80583 -19.66868,19.66868 0,10.8624 8.80584,19.66869 19.66868,19.66869 10.86283,0 19.66869,-8.80629 19.66869,-19.66869 0,-10.86285 -8.80586,-19.66868 -19.66869,-19.66868 z m 7.01082,5.47899 c 0.33845,0.0419 0.67518,0.15018 0.98919,0.33133 1.25605,0.72553 1.68589,2.33099 0.96039,3.58704 -0.72462,1.25609 -2.33095,1.68589 -3.58704,0.96038 -1.25516,-0.72463 -1.68503,-2.33182 -0.96038,-3.58703 0.54413,-0.94204 1.58246,-1.41745 2.59784,-1.29172 z m -7.01082,2.78031 c 1.05604,0 2.0788,0.14515 3.04924,0.41296 0.17118,1.05519 0.7975,2.03114 1.79591,2.60746 0.99671,0.57462 2.14688,0.63162 3.14526,0.25449 1.94174,1.90977 3.20626,4.50712 3.39016,7.39977 l -3.7407,0.0529 c -0.345,-3.91806 -3.63274,-6.99161 -7.63987,-6.99161 -1.15437,0 -2.25025,0.25868 -3.23169,0.71549 l -1.82473,-3.27011 c 1.52371,-0.75432 3.24098,-1.18133 5.05642,-1.18133 z m -6.32893,1.91597 1.92077,3.21729 c -1.97223,1.38817 -3.26051,3.68093 -3.26051,6.27612 0,2.59518 1.28828,4.88873 3.26051,6.27611 l -1.92077,3.21249 c -2.29851,-1.53573 -4.00609,-3.88203 -4.7155,-6.63145 0.82887,-0.67636 1.35896,-1.70349 1.35896,-2.85715 0,-1.15438 -0.53009,-2.1856 -1.35896,-2.86194 0.7102,-2.74844 2.41782,-5.09571 4.7155,-6.63147 z m -7.04442,6.86676 c 1.45014,0 2.62665,1.17564 2.62665,2.62665 0,1.45031 -1.17651,2.62665 -2.62665,2.62665 -1.45101,0 -2.62666,-1.17634 -2.62666,-2.62665 0,-1.45101 1.17565,-2.62665 2.62666,-2.62665 z m 21.01322,3.30372 3.7407,0.0576 c -0.1839,2.89265 -1.44842,5.49025 -3.39016,7.39976 -0.99838,-0.37712 -2.14771,-0.321 -3.14526,0.25451 -0.99841,0.57717 -1.62481,1.54747 -1.79591,2.60264 -0.97044,0.26875 -1.9932,0.41777 -3.04924,0.41777 -1.81526,0 -3.53255,-0.42615 -5.05642,-1.18127 l 1.82473,-3.27011 c 0.98144,0.45685 2.07732,0.71067 3.23169,0.71067 4.00701,3e-5 7.29574,-3.07264 7.63987,-6.99157 z m -1.27732,8.29773 c 1.01523,-0.1258 2.05433,0.3551 2.59785,1.29651 0.72545,1.25605 0.29566,2.85758 -0.96039,3.58224 -1.25604,0.72546 -2.86234,0.29571 -3.58703,-0.96038 -0.72546,-1.25521 -0.29563,-2.86159 0.96038,-3.58704 0.3138,-0.18117 0.65079,-0.2894 0.98919,-0.33133 z"
       id="path24"
       inkscape:connector-curvature="0" />
    <path
       style="fill:#f41934;fill-opacity:0.31372549"
       d="m 415.58347,508.53056 c -1.01537,-0.12568 -2.05513,0.35011 -2.59926,1.29215 -0.332,0.57506 -0.41036,1.22189 -0.28936,1.82599 0.0545,-0.27515 0.14139,-0.54944 0.28936,-0.80573 0.54413,-0.94204 1.58389,-1.41539 2.59926,-1.28967 0.33846,0.0419 0.67382,0.14814 0.98783,0.32929 0.68083,0.39326 1.10683,1.04907 1.24976,1.76362 0.21332,-1.07268 -0.24985,-2.20629 -1.24976,-2.78388 -0.31401,-0.18114 -0.64937,-0.28988 -0.98783,-0.33177 z m -7.01205,2.78138 c -1.81544,0 -3.53265,0.42557 -5.05636,1.17989 l 0.46148,0.82569 c 1.40784,-0.62173 2.95727,-0.98534 4.59488,-0.98534 1.05604,0 2.07786,0.14628 3.04829,0.41409 0.17118,1.05519 0.79763,2.03045 1.79605,2.60677 0.9967,0.57462 2.14719,0.63157 3.14557,0.25444 1.71089,1.68271 2.89436,3.89896 3.27778,6.38094 l 0.11227,-0.003 c -0.1839,-2.89265 -1.44829,-5.49144 -3.39004,-7.4012 -0.99838,0.37713 -2.14887,0.32018 -3.14557,-0.25444 -0.99842,-0.57632 -1.62487,-1.55158 -1.79605,-2.60677 -0.97044,-0.26775 -1.99226,-0.41152 -3.0483,-0.41152 z m -6.32856,1.91578 c -2.29768,1.53576 -4.00442,3.88196 -4.71461,6.63039 0.0885,0.0723 0.15802,0.1644 0.23947,0.24447 0.81178,-2.41136 2.39816,-4.46638 4.47514,-5.85462 l 1.50668,2.52445 c 0.1368,-0.11111 0.26972,-0.22765 0.41409,-0.32928 l -1.92077,-3.21541 z m -7.04448,6.86488 c -1.45102,0 -2.62672,1.17571 -2.62672,2.62672 0,0.17446 0.0175,0.34641 0.0499,0.51137 0.23826,-1.20557 1.30117,-2.11534 2.57683,-2.11534 1.27487,0 2.33591,0.90977 2.57432,2.11534 0.0324,-0.16496 0.0524,-0.33691 0.0524,-0.51137 -3e-5,-1.45101 -1.1766,-2.62672 -2.62674,-2.62672 z m -6.2712,3.13809 c -0.004,0.17159 -0.0249,0.33871 -0.0249,0.51137 0,10.86241 8.80634,19.66919 19.66918,19.66919 10.86282,0 19.66918,-8.80678 19.66918,-19.66919 0,-0.17266 -0.0206,-0.33978 -0.0249,-0.51137 -0.27347,10.62404 -8.95386,19.15781 -19.64424,19.15781 -10.69047,0 -19.37085,-8.53377 -19.64432,-19.15781 z m 9.90069,0 c -0.13247,0.94057 -0.59717,1.77413 -1.29962,2.34733 0.0683,0.26469 0.15303,0.52144 0.23947,0.77828 0.68137,-0.6688 1.11754,-1.58346 1.11754,-2.61424 0,-0.17606 -0.0335,-0.34186 -0.0574,-0.51137 z m 2.10786,0 c -0.0115,0.17031 -0.0324,0.33818 -0.0324,0.51137 0,2.40488 1.11458,4.54112 2.84624,5.94691 l 0.41409,-0.69348 c -1.84061,-1.2948 -3.06993,-3.3829 -3.22789,-5.7648 z m 15.27636,0.16713 c -0.34412,3.91894 -3.63366,6.99213 -7.64067,6.99211 -1.15437,0 -2.25144,-0.25409 -3.23288,-0.71094 l -1.82348,3.27029 c 0.14841,0.0736 0.307,0.12734 0.45899,0.19458 l 1.36449,-2.44462 c 0.98144,0.45685 2.07851,0.71093 3.23288,0.71093 4.00701,3e-5 7.29655,-3.07316 7.64067,-6.99209 l 3.62702,0.0573 c 0.052,-0.3357 0.0903,-0.67552 0.11227,-1.02026 l -3.73929,-0.0573 z m -1.27718,8.29673 c -0.33841,0.0419 -0.67652,0.1506 -0.99032,0.33177 -0.99961,0.57736 -1.46264,1.71165 -1.24974,2.78386 0.14291,-0.71465 0.56893,-1.36789 1.24974,-1.76111 0.3138,-0.18117 0.65191,-0.28985 0.99032,-0.33178 1.01522,-0.1258 2.05325,0.35574 2.59679,1.29715 0.14765,0.25567 0.23464,0.52674 0.28936,0.80074 0.12069,-0.60273 0.0429,-1.24826 -0.28936,-1.82348 -0.54354,-0.94142 -1.58157,-1.42295 -2.59679,-1.29715 z"
       id="path5370"
       inkscape:connector-curvature="0" />
  </g>
</svg>
