<?xml version="1.0" encoding="UTF-8" standalone="no"?>
<svg
   xmlns:dc="http://purl.org/dc/elements/1.1/"
   xmlns:cc="http://creativecommons.org/ns#"
   xmlns:rdf="http://www.w3.org/1999/02/22-rdf-syntax-ns#"
   xmlns:svg="http://www.w3.org/2000/svg"
   xmlns="http://www.w3.org/2000/svg"
   xmlns:xlink="http://www.w3.org/1999/xlink"
   xmlns:sodipodi="http://sodipodi.sourceforge.net/DTD/sodipodi-0.dtd"
   xmlns:inkscape="http://www.inkscape.org/namespaces/inkscape"
   viewBox="0 0 48 48"
   id="svg2"
   version="1.1"
   inkscape:version="0.48.5 r10040"
   width="100%"
   height="100%"
   sodipodi:docname="steam_icon_204060.svg">
  <metadata
     id="metadata185">
    <rdf:RDF>
      <cc:Work
         rdf:about="">
        <dc:format>image/svg+xml</dc:format>
        <dc:type
           rdf:resource="http://purl.org/dc/dcmitype/StillImage" />
      </cc:Work>
    </rdf:RDF>
  </metadata>
  <sodipodi:namedview
     pagecolor="#ffffff"
     bordercolor="#666666"
     borderopacity="1"
     objecttolerance="10"
     gridtolerance="10"
     guidetolerance="10"
     inkscape:pageopacity="0"
     inkscape:pageshadow="2"
     inkscape:window-width="1301"
     inkscape:window-height="744"
     id="namedview183"
     showgrid="true"
     inkscape:zoom="9.0450742"
     inkscape:cx="17.731351"
     inkscape:cy="24.387684"
     inkscape:window-x="65"
     inkscape:window-y="24"
     inkscape:window-maximized="1"
     inkscape:current-layer="svg2">
    <inkscape:grid
       type="xygrid"
       id="grid3183" />
  </sodipodi:namedview>
  <defs
     id="defs4">
    <linearGradient
       id="linearGradient3764"
       x1="1"
       x2="47"
       gradientUnits="userSpaceOnUse"
       gradientTransform="matrix(0,-1,1,0,-1.5e-6,47.999998)">
      <stop
         stop-color="#989898"
         stop-opacity="1"
         id="stop7" />
      <stop
         offset="1"
         stop-color="#a2a2a2"
         stop-opacity="1"
         id="stop9"
         style="stop-color:#c2c2c2;stop-opacity:1;" />
    </linearGradient>
    <clipPath
       id="clipPath-456758850">
      <g
         transform="translate(0,-1004.3622)"
         id="g12">
        <path
           d="m -24 13 c 0 1.105 -0.672 2 -1.5 2 -0.828 0 -1.5 -0.895 -1.5 -2 0 -1.105 0.672 -2 1.5 -2 0.828 0 1.5 0.895 1.5 2 z"
           transform="matrix(15.333333,0,0,11.5,414.99999,878.8622)"
           fill="#1890d0"
           id="path14" />
      </g>
    </clipPath>
    <clipPath
       id="clipPath-471247578">
      <g
         transform="translate(0,-1004.3622)"
         id="g17">
        <path
           d="m -24 13 c 0 1.105 -0.672 2 -1.5 2 -0.828 0 -1.5 -0.895 -1.5 -2 0 -1.105 0.672 -2 1.5 -2 0.828 0 1.5 0.895 1.5 2 z"
           transform="matrix(15.333333,0,0,11.5,414.99999,878.8622)"
           fill="#1890d0"
           id="path19" />
      </g>
    </clipPath>
    <linearGradient
       y2="1028.3622"
       x2="44"
       y1="1028.3622"
       x1="4"
       gradientTransform="translate(-3.54e-6,-1004.3619)"
       gradientUnits="userSpaceOnUse"
       id="linearGradient3102"
       xlink:href="#linearGradient3764"
       inkscape:collect="always" />
  </defs>
  <rect
     style="fill:url(#linearGradient3102);fill-opacity:1.0;stroke:none"
     id="rect3758"
     width="40"
     height="40"
     x="3.9999964"
     y="4.0002828"
     ry="0" />
  <path
     style="opacity:0.35;fill:#000000;fill-opacity:1;stroke:none"
     d="m 3.9999979,44 39.9999961,3e-4 c -19.999997,-1 -19.999997,-1 -39.9999975,0 z"
     id="path3800"
     inkscape:connector-curvature="0"
     sodipodi:nodetypes="cccc" />
  <path
     sodipodi:nodetypes="cccc"
     inkscape:connector-curvature="0"
     id="path3804"
     d="M 4.0000014,4.0002 43.999997,4 C 24.000001,5 24.000001,5 4,4 z"
     style="opacity:0.75;fill:#ffffff;fill-opacity:1;stroke:none" />
  <g
     id="g33" />
  <g
     id="g35">
    <g
       clip-path="url(#clipPath-456758850)"
       id="g37">
      <g
         transform="translate(1,1)"
         id="g39">
        <g
           opacity="0.1"
           id="g41">
          <!-- color: #a2a2a2 -->
          <g
             id="g43">
            <path
               d="m 28.328 11.609 c 6.469 3.727 8.34 11.18 4.938 17.641 c -4.863 8.102 -13.516 7.336 -18.469 4.203 c 5.05 4.547 15.25 5.109 20.2 -3.453 c 3.98 -7.445 0.238 -15.84 -6.672 -18.391 m 0.004 0"
               fill="#000"
               stroke="none"
               fill-rule="nonzero"
               fill-opacity="1"
               id="path45" />
            <path
               d="m 16 14 l 7 0 l 0 8 l -7 0 m 0 -8"
               fill="#000"
               stroke="none"
               fill-rule="nonzero"
               fill-opacity="1"
               id="path47" />
            <path
               d="m 21 17 l 0 1 l -2 0 l 0 4 l 8 0 l 0 -5 m -6 0"
               fill="#000"
               stroke="none"
               fill-rule="nonzero"
               fill-opacity="1"
               id="path49" />
            <path
               d="m 22 20 l 0 2 l -2 0 l 0 2 l 5 0 l 0 9 l 1 0 l 0 -9 l 1 0 l 0 -4 m -5 0"
               fill="#000"
               stroke="none"
               fill-rule="nonzero"
               fill-opacity="1"
               id="path51" />
            <path
               d="m 23 21 l 1 0 l 0 1 l -1 0 m 0 -1"
               fill="#000"
               stroke="none"
               fill-rule="nonzero"
               fill-opacity="1"
               id="path53" />
            <path
               d="m 25 21 l 1 0 l 0 1 l -1 0 m 0 -1"
               fill="#000"
               stroke="none"
               fill-rule="nonzero"
               fill-opacity="1"
               id="path55" />
            <path
               d="m 23 23 l 1 0 l 0 1 l -1 0 m 0 -1"
               fill="#000"
               stroke="none"
               fill-rule="nonzero"
               fill-opacity="1"
               id="path57" />
            <path
               d="m 25 23 l 1 0 l 0 1 l -1 0 m 0 -1"
               fill="#000"
               stroke="none"
               fill-rule="nonzero"
               fill-opacity="1"
               id="path59" />
            <path
               d="m 21 16 l 6 0 l 0 1 l -6 0 m 0 -1"
               fill="#000"
               stroke="none"
               fill-rule="nonzero"
               fill-opacity="1"
               id="path61" />
            <path
               d="m 22 15 l 4 0 l 0 1 l -4 0 m 0 -1"
               fill="#000"
               stroke="none"
               fill-rule="nonzero"
               fill-opacity="1"
               id="path63" />
            <path
               d="m 23 12 l 0 4 l 1 0 l 0 4 l 1 0 l 0 -7 l 1 0 l 0 -1 m -3 0"
               fill="#000"
               stroke="none"
               fill-rule="nonzero"
               fill-opacity="1"
               id="path65" />
            <path
               d="m 25 13 l 1 0 l 0 1 l -1 0 m 0 -1"
               fill="#000"
               stroke="none"
               fill-rule="nonzero"
               fill-opacity="1"
               id="path67" />
            <path
               d="m 26 11 l 0 1 l -3 0 l 0 -1 m 3 0"
               fill="#000"
               stroke="none"
               fill-rule="nonzero"
               fill-opacity="1"
               id="path69" />
            <path
               d="m 24 10 l 1 0 l 0 1 l -1 0 m 0 -1"
               fill="#000"
               stroke="none"
               fill-rule="nonzero"
               fill-opacity="1"
               id="path71" />
            <path
               d="m 21 15 l 1 0 l 0 1 l -1 0 m 0 -1"
               fill="#000"
               stroke="none"
               fill-rule="nonzero"
               fill-opacity="1"
               id="path73" />
            <path
               d="m 26 18 l 1 0 l 0 1 l -1 0 m 0 -1"
               fill="#000"
               stroke="none"
               fill-rule="nonzero"
               fill-opacity="1"
               id="path75" />
            <path
               d="m 22 18 l 1 0 l 0 1 l -1 0 m 0 -1"
               fill="#000"
               stroke="none"
               fill-rule="nonzero"
               fill-opacity="1"
               id="path77" />
            <path
               d="m 19 18 l 1 0 l 0 1 l -1 0 m 0 -1"
               fill="#000"
               stroke="none"
               fill-rule="nonzero"
               fill-opacity="1"
               id="path79" />
            <path
               d="m 16 13 l 7 0 l 0 1 l -7 0 m 0 -1"
               fill="#000"
               stroke="none"
               fill-rule="nonzero"
               fill-opacity="1"
               id="path81" />
            <path
               d="m 18 22 l 1 0 l 0 1 l -1 0 m 0 -1"
               fill="#000"
               stroke="none"
               fill-rule="nonzero"
               fill-opacity="1"
               id="path83" />
            <path
               d="m 20 24 l 7 0 l 0 3 l -7 0 m 0 -3"
               fill="#000"
               stroke="none"
               fill-rule="nonzero"
               fill-opacity="1"
               id="path85" />
            <path
               d="m 20 27 l 7 0 l 0 2 l -7 0 m 0 -2"
               fill="#000"
               stroke="none"
               fill-rule="nonzero"
               fill-opacity="1"
               id="path87" />
            <path
               d="m 18 23 l 1 0 l 0 10 l -1 0 m 0 -10"
               fill="#000"
               stroke="none"
               fill-rule="nonzero"
               fill-opacity="1"
               id="path89" />
            <path
               d="m 17 27 l 2 0 l 0 1 l -2 0 m 0 -1"
               fill="#000"
               stroke="none"
               fill-rule="nonzero"
               fill-opacity="1"
               id="path91" />
            <path
               d="m 19 29 l 0 3 l -1 0 l 0 -3 m 1 0"
               fill="#000"
               stroke="none"
               fill-rule="nonzero"
               fill-opacity="1"
               id="path93" />
            <path
               d="m 20 29 l 1 0 l 0 1 l -1 0 m 0 -1"
               fill="#000"
               stroke="none"
               fill-rule="nonzero"
               fill-opacity="1"
               id="path95" />
            <path
               d="m 20 30 l 1 0 l 0 3 l -1 0 m 0 -3"
               fill="#000"
               stroke="none"
               fill-rule="nonzero"
               fill-opacity="1"
               id="path97" />
            <path
               d="m 27 23 l 0 6 l -1 0 l 0 3 l 1 0 l 0 -1 l 1 0 l 0 -8 m -1 0"
               fill="#000"
               stroke="none"
               fill-rule="nonzero"
               fill-opacity="1"
               id="path99" />
            <path
               d="m 26 29 l 1 0 l 0 1 l -1 0 m 0 -1"
               fill="#000"
               stroke="none"
               fill-rule="nonzero"
               fill-opacity="1"
               id="path101" />
            <path
               d="m 19 33 l 1 0 l 0 1 l -1 0 m 0 -1"
               fill="#000"
               stroke="none"
               fill-rule="nonzero"
               fill-opacity="1"
               id="path103" />
            <path
               d="m 20 33 l 1 0 l 0 7 l -1 0 m 0 -7"
               fill="#000"
               stroke="none"
               fill-rule="nonzero"
               fill-opacity="1"
               id="path105" />
            <path
               d="m 26 32 l 1 0 l 0 7 l -1 0 m 0 -7"
               fill="#000"
               stroke="none"
               fill-rule="nonzero"
               fill-opacity="1"
               id="path107" />
          </g>
        </g>
      </g>
    </g>
  </g>
  <g
     id="g109">
    <g
       clip-path="url(#clipPath-471247578)"
       id="g111">
      <!-- color: #a2a2a2 -->
      <g
         id="g113">
        <path
           d="m 28.328 11.609 c 6.469 3.727 8.34 11.18 4.938 17.641 c -4.863 8.102 -13.516 7.336 -18.469 4.203 c 5.05 4.547 15.25 5.109 20.2 -3.453 c 3.98 -7.445 0.238 -15.84 -6.672 -18.391 m 0.004 0"
           fill="#f9f9f9"
           stroke="none"
           fill-rule="nonzero"
           fill-opacity="1"
           id="path115" />
        <path
           d="m 16 14 l 7 0 l 0 8 l -7 0 m 0 -8"
           fill="#453c27"
           stroke="none"
           fill-rule="nonzero"
           fill-opacity="1"
           id="path117" />
        <path
           d="m 21 17 l 0 1 l -2 0 l 0 4 l 8 0 l 0 -5 m -6 0"
           fill="#494437"
           stroke="none"
           fill-rule="nonzero"
           fill-opacity="1"
           id="path119" />
        <path
           d="m 22 20 l 0 2 l -2 0 l 0 2 l 5 0 l 0 9 l 1 0 l 0 -9 l 1 0 l 0 -4 m -5 0"
           fill="#2d2f28"
           stroke="none"
           fill-rule="nonzero"
           fill-opacity="1"
           id="path121" />
        <path
           d="m 23 21 l 1 0 l 0 1 l -1 0 m 0 -1"
           fill="#c8dddc"
           stroke="none"
           fill-rule="nonzero"
           fill-opacity="1"
           id="path123" />
        <path
           d="m 25 21 l 1 0 l 0 1 l -1 0 m 0 -1"
           fill="#c8dddc"
           stroke="none"
           fill-rule="nonzero"
           fill-opacity="1"
           id="path125" />
        <path
           d="m 23 23 l 1 0 l 0 1 l -1 0 m 0 -1"
           fill="#e4eddc"
           stroke="none"
           fill-rule="nonzero"
           fill-opacity="1"
           id="path127" />
        <path
           d="m 25 23 l 1 0 l 0 1 l -1 0 m 0 -1"
           fill="#e4eddc"
           stroke="none"
           fill-rule="nonzero"
           fill-opacity="1"
           id="path129" />
        <path
           d="m 21 16 l 6 0 l 0 1 l -6 0 m 0 -1"
           fill="#6a6a4c"
           stroke="none"
           fill-rule="nonzero"
           fill-opacity="1"
           id="path131" />
        <path
           d="m 22 15 l 4 0 l 0 1 l -4 0 m 0 -1"
           fill="#a29344"
           stroke="none"
           fill-rule="nonzero"
           fill-opacity="1"
           id="path133" />
        <path
           d="m 23 12 l 0 4 l 1 0 l 0 4 l 1 0 l 0 -7 l 1 0 l 0 -1 m -3 0"
           fill="#090a0a"
           stroke="none"
           fill-rule="nonzero"
           fill-opacity="1"
           id="path135" />
        <path
           d="m 25 13 l 1 0 l 0 1 l -1 0 m 0 -1"
           fill="#a29344"
           stroke="none"
           fill-rule="nonzero"
           fill-opacity="1"
           id="path137" />
        <path
           d="m 26 11 l 0 1 l -3 0 l 0 -1 m 3 0"
           fill="#62603b"
           stroke="none"
           fill-rule="nonzero"
           fill-opacity="1"
           id="path139" />
        <path
           d="m 24 10 l 1 0 l 0 1 l -1 0 m 0 -1"
           fill="#b9b871"
           stroke="none"
           fill-rule="nonzero"
           fill-opacity="1"
           id="path141" />
        <path
           d="m 21 15 l 1 0 l 0 1 l -1 0 m 0 -1"
           fill="#090a0a"
           stroke="none"
           fill-rule="nonzero"
           fill-opacity="1"
           id="path143" />
        <path
           d="m 26 18 l 1 0 l 0 1 l -1 0 m 0 -1"
           fill="#cfcc7e"
           stroke="none"
           fill-rule="nonzero"
           fill-opacity="1"
           id="path145" />
        <path
           d="m 22 18 l 1 0 l 0 1 l -1 0 m 0 -1"
           fill="#cfcc7e"
           stroke="none"
           fill-rule="nonzero"
           fill-opacity="1"
           id="path147" />
        <path
           d="m 19 18 l 1 0 l 0 1 l -1 0 m 0 -1"
           fill="#6a6a4c"
           stroke="none"
           fill-rule="nonzero"
           fill-opacity="1"
           id="path149" />
        <path
           d="m 16 13 l 7 0 l 0 1 l -7 0 m 0 -1"
           fill="#694919"
           stroke="none"
           fill-rule="nonzero"
           fill-opacity="1"
           id="path151" />
        <path
           d="m 18 22 l 1 0 l 0 1 l -1 0 m 0 -1"
           fill="#a29344"
           stroke="none"
           fill-rule="nonzero"
           fill-opacity="1"
           id="path153" />
        <path
           d="m 20 24 l 7 0 l 0 3 l -7 0 m 0 -3"
           fill="#454536"
           stroke="none"
           fill-rule="nonzero"
           fill-opacity="1"
           id="path155" />
        <path
           d="m 20 27 l 7 0 l 0 2 l -7 0 m 0 -2"
           fill="#6a6a4c"
           stroke="none"
           fill-rule="nonzero"
           fill-opacity="1"
           id="path157" />
        <path
           d="m 18 23 l 1 0 l 0 10 l -1 0 m 0 -10"
           fill="#62603b"
           stroke="none"
           fill-rule="nonzero"
           fill-opacity="1"
           id="path159" />
        <path
           d="m 17 27 l 2 0 l 0 1 l -2 0 m 0 -1"
           fill="#bac09c"
           stroke="none"
           fill-rule="nonzero"
           fill-opacity="1"
           id="path161" />
        <path
           d="m 19 29 l 0 3 l -1 0 l 0 -3 m 1 0"
           fill="#bac09c"
           stroke="none"
           fill-rule="nonzero"
           fill-opacity="1"
           id="path163" />
        <path
           d="m 20 29 l 1 0 l 0 1 l -1 0 m 0 -1"
           fill="#454536"
           stroke="none"
           fill-rule="nonzero"
           fill-opacity="1"
           id="path165" />
        <path
           d="m 20 30 l 1 0 l 0 3 l -1 0 m 0 -3"
           fill="#62603b"
           stroke="none"
           fill-rule="nonzero"
           fill-opacity="1"
           id="path167" />
        <path
           d="m 27 23 l 0 6 l -1 0 l 0 3 l 1 0 l 0 -1 l 1 0 l 0 -8 m -1 0"
           fill="#62603b"
           stroke="none"
           fill-rule="nonzero"
           fill-opacity="1"
           id="path169" />
        <path
           d="m 26 29 l 1 0 l 0 1 l -1 0 m 0 -1"
           fill="#454536"
           stroke="none"
           fill-rule="nonzero"
           fill-opacity="1"
           id="path171" />
        <path
           d="m 19 33 l 1 0 l 0 1 l -1 0 m 0 -1"
           fill="#454536"
           stroke="none"
           fill-rule="nonzero"
           fill-opacity="1"
           id="path173" />
        <path
           d="m 20 33 l 1 0 l 0 7 l -1 0 m 0 -7"
           fill="#090a0a"
           stroke="none"
           fill-rule="nonzero"
           fill-opacity="1"
           id="path175" />
        <path
           d="m 26 32 l 1 0 l 0 7 l -1 0 m 0 -7"
           fill="#090a0a"
           stroke="none"
           fill-rule="nonzero"
           fill-opacity="1"
           id="path177" />
      </g>
    </g>
  </g>
</svg>
