<?xml version="1.0" encoding="UTF-8" standalone="no"?>
<svg
   xmlns:dc="http://purl.org/dc/elements/1.1/"
   xmlns:cc="http://creativecommons.org/ns#"
   xmlns:rdf="http://www.w3.org/1999/02/22-rdf-syntax-ns#"
   xmlns:svg="http://www.w3.org/2000/svg"
   xmlns="http://www.w3.org/2000/svg"
   xmlns:xlink="http://www.w3.org/1999/xlink"
   xmlns:sodipodi="http://sodipodi.sourceforge.net/DTD/sodipodi-0.dtd"
   xmlns:inkscape="http://www.inkscape.org/namespaces/inkscape"
   viewBox="0 0 48 48"
   id="svg2"
   version="1.1"
   inkscape:version="0.48.5 r10040"
   width="100%"
   height="100%"
   sodipodi:docname="steam_icon_30.svg">
  <metadata
     id="metadata49">
    <rdf:RDF>
      <cc:Work
         rdf:about="">
        <dc:format>image/svg+xml</dc:format>
        <dc:type
           rdf:resource="http://purl.org/dc/dcmitype/StillImage" />
      </cc:Work>
    </rdf:RDF>
  </metadata>
  <sodipodi:namedview
     pagecolor="#ffffff"
     bordercolor="#666666"
     borderopacity="1"
     objecttolerance="10"
     gridtolerance="10"
     guidetolerance="10"
     inkscape:pageopacity="0"
     inkscape:pageshadow="2"
     inkscape:window-width="1301"
     inkscape:window-height="744"
     id="namedview47"
     showgrid="true"
     inkscape:zoom="4.5225371"
     inkscape:cx="-4.6414942"
     inkscape:cy="40.935163"
     inkscape:window-x="65"
     inkscape:window-y="24"
     inkscape:window-maximized="1"
     inkscape:current-layer="svg2">
    <inkscape:grid
       type="xygrid"
       id="grid3026" />
  </sodipodi:namedview>
  <defs
     id="defs4">
    <linearGradient
       id="linearGradient3063"
       gradientUnits="userSpaceOnUse"
       gradientTransform="matrix(0,-1,1,0,-1.5e-6,47.999998)"
       x1="1"
       x2="47">
      <stop
         stop-color="#c22428"
         stop-opacity="1"
         id="stop19" />
      <stop
         offset="1"
         stop-color="#d3272c"
         stop-opacity="1"
         id="stop21" />
    </linearGradient>
    <linearGradient
       id="linearGradient3766">
      <stop
         style="stop-color:#336ab5;stop-opacity:1;"
         offset="0"
         id="stop3768" />
      <stop
         style="stop-color:#6cb6f7;stop-opacity:1;"
         offset="1"
         id="stop3770" />
    </linearGradient>
    <linearGradient
       y2="1028.3622"
       x2="44"
       y1="1028.3622"
       x1="4"
       gradientTransform="translate(38,-1005.3622)"
       gradientUnits="userSpaceOnUse"
       id="linearGradient3121"
       xlink:href="#linearGradient3766"
       inkscape:collect="always" />
  </defs>
  <path
     d="M 24,4 24,25.5 24,44 44,44 44,4 34,4 z"
     id="path31"
     inkscape:connector-curvature="0"
     style="fill:url(#linearGradient3063);fill-opacity:1"
     sodipodi:nodetypes="ccccccc" />
  <path
     d="M 24,4 12,4 4,4 4,44 24,44 24,24 z"
     id="path33"
     inkscape:connector-curvature="0"
     style="fill:#4a783d;fill-opacity:1;fill-rule:nonzero;stroke:none"
     sodipodi:nodetypes="ccccccc" />
  <path
     d="m 25,13 0,24 4,0 L 27.03125,26.25 41,28 41,22 27.03125,23.75 29,13 z m 0,0"
     opacity="0.1"
     fill="#000"
     fill-rule="nonzero"
     stroke="none"
     fill-opacity="1"
     id="path35" />
  <path
     d="m 25 14 -4 8 -10 -0.996 8 8 -3 9 9 -5 m 0 -19"
     opacity="0.1"
     fill="#000"
     fill-rule="nonzero"
     stroke="none"
     fill-opacity="1"
     id="path37" />
  <path
     d="m 24,12 0,24 4,0 L 26.03125,25.25 40,27 40,21 26.03125,22.75 28,12 z m 0,0"
     fill="#292929"
     fill-rule="nonzero"
     stroke="none"
     fill-opacity="1"
     id="path39" />
  <path
     d="m 24 13 -4 8 -10 -0.996 8 8 -3 9 9 -5 m 0 -19"
     fill="#f8f8f8"
     fill-rule="nonzero"
     stroke="none"
     fill-opacity="1"
     id="path41" />
  <path
     style="opacity:0.35;fill:#000000;fill-opacity:1;stroke:none"
     d="m 4,44 39.999997,3e-4 C 24,43.0003 24,43.0003 3.999999,44.0003 z"
     id="path3800"
     inkscape:connector-curvature="0"
     sodipodi:nodetypes="cccc" />
  <path
     sodipodi:nodetypes="cccc"
     inkscape:connector-curvature="0"
     id="path3804"
     d="M 4.000004,4.0002 44,4 C 24.000004,5 24.000004,5 4.000002,4 z"
     style="opacity:0.75;fill:#ffffff;fill-opacity:1;stroke:none" />
</svg>
