<?xml version="1.0" encoding="UTF-8" standalone="no"?>
<svg
   xmlns:dc="http://purl.org/dc/elements/1.1/"
   xmlns:cc="http://creativecommons.org/ns#"
   xmlns:rdf="http://www.w3.org/1999/02/22-rdf-syntax-ns#"
   xmlns:svg="http://www.w3.org/2000/svg"
   xmlns="http://www.w3.org/2000/svg"
   xmlns:xlink="http://www.w3.org/1999/xlink"
   xmlns:sodipodi="http://sodipodi.sourceforge.net/DTD/sodipodi-0.dtd"
   xmlns:inkscape="http://www.inkscape.org/namespaces/inkscape"
   viewBox="0 0 48 48"
   id="svg2"
   version="1.1"
   inkscape:version="0.48.5 r10040"
   width="100%"
   height="100%"
   sodipodi:docname="steam_icon_222750.svg">
  <metadata
     id="metadata69">
    <rdf:RDF>
      <cc:Work
         rdf:about="">
        <dc:format>image/svg+xml</dc:format>
        <dc:type
           rdf:resource="http://purl.org/dc/dcmitype/StillImage" />
      </cc:Work>
    </rdf:RDF>
  </metadata>
  <sodipodi:namedview
     pagecolor="#ffffff"
     bordercolor="#666666"
     borderopacity="1"
     objecttolerance="10"
     gridtolerance="10"
     guidetolerance="10"
     inkscape:pageopacity="0"
     inkscape:pageshadow="2"
     inkscape:window-width="1301"
     inkscape:window-height="744"
     id="namedview67"
     showgrid="true"
     inkscape:zoom="4.5225371"
     inkscape:cx="-9.8509554"
     inkscape:cy="45.65209"
     inkscape:window-x="65"
     inkscape:window-y="24"
     inkscape:window-maximized="1"
     inkscape:current-layer="svg2">
    <inkscape:grid
       type="xygrid"
       id="grid3046" />
  </sodipodi:namedview>
  <defs
     id="defs4">
    <linearGradient
       id="linearGradient3764"
       x1="1"
       x2="47"
       gradientUnits="userSpaceOnUse"
       gradientTransform="matrix(0,-1,1,0,-1.5e-6,47.999998)">
      <stop
         stop-color="#2f1e0d"
         stop-opacity="1"
         id="stop7" />
      <stop
         offset="1"
         stop-color="#3f2811"
         stop-opacity="1"
         id="stop9"
         style="stop-color:#613000;stop-opacity:1;" />
    </linearGradient>
    <linearGradient
       y2="1028.3622"
       x2="44"
       y1="1028.3622"
       x1="4"
       gradientTransform="translate(0,-1004.3622)"
       gradientUnits="userSpaceOnUse"
       id="linearGradient3102"
       xlink:href="#linearGradient3764"
       inkscape:collect="always" />
  </defs>
  <rect
     style="fill:url(#linearGradient3102);fill-opacity:1.0;stroke:none"
     id="rect3758"
     width="40"
     height="40"
     x="4"
     y="4"
     ry="0" />
  <g
     id="g33" />
  <g
     transform="matrix(0.79190197,0,0,0.79190197,5.9942486,5.9925838)"
     id="g39">
    <g
       id="g41"
       style="opacity:0.1">
      <!-- color: #3f2811 -->
      <g
         id="g43">
        <path
           d="M 0,0 0,5.188 6.781,3.75 C 6.953,2.437 7.261,1.043 8,0 M 21,0 C 18.387,1.379 16.348,4.215 14.375,6.125 13.168,7.309 11.527,8.727 9.937,9.344 l -0.75,3.781 c 3.477,0.383 4.082,2.813 1.5,7.527 L 9.843,31.742 C 9.179,34.66 4.702,38.305 2.218,39.867 1.105,39.551 0.441,39.094 -0.001,38.558 l 0,4.03 c 0.664,-0.48 1.305,-1.07 2.156,-1.25 2.055,0.73 4.922,4.426 6.66,6.648 l 21.938,0 c 0.047,-1.188 0.277,-2.414 0.996,-3.375 0.914,-1.184 2.629,-2.438 2.848,-3.938 0.129,-0.93 -0.77,-1.574 -1.563,-2.125 -1.059,-0.715 -1.406,-2.324 -0.563,-3.406 l 0.375,-3.063 c 0.215,-3.543 -1.238,-6.164 -4,-8.03 l -5.469,-12.09 c 1.648,-1.5 2.922,-2.148 4.313,-2.852 -0.078,-2.715 -0.266,-7.27 -1.938,-9.125 m 8.148,0.004 c 0.398,1.227 1.398,2.754 4.625,4.223 0.711,-0.188 1.426,-0.305 2.156,-0.996 l 4.25,4.934 c -1.426,0.266 -4.113,0.031 -6.875,-0.25 -2.781,4 0.855,6.816 2.563,10 1.977,0.34 3.391,0.918 7.371,0.465 l 0,-18.375 -14.09,0 m -16.438,39.33 c 5.742,0.008 4.668,2.703 1.406,5.875 -2.633,0.27 -3.605,0.148 -4.5,0 -0.465,-1.887 -0.227,-3.645 1.844,-5.844 0.445,-0.023 0.867,-0.031 1.25,-0.031 m 19.781,0.598 c -0.207,0.004 -0.43,0.02 -0.621,0.063 -0.332,2.105 1.359,1.781 1.594,3.816 0.156,1.633 -0.375,2.957 -1.129,4.188 l 10.906,0 0,-4 c -2.5,-0.367 -4.352,-1.195 -6.527,-2.559 -1.043,-0.656 -2.75,-1.523 -4.223,-1.5 m 0,-0.008"
           id="path45"
           inkscape:connector-curvature="0"
           style="fill:#000000;fill-opacity:1;fill-rule:nonzero;stroke:none" />
        <path
           d="M 0,0 0,3.531 C 0.262,2.246 0.621,1.34 0.875,0.593 0.938,0.413 1.055,0.206 1.156,-0.001 m 38.813,0 c 0.133,0.988 0.426,1.969 0.5,2.969 0.164,1.867 0.902,3.215 2.625,4.03 1.711,0.82 3.512,2.406 4.906,3.883 l 0,-10.875 -8.03,0 m -36,2.559 C 2.993,2.624 1.626,3.151 0.845,3.874 0.595,4.097 0.302,4.233 0.001,4.374 l 0,13.938 c 0.637,0.184 1.281,0.34 1.938,0.434 0.879,0.141 1.762,0.207 2.656,0.156 1.973,-2.516 4.074,-4.281 5,-7.246 C 10.208,9.687 10.212,7.039 8.974,5.402 7.982,4.101 6.228,3.3 4.786,2.656 4.583,2.566 4.294,2.539 3.974,2.562 m 17.215,9.191 c -0.309,0.016 -0.613,0.055 -0.938,0.125 -1.176,0.965 -1.672,2.445 -2.219,3.813 -0.66,1.648 0.516,3.469 -0.313,4.965 -0.543,0.5 -1.383,0.652 -2.063,0.469 -2.68,-0.73 -5.648,-0.719 -8.219,0.531 l 0.031,0.5 c 0.328,2.336 0.688,4.746 1.75,6.844 0.691,1.367 0.992,2.953 1.152,4.438 0.219,1.902 -0.672,3.695 -0.625,5.563 3.625,-0.184 8.06,-0.121 9.531,1.344 1.563,1.57 -0.543,5.289 -2.281,7.656 l 8.441,0 c 0.512,-0.875 0.809,-2.02 0.875,-2.813 0.117,-1.449 -0.965,-1.813 -1.031,-3.094 -0.098,-2.105 1.777,-3.375 2.938,-4.875 1.289,-1.688 0.66,-4.23 -1.031,-5.566 0.594,-2.465 0.828,-5.063 1.625,-7.527 0.914,-2.781 5.03,-5.383 2.938,-8.25 -1.719,-0.184 -3.277,-0.984 -4.719,-1.902 -1.738,-1.125 -3.66,-2.313 -5.844,-2.223 m 16.375,6.879 c 0.066,0.715 0.609,1.301 1.156,1.719 0.395,0.301 0.832,-0.367 0.465,-0.754 -0.426,-0.43 -0.945,-1.035 -1.625,-0.965 m 2.848,7.746 c -3.922,0.316 -6.824,4.277 -8.246,7.625 0.246,0.734 0.461,1.586 0.906,2.219 0.547,0.766 1.934,1.734 3.094,2.281 2.414,-2.18 5.367,-4.43 6.313,-7.777 0.516,-1.82 0.059,-4.531 -2.063,-4.348 M 2.2,43.314 c -0.727,0.008 -1.457,0.059 -2.184,0.094 l 0,4.59 6.25,0 C 6.161,46.435 5.793,44.935 5.36,43.475 4.305,43.334 3.262,43.311 2.204,43.319 m -0.004,0"
           id="path47"
           inkscape:connector-curvature="0"
           style="fill:#000000;fill-opacity:1;fill-rule:nonzero;stroke:none" />
        <path
           d="m 14,30 8,-9 2,-9 1.996,9 8,9 -8,0 0,3 3,3 -3,0 -1,-1 0,1 -1.996,0 0,-1 -1,1 -3,0 3,-3 0,-3 m -8,0"
           id="path49"
           inkscape:connector-curvature="0"
           style="fill:#000000;fill-opacity:1;fill-rule:nonzero;stroke:none" />
      </g>
    </g>
  </g>
  <g
     id="g55"
     transform="matrix(0.83357993,0,0,0.83357993,3.9939984,3.992667)">
    <path
       d="M 0,0 0,5.188 6.781,3.75 C 6.953,2.437 7.261,1.043 8,0 M 21,0 C 18.387,1.379 16.348,4.215 14.375,6.125 13.168,7.309 11.527,8.727 9.937,9.344 l -0.75,3.781 c 3.477,0.383 4.082,2.813 1.5,7.527 L 9.843,31.742 C 9.179,34.66 4.702,38.305 2.218,39.867 1.105,39.551 0.441,39.094 -0.001,38.558 l 0,4.03 c 0.664,-0.48 1.305,-1.07 2.156,-1.25 2.055,0.73 4.922,4.426 6.66,6.648 l 21.938,0 c 0.047,-1.188 0.277,-2.414 0.996,-3.375 0.914,-1.184 2.629,-2.438 2.848,-3.938 0.129,-0.93 -0.77,-1.574 -1.563,-2.125 -1.059,-0.715 -1.406,-2.324 -0.563,-3.406 l 0.375,-3.063 c 0.215,-3.543 -1.238,-6.164 -4,-8.03 l -5.469,-12.09 c 1.648,-1.5 2.922,-2.148 4.313,-2.852 -0.078,-2.715 -0.266,-7.27 -1.938,-9.125 m 8.148,0.004 c 0.398,1.227 1.398,2.754 4.625,4.223 0.711,-0.188 1.426,-0.305 2.156,-0.996 l 4.25,4.934 c -1.426,0.266 -4.113,0.031 -6.875,-0.25 -2.781,4 0.855,6.816 2.563,10 1.977,0.34 3.391,0.918 7.371,0.465 l 0,-18.375 -14.09,0 m -16.438,39.33 c 5.742,0.008 4.668,2.703 1.406,5.875 -2.633,0.27 -3.605,0.148 -4.5,0 -0.465,-1.887 -0.227,-3.645 1.844,-5.844 0.445,-0.023 0.867,-0.031 1.25,-0.031 m 19.781,0.598 c -0.207,0.004 -0.43,0.02 -0.621,0.063 -0.332,2.105 1.359,1.781 1.594,3.816 0.156,1.633 -0.375,2.957 -1.129,4.188 l 10.906,0 0,-4 c -2.5,-0.367 -4.352,-1.195 -6.527,-2.559 -1.043,-0.656 -2.75,-1.523 -4.223,-1.5 m 0,-0.008"
       id="path57"
       inkscape:connector-curvature="0"
       style="fill:#285935;fill-opacity:1;fill-rule:nonzero;stroke:none" />
    <path
       d="M 0,0 0,3.531 C 0.262,2.246 0.621,1.34 0.875,0.593 0.938,0.413 1.055,0.206 1.156,-0.001 m 38.813,0 c 0.133,0.988 0.426,1.969 0.5,2.969 0.164,1.867 0.902,3.215 2.625,4.03 1.711,0.82 3.512,2.406 4.906,3.883 l 0,-10.875 -8.03,0 m -36,2.559 C 2.993,2.624 1.626,3.151 0.845,3.874 0.595,4.097 0.302,4.233 0.001,4.374 l 0,13.938 c 0.637,0.184 1.281,0.34 1.938,0.434 0.879,0.141 1.762,0.207 2.656,0.156 1.973,-2.516 4.074,-4.281 5,-7.246 C 10.208,9.687 10.212,7.039 8.974,5.402 7.982,4.101 6.228,3.3 4.786,2.656 4.583,2.566 4.294,2.539 3.974,2.562 m 17.215,9.191 c -0.309,0.016 -0.613,0.055 -0.938,0.125 -1.176,0.965 -1.672,2.445 -2.219,3.813 -0.66,1.648 0.516,3.469 -0.313,4.965 -0.543,0.5 -1.383,0.652 -2.063,0.469 -2.68,-0.73 -5.648,-0.719 -8.219,0.531 l 0.031,0.5 c 0.328,2.336 0.688,4.746 1.75,6.844 0.691,1.367 0.992,2.953 1.152,4.438 0.219,1.902 -0.672,3.695 -0.625,5.563 3.625,-0.184 8.06,-0.121 9.531,1.344 1.563,1.57 -0.543,5.289 -2.281,7.656 l 8.441,0 c 0.512,-0.875 0.809,-2.02 0.875,-2.813 0.117,-1.449 -0.965,-1.813 -1.031,-3.094 -0.098,-2.105 1.777,-3.375 2.938,-4.875 1.289,-1.688 0.66,-4.23 -1.031,-5.566 0.594,-2.465 0.828,-5.063 1.625,-7.527 0.914,-2.781 5.03,-5.383 2.938,-8.25 -1.719,-0.184 -3.277,-0.984 -4.719,-1.902 -1.738,-1.125 -3.66,-2.313 -5.844,-2.223 m 16.375,6.879 c 0.066,0.715 0.609,1.301 1.156,1.719 0.395,0.301 0.832,-0.367 0.465,-0.754 -0.426,-0.43 -0.945,-1.035 -1.625,-0.965 m 2.848,7.746 c -3.922,0.316 -6.824,4.277 -8.246,7.625 0.246,0.734 0.461,1.586 0.906,2.219 0.547,0.766 1.934,1.734 3.094,2.281 2.414,-2.18 5.367,-4.43 6.313,-7.777 0.516,-1.82 0.059,-4.531 -2.063,-4.348 M 2.2,43.314 c -0.727,0.008 -1.457,0.059 -2.184,0.094 l 0,4.59 6.25,0 C 6.161,46.435 5.793,44.935 5.36,43.475 4.305,43.334 3.262,43.311 2.204,43.319 m -0.004,0"
       id="path59"
       inkscape:connector-curvature="0"
       style="fill:#b07845;fill-opacity:1;fill-rule:nonzero;stroke:none" />
    <path
       d="m 14,30 8,-9 2,-9 1.996,9 8,9 -8,0 0,3 3,3 -3,0 -1,-1 0,1 -1.996,0 0,-1 -1,1 -3,0 3,-3 0,-3 m -8,0"
       id="path61"
       inkscape:connector-curvature="0"
       style="fill:#ececeb;fill-opacity:1;fill-rule:nonzero;stroke:none" />
  </g>
  <path
     style="opacity:0.35;fill:#000000;fill-opacity:1;stroke:none"
     d="m 4.0000014,43.999717 39.9999966,3e-4 c -19.999997,-1 -19.999997,-1 -39.999998,0 z"
     id="path3800"
     inkscape:connector-curvature="0"
     sodipodi:nodetypes="cccc" />
  <path
     sodipodi:nodetypes="cccc"
     inkscape:connector-curvature="0"
     id="path3804"
     d="m 4.0000049,3.9999174 39.9999961,-2e-4 c -19.999996,1 -19.999996,1 -39.9999975,0 z"
     style="opacity:0.75;fill:#ffffff;fill-opacity:1;stroke:none" />
</svg>
