<?xml version="1.0" encoding="UTF-8" standalone="no"?>
<svg
   xmlns:dc="http://purl.org/dc/elements/1.1/"
   xmlns:cc="http://creativecommons.org/ns#"
   xmlns:rdf="http://www.w3.org/1999/02/22-rdf-syntax-ns#"
   xmlns:svg="http://www.w3.org/2000/svg"
   xmlns="http://www.w3.org/2000/svg"
   xmlns:xlink="http://www.w3.org/1999/xlink"
   xmlns:sodipodi="http://sodipodi.sourceforge.net/DTD/sodipodi-0.dtd"
   xmlns:inkscape="http://www.inkscape.org/namespaces/inkscape"
   viewBox="0 0 48 48"
   id="svg2"
   version="1.1"
   inkscape:version="0.48.5 r10040"
   width="100%"
   height="100%"
   sodipodi:docname="steam_icon_200900.svg">
  <metadata
     id="metadata93">
    <rdf:RDF>
      <cc:Work
         rdf:about="">
        <dc:format>image/svg+xml</dc:format>
        <dc:type
           rdf:resource="http://purl.org/dc/dcmitype/StillImage" />
      </cc:Work>
    </rdf:RDF>
  </metadata>
  <sodipodi:namedview
     pagecolor="#ffffff"
     bordercolor="#666666"
     borderopacity="1"
     objecttolerance="10"
     gridtolerance="10"
     guidetolerance="10"
     inkscape:pageopacity="0"
     inkscape:pageshadow="2"
     inkscape:window-width="1301"
     inkscape:window-height="744"
     id="namedview91"
     showgrid="true"
     inkscape:zoom="9.0450742"
     inkscape:cx="-3.5457915"
     inkscape:cy="26.877029"
     inkscape:window-x="65"
     inkscape:window-y="24"
     inkscape:window-maximized="1"
     inkscape:current-layer="svg2">
    <inkscape:grid
       type="xygrid"
       id="grid3091" />
  </sodipodi:namedview>
  <defs
     id="defs4">
    <linearGradient
       id="linearGradient3764"
       x1="1"
       x2="47"
       gradientUnits="userSpaceOnUse"
       gradientTransform="matrix(0,-1,1,0,-1.5e-6,47.999998)">
      <stop
         stop-color="#a5afa5"
         stop-opacity="1"
         id="stop7" />
      <stop
         offset="1"
         stop-color="#b0b9b0"
         stop-opacity="1"
         id="stop9"
         style="stop-color:#dae4da;stop-opacity:1;" />
    </linearGradient>
    <linearGradient
       y2="1028.3622"
       x2="44"
       y1="1028.3622"
       x1="4"
       gradientTransform="translate(-3.16e-6,-1004.362)"
       gradientUnits="userSpaceOnUse"
       id="linearGradient3102"
       xlink:href="#linearGradient3764"
       inkscape:collect="always" />
  </defs>
  <rect
     style="fill:url(#linearGradient3102);fill-opacity:1.0;stroke:none"
     id="rect3758"
     width="40"
     height="40"
     x="3.9999962"
     y="4.0002823"
     ry="0" />
  <g
     id="g33" />
  <g
     transform="translate(1,1)"
     id="g39">
    <g
       id="g41"
       style="opacity:0.1">
      <!-- color: #b0b9b0 -->
      <g
         id="g43">
        <path
           d="M 9.469,3 8.938,43 14.876,43 14.22,3 M 9.47,3"
           id="path45"
           inkscape:connector-curvature="0"
           style="fill:#000000;fill-opacity:1;fill-rule:nonzero;stroke:none" />
        <path
           d="m 7.398,20.465 c 0,3.301 1.871,4.559 4.574,4.68 2.609,-0.043 4.422,-1.113 4.527,-4.398 0.012,-3.688 -2.25,-4.359 -4.703,-4.781 -4.52,0.625 -4.289,1.934 -4.398,4.5 m 0,0"
           id="path47"
           inkscape:connector-curvature="0"
           style="fill:#000000;fill-opacity:1;fill-rule:nonzero;stroke:none" />
        <path
           d="M 33.719,3 33.188,43 38.876,43 38.313,3 M 33.719,3"
           id="path49"
           inkscape:connector-curvature="0"
           style="fill:#000000;fill-opacity:1;fill-rule:nonzero;stroke:none" />
        <path
           d="m 15.461,30.992 c 3.566,9.305 14.578,8.266 16.574,-0.105 -5.387,-0.426 -10.902,-0.426 -16.574,0.105 m 0,0"
           id="path51"
           inkscape:connector-curvature="0"
           style="fill:#000000;fill-opacity:1;fill-rule:nonzero;stroke:none" />
        <path
           d="m 40.449,20.547 c 0,3.301 -1.883,4.559 -4.602,4.68 -2.621,-0.043 -4.445,-1.113 -4.555,-4.398 -0.012,-4.387 2.266,-4.359 4.73,-4.781 4.547,0.629 4.313,1.934 4.426,4.5 m 0,0"
           id="path53"
           inkscape:connector-curvature="0"
           style="fill:#000000;fill-opacity:1;fill-rule:nonzero;stroke:none" />
        <path
           d="m 34.719,17.5 c -0.246,0 -0.469,0.402 -0.625,1.031 0.086,-0.055 0.172,-0.125 0.281,-0.125 0.301,0 0.531,0.262 0.531,0.563 0,0.301 -0.23,0.531 -0.531,0.531 -0.184,0 -0.34,-0.078 -0.438,-0.219 -0.063,0.457 -0.094,0.949 -0.094,1.5 0,1.824 0.398,3.313 0.875,3.313 0.477,0 0.844,-1.488 0.844,-3.313 0,-1.824 -0.367,-3.281 -0.844,-3.281 m -0.156,2.844 c 0.16,0 0.313,0.121 0.313,0.281 0,0.16 -0.148,0.313 -0.313,0.313 -0.16,0 -0.281,-0.152 -0.281,-0.313 0,-0.16 0.121,-0.281 0.281,-0.281 m 0.594,0.906 c 0.125,0 0.219,0.094 0.219,0.219 0,0.125 -0.09,0.25 -0.219,0.25 -0.125,0 -0.25,-0.125 -0.25,-0.25 0,-0.125 0.125,-0.219 0.25,-0.219 m 0,0"
           id="path55"
           inkscape:connector-curvature="0"
           style="fill:#000000;fill-opacity:1;fill-rule:nonzero;stroke:none" />
        <path
           d="m 12.785,17.406 c -0.246,0 -0.469,0.398 -0.625,1.031 0.086,-0.055 0.176,-0.125 0.281,-0.125 0.301,0 0.531,0.262 0.531,0.563 0,0.301 -0.23,0.531 -0.531,0.531 -0.184,0 -0.34,-0.078 -0.438,-0.219 -0.063,0.457 -0.09,0.945 -0.09,1.5 0,1.824 0.395,3.313 0.875,3.313 0.477,0 0.844,-1.488 0.844,-3.313 0,-1.828 -0.367,-3.281 -0.844,-3.281 m -0.16,2.844 c 0.164,0 0.313,0.121 0.313,0.281 0,0.16 -0.152,0.309 -0.313,0.309 -0.164,0 -0.281,-0.152 -0.281,-0.309 0,-0.164 0.121,-0.281 0.281,-0.281 m 0.594,0.906 c 0.129,0 0.219,0.094 0.219,0.219 0,0.129 -0.09,0.254 -0.219,0.254 -0.125,0 -0.25,-0.125 -0.25,-0.254 0,-0.125 0.125,-0.219 0.25,-0.219 m 0,0"
           id="path57"
           inkscape:connector-curvature="0"
           style="fill:#000000;fill-opacity:1;fill-rule:nonzero;stroke:none" />
        <path
           d="m 7.383,19.301 c 0.832,-1.039 2.266,-2.789 4.664,-2.914 2.168,0.047 3.844,1.703 4.395,2.633 l 0.039,-1.758 c -0.578,-1.184 -2.227,-1.98 -4.602,-1.848 -4.496,0.383 -4.813,2.203 -5.137,2.871 m 0.641,1.016"
           id="path59"
           inkscape:connector-curvature="0"
           style="fill:#000000;fill-opacity:1;fill-rule:nonzero;stroke:none" />
        <path
           d="m 31.34,19.02 -0.016,-1.773 c 0.75,-1.289 2.305,-1.969 4.93,-1.844 1.922,0.363 3.883,0.656 4.75,2.922 l -0.609,0.953 c -1.281,-1.684 -2.691,-2.715 -4.266,-2.859 -3.176,0.035 -4.01,1.461 -4.789,2.602 m 0,0"
           id="path61"
           inkscape:connector-curvature="0"
           style="fill:#000000;fill-opacity:1;fill-rule:nonzero;stroke:none" />
      </g>
    </g>
  </g>
  <g
     id="g67">
    <path
       d="M 9.469,4 8.938,44 14.876,44 14.22,4 M 9.47,4"
       id="path69"
       inkscape:connector-curvature="0"
       style="fill:#947f62;fill-opacity:1;fill-rule:nonzero;stroke:none" />
    <path
       d="m 7.398,20.465 c 0,3.301 1.871,4.559 4.574,4.68 2.609,-0.043 4.422,-1.113 4.527,-4.398 0.012,-3.688 -2.25,-4.359 -4.703,-4.781 -4.52,0.625 -4.289,1.934 -4.398,4.5 m 0,0"
       id="path71"
       inkscape:connector-curvature="0"
       style="fill:#f9f9f9;fill-opacity:1;fill-rule:nonzero;stroke:none" />
    <path
       d="M 33.719,4 33.188,44 38.876,44 38.313,4 M 33.719,4"
       id="path73"
       inkscape:connector-curvature="0"
       style="fill:#947f62;fill-opacity:1;fill-rule:nonzero;stroke:none" />
    <path
       d="m 15.461,30.992 c 3.566,9.305 14.578,8.266 16.574,-0.105 -5.387,-0.426 -10.902,-0.426 -16.574,0.105 m 0,0"
       id="path75"
       inkscape:connector-curvature="0"
       style="fill:#2d2d2d;fill-opacity:1;fill-rule:nonzero;stroke:none" />
    <path
       d="m 40.449,20.547 c 0,3.301 -1.883,4.559 -4.602,4.68 -2.621,-0.043 -4.445,-1.113 -4.555,-4.398 -0.012,-4.387 2.266,-4.359 4.73,-4.781 4.547,0.629 4.313,1.934 4.426,4.5 m 0,0"
       id="path77"
       inkscape:connector-curvature="0"
       style="fill:#f9f9f9;fill-opacity:1;fill-rule:nonzero;stroke:none" />
    <path
       d="m 34.719,17.5 c -0.246,0 -0.469,0.402 -0.625,1.031 0.086,-0.055 0.172,-0.125 0.281,-0.125 0.301,0 0.531,0.262 0.531,0.563 0,0.301 -0.23,0.531 -0.531,0.531 -0.184,0 -0.34,-0.078 -0.438,-0.219 -0.063,0.457 -0.094,0.949 -0.094,1.5 0,1.824 0.398,3.313 0.875,3.313 0.477,0 0.844,-1.488 0.844,-3.313 0,-1.824 -0.367,-3.281 -0.844,-3.281 m -0.156,2.844 c 0.16,0 0.313,0.121 0.313,0.281 0,0.16 -0.148,0.313 -0.313,0.313 -0.16,0 -0.281,-0.152 -0.281,-0.313 0,-0.16 0.121,-0.281 0.281,-0.281 m 0.594,0.906 c 0.125,0 0.219,0.094 0.219,0.219 0,0.125 -0.09,0.25 -0.219,0.25 -0.125,0 -0.25,-0.125 -0.25,-0.25 0,-0.125 0.125,-0.219 0.25,-0.219 m 0,0"
       id="path79"
       inkscape:connector-curvature="0"
       style="fill:#2d2d2d;fill-opacity:1;fill-rule:nonzero;stroke:none" />
    <path
       d="m 12.785,17.406 c -0.246,0 -0.469,0.398 -0.625,1.031 0.086,-0.055 0.176,-0.125 0.281,-0.125 0.301,0 0.531,0.262 0.531,0.563 0,0.301 -0.23,0.531 -0.531,0.531 -0.184,0 -0.34,-0.078 -0.438,-0.219 -0.063,0.457 -0.09,0.945 -0.09,1.5 0,1.824 0.395,3.313 0.875,3.313 0.477,0 0.844,-1.488 0.844,-3.313 0,-1.828 -0.367,-3.281 -0.844,-3.281 m -0.16,2.844 c 0.164,0 0.313,0.121 0.313,0.281 0,0.16 -0.152,0.309 -0.313,0.309 -0.164,0 -0.281,-0.152 -0.281,-0.309 0,-0.164 0.121,-0.281 0.281,-0.281 m 0.594,0.906 c 0.129,0 0.219,0.094 0.219,0.219 0,0.129 -0.09,0.254 -0.219,0.254 -0.125,0 -0.25,-0.125 -0.25,-0.254 0,-0.125 0.125,-0.219 0.25,-0.219 m 0,0"
       id="path81"
       inkscape:connector-curvature="0"
       style="fill:#2d2d2d;fill-opacity:1;fill-rule:nonzero;stroke:none" />
    <path
       d="m 7.383,19.301 c 0.832,-1.039 2.266,-2.789 4.664,-2.914 2.168,0.047 3.844,1.703 4.395,2.633 l 0.039,-1.758 c -0.578,-1.184 -2.227,-1.98 -4.602,-1.848 -4.496,0.383 -4.813,2.203 -5.137,2.871 m 0.641,1.016"
       id="path83"
       inkscape:connector-curvature="0"
       style="fill:#2d2d2d;fill-opacity:1;fill-rule:nonzero;stroke:none" />
    <path
       d="m 31.34,19.02 -0.016,-1.773 c 0.75,-1.289 2.305,-1.969 4.93,-1.844 1.922,0.363 3.883,0.656 4.75,2.922 l -0.609,0.953 c -1.281,-1.684 -2.691,-2.715 -4.266,-2.859 -3.176,0.035 -4.01,1.461 -4.789,2.602 m 0,0"
       id="path85"
       inkscape:connector-curvature="0"
       style="fill:#2d2d2d;fill-opacity:1;fill-rule:nonzero;stroke:none" />
  </g>
  <path
     style="opacity:0.35;fill:#000000;fill-opacity:1;stroke:none"
     d="m 3.9999979,44 39.9999971,3e-4 c -19.999997,-1 -19.999997,-1 -39.9999985,0 z"
     id="path3800"
     inkscape:connector-curvature="0"
     sodipodi:nodetypes="cccc" />
  <path
     sodipodi:nodetypes="cccc"
     inkscape:connector-curvature="0"
     id="path3804"
     d="M 4.0000014,4.0002 43.999998,4 C 24.000002,5 24.000002,5 4,4 z"
     style="opacity:0.75;fill:#ffffff;fill-opacity:1;stroke:none" />
</svg>
