<?xml version="1.0" encoding="UTF-8" standalone="no"?>
<svg
   xmlns:dc="http://purl.org/dc/elements/1.1/"
   xmlns:cc="http://creativecommons.org/ns#"
   xmlns:rdf="http://www.w3.org/1999/02/22-rdf-syntax-ns#"
   xmlns:svg="http://www.w3.org/2000/svg"
   xmlns="http://www.w3.org/2000/svg"
   xmlns:xlink="http://www.w3.org/1999/xlink"
   xmlns:sodipodi="http://sodipodi.sourceforge.net/DTD/sodipodi-0.dtd"
   xmlns:inkscape="http://www.inkscape.org/namespaces/inkscape"
   viewBox="0 0 48 48"
   id="svg2"
   version="1.1"
   inkscape:version="0.48.5 r10040"
   width="100%"
   height="100%"
   sodipodi:docname="steam_icon_60.svg">
  <metadata
     id="metadata81">
    <rdf:RDF>
      <cc:Work
         rdf:about="">
        <dc:format>image/svg+xml</dc:format>
        <dc:type
           rdf:resource="http://purl.org/dc/dcmitype/StillImage" />
      </cc:Work>
    </rdf:RDF>
  </metadata>
  <sodipodi:namedview
     pagecolor="#ffffff"
     bordercolor="#666666"
     borderopacity="1"
     objecttolerance="10"
     gridtolerance="10"
     guidetolerance="10"
     inkscape:pageopacity="0"
     inkscape:pageshadow="2"
     inkscape:window-width="1301"
     inkscape:window-height="744"
     id="namedview79"
     showgrid="true"
     inkscape:zoom="6.3958333"
     inkscape:cx="22.576099"
     inkscape:cy="13.269247"
     inkscape:window-x="65"
     inkscape:window-y="24"
     inkscape:window-maximized="1"
     inkscape:current-layer="svg2">
    <inkscape:grid
       type="xygrid"
       id="grid3079" />
  </sodipodi:namedview>
  <defs
     id="defs4">
    <linearGradient
       id="linearGradient3764"
       x1="1"
       x2="47"
       gradientUnits="userSpaceOnUse"
       gradientTransform="matrix(0,-1,1,0,-1.5e-6,47.999998)">
      <stop
         stop-color="#404040"
         stop-opacity="1"
         id="stop7" />
      <stop
         offset="1"
         stop-color="#4a4a4a"
         stop-opacity="1"
         id="stop9"
         style="stop-color:#767676;stop-opacity:1;" />
    </linearGradient>
    <clipPath
       id="clipPath-008643807">
      <g
         transform="translate(0,-1004.3622)"
         id="g12">
        <path
           d="m -24 13 c 0 1.105 -0.672 2 -1.5 2 -0.828 0 -1.5 -0.895 -1.5 -2 0 -1.105 0.672 -2 1.5 -2 0.828 0 1.5 0.895 1.5 2 z"
           transform="matrix(15.333333,0,0,11.5,414.99999,878.8622)"
           fill="#1890d0"
           id="path14" />
      </g>
    </clipPath>
    <clipPath
       id="clipPath-017677728">
      <g
         transform="translate(0,-1004.3622)"
         id="g17">
        <path
           d="m -24 13 c 0 1.105 -0.672 2 -1.5 2 -0.828 0 -1.5 -0.895 -1.5 -2 0 -1.105 0.672 -2 1.5 -2 0.828 0 1.5 0.895 1.5 2 z"
           transform="matrix(15.333333,0,0,11.5,414.99999,878.8622)"
           fill="#1890d0"
           id="path19" />
      </g>
    </clipPath>
    <linearGradient
       y2="1028.3622"
       x2="44"
       y1="1028.3622"
       x1="4"
       gradientTransform="translate(-3.77e-6,-1004.3619)"
       gradientUnits="userSpaceOnUse"
       id="linearGradient3121"
       xlink:href="#linearGradient3764"
       inkscape:collect="always" />
  </defs>
  <rect
     style="fill:url(#linearGradient3121);fill-opacity:1.0;stroke:none"
     id="rect3758"
     width="40"
     height="40"
     x="3.9999964"
     y="4.0002828"
     ry="0" />
  <path
     style="opacity:0.35;fill:#000000;fill-opacity:1;stroke:none"
     d="m 3.9999979,44 39.9999971,3e-4 c -19.999997,-1 -19.999997,-1 -39.9999985,0 z"
     id="path3800"
     inkscape:connector-curvature="0"
     sodipodi:nodetypes="cccc" />
  <path
     sodipodi:nodetypes="cccc"
     inkscape:connector-curvature="0"
     id="path3804"
     d="M 4.0000014,4.0002 43.999998,4 C 24.000002,5 24.000002,5 4,4 z"
     style="opacity:0.75;fill:#ffffff;fill-opacity:1;stroke:none" />
  <g
     id="g33" />
  <g
     id="g35">
    <g
       clip-path="url(#clipPath-008643807)"
       id="g37">
      <g
         transform="translate(1,1)"
         id="g39">
        <g
           opacity="0.1"
           id="g41">
          <!-- color: #4a4a4a -->
          <g
             id="g43">
            <path
               d="m 24.19 9 l 0 3.625 c 2.063 0.035 4 0.602 5.656 1.594 l 1.813 -3.094 c -2.195 -1.309 -4.738 -2.09 -7.469 -2.125 m 9.25 3.375 c 0.281 0.227 0.547 0.473 0.813 0.719 c -0.266 -0.25 -0.531 -0.488 -0.813 -0.719 m 1.875 1.813 c 0.137 0.164 0.273 0.332 0.406 0.5 c -0.137 -0.168 -0.273 -0.336 -0.406 -0.5 m 2.156 3.25 l -2.066 0.563 c 1.469 2.43 1.352 3.57 1.598 5 c 0.238 2.953 -0.375 4.488 -1 6 l -1.781 0 c -0.871 1.777 -2.188 3.301 -3.816 4.406 l 2.223 2.844 c 3.844 -2.715 6.375 -7.184 6.375 -12.25 c 0 -2.355 -0.563 -4.578 -1.531 -6.563 m -2.281 0.625 l -1.281 0.375 c 0.012 0.02 0.02 0.043 0.031 0.063 m 1.25 -0.438"
               fill="#000"
               stroke="none"
               fill-rule="nonzero"
               fill-opacity="1"
               id="path45" />
            <path
               d="m 18.13 15.406 c -1.195 0.824 -2.203 1.883 -2.969 3.125 l 1.25 0.625 c -0.887 1.398 -1.406 3.063 -1.406 4.844 c 0 1.379 0.324 2.676 0.875 3.844 l -1.281 0.625 c 0.086 0.18 0.188 0.359 0.281 0.531 l -0.063 0 c 0.258 0.469 0.582 0.891 0.906 1.313 c 0.742 0.957 1.633 1.785 2.656 2.438 c 1.625 1.035 3.543 1.656 5.625 1.656 c 0.262 0 0.523 -0.012 0.781 -0.031 c 0.254 -0.02 0.5 -0.059 0.75 -0.094 c 0.148 -0.023 0.289 -0.035 0.438 -0.063 c 0.094 -0.02 0.188 -0.043 0.281 -0.063 c 0.219 -0.051 0.441 -0.094 0.656 -0.156 c 0.023 -0.008 0.039 -0.023 0.063 -0.031 c 0.91 -0.27 1.773 -0.668 2.563 -1.156 l -1.406 -2 l -0.094 -0.125 c -1.176 0.711 -2.555 1.125 -4.03 1.125 l 0 1.188 c -1.73 0 -3.355 -0.5 -4.73 -1.344 l 0.75 -0.938 c -0.02 -0.012 -0.043 -0.02 -0.063 -0.031 c -0.113 -0.07 -0.23 -0.141 -0.344 -0.219 c -0.258 -0.172 -0.484 -0.359 -0.719 -0.563 c -0.273 -0.238 -0.543 -0.508 -0.781 -0.781 c -0.211 -0.242 -0.41 -0.48 -0.594 -0.75 c -0.012 -0.02 -0.02 -0.043 -0.031 -0.063 c -0.02 -0.031 -0.039 -0.063 -0.063 -0.094 c -0.176 -0.277 -0.328 -0.578 -0.469 -0.875 c -0.004 -0.016 -0.023 -0.02 -0.031 -0.031 c -0.473 -1.012 -0.75 -2.125 -0.75 -3.313 c 0 -1.586 0.473 -3.059 1.281 -4.281 c 0.02 -0.031 0.043 -0.063 0.063 -0.094 c 0.117 -0.172 0.246 -0.34 0.375 -0.5 c 0.281 -0.352 0.602 -0.672 0.938 -0.969 c 0.035 -0.031 0.063 -0.066 0.094 -0.094 c 0.191 -0.164 0.391 -0.328 0.594 -0.469 c 0.008 -0.008 0.027 0.004 0.031 0 l -0.656 -1.031 c -0.012 0.008 -0.016 0.023 -0.02 0.031 l -0.75 -1.191 m 16.27 9.785 c -0.047 0.402 -0.125 0.801 -0.219 1.188 c 0.094 -0.391 0.172 -0.781 0.219 -1.188 m -0.219 1.188 c -0.074 0.32 -0.145 0.629 -0.25 0.938 c 0.102 -0.301 0.176 -0.625 0.25 -0.938 m -1.375 3.219 c -0.211 0.324 -0.441 0.641 -0.688 0.938 c 0.246 -0.301 0.477 -0.609 0.688 -0.938 m -0.688 0.938 c -0.367 0.449 -0.75 0.871 -1.188 1.25 c 0.434 -0.379 0.824 -0.805 1.188 -1.25 m 0 0"
               fill="#000"
               stroke="none"
               fill-rule="nonzero"
               fill-opacity="1"
               id="path47" />
            <path
               d="m 31.656 11.125 l -1.813 3.094 c 1.695 1.02 3.09 2.492 4.063 4.219 l 1.281 -0.375 l 0.219 -0.063 l 2.063 -0.563 c -1.285 -2.629 -3.313 -4.82 -5.813 -6.313 m 0 0"
               fill="#000"
               stroke="none"
               fill-rule="nonzero"
               fill-opacity="1"
               id="path49" />
            <path
               d="m 23.813 9 c -5.629 0.07 -10.523 3.23 -13.03 7.875 l 1.531 0.813 c 0.992 -1.84 2.418 -3.406 4.125 -4.594 l 1.281 1.438 c 1.754 -1.164 3.836 -1.867 6.094 -1.906 m 0 -3.625"
               fill="#000"
               stroke="none"
               fill-rule="nonzero"
               fill-opacity="1"
               id="path51" />
            <path
               d="m 9.03 23 c -0.023 0.332 -0.031 0.66 -0.031 1 c 0 2.219 0.508 4.324 1.375 6.219 l 1.625 -0.75 c 2.707 5.16 6 7.207 12 7.781 l 0 1.75 c 3.066 0 5.906 -0.922 8.281 -2.5 l -2.219 -2.875 c -1.754 1.105 -3.836 1.75 -6.06 1.75 c -6.285 0 -11.375 -5.09 -11.375 -11.375 c 0 -0.34 0.035 -0.668 0.063 -1 m -3.656 0"
               fill="#000"
               stroke="none"
               fill-rule="nonzero"
               fill-opacity="1"
               id="path53" />
            <path
               d="m 24 13.594 l 0 2.594 c 0.332 0 0.648 0.023 0.969 0.063 c 0.02 0.004 0.043 -0.004 0.063 0 c 0.035 0.004 0.063 0.027 0.094 0.031 c 0.309 0.047 0.613 0.109 0.906 0.188 c 0.23 0.063 0.465 0.137 0.688 0.219 c 0.094 0.035 0.191 0.059 0.281 0.094 c 0.246 0.105 0.488 0.227 0.719 0.355 c 0.055 0.02 0.105 0.063 0.156 0.094 c 0.949 0.543 1.762 1.281 2.406 2.156 c 0.211 0.277 0.422 0.59 0.594 0.895 c 0.023 0.043 0.043 0.086 0.063 0.125 c 0.098 0.191 0.172 0.375 0.25 0.566 c 0.082 0.184 0.156 0.367 0.219 0.563 c 0.023 0.059 0.047 0.105 0.066 0.156 c 0.043 0.148 0.086 0.289 0.125 0.441 c 0.023 0.102 0.039 0.207 0.063 0.313 c 0.023 0.102 0.043 0.188 0.066 0.281 c 0.02 0.16 0.047 0.305 0.063 0.469 c 0.027 0.266 0.031 0.543 0.031 0.816 c 0 1.465 -0.422 2.828 -1.125 4 l 1.375 0 c -0.742 1.496 -1.906 2.742 -3.313 3.625 l -0.625 -0.816 l 1.402 2 c 2.648 -1.637 4.5 -4.395 4.875 -7.625 c -0.023 0.02 -0.063 0.02 -0.094 0.031 c 0.043 -0.398 0.094 -0.813 0.094 -1.219 c 0 -1.938 -0.523 -3.734 -1.438 -5.281 l -1.441 0.344 c -0.746 -1.137 -1.766 -2.082 -2.938 -2.781 l 0.844 -1.125 c -1.582 -0.977 -3.434 -1.563 -5.438 -1.563 m 0 -0.004"
               fill="#000"
               stroke="none"
               fill-rule="nonzero"
               fill-opacity="1"
               id="path55" />
          </g>
        </g>
      </g>
    </g>
  </g>
  <g
     id="g57">
    <g
       clip-path="url(#clipPath-017677728)"
       id="g59">
      <!-- color: #4a4a4a -->
      <g
         id="g61">
        <path
           d="m 24.19 9 l 0 3.625 c 2.063 0.035 4 0.602 5.656 1.594 l 1.813 -3.094 c -2.195 -1.309 -4.738 -2.09 -7.469 -2.125 m 9.25 3.375 c 0.281 0.227 0.547 0.473 0.813 0.719 c -0.266 -0.25 -0.531 -0.488 -0.813 -0.719 m 1.875 1.813 c 0.137 0.164 0.273 0.332 0.406 0.5 c -0.137 -0.168 -0.273 -0.336 -0.406 -0.5 m 2.156 3.25 l -2.066 0.563 c 1.469 2.43 1.352 3.57 1.598 5 c 0.238 2.953 -0.375 4.488 -1 6 l -1.781 0 c -0.871 1.777 -2.188 3.301 -3.816 4.406 l 2.223 2.844 c 3.844 -2.715 6.375 -7.184 6.375 -12.25 c 0 -2.355 -0.563 -4.578 -1.531 -6.563 m -2.281 0.625 l -1.281 0.375 c 0.012 0.02 0.02 0.043 0.031 0.063 m 1.25 -0.438"
           fill="#d64936"
           stroke="none"
           fill-rule="nonzero"
           fill-opacity="1"
           id="path63" />
        <path
           d="m 18.13 15.406 c -1.195 0.824 -2.203 1.883 -2.969 3.125 l 1.25 0.625 c -0.887 1.398 -1.406 3.063 -1.406 4.844 c 0 1.379 0.324 2.676 0.875 3.844 l -1.281 0.625 c 0.086 0.18 0.188 0.359 0.281 0.531 l -0.063 0 c 0.258 0.469 0.582 0.891 0.906 1.313 c 0.742 0.957 1.633 1.785 2.656 2.438 c 1.625 1.035 3.543 1.656 5.625 1.656 c 0.262 0 0.523 -0.012 0.781 -0.031 c 0.254 -0.02 0.5 -0.059 0.75 -0.094 c 0.148 -0.023 0.289 -0.035 0.438 -0.063 c 0.094 -0.02 0.188 -0.043 0.281 -0.063 c 0.219 -0.051 0.441 -0.094 0.656 -0.156 c 0.023 -0.008 0.039 -0.023 0.063 -0.031 c 0.91 -0.27 1.773 -0.668 2.563 -1.156 l -1.406 -2 l -0.094 -0.125 c -1.176 0.711 -2.555 1.125 -4.03 1.125 l 0 1.188 c -1.73 0 -3.355 -0.5 -4.73 -1.344 l 0.75 -0.938 c -0.02 -0.012 -0.043 -0.02 -0.063 -0.031 c -0.113 -0.07 -0.23 -0.141 -0.344 -0.219 c -0.258 -0.172 -0.484 -0.359 -0.719 -0.563 c -0.273 -0.238 -0.543 -0.508 -0.781 -0.781 c -0.211 -0.242 -0.41 -0.48 -0.594 -0.75 c -0.012 -0.02 -0.02 -0.043 -0.031 -0.063 c -0.02 -0.031 -0.039 -0.063 -0.063 -0.094 c -0.176 -0.277 -0.328 -0.578 -0.469 -0.875 c -0.004 -0.016 -0.023 -0.02 -0.031 -0.031 c -0.473 -1.012 -0.75 -2.125 -0.75 -3.313 c 0 -1.586 0.473 -3.059 1.281 -4.281 c 0.02 -0.031 0.043 -0.063 0.063 -0.094 c 0.117 -0.172 0.246 -0.34 0.375 -0.5 c 0.281 -0.352 0.602 -0.672 0.938 -0.969 c 0.035 -0.031 0.063 -0.066 0.094 -0.094 c 0.191 -0.164 0.391 -0.328 0.594 -0.469 c 0.008 -0.008 0.027 0.004 0.031 0 l -0.656 -1.031 c -0.012 0.008 -0.016 0.023 -0.02 0.031 l -0.75 -1.191 m 16.27 9.785 c -0.047 0.402 -0.125 0.801 -0.219 1.188 c 0.094 -0.391 0.172 -0.781 0.219 -1.188 m -0.219 1.188 c -0.074 0.32 -0.145 0.629 -0.25 0.938 c 0.102 -0.301 0.176 -0.625 0.25 -0.938 m -1.375 3.219 c -0.211 0.324 -0.441 0.641 -0.688 0.938 c 0.246 -0.301 0.477 -0.609 0.688 -0.938 m -0.688 0.938 c -0.367 0.449 -0.75 0.871 -1.188 1.25 c 0.434 -0.379 0.824 -0.805 1.188 -1.25 m 0 0"
           fill="#d64936"
           stroke="none"
           fill-rule="nonzero"
           fill-opacity="1"
           id="path65" />
        <path
           d="m 31.656 11.125 l -1.813 3.094 c 1.695 1.02 3.09 2.492 4.063 4.219 l 1.281 -0.375 l 0.219 -0.063 l 2.063 -0.563 c -1.285 -2.629 -3.313 -4.82 -5.813 -6.313 m 0 0"
           fill="#3d9ade"
           stroke="none"
           fill-rule="nonzero"
           fill-opacity="1"
           id="path67" />
        <path
           d="m 23.813 9 c -5.629 0.07 -10.523 3.23 -13.03 7.875 l 1.531 0.813 c 0.992 -1.84 2.418 -3.406 4.125 -4.594 l 1.281 1.438 c 1.754 -1.164 3.836 -1.867 6.094 -1.906 m 0 -3.625"
           fill="#3d9ade"
           stroke="none"
           fill-rule="nonzero"
           fill-opacity="1"
           id="path69" />
        <path
           d="m 9.03 23 c -0.023 0.332 -0.031 0.66 -0.031 1 c 0 2.219 0.508 4.324 1.375 6.219 l 1.625 -0.75 c 2.707 5.16 6 7.207 12 7.781 l 0 1.75 c 3.066 0 5.906 -0.922 8.281 -2.5 l -2.219 -2.875 c -1.754 1.105 -3.836 1.75 -6.06 1.75 c -6.285 0 -11.375 -5.09 -11.375 -11.375 c 0 -0.34 0.035 -0.668 0.063 -1 m -3.656 0"
           fill="#3d9ade"
           stroke="none"
           fill-rule="nonzero"
           fill-opacity="1"
           id="path71" />
        <path
           d="m 24 13.594 l 0 2.594 c 0.332 0 0.648 0.023 0.969 0.063 c 0.02 0.004 0.043 -0.004 0.063 0 c 0.035 0.004 0.063 0.027 0.094 0.031 c 0.309 0.047 0.613 0.109 0.906 0.188 c 0.23 0.063 0.465 0.137 0.688 0.219 c 0.094 0.035 0.191 0.059 0.281 0.094 c 0.246 0.105 0.488 0.227 0.719 0.355 c 0.055 0.02 0.105 0.063 0.156 0.094 c 0.949 0.543 1.762 1.281 2.406 2.156 c 0.211 0.277 0.422 0.59 0.594 0.895 c 0.023 0.043 0.043 0.086 0.063 0.125 c 0.098 0.191 0.172 0.375 0.25 0.566 c 0.082 0.184 0.156 0.367 0.219 0.563 c 0.023 0.059 0.047 0.105 0.066 0.156 c 0.043 0.148 0.086 0.289 0.125 0.441 c 0.023 0.102 0.039 0.207 0.063 0.313 c 0.023 0.102 0.043 0.188 0.066 0.281 c 0.02 0.16 0.047 0.305 0.063 0.469 c 0.027 0.266 0.031 0.543 0.031 0.816 c 0 1.465 -0.422 2.828 -1.125 4 l 1.375 0 c -0.742 1.496 -1.906 2.742 -3.313 3.625 l -0.625 -0.816 l 1.402 2 c 2.648 -1.637 4.5 -4.395 4.875 -7.625 c -0.023 0.02 -0.063 0.02 -0.094 0.031 c 0.043 -0.398 0.094 -0.813 0.094 -1.219 c 0 -1.938 -0.523 -3.734 -1.438 -5.281 l -1.441 0.344 c -0.746 -1.137 -1.766 -2.082 -2.938 -2.781 l 0.844 -1.125 c -1.582 -0.977 -3.434 -1.563 -5.438 -1.563 m 0 -0.004"
           fill="#3d9ade"
           stroke="none"
           fill-rule="nonzero"
           fill-opacity="1"
           id="path73" />
      </g>
    </g>
  </g>
</svg>
