<?xml version="1.0" encoding="UTF-8" standalone="no"?>
<svg
   xmlns:dc="http://purl.org/dc/elements/1.1/"
   xmlns:cc="http://creativecommons.org/ns#"
   xmlns:rdf="http://www.w3.org/1999/02/22-rdf-syntax-ns#"
   xmlns:svg="http://www.w3.org/2000/svg"
   xmlns="http://www.w3.org/2000/svg"
   xmlns:xlink="http://www.w3.org/1999/xlink"
   xmlns:sodipodi="http://sodipodi.sourceforge.net/DTD/sodipodi-0.dtd"
   xmlns:inkscape="http://www.inkscape.org/namespaces/inkscape"
   viewBox="0 0 48 48"
   id="svg2"
   version="1.1"
   inkscape:version="0.48.5 r10040"
   width="100%"
   height="100%"
   sodipodi:docname="steam_icon_107800.svg">
  <metadata
     id="metadata61">
    <rdf:RDF>
      <cc:Work
         rdf:about="">
        <dc:format>image/svg+xml</dc:format>
        <dc:type
           rdf:resource="http://purl.org/dc/dcmitype/StillImage" />
      </cc:Work>
    </rdf:RDF>
  </metadata>
  <sodipodi:namedview
     pagecolor="#ffffff"
     bordercolor="#666666"
     borderopacity="1"
     objecttolerance="10"
     gridtolerance="10"
     guidetolerance="10"
     inkscape:pageopacity="0"
     inkscape:pageshadow="2"
     inkscape:window-width="1301"
     inkscape:window-height="744"
     id="namedview59"
     showgrid="true"
     inkscape:zoom="6.3958333"
     inkscape:cx="44.14396"
     inkscape:cy="18.394963"
     inkscape:window-x="65"
     inkscape:window-y="24"
     inkscape:window-maximized="1"
     inkscape:current-layer="svg2">
    <inkscape:grid
       type="xygrid"
       id="grid3059" />
  </sodipodi:namedview>
  <defs
     id="defs4">
    <linearGradient
       id="linearGradient3764"
       x1="1"
       x2="47"
       gradientUnits="userSpaceOnUse"
       gradientTransform="matrix(0,-1,1,0,-1.5e-6,47.999998)">
      <stop
         stop-color="#333343"
         stop-opacity="1"
         id="stop7" />
      <stop
         offset="1"
         stop-color="#3b3b4e"
         stop-opacity="1"
         id="stop9"
         style="stop-color:#646464;stop-opacity:1;" />
    </linearGradient>
    <clipPath
       id="clipPath-896558291">
      <g
         transform="translate(0,-1004.3622)"
         id="g12">
        <path
           d="m -24 13 c 0 1.105 -0.672 2 -1.5 2 -0.828 0 -1.5 -0.895 -1.5 -2 0 -1.105 0.672 -2 1.5 -2 0.828 0 1.5 0.895 1.5 2 z"
           transform="matrix(15.333333,0,0,11.5,414.99999,878.8622)"
           fill="#1890d0"
           id="path14" />
      </g>
    </clipPath>
    <clipPath
       id="clipPath-907069665">
      <g
         transform="translate(0,-1004.3622)"
         id="g17">
        <path
           d="m -24 13 c 0 1.105 -0.672 2 -1.5 2 -0.828 0 -1.5 -0.895 -1.5 -2 0 -1.105 0.672 -2 1.5 -2 0.828 0 1.5 0.895 1.5 2 z"
           transform="matrix(15.333333,0,0,11.5,414.99999,878.8622)"
           fill="#1890d0"
           id="path19" />
      </g>
    </clipPath>
    <linearGradient
       y2="1028.3622"
       x2="44"
       y1="1028.3622"
       x1="4"
       gradientTransform="translate(6.9156494e-7,-1004.3622)"
       gradientUnits="userSpaceOnUse"
       id="linearGradient3121"
       xlink:href="#linearGradient3764"
       inkscape:collect="always" />
  </defs>
  <rect
     style="fill:url(#linearGradient3121);fill-opacity:1.0;stroke:none"
     id="rect3758"
     width="40"
     height="40"
     x="4"
     y="4"
     ry="0" />
  <path
     style="opacity:0.35;fill:#000000;fill-opacity:1;stroke:none"
     d="m 4.0000015,43.999718 39.9999975,3e-4 c -19.999997,-1 -19.999997,-1 -39.9999985,0 z"
     id="path3800"
     inkscape:connector-curvature="0"
     sodipodi:nodetypes="cccc" />
  <path
     sodipodi:nodetypes="cccc"
     inkscape:connector-curvature="0"
     id="path3804"
     d="m 4.0000055,3.9999173 39.9999965,-2e-4 c -19.999996,1 -19.999996,1 -39.9999985,0 z"
     style="opacity:0.75;fill:#ffffff;fill-opacity:1;stroke:none" />
  <g
     id="g33" />
  <g
     id="g35">
    <g
       clip-path="url(#clipPath-896558291)"
       id="g37">
      <g
         transform="translate(1,1)"
         id="g39">
        <g
           opacity="0.1"
           id="g41">
          <!-- color: #3b3b4e -->
          <g
             id="g43">
            <path
               d="m 28 13 c -6.543 0 -10 5 -10 9 l 0 13 l 9 0 l 0 -11.996 c -0.098 -1.031 0.492 -0.949 1 -1 l 1 0 l 0 -9 l -1 0 m 0 0.996 l 0 3 c -4.34 -0.098 -6.133 2.777 -6 6 l 0 10.996 l -3 0 l 0 -12 c 0 -2.379 1.996 -8 9 -8 m -0.875 4 c 0.273 -0.016 0.563 -0.016 0.875 0 l 0 3 c -1.875 -0.047 -2.01 0.938 -2 2 l 0 10.996 l -3 0 l 0 -10.996 c -0.008 -1.563 0.027 -4.789 4.125 -5 m 0 0"
               stroke="none"
               fill-rule="nonzero"
               fill-opacity="1"
               fill="#000"
               id="path45" />
          </g>
        </g>
      </g>
    </g>
  </g>
  <g
     id="g47">
    <g
       clip-path="url(#clipPath-907069665)"
       id="g49">
      <!-- color: #3b3b4e -->
      <g
         id="g51">
        <path
           d="m 28 13 c -6.543 0 -10 5 -10 9 l 0 13 l 9 0 l 0 -11.996 c -0.098 -1.031 0.492 -0.949 1 -1 l 1 0 l 0 -9 l -1 0 m 0 0.996 l 0 3 c -4.34 -0.098 -6.133 2.777 -6 6 l 0 10.996 l -3 0 l 0 -12 c 0 -2.379 1.996 -8 9 -8 m -0.875 4 c 0.273 -0.016 0.563 -0.016 0.875 0 l 0 3 c -1.875 -0.047 -2.01 0.938 -2 2 l 0 10.996 l -3 0 l 0 -10.996 c -0.008 -1.563 0.027 -4.789 4.125 -5 m 0 0"
           fill="#cf9419"
           stroke="none"
           fill-rule="nonzero"
           fill-opacity="1"
           id="path53" />
      </g>
    </g>
  </g>
</svg>
