<?xml version="1.0" encoding="UTF-8" standalone="no"?>
<svg
   xmlns:dc="http://purl.org/dc/elements/1.1/"
   xmlns:cc="http://creativecommons.org/ns#"
   xmlns:rdf="http://www.w3.org/1999/02/22-rdf-syntax-ns#"
   xmlns:svg="http://www.w3.org/2000/svg"
   xmlns="http://www.w3.org/2000/svg"
   xmlns:xlink="http://www.w3.org/1999/xlink"
   xmlns:sodipodi="http://sodipodi.sourceforge.net/DTD/sodipodi-0.dtd"
   xmlns:inkscape="http://www.inkscape.org/namespaces/inkscape"
   viewBox="0 0 48 48"
   id="svg2"
   version="1.1"
   inkscape:version="0.48.5 r10040"
   width="100%"
   height="100%"
   sodipodi:docname="steam_icon_58610.svg">
  <metadata
     id="metadata69">
    <rdf:RDF>
      <cc:Work
         rdf:about="">
        <dc:format>image/svg+xml</dc:format>
        <dc:type
           rdf:resource="http://purl.org/dc/dcmitype/StillImage" />
      </cc:Work>
    </rdf:RDF>
  </metadata>
  <sodipodi:namedview
     pagecolor="#ffffff"
     bordercolor="#666666"
     borderopacity="1"
     objecttolerance="10"
     gridtolerance="10"
     guidetolerance="10"
     inkscape:pageopacity="0"
     inkscape:pageshadow="2"
     inkscape:window-width="1301"
     inkscape:window-height="744"
     id="namedview67"
     showgrid="true"
     inkscape:zoom="4.5225371"
     inkscape:cx="-2.4012635"
     inkscape:cy="37.416843"
     inkscape:window-x="65"
     inkscape:window-y="24"
     inkscape:window-maximized="1"
     inkscape:current-layer="svg2">
    <inkscape:grid
       type="xygrid"
       id="grid3079" />
  </sodipodi:namedview>
  <defs
     id="defs4">
    <linearGradient
       id="linearGradient3764"
       x1="1"
       x2="47"
       gradientUnits="userSpaceOnUse"
       gradientTransform="matrix(0,-1,1,0,-1.5e-6,47.999998)">
      <stop
         stop-color="#2f1e0d"
         stop-opacity="1"
         id="stop7" />
      <stop
         offset="1"
         stop-color="#3f2811"
         stop-opacity="1"
         id="stop9"
         style="stop-color:#623100;stop-opacity:1;" />
    </linearGradient>
    <clipPath
       id="clipPath-701917413">
      <g
         transform="translate(0,-1004.3622)"
         id="g12">
        <path
           d="m -24 13 c 0 1.105 -0.672 2 -1.5 2 -0.828 0 -1.5 -0.895 -1.5 -2 0 -1.105 0.672 -2 1.5 -2 0.828 0 1.5 0.895 1.5 2 z"
           transform="matrix(15.333333,0,0,11.5,414.99999,878.8622)"
           fill="#1890d0"
           id="path14" />
      </g>
    </clipPath>
    <linearGradient
       inkscape:collect="always"
       xlink:href="#linearGradient3764"
       id="linearGradient3047"
       gradientUnits="userSpaceOnUse"
       gradientTransform="matrix(0,-1,1,0,-1.5e-6,47.999998)"
       x1="1"
       x2="47" />
    <linearGradient
       y2="1028.3622"
       x2="44"
       y1="1028.3622"
       x1="4"
       gradientTransform="translate(0.00538978,-1004.3673)"
       gradientUnits="userSpaceOnUse"
       id="linearGradient3121"
       xlink:href="#linearGradient3764"
       inkscape:collect="always" />
  </defs>
  <rect
     style="fill:url(#linearGradient3121);fill-opacity:1.0;stroke:none"
     id="rect3758"
     width="40"
     height="40"
     x="4.0053892"
     y="3.9948289"
     ry="0" />
  <g
     id="g33"
     transform="matrix(0.70542571,0,0,0.70542571,7.0687519,7.0686046)" />
  <g
     id="g35"
     transform="matrix(0.70542571,0,0,0.70542571,7.0741447,8.0631509)">
    <g
       clip-path="url(#clipPath-701917413)"
       id="g37">
      <g
         transform="translate(1,1)"
         id="g39">
        <g
           id="g41"
           style="opacity:0.1">
          <!-- color: #3f2811 -->
          <g
             id="g43">
            <path
               d="M 0,0 0,5.188 6.781,3.75 C 6.949,2.437 7.258,1.043 8,0 M 21,0 C 18.387,1.379 16.348,4.211 14.375,6.125 13.164,7.309 11.527,8.727 9.937,9.344 l -0.75,3.781 c 3.477,0.383 4.082,2.816 1.5,7.531 L 9.843,31.746 C 9.179,34.664 4.698,38.305 2.218,39.871 1.105,39.551 0.445,39.094 -0.001,38.558 l 0,4.03 c 0.66,-0.484 1.305,-1.07 2.156,-1.25 2.051,0.727 4.922,4.422 6.656,6.645 l 21.938,0 c 0.047,-1.184 0.277,-2.414 1,-3.375 0.91,-1.18 2.629,-2.438 2.844,-3.938 0.133,-0.934 -0.77,-1.574 -1.563,-2.125 -1.063,-0.715 -1.41,-2.32 -0.563,-3.406 l 0.375,-3.063 c 0.215,-3.551 -1.238,-6.164 -4,-8.03 l -5.48,-12.09 c 1.656,-1.5 2.934,-2.148 4.316,-2.855 C 27.6,6.39 27.412,1.831 25.737,-0.024 l -4.75,0 m 12.914,0.012 c 0.398,1.227 1.398,2.754 4.625,4.223 0.711,-0.188 1.434,-0.305 2.156,-1 l 4.25,4.938 c -1.426,0.27 -4.109,0.035 -6.875,-0.25 -2.781,4 0.855,6.816 2.563,10 1.977,0.34 3.391,0.922 7.375,0.469 l 0,-18.375 m -30.527,39.34 c 5.742,0.008 4.664,2.703 1.402,5.875 -2.633,0.266 -3.602,0.148 -4.5,0 -0.465,-1.883 -0.227,-3.645 1.848,-5.844 0.441,-0.023 0.867,-0.031 1.25,-0.031 m 19.777,0.594 c -0.211,0.004 -0.43,0.02 -0.625,0.063 -0.332,2.102 1.359,1.781 1.598,3.813 0.148,1.633 -0.375,2.957 -1.125,4.188 l 10.902,0 0,-4 c -2.504,-0.363 -4.352,-1.191 -6.527,-2.563 -1.043,-0.656 -2.75,-1.516 -4.223,-1.5 m 0,0"
               id="path45"
               inkscape:connector-curvature="0"
               style="fill:#000000;fill-opacity:1;fill-rule:nonzero;stroke:none" />
            <path
               d="M 0,0 0,3.531 C 0.262,2.246 0.617,1.34 0.875,0.593 0.938,0.409 1.055,0.202 1.156,-0.001 m 38.813,0 c 0.137,0.988 0.426,1.969 0.5,2.969 0.168,1.867 0.902,3.215 2.625,4.03 C 44.805,7.814 46.606,9.4 48,10.873 L 48,-0.002 M 3.97,2.564 C 2.997,2.627 1.626,3.15 0.845,3.877 0.599,4.1 0.302,4.236 0.001,4.377 l 0,13.938 c 0.641,0.191 1.285,0.34 1.938,0.441 0.879,0.133 1.762,0.203 2.656,0.152 1.969,-2.516 4.074,-4.281 5,-7.25 C 10.208,9.693 10.212,7.041 8.97,5.408 7.978,4.111 6.224,3.31 4.782,2.658 4.579,2.572 4.294,2.545 3.969,2.564 m 17.219,9.188 c -0.313,0.016 -0.613,0.059 -0.938,0.125 -1.176,0.969 -1.672,2.445 -2.219,3.813 -0.664,1.652 0.516,3.469 -0.313,4.969 -0.547,0.5 -1.383,0.652 -2.063,0.477 -2.684,-0.734 -5.652,-0.727 -8.219,0.523 l 0.031,0.5 c 0.328,2.336 0.688,4.746 1.75,6.852 0.688,1.359 0.98,2.953 1.145,4.438 0.227,1.898 -0.672,3.695 -0.625,5.563 3.629,-0.184 8.06,-0.125 9.531,1.344 1.566,1.57 -0.543,5.285 -2.281,7.656 l 8.441,0 c 0.508,-0.879 0.805,-2.02 0.875,-2.813 0.113,-1.453 -0.965,-1.813 -1.031,-3.094 C 25.17,40 27.049,38.73 28.213,37.23 29.502,35.542 28.865,33 27.182,31.664 c 0.594,-2.465 0.828,-5.063 1.625,-7.527 0.91,-2.785 5.02,-5.387 2.938,-8.25 -1.723,-0.184 -3.273,-0.992 -4.719,-1.906 -1.738,-1.125 -3.664,-2.309 -5.844,-2.219 m 16.375,6.867 c 0.066,0.719 0.609,1.305 1.156,1.719 0.398,0.301 0.832,-0.367 0.469,-0.75 -0.43,-0.434 -0.945,-1.035 -1.625,-0.969 m 2.844,7.75 c -3.922,0.316 -6.824,4.277 -8.25,7.625 0.25,0.734 0.461,1.586 0.906,2.219 0.547,0.77 1.934,1.73 3.094,2.281 2.418,-2.184 5.371,-4.43 6.316,-7.781 0.516,-1.816 0.059,-4.527 -2.066,-4.344 M 2.181,43.317 c -0.727,0.008 -1.457,0.059 -2.188,0.094 l 0,4.605 6.25,0 C 6.134,46.438 5.774,44.942 5.337,43.485 4.286,43.352 3.239,43.317 2.181,43.329 m 0,-0.008"
               id="path47"
               inkscape:connector-curvature="0"
               style="fill:#000000;fill-opacity:1;fill-rule:nonzero;stroke:none" />
            <path
               d="m 16,35 2,-9 -6,-5.996 8,-1 4,-8 4,8 8,1 -6,5.996 2,9 -8,-4 m -8,4"
               id="path49"
               inkscape:connector-curvature="0"
               style="fill:#000000;fill-opacity:1;fill-rule:nonzero;stroke:none" />
          </g>
        </g>
      </g>
    </g>
  </g>
  <g
     id="g55"
     transform="matrix(0.83316923,0,0,0.83316923,4.0058322,3.9945463)">
    <path
       d="M 0,0 0,5.188 6.781,3.75 C 6.949,2.437 7.258,1.043 8,0 M 21,0 C 18.387,1.379 16.348,4.211 14.375,6.125 13.164,7.309 11.527,8.727 9.937,9.344 l -0.75,3.781 c 3.477,0.383 4.082,2.816 1.5,7.531 L 9.843,31.746 C 9.179,34.664 4.698,38.305 2.218,39.871 1.105,39.551 0.445,39.094 -0.001,38.558 l 0,4.03 c 0.66,-0.484 1.305,-1.07 2.156,-1.25 2.051,0.727 4.922,4.422 6.656,6.645 l 21.938,0 c 0.047,-1.184 0.277,-2.414 1,-3.375 0.91,-1.18 2.629,-2.438 2.844,-3.938 0.133,-0.934 -0.77,-1.574 -1.563,-2.125 -1.063,-0.715 -1.41,-2.32 -0.563,-3.406 l 0.375,-3.063 c 0.215,-3.551 -1.238,-6.164 -4,-8.03 l -5.48,-12.09 c 1.656,-1.5 2.934,-2.148 4.316,-2.855 C 27.6,6.39 27.412,1.831 25.737,-0.024 l -4.75,0 m 12.914,0.012 c 0.398,1.227 1.398,2.754 4.625,4.223 0.711,-0.188 1.434,-0.305 2.156,-1 l 4.25,4.938 c -1.426,0.27 -4.109,0.035 -6.875,-0.25 -2.781,4 0.855,6.816 2.563,10 1.977,0.34 3.391,0.922 7.375,0.469 l 0,-18.375 m -30.527,39.34 c 5.742,0.008 4.664,2.703 1.402,5.875 -2.633,0.266 -3.602,0.148 -4.5,0 -0.465,-1.883 -0.227,-3.645 1.848,-5.844 0.441,-0.023 0.867,-0.031 1.25,-0.031 m 19.777,0.594 c -0.211,0.004 -0.43,0.02 -0.625,0.063 -0.332,2.102 1.359,1.781 1.598,3.813 0.148,1.633 -0.375,2.957 -1.125,4.188 l 10.902,0 0,-4 c -2.504,-0.363 -4.352,-1.191 -6.527,-2.563 -1.043,-0.656 -2.75,-1.516 -4.223,-1.5 m 0,0"
       id="path57"
       inkscape:connector-curvature="0"
       style="fill:#285935;fill-opacity:1;fill-rule:nonzero;stroke:none" />
    <path
       d="M 0,0 0,3.531 C 0.262,2.246 0.617,1.34 0.875,0.593 0.938,0.409 1.055,0.202 1.156,-0.001 m 38.813,0 c 0.137,0.988 0.426,1.969 0.5,2.969 0.168,1.867 0.902,3.215 2.625,4.03 C 44.805,7.814 46.606,9.4 48,10.873 L 48,-0.002 M 3.97,2.564 C 2.997,2.627 1.626,3.15 0.845,3.877 0.599,4.1 0.302,4.236 0.001,4.377 l 0,13.938 c 0.641,0.191 1.285,0.34 1.938,0.441 0.879,0.133 1.762,0.203 2.656,0.152 1.969,-2.516 4.074,-4.281 5,-7.25 C 10.208,9.693 10.212,7.041 8.97,5.408 7.978,4.111 6.224,3.31 4.782,2.658 4.579,2.572 4.294,2.545 3.969,2.564 m 17.219,9.188 c -0.313,0.016 -0.613,0.059 -0.938,0.125 -1.176,0.969 -1.672,2.445 -2.219,3.813 -0.664,1.652 0.516,3.469 -0.313,4.969 -0.547,0.5 -1.383,0.652 -2.063,0.477 -2.684,-0.734 -5.652,-0.727 -8.219,0.523 l 0.031,0.5 c 0.328,2.336 0.688,4.746 1.75,6.852 0.688,1.359 0.98,2.953 1.145,4.438 0.227,1.898 -0.672,3.695 -0.625,5.563 3.629,-0.184 8.06,-0.125 9.531,1.344 1.566,1.57 -0.543,5.285 -2.281,7.656 l 8.441,0 c 0.508,-0.879 0.805,-2.02 0.875,-2.813 0.113,-1.453 -0.965,-1.813 -1.031,-3.094 C 25.17,40 27.049,38.73 28.213,37.23 29.502,35.542 28.865,33 27.182,31.664 c 0.594,-2.465 0.828,-5.063 1.625,-7.527 0.91,-2.785 5.02,-5.387 2.938,-8.25 -1.723,-0.184 -3.273,-0.992 -4.719,-1.906 -1.738,-1.125 -3.664,-2.309 -5.844,-2.219 m 16.375,6.867 c 0.066,0.719 0.609,1.305 1.156,1.719 0.398,0.301 0.832,-0.367 0.469,-0.75 -0.43,-0.434 -0.945,-1.035 -1.625,-0.969 m 2.844,7.75 c -3.922,0.316 -6.824,4.277 -8.25,7.625 0.25,0.734 0.461,1.586 0.906,2.219 0.547,0.77 1.934,1.73 3.094,2.281 2.418,-2.184 5.371,-4.43 6.316,-7.781 0.516,-1.816 0.059,-4.527 -2.066,-4.344 M 2.181,43.317 c -0.727,0.008 -1.457,0.059 -2.188,0.094 l 0,4.605 6.25,0 C 6.134,46.438 5.774,44.942 5.337,43.485 4.286,43.352 3.239,43.317 2.181,43.329 m 0,-0.008"
       id="path59"
       inkscape:connector-curvature="0"
       style="fill:#b07845;fill-opacity:1;fill-rule:nonzero;stroke:none" />
    <path
       d="m 16,35 2,-9 -6,-5.996 8,-1 4,-8 4,8 8,1 -6,5.996 2,9 -8,-4 m -8,4"
       id="path61"
       inkscape:connector-curvature="0"
       style="fill:#ececeb;fill-opacity:1;fill-rule:nonzero;stroke:none" />
  </g>
  <path
     style="opacity:0.35;fill:#000000;fill-opacity:1;stroke:none"
     d="m 4.0053908,43.994547 39.9999972,3e-4 c -19.999997,-1 -19.999997,-1 -39.9999982,0 z"
     id="path3800"
     inkscape:connector-curvature="0"
     sodipodi:nodetypes="cccc" />
  <path
     sodipodi:nodetypes="cccc"
     inkscape:connector-curvature="0"
     id="path3804"
     d="m 4.0053938,3.9947463 39.9999972,-2e-4 c -19.999996,1 -19.999996,1 -39.9999982,0 z"
     style="opacity:0.75;fill:#ffffff;fill-opacity:1;stroke:none" />
</svg>
