<?xml version="1.0" encoding="UTF-8" standalone="no"?>
<svg
   xmlns:dc="http://purl.org/dc/elements/1.1/"
   xmlns:cc="http://creativecommons.org/ns#"
   xmlns:rdf="http://www.w3.org/1999/02/22-rdf-syntax-ns#"
   xmlns:svg="http://www.w3.org/2000/svg"
   xmlns="http://www.w3.org/2000/svg"
   xmlns:xlink="http://www.w3.org/1999/xlink"
   xmlns:sodipodi="http://sodipodi.sourceforge.net/DTD/sodipodi-0.dtd"
   xmlns:inkscape="http://www.inkscape.org/namespaces/inkscape"
   viewBox="0 0 48 48"
   id="svg2"
   version="1.1"
   inkscape:version="0.48.5 r10040"
   width="100%"
   height="100%"
   sodipodi:docname="steam_icon_70300.svg">
  <metadata
     id="metadata61">
    <rdf:RDF>
      <cc:Work
         rdf:about="">
        <dc:format>image/svg+xml</dc:format>
        <dc:type
           rdf:resource="http://purl.org/dc/dcmitype/StillImage" />
      </cc:Work>
    </rdf:RDF>
  </metadata>
  <sodipodi:namedview
     pagecolor="#ffffff"
     bordercolor="#666666"
     borderopacity="1"
     objecttolerance="10"
     gridtolerance="10"
     guidetolerance="10"
     inkscape:pageopacity="0"
     inkscape:pageshadow="2"
     inkscape:window-width="1301"
     inkscape:window-height="744"
     id="namedview59"
     showgrid="true"
     inkscape:zoom="6.3958333"
     inkscape:cx="23.164973"
     inkscape:cy="13.072955"
     inkscape:window-x="65"
     inkscape:window-y="24"
     inkscape:window-maximized="1"
     inkscape:current-layer="svg2">
    <inkscape:grid
       type="xygrid"
       id="grid3059" />
  </sodipodi:namedview>
  <defs
     id="defs4">
    <linearGradient
       id="linearGradient3764"
       x1="1"
       x2="47"
       gradientUnits="userSpaceOnUse"
       gradientTransform="matrix(0,-1,1,0,-1.5e-6,47.999998)">
      <stop
         stop-color="#162b3c"
         stop-opacity="1"
         id="stop7" />
      <stop
         offset="1"
         stop-color="#1b354a"
         stop-opacity="1"
         id="stop9"
         style="stop-color:#4f677a;stop-opacity:1;" />
    </linearGradient>
    <clipPath
       id="clipPath-668424828">
      <g
         transform="translate(0,-1004.3622)"
         id="g12">
        <path
           d="m -24 13 c 0 1.105 -0.672 2 -1.5 2 -0.828 0 -1.5 -0.895 -1.5 -2 0 -1.105 0.672 -2 1.5 -2 0.828 0 1.5 0.895 1.5 2 z"
           transform="matrix(15.333333,0,0,11.5,414.99999,878.8622)"
           fill="#1890d0"
           id="path14" />
      </g>
    </clipPath>
    <clipPath
       id="clipPath-676053504">
      <g
         transform="translate(0,-1004.3622)"
         id="g17">
        <path
           d="m -24 13 c 0 1.105 -0.672 2 -1.5 2 -0.828 0 -1.5 -0.895 -1.5 -2 0 -1.105 0.672 -2 1.5 -2 0.828 0 1.5 0.895 1.5 2 z"
           transform="matrix(15.333333,0,0,11.5,414.99999,878.8622)"
           fill="#1890d0"
           id="path19" />
      </g>
    </clipPath>
    <linearGradient
       y2="1028.3622"
       x2="44"
       y1="1028.3622"
       x1="4"
       gradientTransform="translate(-3.6789062e-7,-1004.3622)"
       gradientUnits="userSpaceOnUse"
       id="linearGradient3121"
       xlink:href="#linearGradient3764"
       inkscape:collect="always" />
  </defs>
  <rect
     style="fill:url(#linearGradient3121);fill-opacity:1.0;stroke:none"
     id="rect3758"
     width="40"
     height="40"
     x="4"
     y="4"
     ry="0" />
  <path
     style="opacity:0.35;fill:#000000;fill-opacity:1;stroke:none"
     d="m 4.000001,43.999718 39.999996,3e-4 c -19.999997,-1 -19.999997,-1 -39.9999974,0 z"
     id="path3800"
     inkscape:connector-curvature="0"
     sodipodi:nodetypes="cccc" />
  <path
     sodipodi:nodetypes="cccc"
     inkscape:connector-curvature="0"
     id="path3804"
     d="M 4.0000045,3.9999176 44,3.9997176 c -19.999996,1 -19.999996,1 -39.9999969,0 z"
     style="opacity:0.75;fill:#ffffff;fill-opacity:1;stroke:none" />
  <g
     id="g33" />
  <g
     id="g35">
    <g
       clip-path="url(#clipPath-668424828)"
       id="g37">
      <g
         transform="translate(1,1)"
         id="g39">
        <g
           opacity="0.1"
           id="g41">
          <!-- color: #1b354a -->
          <g
             id="g43">
            <path
               d="m 20 14 l 0 3 l 1 0 l 0 2 l 1 0 l 0 2 l -1 0 l 0 -2 l -2 0 l 0 5 l 1 0 l 0 1 l 2 0 l 0 1 l -2 0 l 0 1 l -1 0 l 0 6 l 1 0 l 0 1 l 8 0 l 0 -1 l 1 0 l 0 -6 l -1 0 l 0 -1 l -2 0 l 0 -1 l 2 0 l 0 -1 l 1 0 l -0.156 -5 l -1.844 0 l 0 2 l -1 0 l 0 -2 l 1 0 l 0 -2 l 1 0 l 0 -3 l -3 0 l 0 4 l -2 0 l 0 -4 m 0 13 l 4 0 l 0 1 l 1 0 l 0 1 l -6 0 l 0 -1 l 1 0 m -1 2 l 2 0 l 0 2 l -2 0 m 4 -2 l 2 0 l 0 2 l -2 0 m 0 -2"
               fill="#000"
               stroke="none"
               fill-rule="nonzero"
               fill-opacity="1"
               id="path45" />
          </g>
        </g>
      </g>
    </g>
  </g>
  <g
     id="g47">
    <g
       clip-path="url(#clipPath-676053504)"
       id="g49">
      <!-- color: #1b354a -->
      <g
         id="g51">
        <path
           d="m 20 14 l 0 3 l 1 0 l 0 2 l 1 0 l 0 2 l -1 0 l 0 -2 l -2 0 l 0 5 l 1 0 l 0 1 l 2 0 l 0 1 l -2 0 l 0 1 l -1 0 l 0 6 l 1 0 l 0 1 l 8 0 l 0 -1 l 1 0 l 0 -6 l -1 0 l 0 -1 l -2 0 l 0 -1 l 2 0 l 0 -1 l 1 0 l -0.156 -5 l -1.844 0 l 0 2 l -1 0 l 0 -2 l 1 0 l 0 -2 l 1 0 l 0 -3 l -3 0 l 0 4 l -2 0 l 0 -4 m 0 13 l 4 0 l 0 1 l 1 0 l 0 1 l -6 0 l 0 -1 l 1 0 m -1 2 l 2 0 l 0 2 l -2 0 m 4 -2 l 2 0 l 0 2 l -2 0 m 0 -2"
           fill="#9cf"
           stroke="none"
           fill-rule="nonzero"
           fill-opacity="1"
           id="path53" />
      </g>
    </g>
  </g>
</svg>
