<?xml version="1.0" encoding="UTF-8" standalone="no"?>
<svg
   xmlns:dc="http://purl.org/dc/elements/1.1/"
   xmlns:cc="http://creativecommons.org/ns#"
   xmlns:rdf="http://www.w3.org/1999/02/22-rdf-syntax-ns#"
   xmlns:svg="http://www.w3.org/2000/svg"
   xmlns="http://www.w3.org/2000/svg"
   xmlns:xlink="http://www.w3.org/1999/xlink"
   xmlns:sodipodi="http://sodipodi.sourceforge.net/DTD/sodipodi-0.dtd"
   xmlns:inkscape="http://www.inkscape.org/namespaces/inkscape"
   viewBox="0 0 48 48"
   id="svg2"
   version="1.1"
   inkscape:version="0.48.5 r10040"
   width="100%"
   height="100%"
   sodipodi:docname="steam_icon_241600.svg">
  <metadata
     id="metadata61">
    <rdf:RDF>
      <cc:Work
         rdf:about="">
        <dc:format>image/svg+xml</dc:format>
        <dc:type
           rdf:resource="http://purl.org/dc/dcmitype/StillImage" />
      </cc:Work>
    </rdf:RDF>
  </metadata>
  <sodipodi:namedview
     pagecolor="#ffffff"
     bordercolor="#666666"
     borderopacity="1"
     objecttolerance="10"
     gridtolerance="10"
     guidetolerance="10"
     inkscape:pageopacity="0"
     inkscape:pageshadow="2"
     inkscape:window-width="1301"
     inkscape:window-height="744"
     id="namedview59"
     showgrid="true"
     inkscape:zoom="9.0450742"
     inkscape:cx="32.330649"
     inkscape:cy="31.747454"
     inkscape:window-x="65"
     inkscape:window-y="24"
     inkscape:window-maximized="1"
     inkscape:current-layer="svg2">
    <inkscape:grid
       type="xygrid"
       id="grid3059" />
  </sodipodi:namedview>
  <defs
     id="defs4">
    <linearGradient
       id="linearGradient3764"
       x1="1"
       x2="47"
       gradientUnits="userSpaceOnUse"
       gradientTransform="matrix(0,-1,1,0,-1.5e-6,47.999998)">
      <stop
         stop-color="#99a8df"
         stop-opacity="1"
         id="stop7" />
      <stop
         offset="1"
         stop-color="#a9b5e4"
         stop-opacity="1"
         id="stop9"
         style="stop-color:#d2dbfc;stop-opacity:1;" />
    </linearGradient>
    <clipPath
       id="clipPath-772369452">
      <g
         transform="translate(0,-1004.3622)"
         id="g12">
        <path
           d="m -24 13 c 0 1.105 -0.672 2 -1.5 2 -0.828 0 -1.5 -0.895 -1.5 -2 0 -1.105 0.672 -2 1.5 -2 0.828 0 1.5 0.895 1.5 2 z"
           transform="matrix(15.333333,0,0,11.5,414.99999,878.8622)"
           fill="#1890d0"
           id="path14" />
      </g>
    </clipPath>
    <clipPath
       id="clipPath-784126446">
      <g
         transform="translate(0,-1004.3622)"
         id="g17">
        <path
           d="m -24 13 c 0 1.105 -0.672 2 -1.5 2 -0.828 0 -1.5 -0.895 -1.5 -2 0 -1.105 0.672 -2 1.5 -2 0.828 0 1.5 0.895 1.5 2 z"
           transform="matrix(15.333333,0,0,11.5,414.99999,878.8622)"
           fill="#1890d0"
           id="path19" />
      </g>
    </clipPath>
    <linearGradient
       y2="1028.3622"
       x2="44"
       y1="1028.3622"
       x1="4"
       gradientTransform="translate(-9.7653809e-8,-1004.3622)"
       gradientUnits="userSpaceOnUse"
       id="linearGradient3102"
       xlink:href="#linearGradient3764"
       inkscape:collect="always" />
  </defs>
  <rect
     style="fill:url(#linearGradient3102);fill-opacity:1.0;stroke:none"
     id="rect3758"
     width="40"
     height="40"
     x="4"
     y="4"
     ry="0" />
  <path
     style="opacity:0.35;fill:#000000;fill-opacity:1;stroke:none"
     d="m 4.0000012,43.999718 39.9999968,3e-4 c -19.999997,-1 -19.999997,-1 -39.9999982,0 z"
     id="path3800"
     inkscape:connector-curvature="0"
     sodipodi:nodetypes="cccc" />
  <path
     sodipodi:nodetypes="cccc"
     inkscape:connector-curvature="0"
     id="path3804"
     d="m 4.0000047,3.9999174 39.9999963,-2e-4 c -19.999996,1 -19.999996,1 -39.9999977,0 z"
     style="opacity:0.75;fill:#ffffff;fill-opacity:1;stroke:none" />
  <g
     id="g33" />
  <g
     id="g35">
    <g
       clip-path="url(#clipPath-772369452)"
       id="g37">
      <g
         transform="translate(1,1)"
         id="g39">
        <g
           opacity="0.1"
           id="g41">
          <!-- color: #a9b5e4 -->
          <g
             id="g43">
            <path
               d="m 24 10 c -0.707 0 -1.418 0.066 -2.125 0.156 l 2.125 2.844 l -1 1 l 4 3 l -8 -3 l 2 -1 l -3.469 -1.719 c -1.543 0.609 -3.059 1.418 -4.531 2.469 c 2 7 2 15 0 22 c 2.879 1.234 5.922 1.938 9 2.156 c 0.984 -5.961 0.996 -10.938 0 -16.906 c -2 0 -3 0 -5 1 l 0 -4 l 14 0 l 0 4 c -2 -1 -3 -1 -5 -1 c -0.996 5.969 -0.984 10.949 0 16.906 c 3.078 -0.219 6.121 -0.922 9 -2.156 c -2 -7 -2 -15 0 -22 c -3.5 -2.5 -7.25 -3.75 -11 -3.75 m 0 0"
               fill="#000"
               stroke="none"
               fill-rule="nonzero"
               fill-opacity="1"
               id="path45" />
          </g>
        </g>
      </g>
    </g>
  </g>
  <g
     id="g47">
    <g
       clip-path="url(#clipPath-784126446)"
       id="g49">
      <!-- color: #a9b5e4 -->
      <g
         id="g51">
        <path
           d="m 24 10 c -0.707 0 -1.418 0.066 -2.125 0.156 l 2.125 2.844 l -1 1 l 4 3 l -8 -3 l 2 -1 l -3.469 -1.719 c -1.543 0.609 -3.059 1.418 -4.531 2.469 c 2 7 2 15 0 22 c 2.879 1.234 5.922 1.938 9 2.156 c 0.984 -5.961 0.996 -10.938 0 -16.906 c -2 0 -3 0 -5 1 l 0 -4 l 14 0 l 0 4 c -2 -1 -3 -1 -5 -1 c -0.996 5.969 -0.984 10.949 0 16.906 c 3.078 -0.219 6.121 -0.922 9 -2.156 c -2 -7 -2 -15 0 -22 c -3.5 -2.5 -7.25 -3.75 -11 -3.75 m 0 0"
           fill="#852020"
           stroke="none"
           fill-rule="nonzero"
           fill-opacity="1"
           id="path53" />
      </g>
    </g>
  </g>
</svg>
