<?xml version="1.0" encoding="UTF-8" standalone="no"?>
<svg
   xmlns:dc="http://purl.org/dc/elements/1.1/"
   xmlns:cc="http://creativecommons.org/ns#"
   xmlns:rdf="http://www.w3.org/1999/02/22-rdf-syntax-ns#"
   xmlns:svg="http://www.w3.org/2000/svg"
   xmlns="http://www.w3.org/2000/svg"
   xmlns:xlink="http://www.w3.org/1999/xlink"
   xmlns:sodipodi="http://sodipodi.sourceforge.net/DTD/sodipodi-0.dtd"
   xmlns:inkscape="http://www.inkscape.org/namespaces/inkscape"
   viewBox="0 0 48 48"
   id="svg2"
   version="1.1"
   inkscape:version="0.48.5 r10040"
   width="100%"
   height="100%"
   sodipodi:docname="steam_icon_236090.svg">
  <metadata
     id="metadata61">
    <rdf:RDF>
      <cc:Work
         rdf:about="">
        <dc:format>image/svg+xml</dc:format>
        <dc:type
           rdf:resource="http://purl.org/dc/dcmitype/StillImage" />
      </cc:Work>
    </rdf:RDF>
  </metadata>
  <sodipodi:namedview
     pagecolor="#ffffff"
     bordercolor="#666666"
     borderopacity="1"
     objecttolerance="10"
     gridtolerance="10"
     guidetolerance="10"
     inkscape:pageopacity="0"
     inkscape:pageshadow="2"
     inkscape:window-width="1301"
     inkscape:window-height="744"
     id="namedview59"
     showgrid="true"
     inkscape:zoom="9.0450742"
     inkscape:cx="35.731633"
     inkscape:cy="21.320769"
     inkscape:window-x="65"
     inkscape:window-y="24"
     inkscape:window-maximized="1"
     inkscape:current-layer="svg2">
    <inkscape:grid
       type="xygrid"
       id="grid3059" />
  </sodipodi:namedview>
  <defs
     id="defs4">
    <linearGradient
       id="linearGradient3764"
       x1="1"
       x2="47"
       gradientUnits="userSpaceOnUse"
       gradientTransform="matrix(0,-1,1,0,-1.5e-6,47.999998)">
      <stop
         stop-color="#79acc3"
         stop-opacity="1"
         id="stop7" />
      <stop
         offset="1"
         stop-color="#86b4c9"
         stop-opacity="1"
         id="stop9"
         style="stop-color:#a4d3e8;stop-opacity:1;" />
    </linearGradient>
    <clipPath
       id="clipPath-302959426">
      <g
         transform="translate(0,-1004.3622)"
         id="g12">
        <path
           d="m -24 13 c 0 1.105 -0.672 2 -1.5 2 -0.828 0 -1.5 -0.895 -1.5 -2 0 -1.105 0.672 -2 1.5 -2 0.828 0 1.5 0.895 1.5 2 z"
           transform="matrix(15.333333,0,0,11.5,414.99999,878.8622)"
           fill="#1890d0"
           id="path14" />
      </g>
    </clipPath>
    <clipPath
       id="clipPath-315561348">
      <g
         transform="translate(0,-1004.3622)"
         id="g17">
        <path
           d="m -24 13 c 0 1.105 -0.672 2 -1.5 2 -0.828 0 -1.5 -0.895 -1.5 -2 0 -1.105 0.672 -2 1.5 -2 0.828 0 1.5 0.895 1.5 2 z"
           transform="matrix(15.333333,0,0,11.5,414.99999,878.8622)"
           fill="#1890d0"
           id="path19" />
      </g>
    </clipPath>
    <linearGradient
       y2="1028.3622"
       x2="44"
       y1="1028.3622"
       x1="4"
       gradientTransform="translate(-7.1905518e-8,-1004.3622)"
       gradientUnits="userSpaceOnUse"
       id="linearGradient3102"
       xlink:href="#linearGradient3764"
       inkscape:collect="always" />
  </defs>
  <rect
     style="fill:url(#linearGradient3102);fill-opacity:1.0;stroke:none"
     id="rect3758"
     width="40"
     height="40"
     x="4"
     y="4"
     ry="0" />
  <path
     style="opacity:0.35;fill:#000000;fill-opacity:1;stroke:none"
     d="m 4.0000013,43.999718 39.9999967,3e-4 c -19.999997,-1 -19.999997,-1 -39.9999981,0 z"
     id="path3800"
     inkscape:connector-curvature="0"
     sodipodi:nodetypes="cccc" />
  <path
     sodipodi:nodetypes="cccc"
     inkscape:connector-curvature="0"
     id="path3804"
     d="m 4.0000048,3.9999173 39.9999962,-2e-4 c -19.999996,1 -19.999996,1 -39.9999976,0 z"
     style="opacity:0.75;fill:#ffffff;fill-opacity:1;stroke:none" />
  <g
     id="g33" />
  <g
     id="g35">
    <g
       clip-path="url(#clipPath-302959426)"
       id="g37">
      <g
         transform="translate(1,1)"
         id="g39">
        <g
           opacity="0.1"
           id="g41">
          <!-- color: #86b4c9 -->
          <g
             id="g43">
            <path
               d="m 21.08 12.176 c -1.875 0.215 -4.707 0.379 -6.43 0.379 c -1.512 0 -1.598 0.039 -1.52 0.781 c 0.051 0.598 0.207 0.727 0.852 0.727 c 0.547 0 0.98 0.18 1.133 0.492 c 0.227 0.426 0.355 1.918 0.457 5.18 c 0.172 5.395 0.008 13.09 -0.293 14.07 c -0.125 0.395 -0.613 0.633 -1.492 0.727 c -0.352 0.039 -0.668 0.113 -0.695 0.168 c -0.145 0.199 -0.082 1.066 0.066 1.191 c 0.109 0.102 0.875 0.125 3.578 0.102 c 1.898 -0.016 4.719 -0.039 6.273 -0.047 c 2.945 -0.016 3.281 -0.055 5.04 -0.527 c 3.484 -0.918 6.477 -3.359 7.91 -6.469 c 0.719 -1.547 1.051 -3.137 1.051 -5.01 c 0 -3.703 -1.461 -6.754 -4.289 -8.965 c -2.035 -1.598 -4.699 -2.605 -7.559 -2.891 c -1.316 -0.137 -2.238 -0.105 -4.074 0.098 m 5.738 0.551 c 3.273 0.699 6.398 2.656 7.789 4.875 c 0.129 0.211 0.273 0.41 0.332 0.445 c 0.043 0.039 0.066 0.082 0.043 0.105 c -0.023 0.023 -0.145 -0.031 -0.266 -0.145 c -0.117 -0.094 -0.172 -0.18 -0.137 -0.18 c 0.047 0 -0.109 -0.102 -0.352 -0.227 c -0.234 -0.125 -0.504 -0.293 -0.586 -0.379 c -0.074 -0.086 -0.289 -0.273 -0.473 -0.414 c -0.191 -0.141 -0.504 -0.414 -0.703 -0.605 c -0.199 -0.199 -0.41 -0.359 -0.473 -0.359 c -0.055 0 -0.117 -0.039 -0.141 -0.086 c -0.098 -0.266 -2.789 -1.879 -3.742 -2.227 c -2.02 -0.754 -2.871 -0.926 -4.77 -0.926 c -2.129 0 -3.742 0.293 -5.109 0.926 c -0.477 0.215 -0.641 0.242 -1.234 0.215 c -0.457 -0.027 -0.813 -0.102 -1.066 -0.238 c -0.219 -0.113 -0.594 -0.254 -0.848 -0.32 c -0.656 -0.172 -0.398 -0.27 0.742 -0.27 c 1.285 0 3.887 -0.168 5.191 -0.328 c 1.539 -0.191 4.598 -0.125 5.793 0.129 m -1.301 1.184 c 3.695 0.895 6.539 3.703 7.473 7.379 c 0.191 0.746 0.219 1.066 0.219 2.648 c 0 1.977 -0.109 2.723 -0.613 4.207 c -0.512 1.504 -1.031 2.395 -1.934 3.391 c -1.176 1.277 -2.48 2.082 -4.125 2.535 c -0.84 0.238 -1.043 0.242 -2.91 0.254 c -2.137 0.012 -2.316 -0.016 -4.25 -0.668 l -0.418 -0.133 l -0.066 -0.578 c -0.145 -1.512 0.012 -17.402 0.184 -18.242 c 0.066 -0.313 0.313 -0.438 1.457 -0.727 c 1.414 -0.371 3.586 -0.398 4.984 -0.063 m 4.453 19.04 c 0 0.215 -1.844 1.207 -2.781 1.504 c -1.641 0.508 -4.223 0.621 -6.633 0.293 c -1.258 -0.18 -1.789 -0.328 -2.098 -0.625 c -0.285 -0.266 -0.012 -0.313 0.648 -0.113 c 2.453 0.75 2.602 0.777 4.391 0.785 c 2.27 0.008 3.438 -0.227 5.02 -1.023 c 0.75 -0.379 0.875 -0.453 1.133 -0.688 c 0.074 -0.07 0.148 -0.086 0.184 -0.059 c 0.023 0.039 0.051 0.012 0.051 -0.047 c 0 -0.066 0.02 -0.113 0.047 -0.113 c 0.027 0 0.047 0.039 0.047 0.086 m 0 0"
               fill="#000"
               stroke="none"
               fill-rule="nonzero"
               fill-opacity="1"
               id="path45" />
          </g>
        </g>
      </g>
    </g>
  </g>
  <g
     id="g47">
    <g
       clip-path="url(#clipPath-315561348)"
       id="g49">
      <!-- color: #86b4c9 -->
      <g
         id="g51">
        <path
           d="m 21.08 12.176 c -1.875 0.215 -4.707 0.379 -6.43 0.379 c -1.512 0 -1.598 0.039 -1.52 0.781 c 0.051 0.598 0.207 0.727 0.852 0.727 c 0.547 0 0.98 0.18 1.133 0.492 c 0.227 0.426 0.355 1.918 0.457 5.18 c 0.172 5.395 0.008 13.09 -0.293 14.07 c -0.125 0.395 -0.613 0.633 -1.492 0.727 c -0.352 0.039 -0.668 0.113 -0.695 0.168 c -0.145 0.199 -0.082 1.066 0.066 1.191 c 0.109 0.102 0.875 0.125 3.578 0.102 c 1.898 -0.016 4.719 -0.039 6.273 -0.047 c 2.945 -0.016 3.281 -0.055 5.04 -0.527 c 3.484 -0.918 6.477 -3.359 7.91 -6.469 c 0.719 -1.547 1.051 -3.137 1.051 -5.01 c 0 -3.703 -1.461 -6.754 -4.289 -8.965 c -2.035 -1.598 -4.699 -2.605 -7.559 -2.891 c -1.316 -0.137 -2.238 -0.105 -4.074 0.098 m 5.738 0.551 c 3.273 0.699 6.398 2.656 7.789 4.875 c 0.129 0.211 0.273 0.41 0.332 0.445 c 0.043 0.039 0.066 0.082 0.043 0.105 c -0.023 0.023 -0.145 -0.031 -0.266 -0.145 c -0.117 -0.094 -0.172 -0.18 -0.137 -0.18 c 0.047 0 -0.109 -0.102 -0.352 -0.227 c -0.234 -0.125 -0.504 -0.293 -0.586 -0.379 c -0.074 -0.086 -0.289 -0.273 -0.473 -0.414 c -0.191 -0.141 -0.504 -0.414 -0.703 -0.605 c -0.199 -0.199 -0.41 -0.359 -0.473 -0.359 c -0.055 0 -0.117 -0.039 -0.141 -0.086 c -0.098 -0.266 -2.789 -1.879 -3.742 -2.227 c -2.02 -0.754 -2.871 -0.926 -4.77 -0.926 c -2.129 0 -3.742 0.293 -5.109 0.926 c -0.477 0.215 -0.641 0.242 -1.234 0.215 c -0.457 -0.027 -0.813 -0.102 -1.066 -0.238 c -0.219 -0.113 -0.594 -0.254 -0.848 -0.32 c -0.656 -0.172 -0.398 -0.27 0.742 -0.27 c 1.285 0 3.887 -0.168 5.191 -0.328 c 1.539 -0.191 4.598 -0.125 5.793 0.129 m -1.301 1.184 c 3.695 0.895 6.539 3.703 7.473 7.379 c 0.191 0.746 0.219 1.066 0.219 2.648 c 0 1.977 -0.109 2.723 -0.613 4.207 c -0.512 1.504 -1.031 2.395 -1.934 3.391 c -1.176 1.277 -2.48 2.082 -4.125 2.535 c -0.84 0.238 -1.043 0.242 -2.91 0.254 c -2.137 0.012 -2.316 -0.016 -4.25 -0.668 l -0.418 -0.133 l -0.066 -0.578 c -0.145 -1.512 0.012 -17.402 0.184 -18.242 c 0.066 -0.313 0.313 -0.438 1.457 -0.727 c 1.414 -0.371 3.586 -0.398 4.984 -0.063 m 4.453 19.04 c 0 0.215 -1.844 1.207 -2.781 1.504 c -1.641 0.508 -4.223 0.621 -6.633 0.293 c -1.258 -0.18 -1.789 -0.328 -2.098 -0.625 c -0.285 -0.266 -0.012 -0.313 0.648 -0.113 c 2.453 0.75 2.602 0.777 4.391 0.785 c 2.27 0.008 3.438 -0.227 5.02 -1.023 c 0.75 -0.379 0.875 -0.453 1.133 -0.688 c 0.074 -0.07 0.148 -0.086 0.184 -0.059 c 0.023 0.039 0.051 0.012 0.051 -0.047 c 0 -0.066 0.02 -0.113 0.047 -0.113 c 0.027 0 0.047 0.039 0.047 0.086 m 0 0"
           fill="#f9f9f9"
           stroke="none"
           fill-rule="nonzero"
           fill-opacity="1"
           id="path53" />
      </g>
    </g>
  </g>
</svg>
