<?xml version="1.0" encoding="UTF-8" standalone="no"?>
<svg
   xmlns:dc="http://purl.org/dc/elements/1.1/"
   xmlns:cc="http://creativecommons.org/ns#"
   xmlns:rdf="http://www.w3.org/1999/02/22-rdf-syntax-ns#"
   xmlns:svg="http://www.w3.org/2000/svg"
   xmlns="http://www.w3.org/2000/svg"
   xmlns:xlink="http://www.w3.org/1999/xlink"
   xmlns:sodipodi="http://sodipodi.sourceforge.net/DTD/sodipodi-0.dtd"
   xmlns:inkscape="http://www.inkscape.org/namespaces/inkscape"
   viewBox="0 0 48 48"
   id="svg2"
   version="1.1"
   inkscape:version="0.48.5 r10040"
   width="100%"
   height="100%"
   sodipodi:docname="steam_icon_50.svg">
  <metadata
     id="metadata61">
    <rdf:RDF>
      <cc:Work
         rdf:about="">
        <dc:format>image/svg+xml</dc:format>
        <dc:type
           rdf:resource="http://purl.org/dc/dcmitype/StillImage" />
      </cc:Work>
    </rdf:RDF>
  </metadata>
  <sodipodi:namedview
     pagecolor="#ffffff"
     bordercolor="#666666"
     borderopacity="1"
     objecttolerance="10"
     gridtolerance="10"
     guidetolerance="10"
     inkscape:pageopacity="0"
     inkscape:pageshadow="2"
     inkscape:window-width="1301"
     inkscape:window-height="744"
     id="namedview59"
     showgrid="true"
     inkscape:zoom="6.3958333"
     inkscape:cx="33.529275"
     inkscape:cy="24.67744"
     inkscape:window-x="65"
     inkscape:window-y="24"
     inkscape:window-maximized="1"
     inkscape:current-layer="svg2">
    <inkscape:grid
       type="xygrid"
       id="grid3059" />
  </sodipodi:namedview>
  <defs
     id="defs4">
    <linearGradient
       id="linearGradient3764"
       x1="1"
       x2="47"
       gradientUnits="userSpaceOnUse"
       gradientTransform="matrix(0,-1,1,0,-1.5e-6,47.999998)">
      <stop
         stop-color="#4f4f4f"
         stop-opacity="1"
         id="stop7" />
      <stop
         offset="1"
         stop-color="#595959"
         stop-opacity="1"
         id="stop9"
         style="stop-color:#7d7d7d;stop-opacity:1;" />
    </linearGradient>
    <clipPath
       id="clipPath-445864888">
      <g
         transform="translate(0,-1004.3622)"
         id="g12">
        <path
           d="m -24 13 c 0 1.105 -0.672 2 -1.5 2 -0.828 0 -1.5 -0.895 -1.5 -2 0 -1.105 0.672 -2 1.5 -2 0.828 0 1.5 0.895 1.5 2 z"
           transform="matrix(15.333333,0,0,11.5,414.99999,878.8622)"
           fill="#1890d0"
           id="path14" />
      </g>
    </clipPath>
    <clipPath
       id="clipPath-458372188">
      <g
         transform="translate(0,-1004.3622)"
         id="g17">
        <path
           d="m -24 13 c 0 1.105 -0.672 2 -1.5 2 -0.828 0 -1.5 -0.895 -1.5 -2 0 -1.105 0.672 -2 1.5 -2 0.828 0 1.5 0.895 1.5 2 z"
           transform="matrix(15.333333,0,0,11.5,414.99999,878.8622)"
           fill="#1890d0"
           id="path19" />
      </g>
    </clipPath>
    <linearGradient
       y2="1028.3622"
       x2="44"
       y1="1028.3622"
       x1="4"
       gradientTransform="translate(-7.4468994e-7,-1004.3623)"
       gradientUnits="userSpaceOnUse"
       id="linearGradient3121"
       xlink:href="#linearGradient3764"
       inkscape:collect="always" />
  </defs>
  <rect
     style="fill:url(#linearGradient3121);fill-opacity:1.0;stroke:none"
     id="rect3758"
     width="40"
     height="40"
     x="4"
     y="4"
     ry="0" />
  <path
     style="opacity:0.35;fill:#000000;fill-opacity:1;stroke:none"
     d="m 4.0000009,43.999717 39.9999971,3e-4 c -19.999997,-1 -19.999997,-1 -39.9999985,0 z"
     id="path3800"
     inkscape:connector-curvature="0"
     sodipodi:nodetypes="cccc" />
  <path
     sodipodi:nodetypes="cccc"
     inkscape:connector-curvature="0"
     id="path3804"
     d="m 4.0000044,3.9999173 39.9999966,-2e-4 c -19.999996,1 -19.999996,1 -39.999998,0 z"
     style="opacity:0.75;fill:#ffffff;fill-opacity:1;stroke:none" />
  <g
     id="g33" />
  <g
     id="g35">
    <g
       clip-path="url(#clipPath-445864888)"
       id="g37">
      <g
         transform="translate(1,1)"
         id="g39">
        <g
           opacity="0.1"
           id="g41">
          <!-- color: #595959 -->
          <g
             id="g43">
            <path
               d="m 24 9 c -8.281 0 -15 6.715 -15 15 c 0 8.281 6.719 14.996 15 14.996 c 8.285 0 15 -6.715 15 -14.996 c 0 -8.285 -6.715 -15 -15 -15 m 0 3 c 6.629 0 12 5.371 12 12 c 0 6.625 -5.371 11.996 -12 11.996 c -6.625 0 -12 -5.371 -12 -11.996 c 0 -6.629 5.375 -12 12 -12 m -3.563 4.125 l 0 2.398 l 2.047 0 c 0.195 0.695 0.555 1.219 0.707 1.953 c -1.75 2.992 -3.762 6.25 -5.508 9.145 c -0.227 0.375 -0.559 0.828 -0.531 1.25 l 3.02 0 c 1.539 -2.195 2.867 -4.602 4.445 -6.75 c 0.879 2.496 1.926 4.824 2.754 7.371 c 1.684 -0.422 3.379 -0.828 4.793 -1.512 c -0.398 -0.668 -0.457 -1.668 -0.883 -2.309 c -0.672 0.273 -1.367 0.527 -2.133 0.707 c -1.438 -4.191 -3.18 -8.07 -4.617 -12.258 l -4.09 0 m -0.004 0.004"
               fill="#000"
               stroke="none"
               fill-rule="nonzero"
               fill-opacity="1"
               id="path45" />
          </g>
        </g>
      </g>
    </g>
  </g>
  <g
     id="g47">
    <g
       clip-path="url(#clipPath-458372188)"
       id="g49">
      <!-- color: #595959 -->
      <g
         id="g51">
        <path
           d="m 24 9 c -8.281 0 -15 6.715 -15 15 c 0 8.281 6.719 14.996 15 14.996 c 8.285 0 15 -6.715 15 -14.996 c 0 -8.285 -6.715 -15 -15 -15 m 0 3 c 6.629 0 12 5.371 12 12 c 0 6.625 -5.371 11.996 -12 11.996 c -6.625 0 -12 -5.371 -12 -11.996 c 0 -6.629 5.375 -12 12 -12 m -3.563 4.125 l 0 2.398 l 2.047 0 c 0.195 0.695 0.555 1.219 0.707 1.953 c -1.75 2.992 -3.762 6.25 -5.508 9.145 c -0.227 0.375 -0.559 0.828 -0.531 1.25 l 3.02 0 c 1.539 -2.195 2.867 -4.602 4.445 -6.75 c 0.879 2.496 1.926 4.824 2.754 7.371 c 1.684 -0.422 3.379 -0.828 4.793 -1.512 c -0.398 -0.668 -0.457 -1.668 -0.883 -2.309 c -0.672 0.273 -1.367 0.527 -2.133 0.707 c -1.438 -4.191 -3.18 -8.07 -4.617 -12.258 l -4.09 0 m -0.004 0.004"
           fill="#71cf71"
           stroke="none"
           fill-rule="nonzero"
           fill-opacity="1"
           id="path53" />
      </g>
    </g>
  </g>
</svg>
