<?xml version="1.0" encoding="UTF-8" standalone="no"?>
<svg
   xmlns:dc="http://purl.org/dc/elements/1.1/"
   xmlns:cc="http://creativecommons.org/ns#"
   xmlns:rdf="http://www.w3.org/1999/02/22-rdf-syntax-ns#"
   xmlns:svg="http://www.w3.org/2000/svg"
   xmlns="http://www.w3.org/2000/svg"
   xmlns:xlink="http://www.w3.org/1999/xlink"
   xmlns:sodipodi="http://sodipodi.sourceforge.net/DTD/sodipodi-0.dtd"
   xmlns:inkscape="http://www.inkscape.org/namespaces/inkscape"
   width="48"
   viewBox="0 0 13.546667 13.546667"
   height="48"
   id="svg2"
   version="1.1"
   inkscape:version="0.48.5 r10040"
   sodipodi:docname="steam_icon_1500.svg">
  <metadata
     id="metadata331">
    <rdf:RDF>
      <cc:Work
         rdf:about="">
        <dc:format>image/svg+xml</dc:format>
        <dc:type
           rdf:resource="http://purl.org/dc/dcmitype/StillImage" />
        <dc:title />
      </cc:Work>
    </rdf:RDF>
  </metadata>
  <sodipodi:namedview
     pagecolor="#ffffff"
     bordercolor="#666666"
     borderopacity="1"
     objecttolerance="10"
     gridtolerance="10"
     guidetolerance="10"
     inkscape:pageopacity="0"
     inkscape:pageshadow="2"
     inkscape:window-width="1301"
     inkscape:window-height="744"
     id="namedview329"
     showgrid="true"
     inkscape:zoom="10.185034"
     inkscape:cx="26.516999"
     inkscape:cy="26.545914"
     inkscape:window-x="65"
     inkscape:window-y="24"
     inkscape:window-maximized="1"
     inkscape:current-layer="layer3"
     showguides="true"
     inkscape:guide-bbox="true">
    <inkscape:grid
       type="xygrid"
       id="grid3308" />
  </sodipodi:namedview>
  <defs
     id="defs4">
    <linearGradient
       inkscape:collect="always"
       xlink:href="#linearGradient3764"
       id="linearGradient4033"
       x1="-27"
       y1="13"
       x2="-24"
       y2="13"
       gradientUnits="userSpaceOnUse" />
    <clipPath
       id="clipPath-962374130">
      <g
         transform="translate(0,-1004.3622)"
         id="g17">
        <rect
           style="fill:#1890d0"
           rx="4"
           y="1005.36"
           x="1"
           height="46"
           width="46"
           id="rect19" />
      </g>
    </clipPath>
    <clipPath
       id="clipPath-949413876">
      <g
         transform="translate(0,-1004.3622)"
         id="g12">
        <rect
           style="fill:#1890d0"
           rx="4"
           y="1005.36"
           x="1"
           height="46"
           width="46"
           id="rect14" />
      </g>
    </clipPath>
    <linearGradient
       id="linearGradient3764"
       x1="1"
       x2="47"
       gradientUnits="userSpaceOnUse"
       gradientTransform="translate(-48.000001,0.00221467)">
      <stop
         stop-color="#66da3e"
         stop-opacity="1"
         id="stop7-83" />
      <stop
         offset="1"
         stop-color="#75de4f"
         stop-opacity="1"
         id="stop9-0"
         style="stop-color:#97ef77;stop-opacity:1;" />
    </linearGradient>
    <linearGradient
       y2="1028.3622"
       x2="44"
       y1="1028.3622"
       x1="4"
       gradientTransform="matrix(0.28222223,0,0,0.28222223,0,-283.45333)"
       gradientUnits="userSpaceOnUse"
       id="linearGradient3121"
       xlink:href="#linearGradient3764"
       inkscape:collect="always" />
  </defs>
  <g
     inkscape:groupmode="layer"
     id="layer3"
     inkscape:label="Symbol"
     style="display:inline">
    <rect
       style="fill:url(#linearGradient3121);fill-opacity:1.0;stroke:none"
       id="rect3758"
       width="11.288889"
       height="11.288889"
       x="1.128889"
       y="1.128889"
       ry="0" />
    <path
       style="opacity:0.35;fill:#000000;fill-opacity:1;stroke:none"
       d="m 1.1288893,12.417698 11.2888887,8.5e-5 c -5.6444442,-0.282222 -5.6444442,-0.282222 -11.2888891,0 z"
       id="path3800"
       inkscape:connector-curvature="0"
       sodipodi:nodetypes="cccc" />
    <path
       sodipodi:nodetypes="cccc"
       inkscape:connector-curvature="0"
       id="path3804"
       d="m 1.1288903,1.1288656 11.2888877,-5.65e-5 c -5.6444431,0.2822223 -5.6444431,0.2822223 -11.2888881,0 z"
       style="opacity:0.75;fill:#ffffff;fill-opacity:1;stroke:none" />
    <g
       transform="matrix(0.28222223,0,0,0.28222223,0.28222222,0.2822222)"
       id="g35">
      <g
         clip-path="url(#clipPath-949413876)"
         id="g37">
        <g
           style="opacity:0.1"
           id="g39">
          <!-- color: #75de4f -->
          <g
             id="g41">
            <path
               style="fill:#000000;fill-opacity:1;fill-rule:nonzero;stroke:none"
               inkscape:connector-curvature="0"
               d="m 13,16 9,0 0,-4 4,0 0,4 9,0 0,4 -9,0 0,4 4,0 0,12 -4,0 0,-8 -4,0 0,8 -4,0 0,-12 4,0 0,-4 -9,0 m 0,-4"
               id="path43" />
          </g>
        </g>
      </g>
    </g>
    <g
       transform="matrix(0.28222223,0,0,0.28222223,-1.0833333e-8,0.2822222)"
       id="g45">
      <g
         clip-path="url(#clipPath-962374130)"
         id="g47">
        <g
           transform="translate(0,-1)"
           id="g49">
          <!-- color: #75de4f -->
          <g
             id="g51">
            <path
               style="fill:#2d2d2d;fill-opacity:1;fill-rule:nonzero;stroke:none"
               inkscape:connector-curvature="0"
               d="m 13,16 9,0 0,-4 4,0 0,4 9,0 0,4 -9,0 0,4 4,0 0,12 -4,0 0,-8 -4,0 0,8 -4,0 0,-12 4,0 0,-4 -9,0 m 0,-4"
               id="path53" />
          </g>
        </g>
      </g>
    </g>
  </g>
</svg>
