<?xml version="1.0" encoding="UTF-8" standalone="no"?>
<svg
   xmlns:dc="http://purl.org/dc/elements/1.1/"
   xmlns:cc="http://creativecommons.org/ns#"
   xmlns:rdf="http://www.w3.org/1999/02/22-rdf-syntax-ns#"
   xmlns:svg="http://www.w3.org/2000/svg"
   xmlns="http://www.w3.org/2000/svg"
   xmlns:xlink="http://www.w3.org/1999/xlink"
   xmlns:sodipodi="http://sodipodi.sourceforge.net/DTD/sodipodi-0.dtd"
   xmlns:inkscape="http://www.inkscape.org/namespaces/inkscape"
   viewBox="0 0 48 48"
   id="svg2"
   version="1.1"
   inkscape:version="0.48.5 r10040"
   width="100%"
   height="100%"
   sodipodi:docname="steam_icon_265630.svg">
  <metadata
     id="metadata89">
    <rdf:RDF>
      <cc:Work
         rdf:about="">
        <dc:format>image/svg+xml</dc:format>
        <dc:type
           rdf:resource="http://purl.org/dc/dcmitype/StillImage" />
      </cc:Work>
    </rdf:RDF>
  </metadata>
  <sodipodi:namedview
     pagecolor="#ffffff"
     bordercolor="#666666"
     borderopacity="1"
     objecttolerance="10"
     gridtolerance="10"
     guidetolerance="10"
     inkscape:pageopacity="0"
     inkscape:pageshadow="2"
     inkscape:window-width="1301"
     inkscape:window-height="744"
     id="namedview87"
     showgrid="true"
     inkscape:zoom="9.0450742"
     inkscape:cx="29.747195"
     inkscape:cy="20.522766"
     inkscape:window-x="65"
     inkscape:window-y="24"
     inkscape:window-maximized="1"
     inkscape:current-layer="svg2">
    <inkscape:grid
       type="xygrid"
       id="grid3087" />
  </sodipodi:namedview>
  <defs
     id="defs4">
    <linearGradient
       id="linearGradient3764"
       x1="1"
       x2="47"
       gradientUnits="userSpaceOnUse"
       gradientTransform="matrix(0,-1,1,0,-1.5e-6,47.999998)">
      <stop
         stop-color="#e7b60b"
         stop-opacity="1"
         id="stop7" />
      <stop
         offset="1"
         stop-color="#f4c211"
         stop-opacity="1"
         id="stop9"
         style="stop-color:#ffd12f;stop-opacity:1;" />
    </linearGradient>
    <clipPath
       id="clipPath-103458608">
      <g
         transform="translate(0,-1004.3622)"
         id="g12">
        <path
           d="m -24 13 c 0 1.105 -0.672 2 -1.5 2 -0.828 0 -1.5 -0.895 -1.5 -2 0 -1.105 0.672 -2 1.5 -2 0.828 0 1.5 0.895 1.5 2 z"
           transform="matrix(15.333333,0,0,11.5,414.99999,878.8622)"
           fill="#1890d0"
           id="path14" />
      </g>
    </clipPath>
    <clipPath
       id="clipPath-115754903">
      <g
         transform="translate(0,-1004.3622)"
         id="g17">
        <path
           d="m -24 13 c 0 1.105 -0.672 2 -1.5 2 -0.828 0 -1.5 -0.895 -1.5 -2 0 -1.105 0.672 -2 1.5 -2 0.828 0 1.5 0.895 1.5 2 z"
           transform="matrix(15.333333,0,0,11.5,414.99999,878.8622)"
           fill="#1890d0"
           id="path19" />
      </g>
    </clipPath>
    <linearGradient
       y2="1028.3622"
       x2="44"
       y1="1028.3622"
       x1="4"
       gradientTransform="translate(7.5866699e-8,-1004.3621)"
       gradientUnits="userSpaceOnUse"
       id="linearGradient3102"
       xlink:href="#linearGradient3764"
       inkscape:collect="always" />
  </defs>
  <rect
     style="fill:url(#linearGradient3102);fill-opacity:1.0;stroke:none"
     id="rect3758"
     width="40"
     height="40"
     x="4"
     y="4"
     ry="0" />
  <path
     style="opacity:0.35;fill:#000000;fill-opacity:1;stroke:none"
     d="m 4.0000011,43.999718 39.9999979,3e-4 c -19.999998,-1 -19.999998,-1 -39.9999989,0 z"
     id="path3800"
     inkscape:connector-curvature="0"
     sodipodi:nodetypes="cccc" />
  <path
     sodipodi:nodetypes="cccc"
     inkscape:connector-curvature="0"
     id="path3804"
     d="m 4.0000051,3.9999174 39.9999969,-2e-4 c -19.999997,1 -19.999997,1 -39.9999989,0 z"
     style="opacity:0.75;fill:#ffffff;fill-opacity:1;stroke:none" />
  <g
     id="g33" />
  <g
     id="g35">
    <g
       clip-path="url(#clipPath-103458608)"
       id="g37">
      <g
         transform="translate(1,1)"
         id="g39">
        <g
           opacity="0.1"
           id="g41">
          <!-- color: #f4c211 -->
          <g
             id="g43">
            <path
               d="m 25 15.406 c -1.359 1.727 -2.277 3.734 -2.875 5.75 l 0.188 -1.531 c 0.426 -1.211 -2.676 -2.191 -2.969 -1.031 c -0.469 1.688 -1.754 3.887 -1.406 5.063 c 0.727 2.512 2.043 1.559 3.063 2.344 l 0.07 0.051 c -0.266 2.551 -0.082 4.766 -0.07 5.949 l 5 0 l 0 -3.719 c 2.426 -0.434 5.176 -0.336 6 -3.281 c 0.188 -1.266 0.027 -3.039 -0.531 -4.594 c -1.094 -1.645 -2.805 -0.926 -3.094 0.125 l -0.375 3.156 c -0.301 -0.039 -0.609 -0.074 -0.906 -0.063 c 0.23 -1.406 0.777 -3.148 1.594 -5.281 m -3.688 -2.938"
               stroke-opacity="1"
               fill="#000"
               fill-rule="nonzero"
               stroke="#2d2d2d"
               stroke-linejoin="miter"
               fill-opacity="1"
               stroke-linecap="butt"
               stroke-width="0.4"
               stroke-miterlimit="4"
               id="path45" />
            <path
               d="m 24.27 12 c -6.625 0 -12.27 5.371 -12.27 12 c 0 6.629 5.371 12 12 12 c 6.629 0 12 -5.371 12 -12 l 0 -0.469 c -0.035 -0.871 -0.051 -2.859 -0.262 -3.672 l 2.949 -0.859 l -0.297 -2.703 l -5.801 0.52 c 0.289 0.824 0.371 5.895 0.41 6.809 l 0 0.375 c 0 4.973 -4.03 9 -9 9 c -4.973 0 -9 -4.03 -9 -9 c 0 -4.973 4.03 -9.484 9 -9.484 l 3.797 -0.242 l -0.629 -5.613 l -2.645 0.082 m -0.254 3.266"
               stroke-opacity="1"
               fill="#000"
               fill-rule="nonzero"
               stroke="#2d2d2d"
               stroke-linejoin="miter"
               fill-opacity="1"
               stroke-linecap="butt"
               stroke-width="0.4"
               stroke-miterlimit="4"
               id="path47" />
            <path
               d="m 23.19 15 c -0.145 1.422 1.871 1.52 2.809 2.277 l 1.738 -1.672 l -1.223 -0.883 c -2.031 -1.457 -3.32 -0.488 -3.324 0.277 m 0 0"
               stroke-opacity="1"
               fill="#000"
               fill-rule="nonzero"
               stroke="#2d2d2d"
               stroke-linejoin="miter"
               fill-opacity="1"
               stroke-linecap="butt"
               stroke-width="0.1"
               stroke-miterlimit="4"
               id="path49" />
            <path
               d="m 25.781 15.16 c 0.688 -0.309 0.75 -0.902 2.219 -0.852 c 0.465 0.469 1.836 1.551 1.836 2.688 l -1.105 1.496 l -2.289 -1.496 m -0.66 -1.836"
               stroke-opacity="1"
               fill="#000"
               fill-rule="nonzero"
               stroke="#2d2d2d"
               stroke-linejoin="miter"
               fill-opacity="1"
               stroke-linecap="butt"
               stroke-width="0.1"
               stroke-miterlimit="4"
               id="path51" />
            <path
               d="m 25.797 15.1 c -0.305 0.137 -0.629 0.414 -0.797 0.586 l 0.719 0.938 c 0.492 0.102 0.918 0.199 1.281 0.344 c -0.609 -0.535 -0.949 -1.203 -1.203 -1.867 m 0 0"
               fill="#000"
               stroke="none"
               fill-rule="nonzero"
               fill-opacity="1"
               id="path53" />
            <path
               d="m 24 14.492 c 0.836 -0.141 1.391 0.23 2 0.508 l 0.301 -0.164 c -1.488 -0.672 -1.984 -0.578 -2.301 -0.344 m 0 0"
               fill="#000"
               stroke="none"
               fill-rule="nonzero"
               fill-opacity="1"
               id="path55" />
            <path
               d="m 27.367 14.566 c 0.52 0.391 1.129 0.648 1.727 0.918 c -0.148 -0.238 -0.402 -0.461 -0.633 -0.688 c -0.328 -0.023 -0.672 -0.078 -1.035 -0.176 m -0.059 -0.055"
               fill="#000"
               stroke="none"
               fill-rule="nonzero"
               fill-opacity="1"
               id="path57" />
            <path
               d="m 24.06 16.313 c 0.996 0.652 1.531 1.246 2.473 1.906 c 1.082 0.797 1.293 1.879 1.906 2.156 c 0.195 -0.461 0.672 -0.813 1.219 -0.906 c -0.227 -0.469 -0.621 -1.078 -1.645 -1.938 c -0.77 -0.641 -1.941 -1.012 -3.941 -1.219 m -0.004 0"
               stroke-opacity="1"
               fill="#000"
               fill-rule="nonzero"
               stroke="#2d2d2d"
               stroke-linejoin="miter"
               fill-opacity="1"
               stroke-linecap="butt"
               stroke-width="0.1"
               stroke-miterlimit="4"
               id="path59" />
          </g>
        </g>
      </g>
    </g>
  </g>
  <g
     id="g61">
    <g
       clip-path="url(#clipPath-115754903)"
       id="g63">
      <!-- color: #f4c211 -->
      <g
         id="g65">
        <path
           d="m 25 15.406 c -1.359 1.727 -2.277 3.734 -2.875 5.75 l 0.188 -1.531 c 0.426 -1.211 -2.676 -2.191 -2.969 -1.031 c -0.469 1.688 -1.754 3.887 -1.406 5.063 c 0.727 2.512 2.043 1.559 3.063 2.344 l 0.07 0.051 c -0.266 2.551 -0.082 4.766 -0.07 5.949 l 5 0 l 0 -3.719 c 2.426 -0.434 5.176 -0.336 6 -3.281 c 0.188 -1.266 0.027 -3.039 -0.531 -4.594 c -1.094 -1.645 -2.805 -0.926 -3.094 0.125 l -0.375 3.156 c -0.301 -0.039 -0.609 -0.074 -0.906 -0.063 c 0.23 -1.406 0.777 -3.148 1.594 -5.281 m -3.688 -2.938"
           stroke-opacity="1"
           fill="#802020"
           fill-rule="nonzero"
           stroke="#2d2d2d"
           stroke-linejoin="miter"
           fill-opacity="1"
           stroke-linecap="butt"
           stroke-width="0.4"
           stroke-miterlimit="4"
           id="path67" />
        <path
           d="m 24.27 12 c -6.625 0 -12.27 5.371 -12.27 12 c 0 6.629 5.371 12 12 12 c 6.629 0 12 -5.371 12 -12 l 0 -0.469 c -0.035 -0.871 -0.051 -2.859 -0.262 -3.672 l 2.949 -0.859 l -0.297 -2.703 l -5.801 0.52 c 0.289 0.824 0.371 5.895 0.41 6.809 l 0 0.375 c 0 4.973 -4.03 9 -9 9 c -4.973 0 -9 -4.03 -9 -9 c 0 -4.973 4.03 -9.484 9 -9.484 l 3.797 -0.242 l -0.629 -5.613 l -2.645 0.082 m -0.254 3.266"
           stroke-opacity="1"
           fill="#802020"
           fill-rule="nonzero"
           stroke="#2d2d2d"
           stroke-linejoin="miter"
           fill-opacity="1"
           stroke-linecap="butt"
           stroke-width="0.4"
           stroke-miterlimit="4"
           id="path69" />
        <path
           d="m 23.19 15 c -0.145 1.422 1.871 1.52 2.809 2.277 l 1.738 -1.672 l -1.223 -0.883 c -2.031 -1.457 -3.32 -0.488 -3.324 0.277 m 0 0"
           stroke-opacity="1"
           fill="#f9f9f9"
           fill-rule="nonzero"
           stroke="#2d2d2d"
           stroke-linejoin="miter"
           fill-opacity="1"
           stroke-linecap="butt"
           stroke-width="0.1"
           stroke-miterlimit="4"
           id="path71" />
        <path
           d="m 25.781 15.16 c 0.688 -0.309 0.75 -0.902 2.219 -0.852 c 0.465 0.469 1.836 1.551 1.836 2.688 l -1.105 1.496 l -2.289 -1.496 m -0.66 -1.836"
           stroke-opacity="1"
           fill="#f9f9f9"
           fill-rule="nonzero"
           stroke="#2d2d2d"
           stroke-linejoin="miter"
           fill-opacity="1"
           stroke-linecap="butt"
           stroke-width="0.1"
           stroke-miterlimit="4"
           id="path73" />
        <path
           d="m 25.797 15.1 c -0.305 0.137 -0.629 0.414 -0.797 0.586 l 0.719 0.938 c 0.492 0.102 0.918 0.199 1.281 0.344 c -0.609 -0.535 -0.949 -1.203 -1.203 -1.867 m 0 0"
           fill="#2d2d2d"
           stroke="none"
           fill-rule="nonzero"
           fill-opacity="1"
           id="path75" />
        <path
           d="m 24 14.492 c 0.836 -0.141 1.391 0.23 2 0.508 l 0.301 -0.164 c -1.488 -0.672 -1.984 -0.578 -2.301 -0.344 m 0 0"
           fill="#2d2d2d"
           stroke="none"
           fill-rule="nonzero"
           fill-opacity="1"
           id="path77" />
        <path
           d="m 27.367 14.566 c 0.52 0.391 1.129 0.648 1.727 0.918 c -0.148 -0.238 -0.402 -0.461 -0.633 -0.688 c -0.328 -0.023 -0.672 -0.078 -1.035 -0.176 m -0.059 -0.055"
           fill="#2d2d2d"
           stroke="none"
           fill-rule="nonzero"
           fill-opacity="1"
           id="path79" />
        <path
           d="m 24.06 16.313 c 0.996 0.652 1.531 1.246 2.473 1.906 c 1.082 0.797 1.293 1.879 1.906 2.156 c 0.195 -0.461 0.672 -0.813 1.219 -0.906 c -0.227 -0.469 -0.621 -1.078 -1.645 -1.938 c -0.77 -0.641 -1.941 -1.012 -3.941 -1.219 m -0.004 0"
           stroke-opacity="1"
           fill="#f9f9f9"
           fill-rule="nonzero"
           stroke="#2d2d2d"
           stroke-linejoin="miter"
           fill-opacity="1"
           stroke-linecap="butt"
           stroke-width="0.1"
           stroke-miterlimit="4"
           id="path81" />
      </g>
    </g>
  </g>
</svg>
