<?xml version="1.0" encoding="UTF-8" standalone="no"?>
<svg
   xmlns:dc="http://purl.org/dc/elements/1.1/"
   xmlns:cc="http://creativecommons.org/ns#"
   xmlns:rdf="http://www.w3.org/1999/02/22-rdf-syntax-ns#"
   xmlns:svg="http://www.w3.org/2000/svg"
   xmlns="http://www.w3.org/2000/svg"
   xmlns:xlink="http://www.w3.org/1999/xlink"
   xmlns:sodipodi="http://sodipodi.sourceforge.net/DTD/sodipodi-0.dtd"
   xmlns:inkscape="http://www.inkscape.org/namespaces/inkscape"
   viewBox="0 0 48 48"
   id="svg2"
   version="1.1"
   inkscape:version="0.48.5 r10040"
   width="100%"
   height="100%"
   sodipodi:docname="steam_icon_4920.svg">
  <metadata
     id="metadata61">
    <rdf:RDF>
      <cc:Work
         rdf:about="">
        <dc:format>image/svg+xml</dc:format>
        <dc:type
           rdf:resource="http://purl.org/dc/dcmitype/StillImage" />
      </cc:Work>
    </rdf:RDF>
  </metadata>
  <sodipodi:namedview
     pagecolor="#ffffff"
     bordercolor="#666666"
     borderopacity="1"
     objecttolerance="10"
     gridtolerance="10"
     guidetolerance="10"
     inkscape:pageopacity="0"
     inkscape:pageshadow="2"
     inkscape:window-width="1301"
     inkscape:window-height="744"
     id="namedview59"
     showgrid="true"
     inkscape:zoom="8.1611908"
     inkscape:cx="28.247804"
     inkscape:cy="15.980443"
     inkscape:window-x="65"
     inkscape:window-y="24"
     inkscape:window-maximized="1"
     inkscape:current-layer="svg2">
    <inkscape:grid
       type="xygrid"
       id="grid3059" />
  </sodipodi:namedview>
  <defs
     id="defs4">
    <linearGradient
       id="linearGradient3764"
       x1="1"
       x2="47"
       gradientUnits="userSpaceOnUse"
       gradientTransform="matrix(0,-1,1,0,-1.5e-6,47.999998)">
      <stop
         stop-color="#921616"
         stop-opacity="1"
         id="stop7" />
      <stop
         offset="1"
         stop-color="#a31919"
         stop-opacity="1"
         id="stop9"
         style="stop-color:#e83e3e;stop-opacity:1;" />
    </linearGradient>
    <clipPath
       id="clipPath-185934952">
      <g
         transform="translate(0,-1004.3622)"
         id="g12">
        <path
           d="m -24 13 c 0 1.105 -0.672 2 -1.5 2 -0.828 0 -1.5 -0.895 -1.5 -2 0 -1.105 0.672 -2 1.5 -2 0.828 0 1.5 0.895 1.5 2 z"
           transform="matrix(15.333333,0,0,11.5,414.99999,878.8622)"
           fill="#1890d0"
           id="path14" />
      </g>
    </clipPath>
    <clipPath
       id="clipPath-194371479">
      <g
         transform="translate(0,-1004.3622)"
         id="g17">
        <path
           d="m -24 13 c 0 1.105 -0.672 2 -1.5 2 -0.828 0 -1.5 -0.895 -1.5 -2 0 -1.105 0.672 -2 1.5 -2 0.828 0 1.5 0.895 1.5 2 z"
           transform="matrix(15.333333,0,0,11.5,414.99999,878.8622)"
           fill="#1890d0"
           id="path19" />
      </g>
    </clipPath>
    <linearGradient
       y2="1028.3622"
       x2="44"
       y1="1028.3622"
       x1="4"
       gradientTransform="translate(1.0000002,-1004.3622)"
       gradientUnits="userSpaceOnUse"
       id="linearGradient3121"
       xlink:href="#linearGradient3764"
       inkscape:collect="always" />
  </defs>
  <rect
     style="fill:url(#linearGradient3121);fill-opacity:1.0;stroke:none"
     id="rect3758"
     width="40"
     height="40"
     x="5"
     y="4"
     ry="0" />
  <path
     style="opacity:0.35;fill:#000000;fill-opacity:1;stroke:none"
     d="m 5.0000016,43.999718 39.9999974,3e-4 c -19.999997,-1 -19.999997,-1 -39.9999988,0 z"
     id="path3800"
     inkscape:connector-curvature="0"
     sodipodi:nodetypes="cccc" />
  <path
     sodipodi:nodetypes="cccc"
     inkscape:connector-curvature="0"
     id="path3804"
     d="m 5.0000051,3.9999176 39.9999969,-2e-4 c -19.999996,1 -19.999996,1 -39.9999983,0 z"
     style="opacity:0.75;fill:#ffffff;fill-opacity:1;stroke:none" />
  <g
     id="g33" />
  <g
     id="g35">
    <g
       clip-path="url(#clipPath-185934952)"
       id="g37">
      <g
         transform="translate(1,1)"
         id="g39">
        <g
           opacity="0.1"
           id="g41">
          <!-- color: #a31919 -->
          <g
             id="g43">
            <path
               d="m 14.813 16 l -0.457 0.484 c -0.324 0.336 -0.691 0.359 -1.16 0.191 c -0.23 -0.082 -0.488 -0.324 -0.699 -0.121 c -0.199 0.195 0.086 0.352 0.293 0.434 c 0.836 0.34 1.305 0.828 1.109 1.848 c -0.199 1.02 -0.895 0.902 -1.496 1.012 c -0.453 0.078 -0.883 0.074 -1.109 0.285 c -0.449 0.422 -0.031 0.895 0.289 0.863 c 1.469 -0.125 2.695 0.992 2.027 2.453 l -0.723 1.586 l 0.773 0.047 l -2.656 6.05 l 6.609 0.867 l 2.027 -7.207 c 0.137 -0.492 0.789 -0.793 1.305 -0.82 l 3.137 -0.145 c 0.648 -0.027 1.383 -0.609 1.492 -1.25 l 0.191 -1.105 c 0.082 -0.457 0.242 -0.48 1.242 -0.48 l 4.5 0 l 0.5 -0.996 l 4.469 0 c 0.223 -0.004 0.246 -0.148 0.336 -0.348 l 0.191 -0.434 l 0 -2.688 l -0.438 -0.531 l -10.852 0 l -0.223 1 l -3 0 l -0.262 -1 l -7.43 0 m 7.492 4.832 l 1.531 0 c 1.738 0 1.77 2.785 0 2.785 l -1.531 0 c -1.613 0 -1.852 -2.785 0 -2.785 m 0.402 0.086 c -1.762 -0.008 -1.465 2.652 0 2.617 c -0.66 -0.891 -0.691 -1.773 0 -2.617 m 0 0"
               fill="#000"
               stroke="none"
               fill-rule="evenodd"
               fill-opacity="1"
               id="path45" />
          </g>
        </g>
      </g>
    </g>
  </g>
  <g
     id="g47">
    <g
       clip-path="url(#clipPath-194371479)"
       id="g49">
      <!-- color: #a31919 -->
      <g
         id="g51">
        <path
           d="m 14.813 16 l -0.457 0.484 c -0.324 0.336 -0.691 0.359 -1.16 0.191 c -0.23 -0.082 -0.488 -0.324 -0.699 -0.121 c -0.199 0.195 0.086 0.352 0.293 0.434 c 0.836 0.34 1.305 0.828 1.109 1.848 c -0.199 1.02 -0.895 0.902 -1.496 1.012 c -0.453 0.078 -0.883 0.074 -1.109 0.285 c -0.449 0.422 -0.031 0.895 0.289 0.863 c 1.469 -0.125 2.695 0.992 2.027 2.453 l -0.723 1.586 l 0.773 0.047 l -2.656 6.05 l 6.609 0.867 l 2.027 -7.207 c 0.137 -0.492 0.789 -0.793 1.305 -0.82 l 3.137 -0.145 c 0.648 -0.027 1.383 -0.609 1.492 -1.25 l 0.191 -1.105 c 0.082 -0.457 0.242 -0.48 1.242 -0.48 l 4.5 0 l 0.5 -0.996 l 4.469 0 c 0.223 -0.004 0.246 -0.148 0.336 -0.348 l 0.191 -0.434 l 0 -2.688 l -0.438 -0.531 l -10.852 0 l -0.223 1 l -3 0 l -0.262 -1 l -7.43 0 m 7.492 4.832 l 1.531 0 c 1.738 0 1.77 2.785 0 2.785 l -1.531 0 c -1.613 0 -1.852 -2.785 0 -2.785 m 0.402 0.086 c -1.762 -0.008 -1.465 2.652 0 2.617 c -0.66 -0.891 -0.691 -1.773 0 -2.617 m 0 0"
           fill="#f9f9f9"
           stroke="none"
           fill-rule="evenodd"
           fill-opacity="1"
           id="path53" />
      </g>
    </g>
  </g>
</svg>
