<?xml version="1.0" encoding="UTF-8" standalone="no"?>
<svg
   xmlns:dc="http://purl.org/dc/elements/1.1/"
   xmlns:cc="http://creativecommons.org/ns#"
   xmlns:rdf="http://www.w3.org/1999/02/22-rdf-syntax-ns#"
   xmlns:svg="http://www.w3.org/2000/svg"
   xmlns="http://www.w3.org/2000/svg"
   xmlns:xlink="http://www.w3.org/1999/xlink"
   xmlns:sodipodi="http://sodipodi.sourceforge.net/DTD/sodipodi-0.dtd"
   xmlns:inkscape="http://www.inkscape.org/namespaces/inkscape"
   viewBox="0 0 48 48"
   id="svg2"
   version="1.1"
   inkscape:version="0.48.5 r10040"
   width="100%"
   height="100%"
   sodipodi:docname="steam_icon_275390.svg"
   inkscape:export-filename="/home/ismael/Imágenes/icons.png"
   inkscape:export-xdpi="245"
   inkscape:export-ydpi="245">
  <metadata
     id="metadata81">
    <rdf:RDF>
      <cc:Work
         rdf:about="">
        <dc:format>image/svg+xml</dc:format>
        <dc:type
           rdf:resource="http://purl.org/dc/dcmitype/StillImage" />
        <dc:title />
      </cc:Work>
    </rdf:RDF>
  </metadata>
  <sodipodi:namedview
     pagecolor="#ffffff"
     bordercolor="#666666"
     borderopacity="1"
     objecttolerance="10"
     gridtolerance="10"
     guidetolerance="10"
     inkscape:pageopacity="0"
     inkscape:pageshadow="2"
     inkscape:window-width="1301"
     inkscape:window-height="744"
     id="namedview79"
     showgrid="true"
     inkscape:zoom="8.5442067"
     inkscape:cx="5.5177801"
     inkscape:cy="30.547431"
     inkscape:window-x="65"
     inkscape:window-y="24"
     inkscape:window-maximized="1"
     inkscape:current-layer="svg2">
    <inkscape:grid
       type="xygrid"
       id="grid3001" />
  </sodipodi:namedview>
  <defs
     id="defs4">
    <linearGradient
       id="linearGradient3764"
       x1="1"
       x2="47"
       gradientUnits="userSpaceOnUse"
       gradientTransform="matrix(0,-1,1,0,-1.5e-6,47.999998)">
      <stop
         stop-color="#e4e4e4"
         stop-opacity="1"
         id="stop7"
         offset="0"
         style="stop-color:#6b2160;stop-opacity:1;" />
      <stop
         offset="1"
         stop-color="#eee"
         stop-opacity="1"
         id="stop9"
         style="stop-color:#5b1d53;stop-opacity:1;" />
    </linearGradient>
    <linearGradient
       inkscape:collect="always"
       xlink:href="#linearGradient3764"
       id="linearGradient3003"
       x1="25"
       y1="1"
       x2="25"
       y2="47"
       gradientUnits="userSpaceOnUse" />
  </defs>
  <g
     id="g33"
     transform="matrix(1.6666668,0,0,1.6666668,-16.333337,-14.66667)" />
  <g
     id="g3151"
     transform="matrix(1.6666668,0,0,1.6666668,-16.333337,-13.000002)"
     style="opacity:0.1;fill:#000000">
    <path
       style="fill:#000000;stroke:none"
       d="m 18,14 7,-4 7,4 3,17 -6,5 -8,0 -6,-5 z"
       id="path3153"
       inkscape:connector-curvature="0"
       sodipodi:nodetypes="cccccccc" />
    <path
       inkscape:connector-curvature="0"
       id="path3155"
       d="m 18,32 7,1 7,-1 -1.4,-4 -11.2,0 z"
       style="fill:#000000;stroke:none"
       sodipodi:nodetypes="cccccc" />
    <path
       style="fill:#000000;stroke:none"
       d="m 20,31 10,0 -1,-2 -8,0 z"
       id="path3157"
       inkscape:connector-curvature="0" />
    <path
       style="fill:#000000;stroke:none"
       d="m 17,14 8,2 8,-2 1,7 -9,2 -9,-2 z"
       id="path3159"
       inkscape:connector-curvature="0"
       sodipodi:nodetypes="ccccccc" />
    <path
       style="fill:#000000;stroke:none"
       d="m 22,26 3,1 3,-1 0,-1 -2,0 0,-3 -1,-2 -1,2 0,3 -2,0 z"
       id="path3161"
       inkscape:connector-curvature="0"
       sodipodi:nodetypes="ccccccccccc" />
    <path
       style="fill:#000000;stroke:none"
       d="m 19,17 4,1 1,2 -5,0 z"
       id="path3163"
       inkscape:connector-curvature="0"
       sodipodi:nodetypes="ccccc" />
    <path
       sodipodi:nodetypes="ccccc"
       inkscape:connector-curvature="0"
       id="path3165"
       d="m 31,17 -4,1 -1,2 5,0 z"
       style="fill:#000000;stroke:none" />
    <g
       id="g3167"
       style="fill:#000000">
      <path
         sodipodi:nodetypes="cccccccccccccccc"
         inkscape:connector-curvature="0"
         id="path3169"
         d="m 25,10 -8,3 -3,18 6,5 10,0 6,-5 -3,-18 z m 0,1 7,3 3,17 -6,4 -8,0 -6,-4 3,-17 z"
         style="fill:#000000;stroke:none" />
      <path
         sodipodi:nodetypes="ccccccc"
         inkscape:connector-curvature="0"
         id="path3171"
         d="m 24,11 0,4 -2,0 0,-1 1,0 0,-3 z"
         style="fill:#000000;stroke:none" />
      <path
         sodipodi:nodetypes="ccccccc"
         style="fill:#000000;stroke:none"
         d="m 26,11 0,4 2,0 0,-1 -1,0 0,-3 z"
         id="path3173"
         inkscape:connector-curvature="0" />
      <path
         sodipodi:nodetypes="ccccccc"
         inkscape:connector-curvature="0"
         id="path3175"
         d="m 34,23 -5,1 0,2 1,0 0,-1 5,0 z"
         style="fill:#000000;stroke:none" />
      <path
         style="fill:#000000;stroke:none"
         d="m 16,23 c 1.642323,0.397619 3.377347,1 5,1 l 0,2 -1,0 0,-1 -5,0 z"
         id="path3177"
         inkscape:connector-curvature="0"
         sodipodi:nodetypes="ccccccc" />
    </g>
    <g
       style="fill:#000000"
       id="g3179">
      <path
         style="fill:#000000;stroke:none"
         d="m 25,10 -8,3 -3,18 6,5 10,0 6,-5 -3,-18 z m 0,1 7,3 3,17 -6,4 -8,0 -6,-4 3,-17 z"
         id="path3181"
         inkscape:connector-curvature="0"
         sodipodi:nodetypes="cccccccccccccccc" />
      <path
         style="fill:#000000;stroke:none"
         d="m 24,11 0,4 -2,0 0,-1 1,0 0,-3 z"
         id="path3183"
         inkscape:connector-curvature="0"
         sodipodi:nodetypes="ccccccc" />
      <path
         inkscape:connector-curvature="0"
         id="path3185"
         d="m 26,11 0,4 2,0 0,-1 -1,0 0,-3 z"
         style="fill:#000000;stroke:none"
         sodipodi:nodetypes="ccccccc" />
      <path
         style="fill:#000000;stroke:none"
         d="m 34,23 -5,1 0,2 1,0 0,-1 5,0 z"
         id="path3187"
         inkscape:connector-curvature="0"
         sodipodi:nodetypes="ccccccc" />
      <path
         sodipodi:nodetypes="ccccccc"
         inkscape:connector-curvature="0"
         id="path3189"
         d="m 16,23 c 1.642323,0.397619 3.377347,1 5,1 l 0,2 -1,0 0,-1 -5,0 z"
         style="fill:#000000;stroke:none" />
    </g>
  </g>
  <path
     style="fill:#ff5555;stroke:none"
     d="m 11.999999,8.6666659 11.666667,-6.666667 11.666668,6.666667 5.000001,28.3333361 -10.000001,8.333334 -13.333335,0 -10.0000006,-8.333334 z"
     id="path3005"
     inkscape:connector-curvature="0"
     sodipodi:nodetypes="cccccccc" />
  <path
     inkscape:connector-curvature="0"
     id="path3017"
     d="m 11.999999,38.66667 11.666667,1.666666 11.666668,-1.666666 -2.333333,-6.666668 -18.666669,0 z"
     style="fill:#ffff00;stroke:none"
     sodipodi:nodetypes="cccccc" />
  <path
     style="fill:#333333;stroke:none"
     d="m 15.333333,37.000002 16.666668,0 -1.666667,-3.333334 -13.333335,0 z"
     id="path3007"
     inkscape:connector-curvature="0" />
  <path
     style="fill:#ffff00;stroke:none"
     d="M 10.333332,8.6666659 23.666666,12 37.000001,8.6666659 38.666669,20.333334 23.666666,23.666667 8.666665,20.333334 z"
     id="path3015"
     inkscape:connector-curvature="0"
     sodipodi:nodetypes="ccccccc" />
  <path
     style="fill:#333333;stroke:none"
     d="m 18.666666,28.666668 5,1.666667 5.000001,-1.666667 0,-1.666666 -3.333333,0 0,-5.000002 L 23.666666,18.666667 22,22 l 0,5.000002 -3.333334,0 z"
     id="path3009"
     inkscape:connector-curvature="0"
     sodipodi:nodetypes="ccccccccccc" />
  <path
     style="fill:#333333;stroke:none"
     d="M 13.666666,13.666667 20.333333,15.333334 22,18.666667 l -8.333334,0 z"
     id="path3011"
     inkscape:connector-curvature="0"
     sodipodi:nodetypes="ccccc" />
  <path
     sodipodi:nodetypes="ccccc"
     inkscape:connector-curvature="0"
     id="path3013"
     d="m 33.666667,13.666667 -6.666666,1.666667 -1.666667,3.333333 8.333333,0 z"
     style="fill:#333333;stroke:none" />
  <g
     id="g3111"
     style="fill:#ffcc00"
     transform="matrix(1.6666668,0,0,1.6666668,-18.000004,-14.66667)">
    <path
       sodipodi:nodetypes="cccccccccccccccc"
       inkscape:connector-curvature="0"
       id="path3019"
       d="m 25,10 -8,3 -3,18 6,5 10,0 6,-5 -3,-18 z m 0,1 7,3 3,17 -6,4 -8,0 -6,-4 3,-17 z"
       style="fill:#ffcc00;stroke:none" />
    <path
       sodipodi:nodetypes="ccccccc"
       inkscape:connector-curvature="0"
       id="path3024"
       d="m 24,11 0,4 -2,0 0,-1 1,0 0,-3 z"
       style="fill:#ffcc00;stroke:none" />
    <path
       sodipodi:nodetypes="ccccccc"
       style="fill:#ffcc00;stroke:none"
       d="m 26,11 0,4 2,0 0,-1 -1,0 0,-3 z"
       id="path3026"
       inkscape:connector-curvature="0" />
    <path
       sodipodi:nodetypes="ccccccc"
       inkscape:connector-curvature="0"
       id="path3028"
       d="m 34,23 -5,1 0,2 1,0 0,-1 5,0 z"
       style="fill:#ffcc00;stroke:none" />
    <path
       style="fill:#ffcc00;stroke:none"
       d="m 16,23 c 1.642323,0.397619 3.377347,1 5,1 l 0,2 -1,0 0,-1 -5,0 z"
       id="path3030"
       inkscape:connector-curvature="0"
       sodipodi:nodetypes="ccccccc" />
  </g>
  <g
     style="fill:#66ff00"
     id="g3118"
     transform="matrix(1.6666668,0,0,1.6666668,-18.000004,-14.66667)">
    <path
       style="fill:#66ff00;stroke:none"
       d="m 25,10 -8,3 -3,18 6,5 10,0 6,-5 -3,-18 z m 0,1 7,3 3,17 -6,4 -8,0 -6,-4 3,-17 z"
       id="path3120"
       inkscape:connector-curvature="0"
       sodipodi:nodetypes="cccccccccccccccc" />
    <path
       style="fill:#66ff00;stroke:none"
       d="m 24,11 0,4 -2,0 0,-1 1,0 0,-3 z"
       id="path3122"
       inkscape:connector-curvature="0"
       sodipodi:nodetypes="ccccccc" />
    <path
       inkscape:connector-curvature="0"
       id="path3124"
       d="m 26,11 0,4 2,0 0,-1 -1,0 0,-3 z"
       style="fill:#66ff00;stroke:none"
       sodipodi:nodetypes="ccccccc" />
    <path
       style="fill:#66ff00;stroke:none"
       d="m 34,23 -5,1 0,2 1,0 0,-1 5,0 z"
       id="path3126"
       inkscape:connector-curvature="0"
       sodipodi:nodetypes="ccccccc" />
    <path
       sodipodi:nodetypes="ccccccc"
       inkscape:connector-curvature="0"
       id="path3128"
       d="m 16,23 c 1.642323,0.397619 3.377347,1 5,1 l 0,2 -1,0 0,-1 -5,0 z"
       style="fill:#66ff00;stroke:none" />
  </g>
</svg>
