<?xml version="1.0" encoding="UTF-8" standalone="no"?>
<!-- Created with Inkscape (http://www.inkscape.org/) -->

<svg
   xmlns:dc="http://purl.org/dc/elements/1.1/"
   xmlns:cc="http://creativecommons.org/ns#"
   xmlns:rdf="http://www.w3.org/1999/02/22-rdf-syntax-ns#"
   xmlns:svg="http://www.w3.org/2000/svg"
   xmlns="http://www.w3.org/2000/svg"
   xmlns:xlink="http://www.w3.org/1999/xlink"
   xmlns:sodipodi="http://sodipodi.sourceforge.net/DTD/sodipodi-0.dtd"
   xmlns:inkscape="http://www.inkscape.org/namespaces/inkscape"
   width="48"
   height="48"
   id="svg2"
   version="1.1"
   inkscape:version="0.91 r13725"
   sodipodi:docname="63EE_sublime_text.0.svg">
  <defs
     id="defs4">
    <linearGradient
       inkscape:collect="always"
       id="linearGradient3215">
      <stop
         style="stop-color:#e6e6e6;stop-opacity:1"
         offset="0"
         id="stop3217" />
      <stop
         style="stop-color:#f2f2f2;stop-opacity:1"
         offset="1"
         id="stop3219" />
    </linearGradient>
    <linearGradient
       id="linearGradient1489">
      <stop
         id="stop1491"
         offset="0"
         style="stop-color:#f9f9f9;stop-opacity:1" />
      <stop
         id="stop1493"
         offset="1"
         style="stop-color:#ffffff;stop-opacity:1" />
    </linearGradient>
    <linearGradient
       id="linearGradient3795">
      <stop
         style="stop-color:#5c5c5c;stop-opacity:1;"
         offset="0"
         id="stop3797" />
      <stop
         style="stop-color:#a8a8a8;stop-opacity:1;"
         offset="1"
         id="stop3799" />
    </linearGradient>
    <linearGradient
       inkscape:collect="always"
       xlink:href="#linearGradient3795"
       id="linearGradient1587"
       x1="0"
       y1="7.1999998"
       x2="48"
       y2="7.1999998"
       gradientUnits="userSpaceOnUse"
       gradientTransform="matrix(0.83333333,0,0,0.83333333,4,1008.3622)" />
    <linearGradient
       inkscape:collect="always"
       xlink:href="#linearGradient3215"
       id="linearGradient3221"
       x1="4"
       y1="1028.3622"
       x2="44"
       y2="1028.3622"
       gradientUnits="userSpaceOnUse" />
  </defs>
  <sodipodi:namedview
     id="base"
     pagecolor="#ffffff"
     bordercolor="#666666"
     borderopacity="1.0"
     inkscape:pageopacity="0.0"
     inkscape:pageshadow="2"
     inkscape:zoom="3.1156893"
     inkscape:cx="74.207477"
     inkscape:cy="44.668656"
     inkscape:document-units="px"
     inkscape:current-layer="layer1"
     showgrid="true"
     inkscape:window-width="1366"
     inkscape:window-height="705"
     inkscape:window-x="0"
     inkscape:window-y="28"
     inkscape:window-maximized="1"
     inkscape:snap-bbox="true"
     inkscape:object-nodes="true"
     inkscape:object-paths="true"
     inkscape:snap-smooth-nodes="true"
     inkscape:snap-midpoints="true"
     inkscape:snap-object-midpoints="true"
     inkscape:snap-center="true">
    <inkscape:grid
       type="xygrid"
       id="grid3850" />
  </sodipodi:namedview>
  <metadata
     id="metadata7">
    <rdf:RDF>
      <cc:Work
         rdf:about="">
        <dc:format>image/svg+xml</dc:format>
        <dc:type
           rdf:resource="http://purl.org/dc/dcmitype/StillImage" />
        <dc:title />
      </cc:Work>
    </rdf:RDF>
  </metadata>
  <g
     inkscape:label="Capa 1"
     inkscape:groupmode="layer"
     id="layer1"
     transform="translate(0,-1004.3622)">
    <path
       style="fill:url(#linearGradient3221);fill-opacity:1;stroke:none"
       d="m 5.6145833,1008.3622 -1.6145833,0 0,1.6146 0,18.3854 0,18.3854 0,1.6146 1.6145833,0 18.3854167,0 18.385417,0 1.614583,0 0,-1.6146 0,-18.3854 0,-18.3854 0,-1.6146 -1.614583,0 -18.385417,0 z m 0.9635417,1.5886 c 0.5034102,0 0.9114583,0.408 0.9114583,0.9114 0,0.5034 -0.4080481,0.9115 -0.9114583,0.9115 -0.5034103,0 -0.9114583,-0.4081 -0.9114583,-0.9115 0,-0.5034 0.408048,-0.9114 0.9114583,-0.9114 z m 0,5 c 0.5034102,0 0.9114583,0.408 0.9114583,0.9114 0,0.5034 -0.4080481,0.9115 -0.9114583,0.9115 -0.5034103,0 -0.9114583,-0.4081 -0.9114583,-0.9115 0,-0.5034 0.408048,-0.9114 0.9114583,-0.9114 z m 0,5 c 0.5034102,0 0.9114583,0.408 0.9114583,0.9114 0,0.5034 -0.4080481,0.9115 -0.9114583,0.9115 -0.5034103,0 -0.9114583,-0.4081 -0.9114583,-0.9115 0,-0.5034 0.408048,-0.9114 0.9114583,-0.9114 z m 0,5 c 0.5034102,0 0.9114583,0.408 0.9114583,0.9114 0,0.5034 -0.4080481,0.9115 -0.9114583,0.9115 -0.5034103,0 -0.9114583,-0.4081 -0.9114583,-0.9115 0,-0.5034 0.408048,-0.9114 0.9114583,-0.9114 z m 0,5 c 0.5034102,0 0.9114583,0.408 0.9114583,0.9114 0,0.5034 -0.4080481,0.9115 -0.9114583,0.9115 -0.5034103,0 -0.9114583,-0.4081 -0.9114583,-0.9115 0,-0.5034 0.408048,-0.9114 0.9114583,-0.9114 z m 0,5 c 0.5034102,0 0.9114583,0.408 0.9114583,0.9114 0,0.5034 -0.4080481,0.9115 -0.9114583,0.9115 -0.5034103,0 -0.9114583,-0.4081 -0.9114583,-0.9115 0,-0.5034 0.408048,-0.9114 0.9114583,-0.9114 z m 0,5 c 0.5034102,0 0.9114583,0.408 0.9114583,0.9114 0,0.5034 -0.4080481,0.9115 -0.9114583,0.9115 -0.5034103,0 -0.9114583,-0.4081 -0.9114583,-0.9115 0,-0.5034 0.408048,-0.9114 0.9114583,-0.9114 z m 0,5 c 0.5034102,0 0.9114583,0.408 0.9114583,0.9114 0,0.5034 -0.4080481,0.9115 -0.9114583,0.9115 -0.5034103,0 -0.9114583,-0.4081 -0.9114583,-0.9115 0,-0.5034 0.408048,-0.9114 0.9114583,-0.9114 z"
       id="rect2991-1"
       inkscape:connector-curvature="0"
       sodipodi:nodetypes="cccccccccccccccccssssssssssssssssssssssssssssssssssssssss" />
    <path
       style="color:#000000;fill:url(#linearGradient1587);fill-opacity:1;fill-rule:nonzero;stroke:none;stroke-width:0.2;marker:none;visibility:visible;display:inline;overflow:visible;enable-background:accumulate"
       d="m 5.6145833,1008.3622 -1.6145833,0 0,1.6146 0,8.6979 40,0 0,-8.6979 0,-1.6146 -1.614583,0 -18.385417,0 z m 0.9635417,1.5885 c 0.5034102,0 0.9114583,0.4081 0.9114583,0.9115 0,0.5034 -0.4080481,0.9115 -0.9114583,0.9115 -0.5034103,0 -0.9114583,-0.4081 -0.9114583,-0.9115 0,-0.5034 0.408048,-0.9115 0.9114583,-0.9115 z m 0,5 c 0.5034102,0 0.9114583,0.4081 0.9114583,0.9115 0,0.5034 -0.4080481,0.9115 -0.9114583,0.9115 -0.5034103,0 -0.9114583,-0.4081 -0.9114583,-0.9115 0,-0.5034 0.408048,-0.9115 0.9114583,-0.9115 z"
       id="rect1579"
       inkscape:connector-curvature="0"
       sodipodi:nodetypes="ccccccccccssssssssss" />
    <path
       inkscape:connector-curvature="0"
       style="color:#000000;fill:#cfd3df;fill-opacity:1;fill-rule:nonzero;stroke:none;stroke-width:0.2;marker:none;visibility:visible;display:inline;overflow:visible;enable-background:accumulate"
       d="m 4,1045.1591 0,-0.1301 40,0 0,0.1301 -40,0 z"
       id="path1685" />
    <path
       id="path1807"
       d="m 4,1041.8258 0,-0.1303 40,0 0,0.1303 -40,0 z"
       style="color:#000000;fill:#cfd3df;fill-opacity:1;fill-rule:nonzero;stroke:none;stroke-width:0.2;marker:none;visibility:visible;display:inline;overflow:visible;enable-background:accumulate"
       inkscape:connector-curvature="0" />
    <path
       inkscape:connector-curvature="0"
       style="color:#000000;fill:#cfd3df;fill-opacity:1;fill-rule:nonzero;stroke:none;stroke-width:0.2;marker:none;visibility:visible;display:inline;overflow:visible;enable-background:accumulate"
       d="m 4,1038.4925 0,-0.1303 40,0 0,0.1303 -40,0 z"
       id="path1813" />
    <path
       id="path1819"
       d="m 4,1035.1591 0,-0.1302 40,0 0,0.1302 -40,0 z"
       style="color:#000000;fill:#cfd3df;fill-opacity:1;fill-rule:nonzero;stroke:none;stroke-width:0.2;marker:none;visibility:visible;display:inline;overflow:visible;enable-background:accumulate"
       inkscape:connector-curvature="0" />
    <path
       inkscape:connector-curvature="0"
       style="color:#000000;fill:#cfd3df;fill-opacity:1;fill-rule:nonzero;stroke:none;stroke-width:0.2;marker:none;visibility:visible;display:inline;overflow:visible;enable-background:accumulate"
       d="m 4,1031.8258 0,-0.1303 40,0 0,0.1303 -40,0 z"
       id="path1825" />
    <path
       id="path1831"
       d="m 4,1028.4925 0,-0.1303 40,0 0,0.1303 -40,0 z"
       style="color:#000000;fill:#cfd3df;fill-opacity:1;fill-rule:nonzero;stroke:none;stroke-width:0.2;marker:none;visibility:visible;display:inline;overflow:visible;enable-background:accumulate"
       inkscape:connector-curvature="0" />
    <path
       inkscape:connector-curvature="0"
       style="color:#000000;fill:#cfd3df;fill-opacity:1;fill-rule:nonzero;stroke:none;stroke-width:0.2;marker:none;visibility:visible;display:inline;overflow:visible;enable-background:accumulate"
       d="m 4,1025.1591 0,-0.1302 40,0 0,0.1302 -40,0 z"
       id="path1837" />
    <path
       id="path1843"
       d="m 4,1021.8258 0,-0.1303 40,0 0,0.1303 -40,0 z"
       style="color:#000000;fill:#cfd3df;fill-opacity:1;fill-rule:nonzero;stroke:none;stroke-width:0.2;marker:none;visibility:visible;display:inline;overflow:visible;enable-background:accumulate"
       inkscape:connector-curvature="0" />
    <path
       style="fill:#666666;fill-opacity:1;stroke:none"
       d="m 3.9999982,1048.3621 39.9999968,3e-4 c -19.999997,-1 -19.999997,-1 -39.9999982,0 z"
       id="path3800"
       inkscape:connector-curvature="0"
       sodipodi:nodetypes="cccc" />
    <path
       sodipodi:nodetypes="cccc"
       inkscape:connector-curvature="0"
       id="path3804"
       d="m 4.0000017,1008.3623 39.9999963,-2e-4 c -19.999996,1 -19.999996,1 -39.9999976,0 z"
       style="fill:#ececec;fill-opacity:1;stroke:none" />
    <text
       xml:space="preserve"
       style="font-size:40px;font-style:normal;font-weight:normal;line-height:125%;letter-spacing:0px;word-spacing:0px;fill:#666666;fill-opacity:1;stroke:none;font-family:Nexa Light;-inkscape-font-specification:Nexa Light;opacity:0.75000000000000000"
       x="16.015625"
       y="1041.1434"
       id="text3772"
       sodipodi:linespacing="125%"><tspan
         sodipodi:role="line"
         id="tspan3774"
         x="16.015625"
         y="1041.1434">s</tspan></text>
  </g>
</svg>
