<?xml version="1.0" encoding="UTF-8" standalone="no"?>
<svg
   xmlns:dc="http://purl.org/dc/elements/1.1/"
   xmlns:cc="http://creativecommons.org/ns#"
   xmlns:rdf="http://www.w3.org/1999/02/22-rdf-syntax-ns#"
   xmlns:svg="http://www.w3.org/2000/svg"
   xmlns="http://www.w3.org/2000/svg"
   xmlns:sodipodi="http://sodipodi.sourceforge.net/DTD/sodipodi-0.dtd"
   xmlns:inkscape="http://www.inkscape.org/namespaces/inkscape"
   viewBox="0 0 48 48"
   id="svg2"
   version="1.1"
   inkscape:version="0.48.5 r10040"
   width="100%"
   height="100%"
   sodipodi:docname="supertux.svg">
  <metadata
     id="metadata93">
    <rdf:RDF>
      <cc:Work
         rdf:about="">
        <dc:format>image/svg+xml</dc:format>
        <dc:type
           rdf:resource="http://purl.org/dc/dcmitype/StillImage" />
      </cc:Work>
    </rdf:RDF>
  </metadata>
  <sodipodi:namedview
     pagecolor="#ffffff"
     bordercolor="#666666"
     borderopacity="1"
     objecttolerance="10"
     gridtolerance="10"
     guidetolerance="10"
     inkscape:pageopacity="0"
     inkscape:pageshadow="2"
     inkscape:window-width="1301"
     inkscape:window-height="744"
     id="namedview91"
     showgrid="false"
     inkscape:zoom="6.3958333"
     inkscape:cx="34.530355"
     inkscape:cy="19.365331"
     inkscape:window-x="65"
     inkscape:window-y="24"
     inkscape:window-maximized="1"
     inkscape:current-layer="svg2" />
  <defs
     id="defs4">
    <linearGradient
       id="linearGradient3764"
       x1="1"
       x2="47"
       gradientUnits="userSpaceOnUse"
       gradientTransform="matrix(0,-1,1,0,-1.5e-6,47.999998)">
      <stop
         stop-color="#c3cfdd"
         stop-opacity="1"
         id="stop7" />
      <stop
         offset="1"
         stop-color="#d0d9e4"
         stop-opacity="1"
         id="stop9" />
    </linearGradient>
    <clipPath
       id="clipPath-588033436">
      <g
         transform="translate(0,-1004.3622)"
         id="g12">
        <path
           d="m -24 13 c 0 1.105 -0.672 2 -1.5 2 -0.828 0 -1.5 -0.895 -1.5 -2 0 -1.105 0.672 -2 1.5 -2 0.828 0 1.5 0.895 1.5 2 z"
           transform="matrix(15.333333,0,0,11.5,414.99999,878.8622)"
           fill="#1890d0"
           id="path14" />
      </g>
    </clipPath>
    <clipPath
       id="clipPath-596082226">
      <g
         transform="translate(0,-1004.3622)"
         id="g17">
        <path
           d="m -24 13 c 0 1.105 -0.672 2 -1.5 2 -0.828 0 -1.5 -0.895 -1.5 -2 0 -1.105 0.672 -2 1.5 -2 0.828 0 1.5 0.895 1.5 2 z"
           transform="matrix(15.333333,0,0,11.5,414.99999,878.8622)"
           fill="#1890d0"
           id="path19" />
      </g>
    </clipPath>
  </defs>
  <g
     id="g33"
     transform="matrix(1.8187009,0,0,1.8187009,-20.053245,-20.049239)" />
  <g
     id="g35"
     transform="matrix(1.8187009,0,0,1.8187009,-20.053245,-20.049239)">
    <g
       clip-path="url(#clipPath-588033436)"
       id="g37">
      <g
         transform="translate(1,1)"
         id="g39">
        <g
           id="g41"
           style="opacity:0.1">
          <!-- color: #d0d9e4 -->
          <g
             id="g43">
            <path
               d="m 22.48,12.156 c -3.207,0.719 -5.664,3.992 -5.734,7.984 -0.008,0.566 0.023,1.121 0.109,1.656 0,0.004 0.004,0.008 0.004,0.016 -0.523,1.176 -0.848,2.477 -0.871,3.879 -0.086,4.98 3.438,9.08 7.852,9.152 4.414,0.078 8.06,-3.891 8.16,-8.879 0.031,-1.852 -0.418,-3.59 -1.238,-5.04 0.012,-0.188 0.023,-0.355 0.027,-0.543 0.074,-4.566 -3,-8.328 -6.871,-8.398 -0.484,-0.008 -0.961,0.055 -1.418,0.156 m -0.02,0.008"
               id="path45"
               inkscape:connector-curvature="0"
               style="fill:#000000;fill-opacity:1;fill-rule:nonzero;stroke:none" />
            <path
               d="m 21.04,14.762 c -1.035,0.352 -1.813,1.465 -1.848,2.805 -0.027,1.16 0.496,2.176 1.301,2.691 -1.793,1.297 -3.02,3.602 -3.086,6.262 -0.109,4.164 2.652,7.602 6.164,7.691 3.508,0.086 6.441,-3.207 6.551,-7.371 0.082,-3.082 -1.418,-5.766 -3.617,-6.988 1.242,-0.145 2.195,-0.996 2.188,-2.01 -0.012,-1.109 -1.164,-1.98 -2.57,-1.965 -0.832,0.008 -1.563,0.32 -2.02,0.813 -0.316,-1.168 -1.215,-2.031 -2.316,-2.059 -0.266,-0.012 -0.508,0.031 -0.75,0.121 m 2.945,4.148 c 0.07,0.09 0.148,0.164 0.23,0.246 -0.09,-0.008 -0.172,-0.016 -0.258,-0.02 -0.023,0 -0.055,-0.004 -0.086,-0.008 0.039,-0.074 0.082,-0.141 0.113,-0.219 m 0,0"
               id="path47"
               inkscape:connector-curvature="0"
               style="fill:#000000;fill-opacity:1;fill-rule:nonzero;stroke:none" />
            <path
               d="m 23.742,18.03 c 0.047,0.516 -0.207,0.961 -0.566,0.992 -0.363,0.031 -0.691,-0.363 -0.738,-0.883 -0.043,-0.523 0.211,-0.965 0.57,-0.996 0.359,-0.027 0.691,0.367 0.734,0.887 m 0,0"
               id="path49"
               inkscape:connector-curvature="0"
               style="fill:#000000;fill-opacity:1;fill-rule:nonzero;stroke:none" />
            <path
               d="m 25.496,18 c 0.047,0.352 -0.043,0.695 -0.234,0.895 -0.191,0.199 -0.453,0.223 -0.676,0.059 -0.223,-0.164 -0.375,-0.484 -0.391,-0.836 -0.047,-0.348 0.043,-0.691 0.234,-0.891 0.191,-0.199 0.453,-0.223 0.676,-0.063 0.227,0.164 0.375,0.488 0.391,0.836 m 0,0"
               id="path51"
               inkscape:connector-curvature="0"
               style="fill:#000000;fill-opacity:1;fill-rule:nonzero;stroke:none" />
            <path
               d="m 21.355,20.09 c 0,0 1.559,-0.871 2.668,-0.762 1.105,0.105 2.063,0.941 2.063,0.941 0,0 -0.906,2.902 -2.594,2.656 -1.688,-0.25 -2.141,-2.836 -2.141,-2.836 m 0.004,0"
               id="path53"
               inkscape:connector-curvature="0"
               style="fill:#000000;fill-opacity:1;fill-rule:nonzero;stroke:none" />
            <path
               d="m 17.08,22.04 c 0,0 0.664,1.574 1.539,2.867 0.875,1.297 1.895,3.48 0.328,2.68 -1.559,-0.797 -2.645,-2.043 -2.426,-3.48 0.227,-1.438 0.566,-2.07 0.566,-2.07 m -0.008,0.004"
               id="path55"
               inkscape:connector-curvature="0"
               style="fill:#000000;fill-opacity:1;fill-rule:nonzero;stroke:none" />
            <path
               d="m 30.17,20.586 c 0,0 -0.871,2.051 -2.023,3.734 -1.145,1.688 -2.473,4.527 -0.438,3.492 2.031,-1.031 3.465,-2.652 3.172,-4.523 -0.293,-1.875 -0.727,-2.703 -0.727,-2.703 m 0.004,0"
               id="path57"
               inkscape:connector-curvature="0"
               style="fill:#000000;fill-opacity:1;fill-rule:nonzero;stroke:none" />
            <path
               d="m 17.941,33.3 c -0.465,1.109 0.262,2.277 1.621,2.609 1.359,0.328 2.84,-0.301 3.305,-1.414 0.465,-1.109 -0.262,-2.277 -1.621,-2.609 -1.359,-0.328 -2.84,0.305 -3.305,1.414 m 0,0"
               id="path59"
               inkscape:connector-curvature="0"
               style="fill:#000000;fill-opacity:1;fill-rule:nonzero;stroke:none" />
            <path
               d="m 29.988,33.31 c 0.445,1 -0.25,2.059 -1.559,2.359 -1.305,0.297 -2.727,-0.273 -3.172,-1.277 -0.445,-1 0.254,-2.063 1.559,-2.359 1.305,-0.301 2.727,0.273 3.172,1.277 m 0,0"
               id="path61"
               inkscape:connector-curvature="0"
               style="fill:#000000;fill-opacity:1;fill-rule:nonzero;stroke:none" />
          </g>
        </g>
      </g>
    </g>
  </g>
  <g
     id="g63"
     transform="matrix(1.8187009,0,0,1.8187009,-20.053245,-20.049239)">
    <g
       clip-path="url(#clipPath-596082226)"
       id="g65">
      <!-- color: #d0d9e4 -->
      <g
         id="g67">
        <path
           d="m 22.48,12.156 c -3.207,0.719 -5.664,3.992 -5.734,7.984 -0.008,0.566 0.023,1.121 0.109,1.656 0,0.004 0.004,0.008 0.004,0.016 -0.523,1.176 -0.848,2.477 -0.871,3.879 -0.086,4.98 3.438,9.08 7.852,9.152 4.414,0.078 8.06,-3.891 8.16,-8.879 0.031,-1.852 -0.418,-3.59 -1.238,-5.04 0.012,-0.188 0.023,-0.355 0.027,-0.543 0.074,-4.566 -3,-8.328 -6.871,-8.398 -0.484,-0.008 -0.961,0.055 -1.418,0.156 m -0.02,0.008"
           id="path69"
           inkscape:connector-curvature="0"
           style="fill:#121919;fill-opacity:1;fill-rule:nonzero;stroke:none" />
        <path
           d="m 21.04,14.762 c -1.035,0.352 -1.813,1.465 -1.848,2.805 -0.027,1.16 0.496,2.176 1.301,2.691 -1.793,1.297 -3.02,3.602 -3.086,6.262 -0.109,4.164 2.652,7.602 6.164,7.691 3.508,0.086 6.441,-3.207 6.551,-7.371 0.082,-3.082 -1.418,-5.766 -3.617,-6.988 1.242,-0.145 2.195,-0.996 2.188,-2.01 -0.012,-1.109 -1.164,-1.98 -2.57,-1.965 -0.832,0.008 -1.563,0.32 -2.02,0.813 -0.316,-1.168 -1.215,-2.031 -2.316,-2.059 -0.266,-0.012 -0.508,0.031 -0.75,0.121 m 2.945,4.148 c 0.07,0.09 0.148,0.164 0.23,0.246 -0.09,-0.008 -0.172,-0.016 -0.258,-0.02 -0.023,0 -0.055,-0.004 -0.086,-0.008 0.039,-0.074 0.082,-0.141 0.113,-0.219 m 0,0"
           id="path71"
           inkscape:connector-curvature="0"
           style="fill:#ececec;fill-opacity:1;fill-rule:nonzero;stroke:none" />
        <path
           d="m 23.742,18.03 c 0.047,0.516 -0.207,0.961 -0.566,0.992 -0.363,0.031 -0.691,-0.363 -0.738,-0.883 -0.043,-0.523 0.211,-0.965 0.57,-0.996 0.359,-0.027 0.691,0.367 0.734,0.887 m 0,0"
           id="path73"
           inkscape:connector-curvature="0"
           style="fill:#2e3436;fill-opacity:1;fill-rule:nonzero;stroke:none" />
        <path
           d="m 25.496,18 c 0.047,0.352 -0.043,0.695 -0.234,0.895 -0.191,0.199 -0.453,0.223 -0.676,0.059 -0.223,-0.164 -0.375,-0.484 -0.391,-0.836 -0.047,-0.348 0.043,-0.691 0.234,-0.891 0.191,-0.199 0.453,-0.223 0.676,-0.063 0.227,0.164 0.375,0.488 0.391,0.836 m 0,0"
           id="path75"
           inkscape:connector-curvature="0"
           style="fill:#2e3436;fill-opacity:1;fill-rule:nonzero;stroke:none" />
        <path
           d="m 21.355,20.09 c 0,0 1.559,-0.871 2.668,-0.762 1.105,0.105 2.063,0.941 2.063,0.941 0,0 -0.906,2.902 -2.594,2.656 -1.688,-0.25 -2.141,-2.836 -2.141,-2.836 m 0.004,0"
           id="path77"
           inkscape:connector-curvature="0"
           style="fill:#ffb30a;fill-opacity:1;fill-rule:nonzero;stroke:none" />
        <path
           d="m 17.08,22.04 c 0,0 0.664,1.574 1.539,2.867 0.875,1.297 1.895,3.48 0.328,2.68 -1.559,-0.797 -2.645,-2.043 -2.426,-3.48 0.227,-1.438 0.566,-2.07 0.566,-2.07 m -0.008,0.004"
           id="path79"
           inkscape:connector-curvature="0"
           style="fill:#121919;fill-opacity:1;fill-rule:nonzero;stroke:none" />
        <path
           d="m 30.17,20.586 c 0,0 -0.871,2.051 -2.023,3.734 -1.145,1.688 -2.473,4.527 -0.438,3.492 2.031,-1.031 3.465,-2.652 3.172,-4.523 -0.293,-1.875 -0.727,-2.703 -0.727,-2.703 m 0.004,0"
           id="path81"
           inkscape:connector-curvature="0"
           style="fill:#121919;fill-opacity:1;fill-rule:nonzero;stroke:none" />
        <path
           d="m 17.941,33.3 c -0.465,1.109 0.262,2.277 1.621,2.609 1.359,0.328 2.84,-0.301 3.305,-1.414 0.465,-1.109 -0.262,-2.277 -1.621,-2.609 -1.359,-0.328 -2.84,0.305 -3.305,1.414 m 0,0"
           id="path83"
           inkscape:connector-curvature="0"
           style="fill:#ffb30a;fill-opacity:1;fill-rule:nonzero;stroke:none" />
        <path
           d="m 29.988,33.31 c 0.445,1 -0.25,2.059 -1.559,2.359 -1.305,0.297 -2.727,-0.273 -3.172,-1.277 -0.445,-1 0.254,-2.063 1.559,-2.359 1.305,-0.301 2.727,0.273 3.172,1.277 m 0,0"
           id="path85"
           inkscape:connector-curvature="0"
           style="fill:#ffb30a;fill-opacity:1;fill-rule:nonzero;stroke:none" />
      </g>
    </g>
  </g>
</svg>
