<?xml version="1.0" encoding="UTF-8" standalone="no"?>
<svg
   xmlns:dc="http://purl.org/dc/elements/1.1/"
   xmlns:cc="http://creativecommons.org/ns#"
   xmlns:rdf="http://www.w3.org/1999/02/22-rdf-syntax-ns#"
   xmlns:svg="http://www.w3.org/2000/svg"
   xmlns="http://www.w3.org/2000/svg"
   xmlns:xlink="http://www.w3.org/1999/xlink"
   xmlns:sodipodi="http://sodipodi.sourceforge.net/DTD/sodipodi-0.dtd"
   xmlns:inkscape="http://www.inkscape.org/namespaces/inkscape"
   viewBox="0 0 48 48"
   id="svg2"
   version="1.1"
   inkscape:version="0.91 r13725"
   width="100%"
   height="100%"
   sodipodi:docname="tangerine.svg">
  <metadata
     id="metadata65">
    <rdf:RDF>
      <cc:Work
         rdf:about="">
        <dc:format>image/svg+xml</dc:format>
        <dc:type
           rdf:resource="http://purl.org/dc/dcmitype/StillImage" />
      </cc:Work>
    </rdf:RDF>
  </metadata>
  <sodipodi:namedview
     pagecolor="#ffffff"
     bordercolor="#666666"
     borderopacity="1"
     objecttolerance="10"
     gridtolerance="10"
     guidetolerance="10"
     inkscape:pageopacity="0"
     inkscape:pageshadow="2"
     inkscape:window-width="1366"
     inkscape:window-height="705"
     id="namedview63"
     showgrid="false"
     inkscape:zoom="6.3958333"
     inkscape:cx="15.831644"
     inkscape:cy="26.947456"
     inkscape:window-x="0"
     inkscape:window-y="28"
     inkscape:window-maximized="1"
     inkscape:current-layer="svg2" />
  <defs
     id="defs4">
    <linearGradient
       id="linearGradient3764"
       x1="1"
       x2="47"
       gradientUnits="userSpaceOnUse"
       gradientTransform="matrix(0,-1,1,0,-1.5e-6,47.999998)">
      <stop
         stop-color="#df731b"
         stop-opacity="1"
         id="stop7" />
      <stop
         offset="1"
         stop-color="#e57e29"
         stop-opacity="1"
         id="stop9"
         style="stop-color:#f1a363;stop-opacity:1;" />
    </linearGradient>
    <clipPath
       id="clipPath-398553476">
      <g
         transform="translate(0,-1004.3622)"
         id="g12">
        <path
           d="m -24 13 c 0 1.105 -0.672 2 -1.5 2 -0.828 0 -1.5 -0.895 -1.5 -2 0 -1.105 0.672 -2 1.5 -2 0.828 0 1.5 0.895 1.5 2 z"
           transform="matrix(15.333333,0,0,11.5,414.99999,878.8622)"
           fill="#1890d0"
           id="path14" />
      </g>
    </clipPath>
    <clipPath
       id="clipPath-413159570">
      <g
         transform="translate(0,-1004.3622)"
         id="g17">
        <path
           d="m -24 13 c 0 1.105 -0.672 2 -1.5 2 -0.828 0 -1.5 -0.895 -1.5 -2 0 -1.105 0.672 -2 1.5 -2 0.828 0 1.5 0.895 1.5 2 z"
           transform="matrix(15.333333,0,0,11.5,414.99999,878.8622)"
           fill="#1890d0"
           id="path19" />
      </g>
    </clipPath>
    <linearGradient
       inkscape:collect="always"
       xlink:href="#linearGradient3528"
       id="linearGradient3518"
       gradientUnits="userSpaceOnUse"
       gradientTransform="matrix(0.83333307,0,0,0.83333307,-316.4761,412.49831)"
       x1="379.57144"
       y1="-527.79797"
       x2="431.57144"
       y2="-527.79797" />
    <linearGradient
       id="linearGradient3528">
      <stop
         id="stop3530"
         offset="0"
         style="stop-color:#ef6c00;stop-opacity:1" />
      <stop
         id="stop3532"
         offset="1"
         style="stop-color:#ffb74d;stop-opacity:1" />
    </linearGradient>
    <clipPath
       clipPathUnits="userSpaceOnUse"
       id="clipPath3191">
      <rect
         style="fill:url(#linearGradient3195);fill-opacity:1;stroke:none"
         id="rect3193"
         width="39.999989"
         height="39.999989"
         x="4.0000134"
         y="-43.99984"
         ry="0"
         transform="scale(1,-1)" />
    </clipPath>
    <linearGradient
       inkscape:collect="always"
       xlink:href="#linearGradient3528"
       id="linearGradient3195"
       gradientUnits="userSpaceOnUse"
       gradientTransform="matrix(0.83333307,0,0,0.83333307,-316.4761,412.49831)"
       x1="379.57144"
       y1="-527.79797"
       x2="431.57144"
       y2="-527.79797" />
  </defs>
  <rect
     transform="scale(1,-1)"
     ry="0"
     y="-43.99984"
     x="4.0000134"
     height="39.999989"
     width="39.999989"
     id="rect3480"
     style="fill:url(#linearGradient3518);fill-opacity:1;stroke:none" />
  <path
     style="opacity:0.5;fill:#ffffff;fill-opacity:1;stroke:none"
     d="M 4.0000033,4.0000519 44,3.9998517 c -19.999996,1.0000006 -19.999996,1.0000006 -39.9999977,0 z"
     id="path3484"
     inkscape:connector-curvature="0"
     sodipodi:nodetypes="cccc" />
  <g
     id="g33" />
  <g
     id="g35">
    <g
       clip-path="url(#clipPath-398553476)"
       id="g37">
      <g
         transform="translate(1,1)"
         id="g39">
        <g
           opacity="0.1"
           id="g41">
          <!-- color: #e57e29 -->
          <g
             id="g43">
            <path
               d="m 17.402 7.625 c -4.723 0 -9.102 1.43 -12.75 3.844 c -1.449 2.238 -2.484 4.746 -3.094 7.438 c 2.094 -2.492 3.926 -4.27 5.781 -5.5 c 3.625 9.879 3.812 9.918 1.125 -0.656 c 2.656 -1.465 5.406 -1.945 8.938 -1.969 c 0.313 -0.004 0.602 0.02 0.906 0.031 c -0.043 5.508 -0.898 16.859 -3.969 21 c -4.434 -11.41 -3.895 -9.379 -0.906 0.344 c -0.211 0.105 -0.41 0.262 -0.625 0.438 l -1.375 -1.031 l 0.691 1.969 c -2.934 0.445 -5.84 -0.289 -8.75 0.781 c 0.387 0.773 0.785 1.5 1.25 2.219 c 2.758 -0.625 4.766 -2.961 7.527 -1.395 c 0.043 0.215 0.156 0.402 0.25 0.594 l -6.437 2.594 c 0.152 0.191 0.281 0.379 0.438 0.563 c 2.18 -1.027 4.402 -1.434 6.441 -2.531 c 0.203 0.18 0.469 0.309 0.75 0.406 l -3.906 5.281 c 0.223 0.176 0.461 0.363 0.688 0.531 c 1.406 -1.75 2.059 -3.746 3.875 -5.688 c 0.238 0.02 0.508 0.059 0.781 0.02 c -0.348 2.84 -0.102 5.773 0.594 8.531 c 0.902 0.352 1.855 0.641 2.813 0.875 c -0.711 -3.223 -2.641 -6.207 -2.469 -9.594 c 0.887 0.34 1.352 0.781 2.344 1.469 c -0.445 -0.668 -0.992 -1.102 -1.375 -1.938 c 0.086 -0.141 0.168 -0.281 0.219 -0.438 c 4.555 1.734 8.816 2.223 13.438 5 l 2.531 1.875 c -1.035 1.508 -2.355 2.805 -4.03 3.75 c 2.719 -0.617 5.246 -1.707 7.5 -3.188 c 2.434 -3.645 3.875 -8.02 3.875 -12.688 c 0 -12.594 -10.281 -22.938 -23.06 -22.938 m 3.773 3.531 c 7.625 1.5 14.277 7.484 15.719 14.5 l -0.344 0.438 c -0.641 1.109 -6.66 3.03 -8.844 3.719 c -4.168 0.891 -7.152 3.01 -11.156 3.156 c -0.246 -0.324 -0.531 -0.617 -0.875 -0.813 c 2.438 -4.328 1.633 -15.895 5.5 -21 m 15.13 16.438 l 0.906 0.875 c 0 0.699 -0.074 1.387 -0.188 2.094 c -0.598 3.742 -1.348 7.441 -2.906 10.469 l -3.316 -1.094 c -3.773 -1.84 -9.438 -3.035 -13.469 -5.688 c 5.777 -3.316 12.633 -4.652 18.969 -6.656 m -14.715 16.16 c 0.457 1.328 1.582 2.215 2.406 3.25 c 0.375 0 0.754 -0.012 1.125 -0.031 c -1.324 -1.07 -2.434 -2 -3.531 -3.219 m 0 0"
               fill="#000"
               stroke="none"
               fill-rule="nonzero"
               fill-opacity="1"
               id="path45" />
            <path
               d="m 30.5 12 c -2.484 0 -4.5 2.02 -4.5 4.5 c 0 0.188 0.027 0.379 0.047 0.566 l -7.406 3.699 c -0.813 -0.785 -1.918 -1.262 -3.137 -1.262 c -2.484 0 -4.5 2.02 -4.5 4.5 c 0 2.48 2.02 4.5 4.5 4.5 c 1.219 0 2.324 -0.48 3.137 -1.266 l 7.406 3.703 c -0.023 0.18 -0.047 0.375 -0.047 0.563 c 0 2.484 2.02 4.5 4.5 4.5 c 2.484 0 4.5 -2.02 4.5 -4.5 c 0 -2.484 -2.02 -4.5 -4.5 -4.5 c -1.211 0 -2.309 0.484 -3.117 1.266 l -7.43 -3.703 c 0.023 -0.18 0.047 -0.375 0.047 -0.563 c 0 -0.188 -0.027 -0.379 -0.047 -0.566 l 7.43 -3.703 c 0.809 0.781 1.902 1.266 3.117 1.266 c 2.484 0 4.5 -2.02 4.5 -4.5 c 0 -2.484 -2.02 -4.5 -4.5 -4.5 m 0 0"
               fill="#000"
               stroke="none"
               fill-rule="nonzero"
               fill-opacity="1"
               id="path47" />
          </g>
        </g>
      </g>
    </g>
  </g>
  <g
     id="g49"
     clip-path="url(#clipPath3191)">
    <g
       clip-path="url(#clipPath-413159570)"
       id="g51">
      <!-- color: #e57e29 -->
      <g
         id="g53">
        <path
           d="m 17.402 7.625 c -4.723 0 -9.102 1.43 -12.75 3.844 c -1.449 2.238 -2.484 4.746 -3.094 7.438 c 2.094 -2.492 3.926 -4.27 5.781 -5.5 c 3.625 9.879 3.812 9.918 1.125 -0.656 c 2.656 -1.465 5.406 -1.945 8.938 -1.969 c 0.313 -0.004 0.602 0.02 0.906 0.031 c -0.043 5.508 -0.898 16.859 -3.969 21 c -4.434 -11.41 -3.895 -9.379 -0.906 0.344 c -0.211 0.105 -0.41 0.262 -0.625 0.438 l -1.375 -1.031 l 0.691 1.969 c -2.934 0.445 -5.84 -0.289 -8.75 0.781 c 0.387 0.773 0.785 1.5 1.25 2.219 c 2.758 -0.625 4.766 -2.961 7.527 -1.395 c 0.043 0.215 0.156 0.402 0.25 0.594 l -6.437 2.594 c 0.152 0.191 0.281 0.379 0.438 0.563 c 2.18 -1.027 4.402 -1.434 6.441 -2.531 c 0.203 0.18 0.469 0.309 0.75 0.406 l -3.906 5.281 c 0.223 0.176 0.461 0.363 0.688 0.531 c 1.406 -1.75 2.059 -3.746 3.875 -5.688 c 0.238 0.02 0.508 0.059 0.781 0.02 c -0.348 2.84 -0.102 5.773 0.594 8.531 c 0.902 0.352 1.855 0.641 2.813 0.875 c -0.711 -3.223 -2.641 -6.207 -2.469 -9.594 c 0.887 0.34 1.352 0.781 2.344 1.469 c -0.445 -0.668 -0.992 -1.102 -1.375 -1.938 c 0.086 -0.141 0.168 -0.281 0.219 -0.438 c 4.555 1.734 8.816 2.223 13.438 5 l 2.531 1.875 c -1.035 1.508 -2.355 2.805 -4.03 3.75 c 2.719 -0.617 5.246 -1.707 7.5 -3.188 c 2.434 -3.645 3.875 -8.02 3.875 -12.688 c 0 -12.594 -10.281 -22.938 -23.06 -22.938 m 3.773 3.531 c 7.625 1.5 14.277 7.484 15.719 14.5 l -0.344 0.438 c -0.641 1.109 -6.66 3.03 -8.844 3.719 c -4.168 0.891 -7.152 3.01 -11.156 3.156 c -0.246 -0.324 -0.531 -0.617 -0.875 -0.813 c 2.438 -4.328 1.633 -15.895 5.5 -21 m 15.13 16.438 l 0.906 0.875 c 0 0.699 -0.074 1.387 -0.188 2.094 c -0.598 3.742 -1.348 7.441 -2.906 10.469 l -3.316 -1.094 c -3.773 -1.84 -9.438 -3.035 -13.469 -5.688 c 5.777 -3.316 12.633 -4.652 18.969 -6.656 m -14.715 16.16 c 0.457 1.328 1.582 2.215 2.406 3.25 c 0.375 0 0.754 -0.012 1.125 -0.031 c -1.324 -1.07 -2.434 -2 -3.531 -3.219 m 0 0"
           fill="#e48645"
           stroke="none"
           fill-rule="nonzero"
           fill-opacity="1"
           id="path55" />
        <path
           d="m 30.5 12 c -2.484 0 -4.5 2.02 -4.5 4.5 c 0 0.188 0.027 0.379 0.047 0.566 l -7.406 3.699 c -0.813 -0.785 -1.918 -1.262 -3.137 -1.262 c -2.484 0 -4.5 2.02 -4.5 4.5 c 0 2.48 2.02 4.5 4.5 4.5 c 1.219 0 2.324 -0.48 3.137 -1.266 l 7.406 3.703 c -0.023 0.18 -0.047 0.375 -0.047 0.563 c 0 2.484 2.02 4.5 4.5 4.5 c 2.484 0 4.5 -2.02 4.5 -4.5 c 0 -2.484 -2.02 -4.5 -4.5 -4.5 c -1.211 0 -2.309 0.484 -3.117 1.266 l -7.43 -3.703 c 0.023 -0.18 0.047 -0.375 0.047 -0.563 c 0 -0.188 -0.027 -0.379 -0.047 -0.566 l 7.43 -3.703 c 0.809 0.781 1.902 1.266 3.117 1.266 c 2.484 0 4.5 -2.02 4.5 -4.5 c 0 -2.484 -2.02 -4.5 -4.5 -4.5 m 0 0"
           fill="#f9f9f9"
           stroke="none"
           fill-rule="nonzero"
           fill-opacity="1"
           id="path57" />
      </g>
    </g>
  </g>
  <path
     sodipodi:nodetypes="cccc"
     inkscape:connector-curvature="0"
     id="path3482"
     d="M 3.9999993,43.999849 44,44.00015 c -20,-0.999999 -20,-0.999999 -40.0000017,0 z"
     style="opacity:0.35;fill:#000000;fill-opacity:1;stroke:none" />
</svg>
