<?xml version="1.0" encoding="UTF-8" standalone="no"?>
<svg
   xmlns:dc="http://purl.org/dc/elements/1.1/"
   xmlns:cc="http://creativecommons.org/ns#"
   xmlns:rdf="http://www.w3.org/1999/02/22-rdf-syntax-ns#"
   xmlns:svg="http://www.w3.org/2000/svg"
   xmlns="http://www.w3.org/2000/svg"
   xmlns:xlink="http://www.w3.org/1999/xlink"
   xmlns:sodipodi="http://sodipodi.sourceforge.net/DTD/sodipodi-0.dtd"
   xmlns:inkscape="http://www.inkscape.org/namespaces/inkscape"
   viewBox="0 0 48 48"
   id="svg2"
   version="1.1"
   inkscape:version="0.48.5 r10040"
   width="100%"
   height="100%"
   sodipodi:docname="teeworlds.svg">
  <metadata
     id="metadata61">
    <rdf:RDF>
      <cc:Work
         rdf:about="">
        <dc:format>image/svg+xml</dc:format>
        <dc:type
           rdf:resource="http://purl.org/dc/dcmitype/StillImage" />
      </cc:Work>
    </rdf:RDF>
  </metadata>
  <sodipodi:namedview
     pagecolor="#ffffff"
     bordercolor="#666666"
     borderopacity="1"
     objecttolerance="10"
     gridtolerance="10"
     guidetolerance="10"
     inkscape:pageopacity="0"
     inkscape:pageshadow="2"
     inkscape:window-width="1301"
     inkscape:window-height="744"
     id="namedview59"
     showgrid="true"
     inkscape:zoom="9.0450742"
     inkscape:cx="33.194041"
     inkscape:cy="20.154217"
     inkscape:window-x="65"
     inkscape:window-y="24"
     inkscape:window-maximized="1"
     inkscape:current-layer="svg2">
    <inkscape:grid
       type="xygrid"
       id="grid3059" />
  </sodipodi:namedview>
  <defs
     id="defs4">
    <linearGradient
       id="linearGradient3764"
       x1="1"
       x2="47"
       gradientUnits="userSpaceOnUse"
       gradientTransform="matrix(0,-1,1,0,-1.5e-6,47.999998)">
      <stop
         stop-color="#ecc200"
         stop-opacity="1"
         id="stop7" />
      <stop
         offset="1"
         stop-color="#ffd000"
         stop-opacity="1"
         id="stop9"
         style="stop-color:#ffdd44;stop-opacity:1;" />
    </linearGradient>
    <clipPath
       id="clipPath-719651006">
      <g
         transform="translate(0,-1004.3622)"
         id="g12">
        <path
           d="m -24 13 c 0 1.105 -0.672 2 -1.5 2 -0.828 0 -1.5 -0.895 -1.5 -2 0 -1.105 0.672 -2 1.5 -2 0.828 0 1.5 0.895 1.5 2 z"
           transform="matrix(15.333333,0,0,11.5,414.99999,878.8622)"
           fill="#1890d0"
           id="path14" />
      </g>
    </clipPath>
    <clipPath
       id="clipPath-728235023">
      <g
         transform="translate(0,-1004.3622)"
         id="g17">
        <path
           d="m -24 13 c 0 1.105 -0.672 2 -1.5 2 -0.828 0 -1.5 -0.895 -1.5 -2 0 -1.105 0.672 -2 1.5 -2 0.828 0 1.5 0.895 1.5 2 z"
           transform="matrix(15.333333,0,0,11.5,414.99999,878.8622)"
           fill="#1890d0"
           id="path19" />
      </g>
    </clipPath>
    <linearGradient
       y2="1028.3622"
       x2="44"
       y1="1028.3622"
       x1="4"
       gradientTransform="translate(-3.53e-6,-1004.3619)"
       gradientUnits="userSpaceOnUse"
       id="linearGradient3064"
       xlink:href="#linearGradient3764"
       inkscape:collect="always" />
  </defs>
  <rect
     style="fill:url(#linearGradient3064);fill-opacity:1.0;stroke:none"
     id="rect3758"
     width="40"
     height="40"
     x="3.9999964"
     y="4.0002828"
     ry="0" />
  <path
     style="opacity:0.35;fill:#000000;fill-opacity:1;stroke:none"
     d="m 3.9999979,44 39.9999961,3.01e-4 c -19.999997,-1 -19.999997,-1 -39.9999975,0 z"
     id="path3800"
     inkscape:connector-curvature="0"
     sodipodi:nodetypes="cccc" />
  <path
     sodipodi:nodetypes="cccc"
     inkscape:connector-curvature="0"
     id="path3804"
     d="M 4.0000014,4.0002 43.999997,4 C 24.000001,5.0000001 24.000001,5.0000001 4,4 z"
     style="opacity:0.75;fill:#ffffff;fill-opacity:1;stroke:none" />
  <g
     id="g33" />
  <g
     id="g35">
    <g
       clip-path="url(#clipPath-719651006)"
       id="g37">
      <g
         transform="translate(1,1)"
         id="g39">
        <g
           opacity="0.1"
           id="g41">
          <!-- color: #ffd000 -->
          <g
             id="g43">
            <path
               d="m 15.641 36.953 c -2.434 -0.297 -3.324 -1.313 -3.129 -3.578 c 0.094 -1.063 0.418 -1.773 1.199 -2.582 c 0.344 -0.355 0.625 -0.695 0.625 -0.75 c 0 -0.051 -0.227 -0.449 -0.504 -0.883 c -1.41 -2.191 -2.086 -5.223 -1.742 -7.773 c 0.867 -6.406 6.605 -10.938 13.08 -10.332 c 5.02 0.469 9.188 3.957 10.508 8.785 c 0.27 1 0.313 1.43 0.324 2.996 c 0.004 1.613 -0.035 1.973 -0.324 3 c -0.418 1.504 -0.797 2.328 -1.652 3.621 l -0.699 1.051 l 0.727 0.637 c 1.227 1.074 1.699 2.262 1.398 3.508 c -0.191 0.82 -0.496 1.23 -1.184 1.629 c -1.094 0.629 -1.691 0.711 -5.273 0.715 c -1.813 0.004 -3.852 -0.016 -4.531 -0.039 c -0.688 -0.023 -2.781 -0.016 -4.66 0.02 c -1.879 0.035 -3.754 0.023 -4.164 -0.027 m 7.383 -1.227 c 1.379 -0.23 2.07 -0.824 2.051 -1.758 c -0.016 -0.621 -0.477 -1.477 -1.063 -1.953 c -1.832 -1.523 -6.184 -2.129 -8.367 -1.188 c -1.254 0.543 -2.047 1.699 -2.047 2.98 c -0.004 1.602 0.574 1.926 3.664 2.039 c 2.367 0.09 4.758 0.031 5.762 -0.133 m 7.965 0.137 c 1.77 -0.125 2.543 -0.344 3.055 -0.871 c 0.313 -0.324 0.359 -0.461 0.359 -1.086 c 0 -0.598 -0.059 -0.801 -0.379 -1.242 c -0.363 -0.504 -1.566 -1.445 -1.852 -1.445 c -0.074 0 -0.578 0.328 -1.125 0.734 c -1.125 0.828 -2.621 1.586 -3.73 1.887 c -1.348 0.367 -1.555 0.445 -1.555 0.602 c 0 0.082 -0.113 0.359 -0.246 0.629 c -0.414 0.797 -0.441 0.773 1.582 0.816 c 1.012 0.023 1.945 0.055 2.082 0.066 c 0.137 0.012 0.945 -0.027 1.801 -0.086 m -3.613 -2.707 c 1.75 -0.531 3.305 -1.508 4.695 -2.953 c 2.742 -2.836 3.66 -6.988 2.383 -10.785 c -0.504 -1.492 -1.242 -2.707 -2.352 -3.875 c -2.047 -2.16 -4.539 -3.316 -7.406 -3.465 c -3.199 -0.16 -5.957 0.84 -8.184 2.957 c -1.727 1.648 -2.824 3.625 -3.25 5.859 c -0.234 1.211 -0.16 3.543 0.148 4.703 c 0.301 1.133 1.32 3.133 1.945 3.828 l 0.539 0.594 l 0.734 -0.137 c 1.113 -0.199 2.977 -0.156 4.242 0.098 c 2.109 0.43 3.922 1.523 4.551 2.758 c 0.465 0.895 0.395 0.887 1.949 0.41 m -5.23 -10.73 c -0.629 -0.352 -1.02 -2.102 -0.723 -3.25 c 0.582 -2.289 2.379 -1.539 2.379 0.992 c 0 1.656 -0.801 2.746 -1.656 2.258 m 4.402 -0.145 c -0.441 -0.465 -0.664 -1.148 -0.664 -2.105 c 0 -2.16 1.332 -3.184 2.137 -1.641 c 0.957 1.844 -0.277 4.992 -1.473 3.742 m 0 0"
               fill="#000"
               stroke="none"
               fill-rule="nonzero"
               fill-opacity="1"
               id="path45" />
          </g>
        </g>
      </g>
    </g>
  </g>
  <g
     id="g47">
    <g
       clip-path="url(#clipPath-728235023)"
       id="g49">
      <!-- color: #ffd000 -->
      <g
         id="g51">
        <path
           d="m 15.641 36.953 c -2.434 -0.297 -3.324 -1.313 -3.129 -3.578 c 0.094 -1.063 0.418 -1.773 1.199 -2.582 c 0.344 -0.355 0.625 -0.695 0.625 -0.75 c 0 -0.051 -0.227 -0.449 -0.504 -0.883 c -1.41 -2.191 -2.086 -5.223 -1.742 -7.773 c 0.867 -6.406 6.605 -10.938 13.08 -10.332 c 5.02 0.469 9.188 3.957 10.508 8.785 c 0.27 1 0.313 1.43 0.324 2.996 c 0.004 1.613 -0.035 1.973 -0.324 3 c -0.418 1.504 -0.797 2.328 -1.652 3.621 l -0.699 1.051 l 0.727 0.637 c 1.227 1.074 1.699 2.262 1.398 3.508 c -0.191 0.82 -0.496 1.23 -1.184 1.629 c -1.094 0.629 -1.691 0.711 -5.273 0.715 c -1.813 0.004 -3.852 -0.016 -4.531 -0.039 c -0.688 -0.023 -2.781 -0.016 -4.66 0.02 c -1.879 0.035 -3.754 0.023 -4.164 -0.027 m 7.383 -1.227 c 1.379 -0.23 2.07 -0.824 2.051 -1.758 c -0.016 -0.621 -0.477 -1.477 -1.063 -1.953 c -1.832 -1.523 -6.184 -2.129 -8.367 -1.188 c -1.254 0.543 -2.047 1.699 -2.047 2.98 c -0.004 1.602 0.574 1.926 3.664 2.039 c 2.367 0.09 4.758 0.031 5.762 -0.133 m 7.965 0.137 c 1.77 -0.125 2.543 -0.344 3.055 -0.871 c 0.313 -0.324 0.359 -0.461 0.359 -1.086 c 0 -0.598 -0.059 -0.801 -0.379 -1.242 c -0.363 -0.504 -1.566 -1.445 -1.852 -1.445 c -0.074 0 -0.578 0.328 -1.125 0.734 c -1.125 0.828 -2.621 1.586 -3.73 1.887 c -1.348 0.367 -1.555 0.445 -1.555 0.602 c 0 0.082 -0.113 0.359 -0.246 0.629 c -0.414 0.797 -0.441 0.773 1.582 0.816 c 1.012 0.023 1.945 0.055 2.082 0.066 c 0.137 0.012 0.945 -0.027 1.801 -0.086 m -3.613 -2.707 c 1.75 -0.531 3.305 -1.508 4.695 -2.953 c 2.742 -2.836 3.66 -6.988 2.383 -10.785 c -0.504 -1.492 -1.242 -2.707 -2.352 -3.875 c -2.047 -2.16 -4.539 -3.316 -7.406 -3.465 c -3.199 -0.16 -5.957 0.84 -8.184 2.957 c -1.727 1.648 -2.824 3.625 -3.25 5.859 c -0.234 1.211 -0.16 3.543 0.148 4.703 c 0.301 1.133 1.32 3.133 1.945 3.828 l 0.539 0.594 l 0.734 -0.137 c 1.113 -0.199 2.977 -0.156 4.242 0.098 c 2.109 0.43 3.922 1.523 4.551 2.758 c 0.465 0.895 0.395 0.887 1.949 0.41 m -5.23 -10.73 c -0.629 -0.352 -1.02 -2.102 -0.723 -3.25 c 0.582 -2.289 2.379 -1.539 2.379 0.992 c 0 1.656 -0.801 2.746 -1.656 2.258 m 4.402 -0.145 c -0.441 -0.465 -0.664 -1.148 -0.664 -2.105 c 0 -2.16 1.332 -3.184 2.137 -1.641 c 0.957 1.844 -0.277 4.992 -1.473 3.742 m 0 0"
           fill="#333"
           stroke="none"
           fill-rule="nonzero"
           fill-opacity="1"
           id="path53" />
      </g>
    </g>
  </g>
</svg>
