<?xml version="1.0" encoding="UTF-8" standalone="no"?>
<svg
   xmlns:dc="http://purl.org/dc/elements/1.1/"
   xmlns:cc="http://creativecommons.org/ns#"
   xmlns:rdf="http://www.w3.org/1999/02/22-rdf-syntax-ns#"
   xmlns:svg="http://www.w3.org/2000/svg"
   xmlns="http://www.w3.org/2000/svg"
   xmlns:xlink="http://www.w3.org/1999/xlink"
   xmlns:sodipodi="http://sodipodi.sourceforge.net/DTD/sodipodi-0.dtd"
   xmlns:inkscape="http://www.inkscape.org/namespaces/inkscape"
   viewBox="0 0 48 48"
   id="svg2"
   version="1.1"
   inkscape:version="0.48.5 r10040"
   width="100%"
   height="100%"
   sodipodi:docname="themonospot.svg">
  <metadata
     id="metadata65">
    <rdf:RDF>
      <cc:Work
         rdf:about="">
        <dc:format>image/svg+xml</dc:format>
        <dc:type
           rdf:resource="http://purl.org/dc/dcmitype/StillImage" />
      </cc:Work>
    </rdf:RDF>
  </metadata>
  <sodipodi:namedview
     pagecolor="#ffffff"
     bordercolor="#666666"
     borderopacity="1"
     objecttolerance="10"
     gridtolerance="10"
     guidetolerance="10"
     inkscape:pageopacity="0"
     inkscape:pageshadow="2"
     inkscape:window-width="1301"
     inkscape:window-height="744"
     id="namedview63"
     showgrid="true"
     inkscape:zoom="9.0450742"
     inkscape:cx="26.960749"
     inkscape:cy="15.109836"
     inkscape:window-x="65"
     inkscape:window-y="24"
     inkscape:window-maximized="1"
     inkscape:current-layer="svg2">
    <inkscape:grid
       type="xygrid"
       id="grid3063" />
  </sodipodi:namedview>
  <defs
     id="defs4">
    <linearGradient
       id="linearGradient3764"
       x1="1"
       x2="47"
       gradientUnits="userSpaceOnUse"
       gradientTransform="matrix(0,-1,1,0,-1.5e-6,47.999998)">
      <stop
         stop-color="#e4e4e4"
         stop-opacity="1"
         id="stop7" />
      <stop
         offset="1"
         stop-color="#eee"
         stop-opacity="1"
         id="stop9"
         style="stop-color:#ffffff;stop-opacity:1;" />
    </linearGradient>
    <clipPath
       id="clipPath-398257384">
      <g
         transform="translate(0,-1004.3622)"
         id="g12">
        <path
           d="m -24 13 c 0 1.105 -0.672 2 -1.5 2 -0.828 0 -1.5 -0.895 -1.5 -2 0 -1.105 0.672 -2 1.5 -2 0.828 0 1.5 0.895 1.5 2 z"
           transform="matrix(15.333333,0,0,11.5,414.99999,878.8622)"
           fill="#1890d0"
           id="path14" />
      </g>
    </clipPath>
    <clipPath
       id="clipPath-408539869">
      <g
         transform="translate(0,-1004.3622)"
         id="g17">
        <path
           d="m -24 13 c 0 1.105 -0.672 2 -1.5 2 -0.828 0 -1.5 -0.895 -1.5 -2 0 -1.105 0.672 -2 1.5 -2 0.828 0 1.5 0.895 1.5 2 z"
           transform="matrix(15.333333,0,0,11.5,414.99999,878.8622)"
           fill="#1890d0"
           id="path19" />
      </g>
    </clipPath>
    <linearGradient
       y2="1028.3622"
       x2="44"
       y1="1028.3622"
       x1="4"
       gradientTransform="translate(-2.8260498e-7,-1004.3623)"
       gradientUnits="userSpaceOnUse"
       id="linearGradient3083"
       xlink:href="#linearGradient3764"
       inkscape:collect="always" />
  </defs>
  <rect
     style="fill:url(#linearGradient3083);fill-opacity:1.0;stroke:none"
     id="rect3758"
     width="40"
     height="40"
     x="4"
     y="4"
     ry="0" />
  <path
     style="opacity:0.35;fill:#000000;fill-opacity:1;stroke:none"
     d="m 4.0000011,43.999718 39.9999969,3e-4 c -19.999997,-1 -19.999997,-1 -39.9999983,0 z"
     id="path3800"
     inkscape:connector-curvature="0"
     sodipodi:nodetypes="cccc" />
  <path
     sodipodi:nodetypes="cccc"
     inkscape:connector-curvature="0"
     id="path3804"
     d="m 4.0000046,3.9999176 39.9999964,-2e-4 c -19.999996,1 -19.999996,1 -39.9999978,0 z"
     style="opacity:0.75;fill:#ffffff;fill-opacity:1;stroke:none" />
  <g
     id="g33" />
  <g
     id="g35">
    <g
       clip-path="url(#clipPath-398257384)"
       id="g37">
      <g
         transform="translate(1,1)"
         id="g39">
        <g
           opacity="0.1"
           id="g41">
          <!-- color: #eeeeee -->
          <g
             id="g43">
            <path
               d="m 14.969 12 c 0 0 -1.469 1.5 -1.469 3 l 0 18 c 0 1.516 -1.5 3 -1.5 3 l 1.5 0 c 0 0 0.648 -0.641 1.094 -1.5 l 1.5 0 c -0.445 0.859 -1.094 1.5 -1.094 1.5 l 1.5 0 c 0 0 1.5 -1.531 1.5 -3 l 0 -3 l 1 0 l 0 -1.5 l -1 0 l 0 -7.5 l 1 0 l 0 -0.125 c -0.223 -0.211 -0.391 -0.461 -0.5 -0.719 c -0.086 -0.207 -0.125 -0.434 -0.156 -0.656 l -0.344 0 l 0 -4.5 c 0 -1.5 1.469 -3 1.469 -3 m 12.03 0 c 0 0 -1.469 1.5 -1.469 3 l 0 4.5 l -0.25 0 c -0.035 0.543 -0.215 1.035 -0.469 1.5 l 0.719 0 l 0 7.5 l -1.031 0 l 0 1.5 l 1.031 0 l 0 3 c 0 1.5 -1.5 3 -1.5 3 l 1.5 0 c 0 0 0.648 -0.641 1.094 -1.5 l 1.5 0 c -0.445 0.859 -1.094 1.5 -1.094 1.5 l 1.5 0 c 0 0 1.5 -1.477 1.5 -3 l 0 -18 c 0 -1.5 1.469 -3 1.469 -3 m -20.559 1.5 l 1.5 0 c -0.23 0.457 -0.441 0.977 -0.441 1.5 l -1.5 0 c 0 -0.523 0.211 -1.043 0.441 -1.5 m 16.531 0 l 1.5 0 c -0.23 0.457 -0.441 0.977 -0.441 1.5 l -1.5 0 c 0 -0.523 0.211 -1.043 0.441 -1.5 m -16.98 3 l 1.5 0 l 0 1.5 l -1.5 0 m 16.531 -1.5 l 1.5 0 l 0 1.5 l -1.5 0 m -16.531 1.5 l 1.5 0 l 0 1.5 l -1.5 0 m 16.531 -1.5 l 1.5 0 l 0 1.5 l -1.5 0 m -16.531 1.5 l 1.5 0 l 0 1.5 l -1.5 0 m 16.531 -1.5 l 1.5 0 l 0 1.5 l -1.5 0 m -16.531 1.5 l 1.5 0 l 0 1.5 l -1.5 0 m 16.531 -1.5 l 1.5 0 l 0 1.5 l -1.5 0 m -16.531 1.5 l 1.5 0 l 0 1.5 l -1.5 0 m 16.531 -1.5 l 1.5 0 l 0 1.5 l -1.5 0 m -16.531 1.5 l 1.5 0 l 0 1.5 l -1.5 0 m 16.531 -1.5 l 1.5 0 l 0 1.5 l -1.5 0 m 0 -1.5"
               fill="#000"
               stroke="none"
               fill-rule="nonzero"
               fill-opacity="1"
               id="path45" />
            <path
               d="m 24.57 27.18 c -0.043 -1.453 0.289 -2.859 1.684 -3.855 c 1.469 -1.133 2.887 -2.543 2.738 -4.207 c -0.031 -1.605 -1.934 -2.863 -3.98 -3.043 c -2.301 -0.316 -5.086 0.461 -5.859 2.23 c -0.391 0.863 -0.027 2.406 1.285 2.406 c 0.77 0 1.121 -0.488 1.18 -0.934 c 0.043 -0.34 -0.094 -0.645 -0.18 -0.918 c -0.098 -0.32 0.313 -0.938 0.75 -1.188 c 0.371 -0.211 0.754 -0.281 0.813 -0.297 c 1.324 -0.309 2.645 0.383 3.191 1.223 c 0.551 0.844 -0.055 2.121 -0.926 3.363 c -0.875 1.246 -1.809 2.656 -1.805 4.152 c 0 0.57 -0.055 0.766 -0.016 0.996 c 0.027 0.184 0.648 0.164 1.125 0.074 m -0.605 1.949 c -1.266 -0.066 -2.145 1.348 -1.383 2.246 c 0.68 0.984 2.582 0.75 2.91 -0.375 c 0.34 -0.875 -0.48 -1.891 -1.527 -1.867 m 0 -0.004"
               fill="#000"
               stroke="none"
               fill-rule="nonzero"
               fill-opacity="1"
               id="path47" />
          </g>
        </g>
      </g>
    </g>
  </g>
  <g
     id="g49">
    <g
       clip-path="url(#clipPath-408539869)"
       id="g51">
      <!-- color: #eeeeee -->
      <g
         id="g53">
        <path
           d="m 14.969 12 c 0 0 -1.469 1.5 -1.469 3 l 0 18 c 0 1.516 -1.5 3 -1.5 3 l 1.5 0 c 0 0 0.648 -0.641 1.094 -1.5 l 1.5 0 c -0.445 0.859 -1.094 1.5 -1.094 1.5 l 1.5 0 c 0 0 1.5 -1.531 1.5 -3 l 0 -3 l 1 0 l 0 -1.5 l -1 0 l 0 -7.5 l 1 0 l 0 -0.125 c -0.223 -0.211 -0.391 -0.461 -0.5 -0.719 c -0.086 -0.207 -0.125 -0.434 -0.156 -0.656 l -0.344 0 l 0 -4.5 c 0 -1.5 1.469 -3 1.469 -3 m 12.03 0 c 0 0 -1.469 1.5 -1.469 3 l 0 4.5 l -0.25 0 c -0.035 0.543 -0.215 1.035 -0.469 1.5 l 0.719 0 l 0 7.5 l -1.031 0 l 0 1.5 l 1.031 0 l 0 3 c 0 1.5 -1.5 3 -1.5 3 l 1.5 0 c 0 0 0.648 -0.641 1.094 -1.5 l 1.5 0 c -0.445 0.859 -1.094 1.5 -1.094 1.5 l 1.5 0 c 0 0 1.5 -1.477 1.5 -3 l 0 -18 c 0 -1.5 1.469 -3 1.469 -3 m -20.559 1.5 l 1.5 0 c -0.23 0.457 -0.441 0.977 -0.441 1.5 l -1.5 0 c 0 -0.523 0.211 -1.043 0.441 -1.5 m 16.531 0 l 1.5 0 c -0.23 0.457 -0.441 0.977 -0.441 1.5 l -1.5 0 c 0 -0.523 0.211 -1.043 0.441 -1.5 m -16.98 3 l 1.5 0 l 0 1.5 l -1.5 0 m 16.531 -1.5 l 1.5 0 l 0 1.5 l -1.5 0 m -16.531 1.5 l 1.5 0 l 0 1.5 l -1.5 0 m 16.531 -1.5 l 1.5 0 l 0 1.5 l -1.5 0 m -16.531 1.5 l 1.5 0 l 0 1.5 l -1.5 0 m 16.531 -1.5 l 1.5 0 l 0 1.5 l -1.5 0 m -16.531 1.5 l 1.5 0 l 0 1.5 l -1.5 0 m 16.531 -1.5 l 1.5 0 l 0 1.5 l -1.5 0 m -16.531 1.5 l 1.5 0 l 0 1.5 l -1.5 0 m 16.531 -1.5 l 1.5 0 l 0 1.5 l -1.5 0 m -16.531 1.5 l 1.5 0 l 0 1.5 l -1.5 0 m 16.531 -1.5 l 1.5 0 l 0 1.5 l -1.5 0 m 0 -1.5"
           fill="#2d2d2d"
           stroke="none"
           fill-rule="nonzero"
           fill-opacity="1"
           id="path55" />
        <path
           d="m 24.57 27.18 c -0.043 -1.453 0.289 -2.859 1.684 -3.855 c 1.469 -1.133 2.887 -2.543 2.738 -4.207 c -0.031 -1.605 -1.934 -2.863 -3.98 -3.043 c -2.301 -0.316 -5.086 0.461 -5.859 2.23 c -0.391 0.863 -0.027 2.406 1.285 2.406 c 0.77 0 1.121 -0.488 1.18 -0.934 c 0.043 -0.34 -0.094 -0.645 -0.18 -0.918 c -0.098 -0.32 0.313 -0.938 0.75 -1.188 c 0.371 -0.211 0.754 -0.281 0.813 -0.297 c 1.324 -0.309 2.645 0.383 3.191 1.223 c 0.551 0.844 -0.055 2.121 -0.926 3.363 c -0.875 1.246 -1.809 2.656 -1.805 4.152 c 0 0.57 -0.055 0.766 -0.016 0.996 c 0.027 0.184 0.648 0.164 1.125 0.074 m -0.605 1.949 c -1.266 -0.066 -2.145 1.348 -1.383 2.246 c 0.68 0.984 2.582 0.75 2.91 -0.375 c 0.34 -0.875 -0.48 -1.891 -1.527 -1.867 m 0 -0.004"
           fill="#e4a226"
           stroke="none"
           fill-rule="nonzero"
           fill-opacity="1"
           id="path57" />
      </g>
    </g>
  </g>
</svg>
