<?xml version="1.0" encoding="UTF-8" standalone="no"?>
<svg
   xmlns:dc="http://purl.org/dc/elements/1.1/"
   xmlns:cc="http://creativecommons.org/ns#"
   xmlns:rdf="http://www.w3.org/1999/02/22-rdf-syntax-ns#"
   xmlns:svg="http://www.w3.org/2000/svg"
   xmlns="http://www.w3.org/2000/svg"
   xmlns:xlink="http://www.w3.org/1999/xlink"
   xmlns:sodipodi="http://sodipodi.sourceforge.net/DTD/sodipodi-0.dtd"
   xmlns:inkscape="http://www.inkscape.org/namespaces/inkscape"
   viewBox="0 0 48 48"
   id="svg2"
   version="1.1"
   inkscape:version="0.48.5 r10040"
   width="100%"
   height="100%"
   sodipodi:docname="ToCA3.svg">
  <metadata
     id="metadata69">
    <rdf:RDF>
      <cc:Work
         rdf:about="">
        <dc:format>image/svg+xml</dc:format>
        <dc:type
           rdf:resource="http://purl.org/dc/dcmitype/StillImage" />
      </cc:Work>
    </rdf:RDF>
  </metadata>
  <sodipodi:namedview
     pagecolor="#ffffff"
     bordercolor="#666666"
     borderopacity="1"
     objecttolerance="10"
     gridtolerance="10"
     guidetolerance="10"
     inkscape:pageopacity="0"
     inkscape:pageshadow="2"
     inkscape:window-width="1301"
     inkscape:window-height="744"
     id="namedview67"
     showgrid="true"
     inkscape:zoom="9.0450742"
     inkscape:cx="33.412025"
     inkscape:cy="20.276213"
     inkscape:window-x="65"
     inkscape:window-y="24"
     inkscape:window-maximized="1"
     inkscape:current-layer="svg2">
    <inkscape:grid
       type="xygrid"
       id="grid3067" />
  </sodipodi:namedview>
  <defs
     id="defs4">
    <linearGradient
       id="linearGradient3764"
       y1="47"
       x2="0"
       y2="1"
       gradientUnits="userSpaceOnUse">
      <stop
         stop-color="#747474"
         stop-opacity="1"
         id="stop7" />
      <stop
         offset="1"
         stop-color="#7e7e7e"
         stop-opacity="1"
         id="stop9"
         style="stop-color:#b3b3b3;stop-opacity:1;" />
    </linearGradient>
    <clipPath
       id="clipPath-072508252">
      <g
         transform="translate(0,-1004.3622)"
         id="g12">
        <path
           d="m -24 13 c 0 1.105 -0.672 2 -1.5 2 -0.828 0 -1.5 -0.895 -1.5 -2 0 -1.105 0.672 -2 1.5 -2 0.828 0 1.5 0.895 1.5 2 z"
           transform="matrix(15.333333,0,0,11.5,414.99999,878.8622)"
           fill="#1890d0"
           id="path14" />
      </g>
    </clipPath>
    <clipPath
       id="clipPath-093848315">
      <g
         transform="translate(0,-1004.3622)"
         id="g17">
        <path
           d="m -24 13 c 0 1.105 -0.672 2 -1.5 2 -0.828 0 -1.5 -0.895 -1.5 -2 0 -1.105 0.672 -2 1.5 -2 0.828 0 1.5 0.895 1.5 2 z"
           transform="matrix(15.333333,0,0,11.5,414.99999,878.8622)"
           fill="#1890d0"
           id="path19" />
      </g>
    </clipPath>
    <linearGradient
       y2="1028.3622"
       x2="44"
       y1="1028.3622"
       x1="4"
       gradientTransform="translate(-7.434021e-7,-1004.3621)"
       gradientUnits="userSpaceOnUse"
       id="linearGradient3026"
       xlink:href="#linearGradient3764"
       inkscape:collect="always" />
  </defs>
  <rect
     style="fill:url(#linearGradient3026);fill-opacity:1.0;stroke:none"
     id="rect3758"
     width="40"
     height="40"
     x="4"
     y="4"
     ry="0" />
  <path
     style="opacity:0.35;fill:#000000;fill-opacity:1;stroke:none"
     d="m 4.0000012,43.999717 39.9999958,3e-4 c -19.999997,-1 -19.999997,-1 -39.9999972,0 z"
     id="path3800"
     inkscape:connector-curvature="0"
     sodipodi:nodetypes="cccc" />
  <path
     sodipodi:nodetypes="cccc"
     inkscape:connector-curvature="0"
     id="path3804"
     d="M 4.0000047,3.9999174 44,3.9997174 c -19.999996,1 -19.999996,1 -39.9999967,0 z"
     style="opacity:0.75;fill:#ffffff;fill-opacity:1;stroke:none" />
  <g
     id="g33" />
  <g
     id="g35">
    <g
       clip-path="url(#clipPath-072508252)"
       id="g37">
      <g
         transform="translate(1,1)"
         id="g39">
        <g
           opacity="0.1"
           id="g41">
          <!-- color: #7e7e7e -->
          <g
             id="g43">
            <path
               d="m 22.324 13.188 c -2.805 0.313 -5.918 2.074 -7.82 5.367 c -1.527 2.84 3.438 3.254 5.449 3.582 c 0.926 -1.965 2.77 -2.734 4.504 -2.582 c -2.918 -0.414 -6.52 -5.242 -2.133 -6.367 m 3.406 0.047 c -2.488 0.063 -1.469 4.445 -1.18 6.332 c 2.152 0.277 3.457 1.793 3.844 3.492 c -0.504 -2.906 2.977 -7.82 5.402 -3.996 c -1.164 -2.57 -3.797 -4.988 -7.52 -5.781 c -0.199 -0.039 -0.379 -0.055 -0.547 -0.047 m -1.727 6.328 c -2.453 0 -4.438 1.984 -4.438 4.438 c 0 0.516 0.086 1.012 0.246 1.469 c -0.391 -1.082 -0.313 -2.234 0.098 -3.242 c -1.254 2.668 -6.93 4.684 -6.715 0.16 c -0.527 2.773 0.234 6.266 2.824 9.05 c 2.254 2.293 4.117 -2.301 5.02 -4.133 c 0.008 0.008 0.02 0.016 0.027 0.023 c 2.109 2.059 2.188 8.05 -2.02 6.398 c 2.457 1.391 6.02 1.793 9.484 0.238 c 2.906 -1.402 -0.875 -4.652 -2.313 -6.094 c -1.219 0.668 -2.457 0.719 -3.535 0.371 c 0.418 0.129 0.859 0.199 1.316 0.199 c 2.457 0 4.445 -1.992 4.445 -4.445 c 0 -2.453 -1.988 -4.438 -4.445 -4.438 m 9.25 1.617 c -0.055 0 -0.109 0 -0.168 0.004 c -1.512 0.07 -3.59 1.316 -4.723 1.902 c 0.426 2.129 -0.594 3.852 -2.078 4.762 c 2.59 -1.406 8.363 0.32 5.512 3.84 c 2.066 -1.922 3.516 -5.195 3.078 -8.973 c -0.164 -1.121 -0.793 -1.527 -1.621 -1.535 m 0 0"
               stroke="none"
               fill-rule="nonzero"
               fill-opacity="1"
               fill="#000"
               id="path45" />
            <path
               d="m 24 9 c -8.262 0 -15 6.738 -15 15 c 0 8.262 6.738 15 15 15 c 8.262 0 15 -6.738 15 -15 c 0 -8.262 -6.738 -15 -15 -15 m 0 3.789 c 6.215 0 11.211 4.996 11.211 11.211 c 0 6.215 -4.996 11.211 -11.211 11.211 c -6.215 0 -11.211 -4.996 -11.211 -11.211 c 0 -6.215 4.996 -11.211 11.211 -11.211 m 0 0"
               stroke="none"
               fill-rule="nonzero"
               fill-opacity="1"
               fill="#000"
               id="path47" />
            <path
               d="m 24 12.777 c -1.449 0 -2.836 0.277 -4.109 0.781 c -0.031 0.012 -0.059 0.023 -0.086 0.035 c -0.07 0.027 -0.145 0.055 -0.215 0.086 c -0.063 0.027 -0.125 0.055 -0.184 0.082 c -0.012 0.004 -0.02 0.012 -0.031 0.016 c -0.035 0.016 -0.074 0.031 -0.113 0.051 c -0.043 0.016 -0.082 0.039 -0.121 0.059 c -0.063 0.027 -0.125 0.059 -0.188 0.09 c -0.02 0.012 -0.039 0.02 -0.059 0.027 c -0.059 0.031 -0.117 0.063 -0.176 0.094 c -0.02 0.012 -0.043 0.023 -0.063 0.035 c -0.07 0.035 -0.133 0.074 -0.203 0.113 c -3.387 1.93 -5.672 5.578 -5.672 9.754 c 0 6.195 5.02 11.223 11.219 11.223 c 6.199 0 11.227 -5.03 11.227 -11.223 c 0 -2.258 -0.668 -4.359 -1.816 -6.121 c -0.703 -1.125 -1.684 -2.176 -2.91 -3.03 c -0.051 -0.035 -0.098 -0.07 -0.148 -0.102 c -0.023 -0.02 -0.051 -0.035 -0.074 -0.051 c -1.793 -1.211 -3.953 -1.918 -6.277 -1.918 m 0 0.473 c 0.266 0 0.527 0.012 0.785 0.031 c -0.129 0.082 -0.246 0.184 -0.344 0.305 c -0.387 0.469 -0.527 1.133 -0.566 1.852 c -0.07 1.313 0.219 2.828 0.391 3.844 c -1.301 -0.289 -2.77 -1.496 -3.41 -2.75 c -0.34 -0.66 -0.445 -1.316 -0.246 -1.852 c 0.203 -0.535 0.719 -1 1.77 -1.27 c 0.043 -0.008 0.078 -0.023 0.109 -0.051 c 0.496 -0.07 1 -0.109 1.512 -0.109 m 1.734 0.211 c 0.148 -0.004 0.313 0.012 0.5 0.047 c 1.246 0.266 2.363 0.719 3.344 1.301 c 0.023 0.012 0.047 0.027 0.07 0.043 c 0.051 0.031 0.102 0.063 0.152 0.094 c 0.004 0 0.008 0.004 0.012 0.004 c 0.066 0.047 0.133 0.09 0.203 0.137 c 1.043 0.703 1.953 1.59 2.691 2.605 c -0.277 -0.145 -0.559 -0.246 -0.844 -0.258 c -0.746 -0.039 -1.449 0.352 -2.031 0.938 c -0.863 0.863 -1.5 2.168 -1.672 3.418 c -0.637 -1.199 -1.789 -2.152 -3.41 -2.418 c -0.164 -1.031 -0.48 -2.621 -0.414 -3.906 c 0.035 -0.672 0.184 -1.242 0.465 -1.582 c 0.215 -0.258 0.496 -0.418 0.938 -0.422 m -5.04 0.32 c -0.23 0.219 -0.414 0.465 -0.52 0.734 c -0.262 0.703 -0.109 1.488 0.266 2.227 c 0.555 1.082 1.598 2.09 2.734 2.641 c -1.336 0.234 -2.598 1.043 -3.348 2.5 c -1.031 -0.16 -2.645 -0.348 -3.848 -0.809 c -0.629 -0.242 -1.121 -0.559 -1.359 -0.934 c -0.238 -0.371 -0.273 -0.813 0.082 -1.469 c 0 -0.004 0 -0.004 0 -0.004 c 0 0 0 -0.004 0 -0.004 c 1.07 -1.848 2.523 -3.191 4.082 -4.063 c 0.02 -0.012 0.035 -0.02 0.055 -0.031 c 0.059 -0.035 0.121 -0.063 0.184 -0.098 c 0.07 -0.035 0.137 -0.07 0.207 -0.105 c 0.07 -0.035 0.141 -0.066 0.207 -0.102 c 0.051 -0.02 0.094 -0.043 0.141 -0.063 c 0.023 -0.012 0.047 -0.02 0.066 -0.031 c 0.141 -0.059 0.277 -0.121 0.418 -0.172 c 0.211 -0.082 0.422 -0.156 0.633 -0.219 m 11.04 4.113 c 0.039 0 0.074 0 0.109 0 c 0.57 0.027 1.172 0.379 1.75 1.293 c 0.016 0.02 0.031 0.039 0.051 0.055 c 0 0 0 0 0 0.004 c 0.324 0.656 0.586 1.355 0.773 2.082 c -0.129 -0.105 -0.27 -0.191 -0.422 -0.25 c -0.285 -0.105 -0.598 -0.141 -0.922 -0.125 c -0.328 0.016 -0.668 0.078 -1.016 0.176 c -1.246 0.348 -2.566 1.09 -3.477 1.574 c -0.086 -1.313 0.605 -3.03 1.574 -4 c 0.496 -0.496 1.043 -0.797 1.578 -0.809 m -7.777 1.871 c 0.156 0 0.313 0.004 0.465 0.016 c 0.008 0 0.012 0 0.016 0 c 0.008 0.004 0.02 0.004 0.031 0 c 0.016 0.008 0.031 0.012 0.047 0.016 c 2.02 0.258 3.23 1.637 3.625 3.211 c -0.012 0.039 -0.016 0.082 -0.008 0.125 c 0.406 2.031 -0.555 3.645 -1.961 4.512 c 0 0 -0.004 0 -0.004 0 c -0.02 0.008 -0.039 0.016 -0.055 0.027 c -1.805 0.988 -3.617 0.566 -4.871 -0.5 c -0.012 -0.016 -0.023 -0.035 -0.039 -0.047 c -1.527 -1.402 -1.707 -3.266 -1.086 -4.801 c 0 -0.004 0.004 -0.008 0.004 -0.012 c 0.004 -0.008 0.008 -0.02 0.008 -0.031 c 0.012 -0.016 0.023 -0.031 0.027 -0.047 c 0.805 -1.695 2.301 -2.445 3.801 -2.469 m -9.918 0.188 c 0.043 0.156 0.105 0.301 0.191 0.438 c 0.324 0.512 0.91 0.855 1.582 1.113 c 1.23 0.473 2.77 0.66 3.785 0.813 c -0.656 1.16 -2.25 2.211 -3.641 2.457 c -0.73 0.129 -1.387 0.039 -1.84 -0.313 c -0.449 -0.352 -0.746 -0.98 -0.695 -2.066 c 0 -0.039 -0.008 -0.078 -0.027 -0.113 c 0.129 -0.809 0.344 -1.586 0.645 -2.328 m 19.258 1.461 c 0.195 0.004 0.379 0.039 0.531 0.098 c 0.414 0.156 0.707 0.492 0.813 1.23 c 0.004 0 0 0.004 0 0.008 c 0.344 2.965 -0.516 5.594 -1.898 7.488 c 0.051 -0.316 0.059 -0.617 -0.023 -0.895 c -0.203 -0.723 -0.797 -1.266 -1.539 -1.633 c -1.09 -0.539 -2.527 -0.727 -3.766 -0.492 c 0.934 -0.984 1.461 -2.383 1.195 -4 c 0.922 -0.488 2.332 -1.297 3.574 -1.641 c 0.324 -0.094 0.629 -0.148 0.91 -0.16 c 0.07 -0.004 0.137 -0.008 0.203 -0.004 m -13.93 1.984 c -0.168 1.348 0.23 2.789 1.402 3.938 c -0.457 0.938 -1.113 2.422 -1.91 3.434 c -0.418 0.527 -0.863 0.91 -1.293 1.027 c -0.426 0.117 -0.855 0.02 -1.379 -0.512 c -0.004 0 -0.004 0 -0.004 -0.004 c 0 0 -0.004 0 -0.004 0 c -2.027 -2.191 -2.891 -4.816 -2.895 -7.164 c 0.141 0.285 0.32 0.531 0.547 0.711 c 0.594 0.457 1.391 0.547 2.207 0.402 c 1.199 -0.211 2.469 -0.91 3.328 -1.832 m 8.961 4.199 c 0.926 -0.023 1.898 0.16 2.645 0.527 c 0.668 0.332 1.145 0.793 1.301 1.344 c 0.156 0.547 0.02 1.23 -0.664 2.074 c -0.023 0.027 -0.039 0.063 -0.047 0.102 c -0.555 0.547 -1.168 1.035 -1.828 1.449 c 0.055 -0.145 0.086 -0.297 0.098 -0.453 c 0.035 -0.605 -0.238 -1.223 -0.633 -1.828 c -0.715 -1.098 -1.84 -2.152 -2.574 -2.875 c 0.488 -0.211 1.086 -0.324 1.707 -0.34 m -7.23 0.109 c 0.852 1.01 1.309 2.809 1.098 4.172 c -0.113 0.734 -0.41 1.328 -0.887 1.645 c -0.48 0.313 -1.168 0.387 -2.18 -0.008 c -0.047 -0.02 -0.098 -0.02 -0.148 -0.008 c -0.648 -0.344 -1.262 -0.75 -1.828 -1.215 c 0.184 0.016 0.359 -0.004 0.531 -0.051 c 0.59 -0.16 1.086 -0.617 1.531 -1.184 c 0.805 -1.023 1.438 -2.422 1.883 -3.352 m 5.07 0.441 c 0.738 0.734 1.938 1.836 2.641 2.914 c 0.367 0.566 0.582 1.109 0.555 1.551 c -0.027 0.441 -0.258 0.82 -0.93 1.145 c 0 0 -0.004 0 -0.004 0.004 c -2.727 1.219 -5.496 1.191 -7.719 0.441 c 0.316 -0.047 0.609 -0.133 0.852 -0.293 c 0.625 -0.41 0.965 -1.141 1.094 -1.957 c 0.184 -1.203 -0.07 -2.633 -0.668 -3.742 c 1.223 0.594 2.715 0.68 4.18 -0.063 m 0 0"
               stroke="none"
               fill-rule="nonzero"
               fill-opacity="1"
               fill="#000"
               id="path49" />
          </g>
        </g>
      </g>
    </g>
  </g>
  <g
     id="g51">
    <g
       clip-path="url(#clipPath-093848315)"
       id="g53">
      <!-- color: #7e7e7e -->
      <g
         id="g55">
        <path
           d="m 22.324 13.188 c -2.805 0.313 -5.918 2.074 -7.82 5.367 c -1.527 2.84 3.438 3.254 5.449 3.582 c 0.926 -1.965 2.77 -2.734 4.504 -2.582 c -2.918 -0.414 -6.52 -5.242 -2.133 -6.367 m 3.406 0.047 c -2.488 0.063 -1.469 4.445 -1.18 6.332 c 2.152 0.277 3.457 1.793 3.844 3.492 c -0.504 -2.906 2.977 -7.82 5.402 -3.996 c -1.164 -2.57 -3.797 -4.988 -7.52 -5.781 c -0.199 -0.039 -0.379 -0.055 -0.547 -0.047 m -1.727 6.328 c -2.453 0 -4.438 1.984 -4.438 4.438 c 0 0.516 0.086 1.012 0.246 1.469 c -0.391 -1.082 -0.313 -2.234 0.098 -3.242 c -1.254 2.668 -6.93 4.684 -6.715 0.16 c -0.527 2.773 0.234 6.266 2.824 9.05 c 2.254 2.293 4.117 -2.301 5.02 -4.133 c 0.008 0.008 0.02 0.016 0.027 0.023 c 2.109 2.059 2.188 8.05 -2.02 6.398 c 2.457 1.391 6.02 1.793 9.484 0.238 c 2.906 -1.402 -0.875 -4.652 -2.313 -6.094 c -1.219 0.668 -2.457 0.719 -3.535 0.371 c 0.418 0.129 0.859 0.199 1.316 0.199 c 2.457 0 4.445 -1.992 4.445 -4.445 c 0 -2.453 -1.988 -4.438 -4.445 -4.438 m 9.25 1.617 c -0.055 0 -0.109 0 -0.168 0.004 c -1.512 0.07 -3.59 1.316 -4.723 1.902 c 0.426 2.129 -0.594 3.852 -2.078 4.762 c 2.59 -1.406 8.363 0.32 5.512 3.84 c 2.066 -1.922 3.516 -5.195 3.078 -8.973 c -0.164 -1.121 -0.793 -1.527 -1.621 -1.535 m 0 0"
           fill="#f9f9f9"
           stroke="none"
           fill-rule="nonzero"
           fill-opacity="1"
           id="path57" />
        <path
           d="m 24 9 c -8.262 0 -15 6.738 -15 15 c 0 8.262 6.738 15 15 15 c 8.262 0 15 -6.738 15 -15 c 0 -8.262 -6.738 -15 -15 -15 m 0 3.789 c 6.215 0 11.211 4.996 11.211 11.211 c 0 6.215 -4.996 11.211 -11.211 11.211 c -6.215 0 -11.211 -4.996 -11.211 -11.211 c 0 -6.215 4.996 -11.211 11.211 -11.211 m 0 0"
           fill="#2d2d2d"
           stroke="none"
           fill-rule="nonzero"
           fill-opacity="1"
           id="path59" />
        <path
           d="m 24 12.777 c -1.449 0 -2.836 0.277 -4.109 0.781 c -0.031 0.012 -0.059 0.023 -0.086 0.035 c -0.07 0.027 -0.145 0.055 -0.215 0.086 c -0.063 0.027 -0.125 0.055 -0.184 0.082 c -0.012 0.004 -0.02 0.012 -0.031 0.016 c -0.035 0.016 -0.074 0.031 -0.113 0.051 c -0.043 0.016 -0.082 0.039 -0.121 0.059 c -0.063 0.027 -0.125 0.059 -0.188 0.09 c -0.02 0.012 -0.039 0.02 -0.059 0.027 c -0.059 0.031 -0.117 0.063 -0.176 0.094 c -0.02 0.012 -0.043 0.023 -0.063 0.035 c -0.07 0.035 -0.133 0.074 -0.203 0.113 c -3.387 1.93 -5.672 5.578 -5.672 9.754 c 0 6.195 5.02 11.223 11.219 11.223 c 6.199 0 11.227 -5.03 11.227 -11.223 c 0 -2.258 -0.668 -4.359 -1.816 -6.121 c -0.703 -1.125 -1.684 -2.176 -2.91 -3.03 c -0.051 -0.035 -0.098 -0.07 -0.148 -0.102 c -0.023 -0.02 -0.051 -0.035 -0.074 -0.051 c -1.793 -1.211 -3.953 -1.918 -6.277 -1.918 m 0 0.473 c 0.266 0 0.527 0.012 0.785 0.031 c -0.129 0.082 -0.246 0.184 -0.344 0.305 c -0.387 0.469 -0.527 1.133 -0.566 1.852 c -0.07 1.313 0.219 2.828 0.391 3.844 c -1.301 -0.289 -2.77 -1.496 -3.41 -2.75 c -0.34 -0.66 -0.445 -1.316 -0.246 -1.852 c 0.203 -0.535 0.719 -1 1.77 -1.27 c 0.043 -0.008 0.078 -0.023 0.109 -0.051 c 0.496 -0.07 1 -0.109 1.512 -0.109 m 1.734 0.211 c 0.148 -0.004 0.313 0.012 0.5 0.047 c 1.246 0.266 2.363 0.719 3.344 1.301 c 0.023 0.012 0.047 0.027 0.07 0.043 c 0.051 0.031 0.102 0.063 0.152 0.094 c 0.004 0 0.008 0.004 0.012 0.004 c 0.066 0.047 0.133 0.09 0.203 0.137 c 1.043 0.703 1.953 1.59 2.691 2.605 c -0.277 -0.145 -0.559 -0.246 -0.844 -0.258 c -0.746 -0.039 -1.449 0.352 -2.031 0.938 c -0.863 0.863 -1.5 2.168 -1.672 3.418 c -0.637 -1.199 -1.789 -2.152 -3.41 -2.418 c -0.164 -1.031 -0.48 -2.621 -0.414 -3.906 c 0.035 -0.672 0.184 -1.242 0.465 -1.582 c 0.215 -0.258 0.496 -0.418 0.938 -0.422 m -5.04 0.32 c -0.23 0.219 -0.414 0.465 -0.52 0.734 c -0.262 0.703 -0.109 1.488 0.266 2.227 c 0.555 1.082 1.598 2.09 2.734 2.641 c -1.336 0.234 -2.598 1.043 -3.348 2.5 c -1.031 -0.16 -2.645 -0.348 -3.848 -0.809 c -0.629 -0.242 -1.121 -0.559 -1.359 -0.934 c -0.238 -0.371 -0.273 -0.813 0.082 -1.469 c 0 -0.004 0 -0.004 0 -0.004 c 0 0 0 -0.004 0 -0.004 c 1.07 -1.848 2.523 -3.191 4.082 -4.063 c 0.02 -0.012 0.035 -0.02 0.055 -0.031 c 0.059 -0.035 0.121 -0.063 0.184 -0.098 c 0.07 -0.035 0.137 -0.07 0.207 -0.105 c 0.07 -0.035 0.141 -0.066 0.207 -0.102 c 0.051 -0.02 0.094 -0.043 0.141 -0.063 c 0.023 -0.012 0.047 -0.02 0.066 -0.031 c 0.141 -0.059 0.277 -0.121 0.418 -0.172 c 0.211 -0.082 0.422 -0.156 0.633 -0.219 m 11.04 4.113 c 0.039 0 0.074 0 0.109 0 c 0.57 0.027 1.172 0.379 1.75 1.293 c 0.016 0.02 0.031 0.039 0.051 0.055 c 0 0 0 0 0 0.004 c 0.324 0.656 0.586 1.355 0.773 2.082 c -0.129 -0.105 -0.27 -0.191 -0.422 -0.25 c -0.285 -0.105 -0.598 -0.141 -0.922 -0.125 c -0.328 0.016 -0.668 0.078 -1.016 0.176 c -1.246 0.348 -2.566 1.09 -3.477 1.574 c -0.086 -1.313 0.605 -3.03 1.574 -4 c 0.496 -0.496 1.043 -0.797 1.578 -0.809 m -7.777 1.871 c 0.156 0 0.313 0.004 0.465 0.016 c 0.008 0 0.012 0 0.016 0 c 0.008 0.004 0.02 0.004 0.031 0 c 0.016 0.008 0.031 0.012 0.047 0.016 c 2.02 0.258 3.23 1.637 3.625 3.211 c -0.012 0.039 -0.016 0.082 -0.008 0.125 c 0.406 2.031 -0.555 3.645 -1.961 4.512 c 0 0 -0.004 0 -0.004 0 c -0.02 0.008 -0.039 0.016 -0.055 0.027 c -1.805 0.988 -3.617 0.566 -4.871 -0.5 c -0.012 -0.016 -0.023 -0.035 -0.039 -0.047 c -1.527 -1.402 -1.707 -3.266 -1.086 -4.801 c 0 -0.004 0.004 -0.008 0.004 -0.012 c 0.004 -0.008 0.008 -0.02 0.008 -0.031 c 0.012 -0.016 0.023 -0.031 0.027 -0.047 c 0.805 -1.695 2.301 -2.445 3.801 -2.469 m -9.918 0.188 c 0.043 0.156 0.105 0.301 0.191 0.438 c 0.324 0.512 0.91 0.855 1.582 1.113 c 1.23 0.473 2.77 0.66 3.785 0.813 c -0.656 1.16 -2.25 2.211 -3.641 2.457 c -0.73 0.129 -1.387 0.039 -1.84 -0.313 c -0.449 -0.352 -0.746 -0.98 -0.695 -2.066 c 0 -0.039 -0.008 -0.078 -0.027 -0.113 c 0.129 -0.809 0.344 -1.586 0.645 -2.328 m 19.258 1.461 c 0.195 0.004 0.379 0.039 0.531 0.098 c 0.414 0.156 0.707 0.492 0.813 1.23 c 0.004 0 0 0.004 0 0.008 c 0.344 2.965 -0.516 5.594 -1.898 7.488 c 0.051 -0.316 0.059 -0.617 -0.023 -0.895 c -0.203 -0.723 -0.797 -1.266 -1.539 -1.633 c -1.09 -0.539 -2.527 -0.727 -3.766 -0.492 c 0.934 -0.984 1.461 -2.383 1.195 -4 c 0.922 -0.488 2.332 -1.297 3.574 -1.641 c 0.324 -0.094 0.629 -0.148 0.91 -0.16 c 0.07 -0.004 0.137 -0.008 0.203 -0.004 m -13.93 1.984 c -0.168 1.348 0.23 2.789 1.402 3.938 c -0.457 0.938 -1.113 2.422 -1.91 3.434 c -0.418 0.527 -0.863 0.91 -1.293 1.027 c -0.426 0.117 -0.855 0.02 -1.379 -0.512 c -0.004 0 -0.004 0 -0.004 -0.004 c 0 0 -0.004 0 -0.004 0 c -2.027 -2.191 -2.891 -4.816 -2.895 -7.164 c 0.141 0.285 0.32 0.531 0.547 0.711 c 0.594 0.457 1.391 0.547 2.207 0.402 c 1.199 -0.211 2.469 -0.91 3.328 -1.832 m 8.961 4.199 c 0.926 -0.023 1.898 0.16 2.645 0.527 c 0.668 0.332 1.145 0.793 1.301 1.344 c 0.156 0.547 0.02 1.23 -0.664 2.074 c -0.023 0.027 -0.039 0.063 -0.047 0.102 c -0.555 0.547 -1.168 1.035 -1.828 1.449 c 0.055 -0.145 0.086 -0.297 0.098 -0.453 c 0.035 -0.605 -0.238 -1.223 -0.633 -1.828 c -0.715 -1.098 -1.84 -2.152 -2.574 -2.875 c 0.488 -0.211 1.086 -0.324 1.707 -0.34 m -7.23 0.109 c 0.852 1.01 1.309 2.809 1.098 4.172 c -0.113 0.734 -0.41 1.328 -0.887 1.645 c -0.48 0.313 -1.168 0.387 -2.18 -0.008 c -0.047 -0.02 -0.098 -0.02 -0.148 -0.008 c -0.648 -0.344 -1.262 -0.75 -1.828 -1.215 c 0.184 0.016 0.359 -0.004 0.531 -0.051 c 0.59 -0.16 1.086 -0.617 1.531 -1.184 c 0.805 -1.023 1.438 -2.422 1.883 -3.352 m 5.07 0.441 c 0.738 0.734 1.938 1.836 2.641 2.914 c 0.367 0.566 0.582 1.109 0.555 1.551 c -0.027 0.441 -0.258 0.82 -0.93 1.145 c 0 0 -0.004 0 -0.004 0.004 c -2.727 1.219 -5.496 1.191 -7.719 0.441 c 0.316 -0.047 0.609 -0.133 0.852 -0.293 c 0.625 -0.41 0.965 -1.141 1.094 -1.957 c 0.184 -1.203 -0.07 -2.633 -0.668 -3.742 c 1.223 0.594 2.715 0.68 4.18 -0.063 m 0 0"
           fill="#b2b2b2"
           stroke="none"
           fill-rule="nonzero"
           fill-opacity="1"
           id="path61" />
      </g>
    </g>
  </g>
</svg>
