<?xml version="1.0" encoding="UTF-8" standalone="no"?>
<!-- Created with Inkscape (http://www.inkscape.org/) -->

<svg
   xmlns:dc="http://purl.org/dc/elements/1.1/"
   xmlns:cc="http://creativecommons.org/ns#"
   xmlns:rdf="http://www.w3.org/1999/02/22-rdf-syntax-ns#"
   xmlns:svg="http://www.w3.org/2000/svg"
   xmlns="http://www.w3.org/2000/svg"
   xmlns:xlink="http://www.w3.org/1999/xlink"
   xmlns:sodipodi="http://sodipodi.sourceforge.net/DTD/sodipodi-0.dtd"
   xmlns:inkscape="http://www.inkscape.org/namespaces/inkscape"
   width="48"
   height="48"
   id="svg2"
   version="1.1"
   inkscape:version="0.48.5 r10040"
   sodipodi:docname="trillian.svg"
   inkscape:export-filename="/home/uri/workspace/NitruxforAndroid/res/drawable-xhdpi/twitter.png"
   inkscape:export-xdpi="180"
   inkscape:export-ydpi="180">
  <defs
     id="defs4">
    <linearGradient
       inkscape:collect="always"
       xlink:href="#linearGradient1499"
       id="linearGradient1169"
       x1="29.999998"
       y1="-1052.6122"
       x2="29.999998"
       y2="-1004.2372"
       gradientUnits="userSpaceOnUse" />
    <linearGradient
       inkscape:collect="always"
       xlink:href="#linearGradient1499"
       id="linearGradient4201"
       x1="28.250658"
       y1="39.401974"
       x2="28.250658"
       y2="8.6128511"
       gradientUnits="userSpaceOnUse"
       gradientTransform="matrix(1.3427204,0,0,1.3426025,-8.2259369,996.06897)" />
    <linearGradient
       inkscape:collect="always"
       id="linearGradient1499">
      <stop
         style="stop-color:#0a2956;stop-opacity:1"
         offset="0"
         id="stop1501" />
      <stop
         style="stop-color:#084ba0;stop-opacity:1"
         offset="1"
         id="stop1503" />
    </linearGradient>
  </defs>
  <sodipodi:namedview
     id="base"
     pagecolor="#ffffff"
     bordercolor="#666666"
     borderopacity="1.0"
     inkscape:pageopacity="0.0"
     inkscape:pageshadow="2"
     inkscape:zoom="8.6352621"
     inkscape:cx="24.366587"
     inkscape:cy="33.292268"
     inkscape:document-units="px"
     inkscape:current-layer="layer1"
     showgrid="true"
     inkscape:window-width="1301"
     inkscape:window-height="744"
     inkscape:window-x="65"
     inkscape:window-y="24"
     inkscape:window-maximized="1">
    <inkscape:grid
       type="xygrid"
       id="grid3850"
       empspacing="5"
       visible="true"
       enabled="true"
       snapvisiblegridlinesonly="true" />
  </sodipodi:namedview>
  <metadata
     id="metadata7">
    <rdf:RDF>
      <cc:Work
         rdf:about="">
        <dc:format>image/svg+xml</dc:format>
        <dc:type
           rdf:resource="http://purl.org/dc/dcmitype/StillImage" />
        <dc:title />
      </cc:Work>
    </rdf:RDF>
  </metadata>
  <g
     inkscape:label="Capa 1"
     inkscape:groupmode="layer"
     id="layer1"
     transform="translate(0,-1004.3622)">
    <path
       inkscape:connector-curvature="0"
       id="path4296"
       d="m 14.962214,1008.1546 a 13.699435,11.224125 24.383194 0 0 -0.930987,0.014 13.699435,11.224125 24.383194 0 0 -4.8778523,1.1354 13.699435,11.224125 24.383194 0 0 -3.5325073,15.5843 13.699435,11.224125 24.383194 0 0 13.6265136,6.6106 13.699435,11.224125 24.383194 0 0 1.109318,11.3753 13.699435,11.224125 24.383194 0 0 18.488632,5.4885 13.699435,11.224125 24.383194 0 0 3.532507,-15.5867 13.699435,11.224125 24.383194 0 0 -12.679791,-6.6317 l 0,0 a 13.699435,11.224125 24.383194 0 0 -0.930989,0.016 13.699435,11.224125 24.383194 0 0 -0.0079,0 13.699435,11.224125 24.383194 0 0 -1.117184,-11.3649 13.699435,11.224125 24.383194 0 0 -12.679793,-6.6318 l 0,0 z m 2.326159,1.8381 a 4.2459027,3.1218722 32.587769 0 1 0.380262,0 l 0,0.013 a 4.2459027,3.1218722 32.587769 0 1 2.585787,0.8524 4.2459027,3.1218722 32.587769 0 1 2.17143,2.8084 4.2459027,3.1218722 32.587769 0 1 0.06557,0.3252 4.2459027,3.1218722 32.587769 0 1 0.0027,0.021 4.2459027,3.1218722 32.587769 0 1 0.0052,0.068 4.2459027,3.1218722 32.587769 0 1 0.02622,0.2675 4.2459027,3.1218722 32.587769 0 1 -0.0027,0.063 4.2459027,3.1218722 32.587769 0 1 -0.0079,0.2675 4.2459027,3.1218722 32.587769 0 1 -0.0079,0.055 4.2459027,3.1218722 32.587769 0 1 -0.04196,0.2621 4.2459027,3.1218722 32.587769 0 1 -0.01316,0.044 4.2459027,3.1218722 32.587769 0 1 -0.07343,0.2597 4.2459027,3.1218722 32.587769 0 1 -0.118014,0.27 4.2459027,3.1218722 32.587769 0 1 -0.110145,0.1941 4.2459027,3.1218722 32.587769 0 1 -5.258115,0.341 4.2459027,3.1218722 32.587769 0 1 -0.676604,-0.5063 4.2459027,3.1218722 32.587769 0 1 -0.304212,-0.2884 4.2459027,3.1218722 32.587769 0 1 -0.915251,-4.1222 4.2459027,3.1218722 32.587769 0 1 0.238646,-0.3041 4.2459027,3.1218722 32.587769 0 1 2.053419,-0.8891 z m -8.7539074,2.1766 a 9.4828625,6.9029436 24.350858 0 0 0.6687383,5.3414 9.4828625,6.9029436 24.350858 0 0 5.8822691,4.8068 9.4828625,6.9029436 24.350858 0 0 0.0027,0 7.8638329,5.724389 24.350854 0 0 0.0052,0 9.4828625,6.9029436 24.350858 0 0 0.432712,0.1677 7.8638329,5.724389 24.350854 0 0 2.994897,0.6609 7.8638329,5.724389 24.350854 0 0 0.569083,0.019 7.8638329,5.724389 24.350854 0 0 0.0079,0 7.8638329,5.724389 24.350854 0 0 0.453692,0 9.4828625,6.9029436 24.350858 0 0 1.901315,-0.1967 9.4828625,6.9029436 24.350858 0 0 4.74148,-6.9201 10.663481,7.7623617 24.350853 0 1 0.0813,0.1289 10.663481,7.7623617 24.350853 0 1 -4.413668,10.0511 10.663481,7.7623617 24.350853 0 1 -13.7759961,-6.1335 10.663481,7.7623617 24.350853 0 1 0.4484475,-7.9244 z m 23.4897394,15.8096 a 4.2459027,3.1218722 32.587769 0 1 0.380264,0 l 0,0.013 a 4.2459027,3.1218722 32.587769 0 1 2.585784,0.8523 4.2459027,3.1218722 32.587769 0 1 2.171431,2.8085 4.2459027,3.1218722 32.587769 0 1 0.06557,0.3252 4.2459027,3.1218722 32.587769 0 1 0.0027,0.024 4.2459027,3.1218722 32.587769 0 1 0.0052,0.068 4.2459027,3.1218722 32.587769 0 1 0.02622,0.2675 4.2459027,3.1218722 32.587769 0 1 -0.0027,0.063 4.2459027,3.1218722 32.587769 0 1 -0.0079,0.2674 4.2459027,3.1218722 32.587769 0 1 -0.0079,0.055 4.2459027,3.1218722 32.587769 0 1 -0.04196,0.2623 4.2459027,3.1218722 32.587769 0 1 -0.01316,0.044 4.2459027,3.1218722 32.587769 0 1 -0.07343,0.2596 4.2459027,3.1218722 32.587769 0 1 -0.118014,0.2701 4.2459027,3.1218722 32.587769 0 1 -0.110146,0.1941 4.2459027,3.1218722 32.587769 0 1 -5.258114,0.3408 4.2459027,3.1218722 32.587769 0 1 -0.676605,-0.5061 4.2459027,3.1218722 32.587769 0 1 -0.30421,-0.2884 4.2459027,3.1218722 32.587769 0 1 -0.915253,-4.1222 4.2459027,3.1218722 32.587769 0 1 0.238649,-0.3043 4.2459027,3.1218722 32.587769 0 1 2.053417,-0.8889 z m -8.94535,2.8006 a 9.4828625,6.9029436 24.350858 0 0 0.86018,4.7148 9.4828625,6.9029436 24.350858 0 0 5.882271,4.8066 9.4828625,6.9029436 24.350858 0 0 0.0027,0 7.8638329,5.724389 24.350854 0 0 0.0052,0 9.4828625,6.9029436 24.350858 0 0 0.43271,0.1678 7.8638329,5.724389 24.350854 0 0 2.994898,0.6609 7.8638329,5.724389 24.350854 0 0 0.569082,0.022 7.8638329,5.724389 24.350854 0 0 0.0079,0 7.8638329,5.724389 24.350854 0 0 0.453691,0 9.4828625,6.9029436 24.350858 0 0 1.901315,-0.1966 9.4828625,6.9029436 24.350858 0 0 4.74148,-6.9202 10.663481,7.7623617 24.350853 0 1 0.0813,0.1289 10.663481,7.7623617 24.350853 0 1 -4.413669,10.0511 10.663481,7.7623617 24.350853 0 1 -13.775996,-6.1335 10.663481,7.7623617 24.350853 0 1 -0.149482,-7.1719 13.699435,11.224125 24.383194 0 0 0.406487,-0.1289 z"
       style="fill:#000000;fill-opacity:0.23529412;stroke:none" />
    <path
       style="fill:url(#linearGradient4201);fill-opacity:1;stroke:none"
       d="m 14.962214,1007.6175 a 13.699435,11.224125 24.383194 0 0 -0.930987,0.014 13.699435,11.224125 24.383194 0 0 -4.8778523,1.1354 13.699435,11.224125 24.383194 0 0 -3.5325073,15.5843 13.699435,11.224125 24.383194 0 0 13.6265136,6.6106 13.699435,11.224125 24.383194 0 0 1.109318,11.3753 13.699435,11.224125 24.383194 0 0 18.488632,5.4885 13.699435,11.224125 24.383194 0 0 3.532507,-15.5867 13.699435,11.224125 24.383194 0 0 -12.679791,-6.6317 l 0,0 a 13.699435,11.224125 24.383194 0 0 -0.930989,0.016 13.699435,11.224125 24.383194 0 0 -0.0079,0 13.699435,11.224125 24.383194 0 0 -1.117184,-11.3649 13.699435,11.224125 24.383194 0 0 -12.679793,-6.6318 l 0,0 z m 2.326159,1.8381 a 4.2459027,3.1218722 32.587769 0 1 0.380262,0 l 0,0.013 a 4.2459027,3.1218722 32.587769 0 1 2.585787,0.8524 4.2459027,3.1218722 32.587769 0 1 2.17143,2.8084 4.2459027,3.1218722 32.587769 0 1 0.06557,0.3252 4.2459027,3.1218722 32.587769 0 1 0.0027,0.021 4.2459027,3.1218722 32.587769 0 1 0.0052,0.068 4.2459027,3.1218722 32.587769 0 1 0.02622,0.2675 4.2459027,3.1218722 32.587769 0 1 -0.0027,0.063 4.2459027,3.1218722 32.587769 0 1 -0.0079,0.2675 4.2459027,3.1218722 32.587769 0 1 -0.0079,0.055 4.2459027,3.1218722 32.587769 0 1 -0.04196,0.2621 4.2459027,3.1218722 32.587769 0 1 -0.01316,0.044 4.2459027,3.1218722 32.587769 0 1 -0.07343,0.2597 4.2459027,3.1218722 32.587769 0 1 -0.118014,0.27 4.2459027,3.1218722 32.587769 0 1 -0.110145,0.1941 4.2459027,3.1218722 32.587769 0 1 -5.258115,0.341 4.2459027,3.1218722 32.587769 0 1 -0.676604,-0.5063 4.2459027,3.1218722 32.587769 0 1 -0.304212,-0.2884 4.2459027,3.1218722 32.587769 0 1 -0.915251,-4.1222 4.2459027,3.1218722 32.587769 0 1 0.238646,-0.3041 4.2459027,3.1218722 32.587769 0 1 2.053419,-0.8891 z m -8.7539074,2.1766 a 9.4828625,6.9029436 24.350858 0 0 0.6687383,5.3414 9.4828625,6.9029436 24.350858 0 0 5.8822691,4.8068 9.4828625,6.9029436 24.350858 0 0 0.0027,0 7.8638329,5.724389 24.350854 0 0 0.0052,0 9.4828625,6.9029436 24.350858 0 0 0.432712,0.1677 7.8638329,5.724389 24.350854 0 0 2.994897,0.6609 7.8638329,5.724389 24.350854 0 0 0.569083,0.019 7.8638329,5.724389 24.350854 0 0 0.0079,0 7.8638329,5.724389 24.350854 0 0 0.453692,0 9.4828625,6.9029436 24.350858 0 0 1.901315,-0.1967 9.4828625,6.9029436 24.350858 0 0 4.74148,-6.9201 10.663481,7.7623617 24.350853 0 1 0.0813,0.1289 10.663481,7.7623617 24.350853 0 1 -4.413668,10.0511 10.663481,7.7623617 24.350853 0 1 -13.7759961,-6.1335 10.663481,7.7623617 24.350853 0 1 0.4484475,-7.9244 z m 23.4897394,15.8096 a 4.2459027,3.1218722 32.587769 0 1 0.380264,0 l 0,0.013 a 4.2459027,3.1218722 32.587769 0 1 2.585784,0.8523 4.2459027,3.1218722 32.587769 0 1 2.171431,2.8085 4.2459027,3.1218722 32.587769 0 1 0.06557,0.3252 4.2459027,3.1218722 32.587769 0 1 0.0027,0.024 4.2459027,3.1218722 32.587769 0 1 0.0052,0.068 4.2459027,3.1218722 32.587769 0 1 0.02622,0.2675 4.2459027,3.1218722 32.587769 0 1 -0.0027,0.063 4.2459027,3.1218722 32.587769 0 1 -0.0079,0.2674 4.2459027,3.1218722 32.587769 0 1 -0.0079,0.055 4.2459027,3.1218722 32.587769 0 1 -0.04196,0.2623 4.2459027,3.1218722 32.587769 0 1 -0.01316,0.044 4.2459027,3.1218722 32.587769 0 1 -0.07343,0.2597 4.2459027,3.1218722 32.587769 0 1 -0.118014,0.27 4.2459027,3.1218722 32.587769 0 1 -0.110146,0.1941 4.2459027,3.1218722 32.587769 0 1 -5.258114,0.3408 4.2459027,3.1218722 32.587769 0 1 -0.676605,-0.5061 4.2459027,3.1218722 32.587769 0 1 -0.30421,-0.2884 4.2459027,3.1218722 32.587769 0 1 -0.915253,-4.1222 4.2459027,3.1218722 32.587769 0 1 0.238649,-0.3043 4.2459027,3.1218722 32.587769 0 1 2.053417,-0.8889 z m -8.94535,2.8006 a 9.4828625,6.9029436 24.350858 0 0 0.86018,4.7148 9.4828625,6.9029436 24.350858 0 0 5.882271,4.8066 9.4828625,6.9029436 24.350858 0 0 0.0027,0 7.8638329,5.724389 24.350854 0 0 0.0052,0 9.4828625,6.9029436 24.350858 0 0 0.43271,0.1678 7.8638329,5.724389 24.350854 0 0 2.994898,0.6609 7.8638329,5.724389 24.350854 0 0 0.569082,0.022 7.8638329,5.724389 24.350854 0 0 0.0079,0 7.8638329,5.724389 24.350854 0 0 0.453691,0 9.4828625,6.9029436 24.350858 0 0 1.901315,-0.1966 9.4828625,6.9029436 24.350858 0 0 4.74148,-6.9202 10.663481,7.7623617 24.350853 0 1 0.0813,0.1289 10.663481,7.7623617 24.350853 0 1 -4.413669,10.0511 10.663481,7.7623617 24.350853 0 1 -13.775996,-6.1335 10.663481,7.7623617 24.350853 0 1 -0.149482,-7.1719 13.699435,11.224125 24.383194 0 0 0.406487,-0.1289 z"
       id="path4161"
       inkscape:connector-curvature="0" />
    <path
       style="fill:#0a3167;fill-opacity:0.31372549;stroke:none"
       d="m 17.288894,1008.3806 0,0.01 a 4.2459027,3.1218722 32.587769 0 0 -2.053456,0.889 4.2459027,3.1218722 32.587769 0 0 -0.238652,0.3042 4.2459027,3.1218722 32.587769 0 0 -0.322573,1.8725 4.2459027,3.1218722 32.587769 0 1 0.322573,-0.7998 4.2459027,3.1218722 32.587769 0 1 0.238652,-0.3043 4.2459027,3.1218722 32.587769 0 1 2.053456,-0.889 l 0,-0 a 4.2459027,3.1218722 32.587769 0 1 0.38027,0 l 0,0.013 a 4.2459027,3.1218722 32.587769 0 1 2.585835,0.8523 4.2459027,3.1218722 32.587769 0 1 2.171471,2.8088 4.2459027,3.1218722 32.587769 0 1 0.04458,0.2229 4.2459027,3.1218722 32.587769 0 0 0.03672,-0.2282 4.2459027,3.1218722 32.587769 0 0 0.0079,-0.055 4.2459027,3.1218722 32.587769 0 0 0.0079,-0.2675 4.2459027,3.1218722 32.587769 0 0 0.0026,-0.063 4.2459027,3.1218722 32.587769 0 0 -0.02623,-0.2675 4.2459027,3.1218722 32.587769 0 0 -0.0052,-0.071 4.2459027,3.1218722 32.587769 0 0 -0.0026,-0.021 4.2459027,3.1218722 32.587769 0 0 -0.06556,-0.3252 4.2459027,3.1218722 32.587769 0 0 -2.171471,-2.8087 4.2459027,3.1218722 32.587769 0 0 -2.585835,-0.8524 l 0,-0.013 a 4.2459027,3.1218722 32.587769 0 0 -0.38027,0 z m -8.7540712,2.1794 a 10.663481,7.7623617 24.350853 0 0 -1.5473049,4.613 10.663481,7.7623617 24.350853 0 1 1.2352213,-3.1654 9.4828625,6.9029436 24.350858 0 1 0.3120836,-1.4476 z m -0.3015941,2.3734 a 9.4828625,6.9029436 24.350858 0 0 0.9703445,4.0413 9.4828625,6.9029436 24.350858 0 0 5.8823788,4.8045 9.4828625,6.9029436 24.350858 0 0 0.0026,0 7.8638329,5.724389 24.350854 0 0 0.0052,0 9.4828625,6.9029436 24.350858 0 0 0.43272,0.1679 7.8638329,5.724389 24.350854 0 0 2.994952,0.6609 7.8638329,5.724389 24.350854 0 0 0.569093,0.021 7.8638329,5.724389 24.350854 0 0 0.0079,0 7.8638329,5.724389 24.350854 0 0 0.453701,0 9.4828625,6.9029436 24.350858 0 0 1.901349,-0.1967 9.4828625,6.9029436 24.350858 0 0 4.888434,-5.9716 9.4828625,6.9029436 24.350858 0 1 -4.888434,4.8963 9.4828625,6.9029436 24.350858 0 1 -1.901349,0.1967 7.8638329,5.724389 24.350854 0 1 -0.453701,0 7.8638329,5.724389 24.350854 0 1 -0.0079,0 7.8638329,5.724389 24.350854 0 1 -0.569093,-0.018 7.8638329,5.724389 24.350854 0 1 -2.994952,-0.6608 9.4828625,6.9029436 24.350858 0 1 -0.43272,-0.1679 7.8638329,5.724389 24.350854 0 1 -0.0052,0 9.4828625,6.9029436 24.350858 0 0 -0.0026,0 9.4828625,6.9029436 24.350858 0 1 -5.8823788,-4.8071 9.4828625,6.9029436 24.350858 0 1 -0.9703445,-2.9661 z m 17.9618463,1.5027 a 9.4828625,6.9029436 24.350858 0 1 0.178333,1.3926 10.663481,7.7623617 24.350853 0 1 1.007059,3.1182 10.663481,7.7623617 24.350853 0 0 -1.104094,-4.3823 10.663481,7.7623617 24.350853 0 0 -0.0813,-0.1285 z m -22.8476563,2.6068 a 13.699435,11.224125 24.383194 0 0 2.2737509,7.3091 13.699435,11.224125 24.383194 0 0 13.1153724,6.614 13.699435,11.224125 24.383194 0 1 0.511398,-1.0778 13.699435,11.224125 24.383194 0 1 -13.6267704,-6.6115 13.699435,11.224125 24.383194 0 1 -2.2737509,-6.2338 z m 26.5559413,3.4565 a 13.699435,11.224125 24.383194 0 1 -1.143432,4.0493 13.699435,11.224125 24.383194 0 1 0.0079,0 13.699435,11.224125 24.383194 0 1 0.498284,-0.01 13.699435,11.224125 24.383194 0 0 0.63728,-4.0414 z m 2.121642,5.8693 0,0.01 a 4.2459027,3.1218722 32.587769 0 0 -2.053455,0.889 4.2459027,3.1218722 32.587769 0 0 -0.238653,0.3042 4.2459027,3.1218722 32.587769 0 0 -0.322573,1.8725 4.2459027,3.1218722 32.587769 0 1 0.322573,-0.7972 4.2459027,3.1218722 32.587769 0 1 0.238653,-0.3043 4.2459027,3.1218722 32.587769 0 1 2.053455,-0.889 l 0,-0.01 a 4.2459027,3.1218722 32.587769 0 1 0.380271,0 l 0,0.013 a 4.2459027,3.1218722 32.587769 0 1 2.585834,0.8524 4.2459027,3.1218722 32.587769 0 1 2.171471,2.8087 4.2459027,3.1218722 32.587769 0 1 0.04458,0.2229 4.2459027,3.1218722 32.587769 0 0 0.03671,-0.2255 4.2459027,3.1218722 32.587769 0 0 0.0079,-0.055 4.2459027,3.1218722 32.587769 0 0 0.0079,-0.2675 4.2459027,3.1218722 32.587769 0 0 0.0026,-0.063 4.2459027,3.1218722 32.587769 0 0 -0.02622,-0.2675 4.2459027,3.1218722 32.587769 0 0 -0.0052,-0.068 4.2459027,3.1218722 32.587769 0 0 -0.0026,-0.024 4.2459027,3.1218722 32.587769 0 0 -0.06556,-0.3252 4.2459027,3.1218722 32.587769 0 0 -2.171471,-2.8088 4.2459027,3.1218722 32.587769 0 0 -2.585834,-0.8523 l 0,-0.013 a 4.2459027,3.1218722 32.587769 0 0 -0.380271,0 z m -8.945517,2.8009 a 13.699435,11.224125 24.383194 0 1 -0.406495,0.1285 10.663481,7.7623617 24.350853 0 0 -0.949363,3.8656 10.663481,7.7623617 24.350853 0 1 0.949363,-2.793 13.699435,11.224125 24.383194 0 0 0.27799,-0.086 9.4828625,6.9029436 24.350858 0 1 0.128505,-1.1146 z m -0.110147,1.7309 a 9.4828625,6.9029436 24.350858 0 0 0.970343,4.0571 9.4828625,6.9029436 24.350858 0 0 5.882381,4.8071 9.4828625,6.9029436 24.350858 0 0 0.0026,0 7.8638329,5.724389 24.350854 0 0 0.0052,0 9.4828625,6.9029436 24.350858 0 0 0.43272,0.1678 7.8638329,5.724389 24.350854 0 0 2.994952,0.6609 7.8638329,5.724389 24.350854 0 0 0.569093,0.021 7.8638329,5.724389 24.350854 0 0 0.0079,0 7.8638329,5.724389 24.350854 0 0 0.4537,0 9.4828625,6.9029436 24.350858 0 0 1.901349,-0.1967 9.4828625,6.9029436 24.350858 0 0 4.888434,-5.9715 9.4828625,6.9029436 24.350858 0 1 -4.888434,4.8963 9.4828625,6.9029436 24.350858 0 1 -1.901349,0.1967 7.8638329,5.724389 24.350854 0 1 -0.4537,0 7.8638329,5.724389 24.350854 0 1 -0.0079,0 7.8638329,5.724389 24.350854 0 1 -0.569093,-0.021 7.8638329,5.724389 24.350854 0 1 -2.994952,-0.6609 9.4828625,6.9029436 24.350858 0 1 -0.43272,-0.1679 7.8638329,5.724389 24.350854 0 1 -0.0052,0 9.4828625,6.9029436 24.350858 0 0 -0.0026,0 9.4828625,6.9029436 24.350858 0 1 -5.882381,-4.8071 9.4828625,6.9029436 24.350858 0 1 -0.970343,-2.9818 z m 17.961845,1.5237 a 9.4828625,6.9029436 24.350858 0 1 0.178334,1.3899 10.663481,7.7623617 24.350853 0 1 1.007059,3.1182 10.663481,7.7623617 24.350853 0 0 -1.104094,-4.3796 10.663481,7.7623617 24.350853 0 0 -0.0813,-0.1285 z m -22.834543,2.5832 a 13.699435,11.224125 24.383194 0 0 2.260638,7.33 13.699435,11.224125 24.383194 0 0 18.488978,5.489 13.699435,11.224125 24.383194 0 0 5.806325,-9.352 13.699435,11.224125 24.383194 0 1 -5.806325,8.2768 13.699435,11.224125 24.383194 0 1 -18.488978,-5.489 13.699435,11.224125 24.383194 0 1 -2.260638,-6.2548 z"
       id="path4304"
       inkscape:connector-curvature="0" />
  </g>
</svg>
