<?xml version="1.0" encoding="UTF-8" standalone="no"?>
<svg
   xmlns:dc="http://purl.org/dc/elements/1.1/"
   xmlns:cc="http://creativecommons.org/ns#"
   xmlns:rdf="http://www.w3.org/1999/02/22-rdf-syntax-ns#"
   xmlns:svg="http://www.w3.org/2000/svg"
   xmlns="http://www.w3.org/2000/svg"
   xmlns:xlink="http://www.w3.org/1999/xlink"
   xmlns:sodipodi="http://sodipodi.sourceforge.net/DTD/sodipodi-0.dtd"
   xmlns:inkscape="http://www.inkscape.org/namespaces/inkscape"
   viewBox="0 0 48 48"
   id="svg2"
   version="1.1"
   inkscape:version="0.48.5 r10040"
   width="100%"
   height="100%"
   sodipodi:docname="ts3client_linux_amd64.svg">
  <metadata
     id="metadata77">
    <rdf:RDF>
      <cc:Work
         rdf:about="">
        <dc:format>image/svg+xml</dc:format>
        <dc:type
           rdf:resource="http://purl.org/dc/dcmitype/StillImage" />
      </cc:Work>
    </rdf:RDF>
  </metadata>
  <sodipodi:namedview
     pagecolor="#ffffff"
     bordercolor="#666666"
     borderopacity="1"
     objecttolerance="10"
     gridtolerance="10"
     guidetolerance="10"
     inkscape:pageopacity="0"
     inkscape:pageshadow="2"
     inkscape:window-width="640"
     inkscape:window-height="480"
     id="namedview75"
     showgrid="true"
     inkscape:zoom="9.0450742"
     inkscape:cx="13.558084"
     inkscape:cy="31.847267"
     inkscape:window-x="380"
     inkscape:window-y="368"
     inkscape:window-maximized="0"
     inkscape:current-layer="svg2">
    <inkscape:grid
       type="xygrid"
       id="grid3075" />
  </sodipodi:namedview>
  <defs
     id="defs4">
    <linearGradient
       id="linearGradient3764"
       x1="1"
       x2="47"
       gradientUnits="userSpaceOnUse"
       gradientTransform="matrix(0,-1,1,0,-1.5e-6,47.999998)">
      <stop
         stop-color="#c4ccd2"
         stop-opacity="1"
         id="stop7" />
      <stop
         offset="1"
         stop-color="#cfd6db"
         stop-opacity="1"
         id="stop9"
         style="stop-color:#e8e8e8;stop-opacity:1;" />
    </linearGradient>
    <clipPath
       id="clipPath-967951877">
      <g
         transform="translate(0,-1004.3622)"
         id="g12">
        <path
           d="m -24 13 c 0 1.105 -0.672 2 -1.5 2 -0.828 0 -1.5 -0.895 -1.5 -2 0 -1.105 0.672 -2 1.5 -2 0.828 0 1.5 0.895 1.5 2 z"
           transform="matrix(15.333333,0,0,11.5,414.99999,878.8622)"
           fill="#1890d0"
           id="path14" />
      </g>
    </clipPath>
    <clipPath
       id="clipPath-983183359">
      <g
         transform="translate(0,-1004.3622)"
         id="g17">
        <path
           d="m -24 13 c 0 1.105 -0.672 2 -1.5 2 -0.828 0 -1.5 -0.895 -1.5 -2 0 -1.105 0.672 -2 1.5 -2 0.828 0 1.5 0.895 1.5 2 z"
           transform="matrix(15.333333,0,0,11.5,414.99999,878.8622)"
           fill="#1890d0"
           id="path19" />
      </g>
    </clipPath>
    <linearGradient
       y2="1028.3622"
       x2="44"
       y1="1028.3622"
       x1="4"
       gradientTransform="translate(-5.5065918e-7,-1004.3622)"
       gradientUnits="userSpaceOnUse"
       id="linearGradient3007"
       xlink:href="#linearGradient3764"
       inkscape:collect="always" />
  </defs>
  <rect
     style="fill:url(#linearGradient3007);fill-opacity:1.0;stroke:none"
     id="rect3758"
     width="40"
     height="40"
     x="4"
     y="4"
     ry="0" />
  <path
     style="opacity:0.35;fill:#000000;fill-opacity:1;stroke:none"
     d="m 4.0000011,43.999717 39.9999959,3e-4 c -19.999997,-1 -19.999997,-1 -39.9999973,0 z"
     id="path3800"
     inkscape:connector-curvature="0"
     sodipodi:nodetypes="cccc" />
  <path
     sodipodi:nodetypes="cccc"
     inkscape:connector-curvature="0"
     id="path3804"
     d="M 4.0000046,3.9999172 44,3.9997172 c -19.999996,1 -19.999996,1 -39.9999968,0 z"
     style="opacity:0.75;fill:#ffffff;fill-opacity:1;stroke:none" />
  <g
     id="g33" />
  <g
     id="g35">
    <g
       clip-path="url(#clipPath-967951877)"
       id="g37">
      <g
         transform="translate(1,1)"
         id="g39">
        <g
           opacity="0.1"
           id="g41">
          <!-- color: #cfd6db -->
          <g
             id="g43">
            <path
               d="m 22.762 13.809 c -0.016 -0.004 -0.027 -0.008 -0.043 -0.012 c -0.707 -0.113 -2.285 -0.188 -2.727 -0.188 c -0.445 0 -0.363 0.105 -0.363 0.105 c 0.777 0.621 3.125 2.734 3.941 6.27 c 0 0 0.039 0.102 0.059 0.262 c 0 0.004 0 0.008 0 0.008 c 0.027 0.25 0.039 0.633 -0.082 0.996 c -0.109 0.266 -0.379 0.684 -0.379 0.684 c -0.074 0.098 -0.148 0.27 0.016 0.477 l 1.527 2.109 l -0.02 0 l 0.566 0.855 c 0 0 0.086 0.109 0.141 0.262 c 0.188 0.66 -0.586 0.922 -0.883 0.996 c -0.031 0.008 -0.109 0.023 -0.109 0.023 c -0.41 0.102 -0.992 0.34 -0.59 0.848 c 0 0 0 0 0 0.004 c 0.008 0.008 0.016 0.016 0.023 0.027 c 0.031 0.035 0.086 0.105 0.168 0.234 c 0.078 0.164 0.145 0.43 -0.094 0.617 c -0.125 0.082 -0.336 0.266 -0.133 0.473 l -0.012 -0.016 c 0 0 0.027 0.035 0.051 0.102 c 0.094 0.352 -0.137 0.598 -0.23 0.68 c -0.012 0.008 -0.02 0.02 -0.031 0.027 c 0 0 -0.004 0.004 -0.004 0.004 l 0.004 -0.004 c -0.246 0.227 -0.102 0.516 -0.102 0.516 c 0 0 0 0 0 0.004 c 0.004 0.023 0.012 0.051 0.016 0.078 c 0.063 0.355 0.027 0.762 -0.031 1.094 l -0.191 0.699 l 0 -0.004 c -0.035 0.086 0.738 0.023 1.172 -0.141 c 4.629 -1.23 7.969 -4.738 7.969 -8.879 c 0 -4.617 -4.16 -8.453 -9.629 -9.211"
               fill="#000"
               stroke="none"
               fill-rule="evenodd"
               fill-opacity="1"
               id="path45" />
            <path
               d="m 24.24 25.25 c -0.66 -0.957 -1.289 -1.824 -1.844 -2.855 c -0.098 -0.176 -0.223 -0.367 -0.191 -0.598 c 0.043 -0.293 0.32 -0.441 0.445 -0.656 c 0.289 -0.512 0.09 -1.188 -0.09 -1.727 c -0.363 -1.098 -0.82 -2.055 -1.375 -2.906 c -0.762 -1.172 -1.691 -2.125 -3.02 -2.645 l 0 5.355 c 0.07 0.07 0.211 0.164 0.281 0.219 c 0.344 0.289 0.617 0.535 0.902 0.871 c 1.102 1.293 1.789 2.922 1.895 5.168 c 0.074 1.52 -0.266 2.82 -0.75 3.91 c -0.445 1 -1.09 1.898 -1.871 2.559 c -0.039 0.035 -0.125 0.066 -0.113 0.137 c 1.207 0.242 3.492 0.574 4.059 -0.457 c 0.223 -0.402 0.082 -1.016 -0.047 -1.508 c -0.012 -0.043 -0.02 -0.082 -0.031 -0.125 c -0.016 -0.074 -0.02 -0.172 -0.02 -0.266 c 0.008 -0.031 0.02 -0.102 0.055 -0.191 c 0.008 -0.012 0.012 -0.023 0.023 -0.039 c 0.047 -0.105 0.125 -0.23 0.238 -0.359 c 0.148 -0.145 0.148 -0.152 0.148 -0.188 c 0 -0.035 -0.191 -0.145 -0.191 -0.145 c -0.098 -0.074 -0.188 -0.141 -0.188 -0.285 c 0 -0.316 0.453 -0.336 0.496 -0.574 c 0.035 -0.18 -0.078 -0.34 -0.141 -0.496 c -0.043 -0.109 -0.098 -0.246 -0.129 -0.391 c -0.035 -0.199 -0.027 -0.508 0.289 -0.68 c 0.164 -0.078 0.375 -0.141 0.527 -0.195 c 0.137 -0.051 0.281 -0.098 0.434 -0.148 c 0.133 -0.047 0.336 -0.105 0.383 -0.211 c 0.07 -0.176 -0.074 -0.422 -0.18 -0.574"
               fill="#000"
               stroke="none"
               fill-rule="evenodd"
               fill-opacity="1"
               id="path47" />
            <path
               d="m 23.629 20.246 c 0 0.004 0 0.008 0 0.008 c 0 0.012 0 0.023 0.004 0.035 c 0.77 0.391 1.418 0.902 1.973 1.551 c 0.547 0.641 1.012 1.461 1.012 2.605 c 0 1.16 -0.469 1.965 -1.012 2.621 c -0.48 0.582 -1.055 1.039 -1.75 1.406 c -0.027 0.016 -0.059 0.031 -0.094 0.051 c -0.063 0.078 -0.094 0.176 -0.02 0.281 c 0.043 0.008 0.094 -0.012 0.152 -0.031 c 0.773 -0.25 1.504 -0.605 2.117 -1.012 c 1.066 -0.699 2.063 -1.551 2.711 -2.668 c 0.211 -0.367 0.375 -0.816 0.527 -1.27 c 0.313 -0.922 0.41 -2.051 0.125 -3.105 c -0.246 -0.914 -0.699 -1.703 -1.195 -2.406 c -1.473 -2.078 -4.086 -3.141 -7.281 -3.395 l 0 0.008 c 0.148 0.16 0.297 0.336 0.449 0.527 c 0.461 0.555 0.871 1.156 1.215 1.824 c 0.227 0.438 0.441 0.902 0.617 1.398 c 0.152 0.414 0.285 0.848 0.391 1.309 c 0 0 0.039 0.102 0.059 0.262"
               fill="#000"
               stroke="none"
               fill-rule="evenodd"
               fill-opacity="1"
               id="path49" />
            <path
               d="m 35.43 20.598 c -0.684 -1.898 -1.828 -3.34 -3.117 -4.578 c -1.961 -1.875 -4.43 -3.215 -7.73 -3.746 c -1.059 -0.172 -2.379 -0.316 -3.59 -0.262 c -1.137 0.055 -2.066 0.188 -3.02 0.422 c -0.906 0.219 -1.934 0.406 -2.426 1.035 c -0.242 0.309 -0.32 0.871 -0.414 1.32 c -0.301 1.449 -0.582 2.789 -0.875 4.207 c -1.324 0.527 -2.258 1.84 -2.258 3.379 c 0 0.004 0 0.008 0 0.012 c 0 0.184 0.012 0.371 0.043 0.566 c 0.129 0.855 0.508 1.551 1.023 2.035 c 0.512 0.484 1.184 0.883 2.055 0.984 c 0.078 0.012 0.156 0.016 0.23 0.02 c 0.008 0 0.016 0 0.023 0 c 0.051 0.004 0.098 0.004 0.148 0.004 c 0.004 0 0.012 0.004 0.016 0.004 c 0.02 0 0.039 -0.004 0.055 -0.004 c 0.031 0 0.059 0 0.09 0 c 0.047 -0.004 0.094 -0.008 0.145 -0.012 c 0 0 0.004 0 0.004 0 c 1.82 -0.152 3.25 -1.711 3.25 -3.609 c 0 -1.32 -0.688 -2.473 -1.719 -3.109 l 0 -6.266 c 1.957 -0.5 4.402 -0.578 6.512 -0.199 c 2.105 0.383 3.801 1.145 5.32 2.121 c 1.516 0.977 2.688 2.242 3.699 3.762 c 0.508 0.762 0.91 1.59 1.156 2.59 c 0.246 1.012 0.355 2.176 0.27 3.441 c -0.078 1.141 -0.305 2.184 -0.719 3.02 c -0.422 0.852 -0.852 1.629 -1.398 2.344 c -1.094 1.422 -2.527 2.508 -4.141 3.328 c -1.699 0.863 -3.434 1.492 -5.723 1.715 c -2.25 0.219 -4.473 -0.113 -6.195 -0.641 c -0.113 -0.035 -0.27 -0.113 -0.363 -0.113 c -0.133 0.004 -0.402 0.227 -0.512 0.297 c -0.047 0.027 -0.133 0.074 -0.109 0.098 c 1.934 0.648 3.93 1.234 6.402 1.234 c 2.539 0 4.457 -0.438 6.246 -1.16 c 3.539 -1.43 6.426 -3.832 7.68 -7.621 c 0.336 -1.016 0.512 -2.125 0.512 -3.344 c 0 -1.227 -0.227 -2.313 -0.57 -3.277"
               fill="#000"
               stroke="none"
               fill-rule="evenodd"
               fill-opacity="1"
               id="path51" />
            <path
               d="m 17 23 c 0 1.105 -0.895 2 -2 2 c -1.105 0 -2 -0.895 -2 -2 c 0 -1.105 0.895 -2 2 -2 c 1.105 0 2 0.895 2 2"
               fill="#000"
               stroke="none"
               fill-rule="evenodd"
               fill-opacity="1"
               id="path53" />
          </g>
        </g>
      </g>
    </g>
  </g>
  <g
     id="g55">
    <g
       clip-path="url(#clipPath-983183359)"
       id="g57">
      <!-- color: #cfd6db -->
      <g
         id="g59">
        <path
           d="m 22.762 13.809 c -0.016 -0.004 -0.027 -0.008 -0.043 -0.012 c -0.707 -0.113 -2.285 -0.188 -2.727 -0.188 c -0.445 0 -0.363 0.105 -0.363 0.105 c 0.777 0.621 3.125 2.734 3.941 6.27 c 0 0 0.039 0.102 0.059 0.262 c 0 0.004 0 0.008 0 0.008 c 0.027 0.25 0.039 0.633 -0.082 0.996 c -0.109 0.266 -0.379 0.684 -0.379 0.684 c -0.074 0.098 -0.148 0.27 0.016 0.477 l 1.527 2.109 l -0.02 0 l 0.566 0.855 c 0 0 0.086 0.109 0.141 0.262 c 0.188 0.66 -0.586 0.922 -0.883 0.996 c -0.031 0.008 -0.109 0.023 -0.109 0.023 c -0.41 0.102 -0.992 0.34 -0.59 0.848 c 0 0 0 0 0 0.004 c 0.008 0.008 0.016 0.016 0.023 0.027 c 0.031 0.035 0.086 0.105 0.168 0.234 c 0.078 0.164 0.145 0.43 -0.094 0.617 c -0.125 0.082 -0.336 0.266 -0.133 0.473 l -0.012 -0.016 c 0 0 0.027 0.035 0.051 0.102 c 0.094 0.352 -0.137 0.598 -0.23 0.68 c -0.012 0.008 -0.02 0.02 -0.031 0.027 c 0 0 -0.004 0.004 -0.004 0.004 l 0.004 -0.004 c -0.246 0.227 -0.102 0.516 -0.102 0.516 c 0 0 0 0 0 0.004 c 0.004 0.023 0.012 0.051 0.016 0.078 c 0.063 0.355 0.027 0.762 -0.031 1.094 l -0.191 0.699 l 0 -0.004 c -0.035 0.086 0.738 0.023 1.172 -0.141 c 4.629 -1.23 7.969 -4.738 7.969 -8.879 c 0 -4.617 -4.16 -8.453 -9.629 -9.211"
           fill="#c1ccdd"
           stroke="none"
           fill-rule="evenodd"
           fill-opacity="1"
           id="path61" />
        <path
           d="m 24.24 25.25 c -0.66 -0.957 -1.289 -1.824 -1.844 -2.855 c -0.098 -0.176 -0.223 -0.367 -0.191 -0.598 c 0.043 -0.293 0.32 -0.441 0.445 -0.656 c 0.289 -0.512 0.09 -1.188 -0.09 -1.727 c -0.363 -1.098 -0.82 -2.055 -1.375 -2.906 c -0.762 -1.172 -1.691 -2.125 -3.02 -2.645 l 0 5.355 c 0.07 0.07 0.211 0.164 0.281 0.219 c 0.344 0.289 0.617 0.535 0.902 0.871 c 1.102 1.293 1.789 2.922 1.895 5.168 c 0.074 1.52 -0.266 2.82 -0.75 3.91 c -0.445 1 -1.09 1.898 -1.871 2.559 c -0.039 0.035 -0.125 0.066 -0.113 0.137 c 1.207 0.242 3.492 0.574 4.059 -0.457 c 0.223 -0.402 0.082 -1.016 -0.047 -1.508 c -0.012 -0.043 -0.02 -0.082 -0.031 -0.125 c -0.016 -0.074 -0.02 -0.172 -0.02 -0.266 c 0.008 -0.031 0.02 -0.102 0.055 -0.191 c 0.008 -0.012 0.012 -0.023 0.023 -0.039 c 0.047 -0.105 0.125 -0.23 0.238 -0.359 c 0.148 -0.145 0.148 -0.152 0.148 -0.188 c 0 -0.035 -0.191 -0.145 -0.191 -0.145 c -0.098 -0.074 -0.188 -0.141 -0.188 -0.285 c 0 -0.316 0.453 -0.336 0.496 -0.574 c 0.035 -0.18 -0.078 -0.34 -0.141 -0.496 c -0.043 -0.109 -0.098 -0.246 -0.129 -0.391 c -0.035 -0.199 -0.027 -0.508 0.289 -0.68 c 0.164 -0.078 0.375 -0.141 0.527 -0.195 c 0.137 -0.051 0.281 -0.098 0.434 -0.148 c 0.133 -0.047 0.336 -0.105 0.383 -0.211 c 0.07 -0.176 -0.074 -0.422 -0.18 -0.574"
           fill="#445277"
           stroke="none"
           fill-rule="evenodd"
           fill-opacity="1"
           id="path63" />
        <path
           d="m 23.629 20.246 c 0 0.004 0 0.008 0 0.008 c 0 0.012 0 0.023 0.004 0.035 c 0.77 0.391 1.418 0.902 1.973 1.551 c 0.547 0.641 1.012 1.461 1.012 2.605 c 0 1.16 -0.469 1.965 -1.012 2.621 c -0.48 0.582 -1.055 1.039 -1.75 1.406 c -0.027 0.016 -0.059 0.031 -0.094 0.051 c -0.063 0.078 -0.094 0.176 -0.02 0.281 c 0.043 0.008 0.094 -0.012 0.152 -0.031 c 0.773 -0.25 1.504 -0.605 2.117 -1.012 c 1.066 -0.699 2.063 -1.551 2.711 -2.668 c 0.211 -0.367 0.375 -0.816 0.527 -1.27 c 0.313 -0.922 0.41 -2.051 0.125 -3.105 c -0.246 -0.914 -0.699 -1.703 -1.195 -2.406 c -1.473 -2.078 -4.086 -3.141 -7.281 -3.395 l 0 0.008 c 0.148 0.16 0.297 0.336 0.449 0.527 c 0.461 0.555 0.871 1.156 1.215 1.824 c 0.227 0.438 0.441 0.902 0.617 1.398 c 0.152 0.414 0.285 0.848 0.391 1.309 c 0 0 0.039 0.102 0.059 0.262"
           fill="#8595b9"
           stroke="none"
           fill-rule="evenodd"
           fill-opacity="1"
           id="path65" />
        <path
           d="m 35.43 20.598 c -0.684 -1.898 -1.828 -3.34 -3.117 -4.578 c -1.961 -1.875 -4.43 -3.215 -7.73 -3.746 c -1.059 -0.172 -2.379 -0.316 -3.59 -0.262 c -1.137 0.055 -2.066 0.188 -3.02 0.422 c -0.906 0.219 -1.934 0.406 -2.426 1.035 c -0.242 0.309 -0.32 0.871 -0.414 1.32 c -0.301 1.449 -0.582 2.789 -0.875 4.207 c -1.324 0.527 -2.258 1.84 -2.258 3.379 c 0 0.004 0 0.008 0 0.012 c 0 0.184 0.012 0.371 0.043 0.566 c 0.129 0.855 0.508 1.551 1.023 2.035 c 0.512 0.484 1.184 0.883 2.055 0.984 c 0.078 0.012 0.156 0.016 0.23 0.02 c 0.008 0 0.016 0 0.023 0 c 0.051 0.004 0.098 0.004 0.148 0.004 c 0.004 0 0.012 0.004 0.016 0.004 c 0.02 0 0.039 -0.004 0.055 -0.004 c 0.031 0 0.059 0 0.09 0 c 0.047 -0.004 0.094 -0.008 0.145 -0.012 c 0 0 0.004 0 0.004 0 c 1.82 -0.152 3.25 -1.711 3.25 -3.609 c 0 -1.32 -0.688 -2.473 -1.719 -3.109 l 0 -6.266 c 1.957 -0.5 4.402 -0.578 6.512 -0.199 c 2.105 0.383 3.801 1.145 5.32 2.121 c 1.516 0.977 2.688 2.242 3.699 3.762 c 0.508 0.762 0.91 1.59 1.156 2.59 c 0.246 1.012 0.355 2.176 0.27 3.441 c -0.078 1.141 -0.305 2.184 -0.719 3.02 c -0.422 0.852 -0.852 1.629 -1.398 2.344 c -1.094 1.422 -2.527 2.508 -4.141 3.328 c -1.699 0.863 -3.434 1.492 -5.723 1.715 c -2.25 0.219 -4.473 -0.113 -6.195 -0.641 c -0.113 -0.035 -0.27 -0.113 -0.363 -0.113 c -0.133 0.004 -0.402 0.227 -0.512 0.297 c -0.047 0.027 -0.133 0.074 -0.109 0.098 c 1.934 0.648 3.93 1.234 6.402 1.234 c 2.539 0 4.457 -0.438 6.246 -1.16 c 3.539 -1.43 6.426 -3.832 7.68 -7.621 c 0.336 -1.016 0.512 -2.125 0.512 -3.344 c 0 -1.227 -0.227 -2.313 -0.57 -3.277"
           fill="#445277"
           stroke="none"
           fill-rule="evenodd"
           fill-opacity="1"
           id="path67" />
        <path
           d="m 17 23 c 0 1.105 -0.895 2 -2 2 c -1.105 0 -2 -0.895 -2 -2 c 0 -1.105 0.895 -2 2 -2 c 1.105 0 2 0.895 2 2"
           fill="#4cba36"
           stroke="none"
           fill-rule="evenodd"
           fill-opacity="1"
           id="path69" />
      </g>
    </g>
  </g>
</svg>
