<?xml version="1.0" encoding="UTF-8" standalone="no"?>
<svg
   xmlns:dc="http://purl.org/dc/elements/1.1/"
   xmlns:cc="http://creativecommons.org/ns#"
   xmlns:rdf="http://www.w3.org/1999/02/22-rdf-syntax-ns#"
   xmlns:svg="http://www.w3.org/2000/svg"
   xmlns="http://www.w3.org/2000/svg"
   xmlns:xlink="http://www.w3.org/1999/xlink"
   xmlns:sodipodi="http://sodipodi.sourceforge.net/DTD/sodipodi-0.dtd"
   xmlns:inkscape="http://www.inkscape.org/namespaces/inkscape"
   viewBox="0 0 48 48"
   id="svg2"
   version="1.1"
   inkscape:version="0.48.5 r10040"
   width="100%"
   height="100%"
   sodipodi:docname="tupi.svg">
  <metadata
     id="metadata65">
    <rdf:RDF>
      <cc:Work
         rdf:about="">
        <dc:format>image/svg+xml</dc:format>
        <dc:type
           rdf:resource="http://purl.org/dc/dcmitype/StillImage" />
      </cc:Work>
    </rdf:RDF>
  </metadata>
  <sodipodi:namedview
     pagecolor="#ffffff"
     bordercolor="#666666"
     borderopacity="1"
     objecttolerance="10"
     gridtolerance="10"
     guidetolerance="10"
     inkscape:pageopacity="0"
     inkscape:pageshadow="2"
     inkscape:window-width="1301"
     inkscape:window-height="744"
     id="namedview63"
     showgrid="true"
     inkscape:zoom="6.3958333"
     inkscape:cx="26.649621"
     inkscape:cy="12.127179"
     inkscape:window-x="65"
     inkscape:window-y="24"
     inkscape:window-maximized="1"
     inkscape:current-layer="svg2">
    <inkscape:grid
       type="xygrid"
       id="grid3063" />
  </sodipodi:namedview>
  <defs
     id="defs4">
    <linearGradient
       id="linearGradient3764"
       x1="1"
       x2="47"
       gradientUnits="userSpaceOnUse"
       gradientTransform="matrix(0,-1,1,0,-1.5e-6,47.999998)">
      <stop
         stop-color="#c8cdd4"
         stop-opacity="1"
         id="stop7" />
      <stop
         offset="1"
         stop-color="#d3d7dc"
         stop-opacity="1"
         id="stop9"
         style="stop-color:#efefef;stop-opacity:1;" />
    </linearGradient>
    <clipPath
       id="clipPath-499420196">
      <g
         transform="translate(0,-1004.3622)"
         id="g12">
        <path
           d="m -24 13 c 0 1.105 -0.672 2 -1.5 2 -0.828 0 -1.5 -0.895 -1.5 -2 0 -1.105 0.672 -2 1.5 -2 0.828 0 1.5 0.895 1.5 2 z"
           transform="matrix(15.333333,0,0,11.5,414.99999,878.8622)"
           fill="#1890d0"
           id="path14" />
      </g>
    </clipPath>
    <clipPath
       id="clipPath-505100628">
      <g
         transform="translate(0,-1004.3622)"
         id="g17">
        <path
           d="m -24 13 c 0 1.105 -0.672 2 -1.5 2 -0.828 0 -1.5 -0.895 -1.5 -2 0 -1.105 0.672 -2 1.5 -2 0.828 0 1.5 0.895 1.5 2 z"
           transform="matrix(15.333333,0,0,11.5,414.99999,878.8622)"
           fill="#1890d0"
           id="path19" />
      </g>
    </clipPath>
    <linearGradient
       y2="1028.3622"
       x2="44"
       y1="1028.3622"
       x1="4"
       gradientTransform="translate(1.4039917e-7,-1004.3623)"
       gradientUnits="userSpaceOnUse"
       id="linearGradient3007"
       xlink:href="#linearGradient3764"
       inkscape:collect="always" />
  </defs>
  <rect
     style="fill:url(#linearGradient3007);fill-opacity:1.0;stroke:none"
     id="rect3758"
     width="40"
     height="40"
     x="4"
     y="4"
     ry="0" />
  <path
     style="opacity:0.35;fill:#000000;fill-opacity:1;stroke:none"
     d="m 4.0000016,43.999717 39.9999964,3e-4 c -19.999997,-1 -19.999997,-1 -39.9999978,0 z"
     id="path3800"
     inkscape:connector-curvature="0"
     sodipodi:nodetypes="cccc" />
  <path
     sodipodi:nodetypes="cccc"
     inkscape:connector-curvature="0"
     id="path3804"
     d="m 4.0000051,3.9999173 39.9999959,-2e-4 c -19.999996,1 -19.999996,1 -39.9999973,0 z"
     style="opacity:0.75;fill:#ffffff;fill-opacity:1;stroke:none" />
  <g
     id="g33" />
  <g
     id="g35">
    <g
       clip-path="url(#clipPath-499420196)"
       id="g37">
      <g
         transform="translate(1,1)"
         id="g39">
        <g
           opacity="0.1"
           id="g41">
          <!-- color: #d3d7dc -->
          <g
             id="g43">
            <path
               d="m 9.803 3.153 c -0.535 -0.398 -3.888 3.202 -4.04 3.13 c -0.25 -0.147 0.412 -2.681 0.145 -2.804 c -0.505 -0.245 -2.832 4.442 -3.441 6.123 l 0.484 0.423 c 0.822 -2.03 5.07 0.399 5.28 0.135 c 0.124 -0.208 -2.357 -1.767 -2.247 -1.994 c 0.175 -0.355 4.319 1.28 4.467 1.031 c 0.116 -0.202 -1.897 -1.711 -1.874 -1.92 c 0.098 -0.233 2.948 -1.325 2.884 -1.608 c -0.353 -0.859 -4.867 1.41 -5.076 1.151 c -0.121 -0.225 3.776 -3.373 3.414 -3.667 m 0.004 0"
               transform="matrix(3.233046,0,0,3.269549,2.47496,2.248699)"
               stroke-opacity="1"
               fill="#000"
               fill-rule="nonzero"
               stroke="#283d70"
               stroke-linejoin="miter"
               fill-opacity="1"
               stroke-linecap="butt"
               stroke-width="0.282"
               stroke-miterlimit="4"
               id="path45" />
            <path
               d="m 19.438 24.813 c -6.687 3.179 -9.877 9.906 -9.877 9.906 c 1.995 -3.264 3.677 -6.511 9.877 -9.906 m 0 0"
               transform="matrix(0.912437,0,0,0.922739,2.47496,2.248699)"
               stroke-opacity="1"
               fill="#000"
               fill-rule="nonzero"
               stroke="#283d70"
               stroke-linejoin="miter"
               fill-opacity="1"
               stroke-linecap="butt"
               stroke-width="1"
               stroke-miterlimit="4"
               id="path47" />
          </g>
        </g>
      </g>
    </g>
  </g>
  <g
     id="g49">
    <g
       clip-path="url(#clipPath-505100628)"
       id="g51">
      <!-- color: #d3d7dc -->
      <g
         id="g53">
        <path
           d="m 9.803 3.153 c -0.535 -0.398 -3.888 3.202 -4.04 3.13 c -0.25 -0.147 0.412 -2.681 0.145 -2.804 c -0.505 -0.245 -2.832 4.442 -3.441 6.123 l 0.484 0.423 c 0.822 -2.03 5.07 0.399 5.28 0.135 c 0.124 -0.208 -2.357 -1.767 -2.247 -1.994 c 0.175 -0.355 4.319 1.28 4.467 1.031 c 0.116 -0.202 -1.897 -1.711 -1.874 -1.92 c 0.098 -0.233 2.948 -1.325 2.884 -1.608 c -0.353 -0.859 -4.867 1.41 -5.076 1.151 c -0.121 -0.225 3.776 -3.373 3.414 -3.667 m 0.004 0"
           transform="matrix(3.233046,0,0,3.269549,2.47496,2.248699)"
           stroke-opacity="1"
           fill="#209cff"
           fill-rule="nonzero"
           stroke="#283d70"
           stroke-linejoin="miter"
           fill-opacity="1"
           stroke-linecap="butt"
           stroke-width="0.282"
           stroke-miterlimit="4"
           id="path55" />
        <path
           d="m 19.438 24.813 c -6.687 3.179 -9.877 9.906 -9.877 9.906 c 1.995 -3.264 3.677 -6.511 9.877 -9.906 m 0 0"
           transform="matrix(0.912437,0,0,0.922739,2.47496,2.248699)"
           stroke-opacity="1"
           fill="#209cff"
           fill-rule="nonzero"
           stroke="#283d70"
           stroke-linejoin="miter"
           fill-opacity="1"
           stroke-linecap="butt"
           stroke-width="1"
           stroke-miterlimit="4"
           id="path57" />
      </g>
    </g>
  </g>
</svg>
