<?xml version="1.0" encoding="UTF-8" standalone="no"?>
<!-- Created with Inkscape (http://www.inkscape.org/) -->

<svg
   xmlns:dc="http://purl.org/dc/elements/1.1/"
   xmlns:cc="http://creativecommons.org/ns#"
   xmlns:rdf="http://www.w3.org/1999/02/22-rdf-syntax-ns#"
   xmlns:svg="http://www.w3.org/2000/svg"
   xmlns="http://www.w3.org/2000/svg"
   xmlns:xlink="http://www.w3.org/1999/xlink"
   xmlns:sodipodi="http://sodipodi.sourceforge.net/DTD/sodipodi-0.dtd"
   xmlns:inkscape="http://www.inkscape.org/namespaces/inkscape"
   width="48"
   height="48"
   id="svg2"
   version="1.1"
   inkscape:version="0.48.5 r10040"
   sodipodi:docname="turpial.svg">
  <defs
     id="defs4">
    <linearGradient
       id="linearGradient4052">
      <stop
         style="stop-color:#ffe7b9;stop-opacity:1"
         offset="0"
         id="stop4054" />
      <stop
         style="stop-color:#fffcf5;stop-opacity:1"
         offset="1"
         id="stop4056" />
    </linearGradient>
    <linearGradient
       id="linearGradient839">
      <stop
         id="stop841"
         offset="0"
         style="stop-color:#ffa700;stop-opacity:1" />
      <stop
         id="stop843"
         offset="1"
         style="stop-color:#ffce58;stop-opacity:1" />
    </linearGradient>
    <linearGradient
       inkscape:collect="always"
       xlink:href="#linearGradient839"
       id="linearGradient837"
       x1="73.72438"
       y1="-1049.6484"
       x2="73.72438"
       y2="-1001.6555"
       gradientUnits="userSpaceOnUse"
       gradientTransform="translate(-52.117671,-2.7051588)" />
    <linearGradient
       inkscape:collect="always"
       xlink:href="#linearGradient839"
       id="linearGradient4050"
       x1="32.920113"
       y1="1043.7968"
       x2="32.920113"
       y2="1012.9406"
       gradientUnits="userSpaceOnUse"
       gradientTransform="matrix(1.0865979,0,0,1.0865979,-2.0783496,-89.071328)" />
  </defs>
  <sodipodi:namedview
     id="base"
     pagecolor="#ffffff"
     bordercolor="#666666"
     borderopacity="1.0"
     inkscape:pageopacity="0.0"
     inkscape:pageshadow="2"
     inkscape:zoom="3.4259764"
     inkscape:cx="47.698984"
     inkscape:cy="31.327016"
     inkscape:document-units="px"
     inkscape:current-layer="layer1"
     showgrid="true"
     inkscape:window-width="1301"
     inkscape:window-height="744"
     inkscape:window-x="65"
     inkscape:window-y="24"
     inkscape:window-maximized="1">
    <inkscape:grid
       type="xygrid"
       id="grid3768" />
  </sodipodi:namedview>
  <metadata
     id="metadata7">
    <rdf:RDF>
      <cc:Work
         rdf:about="">
        <dc:format>image/svg+xml</dc:format>
        <dc:type
           rdf:resource="http://purl.org/dc/dcmitype/StillImage" />
        <dc:title />
      </cc:Work>
    </rdf:RDF>
  </metadata>
  <g
     inkscape:label="Capa 1"
     inkscape:groupmode="layer"
     id="layer1"
     transform="translate(0,-1004.3622)">
    <path
       inkscape:connector-curvature="0"
       id="path4068"
       d="m 29.53677,1012.0472 c -10.673205,0.1496 -18.309584,12.854 -24.5806131,20.6002 2.1937921,1.2096 6.1684611,2.5277 10.6396501,2.5277 2.923451,0 6.052992,-0.5609 9.073887,-2.056 3.68668,-1.8243 5.528002,-5.1665 5.527337,-8.1874 -7.28e-4,-1.7328 -0.598909,-3.3606 -1.79214,-4.5463 -1.194592,-1.1837 -2.991389,-1.9619 -5.489607,-1.9619 -0.832741,0 -1.750665,0.093 -2.735371,0.2829 l -0.169782,-0.8676 c 1.034452,-0.1997 2.010401,-0.3019 2.905153,-0.3019 2.68085,0 4.735599,0.8576 6.11214,2.2259 1.377226,1.3678 2.05691,3.2337 2.056246,5.1689 -7.29e-4,3.376 -2.044245,7.013 -6.017817,8.9797 -3.16264,1.5653 -6.43552,2.1506 -9.470046,2.1506 -4.686377,0 -8.7975069,-1.3645 -11.130131,-2.6599 l 0.2829694,-0.5094 c -0.3652959,0.4468 -0.7377554,0.8936 -1.0941485,1.3018 4.0451263,2.53 7.9816671,4.1976 11.6772061,5.1121 1.595752,0.3949 3.14224,0.648 4.640699,0.7734 l 0.980961,5.4331 0.867772,-0.1509 -0.943232,-5.2254 c 0.762365,0.038 1.51339,0.029 2.244892,0 l 0.98096,5.3763 0.867775,-0.1509 -0.943233,-5.2633 c 9.694749,-0.7625 16.361135,-7.4019 16.732928,-16.6386 0.0477,-1.1809 -0.009,-2.4024 -0.16978,-3.6597 l 3.754058,-1.943 -4.131351,-0.2642 3.527684,-2.8485 -4.772751,0.3396 c -3.395049,-2.1826 -6.522368,-3.0781 -9.432315,-3.0373 z m 3.489955,3.9427 c 0.272585,0 0.516541,0.077 0.773451,0.2075 0.25691,0.1311 0.52382,0.3238 0.792313,0.5472 0.53631,0.447 1.101294,1.0668 1.660089,1.811 l -0.697991,0.5282 c -0.784356,-1.0502 -1.610173,-1.8229 -2.150569,-2.094 -0.177181,-0.091 -0.312554,-0.1145 -0.377293,-0.1145 l -0.05659,0 -0.03772,0.038 c -0.04088,0.055 -0.11523,0.251 -0.113176,0.5659 -0.0014,0.4729 0.124498,1.2085 0.433886,2.2261 l -0.830045,0.264 c -0.323009,-1.0678 -0.489151,-1.8713 -0.490479,-2.4901 7.3e-4,-0.3093 0.04006,-0.5754 0.132054,-0.8111 0.08928,-0.2339 0.263553,-0.4489 0.490479,-0.5659 0.1499,-0.079 0.313499,-0.1123 0.471595,-0.1123 z m -7.715632,3.6409 -0.226376,1.9808 c -5.736063,2.1072 -9.530106,7.0653 -10.828298,11.4319 l -1.961921,0.3396 0.264104,-0.8489 c 1.444109,-4.8575 5.42392,-10.2023 11.903582,-12.5826 l 0.848909,-0.3208 z"
       style="fill:#000000;fill-opacity:0.23529412;fill-rule:nonzero;stroke:none" />
    <path
       style="fill:url(#linearGradient4050);fill-opacity:1;fill-rule:nonzero;stroke:none"
       d="m 29.53677,1011.6126 c -10.673205,0.1496 -18.309584,12.854 -24.5806131,20.6001 2.1937921,1.2096 6.1684611,2.5278 10.6396501,2.5278 2.923451,0 6.052992,-0.5609 9.073887,-2.0561 3.68668,-1.8243 5.528002,-5.1664 5.527337,-8.1874 -7.28e-4,-1.7328 -0.598909,-3.3605 -1.79214,-4.5462 -1.194592,-1.1837 -2.991389,-1.962 -5.489607,-1.962 -0.832741,0 -1.750665,0.094 -2.735371,0.283 l -0.169782,-0.8677 c 1.034452,-0.1997 2.010401,-0.3018 2.905153,-0.3018 2.68085,0 4.735599,0.8575 6.11214,2.2259 1.377226,1.3678 2.05691,3.2337 2.056246,5.1688 -7.29e-4,3.3761 -2.044245,7.013 -6.017817,8.9798 -3.16264,1.5652 -6.43552,2.1506 -9.470046,2.1506 -4.686377,0 -8.7975069,-1.3646 -11.130131,-2.6599 l 0.2829694,-0.5094 c -0.3652959,0.4468 -0.7377554,0.8936 -1.0941485,1.3017 4.0451263,2.5301 7.9816671,4.1977 11.6772061,5.1122 1.595752,0.3948 3.14224,0.648 4.640699,0.7734 l 0.980961,5.4331 0.867772,-0.1509 -0.943232,-5.2255 c 0.762365,0.038 1.51339,0.029 2.244892,0 l 0.98096,5.3764 0.867775,-0.1509 -0.943233,-5.2633 c 9.694749,-0.7626 16.361135,-7.4019 16.732928,-16.6386 0.0477,-1.181 -0.009,-2.4024 -0.16978,-3.6597 l 3.754058,-1.9431 -4.131351,-0.2641 3.527684,-2.8485 -4.772751,0.3395 c -3.395049,-2.1825 -6.522368,-3.0781 -9.432315,-3.0372 z m 3.489955,3.9427 c 0.272585,0 0.516541,0.077 0.773451,0.2074 0.25691,0.1312 0.52382,0.3238 0.792313,0.5472 0.53631,0.4471 1.101294,1.0669 1.660089,1.8111 l -0.697991,0.5282 c -0.784356,-1.0502 -1.610173,-1.8229 -2.150569,-2.094 -0.177181,-0.091 -0.312554,-0.1145 -0.377293,-0.1145 l -0.05659,0 -0.03772,0.038 c -0.04088,0.055 -0.11523,0.251 -0.113176,0.5659 -0.0014,0.4729 0.124498,1.2085 0.433886,2.2261 l -0.830045,0.2639 c -0.323009,-1.0678 -0.489151,-1.8712 -0.490479,-2.49 7.3e-4,-0.3094 0.04006,-0.5755 0.132054,-0.8112 0.08928,-0.2338 0.263553,-0.4488 0.490479,-0.5659 0.1499,-0.079 0.313499,-0.1122 0.471595,-0.1122 z m -7.715632,3.6409 -0.226376,1.9807 c -5.736063,2.1073 -9.530106,7.0654 -10.828298,11.432 l -1.961921,0.3396 0.264104,-0.849 c 1.444109,-4.8574 5.42392,-10.2023 11.903582,-12.5826 l 0.848909,-0.3207 z"
       id="path5988"
       inkscape:connector-curvature="0" />
    <path
       style="fill:#ffa802;fill-opacity:0.31372549;fill-rule:nonzero;stroke:none"
       d="m 43.741277,1014.3104 -1.179978,0.085 -2.347221,1.8951 0.995341,0.064 2.531858,-2.0437 z m -10.715298,0.3756 c -0.158096,0 -0.321243,0.033 -0.471143,0.1125 -0.226926,0.117 -0.400967,0.3328 -0.490242,0.5666 -0.09199,0.2357 -0.13085,0.5014 -0.131581,0.8107 2.39e-4,0.1111 0.03376,0.2629 0.04457,0.3863 0.02125,-0.1152 0.04695,-0.2263 0.08701,-0.329 0.08928,-0.2338 0.263316,-0.4496 0.490242,-0.5666 0.1499,-0.079 0.313047,-0.1104 0.471143,-0.1104 0.272585,0 0.517714,0.076 0.774624,0.2059 0.25691,0.1311 0.523112,0.3241 0.791604,0.5475 0.395024,0.3293 0.805972,0.7781 1.218179,1.2755 l 0.44143,-0.3332 c -0.558795,-0.7442 -1.123299,-1.3632 -1.659609,-1.8103 -0.268492,-0.2234 -0.534694,-0.4164 -0.791604,-0.5475 -0.25691,-0.1303 -0.502039,-0.208 -0.774624,-0.208 z m -10.110455,1.5471 c -0.894752,0 -1.870924,0.1017 -2.905376,0.3014 l 0.165537,0.8447 c 0.971375,-0.1786 1.894326,-0.2759 2.739839,-0.2759 2.68085,0 4.735572,0.8557 6.112113,2.2241 1.246601,1.2381 1.916771,2.8861 2.033127,4.6223 0.0041,-0.1072 0.02332,-0.2159 0.02335,-0.3226 6.64e-4,-1.9351 -0.679246,-3.7999 -2.056472,-5.1677 -1.376541,-1.3684 -3.431263,-2.2263 -6.112113,-2.2263 z m 9.955529,0.4054 c -0.0281,0.098 -0.0521,0.226 -0.05093,0.4053 -9.81e-4,0.3284 0.08862,0.8338 0.229204,1.422 l 0.203737,-0.064 c -0.230593,-0.7584 -0.332009,-1.3105 -0.382007,-1.7636 z m 9.980996,0.6897 -2.260209,1.1694 c 0.03592,0.2809 0.04663,0.5525 0.07216,0.8298 l 3.682123,-1.9037 -1.494072,-0.096 z m -17.540492,0.9996 -0.848904,0.3205 c -6.479663,2.3803 -10.459656,7.7254 -11.903765,12.5829 l -0.265283,0.8489 0.290751,-0.051 c 1.461295,-4.8388 5.429544,-10.1439 11.878297,-12.5128 l 0.744914,-0.2802 0.10399,-0.9083 z m 15.447942,3.8646 c -0.387937,9.2177 -7.049994,15.8409 -16.731909,16.6025 l 0.152803,0.851 c 9.610388,-0.821 16.21143,-7.4322 16.581228,-16.6194 0.01104,-0.2733 -0.002,-0.5565 -0.0021,-0.8341 z m -10.58584,1.7488 c -0.121234,2.9366 -1.942631,6.1118 -5.503024,7.8736 -3.020896,1.4951 -6.15134,2.0565 -9.074791,2.0565 -4.16996,0 -7.8885487,-1.1458 -10.1528988,-2.2815 -0.1593046,0.2006 -0.3284434,0.4293 -0.4859978,0.624 2.1937921,1.2096 6.1677076,2.5276 10.6388966,2.5276 2.923451,0 6.053895,-0.5613 9.074791,-2.0565 3.68668,-1.8243 5.527034,-5.1667 5.526369,-8.1877 -7.9e-5,-0.1866 -0.0094,-0.3722 -0.02334,-0.556 z m -26.0337824,9.2403 c -0.1626448,0.1932 -0.3276584,0.3981 -0.4859979,0.5794 4.0451264,2.53 7.9832663,4.1959 11.6788053,5.1104 1.595751,0.3949 3.140805,0.6492 4.639264,0.7746 l 0.980484,5.433 0.868006,-0.1507 -0.152803,-0.8446 -0.715203,0.1252 -0.980484,-5.433 c -1.498459,-0.1254 -3.043513,-0.3776 -4.639264,-0.7725 -3.547306,-0.8778 -7.3185026,-2.4595 -11.1928074,-4.8218 z m 16.7382764,5.6516 0.157047,0.8722 c 0.708037,0.029 1.407493,0.023 2.088306,-0 l 0.980485,5.3778 0.868005,-0.1507 -0.150681,-0.8446 -0.717324,0.1252 -0.980485,-5.3757 c -0.731502,0.029 -1.482988,0.038 -2.245353,0 z"
       id="path4058"
       inkscape:connector-curvature="0" />
  </g>
</svg>
