<?xml version="1.0" encoding="UTF-8" standalone="no"?>
<!-- Created with Inkscape (http://www.inkscape.org/) -->

<svg
   xmlns:dc="http://purl.org/dc/elements/1.1/"
   xmlns:cc="http://creativecommons.org/ns#"
   xmlns:rdf="http://www.w3.org/1999/02/22-rdf-syntax-ns#"
   xmlns:svg="http://www.w3.org/2000/svg"
   xmlns="http://www.w3.org/2000/svg"
   xmlns:xlink="http://www.w3.org/1999/xlink"
   xmlns:sodipodi="http://sodipodi.sourceforge.net/DTD/sodipodi-0.dtd"
   xmlns:inkscape="http://www.inkscape.org/namespaces/inkscape"
   width="48"
   height="48"
   id="svg5453"
   version="1.1"
   inkscape:version="0.48.5 r10040"
   sodipodi:docname="ubuntuone-music.svg">
  <defs
     id="defs5455">
    <linearGradient
       id="linearGradient4078">
      <stop
         style="stop-color:#f9cebf;stop-opacity:1"
         offset="0"
         id="stop4080" />
      <stop
         style="stop-color:#fef8f6;stop-opacity:1"
         offset="1"
         id="stop4082" />
    </linearGradient>
    <linearGradient
       id="linearGradient3795">
      <stop
         id="stop3797"
         offset="0"
         style="stop-color:#dd4814;stop-opacity:1" />
      <stop
         id="stop3799"
         offset="1"
         style="stop-color:#ed632b;stop-opacity:1" />
    </linearGradient>
    <linearGradient
       gradientUnits="userSpaceOnUse"
       y2="1004.3171"
       x2="23.204165"
       y1="1052.2961"
       x1="23.204165"
       id="linearGradient3801"
       xlink:href="#linearGradient3795"
       inkscape:collect="always"
       gradientTransform="translate(384.57143,-504.56419)" />
    <linearGradient
       inkscape:collect="always"
       xlink:href="#linearGradient3795"
       id="linearGradient1433"
       x1="392.98703"
       y1="522.75903"
       x2="425.19482"
       y2="522.75903"
       gradientUnits="userSpaceOnUse"
       gradientTransform="matrix(0.96250008,0,0,0.96250008,15.321391,19.642386)" />
  </defs>
  <sodipodi:namedview
     id="base"
     pagecolor="#ffffff"
     bordercolor="#666666"
     borderopacity="1.0"
     inkscape:pageopacity="0"
     inkscape:pageshadow="2"
     inkscape:zoom="6.2313786"
     inkscape:cx="22.74768"
     inkscape:cy="21.140944"
     inkscape:document-units="px"
     inkscape:current-layer="layer1"
     showgrid="true"
     fit-margin-top="0"
     fit-margin-left="0"
     fit-margin-right="0"
     fit-margin-bottom="0"
     inkscape:window-width="1301"
     inkscape:window-height="744"
     inkscape:window-x="65"
     inkscape:window-y="24"
     inkscape:window-maximized="1"
     showguides="false">
    <inkscape:grid
       type="xygrid"
       id="grid3768" />
  </sodipodi:namedview>
  <metadata
     id="metadata5458">
    <rdf:RDF>
      <cc:Work
         rdf:about="">
        <dc:format>image/svg+xml</dc:format>
        <dc:type
           rdf:resource="http://purl.org/dc/dcmitype/StillImage" />
        <dc:title />
      </cc:Work>
    </rdf:RDF>
  </metadata>
  <g
     inkscape:label="Capa 1"
     inkscape:groupmode="layer"
     id="layer1"
     transform="translate(-384.57143,-499.798)">
    <path
       style="fill:#000000;fill-opacity:0.23529412;stroke:none"
       d="m 400.08572,508.798 0,3.92857 23.83333,0 0,-3.92857 L 400.08572,508.798 z m 0,6.70478 0,3.92856 0,9.95238 c -0.51245,-0.16735 -1.05545,-0.26191 -1.62384,-0.26191 -2.89291,0 -5.23807,2.34518 -5.23807,5.23809 0,2.89291 2.34516,5.2381 5.23807,5.2381 2.89294,0 5.23812,-2.34519 5.23812,-5.2381 l 0,-14.92856 16.60477,0 0,9.95238 c -0.51246,-0.16735 -1.05545,-0.26191 -1.6238,-0.26191 -2.89294,0 -5.23811,2.34518 -5.23811,5.23809 0,2.89291 2.34517,5.2381 5.23811,5.2381 2.89291,0 5.23808,-2.34519 5.23808,-5.2381 l 0,-14.92856 0,-3.92856 -3.61428,0 -16.60477,0 L 400.08572,515.50278 Z"
       id="path4049"
       inkscape:connector-curvature="0" />
    <path
       inkscape:connector-curvature="0"
       id="path1271"
       d="m 400.08572,508.398 0,3.92857 23.83333,0 0,-3.92857 L 400.08572,508.398 z m 0,6.70478 0,3.92856 0,9.95238 c -0.51245,-0.16735 -1.05545,-0.26191 -1.62384,-0.26191 -2.89291,0 -5.23807,2.34518 -5.23807,5.23809 0,2.89291 2.34516,5.2381 5.23807,5.2381 2.89294,0 5.23812,-2.34519 5.23812,-5.2381 l 0,-14.92856 16.60477,0 0,9.95238 c -0.51246,-0.16735 -1.05545,-0.26191 -1.6238,-0.26191 -2.89294,0 -5.23811,2.34518 -5.23811,5.23809 0,2.89291 2.34517,5.2381 5.23811,5.2381 2.89291,0 5.23808,-2.34519 5.23808,-5.2381 l 0,-14.92856 0,-3.92856 -3.61428,0 -16.60477,0 L 400.08572,515.10278 Z"
       style="fill:url(#linearGradient1433);fill-opacity:1;stroke:none" />
    <path
       style="fill:#bd3100;fill-opacity:1;stroke:none"
       d="m 400.0851,511.52613 0,0.80078 23.83399,0 0,-0.80078 L 400.0851,511.52613 z m 3.61524,6.70507 0,0.79883 16.60351,0 0,-0.79883 L 403.70034,518.2312 z m 0,14.92774 c 0,2.89291 -2.34534,5.23828 -5.23828,5.23828 -2.75815,0 -5.01415,-2.13212 -5.21875,-4.83789 -0.0101,0.13268 -0.0195,0.26513 -0.0195,0.40039 0,2.89291 2.34538,5.23828 5.23829,5.23828 2.89294,0 5.23828,-2.34537 5.23828,-5.23828 L 403.70034,533.15894 z m 20.21875,0 c 0,2.89291 -2.34538,5.23828 -5.23828,5.23828 -2.75817,0 -5.01415,-2.13212 -5.21875,-4.83789 -0.0101,0.13268 -0.0195,0.26513 -0.0195,0.40039 0,2.89291 2.34534,5.23828 5.23829,5.23828 2.8929,0 5.23828,-2.34537 5.23828,-5.23828 L 423.91909,533.15894 Z"
       id="path4057"
       inkscape:connector-curvature="0" />
  </g>
</svg>
