<?xml version="1.0" encoding="UTF-8" standalone="no"?>
<svg
   xmlns:dc="http://purl.org/dc/elements/1.1/"
   xmlns:cc="http://creativecommons.org/ns#"
   xmlns:rdf="http://www.w3.org/1999/02/22-rdf-syntax-ns#"
   xmlns:svg="http://www.w3.org/2000/svg"
   xmlns="http://www.w3.org/2000/svg"
   xmlns:xlink="http://www.w3.org/1999/xlink"
   xmlns:sodipodi="http://sodipodi.sourceforge.net/DTD/sodipodi-0.dtd"
   xmlns:inkscape="http://www.inkscape.org/namespaces/inkscape"
   viewBox="0 0 48 48"
   id="svg2"
   version="1.1"
   inkscape:version="0.48.5 r10040"
   width="100%"
   height="100%"
   sodipodi:docname="venom.svg">
  <metadata
     id="metadata65">
    <rdf:RDF>
      <cc:Work
         rdf:about="">
        <dc:format>image/svg+xml</dc:format>
        <dc:type
           rdf:resource="http://purl.org/dc/dcmitype/StillImage" />
      </cc:Work>
    </rdf:RDF>
  </metadata>
  <sodipodi:namedview
     pagecolor="#ffffff"
     bordercolor="#666666"
     borderopacity="1"
     objecttolerance="10"
     gridtolerance="10"
     guidetolerance="10"
     inkscape:pageopacity="0"
     inkscape:pageshadow="2"
     inkscape:window-width="1301"
     inkscape:window-height="744"
     id="namedview63"
     showgrid="true"
     inkscape:zoom="6.3958333"
     inkscape:cx="38.409628"
     inkscape:cy="23.001227"
     inkscape:window-x="65"
     inkscape:window-y="24"
     inkscape:window-maximized="1"
     inkscape:current-layer="svg2">
    <inkscape:grid
       type="xygrid"
       id="grid3063" />
  </sodipodi:namedview>
  <defs
     id="defs4">
    <linearGradient
       id="linearGradient3764"
       x1="1"
       x2="47"
       gradientUnits="userSpaceOnUse"
       gradientTransform="matrix(0,-1,1,0,-1.5e-6,47.999998)">
      <stop
         stop-color="#5ebd51"
         stop-opacity="1"
         id="stop7" />
      <stop
         offset="1"
         stop-color="#6bc260"
         stop-opacity="1"
         id="stop9"
         style="stop-color:#58e845;stop-opacity:1;" />
    </linearGradient>
    <clipPath
       id="clipPath-850650960">
      <g
         transform="translate(0,-1004.3622)"
         id="g12">
        <path
           d="m -24 13 c 0 1.105 -0.672 2 -1.5 2 -0.828 0 -1.5 -0.895 -1.5 -2 0 -1.105 0.672 -2 1.5 -2 0.828 0 1.5 0.895 1.5 2 z"
           transform="matrix(15.333333,0,0,11.5,414.99999,878.8622)"
           fill="#1890d0"
           id="path14" />
      </g>
    </clipPath>
    <clipPath
       id="clipPath-862430042">
      <g
         transform="translate(0,-1004.3622)"
         id="g17">
        <path
           d="m -24 13 c 0 1.105 -0.672 2 -1.5 2 -0.828 0 -1.5 -0.895 -1.5 -2 0 -1.105 0.672 -2 1.5 -2 0.828 0 1.5 0.895 1.5 2 z"
           transform="matrix(15.333333,0,0,11.5,414.99999,878.8622)"
           fill="#1890d0"
           id="path19" />
      </g>
    </clipPath>
    <linearGradient
       y2="1028.3622"
       x2="44"
       y1="1028.3622"
       x1="4"
       gradientTransform="translate(-2.0742493e-7,-1004.3622)"
       gradientUnits="userSpaceOnUse"
       id="linearGradient3007"
       xlink:href="#linearGradient3764"
       inkscape:collect="always" />
  </defs>
  <rect
     style="fill:url(#linearGradient3007);fill-opacity:1.0;stroke:none"
     id="rect3758"
     width="40"
     height="40"
     x="4"
     y="4"
     ry="0" />
  <path
     style="opacity:0.35;fill:#000000;fill-opacity:1;stroke:none"
     d="m 4.0000012,43.999718 39.9999958,3e-4 c -19.999997,-1 -19.999997,-1 -39.9999972,0 z"
     id="path3800"
     inkscape:connector-curvature="0"
     sodipodi:nodetypes="cccc" />
  <path
     sodipodi:nodetypes="cccc"
     inkscape:connector-curvature="0"
     id="path3804"
     d="M 4.0000047,3.999918 44,3.999718 c -19.999996,1 -19.999996,1 -39.9999967,0 z"
     style="opacity:0.75;fill:#ffffff;fill-opacity:1;stroke:none" />
  <g
     id="g33" />
  <g
     id="g35">
    <g
       clip-path="url(#clipPath-850650960)"
       id="g37">
      <g
         transform="translate(1,1)"
         id="g39">
        <g
           opacity="0.1"
           id="g41">
          <!-- color: #6bc260 -->
          <g
             id="g43">
            <path
               d="m 13.781 20 c -0.984 0 -1.785 0.688 -1.785 1.563 l 0 12.875 c 0 0.871 0.801 1.563 1.785 1.563 l 20.438 0 c 0.98 0 1.781 -0.691 1.781 -1.563 l 0 -12.875 c 0 -0.875 -0.801 -1.563 -1.781 -1.563 m -11.219 1.996 l 1.996 0 c 3 0 3 2.504 3 2.504 l 0 2.5 c 0 1 -2 2.5 -2 2.5 l 0 1.5 l 3 1 l 0 1.996 l -10 0 l 0 -1.996 l 3 -1 l 0 -1.5 c 0 0 -2 -1.496 -2 -2.5 l 0 -2.5 c 0 0 0 -2.504 3 -2.504 m -0.008 0"
               fill="#000"
               stroke="none"
               fill-rule="nonzero"
               fill-opacity="1"
               id="path45" />
            <path
               d="m -7.525 14.339 c 0 5.673 -5.05 10.271 -11.288 10.271 c -6.235 0 -11.288 -4.598 -11.288 -10.271 c 0 -5.673 5.05 -10.271 11.288 -10.271 c 6.235 0 11.288 4.598 11.288 10.271 m 0 0"
               transform="matrix(0.442943,0,0,0.486799,32.333334,9.019803)"
               stroke-opacity="1"
               fill="#000"
               stroke="#f9f9f9"
               stroke-linejoin="miter"
               stroke-linecap="butt"
               stroke-width="4.307"
               stroke-miterlimit="4"
               id="path47" />
          </g>
        </g>
      </g>
    </g>
  </g>
  <g
     id="g49">
    <g
       clip-path="url(#clipPath-862430042)"
       id="g51">
      <!-- color: #6bc260 -->
      <g
         id="g53">
        <path
           d="m 13.781 20 c -0.984 0 -1.785 0.688 -1.785 1.563 l 0 12.875 c 0 0.871 0.801 1.563 1.785 1.563 l 20.438 0 c 0.98 0 1.781 -0.691 1.781 -1.563 l 0 -12.875 c 0 -0.875 -0.801 -1.563 -1.781 -1.563 m -11.219 1.996 l 1.996 0 c 3 0 3 2.504 3 2.504 l 0 2.5 c 0 1 -2 2.5 -2 2.5 l 0 1.5 l 3 1 l 0 1.996 l -10 0 l 0 -1.996 l 3 -1 l 0 -1.5 c 0 0 -2 -1.496 -2 -2.5 l 0 -2.5 c 0 0 0 -2.504 3 -2.504 m -0.008 0"
           fill="#f9f9f9"
           stroke="none"
           fill-rule="nonzero"
           fill-opacity="1"
           id="path55" />
        <path
           d="m -7.525 14.339 c 0 5.673 -5.05 10.271 -11.288 10.271 c -6.235 0 -11.288 -4.598 -11.288 -10.271 c 0 -5.673 5.05 -10.271 11.288 -10.271 c 6.235 0 11.288 4.598 11.288 10.271 m 0 0"
           transform="matrix(0.442943,0,0,0.486799,32.333334,9.019803)"
           stroke-opacity="1"
           fill="none"
           stroke="#f9f9f9"
           stroke-linejoin="miter"
           stroke-linecap="butt"
           stroke-width="4.307"
           stroke-miterlimit="4"
           id="path57" />
      </g>
    </g>
  </g>
</svg>
