<?xml version="1.0" encoding="UTF-8" standalone="no"?>
<svg
   xmlns:dc="http://purl.org/dc/elements/1.1/"
   xmlns:cc="http://creativecommons.org/ns#"
   xmlns:rdf="http://www.w3.org/1999/02/22-rdf-syntax-ns#"
   xmlns:svg="http://www.w3.org/2000/svg"
   xmlns="http://www.w3.org/2000/svg"
   xmlns:xlink="http://www.w3.org/1999/xlink"
   xmlns:sodipodi="http://sodipodi.sourceforge.net/DTD/sodipodi-0.dtd"
   xmlns:inkscape="http://www.inkscape.org/namespaces/inkscape"
   viewBox="0 0 48 48"
   id="svg2"
   version="1.1"
   inkscape:version="0.48.5 r10040"
   width="100%"
   height="100%"
   sodipodi:docname="Veromix.svg">
  <metadata
     id="metadata81">
    <rdf:RDF>
      <cc:Work
         rdf:about="">
        <dc:format>image/svg+xml</dc:format>
        <dc:type
           rdf:resource="http://purl.org/dc/dcmitype/StillImage" />
      </cc:Work>
    </rdf:RDF>
  </metadata>
  <sodipodi:namedview
     pagecolor="#ffffff"
     bordercolor="#666666"
     borderopacity="1"
     objecttolerance="10"
     gridtolerance="10"
     guidetolerance="10"
     inkscape:pageopacity="0"
     inkscape:pageshadow="2"
     inkscape:window-width="1301"
     inkscape:window-height="744"
     id="namedview79"
     showgrid="true"
     showguides="false"
     inkscape:zoom="6.3958333"
     inkscape:cx="44.057492"
     inkscape:cy="13.948824"
     inkscape:window-x="65"
     inkscape:window-y="24"
     inkscape:window-maximized="1"
     inkscape:current-layer="svg2">
    <inkscape:grid
       type="xygrid"
       id="grid3079" />
  </sodipodi:namedview>
  <defs
     id="defs4">
    <linearGradient
       id="linearGradient3764"
       x1="1"
       x2="47"
       gradientUnits="userSpaceOnUse"
       gradientTransform="matrix(0,-1,1,0,-1.5e-6,47.999998)">
      <stop
         stop-color="#c3d9e5"
         stop-opacity="1"
         id="stop7"
         offset="0"
         style="stop-color:#73aecd;stop-opacity:1;" />
      <stop
         offset="1"
         stop-color="#d1e2eb"
         stop-opacity="1"
         id="stop9" />
    </linearGradient>
    <clipPath
       id="clipPath-598442766">
      <g
         transform="translate(0,-1004.3622)"
         id="g12">
        <path
           d="m -24 13 c 0 1.105 -0.672 2 -1.5 2 -0.828 0 -1.5 -0.895 -1.5 -2 0 -1.105 0.672 -2 1.5 -2 0.828 0 1.5 0.895 1.5 2 z"
           transform="matrix(15.333333,0,0,11.5,414.99999,878.8622)"
           fill="#1890d0"
           id="path14" />
      </g>
    </clipPath>
    <clipPath
       id="clipPath-610411058">
      <g
         transform="translate(0,-1004.3622)"
         id="g17">
        <path
           d="m -24 13 c 0 1.105 -0.672 2 -1.5 2 -0.828 0 -1.5 -0.895 -1.5 -2 0 -1.105 0.672 -2 1.5 -2 0.828 0 1.5 0.895 1.5 2 z"
           transform="matrix(15.333333,0,0,11.5,414.99999,878.8622)"
           fill="#1890d0"
           id="path19" />
      </g>
    </clipPath>
    <linearGradient
       y2="1028.3622"
       x2="44"
       y1="1028.3622"
       x1="4"
       gradientTransform="translate(-3.47e-6,-1004.3619)"
       gradientUnits="userSpaceOnUse"
       id="linearGradient3007"
       xlink:href="#linearGradient3764"
       inkscape:collect="always" />
  </defs>
  <rect
     style="fill:url(#linearGradient3007);fill-opacity:1.0;stroke:none"
     id="rect3758"
     width="40"
     height="40"
     x="3.9999967"
     y="4.0002823"
     ry="0" />
  <path
     style="opacity:0.35;fill:#000000;fill-opacity:1;stroke:none"
     d="m 3.9999979,44 39.9999971,3e-4 c -19.999997,-1 -19.999997,-1 -39.9999985,0 z"
     id="path3800"
     inkscape:connector-curvature="0"
     sodipodi:nodetypes="cccc" />
  <path
     sodipodi:nodetypes="cccc"
     inkscape:connector-curvature="0"
     id="path3804"
     d="M 4.0000014,4.0002 43.999998,4 C 24.000002,5 24.000002,5 4,4 z"
     style="opacity:0.75;fill:#ffffff;fill-opacity:1;stroke:none" />
  <g
     id="g33" />
  <g
     id="g35">
    <g
       clip-path="url(#clipPath-598442766)"
       id="g37">
      <g
         transform="translate(1,1)"
         id="g39">
        <g
           opacity="0.1"
           id="g41">
          <!-- color: #d1e2eb -->
          <g
             id="g43">
            <path
               d="m 9 17 l 30 0 l 0 2 l -30 0 m 0 -2"
               fill="#000"
               stroke="none"
               fill-rule="nonzero"
               fill-opacity="1"
               id="path45" />
            <path
               d="m 9 30 l 30 0 l 0 2 l -30 0 m 0 -2"
               fill="#000"
               stroke="none"
               fill-rule="nonzero"
               fill-opacity="1"
               id="path47" />
            <path
               d="m 31 13 l 2 0 c 0.551 0 1 0.449 1 1 l 0 8 c 0 0.551 -0.449 1 -1 1 l -2 0 c -0.551 0 -1 -0.449 -1 -1 l 0 -8 c 0 -0.551 0.449 -1 1 -1 m 0 0"
               fill="#000"
               stroke="none"
               fill-rule="nonzero"
               fill-opacity="1"
               id="path49" />
            <path
               d="m 20.996 26 l 2 0 c 0.551 0 1 0.449 1 1 l 0 8 c 0 0.551 -0.449 1 -1 1 l -2 0 c -0.551 0 -0.996 -0.449 -0.996 -1 l 0 -8 c 0 -0.551 0.445 -1 0.996 -1 m 0 0"
               fill="#000"
               stroke="none"
               fill-rule="nonzero"
               fill-opacity="1"
               id="path51" />
            <path
               d="m 21.418 27 l 1.164 0 c 0.23 0 0.418 0.246 0.418 0.551 l 0 6.902 c 0 0.301 -0.188 0.547 -0.418 0.547 l -1.164 0 c -0.23 0 -0.418 -0.246 -0.418 -0.547 l 0 -6.902 c 0 -0.305 0.188 -0.551 0.418 -0.551 m 0 0"
               fill="#000"
               stroke="none"
               fill-rule="nonzero"
               fill-opacity="1"
               id="path53" />
            <path
               d="m 31.418 14 l 1.164 0 c 0.23 0 0.418 0.246 0.418 0.547 l 0 6.906 c 0 0.301 -0.188 0.547 -0.418 0.547 l -1.164 0 c -0.23 0 -0.418 -0.246 -0.418 -0.547 l 0 -6.906 c 0 -0.301 0.188 -0.547 0.418 -0.547 m 0 0"
               fill="#000"
               stroke="none"
               fill-rule="nonzero"
               fill-opacity="1"
               id="path55" />
          </g>
        </g>
      </g>
    </g>
  </g>
  <g
     id="g57">
    <g
       clip-path="url(#clipPath-610411058)"
       id="g59">
      <!-- color: #d1e2eb -->
      <g
         id="g61">
        <path
           d="m 9 17 l 30 0 l 0 2 l -30 0 m 0 -2"
           fill="#2d2d2d"
           stroke="none"
           fill-rule="nonzero"
           fill-opacity="1"
           id="path63" />
        <path
           d="m 9 30 l 30 0 l 0 2 l -30 0 m 0 -2"
           fill="#2d2d2d"
           stroke="none"
           fill-rule="nonzero"
           fill-opacity="1"
           id="path65" />
        <path
           d="m 31 13 l 2 0 c 0.551 0 1 0.449 1 1 l 0 8 c 0 0.551 -0.449 1 -1 1 l -2 0 c -0.551 0 -1 -0.449 -1 -1 l 0 -8 c 0 -0.551 0.449 -1 1 -1 m 0 0"
           fill="#2d2d2d"
           stroke="none"
           fill-rule="nonzero"
           fill-opacity="1"
           id="path67" />
        <path
           d="m 20.996 26 l 2 0 c 0.551 0 1 0.449 1 1 l 0 8 c 0 0.551 -0.449 1 -1 1 l -2 0 c -0.551 0 -0.996 -0.449 -0.996 -1 l 0 -8 c 0 -0.551 0.445 -1 0.996 -1 m 0 0"
           fill="#2d2d2d"
           stroke="none"
           fill-rule="nonzero"
           fill-opacity="1"
           id="path69" />
        <path
           d="m 21.418 27 l 1.164 0 c 0.23 0 0.418 0.246 0.418 0.551 l 0 6.902 c 0 0.301 -0.188 0.547 -0.418 0.547 l -1.164 0 c -0.23 0 -0.418 -0.246 -0.418 -0.547 l 0 -6.902 c 0 -0.305 0.188 -0.551 0.418 -0.551 m 0 0"
           fill="#b9d6e5"
           stroke="none"
           fill-rule="nonzero"
           fill-opacity="1"
           id="path71" />
        <path
           d="m 31.418 14 l 1.164 0 c 0.23 0 0.418 0.246 0.418 0.547 l 0 6.906 c 0 0.301 -0.188 0.547 -0.418 0.547 l -1.164 0 c -0.23 0 -0.418 -0.246 -0.418 -0.547 l 0 -6.906 c 0 -0.301 0.188 -0.547 0.418 -0.547 m 0 0"
           fill="#b9d6e5"
           stroke="none"
           fill-rule="nonzero"
           fill-opacity="1"
           id="path73" />
      </g>
    </g>
  </g>
</svg>
