<?xml version="1.0" encoding="UTF-8" standalone="no"?>
<svg
   xmlns:dc="http://purl.org/dc/elements/1.1/"
   xmlns:cc="http://creativecommons.org/ns#"
   xmlns:rdf="http://www.w3.org/1999/02/22-rdf-syntax-ns#"
   xmlns:svg="http://www.w3.org/2000/svg"
   xmlns="http://www.w3.org/2000/svg"
   xmlns:xlink="http://www.w3.org/1999/xlink"
   xmlns:sodipodi="http://sodipodi.sourceforge.net/DTD/sodipodi-0.dtd"
   xmlns:inkscape="http://www.inkscape.org/namespaces/inkscape"
   viewBox="0 0 48 48"
   id="svg2"
   version="1.1"
   inkscape:version="0.48.5 r10040"
   width="100%"
   height="100%"
   sodipodi:docname="vineyard.svg">
  <metadata
     id="metadata69">
    <rdf:RDF>
      <cc:Work
         rdf:about="">
        <dc:format>image/svg+xml</dc:format>
        <dc:type
           rdf:resource="http://purl.org/dc/dcmitype/StillImage" />
      </cc:Work>
    </rdf:RDF>
  </metadata>
  <sodipodi:namedview
     pagecolor="#ffffff"
     bordercolor="#666666"
     borderopacity="1"
     objecttolerance="10"
     gridtolerance="10"
     guidetolerance="10"
     inkscape:pageopacity="0"
     inkscape:pageshadow="2"
     inkscape:window-width="1301"
     inkscape:window-height="744"
     id="namedview67"
     showgrid="true"
     inkscape:zoom="9.0450742"
     inkscape:cx="39.599072"
     inkscape:cy="12.664718"
     inkscape:window-x="65"
     inkscape:window-y="24"
     inkscape:window-maximized="1"
     inkscape:current-layer="svg2">
    <inkscape:grid
       type="xygrid"
       id="grid3067" />
  </sodipodi:namedview>
  <defs
     id="defs4">
    <linearGradient
       id="linearGradient3764"
       x1="1"
       x2="47"
       gradientUnits="userSpaceOnUse"
       gradientTransform="matrix(0,-1,1,0,-1.5e-6,47.999998)">
      <stop
         stop-color="#e4e4e4"
         stop-opacity="1"
         id="stop7" />
      <stop
         offset="1"
         stop-color="#eee"
         stop-opacity="1"
         id="stop9"
         style="stop-color:#ffffff;stop-opacity:1;" />
    </linearGradient>
    <clipPath
       id="clipPath-210608495">
      <g
         transform="translate(0,-1004.3622)"
         id="g12">
        <path
           d="m -24 13 c 0 1.105 -0.672 2 -1.5 2 -0.828 0 -1.5 -0.895 -1.5 -2 0 -1.105 0.672 -2 1.5 -2 0.828 0 1.5 0.895 1.5 2 z"
           transform="matrix(15.333333,0,0,11.5,414.99999,878.8622)"
           fill="#1890d0"
           id="path14" />
      </g>
    </clipPath>
    <clipPath
       id="clipPath-217889291">
      <g
         transform="translate(0,-1004.3622)"
         id="g17">
        <path
           d="m -24 13 c 0 1.105 -0.672 2 -1.5 2 -0.828 0 -1.5 -0.895 -1.5 -2 0 -1.105 0.672 -2 1.5 -2 0.828 0 1.5 0.895 1.5 2 z"
           transform="matrix(15.333333,0,0,11.5,414.99999,878.8622)"
           fill="#1890d0"
           id="path19" />
      </g>
    </clipPath>
    <linearGradient
       y2="1028.3622"
       x2="44"
       y1="1028.3622"
       x1="4"
       gradientTransform="translate(-3.33e-6,-1004.3619)"
       gradientUnits="userSpaceOnUse"
       id="linearGradient3007"
       xlink:href="#linearGradient3764"
       inkscape:collect="always" />
  </defs>
  <rect
     style="fill:url(#linearGradient3007);fill-opacity:1.0;stroke:none"
     id="rect3758"
     width="40"
     height="40"
     x="3.9999969"
     y="4.0002828"
     ry="0" />
  <path
     style="opacity:0.35;fill:#000000;fill-opacity:1;stroke:none"
     d="m 3.999998,44 39.999997,3e-4 c -19.999997,-1 -19.999997,-1 -39.999998,0 z"
     id="path3800"
     inkscape:connector-curvature="0"
     sodipodi:nodetypes="cccc" />
  <path
     sodipodi:nodetypes="cccc"
     inkscape:connector-curvature="0"
     id="path3804"
     d="M 4.000002,4.0002 43.999998,4 C 24.000002,5 24.000002,5 4,4 z"
     style="opacity:0.75;fill:#ffffff;fill-opacity:1;stroke:none" />
  <g
     id="g33" />
  <g
     id="g35">
    <g
       clip-path="url(#clipPath-210608495)"
       id="g37">
      <g
         transform="translate(1,1)"
         id="g39">
        <g
           opacity="0.1"
           id="g41">
          <!-- color: #eeeeee -->
          <g
             id="g43">
            <path
               d="m 32.395 12 c -0.961 0.016 -1.91 0.656 -2.063 1.844 c -0.242 1.902 1.578 1.188 3.03 1.188 c 1.453 0 1.941 3.09 1.574 4.754 c -0.363 1.66 -4.227 5.59 -12.969 1.66 c -7.195 -3.234 -10.789 1.074 -10.977 1.16 c 0.688 6.426 6.234 13.391 12.977 13.391 c 7.188 0 13.03 -7.68 13.03 -14.73 c 0 -0.809 -0.094 -1.609 -0.242 -2.375 c -0.133 -0.391 -0.266 -0.777 -0.363 -1.129 c -0.176 -0.633 -0.375 -1.168 -0.547 -1.664 c -0.008 -0.016 0.008 -0.043 0 -0.063 c -0.688 -1.5 -1.652 -2.852 -2.848 -3.98 c -0.004 -0.008 -0.027 0.012 -0.031 0 c -0.188 -0.043 -0.383 -0.063 -0.574 -0.059 m 0 0.004"
               fill="#000"
               stroke="none"
               fill-rule="nonzero"
               fill-opacity="1"
               id="path45" />
            <path
               d="m 30.395 16.516 c 0 0.395 -0.328 0.715 -0.727 0.715 c -0.402 0 -0.73 -0.32 -0.73 -0.715 c 0 -0.395 0.328 -0.711 0.73 -0.711 c 0.398 0 0.727 0.316 0.727 0.711 m 0 0"
               fill="#000"
               stroke="none"
               fill-rule="nonzero"
               fill-opacity="1"
               id="path47" />
            <path
               d="m 28.938 13.934 c 0 0.277 -0.23 0.504 -0.516 0.504 c -0.285 0 -0.516 -0.227 -0.516 -0.504 c 0 -0.281 0.23 -0.508 0.516 -0.508 c 0.285 0 0.516 0.227 0.516 0.508 m 0 0"
               fill="#000"
               stroke="none"
               fill-rule="nonzero"
               fill-opacity="1"
               id="path49" />
          </g>
        </g>
      </g>
    </g>
  </g>
  <g
     id="g51">
    <g
       clip-path="url(#clipPath-217889291)"
       id="g53">
      <!-- color: #eeeeee -->
      <g
         id="g55">
        <path
           d="m 32.395 12 c -0.961 0.016 -1.91 0.656 -2.063 1.844 c -0.242 1.902 1.578 1.188 3.03 1.188 c 1.453 0 1.941 3.09 1.574 4.754 c -0.363 1.66 -4.227 5.59 -12.969 1.66 c -7.195 -3.234 -10.789 1.074 -10.977 1.16 c 0.688 6.426 6.234 13.391 12.977 13.391 c 7.188 0 13.03 -7.68 13.03 -14.73 c 0 -0.809 -0.094 -1.609 -0.242 -2.375 c -0.133 -0.391 -0.266 -0.777 -0.363 -1.129 c -0.176 -0.633 -0.375 -1.168 -0.547 -1.664 c -0.008 -0.016 0.008 -0.043 0 -0.063 c -0.688 -1.5 -1.652 -2.852 -2.848 -3.98 c -0.004 -0.008 -0.027 0.012 -0.031 0 c -0.188 -0.043 -0.383 -0.063 -0.574 -0.059 m 0 0.004"
           fill="#494c86"
           stroke="none"
           fill-rule="nonzero"
           fill-opacity="1"
           id="path57" />
        <path
           d="m 30.395 16.516 c 0 0.395 -0.328 0.715 -0.727 0.715 c -0.402 0 -0.73 -0.32 -0.73 -0.715 c 0 -0.395 0.328 -0.711 0.73 -0.711 c 0.398 0 0.727 0.316 0.727 0.711 m 0 0"
           fill="#434a8e"
           stroke="none"
           fill-rule="nonzero"
           fill-opacity="1"
           id="path59" />
        <path
           d="m 28.938 13.934 c 0 0.277 -0.23 0.504 -0.516 0.504 c -0.285 0 -0.516 -0.227 -0.516 -0.504 c 0 -0.281 0.23 -0.508 0.516 -0.508 c 0.285 0 0.516 0.227 0.516 0.508 m 0 0"
           fill="#434a8e"
           stroke="none"
           fill-rule="nonzero"
           fill-opacity="1"
           id="path61" />
      </g>
    </g>
  </g>
</svg>
