<?xml version="1.0" encoding="UTF-8" standalone="no"?>
<svg
   xmlns:dc="http://purl.org/dc/elements/1.1/"
   xmlns:cc="http://creativecommons.org/ns#"
   xmlns:rdf="http://www.w3.org/1999/02/22-rdf-syntax-ns#"
   xmlns:svg="http://www.w3.org/2000/svg"
   xmlns="http://www.w3.org/2000/svg"
   xmlns:xlink="http://www.w3.org/1999/xlink"
   xmlns:sodipodi="http://sodipodi.sourceforge.net/DTD/sodipodi-0.dtd"
   xmlns:inkscape="http://www.inkscape.org/namespaces/inkscape"
   viewBox="0 0 48 48"
   id="svg2"
   version="1.1"
   inkscape:version="0.48.5 r10040"
   width="100%"
   height="100%"
   sodipodi:docname="vineyard-preferences.svg">
  <metadata
     id="metadata69">
    <rdf:RDF>
      <cc:Work
         rdf:about="">
        <dc:format>image/svg+xml</dc:format>
        <dc:type
           rdf:resource="http://purl.org/dc/dcmitype/StillImage" />
      </cc:Work>
    </rdf:RDF>
  </metadata>
  <sodipodi:namedview
     pagecolor="#ffffff"
     bordercolor="#666666"
     borderopacity="1"
     objecttolerance="10"
     gridtolerance="10"
     guidetolerance="10"
     inkscape:pageopacity="0"
     inkscape:pageshadow="2"
     inkscape:window-width="1301"
     inkscape:window-height="744"
     id="namedview67"
     showgrid="true"
     inkscape:zoom="6.3958333"
     inkscape:cx="21.803737"
     inkscape:cy="-1.8589793"
     inkscape:window-x="65"
     inkscape:window-y="24"
     inkscape:window-maximized="1"
     inkscape:current-layer="svg2">
    <inkscape:grid
       type="xygrid"
       id="grid3067" />
  </sodipodi:namedview>
  <defs
     id="defs4">
    <linearGradient
       id="linearGradient3764"
       x1="1"
       x2="47"
       gradientUnits="userSpaceOnUse"
       gradientTransform="matrix(0,-1,1,0,-1.5e-6,47.999998)">
      <stop
         stop-color="#e4e4e4"
         stop-opacity="1"
         id="stop7" />
      <stop
         offset="1"
         stop-color="#eee"
         stop-opacity="1"
         id="stop9"
         style="stop-color:#ffffff;stop-opacity:1;" />
    </linearGradient>
    <clipPath
       id="clipPath-119709949">
      <g
         transform="translate(0,-1004.3622)"
         id="g12">
        <path
           d="m -24 13 c 0 1.105 -0.672 2 -1.5 2 -0.828 0 -1.5 -0.895 -1.5 -2 0 -1.105 0.672 -2 1.5 -2 0.828 0 1.5 0.895 1.5 2 z"
           transform="matrix(15.333333,0,0,11.5,414.99999,878.8622)"
           fill="#1890d0"
           id="path14" />
      </g>
    </clipPath>
    <clipPath
       id="clipPath-130316721">
      <g
         transform="translate(0,-1004.3622)"
         id="g17">
        <path
           d="m -24 13 c 0 1.105 -0.672 2 -1.5 2 -0.828 0 -1.5 -0.895 -1.5 -2 0 -1.105 0.672 -2 1.5 -2 0.828 0 1.5 0.895 1.5 2 z"
           transform="matrix(15.333333,0,0,11.5,414.99999,878.8622)"
           fill="#1890d0"
           id="path19" />
      </g>
    </clipPath>
    <linearGradient
       y2="1028.3622"
       x2="44"
       y1="1028.3622"
       x1="4"
       gradientTransform="translate(-4.86e-6,-1004.3621)"
       gradientUnits="userSpaceOnUse"
       id="linearGradient3007"
       xlink:href="#linearGradient3764"
       inkscape:collect="always" />
  </defs>
  <rect
     style="fill:url(#linearGradient3007);fill-opacity:1.0;stroke:none"
     id="rect3758"
     width="40"
     height="40"
     x="3.9999952"
     y="4.000083"
     ry="0" />
  <path
     style="opacity:0.35;fill:#000000;fill-opacity:1;stroke:none"
     d="m 3.9999965,43.9998 39.9999965,3e-4 c -19.999997,-1 -19.999997,-1 -39.9999979,0 z"
     id="path3800"
     inkscape:connector-curvature="0"
     sodipodi:nodetypes="cccc" />
  <path
     sodipodi:nodetypes="cccc"
     inkscape:connector-curvature="0"
     id="path3804"
     d="m 4,4 39.999996,-2e-4 C 24,4.9998 24,4.9998 3.9999986,3.9998 z"
     style="opacity:0.75;fill:#ffffff;fill-opacity:1;stroke:none" />
  <g
     id="g33" />
  <g
     id="g35">
    <g
       clip-path="url(#clipPath-119709949)"
       id="g37">
      <g
         transform="translate(1,1)"
         id="g39">
        <g
           opacity="0.1"
           id="g41">
          <!-- color: #eeeeee -->
          <g
             id="g43">
            <path
               d="m 32.406 12 c -0.961 0.016 -1.91 0.656 -2.063 1.844 c -0.242 1.902 1.578 1.188 3.03 1.188 c 1.457 0 1.938 3.086 1.566 4.75 c -0.219 0.992 -1.695 2.793 -4.691 3.25 l 0 1.063 c 1.02 0.195 1.75 0.738 1.75 1.406 c 0 0.672 -0.73 1.215 -1.75 1.406 l 0 7.03 c 4.02 -2.754 6.75 -7.836 6.75 -12.656 c 0 -0.809 -0.102 -1.605 -0.25 -2.375 c -0.133 -0.387 -0.234 -0.805 -0.344 -1.156 c -0.176 -0.633 -0.391 -1.16 -0.563 -1.656 c -0.004 -0.016 0.008 -0.043 0 -0.063 c -0.688 -1.5 -1.648 -2.844 -2.844 -3.969 c -0.004 -0.008 -0.023 0.008 -0.031 0 c -0.188 -0.047 -0.367 -0.066 -0.563 -0.063 m -16.12 8.25 c -3.41 0.227 -5.148 2.285 -5.273 2.344 c 0.445 4.273 3.066 8.801 6.75 11.344 l 0 -7.03 c -1.016 -0.191 -1.75 -0.734 -1.75 -1.402 c 0 -0.672 0.734 -1.215 1.75 -1.406 l 0 -3.816 c -0.523 -0.043 -1.02 -0.059 -1.477 -0.02 m 2.977 0.27 l 0 3.566 c 1.012 0.188 1.75 0.738 1.75 1.406 c 0 0.668 -0.742 1.215 -1.75 1.402 l 0 7.941 c 1.25 0.629 2.602 0.992 4 1.094 l 0 -2.031 c -1.016 -0.191 -1.75 -0.734 -1.75 -1.406 c 0 -0.668 0.734 -1.211 1.75 -1.406 l 0 -9.125 c -0.414 -0.156 -0.848 -0.332 -1.281 -0.531 c -0.98 -0.438 -1.875 -0.715 -2.719 -0.906 m 5.5 1.941 l 0 8.625 c 1.012 0.188 1.75 0.738 1.75 1.406 c 0 0.668 -0.742 1.215 -1.75 1.402 l 0 2.031 c 1.402 -0.105 2.738 -0.496 4 -1.125 l 0 -7.906 c -1.016 -0.188 -1.75 -0.734 -1.75 -1.402 c 0 -0.668 0.734 -1.219 1.75 -1.406 l 0 -0.969 c -1.156 -0.004 -2.484 -0.203 -4 -0.656 m 0 0"
               fill="#000"
               stroke="none"
               fill-rule="nonzero"
               fill-opacity="1"
               id="path45" />
            <path
               d="m 30.395 16.516 c 0 0.395 -0.324 0.711 -0.727 0.711 c -0.398 0 -0.727 -0.316 -0.727 -0.711 c 0 -0.395 0.328 -0.711 0.727 -0.711 c 0.402 0 0.727 0.316 0.727 0.711 m 0 0"
               fill="#000"
               stroke="none"
               fill-rule="nonzero"
               fill-opacity="1"
               id="path47" />
            <path
               d="m 28.938 13.934 c 0 0.277 -0.23 0.504 -0.512 0.504 c -0.285 0 -0.516 -0.227 -0.516 -0.504 c 0 -0.281 0.23 -0.508 0.516 -0.508 c 0.281 0 0.512 0.227 0.512 0.508 m 0 0"
               fill="#000"
               stroke="none"
               fill-rule="nonzero"
               fill-opacity="1"
               id="path49" />
          </g>
        </g>
      </g>
    </g>
  </g>
  <g
     id="g51">
    <g
       clip-path="url(#clipPath-130316721)"
       id="g53">
      <!-- color: #eeeeee -->
      <g
         id="g55">
        <path
           d="m 32.406 12 c -0.961 0.016 -1.91 0.656 -2.063 1.844 c -0.242 1.902 1.578 1.188 3.03 1.188 c 1.457 0 1.938 3.086 1.566 4.75 c -0.219 0.992 -1.695 2.793 -4.691 3.25 l 0 1.063 c 1.02 0.195 1.75 0.738 1.75 1.406 c 0 0.672 -0.73 1.215 -1.75 1.406 l 0 7.03 c 4.02 -2.754 6.75 -7.836 6.75 -12.656 c 0 -0.809 -0.102 -1.605 -0.25 -2.375 c -0.133 -0.387 -0.234 -0.805 -0.344 -1.156 c -0.176 -0.633 -0.391 -1.16 -0.563 -1.656 c -0.004 -0.016 0.008 -0.043 0 -0.063 c -0.688 -1.5 -1.648 -2.844 -2.844 -3.969 c -0.004 -0.008 -0.023 0.008 -0.031 0 c -0.188 -0.047 -0.367 -0.066 -0.563 -0.063 m -16.12 8.25 c -3.41 0.227 -5.148 2.285 -5.273 2.344 c 0.445 4.273 3.066 8.801 6.75 11.344 l 0 -7.03 c -1.016 -0.191 -1.75 -0.734 -1.75 -1.402 c 0 -0.672 0.734 -1.215 1.75 -1.406 l 0 -3.816 c -0.523 -0.043 -1.02 -0.059 -1.477 -0.02 m 2.977 0.27 l 0 3.566 c 1.012 0.188 1.75 0.738 1.75 1.406 c 0 0.668 -0.742 1.215 -1.75 1.402 l 0 7.941 c 1.25 0.629 2.602 0.992 4 1.094 l 0 -2.031 c -1.016 -0.191 -1.75 -0.734 -1.75 -1.406 c 0 -0.668 0.734 -1.211 1.75 -1.406 l 0 -9.125 c -0.414 -0.156 -0.848 -0.332 -1.281 -0.531 c -0.98 -0.438 -1.875 -0.715 -2.719 -0.906 m 5.5 1.941 l 0 8.625 c 1.012 0.188 1.75 0.738 1.75 1.406 c 0 0.668 -0.742 1.215 -1.75 1.402 l 0 2.031 c 1.402 -0.105 2.738 -0.496 4 -1.125 l 0 -7.906 c -1.016 -0.188 -1.75 -0.734 -1.75 -1.402 c 0 -0.668 0.734 -1.219 1.75 -1.406 l 0 -0.969 c -1.156 -0.004 -2.484 -0.203 -4 -0.656 m 0 0"
           fill="#494c86"
           stroke="none"
           fill-rule="nonzero"
           fill-opacity="1"
           id="path57" />
        <path
           d="m 30.395 16.516 c 0 0.395 -0.324 0.711 -0.727 0.711 c -0.398 0 -0.727 -0.316 -0.727 -0.711 c 0 -0.395 0.328 -0.711 0.727 -0.711 c 0.402 0 0.727 0.316 0.727 0.711 m 0 0"
           fill="#434a8e"
           stroke="none"
           fill-rule="nonzero"
           fill-opacity="1"
           id="path59" />
        <path
           d="m 28.938 13.934 c 0 0.277 -0.23 0.504 -0.512 0.504 c -0.285 0 -0.516 -0.227 -0.516 -0.504 c 0 -0.281 0.23 -0.508 0.516 -0.508 c 0.281 0 0.512 0.227 0.512 0.508 m 0 0"
           fill="#434a8e"
           stroke="none"
           fill-rule="nonzero"
           fill-opacity="1"
           id="path61" />
      </g>
    </g>
  </g>
</svg>
