<?xml version="1.0" encoding="UTF-8" standalone="no"?>
<svg
   xmlns:dc="http://purl.org/dc/elements/1.1/"
   xmlns:cc="http://creativecommons.org/ns#"
   xmlns:rdf="http://www.w3.org/1999/02/22-rdf-syntax-ns#"
   xmlns:svg="http://www.w3.org/2000/svg"
   xmlns="http://www.w3.org/2000/svg"
   xmlns:xlink="http://www.w3.org/1999/xlink"
   xmlns:sodipodi="http://sodipodi.sourceforge.net/DTD/sodipodi-0.dtd"
   xmlns:inkscape="http://www.inkscape.org/namespaces/inkscape"
   height="48"
   width="48"
   version="1.1"
   viewBox="0 0 48 48"
   id="svg27"
   sodipodi:docname="visualstudiocode.svg"
   inkscape:version="0.92.2 2405546, 2018-03-11">
  <metadata
     id="metadata31">
    <rdf:RDF>
      <cc:Work
         rdf:about="">
        <dc:format>image/svg+xml</dc:format>
        <dc:type
           rdf:resource="http://purl.org/dc/dcmitype/StillImage" />
      </cc:Work>
    </rdf:RDF>
  </metadata>
  <sodipodi:namedview
     pagecolor="#ffffff"
     bordercolor="#666666"
     borderopacity="1"
     objecttolerance="10"
     gridtolerance="10"
     guidetolerance="10"
     inkscape:pageopacity="0"
     inkscape:pageshadow="2"
     inkscape:window-width="734"
     inkscape:window-height="480"
     id="namedview29"
     showgrid="true"
     inkscape:zoom="13.906433"
     inkscape:cx="16.624868"
     inkscape:cy="29.632329"
     inkscape:window-x="232"
     inkscape:window-y="331"
     inkscape:window-maximized="0"
     inkscape:current-layer="svg27">
    <inkscape:grid
       type="xygrid"
       id="grid847" />
  </sodipodi:namedview>
  <defs
     id="defs7">
    <linearGradient
       inkscape:collect="always"
       id="linearGradient842">
      <stop
         style="stop-color:#f2f2f2;stop-opacity:1;"
         offset="0"
         id="stop838" />
      <stop
         style="stop-color:#d7d7d7;stop-opacity:1"
         offset="1"
         id="stop840" />
    </linearGradient>
    <linearGradient
       id="linearGradient844"
       x1="-47"
       gradientUnits="userSpaceOnUse"
       y1="24"
       gradientTransform="translate(0,1.47e-6)"
       x2="-1"
       y2="24">
      <stop
         style="stop-color:#373277"
         offset="0"
         id="stop2" />
      <stop
         style="stop-color:#3d3884"
         offset="1"
         id="stop4" />
    </linearGradient>
    <linearGradient
       inkscape:collect="always"
       xlink:href="#linearGradient842"
       id="linearGradient845"
       x1="-24"
       y1="47"
       x2="-24"
       y2="1"
       gradientUnits="userSpaceOnUse" />
  </defs>
  <circle
     style="fill:url(#linearGradient845);fill-opacity:1"
     cx="-24"
     transform="rotate(-90)"
     cy="24"
     r="23"
     id="circle15" />
  <path
     style="opacity:.1"
     d="m40.03 7.531c3.712 4.084 5.969 9.514 5.969 15.469 0 12.703-10.297 23-23 23-5.954 0-11.384-2.256-15.469-5.969 4.178 4.291 10.01 6.969 16.469 6.969 12.703 0 23-10.298 23-23 0-6.462-2.677-12.291-6.969-16.469z"
     id="path17" />
  <g
     style="opacity:.12"
     transform="matrix(.055385 0 0 .05469 11.061 -.66341)"
     id="g21" />
  <g
     style="fill:#62b3e7"
     transform="matrix(.055385 0 0 .05469 10.061 -1.6634)"
     id="g25">
    <path
       style="color-rendering:auto;isolation:auto;mix-blend-mode:normal;shape-rendering:auto;solid-color:#000000;image-rendering:auto;white-space:normal;fill:#30a2ee;fill-opacity:1"
       d="m17.77 25.295-6.524-5.02-1.414 0.754v11.555l1.414 0.754 6.523-5.02 10.914 10.55 4.961-2.01v-20.1l-4.961-2.01s-7.282 7.03-10.914 10.55zm10.914 6.03-5.953-4.522 5.953-4.522zm-15.875-7.285 2.977 2.763-2.977 2.763z"
       isolation="auto"
       mix-blend-mode="normal"
       transform="matrix(18.198,0,0,18.198,-161.97,-18.473)"
       id="path23" />
  </g>
</svg>
