<?xml version="1.0" encoding="UTF-8" standalone="no"?>
<svg
   xmlns:dc="http://purl.org/dc/elements/1.1/"
   xmlns:cc="http://creativecommons.org/ns#"
   xmlns:rdf="http://www.w3.org/1999/02/22-rdf-syntax-ns#"
   xmlns:svg="http://www.w3.org/2000/svg"
   xmlns="http://www.w3.org/2000/svg"
   xmlns:xlink="http://www.w3.org/1999/xlink"
   xmlns:sodipodi="http://sodipodi.sourceforge.net/DTD/sodipodi-0.dtd"
   xmlns:inkscape="http://www.inkscape.org/namespaces/inkscape"
   viewBox="0 0 48 48"
   id="svg2"
   version="1.1"
   inkscape:version="0.91 r13725"
   sodipodi:docname="chrome-chlffgpmiacpedhhbkiomidkjlcfhogd-Default.svg">
  <metadata
     id="metadata41">
    <rdf:RDF>
      <cc:Work
         rdf:about="">
        <dc:format>image/svg+xml</dc:format>
        <dc:type
           rdf:resource="http://purl.org/dc/dcmitype/StillImage" />
      </cc:Work>
    </rdf:RDF>
  </metadata>
  <sodipodi:namedview
     pagecolor="#ffffff"
     bordercolor="#666666"
     borderopacity="1"
     objecttolerance="10"
     gridtolerance="10"
     guidetolerance="10"
     inkscape:pageopacity="0"
     inkscape:pageshadow="2"
     inkscape:window-width="686"
     inkscape:window-height="485"
     id="namedview39"
     showgrid="false"
     inkscape:zoom="4.9166667"
     inkscape:cx="24"
     inkscape:cy="24"
     inkscape:window-x="571"
     inkscape:window-y="156"
     inkscape:window-maximized="0"
     inkscape:current-layer="svg2" />
  <defs
     id="defs4">
    <linearGradient
       id="linearGradient3764"
       y1="47"
       x2="0"
       y2="1"
       gradientUnits="userSpaceOnUse">
      <stop
         style="stop-color:#5ba547;stop-opacity:1"
         id="stop7" />
      <stop
         offset="1"
         style="stop-color:#64b34e;stop-opacity:1"
         id="stop9" />
    </linearGradient>
    <linearGradient
       inkscape:collect="always"
       xlink:href="#linearGradient4105"
       id="linearGradient3741"
       gradientUnits="userSpaceOnUse"
       gradientTransform="matrix(0.83333307,0,0,0.83333307,-317.03371,412.80361)"
       x1="382.82715"
       y1="-527.79797"
       x2="431.57144"
       y2="-527.79797" />
    <linearGradient
       id="linearGradient4105">
      <stop
         id="stop4107"
         offset="0"
         style="stop-color:#81d034;stop-opacity:1" />
      <stop
         id="stop4109"
         offset="1"
         style="stop-color:#97d957;stop-opacity:1" />
    </linearGradient>
  </defs>
  <g
     transform="translate(0.55761199,0.30529681)"
     id="g3673">
    <rect
       style="fill:url(#linearGradient3741);fill-opacity:1;stroke:none"
       id="rect3675"
       width="39.999989"
       height="39.999989"
       x="3.4424012"
       y="-43.694542"
       ry="0"
       transform="scale(1,-1)" />
    <path
       style="opacity:0.35;fill:#000000;fill-opacity:1;stroke:none"
       d="m 3.4423873,43.694552 40.0000007,3.01e-4 c -20,-0.999999 -20,-0.999999 -40.0000017,0 z"
       id="path3677"
       inkscape:connector-curvature="0"
       sodipodi:nodetypes="cccc" />
    <path
       sodipodi:nodetypes="cccc"
       inkscape:connector-curvature="0"
       id="path3679"
       d="M 3.4423913,3.6947551 43.442388,3.6945549 c -19.999996,1.0000006 -19.999996,1.0000006 -39.9999977,0 z"
       style="opacity:0.5;fill:#ffffff;fill-opacity:1;stroke:none" />
  </g>
  <g
     id="g23">
    <g
       id="g25">
      <!-- color: #64b34e -->
      <g
         id="g27">
        <path
           d="m 14 16 c -0.551 0 -1 0.445 -1 0.996 l 0 16 c 0 0.551 0.449 1 1 1 l 4 0 c 0.551 0 1 -0.449 1 -1 l 0 -16 c 0 -0.551 -0.449 -0.996 -1 -0.996 l -4 0 z m 7.996 0 c -0.551 0 -0.996 0.445 -0.996 0.996 l 0 16 c 0 0.551 0.445 1 0.996 1 c 3 0 5.998 0.004 9 0.004 c 4.97 0 9 -4.03 9 -9 0 -4.97 -4.03 -9 -9 -9 l -9 0 z"
           style="fill:#000;fill-opacity:0.098"
           id="path29" />
        <path
           d="m 13 15 l 4 0 c 0.551 0 1 0.445 1 0.996 l 0 16 c 0 0.551 -0.449 1 -1 1 l -4 0 c -0.551 0 -1 -0.449 -1 -1 l 0 -16 c 0 -0.551 0.449 -0.996 1 -0.996 m 0 0"
           style="fill:#f9f9f9"
           id="path31" />
        <path
           d="m 20.996 15 c -0.551 0 -0.996 0.445 -0.996 0.996 l 0 16 c 0 0.551 0.445 1 0.996 1 c 3 0 5.998 0.004 9 0.004 c 4.97 0 9 -4.03 9 -9 0 -4.97 -4.03 -9 -9 -9 -3 0 -6 0 -9 0 z"
           style="fill:#f9f9f9"
           id="path33" />
      </g>
    </g>
  </g>
</svg>
