<?xml version="1.0" encoding="UTF-8" standalone="no"?>
<svg
   xmlns:dc="http://purl.org/dc/elements/1.1/"
   xmlns:cc="http://creativecommons.org/ns#"
   xmlns:rdf="http://www.w3.org/1999/02/22-rdf-syntax-ns#"
   xmlns:svg="http://www.w3.org/2000/svg"
   xmlns="http://www.w3.org/2000/svg"
   xmlns:xlink="http://www.w3.org/1999/xlink"
   xmlns:sodipodi="http://sodipodi.sourceforge.net/DTD/sodipodi-0.dtd"
   xmlns:inkscape="http://www.inkscape.org/namespaces/inkscape"
   viewBox="0 0 48 48"
   id="svg2"
   version="1.1"
   inkscape:version="0.91 r13725"
   sodipodi:docname="chrome-bgkodfmeijboinjdegggmkbkjfiagaan-Default.svg">
  <metadata
     id="metadata29">
    <rdf:RDF>
      <cc:Work
         rdf:about="">
        <dc:format>image/svg+xml</dc:format>
        <dc:type
           rdf:resource="http://purl.org/dc/dcmitype/StillImage" />
      </cc:Work>
    </rdf:RDF>
  </metadata>
  <sodipodi:namedview
     pagecolor="#ffffff"
     bordercolor="#666666"
     borderopacity="1"
     objecttolerance="10"
     gridtolerance="10"
     guidetolerance="10"
     inkscape:pageopacity="0"
     inkscape:pageshadow="2"
     inkscape:window-width="1366"
     inkscape:window-height="705"
     id="namedview27"
     showgrid="false"
     inkscape:zoom="4.9166667"
     inkscape:cx="54.711864"
     inkscape:cy="24"
     inkscape:window-x="0"
     inkscape:window-y="28"
     inkscape:window-maximized="1"
     inkscape:current-layer="svg2" />
  <defs
     id="defs4">
    <linearGradient
       id="linearGradient3764"
       y1="47"
       x2="0"
       y2="1"
       gradientUnits="userSpaceOnUse">
      <stop
         style="stop-color:#67ac5e;stop-opacity:1"
         id="stop7" />
      <stop
         offset="1"
         style="stop-color:#74b36b;stop-opacity:1"
         id="stop9" />
    </linearGradient>
    <linearGradient
       inkscape:collect="always"
       xlink:href="#linearGradient3454"
       id="linearGradient3331"
       gradientUnits="userSpaceOnUse"
       gradientTransform="matrix(0.83333307,0,0,0.83333307,-317.03371,412.80361)"
       x1="379.57144"
       y1="-527.79797"
       x2="431.57144"
       y2="-527.79797" />
    <linearGradient
       id="linearGradient3454">
      <stop
         style="stop-color:#43a047;stop-opacity:1"
         offset="0"
         id="stop3456" />
      <stop
         style="stop-color:#81c784;stop-opacity:1"
         offset="1"
         id="stop3458" />
    </linearGradient>
  </defs>
  <g
     transform="translate(0.55761199,0.30529681)"
     id="g3297">
    <rect
       style="fill:url(#linearGradient3331);fill-opacity:1;stroke:none"
       id="rect3299"
       width="39.999989"
       height="39.999989"
       x="3.4424012"
       y="-43.694542"
       ry="0"
       transform="scale(1,-1)" />
    <path
       style="opacity:0.35;fill:#000000;fill-opacity:1;stroke:none"
       d="m 3.4423873,43.694552 40.0000007,3.01e-4 c -20,-0.999999 -20,-0.999999 -40.0000017,0 z"
       id="path3301"
       inkscape:connector-curvature="0"
       sodipodi:nodetypes="cccc" />
    <path
       sodipodi:nodetypes="cccc"
       inkscape:connector-curvature="0"
       id="path3303"
       d="M 3.4423913,3.6947551 43.442388,3.6945549 c -19.999996,1.0000006 -19.999996,1.0000006 -39.9999977,0 z"
       style="opacity:0.5;fill:#ffffff;fill-opacity:1;stroke:none" />
  </g>
  <path
     d="m 26.23 12.369 l 0.002 0.002 c -6.313 0 -11.426 5.074 -11.426 11.328 c 0 2.141 0.598 4.145 1.641 5.852 l -2.063 6.074 l 6.322 -2.01 c 1.637 0.898 3.52 1.41 5.523 1.41 c 6.309 0 11.422 -5.07 11.422 -11.328 c 0 -6.254 -5.113 -11.328 -11.422 -11.328 z m 0 1.807 c 5.293 0 9.602 4.271 9.602 9.521 c 0 5.254 -4.309 9.523 -9.602 9.523 c -1.953 0 -3.77 -0.578 -5.285 -1.574 l -3.689 1.172 l 1.197 -3.535 c -1.148 -1.57 -1.828 -3.5 -1.828 -5.586 c 0 -5.25 4.309 -9.521 9.605 -9.521 z m -3.615 4.363 c -0.371 0 -0.749 0.109 -0.979 0.34 c -0.281 0.285 -0.98 0.949 -0.98 2.316 c 0 1.367 1 2.688 1.141 2.871 c 0.141 0.188 1.961 3.03 4.785 4.191 c 2.207 0.906 2.863 0.828 3.367 0.719 c 0.73 -0.16 1.652 -0.695 1.883 -1.344 c 0.234 -0.648 0.234 -1.203 0.164 -1.32 c -0.07 -0.113 -0.258 -0.184 -0.535 -0.324 c -0.281 -0.137 -1.656 -0.809 -1.914 -0.902 c -0.258 -0.094 -0.496 -0.063 -0.691 0.207 c -0.273 0.375 -0.535 0.758 -0.754 0.984 c -0.168 0.18 -0.441 0.207 -0.68 0.105 c -0.309 -0.129 -1.18 -0.434 -2.25 -1.379 c -0.832 -0.734 -1.395 -1.647 -1.559 -1.924 c -0.164 -0.277 -0.016 -0.441 0.113 -0.594 c 0.141 -0.172 0.273 -0.297 0.414 -0.457 c 0.141 -0.164 0.218 -0.25 0.313 -0.438 c 0.094 -0.184 0.031 -0.375 -0.039 -0.512 c -0.07 -0.141 -0.633 -1.508 -0.863 -2.063 l -0.002 0.002 c -0.188 -0.441 -0.328 -0.457 -0.613 -0.473 c -0.098 -0.004 -0.207 -0.008 -0.32 -0.008 z"
     style="fill:#000;opacity:0.1;fill-rule:evenodd"
     id="path19" />
  <path
     d="m 25.23 11.371 c -6.313 0 -11.426 5.074 -11.426 11.328 0 2.141 0.598 4.145 1.641 5.852 l -2.063 6.074 6.324 -2.01 c 1.637 0.898 3.52 1.41 5.523 1.41 6.309 0 11.422 -5.07 11.422 -11.328 0 -6.254 -5.113 -11.328 -11.422 -11.328 m 0 20.852 c -1.953 0 -3.77 -0.578 -5.285 -1.574 l -3.691 1.172 1.199 -3.535 c -1.148 -1.57 -1.828 -3.5 -1.828 -5.586 0 -5.25 4.309 -9.523 9.605 -9.523 5.293 0 9.602 4.273 9.602 9.523 0 5.254 -4.309 9.523 -9.602 9.523 m 0 0"
     style="fill:#fff;fill-rule:evenodd"
     id="path21" />
  <path
     d="m 22.547 18.02 c -0.188 -0.441 -0.328 -0.457 -0.613 -0.473 -0.098 -0.004 -0.207 -0.008 -0.32 -0.008 -0.371 0 -0.75 0.109 -0.98 0.34 -0.281 0.285 -0.98 0.949 -0.98 2.316 0 1.367 1 2.688 1.141 2.871 0.141 0.188 1.961 3.03 4.785 4.191 2.207 0.906 2.863 0.828 3.367 0.719 0.73 -0.16 1.652 -0.695 1.883 -1.344 0.234 -0.648 0.234 -1.203 0.164 -1.32 -0.07 -0.113 -0.258 -0.184 -0.535 -0.324 -0.281 -0.137 -1.656 -0.809 -1.914 -0.902 -0.258 -0.094 -0.496 -0.063 -0.691 0.207 -0.273 0.375 -0.535 0.758 -0.754 0.984 -0.168 0.18 -0.441 0.207 -0.68 0.105 -0.309 -0.129 -1.18 -0.434 -2.25 -1.379 -0.832 -0.734 -1.395 -1.645 -1.559 -1.922 -0.164 -0.277 -0.016 -0.441 0.113 -0.594 0.141 -0.172 0.273 -0.297 0.414 -0.457 0.141 -0.164 0.219 -0.25 0.313 -0.438 0.094 -0.184 0.031 -0.375 -0.039 -0.512 -0.07 -0.141 -0.633 -1.508 -0.863 -2.063 m 0 0"
     style="fill:#fff;fill-rule:evenodd"
     id="path23" />
</svg>
