<?xml version="1.0" encoding="UTF-8" standalone="no"?>
<svg
   xmlns:dc="http://purl.org/dc/elements/1.1/"
   xmlns:cc="http://creativecommons.org/ns#"
   xmlns:rdf="http://www.w3.org/1999/02/22-rdf-syntax-ns#"
   xmlns:svg="http://www.w3.org/2000/svg"
   xmlns="http://www.w3.org/2000/svg"
   xmlns:sodipodi="http://sodipodi.sourceforge.net/DTD/sodipodi-0.dtd"
   xmlns:inkscape="http://www.inkscape.org/namespaces/inkscape"
   viewBox="0 0 48 48"
   id="svg2"
   version="1.1"
   inkscape:version="0.48.5 r10040"
   width="100%"
   height="100%"
   sodipodi:docname="web-kindle.svg">
  <metadata
     id="metadata105">
    <rdf:RDF>
      <cc:Work
         rdf:about="">
        <dc:format>image/svg+xml</dc:format>
        <dc:type
           rdf:resource="http://purl.org/dc/dcmitype/StillImage" />
      </cc:Work>
    </rdf:RDF>
  </metadata>
  <sodipodi:namedview
     pagecolor="#ffffff"
     bordercolor="#666666"
     borderopacity="1"
     objecttolerance="10"
     gridtolerance="10"
     guidetolerance="10"
     inkscape:pageopacity="0"
     inkscape:pageshadow="2"
     inkscape:window-width="1301"
     inkscape:window-height="744"
     id="namedview103"
     showgrid="false"
     inkscape:zoom="6.3958333"
     inkscape:cx="30.350471"
     inkscape:cy="32.383163"
     inkscape:window-x="65"
     inkscape:window-y="24"
     inkscape:window-maximized="1"
     inkscape:current-layer="svg2" />
  <defs
     id="defs4">
    <linearGradient
       id="linearGradient3764"
       x1="1"
       x2="47"
       gradientUnits="userSpaceOnUse"
       gradientTransform="matrix(0,-1,1,0,-1.5e-6,47.999998)">
      <stop
         stop-color="#e4e4e4"
         stop-opacity="1"
         id="stop7" />
      <stop
         offset="1"
         stop-color="#eee"
         stop-opacity="1"
         id="stop9" />
    </linearGradient>
    <clipPath
       id="clipPath-629930773">
      <g
         transform="translate(0,-1004.3622)"
         id="g12">
        <path
           d="m -24 13 c 0 1.105 -0.672 2 -1.5 2 -0.828 0 -1.5 -0.895 -1.5 -2 0 -1.105 0.672 -2 1.5 -2 0.828 0 1.5 0.895 1.5 2 z"
           transform="matrix(15.333333,0,0,11.5,414.99999,878.8622)"
           fill="#1890d0"
           id="path14" />
      </g>
    </clipPath>
    <clipPath
       id="clipPath-643011164">
      <g
         transform="translate(0,-1004.3622)"
         id="g17">
        <path
           d="m -24 13 c 0 1.105 -0.672 2 -1.5 2 -0.828 0 -1.5 -0.895 -1.5 -2 0 -1.105 0.672 -2 1.5 -2 0.828 0 1.5 0.895 1.5 2 z"
           transform="matrix(15.333333,0,0,11.5,414.99999,878.8622)"
           fill="#1890d0"
           id="path19" />
      </g>
    </clipPath>
  </defs>
  <g
     id="g33"
     transform="matrix(1.6128255,0,0,1.6128255,-14.402318,-15.014224)" />
  <g
     id="g35"
     transform="matrix(1.6128255,0,0,1.6128255,-14.402318,-15.014224)">
    <g
       clip-path="url(#clipPath-629930773)"
       id="g37">
      <g
         transform="translate(1,1)"
         id="g39">
        <g
           id="g41"
           style="opacity:0.1">
          <!-- color: #eeeeee -->
          <g
             id="g43">
            <path
               d="m 18.05,28 16.953,0 0,8 -16.953,0 m 0,-8"
               id="path45"
               inkscape:connector-curvature="0"
               style="fill:#000000;fill-opacity:1;fill-rule:nonzero;stroke:none" />
            <path
               d="m 17,28 2.027,0 c 1.105,0 2,0.895 2,2 l 0,4 c 0,1.105 -0.895,2 -2,2 L 17,36 c -1.105,0 -2,-0.895 -2,-2 l 0,-4 c 0,-1.105 0.895,-2 2,-2 m 0,0"
               id="path47"
               inkscape:connector-curvature="0"
               style="fill:#000000;fill-opacity:1;fill-rule:nonzero;stroke:none" />
            <path
               d="m 31.465,29 c -1.371,0 -2.469,1.098 -2.469,2.469 l 0,1.063 c 0,1.371 1.098,2.469 2.469,2.469 l 3.531,0 0,-6 m -3.531,0"
               id="path49"
               inkscape:connector-curvature="0"
               style="fill:#000000;fill-opacity:1;fill-rule:nonzero;stroke:none" />
            <path
               d="m 31.465,29 c -0.809,0 -1.52,0.402 -1.969,1 l 5.5,0 0,-1 m -5.938,2 c -0.027,0.148 -0.063,0.305 -0.063,0.469 l 0,0.531 6,0 0,-1 m -5.938,2 c 0.074,0.375 0.219,0.703 0.438,1 l 5.5,0 0,-1 m -5.938,0"
               id="path51"
               inkscape:connector-curvature="0"
               style="fill:#000000;fill-opacity:1;fill-rule:nonzero;stroke:none" />
            <path
               d="m 14.05,20 16.949,0 0,8 -16.949,0 m 0,-8"
               id="path53"
               inkscape:connector-curvature="0"
               style="fill:#000000;fill-opacity:1;fill-rule:nonzero;stroke:none" />
            <path
               d="m 13,20 2.031,0 c 1.102,0 1.996,0.895 1.996,2 l 0,4 c 0,1.105 -0.895,2 -1.996,2 L 13,28 c -1.105,0 -2,-0.895 -2,-2 l 0,-4 c 0,-1.105 0.895,-2 2,-2 m 0,0"
               id="path55"
               inkscape:connector-curvature="0"
               style="fill:#000000;fill-opacity:1;fill-rule:nonzero;stroke:none" />
            <path
               d="m 27.465,21 c -1.371,0 -2.469,1.098 -2.469,2.469 l 0,1.063 c 0,1.371 1.098,2.469 2.469,2.469 l 3.531,0 0,-6 m -3.531,0"
               id="path57"
               inkscape:connector-curvature="0"
               style="fill:#000000;fill-opacity:1;fill-rule:nonzero;stroke:none" />
            <path
               d="m 27.465,21 c -0.809,0 -1.52,0.402 -1.969,1 l 5.5,0 0,-1 m -5.938,2 c -0.027,0.148 -0.063,0.305 -0.063,0.469 l 0,0.531 6,0 0,-1 m -5.938,2 c 0.074,0.375 0.219,0.703 0.438,1 l 5.5,0 0,-1 m -5.938,0"
               id="path59"
               inkscape:connector-curvature="0"
               style="fill:#000000;fill-opacity:1;fill-rule:nonzero;stroke:none" />
            <path
               d="m 18.05,12 16.953,0 0,8 -16.953,0 m 0,-8"
               id="path61"
               inkscape:connector-curvature="0"
               style="fill:#000000;fill-opacity:1;fill-rule:nonzero;stroke:none" />
            <path
               d="m 17,12 2.027,0 c 1.105,0 2,0.895 2,2 l 0,4 c 0,1.105 -0.895,2 -2,2 L 17,20 c -1.105,0 -2,-0.895 -2,-2 l 0,-4 c 0,-1.105 0.895,-2 2,-2 m 0,0"
               id="path63"
               inkscape:connector-curvature="0"
               style="fill:#000000;fill-opacity:1;fill-rule:nonzero;stroke:none" />
            <path
               d="m 31.465,13 c -1.371,0 -2.469,1.098 -2.469,2.469 l 0,1.063 c 0,1.371 1.098,2.469 2.469,2.469 l 3.531,0 0,-6 m -3.531,0"
               id="path65"
               inkscape:connector-curvature="0"
               style="fill:#000000;fill-opacity:1;fill-rule:nonzero;stroke:none" />
            <path
               d="m 31.465,13 c -0.809,0 -1.52,0.402 -1.969,1 l 5.5,0 0,-1 m -5.938,2 c -0.027,0.148 -0.063,0.305 -0.063,0.469 l 0,0.531 6,0 0,-1 m -5.938,2 c 0.074,0.375 0.219,0.703 0.438,1 l 5.5,0 0,-1 m -5.938,0"
               id="path67"
               inkscape:connector-curvature="0"
               style="fill:#000000;fill-opacity:1;fill-rule:nonzero;stroke:none" />
          </g>
        </g>
      </g>
    </g>
  </g>
  <g
     id="g69"
     transform="matrix(1.6128255,0,0,1.6128255,-14.402318,-15.014224)">
    <g
       clip-path="url(#clipPath-643011164)"
       id="g71">
      <!-- color: #eeeeee -->
      <g
         id="g73">
        <path
           d="m 18.05,28 16.953,0 0,8 -16.953,0 m 0,-8"
           id="path75"
           inkscape:connector-curvature="0"
           style="fill:#de4b28;fill-opacity:1;fill-rule:nonzero;stroke:none" />
        <path
           d="m 17,28 2.027,0 c 1.105,0 2,0.895 2,2 l 0,4 c 0,1.105 -0.895,2 -2,2 L 17,36 c -1.105,0 -2,-0.895 -2,-2 l 0,-4 c 0,-1.105 0.895,-2 2,-2 m 0,0"
           id="path77"
           inkscape:connector-curvature="0"
           style="fill:#de4b28;fill-opacity:1;fill-rule:nonzero;stroke:none" />
        <path
           d="m 31.465,29 c -1.371,0 -2.469,1.098 -2.469,2.469 l 0,1.063 c 0,1.371 1.098,2.469 2.469,2.469 l 3.531,0 0,-6 m -3.531,0"
           id="path79"
           inkscape:connector-curvature="0"
           style="fill:#ebddb7;fill-opacity:1;fill-rule:nonzero;stroke:none" />
        <path
           d="m 31.465,29 c -0.809,0 -1.52,0.402 -1.969,1 l 5.5,0 0,-1 m -5.938,2 c -0.027,0.148 -0.063,0.305 -0.063,0.469 l 0,0.531 6,0 0,-1 m -5.938,2 c 0.074,0.375 0.219,0.703 0.438,1 l 5.5,0 0,-1 m -5.938,0"
           id="path81"
           inkscape:connector-curvature="0"
           style="fill:#e3cc92;fill-opacity:1;fill-rule:nonzero;stroke:none" />
        <path
           d="m 14.05,20 16.949,0 0,8 -16.949,0 m 0,-8"
           id="path83"
           inkscape:connector-curvature="0"
           style="fill:#dd7f2d;fill-opacity:1;fill-rule:nonzero;stroke:none" />
        <path
           d="m 13,20 2.031,0 c 1.102,0 1.996,0.895 1.996,2 l 0,4 c 0,1.105 -0.895,2 -1.996,2 L 13,28 c -1.105,0 -2,-0.895 -2,-2 l 0,-4 c 0,-1.105 0.895,-2 2,-2 m 0,0"
           id="path85"
           inkscape:connector-curvature="0"
           style="fill:#dd7f2d;fill-opacity:1;fill-rule:nonzero;stroke:none" />
        <path
           d="m 27.465,21 c -1.371,0 -2.469,1.098 -2.469,2.469 l 0,1.063 c 0,1.371 1.098,2.469 2.469,2.469 l 3.531,0 0,-6 m -3.531,0"
           id="path87"
           inkscape:connector-curvature="0"
           style="fill:#ebddb7;fill-opacity:1;fill-rule:nonzero;stroke:none" />
        <path
           d="m 27.465,21 c -0.809,0 -1.52,0.402 -1.969,1 l 5.5,0 0,-1 m -5.938,2 c -0.027,0.148 -0.063,0.305 -0.063,0.469 l 0,0.531 6,0 0,-1 m -5.938,2 c 0.074,0.375 0.219,0.703 0.438,1 l 5.5,0 0,-1 m -5.938,0"
           id="path89"
           inkscape:connector-curvature="0"
           style="fill:#e3cc92;fill-opacity:1;fill-rule:nonzero;stroke:none" />
        <path
           d="m 18.05,12 16.953,0 0,8 -16.953,0 m 0,-8"
           id="path91"
           inkscape:connector-curvature="0"
           style="fill:#537f95;fill-opacity:1;fill-rule:nonzero;stroke:none" />
        <path
           d="m 17,12 2.027,0 c 1.105,0 2,0.895 2,2 l 0,4 c 0,1.105 -0.895,2 -2,2 L 17,20 c -1.105,0 -2,-0.895 -2,-2 l 0,-4 c 0,-1.105 0.895,-2 2,-2 m 0,0"
           id="path93"
           inkscape:connector-curvature="0"
           style="fill:#537f95;fill-opacity:1;fill-rule:nonzero;stroke:none" />
        <path
           d="m 31.465,13 c -1.371,0 -2.469,1.098 -2.469,2.469 l 0,1.063 c 0,1.371 1.098,2.469 2.469,2.469 l 3.531,0 0,-6 m -3.531,0"
           id="path95"
           inkscape:connector-curvature="0"
           style="fill:#ebddb7;fill-opacity:1;fill-rule:nonzero;stroke:none" />
        <path
           d="m 31.465,13 c -0.809,0 -1.52,0.402 -1.969,1 l 5.5,0 0,-1 m -5.938,2 c -0.027,0.148 -0.063,0.305 -0.063,0.469 l 0,0.531 6,0 0,-1 m -5.938,2 c 0.074,0.375 0.219,0.703 0.438,1 l 5.5,0 0,-1 m -5.938,0"
           id="path97"
           inkscape:connector-curvature="0"
           style="fill:#e3cc92;fill-opacity:1;fill-rule:nonzero;stroke:none" />
      </g>
    </g>
  </g>
</svg>
