<?xml version="1.0" encoding="UTF-8" standalone="no"?>
<svg
   xmlns:dc="http://purl.org/dc/elements/1.1/"
   xmlns:cc="http://creativecommons.org/ns#"
   xmlns:rdf="http://www.w3.org/1999/02/22-rdf-syntax-ns#"
   xmlns:svg="http://www.w3.org/2000/svg"
   xmlns="http://www.w3.org/2000/svg"
   xmlns:sodipodi="http://sodipodi.sourceforge.net/DTD/sodipodi-0.dtd"
   xmlns:inkscape="http://www.inkscape.org/namespaces/inkscape"
   width="48"
   viewBox="0 0 13.546667 13.546667"
   height="48"
   id="svg2"
   version="1.1"
   inkscape:version="0.91pre2 r13516"
   sodipodi:docname="chrome-ipanemchpnjhopmgcmmjhjcniogmoooc-Default.svg">
  <metadata
     id="metadata28">
    <rdf:RDF>
      <cc:Work
         rdf:about="">
        <dc:format>image/svg+xml</dc:format>
        <dc:type
           rdf:resource="http://purl.org/dc/dcmitype/StillImage" />
      </cc:Work>
    </rdf:RDF>
  </metadata>
  <sodipodi:namedview
     pagecolor="#ffffff"
     bordercolor="#666666"
     borderopacity="1"
     objecttolerance="10"
     gridtolerance="10"
     guidetolerance="10"
     inkscape:pageopacity="0"
     inkscape:pageshadow="2"
     inkscape:window-width="1301"
     inkscape:window-height="744"
     id="namedview26"
     showgrid="true"
     inkscape:zoom="6.5149435"
     inkscape:cx="-23.436403"
     inkscape:cy="38.453059"
     inkscape:window-x="65"
     inkscape:window-y="24"
     inkscape:window-maximized="1"
     inkscape:current-layer="svg2">
    <inkscape:grid
       type="xygrid"
       id="grid3395" />
  </sodipodi:namedview>
  <defs
     id="defs4">
    <filter
       id="filter3985"
       color-interpolation-filters="sRGB"
       height="1.3107746"
       width="1.1436011"
       y="-0.15538733"
       x="-0.071800567">
      <feGaussianBlur
         id="feGaussianBlur3987"
         stdDeviation="6.7803529" />
    </filter>
    <filter
       id="filter3989"
       color-interpolation-filters="sRGB">
      <feGaussianBlur
         id="feGaussianBlur3991"
         stdDeviation="6.7803529" />
    </filter>
    <filter
       id="filter3993"
       color-interpolation-filters="sRGB"
       height="1.1447482"
       width="1.2981865"
       y="-0.072374105"
       x="-0.1490933">
      <feGaussianBlur
         id="feGaussianBlur3995"
         stdDeviation="6.7803529" />
    </filter>
    <filter
       id="filter3997"
       color-interpolation-filters="sRGB"
       height="1.2207661"
       width="1.1631417"
       y="-0.11038305"
       x="-0.081570871">
      <feGaussianBlur
         id="feGaussianBlur3999"
         stdDeviation="6.7803529" />
    </filter>
    <filter
       id="filter4001"
       color-interpolation-filters="sRGB"
       height="1.257324"
       width="1.149857"
       y="-0.12866202"
       x="-0.07492853">
      <feGaussianBlur
         id="feGaussianBlur4003"
         stdDeviation="6.7803529" />
    </filter>
    <filter
       id="filter4005"
       color-interpolation-filters="sRGB"
       height="1.152902"
       width="1.2446516"
       y="-0.076450996"
       x="-0.12232576">
      <feGaussianBlur
         id="feGaussianBlur4007"
         stdDeviation="6.7803529" />
    </filter>
    <filter
       id="filter4009"
       color-interpolation-filters="sRGB"
       height="1.1597476"
       width="1.2244866"
       y="-0.079873785"
       x="-0.11224329">
      <feGaussianBlur
         id="feGaussianBlur4011"
         stdDeviation="6.7803529" />
    </filter>
    <filter
       id="filter3985-9"
       color-interpolation-filters="sRGB"
       height="1.3107746"
       width="1.1436011"
       y="-0.15538733"
       x="-0.071800567">
      <feGaussianBlur
         id="feGaussianBlur3987-0"
         stdDeviation="6.7803529" />
    </filter>
    <filter
       id="filter3989-9"
       color-interpolation-filters="sRGB">
      <feGaussianBlur
         id="feGaussianBlur3991-1"
         stdDeviation="6.7803529" />
    </filter>
    <filter
       id="filter3993-8"
       color-interpolation-filters="sRGB"
       height="1.1447482"
       width="1.2981865"
       y="-0.072374105"
       x="-0.1490933">
      <feGaussianBlur
         id="feGaussianBlur3995-4"
         stdDeviation="6.7803529" />
    </filter>
    <filter
       id="filter3997-0"
       color-interpolation-filters="sRGB"
       height="1.2207661"
       width="1.1631417"
       y="-0.11038305"
       x="-0.081570871">
      <feGaussianBlur
         id="feGaussianBlur3999-7"
         stdDeviation="6.7803529" />
    </filter>
    <filter
       id="filter4001-9"
       color-interpolation-filters="sRGB"
       height="1.257324"
       width="1.149857"
       y="-0.12866202"
       x="-0.07492853">
      <feGaussianBlur
         id="feGaussianBlur4003-7"
         stdDeviation="6.7803529" />
    </filter>
    <filter
       id="filter4005-7"
       color-interpolation-filters="sRGB"
       height="1.152902"
       width="1.2446516"
       y="-0.076450996"
       x="-0.12232576">
      <feGaussianBlur
         id="feGaussianBlur4007-7"
         stdDeviation="6.7803529" />
    </filter>
    <filter
       id="filter4009-8"
       color-interpolation-filters="sRGB"
       height="1.1597476"
       width="1.2244866"
       y="-0.079873785"
       x="-0.11224329">
      <feGaussianBlur
         id="feGaussianBlur4011-6"
         stdDeviation="6.7803529" />
    </filter>
  </defs>
  <path
     style="fill:#000000;fill-opacity:0.23529412"
     d="M 6.7733335,0.77878243 1.6644913,3.8443987 6.7733335,6.9092377 1.6644913,9.9740766 6.7733335,13.039692 11.882176,9.9740766 l 0,-6.1296779 -5.1088425,-3.06561627 z"
     id="path4326"
     inkscape:connector-curvature="0" />
  <g
     id="g4317"
     transform="matrix(1.4104892,0,0,1.4104892,-2.7803804,-2.8035503)">
    <path
       style="fill:#f6b435"
       inkscape:connector-curvature="0"
       id="path16"
       d="M 6.7733336,6.7733337 3.1514816,4.6002225 6.7733336,2.4271113 Z" />
    <path
       style="fill:#f37d3b"
       inkscape:connector-curvature="0"
       id="path18"
       d="m 6.7733336,2.4271113 0,4.3462224 3.6218514,-2.1731112 z" />
    <path
       style="fill:#df2a51"
       inkscape:connector-curvature="0"
       id="path20"
       d="m 6.7733336,6.7733337 3.6218514,-2.1731112 0,4.3462223 z" />
    <path
       style="fill:#862058"
       inkscape:connector-curvature="0"
       id="path22"
       d="m 6.7733336,11.119556 0,-4.3462223 3.6218514,2.1731111 z" />
    <path
       style="fill:#2c61a9"
       inkscape:connector-curvature="0"
       id="path24"
       d="M 6.7733336,11.119556 3.1514816,8.9464448 6.7733336,6.7733337 Z" />
  </g>
  <path
     style="display:none;fill:#dbdbdb;fill-opacity:1;fill-rule:nonzero;stroke:none;stroke-width:25;marker-mid:none;filter:url(#filter3985);enable-background:new"
     id="path3095"
     transform="matrix(0.02505593,0,0,0.02506603,-64.757708,1.1826147)"
     inkscape:connector-curvature="0"
     d="m 324.38759,135.62452 c -45.38059,3.2742 -125.14974,80.45343 -113.93317,80.06244 92.77726,-3.23392 150.72813,2.10512 223.11793,24.5811 10.71863,3.32799 -11.56647,-97.10992 -109.18476,-104.64354 z" />
  <path
     style="display:none;fill:#dbdbdb;fill-opacity:1;fill-rule:nonzero;stroke:#000000;stroke-width:0;stroke-linecap:butt;stroke-linejoin:round;stroke-miterlimit:4;stroke-dasharray:none;stroke-dashoffset:1;stroke-opacity:1;marker-mid:none;filter:url(#filter3989);enable-background:new"
     id="path3097"
     transform="matrix(0.02505593,0,0,0.02506603,-64.757708,1.1826147)"
     inkscape:connector-curvature="0"
     d="M 186.37822,72.150309 C 160.57833,109.62675 157.33905,256.29261 163.99898,247.2588 218.88951,172.80293 350.45207,80.852043 428.9148,43.825512 525.90264,-1.943011 243.81268,3.6410539 186.37822,72.150309 Z" />
  <path
     style="display:none;fill:#dbdbdb;fill-opacity:1;fill-rule:nonzero;stroke:none;stroke-width:25;marker-mid:none;filter:url(#filter3993);enable-background:new"
     id="path3099"
     transform="matrix(0.02505593,0,0,0.02506603,-64.757708,1.1826147)"
     inkscape:connector-curvature="0"
     d="M 69.5521,231.67976 C 84.41923,274.68075 179.56014,331.84683 176.28962,321.11052 149.23774,232.30583 139.45061,174.93843 142.49683,99.2009 142.94789,87.986573 51.65499,135.42084 69.5521,231.67976 Z" />
  <path
     style="display:none;fill:#dbdbdb;fill-opacity:1;fill-rule:nonzero;stroke:none;stroke-width:25;marker-mid:none;filter:url(#filter3997);enable-background:new"
     id="path3101"
     transform="matrix(0.02505593,0,0,0.02506603,-64.757708,1.1826147)"
     inkscape:connector-curvature="0"
     d="m 81.97729,372.8505 c 42.13653,17.1648 147.83895,-16.69886 137.60948,-21.31646 -84.61255,-38.1942 -134.204,-68.649 -189.1504,-120.86343 -8.1358,-7.73129 -32.64264,92.18775 51.54092,142.17989 z" />
  <path
     style="display:none;fill:#dbdbdb;fill-opacity:1;fill-rule:nonzero;stroke:none;stroke-width:25;marker-mid:none;filter:url(#filter4001);enable-background:new"
     id="path3103"
     transform="matrix(0.02505593,0,0,0.02506603,-64.757708,1.1826147)"
     inkscape:connector-curvature="0"
     d="m 203.88504,453.62703 c 40.28664,-21.14484 82.54559,-123.77977 72.42084,-118.93689 -83.74641,40.05772 -138.99861,58.33341 -214.33707,66.67436 -11.15521,1.23503 49.42757,84.38627 141.91623,52.26253 z" />
  <path
     style="display:none;fill:#dbdbdb;fill-opacity:1;fill-rule:nonzero;stroke:none;stroke-width:25;marker-mid:none;filter:url(#filter4005);enable-background:new"
     id="path3105"
     transform="matrix(0.02505593,0,0,0.02506603,-64.757708,1.1826147)"
     inkscape:connector-curvature="0"
     d="m 345.96158,410.03296 c 9.84126,-44.42146 -41.30053,-142.93171 -44.13379,-132.07183 -23.43513,89.82691 -45.12493,143.83025 -87.36533,206.76832 -6.25446,9.31914 96.3617,16.68976 131.49912,-74.69649 z" />
  <path
     style="display:none;fill:#dbdbdb;fill-opacity:1;fill-rule:nonzero;stroke:none;stroke-width:25;marker-mid:none;filter:url(#filter4009);enable-background:new"
     id="path3107"
     transform="matrix(0.02505593,0,0,0.02506603,-64.757708,1.1826147)"
     inkscape:connector-curvature="0"
     d="M 401.89383,270.24178 C 374.5208,233.89852 266.4087,208.76833 272.82303,217.97814 c 53.05584,76.17847 80.01415,127.7542 100.41172,200.75689 3.02024,10.80938 75.29683,-62.40604 28.65908,-148.49325 z" />
  <path
     style="display:none;fill:#dbdbdb;fill-opacity:1;fill-rule:nonzero;stroke:none;stroke-width:25;marker-mid:none;filter:url(#filter3985-9);enable-background:new"
     id="path3095-7"
     transform="matrix(0.02505593,0,0,0.02506603,-132.2441,-5.2379354)"
     inkscape:connector-curvature="0"
     d="m 324.38759,135.62452 c -45.38059,3.2742 -125.14974,80.45343 -113.93317,80.06244 92.77726,-3.23392 150.72813,2.10512 223.11793,24.5811 10.71863,3.32799 -11.56647,-97.10992 -109.18476,-104.64354 z" />
  <path
     style="display:none;fill:#dbdbdb;fill-opacity:1;fill-rule:nonzero;stroke:#000000;stroke-width:0;stroke-linecap:butt;stroke-linejoin:round;stroke-miterlimit:4;stroke-dasharray:none;stroke-dashoffset:1;stroke-opacity:1;marker-mid:none;filter:url(#filter3989-9);enable-background:new"
     id="path3097-4"
     transform="matrix(0.02505593,0,0,0.02506603,-132.2441,-5.2379354)"
     inkscape:connector-curvature="0"
     d="M 186.37822,72.150309 C 160.57833,109.62675 157.33905,256.29261 163.99898,247.2588 218.88951,172.80293 350.45207,80.852043 428.9148,43.825512 525.90264,-1.943011 243.81268,3.6410539 186.37822,72.150309 Z" />
  <path
     style="display:none;fill:#dbdbdb;fill-opacity:1;fill-rule:nonzero;stroke:none;stroke-width:25;marker-mid:none;filter:url(#filter3993-8);enable-background:new"
     id="path3099-9"
     transform="matrix(0.02505593,0,0,0.02506603,-132.2441,-5.2379354)"
     inkscape:connector-curvature="0"
     d="M 69.5521,231.67976 C 84.41923,274.68075 179.56014,331.84683 176.28962,321.11052 149.23774,232.30583 139.45061,174.93843 142.49683,99.2009 142.94789,87.986573 51.65499,135.42084 69.5521,231.67976 Z" />
  <path
     style="display:none;fill:#dbdbdb;fill-opacity:1;fill-rule:nonzero;stroke:none;stroke-width:25;marker-mid:none;filter:url(#filter3997-0);enable-background:new"
     id="path3101-4"
     transform="matrix(0.02505593,0,0,0.02506603,-132.2441,-5.2379354)"
     inkscape:connector-curvature="0"
     d="m 81.97729,372.8505 c 42.13653,17.1648 147.83895,-16.69886 137.60948,-21.31646 -84.61255,-38.1942 -134.204,-68.649 -189.1504,-120.86343 -8.1358,-7.73129 -32.64264,92.18775 51.54092,142.17989 z" />
  <path
     style="display:none;fill:#dbdbdb;fill-opacity:1;fill-rule:nonzero;stroke:none;stroke-width:25;marker-mid:none;filter:url(#filter4001-9);enable-background:new"
     id="path3103-3"
     transform="matrix(0.02505593,0,0,0.02506603,-132.2441,-5.2379354)"
     inkscape:connector-curvature="0"
     d="m 203.88504,453.62703 c 40.28664,-21.14484 82.54559,-123.77977 72.42084,-118.93689 -83.74641,40.05772 -138.99861,58.33341 -214.33707,66.67436 -11.15521,1.23503 49.42757,84.38627 141.91623,52.26253 z" />
  <path
     style="display:none;fill:#dbdbdb;fill-opacity:1;fill-rule:nonzero;stroke:none;stroke-width:25;marker-mid:none;filter:url(#filter4005-7);enable-background:new"
     id="path3105-1"
     transform="matrix(0.02505593,0,0,0.02506603,-132.2441,-5.2379354)"
     inkscape:connector-curvature="0"
     d="m 345.96158,410.03296 c 9.84126,-44.42146 -41.30053,-142.93171 -44.13379,-132.07183 -23.43513,89.82691 -45.12493,143.83025 -87.36533,206.76832 -6.25446,9.31914 96.3617,16.68976 131.49912,-74.69649 z" />
  <path
     style="display:none;fill:#dbdbdb;fill-opacity:1;fill-rule:nonzero;stroke:none;stroke-width:25;marker-mid:none;filter:url(#filter4009-8);enable-background:new"
     id="path3107-0"
     transform="matrix(0.02505593,0,0,0.02506603,-132.2441,-5.2379354)"
     inkscape:connector-curvature="0"
     d="M 401.89383,270.24178 C 374.5208,233.89852 266.4087,208.76833 272.82303,217.97814 c 53.05584,76.17847 80.01415,127.7542 100.41172,200.75689 3.02024,10.80938 75.29683,-62.40604 28.65908,-148.49325 z" />
</svg>
