<?xml version="1.0" encoding="UTF-8" standalone="no"?>
<svg
   xmlns:dc="http://purl.org/dc/elements/1.1/"
   xmlns:cc="http://creativecommons.org/ns#"
   xmlns:rdf="http://www.w3.org/1999/02/22-rdf-syntax-ns#"
   xmlns:svg="http://www.w3.org/2000/svg"
   xmlns="http://www.w3.org/2000/svg"
   xmlns:xlink="http://www.w3.org/1999/xlink"
   xmlns:sodipodi="http://sodipodi.sourceforge.net/DTD/sodipodi-0.dtd"
   xmlns:inkscape="http://www.inkscape.org/namespaces/inkscape"
   width="48"
   version="1.1"
   height="48"
   viewBox="0 0 48 48"
   id="svg30"
   sodipodi:docname="wechat.svg"
   inkscape:version="0.92.1 r15371">
  <metadata
     id="metadata36">
    <rdf:RDF>
      <cc:Work
         rdf:about="">
        <dc:format>image/svg+xml</dc:format>
        <dc:type
           rdf:resource="http://purl.org/dc/dcmitype/StillImage" />
        <dc:title></dc:title>
      </cc:Work>
    </rdf:RDF>
  </metadata>
  <defs
     id="defs34">
    <linearGradient
       inkscape:collect="always"
       id="linearGradient4562">
      <stop
         style="stop-color:#000000;stop-opacity:1;"
         offset="0"
         id="stop4558" />
      <stop
         style="stop-color:#000000;stop-opacity:0;"
         offset="1"
         id="stop4560" />
    </linearGradient>
    <linearGradient
       id="linearGradient4547"
       inkscape:collect="always">
      <stop
         id="stop4543"
         offset="0"
         style="stop-color:#ffffff;stop-opacity:1;" />
      <stop
         id="stop4545"
         offset="1"
         style="stop-color:#dfdfdf;stop-opacity:1" />
    </linearGradient>
    <linearGradient
       inkscape:collect="always"
       id="linearGradient4525">
      <stop
         style="stop-color:#2e3233;stop-opacity:1;"
         offset="0"
         id="stop4521" />
      <stop
         style="stop-color:#4e5556;stop-opacity:1"
         offset="1"
         id="stop4523" />
    </linearGradient>
    <linearGradient
       inkscape:collect="always"
       id="linearGradient4517">
      <stop
         style="stop-color:#81bd09;stop-opacity:1;"
         offset="0"
         id="stop4513" />
      <stop
         style="stop-color:#b7f638;stop-opacity:1"
         offset="1"
         id="stop4515" />
    </linearGradient>
    <linearGradient
       inkscape:collect="always"
       xlink:href="#linearGradient4517"
       id="linearGradient4519"
       x1="20.0242"
       y1="38.835361"
       x2="20.0242"
       y2="2.0199463"
       gradientUnits="userSpaceOnUse" />
    <linearGradient
       inkscape:collect="always"
       xlink:href="#linearGradient4525"
       id="linearGradient4527"
       x1="34.416321"
       y1="43.750507"
       x2="34.416321"
       y2="19.206896"
       gradientUnits="userSpaceOnUse" />
    <linearGradient
       inkscape:collect="always"
       xlink:href="#linearGradient4547"
       id="linearGradient4535"
       x1="40.346855"
       y1="27.855984"
       x2="40.346855"
       y2="34.042595"
       gradientUnits="userSpaceOnUse" />
    <linearGradient
       inkscape:collect="always"
       xlink:href="#linearGradient4547"
       id="linearGradient4537"
       x1="26.042597"
       y1="28.058823"
       x2="26.042597"
       y2="34.144016"
       gradientUnits="userSpaceOnUse" />
    <linearGradient
       inkscape:collect="always"
       xlink:href="#linearGradient4547"
       id="linearGradient4539"
       x1="34.245438"
       y1="14.261663"
       x2="34.245438"
       y2="19.839756"
       gradientUnits="userSpaceOnUse" />
    <linearGradient
       inkscape:collect="always"
       xlink:href="#linearGradient4547"
       id="linearGradient4541"
       x1="14.346856"
       y1="14.363083"
       x2="14.346856"
       y2="19.941177"
       gradientUnits="userSpaceOnUse" />
    <linearGradient
       inkscape:collect="always"
       xlink:href="#linearGradient4562"
       id="linearGradient4564"
       x1="40.186932"
       y1="31.112036"
       x2="46.055679"
       y2="36.980785"
       gradientUnits="userSpaceOnUse" />
    <linearGradient
       inkscape:collect="always"
       xlink:href="#linearGradient4562"
       id="linearGradient4566"
       x1="25.879292"
       y1="31.060436"
       x2="34.307617"
       y2="39.488762"
       gradientUnits="userSpaceOnUse" />
    <linearGradient
       inkscape:collect="always"
       xlink:href="#linearGradient4562"
       id="linearGradient4568"
       x1="34.140404"
       y1="16.998671"
       x2="42.312737"
       y2="25.171003"
       gradientUnits="userSpaceOnUse" />
    <linearGradient
       inkscape:collect="always"
       xlink:href="#linearGradient4562"
       id="linearGradient4570"
       x1="14.152895"
       y1="17.061131"
       x2="21.706104"
       y2="24.61434"
       gradientUnits="userSpaceOnUse" />
  </defs>
  <sodipodi:namedview
     pagecolor="#ffffff"
     bordercolor="#666666"
     borderopacity="1"
     objecttolerance="10"
     gridtolerance="10"
     guidetolerance="10"
     inkscape:pageopacity="0"
     inkscape:pageshadow="2"
     inkscape:window-width="1600"
     inkscape:window-height="808"
     id="namedview32"
     showgrid="false"
     inkscape:zoom="6.1198265"
     inkscape:cx="17.033882"
     inkscape:cy="22.123988"
     inkscape:window-x="0"
     inkscape:window-y="0"
     inkscape:window-maximized="1"
     inkscape:current-layer="svg30" />
  <path
     d="m 23.994,2.00005 c -0.56998,0.00422 -1.1395,0.031591 -1.707,0.082031 -0.4114,0.03259 -0.81493,0.085152 -1.2188,0.14062 -0.21405,0.027311 -0.42762,0.057914 -0.64062,0.091797 -0.57543,0.096959 -1.1403,0.21947 -1.6973,0.36133 -0.03648,0.00902 -0.07294,0.018131 -0.10938,0.027344 -8.442,2.1985 -14.621,9.4219 -14.621,17.996 1.01e-4,0.06216 0.0051,0.12346 0.00586,0.18555 -0.0021,0.038 -0.0041,0.077 -0.0059,0.115 0.00988,5.887 3.089,11.41 8,15 l 0,6 5.3047,-3.1211 c 2.148,0.734 4.412,1.113 6.695,1.121 10.639,-0.012 19.406,-7.935 19.949,-18.029 0.01591,-0.22113 0.02754,-0.44286 0.03516,-0.66602 0.006,-0.102 0.012,-0.203 0.016,-0.305 -0.001,-0.041 -0.002,-0.082 -0.004,-0.123 0.001,-0.06 0.004,-0.118 0.004,-0.178 0,-9.684 -7.877,-17.666 -18.004,-18.603 -0.553,-0.0489 -1.108,-0.0757 -1.664,-0.0804 -0.112,-0.0017 -0.221,-0.0156 -0.334,-0.0156 z"
     style="fill:url(#linearGradient4519);fill-opacity:1"
     id="path2" />
  <path
     style="fill:#000000;fill-opacity:1;opacity:0.2"
     d="M 43.982422 20.347656 C 43.974808 20.556255 43.964103 20.763834 43.949219 20.970703 C 43.406219 31.064703 34.639 38.988 24 39 C 21.717 38.992 19.452687 38.612906 17.304688 37.878906 L 12 41 L 12 42 L 17.304688 38.878906 C 19.452687 39.612906 21.717 39.992 24 40 C 34.639 39.988 43.406219 32.064703 43.949219 21.970703 C 43.965129 21.749573 43.976755 21.527848 43.984375 21.304688 C 43.990375 21.202687 43.996 21.102 44 21 C 43.999 20.959 43.998094 20.917953 43.996094 20.876953 C 43.997094 20.816953 44 20.759219 44 20.699219 C 44 20.580678 43.984772 20.465677 43.982422 20.347656 z M 4.0136719 20.400391 C 4.0119769 20.500615 4 20.598616 4 20.699219 C 4.000101 20.761379 4.0050994 20.822676 4.0058594 20.884766 C 4.0037594 20.922766 4.0018 20.962 4 21 C 4.00988 26.887 7.089 32.41 12 36 L 12 35 C 7.2007638 31.491701 4.1592202 26.13643 4.0136719 20.400391 z "
     id="path4585" />
  <path
     style="opacity:0.2;vector-effect:none;fill:url(#linearGradient4568);fill-opacity:1;stroke:none;stroke-width:1.15209651;stroke-linecap:round;stroke-linejoin:round;stroke-miterlimit:4;stroke-dasharray:none;stroke-dashoffset:0;stroke-opacity:1"
     d="M 35.896484 14.660156 L 31.642578 18.916016 L 41.980469 29.255859 C 43.010796 27.230119 43.664273 24.999527 43.878906 22.642578 L 35.896484 14.660156 z "
     id="path4552" />
  <circle
     r="3"
     cy="17"
     cx="34"
     style="opacity:1;fill:url(#linearGradient4539);fill-opacity:1.0"
     id="circle6" />
  <path
     d="m 33.0005,19 a 14,13 0 0 1 14,13 14,13 0 0 1 -5,9.957 l 0,5.043 -3.721,-2.967 a 14,13 0 0 1 -5.279,0.967 14,13 0 0 1 -14,-13 14,13 0 0 1 14,-13 z"
     style="fill:url(#linearGradient4527);fill-opacity:1"
     id="path16" />
  <path
     style="opacity:0.2;vector-effect:none;fill:url(#linearGradient4570);fill-opacity:1;stroke:none;stroke-width:1.15209651;stroke-linecap:round;stroke-linejoin:round;stroke-miterlimit:4;stroke-dasharray:none;stroke-dashoffset:0;stroke-opacity:1"
     d="m 15.971961,14.723412 15.16118,15.16118 -4.255045,4.255045 -15.161179,-15.16118 z"
     id="rect4549"
     inkscape:connector-curvature="0" />
  <path
     style="opacity:0.2;vector-effect:none;fill:url(#linearGradient4566);fill-opacity:1;stroke:none;stroke-width:1.15209651;stroke-linecap:round;stroke-linejoin:round;stroke-miterlimit:4;stroke-dasharray:none;stroke-dashoffset:0;stroke-opacity:1"
     d="M 27.839844 28.589844 L 23.583984 32.845703 L 35.521484 44.78125 A 14 13 0 0 0 38.279297 44.033203 L 40.748047 46.001953 L 42 44.75 L 42 42.75 L 27.839844 28.589844 z "
     id="path4554" />
  <path
     style="opacity:0.2;vector-effect:none;fill:url(#linearGradient4564);fill-opacity:1;stroke:none;stroke-width:1.15209651;stroke-linecap:round;stroke-linejoin:round;stroke-miterlimit:4;stroke-dasharray:none;stroke-dashoffset:0;stroke-opacity:1"
     d="M 41.705078 28.464844 L 37.451172 32.720703 L 44.335938 39.605469 A 14 13 0 0 0 46.875 33.634766 L 41.705078 28.464844 z "
     id="path4556" />
  <circle
     style="opacity:1;fill:url(#linearGradient4541);fill-opacity:1.0"
     cx="14"
     cy="17"
     r="3"
     id="circle14" />
  <circle
     r="3"
     cy="31"
     cx="26"
     style="opacity:1;fill:url(#linearGradient4537);fill-opacity:1"
     id="circle24" />
  <circle
     style="opacity:1;fill:url(#linearGradient4535);fill-opacity:1.0"
     cx="40"
     cy="31"
     r="3"
     id="circle28" />
  <path
     id="path4581"
     style="fill:#303030;fill-opacity:0"
     d="m 23.994,2.00005 c -0.56998,0.00422 -1.1395,0.031591 -1.707,0.082031 -0.4114,0.03259 -0.81493,0.085152 -1.2188,0.14062 -0.21405,0.027311 -0.42762,0.057914 -0.64062,0.091797 -0.57543,0.096959 -1.1403,0.21947 -1.6973,0.36133 -0.03648,0.00902 -0.07294,0.018131 -0.10938,0.027344 -8.442,2.1985 -14.621,9.4219 -14.621,17.996 1.01e-4,0.06216 0.0051,0.12346 0.00586,0.18555 -0.0021,0.038 -0.0041,0.077 -0.0059,0.115 0.00988,5.887 3.089,11.41 8,15 l 0,6 5.3047,-3.1211 c 2.148,0.734 4.412,1.113 6.695,1.121 10.639,-0.012 19.406,-7.935 19.949,-18.029 0.01591,-0.22113 0.02754,-0.44286 0.03516,-0.66602 0.006,-0.102 0.012,-0.203 0.016,-0.305 -0.001,-0.041 -0.002,-0.082 -0.004,-0.123 0.001,-0.06 0.004,-0.118 0.004,-0.178 0,-9.684 -7.877,-17.666 -18.004,-18.603 -0.553,-0.0489 -1.108,-0.0757 -1.664,-0.0804 -0.112,-0.0017 -0.221,-0.0156 -0.334,-0.0156 z" />
  <path
     id="path4583"
     style="fill:#303030;fill-opacity:0"
     d="m 33.0005,19 a 14,13 0 0 1 14,13 14,13 0 0 1 -5,9.957 l 0,5.043 -3.721,-2.967 a 14,13 0 0 1 -5.279,0.967 14,13 0 0 1 -14,-13 14,13 0 0 1 14,-13 z" />
  <path
     style="fill:#000000;fill-opacity:1;opacity:0.2"
     d="M 46.978516 31.414062 A 14 13 0 0 1 42 40.957031 L 42 41.957031 A 14 13 0 0 0 47 32 A 14 13 0 0 0 46.978516 31.414062 z M 19.021484 31.585938 A 14 13 0 0 0 19 32 A 14 13 0 0 0 33 45 A 14 13 0 0 0 38.279297 44.033203 L 42 47 L 42 46 L 38.279297 43.033203 A 14 13 0 0 1 33 44 A 14 13 0 0 1 19.021484 31.585938 z "
     id="path4590" />
</svg>
