<?xml version="1.0" encoding="UTF-8" standalone="no"?>
<svg
   xmlns:dc="http://purl.org/dc/elements/1.1/"
   xmlns:cc="http://creativecommons.org/ns#"
   xmlns:rdf="http://www.w3.org/1999/02/22-rdf-syntax-ns#"
   xmlns:svg="http://www.w3.org/2000/svg"
   xmlns="http://www.w3.org/2000/svg"
   xmlns:xlink="http://www.w3.org/1999/xlink"
   xmlns:sodipodi="http://sodipodi.sourceforge.net/DTD/sodipodi-0.dtd"
   xmlns:inkscape="http://www.inkscape.org/namespaces/inkscape"
   viewBox="0 0 48 48"
   id="svg2"
   version="1.1"
   inkscape:version="0.48.5 r10040"
   width="100%"
   height="100%"
   sodipodi:docname="wireframe-sketcher.svg">
  <metadata
     id="metadata81">
    <rdf:RDF>
      <cc:Work
         rdf:about="">
        <dc:format>image/svg+xml</dc:format>
        <dc:type
           rdf:resource="http://purl.org/dc/dcmitype/StillImage" />
      </cc:Work>
    </rdf:RDF>
  </metadata>
  <sodipodi:namedview
     pagecolor="#ffffff"
     bordercolor="#666666"
     borderopacity="1"
     objecttolerance="10"
     gridtolerance="10"
     guidetolerance="10"
     inkscape:pageopacity="0"
     inkscape:pageshadow="2"
     inkscape:window-width="1301"
     inkscape:window-height="744"
     id="namedview79"
     showgrid="true"
     inkscape:zoom="5.1458333"
     inkscape:cx="-2.2293149"
     inkscape:cy="14.937315"
     inkscape:window-x="65"
     inkscape:window-y="24"
     inkscape:window-maximized="1"
     inkscape:current-layer="svg2">
    <inkscape:grid
       type="xygrid"
       id="grid3079" />
  </sodipodi:namedview>
  <defs
     id="defs4">
    <linearGradient
       id="linearGradient3764"
       x1="1"
       x2="47"
       gradientUnits="userSpaceOnUse"
       gradientTransform="matrix(0,-1,1,0,-1.5e-6,47.999998)">
      <stop
         stop-color="#e9e9e9"
         stop-opacity="1"
         id="stop7" />
      <stop
         offset="1"
         stop-color="#f3f3f3"
         stop-opacity="1"
         id="stop9"
         style="stop-color:#ffffff;stop-opacity:1;" />
    </linearGradient>
    <clipPath
       id="clipPath-199989883">
      <g
         transform="translate(0,-1004.3622)"
         id="g12">
        <path
           d="m -24 13 c 0 1.105 -0.672 2 -1.5 2 -0.828 0 -1.5 -0.895 -1.5 -2 0 -1.105 0.672 -2 1.5 -2 0.828 0 1.5 0.895 1.5 2 z"
           transform="matrix(15.333333,0,0,11.5,414.99999,878.8622)"
           fill="#1890d0"
           id="path14" />
      </g>
    </clipPath>
    <clipPath
       id="clipPath-210452366">
      <g
         transform="translate(0,-1004.3622)"
         id="g17">
        <path
           d="m -24 13 c 0 1.105 -0.672 2 -1.5 2 -0.828 0 -1.5 -0.895 -1.5 -2 0 -1.105 0.672 -2 1.5 -2 0.828 0 1.5 0.895 1.5 2 z"
           transform="matrix(15.333333,0,0,11.5,414.99999,878.8622)"
           fill="#1890d0"
           id="path19" />
      </g>
    </clipPath>
    <linearGradient
       y2="1028.3622"
       x2="44"
       y1="1028.3622"
       x1="4"
       gradientTransform="translate(-3.54e-6,-1004.3619)"
       gradientUnits="userSpaceOnUse"
       id="linearGradient3007"
       xlink:href="#linearGradient3764"
       inkscape:collect="always" />
  </defs>
  <rect
     style="fill:url(#linearGradient3007);fill-opacity:1.0;stroke:none"
     id="rect3758"
     width="40"
     height="40"
     x="3.9999967"
     y="4.0002832"
     ry="0" />
  <path
     style="opacity:0.35;fill:#000000;fill-opacity:1;stroke:none"
     d="m 3.9999979,44 39.9999961,3e-4 c -19.999997,-1 -19.999997,-1 -39.9999975,0 z"
     id="path3800"
     inkscape:connector-curvature="0"
     sodipodi:nodetypes="cccc" />
  <path
     sodipodi:nodetypes="cccc"
     inkscape:connector-curvature="0"
     id="path3804"
     d="M 4.0000014,4.0002 43.999997,4 C 24.000001,5 24.000001,5 4,4 z"
     style="opacity:0.75;fill:#ffffff;fill-opacity:1;stroke:none" />
  <g
     id="g33" />
  <g
     id="g35">
    <g
       clip-path="url(#clipPath-199989883)"
       id="g37">
      <g
         transform="translate(1,1)"
         id="g39">
        <g
           opacity="0.1"
           id="g41">
          <!-- color: #f3f3f3 -->
          <g
             id="g43">
            <path
               d="m 31.31 13.637 c 1.914 1.484 2.957 3.445 2.633 4.734 l -7.801 -6.05 c -0.027 -0.02 -0.051 -0.035 -0.074 -0.055 c 1.168 -0.637 3.324 -0.113 5.238 1.371 m 0.004 0"
               fill="#000"
               stroke="none"
               fill-rule="evenodd"
               fill-opacity="1"
               id="path45" />
            <path
               d="m 32.73 18.07 l -0.496 -0.387 c -0.539 -0.418 -1.313 -0.32 -1.73 0.219 l -8.188 10.551 c -0.414 0.539 -0.316 1.316 0.219 1.73 l 0.496 0.387 c 0.539 0.418 1.313 0.32 1.73 -0.219 l 8.188 -10.551 c 0.414 -0.539 0.316 -1.316 -0.219 -1.73 m 0 0"
               fill="#000"
               stroke="none"
               fill-rule="evenodd"
               fill-opacity="1"
               id="path47" />
            <path
               d="m 29.957 15.918 l -0.496 -0.383 c -0.539 -0.418 -1.313 -0.32 -1.73 0.219 l -8.184 10.551 c -0.418 0.539 -0.32 1.313 0.219 1.73 l 0.496 0.383 c 0.535 0.418 1.313 0.32 1.73 -0.219 l 8.184 -10.551 c 0.418 -0.539 0.32 -1.313 -0.219 -1.73 m 0 0"
               fill="#000"
               stroke="none"
               fill-rule="evenodd"
               fill-opacity="1"
               id="path49" />
            <path
               d="m 27.16 13.746 l -0.496 -0.383 c -0.535 -0.418 -1.313 -0.32 -1.727 0.219 l -8.188 10.551 c -0.418 0.539 -0.32 1.313 0.219 1.73 l 0.496 0.383 c 0.539 0.418 1.313 0.32 1.73 -0.219 l 8.184 -10.551 c 0.418 -0.539 0.32 -1.313 -0.219 -1.73 m 0 0"
               fill="#000"
               stroke="none"
               fill-rule="evenodd"
               fill-opacity="1"
               id="path51" />
            <path
               d="m 23.633 31.801 c 0.031 -0.207 -7.758 -6.254 -7.949 -6.168 c -0.191 0.086 -1.828 10.238 -1.668 10.363 c 0.156 0.125 9.586 -3.984 9.621 -4.195 m -0.004 0"
               fill="#000"
               stroke="none"
               fill-rule="evenodd"
               fill-opacity="1"
               id="path53" />
            <path
               d="m 14.375 33.03 c -0.238 1.59 -0.43 2.926 -0.375 2.969 c 0.055 0.043 1.418 -0.516 3 -1.188 m -2.625 -1.781"
               fill="#000"
               stroke="none"
               fill-rule="nonzero"
               fill-opacity="1"
               id="path55" />
          </g>
        </g>
      </g>
    </g>
  </g>
  <g
     id="g57">
    <g
       clip-path="url(#clipPath-210452366)"
       id="g59">
      <!-- color: #f3f3f3 -->
      <g
         id="g61">
        <path
           d="m 31.31 13.637 c 1.914 1.484 2.957 3.445 2.633 4.734 l -7.801 -6.05 c -0.027 -0.02 -0.051 -0.035 -0.074 -0.055 c 1.168 -0.637 3.324 -0.113 5.238 1.371 m 0.004 0"
           fill="#cc3d3d"
           stroke="none"
           fill-rule="evenodd"
           fill-opacity="1"
           id="path63" />
        <path
           d="m 32.73 18.07 l -0.496 -0.387 c -0.539 -0.418 -1.313 -0.32 -1.73 0.219 l -8.188 10.551 c -0.414 0.539 -0.316 1.316 0.219 1.73 l 0.496 0.387 c 0.539 0.418 1.313 0.32 1.73 -0.219 l 8.188 -10.551 c 0.414 -0.539 0.316 -1.316 -0.219 -1.73 m 0 0"
           fill="#0078c1"
           stroke="none"
           fill-rule="evenodd"
           fill-opacity="1"
           id="path65" />
        <path
           d="m 29.957 15.918 l -0.496 -0.383 c -0.539 -0.418 -1.313 -0.32 -1.73 0.219 l -8.184 10.551 c -0.418 0.539 -0.32 1.313 0.219 1.73 l 0.496 0.383 c 0.535 0.418 1.313 0.32 1.73 -0.219 l 8.184 -10.551 c 0.418 -0.539 0.32 -1.313 -0.219 -1.73 m 0 0"
           fill="#0078c1"
           stroke="none"
           fill-rule="evenodd"
           fill-opacity="1"
           id="path67" />
        <path
           d="m 27.16 13.746 l -0.496 -0.383 c -0.535 -0.418 -1.313 -0.32 -1.727 0.219 l -8.188 10.551 c -0.418 0.539 -0.32 1.313 0.219 1.73 l 0.496 0.383 c 0.539 0.418 1.313 0.32 1.73 -0.219 l 8.184 -10.551 c 0.418 -0.539 0.32 -1.313 -0.219 -1.73 m 0 0"
           fill="#0078c1"
           stroke="none"
           fill-rule="evenodd"
           fill-opacity="1"
           id="path69" />
        <path
           d="m 23.633 31.801 c 0.031 -0.207 -7.758 -6.254 -7.949 -6.168 c -0.191 0.086 -1.828 10.238 -1.668 10.363 c 0.156 0.125 9.586 -3.984 9.621 -4.195 m -0.004 0"
           fill="#d6aa37"
           stroke="none"
           fill-rule="evenodd"
           fill-opacity="1"
           id="path71" />
        <path
           d="m 14.375 33.03 c -0.238 1.59 -0.43 2.926 -0.375 2.969 c 0.055 0.043 1.418 -0.516 3 -1.188 m -2.625 -1.781"
           fill="#2d2d2d"
           stroke="none"
           fill-rule="nonzero"
           fill-opacity="1"
           id="path73" />
      </g>
    </g>
  </g>
</svg>
