<?xml version="1.0" encoding="UTF-8" standalone="no"?>
<!-- Created with Inkscape (http://www.inkscape.org/) -->

<svg
   xmlns:dc="http://purl.org/dc/elements/1.1/"
   xmlns:cc="http://creativecommons.org/ns#"
   xmlns:rdf="http://www.w3.org/1999/02/22-rdf-syntax-ns#"
   xmlns:svg="http://www.w3.org/2000/svg"
   xmlns="http://www.w3.org/2000/svg"
   xmlns:xlink="http://www.w3.org/1999/xlink"
   xmlns:sodipodi="http://sodipodi.sourceforge.net/DTD/sodipodi-0.dtd"
   xmlns:inkscape="http://www.inkscape.org/namespaces/inkscape"
   width="48px"
   height="48px"
   id="svg2985"
   version="1.1"
   inkscape:version="0.48.5 r10040"
   sodipodi:docname="wps-office-etmain.svg">
  <defs
     id="defs2987">
    <linearGradient
       id="linearGradient3816">
      <stop
         style="stop-color:#ffffff;stop-opacity:1;"
         offset="0"
         id="stop3818" />
      <stop
         style="stop-color:#ffffff;stop-opacity:0.78431374;"
         offset="1"
         id="stop3820" />
    </linearGradient>
    <linearGradient
       id="linearGradient3792">
      <stop
         style="stop-color:#21b548;stop-opacity:1;"
         offset="0"
         id="stop3794" />
      <stop
         style="stop-color:#26e358;stop-opacity:1;"
         offset="1"
         id="stop3796" />
    </linearGradient>
    <linearGradient
       inkscape:collect="always"
       xlink:href="#linearGradient3792"
       id="linearGradient3798"
       x1="4"
       y1="24"
       x2="44"
       y2="24"
       gradientUnits="userSpaceOnUse" />
    <linearGradient
       inkscape:collect="always"
       xlink:href="#linearGradient3816"
       id="linearGradient3822"
       x1="14.536"
       y1="23.732"
       x2="34.144"
       y2="23.732"
       gradientUnits="userSpaceOnUse"
       gradientTransform="translate(4.3280006,0.42399892)" />
  </defs>
  <sodipodi:namedview
     id="base"
     pagecolor="#ffffff"
     bordercolor="#666666"
     borderopacity="1.0"
     inkscape:pageopacity="0.0"
     inkscape:pageshadow="2"
     inkscape:zoom="9.8994949"
     inkscape:cx="16.184389"
     inkscape:cy="12.327011"
     inkscape:current-layer="layer1"
     showgrid="true"
     inkscape:grid-bbox="true"
     inkscape:document-units="px"
     showguides="true"
     inkscape:guide-bbox="true"
     inkscape:window-width="1366"
     inkscape:window-height="744"
     inkscape:window-x="0"
     inkscape:window-y="24"
     inkscape:window-maximized="1">
    <inkscape:grid
       type="xygrid"
       id="grid2993" />
    <sodipodi:guide
       orientation="0,1"
       position="23,44"
       id="guide2995" />
    <sodipodi:guide
       orientation="1,0"
       position="4,35"
       id="guide2997" />
    <sodipodi:guide
       orientation="0,1"
       position="27,4"
       id="guide2999" />
    <sodipodi:guide
       orientation="1,0"
       position="44,19"
       id="guide3001" />
  </sodipodi:namedview>
  <metadata
     id="metadata2990">
    <rdf:RDF>
      <cc:Work
         rdf:about="">
        <dc:format>image/svg+xml</dc:format>
        <dc:type
           rdf:resource="http://purl.org/dc/dcmitype/StillImage" />
        <dc:title />
      </cc:Work>
    </rdf:RDF>
  </metadata>
  <g
     id="layer1"
     inkscape:label="Layer 1"
     inkscape:groupmode="layer">
    <rect
       style="fill:url(#linearGradient3798);fill-opacity:1;stroke:none"
       id="rect3003"
       width="40"
       height="40"
       x="4"
       y="4"
       ry="1.9445436" />
    <path
       style="opacity:0.5;fill:#000000;fill-opacity:1;stroke:none"
       d="m 6,44 0,0 c 18,-1 18,-1 36,0 z"
       id="path3257"
       inkscape:connector-curvature="0"
       sodipodi:nodetypes="cccc" />
    <path
       sodipodi:nodetypes="cccc"
       inkscape:connector-curvature="0"
       id="path4027"
       d="M 6,4 6,4 C 24,5 24,5 42,4 z"
       style="opacity:0.8;fill:#ffffff;fill-opacity:1;stroke:none" />
    <g
       style="font-size:32px;font-style:normal;font-variant:normal;font-weight:normal;font-stretch:normal;text-align:start;line-height:125%;letter-spacing:0px;word-spacing:0px;writing-mode:lr-tb;text-anchor:start;fill:#ffffff;fill-opacity:1;stroke:none;font-family:BahamasLight;-inkscape-font-specification:BahamasLight"
       id="text3016">
      <path
         d="m 30.24,12.799998 0,1.184 -6.336,0 c -2.432006,2.2e-5 -4.117338,0.437355 -5.056,1.312 -0.661336,0.618686 -0.992003,1.514686 -0.992,2.688 0.04266,0.08535 0.064,0.213351 0.064,0.384 -3e-6,1.664016 1.269329,2.954681 3.808,3.872 1.749325,0.533346 2.997324,0.906679 3.744,1.12 2.197321,0.704012 3.733319,1.482677 4.608,2.336 0.959984,0.938676 1.439984,2.250674 1.44,3.936 l -0.032,0.736 c -0.192016,1.557337 -0.810682,2.720003 -1.856,3.488 -1.237347,0.917334 -3.136011,1.376 -5.696,1.376 l -0.768,0 -6.688,0 0,-1.248 6.688,0 0.832,0.032 c 2.133322,2e-6 3.743987,-0.426665 4.832,-1.28 0.853319,-0.682663 1.279985,-1.514662 1.28,-2.496 -1.5e-5,-1.557326 -0.480014,-2.783992 -1.44,-3.68 -0.746679,-0.70399 -1.941345,-1.322656 -3.584,-1.856 -1.472008,-0.447989 -2.944007,-0.895988 -4.416,-1.344 -0.981338,-0.362654 -1.792004,-0.831987 -2.432,-1.408 -0.960002,-0.853319 -1.525335,-1.887984 -1.696,-3.104 l -0.064,-0.928 c -1e-6,-1.407981 0.394665,-2.538646 1.184,-3.392 1.10933,-1.173311 2.890661,-1.759977 5.344,-1.76 l 0.896,0.032 6.336,0"
         style=""
         id="path3001" />
    </g>
  </g>
</svg>
