<?xml version="1.0" encoding="UTF-8" standalone="no"?>
<svg
   xmlns:dc="http://purl.org/dc/elements/1.1/"
   xmlns:cc="http://creativecommons.org/ns#"
   xmlns:rdf="http://www.w3.org/1999/02/22-rdf-syntax-ns#"
   xmlns:svg="http://www.w3.org/2000/svg"
   xmlns="http://www.w3.org/2000/svg"
   xmlns:xlink="http://www.w3.org/1999/xlink"
   xmlns:sodipodi="http://sodipodi.sourceforge.net/DTD/sodipodi-0.dtd"
   xmlns:inkscape="http://www.inkscape.org/namespaces/inkscape"
   viewBox="0 0 48 48"
   id="svg2"
   version="1.1"
   inkscape:version="0.48.5 r10040"
   width="100%"
   height="100%"
   sodipodi:docname="x-plane.svg">
  <metadata
     id="metadata65">
    <rdf:RDF>
      <cc:Work
         rdf:about="">
        <dc:format>image/svg+xml</dc:format>
        <dc:type
           rdf:resource="http://purl.org/dc/dcmitype/StillImage" />
      </cc:Work>
    </rdf:RDF>
  </metadata>
  <sodipodi:namedview
     pagecolor="#ffffff"
     bordercolor="#666666"
     borderopacity="1"
     objecttolerance="10"
     gridtolerance="10"
     guidetolerance="10"
     inkscape:pageopacity="0"
     inkscape:pageshadow="2"
     inkscape:window-width="1301"
     inkscape:window-height="744"
     id="namedview63"
     showgrid="true"
     inkscape:zoom="6.3958333"
     inkscape:cx="24.227026"
     inkscape:cy="3.7352734"
     inkscape:window-x="65"
     inkscape:window-y="24"
     inkscape:window-maximized="1"
     inkscape:current-layer="svg2">
    <inkscape:grid
       type="xygrid"
       id="grid3063" />
  </sodipodi:namedview>
  <defs
     id="defs4">
    <linearGradient
       id="linearGradient3764"
       x1="1"
       x2="47"
       gradientUnits="userSpaceOnUse"
       gradientTransform="matrix(0,-1,1,0,-1.5e-6,47.999998)">
      <stop
         stop-color="#5190cb"
         stop-opacity="1"
         id="stop7" />
      <stop
         offset="1"
         stop-color="#619bd0"
         stop-opacity="1"
         id="stop9"
         style="stop-color:#88bbe9;stop-opacity:1;" />
    </linearGradient>
    <clipPath
       id="clipPath-580738685">
      <g
         transform="translate(0,-1004.3622)"
         id="g12">
        <path
           d="m -24 13 c 0 1.105 -0.672 2 -1.5 2 -0.828 0 -1.5 -0.895 -1.5 -2 0 -1.105 0.672 -2 1.5 -2 0.828 0 1.5 0.895 1.5 2 z"
           transform="matrix(15.333333,0,0,11.5,414.99999,878.8622)"
           fill="#1890d0"
           id="path14" />
      </g>
    </clipPath>
    <clipPath
       id="clipPath-590926178">
      <g
         transform="translate(0,-1004.3622)"
         id="g17">
        <path
           d="m -24 13 c 0 1.105 -0.672 2 -1.5 2 -0.828 0 -1.5 -0.895 -1.5 -2 0 -1.105 0.672 -2 1.5 -2 0.828 0 1.5 0.895 1.5 2 z"
           transform="matrix(15.333333,0,0,11.5,414.99999,878.8622)"
           fill="#1890d0"
           id="path19" />
      </g>
    </clipPath>
    <linearGradient
       y2="1028.3622"
       x2="44"
       y1="1028.3622"
       x1="4"
       gradientTransform="translate(-4.3609619e-8,-1004.3621)"
       gradientUnits="userSpaceOnUse"
       id="linearGradient3007"
       xlink:href="#linearGradient3764"
       inkscape:collect="always" />
  </defs>
  <rect
     style="fill:url(#linearGradient3007);fill-opacity:1.0;stroke:none"
     id="rect3758"
     width="40"
     height="40"
     x="4"
     y="4"
     ry="0" />
  <path
     style="opacity:0.35;fill:#000000;fill-opacity:1;stroke:none"
     d="m 4.0000016,43.999717 39.9999964,3e-4 c -19.999997,-1 -19.999997,-1 -39.9999978,0 z"
     id="path3800"
     inkscape:connector-curvature="0"
     sodipodi:nodetypes="cccc" />
  <path
     sodipodi:nodetypes="cccc"
     inkscape:connector-curvature="0"
     id="path3804"
     d="m 4.0000051,3.9999171 39.9999959,-2e-4 c -19.999996,1 -19.999996,1 -39.9999973,0 z"
     style="opacity:0.75;fill:#ffffff;fill-opacity:1;stroke:none" />
  <g
     id="g33" />
  <g
     id="g35">
    <g
       clip-path="url(#clipPath-580738685)"
       id="g37">
      <g
         transform="translate(1,1)"
         id="g39">
        <g
           opacity="0.1"
           id="g41">
          <!-- color: #619bd0 -->
          <g
             id="g43">
            <path
               d="m 11 11 l 4.215 6.422 c 1.449 -2.273 7.914 6.871 6.883 -3.121 l -2.16 -3.301 m 5.129 4.543 c -16.711 21.637 -8.355 10.82 0 0 m 0 0 c 0.262 0.195 0.523 0.398 0.762 0.637 c 3.824 7.762 3.344 16.281 -8.203 10.734 l -6.625 10.08 l 8.934 0 l 4.066 -6.188 l 4.063 6.188 l 8.941 0 l -8.531 -13 l 8.531 -13 l -8.941 0 m -13.05 6.129 l 4.52 6.887 l -2 3.063 c 2.102 1.168 7.391 3.32 9.176 1.535 c 2.156 -2.16 2.336 -9.926 0.176 -12.09 c -0.164 -0.168 -1.539 -0.977 -1.723 -1.117 l -1.227 1.859 l -1.844 -2.969 c -3.145 -0.195 -8.813 0.254 -7.07 2.832 m 0 -0.004"
               fill="#000"
               stroke="none"
               fill-rule="nonzero"
               fill-opacity="1"
               id="path45" />
            <path
               d="m 23.992 12.02 c -0.652 0 -0.965 2.051 -1.078 3.02 c -0.023 0.293 -0.047 0.559 -0.047 0.828 l 0 2.902 c -0.008 0.168 -0.039 0.211 -0.137 0.297 l -2.355 1.949 c -0.16 0.105 -0.371 0.102 -0.355 -0.262 l 0 -0.258 c 0 -0.145 -0.117 -0.262 -0.27 -0.262 l -0.336 0 c -0.152 0 -0.273 0.117 -0.273 0.262 l 0 1.52 c 0 0.047 -0.008 0.051 -0.043 0.082 l -2.234 1.887 c -0.227 0.152 -0.313 0.004 -0.324 -0.262 l 0 -0.473 c 0 -0.145 -0.117 -0.262 -0.27 -0.262 l -0.336 0 c -0.152 0 -0.273 0.117 -0.273 0.262 l 0 1.574 c 0 0.02 -0.008 0.023 -0.02 0.031 l -2.395 1.969 c -0.152 0.184 -0.242 0.27 -0.234 0.582 l -0.012 0.887 c -0.02 0.117 0.102 0.168 0.184 0.129 c 0 0 4.09 -2.402 5.656 -3.063 c 1.57 -0.656 3.66 -1.109 3.66 -1.109 c 0.16 -0.035 0.305 -0.043 0.367 0.121 l 0 6.648 c 0.004 0.793 0.316 1.273 0 1.559 l -2.609 2.414 c -0.156 0.16 -0.25 0.297 -0.266 0.555 l 0.004 0.277 c 0.008 0.125 0.059 0.191 0.18 0.176 l 3.336 -0.777 c 0.086 -0.027 0.156 -0.02 0.219 0.063 l 0.34 0.715 l 0.418 -0.734 c 0.059 -0.078 0.168 -0.113 0.25 -0.086 c 1.027 0.23 2.055 0.461 3.086 0.695 c 0.129 0.016 0.238 0.012 0.254 -0.156 l 0 -0.422 c -0.066 -0.289 -0.242 -0.422 -0.426 -0.598 l -2.617 -2.121 c -0.246 -0.234 -0.004 -0.734 0.082 -1.535 l 0 -6.57 l 0.004 0 l 0 -0.008 l 0.008 0 c 0 -0.012 0.004 -0.02 0.004 -0.027 c 0.004 -0.012 0.008 -0.02 0.012 -0.027 c 0 -0.008 0.004 -0.016 0.008 -0.02 c 0.004 -0.008 0.004 -0.02 0.008 -0.023 c 0.004 -0.008 0.016 -0.016 0.02 -0.02 c 0.004 -0.008 0.008 -0.02 0.016 -0.023 c 0.004 -0.008 0.008 -0.012 0.016 -0.02 c 0.004 -0.004 0.012 -0.012 0.016 -0.016 c 0.008 -0.004 0.012 -0.008 0.02 -0.012 c 0.008 -0.008 0.016 -0.012 0.023 -0.016 c 0.008 -0.004 0.012 -0.004 0.02 -0.008 c 0.012 -0.004 0.02 -0.004 0.027 -0.008 c 0.012 0 0.02 0 0.027 -0.004 c 0.012 0 0.023 0 0.031 0 c 0.012 0 0.023 0.004 0.035 0.004 c 0.012 0 0.023 0 0.035 0.004 c 0 0 1.898 0.391 3.5 1.035 c 1.602 0.645 5.871 3.074 5.871 3.074 c 0.098 0.02 0.18 0.008 0.191 -0.086 l 0 -0.82 c 0.004 -0.219 -0.141 -0.418 -0.234 -0.504 l -2.34 -1.973 c -0.082 -0.094 -0.105 -0.113 -0.105 -0.168 l 0 -1.559 c 0 -0.145 -0.125 -0.262 -0.27 -0.262 l -0.34 0 c -0.148 0 -0.273 0.117 -0.273 0.262 l 0 0.473 c 0.027 0.281 -0.051 0.387 -0.23 0.254 l -2.305 -1.879 c -0.051 -0.043 -0.063 -0.043 -0.063 -0.086 l 0 -1.516 c 0 -0.145 -0.121 -0.262 -0.273 -0.262 l -0.336 0 c -0.145 0 -0.27 0.117 -0.27 0.262 l 0 0.258 c 0.039 0.363 -0.211 0.434 -0.379 0.262 l -2.344 -1.957 c -0.105 -0.094 -0.113 -0.148 -0.129 -0.281 l 0 -2.91 c -0.008 -0.285 -0.02 -0.609 -0.059 -0.871 c -0.137 -1.02 -0.551 -3.219 -1.066 -2.973 m 0 0"
               fill="#000"
               stroke="none"
               fill-rule="evenodd"
               fill-opacity="1"
               id="path47" />
          </g>
        </g>
      </g>
    </g>
  </g>
  <g
     id="g49">
    <g
       clip-path="url(#clipPath-590926178)"
       id="g51">
      <!-- color: #619bd0 -->
      <g
         id="g53">
        <path
           d="m 11 11 l 4.215 6.422 c 1.449 -2.273 7.914 6.871 6.883 -3.121 l -2.16 -3.301 m 5.129 4.543 c -16.711 21.637 -8.355 10.82 0 0 m 0 0 c 0.262 0.195 0.523 0.398 0.762 0.637 c 3.824 7.762 3.344 16.281 -8.203 10.734 l -6.625 10.08 l 8.934 0 l 4.066 -6.188 l 4.063 6.188 l 8.941 0 l -8.531 -13 l 8.531 -13 l -8.941 0 m -13.05 6.129 l 4.52 6.887 l -2 3.063 c 2.102 1.168 7.391 3.32 9.176 1.535 c 2.156 -2.16 2.336 -9.926 0.176 -12.09 c -0.164 -0.168 -1.539 -0.977 -1.723 -1.117 l -1.227 1.859 l -1.844 -2.969 c -3.145 -0.195 -8.813 0.254 -7.07 2.832 m 0 -0.004"
           fill="#2d2d2d"
           stroke="none"
           fill-rule="nonzero"
           fill-opacity="1"
           id="path55" />
        <path
           d="m 23.992 12.02 c -0.652 0 -0.965 2.051 -1.078 3.02 c -0.023 0.293 -0.047 0.559 -0.047 0.828 l 0 2.902 c -0.008 0.168 -0.039 0.211 -0.137 0.297 l -2.355 1.949 c -0.16 0.105 -0.371 0.102 -0.355 -0.262 l 0 -0.258 c 0 -0.145 -0.117 -0.262 -0.27 -0.262 l -0.336 0 c -0.152 0 -0.273 0.117 -0.273 0.262 l 0 1.52 c 0 0.047 -0.008 0.051 -0.043 0.082 l -2.234 1.887 c -0.227 0.152 -0.313 0.004 -0.324 -0.262 l 0 -0.473 c 0 -0.145 -0.117 -0.262 -0.27 -0.262 l -0.336 0 c -0.152 0 -0.273 0.117 -0.273 0.262 l 0 1.574 c 0 0.02 -0.008 0.023 -0.02 0.031 l -2.395 1.969 c -0.152 0.184 -0.242 0.27 -0.234 0.582 l -0.012 0.887 c -0.02 0.117 0.102 0.168 0.184 0.129 c 0 0 4.09 -2.402 5.656 -3.063 c 1.57 -0.656 3.66 -1.109 3.66 -1.109 c 0.16 -0.035 0.305 -0.043 0.367 0.121 l 0 6.648 c 0.004 0.793 0.316 1.273 0 1.559 l -2.609 2.414 c -0.156 0.16 -0.25 0.297 -0.266 0.555 l 0.004 0.277 c 0.008 0.125 0.059 0.191 0.18 0.176 l 3.336 -0.777 c 0.086 -0.027 0.156 -0.02 0.219 0.063 l 0.34 0.715 l 0.418 -0.734 c 0.059 -0.078 0.168 -0.113 0.25 -0.086 c 1.027 0.23 2.055 0.461 3.086 0.695 c 0.129 0.016 0.238 0.012 0.254 -0.156 l 0 -0.422 c -0.066 -0.289 -0.242 -0.422 -0.426 -0.598 l -2.617 -2.121 c -0.246 -0.234 -0.004 -0.734 0.082 -1.535 l 0 -6.57 l 0.004 0 l 0 -0.008 l 0.008 0 c 0 -0.012 0.004 -0.02 0.004 -0.027 c 0.004 -0.012 0.008 -0.02 0.012 -0.027 c 0 -0.008 0.004 -0.016 0.008 -0.02 c 0.004 -0.008 0.004 -0.02 0.008 -0.023 c 0.004 -0.008 0.016 -0.016 0.02 -0.02 c 0.004 -0.008 0.008 -0.02 0.016 -0.023 c 0.004 -0.008 0.008 -0.012 0.016 -0.02 c 0.004 -0.004 0.012 -0.012 0.016 -0.016 c 0.008 -0.004 0.012 -0.008 0.02 -0.012 c 0.008 -0.008 0.016 -0.012 0.023 -0.016 c 0.008 -0.004 0.012 -0.004 0.02 -0.008 c 0.012 -0.004 0.02 -0.004 0.027 -0.008 c 0.012 0 0.02 0 0.027 -0.004 c 0.012 0 0.023 0 0.031 0 c 0.012 0 0.023 0.004 0.035 0.004 c 0.012 0 0.023 0 0.035 0.004 c 0 0 1.898 0.391 3.5 1.035 c 1.602 0.645 5.871 3.074 5.871 3.074 c 0.098 0.02 0.18 0.008 0.191 -0.086 l 0 -0.82 c 0.004 -0.219 -0.141 -0.418 -0.234 -0.504 l -2.34 -1.973 c -0.082 -0.094 -0.105 -0.113 -0.105 -0.168 l 0 -1.559 c 0 -0.145 -0.125 -0.262 -0.27 -0.262 l -0.34 0 c -0.148 0 -0.273 0.117 -0.273 0.262 l 0 0.473 c 0.027 0.281 -0.051 0.387 -0.23 0.254 l -2.305 -1.879 c -0.051 -0.043 -0.063 -0.043 -0.063 -0.086 l 0 -1.516 c 0 -0.145 -0.121 -0.262 -0.273 -0.262 l -0.336 0 c -0.145 0 -0.27 0.117 -0.27 0.262 l 0 0.258 c 0.039 0.363 -0.211 0.434 -0.379 0.262 l -2.344 -1.957 c -0.105 -0.094 -0.113 -0.148 -0.129 -0.281 l 0 -2.91 c -0.008 -0.285 -0.02 -0.609 -0.059 -0.871 c -0.137 -1.02 -0.551 -3.219 -1.066 -2.973 m 0 0"
           fill="#fff"
           stroke="none"
           fill-rule="evenodd"
           fill-opacity="1"
           id="path57" />
      </g>
    </g>
  </g>
</svg>
