<?xml version="1.0" encoding="UTF-8" standalone="no"?>
<svg
   xmlns:dc="http://purl.org/dc/elements/1.1/"
   xmlns:cc="http://creativecommons.org/ns#"
   xmlns:rdf="http://www.w3.org/1999/02/22-rdf-syntax-ns#"
   xmlns:svg="http://www.w3.org/2000/svg"
   xmlns="http://www.w3.org/2000/svg"
   xmlns:xlink="http://www.w3.org/1999/xlink"
   xmlns:sodipodi="http://sodipodi.sourceforge.net/DTD/sodipodi-0.dtd"
   xmlns:inkscape="http://www.inkscape.org/namespaces/inkscape"
   viewBox="0 0 48 48"
   id="svg2"
   version="1.1"
   inkscape:version="0.48.5 r10040"
   width="100%"
   height="100%"
   sodipodi:docname="xampp.svg">
  <metadata
     id="metadata100">
    <rdf:RDF>
      <cc:Work
         rdf:about="">
        <dc:format>image/svg+xml</dc:format>
        <dc:type
           rdf:resource="http://purl.org/dc/dcmitype/StillImage" />
      </cc:Work>
    </rdf:RDF>
  </metadata>
  <sodipodi:namedview
     pagecolor="#ffffff"
     bordercolor="#666666"
     borderopacity="1"
     objecttolerance="10"
     gridtolerance="10"
     guidetolerance="10"
     inkscape:pageopacity="0"
     inkscape:pageshadow="2"
     inkscape:window-width="1301"
     inkscape:window-height="744"
     id="namedview98"
     showgrid="true"
     inkscape:zoom="11.541667"
     inkscape:cx="34.216553"
     inkscape:cy="8.1461703"
     inkscape:window-x="65"
     inkscape:window-y="24"
     inkscape:window-maximized="1"
     inkscape:current-layer="svg2">
    <inkscape:grid
       type="xygrid"
       id="grid3098" />
  </sodipodi:namedview>
  <defs
     id="defs4">
    <linearGradient
       id="linearGradient3764"
       x1="1"
       x2="47"
       gradientUnits="userSpaceOnUse"
       gradientTransform="matrix(0,-1,1,0,-1.5e-6,47.999998)">
      <stop
         stop-color="#ce411c"
         stop-opacity="1"
         id="stop7" />
      <stop
         offset="1"
         stop-color="#e0491e"
         stop-opacity="1"
         id="stop9"
         style="stop-color:#ff754d;stop-opacity:1;" />
    </linearGradient>
    <clipPath
       id="clipPath-369610194">
      <g
         transform="translate(0,-1004.3622)"
         id="g12">
        <path
           d="m -24 13 c 0 1.105 -0.672 2 -1.5 2 -0.828 0 -1.5 -0.895 -1.5 -2 0 -1.105 0.672 -2 1.5 -2 0.828 0 1.5 0.895 1.5 2 z"
           transform="matrix(15.333333,0,0,11.5,414.99999,878.8622)"
           fill="#1890d0"
           id="path14" />
      </g>
    </clipPath>
    <clipPath
       id="clipPath-377450625">
      <g
         transform="translate(0,-1004.3622)"
         id="g17">
        <path
           d="m -24 13 c 0 1.105 -0.672 2 -1.5 2 -0.828 0 -1.5 -0.895 -1.5 -2 0 -1.105 0.672 -2 1.5 -2 0.828 0 1.5 0.895 1.5 2 z"
           transform="matrix(15.333333,0,0,11.5,414.99999,878.8622)"
           fill="#1890d0"
           id="path19" />
      </g>
    </clipPath>
    <linearGradient
       id="linear0"
       gradientUnits="userSpaceOnUse"
       y1="12.7"
       x2="0"
       y2="1.129"
       gradientTransform="matrix(3.482195,0,0,3.543307,0.307109,0)">
      <stop
         stop-color="#de491e"
         stop-opacity="1"
         id="stop22" />
      <stop
         offset="1"
         stop-color="#f47736"
         stop-opacity="1"
         id="stop24" />
    </linearGradient>
    <linearGradient
       y2="1028.3622"
       x2="44"
       y1="1028.3622"
       x1="4"
       gradientTransform="translate(4.8627869e-7,-1004.3622)"
       gradientUnits="userSpaceOnUse"
       id="linearGradient3007"
       xlink:href="#linearGradient3764"
       inkscape:collect="always" />
  </defs>
  <rect
     style="fill:url(#linearGradient3007);fill-opacity:1;stroke:none;fill-rule:evenodd"
     id="rect3758"
     width="40"
     height="40"
     x="4"
     y="4"
     ry="0" />
  <path
     style="opacity:0.35;fill:#000000;fill-opacity:1;stroke:none"
     d="m 4.0000015,43.999718 39.9999975,3e-4 c -19.999997,-1 -19.999997,-1 -39.9999989,0 z"
     id="path3800"
     inkscape:connector-curvature="0"
     sodipodi:nodetypes="cccc" />
  <path
     sodipodi:nodetypes="cccc"
     inkscape:connector-curvature="0"
     id="path3804"
     d="m 4.000005,3.9999177 39.999997,-2e-4 c -19.999996,1 -19.999996,1 -39.9999984,0 z"
     style="opacity:0.75;fill:#ffffff;fill-opacity:1;stroke:none" />
  <g
     id="g44" />
  <g
     id="g46">
    <g
       clip-path="url(#clipPath-369610194)"
       id="g48">
      <g
         transform="translate(1,1)"
         id="g50">
        <g
           opacity="0.1"
           id="g52">
          <!-- color: #e0491e -->
          <g
             id="g54">
            <path
               d="m 24.387 19.1 c 0 3.785 -3.195 6.852 -7.125 6.852 c -3.934 0 -7.121 -3.07 -7.121 -6.852 c 0 -3.785 3.191 -6.848 7.121 -6.848 c 3.938 0 7.125 3.063 7.125 6.848 m 0 0"
               fill="#000"
               stroke="none"
               fill-rule="evenodd"
               fill-opacity="1"
               id="path56" />
            <path
               d="m 24.438 28.05 c 0 4.227 -3.23 7.652 -7.219 7.652 c -3.984 0 -7.215 -3.426 -7.215 -7.652 c 0 -4.223 3.23 -7.648 7.215 -7.648 c 3.988 0 7.219 3.426 7.219 7.648 m 0 0"
               fill="#000"
               stroke="none"
               fill-rule="evenodd"
               fill-opacity="1"
               id="path58" />
            <path
               d="m 38 19.5 c 0 4.141 -3.238 7.5 -7.227 7.5 c -3.988 0 -7.227 -3.359 -7.227 -7.5 c 0 -4.145 3.238 -7.504 7.227 -7.504 c 3.988 0 7.227 3.359 7.227 7.504 m 0 0"
               fill="#000"
               stroke="none"
               fill-rule="evenodd"
               fill-opacity="1"
               id="path60" />
            <path
               d="m 37.602 28.348 c 0 4.223 -3.145 7.648 -7.02 7.648 c -3.879 0 -7.02 -3.426 -7.02 -7.648 c 0 -4.227 3.145 -7.652 7.02 -7.652 c 3.879 0 7.02 3.426 7.02 7.652 m 0 0"
               fill="#000"
               stroke="none"
               fill-rule="evenodd"
               fill-opacity="1"
               id="path62" />
            <path
               d="m 16.715 19.578 l 14.801 0 l 0 8.906 l -14.801 0 m 0 -8.906"
               fill="#000"
               stroke="none"
               fill-rule="nonzero"
               fill-opacity="0.988"
               id="path64" />
            <path
               d="m 30.875 16.914 c -1.203 0.02 -2.164 1.027 -2.148 2.254 c 0 1.738 -0.246 2.102 -0.426 2.254 c -0.18 0.148 -1.141 0.496 -3.262 0.496 c -2.199 0 -4.25 -0.242 -6.352 0.598 c -1.051 0.418 -2.098 1.258 -2.711 2.402 c -0.613 1.141 -0.84 2.457 -0.84 3.977 c 0 1.23 0.98 2.23 2.191 2.23 c 1.207 0 2.188 -1 2.188 -2.23 c 0 -1.051 0.176 -1.609 0.297 -1.84 c 0.125 -0.23 0.164 -0.262 0.477 -0.383 c 0.625 -0.25 2.426 -0.293 4.754 -0.293 c 2.434 0 4.41 -0.152 6.03 -1.496 c 1.621 -1.344 2.039 -3.469 2.039 -5.707 c 0.008 -0.602 -0.227 -1.18 -0.645 -1.605 c -0.418 -0.426 -0.988 -0.66 -1.582 -0.652 m -0.008 -0.004"
               fill="#000"
               stroke="none"
               fill-rule="nonzero"
               id="path66" />
            <path
               d="m 30.879 23.711 c -1.203 0.023 -2.164 1.031 -2.148 2.258 l 0 2.617 c 0 1.23 0.98 2.23 2.188 2.23 c 1.211 0 2.191 -1 2.191 -2.23 l -0.004 -2.617 c 0.008 -0.602 -0.227 -1.184 -0.645 -1.605 c -0.418 -0.426 -0.988 -0.66 -1.582 -0.652 m 0 0"
               fill="#000"
               stroke="none"
               fill-rule="nonzero"
               fill-opacity="1"
               id="path68" />
            <path
               d="m 20.348 19.277 c 0 0.676 -0.004 2.559 -0.004 2.559 c 0 0 -1.848 0.008 -2.602 0.008 c -1.441 0 -2.609 -1.148 -2.609 -2.563 c 0 -1.414 1.172 -2.559 2.609 -2.559 c 1.441 0 2.605 1.145 2.605 2.559 m 0 -0.004"
               fill="#000"
               stroke="none"
               fill-rule="nonzero"
               fill-opacity="0.988"
               id="path70" />
          </g>
        </g>
      </g>
    </g>
  </g>
  <g
     id="g72">
    <g
       clip-path="url(#clipPath-377450625)"
       id="g74">
      <!-- color: #e0491e -->
      <g
         id="g76">
        <path
           d="m 24.387 19.1 c 0 3.785 -3.195 6.852 -7.125 6.852 c -3.934 0 -7.121 -3.07 -7.121 -6.852 c 0 -3.785 3.191 -6.848 7.121 -6.848 c 3.938 0 7.125 3.063 7.125 6.848 m 0 0"
           fill="#fff"
           stroke="none"
           fill-rule="evenodd"
           fill-opacity="1"
           id="path78" />
        <path
           d="m 24.438 28.05 c 0 4.227 -3.23 7.652 -7.219 7.652 c -3.984 0 -7.215 -3.426 -7.215 -7.652 c 0 -4.223 3.23 -7.648 7.215 -7.648 c 3.988 0 7.219 3.426 7.219 7.648 m 0 0"
           fill="#fff"
           stroke="none"
           fill-rule="evenodd"
           fill-opacity="1"
           id="path80" />
        <path
           d="m 38 19.5 c 0 4.141 -3.238 7.5 -7.227 7.5 c -3.988 0 -7.227 -3.359 -7.227 -7.5 c 0 -4.145 3.238 -7.504 7.227 -7.504 c 3.988 0 7.227 3.359 7.227 7.504 m 0 0"
           fill="#fff"
           stroke="none"
           fill-rule="evenodd"
           fill-opacity="1"
           id="path82" />
        <path
           d="m 37.602 28.348 c 0 4.223 -3.145 7.648 -7.02 7.648 c -3.879 0 -7.02 -3.426 -7.02 -7.648 c 0 -4.227 3.145 -7.652 7.02 -7.652 c 3.879 0 7.02 3.426 7.02 7.652 m 0 0"
           fill="#fff"
           stroke="none"
           fill-rule="evenodd"
           fill-opacity="1"
           id="path84" />
        <path
           d="m 16.715 19.578 l 14.801 0 l 0 8.906 l -14.801 0 m 0 -8.906"
           fill="#fff"
           stroke="none"
           fill-rule="nonzero"
           fill-opacity="0.988"
           id="path86" />
        <path
           d="m 30.875 16.914 c -1.203 0.02 -2.164 1.027 -2.148 2.254 c 0 1.738 -0.246 2.102 -0.426 2.254 c -0.18 0.148 -1.141 0.496 -3.262 0.496 c -2.199 0 -4.25 -0.242 -6.352 0.598 c -1.051 0.418 -2.098 1.258 -2.711 2.402 c -0.613 1.141 -0.84 2.457 -0.84 3.977 c 0 1.23 0.98 2.23 2.191 2.23 c 1.207 0 2.188 -1 2.188 -2.23 c 0 -1.051 0.176 -1.609 0.297 -1.84 c 0.125 -0.23 0.164 -0.262 0.477 -0.383 c 0.625 -0.25 2.426 -0.293 4.754 -0.293 c 2.434 0 4.41 -0.152 6.03 -1.496 c 1.621 -1.344 2.039 -3.469 2.039 -5.707 c 0.008 -0.602 -0.227 -1.18 -0.645 -1.605 c -0.418 -0.426 -0.988 -0.66 -1.582 -0.652 m -0.008 -0.004"
           fill="url(#linear0)"
           stroke="none"
           fill-rule="nonzero"
           id="path88" />
        <path
           d="m 30.879 23.711 c -1.203 0.023 -2.164 1.031 -2.148 2.258 l 0 2.617 c 0 1.23 0.98 2.23 2.188 2.23 c 1.211 0 2.191 -1 2.191 -2.23 l -0.004 -2.617 c 0.008 -0.602 -0.227 -1.184 -0.645 -1.605 c -0.418 -0.426 -0.988 -0.66 -1.582 -0.652 m 0 0"
           fill="#eb5f28"
           stroke="none"
           fill-rule="nonzero"
           fill-opacity="1"
           id="path90" />
        <path
           d="m 20.348 19.277 c 0 0.676 -0.004 2.559 -0.004 2.559 c 0 0 -1.848 0.008 -2.602 0.008 c -1.441 0 -2.609 -1.148 -2.609 -2.563 c 0 -1.414 1.172 -2.559 2.609 -2.559 c 1.441 0 2.605 1.145 2.605 2.559 m 0 -0.004"
           fill="#ec622d"
           stroke="none"
           fill-rule="nonzero"
           fill-opacity="0.988"
           id="path92" />
      </g>
    </g>
  </g>
</svg>
