<?xml version="1.0" encoding="UTF-8" standalone="no"?>
<svg
   xmlns:dc="http://purl.org/dc/elements/1.1/"
   xmlns:cc="http://creativecommons.org/ns#"
   xmlns:rdf="http://www.w3.org/1999/02/22-rdf-syntax-ns#"
   xmlns:svg="http://www.w3.org/2000/svg"
   xmlns="http://www.w3.org/2000/svg"
   xmlns:xlink="http://www.w3.org/1999/xlink"
   xmlns:sodipodi="http://sodipodi.sourceforge.net/DTD/sodipodi-0.dtd"
   xmlns:inkscape="http://www.inkscape.org/namespaces/inkscape"
   height="48"
   width="48"
   version="1"
   id="svg16"
   sodipodi:docname="yandex-disk.svg"
   inkscape:version="0.92.1 r15371">
  <metadata
     id="metadata22">
    <rdf:RDF>
      <cc:Work
         rdf:about="">
        <dc:format>image/svg+xml</dc:format>
        <dc:type
           rdf:resource="http://purl.org/dc/dcmitype/StillImage" />
        <dc:title></dc:title>
      </cc:Work>
    </rdf:RDF>
  </metadata>
  <defs
     id="defs20">
    <linearGradient
       inkscape:collect="always"
       id="linearGradient4519">
      <stop
         style="stop-color:#3f3f3f;stop-opacity:1;"
         offset="0"
         id="stop4515" />
      <stop
         style="stop-color:#616161;stop-opacity:1"
         offset="1"
         id="stop4517" />
    </linearGradient>
    <linearGradient
       inkscape:collect="always"
       id="linearGradient4511">
      <stop
         style="stop-color:#fbfbfb;stop-opacity:1;"
         offset="0"
         id="stop4507" />
      <stop
         style="stop-color:#dbdbdb;stop-opacity:1"
         offset="1"
         id="stop4509" />
    </linearGradient>
    <linearGradient
       inkscape:collect="always"
       id="linearGradient4503">
      <stop
         style="stop-color:#4377c9;stop-opacity:1"
         offset="0"
         id="stop4499" />
      <stop
         style="stop-color:#78a4ea;stop-opacity:1"
         offset="1"
         id="stop4501" />
    </linearGradient>
    <linearGradient
       inkscape:collect="always"
       xlink:href="#linearGradient4503"
       id="linearGradient4505"
       x1="19.74929"
       y1="37.314842"
       x2="19.037062"
       y2="23.772406"
       gradientUnits="userSpaceOnUse" />
    <linearGradient
       inkscape:collect="always"
       xlink:href="#linearGradient4511"
       id="linearGradient4513"
       x1="16.696163"
       y1="33.99086"
       x2="19.105396"
       y2="41.899483"
       gradientUnits="userSpaceOnUse" />
    <linearGradient
       inkscape:collect="always"
       xlink:href="#linearGradient4519"
       id="linearGradient4521"
       x1="25.826155"
       y1="20.917522"
       x2="21.470417"
       y2="11.895783"
       gradientUnits="userSpaceOnUse" />
  </defs>
  <sodipodi:namedview
     pagecolor="#ffffff"
     bordercolor="#666666"
     borderopacity="1"
     objecttolerance="10"
     gridtolerance="10"
     guidetolerance="10"
     inkscape:pageopacity="0"
     inkscape:pageshadow="2"
     inkscape:window-width="1600"
     inkscape:window-height="808"
     id="namedview18"
     showgrid="false"
     inkscape:zoom="9.2"
     inkscape:cx="19.948044"
     inkscape:cy="24"
     inkscape:window-x="0"
     inkscape:window-y="0"
     inkscape:window-maximized="1"
     inkscape:current-layer="svg16" />
  <path
     style="fill:url(#linearGradient4521);fill-opacity:1"
     d="m 22.666666,11 c -9.333333,0 -7.162477,8.261197 -11.941152,10.829477 -4.8480705,2.75048 -2.1770305,5.212769 -1.3921812,7.870537 1.3241092,4.431643 5.0332732,1.300563 15.9999992,-1.333333 10.966193,-2.633291 13.324275,-2.235354 12,-6.666667 -0.794047,-2.628129 1.812155,-5.063845 -3.854856,-5.295777 C 28.872386,16.65652 29.333332,11 22.666666,11 Z"
     id="path4" />
  <ellipse
     style="fill:url(#linearGradient4505);fill-opacity:1"
     cx="15.737"
     cy="30.996"
     rx="21.465"
     ry="8.958"
     transform="matrix(0.97126183,-0.23801355,0.28116226,0.95966024,0,0)"
     id="ellipse8" />
  <path
     style="opacity:0.2;fill:#000000;fill-opacity:1;stroke-width:0.99950075"
     d="M 44.945312 21.486328 A 8.9471768 21.469514 76.769382 0 1 26.517578 33.595703 A 8.9471768 21.469514 76.769382 0 1 3.1523438 30.109375 A 8.9471768 21.469514 76.769382 0 1 3.0527344 29.511719 A 8.9471768 21.469514 76.769382 0 0 3.1523438 31.109375 A 8.9471768 21.469514 76.769382 0 0 26.517578 34.595703 A 8.9471768 21.469514 76.769382 0 0 44.945312 21.486328 z "
     id="ellipse4523" />
  <ellipse
     transform="matrix(0.97533058,-0.22074931,0.22641316,0.97403136,0,0)"
     ry="4.064"
     rx="9.694"
     cy="37.328"
     cx="17.48"
     style="fill:url(#linearGradient4513);fill-opacity:1"
     id="ellipse12" />
  <path
     style="opacity:0.2;fill:#000000;fill-opacity:1;stroke-width:0.99999154"
     d="M 34.923828 30.263672 A 4.0639169 9.6940351 77.317943 0 1 26.419922 35.458984 A 4.0639169 9.6940351 77.317943 0 1 16.076172 33.734375 A 4.0639169 9.6940351 77.317943 0 0 16.044922 34.640625 A 4.0639169 9.6940351 77.317943 0 0 26.419922 36.458984 A 4.0639169 9.6940351 77.317943 0 0 34.955078 30.359375 A 4.0639169 9.6940351 77.317943 0 0 34.923828 30.263672 z "
     id="ellipse4528" />
</svg>
