<?xml version="1.0" encoding="UTF-8" standalone="no"?>
<!-- Created with Inkscape (http://www.inkscape.org/) -->

<svg
   xmlns:osb="http://www.openswatchbook.org/uri/2009/osb"
   xmlns:dc="http://purl.org/dc/elements/1.1/"
   xmlns:cc="http://creativecommons.org/ns#"
   xmlns:rdf="http://www.w3.org/1999/02/22-rdf-syntax-ns#"
   xmlns:svg="http://www.w3.org/2000/svg"
   xmlns="http://www.w3.org/2000/svg"
   xmlns:sodipodi="http://sodipodi.sourceforge.net/DTD/sodipodi-0.dtd"
   xmlns:inkscape="http://www.inkscape.org/namespaces/inkscape"
   sodipodi:docname="text-html-symbolic.svg"
   inkscape:export-filename="/home/sam/img/source-symbolic.png"
   inkscape:export-xdpi="270"
   inkscape:export-ydpi="270"
   height="16"
   id="svg7384"
   style="enable-background:new"
   version="1.1"
   inkscape:version="0.48.5 r10040"
   width="16">
  <sodipodi:namedview
     inkscape:bbox-nodes="true"
     inkscape:bbox-paths="true"
     bordercolor="#666666"
     borderlayer="false"
     borderopacity="1"
     inkscape:current-layer="layer14"
     inkscape:cx="17.041206"
     inkscape:cy="5.3500424"
     gridtolerance="10"
     inkscape:guide-bbox="true"
     guidetolerance="10"
     id="namedview88"
     inkscape:object-nodes="true"
     inkscape:object-paths="true"
     objecttolerance="10"
     pagecolor="#333333"
     inkscape:pageopacity="1"
     inkscape:pageshadow="2"
     showborder="true"
     showgrid="false"
     showguides="true"
     inkscape:showpageshadow="true"
     inkscape:snap-bbox="true"
     inkscape:snap-bbox-edge-midpoints="false"
     inkscape:snap-bbox-midpoints="false"
     inkscape:snap-center="false"
     inkscape:snap-global="true"
     inkscape:snap-grids="true"
     inkscape:snap-intersection-paths="true"
     inkscape:snap-midpoints="true"
     inkscape:snap-nodes="true"
     inkscape:snap-object-midpoints="true"
     inkscape:snap-others="true"
     inkscape:snap-page="false"
     inkscape:snap-smooth-nodes="true"
     inkscape:snap-to-guides="true"
     inkscape:window-height="744"
     inkscape:window-maximized="1"
     inkscape:window-width="1366"
     inkscape:window-x="0"
     inkscape:window-y="24"
     inkscape:zoom="16">
    <inkscape:grid
       color="#000000"
       dotted="false"
       empcolor="#0800ff"
       empopacity="0.4627451"
       empspacing="4"
       enabled="true"
       id="grid4866"
       opacity="0.16470588"
       originx="-560px"
       originy="-496px"
       snapvisiblegridlinesonly="true"
       spacingx="0.25px"
       spacingy="0.25px"
       type="xygrid"
       visible="true" />
  </sodipodi:namedview>
  <metadata
     id="metadata90">
    <rdf:RDF>
      <cc:Work
         rdf:about="">
        <dc:format>image/svg+xml</dc:format>
        <dc:type
           rdf:resource="http://purl.org/dc/dcmitype/StillImage" />
        <dc:title>Moka Symbolic Icon Theme</dc:title>
      </cc:Work>
    </rdf:RDF>
  </metadata>
  <title
     id="title8473">Moka Symbolic Icon Theme</title>
  <defs
     id="defs7386">
    <linearGradient
       id="linearGradient5606"
       osb:paint="solid">
      <stop
         id="stop5608"
         offset="0"
         style="stop-color:#000000;stop-opacity:1;" />
    </linearGradient>
    <filter
       inkscape:collect="always"
       color-interpolation-filters="sRGB"
       id="filter7554">
      <feBlend
         inkscape:collect="always"
         id="feBlend7556"
         in2="BackgroundImage"
         mode="darken" />
    </filter>
  </defs>
  <g
     inkscape:groupmode="layer"
     id="layer9"
     inkscape:label="status"
     style="display:inline"
     transform="translate(-801.0002,279)" />
  <g
     inkscape:groupmode="layer"
     id="layer10"
     inkscape:label="devices"
     style="display:inline;filter:url(#filter7554)"
     transform="translate(-801.0002,279)" />
  <g
     inkscape:groupmode="layer"
     id="layer1"
     inkscape:label="places"
     style="display:inline"
     transform="translate(-560,-338)" />
  <g
     inkscape:groupmode="layer"
     id="layer14"
     inkscape:label="mimetypes"
     style="display:inline"
     transform="translate(-801.0002,279)">
    <path
       inkscape:connector-curvature="0"
       d="m 809.0002,-278 c -3.86599,0 -7,3.13401 -7,7 0,3.86599 3.13401,7 7,7 3.86599,0 7,-3.13401 7,-7 0,-3.86599 -3.13401,-7 -7,-7 z m 0,1 a 6,6 0 0 1 6,6 6,6 0 0 1 -6,6 6,6 0 0 1 -6,-6 6,6 0 0 1 0.1875,-1.46875 c 0.003,-0.0139 -0.004,-0.0174 0,-0.0312 a 6,6 0 0 1 0.1875,-0.59375 c 0.0115,-0.0314 0.0193,-0.0626 0.0312,-0.0937 a 6,6 0 0 1 0.25,-0.53125 c 0.0105,-0.0208 0.0205,-0.0419 0.0312,-0.0625 a 6,6 0 0 1 0.3125,-0.5 c 0.0184,-0.0281 0.0124,-0.066 0.0312,-0.0937 a 6,6 0 0 1 0.0312,0 6,6 0 0 1 0.375,-0.5 c 0.0912,-0.10821 0.18272,-0.21109 0.28125,-0.3125 a 6,6 0 0 1 0.125,-0.125 c 0.11933,-0.11562 0.24632,-0.23836 0.375,-0.34375 a 6,6 0 0 1 0.0625,-0.0625 c 0.13446,-0.10607 0.29391,-0.21812 0.4375,-0.3125 a 6,6 0 0 1 0.0625,-0.0312 c 0.14935,-0.0947 0.31061,-0.1998 0.46875,-0.28125 a 6,6 0 0 1 0.0625,-0.0312 c 0.11098,-0.0554 0.22885,-0.10765 0.34375,-0.15625 0.0553,-0.0234 0.1002,-0.0409 0.15625,-0.0625 0.17166,-0.0659 0.35248,-0.13797 0.53125,-0.1875 a 6,6 0 0 1 0.1875,-0.0312 c 0.0869,-0.0215 0.16157,-0.0444 0.25,-0.0625 0.0372,-0.008 0.0876,-0.0241 0.125,-0.0312 a 6,6 0 0 1 0.21875,-0.0312 c 0.0802,-0.0121 0.16843,-0.023 0.25,-0.0312 0.0233,-0.002 0.0383,-2.5e-4 0.0625,0 A 6,6 0 0 1 809.0002,-277 z m -0.5,0.9375 c -0.16822,0.0171 -0.33709,0.0292 -0.5,0.0625 -0.32709,0.0669 -0.63693,0.15412 -0.9375,0.28125 -1.43651,0.60759 -2.52011,1.86819 -2.90625,3.40625 0.01,0.0109 0.0198,0.019 0.0312,0.0312 0.26953,0.28784 0.97643,0.68555 1.5,0.875 0.28637,0.10363 0.84017,0.26615 1.21875,0.34375 0.37859,0.0775 0.63105,0.15325 0.59375,0.15625 -0.0373,0.003 -0.20667,0.12991 -0.375,0.28125 -0.32108,0.28867 -0.48623,0.54313 -0.625,1 -0.0761,0.25015 -0.0679,0.33334 0.0312,0.46875 0.0598,0.0816 0.32777,0.27286 0.59375,0.4375 0.26597,0.16465 0.57658,0.39248 0.6875,0.5 0.41326,0.40055 0.6875,1.11672 0.6875,1.8125 0,0.17804 0.0182,0.272 0.0312,0.3125 0.0338,0.003 0.0598,-0.003 0.0937,0 0.0765,-0.0295 0.19268,-0.065 0.375,-0.15625 1.52765,-0.76473 2.22505,-1.75252 2.15625,-3.0625 -0.0548,-1.04463 -0.54454,-1.42268 -2.53125,-1.84375 -1.46292,-0.31006 -2.25,-0.83706 -2.25,-1.5 0,-0.17482 0.059,-0.27779 0.25,-0.46875 0.20527,-0.20529 0.24758,-0.2192 0.40625,-0.1875 0.10105,0.0202 0.36187,0.15364 0.5625,0.3125 0.45163,0.35763 0.67268,0.5 0.90625,0.5 0.0995,0 0.1875,-0.0163 0.1875,-0.0312 0,-0.0149 -0.0746,-0.12954 -0.15625,-0.25 -0.45092,-0.66439 -0.42336,-1.90739 0.0625,-2.96875 0.0763,-0.16663 0.133,-0.28051 0.125,-0.3125 -0.0675,0.004 -0.15186,-0.007 -0.21875,0 z m 4.6875,2.34375 c -0.0909,-0.0561 -0.83013,0.72101 -1,1.0625 -0.33684,0.67717 -0.21039,1.12022 0.59375,1.96875 0.27859,0.29395 0.6138,0.68906 0.71875,0.875 0.10494,0.18597 0.19415,0.3391 0.21875,0.3125 0.0246,-0.0266 0.0986,-0.24031 0.15625,-0.46875 0.15161,-0.60025 0.16344,-1.64581 0,-2.25 -0.12659,-0.46795 -0.57005,-1.4274 -0.6875,-1.5 z"
       id="path5998"
       style="fill:#4d4d4d;fill-opacity:1;stroke:none" />
  </g>
  <g
     inkscape:groupmode="layer"
     id="layer15"
     inkscape:label="emblems"
     style="display:inline"
     transform="translate(-801.0002,279)" />
  <g
     inkscape:groupmode="layer"
     id="g71291"
     inkscape:label="emotes"
     style="display:inline"
     transform="translate(-801.0002,279)" />
  <g
     inkscape:groupmode="layer"
     id="layer2"
     inkscape:label="categories"
     style="display:inline"
     transform="translate(-560,-188)" />
  <g
     inkscape:groupmode="layer"
     id="g6058"
     inkscape:label="apps"
     style="display:inline"
     transform="translate(-560,-188)" />
  <g
     inkscape:groupmode="layer"
     id="layer12"
     inkscape:label="actions"
     style="display:inline"
     transform="translate(-801.0002,279)" />
</svg>
