<?xml version="1.0" encoding="UTF-8" standalone="no"?>
<!-- Created with Inkscape (http://www.inkscape.org/) -->

<svg
   xmlns:dc="http://purl.org/dc/elements/1.1/"
   xmlns:cc="http://creativecommons.org/ns#"
   xmlns:rdf="http://www.w3.org/1999/02/22-rdf-syntax-ns#"
   xmlns:svg="http://www.w3.org/2000/svg"
   xmlns="http://www.w3.org/2000/svg"
   xmlns:xlink="http://www.w3.org/1999/xlink"
   xmlns:sodipodi="http://sodipodi.sourceforge.net/DTD/sodipodi-0.dtd"
   xmlns:inkscape="http://www.inkscape.org/namespaces/inkscape"
   width="48"
   height="48"
   id="svg5453"
   version="1.1"
   inkscape:version="0.48.5 r10040"
   sodipodi:docname="debian.svg">
  <defs
     id="defs5455">
    <linearGradient
       inkscape:collect="always"
       id="linearGradient4618">
      <stop
         style="stop-color:#e52d7c;stop-opacity:1"
         offset="0"
         id="stop4620" />
      <stop
         style="stop-color:#f26ab0;stop-opacity:0.99803919"
         offset="1"
         id="stop4622" />
    </linearGradient>
    <linearGradient
       inkscape:collect="always"
       xlink:href="#linearGradient4618"
       id="linearGradient4587"
       x1="423.0368"
       y1="-547.94263"
       x2="423.0368"
       y2="-499.9332"
       gradientUnits="userSpaceOnUse" />
  </defs>
  <sodipodi:namedview
     id="base"
     pagecolor="#ffffff"
     bordercolor="#666666"
     borderopacity="1.0"
     inkscape:pageopacity="0"
     inkscape:pageshadow="2"
     inkscape:zoom="4"
     inkscape:cx="29.111135"
     inkscape:cy="45.97543"
     inkscape:document-units="px"
     inkscape:current-layer="layer1"
     showgrid="true"
     fit-margin-top="0"
     fit-margin-left="0"
     fit-margin-right="0"
     fit-margin-bottom="0"
     inkscape:window-width="1301"
     inkscape:window-height="744"
     inkscape:window-x="65"
     inkscape:window-y="24"
     inkscape:window-maximized="1">
    <inkscape:grid
       type="xygrid"
       id="grid3000" />
  </sodipodi:namedview>
  <metadata
     id="metadata5458">
    <rdf:RDF>
      <cc:Work
         rdf:about="">
        <dc:format>image/svg+xml</dc:format>
        <dc:type
           rdf:resource="http://purl.org/dc/dcmitype/StillImage" />
        <dc:title />
      </cc:Work>
    </rdf:RDF>
  </metadata>
  <g
     inkscape:label="Capa 1"
     inkscape:groupmode="layer"
     id="layer1"
     transform="translate(-384.57143,-499.798)">
    <path
       style="fill:#e63281;fill-opacity:1;display:inline"
       id="path2536"
       inkscape:connector-curvature="0"
       d="m 420.9058,520.91837 c 0.0401,1.07939 -0.31492,1.60386 -0.63614,2.53135 l -0.57769,0.28727 c -0.47221,0.91764 0.0475,0.58257 -0.29127,1.3121 -0.73803,0.65539 -2.23647,2.05015 -2.71626,2.17797 -0.35073,-0.004 0.2372,-0.41368 0.31405,-0.57228 -0.9869,0.67727 -0.7921,1.0168 -2.30171,1.42914 l -0.0439,-0.0984 c -3.72151,1.75131 -8.89138,-1.71865 -8.82351,-6.4525 -0.0396,0.30023 -0.11247,0.22519 -0.19535,0.34579 -0.19201,-2.43525 1.12495,-4.88128 3.34621,-5.88155 2.17259,-1.07492 4.71954,-0.6344 6.27472,0.81712 -0.85419,-1.11957 -2.55592,-2.30661 -4.57121,-2.19671 -1.97515,0.0321 -3.82337,1.2871 -4.43992,2.65017 -1.01145,0.63663 -1.12938,2.45536 -1.56988,2.78865 -0.59376,4.36037 1.11556,6.24342 4.00742,8.45981 0.45391,0.30648 0.12793,0.3534 0.18838,0.58659 -0.96056,-0.44944 -1.83978,-1.1285 -2.56353,-1.95993 0.38424,0.56158 0.79836,1.10752 1.33405,1.53643 -0.90649,-0.30605 -2.11675,-2.19494 -2.46924,-2.27177 1.56146,2.79578 6.33415,4.90317 8.83462,3.8573 -1.1571,0.0425 -2.62646,0.0238 -3.92564,-0.4566 -0.54725,-0.28101 -1.28844,-0.86222 -1.15577,-0.9708 3.41145,1.2737 6.93457,0.96409 9.88587,-1.40148 0.75144,-0.58522 1.5717,-1.58018 1.80894,-1.59357 -0.35699,0.537 0.0616,0.25821 -0.2132,0.73222 0.74699,-1.20666 -0.32567,-0.49143 0.77291,-2.08366 l 0.40565,0.55843 c -0.15185,-1.0025 1.24422,-2.2186 1.10213,-3.8028 0.32035,-0.48427 0.35698,0.5218 0.0175,1.63601 0.47134,-1.23616 0.12441,-1.43496 0.24528,-2.45536 0.13007,0.3431 0.30291,0.70723 0.39091,1.06952 -0.30737,-1.19504 0.31407,-2.01174 0.46866,-2.70646 -0.15249,-0.0669 -0.47402,0.5281 -0.54818,-0.88277 0.0147,-0.61296 0.1713,-0.32122 0.23225,-0.47222 -0.11987,-0.0695 -0.43558,-0.53925 -0.62725,-1.44034 0.13808,-0.21227 0.37172,0.54903 0.56113,0.57987 -0.12194,-0.71617 -0.33149,-1.26256 -0.34043,-1.81249 -0.55397,-1.15712 -0.19599,0.1544 -0.64468,-0.49678 -0.5897,-1.83798 0.48876,-0.42667 0.56205,-1.2612 0.89259,1.29334 1.40146,3.29929 1.63601,4.12982 -0.17851,-1.0128 -0.46686,-1.99435 -0.81935,-2.94371 0.27206,0.11442 -0.4374,-2.08322 0.35339,-0.62769 -0.84395,-3.10273 -3.60892,-6.00218 -6.15324,-7.36212 0.31056,0.2846 0.70322,0.642 0.56299,0.6983 -1.26617,-0.75279 -1.04365,-0.81221 -1.22503,-1.13033 -1.02979,-0.41947 -1.09859,0.0342 -1.77994,0.001 -1.94331,-1.03111 -2.3177,-0.92166 -4.1061,-1.56679 l 0.0816,0.38065 c -1.28712,-0.42887 -1.49981,0.16174 -2.89054,0.001 -0.0843,-0.0658 0.44587,-0.23946 0.88279,-0.30246 -1.24466,0.16435 -1.18659,-0.24571 -2.40444,0.0446 0.29978,-0.21035 0.61788,-0.35023 0.93775,-0.529 -1.01458,0.0618 -2.42323,0.59064 -1.98852,0.10857 -1.65524,0.73892 -4.59535,1.77587 -6.24525,3.323 l -0.0518,-0.3467 c -0.75589,0.90736 -3.29662,2.71007 -3.49901,3.88633 l -0.20227,0.0465 c -0.39276,0.66608 -0.64781,1.42067 -0.95967,2.10554 -0.51419,0.877 -0.75411,0.33777 -0.68089,0.47537 -1.01184,2.0515 -1.51537,3.77512 -1.94919,5.18955 0.30915,0.46239 0.004,2.7842 0.12415,4.64226 -0.50753,9.17818 6.44137,18.08877 14.03711,20.14562 1.11336,0.39898 2.76858,0.38465 4.17678,0.42399 -1.66103,-0.47538 -1.87555,-0.25157 -3.49457,-0.81578 -1.1674,-0.55041 -1.42288,-1.17806 -2.25027,-1.89605 l 0.32744,0.57859 c -1.62167,-0.57416 -0.94305,-0.71039 -2.26281,-1.12816 l 0.34979,-0.45606 c -0.52581,-0.0401 -1.39252,-0.88553 -1.6293,-1.35503 l -0.57543,0.0238 c -0.6907,-0.85156 -1.05929,-1.46675 -1.03201,-1.94341 l -0.18591,0.33145 c -0.21031,-0.36141 -2.5425,-3.19785 -1.33267,-2.5375 -0.22471,-0.20469 -0.52358,-0.33375 -0.8475,-0.923 l 0.24616,-0.2811 c -0.58123,-0.74922 -1.07133,-1.70926 -1.0338,-2.0291 0.31051,0.41903 0.52586,0.49764 0.7394,0.56962 -1.4703,-3.64739 -1.55293,-0.20063 -2.66584,-3.71261 l 0.23508,-0.0193 c -0.18,-0.27293 -0.2904,-0.56735 -0.43517,-0.8573 l 0.10247,-1.02082 c -1.05791,-1.22234 -0.29577,-5.2025 -0.14239,-7.38494 0.10454,-0.88722 0.88324,-1.83214 1.47431,-3.31404 l -0.36009,-0.0618 c 0.68889,-1.20091 3.93237,-4.82456 5.43525,-4.63872 0.72776,-0.91406 -0.14444,-0.001 -0.28727,-0.23317 1.59894,-1.65431 2.10155,-1.1687 3.18049,-1.46669 1.1629,-0.69023 -0.9985,0.26983 -0.44722,-0.26316 2.01176,-0.51328 1.42515,-1.16781 4.04898,-1.42827 0.27698,0.15745 -0.642,0.24303 -0.87252,0.44721 1.67532,-0.82023 5.30255,-0.63305 7.65962,0.45479 2.73283,1.2782 5.8052,5.05464 5.92672,8.60769 l 0.13807,0.0375 c -0.0699,1.41266 0.21623,3.04645 -0.28016,4.54667 l 0.33557,-0.71078" />
    <path
       style="fill:#e52f7d;fill-opacity:0.31372549;display:inline"
       d="m 409.66467,506.44009 c -1.00731,0.0299 -1.91081,0.19465 -2.53906,0.50224 0.23052,-0.20419 1.14954,-0.28899 0.87256,-0.44643 -2.62383,0.26045 -2.03652,0.91478 -4.04828,1.42806 -0.55127,0.53299 1.60933,-0.42643 0.44643,0.26381 -1.07894,0.29798 -1.58186,-0.18821 -3.1808,1.4661 0.14283,0.23195 1.01438,-0.68069 0.28662,0.23336 -1.50288,-0.18583 -4.74433,3.4384 -5.43323,4.63931 l 0.36018,0.0609 c -0.59106,1.4819 -1.37171,2.42803 -1.47625,3.31525 -0.10143,1.44314 -0.45656,3.65903 -0.38809,5.35713 0.0604,-1.49309 0.30646,-3.15828 0.38809,-4.31971 0.10454,-0.88722 0.88519,-1.8308 1.47625,-3.31269 l -0.36018,-0.0634 c 0.6889,-1.20091 3.93035,-4.82259 5.43323,-4.63676 0.72776,-0.91405 -0.14379,-0.001 -0.28662,-0.23336 1.59894,-1.65431 2.10186,-1.17065 3.1808,-1.46864 1.1629,-0.69023 -0.9977,0.27172 -0.44643,-0.26127 2.01176,-0.51328 1.42445,-1.16761 4.04828,-1.42806 0.27698,0.15744 -0.64204,0.24225 -0.87256,0.44643 1.67532,-0.82024 5.30323,-0.63381 7.6603,0.45403 2.73283,1.2782 5.8038,5.05592 5.92532,8.60897 l 0.1395,0.038 c -0.0212,0.42875 1.3e-4,0.89998 0.013,1.35957 0.008,-0.82707 -0.05,-1.64465 -0.013,-2.39954 l -0.1395,-0.0381 c -0.12156,-3.55304 -3.19249,-7.32822 -5.92532,-8.60641 -1.47318,-0.67999 -3.4424,-1.00869 -5.12124,-0.9589 z m 13.33957,5.52455 c -0.0732,0.83453 -1.15281,-0.57733 -0.56311,1.26065 0.0117,0.0166 0.0174,0.0188 0.0279,0.033 0.08,0.006 0.16989,0.0225 0.25619,0.0279 0.0192,-0.0555 0.0467,-0.0736 0.10649,-0.008 0.0858,-0.0242 0.15625,-0.089 0.17248,-0.27395 0.8926,1.29335 1.40152,3.29893 1.63607,4.12946 -0.17851,-1.0128 -0.46681,-1.99554 -0.8193,-2.9449 0.10545,0.0443 0.0601,-0.26022 0.0152,-0.56311 -0.23279,-0.5868 -0.49659,-1.17535 -0.83194,-1.66127 z m 0.83705,0.64935 c 0.0314,0.21292 0.0567,0.41333 0.0304,0.49463 0.058,0.0467 0.14391,0.16333 0.30184,0.45403 -0.0868,-0.3195 -0.20692,-0.63492 -0.33223,-0.94866 z m -13.15694,2.00386 c -0.49378,0.008 -0.98008,0.0925 -1.44074,0.23589 -0.0309,0.0134 -0.0631,0.0216 -0.0939,0.0355 -0.0561,0.0256 -0.11428,0.0409 -0.16995,0.0684 -2.22127,1.00027 -3.53768,3.44693 -3.34567,5.88219 0.006,-0.009 0.0117,-0.0104 0.0178,-0.0178 0.19948,-2.05818 1.4291,-3.96939 3.32791,-4.82446 2.17258,-1.07492 4.72018,-0.63475 6.27536,0.81677 -0.8542,-1.11943 -2.55552,-2.30639 -4.57081,-2.19649 z m 12.23619,0.29931 c -0.02,-5.6e-4 -0.0386,0.0117 -0.0559,0.038 0.14057,0.66091 0.32904,1.01352 0.47687,1.22261 -0.0784,-0.35217 -0.1401,-0.68034 -0.19025,-0.98164 -0.0838,-0.14318 -0.16401,-0.27715 -0.23077,-0.27902 z m 0.4794,1.53459 c -0.0222,0.001 -0.0429,0.0194 -0.0634,0.0405 0.0305,0.0329 0.0623,0.0765 0.0913,0.0812 -0.008,-0.045 -0.0196,-0.0779 -0.0279,-0.12169 z m -0.10143,0.70769 c 0.0147,0.12701 0.028,0.27564 0.0482,0.35512 0.0517,-0.0378 0.1139,0.004 0.14712,-0.0787 -0.0407,-0.0235 -0.12208,-0.15951 -0.19534,-0.27642 z m -30.66401,1.01714 c -0.039,0.12728 -0.0943,0.28578 -0.13191,0.40839 0.0773,0.11559 0.11767,0.34777 0.13444,0.65949 0.01,-0.40626 0.0149,-0.77732 -0.003,-1.06788 z m 31.17385,0.61385 c -0.0916,-0.0401 -0.24194,0.15062 -0.36526,0.0104 -0.15253,0.44715 -0.25322,0.94692 -0.11922,1.55995 0.11464,-0.61502 0.38515,-1.12414 0.48444,-1.57034 z m -0.85988,0.59862 c -0.0545,0.46041 -0.0153,0.75093 0.003,1.04758 0.12961,0.34035 0.30088,0.70129 0.38808,1.06026 -0.10611,-0.41253 -0.0806,-0.76793 -0.0229,-1.10084 -0.0918,-0.3417 -0.24522,-0.68352 -0.36786,-1.007 z m -2.04189,0.48954 -0.071,0.14965 c -0.0301,0.52265 -0.0921,1.04305 -0.25365,1.54982 0.19247,-0.50053 0.35095,-0.99184 0.32465,-1.69947 z m 1.88716,0.21307 c -0.031,0.0166 -0.0665,0.0561 -0.10649,0.11662 0.14209,1.58421 -1.25523,2.79975 -1.10339,3.80224 l -0.40584,-0.55804 c -1.09858,1.59224 -0.0242,0.87583 -0.7711,2.08249 0.27475,-0.47401 -0.14393,-0.19605 0.21306,-0.73305 -0.23723,0.0134 -1.05709,1.01025 -1.80853,1.59547 -2.95131,2.36557 -6.47592,2.67387 -9.88737,1.40017 -0.13268,0.10857 0.60941,0.69046 1.15666,0.97147 1.29918,0.48037 2.76689,0.49906 3.92399,0.45659 -1.44983,0.60641 -3.65385,0.13283 -5.56259,-0.90047 0.082,0.0639 0.15449,0.12585 0.23843,0.19024 0.22696,0.15324 0.26071,0.24294 0.24351,0.32214 3.41145,1.2737 6.93606,0.96287 9.88737,-1.4027 0.75144,-0.58522 1.5713,-1.57954 1.80853,-1.59293 -0.35699,0.537 0.0617,0.25903 -0.21306,0.73305 0.74698,-1.20666 -0.32748,-0.49279 0.7711,-2.08503 l 0.40584,0.55804 c -0.15184,-1.00249 1.24548,-2.21805 1.10339,-3.80225 0.0788,-0.11909 0.13953,-0.14469 0.18264,-0.10403 0.11594,-0.6527 0.0859,-1.13714 -0.0762,-1.05002 z m -13.8697,8.74593 c -0.0172,0.0792 -0.0835,0.1472 -0.0532,0.26379 -0.96056,-0.44944 -1.84067,-1.12676 -2.56442,-1.95819 0.38423,0.56159 0.79851,1.10569 1.3342,1.5346 -0.90649,-0.30605 -2.11807,-2.19336 -2.47057,-2.27019 1.56147,2.79577 6.33423,4.90392 8.8347,3.85806 -1.1571,0.0425 -2.62481,0.0213 -3.92399,-0.45912 -0.5473,-0.28101 -1.28939,-0.86036 -1.15671,-0.96895 z m 0,-1.03997 c 0.0171,-0.0792 -0.0165,-0.16636 -0.24351,-0.31961 -2.37696,-1.82175 -3.93199,-3.44215 -4.08886,-6.37428 -0.1595,3.05727 0.98758,4.79971 2.94743,6.48336 0.0334,0.0151 0.0687,0.0422 0.10143,0.0533 -0.53569,-0.42891 -0.94997,-0.97555 -1.3342,-1.53713 0.72375,0.83142 1.60386,1.51128 2.56442,1.96072 -0.0302,-0.11658 0.036,-0.18713 0.0532,-0.26631 z m 14.00415,-6.78774 c -0.008,0.0591 -0.0268,0.13237 -0.0405,0.19785 0.0986,0.20145 0.0545,0.8956 -0.18264,1.67411 0.36412,-0.95522 0.24269,-1.29783 0.22312,-1.87196 z m -30.31652,0.3475 c -0.0131,0.53737 -0.0134,1.07591 0.0104,1.60816 0.003,-0.25908 -0.009,-0.51651 0.005,-0.77617 -0.0177,-0.26731 -0.0128,-0.5524 -0.0156,-0.83199 z m 0.0104,2.61009 c -0.10753,8.91207 6.65121,17.40552 14.04219,19.40693 1.11336,0.39898 2.76946,0.38426 4.17765,0.4236 -1.66102,-0.47538 -1.8763,-0.25256 -3.49533,-0.81677 -0.53178,-0.25072 -0.86561,-0.52005 -1.15919,-0.80407 -6.91591,-2.14151 -13.172,-9.87688 -13.56561,-18.20969 z m 2.38687,2.19917 -0.0152,0.14203 c 0.0287,0.0574 0.0595,0.11234 0.0862,0.16995 l 0.0152,-0.15219 c -0.0368,-0.0421 -0.0543,-0.11129 -0.0865,-0.15979 z m 2.15858,4.41608 c 0.0905,0.33552 0.35198,0.84414 0.69246,1.35196 -0.2789,-0.69118 -0.49733,-1.07466 -0.69275,-1.35196 z"
       id="path4666"
       inkscape:connector-curvature="0" />
  </g>
</svg>
